<?xml version="1.0" encoding="iso-8859-1"?>
<!-- Generator: Adobe Illustrator 17.0.2, SVG Export Plug-In . SVG Version: 6.00 Build 0)  -->
<!DOCTYPE svg PUBLIC "-//W3C//DTD SVG 1.1//EN" "http://www.w3.org/Graphics/SVG/1.1/DTD/svg11.dtd">
<svg version="1.1" id="Capa_1" xmlns="http://www.w3.org/2000/svg" xmlns:xlink="http://www.w3.org/1999/xlink" x="0px" y="0px"
	 width="100px" height="80px" viewBox="0 10 100 90" style="enable-background:new 0 0 100 100;" preserveAspectRatio="fit">
<g transform="rotate(180, 50, 50)">
	<path style="fill:#1D1D1B;" d="M39.311,50.002c-1.958,2.979-4.031,5.872-6.505,8.475c-5.828,6.131-13.433,7.759-21.639,7.342
		c-7.367-0.375-7.331,11.052,0,11.425c15.417,0.784,26.314-5.878,34.99-17.217c-1.429-1.863-2.749-3.739-3.957-5.546
		C41.206,52.995,40.244,51.477,39.311,50.002z"/>
	<path style="fill:#1D1D1B;" d="M54.195,40.91c0.792,1.245,1.574,2.47,2.363,3.67c1.447-1.997,2.99-3.925,4.726-5.717
		c4.383-4.524,9.376-6.383,14.858-6.909c-0.347,0.419-0.685,0.846-1.036,1.263c-2.003,2.38-2.341,5.737,0,8.079
		c2.06,2.06,6.072,2.385,8.079,0c3.091-3.672,6.043-7.46,9.134-11.132c2.013-2.023,2.783-5.387,0.292-8.086L82.329,10.938
		c-5.007-5.424-13.067,2.675-8.079,8.079l1.335,1.446c-5.609,0.401-11.009,1.828-15.995,5.069c-3.726,2.422-6.859,5.535-9.654,8.945
		c0.562,0.787,1.122,1.587,1.674,2.422C52.492,38.234,53.357,39.595,54.195,40.91z"/>
	<path style="fill:#1D1D1B;" d="M83.186,53.153c-0.967-1.149-2.399-1.669-3.855-1.669c-1.565,0-3.157,0.602-4.224,1.669
		c-2.341,2.342-2.003,5.699,0,8.079c0.351,0.417,0.689,0.844,1.036,1.263c-5.482-0.525-10.476-2.385-14.858-6.909
		c-2.493-2.573-4.597-5.419-6.571-8.361c-1.914-2.851-3.705-5.794-5.606-8.672c-0.363-0.55-0.736-1.078-1.107-1.61
		c-8.524-12.227-19.183-19.801-34.407-19.801c-0.795,0-1.605,0.021-2.426,0.062c-7.212,0.367-7.364,11.434-0.351,11.434
		c0.115,0,0.232-0.003,0.351-0.009c0.792-0.04,1.576-0.061,2.355-0.061c7.3,0,14.018,1.864,19.283,7.404
		c3.238,3.407,5.792,7.309,8.294,11.253c1.187,1.87,2.363,3.748,3.594,5.59c1.059,1.584,2.156,3.157,3.304,4.691
		c3.271,4.371,6.982,8.415,11.591,11.411c4.986,3.241,10.386,4.668,15.995,5.069l-1.335,1.446c-3.825,4.144,0.022,9.873,4.283,9.873
		c1.295,0,2.629-0.53,3.796-1.794l10.283-11.14c2.491-2.699,1.721-6.063-0.292-8.086C89.229,60.612,86.277,56.825,83.186,53.153z"/>
</g>
</svg>
