<?xml version="1.0" encoding="iso-8859-1"?>
<!-- Generator: Adobe Illustrator 16.0.4, SVG Export Plug-In . SVG Version: 6.00 Build 0)  -->
<!DOCTYPE svg PUBLIC "-//W3C//DTD SVG 1.1//EN" "http://www.w3.org/Graphics/SVG/1.1/DTD/svg11.dtd">
<svg version="1.1" xmlns="http://www.w3.org/2000/svg" xmlns:xlink="http://www.w3.org/1999/xlink" x="0px" y="0px"
   width="22.505px" height="21.37px" viewBox="0 0 22.505 21.37" style="enable-background:new 0 0 22.505 21.37;"
   preserveAspectRatio="fit">
<g>
  <path style="fill:#231F20;" d="M16.13,1.987L5.145,19.626l-0.001-0.002c-0.025,0.052-0.06,0.097-0.091,0.146l0,0
    c-0.507,0.811-1.643,1.018-2.536,0.46l0,0c-0.895-0.559-1.208-1.669-0.701-2.481l0,0c0.031-0.048,0.07-0.088,0.106-0.134l0,0
    l-0.759-0.471c-0.033,0.043-0.066,0.088-0.098,0.137l0,0c-0.742,1.189-0.282,2.813,1.025,3.631l0,0
    c1.309,0.816,2.971,0.514,3.713-0.675l0,0c0.018-0.028,0.033-0.058,0.048-0.087l0,0l0.002,0.002L16.899,2.455l1.173-2.21L17.696,0
    L16.13,1.987z"/>
  <path style="fill:#231F20;" d="M0,4.66c1.019-0.461,2.24-0.422,3.261,0.215l0,0c1.278,0.798,1.853,2.29,1.548,3.683l0,0
    c1.116-0.886,2.71-1.025,3.988-0.229l0,0c1.277,0.799,1.853,2.292,1.547,3.684l0,0c1.116-0.887,2.712-1.026,3.988-0.229l0,0
    c1.278,0.798,1.853,2.291,1.548,3.684l0,0c1.116-0.886,2.71-1.026,3.987-0.229l0,0c1.062,0.662,1.635,1.804,1.625,2.969
    c2.426-5.728,0.398-12.529-5.045-15.928l0,0c-2.12-1.322-4.475-1.953-6.801-1.953C6.033,0.327,2.489,1.849,0,4.66z"/>
</g>
<g>
</g>
<g>
</g>
<g>
</g>
<g>
</g>
<g>
</g>
<g>
</g>
<g>
</g>
<g>
</g>
<g>
</g>
<g>
</g>
<g>
</g>
<g>
</g>
<g>
</g>
<g>
</g>
<g>
</g>
</svg>
