<?xml version="1.0" encoding="utf-8"?>
<!-- Generator: Adobe Illustrator 16.0.0, SVG Export Plug-In . SVG Version: 6.00 Build 0)  -->
<!DOCTYPE svg PUBLIC "-//W3C//DTD SVG 1.1//EN" "http://www.w3.org/Graphics/SVG/1.1/DTD/svg11.dtd">
<svg version="1.1" id="Layer_1" xmlns="http://www.w3.org/2000/svg" xmlns:xlink="http://www.w3.org/1999/xlink" x="0px" y="0px"
	 width="100px" height="100px" viewBox="0 0 100 100" enable-background="new 0 0 100 100" preserveAspectRatio="fit">
<path d="M98.796,48.461L52.743,10.822c-1.496-1.222-3.644-1.222-5.139,0l-11.796,9.643V15.46c0-1.081-0.875-1.954-1.956-1.954
	H22.501c-1.081,0-1.956,0.874-1.956,1.954v17.479L1.552,48.461c-0.837,0.682-0.959,1.915-0.277,2.751
	c0.387,0.472,0.95,0.72,1.518,0.72c0.435,0,0.871-0.146,1.235-0.441l9.859-8.06v49.086c0,1.08,0.875,1.955,1.954,1.955h68.666
	c1.079,0,1.956-0.875,1.956-1.955V43.432l9.859,8.06c0.363,0.296,0.801,0.441,1.234,0.441c0.567,0,1.129-0.248,1.517-0.72
	C99.755,50.376,99.633,49.145,98.796,48.461z M24.456,17.414h7.44v6.246l-7.44,6.081V17.414z M82.552,90.561H17.796V40.236
	L48.5,15.141c0.974-0.796,2.373-0.796,3.347,0l30.705,25.095V90.561z"/>
</svg>
