<?xml version="1.0" encoding="iso-8859-1"?>
<!-- Generator: Adobe Illustrator 18.1.1, SVG Export Plug-In . SVG Version: 6.00 Build 0)  -->
<svg version="1.1" id="Capa_1" xmlns="http://www.w3.org/2000/svg" xmlns:xlink="http://www.w3.org/1999/xlink" x="0px" y="0px"
	 width="16px" height="16px" viewBox="0 0 59 59" style="enable-background:new 0 0 59 59;" xml:space="preserve">
<g>
	<g>
		<path style="fill:#fff;" d="M47.125,7.75H43.25c-0.553,0-1-0.447-1-1V5c0-2.757-2.242-5-5-5h-15.5c-2.757,0-5,2.243-5,5v1.75
			c0,0.553-0.448,1-1,1h-3.875c-2.761,0-5,2.238-5,5v4.75c0,0.553,0.448,1,1,1h43.25c0.554,0,1-0.447,1-1v-4.75
			C52.125,9.988,49.888,7.75,47.125,7.75z M38.25,6.75c0,0.553-0.446,1-1,1h-15.5c-0.552,0-1-0.447-1-1V5c0-0.552,0.449-1,1-1h15.5
			c0.553,0,1,0.448,1,1V6.75z"/>
		<path style="fill:#fff;" d="M46.877,21h-34.75c-0.553,0-1,0.447-1,1v32c0,2.762,2.239,5,5,5h26.75c2.762,0,5-2.238,5-5V22
			C47.877,21.447,47.43,21,46.877,21z M21.376,52c0,1.104-0.895,2-2,2c-1.104,0-2-0.896-2-2V27.25c0-1.104,0.896-2,2-2
			c1.105,0,2,0.896,2,2V52z M31.501,52c0,1.104-0.895,2-2,2c-1.104,0-2-0.896-2-2V27.25c0-1.104,0.896-2,2-2c1.105,0,2,0.896,2,2V52
			z M41.625,52c0,1.104-0.896,2-2,2s-2-0.896-2-2V27.25c0-1.104,0.896-2,2-2s2,0.896,2,2V52z"/>
	</g>
</g>
<g>
</g>
<g>
</g>
<g>
</g>
<g>
</g>
<g>
</g>
<g>
</g>
<g>
</g>
<g>
</g>
<g>
</g>
<g>
</g>
<g>
</g>
<g>
</g>
<g>
</g>
<g>
</g>
<g>
</g>
</svg>
