<?xml version="1.0" encoding="iso-8859-1"?>
<!-- Generator: Adobe Illustrator 18.1.1, SVG Export Plug-In . SVG Version: 6.00 Build 0)  -->
<svg version="1.1" id="Capa_1" xmlns="http://www.w3.org/2000/svg" xmlns:xlink="http://www.w3.org/1999/xlink" x="0px" y="0px"
	 viewBox="0 0 32 32" style="enable-background:new 0 0 32 32;" xml:space="preserve">
<g>
	<path style="fill:#030104;" d="M31,4.5l-22-4c-0.205,0-0.402,0.107-0.589,0.309L8.397,0.792L2,6.16V4.496C2,3.946,1.556,3.5,1,3.5
		c-0.553,0-1,0.439-1,0.996v26.008C0,31.055,0.444,31.5,1,31.5c0.553,0,1-0.439,1-0.996V8.805l6.385,5.358
		C8.579,14.382,8.785,14.5,9,14.5l22-4c0.553,0,1-1.343,1-3S31.553,4.5,31,4.5z M7.495,12.11L2,7.5V7.466l5.506-4.62
		C7.191,4.083,7,5.713,7,7.5C7,9.266,7.187,10.879,7.495,12.11z M9.5,13.5c-0.828,0-1.5-2.687-1.5-6s0.672-6,1.5-6s1.5,2.687,1.5,6
		S10.328,13.5,9.5,13.5z M20,11.5l-4.645,0.929C15.745,11.345,16,9.542,16,7.5s-0.255-3.845-0.645-4.929L20,3.5c0.553,0,1,1.791,1,4
		S20.553,11.5,20,11.5z M29,10l-3.611,0.723C25.76,9.994,26,8.822,26,7.5s-0.24-2.494-0.611-3.223L29,5c0.275,0,0.5,1.119,0.5,2.5
		S29.275,10,29,10z"/>
</g>
<g>
</g>
<g>
</g>
<g>
</g>
<g>
</g>
<g>
</g>
<g>
</g>
<g>
</g>
<g>
</g>
<g>
</g>
<g>
</g>
<g>
</g>
<g>
</g>
<g>
</g>
<g>
</g>
<g>
</g>
</svg>
