<?xml version="1.0" encoding="iso-8859-1"?>
<!-- Generator: Adobe Illustrator 17.0.0, SVG Export Plug-In . SVG Version: 6.00 Build 0)  -->
<!DOCTYPE svg PUBLIC "-//W3C//DTD SVG 1.1//EN" "http://www.w3.org/Graphics/SVG/1.1/DTD/svg11.dtd">
<svg version="1.1" id="Capa_1" xmlns="http://www.w3.org/2000/svg" xmlns:xlink="http://www.w3.org/1999/xlink" x="0px" y="0px"
	 width="64px" height="64px" viewBox="0 0 64 64" style="enable-background:new 0 0 64 64;" xml:space="preserve">
<path d="M63.124,23.524c0.123-0.18,0.07-0.414-0.117-0.523l-6.316-3.72c-0.188-0.109-0.402-0.035-0.48,0.166L44.915,48.483
	c-0.284-0.141-0.631-0.304-1.031-0.477l11.259-28.762V17.48c0-0.216-0.175-0.392-0.392-0.392h-1.635L42.311,47.396
	c-0.238-0.083-0.487-0.165-0.746-0.245l11.004-30.865l-0.775-1.496c-0.1-0.192-0.355-0.349-0.572-0.349h-1.654l-8.514,32.558
	c-0.245-0.069-0.498-0.137-0.758-0.201l8.619-32.961l-0.99-1.35c-0.129-0.175-0.399-0.262-0.606-0.194l-1.656,0.542l-5.984,33.819
	c-0.25-0.055-0.508-0.106-0.77-0.153l5.941-33.576l-1.451-2.176c-0.119-0.181-0.381-0.262-0.581-0.182l-2.55,1.016l-2.244,34.779
	c-0.256-0.035-0.516-0.065-0.779-0.091l2.258-35.008l-1.225-1.102c-0.161-0.144-0.453-0.194-0.653-0.109l-2.636,1.11l0.777,35.019
	c-0.264-0.006-0.525-0.008-0.785-0.005l-0.777-35.121l-1.756-0.968c-0.189-0.104-0.486-0.086-0.662,0.04l-1.545,1.117l4.492,34.936
	c-0.266,0.007-0.529,0.017-0.787,0.031l-4.473-34.787l-2.133-1.32c-0.185-0.114-0.434-0.062-0.558,0.116l-0.714,1.031l7.588,34.979
	c-0.268,0.019-0.53,0.041-0.788,0.067L25.28,11.312l-1.553-0.808c-0.192-0.1-0.407-0.016-0.48,0.189l-0.645,1.805l9.941,33.837
	c-0.269,0.031-0.531,0.065-0.788,0.103l-9.873-33.609l-2.424-1.132l-0.809,2.517l12.712,32.285c-0.271,0.044-0.534,0.091-0.788,0.14
	L17.847,14.316l-1.728-0.298c-0.214-0.037-0.319,0.095-0.235,0.295l13.662,32.541c-1.113,0.257-1.992,0.531-2.531,0.717
	L13.854,15.36c-0.082-0.2-0.299-0.273-0.484-0.161l-3.249,1.949c-0.186,0.111-0.374,0.373-0.419,0.585l-1.08,4.946l-4.646,0.56
	c-0.216,0.025-0.452,0.21-0.529,0.412C3.2,24.298,2.688,25.634,2.442,26.28c-0.078,0.203-0.061,0.523,0.037,0.717l13.366,26.31
	c0.099,0.193,0.343,0.291,0.548,0.219l7.117-2.513l4.215-1.704c8.535-2.155,17.125,0.949,17.125,0.949l0.563-0.746l0.022,0.025
	c0,0,0.385-0.563,0.385-0.565L63.124,23.524z M16.066,36.892l-3.159,1.28l-0.675-1.262l3.18-1.261L16.066,36.892z M5.132,26.193
	l1.748-0.369l-0.281-0.599l2.939-0.72l0.663,1.258l-2.952,0.849L7.05,26.188l-1.727,0.365L5.132,26.193z M6.498,28.764l1.622-0.343
	l-0.23-0.489l3.031-0.742l0.683,1.247l-3.063,0.882l-0.25-0.533L6.69,29.124L6.498,28.764z M8.001,31.592l1.822-0.386l-0.211-0.448
	l2.853-0.699l0.664,1.261l-2.867,0.825l-0.27-0.573l-1.801,0.381L8.001,31.592z M9.774,34.928l4.315-1.787l0.184,0.349l-4.314,1.786
	L9.774,34.928z M10.57,36.426l4.311-1.784l0.184,0.349l-4.31,1.784L10.57,36.426z M12.068,39.246l4.335-1.717l0.184,0.349
	l-4.334,1.717L12.068,39.246z M13.817,40.021l3.198-1.328l0.739,1.404l-3.272,1.305L13.817,40.021z M14.827,44.436l-0.186-0.348
	l4.283-1.773l0.184,0.349L14.827,44.436z M16.308,47.223l1.389-0.549l-0.322-0.591l2.865-1.275l0.855,1.625l-2.862,1.229
	l-0.349-0.641l-1.391,0.551L16.308,47.223z M17.327,49.143l4.305-1.693l0.184,0.349l-4.303,1.693L17.327,49.143z M20.533,51.125
	l-0.439-0.803l2.543-0.963l0.394,0.818L20.533,51.125z"/>
</svg>
