<?xml version="1.0" encoding="iso-8859-1"?>
<!-- Generator: Adobe Illustrator 16.0.0, SVG Export Plug-In . SVG Version: 6.00 Build 0)  -->
<!DOCTYPE svg PUBLIC "-//W3C//DTD SVG 1.1//EN" "http://www.w3.org/Graphics/SVG/1.1/DTD/svg11.dtd">
<svg version="1.1" id="Capa_1" xmlns="http://www.w3.org/2000/svg" xmlns:xlink="http://www.w3.org/1999/xlink" x="0px" y="0px"
	 width="32px" height="32px" viewBox="0 0 32 32" style="enable-background:new 0 0 32 32;" xml:space="preserve">
<g>
	<path d="M15.133,6.932c0.292,0,0.528-0.236,0.528-0.528s-0.236-0.528-0.528-0.528c-0.058,0-0.113,0.012-0.166,0.029
		c0.039,0.043,0.063,0.098,0.063,0.161c0,0.135-0.109,0.245-0.245,0.245c-0.059,0-0.112-0.024-0.154-0.06
		c-0.015,0.049-0.025,0.1-0.025,0.154C14.605,6.695,14.842,6.932,15.133,6.932z"/>
	<path d="M17.621,6.886c0.292,0,0.528-0.236,0.528-0.528S17.913,5.83,17.621,5.83c-0.06,0-0.114,0.012-0.166,0.03
		c0.037,0.043,0.063,0.098,0.063,0.16c0,0.135-0.109,0.245-0.244,0.245c-0.061,0-0.113-0.024-0.155-0.06
		c-0.015,0.048-0.024,0.1-0.024,0.153C17.093,6.65,17.329,6.886,17.621,6.886z"/>
	<path d="M16.388,8.674c0.553,0,0.81-0.617,0.81-0.617h-1.633C15.565,8.057,15.835,8.674,16.388,8.674z"/>
	<path d="M12.812,4.478c-0.057,0.544-0.212,2.887,1.02,4.294c0.612,0.699,1.468,1.054,2.544,1.054c0.01,0,0.019-0.001,0.027-0.001
		c0.01,0,0.019,0.001,0.028,0.001c1.075,0,1.931-0.355,2.543-1.054c1.23-1.408,1.076-3.75,1.021-4.294
		c0.29-0.071,0.479-0.047,0.537-0.097c0.11-0.096,0.124-0.837,0.015-1.001c-0.109-0.165-0.565-0.089-0.648-0.24
		c-0.067-0.125-0.471-2.166-2.256-2.89v2.572h-0.639V0.063C16.814,0.028,16.615,0.007,16.405,0l0,0c-0.001,0-0.002,0-0.003,0
		c0,0-0.001,0-0.002,0l0,0c-0.211,0.006-0.41,0.028-0.597,0.063v2.758h-0.641V0.25c-1.783,0.724-2.188,2.765-2.256,2.89
		c-0.081,0.15-0.536,0.074-0.647,0.239c-0.109,0.164-0.095,0.905,0.014,1.001C12.331,4.43,12.521,4.407,12.812,4.478z M13.239,4.635
		c0.184,0.091,0.389,0.223,0.612,0.417c0.372,0,1.777,0.005,2.445,0.008v0.001c0,0,0.039,0,0.105,0c0.066,0,0.105,0,0.105,0V5.06
		c0.668-0.002,2.073-0.008,2.445-0.008c0.223-0.194,0.428-0.326,0.612-0.417c0.05,0.653,0.108,2.668-0.925,3.849
		c-0.523,0.599-1.27,0.903-2.211,0.903c-0.01,0-0.018-0.001-0.025-0.001l0,0c-0.001,0-0.002,0-0.003,0c0,0-0.001,0-0.002,0l0,0
		c-0.009,0-0.017,0.001-0.025,0.001c-0.943,0-1.688-0.304-2.213-0.903C13.129,7.304,13.188,5.288,13.239,4.635z"/>
	<ellipse cx="18.876" cy="25.721" rx="0.627" ry="0.614"/>
	<ellipse cx="17.972" cy="29.441" rx="0.525" ry="0.515"/>
	<g>
		<circle cx="13.629" cy="27.192" r="0.953"/>
		<path d="M28.427,24.223c-0.08-0.08-0.189-0.127-0.306-0.127l-3.345,0.01v-0.703h-1.079V22.55h-4.594
			c0.262-0.14,0.479-0.255,0.522-0.274c0.129-0.053,0.09-0.135,0.062-0.187c-0.006-0.012-0.045-0.078-0.104-0.172l1.838-1.112
			c0.254,0.176,0.578,0.243,0.896,0.19c0.194,0.116,0.422,0.188,0.667,0.188c0.707,0,1.279-0.562,1.285-1.259l0.725-0.438
			c0.596-0.361,0.803-1.107,0.463-1.67c-0.195-0.323-0.533-0.51-0.896-0.543c0.069-0.905,0.104-2.024-0.021-2.708
			c-0.539-2.95-4.416-5.168-5.459-5.06c-0.326,0.047-0.781,1.367-2.809,1.367s-2.287-1.32-2.614-1.367
			c-1.043-0.108-4.955,1.953-5.495,4.902c-0.14,0.766,0.041,2.143,0.183,2.884l-0.801-0.335C7.08,16.76,6.543,16.98,6.348,17.445
			c-0.195,0.467,0.024,1.004,0.491,1.199l1.649,0.69c-0.002,0.026-0.008,0.05-0.008,0.077c0,0.699,0.575,1.268,1.285,1.268
			c0.375,0,0.71-0.16,0.945-0.414l0.285,0.12c0.03,0.792,0.508,1.534,1.287,1.86c0.756,0.316,1.562,0.178,2.146-0.32
			c0.076-0.064,0.064-0.208-0.077-0.197c-0.11,0.002-0.124,0.019-0.285,0.014c-0.162-0.008-0.809-0.153-1.094-0.359
			c-0.286-0.206-0.641-0.872-0.442-1.345c0.002-0.006,0.011-0.022,0.011-0.022c0.002-0.007,0.004-0.014,0.006-0.02
			c0.199-0.473,0.922-0.688,1.27-0.628c0.347,0.059,0.905,0.417,1.022,0.528c0.118,0.11,0.115,0.133,0.191,0.211
			c0.092,0.108,0.202,0.019,0.195-0.082c-0.057-0.766-0.522-1.438-1.278-1.754c-0.794-0.332-1.675-0.14-2.261,0.418l-1.036-0.435
			c-0.237-1.524-0.394-2.713-0.183-3.057c0.396-0.648,1.609-1.917,1.609-1.917l0.021,4.783c0.604-0.289,1.325-0.324,1.961-0.059
			c0.845,0.354,1.388,1.102,1.453,1.998c0.008,0.118-0.032,0.232-0.111,0.316c-0.157,0.169-0.434,0.16-0.59-0.027
			c-0.027-0.025-0.05-0.055-0.073-0.084c-0.021-0.025-0.042-0.053-0.096-0.104c-0.093-0.088-0.599-0.406-0.874-0.453
			c-0.256-0.045-0.823,0.142-0.955,0.455l-0.015,0.037c-0.14,0.332,0.147,0.864,0.343,1.006c0.226,0.162,0.81,0.299,0.937,0.305
			h0.048c0.044,0,0.069-0.003,0.095-0.005c0.036-0.005,0.071-0.009,0.127-0.009h0.001c0.192,0,0.335,0.096,0.392,0.25
			c0.015,0.039,0.022,0.08,0.023,0.121l1.551,0.004l0,0h0.058h0.059l0,0h0.335c0.047-0.17,0.156-0.325,0.324-0.436l0.149-0.101
			c0.331-0.224,1.104-0.746,1.198-0.815c0.173-0.141,0.343-0.17,0.456-0.17c0.077,0,0.198,0.016,0.323,0.086l1.147-0.695
			c0.03-0.278,0.126-0.547,0.276-0.785l0.023-5.618c0,0,1.178,1.427,1.573,2.075c0.183,0.296,0.086,1.997-0.065,3.062l-0.615,0.373
			c-0.445,0.271-0.674,0.757-0.617,1.22l-1.836,1.111c-0.061-0.1-0.104-0.167-0.11-0.178c-0.032-0.049-0.086-0.12-0.194-0.032
			c-0.086,0.071-1.041,0.713-1.393,0.95c-0.13,0.082-0.098,0.178-0.061,0.238c0.019,0.028,0.142,0.232,0.273,0.45H8.697v0.53h-1.69
			v0.8H4.453c-0.557-0.002-1.007,0.45-1.007,1.007v6.096c0,0.557,0.45,1.008,1.007,1.008c0.557,0,1.007-0.451,1.007-1.008v-5.09
			h1.547l0.016,0.742h1.69l-0.016,5.338h15.001v-3.957h1.079v-0.576h1.457l-0.011,4.102c0,0.238,0.193,0.432,0.433,0.432
			s0.433-0.192,0.433-0.432l0.01-4.532c0-0.239-0.193-0.432-0.432-0.432h-1.89v-0.66h-1.079l0.01-0.375h1.069v-0.608l2.912,0.024
			l-0.017,6.608c0,0.238,0.192,0.432,0.431,0.432h0.001c0.238,0,0.431-0.191,0.432-0.432l0.018-7.039
			C28.554,24.415,28.509,24.305,28.427,24.223z M7.544,17.966c-0.09,0.214-0.336,0.315-0.55,0.226
			c-0.215-0.09-0.315-0.336-0.227-0.551c0.09-0.215,0.337-0.315,0.551-0.226C7.533,17.505,7.634,17.751,7.544,17.966z
			 M16.171,28.177c-0.117,0.026-0.313,0.056-0.646,0.097l-0.03,0.002l-0.161,0.227l0.006,0.028c0.155,0.79,0.13,0.806,0.063,0.848
			l-0.515,0.317c-0.022,0.014-0.055,0.019-0.081,0.013c-0.023-0.005-0.096-0.022-0.657-0.446l-0.022-0.018l-0.282,0.046
			l-0.015,0.024c-0.458,0.66-0.489,0.653-0.563,0.637l-0.299-0.067l-0.299-0.067C12.596,29.8,12.566,29.793,12.437,29l-0.004-0.027
			l-0.234-0.164l-0.027,0.006c-0.689,0.143-0.761,0.125-0.785,0.121c-0.027-0.006-0.054-0.025-0.069-0.045l-0.329-0.51
			c-0.042-0.066-0.058-0.09,0.422-0.738l0.017-0.021l-0.048-0.273l-0.025-0.015c-0.284-0.181-0.448-0.292-0.542-0.365l0.197-0.874
			c0.118-0.027,0.313-0.062,0.649-0.111l0.028-0.004l0.16-0.227l-0.006-0.029c-0.174-0.779-0.147-0.797-0.082-0.838l0.517-0.318
			c0.021-0.012,0.054-0.018,0.081-0.012c0.064,0.016,0.29,0.161,0.673,0.436l0.022,0.016l0.28-0.047l0.017-0.023
			c0.437-0.668,0.47-0.66,0.542-0.645l0.325,0.073l0.325,0.073c0.072,0.017,0.105,0.023,0.213,0.814l0.004,0.029l0.233,0.162
			l0.027-0.004c0.463-0.084,0.73-0.117,0.794-0.104c0.026,0.006,0.054,0.023,0.068,0.045l0.33,0.51
			c0.042,0.065,0.059,0.092-0.434,0.721l-0.018,0.023l0.048,0.273l0.023,0.016c0.282,0.189,0.444,0.305,0.538,0.381L16.171,28.177z
			 M19.503,29.592c0,0.041,0,0.057-0.406,0.213l-0.014,0.006l-0.057,0.135l0.007,0.014c0.183,0.382,0.17,0.395,0.142,0.423
			l-0.23,0.226c-0.01,0.01-0.025,0.016-0.04,0.016c-0.035,0-0.169-0.049-0.397-0.146l-0.014-0.004l-0.14,0.057l-0.007,0.014
			c-0.147,0.396-0.164,0.396-0.205,0.396h-0.324c-0.04,0-0.057,0-0.217-0.396l-0.004-0.014l-0.142-0.058l-0.014,0.006
			c-0.339,0.153-0.378,0.153-0.392,0.153c-0.015,0-0.03-0.006-0.041-0.016l-0.229-0.226c-0.029-0.029-0.04-0.039,0.132-0.43
			l0.007-0.014l-0.058-0.135l-0.015-0.006c-0.404-0.145-0.404-0.162-0.404-0.203v-0.317c0-0.041,0-0.056,0.404-0.212l0.014-0.006
			l0.057-0.135l-0.007-0.015c-0.181-0.382-0.169-0.394-0.14-0.423l0.23-0.225c0.008-0.01,0.024-0.017,0.039-0.017
			c0.034,0,0.17,0.05,0.398,0.146l0.014,0.006l0.139-0.057l0.006-0.015c0.147-0.396,0.166-0.396,0.205-0.396h0.326
			c0.039,0,0.055,0,0.215,0.395l0.006,0.014l0.14,0.057l0.015-0.006c0.34-0.154,0.379-0.154,0.392-0.154
			c0.014,0,0.03,0.007,0.04,0.016l0.229,0.225c0.028,0.027,0.041,0.039-0.132,0.43l-0.006,0.014l0.058,0.137l0.014,0.004
			c0.406,0.146,0.406,0.162,0.406,0.203V29.592z M20.698,25.902c0,0.048,0,0.065-0.482,0.254l-0.017,0.006l-0.067,0.161l0.008,0.017
			c0.217,0.456,0.203,0.471,0.168,0.504l-0.274,0.268c-0.011,0.013-0.03,0.02-0.048,0.02c-0.041,0-0.201-0.058-0.475-0.174
			l-0.017-0.006l-0.166,0.066l-0.007,0.018c-0.177,0.472-0.195,0.472-0.245,0.472h-0.387c-0.048,0-0.067,0-0.259-0.471l-0.004-0.017
			l-0.168-0.066l-0.017,0.007c-0.403,0.183-0.45,0.183-0.466,0.183c-0.018,0-0.037-0.008-0.049-0.019l-0.273-0.269
			c-0.035-0.035-0.048-0.047,0.157-0.513l0.008-0.017l-0.067-0.161l-0.018-0.006c-0.482-0.173-0.482-0.193-0.482-0.242v-0.379
			c0-0.048,0-0.065,0.481-0.253l0.017-0.006l0.067-0.161l-0.008-0.017c-0.216-0.457-0.201-0.471-0.167-0.506l0.273-0.268
			c0.012-0.012,0.031-0.02,0.049-0.02c0.041,0,0.201,0.06,0.475,0.174l0.018,0.007l0.166-0.067l0.006-0.017
			c0.177-0.472,0.197-0.472,0.244-0.472h0.389c0.047,0,0.066,0,0.256,0.471l0.007,0.017l0.167,0.067l0.018-0.008
			c0.403-0.183,0.451-0.183,0.465-0.183c0.019,0,0.037,0.009,0.049,0.019l0.273,0.268c0.033,0.034,0.049,0.048-0.156,0.514
			l-0.008,0.018l0.067,0.162l0.017,0.006c0.483,0.172,0.483,0.193,0.483,0.24L20.698,25.902L20.698,25.902z"/>
	</g>
</g>
<g>
</g>
<g>
</g>
<g>
</g>
<g>
</g>
<g>
</g>
<g>
</g>
<g>
</g>
<g>
</g>
<g>
</g>
<g>
</g>
<g>
</g>
<g>
</g>
<g>
</g>
<g>
</g>
<g>
</g>
</svg>
