<?xml version="1.0" encoding="iso-8859-1"?>
<!-- Generator: Adobe Illustrator 16.0.0, SVG Export Plug-In . SVG Version: 6.00 Build 0)  -->
<!DOCTYPE svg PUBLIC "-//W3C//DTD SVG 1.1//EN" "http://www.w3.org/Graphics/SVG/1.1/DTD/svg11.dtd">
<svg version="1.1" id="Capa_1" xmlns="http://www.w3.org/2000/svg" xmlns:xlink="http://www.w3.org/1999/xlink" x="0px" y="0px"
	 width="104.44px" height="104.44px" viewBox="0 0 104.44 104.44" style="enable-background:new 0 0 104.44 104.44;"
	 xml:space="preserve">
<g>
	<g>
		<path d="M59.918,93.795c-5.79-0.1-8.754-2.909-10.261-7.755c-1.264-4.079-1.875-8.377-2.815-12.566
			c-0.787-3.531,0.173-5.64,3.855-7.152c6.202-2.539,11.062-6.898,14.751-13.25c-6.126,3.993-19.152,13.801-19.355,11.231
			c0-8.819,4.976-19.111,7.667-27.692c-14.217,19.479-17.722,32.445-7.433,55.151c-2.348-0.575-3.441,0.452-4.03-0.068
			c-5.625-4.966-11.382,0.992-17.157,5.099c-0.726,0.514-0.501,3.984-0.238,4.039c5.674,1.32,11.375,2.826,17.147,3.299
			c6.037,0.499,12.191,0.39,18.205-0.274c5.003-0.547,9.869-2.292,15.543-3.682C71.061,93.449,65.127,93.873,59.918,93.795z"/>
		<path d="M69.589,44.559c-3.155,1.843-5.023,4.818-4.962,7.438c0.014,0.808,6.707-2.21,7.111-1.524
			c0.486,0.832-5.277,5.255-4.4,5.68c2.244,1.091,5.529,0.828,8.5-0.897c4.113-2.405,7.577-11.597,7.577-11.597
			S73.709,42.158,69.589,44.559z"/>
		<path d="M65.257,39.343c1.681,0.813,4.141,0.616,6.365-0.676c3.08-1.798,5.674-8.684,5.674-8.684s-7.269-1.126-10.355,0.669
			c-2.361,1.388-3.765,3.612-3.717,5.575c0.014,0.607,5.024-1.656,5.325-1.138C68.913,35.712,64.593,39.021,65.257,39.343z"/>
		<path d="M79.801,31.651c-1.786,1.047-2.84,2.729-2.806,4.211c0.007,0.46,3.791-1.247,4.021-0.857
			c0.273,0.469-2.994,2.974-2.491,3.213c1.273,0.616,3.131,0.469,4.812-0.512c2.327-1.357,4.288-6.56,4.288-6.56
			S82.135,30.291,79.801,31.651z"/>
		<path d="M85.051,47.683c-0.145,0.267,2.546,0.523,2.553,0.818c0,0.356-2.648,0.713-2.443,1.011
			c0.514,0.758,1.615,1.273,2.881,1.267c1.753-0.019,4.531-2.32,4.531-2.32S89.753,46.197,88,46.215
			C86.653,46.229,85.509,46.843,85.051,47.683z"/>
		<path d="M91.881,36.021c-1.43,0.269-2.525,1.128-2.854,2.117c-0.104,0.308,2.806,0.074,2.867,0.389
			c0.068,0.371-2.683,1.254-2.412,1.535c0.691,0.705,1.961,1.054,3.299,0.803c1.858-0.348,4.387-3.318,4.387-3.318
			S93.744,35.671,91.881,36.021z"/>
		<path d="M55.831,47.984c1.269,0.621,3.13,0.471,4.813-0.51c2.327-1.36,4.284-6.564,4.284-6.564s-5.488-0.852-7.822,0.507
			c-1.787,1.049-2.841,2.73-2.805,4.212c0.007,0.458,3.79-1.248,4.022-0.859C58.598,45.241,55.334,47.743,55.831,47.984z"/>
		<path d="M64.894,25.627c0.151,0.431,3.217-2.368,3.56-2.063c0.41,0.357-1.924,3.749-1.376,3.819
			c1.403,0.2,3.128-0.515,4.422-1.973c1.793-2.007,2.046-7.558,2.046-7.558s-5.489,0.88-7.282,2.894
			C64.887,22.299,64.402,24.226,64.894,25.627z"/>
		<path d="M82.745,23.563c0.403,0.357-1.924,3.749-1.376,3.819c1.399,0.2,3.128-0.515,4.422-1.973
			c1.786-2.007,2.039-7.558,2.039-7.558s-5.489,0.883-7.282,2.897c-1.369,1.55-1.854,3.48-1.369,4.882
			C79.329,26.058,82.402,23.259,82.745,23.563z"/>
		<path d="M65.168,13.993c0.41,0.361-1.924,3.749-1.379,3.826c1.402,0.197,3.131-0.522,4.425-1.973
			c1.793-2.01,2.046-7.564,2.046-7.564s-5.489,0.883-7.282,2.897c-1.379,1.547-1.861,3.477-1.369,4.878
			C61.76,16.484,64.826,13.688,65.168,13.993z"/>
		<path d="M53.469,15.566c0.555,0.273,0.876-5.288,1.479-5.318c0.732-0.039,1.672,5.404,2.274,4.954
			c1.52-1.121,2.505-3.431,2.375-6.037C59.44,5.561,54.476,0,54.476,0s-4.438,5.996-4.265,9.613
			C50.343,12.385,51.693,14.687,53.469,15.566z"/>
		<path d="M49.857,27.108c0.452,0.11-0.214-3.99,0.224-4.11c0.519-0.144,2.088,3.662,2.441,3.246
			c0.939-1.073,1.273-2.902,0.775-4.781c-0.705-2.599-5.215-5.852-5.215-5.852s-2.26,5.079-1.552,7.681
			C47.07,25.292,48.42,26.753,49.857,27.108z"/>
		<path d="M25.6,30.666c1.959,0.669,3.922,0.364,5.025-0.63c0.337-0.31-3.434-2.051-3.287-2.481
			c0.173-0.515,4.203,0.315,4.052-0.217c-0.357-1.371-1.689-2.681-3.526-3.306c-2.555-0.876-7.769,1.052-7.769,1.052
			S23.048,29.797,25.6,30.666z"/>
		<path d="M12.775,25.516c1.959,0.666,3.92,0.364,5.025-0.631c0.332-0.308-3.431-2.05-3.287-2.484
			c0.171-0.515,4.201,0.322,4.057-0.214c-0.368-1.367-1.696-2.674-3.528-3.304c-2.555-0.873-7.77,1.051-7.77,1.051
			S10.217,24.646,12.775,25.516z"/>
		<path d="M25.456,51.254c0.221-0.406-3.913-0.803-3.913-1.261c-0.014-0.544,4.072-1.09,3.756-1.538
			c-0.796-1.17-2.484-1.97-4.428-1.956c-2.698,0.017-6.988,3.558-6.988,3.558s4.338,3.473,7.036,3.453
			C22.994,53.488,24.746,52.558,25.456,51.254z"/>
		<path d="M19.646,37.618c0.221-0.398-3.915-0.801-3.921-1.254c-0.007-0.545,4.072-1.09,3.757-1.538
			c-0.796-1.177-2.478-1.973-4.423-1.959c-2.698,0.019-6.988,3.558-6.988,3.558s4.339,3.474,7.038,3.448
			C17.176,39.858,18.935,38.922,19.646,37.618z"/>
		<path d="M29.778,20.42c0.458-0.039-1.5-3.697-1.123-3.956c0.445-0.313,3.162,2.786,3.361,2.271c0.541-1.314,0.26-3.158-0.827-4.77
			c-1.514-2.231-6.831-3.83-6.831-3.83s-0.486,5.534,1.035,7.762C26.546,19.614,28.298,20.561,29.778,20.42z"/>
		<path d="M42.101,20.42c0.46-0.039-1.499-3.697-1.121-3.956c0.445-0.313,3.16,2.786,3.36,2.271c0.532-1.314,0.26-3.158-0.826-4.77
			c-1.514-2.231-6.831-3.83-6.831-3.83s-0.486,5.534,1.033,7.762C38.871,19.614,40.623,20.561,42.101,20.42z"/>
		<path d="M54.02,27.766c-0.501,2.693,0.281,5.214,1.794,6.458c0.467,0.385,2.024-4.885,2.612-4.777
			c0.705,0.133,0.397,5.569,1.071,5.275c1.715-0.739,3.173-2.731,3.648-5.263c0.66-3.501-2.868-9.964-2.868-9.964
			S54.676,24.258,54.02,27.766z"/>
		<path d="M39.151,33.144c1.595,2.229,3.949,3.424,5.895,3.196c0.595-0.066-2.117-4.854-1.622-5.2
			c0.58-0.417,4.278,3.581,4.538,2.89c0.659-1.746,0.231-4.177-1.259-6.276c-2.067-2.9-9.156-4.853-9.156-4.853
			S37.081,30.238,39.151,33.144z"/>
		<path d="M32.139,47.474c3.511,0.392,6.694-0.835,8.151-2.902c0.459-0.632-6.476-2.16-6.393-2.93
			c0.101-0.926,7.132-1.02,6.694-1.861c-1.107-2.138-3.812-3.833-7.118-4.209c-4.565-0.519-12.56,4.613-12.56,4.613
			S27.565,46.957,32.139,47.474z"/>
		<path d="M40.599,52.913c-0.752-1.456-2.587-2.602-4.832-2.86c-3.109-0.354-8.543,3.142-8.543,3.142s4.516,4.6,7.632,4.948
			c2.383,0.271,4.544-0.562,5.537-1.972c0.308-0.428-4.401-1.471-4.346-1.991C36.112,53.554,40.893,53.488,40.599,52.913z"/>
	</g>
</g>
<g>
</g>
<g>
</g>
<g>
</g>
<g>
</g>
<g>
</g>
<g>
</g>
<g>
</g>
<g>
</g>
<g>
</g>
<g>
</g>
<g>
</g>
<g>
</g>
<g>
</g>
<g>
</g>
<g>
</g>
</svg>
