<?xml version="1.0" encoding="iso-8859-1"?>
<!-- Generator: Adobe Illustrator 18.0.0, SVG Export Plug-In . SVG Version: 6.00 Build 0)  -->
<!DOCTYPE svg PUBLIC "-//W3C//DTD SVG 1.1//EN" "http://www.w3.org/Graphics/SVG/1.1/DTD/svg11.dtd">
<svg version="1.1" id="Capa_1" xmlns="http://www.w3.org/2000/svg" xmlns:xlink="http://www.w3.org/1999/xlink" x="0px" y="0px"
	 viewBox="0 0 480 480" style="enable-background:new 0 0 480 480;" xml:space="preserve">
<path d="M480,231.88c0-64.534-52.503-117.037-117.037-117.037H70.126C31.458,114.843,0,146.302,0,184.97v144.303h53.81
	c4.578,20.506,22.908,35.885,44.774,35.885c21.866,0,40.197-15.379,44.775-35.885h195.973c4.578,20.506,22.908,35.885,44.774,35.885
	s40.196-15.379,44.774-35.885H480V231.88z M455.856,203.813h-52.523v-60.164C428.408,155.167,447.759,177.067,455.856,203.813z
	 M383.333,137v66.812h-56.666v-68.97h36.296C369.949,134.843,376.762,135.591,383.333,137z M96.667,203.813v-68.97h56.667v68.97
	H96.667z M173.333,134.843H230v68.97h-56.667V134.843z M250,134.843h56.667v68.97H250V134.843z M70.126,134.843h6.54v68.97H20
	V184.97C20,157.33,42.487,134.843,70.126,134.843z M98.584,345.157c-14.273,0-25.885-11.612-25.885-25.885
	c0-14.273,11.612-25.886,25.885-25.886s25.885,11.612,25.885,25.886C124.47,333.545,112.857,345.157,98.584,345.157z
	 M98.584,273.387c-21.866,0-40.197,15.379-44.774,35.886H20v-85.46h286.667v85.46H143.359
	C138.781,288.766,120.451,273.387,98.584,273.387z M384.106,345.157c-14.272,0-25.885-11.612-25.885-25.885
	c0-14.273,11.612-25.886,25.885-25.886s25.885,11.612,25.885,25.886C409.991,333.545,398.379,345.157,384.106,345.157z
	 M428.881,309.272c-4.578-20.507-22.908-35.886-44.774-35.886s-40.197,15.379-44.774,35.886h-12.665v-85.46h132.995
	c0.22,2.661,0.338,5.351,0.338,8.067v19.714h-28.519v20H460v37.679H428.881z"/>
<g>
</g>
<g>
</g>
<g>
</g>
<g>
</g>
<g>
</g>
<g>
</g>
<g>
</g>
<g>
</g>
<g>
</g>
<g>
</g>
<g>
</g>
<g>
</g>
<g>
</g>
<g>
</g>
<g>
</g>
</svg>
