<?xml version="1.0" encoding="iso-8859-1"?>
<!-- Generator: Adobe Illustrator 19.0.0, SVG Export Plug-In . SVG Version: 6.00 Build 0)  -->
<svg version="1.1" id="Capa_1" xmlns="http://www.w3.org/2000/svg" xmlns:xlink="http://www.w3.org/1999/xlink" x="0px" y="0px"
	 viewBox="0 0 55.992 55.992" style="enable-background:new 0 0 55.992 55.992;" xml:space="preserve">
<g>
	<path d="M55.963,18.713c0.006-0.025,0.015-0.049,0.019-0.074c0.016-0.112,0.013-0.225-0.009-0.338
		c-0.005-0.027-0.017-0.051-0.025-0.077c-0.016-0.055-0.027-0.11-0.052-0.162c-0.017-0.035-0.043-0.062-0.063-0.094
		c-0.011-0.017-0.012-0.036-0.024-0.053l-7.5-10.5c-0.106-0.148-0.249-0.243-0.404-0.313c-0.099-0.229-0.276-0.421-0.513-0.523
		l-9.25-4c-0.126-0.054-0.26-0.082-0.397-0.082h-19.5c-0.137,0-0.271,0.028-0.397,0.082l-9.25,4
		C8.362,6.681,8.185,6.873,8.086,7.101c-0.154,0.07-0.298,0.166-0.404,0.314l-7.5,10.5c-0.012,0.016-0.013,0.036-0.024,0.053
		C0.138,18,0.112,18.027,0.096,18.062c-0.025,0.052-0.036,0.108-0.052,0.162c-0.007,0.026-0.019,0.051-0.024,0.077
		c-0.023,0.112-0.025,0.226-0.009,0.338c0.004,0.026,0.013,0.049,0.019,0.074c0.02,0.088,0.051,0.172,0.094,0.253
		c0.016,0.03,0.032,0.058,0.051,0.087c0.014,0.021,0.022,0.045,0.038,0.066l27,34c0.008,0.01,0.021,0.014,0.029,0.023
		c0.086,0.1,0.186,0.182,0.302,0.241c0.018,0.009,0.037,0.015,0.056,0.023c0.124,0.054,0.257,0.091,0.397,0.091
		s0.273-0.037,0.397-0.091c0.019-0.008,0.038-0.014,0.056-0.023c0.115-0.059,0.216-0.141,0.302-0.241
		c0.008-0.009,0.021-0.013,0.029-0.023l27-34c0.016-0.02,0.024-0.045,0.039-0.066c0.019-0.028,0.035-0.057,0.051-0.087
		C55.912,18.885,55.943,18.801,55.963,18.713z M18.453,4.496h19.086l7.169,3.1l-7.215,3.9H18.499l-7.215-3.9L18.453,4.496z
		 M15.737,29.496h24.518L27.996,50.512L15.737,29.496z M15.777,27.496l3.5-14h17.468l4.064,14H15.777z M2.801,17.69l6.393-8.95
		l8.114,4.386l-3.4,13.601L2.855,17.721C2.839,17.707,2.818,17.702,2.801,17.69z M13.006,28.572
		c0.011,0.148,0.049,0.295,0.127,0.428L20.1,40.945L5.267,22.266L13.006,28.572z M35.892,40.945L42.86,29
		c0.078-0.133,0.115-0.28,0.127-0.428l7.74-6.306L35.892,40.945z M42.557,26.341l-3.842-13.232l8.083-4.369l6.393,8.95
		c-0.017,0.012-0.038,0.017-0.055,0.031L42.557,26.341z"/>
</g>
<g>
</g>
<g>
</g>
<g>
</g>
<g>
</g>
<g>
</g>
<g>
</g>
<g>
</g>
<g>
</g>
<g>
</g>
<g>
</g>
<g>
</g>
<g>
</g>
<g>
</g>
<g>
</g>
<g>
</g>
</svg>
