<?xml version="1.0" encoding="utf-8"?>
<!-- Generator: Adobe Illustrator 17.0.2, SVG Export Plug-In . SVG Version: 6.00 Build 0)  -->
<!DOCTYPE svg PUBLIC "-//W3C//DTD SVG 1.1//EN" "http://www.w3.org/Graphics/SVG/1.1/DTD/svg11.dtd">
<svg version="1.1" id="Capa_1" xmlns="http://www.w3.org/2000/svg" xmlns:xlink="http://www.w3.org/1999/xlink" x="0px" y="0px"
	 width="64px" height="64px" viewBox="0 0 64 64" enable-background="new 0 0 64 64" xml:space="preserve">
<g>
	<path d="M35.228,27.034l0.269-0.871c-0.576-0.845-1.451-1.47-2.47-1.726l-0.603,0.458l-0.08,1.775l1.351,0.857L35.228,27.034z"/>
	<path d="M30.125,28.365l-1.513-0.524l-0.841,0.753c0.01,0.821,0.255,1.586,0.671,2.231h1.34l0.767-1.149L30.125,28.365z"/>
	<path d="M30.347,27.528l1.23-0.898v-1.633l-0.611-0.558c-1.028,0.26-1.907,0.896-2.482,1.753l0.31,0.901L30.347,27.528z"/>
	<path d="M36.226,28.329l-0.837-0.508l-1.513,0.504l-0.403,1.412l0.847,1.069l1.208,0.069c0.444-0.669,0.704-1.471,0.704-2.333
		C36.231,28.47,36.23,28.399,36.226,28.329z"/>
	<path d="M31.133,30.221l-0.767,1.028l0.237,1.286c0.438,0.153,0.907,0.237,1.396,0.237c0.508,0,0.996-0.09,1.447-0.255l0.187-1.208
		l-0.787-1.069L31.133,30.221z"/>
	<path d="M43.839,6.109c-1.433-0.831-3.189-0.114-4.036,1.31c-1.515,2.547-4.228,5.998-7.803,5.998
		c-3.576,0-6.289-3.451-7.804-5.998c-0.847-1.424-2.602-2.141-4.036-1.31c-2.806,1.627-7.201,4.768-10.069,9.701
		c-0.555,0.955-0.34,2.452,0.381,3.289l2.557,2.969c0.721,0.837,1.902,1.18,2.639,0.766C16.403,22.42,17,22.084,17,22.084
		l-2.79,22.023c-0.208,1.645,0.546,3.953,1.684,5.156l7.378,7.807c1.138,1.203,3.404,2.18,5.061,2.18h3.5h0.333h3.5
		c1.657,0,3.923-0.977,5.061-2.18l7.378-7.807c1.138-1.203,1.892-3.512,1.684-5.156L47,22.084l1.333,0.75
		c0.736,0.414,1.917,0.071,2.638-0.766l2.557-2.969c0.721-0.837,0.936-2.335,0.38-3.289C51.04,10.877,46.646,7.737,43.839,6.109z
		 M27.771,55.271c-0.771,0-1.396-0.625-1.396-1.396s0.625-1.396,1.396-1.396s1.396,0.625,1.396,1.396S28.541,55.271,27.771,55.271z
		 M32,33.681c-2.833,0-5.139-2.306-5.139-5.139c0-2.833,2.306-5.139,5.139-5.139c2.834,0,5.139,2.305,5.139,5.139
		C37.139,31.375,34.834,33.681,32,33.681z M36.231,55.271c-0.771,0-1.396-0.625-1.396-1.396s0.625-1.396,1.396-1.396
		c0.771,0,1.396,0.625,1.396,1.396S37.002,55.271,36.231,55.271z"/>
</g>
</svg>
