<?xml version="1.0" encoding="iso-8859-1"?>
<!-- Generator: Adobe Illustrator 16.0.0, SVG Export Plug-In . SVG Version: 6.00 Build 0)  -->
<!DOCTYPE svg PUBLIC "-//W3C//DTD SVG 1.1//EN" "http://www.w3.org/Graphics/SVG/1.1/DTD/svg11.dtd">
<svg version="1.1" id="Layer_1" xmlns="http://www.w3.org/2000/svg" xmlns:xlink="http://www.w3.org/1999/xlink" x="0px" y="0px"
	 width="31.875px" height="32px" viewBox="0 0 31.875 32" style="enable-background:new 0 0 31.875 32;" preserveAspectRatio="fit">
<g>
	<path style="fill:#231F20;" d="M3.996,10.703c-0.023-0.022-0.048-0.04-0.073-0.059c-0.018-0.024-0.036-0.049-0.059-0.072
		L3.09,9.797c-0.283-0.282-0.741-0.282-1.022,0c-0.283,0.283-0.283,0.74,0,1.023l0.27,0.27l-0.832,0.833l-0.271-0.271
		c-0.282-0.282-0.74-0.282-1.023,0c-0.282,0.283-0.282,0.741,0,1.023l0.774,0.774c0.042,0.042,0.088,0.075,0.137,0.105
		c0.003,0.004,0.006,0.008,0.01,0.012c0.351,0.351,0.919,0.351,1.271,0l1.592-1.593C4.347,11.623,4.347,11.053,3.996,10.703z"/>
	<path style="fill:#231F20;" d="M15.101,29.555c0.285-0.147,0.481-0.439,0.481-0.781c0-0.383-0.247-0.707-0.589-0.828
		c0.342-0.121,0.589-0.444,0.589-0.828c0-0.385-0.25-0.71-0.596-0.829c0.346-0.119,0.596-0.443,0.596-0.83
		c0-0.486-0.395-0.88-0.881-0.88h-0.564c-0.486,0-0.881,0.395-0.881,0.88c0,0.387,0.25,0.711,0.596,0.83
		c-0.346,0.119-0.596,0.444-0.596,0.829c0,0.384,0.247,0.707,0.589,0.828c-0.342,0.121-0.589,0.444-0.589,0.828
		c0,0.291,0.144,0.547,0.362,0.708c-1.114,0.279-1.94,1.283-1.94,2.483c3.829,0,2.519,0,5.124,0
		C16.801,30.852,16.092,29.909,15.101,29.555z"/>
	<path style="fill:#231F20;" d="M21.652,29.518c0.218-0.161,0.361-0.417,0.361-0.709c0-0.383-0.247-0.706-0.589-0.827
		c0.343-0.121,0.589-0.444,0.589-0.827c0-0.386-0.25-0.71-0.596-0.83c0.346-0.119,0.596-0.443,0.596-0.829
		c0-0.487-0.394-0.882-0.881-0.882h-0.563c-0.486,0-0.881,0.395-0.881,0.882c0,0.386,0.25,0.71,0.596,0.829
		c-0.346,0.12-0.596,0.444-0.596,0.83c0,0.383,0.247,0.707,0.588,0.827c-0.341,0.121-0.588,0.444-0.588,0.827
		c0,0.342,0.197,0.635,0.481,0.782c-0.99,0.354-1.7,1.297-1.7,2.409c2.604,0,1.295,0,5.124,0
		C23.593,30.8,22.766,29.795,21.652,29.518z"/>
	<path style="fill:#231F20;" d="M31.748,20.476l-0.619-0.904c-0.033-0.049-0.073-0.09-0.115-0.128
		c-0.002-0.004-0.005-0.009-0.007-0.014c-0.274-0.4-0.815-0.507-1.221-0.249c-0.025-0.072-0.057-0.142-0.102-0.207
		c-0.188-0.276-0.503-0.408-0.813-0.381c0.137-0.28,0.127-0.622-0.061-0.896c-0.221-0.322-0.613-0.451-0.97-0.355
		c0.165-0.287,0.166-0.655-0.034-0.947c-0.191-0.28-0.513-0.412-0.828-0.38c0.103-0.266,0.079-0.576-0.095-0.83
		c-0.188-0.275-0.503-0.408-0.813-0.381c0.137-0.28,0.127-0.622-0.062-0.896c-0.278-0.407-0.834-0.511-1.241-0.232l-0.472,0.323
		c-0.406,0.279-0.511,0.834-0.232,1.241c0.189,0.275,0.505,0.408,0.814,0.382c-0.136,0.28-0.127,0.622,0.061,0.896
		c0.191,0.28,0.513,0.412,0.828,0.38c-0.104,0.266-0.079,0.576,0.095,0.83c0.22,0.322,0.613,0.45,0.97,0.354
		c-0.166,0.288-0.166,0.656,0.034,0.948c0.189,0.275,0.504,0.407,0.814,0.381c-0.137,0.279-0.127,0.621,0.062,0.896
		c0.044,0.064,0.098,0.119,0.154,0.168c-0.403,0.282-0.506,0.836-0.227,1.244c0.018,0.026,0.04,0.047,0.061,0.071
		c0.014,0.028,0.026,0.056,0.045,0.083l0.619,0.903c0.225,0.33,0.675,0.414,1.004,0.188c0.329-0.227,0.414-0.676,0.188-1.006
		l-0.216-0.315l0.972-0.665l0.216,0.316c0.226,0.329,0.675,0.413,1.004,0.188C31.89,21.255,31.974,20.805,31.748,20.476z"/>
	<path style="fill:#231F20;" d="M10.709,13.815c-0.349-0.349-0.914-0.349-1.263,0c-0.275,0.276-0.33,0.686-0.17,1.019
		c-0.313-0.11-0.674-0.042-0.925,0.208c-0.212,0.212-0.294,0.504-0.248,0.779c-0.058-0.008-0.116-0.018-0.176-0.018
		c-0.069,0-0.136,0.01-0.203,0.021c0.018-0.25-0.064-0.505-0.255-0.696c-0.275-0.276-0.686-0.33-1.019-0.169
		c0.11-0.314,0.042-0.675-0.208-0.926c-0.262-0.262-0.646-0.327-0.968-0.195c0.145-0.328,0.085-0.723-0.184-0.992
		c-0.348-0.349-0.914-0.349-1.263,0L3.424,13.25c-0.349,0.349-0.349,0.914,0,1.263c0.262,0.262,0.646,0.327,0.968,0.196
		c-0.144,0.327-0.084,0.723,0.184,0.991c0.276,0.275,0.686,0.33,1.019,0.17c-0.109,0.313-0.042,0.675,0.208,0.925
		c0.239,0.238,0.577,0.31,0.879,0.223c0,0.012-0.003,0.023-0.003,0.036c0,0.69,0.559,1.25,1.25,1.25s1.25-0.559,1.25-1.25
		c0-0.039-0.008-0.076-0.011-0.114c0.295,0.076,0.621,0.001,0.852-0.23c0.276-0.276,0.33-0.686,0.169-1.019
		c0.314,0.109,0.674,0.042,0.925-0.208c0.349-0.349,0.349-0.914,0-1.263L10.709,13.815z M7.928,17.518
		c-0.257,0-0.464-0.208-0.464-0.464c0-0.256,0.208-0.465,0.464-0.465c0.256,0,0.465,0.208,0.465,0.465
		C8.393,17.311,8.185,17.518,7.928,17.518z"/>
	<path style="fill:#231F20;" d="M14.059,6.773V6.082c0-0.335-0.271-0.607-0.607-0.607H12.76c-0.335,0-0.607,0.271-0.607,0.607v0.691
		c0,0.335,0.272,0.608,0.607,0.608h0.691C13.787,7.381,14.059,7.108,14.059,6.773z"/>
	<path style="fill:#231F20;" d="M21.475,6.084v0.691c0,0.335,0.272,0.608,0.607,0.608h0.691c0.335,0,0.607-0.272,0.607-0.608V6.084
		c0-0.335-0.272-0.607-0.607-0.607h-0.691C21.747,5.477,21.475,5.749,21.475,6.084z"/>
	<path style="fill:#231F20;" d="M17.649,16.315c-0.866-0.029-1.593,0.649-1.623,1.516c-0.03,0.866,0.648,1.593,1.516,1.623
		c0.867,0.029,1.593-0.649,1.622-1.516C19.195,17.072,18.517,16.346,17.649,16.315z M17.576,18.48
		c-0.329-0.011-0.586-0.288-0.575-0.616c0.011-0.329,0.287-0.586,0.616-0.575s0.586,0.287,0.575,0.616
		C18.18,18.234,17.905,18.492,17.576,18.48z"/>
	<path style="fill:#231F20;" d="M22.353,12.292H20.23c0.069-0.193,0.109-0.4,0.109-0.617c0-0.229-0.044-0.449-0.121-0.651h1.516
		c0.685,0,1.24-0.555,1.24-1.24V8.623h0.16c0.821,0,1.488-0.667,1.488-1.488v-1.41c0-0.82-0.667-1.488-1.488-1.488H22.88
		c-0.184-0.454-0.627-0.774-1.147-0.774h-2.179l0.696-1.959c0.021,0.002,0.042,0.006,0.063,0.006c0.417,0,0.754-0.338,0.754-0.754
		c0-0.417-0.338-0.754-0.754-0.754c-0.416,0-0.753,0.337-0.753,0.754c0,0.263,0.135,0.494,0.339,0.628L19.16,3.463h-1.393V3.46
		h-1.393l-0.738-2.078c0.204-0.135,0.339-0.366,0.339-0.628C15.975,0.337,15.637,0,15.221,0s-0.754,0.337-0.754,0.754
		c0,0.416,0.337,0.754,0.754,0.754c0.021,0,0.042-0.004,0.063-0.007l0.696,1.959H13.8c-0.52,0-0.962,0.32-1.147,0.774h-0.252
		c-0.82,0-1.487,0.667-1.487,1.487v1.41c0,0.82,0.667,1.487,1.487,1.487h0.16v1.162c0,0.685,0.555,1.24,1.239,1.24h1.516
		c-0.077,0.202-0.121,0.42-0.121,0.65c0,0.218,0.04,0.426,0.109,0.62H12.84c-0.685,0-1.24,0.555-1.24,1.24v9.203
		c0,0.685,0.555,1.239,1.24,1.239h9.513c0.685,0,1.24-0.554,1.24-1.239v-9.203C23.593,12.846,23.038,12.292,22.353,12.292z
		 M24.125,5.725v1.41c0,0.547-0.445,0.992-0.992,0.992h-1.41c-0.547,0-0.992-0.445-0.992-0.992v-1.41
		c0-0.547,0.445-0.992,0.992-0.992h1.41C23.68,4.733,24.125,5.178,24.125,5.725z M11.409,7.132v-1.41
		c0-0.547,0.445-0.991,0.992-0.991h1.41c0.546,0,0.991,0.444,0.991,0.991v1.41c0,0.546-0.444,0.991-0.991,0.991h-1.41
		C11.854,8.124,11.409,7.679,11.409,7.132z M16.42,8.325h1.347v0.002h1.347c0.517,0,0.936,0.325,0.936,0.727
		c0,0.401-0.418,0.727-0.936,0.727h-1.347V9.78H16.42c-0.517,0-0.936-0.326-0.936-0.727C15.484,8.651,15.903,8.325,16.42,8.325z
		 M20.953,18.335c-0.003,0.082-0.072,0.146-0.154,0.144l-0.419-0.014c-0.084,0.396-0.253,0.773-0.495,1.101l0.285,0.306
		c0.056,0.06,0.052,0.154-0.007,0.21l-0.517,0.483c-0.028,0.027-0.067,0.042-0.107,0.04c-0.04-0.001-0.077-0.018-0.104-0.047
		l-0.277-0.297c-0.347,0.231-0.742,0.385-1.155,0.448l-0.014,0.413c-0.003,0.083-0.072,0.146-0.154,0.144l-0.707-0.023
		c-0.082-0.004-0.147-0.073-0.145-0.154l0.014-0.401c-0.411-0.083-0.8-0.256-1.14-0.508l-0.278,0.26
		c-0.061,0.056-0.155,0.053-0.211-0.007l-0.483-0.518c-0.053-0.057-0.05-0.156,0.008-0.21l0.272-0.254
		c-0.235-0.355-0.388-0.758-0.448-1.179l-0.356-0.012c-0.082-0.003-0.146-0.071-0.144-0.154l0.023-0.707
		c0.003-0.082,0.072-0.147,0.154-0.144l0.357,0.013c0.089-0.419,0.271-0.813,0.533-1.153l-0.247-0.265
		c-0.026-0.028-0.041-0.066-0.04-0.106c0.001-0.04,0.018-0.077,0.047-0.104l0.517-0.484c0.061-0.056,0.154-0.052,0.21,0.007
		l0.254,0.273c0.354-0.225,0.752-0.37,1.165-0.424l0.013-0.363c0.003-0.082,0.071-0.146,0.153-0.144l0.708,0.024
		c0.082,0.003,0.146,0.072,0.143,0.154l-0.012,0.375c0.404,0.09,0.785,0.268,1.114,0.52l0.291-0.271
		c0.028-0.027,0.067-0.042,0.107-0.04c0.04,0.001,0.077,0.018,0.104,0.047l0.483,0.518c0.056,0.06,0.053,0.154-0.007,0.21
		l-0.297,0.277c0.221,0.347,0.366,0.737,0.424,1.141l0.418,0.014c0.082,0.003,0.147,0.072,0.144,0.154L20.953,18.335z"/>
</g>
<g>
</g>
<g>
</g>
<g>
</g>
<g>
</g>
<g>
</g>
<g>
</g>
<g>
</g>
<g>
</g>
<g>
</g>
<g>
</g>
<g>
</g>
<g>
</g>
<g>
</g>
<g>
</g>
<g>
</g>
</svg>
