<?xml version="1.0" encoding="iso-8859-1"?>
<!-- Generator: Adobe Illustrator 18.1.1, SVG Export Plug-In . SVG Version: 6.00 Build 0)  -->
<svg version="1.1" id="Capa_1" xmlns="http://www.w3.org/2000/svg" xmlns:xlink="http://www.w3.org/1999/xlink" x="0px" y="0px"
	 viewBox="0 0 497.127 497.127" style="enable-background:new 0 0 497.127 497.127;" xml:space="preserve">
<g>
	<g>
		<path style="fill:#010002;" d="M14.444,443.015h305.691c7.982,0,14.444-6.47,14.444-14.444v-189.64
			c0-7.982-4.471-19.127-9.982-24.89l-85.35-89.292c-5.511-5.771-16.452-10.445-24.434-10.445h-35.245
			c17.086-35.888,57.534-55.258,104.598-32.644c32.319,15.534,58.615,43.594,82.968,70.824l-25.207,25.207l96.754,96.754
			l58.444-58.436l-96.754-96.754l-21.785,21.785c-39.204-43.374-86.927-91.82-147.777-86.529
			c-36.928,3.211-59.859,28.661-69.971,59.794h-41.074c-7.982,0-18.915,4.674-24.435,10.445l-85.35,89.284
			C4.471,219.805,0,230.949,0,238.923v189.64C0,436.545,6.47,443.015,14.444,443.015z M399.511,160.092
			c4.617,4.617,4.617,12.112,0,16.729c-4.617,4.617-12.112,4.617-16.729,0c-2.821-2.821-3.707-6.674-3.081-10.323
			c1.553,1.731,3.121,3.503,4.658,5.202c7.056,7.779,18.517-3.755,11.494-11.494c-0.951-1.049-1.943-2.154-2.91-3.227
			C395.333,157.345,397.666,158.247,399.511,160.092z M160.084,189.786c3.081,9.982,18.777,5.723,15.68-4.324
			c-0.569-1.845-1.057-3.69-1.52-5.527c4.706,2.504,7.958,7.405,7.958,13.103c0,8.218-6.682,14.9-14.9,14.9s-14.9-6.682-14.9-14.9
			c0-4.666,2.195-8.787,5.568-11.518C158.588,184.315,159.255,187.095,160.084,189.786z M27.613,230.884l85.252-89.187
			c1.317-1.203,5.267-2.886,6.901-3.008h35.936c-0.65,5.747-0.927,11.518-0.821,17.273c-15.558,5.227-26.881,19.785-26.881,37.091
			c0,21.663,17.623,39.285,39.285,39.285s39.285-17.623,39.285-39.285c0-20.419-15.721-37.058-35.66-38.92
			c-0.016-5.275,0.374-10.437,1.162-15.436h42.643c1.796,0.146,5.69,1.813,6.901,2.91l85.301,89.235
			c1.341,1.544,3.178,6.121,3.276,8.096v179.698H24.386V239.004C24.483,236.956,26.32,232.372,27.613,230.884z"/>
		<path style="fill:#010002;" d="M47.642,405.689h239.305c5.113,0,9.258-4.146,9.258-9.258v-85.456h-0.211
			c0.041-0.553,0.171-1.024,0.171-1.618c0-13.298-10.779-24.077-24.077-24.077c-3.853,0-7.438,0.984-10.665,2.593
			c-2.414-3.723-6.584-6.202-11.356-6.202c-0.691,0-1.349,0.106-2.016,0.203c-4.942-4.568-11.494-7.43-18.753-7.43
			c-13.071,0-23.955,9.088-26.865,21.264c-2.983-2.024-6.584-3.203-10.453-3.203c-6.129,0-11.526,2.999-14.924,7.568
			c-5.284-4.536-14.526-7.568-25.109-7.568c-11.339,0-21.086,3.495-26.117,8.584c-2.17-1.211-4.633-1.959-7.291-1.959
			c-2.463,0-4.763,0.65-6.812,1.699c-0.935-6.73-6.657-11.933-13.656-11.933c-5.576,0-10.356,3.316-12.551,8.064
			c-2.601-0.862-5.332-1.447-8.218-1.447c-8.543,0-16.062,4.154-20.842,10.486c-1.796-2.634-4.674-4.471-8.096-4.471
			c-5.324,0-9.575,4.194-9.868,9.445h-0.122v0.528v84.919C38.375,401.543,42.521,405.689,47.642,405.689z"/>
	</g>
</g>
<g>
</g>
<g>
</g>
<g>
</g>
<g>
</g>
<g>
</g>
<g>
</g>
<g>
</g>
<g>
</g>
<g>
</g>
<g>
</g>
<g>
</g>
<g>
</g>
<g>
</g>
<g>
</g>
<g>
</g>
</svg>
