<?xml version="1.0" encoding="iso-8859-1"?>
<!-- Generator: Adobe Illustrator 18.0.0, SVG Export Plug-In . SVG Version: 6.00 Build 0)  -->
<!DOCTYPE svg PUBLIC "-//W3C//DTD SVG 1.1//EN" "http://www.w3.org/Graphics/SVG/1.1/DTD/svg11.dtd">
<svg version="1.1" id="Capa_1" xmlns="http://www.w3.org/2000/svg" xmlns:xlink="http://www.w3.org/1999/xlink" x="0px" y="0px"
	 viewBox="0 0 60.003 60.003" style="enable-background:new 0 0 60.003 60.003;" xml:space="preserve">
<g>
	<path d="M38.901,36.488c0.018,1.127,0.956,2.034,2.083,2.016c1.127-0.019,2.034-0.956,2.016-2.083
		c-0.018-1.127-2.117-4.065-2.117-4.065C40.868,32.34,38.882,35.361,38.901,36.488z"/>
	<path d="M59.796,26.568c-0.402-1.698-1.366-3.157-2.578-3.903c-0.811-0.499-1.678-0.661-2.507-0.461
		c-0.189,0.045-0.371,0.114-0.549,0.198c-2.335-5.685-5.977-9.367-9.724-11.744l1.356-2.712c0.247-0.494,0.047-1.095-0.447-1.342
		c-0.496-0.246-1.094-0.046-1.342,0.447l-1.297,2.594c-0.618-0.329-1.232-0.624-1.84-0.891l0.98-2.939
		c0.175-0.524-0.108-1.091-0.632-1.265c-0.525-0.176-1.091,0.108-1.265,0.632l-0.944,2.831c-0.693-0.249-1.365-0.462-2.011-0.643
		l0.852-2.555c0.175-0.524-0.108-1.091-0.632-1.265c-0.527-0.177-1.09,0.108-1.265,0.632l-0.903,2.709
		C33.786,6.626,32.7,6.479,31.9,6.404V4.499c0-0.553-0.448-1-1-1s-1,0.447-1,1v1.845c-0.525,0.027-1.443,0.1-2.631,0.286
		l-0.383-2.296c-0.091-0.545-0.604-0.922-1.151-0.822c-0.544,0.091-0.913,0.606-0.822,1.15l0.391,2.344
		c-1.07,0.242-2.258,0.576-3.507,1.022l-0.949-2.846c-0.175-0.523-0.74-0.808-1.265-0.632c-0.524,0.174-0.807,0.74-0.632,1.265
		l0.984,2.952c-0.863,0.378-1.741,0.819-2.621,1.324l-1.52-3.04c-0.247-0.493-0.847-0.693-1.342-0.447
		c-0.494,0.247-0.694,0.848-0.447,1.342l1.605,3.209c-0.881,0.602-1.749,1.285-2.594,2.046l-2.409-2.409
		c-0.391-0.391-1.023-0.391-1.414,0s-0.391,1.023,0,1.414l2.389,2.389c-3.077,3.272-5.648,7.835-6.828,14.211
		c-0.015,0.083-0.025,0.167-0.04,0.25c-0.254-0.07-0.512-0.118-0.775-0.118C1.73,28.938,0,31.321,0,34.362s1.73,5.424,3.939,5.424
		c0.403,0,0.798-0.102,1.177-0.267c0.511,1.95,1.271,3.811,2.263,5.531l0,0.002l0.217,0.358c0.015,0.024,0.028,0.043,0.042,0.067
		c0.135,0.222,0.272,0.443,0.415,0.66c0.176,0.271,0.349,0.524,0.521,0.761c0.812,1.119,1.822,2.292,3.07,3.418
		c3.746,3.38,9.636,6.346,18.733,6.184c0.19,0.003,0.377,0.004,0.565,0.004c11.797,0,18.071-5.202,21.266-9.605
		c0.248-0.341,0.483-0.692,0.709-1.047c0.067-0.104,0.128-0.212,0.193-0.318c0.16-0.26,0.316-0.522,0.464-0.79
		c0.067-0.121,0.131-0.244,0.196-0.366c0.139-0.262,0.273-0.526,0.402-0.793c0.061-0.128,0.122-0.256,0.181-0.386
		c0.122-0.268,0.238-0.538,0.35-0.811c0.037-0.089,0.079-0.175,0.114-0.265l0.115-0.29l-0.001-0.005
		c1.066-2.816,1.578-5.882,1.507-9.005c0.035,0.001,0.071,0.014,0.106,0.014c0.227,0,0.451-0.025,0.67-0.078
		C59.363,32.245,60.497,29.526,59.796,26.568z M12.954,15.967l1.239,1.239c0.195,0.195,0.451,0.293,0.707,0.293
		s0.512-0.098,0.707-0.293c0.391-0.391,0.391-1.023,0-1.414l-1.231-1.231c0.684-0.619,1.385-1.181,2.095-1.683l0.534,1.068
		c0.175,0.351,0.528,0.553,0.896,0.553c0.15,0,0.303-0.034,0.446-0.105c0.494-0.247,0.694-0.848,0.447-1.342l-0.631-1.262
		c0.795-0.464,1.59-0.871,2.373-1.22l0.415,1.245c0.14,0.419,0.53,0.684,0.949,0.684c0.104,0,0.211-0.017,0.316-0.052
		c0.524-0.174,0.807-0.74,0.632-1.265l-0.451-1.354c1.148-0.407,2.236-0.704,3.224-0.921l0.293,1.755
		c0.082,0.489,0.505,0.836,0.985,0.836c0.054,0,0.11-0.004,0.166-0.014c0.544-0.091,0.913-0.606,0.822-1.15l-0.298-1.786
		c1.029-0.147,1.825-0.197,2.311-0.214v2.164c0,0.553,0.448,1,1,1s1-0.447,1-1v-2.09c0.669,0.061,1.529,0.17,2.523,0.359
		l-0.471,1.414c-0.175,0.524,0.108,1.091,0.632,1.265c0.105,0.035,0.212,0.052,0.316,0.052c0.419,0,0.809-0.265,0.949-0.684
		l0.533-1.599c0.644,0.173,1.32,0.383,2.015,0.629l-0.446,1.337c-0.175,0.524,0.108,1.091,0.632,1.265
		c0.105,0.035,0.212,0.052,0.316,0.052c0.419,0,0.809-0.265,0.949-0.684l0.41-1.229c0.526,0.234,1.057,0.494,1.59,0.78l-0.843,1.686
		c-0.247,0.494-0.047,1.095,0.447,1.342c0.144,0.071,0.296,0.105,0.446,0.105c0.367,0,0.72-0.202,0.896-0.553l0.779-1.558
		c3.519,2.286,6.924,5.856,9.028,11.455l-0.008,0.01l0.182,0.513c0.26,0.732,0.484,1.466,0.687,2.207
		c0.025,0.094,0.052,0.185,0.077,0.28c0.2,0.759,0.376,1.527,0.522,2.317c0.123,0.667,0.207,1.335,0.271,2.002
		c0.011,0.114,0.026,0.225,0.036,0.34c0.216,2.631-0.043,5.229-0.709,7.677c-0.979-1.157-2.422-2.02-4.064-2.352
		c-2.657-0.536-5.191,0.446-6.772,2.632c-1.835,2.538-5.644,4.299-10.451,4.832c-5.562,0.619-11.187-0.637-13.994-3.118
		c-1.752-1.55-4-2.052-6.164-1.385c-1.576,0.487-2.929,1.533-3.817,2.851c-1.004-2.109-1.669-4.402-1.931-6.793
		c-0.008-0.075-0.009-0.151-0.017-0.226c-0.057-0.573-0.089-1.152-0.102-1.733c-0.005-0.249-0.001-0.499,0.002-0.748
		c0.004-0.409,0.021-0.819,0.047-1.23c0.019-0.293,0.039-0.587,0.069-0.881c0.064-0.622,0.138-1.246,0.253-1.868
		C7.818,23.243,10.157,19.004,12.954,15.967z M4.674,37.488c-0.206,0.166-0.456,0.298-0.734,0.298C3.022,37.786,2,36.38,2,34.362
		s1.022-3.424,1.939-3.424c0.167,0,0.336,0.047,0.504,0.139c-0.049,0.533-0.081,1.065-0.096,1.596c-0.001,0.035,0,0.07-0.001,0.105
		c-0.011,0.442-0.009,0.883,0.004,1.323c0.004,0.14,0.009,0.279,0.015,0.418c0.016,0.354,0.041,0.707,0.072,1.058
		c0.013,0.146,0.022,0.292,0.037,0.437c0.047,0.437,0.106,0.872,0.176,1.303C4.66,37.375,4.664,37.432,4.674,37.488z M42.283,52.392
		c-3.354,1.457-7.303,2.162-11.834,2.107c-0.024,0-0.046,0.001-0.07,0c-9.089,0.162-15.868-2.826-20.185-8.775
		c-0.232-0.321-0.431-0.664-0.643-0.999c0.509-1.374,1.768-2.557,3.257-3.017c1.504-0.464,3.014-0.119,4.248,0.972
		c3.254,2.877,9.351,4.296,15.539,3.607c5.367-0.595,9.687-2.653,11.852-5.647c1.595-2.209,3.856-2.027,4.755-1.843
		c1.713,0.346,3.154,1.505,3.624,2.876c-0.033,0.08-0.058,0.165-0.092,0.245c-0.046,0.106-0.095,0.211-0.142,0.317
		c-0.251,0.56-0.522,1.111-0.822,1.643c-0.039,0.07-0.082,0.136-0.122,0.204c-0.327,0.564-0.675,1.114-1.057,1.641
		C48.435,48.694,45.655,50.923,42.283,52.392z M56.751,30.812c-0.136,0.031-0.282,0.031-0.436-0.001
		c-0.004-0.04-0.012-0.076-0.016-0.115c-0.068-0.63-0.153-1.26-0.269-1.89c-0.143-0.772-0.31-1.512-0.492-2.232
		c-0.021-0.08-0.045-0.159-0.067-0.24c-0.18-0.688-0.377-1.352-0.59-1.994c-0.005-0.016-0.009-0.033-0.015-0.05
		c0.101-0.069,0.204-0.116,0.31-0.142c0.381-0.094,0.75,0.068,0.994,0.219c0.758,0.467,1.402,1.486,1.68,2.661
		C58.315,28.993,57.644,30.599,56.751,30.812z"/>
	<path d="M17.998,31.506c0.4,0,0.806-0.034,1.212-0.105c3.802-0.668,6.352-4.304,5.685-8.105c-0.667-3.802-4.304-6.353-8.104-5.686
		c-3.802,0.668-6.352,4.304-5.685,8.105C11.702,29.109,14.664,31.506,17.998,31.506z M17.137,19.58
		c0.291-0.052,0.58-0.076,0.866-0.076c2.381,0,4.497,1.712,4.923,4.137c0.476,2.716-1.346,5.313-4.061,5.789
		c-2.712,0.481-5.312-1.345-5.789-4.061C12.6,22.653,14.421,20.056,17.137,19.58z"/>
	<circle cx="19.332" cy="26.302" r="1"/>
	<path d="M36.98,29.233c1.221,0.856,2.622,1.268,4.01,1.268c2.207,0,4.38-1.038,5.741-2.978c1.074-1.53,1.487-3.388,1.164-5.229
		c-0.323-1.842-1.344-3.447-2.875-4.521c-1.53-1.074-3.386-1.485-5.229-1.165c-1.842,0.323-3.447,1.344-4.521,2.875
		c-1.074,1.53-1.487,3.388-1.164,5.229C34.429,26.555,35.45,28.16,36.98,29.233z M36.907,20.632
		c0.767-1.094,1.914-1.822,3.229-2.054c0.292-0.051,0.584-0.076,0.874-0.076c1.018,0,2.01,0.312,2.861,0.908
		c1.093,0.767,1.823,1.914,2.053,3.229c0.231,1.315-0.064,2.642-0.832,3.735s-1.914,1.822-3.229,2.054
		c-1.315,0.229-2.642-0.065-3.735-0.832s-1.823-1.914-2.053-3.229C35.845,23.052,36.14,21.725,36.907,20.632z"/>
	<circle cx="38.789" cy="23.173" r="1"/>
	<path d="M48.259,42.857c-8.967,9.902-24.267,9.54-31.957,2.599c-0.41-0.371-1.043-0.338-1.412,0.072
		c-0.37,0.41-0.338,1.042,0.072,1.412c4.291,3.873,9.722,5.568,15.17,5.568c7.467,0,14.967-3.184,19.608-8.31
		c0.371-0.409,0.339-1.041-0.07-1.412C49.262,42.415,48.629,42.447,48.259,42.857z"/>
	<path d="M31,40.504c3.309,0,6-2.691,6-6s-2.691-6-6-6s-6,2.691-6,6S27.691,40.504,31,40.504z M31,30.504c2.206,0,4,1.794,4,4
		s-1.794,4-4,4s-4-1.794-4-4S28.794,30.504,31,30.504z"/>
</g>
<g>
</g>
<g>
</g>
<g>
</g>
<g>
</g>
<g>
</g>
<g>
</g>
<g>
</g>
<g>
</g>
<g>
</g>
<g>
</g>
<g>
</g>
<g>
</g>
<g>
</g>
<g>
</g>
<g>
</g>
</svg>
