<?xml version="1.0" encoding="iso-8859-1"?>
<!-- Generator: Adobe Illustrator 18.0.0, SVG Export Plug-In . SVG Version: 6.00 Build 0)  -->
<!DOCTYPE svg PUBLIC "-//W3C//DTD SVG 1.1//EN" "http://www.w3.org/Graphics/SVG/1.1/DTD/svg11.dtd">
<svg version="1.1" id="Capa_1" xmlns="http://www.w3.org/2000/svg" xmlns:xlink="http://www.w3.org/1999/xlink" x="0px" y="0px"
	 viewBox="0 0 480 480" style="enable-background:new 0 0 480 480;" xml:space="preserve">
<path d="M356.178,126.199h-59.224V0H183.047v126.199h-59.225v298.184h21.045c-2.848,5.31-4.468,11.373-4.468,17.809
	c0,20.848,16.961,37.809,37.809,37.809s37.809-16.961,37.809-37.809c0-6.436-1.62-12.498-4.468-17.809h56.904
	c-2.848,5.31-4.468,11.373-4.468,17.809c0,20.848,16.96,37.809,37.808,37.809c20.849,0,37.81-16.961,37.81-37.809
	c0-6.436-1.62-12.498-4.468-17.809h21.044V126.199z M276.954,20v10.736h-73.907V20H276.954z M203.047,50.736h73.907v75.463h-73.907
	V50.736z M246.992,146.199v258.184h-13.984V146.199H246.992z M143.822,146.199h69.186v258.184h-69.186V146.199z M196.017,442.191
	c0,9.82-7.989,17.809-17.809,17.809s-17.809-7.989-17.809-17.809s7.989-17.809,17.809-17.809S196.017,432.372,196.017,442.191z
	 M319.602,442.191c0,9.82-7.989,17.809-17.81,17.809c-9.819,0-17.808-7.989-17.808-17.809s7.988-17.809,17.808-17.809
	C311.612,424.383,319.602,432.372,319.602,442.191z M336.178,404.383h-69.186V146.199h69.186V404.383z"/>
<g>
</g>
<g>
</g>
<g>
</g>
<g>
</g>
<g>
</g>
<g>
</g>
<g>
</g>
<g>
</g>
<g>
</g>
<g>
</g>
<g>
</g>
<g>
</g>
<g>
</g>
<g>
</g>
<g>
</g>
</svg>
