<?xml version="1.0" encoding="iso-8859-1"?>
<!-- Generator: Adobe Illustrator 19.0.0, SVG Export Plug-In . SVG Version: 6.00 Build 0)  -->
<svg version="1.1" id="Capa_1" xmlns="http://www.w3.org/2000/svg" xmlns:xlink="http://www.w3.org/1999/xlink" x="0px" y="0px"
	 viewBox="0 0 463 463" style="enable-background:new 0 0 463 463;" xml:space="preserve">
<g>
	<path d="M455.5,44h-224c-4.142,0-7.5,3.358-7.5,7.5V260h-82.644l-4.25-17H183.5c8.547,0,15.5-6.953,15.5-15.5v-88
		c0-8.547-6.953-15.5-15.5-15.5h-144c-8.547,0-15.5,6.953-15.5,15.5v88c0,8.547,6.953,15.5,15.5,15.5h46.394l-4.25,17H7.5
		c-4.142,0-7.5,3.358-7.5,7.5v32v112c0,4.142,3.358,7.5,7.5,7.5s7.5-3.358,7.5-7.5V307h209v96.5c0,4.142,3.358,7.5,7.5,7.5h32
		c4.142,0,7.5-3.358,7.5-7.5V379h145v24.5c0,4.142,3.358,7.5,7.5,7.5h32c4.142,0,7.5-3.358,7.5-7.5v-352
		C463,47.358,459.642,44,455.5,44z M239,59h209v233H239V59z M39,227.5v-88c0-0.276,0.224-0.5,0.5-0.5h144c0.276,0,0.5,0.224,0.5,0.5
		v88c0,0.276-0.224,0.5-0.5,0.5h-144C39.224,228,39,227.776,39,227.5z M101.356,243h20.289l4.25,17H97.106L101.356,243z M15,292v-17
		h209v17H15z M431,396v-24.5c0-4.142-3.358-7.5-7.5-7.5h-160c-4.142,0-7.5,3.358-7.5,7.5V396h-17v-89h209v89H431z"/>
	<path d="M263.5,275h160c4.142,0,7.5-3.358,7.5-7.5v-184c0-4.142-3.358-7.5-7.5-7.5h-160c-4.142,0-7.5,3.358-7.5,7.5v184
		C256,271.642,259.358,275,263.5,275z M368,163v9h-33v-9H368z M320,172h-17v-9h17V172z M416,260H303v-73h65v8.5
		c0,4.142,3.358,7.5,7.5,7.5s7.5-3.358,7.5-7.5v-40c0-4.142-3.358-7.5-7.5-7.5H303V91h113V260z M271,91h17v169h-17V91z"/>
	<path d="M279.5,324h-16c-4.142,0-7.5,3.358-7.5,7.5s3.358,7.5,7.5,7.5h16c4.142,0,7.5-3.358,7.5-7.5S283.642,324,279.5,324z"/>
	<path d="M327.5,324h-16c-4.142,0-7.5,3.358-7.5,7.5s3.358,7.5,7.5,7.5h16c4.142,0,7.5-3.358,7.5-7.5S331.642,324,327.5,324z"/>
	<path d="M423.5,324h-16c-4.142,0-7.5,3.358-7.5,7.5s3.358,7.5,7.5,7.5h16c4.142,0,7.5-3.358,7.5-7.5S427.642,324,423.5,324z"/>
	<path d="M375.5,324h-16c-4.142,0-7.5,3.358-7.5,7.5s3.358,7.5,7.5,7.5h16c4.142,0,7.5-3.358,7.5-7.5S379.642,324,375.5,324z"/>
</g>
<g>
</g>
<g>
</g>
<g>
</g>
<g>
</g>
<g>
</g>
<g>
</g>
<g>
</g>
<g>
</g>
<g>
</g>
<g>
</g>
<g>
</g>
<g>
</g>
<g>
</g>
<g>
</g>
<g>
</g>
</svg>
