<?xml version="1.0" encoding="iso-8859-1"?>
<!-- Generator: Adobe Illustrator 18.0.0, SVG Export Plug-In . SVG Version: 6.00 Build 0)  -->
<!DOCTYPE svg PUBLIC "-//W3C//DTD SVG 1.1//EN" "http://www.w3.org/Graphics/SVG/1.1/DTD/svg11.dtd">
<svg version="1.1" id="Capa_1" xmlns="http://www.w3.org/2000/svg" xmlns:xlink="http://www.w3.org/1999/xlink" x="0px" y="0px"
	 viewBox="0 0 59 59" style="enable-background:new 0 0 59 59;" xml:space="preserve">
<g>
	<path d="M30,53.676c6.617,0,12-5.383,12-12c0-0.553-0.448-1-1-1H19c-0.552,0-1,0.447-1,1C18,48.293,23.383,53.676,30,53.676z
		 M22.019,47.676H25v2.647C23.837,49.647,22.825,48.745,22.019,47.676z M20.051,42.676H25v3h-4c-0.051,0-0.096,0.022-0.145,0.029
		C20.437,44.761,20.157,43.745,20.051,42.676z M39.145,45.705c-0.049-0.008-0.094-0.029-0.145-0.029h-4v-3h4.949
		C39.843,43.745,39.562,44.761,39.145,45.705z M33,45.676h-6v-3h6V45.676z M27,51.215v-3.539h6v3.539
		c-0.948,0.299-1.955,0.461-3,0.461S27.948,51.513,27,51.215z M35,50.323v-2.647h2.981C37.175,48.745,36.163,49.647,35,50.323z"/>
	<path d="M15.398,26.185c-0.387-0.395-1.019-0.402-1.414-0.016l-3.293,3.22c-0.395,0.386-0.402,1.02-0.016,1.414
		c0.196,0.2,0.455,0.301,0.715,0.301c0.252,0,0.504-0.095,0.699-0.285l3.293-3.22C15.777,27.213,15.784,26.579,15.398,26.185z"/>
	<path d="M15.065,32.949c0.196,0.2,0.455,0.301,0.715,0.301c0.252,0,0.504-0.095,0.699-0.285l5.488-5.366
		c0.395-0.386,0.402-1.02,0.016-1.414c-0.387-0.395-1.02-0.402-1.414-0.016l-5.488,5.366C14.686,31.921,14.679,32.555,15.065,32.949
		z"/>
	<path d="M35.537,31.104c0.252,0,0.504-0.095,0.699-0.285l3.292-3.22c0.395-0.386,0.402-1.02,0.016-1.414s-1.019-0.402-1.414-0.016
		l-3.292,3.22c-0.395,0.386-0.402,1.02-0.016,1.414C35.018,31.003,35.277,31.104,35.537,31.104z"/>
	<path d="M39.212,32.949c0.196,0.2,0.455,0.301,0.715,0.301c0.252,0,0.504-0.095,0.699-0.285l5.488-5.366
		c0.395-0.386,0.402-1.02,0.016-1.414c-0.387-0.395-1.019-0.402-1.414-0.016l-5.488,5.366
		C38.833,31.921,38.826,32.555,39.212,32.949z"/>
	<path d="M29.5,0C14.888,0,3,11.888,3,26.5v10.979c0,0,0,0.002,0,0.003c0,0.003,0,0.005,0,0.007c0,0.004,0,0.008,0,0.012V51
		c0,2.757,2.243,5,5,5h6.55c0.046,0.022,0.096,0.04,0.142,0.062c3.51,1.654,7.728,2.643,12.542,2.878
		c0.107,0.005,0.214,0.011,0.322,0.016C28.195,58.982,28.84,59,29.5,59s1.305-0.018,1.945-0.045c0.108-0.005,0.215-0.01,0.322-0.016
		c4.814-0.235,9.032-1.224,12.542-2.878c0.046-0.022,0.096-0.04,0.142-0.062H51c2.757,0,5-2.243,5-5V26.5C56,11.888,44.112,0,29.5,0
		z M30.659,25.66l-0.4,0.224h-1.517l-0.4-0.224c-5.934-3.316-13.135-3.705-19.37-1.175C13.273,17.953,20.651,13.409,29,13
		l0.951-0.001c8.38,0.41,15.769,4.953,20.075,11.485C43.792,21.955,36.592,22.345,30.659,25.66z M50.996,27.127
		c-0.054,3.31-0.651,6.685-5.059,7.151c-5.477,0.579-9.382-0.145-11.609-2.148c-1.328-1.194-2.055-2.877-2.167-5.008
		C38.023,24.074,45.134,24.075,50.996,27.127z M26.838,27.122c-0.111,2.131-0.839,3.813-2.167,5.008
		c-2.227,2.003-6.132,2.728-11.609,2.148c-4.407-0.467-5.005-3.842-5.059-7.151C13.866,24.076,20.976,24.075,26.838,27.122z
		 M6.248,30.037c0.497,2.739,2.003,5.743,6.605,6.23c1.27,0.135,2.468,0.201,3.593,0.201c4.247,0,7.456-0.954,9.563-2.852
		c1.594-1.433,2.515-3.361,2.766-5.732h1.448c0.251,2.371,1.173,4.299,2.766,5.732c2.108,1.897,5.316,2.852,9.563,2.852
		c1.125,0,2.324-0.066,3.593-0.201c4.601-0.487,6.108-3.491,6.605-6.229C53.557,32.404,54,34.913,54,37.5
		c0,7.595-3.547,13.283-9.918,16.5h-0.089l-0.207,0.101c-2.828,1.374-6.204,2.271-9.917,2.666c-0.271,0.027-0.542,0.056-0.818,0.078
		c-0.392,0.033-0.787,0.062-1.187,0.084C31.09,56.969,30.309,57,29.5,57s-1.59-0.031-2.364-0.072
		c-0.399-0.022-0.794-0.051-1.187-0.084c-0.276-0.022-0.547-0.05-0.818-0.078c-3.712-0.394-7.089-1.292-9.917-2.666L15.007,54
		h-0.089C8.547,50.783,5,45.095,5,37.5c0-0.004,0-0.007,0-0.011c0-0.002,0-0.004,0-0.006c0-0.001,0-0.002,0-0.004
		C5.002,34.9,5.445,32.397,6.248,30.037z M8,54c-1.654,0-3-1.346-3-3v-4.226c1.384,2.876,3.459,5.308,6.148,7.226H8z M54,51
		c0,1.654-1.346,3-3,3h-3.148c2.689-1.917,4.764-4.349,6.148-7.226V51z M30,11l-1.049,0.001C18.165,11.529,8.911,18.42,5,27.735
		V26.5C5,12.99,15.991,2,29.5,2S54,12.99,54,26.5v1.198C50.079,18.398,40.811,11.528,30,11z"/>
</g>
<g>
</g>
<g>
</g>
<g>
</g>
<g>
</g>
<g>
</g>
<g>
</g>
<g>
</g>
<g>
</g>
<g>
</g>
<g>
</g>
<g>
</g>
<g>
</g>
<g>
</g>
<g>
</g>
<g>
</g>
</svg>
