<?xml version="1.0" encoding="iso-8859-1"?>
<!-- Generator: Adobe Illustrator 16.0.0, SVG Export Plug-In . SVG Version: 6.00 Build 0)  -->
<!DOCTYPE svg PUBLIC "-//W3C//DTD SVG 1.1//EN" "http://www.w3.org/Graphics/SVG/1.1/DTD/svg11.dtd">
<svg version="1.1" id="Layer_1" xmlns="http://www.w3.org/2000/svg" xmlns:xlink="http://www.w3.org/1999/xlink" x="0px" y="0px"
	 width="17.319px" height="32px" viewBox="0 0 17.319 32" style="enable-background:new 0 0 17.319 32;" xml:space="preserve">
<g>
	<path style="fill:#231F20;" d="M17.319,23.698c0-2.363-1.916-4.279-4.279-4.279h-1.646v-0.851c1.533-0.693,2.76-1.945,3.418-3.497
		c1.354-0.195,2.396-1.357,2.396-2.766c0-1.457-1.115-2.653-2.538-2.784c-0.364-0.748-0.865-1.416-1.467-1.977l2.279-6.524
		c0.141-0.4-0.071-0.838-0.471-0.978c-0.4-0.139-0.838,0.072-0.979,0.472l-2.125,6.082c-0.96-0.538-2.064-0.849-3.242-0.854l0,0
		c-0.002,0-0.005,0-0.008,0c-0.003,0-0.005,0-0.008,0l0,0C7.474,5.749,6.369,6.059,5.409,6.597L3.285,0.515
		c-0.14-0.4-0.578-0.611-0.979-0.472c-0.4,0.14-0.611,0.578-0.471,0.978l2.279,6.524C3.512,8.106,3.011,8.774,2.647,9.522
		c-1.423,0.131-2.538,1.327-2.538,2.784c0,1.408,1.042,2.57,2.396,2.766c0.659,1.552,1.885,2.804,3.418,3.497v0.851H4.278
		C1.915,19.419,0,21.335,0,23.698c0,2.338,1.876,4.238,4.206,4.277V32h3.292v-4.023h1.154h0.016h1.154V32h3.292v-4.024
		C15.442,27.936,17.319,26.037,17.319,23.698z M13.632,21.271l0.993,0.994c-0.112,0.071-0.245,0.114-0.387,0.114
		c-0.398,0-0.721-0.322-0.721-0.72C13.518,21.515,13.561,21.382,13.632,21.271z M13.632,23.181l0.993,0.994
		c-0.112,0.072-0.245,0.115-0.387,0.115c-0.398,0-0.721-0.323-0.721-0.721C13.518,23.426,13.561,23.293,13.632,23.181z
		 M3.785,12.453c0-2.691,2.179-4.881,4.866-4.9l0,0c0.003,0,0.005,0,0.008,0c0.002,0,0.005,0,0.008,0l0,0
		c2.687,0.019,4.867,2.209,4.867,4.9c0,2.69-2.18,4.881-4.867,4.9v0c-0.002,0-0.005,0-0.008,0c-0.003,0-0.005,0-0.008,0v0
		C5.964,17.334,3.785,15.143,3.785,12.453z M14.238,26.308c-0.398,0-0.721-0.323-0.721-0.72c0-0.144,0.043-0.276,0.115-0.388
		l0.993,0.993C14.513,26.265,14.381,26.308,14.238,26.308z M14.844,25.976l-0.993-0.995c0.112-0.071,0.244-0.114,0.388-0.114
		c0.397,0,0.721,0.322,0.721,0.721C14.959,25.73,14.916,25.863,14.844,25.976z M14.844,23.956l-0.993-0.993
		c0.112-0.071,0.244-0.114,0.388-0.114c0.397,0,0.721,0.322,0.721,0.72C14.959,23.711,14.916,23.844,14.844,23.956z M14.844,22.045
		l-0.993-0.994c0.112-0.072,0.244-0.114,0.388-0.114c0.397,0,0.721,0.322,0.721,0.721C14.959,21.801,14.916,21.933,14.844,22.045z"
		/>
	<path style="fill:#231F20;" d="M12.765,12.453c0-2.27-1.839-4.117-4.106-4.131c-2.267,0.014-4.106,1.861-4.106,4.131
		s1.839,4.117,4.106,4.131C10.926,16.569,12.765,14.723,12.765,12.453z M5.705,12.453c0-1.635,1.316-2.96,2.947-2.979V9.473
		c0.003,0,0.005,0,0.008,0c0.002,0,0.005,0,0.008,0v0.001c1.63,0.018,2.946,1.344,2.946,2.979c0,1.634-1.316,2.96-2.946,2.979v0
		c-0.002,0-0.005,0-0.008,0c-0.003,0-0.005,0-0.008,0v0C7.021,15.413,5.705,14.087,5.705,12.453z"/>
</g>
<g>
</g>
<g>
</g>
<g>
</g>
<g>
</g>
<g>
</g>
<g>
</g>
<g>
</g>
<g>
</g>
<g>
</g>
<g>
</g>
<g>
</g>
<g>
</g>
<g>
</g>
<g>
</g>
<g>
</g>
</svg>
