<?xml version="1.0" encoding="iso-8859-1"?>
<!-- Generator: Adobe Illustrator 16.0.0, SVG Export Plug-In . SVG Version: 6.00 Build 0)  -->
<!DOCTYPE svg PUBLIC "-//W3C//DTD SVG 1.1//EN" "http://www.w3.org/Graphics/SVG/1.1/DTD/svg11.dtd">
<svg version="1.1" id="Capa_1" xmlns="http://www.w3.org/2000/svg" xmlns:xlink="http://www.w3.org/1999/xlink" x="0px" y="0px"
	 width="45.891px" height="45.891px" viewBox="0 0 45.891 45.891" style="enable-background:new 0 0 45.891 45.891;"
	 xml:space="preserve">
<g>
	<g>
		<path d="M35.129,26.516c-1.65-2.315-3.068-4.88-4.146-7.514l-1.437-3.515c-0.938-2.286-2.978-3.886-5.352-4.31
			c-0.045-3.911,3.689-5.795,5.163-6.569c0.733-0.387,1.062-1.258,0.699-2.004c-0.36-0.747-1.248-1.04-2.004-0.7
			c-1.162,0.523-2.771,1.479-4.112,3.011c-0.127-2.06-1.174-5.124-6.361-4.903c0,0-2.06,5.569,5.304,6.598
			c0,0-1.03,1.876-0.949,4.523c-2.479,0.355-4.621,1.992-5.588,4.354l-1.438,3.515c-1.088,2.659-2.479,5.174-4.146,7.514
			C9.43,28.389,8.82,31.117,9.531,34.68c1.211,6.072,5.631,11.211,10.214,11.211c1.379,0,2.421-0.453,3.201-1.258
			c0.78,0.805,1.821,1.258,3.2,1.258c4.583,0,9.004-5.139,10.214-11.211C37.071,31.115,36.462,28.389,35.129,26.516z"/>
	</g>
</g>
<g>
</g>
<g>
</g>
<g>
</g>
<g>
</g>
<g>
</g>
<g>
</g>
<g>
</g>
<g>
</g>
<g>
</g>
<g>
</g>
<g>
</g>
<g>
</g>
<g>
</g>
<g>
</g>
<g>
</g>
</svg>
