<?xml version="1.0" encoding="iso-8859-1"?>
<!-- Generator: Adobe Illustrator 16.0.0, SVG Export Plug-In . SVG Version: 6.00 Build 0)  -->
<!DOCTYPE svg PUBLIC "-//W3C//DTD SVG 1.1//EN" "http://www.w3.org/Graphics/SVG/1.1/DTD/svg11.dtd">
<svg version="1.1" id="Capa_1" xmlns="http://www.w3.org/2000/svg" xmlns:xlink="http://www.w3.org/1999/xlink" x="0px" y="0px"
	 width="189.898px" height="189.897px" viewBox="0 0 189.898 189.897" style="enable-background:new 0 0 189.898 189.897;"
	 xml:space="preserve">
<g>
	<g>
		<path d="M95.438,94.033v-4.872c0-1.864-1.511-3.375-3.375-3.375c-1.864,0-3.375,1.511-3.375,3.375v4.872
			c0,1.864,1.511,3.375,3.375,3.375C93.927,97.408,95.438,95.897,95.438,94.033z"/>
		<path d="M98.751,119.943c-1.864,0-3.375,1.51-3.375,3.375v4.869c0,1.864,1.511,3.375,3.375,3.375c1.863,0,3.375-1.511,3.375-3.375
			v-4.869C102.126,121.453,100.615,119.943,98.751,119.943z"/>
		<path d="M66.207,106.216c-1.864,0-3.375,1.511-3.375,3.375v4.871c0,1.864,1.511,3.375,3.375,3.375
			c1.864,0,3.375-1.511,3.375-3.375v-4.871C69.582,107.727,68.071,106.216,66.207,106.216z"/>
		<path d="M73.335,136.369c-1.864,0-3.375,1.511-3.375,3.375v4.87c0,1.863,1.511,3.375,3.375,3.375c1.864,0,3.375-1.512,3.375-3.375
			v-4.87C76.71,137.88,75.199,136.369,73.335,136.369z"/>
		<path d="M126.646,131.498c-1.864,0-3.375,1.511-3.375,3.375v4.871c0,1.864,1.511,3.375,3.375,3.375s3.375-1.511,3.375-3.375
			v-4.871C130.021,133.009,128.51,131.498,126.646,131.498z"/>
		<path d="M96.581,156.162c-1.864,0-3.375,1.511-3.375,3.375v4.871c0,1.864,1.511,3.375,3.375,3.375s3.375-1.511,3.375-3.375v-4.871
			C99.956,157.672,98.445,156.162,96.581,156.162z"/>
		<path d="M125.992,110.742v-4.87c0-1.864-1.511-3.375-3.375-3.375c-1.863,0-3.375,1.511-3.375,3.375v4.87
			c0,1.864,1.512,3.375,3.375,3.375C124.481,114.117,125.992,112.606,125.992,110.742z"/>
		<path d="M142.453,80.917c-1.863,0-3.375,1.511-3.375,3.375v4.87c0,1.864,1.512,3.375,3.375,3.375c1.864,0,3.375-1.511,3.375-3.375
			v-4.87C145.828,82.428,144.317,80.917,142.453,80.917z"/>
		<path d="M43.89,80.917c-1.864,0-3.375,1.511-3.375,3.375v4.87c0,1.864,1.511,3.375,3.375,3.375c1.864,0,3.375-1.511,3.375-3.375
			v-4.87C47.265,82.428,45.754,80.917,43.89,80.917z"/>
		<path d="M159.593,64.521c-5.449-10.834-13.597-13.71-21.001-14.609c3.009-1.561,5.548-3.657,6.401-6.438
			c1.167-3.801-4.147-5.868-6.982-7.026c-2.83-1.156-6.778-2.465-11.735-3.889c-8.33-2.394-16.842-4.345-16.927-4.365
			c-1.261-0.287-2.576,0.171-3.385,1.18c-2.16,2.694-5.326,6.2-7.502,8.488c0.067-1.796-0.143-4.399-0.15-6.3
			c0.064-9.792,0.953-19.156,4.517-23.042c1.215-1.324,2.555-1.868,4.33-1.757c1.866,0.108,3.461-1.302,3.575-3.163
			c0.114-1.86-1.302-3.461-3.162-3.575c-3.785-0.23-7.145,1.128-9.717,3.932c-5.19,5.658-6.637,16.908-6.711,27.267h-0.001
			c0,0.041,0,0.085,0,0.127c0,0.07-0.001,0.141-0.002,0.211h0.001c-0.003,1.838,0.031,4.025,0.096,5.717
			c-2.176-2.289-4.718-5.212-6.878-7.906c-0.809-1.009-2.124-1.467-3.385-1.18c-0.085,0.019-8.597,1.971-16.927,4.365
			c-4.957,1.425-8.905,2.733-11.735,3.889c-2.835,1.158-8.091,3.207-6.983,7.026c0.75,2.587,3.891,4.68,7.518,6.275
			c-7.794,0.696-16.714,3.18-22.544,14.772c-6.16,12.247-7.511,36.214,7.171,66.745c10.744,22.345,20.511,37.707,33.712,48.614
			c0.02,0.017,0.041,0.034,0.062,0.05c8.616,6.785,16.075,9.969,23.392,9.969c0.103,0,0.206-0.004,0.309-0.006
			c0.103,0.001,0.205,0.006,0.309,0.006c7.316,0,14.776-3.185,23.392-9.969c0.021-0.016,0.041-0.033,0.062-0.05
			c13.2-10.907,22.968-26.27,33.712-48.614C167.104,100.734,165.753,76.768,159.593,64.521z M80.433,35.249
			C86.26,42.358,89.74,45.48,91.9,46.852c0.069,0.697,0.704,5.802,0.786,6.359c0.249,1.676,1.689,2.88,3.334,2.88
			c0.165,0,0.332-0.012,0.5-0.037c1.844-0.274,3.117-1.991,2.843-3.834c-0.16-1.077-0.653-4.906-0.585-5.6
			c2.159-1.372,5.285-4.262,11.113-11.37c10.07,2.377,21.033,5.497,26.188,7.669c-4.076,1.629-11.793,3.637-18.507,4.929
			c-1.053,0.203-1.948,0.894-2.409,1.862c-0.461,0.968-0.435,2.098,0.071,3.044c5.622,10.508,11.514,22.937,13.587,29.212
			c-4.927-2.942-13.409-9.348-18.504-13.196c-11.251-8.497-12.92-9.571-14.885-9.571c-0.089,0-0.45,0-0.539,0
			c-1.965,0-3.634,1.074-14.885,9.571c-5.095,3.848-13.577,10.254-18.504,13.196c2.073-6.275,7.965-18.704,13.588-29.212
			c0.506-0.946,0.532-2.075,0.071-3.044c-0.461-0.969-1.356-1.659-2.409-1.862c-6.714-1.292-14.43-3.3-18.507-4.929
			C59.4,40.746,70.363,37.625,80.433,35.249z M146.339,128.341c-10.279,21.377-19.523,35.627-31.897,45.86
			c-7.341,5.774-13.451,8.933-19.168,8.938c-0.015,0-0.03-0.001-0.045-0.001c-0.097,0.003-0.195-0.001-0.292,0
			c-0.089-0.001-0.178,0.002-0.267,0c-0.023-0.001-0.045,0.001-0.068,0.001c-5.708-0.014-11.816-3.172-19.146-8.938
			c-12.374-10.233-21.618-24.483-31.897-45.86c-13.636-28.356-12.414-50.469-7.224-60.787c5.398-10.734,13.83-11.047,21.984-11.349
			l0.343-0.013c0.555-0.02,2.464-0.073,5.295-0.147c0.55-0.015,1.063-0.162,1.516-0.407c-1.194,3.143-3.053,7.119-4.738,10.72
			c-2.357,5.037-4.114,9.2-5.224,12.375c-1.679,4.802-2.297,8.201-0.197,10.301c0.556,0.556,1.541,1.218,3.077,1.218h0.002
			c3.943-0.001,11.199-5.156,25.684-16.096c3.93-2.968,8.681-6.556,10.807-7.878c0.209-0.108,0.392-0.108,0.559,0
			c2.125,1.322,6.877,4.91,10.806,7.878c14.485,10.941,21.741,16.095,25.685,16.096h0.002c1.537,0,2.521-0.662,3.077-1.218
			c2.101-2.1,1.481-5.498-0.197-10.301c-1.11-3.175-2.867-7.338-5.224-12.375c-1.701-3.637-3.272-7.359-4.35-10.405
			c0.226,0.054,0.459,0.086,0.7,0.092c2.83,0.074,4.74,0.127,5.288,0.147l0.35,0.013c8.154,0.303,16.586,0.616,21.984,11.349
			C158.753,77.872,159.975,99.984,146.339,128.341z"/>
	</g>
</g>
<g>
</g>
<g>
</g>
<g>
</g>
<g>
</g>
<g>
</g>
<g>
</g>
<g>
</g>
<g>
</g>
<g>
</g>
<g>
</g>
<g>
</g>
<g>
</g>
<g>
</g>
<g>
</g>
<g>
</g>
</svg>
