<?xml version="1.0" encoding="iso-8859-1"?>
<!-- Generator: Adobe Illustrator 16.0.0, SVG Export Plug-In . SVG Version: 6.00 Build 0)  -->
<!DOCTYPE svg PUBLIC "-//W3C//DTD SVG 1.1//EN" "http://www.w3.org/Graphics/SVG/1.1/DTD/svg11.dtd">
<svg version="1.1" id="Layer_1" xmlns="http://www.w3.org/2000/svg" xmlns:xlink="http://www.w3.org/1999/xlink" x="0px" y="0px"
	 width="21.092px" height="32px" viewBox="0 0 21.092 32" style="enable-background:new 0 0 21.092 32;" xml:space="preserve">
<g>
	<path style="fill:#231F20;" d="M19.237,28.291h-3.103v-3.754c1.442-0.894,2.631-2.116,3.444-3.554h-9.02v-0.004H1.513
		c0.814,1.438,2.003,2.66,3.444,3.552v3.756H1.854C0.831,28.287,0,29.117,0,30.141c0,1.024,0.831,1.854,1.854,1.854h4.2
		c1.024,0,1.854-0.831,1.854-1.854c0-0.047-0.004-0.095-0.007-0.142c0.004-0.049,0.007-0.1,0.007-0.15v-4.063
		c0.837,0.215,1.717,0.336,2.625,0.345v0.006c0.917-0.008,1.805-0.128,2.648-0.346v4.063c0,0.051,0.003,0.101,0.008,0.15
		c-0.003,0.047-0.008,0.094-0.008,0.142c0,1.024,0.831,1.854,1.855,1.854h4.2c1.024,0,1.855-0.831,1.855-1.854
		S20.262,28.291,19.237,28.291z"/>
	<path style="fill:#231F20;" d="M7.455,16.689c0.722,0,1.306-0.585,1.306-1.306c0-0.722-0.584-1.307-1.306-1.307
		c-0.051,0-0.101,0.004-0.151,0.01c0.094,0.129,0.151,0.287,0.151,0.459c0,0.434-0.352,0.785-0.784,0.785
		c-0.191,0-0.364-0.071-0.5-0.184c-0.013,0.077-0.022,0.156-0.022,0.236C6.148,16.104,6.733,16.689,7.455,16.689z"/>
	<path style="fill:#231F20;" d="M1.703,17.407c0,0.753,0.107,1.482,0.306,2.177h8.525v0.004h8.549
		c0.199-0.694,0.306-1.423,0.306-2.176c0-3.608-2.435-6.681-5.848-7.861c0.062-0.207,0.096-0.426,0.096-0.653
		c0-0.479-0.148-0.923-0.399-1.291l1.832-3.438c0.125,0.023,0.252,0.037,0.384,0.037c1.16,0,2.1-0.94,2.1-2.101
		c0-1.16-0.94-2.101-2.1-2.101c-1.161,0-2.101,0.941-2.101,2.101c0,0.535,0.202,1.022,0.53,1.393l-1.735,3.257
		c-0.25-0.093-0.518-0.147-0.8-0.147h-0.79V6.604H9.745c-0.283,0-0.551,0.053-0.801,0.147L7.208,3.492
		c0.329-0.371,0.531-0.857,0.531-1.392C7.739,0.94,6.798,0,5.639,0c-1.16,0-2.101,0.94-2.101,2.101c0,1.16,0.94,2.1,2.101,2.1
		c0.131,0,0.259-0.014,0.384-0.037l1.832,3.438C7.603,7.969,7.455,8.414,7.455,8.893c0,0.227,0.035,0.445,0.096,0.652
		C4.137,10.726,1.703,13.8,1.703,17.407z M16.135,15.388c0,1.379-1.118,2.498-2.498,2.498s-2.499-1.119-2.499-2.498
		c0-1.379,1.119-2.498,2.499-2.498S16.135,14.008,16.135,15.388z M7.455,12.885c1.379,0,2.498,1.118,2.498,2.498
		s-1.118,2.498-2.498,2.498s-2.498-1.119-2.498-2.498S6.075,12.885,7.455,12.885z"/>
	<path style="fill:#231F20;" d="M13.638,16.694c0.721,0,1.306-0.585,1.306-1.306c0-0.081-0.009-0.16-0.022-0.237
		c-0.136,0.113-0.309,0.184-0.5,0.184c-0.433,0-0.784-0.351-0.784-0.785c0-0.172,0.057-0.331,0.151-0.46
		c-0.05-0.005-0.101-0.009-0.151-0.009c-0.722,0-1.306,0.585-1.306,1.307C12.332,16.109,12.916,16.694,13.638,16.694z"/>
</g>
<g>
</g>
<g>
</g>
<g>
</g>
<g>
</g>
<g>
</g>
<g>
</g>
<g>
</g>
<g>
</g>
<g>
</g>
<g>
</g>
<g>
</g>
<g>
</g>
<g>
</g>
<g>
</g>
<g>
</g>
</svg>
