<?xml version="1.0" encoding="iso-8859-1"?>
<!-- Generator: Adobe Illustrator 18.0.0, SVG Export Plug-In . SVG Version: 6.00 Build 0)  -->
<!DOCTYPE svg PUBLIC "-//W3C//DTD SVG 1.1//EN" "http://www.w3.org/Graphics/SVG/1.1/DTD/svg11.dtd">
<svg version="1.1" id="Capa_1" xmlns="http://www.w3.org/2000/svg" xmlns:xlink="http://www.w3.org/1999/xlink" x="0px" y="0px"
	 viewBox="0 0 59 59" style="enable-background:new 0 0 59 59;" xml:space="preserve">
<g>
	<path d="M40.223,41.676h-7h-4h-4h-7c-0.553,0-1,0.447-1,1c0,6.617,5.383,12,12,12s12-5.383,12-12
		C41.223,42.123,40.775,41.676,40.223,41.676z M30.223,43.676h2v2h-2V43.676z M28.223,43.676v3v1h-2v-4H28.223z M29.223,52.676
		c-5.177,0-9.447-3.954-9.95-9h4.95v5c0,0.553,0.447,1,1,1h4c0.553,0,1-0.447,1-1v-1h3c0.553,0,1-0.447,1-1v-3h4.95
		C38.67,48.722,34.399,52.676,29.223,52.676z"/>
	<path d="M27.223,27.176c0-4.687-3.141-8.5-7-8.5s-7,3.813-7,8.5s3.141,8.5,7,8.5S27.223,31.862,27.223,27.176z M15.223,27.176
		c0-3.584,2.243-6.5,5-6.5s5,2.916,5,6.5s-2.243,6.5-5,6.5S15.223,30.76,15.223,27.176z"/>
	<ellipse cx="20.223" cy="27.176" rx="3" ry="4.5"/>
	<path d="M38.223,18.676c-3.859,0-7,3.813-7,8.5s3.141,8.5,7,8.5s7-3.813,7-8.5S42.082,18.676,38.223,18.676z M38.223,33.676
		c-2.757,0-5-2.916-5-6.5s2.243-6.5,5-6.5s5,2.916,5,6.5S40.979,33.676,38.223,33.676z"/>
	<ellipse cx="38.223" cy="27.176" rx="3" ry="4.5"/>
	<circle cx="12.616" cy="36.571" r="1"/>
	<circle cx="17.018" cy="38.942" r="1"/>
	<circle cx="12.223" cy="40.675" r="1"/>
	<circle cx="44.829" cy="36.571" r="1"/>
	<circle cx="40.427" cy="38.942" r="1"/>
	<circle cx="45.223" cy="40.675" r="1"/>
	<path d="M29.5,0C14.888,0,3,11.888,3,26.5v10.979c0,0,0,0.002,0,0.004s0,0.004,0,0.006c0,0.004,0,0.008,0,0.012V51
		c0,2.757,2.243,5,5,5h6.55c0.046,0.022,0.096,0.04,0.142,0.061c3.51,1.654,7.728,2.643,12.543,2.878
		c0.107,0.005,0.214,0.011,0.321,0.016C28.195,58.982,28.84,59,29.5,59c0.66,0,1.305-0.018,1.944-0.045
		c0.108-0.005,0.215-0.01,0.323-0.016c4.814-0.235,9.032-1.224,12.541-2.878c0.046-0.021,0.096-0.04,0.142-0.062H51
		c2.757,0,5-2.243,5-5V26.5C56,11.888,44.112,0,29.5,0z M43.992,54l-0.207,0.101c-2.826,1.374-6.202,2.271-9.913,2.666
		c-0.273,0.028-0.545,0.056-0.823,0.078c-0.391,0.033-0.786,0.062-1.184,0.084C31.091,56.969,30.309,57,29.5,57
		c-0.809,0-1.59-0.031-2.364-0.072c-0.399-0.022-0.794-0.051-1.186-0.084c-0.276-0.022-0.547-0.05-0.818-0.078
		c-3.712-0.395-7.089-1.292-9.916-2.666L15.008,54h-0.089C8.548,50.783,5,45.095,5,37.5c0-0.004,0-0.007,0-0.011
		c0-0.002,0-0.004,0-0.006c0-0.001,0-0.002,0-0.004C5.012,24.628,15.796,13.647,29,13l0.951-0.001C43.212,13.647,54,24.639,54,37.5
		c0,7.595-3.548,13.283-9.919,16.5H43.992z M8,54c-1.654,0-3-1.346-3-3v-4.226c1.384,2.876,3.459,5.308,6.148,7.226H8z M54,51
		c0,1.654-1.346,3-3,3h-3.148c2.689-1.917,4.764-4.349,6.148-7.226V51z M30,11l-1.049,0.001C18.165,11.529,8.911,18.42,5,27.736
		V26.5C5,12.99,15.99,2,29.5,2S54,12.99,54,26.5v1.198C50.079,18.398,40.811,11.528,30,11z"/>
</g>
<g>
</g>
<g>
</g>
<g>
</g>
<g>
</g>
<g>
</g>
<g>
</g>
<g>
</g>
<g>
</g>
<g>
</g>
<g>
</g>
<g>
</g>
<g>
</g>
<g>
</g>
<g>
</g>
<g>
</g>
</svg>
