<?xml version="1.0" encoding="iso-8859-1"?>
<!-- Generator: Adobe Illustrator 18.1.1, SVG Export Plug-In . SVG Version: 6.00 Build 0)  -->
<svg version="1.1" id="Capa_1" xmlns="http://www.w3.org/2000/svg" xmlns:xlink="http://www.w3.org/1999/xlink" x="0px" y="0px"
	 viewBox="0 0 233.61 233.61" style="enable-background:new 0 0 233.61 233.61;" xml:space="preserve">
<g>
	<g>
		<path style="fill:#010002;" d="M159.341,104.337c0,20.616-8.109,39.96-22.728,55.205c-4.171,4.356-3.109,7.787,2.912,7.345
			c17.035-1.265,33.134-7.966,45.509-20.347c15.06-15.06,21.761-35.628,20.431-56.691c-0.382-6.027-6.212-11.85-12.238-12.226
			c-8.992-0.561-17.889,0.346-26.314,2.739c-5.818,1.653-8.998,8.193-8.252,13.783C159.114,97.499,159.341,100.9,159.341,104.337z"
			/>
		<path style="fill:#010002;" d="M228.425,131.272c-2.81-2.029-5.71-3.867-8.706-5.507c-5.305-2.9-11.361,0.137-13.986,5.573
			c-3.729,7.727-8.718,14.816-14.929,21.015c-14.798,14.804-35.115,23.002-57.222,23.002c-0.489,0-0.979-0.006-1.48-0.024
			c-0.817-0.024,2.649,2.613,8.169,5.084c13.819,6.17,29.136,8.139,44.376,4.708c20.783-4.672,37.436-18.467,47.574-36.977
			C235.12,142.841,233.306,134.81,228.425,131.272z"/>
		<path style="fill:#010002;" d="M100.024,175.355c-22.095,0-42.418-8.204-57.222-23.002c-6.206-6.212-11.194-13.3-14.923-21.015
			c-2.625-5.436-8.7-8.479-13.992-5.579c-2.995,1.641-5.901,3.479-8.7,5.513c-4.887,3.544-6.695,11.57-3.795,16.874
			c10.126,18.521,26.785,32.317,47.568,36.983c15.233,3.431,30.55,1.462,44.376-4.708c5.513-2.464,8.98-5.096,8.163-5.084
			C101.002,175.349,100.513,175.355,100.024,175.355z"/>
		<path style="fill:#010002;" d="M94.248,166.894c6.027,0.43,7.083-3.019,2.906-7.375c-14.595-15.239-22.71-34.572-22.71-55.188
			c0-3.425,0.227-6.814,0.668-10.15c0.74-5.573-2.44-12.107-8.246-13.772c-8.479-2.434-17.441-3.359-26.505-2.792
			c-6.027,0.376-11.844,6.2-12.226,12.226c-1.331,21.063,5.37,41.625,20.431,56.685C60.989,158.952,77.153,165.671,94.248,166.894z"
			/>
		<path style="fill:#010002;" d="M125.544,49.8c-4.529-3.992-12.769-3.992-17.298,0c-15.836,13.951-25.64,33.224-25.64,54.531
			c0,21.302,9.804,40.587,25.64,54.537c4.529,3.986,12.769,3.986,17.298,0c15.836-13.951,25.64-33.229,25.64-54.537
			C151.184,83.029,141.38,63.75,125.544,49.8z"/>
	</g>
</g>
<g>
</g>
<g>
</g>
<g>
</g>
<g>
</g>
<g>
</g>
<g>
</g>
<g>
</g>
<g>
</g>
<g>
</g>
<g>
</g>
<g>
</g>
<g>
</g>
<g>
</g>
<g>
</g>
<g>
</g>
</svg>
