<?xml version="1.0" encoding="iso-8859-1"?>
<!-- Generator: Adobe Illustrator 18.0.0, SVG Export Plug-In . SVG Version: 6.00 Build 0)  -->
<!DOCTYPE svg PUBLIC "-//W3C//DTD SVG 1.1//EN" "http://www.w3.org/Graphics/SVG/1.1/DTD/svg11.dtd">
<svg version="1.1" id="Capa_1" xmlns="http://www.w3.org/2000/svg" xmlns:xlink="http://www.w3.org/1999/xlink" x="0px" y="0px"
	 viewBox="0 0 57.957 57.957" style="enable-background:new 0 0 57.957 57.957;" xml:space="preserve">
<g>
	<circle cx="19.067" cy="18.545" r="3.5"/>
	<circle cx="39.067" cy="18.545" r="3.5"/>
	<path d="M29.567,31.045c-2.822,0-7.6,0.843-7.6,4c0,0.553,0.447,1,1,1s1-0.447,1-1c0-1.179,2.951-2,5.6-2s5.6,0.821,5.6,2
		c0,0.553,0.447,1,1,1s1-0.447,1-1C37.167,31.888,32.39,31.045,29.567,31.045z"/>
	<path d="M19.288,13.044l2.612,0.099l1.804,3.085c0.187,0.318,0.521,0.495,0.864,0.495c0.172,0,0.345-0.044,0.504-0.137
		c0.477-0.279,0.637-0.892,0.358-1.368l-2.358-4.032l-3.708-0.14c-0.014-0.001-0.026-0.001-0.039-0.001
		c-0.534,0-0.978,0.423-0.998,0.962C18.306,12.56,18.736,13.023,19.288,13.044z"/>
	<path d="M54.575,0.811c-0.078-0.406-0.399-0.723-0.808-0.794c-0.409-0.076-0.818,0.114-1.031,0.47l-2.065,3.442
		c-1.142,1.902-2.767,3.423-4.727,4.434c-4.179-4.66-10.104-7.317-16.377-7.317S17.369,3.702,13.191,8.362
		c-1.96-1.011-3.585-2.531-4.727-4.434L6.399,0.486C6.186,0.131,5.777-0.06,5.367,0.017C4.959,0.088,4.638,0.404,4.56,0.811
		C4.478,1.234,2.685,10.923,8.865,15.63c-0.861,2.396-1.298,4.888-1.298,7.415c0,0.184,0.009,0.366,0.014,0.549
		c-4.842,5.94-5.867,13.557-2.648,19.97c2.999,5.974,9.023,9.435,16.29,9.435c0.039,0,0.078-0.003,0.117-0.004l-0.753,3.766
		c-0.073,0.368,0.064,0.746,0.358,0.979c0.181,0.143,0.4,0.217,0.622,0.217c0.141,0,0.281-0.029,0.414-0.09l11-5
		c0.356-0.162,0.586-0.518,0.586-0.91s-0.229-0.748-0.586-0.91l-11-5c-0.343-0.156-0.741-0.107-1.036,0.127
		c-0.294,0.233-0.432,0.611-0.358,0.979l0.768,3.839c-6.557,0.033-11.969-3.018-14.634-8.326c-2.555-5.09-2.085-11.058,1.138-16.067
		c1.705,10.446,10.788,18.446,21.709,18.446c12.131,0,22-9.869,22-22c0-2.527-0.437-5.019-1.298-7.415
		C56.45,10.923,54.657,1.234,54.575,0.811z M30.15,51.957l-7.22,3.282l0.617-3.086c0.009-0.043-0.003-0.087,0-0.13
		c0.003-0.043,0.02-0.082,0.018-0.125c-0.001-0.024-0.015-0.043-0.018-0.066c-0.003-0.024,0.005-0.047,0-0.071l-0.617-3.086
		L30.15,51.957z M48.131,15.63c0.953,2.386,1.437,4.881,1.437,7.415c0,11.028-8.972,20-20,20s-20-8.972-20-20
		c0-2.534,0.483-5.029,1.437-7.415c0.178-0.444,0.016-0.952-0.387-1.212C6.869,12.001,6.24,7.267,6.275,4.166l0.475,0.792
		c1.481,2.468,3.658,4.387,6.296,5.55c0.405,0.18,0.885,0.068,1.171-0.273c3.816-4.569,9.412-7.189,15.352-7.189
		s11.535,2.62,15.352,7.189c0.286,0.343,0.765,0.454,1.171,0.273c2.638-1.163,4.814-3.082,6.296-5.55l0.475-0.792
		c0.034,3.101-0.595,7.835-4.343,10.252C48.115,14.678,47.953,15.186,48.131,15.63z"/>
	<path d="M33.063,16.586c0.159,0.093,0.332,0.137,0.504,0.137c0.344,0,0.678-0.177,0.864-0.495l1.804-3.085l2.612-0.099
		c0.552-0.021,0.982-0.484,0.961-1.037c-0.021-0.552-0.469-1.012-1.037-0.961l-3.708,0.14l-2.358,4.032
		C32.426,15.694,32.586,16.307,33.063,16.586z"/>
</g>
<g>
</g>
<g>
</g>
<g>
</g>
<g>
</g>
<g>
</g>
<g>
</g>
<g>
</g>
<g>
</g>
<g>
</g>
<g>
</g>
<g>
</g>
<g>
</g>
<g>
</g>
<g>
</g>
<g>
</g>
</svg>
