<?xml version="1.0" encoding="iso-8859-1"?>
<!-- Generator: Adobe Illustrator 16.0.0, SVG Export Plug-In . SVG Version: 6.00 Build 0)  -->
<!DOCTYPE svg PUBLIC "-//W3C//DTD SVG 1.1//EN" "http://www.w3.org/Graphics/SVG/1.1/DTD/svg11.dtd">
<svg version="1.1" id="Capa_1" xmlns="http://www.w3.org/2000/svg" xmlns:xlink="http://www.w3.org/1999/xlink" x="0px" y="0px"
	 width="906.757px" height="906.757px" viewBox="0 0 906.757 906.757" style="enable-background:new 0 0 906.757 906.757;"
	 xml:space="preserve">
<g>
	<g>
		<path d="M428.773,137.881c3.9-6.6,5.5-16.3,3.1-23.7c-2.399-7.4-7-14.6-14.1-18.4c-6.8-3.6-16.2-6.2-23.7-3.1
			c-37.8,15.5-72.1,38.6-98.3,70.3c-22.6,27.3-39.9,58.9-49.3,93c-0.7,2.6,0.3,5.3,2.4,6.8c6.1,4.2,11.8,8.9,17.1,14
			c2.399,2.3,6.3,2.4,8.7,0.1c7.199-6.9,15.1-13,23.6-18.3c4.7-2.9,9.7-5.6,14.8-8c0.101-0.2,0.2-0.4,0.2-0.6
			c6.4-14.4,14.4-28,23.7-40.7c10-12.4,21.3-23.7,33.8-33.7c13.2-9.8,40.7-23.8,42.3-24.6l0.2-0.1
			C419.674,147.881,424.974,144.381,428.773,137.881z"/>
		<path d="M888.174,203.781c-2.801-6.7-10.4-11-17-13c-6.9-2.1-14.301-0.5-20.601,2.7c-6.2,3.2-11.3,10.3-13,17
			c-1.7,6.6-0.6,12.2,1.7,18.1c22,54.2,12.7,117.6-21.5,164.399c-1.4,1.801-2.9,3.5-4.4,5.301c-1.1,1.199-1.6,2.8-1.5,4.399
			c0.5,10.101-0.699,20.101-3.399,29.8c-1.4,4.7,2.899,9.101,7.6,7.801h0.101c7.6-2,15.3-3,23.1-3c3,0,6,0.199,9,0.399
			c2,0.2,4-0.6,5.3-2.1c5-5.8,9.7-11.9,14.101-18.3c22.199-31.4,34.6-68.601,38.199-106.7
			C909.373,273.881,902.273,237.481,888.174,203.781z"/>
		<path d="M205.673,743.581c20.4,0,44.4-3.2,60.6-16.8c2.3-2,5.7-2,8-0.101c9.1,7.601,21.7,13,39.2,15.4c7.3,1,14.399,1.5,21.5,1.5
			c17.6,0,34.3-3.101,50.1-8.7c1.4-0.5,2.5-1.5,3.3-2.8c11.9-20.3,31.5-36,56-42.4l0.2-0.1c4.7-1.2,6.3-7.101,2.8-10.5
			c-11.399-11.3-19.899-25.7-24.199-42c-6.2-23.7-2.7-48.4,9.699-69.5c12.4-21.2,32.301-36.2,56-42.4c0.101,0,0.101,0,0.2,0
			c4.8-1.2,6.3-7.1,2.9-10.6c-11.4-11.3-19.9-25.601-24.101-42c-11.399-44,11.2-89,51.5-106.9c3.101-1.399,4.5-5,3.2-8.1
			c-22.8-54.4-68-92.2-140.1-92.2c-32.2,0-60.2,10.3-81.5,28.1c-10.101,8.4-18.601,18.6-25.3,30.1c-2.4,4.1-8.301,4.1-10.7,0
			c-6.8-11.7-15.5-21.9-25.7-30.5c-21.2-17.6-49.1-27.7-81-27.7C-98.126,265.481-14.327,743.581,205.673,743.581z"/>
		<path d="M130.173,61.481c-7.7-0.2-14.3,5.4-15.4,13c-4.7,35.5-5.7,130.8,121.9,121.8c7.7-0.5,13.8-6.9,13.9-14.7
			C251.273,148.381,241.573,64.581,130.173,61.481z"/>
		<path d="M815.674,289.181c0.6-33.3-9-117-120.4-120.2c-7.7-0.2-14.3,5.4-15.4,13c-4.699,35.5-5.699,130.8,121.9,121.8
			C809.573,303.281,815.573,296.881,815.674,289.181z"/>
		<path d="M859.474,676.581c-7.7-29.4-34.2-50-64.601-50c-5.6,0-11.3,0.7-16.8,2.2c-17.2,4.5-31.7,15.399-40.7,30.8
			c-9,15.399-11.6,33.399-7.1,50.6c7.7,29.4,34.2,50,64.6,50c5.601,0,11.301-0.7,16.801-2.2
			C847.174,748.781,868.674,712.281,859.474,676.581z"/>
		<path d="M631.174,669.181c-5.601,0-11.301,0.7-16.801,2.2c-35.6,9.3-57.1,45.8-47.8,81.4c7.7,29.399,34.2,50,64.601,50
			c5.6,0,11.3-0.7,16.8-2.2c17.2-4.5,31.7-15.4,40.7-30.8c9-15.4,11.6-33.4,7.1-50.601
			C688.073,689.781,661.573,669.181,631.174,669.181z"/>
		<path d="M733.273,605.281c9-15.4,11.6-33.4,7.1-50.601c-7.699-29.399-34.199-50-64.6-50c-5.6,0-11.3,0.7-16.8,2.2
			c-35.601,9.3-57.101,45.8-47.8,81.4c7.699,29.399,34.199,50,64.6,50c5.6,0,11.3-0.7,16.8-2.2
			C709.773,631.681,724.273,620.681,733.273,605.281z"/>
		<path d="M562.373,383.081c-9.5-0.8-21,0.899-29.899,4.3c-31.101,12.1-49,46-40.4,79c5.9,22.5,22.8,39.8,44,46.7
			c12,3.899,25.101,4.3,37.4,1.1c17.2-4.5,31.7-15.399,40.7-30.8s11.6-33.4,7.1-50.6
			C614.073,405.181,590.273,385.381,562.373,383.081z"/>
		<path d="M896.873,562.781c9-15.4,11.5-33.4,7.101-50.601c-7.7-29.399-34.2-50-64.601-50c-12.6,0-26.5,4.2-36.899,11.2
			c-23,15.4-35,44.1-27.601,72.4c7.7,29.399,34.2,50,64.601,50c5.6,0,11.3-0.7,16.8-2.2
			C873.373,589.081,887.873,578.081,896.873,562.781z"/>
		<path d="M777.373,440.48c8.801-14.6,12.2-32.5,7.601-50.3c-7.7-29.399-34.2-50-64.601-50c-5.6,0-11.3,0.7-16.8,2.2
			c-17.2,4.5-31.7,15.4-40.7,30.8c-9,15.4-11.6,33.4-7.1,50.601c7.7,29.399,34.2,50,64.6,50
			C744.373,473.781,765.573,460.081,777.373,440.48z"/>
		<path d="M454.573,580.281c-9,15.399-11.6,33.399-7.1,50.6c14.5,55.8,92.7,67.2,122.1,17c9-15.4,11.601-33.4,7.101-50.6
			c-9-34.7-46.4-56.9-81.4-47.801C478.073,553.98,463.573,564.881,454.573,580.281z"/>
		<path d="M448.773,714.581c-32.5,10.1-55,45.7-45.9,80.7c7.7,29.399,34.2,50,64.601,50c5.6,0,11.3-0.7,16.8-2.2
			c17.2-4.5,31.7-15.4,40.7-30.8c9-15.4,11.5-33.4,7.1-50.601c-7.5-29-34.7-50-64.6-50
			C460.974,711.781,454.674,712.781,448.773,714.581z"/>
	</g>
</g>
<g>
</g>
<g>
</g>
<g>
</g>
<g>
</g>
<g>
</g>
<g>
</g>
<g>
</g>
<g>
</g>
<g>
</g>
<g>
</g>
<g>
</g>
<g>
</g>
<g>
</g>
<g>
</g>
<g>
</g>
</svg>
