<?xml version="1.0" encoding="iso-8859-1"?>
<!-- Generator: Adobe Illustrator 16.0.0, SVG Export Plug-In . SVG Version: 6.00 Build 0)  -->
<!DOCTYPE svg PUBLIC "-//W3C//DTD SVG 1.1//EN" "http://www.w3.org/Graphics/SVG/1.1/DTD/svg11.dtd">
<svg version="1.1" id="Layer_1" xmlns="http://www.w3.org/2000/svg" xmlns:xlink="http://www.w3.org/1999/xlink" x="0px" y="0px"
	 width="26.856px" height="32px" viewBox="0 0 26.856 32" style="enable-background:new 0 0 26.856 32;" xml:space="preserve">
<g>
	<circle style="fill:#231F20;" cx="13.476" cy="7.846" r="0.963"/>
	<rect x="12.037" y="25.558" style="fill:#231F20;" width="2.201" height="0.846"/>
	<rect x="12.037" y="26.846" style="fill:#231F20;" width="2.201" height="0.846"/>
	<rect x="12.037" y="27.994" style="fill:#231F20;" width="2.201" height="0.846"/>
	<path style="fill:#231F20;" d="M14.238,29.944v-0.662h-2.201v0.662c-0.732,0.393-1.231,1.166-1.231,2.056c3.485,0,2.293,0,4.664,0
		C15.469,31.109,14.97,30.336,14.238,29.944z"/>
	<rect x="17.086" y="25.558" style="fill:#231F20;" width="2.201" height="0.846"/>
	<rect x="17.086" y="26.846" style="fill:#231F20;" width="2.201" height="0.846"/>
	<rect x="17.086" y="27.994" style="fill:#231F20;" width="2.201" height="0.846"/>
	<path style="fill:#231F20;" d="M19.287,29.944v-0.662h-2.201v0.662c-0.733,0.393-1.232,1.166-1.232,2.056c3.485,0,2.293,0,4.664,0
		C20.519,31.109,20.02,30.336,19.287,29.944z"/>
	<circle style="fill:#231F20;" cx="17.781" cy="7.846" r="0.963"/>
	<path style="fill:#231F20;" d="M25.399,21.963l0.003-0.001l-4.128-8.167l-0.002,0.001v-0.001h-3.209v-2.031h2.235V5.19h-2.708
		V3.836h-1.792V1.001h0.367V0h-0.536h-0.537v1.001h0.367v2.835h-1.791V5.19H10.96v6.573h2.236v2.031H9.958l-2.462,3.034
		l-4.365-3.954v-1.605h-0.88v2.251H0v0.88h1.792l5.927,5.37l2.24-2.747v6.617h2.031v1.523h2.2V23.64h2.85v1.523h2.2V23.64h2.032
		V18.29l2.178,4.309l-0.695,1.649l0.811,0.342l0.875-2.075l2.074,0.875l0.343-0.812L25.399,21.963z M19.419,7.846
		c0,0.904-0.733,1.637-1.638,1.637c-0.904,0-1.637-0.733-1.637-1.637s0.733-1.637,1.637-1.637
		C18.686,6.209,19.419,6.942,19.419,7.846z M11.839,7.846c0-0.904,0.733-1.637,1.637-1.637c0.904,0,1.637,0.733,1.637,1.637
		s-0.733,1.637-1.637,1.637C12.572,9.483,11.839,8.75,11.839,7.846z M16.567,21.425h-4.895v-1.301h4.895V21.425z M16.567,19.366
		h-4.895v-1.301h4.895V19.366z M16.567,17.267h-4.895v-1.3h4.895V17.267z M15.629,10.79h-1.834v-0.649h1.834h1.833v0.649H15.629z
		 M19.656,21.425H17.3v-1.301h2.356V21.425z M19.656,19.366H17.3v-1.301h2.356V19.366z M19.656,17.267H17.3v-1.3h2.356V17.267z"/>
</g>
<g>
</g>
<g>
</g>
<g>
</g>
<g>
</g>
<g>
</g>
<g>
</g>
<g>
</g>
<g>
</g>
<g>
</g>
<g>
</g>
<g>
</g>
<g>
</g>
<g>
</g>
<g>
</g>
<g>
</g>
</svg>
