<?xml version="1.0" encoding="iso-8859-1"?>
<!-- Generator: Adobe Illustrator 16.0.0, SVG Export Plug-In . SVG Version: 6.00 Build 0)  -->
<!DOCTYPE svg PUBLIC "-//W3C//DTD SVG 1.1//EN" "http://www.w3.org/Graphics/SVG/1.1/DTD/svg11.dtd">
<svg version="1.1" id="Capa_1" xmlns="http://www.w3.org/2000/svg" xmlns:xlink="http://www.w3.org/1999/xlink" x="0px" y="0px"
	 width="474.251px" height="474.251px" viewBox="0 0 474.251 474.251" style="enable-background:new 0 0 474.251 474.251;"
	 xml:space="preserve">
<g>
	<path d="M362.226,418.566H350.13c-0.605-64.47-12.01-124.631-33.977-178.873c-18.088-44.665-43.307-85.428-74.969-121.16
		c-47.173-53.246-93.797-78.91-106.272-85.21V5.425c0-2.997-2.428-5.425-5.425-5.425c-2.995,0-5.425,2.428-5.425,5.425v31.292v0.253
		v16.017v365.581h-12.037c-15.352,0-27.843,12.489-27.843,27.844c0,15.35,12.491,27.84,27.843,27.84h250.2
		c15.354,0,27.842-12.49,27.842-27.84C390.068,431.057,377.576,418.566,362.226,418.566z M233.404,126.112
		c47.729,54.006,104.467,148.41,105.865,292.455h-75.484c-0.881-146.974-35.731-243.468-65.048-298.724
		c-13.411-25.276-26.774-44.368-37.939-58.156C180.725,75.351,207.152,96.406,233.404,126.112z M134.913,397.598h37.755
		c2.997,0,5.425-2.43,5.425-5.426s-2.428-5.426-5.425-5.426h-37.755v-14.18h37.755c2.997,0,5.425-2.431,5.425-5.427
		c0-2.998-2.428-5.426-5.425-5.426h-37.755V347.53h37.755c2.997,0,5.425-2.429,5.425-5.426c0-2.994-2.428-5.425-5.425-5.425h-37.755
		v-14.182h37.755c2.997,0,5.425-2.428,5.425-5.426c0-2.996-2.428-5.424-5.425-5.424h-37.755v-14.185h37.755
		c2.997,0,5.425-2.428,5.425-5.426c0-2.996-2.428-5.424-5.425-5.424h-37.755V272.43h37.755c2.997,0,5.425-2.428,5.425-5.424
		s-2.428-5.426-5.425-5.426h-37.755v-14.182h37.755c2.997,0,5.425-2.428,5.425-5.424c0-2.998-2.428-5.427-5.425-5.427h-37.755
		v-14.182h37.755c2.997,0,5.425-2.428,5.425-5.425c0-2.996-2.428-5.425-5.425-5.425h-37.755v-14.181h37.755
		c2.997,0,5.425-2.429,5.425-5.425c0-2.997-2.428-5.425-5.425-5.425h-37.755v-14.182h37.755c2.997,0,5.425-2.428,5.425-5.425
		c0-2.996-2.428-5.425-5.425-5.425h-37.755v-14.181h37.755c2.997,0,5.425-2.429,5.425-5.425c0-2.997-2.428-5.425-5.425-5.425
		h-37.755V122.24h37.755c2.997,0,5.425-2.428,5.425-5.425c0-2.996-2.428-5.425-5.425-5.425h-37.755V52.983v-3.805
		c11.532,11.368,32.894,35.512,54.241,75.747c28.742,54.17,62.902,148.904,63.781,293.639H134.913V397.598L134.913,397.598z
		 M362.226,463.402H112.024c-9.369,0-16.991-7.623-16.991-16.992s7.622-16.992,16.991-16.992h15.914
		c0.495,0.148,1.008,0.254,1.55,0.254s1.056-0.104,1.553-0.254h125.806c0.496,0.148,1.014,0.254,1.555,0.254
		c0.543,0,1.059-0.104,1.551-0.254h102.271c9.369,0,16.99,7.623,16.99,16.992S371.595,463.402,362.226,463.402z"/>
</g>
<g>
</g>
<g>
</g>
<g>
</g>
<g>
</g>
<g>
</g>
<g>
</g>
<g>
</g>
<g>
</g>
<g>
</g>
<g>
</g>
<g>
</g>
<g>
</g>
<g>
</g>
<g>
</g>
<g>
</g>
</svg>
