<?xml version="1.0" encoding="iso-8859-1"?>
<!-- Generator: Adobe Illustrator 18.0.0, SVG Export Plug-In . SVG Version: 6.00 Build 0)  -->
<!DOCTYPE svg PUBLIC "-//W3C//DTD SVG 1.1//EN" "http://www.w3.org/Graphics/SVG/1.1/DTD/svg11.dtd">
<svg version="1.1" id="Capa_1" xmlns="http://www.w3.org/2000/svg" xmlns:xlink="http://www.w3.org/1999/xlink" x="0px" y="0px"
	 viewBox="0 0 483.648 483.648" style="enable-background:new 0 0 483.648 483.648;" xml:space="preserve">
<g>
	<path d="M448.251,254.053l13.62-13.478l-7.717-7.096c-13.268-12.199-28.902-19.302-46.568-21.229v-29l-15.645-14.899v-65.271h-10
		c-16.394,0-30.413,8.979-35.891,21.566l-8.693-8.279l-36.587-34.846h-33.4v20h25.4l28.728,27.36v88.836
		c-0.517,1.63-2.165,5.977-6.087,10.335c-7.42,8.244-18.948,12.425-34.265,12.425c-28.576,0-50.308-24.034-59.291-35.891
		c6.024-5.734,9.79-13.82,9.79-22.773v-20.023c0-17.347-14.112-31.459-31.458-31.459H86.794c-17.347,0-31.459,14.112-31.459,31.459
		v20.023c0,5.878,1.625,11.382,4.442,16.095c-12.039,7.365-23.966,23.566-36.118,48.98c-11.627,24.317-19.229,48.224-19.547,49.229
		L0,309.131h41.659c-0.58,3.93-0.885,7.91-0.885,11.921c0,44.705,36.371,81.076,81.076,81.076c44.705,0,81.076-36.371,81.076-81.076
		c0-4.011-0.305-7.991-0.885-11.921h96.394v8.193l23.151,0c-0.057,1.241-0.09,2.484-0.09,3.727
		c0,44.705,36.371,81.076,81.076,81.076c44.705,0,81.076-36.371,81.076-81.076C483.648,293.843,470.149,268.959,448.251,254.053z
		 M371.942,125.298v22.159c-4.991-2.406-8.356-6.52-8.356-11.08S366.951,127.704,371.942,125.298z M341.499,219.996v-72.067
		l46.088,43.894v20.392c-18.909,1.973-36.727,9.534-51.777,21.925c2.991-4.783,4.747-9.434,5.495-13.173L341.499,219.996z
		 M75.335,161.789c0-6.318,5.141-11.459,11.459-11.459h113.392c6.318,0,11.458,5.141,11.458,11.459v20.023
		c0,6.318-5.14,11.459-11.458,11.459H86.794c-6.318,0-11.459-5.141-11.459-11.459V161.789z M41.786,255.344
		c19.179-40.044,31.046-42.072,33.23-42.072h11.779h113.392h3.227c3.471,4.918,9.658,12.908,18.181,20.897
		c18.357,17.211,38.95,26.308,59.552,26.308c17.076,0,29.834-4.416,39.132-10.557c-9.513,11.907-16.298,25.57-19.588,39.211H27.697
		C30.978,280.169,35.871,267.694,41.786,255.344z M139.14,321.052c0,9.533-7.756,17.289-17.29,17.289s-17.29-7.756-17.29-17.289
		c0-4.521,1.708-8.73,4.761-11.921h25.056C137.432,312.322,139.14,316.531,139.14,321.052z M182.926,321.052
		c0,33.678-27.398,61.076-61.076,61.076c-33.678,0-61.076-27.398-61.076-61.076c0-4.03,0.393-8.017,1.164-11.921h24.612
		c-1.291,3.806-1.99,7.828-1.99,11.921c0,20.562,16.728,37.289,37.29,37.289s37.29-16.728,37.29-37.289
		c0-4.093-0.699-8.115-1.99-11.921h24.612C182.534,313.036,182.926,317.022,182.926,321.052z M340.348,257.255
		c15.418-16.483,35.746-25.561,57.238-25.561c12.942,0,24.577,3.359,34.713,10.007l-14.32,14.171
		c-34.48,0.949-57.408,13.897-73.257,41.453l-25.33-0.001C321.951,283.497,329.5,268.852,340.348,257.255z M402.573,382.128
		c-33.678,0-61.076-27.398-61.076-61.076c0-1.244,0.051-2.486,0.126-3.727h15.193l2.78-5.469
		c13.011-25.6,31.133-36.041,62.552-36.041h4.111l7.416-7.338c18.435,10.892,29.974,30.74,29.974,52.575
		C463.648,354.729,436.25,382.128,402.573,382.128z"/>
	<path d="M402.573,283.762c-20.562,0-37.29,16.729-37.29,37.29s16.728,37.289,37.29,37.289c20.561,0,37.289-16.728,37.289-37.289
		S423.134,283.762,402.573,283.762z M402.573,338.341c-9.534,0-17.29-7.756-17.29-17.289c0-9.534,7.756-17.29,17.29-17.29
		c9.533,0,17.289,7.756,17.289,17.29C419.862,330.585,412.106,338.341,402.573,338.341z"/>
</g>
<g>
</g>
<g>
</g>
<g>
</g>
<g>
</g>
<g>
</g>
<g>
</g>
<g>
</g>
<g>
</g>
<g>
</g>
<g>
</g>
<g>
</g>
<g>
</g>
<g>
</g>
<g>
</g>
<g>
</g>
</svg>
