<?xml version="1.0" encoding="utf-8"?>
<!-- Generator: Adobe Illustrator 16.0.0, SVG Export Plug-In . SVG Version: 6.00 Build 0)  -->
<!DOCTYPE svg PUBLIC "-//W3C//DTD SVG 1.1//EN" "http://www.w3.org/Graphics/SVG/1.1/DTD/svg11.dtd">
<svg version="1.1" id="Layer_1" xmlns="http://www.w3.org/2000/svg" xmlns:xlink="http://www.w3.org/1999/xlink" x="0px" y="0px"
	 width="50px" height="50px" viewBox="0 0 50 50" enable-background="new 0 0 50 50" xml:space="preserve">
<path d="M37.772,12.429C37.772,5.437,31.991,1,25,1c-6.992,0-12.773,4.437-12.773,11.429v2.151h25.545V12.429z M20.294,12.429
	c-1.614,0-2.958-1.344-2.958-2.958c0-1.613,1.344-2.958,2.958-2.958c1.613,0,2.958,1.345,2.958,2.958
	C23.252,11.084,22.042,12.429,20.294,12.429z M29.706,12.429c-1.614,0-2.958-1.344-2.958-2.958c0-1.613,1.344-2.958,2.958-2.958
	c1.613,0,2.957,1.345,2.957,2.958C32.663,11.084,31.319,12.429,29.706,12.429z M4.025,19.285h3.092V30.58H4.025V19.285z
	 M8.328,30.714c0,4.303,1.613,7.799,4.302,10.354V49h8.471v-3.766c1.21,0.269,2.554,0.404,3.899,0.404
	c1.344,0,2.688-0.136,3.898-0.404V49h8.471v-7.799c2.689-2.555,4.303-6.05,4.303-10.353V16.597H8.328V30.714z M29.303,33.767
	l7.125-3.227l-7.125-3.228v-2.15l9.276,4.438v1.882l-9.276,4.437V33.767z M26.21,23.146h1.882L23.924,37.8h-1.882L26.21,23.146z
	 M11.42,29.6l9.278-4.572v2.285l-6.992,3.228l6.992,3.227v2.151l-9.278-4.571V29.6z M45.975,19.285V30.58h-3.093V19.285H45.975z"/>
</svg>
