<?xml version="1.0" encoding="utf-8"?>
<!-- Generator: Adobe Illustrator 17.0.0, SVG Export Plug-In . SVG Version: 6.00 Build 0)  -->
<!DOCTYPE svg PUBLIC "-//W3C//DTD SVG 1.1//EN" "http://www.w3.org/Graphics/SVG/1.1/DTD/svg11.dtd">
<svg version="1.1" id="Capa_1" xmlns="http://www.w3.org/2000/svg" xmlns:xlink="http://www.w3.org/1999/xlink" x="0px" y="0px"
	 width="200px" height="200px" viewBox="0 0 200 200" enable-background="new 0 0 200 200" preserveAspectRatio="fit">
<g>
	<path fill="#1D1D1B" stroke="#1D1D1B" stroke-miterlimit="10" d="M190.223,141.529c-0.171-2.98-1.513-5.46-3.885-7.244
		c-0.392-0.295-0.814-0.531-1.243-0.755c-1.669-1.683-3.687-2.996-5.649-3.653c-0.597-0.2-1.208-0.346-1.828-0.443
		c-3.391-6.715-8.989-12.014-15.154-16.311c-0.144-0.1-0.322-0.209-0.473-0.312c1.168-1.38,0.224-3.113-1.445-3.328
		c-0.952-0.122-1.909,0.241-2.836,0.745c-4.823-2.566-10.791-4.572-15.168-2.453c-0.03,0.015-0.039,0.051-0.068,0.067
		c-1.17-1.961-2.497-3.716-4.032-5.12c0.404-0.678,0.823-1.326,1.169-2.137c2.724-6.382,5.129-16.98,5.572-27.716
		c0.331,0.483,0.858,0.848,1.634,0.89c3.25,0.178,6.599,0.113,9.855,0.457c2.112,2.984,5.828,4.514,9.538,4.18
		c4.563-0.411,8.893-3.088,10.14-7.701c1.742-6.44-3.594-12.542-7.995-16.456c-1.602-1.425-3.579-0.926-4.728,0.276
		c-0.61-0.137-1.273-0.021-1.821,0.556c-1.32,1.389-2.675,3.067-3.848,4.889c-0.391-0.314-0.875-0.526-1.532-0.447
		c-3.679,0.441-7.028-0.907-10.517-1.905c-0.715-0.205-1.256,0.008-1.624,0.39c-1.761-9.645-6.098-17.646-14.645-20.256
		c-4.827-1.474-10.643-0.821-15.849-0.557c-0.09-1.386-1.308-2.538-2.639-2.591c-0.085-0.338-0.195-0.67-0.257-1.023
		c-0.444-2.536-0.509-5.129-0.864-7.678c-0.025-0.175-0.17-0.257-0.248-0.395c1.774-0.733,3.416-1.7,4.616-3.12
		c3.14-3.715,3.003-8.771,0.838-12.917c-2.264-4.335-7.257-6.766-12.035-6.39c-1.572,0.124-3.572,0.581-5.234,1.433
		c-4.702,0.437-8.794,4.286-9.297,9.182c-0.569,5.546,3.037,9.829,7.841,11.876c-0.019,0.056-0.057,0.088-0.073,0.149
		c-0.407,1.498-1.429,5.897-1.539,9.827c-1.674-0.258-3.343-0.506-4.998-0.699c-9.193-1.073-23.512-2.097-27.427,8.442
		c-0.342,0.921-0.265,1.719,0.06,2.371c-1.357,4.455-2.556,10.111-3.332,16.157c-2.48-0.128-5.195,0.32-7.564,0.429
		c-0.225,0.01-0.397,0.089-0.591,0.14c-1.796-4.141-5.287-7.628-9.849-5.249c-1.439,0.751-1.629,2.856-0.509,3.953
		c1.001,0.981,2.588,1.522,3.435,2.622c1.046,1.358,1.372,3.013,1.436,4.688c0.11,2.861-0.723,6.875-3.432,8.38
		c-0.982,0.545-2.428-0.528-3.202-1.047c-2.183-1.464-2.768-3.17-2.246-5.684c0.686-3.306,3.359-6.241,2.753-9.737
		c-0.136-0.783-0.904-0.842-1.447-0.519c-0.007-0.026-0.014-0.052-0.021-0.078c0.082-0.044-1.22,0.352-1.529,0.512
		c-1.37,0.712-2.217,2.043-3.083,3.272c-1.938,2.752-3.298,6.312-3.159,9.705c0.272,6.675,8.794,12.287,14.927,9.557
		c2.855-1.271,4.743-3.852,5.887-6.797c2.281,0.684,5.168,1.034,7.35,0.473c0.312,12.17,3.386,23.779,11.858,29.418
		c-2.511,0.228-4.733,1.254-5.915,4.226c-0.166,0.418-0.289,0.88-0.44,1.313c-5.85-1.643-14.883,5.809-18.563,8.76
		c-6.868,5.508-13.331,13.283-15.507,22.03c-5.217-1.213-11.218-1.382-15.673,1.433c-7.203,4.551-3.896,13.784,0.562,18.995
		c1.425,1.666,4.395,0.128,4.099-1.899c2.787,1.54,5.943-1.09,4.479-4.28c-0.084-0.182-0.126-0.351-0.189-0.518
		c0.248-0.143,0.47-0.307,0.389-0.319c2.325-0.822,4.818-0.682,7.07-0.184c1.808,0.399,2.163,0.565,3.415,1.272
		c1.1,0.621,1.476,0.994,2.032,2.017c-0.137-0.252,0.24,1.121,0.174,0.513c0.039,0.358,0.025,0.719,0.012,1.078
		c-0.019,0.521,0.051-0.058-0.192,0.888c-0.568,2.208-2.316,3.953-2.14,6.596c0.019,0.285,0.137,0.529,0.217,0.791
		c-1.233,0.942-1.644,2.412-1.372,3.939c0.116,0.652,0.471,1.219,0.964,1.654c1.269,1.118,3.023,1.485,4.541,0.586
		c6.444-3.814,13.69-10.35,10.939-18.682c-0.734-2.222-2.027-4.117-3.622-5.765c2.02-5.013,5.561-8.958,9.789-12.496
		c1.39-1.164,3.296-2.267,5.226-3.431c0.07-0.006,0.134-0.037,0.203-0.048c-0.053,2.344-0.082,4.639-0.086,6.765
		c-0.017,7.517,3.515,11.775,8.544,14.267c-1.039,1.895-1.509,4.335-1.913,6.207c-0.811,3.749-1.26,7.884-0.837,11.706
		c0.003,0.025,0.018,0.044,0.021,0.068c-6.956,4.486-11.763,12.321-6.516,20.186c0.083,0.125,0.184,0.199,0.276,0.298
		c0.024,0.033,0.031,0.071,0.056,0.103c0.038,0.048,0.076,0.095,0.114,0.143c0.032,0.04,0.08,0.029,0.114,0.061
		c0.014,0.01,0.028,0.013,0.042,0.023c0.167,0.14,0.341,0.261,0.539,0.289c1.975,0.286,4.026,1.232,6.27,1.418
		c4.223,0.351,8.452,0.457,12.687,0.49c5.545,0.043,12.984,1.41,18.251-0.645c0.787-0.307,1.378-0.784,1.772-1.346
		c1.279-0.534,2.328-1.651,2.372-3.239c0.174-6.213-1.962-11.244-5.466-14.91c0.138-0.195,0.322-0.34,0.411-0.578
		c0.83-2.209,0.096-5.454-0.118-7.74c-0.256-2.732-0.535-5.495-0.567-8.241c3.216,0.377,6.75,0.908,10.462,1.411
		c-2.929,5.313-3.16,12.831-1.195,18.37c0.13,0.366,0.331,0.66,0.565,0.911c-0.629,0.727-1.266,1.449-1.767,2.284
		c-1.152,1.918-1.468,4.106-0.984,6.265c0.542,2.411,1.979,2.395,3.364,2.961c-0.476,1.776,0.354,3.854,2.621,3.555
		c6.803-0.896,13.473,0.111,20.263,0.512c4.449,0.263,9.856,0.996,12.585-3.255c0.846-1.318,0.351-2.77-0.662-3.691
		c0.315-0.536,0.535-1.13,0.522-1.826c-0.078-4.014-1.192-7.161-2.977-9.56c0.298-0.419,0.527-0.914,0.553-1.57
		c0.089-2.285,0.498-11.975-1.467-17.255c3.666-2.156,6.561-5.465,8.192-10.459c1.728-5.29,2.302-12.997,1.519-20.76
		c1.148,1.038,2.319,2.051,3.446,3.075c1.598,1.452,3.177,2.926,4.729,4.428c1.04,1.006,2.063,2.472,3.392,3.199
		c-1.401,2.163-2.268,4.626-2.172,7.263c0.217,5.995,5.47,10.023,11.116,10.624c0.638,0.068,1.098-0.255,1.457-0.682
		c0.159,0.053,0.318,0.13,0.476,0.177c2.76,0.811,5.478-3.169,2.977-5.114c-0.868-0.675-1.74-1.359-2.581-2.068
		c-0.907-0.765-1.224-1.186-1.557-1.735c-0.037-0.061-0.098-0.199-0.153-0.327c-0.049-0.152-0.085-0.307-0.122-0.462
		c0.09,0.204,0.086-0.311,0.022-0.349c0.012-0.041,0.021-0.083,0.033-0.124c-0.015,0.282,0.621-0.877,0.515-0.893
		c0.397-0.465,0.839-0.889,1.307-1.282c0.167-0.114,0.567-0.411,0.665-0.475c0.371-0.242,0.757-0.458,1.145-0.67
		c1.301-0.713,0.647-0.393,1.839-0.819c0.749-0.268,1.52-0.471,2.295-0.645c0.126-0.028,0.691-0.118,0.863-0.153
		c0.325-0.032,0.65-0.062,0.976-0.08c0.21-0.012,0.844,0.029,1.267,0.049c0.639,1.274,1.176,2.699,1.933,3.786
		c-0.219,1.429-0.072,3.093,0.773,4.29c0.718,1.017,1.808,1.577,3.067,1.248C189.508,148.871,190.406,144.696,190.223,141.529z
		 M161.334,66.02c0.507-2.38,1.631-4.584,2.819-6.713c1.904,1.776,3.672,3.65,4.926,5.955c0.361,0.664,0.58,1.237,0.81,2.305
		c0.019,0.087,0.023,0.086,0.032,0.113c-0.004,0.048-0.005,0.151,0.004,0.377c0.004,0.174,0.003,0.348-0.004,0.522
		c-0.001,0.077,0.004,0.053,0.005,0.095c-0.037,0.209-0.107,0.409-0.17,0.612c-0.043,0.056-0.263,0.573-0.361,0.729
		c-0.034,0.054-0.019,0.041-0.03,0.062c-0.04,0.041-0.054,0.05-0.144,0.15c-0.097,0.107-0.469,0.422-0.576,0.526
		c-0.18,0.121-0.36,0.242-0.547,0.351c-0.134,0.077-0.271,0.149-0.41,0.218c-0.052,0.027-0.029,0.018-0.06,0.035
		c-0.004,0.002-0.001,0-0.005,0.002c-0.304,0.118-1.432,0.361-1.614,0.429c-0.549,0.054-1.101,0.049-1.652,0.007
		c0.135-0.077-1.913-0.564-1.025-0.186c-0.171-0.073-0.331-0.168-0.493-0.258c-0.042-0.313-0.081-0.634-0.244-0.89
		c-0.204-0.321-0.441-0.616-0.688-0.905c-0.201-0.236-0.494-0.301-0.754-0.431c-0.11-0.33-0.015,0.17-0.059-0.599
		C161.036,67.528,161.169,66.796,161.334,66.02z M144.977,60.994c3.559,1.415,6.943,2.826,10.736,3.486
		c-0.544,1.564-0.812,3.17-0.756,4.769c-2.71,0.177-5.459,0.161-8.141,0.308c-0.726,0.04-1.241,0.358-1.577,0.793
		c0.036-3.213-0.081-6.415-0.47-9.488C144.844,60.903,144.894,60.961,144.977,60.994z M58.414,70.486
		c-0.538-0.003-1.085,0.131-1.579,0.463c-1.275,0.859-3.033,0.834-4.678,0.566c0.181-1.26,0.27-2.51,0.237-3.68
		c-0.004-0.135-0.042-0.292-0.051-0.431c2.007,0.141,4.202,0.454,6.278,0.424C58.558,68.718,58.453,69.591,58.414,70.486z
		 M41.498,147.044c-2.299-1.483-4.825-2.655-7.278-3.546c1.151-2.761,2.825-5.298,4.678-7.721c0.992,0.362,1.927,0.848,2.792,1.553
		c1.143,0.933,2.006,2.107,3.147,2.99C43.413,142.407,42.264,144.652,41.498,147.044z M49.963,134.451
		c-0.79,0.726-1.525,1.501-2.244,2.288c-1.114-1.276-2.697-2.284-4.048-3.192c-0.664-0.447-1.41-0.695-2.14-0.982
		c2.155-2.397,4.46-4.652,6.764-6.713c2.1,0.76,4.097,1.705,5.851,3.124c0.389,0.315,0.73,0.698,1.065,1.089
		C53.404,131.458,51.641,132.909,49.963,134.451z M61.164,125.712c-0.637,0.428-1.235,0.873-1.846,1.32
		c-0.576-0.45-1.176-0.875-1.761-1.287c-1.699-1.194-3.651-2.041-5.656-2.684c2.149-1.546,4.383-2.969,6.761-4.141
		c1.089-0.537,2.312-0.795,3.499-1.101C61.681,120.367,61.39,123.033,61.164,125.712z M94.736,14.843
		C94.633,13.04,95.4,11.612,96.5,10.38c1.118,0.479,2.607,0.536,3.775,0.144c3.865-1.296,8.099-1.281,9.722,3.254
		c1.722,4.811-3.216,6.551-7.115,6.653C99.347,20.524,94.969,18.909,94.736,14.843z M106.662,26.432
		c-0.456,3.464-0.687,7.148-0.498,10.639c-1.894-0.165-3.791-0.397-5.689-0.676c-0.025-0.513-0.011-1.032-0.029-1.483
		c-0.106-2.643,0.126-5.331,0.638-7.922c0.018-0.089-0.008-0.162,0.001-0.248C102.911,26.944,104.812,26.786,106.662,26.432z
		 M68.164,46.697c0.028-0.023,0.064-0.03,0.092-0.054c11.693-9.883,38.533-0.9,53.212-1.239
		c21.925-0.507,15.071,38.635,10.725,52.053c-3.032,9.361-44.722,5.015-52.88,3.893C60.216,98.722,66.015,61.864,68.164,46.697z
		 M80.025,188.622c-4.761,0.037-11.41-0.681-16.429,0.852c0.308-7.275,6.894-11.324,14.008-12.66
		c9.533-1.79,14.509,3.844,16.759,11.54C89.698,187.784,84.303,188.589,80.025,188.622z M90.869,167.962
		c0.211,1.242,0.363,2.721,0.622,4.166c-4.589-2.382-10.16-3.286-15.848-2.426c-1.515,0.229-3.073,0.678-4.613,1.278
		c0.337-2.328,0.709-4.643,1.303-6.947c0.571-2.212,2.047-4.398,2.737-6.605c4.797,1.142,10.123,1.435,14.876,1.674
		c-0.015,0.151-0.082,0.264-0.079,0.427C89.924,162.369,90.393,165.167,90.869,167.962z M109.644,189.47
		c-0.031-0.516-0.081-1.069-0.099-1.373c-0.053-0.906,0.75-1.837,1.291-2.462c2.082-2.405,5.344-4.065,8.266-5.174
		c6.999-2.656,15.316-2.415,15.667,6.673c0.008,0.216,0.057,0.445,0.1,0.673C126.504,187.361,117.258,186.882,109.644,189.47z
		 M110.939,176.496c0.111-4.587,0.684-8.649,2.588-13.092c0.232-0.541,0.312-1.061,0.312-1.559
		c6.283,0.616,12.629,0.752,18.136-0.534c0.153,0.628,0.323,1.239,0.461,1.785c0.838,3.314,1.337,6.751,1.664,10.177
		c-4.811-2.158-11.054-1.995-16.943,0.133C115.003,174.184,112.892,175.23,110.939,176.496z M103.863,151.848
		c-10.186-1.178-22.499,1.066-32.032-3.362c-4.174-1.939-4.964-11.557-3.776-20.895c0.051-0.118,0.139-0.223,0.183-0.345
		c0.158-0.433,0.149-0.851,0.046-1.241c1.274-8.383,4.086-16.172,7.461-17.48c0.055-0.021,0.084-0.082,0.135-0.112
		c0.466,0.134,0.874,0.338,1.364,0.445c13.039,2.854,27.227,1.067,40.476,1.145c5.399,0.032,10.434,0.04,14.548-1.739
		c6.636,7.84,7.628,21.559,7.59,31.185C139.78,159.126,116.231,153.279,103.863,151.848z M146.985,119.815
		c-0.521-2.268-1.128-4.492-1.919-6.564c2.292,0.874,4.63,1.555,6.949,2.386c-1.214,1.816-2.059,3.87-2.465,6.003
		c-0.038-0.029-0.076-0.057-0.114-0.086C148.65,120.947,147.824,120.354,146.985,119.815z M156.442,126.819
		c-0.429-0.299-0.83-0.582-1.159-0.831c-1.122-0.851-2.243-1.704-3.365-2.553c0.181-0.168,0.39-0.285,0.503-0.567
		c0.837-2.087,2.005-3.909,3.474-5.558c0.537,0.271,1.08,0.504,1.609,0.823c1.786,1.076,3.392,2.324,4.92,3.645
		c0.017,0.057,0.059,0.109,0.082,0.165c-0.008,0.006-0.03,0.023-0.036,0.028c-0.693,0.572-1.48,1.051-2.219,1.56
		C158.886,124.469,157.416,125.453,156.442,126.819z M165.05,132.913c-0.345,0.244-0.678,0.516-1.014,0.783
		c-0.846-1.677-2.625-3.259-4.442-4.633c2.189-1.135,4.512-2.239,6.522-3.619c1.365,1.555,2.653,3.178,3.789,4.931
		C168.144,131.019,166.482,131.9,165.05,132.913z"/>
	<path fill="#1D1D1B" stroke="#1D1D1B" stroke-miterlimit="10" d="M89.122,48.765c-1.095-0.589-2.117-0.397-2.848,0.174
		c-1.013-0.823-2.097-1.464-3.703-1.606c-2.983-0.264-6.207,1.006-8.403,2.965c-5.651,5.042-1.61,16.092,3.539,19.96
		c5.311,3.989,11.868,0.736,15.096-4.207C96.437,60.487,95.221,52.048,89.122,48.765z M87.68,62.574
		c-0.597,1.037-1.456,1.78-2.425,2.395c-0.033-0.51-0.191-0.939-0.419-1.315c-0.147-0.52-0.26-1.051-0.373-1.579
		c-0.212-0.985-0.413-1.964-0.449-2.773c-0.159-3.575-5.028-3.938-5.997-1.059c-0.309-1.38-0.205-2.742,0.815-3.844
		c1.196-1.291,2.804-1.599,4.417-2.057c0.537-0.153,1.296-0.512,2.034-0.777c0.081,0.473,0.248,0.947,0.614,1.381
		C88.429,55.952,89.803,58.883,87.68,62.574z"/>
	<path fill="#1D1D1B" stroke="#1D1D1B" stroke-miterlimit="10" d="M116.612,47.192c-2.288,0.071-2.989,2.491-1.902,3.972
		c-4.55,1.745-7.938,6.402-7.02,11.415c1.321,7.213,9.806,8.486,15.81,7.351C138.195,67.151,127.939,46.838,116.612,47.192z
		 M123.272,64.1c-0.564,0.295-1.265,0.488-2.007,0.622c0.021-0.891-0.022-1.793-0.022-2.675c0.537-4.058-6.518-4.312-6.518,0
		c0,0.5-0.016,1.006-0.026,1.512c-0.694-0.495-1.252-1.118-1.54-1.916c-1.176-3.258,1.782-6.286,4.367-7.643
		c0.463-0.243,0.727-0.596,0.839-0.982c2.262,0.958,4.147,2.171,5.662,4.518C125.513,59.838,125.989,62.679,123.272,64.1z"/>
	<path fill="#1D1D1B" stroke="#1D1D1B" stroke-miterlimit="10" d="M126.222,82.077c-13.852-1.126-27.858-0.713-41.565-3.369
		c-0.708-0.137-1.534-0.046-2.041,0.539c-0.006,0.039-0.013,0.078-0.019,0.116c-0.596-0.337-1.278,0.488-0.746,0.967
		c0.05,0.134,0.101,0.267,0.151,0.4c-0.013,0.419,0.159,0.775,0.375,1.096c-3.264,2.421-1.216,10.742-0.201,13.58
		c0.626,1.752,3.155,1.179,2.987-0.542c1.999-0.459,8.376-0.117,15.16,0.45c0.389,1.125,1.8,1.201,2.295,0.2
		c1.637,0.146,3.258,0.302,4.836,0.458c0.472,0.385,1.094,0.476,1.63,0.163c5.416,0.553,9.897,1.086,10.989,1.249
		c1.423,0.212,2.54-0.342,3.045-1.729c1.165-3.198,1.337-6.289,1.272-9.637c0.61-0.029,1.225-0.024,1.833-0.068
		C128.725,85.772,128.71,82.28,126.222,82.077z M84.732,92.1c-0.217-1.635-0.314-3.277-0.177-4.957
		c0.112-1.372,0.704-2.666,0.634-3.974c1.255,0.345,2.551,0.594,3.853,0.823c-0.388,2.293-0.134,4.928,0.069,7.049
		C87.347,91.273,85.829,91.61,84.732,92.1z M91.971,90.762c0.118-1.5,0.22-3.003,0.43-4.491c0.085-0.598,0.255-1.172,0.41-1.75
		c1.797,0.202,3.605,0.348,5.397,0.476c0.039,0.751,0.262,1.516,0.453,2.283c0.282,1.129,0.555,2.26,0.802,3.396
		C96.833,90.607,94.268,90.618,91.971,90.762z M102.53,87.422c-0.073-0.743-0.108-1.457-0.207-2.145
		c0.46,0.031,0.936,0.061,1.391,0.093c1.293,0.091,2.603,0.168,3.905,0.256c-0.002,0.664,0.07,1.363,0.108,2.15
		c0.055,1.119,0.062,2.236-0.025,3.34c-1.599-0.123-3.246-0.232-4.904-0.315C102.732,89.675,102.64,88.549,102.53,87.422z
		 M118.991,92.273c-1.909-0.249-4.727-0.57-7.912-0.864c0.157-0.731,0.328-1.455,0.433-2.212c0.15-1.087,0.405-2.222,0.413-3.295
		c2.617,0.14,5.241,0.24,7.856,0.244C119.681,88.24,119.5,90.27,118.991,92.273z"/>
	<path fill="#1D1D1B" stroke="#1D1D1B" stroke-miterlimit="10" d="M131.942,117.974c-0.459-1.086-1.879-1.692-2.973-1.706
		c-3.664-0.046-7.335-0.4-10.984-0.701c-1.732-0.143-3.495-0.423-5.234-0.393c-1.095,0.018-1.925,0.341-2.77,1.016
		c-0.4,0.32,0.467-0.263,1.059-0.203c0.018,0.045,0.036,0.089,0.055,0.133c-1.219-0.037-2.38,0.73-2.409,2.222
		c-0.026,1.322,0.667,2.163,1.677,2.731c-1.813,4.17-2.776,9.231-2.266,13.74c0.167,1.478,0.833,2.369,2.221,2.917
		c3.298,1.302,6.719,1.088,10.219,0.749c3.086-0.299,7.403-0.493,10.15-2.103c2.616-1.532,2.602-6.282,2.72-8.888
		C133.551,124.26,133.204,120.958,131.942,117.974z M113.492,132.029c-0.561-2.012-1.03-4.071-1.11-6.131
		c-0.056-1.445-0.096-2.808-0.409-4.185c1.23,0.332,2.607,0.475,3.79,0.581c3.538,0.316,7.099,0.611,10.656,0.749
		c0.513,2.342,0.477,5.399-0.105,7.597C122.271,131.758,117.646,132.447,113.492,132.029z"/>
</g>
</svg>
