<?xml version="1.0" encoding="iso-8859-1"?>
<!-- Generator: Adobe Illustrator 17.1.0, SVG Export Plug-In . SVG Version: 6.00 Build 0)  -->
<!DOCTYPE svg PUBLIC "-//W3C//DTD SVG 1.1//EN" "http://www.w3.org/Graphics/SVG/1.1/DTD/svg11.dtd">
<svg version="1.1" id="Capa_1" xmlns="http://www.w3.org/2000/svg" xmlns:xlink="http://www.w3.org/1999/xlink" x="0px" y="0px"
	 viewBox="0 0 212.237 212.237" style="enable-background:new 0 0 212.237 212.237;" xml:space="preserve">
<path d="M41.127,111.409l-22.962,22.962c-0.938,0.938-2.209,1.465-3.535,1.465s-2.599-0.527-3.536-1.465l-4.005-4.006
	c-1.952-1.953-1.952-5.118,0.001-7.07l22.961-22.962c0.938-0.938,2.209-1.465,3.535-1.465c0.572,0,1.128,0.116,1.658,0.303
	L132.95,1.465c1.951-1.953,5.119-1.953,7.07,0c1.953,1.952,1.953,5.118,0,7.07l-97.72,97.72c0.178,0.518,0.291,1.061,0.291,1.619
	C42.592,109.2,42.065,110.472,41.127,111.409z M205.148,70.482c-0.976,0.977-2.256,1.465-3.535,1.465s-2.56-0.488-3.535-1.465
	l-3.211-3.211l-1.561,1.823l3.081,3.081c1.953,1.952,1.953,5.118,0,7.07c-0.976,0.977-2.256,1.465-3.535,1.465
	s-2.56-0.488-3.535-1.465l-2.534-2.534l-2.051,2.395c-0.906,1.059-2.213,1.69-3.604,1.744c-0.064,0.003-0.129,0.004-0.193,0.004
	c-0.785,0-1.542-0.205-2.233-0.552l-31.426,31.426c9.555,14.392,8.99,32.892-2.374,44.256l-2.91,2.909
	c-1.494,1.494-3.766,1.889-5.676,0.983c-2.961-1.402-6.153-2.144-9.229-2.144c-4.578,0-8.743,1.643-11.728,4.627
	c-5.114,5.114-6.089,13.34-2.482,20.957c0.904,1.909,0.511,4.182-0.983,5.675l-10.572,10.572c-0.099,0.099-0.203,0.191-0.303,0.288
	c0.468,0.943,0.643,2.011,0.462,3.063c-0.228,1.33-0.984,2.513-2.097,3.277c-0.36,0.246-8.948,6.045-21.534,6.045
	c-0.001,0-0.001,0-0.001,0c-2.058,0-4.135-0.156-6.176-0.464c-15.829-2.39-24.391-12.678-24.747-13.115
	c-1.503-1.841-1.473-4.433-0.066-6.234c-11.311-14.678-11.357-34.657,0.654-46.667l10.572-10.572
	c1.494-1.494,3.768-1.888,5.675-0.983c2.963,1.402,6.154,2.144,9.23,2.144c4.579,0,8.744-1.644,11.728-4.626
	c5.114-5.116,6.089-13.343,2.482-20.957c-0.904-1.91-0.511-4.182,0.983-5.676l2.909-2.909c5.87-5.87,13.923-9.104,22.674-9.104
	c7.515,0,15.057,2.399,21.581,6.73l31.43-31.43c-0.375-0.746-0.583-1.572-0.55-2.423c0.054-1.392,0.686-2.698,1.744-3.604
	l2.395-2.051l-2.534-2.534c-1.953-1.952-1.953-5.118,0-7.07c1.951-1.953,5.119-1.953,7.07,0l3.081,3.081l1.823-1.561l-3.211-3.211
	c-1.953-1.952-1.953-5.118,0-7.07c1.951-1.953,5.119-1.953,7.07,0l3.758,3.758l2.284-1.956c1.982-1.697,4.941-1.585,6.787,0.263
	l6.589,6.589c1.848,1.847,1.962,4.804,0.263,6.787l-1.956,2.284l3.758,3.758C207.101,65.364,207.101,68.53,205.148,70.482z
	 M73.163,201.885c1.548,0.234,3.124,0.353,4.684,0.353c4.121,0,7.684-0.826,10.385-1.755c-3.292-2.951-8.279-6.395-14.23-7.191
	c-0.922-0.124-1.871-0.187-2.818-0.187c-4.714,0-8.983,1.537-12.088,3.084C62.23,198.413,66.976,200.951,73.163,201.885z"/>
<g>
</g>
<g>
</g>
<g>
</g>
<g>
</g>
<g>
</g>
<g>
</g>
<g>
</g>
<g>
</g>
<g>
</g>
<g>
</g>
<g>
</g>
<g>
</g>
<g>
</g>
<g>
</g>
<g>
</g>
</svg>
