<?xml version="1.0" encoding="iso-8859-1"?>
<!-- Generator: Adobe Illustrator 18.1.1, SVG Export Plug-In . SVG Version: 6.00 Build 0)  -->
<svg version="1.1" id="Capa_1" xmlns="http://www.w3.org/2000/svg" xmlns:xlink="http://www.w3.org/1999/xlink" x="0px" y="0px"
	 viewBox="0 0 473.47 473.47" style="enable-background:new 0 0 473.47 473.47;" xml:space="preserve">
<g>
	<g id="Layer_1_37_">
		<g>
			<path d="M347.473,231.232c24.613,2.881,46.898-14.738,49.779-39.354c2.877-24.609-14.74-46.896-39.355-49.775
				c-24.611-2.881-46.898,14.738-49.771,39.352C305.239,206.069,322.862,228.353,347.473,231.232z"/>
			<path d="M152.053,194.743l66.742-13.328l14.352,23.082l-51.998,49.445c8.029,2.029,15.74,5.049,22.908,9
				c3.438,1.895,6.66,4.084,9.775,6.199c5.018,3.408,9.74,6.688,14.42,7.973c3.701,1.016,8.551,1.074,8.859,1.092
				c6.592-0.057,12.4-1.891,18.328-5.756c15.418-10.053,34.342-20.467,57.813-21.498c1.732-0.076,3.482-0.115,5.203-0.115
				c7.529,0,14.891,0.74,21.932,2.174c-4.83-7.711-90.881-111.988-90.881-111.988l-2.268-2.713
				c-5.553-6.6-14.846-9.361-23.414-6.221l-81.037,29.723c-7.813,2.857-12.596,11.057-10.918,19.467
				C133.725,190.569,142.762,196.597,152.053,194.743z"/>
			<path d="M447.057,298.417c-11.047,4.953-19.281,6.973-28.426,6.973c-3.602,0-7.328-0.322-11.393-0.988
				c-13.539-2.414-23.189-10.232-32.523-17.793c-5.74-4.65-11.162-9.043-17.434-12.277c-11.352-5.885-25.004-8.994-39.492-8.994
				c-1.502,0-3.031,0.035-4.543,0.102c-19.809,0.869-35.871,9.682-50.281,19.076c-8.453,5.514-18.48,8.16-27.58,8.16
				c-2.744,0-8.33-0.602-11.955-1.648c-6.957-2.006-12.922-6.059-18.691-9.975c-2.963-2.014-5.762-3.914-8.59-5.473
				c-12.109-6.676-26.092-10.205-40.436-10.205h-0.291c-20.082,0.066-38.244,6.225-52.52,17.807
				c-19.879,16.133-32.998,20.666-36.738,21.305c0,0-3.137,0.82-9.873,0.82c-12.904,0-23.688-4.227-34.512-8.934
				c-7.604-3.307-14.77-5.205-21.779-5.758c1.359,0.785,2.66,1.605,3.922,2.471c5.494,3.83,10.016,8.486,14.387,12.988
				c2.34,2.408,4.549,4.684,6.896,6.844c9.189,8.453,28.154,18.445,49.982,18.445c11.076,0,21.793-2.408,31.85-7.16
				c2.959-1.398,5.84-3.063,8.889-4.824c5.059-2.92,10.314-5.863,16.137-7.824c7.348-2.476,18.754-1.656,18.754-1.656
				c11.826,0.756,20.682,6.344,27.076,11.127c19.48,14.572,37.859,21.449,57.84,21.643l1.018,0.006
				c13.748,0,26.326-2.65,37.387-7.875c5.152-2.436,10.057-6.018,15.252-9.813c9.756-7.127,19.846-14.498,32.84-15.008
				c0.773-0.031,1.559-0.047,2.357-0.047c7.115,0,17.828,1.236,28.461,7.125c12.799,7.113,28.283,14.381,46.148,14.381
				c2.596,0,5.246-0.152,7.875-0.449c16.445-1.861,30.344-7.924,41.313-18.02c2.352-2.164,4.566-4.447,6.91-6.863
				c5-5.15,10.168-10.477,16.697-14.521c0.49-0.305,0.982-0.6,1.479-0.887C465.579,291.4,457.219,293.86,447.057,298.417z"/>
		</g>
	</g>
</g>
<g>
</g>
<g>
</g>
<g>
</g>
<g>
</g>
<g>
</g>
<g>
</g>
<g>
</g>
<g>
</g>
<g>
</g>
<g>
</g>
<g>
</g>
<g>
</g>
<g>
</g>
<g>
</g>
<g>
</g>
</svg>
