<?xml version="1.0" encoding="iso-8859-1"?>
<!-- Generator: Adobe Illustrator 16.0.0, SVG Export Plug-In . SVG Version: 6.00 Build 0)  -->
<!DOCTYPE svg PUBLIC "-//W3C//DTD SVG 1.1//EN" "http://www.w3.org/Graphics/SVG/1.1/DTD/svg11.dtd">
<svg version="1.1" id="Capa_1" xmlns="http://www.w3.org/2000/svg" xmlns:xlink="http://www.w3.org/1999/xlink" x="0px" y="0px"
	 width="437.544px" height="437.544px" viewBox="0 0 437.544 437.544" style="enable-background:new 0 0 437.544 437.544;"
	 xml:space="preserve">
<g>
	<g>
		<path d="M372.18,164.796H194.204l20.041,49.802l2.028-0.032c5.665-0.092,11.435-0.136,17.282-0.136
			c55.788,0,112.613,4.456,168.886,13.261l4.291,0.677l-10.166-44.147C394.112,173.502,383.181,164.796,372.18,164.796z"/>
		<path d="M156.28,123.064l2.817-0.395l-4.831-45.442c-1.192-11.181-11.13-20.634-22.436-20.634c-0.008,0-0.016,0-0.022,0
			c-46.256,1.839-84.4,27.667-103.013,42.905c-7.786,6.366-14.13,20.542-14.13,31.613v40.358l4.488-2.795
			C39.708,155.941,84.863,133.089,156.28,123.064z"/>
		<path d="M14.666,221.218c0,3.867-0.597,8.644-1.671,13.405l-1.07,4.677l4.651-1.166c4.841-1.21,16.06-3.787,16.067-3.787
			l2.489-0.562l-0.212-2.545c-1.719-20.878,0.212-37.821,2.787-38.497c2.833,1.477,5.528,18.19,5.755,35.769l0.046,3.502
			l19.414-3.662l-0.329-2.745c-1.2-10.043-3.04-37.738,2.817-45.124c0.832-1.052,1.541-1.242,2.254-1.304
			c0.383,0,0.982,0.092,1.759,0.906c5.37,5.588,6.516,29.1,5.971,42.617l-0.14,3.542l24.711-3.599l-0.188-2.723
			c-1.92-28.048,0.739-53.006,5.789-53.415c4.953,0,11.587,23.734,14.182,50.784l0.285,2.929l21.983-2.128l-0.403-3.02
			c-2.503-19.127-4.208-52.217,1.901-59.665c0.751-0.92,1.373-1.062,1.897-1.092c6.424,0,15.184,24.98,20.836,59.388l0.431,2.615
			l2.649-0.15c8.247-0.471,16.673-0.886,25.409-1.176l4.458-0.158l-39.359-86.376l-2.186,0.307
			c-78.354,10.988-125.188,37.918-141.683,48.977l-1.302,0.87V221.218z"/>
		<path d="M9.325,246.044l-0.593,1.166c-0.323,0.622-0.646,1.259-0.952,1.764C3.415,255.95,0,269.496,0,279.839v38.76l3.633-0.874
			c5.184-1.234,18.645-4.171,18.657-4.171l2.473-0.537l-0.165-2.529c-1.18-18.138,0.413-35.938,2.863-37.397
			c2.314,1.443,4.972,14.876,5.392,34.854l0.083,3.466l3.41-0.646c4.462-0.841,12.854-2.336,12.854-2.336l2.747-0.484l-0.345-2.777
			c-1.691-13.613-2.553-37.502,2.331-43.697c0.706-0.89,1.289-1.058,1.859-1.11c0.336,0,0.802,0.085,1.461,0.773
			c5.105,5.306,6.231,28.257,5.747,41.478l-0.132,3.526l23.997-3.45l-0.203-2.754c-2.001-26.581,0.261-51.11,4.815-51.479
			c4.488,0,10.766,23.383,13.163,49.062l0.276,2.953l23.221-2.368l-0.331-2.962c-1.902-17.096-3.108-46.365,1.757-52.176
			c0.164-0.201,0.417-0.461,0.669-0.478c4.617,0,12.766,24.013,17.435,51.367l0.449,2.605l21.155-1.335l-0.315-3.058
			c-1.176-11.321-2.442-42.679,5.677-51.68c1.334-1.471,2.763-2.16,4.517-2.16c9.127,0,21.902,31.17,28.046,53.295l0.615,2.18
			l2.268-0.032c0,0,13.917-0.184,21.337-0.2h4.633l-34.149-72.841l-1.934,0.058c-97.078,2.721-164.773,18.407-189.375,25.022
			L9.325,246.044z"/>
		<path d="M237.146,299.279c-119.325-0.474-204.03,17.159-234.899,24.777l-2.24,0.553v35.803c0,11.317,9.213,20.522,20.524,20.522
			h6.406l-0.238-3.158c-1.575-21.504,0.605-34.323,2.342-35.357c2.661,1.663,5.189,18.298,5.408,35.61l0.038,2.905h18.554
			l-0.397-3.303c-1.504-12.591-2.112-34.836,2.689-40.88c0.773-0.974,1.424-1.158,1.843-1.193c0.42-0.041,0.854,0,1.491,0.589
			c5.258,4.877,6.42,28.188,5.925,41.729l-0.118,3.058h23.414l-0.223-3.143c-1.709-24.918,0.824-47.94,5.316-48.293
			c0.032,0,0.062,0,0.092,0c3.961,0,10.113,19.46,13.072,48.798l0.269,2.646h23.251l-0.345-3.258
			c-1.901-17.642-3.07-47.833,2.451-54.133c0.022,0,0.044,0,0.068,0c3.998,0,11.856,21.94,17.272,54.922l0.407,2.477h23.279
			l-0.38-3.282c-1.633-14.082-3.978-52.754,4.626-62.411c1.108-1.243,2.278-1.823,3.672-1.823c9.123,0,23.56,37.657,30.886,64.395
			l2.839-0.781l13.826,0.781c0.084,0.325,0.147,0.602,0.224,0.922l5.703-1.486c-5.827-22.462-10.299-48.65-8.091-53.651
			c5.814,2.713,24.445,30.544,39.016,55.859l0.846,1.479h20.506l-47.647-81.655L237.146,299.279z"/>
		<path d="M354.708,245.171c7.39,0,19.271,28.465,26.701,55.242l0.529,1.888l1.947,0.236c13.602,1.65,25.668,3.273,36.92,4.993
			l4.28,0.642l-16.936-73.625l-1.955-0.309c-57.635-9.277-115.723-13.972-172.664-13.972c-4.269,0-8.484,0.022-12.66,0.08
			l-4.304,0.054l29.431,73.128l1.964,0.016c5.138,0.064,10.363,0.169,15.617,0.293l3.871,0.092l-0.95-3.755
			c-4.953-19.568-7.59-42.559-2.364-49.796c0.981-1.354,2.164-2.04,4.172-2.168c11.385,0,21.211,33.317,24.733,54.309l0.381,2.332
			l2.36,0.128c0,0,10.167,0.545,15.733,0.898l4.079,0.244l-1.042-3.939c-5.029-19.016-8.527-42.311-4.312-48.53
			c0.629-0.925,1.227-1.118,2.012-1.194c7.449,0,19.34,27.607,26.737,53.556l0.562,1.956l18.454,1.627l-1.09-4.072
			c-4.124-15.296-8.933-42.149-4.232-49.127C353.345,245.431,353.95,245.247,354.708,245.171z"/>
		<path d="M426.497,314.331l-1.973-0.309c-56.608-8.793-113.67-13.714-169.602-14.604l-5.306-0.092l49.11,81.615h15.838l-0.95-3.679
			c-5.963-23.163-9.514-49.94-4.031-57.575c0.85-1.19,1.823-1.771,3.494-1.879c10.127,0,20.378,31.47,25.624,60.708l0.429,2.425
			h21.816l-0.91-3.651c-5.538-22.321-9.125-47.729-4.668-54.192c0.564-0.806,1.058-0.966,1.698-1.033
			c6.425,0,17.557,23.848,26.481,56.709l0.581,2.168h16.928l-0.781-3.571c-4.577-21.007-7.174-45.035-2.653-51.411
			c0.661-0.921,1.259-1.105,1.979-1.174c6.408,0,17.188,21.283,26.217,51.756l1.106,3.747l3.298-2.092
			c5.887-3.747,8.508-10.632,6.812-17.985L426.497,314.331z"/>
	</g>
</g>
<g>
</g>
<g>
</g>
<g>
</g>
<g>
</g>
<g>
</g>
<g>
</g>
<g>
</g>
<g>
</g>
<g>
</g>
<g>
</g>
<g>
</g>
<g>
</g>
<g>
</g>
<g>
</g>
<g>
</g>
</svg>
