<?xml version="1.0" encoding="iso-8859-1"?>
<!-- Generator: Adobe Illustrator 19.0.0, SVG Export Plug-In . SVG Version: 6.00 Build 0)  -->
<svg version="1.1" id="Layer_1" xmlns="http://www.w3.org/2000/svg" xmlns:xlink="http://www.w3.org/1999/xlink" x="0px" y="0px"
	 viewBox="0 0 322 322" style="enable-background:new 0 0 322 322;" xml:space="preserve">
<g id="XMLID_243_">
	<g>
		<g>
			<path d="M282.489,93.704C263.812,43.918,216.468,0,161.008,0C105.532,0,58.176,43.627,39.511,93.688
				C71.554,123.053,114.223,141,161.008,141C207.786,141,250.448,123.06,282.489,93.704z M186.008,77c5.523,0,10,4.477,10,10
				s-4.477,10-10,10s-10-4.477-10-10S180.485,77,186.008,77z M136.008,97c-5.523,0-10-4.477-10-10s4.477-10,10-10s10,4.477,10,10
				S141.532,97,136.008,97z"/>
			<path d="M236.008,175c0,11.028-8.972,20-20,20v-41.692c-17.48,5.006-35.932,7.692-55,7.692c-19.067,0-37.519-2.686-55-7.692V195
				c-11.028,0-20-8.972-20-20v-15h-30v15c0,27.57,22.43,50,50,50v6c0,11.028-8.972,20-20,20h-25v30h25
				c19.768,0,36.891-11.532,45-28.221V272c0,11.028-8.972,20-20,20v30c27.57,0,50-22.43,50-50c0,27.57,22.43,50,50,50v-30
				c-11.028,0-20-8.972-20-20v-19.221c8.109,16.689,25.232,28.221,45,28.221h25v-30h-25c-11.028,0-20-8.972-20-20v-6
				c27.57,0,50-22.43,50-50v-15h-30V175z"/>
		</g>
	</g>
</g>
<g>
</g>
<g>
</g>
<g>
</g>
<g>
</g>
<g>
</g>
<g>
</g>
<g>
</g>
<g>
</g>
<g>
</g>
<g>
</g>
<g>
</g>
<g>
</g>
<g>
</g>
<g>
</g>
<g>
</g>
</svg>
