<?xml version="1.0" encoding="iso-8859-1"?>
<!-- Generator: Adobe Illustrator 19.0.0, SVG Export Plug-In . SVG Version: 6.00 Build 0)  -->
<svg version="1.1" id="Layer_1" xmlns="http://www.w3.org/2000/svg" xmlns:xlink="http://www.w3.org/1999/xlink" x="0px" y="0px"
	 viewBox="0 0 376 376" style="enable-background:new 0 0 376 376;" xml:space="preserve">
<g id="XMLID_231_">
	<g>
		<path d="M318.333,200v-25h-30v25c0,11.028-8.972,20-20,20H268c-19.623,0-28.008-24.365-12.31-45.808
			c0.273-0.363,0.544-0.73,0.813-1.098c0.035-0.045,0.065-0.09,0.101-0.136l-0.002,0.001C269.945,154.644,278,130.921,278,105.001
			C278,47.011,237.706,0,188,0S98,47.011,98,105.001c0,25.921,8.055,49.643,21.398,67.958l-0.002-0.001
			c0.035,0.045,0.065,0.091,0.101,0.136c0.269,0.368,0.539,0.735,0.813,1.098C136.008,195.635,127.623,220,108,220h-0.334
			c-11.028,0-20-8.972-20-20v-25h-30v25c0,27.491,22.302,49.865,49.763,49.994c-2.108,8.783-10.008,15.339-19.429,15.339H63v30h25
			c19.768,0,36.89-11.533,45-28.221V285c0,11.028-8.972,20-20,20H88v30h25c19.768,0,36.89-11.532,45-28.221V326
			c0,11.028-8.972,20-20,20v30c27.57,0,50-22.43,50-50c0,27.57,22.43,50,50,50v-30c-11.028,0-20-8.972-20-20v-19.221
			C226.11,323.468,243.232,335,263,335h25v-30h-25c-11.028,0-20-8.972-20-20v-17.888c8.11,16.689,25.232,28.221,45,28.221h25v-30
			h-25c-9.421,0-17.321-6.556-19.429-15.339C296.033,249.865,318.333,227.491,318.333,200z M148,170.001c-5.523,0-10-4.477-10-10
			s4.477-10,10-10s10,4.477,10,10C158,165.524,153.523,170.001,148,170.001z M228,170.001c-5.523,0-10-4.477-10-10s4.477-10,10-10
			s10,4.477,10,10C238,165.524,233.523,170.001,228,170.001z"/>
	</g>
</g>
<g>
</g>
<g>
</g>
<g>
</g>
<g>
</g>
<g>
</g>
<g>
</g>
<g>
</g>
<g>
</g>
<g>
</g>
<g>
</g>
<g>
</g>
<g>
</g>
<g>
</g>
<g>
</g>
<g>
</g>
</svg>
