<?xml version="1.0" encoding="utf-8"?>
<!-- Generator: Adobe Illustrator 17.0.0, SVG Export Plug-In . SVG Version: 6.00 Build 0)  -->
<!DOCTYPE svg PUBLIC "-//W3C//DTD SVG 1.1//EN" "http://www.w3.org/Graphics/SVG/1.1/DTD/svg11.dtd">
<svg version="1.1" id="Layer_1" xmlns="http://www.w3.org/2000/svg" xmlns:xlink="http://www.w3.org/1999/xlink" x="0px" y="0px"
	 width="32px" height="32px" viewBox="0 0 32 32" enable-background="new 0 0 32 32" preserveAspectRatio="fit">
<g>
	<path d="M15.962,0.489c-8.419,0-15.27,6.851-15.27,15.27c0,7.268,5.107,13.363,11.921,14.896c-0.787-0.76-1.339-1.758-1.541-2.878
		c-4.739-1.935-8.088-6.591-8.088-12.018c0-5.245,3.129-9.77,7.617-11.813c-0.178,1.013,0.582,2.18,1.447,3.227
		c0.783,0.947,0.447,1.662-0.157,2.162c-0.19,0.157-0.262,0.416-0.18,0.649c0.082,0.232,0.3,0.389,0.546,0.393
		c7.777,0.116,9.668-4.306,10.098-5.904c3.928,2.233,6.583,6.454,6.583,11.286c0,5.139-3.003,9.59-7.346,11.691
		c-0.134,1.138-0.628,2.164-1.363,2.967c6.348-1.852,11.001-7.72,11.001-14.658C31.232,7.34,24.382,0.489,15.962,0.489z"/>
	<circle cx="11.891" cy="15.39" r="1.719"/>
	<circle cx="19.913" cy="15.39" r="1.719"/>
	<path d="M11.24,25.2c0.396-1.23,1.229-2.261,2.312-2.919c0.086-1.406,1.238-2.521,2.65-2.521c1.368,0,2.494,1.044,2.641,2.387
		c1.2,0.652,2.121,1.753,2.541,3.075c0.688-0.717,1.092-1.587,1.092-2.525c0-2.454-2.755-4.442-6.152-4.442
		c-3.398,0-6.153,1.988-6.153,4.442C10.171,23.626,10.566,24.486,11.24,25.2z"/>
	<path d="M16.9,25.039c-0.186-0.062-0.386-0.097-0.592-0.097c-0.225,0-0.439,0.042-0.639,0.114c0.178,0.046,0.147,0.054-0.038,0.013
		c-0.706,0.274-1.21,0.958-1.21,1.76c0,0.031,0.003,0.063,0.005,0.094c0.598,0.14,1.234,0.216,1.897,0.216
		c0.65,0,1.276-0.074,1.865-0.208c0.001-0.034,0.005-0.067,0.005-0.102C18.194,25.995,17.65,25.288,16.9,25.039z"/>
	<path d="M16.252,20.548c-0.959,0-1.779,0.59-2.121,1.425c0.665-0.3,1.401-0.471,2.178-0.471c0.722,0,1.41,0.147,2.038,0.408
		C17.989,21.109,17.187,20.548,16.252,20.548z"/>
	<path d="M16.309,22.077c-2.62,0-4.752,2.132-4.752,4.752c0,2.619,2.132,4.752,4.752,4.752c2.619,0,4.751-2.132,4.751-4.752
		C21.06,24.208,18.928,22.077,16.309,22.077z M16.309,29.288c-1.357,0-2.46-1.103-2.46-2.459c0-1.356,1.104-2.46,2.46-2.46
		c1.356,0,2.459,1.104,2.459,2.46C18.768,28.185,17.665,29.288,16.309,29.288z"/>
</g>
</svg>
