<?xml version="1.0" encoding="utf-8"?>
<!-- Generator: Adobe Illustrator 16.0.4, SVG Export Plug-In . SVG Version: 6.00 Build 0)  -->
<!DOCTYPE svg PUBLIC "-//W3C//DTD SVG 1.1//EN" "http://www.w3.org/Graphics/SVG/1.1/DTD/svg11.dtd">
<svg version="1.1" id="Layer_1" xmlns="http://www.w3.org/2000/svg" xmlns:xlink="http://www.w3.org/1999/xlink" x="0px" y="0px"
	 width="64px" height="64px" viewBox="0 0 64 64" enable-background="new 0 0 64 64" preserveAspectRatio="fit">
<g id="Your_Icon">
	<g>
		<path d="M42.597,33.318c2.845-3.4,4.72-6.678,5.945-9.679c0.417-1.023,0.984-2.641,1.24-3.616
			c0.132-0.504,0.272-1.104,0.401-1.781c0.031-0.144,0.052-0.276,0.079-0.421c0.031-0.182,0.062-0.369,0.091-0.56
			c0.323-2.009,0.372-3.749,0.308-5.127c-0.051-1.104-0.137-2.039-0.076-2.106c0.034-0.04,0.069-0.082,0.103-0.127
			c0.26-0.328,0.371-0.666,0.257-0.756c0,0-0.031-0.023-0.069-0.052c-0.038-0.029-0.009-0.316,0.064-0.642
			c0.074-0.325-0.151-0.499-0.504-0.387c-0.352,0.111-0.676,0.173-0.723,0.139L49.629,8.14c-0.118-0.086-0.418,0.11-0.674,0.437
			c-0.025,0.034-0.049,0.068-0.071,0.101c-0.038,0.057-0.962,0.158-2.046,0.373c-1.864,0.371-4.852,1.247-8.104,3.312
			c-5.269,3.252-8.603,7.804-10.137,10.26c-0.586,0.937-1.882,1.604-2.985,1.566c-8.864-0.302-12.659,5.92-14.028,9.151
			c-0.431,1.017,0.235,1.828,1.34,1.808c19.508-0.366,21.286,11.738,21.214,16.612c-0.017,1.104,0.677,1.646,1.623,1.076
			c7.09-4.275,6.622-12.355,5.966-16.062C41.533,35.685,41.888,34.166,42.597,33.318z M40.401,27.86
			c-1.206,1.327-3.238,1.676-4.88,0.729c-1.883-1.083-2.541-3.45-1.47-5.285c0.13-0.229,0.283-0.432,0.452-0.619
			c1.201-1.327,3.234-1.674,4.88-0.729c1.879,1.079,2.541,3.448,1.47,5.285C40.72,27.47,40.565,27.675,40.401,27.86z"/>
		<path d="M23.242,54.538c3.499-2.104,5.524-5.985,6.476-8.3c0.419-1.022-0.156-1.529-1.088-0.936
			c-3.669,2.335-5.629,5.996-6.536,8.208C21.675,54.533,22.295,55.107,23.242,54.538z"/>
		<path d="M16.278,55.306c5.342-2.946,8.215-9.14,9.377-12.271c0.385-1.036-0.196-1.536-1.144-0.968
			c-5.61,3.366-8.35,9.172-9.445,12.165C14.687,55.269,15.311,55.839,16.278,55.306z"/>
		<path d="M15.023,48.097c3.499-2.102,5.523-5.981,6.475-8.295c0.42-1.022-0.156-1.528-1.088-0.936
			c-3.667,2.333-5.628,5.992-6.535,8.204C13.455,48.092,14.076,48.666,15.023,48.097z"/>
	</g>
</g>
</svg>
