<?xml version="1.0" encoding="iso-8859-1"?>
<!-- Generator: Adobe Illustrator 18.0.0, SVG Export Plug-In . SVG Version: 6.00 Build 0)  -->
<!DOCTYPE svg PUBLIC "-//W3C//DTD SVG 1.1//EN" "http://www.w3.org/Graphics/SVG/1.1/DTD/svg11.dtd">
<svg version="1.1" id="Capa_1" xmlns="http://www.w3.org/2000/svg" xmlns:xlink="http://www.w3.org/1999/xlink" x="0px" y="0px"
	 viewBox="0 0 480 480" style="enable-background:new 0 0 480 480;" xml:space="preserve">
<g>
	<path d="M230,179.707v254.505h20V179.707c45.01-4.991,80.133-43.256,80.133-89.575C330.133,40.433,289.699,0,240,0
		s-90.133,40.433-90.133,90.132C149.867,136.451,184.99,174.716,230,179.707z M240,20c38.671,0,70.133,31.461,70.133,70.132
		S278.671,160.265,240,160.265s-70.133-31.461-70.133-70.132S201.329,20,240,20z"/>
	<path d="M365.717,404.791c-16.838-6.046-40.099-10.715-67.27-13.503l-2.041,19.896c23.91,2.453,44.551,6.41,59.691,11.443
		c17.093,5.682,20.737,10.548,21.354,11.61c-1.253,2.493-10.388,9.929-39.186,16.429C311.593,456.685,276.694,460,240,460
		s-71.593-3.315-98.267-9.335c-28.798-6.5-37.933-13.936-39.186-16.429c0.617-1.063,4.262-5.929,21.354-11.61
		c15.141-5.033,35.781-8.99,59.691-11.443l-2.041-19.896c-27.171,2.788-50.432,7.457-67.27,13.503
		c-21.111,7.581-31.816,17.479-31.816,29.421c0,15.267,16.635,26.723,50.854,35.024C161.936,476.177,199.821,480,240,480
		s78.064-3.823,106.679-10.764c34.22-8.301,50.854-19.757,50.854-35.024C397.533,422.27,386.828,412.371,365.717,404.791z"/>
</g>
<g>
</g>
<g>
</g>
<g>
</g>
<g>
</g>
<g>
</g>
<g>
</g>
<g>
</g>
<g>
</g>
<g>
</g>
<g>
</g>
<g>
</g>
<g>
</g>
<g>
</g>
<g>
</g>
<g>
</g>
</svg>
