<?xml version="1.0" encoding="iso-8859-1"?>
<!-- Generator: Adobe Illustrator 18.0.0, SVG Export Plug-In . SVG Version: 6.00 Build 0)  -->
<!DOCTYPE svg PUBLIC "-//W3C//DTD SVG 1.1//EN" "http://www.w3.org/Graphics/SVG/1.1/DTD/svg11.dtd">
<svg version="1.1" id="Capa_1" xmlns="http://www.w3.org/2000/svg" xmlns:xlink="http://www.w3.org/1999/xlink" x="0px" y="0px"
	 viewBox="0 0 84.994 92.051" style="enable-background:new 0 0 84.994 92.051;" xml:space="preserve">
<g>
	<path d="M67.339,37.498c1.047-3.907,1.732-7.414,2.092-10.721c0.074-0.679,0.132-1.359,0.174-2.033
		c4.359-0.52,8.189-3.358,11.177-8.32c2.475-4.109,3.516-8.263,3.559-8.438l0.653-2.65l-2.725-0.139
		C75.942,4.874,70.47,7.33,66.904,9.529c-0.763-1.299-1.704-2.424-2.783-3.32c-1.89-1.569-4.17-2.398-6.593-2.398
		c-1.765,0-3.5,0.428-5.065,1.244c0.019-1.053-0.296-2.101-0.922-2.977C50.612,0.777,49.101,0,47.502,0h-9.847
		c-1.6,0-3.11,0.777-4.04,2.079c-0.621,0.869-0.935,1.907-0.922,2.952c-1.553-0.8-3.27-1.219-5.017-1.219
		c-2.423,0-4.703,0.829-6.593,2.398c-1.077,0.894-2.017,2.018-2.779,3.314C15.072,7.555,9.36,4.859,2.725,5.197L0,5.335l0.653,2.65
		c0.044,0.177,1.098,4.385,3.608,8.52c3.033,4.997,6.918,7.814,11.34,8.263c0.042,0.667,0.099,1.338,0.173,2.009
		c0.36,3.308,1.045,6.815,2.092,10.721c0.291,1.087,0.776,2.073,1.244,3.026c0.211,0.429,0.414,0.842,0.582,1.233
		c-1.84,6.476-3.792,14.636-3.792,20.122c0,5.888,1.398,11.381,3.937,15.466c0.526,0.847,1.098,1.624,1.708,2.329
		c-0.055,0.912-0.07,2.368,0.2,3.944c0.641,3.733,2.53,6.358,5.465,7.592c1.343,0.565,2.665,0.84,4.041,0.84
		c2.17,0,4.042-0.688,5.853-1.354c1.764-0.649,3.43-1.261,5.372-1.261h0.104c1.942,0,3.609,0.613,5.373,1.261
		c1.811,0.666,3.683,1.354,5.853,1.354h0.001c1.375,0,2.697-0.275,4.041-0.84c2.934-1.234,4.824-3.859,5.465-7.592
		c0.25-1.454,0.256-2.806,0.212-3.723c0.685-0.763,1.322-1.614,1.904-2.551c2.539-4.085,3.937-9.578,3.937-15.466
		c0-5.511-1.969-13.721-3.817-20.21c0.161-0.365,0.349-0.748,0.544-1.145C66.563,39.57,67.047,38.585,67.339,37.498z M37.28,4.697
		c0.063-0.088,0.179-0.193,0.375-0.193h9.847c0.196,0,0.312,0.105,0.375,0.193c0.063,0.088,0.125,0.232,0.061,0.417L47.25,7.122
		c-1.51,0.441-3.173,0.791-4.648,0.791c-1.493,0-3.178-0.359-4.701-0.807l-0.682-1.992C37.155,4.929,37.217,4.785,37.28,4.697z
		 M56.103,87.059c-0.78,0.328-1.531,0.487-2.295,0.487h0c-1.368,0-2.726-0.499-4.299-1.077c-1.961-0.721-4.183-1.538-6.927-1.538
		h-0.104c-2.744,0-4.966,0.817-6.926,1.538c-1.573,0.578-2.931,1.077-4.299,1.077c-0.765,0-1.515-0.159-2.295-0.487
		c-1.593-0.67-2.343-2.199-2.682-3.72c1.697,0.802,3.535,1.219,5.465,1.219c3.067,0,6.046-0.602,8.387-1.695
		c0.977-0.456,1.75-0.953,2.359-1.462c0.643,0.516,1.461,1.018,2.497,1.479c2.397,1.066,5.512,1.678,8.546,1.678h0.001
		c1.841,0,3.6-0.381,5.231-1.113C58.41,84.931,57.658,86.405,56.103,87.059z M65.205,20.157l-0.025,2.376
		c-0.013,1.225-0.089,2.489-0.227,3.756c-0.283,2.603-0.788,5.355-1.534,8.37c-0.571-1.767-0.965-2.904-1.03-3.09
		c-0.409-1.175-1.693-1.795-2.868-1.386c-0.93,0.324-1.512,1.195-1.512,2.127c0,0.246,0.04,0.496,0.125,0.741
		c0.067,0.193,6.727,19.429,6.727,28.829c0,5.059-1.157,9.708-3.258,13.089c-0.197,0.317-0.398,0.613-0.601,0.893
		c-1.062,1.464-2.199,2.443-3.316,3.082c-1.503,0.861-2.968,1.109-4.158,1.109h0c-2.426,0-4.874-0.47-6.715-1.289
		c-0.721-0.321-1.207-0.632-1.531-0.895c-0.249-0.202-0.401-0.376-0.489-0.504v-4.128v-6.518c0-0.131-0.004-0.217-0.026-0.344
		c-0.035-0.275-0.397-3.723,2.863-6.158c0.208-0.155,0.41-0.308,0.607-0.458l-0.039,0.089c1.79,0.786,3.55,0.671,4.959-0.322
		c1.973-1.391,3.099-4.398,3.442-9.192c0.226-3.154,0.03-5.972,0.021-6.09c-0.08-1.127-0.983-2.02-2.11-2.088
		c-1.127-0.069-2.131,0.709-2.347,1.818c-1.546,7.942-2.349,8.989-7.229,12.634c-1.016,0.759-1.816,1.582-2.445,2.422
		c-0.629-0.84-1.429-1.663-2.445-2.422c-4.88-3.645-5.683-4.692-7.229-12.634c-0.216-1.109-1.219-1.886-2.347-1.818
		c-1.127,0.068-2.03,0.961-2.11,2.088c-0.008,0.118-0.204,2.936,0.021,6.09c0.343,4.794,1.469,7.801,3.442,9.192
		c1.408,0.993,3.169,1.107,4.959,0.322l-0.039-0.089c0.197,0.15,0.399,0.303,0.607,0.458c3.259,2.434,2.898,5.881,2.863,6.158
		c-0.022,0.127-0.026,0.213-0.026,0.344v6.488v3.941c0,0.168-0.163,0.414-0.479,0.694c-1.045,0.924-3.781,2.211-7.967,2.211
		c-1.222,0-2.736-0.264-4.283-1.183c-1.105-0.657-2.227-1.648-3.273-3.12c-0.175-0.247-0.349-0.507-0.52-0.782
		c-2.101-3.381-3.258-8.03-3.258-13.089c0-9.4,6.66-28.635,6.727-28.829c0.085-0.245,0.125-0.495,0.125-0.741
		c0-0.932-0.582-1.803-1.511-2.127c-1.174-0.409-2.458,0.211-2.868,1.386c-0.066,0.189-0.475,1.371-1.065,3.201
		c-0.761-3.058-1.274-5.846-1.561-8.481c-0.139-1.272-0.215-2.541-0.227-3.771L20,20.096l-2.414,0.201
		c-3.611,0.3-6.782-1.734-9.424-6.047c-0.954-1.557-1.672-3.154-2.179-4.459c5.836,0.649,10.459,3.791,11.892,4.867l2.429,1.825
		l1.04-2.855c0.035-0.096,0.07-0.192,0.107-0.288c1.746-4.533,4.935-5.023,6.225-5.023c1.206,0,2.39,0.341,3.424,0.985l0.104,0.065
		l0.111,0.053c0.255,0.122,6.29,2.998,11.288,2.998c4.998,0,11.033-2.875,11.288-2.998l0.111-0.053l0.104-0.065
		c1.034-0.645,2.218-0.985,3.424-0.985c1.29,0,4.479,0.49,6.225,5.023c0.019,0.05,0.059,0.144,0.1,0.24
		c0.013,0.03,0.027,0.061,0.037,0.086l1.032,2.774l2.405-1.769c2.283-1.679,6.546-4.279,11.684-4.874
		c-0.489,1.258-1.177,2.789-2.089,4.303c-2.62,4.35-5.765,6.439-9.347,6.209L65.205,20.157z"/>
	<path d="M33.776,17.421c-0.151,0-0.307,0.001-0.469,0.004c-1.287,0.021-2.941,0.113-4.326,0.642
		c-1.824,0.698-2.948,2.075-3.165,3.878c-0.203,1.694,0.427,3.416,1.73,4.727c1.182,1.189,2.819,1.962,4.611,2.177
		c0.336,0.04,0.678,0.061,1.017,0.061h0c1.635,0,3.21-0.47,4.435-1.325c1.46-1.018,2.32-2.532,2.36-4.155
		c0.04-1.619,0.081-3.293-1.167-4.572C37.569,17.595,35.658,17.421,33.776,17.421z M35.466,23.32
		c-0.011,0.437-0.978,1.086-2.292,1.086c-0.16,0-0.321-0.01-0.479-0.029c-1.486-0.178-2.496-1.147-2.406-1.894
		c0.003-0.029,0.007-0.048,0.01-0.059c0.107-0.099,0.658-0.455,3.081-0.495c0.137-0.002,0.268-0.003,0.396-0.003
		c0.923,0,1.427,0.062,1.688,0.115C35.489,22.393,35.475,22.95,35.466,23.32z"/>
	<path d="M56.077,18.067c-1.385-0.53-3.04-0.622-4.327-0.642c-0.162-0.003-0.318-0.004-0.469-0.004
		c-1.882,0-3.793,0.174-5.026,1.438c-1.248,1.279-1.207,2.953-1.167,4.572c0.04,1.623,0.9,3.137,2.36,4.155
		c1.225,0.854,2.8,1.325,4.435,1.325c0.339,0,0.681-0.021,1.017-0.061c1.792-0.215,3.429-0.988,4.611-2.177
		c1.303-1.31,1.933-3.033,1.73-4.727C59.025,20.142,57.901,18.765,56.077,18.067z M54.317,23.496
		c-0.464,0.466-1.176,0.787-1.954,0.881c-0.158,0.019-0.32,0.029-0.479,0.029c-1.314,0-2.281-0.649-2.292-1.086
		c-0.009-0.37-0.023-0.927,0.002-1.279c0.262-0.053,0.765-0.115,1.688-0.115c0.128,0,0.259,0.001,0.396,0.003
		c2.423,0.039,2.975,0.396,3.081,0.495c0.003,0.011,0.007,0.031,0.011,0.059C54.821,22.917,54.508,23.304,54.317,23.496z"/>
</g>
<g>
</g>
<g>
</g>
<g>
</g>
<g>
</g>
<g>
</g>
<g>
</g>
<g>
</g>
<g>
</g>
<g>
</g>
<g>
</g>
<g>
</g>
<g>
</g>
<g>
</g>
<g>
</g>
<g>
</g>
</svg>
