<?xml version="1.0" encoding="utf-8"?>
<!-- Generator: Adobe Illustrator 17.0.0, SVG Export Plug-In . SVG Version: 6.00 Build 0)  -->
<!DOCTYPE svg PUBLIC "-//W3C//DTD SVG 1.1//EN" "http://www.w3.org/Graphics/SVG/1.1/DTD/svg11.dtd">
<svg version="1.1" id="Capa_1" xmlns="http://www.w3.org/2000/svg" xmlns:xlink="http://www.w3.org/1999/xlink" x="0px" y="0px"
	 width="200px" height="200px" viewBox="0 0 200 200" enable-background="new 0 0 200 200" xml:space="preserve">
<g>
	<path d="M169.898,66.447c-0.238-1.282-1.391-1.881-2.538-1.846c-0.138-0.319-0.321-0.622-0.601-0.877
		c-4.481-4.069-10.633-6.445-15.412-10.3c-6.532-5.27-12.415-12.189-14.111-20.596c-0.337-1.669-2.207-1.965-3.425-1.258
		c-0.326-1.254-1.458-2.368-2.822-2.374c-9.787-0.044-21.556,9.757-28.759,15.556c-9.423,7.586-19.444,16.999-22.601,29.116
		c-0.05,0.194-0.019,0.353-0.038,0.534c-0.524-0.493-1.042-0.991-1.568-1.482c-1.209-1.126-2.874,0.434-2.064,1.691
		c-5.616-2.152-12.787-5.466-17.77-5.466c-4.522,0-10.147,7.543-13.153,10.305c-13.618,12.512-25.157,27.044-39.089,39.255
		c-1.528,1.339-1.214,4.361,0.676,5.243c11.147,5.203,22.847,8.602,34.53,12.366c1.397,0.45,2.908-0.29,3.649-1.485
		c4.09-6.596,9.06-12.457,14.335-18.067c-1.024,6.185,0.462,12.459,6.301,16.489c6.261,4.322,13.792,4.975,21.007,3.542
		c-2.222,1.89-4.36,3.884-6.482,5.876c-2.481,2.329-4.893,4.731-7.371,7.062c-1.841,1.731-4.383,3.037-4.78,5.693
		c-0.184,1.231,0.267,2.339,1.212,2.902c-0.034,0.188-0.104,0.356-0.096,0.565c0.195,5.262,0.896,10.537,1.571,15.754
		c0.462,3.569,0.159,11.177,3.638,13.341c1.74,1.082,3.564-0.072,4.247-1.728c0.098-0.238,0.138-0.528,0.193-0.805
		c7.095-0.354,16.729-11.668,21.137-15.582c4.85-4.308,9.608-8.724,14.262-13.244c3.043-2.956,6.815-5.968,9.061-9.687
		c0.361-0.295,0.597-0.713,0.665-1.24c0.159-0.33,0.337-0.653,0.469-0.995c0.383-0.987,0.085-1.828-0.511-2.428
		c-0.121-4.806-0.055-9.616-0.362-14.418c-0.249-3.905-0.584-8.868-3.992-11.144c13.04-0.377,24.395-6.961,33.656-15.977
		C160.857,93.049,172.077,78.204,169.898,66.447z M132.843,34.273c0.71,9.193,6.159,16.468,12.716,22.677
		c4.542,4.302,11.669,10.739,18.299,11.622c-0.674,1.656-1.215,3.373-1.774,5.09c-11.946-12.226-26.962-21.359-39.675-32.938
		C126.104,38.797,129.721,36.807,132.843,34.273z M120.195,41.887c11.337,13.022,25.8,24.793,39.38,35.175
		c0.387,0.296,0.778,0.371,1.154,0.353c-0.211,0.529-0.41,1.063-0.652,1.581c-0.203,0.433-0.433,0.851-0.649,1.277
		c-7.648-7.323-16.521-13.53-24.695-20.251c-5.952-4.894-13.318-10.072-18.377-16.125C117.627,43.21,118.912,42.549,120.195,41.887z
		 M78.41,80.224c0.952,0.094,1.594-0.36,1.931-1.009c5.753,5.987,11.639,11.848,17.764,17.453
		c5.815,5.32,12.376,11.495,19.62,15.147c-0.074,0.007-0.145,0.026-0.219,0.034c-2.595,0.245-3.082,3.427-1.329,4.542
		c-0.15,0.116-0.243,0.288-0.368,0.433c-16.113-14.131-34.792-25.447-51.113-39.446C69.718,78.167,75.601,79.947,78.41,80.224z
		 M56.878,77.946c0.897-0.78,2.519-1.006,4.49-0.924c0.048,0.083,0.092,0.166,0.174,0.243c16.934,15.84,35.497,30.885,54.001,44.89
		c0.605,2.761,1.667,5.598,2.019,8.305c-17.848-19.528-41.071-34.94-61.689-51.598C56.214,78.561,56.536,78.243,56.878,77.946z
		 M43.519,125.141c-0.985,1.383-2.418,2.166-4.129,2.535c-3.176-2.084-6.376-4.131-9.564-6.196c-2.444-1.582-4.902-3.142-7.349-4.72
		c-0.833-0.537-2.167-0.655-2.712-0.464c-0.138-0.092-0.276-0.198-0.416-0.231c-0.296-0.068-0.48,0.22-0.366,0.476
		c0.51,1.142,0.151,1.695,1.45,2.67c2.256,1.692,4.542,3.341,6.849,4.962c1.446,1.016,2.893,2.032,4.339,3.049
		c-5.915-1.398-12.605-4.585-17.47-6.993c4.34-3.968,8.508-8.102,12.609-12.305c2.854,3.9,6.184,7.441,9.743,10.702
		c1.901,1.742,4.686,4.529,7.545,5.834C43.879,124.692,43.686,124.907,43.519,125.141z M46.573,121.212
		c-0.305-0.166-0.634-0.334-1.007-0.525c-2.376-1.216-4.513-2.872-6.561-4.564c-3.739-3.088-6.982-6.691-10.283-10.225
		c0.559-0.579,1.11-1.167,1.668-1.748c2.413,1.766,5.804,3.35,6.968,4.085c2.606,1.644,5.225,3.267,7.847,4.884
		c1.311,0.808,3.008,2.146,4.5,0.862c2.833-2.437-5.614-5.662-6.687-6.226c-2.935-1.543-5.863-3.1-8.771-4.694
		c-0.618-0.339-1.24-0.67-1.862-1.002c2.515-2.633,5.029-5.264,7.543-7.904c0.042-0.044,0.086-0.085,0.128-0.129
		c2.875,3.054,5.794,6.072,8.775,9.015c2.204,2.176,4.911,5.348,7.976,6.851C53.248,113.532,49.753,117.257,46.573,121.212z
		 M62.669,103.976c-0.963,0.964-1.932,1.935-2.898,2.905c-6.393-4.361-12.118-9.541-17.802-14.771
		c1.81-1.858,3.666-3.664,5.524-5.469c5.423,5.863,11.333,11.278,17.494,16.401C64.207,102.991,63.389,103.255,62.669,103.976z
		 M70.212,129.707c-6.084-3.019-7.185-8.579-6.392-14.264c4.397,6.301,10.833,11.577,17.078,16.345
		C77.248,131.952,73.602,131.39,70.212,129.707z M64.46,112.166c0.106-0.423,0.218-0.844,0.337-1.262
		c0.795-0.804,1.591-1.608,2.39-2.41c0.903-0.907,1.089-1.967,0.832-2.911c2.867,2.321,5.766,4.597,8.677,6.834
		c6.478,4.977,12.562,10.12,18.522,15.381c-0.247,0.055-0.489,0.079-0.742,0.208c-2.313,1.181-4.799,2.129-7.349,2.808
		C79.351,124.659,70.815,120.103,64.46,112.166z M81.893,176.928c-1.33,1.159-2.636,2.084-3.674,3.154
		c-0.495-2.358-1.2-4.732-1.417-6.289c-0.151-1.085-0.285-2.176-0.425-3.264c0.553,0.6,1.102,1.205,1.658,1.803
		c1.235,1.329,2.558,3.197,4.101,4.38C82.055,176.783,81.976,176.857,81.893,176.928z M84.275,174.813
		c-1.048-1.403-2.697-2.583-3.91-3.709c-1.475-1.371-2.962-2.73-4.445-4.092c-0.355-2.758-0.73-5.513-1.209-8.248
		c2.058,2.109,4.025,4.319,6.019,6.469c2.081,2.245,4.162,5.088,6.939,6.566C86.535,172.802,85.405,173.806,84.275,174.813z
		 M89.979,169.748c-5.107-4.187-9.621-9.086-14.779-13.23c1.865-1.574,3.589-3.705,5.044-5.533c0.039,0.131,0.103,0.26,0.217,0.384
		c2.822,3.037,5.795,5.911,8.862,8.698c1.778,1.616,3.666,3.627,5.737,5.167C93.387,166.76,91.67,168.24,89.979,169.748z
		 M97.864,162.643c-1.814-1.511-3.971-2.752-5.801-4.111c-3.571-2.652-7.016-5.467-10.313-8.451c-0.187-0.17-0.39-0.232-0.585-0.24
		c0.271-0.331,0.53-0.641,0.776-0.919c1.128-1.272,2.246-2.563,3.373-3.848c2.731,2.582,5.426,5.203,8.257,7.678
		c2.316,2.025,5.13,4.762,8.133,6.341C100.431,160.286,99.145,161.462,97.864,162.643z M112.569,148.35
		c-3.108-2.516-6.066-5.209-9.193-7.702c-2.271-1.81-4.922-3.755-7.906-3.987c-0.524-0.041-1.035,0.317-1.297,0.744
		c-0.186,0.304-0.866,0.604-1.175,0.773c-0.545,0.297-0.064,1.107,0.483,0.828c0.587-0.3,1.585,0.604,2.204,0.827
		c1.934,0.697,3.529,2.129,5.081,3.425c3.092,2.581,5.916,5.467,8.933,8.135c-0.155,0.157-0.312,0.342-0.467,0.494
		c-1.506,1.478-3.039,2.926-4.566,4.382c-2.835-2.187-6.42-3.823-9.26-5.896c-2.988-2.181-5.917-4.439-8.892-6.637
		c2.813-3.16,5.723-6.233,9.088-8.799c0.533-0.406,0.783-0.944,0.841-1.488c0.317-0.15,0.639-0.294,0.95-0.45
		c0.94-0.471,1.341-1.211,1.415-1.991c5.286,4.747,10.514,9.57,15.835,14.489c0.116,0.107,0.244,0.157,0.367,0.234
		C114.174,146.581,113.37,147.47,112.569,148.35z M118.055,143.05c-0.023-0.049-0.022-0.097-0.049-0.146
		c-6.136-11.297-18.465-19.434-28.471-27.101C76.08,105.494,62.092,96.024,49.464,84.705c1.533-1.457,3.12-2.86,4.693-4.278
		c20.211,18.531,40.513,38.024,62.374,54.441c0.509,0.382,1.013,0.42,1.458,0.271c0.194,2.458,0.397,4.915,0.771,7.347
		C118.515,142.648,118.294,142.871,118.055,143.05z M123.142,110.878c-0.082-0.175-0.2-0.339-0.36-0.481
		c-6.791-6.033-14.93-10.595-21.949-16.457c-6.087-5.084-11.801-10.581-17.544-16.046c1.152-0.124,2.247-0.82,2.739-2.263
		c0.687-2.015,1.609-3.914,2.625-5.761c6.631,7.743,13.244,15.488,20.298,22.859c4.777,4.991,11.586,13.274,18.731,16.788
		C126.193,110.042,124.685,110.514,123.142,110.878z M133.361,107.064c-6.964-5.956-14.813-10.763-21.606-17.14
		c-7.567-7.105-14.807-14.58-21.944-22.123c1.172-1.866,2.491-3.646,3.916-5.352c0.074,0.108,0.154,0.214,0.272,0.303
		c9.669,7.33,18.415,15.62,26.993,24.177c5.678,5.665,11.206,12.02,17.567,17.048C136.88,105.099,135.155,106.15,133.361,107.064z
		 M142.285,101.294c-6.738-6.669-14.234-12.79-21.174-19.223c-8.222-7.622-16.576-15.047-25.897-21.304
		c1.424-1.579,2.949-3.072,4.508-4.527c10.895,7.022,20.805,17.756,29.494,27.269c1.372,1.502,9.66,12.198,15.536,15.623
		C143.938,99.861,143.141,100.613,142.285,101.294z M147.586,96.425c-2.229-1.2-9.743-9.912-10.753-10.961
		c-4.44-4.606-8.697-9.401-13.397-13.747c-4.797-4.436-9.888-8.557-15.006-12.612c-1.982-1.57-4.18-3.757-6.655-4.76
		c2.246-1.976,4.566-3.842,6.869-5.611c2.005-1.54,4.172-2.874,6.401-4.122c3.304,6.764,9.614,11.688,15.198,16.687
		c8.486,7.6,17.243,15.121,26.117,22.262c0.312,0.251,0.642,0.389,0.972,0.469c-1.029,1.66-2.144,3.269-3.314,4.835
		c0.023-0.185,0.078-0.356,0.036-0.568c-0.572-2.891-3.54-4.932-5.59-6.763c-4.782-4.27-9.727-8.362-14.637-12.483
		c-7.584-6.367-17.349-12.649-23.821-20.026c-0.617-0.704-1.868,0.247-1.304,1.006c5.756,7.762,13.631,14.015,20.934,20.483
		c4.526,4.01,9.054,8.018,13.519,12.096c2.632,2.403,5.286,5.984,8.623,7.436c0.493,0.215,0.966,0.16,1.374-0.01
		c-1.014,1.305-2.057,2.584-3.134,3.826C149.246,94.754,148.408,95.582,147.586,96.425z"/>
	<path d="M188.566,11.583c-12.338,5.282-25.757,8.641-39.229,6.73c-2.083-0.296-3.518,1.251-3.807,2.855
		c-0.715,0.128-1.351,0.659-1.263,1.481c0.931,8.648,5.315,16.165,11.759,21.903c4.785,4.261,14.27,10.249,20.748,7.281
		c1.423-0.652,1.738-3.049,0.52-4.039c-0.284-0.231-0.569-0.373-0.853-0.554c5.279-10.504,10.671-20.921,16.842-30.939
		C195.281,13.059,191.493,10.33,188.566,11.583z M169.947,44.957c-3.137-0.967-6.012-2.697-8.688-4.553
		c-5.714-3.963-9.565-9.944-12.79-16.005c2.057,0.367,4.114,0.574,6.169,0.711c2.194,3.805,4.88,7.294,7.844,10.53
		c2.321,2.534,5.308,6.034,8.949,6.165c0.044,0.002,0.083-0.015,0.126-0.018C171.025,42.846,170.477,43.896,169.947,44.957z
		 M172.821,39.304c-0.069-0.098-0.135-0.196-0.236-0.28c-2.479-2.045-5.26-3.61-7.707-5.778c-2.704-2.394-5.179-5.09-7.348-7.99
		c2.31,0.041,4.613-0.073,6.908-0.28c0.851,1.867,2.02,3.591,3.268,5.214c1.753,2.28,3.812,5.238,6.197,7.013
		C173.545,37.905,173.177,38.601,172.821,39.304z M175.781,33.558c-1.521-1.663-3.488-3.12-5.001-4.671
		c-1.301-1.333-2.589-2.723-3.669-4.25c1.996-0.258,3.981-0.613,5.957-1.017c-0.112,0.29-0.124,0.63,0.026,0.983
		c0.922,2.157,1.981,5.044,3.741,6.944C176.486,32.218,176.128,32.885,175.781,33.558z M178.464,28.441
		c-0.19-0.232-0.382-0.463-0.562-0.706c-1.019-1.377-1.881-2.861-2.738-4.341c-0.044-0.076-0.101-0.116-0.151-0.177
		c2.496-0.573,4.972-1.257,7.418-2.058C181.07,23.565,179.758,25.998,178.464,28.441z"/>
	<path d="M24.483,121.113c0.062,0,0.062-0.096,0-0.096"/>
</g>
</svg>
