<?xml version="1.0" encoding="iso-8859-1"?>
<!-- Generator: Adobe Illustrator 19.0.0, SVG Export Plug-In . SVG Version: 6.00 Build 0)  -->
<svg version="1.1" id="Capa_1" xmlns="http://www.w3.org/2000/svg" xmlns:xlink="http://www.w3.org/1999/xlink" x="0px" y="0px"
	 viewBox="0 0 463 463" style="enable-background:new 0 0 463 463;" xml:space="preserve">
<path d="M439.5,67.999h-416c-12.958,0-23.5,10.542-23.5,23.5s10.542,23.5,23.5,23.5H80v130.234
	c-6.933,2.342-12.424,7.833-14.766,14.766H63.5c-8.547,0-15.5,6.953-15.5,15.5c0,8.492,2.703,16.36,7.281,22.808L41.26,319.339
	c-1.284,1.926-1.607,4.336-0.875,6.532l8,24c1.048,3.143,3.974,5.131,7.114,5.13c0.786,0,1.586-0.125,2.373-0.387
	c3.93-1.31,6.053-5.557,4.744-9.487l-6.84-20.52l10.533-15.8c6.129,3.913,13.397,6.192,21.192,6.192s15.063-2.279,21.192-6.192
	l10.533,15.8l-6.84,20.52c-1.31,3.929,0.814,8.177,4.744,9.487c0.787,0.262,1.586,0.387,2.373,0.387c3.14,0,6.066-1.988,7.114-5.13
	l8-24c0.732-2.196,0.409-4.606-0.875-6.532l-14.021-21.032c4.578-6.448,7.281-14.316,7.281-22.808c0-8.547-6.953-15.5-15.5-15.5
	h-1.734c-2.342-6.933-7.832-12.424-14.766-14.766V114.999h129v170.234c-6.933,2.342-12.424,7.833-14.766,14.766H207.5
	c-8.547,0-15.5,6.953-15.5,15.5c0,8.492,2.703,16.36,7.281,22.808l-14.021,21.032c-1.284,1.926-1.607,4.336-0.875,6.532l8,24
	c1.048,3.143,3.974,5.131,7.114,5.13c0.786,0,1.586-0.125,2.373-0.387c3.93-1.31,6.053-5.557,4.744-9.487l-6.84-20.52l10.533-15.8
	c6.129,3.913,13.397,6.192,21.192,6.192s15.063-2.279,21.192-6.192l10.533,15.8l-6.84,20.52c-1.31,3.929,0.814,8.177,4.744,9.487
	c0.787,0.262,1.586,0.387,2.373,0.387c3.14,0,6.066-1.988,7.114-5.13l8-24c0.732-2.196,0.409-4.606-0.875-6.532l-14.021-21.032
	c4.578-6.448,7.281-14.316,7.281-22.808c0-8.547-6.953-15.5-15.5-15.5h-1.734c-2.342-6.933-7.832-12.424-14.766-14.766V114.999h129
	v90.234c-6.933,2.342-12.424,7.833-14.766,14.766H351.5c-8.547,0-15.5,6.953-15.5,15.5c0,8.492,2.703,16.36,7.281,22.808
	l-14.021,21.032c-1.284,1.926-1.607,4.336-0.875,6.532l8,24c1.048,3.143,3.974,5.131,7.114,5.13c0.786,0,1.586-0.125,2.373-0.387
	c3.93-1.31,6.053-5.557,4.744-9.487l-6.84-20.52l10.533-15.8c6.129,3.913,13.397,6.192,21.192,6.192s15.063-2.279,21.192-6.192
	l10.533,15.8l-6.84,20.52c-1.31,3.929,0.814,8.177,4.744,9.487c0.787,0.262,1.586,0.387,2.373,0.387c3.14,0,6.066-1.988,7.114-5.13
	l8-24c0.732-2.196,0.409-4.606-0.875-6.532l-14.021-21.032c4.578-6.448,7.281-14.316,7.281-22.808c0-8.547-6.953-15.5-15.5-15.5
	h-1.734c-2.342-6.933-7.832-12.424-14.766-14.766v-90.234h56.5c12.958,0,23.5-10.542,23.5-23.5S452.458,67.999,439.5,67.999z
	 M112,275.499c0,13.509-10.991,24.5-24.5,24.5S63,289.008,63,275.499c0-0.276,0.224-0.5,0.5-0.5h1.734
	c3.138,9.29,11.93,16,22.266,16s19.128-6.71,22.266-16h1.734C111.776,274.999,112,275.223,112,275.499z M87.5,275.999
	c-4.687,0-8.5-3.813-8.5-8.5s3.813-8.5,8.5-8.5s8.5,3.813,8.5,8.5S92.187,275.999,87.5,275.999z M256,315.499
	c0,13.509-10.991,24.5-24.5,24.5s-24.5-10.991-24.5-24.5c0-0.276,0.224-0.5,0.5-0.5h1.734c3.138,9.29,11.93,16,22.266,16
	s19.128-6.71,22.266-16h1.734C255.776,314.999,256,315.223,256,315.499z M231.5,315.999c-4.687,0-8.5-3.813-8.5-8.5
	s3.813-8.5,8.5-8.5s8.5,3.813,8.5,8.5S236.187,315.999,231.5,315.999z M400,235.499c0,13.509-10.991,24.5-24.5,24.5
	s-24.5-10.991-24.5-24.5c0-0.276,0.224-0.5,0.5-0.5h1.734c3.138,9.29,11.93,16,22.266,16s19.128-6.71,22.266-16h1.734
	C399.776,234.999,400,235.223,400,235.499z M375.5,235.999c-4.687,0-8.5-3.813-8.5-8.5s3.813-8.5,8.5-8.5s8.5,3.813,8.5,8.5
	S380.187,235.999,375.5,235.999z M439.5,99.999H383v-0.5c0-4.142-3.358-7.5-7.5-7.5s-7.5,3.358-7.5,7.5v0.5H239v-0.5
	c0-4.142-3.358-7.5-7.5-7.5s-7.5,3.358-7.5,7.5v0.5H95v-0.5c0-4.142-3.358-7.5-7.5-7.5s-7.5,3.358-7.5,7.5v0.5H23.5
	c-4.687,0-8.5-3.813-8.5-8.5s3.813-8.5,8.5-8.5h416c4.687,0,8.5,3.813,8.5,8.5S444.187,99.999,439.5,99.999z"/>
<g>
</g>
<g>
</g>
<g>
</g>
<g>
</g>
<g>
</g>
<g>
</g>
<g>
</g>
<g>
</g>
<g>
</g>
<g>
</g>
<g>
</g>
<g>
</g>
<g>
</g>
<g>
</g>
<g>
</g>
</svg>
