<?xml version="1.0" encoding="iso-8859-1"?>
<!-- Generator: Adobe Illustrator 18.1.1, SVG Export Plug-In . SVG Version: 6.00 Build 0)  -->
<svg version="1.1" id="Capa_1" xmlns="http://www.w3.org/2000/svg" xmlns:xlink="http://www.w3.org/1999/xlink" x="0px" y="0px"
	 viewBox="0 0 498.363 498.363" style="enable-background:new 0 0 498.363 498.363;" xml:space="preserve">
<g>
	<g>
		<path style="fill:#010002;" d="M358.1,41.939l0.065-1.374c0.406-8.137-2.333-15.729-7.698-21.362
			c-7.161-7.519-18.314-10.778-29.954-8.681l-125.31,22.565c-6.218-7.608-15.038-12.063-24.556-12.063
			c-7.966,0-15.875,3.146-22.264,8.852L46.337,121.013c-7.657,6.844-11.925,16.33-11.689,26.044c0.057,2.552,0.471,5.064,1.13,7.519
			c-6.852,4.877-11.86,12.851-13.477,22.646L3.134,293.681l-1.382-0.041l0.927,2.772l-2.146,13.014
			c-1.731,10.543,0.805,20.736,6.942,27.97c3.585,4.227,8.21,7.056,13.355,8.624c21.809,52.746,67.101,142.445,122.945,142.445
			c8.234,0,16.379-1.935,24.215-5.747c32.742-15.948,29.84-91.536,24.117-140.852l0.203-0.008
			c17.371-0.593,34.238-15.778,38.416-34.579l1.325-5.991c7.039-1.244,13.599-4.032,18.964-8.234l36.424-28.564
			c4.926-3.869,8.624-8.868,11.274-14.355l14.542-1.788c16.42-2.016,30.214-13.68,34.742-28.027
			c27.06,7.657,65.37,16.753,94.917,16.753c0.008,0,0.008,0,0.016,0c23.605,0,38.846-5.755,46.585-17.59
			c8.714-13.339,11.006-28.369,6.812-44.675C482.785,122.208,399.833,66.893,358.1,41.939z M469.112,206.16
			c-1,1.536-5.861,6.552-26.174,6.552c-0.008,0-0.008,0-0.008,0c-28.1,0-66.679-9.592-92.471-17.062l6.267-126.017
			c44.813,28.003,106.289,73.555,116.003,111.28C475.176,190.431,473.99,198.69,469.112,206.16z M325.285,210.81
			c-0.041,0.821-0.26,1.666-0.561,2.528c-1.723,4.869-7.413,9.974-14.436,10.827l-7.6,0.935c-0.732-4.861-2.325-9.608-4.828-13.981
			L208.657,55.44l107.947-19.444l8.234-1.479c0.91-0.163,1.805-0.244,2.65-0.244c2.325,0,4.259,0.634,5.316,1.74
			c0.276,0.293,1.114,1.179,1.008,3.349l-0.13,2.577l-7.901,158.922L325.285,210.81z M272.393,245.324l-11.112,8.714l-22.687,17.793
			l-2.626,2.057c-2.861,2.243-6.942,3.39-11.112,3.56c-4.276,0.171-8.6-0.748-11.884-2.747c-0.528-0.325-1.089-0.618-1.561-1
			l-86.065-69.646l-33.612-27.198l-28.8-23.305c-0.984-0.797-1.74-1.691-2.357-2.617c-0.935-1.398-1.504-2.91-1.536-4.463
			c-0.065-2.577,1.195-5.154,3.552-7.259l102.03-91.146c1.227-1.097,2.504-1.74,3.788-2.154c0.748-0.244,1.504-0.504,2.243-0.504
			c2.674,0,5.121,1.691,6.869,4.739l1.301,2.268l7.104,12.404l90.78,158.41c0.845,1.479,1.366,3.13,1.683,4.845
			c0.764,4.194,0.024,8.795-2.065,12.534C275.303,242.438,273.994,244.064,272.393,245.324z M206.909,302.021
			c-1.91,8.633-9.722,15.298-15.428,15.493l-2.658,0.089l-12.323,0.423l-77.831,2.666l-60.891,2.081l-8.129,0.276l-0.219,11.299
			l-0.024,0.829l0,0v-0.87v-11.258c-1.447,0-2.512-0.455-3.333-1.422c-1.479-1.74-2.024-4.82-1.463-8.234l1.138-6.893l2-12.144
			l18.631-113.174c0.528-3.235,1.87-5.731,3.503-6.828l146.184,118.303c3.398,2.747,7.316,4.845,11.494,6.413L206.909,302.021z
			 M157.308,460.812c-4.544,2.211-8.974,3.284-13.534,3.284c-33.75,0-71.32-60.859-96.096-117.279l119.856-4.089
			C173.931,398.767,171.883,453.716,157.308,460.812z"/>
	</g>
</g>
<g>
</g>
<g>
</g>
<g>
</g>
<g>
</g>
<g>
</g>
<g>
</g>
<g>
</g>
<g>
</g>
<g>
</g>
<g>
</g>
<g>
</g>
<g>
</g>
<g>
</g>
<g>
</g>
<g>
</g>
</svg>
