<?xml version="1.0" encoding="iso-8859-1"?>
<!-- Generator: Adobe Illustrator 17.1.0, SVG Export Plug-In . SVG Version: 6.00 Build 0)  -->
<!DOCTYPE svg PUBLIC "-//W3C//DTD SVG 1.1//EN" "http://www.w3.org/Graphics/SVG/1.1/DTD/svg11.dtd">
<svg version="1.1" id="Capa_1" xmlns="http://www.w3.org/2000/svg" xmlns:xlink="http://www.w3.org/1999/xlink" x="0px" y="0px"
	 viewBox="0 0 200 200" style="enable-background:new 0 0 200 200;" xml:space="preserve">
<g>
	<path d="M154.174,101.513c-0.219-3.589-3.363-5.304-4.93-8.205c2.682-1.335,4.576-1.315,7.558-1.315
		c0-1.294-4.68-1.273-5.583-0.986c0,0.713-3.284,0.851-3.284,1.639c-2.177,0.713-6.57-1.426-6.57-3.61
		c-0.911,0-0.783-3.944-1.975-3.944c0-2.224-1.969-3.891-2.622-5.909c-0.543-0.277-4.602-5.521-4.602-6.243
		c0.713,0.324,0.926,0.572,1.969,0.658c0-0.289-3.725-3.938-3.282-3.938c0-0.966-0.986-1.997-0.986-2.957
		c-4.103-2.052-0.583-4.48,0-7.23c3.457,0.707,5.004,8.544,6.238,8.544c-0.01-0.947-0.308-5.259-1.637-5.259
		c-0.304-1.188-2.048-4.272-3.614-4.272c0-2.577,6.568-2.941,6.568-4.267c0.568,0,1.103-0.087,1.626-0.204
		c-0.402,1.292-0.632,2.386-0.115,3.279c0.051,0.088,0.149,0.094,0.2,0.007c0.044-0.074,0.078-0.152,0.106-0.237
		c0.032-0.096,0.085-0.103,0.13-0.012c0.239,0.487,0.792,1.592,1.433,2.084c0.08,0.062,0.162,0.022,0.176-0.078
		c0.009-0.064,0.017-0.138,0.023-0.233c0.006-0.101,0.056-0.118,0.121-0.04c0.434,0.514,1.174,1.118,1.635,1.325
		c0.092,0.042,0.194-0.018,0.205-0.119c0.004-0.035,0.007-0.073,0.009-0.112c0.004-0.101,0.06-0.129,0.143-0.071
		c0.453,0.322,1.515,0.888,1.999,1.015c0.098,0.026,0.224-0.046,0.252-0.143c0.136-0.481,0.19-1.683,0.142-2.237
		c-0.009-0.101,0.044-0.135,0.133-0.088c0.035,0.019,0.069,0.035,0.101,0.05c0.092,0.042,0.195-0.015,0.206-0.116
		c0.056-0.503-0.088-1.447-0.31-2.082c-0.033-0.096,0.006-0.13,0.096-0.084c0.084,0.043,0.152,0.073,0.212,0.098
		c0.094,0.039,0.17-0.011,0.157-0.111c-0.098-0.803-0.768-1.841-1.066-2.294c-0.056-0.085-0.022-0.128,0.077-0.106
		c0.09,0.02,0.173,0.03,0.258,0.03c0.101,0,0.146-0.087,0.096-0.176c-0.303-0.537-0.812-0.871-1.447-1.124
		c0.517-0.11,1.048-0.192,1.615-0.192c0-0.4,5.653-0.987,6.571-0.987c0.747,0.421,1.313,2.695,1.313,3.288
		c1.001,0,0.443,3.608,1.309,3.608c0.34,1.068-0.136,2.367,0.66,3.286c-0.479,0.82-1.115,1.32-1.313,2.301
		c1.06-0.126,0.958-0.298,1.646-0.656c0.503,1.205,0.347,2.45,1.528,3.158c-0.117-1.052-2.63-15.406-3.173-15.313
		c1.675-0.289,2.241-0.656,3.936-0.656c0.609,1.775,2.058,2.245,2.631,3.942c0.189,0.562,2.305,4.93,2.301,4.93
		c-0.049,1.55-0.426,2.071-0.656,3.28c0.966-0.258,0.951-0.738,1.639-1.315c0.455,0.83,0.904,1.971,1.647,1.971
		c-0.368-2.137-1.86-3.457-2.139-5.419c-0.081-0.575-0.817-2.795-1.147-2.795c-0.754-2.943-1.818-4.525-2.629-6.896
		c1.098-0.955,2.567-3.397,2.954-4.595c0.845,0,1.328-1.33,1.975-1.971c3.748,0,3.852,8.209,5.577,8.209
		c-0.077-4.068-1.799-6.46-3.606-9.195c4.07-1.83,2.742,1.396,5.907,2.301c-0.326-1.745-1.396-3.393-2.954-4.272
		c0.275-1.164,0.939-2.049,0.985-3.286c-1.185,0.319-1.26,1.258-1.969,1.971c0-1.769-3.35-0.289-4.6-0.656
		c0-1.098-7-0.996-8.343-0.977c-1.169,0.022-2.335,0.08-3.493,0.19c1.1-1.42,1.93-2.648,1.697-3.966
		c-0.022-0.122-0.131-0.169-0.226-0.091c-0.081,0.067-0.152,0.142-0.22,0.227c-0.077,0.097-0.141,0.082-0.154-0.04
		c-0.07-0.657-0.244-2.153-0.773-2.983c-0.066-0.104-0.176-0.093-0.234,0.017c-0.037,0.07-0.077,0.151-0.124,0.257
		c-0.049,0.113-0.113,0.111-0.156-0.004c-0.283-0.769-0.878-1.768-1.32-2.198c-0.089-0.086-0.229-0.06-0.284,0.051
		c-0.019,0.039-0.038,0.08-0.056,0.125c-0.047,0.114-0.123,0.123-0.193,0.021c-0.384-0.557-1.365-1.647-1.866-1.994
		c-0.101-0.07-0.276-0.041-0.348,0.059c-0.356,0.494-0.918,1.848-1.094,2.502c-0.032,0.119-0.107,0.137-0.189,0.045
		c-0.032-0.036-0.064-0.069-0.095-0.099c-0.089-0.086-0.23-0.064-0.284,0.047c-0.273,0.552-0.501,1.693-0.512,2.512
		c-0.002,0.123-0.061,0.146-0.145,0.056c-0.079-0.084-0.144-0.147-0.201-0.2c-0.091-0.084-0.198-0.059-0.226,0.062
		c-0.222,0.96,0.113,2.427,0.265,3.07c0.029,0.12-0.028,0.156-0.132,0.09c-0.095-0.06-0.186-0.106-0.283-0.142
		c-0.116-0.042-0.203,0.039-0.183,0.161c0.218,1.311,1.408,2.171,2.9,3.141c-0.49,0.118-0.977,0.244-1.462,0.391
		c-1.611,0-5.191,0.232-5.915,1.643c-2.097,0.702-3.988,3.286-5.908,3.286c-0.773,0.971-3.478,4.923-3.946,4.923
		c0,0.547-0.871,2.629-1.309,2.629c-0.622,2.443-2.503,3.286-3.289,5.581c-0.553,0-1.875,2.67-2.862,3.853
		c0.08-0.356,0.134-0.695,0.13-0.942c-0.001-0.116-0.112-0.192-0.222-0.155c-0.038,0.013-0.079,0.028-0.12,0.045
		c-0.107,0.044-0.163,0-0.142-0.114c0.115-0.625,0.187-2.001,0.085-2.564c-0.021-0.114-0.156-0.21-0.271-0.192
		c-0.134,0.022-0.309,0.069-0.503,0.131c1.174-1.587,1.979-3.019,1.71-4.541c-0.029-0.161-0.174-0.225-0.3-0.12
		c-0.107,0.089-0.202,0.188-0.292,0.301c-0.102,0.128-0.186,0.109-0.204-0.054c-0.093-0.871-0.323-2.853-1.025-3.954
		c-0.088-0.138-0.233-0.123-0.31,0.022c-0.049,0.092-0.103,0.2-0.164,0.341c-0.065,0.15-0.149,0.148-0.206-0.006
		c-0.375-1.019-1.164-2.344-1.75-2.913c-0.117-0.114-0.304-0.079-0.376,0.067c-0.025,0.051-0.051,0.107-0.075,0.165
		c-0.062,0.151-0.163,0.163-0.256,0.028c-0.509-0.739-1.809-2.183-2.473-2.643c-0.135-0.093-0.365-0.054-0.461,0.079
		c-0.472,0.654-1.217,2.45-1.451,3.316c-0.043,0.158-0.141,0.181-0.25,0.059c-0.043-0.048-0.085-0.092-0.126-0.132
		c-0.117-0.114-0.304-0.084-0.377,0.062c-0.362,0.732-0.664,2.244-0.679,3.329c-0.002,0.164-0.081,0.194-0.193,0.074
		c-0.104-0.112-0.19-0.195-0.267-0.265c-0.12-0.111-0.263-0.078-0.3,0.082c-0.294,1.272,0.149,3.217,0.352,4.069
		c0.038,0.159-0.037,0.206-0.175,0.119c-0.126-0.08-0.246-0.141-0.375-0.188c-0.154-0.056-0.269,0.052-0.243,0.214
		c0.33,1.985,2.337,3.19,4.706,4.724c-0.388,0.479-0.712,0.993-0.897,1.293c-0.061,0.099-0.122,0.085-0.147-0.028
		c-0.023-0.103-0.053-0.194-0.094-0.282c-0.049-0.105-0.161-0.109-0.229-0.014c-0.612,0.855-0.55,1.958-0.309,3.259
		c-0.865,1.575-1.48,3.372-2.243,4.993c-0.661,1.404-1.343,2.799-2.035,4.188c-0.781-2.401-1.509-4.357-3.203-5.108
		c-0.15-0.066-0.283,0.018-0.267,0.181c0.014,0.139,0.043,0.273,0.087,0.41c0.049,0.156-0.014,0.216-0.158,0.139
		c-0.774-0.409-2.547-1.326-3.852-1.359c-0.164-0.004-0.232,0.125-0.155,0.269c0.05,0.092,0.108,0.197,0.191,0.326
		c0.088,0.138,0.039,0.206-0.12,0.168c-1.055-0.258-2.594-0.344-3.394-0.177c-0.16,0.034-0.236,0.208-0.154,0.35
		c0.028,0.05,0.06,0.101,0.095,0.154c0.091,0.136,0.044,0.226-0.12,0.228c-0.897,0.009-2.821,0.281-3.574,0.574
		c-0.153,0.059-0.249,0.273-0.193,0.426c0.279,0.757,1.352,2.378,1.94,3.056c0.107,0.124,0.071,0.218-0.091,0.241
		c-0.063,0.009-0.124,0.019-0.18,0.031c-0.16,0.034-0.24,0.205-0.159,0.347c0.405,0.71,1.49,1.805,2.382,2.423
		c0.135,0.093,0.116,0.176-0.046,0.201c-0.151,0.024-0.268,0.049-0.369,0.073c-0.159,0.037-0.211,0.175-0.1,0.295
		c0.89,0.955,2.751,1.674,3.571,1.982c0.153,0.058,0.15,0.146,0,0.212c-0.137,0.06-0.254,0.125-0.365,0.206
		c-0.133,0.096-0.107,0.253,0.042,0.32c1.589,0.726,3.4,0.071,5.546-0.838c-0.712,1.335-1.433,2.666-2.173,3.985
		c-1.07,1.908-2.097,3.91-3.278,5.745c-0.316,0.491-2.528,2.816-2.435,3.266c0.202,0.968-4.709-2.792-5.115-3.177
		c-1.934-1.836-4.328-3.36-6.624-4.879c1.277,0.07,2.339-0.027,3.084-0.703c0.084-0.076,0.066-0.185-0.045-0.219
		c-0.094-0.03-0.189-0.048-0.291-0.059c-0.115-0.012-0.137-0.068-0.047-0.139c0.479-0.377,1.561-1.246,1.94-2.063
		c0.048-0.102-0.018-0.182-0.133-0.173c-0.074,0.006-0.158,0.014-0.265,0.031c-0.114,0.017-0.145-0.033-0.076-0.122
		c0.457-0.597,0.934-1.548,1.044-2.101c0.022-0.111-0.071-0.207-0.186-0.195c-0.04,0.004-0.083,0.01-0.127,0.018
		c-0.114,0.02-0.159-0.035-0.116-0.139c0.24-0.571,0.589-1.865,0.604-2.423c0.003-0.113-0.11-0.233-0.225-0.24
		c-0.57-0.033-1.919,0.197-2.522,0.382c-0.11,0.034-0.162-0.015-0.132-0.124c0.012-0.043,0.021-0.084,0.029-0.123
		c0.022-0.111-0.068-0.209-0.183-0.197c-0.573,0.06-1.583,0.443-2.231,0.838c-0.098,0.059-0.146,0.025-0.118-0.085
		c0.026-0.102,0.041-0.183,0.053-0.254c0.019-0.111-0.056-0.182-0.165-0.145c-0.866,0.299-1.844,1.279-2.269,1.713
		c-0.079,0.081-0.136,0.055-0.138-0.058c-0.002-0.103-0.012-0.196-0.034-0.288c-0.026-0.111-0.135-0.138-0.22-0.062
		c-1.017,0.903-0.982,2.457-0.97,4.337c-3.027-2.16-6.053-4.32-9.08-6.481c1.367-0.207,2.476-0.523,3.098-1.414
		c0.067-0.095,0.026-0.2-0.09-0.21c-0.098-0.009-0.195-0.007-0.297,0.005c-0.115,0.013-0.148-0.039-0.075-0.129
		c0.39-0.483,1.268-1.592,1.468-2.495c0.025-0.113-0.056-0.179-0.166-0.144c-0.071,0.022-0.151,0.049-0.253,0.089
		c-0.108,0.043-0.149-0.001-0.1-0.106c0.323-0.699,0.591-1.758,0.583-2.337c-0.002-0.116-0.112-0.192-0.222-0.155
		c-0.039,0.013-0.079,0.028-0.12,0.045c-0.107,0.045-0.163,0-0.142-0.114c0.115-0.625,0.187-2.001,0.085-2.564
		c-0.021-0.114-0.156-0.21-0.271-0.192c-0.564,0.091-1.838,0.618-2.389,0.935c-0.101,0.058-0.162,0.02-0.155-0.096
		c0.002-0.045,0.003-0.089,0.003-0.129c-0.001-0.116-0.11-0.195-0.22-0.158c-0.549,0.185-1.457,0.791-2.009,1.328
		c-0.083,0.081-0.138,0.057-0.134-0.059c0.004-0.108,0.002-0.193-0.001-0.267c-0.005-0.116-0.093-0.171-0.191-0.109
		c-0.785,0.49-1.537,1.687-1.863,2.215c-0.061,0.099-0.122,0.085-0.147-0.028c-0.023-0.103-0.053-0.194-0.094-0.282
		c-0.049-0.105-0.161-0.109-0.229-0.014c-0.63,0.88-0.545,2.022-0.288,3.374c-1.133-0.809-2.266-1.618-3.4-2.426
		c-5.914-4.221-12.204-9.298-11.834-17.175c0.091-2.907,0.185-5.813,0.275-8.726c0.07-2.214,1.562-2.437,2.022-4.414
		c-0.602,0.172-1.645,0.587-1.645,1.315c-0.985,0.626-2.537,0.343-3.616,0.328c0.115,0.37,0.33,0.628,0.33,0.987
		c0.909-0.439,1.379-0.142,2.301,0c-0.426,3.746-0.853,7.497-1.279,11.244c-0.211,1.85,0.483,3.259-1.713,3.174
		c-1.177-0.041-2.365-0.126-3.525-0.364c-1.967-0.4-3.384-0.915-4.981-0.915c-1.524-0.496-3.667-1.098-5.255-0.658
		c0,0.581-5.583,0.379-5.583,1.973c3.793-0.153,9.355-2.443,12.483,0.656c-2.441,1.132-6.245,4.55-6.245,6.896
		c1.639,0,1.971-2.952,2.959-2.952c-0.111,0.979-0.217,1.965-0.328,2.952c2.312,0,0.781-3.938,2.301-3.938
		c0.381-0.753,2.627-1.603,2.627-2.301c2.273,0,4.382,0.986,6.57,0.986c1.362,1.648,2.356,3.539,3.938,4.601
		c0,0.798,1.505,2.38,2.118,3.18c0.911,1.188,0.836,1.168,0.836,2.729c-1.884,0.394-4.58,2.958-5.908,2.958
		c-1.215,1.82-5.585,3.908-5.585,6.238c-1.507,1.209-2.454,3.51-3.944,4.272c0,1.618-2.988,4.742-0.985,6.24
		c0.617-1.973,0.871-4.753,2.63-5.915c0-0.547,0.539-1.639,1.316-1.639c0.106,1.639,0.217,3.288,0.324,4.925
		c-0.775,0-1.171,1.36-1.311,1.971c0.915-0.096,1.33-0.984,1.969-0.984c0.281,1.117,0.377,3.942,1.641,3.942
		c-0.008-1.541-0.192-4.387-1.311-5.581v-4.438c0-2.013,0.822-2.19,2.294-3.448c2.214-3.674,6.309-4.844,10.185-6.571
		c0.392,1.183,2.049,6.571,0.658,6.571c0,1.779-1.314,4.252-1.314,6.902c0.498,0,2.625-5.845,2.625-6.902
		c1.249,0.415,2.048,1.637,3.29,1.637c1.649,0.981,1.747,3.156,3.284,3.616c-0.345-1.119-0.99-2.377-0.99-3.282
		c-0.696,0-3.146-1.931-3.606-2.627c-1.743,0-1.954-3.842-1.976-5.253c2.455,0.668,5.19,3.295,7.245,4.742
		c2.973,2.094,5.858,4.312,8.645,6.648c3.077,2.578,6.035,5.299,8.861,8.151c1.268,1.279,7.11,5.963,7.11,7.723
		c0,0.562,1.388,3.604,1.641,3.604c-1.313,9.246-1.313,18.726-1.313,28.063c0,3.953-0.656,7.564-0.656,11.168
		c0,4.297-0.69,6.708-0.777,11.201c-0.074,3.887-2.041,9.007-0.992,12.895c0.962,3.569-1.07,5.947-1.197,9.627
		c-0.005,0.157-0.019,0.416-0.038,0.744c-1.715,3.092-2.506,6.458-1.416,9.957c-0.073,0.441-0.144,0.884-0.241,1.313
		c-0.439,0.856-1.266,2.201-2.341,2.697c-0.967,0.446-1.048,1.071-1.008,1.819c-0.785,0.716-1.333,1.656-1.612,2.7
		c-0.323,0.268-0.645,0.535-0.968,0.803c-0.974,0.299-2.146,0.574-3.413,0.929c-3.125,0.875-4,2.5-4,2.5
		c1.375-0.75,3.75-0.375,5.375,0.125s7.625,0.75,9.875,0.25s4.5-1.375,6.75-0.5s10.125-0.75,14.75-0.875S122,195.5,122,195.5
		c-0.25-0.875-0.5-1.5-2.625-2.25s-0.625-1.25-2.25-2.75c-0.477-0.44-0.954-0.86-1.398-1.24c-0.003-0.01,0-0.018-0.004-0.029
		c-0.877-2.571-1.97-5.022-3.253-7.362c-0.392-2.219-0.625-4.383-0.625-6.342c-0.404,0-1.385-7.75-0.985-9.195
		c0.864,0-1.54-10.334-1.64-11.921c-0.394-6.117-1.767-25.913-2.111-36.753c-0.192-5.93-0.373-11.859-0.564-17.785
		c1.032-3.099,2.061-6.198,3.095-9.291c2.193-6.562,6.873-13.088,11.541-18.102c-0.379,0.407,0.475,1.451,0.757,1.641
		c1.165-4.399,4.77-1.38,7.193,0.761c2.369,2.093,4.156,4.751,5.917,7.378c2.011,3,4.237,6.29,4.802,9.938
		c0.482,3.114-1.113,6.074-1.113,9.314c-0.79,0-0.385,8.543-1.317,8.543c0.253,0.896,0.076,0.743,0.985,0.986
		c0-1.011,1.145-8.214,1.313-8.214c0-2.635,0.573-4.98,1.535-7.882c1.441-4.336,3.953,1.76,5.036,2.301
		c0.724,3.274,1.769,5.576,2.629,9.195c-1.056,0,0.064,1.643-0.984,1.643c0.109,0.37,0.324,0.632,0.324,0.99
		c0.898,0,0.985-0.954,0.985-1.647c0.837,0.864,0.181,2.299,1.645,2.299c-0.407-3.553-1.962-6.835-2.628-10.181
		c-0.453-2.269-1.288-2.943-1.971-4.923c0.33,0.106,0.438,0,0.33-0.33c2.269,0.142,2.873,2.256,4.599,3.282
		c0.388,1.965,1.639,7.892,1.639,2.63C153.51,100.204,153.233,101.249,154.174,101.513z M168.626,37.465
		c-0.705,1.188-3.94,3.078-3.94,0.658C165.914,37.916,167.787,37.465,168.626,37.465z M141.593,54.501l-0.893-0.975
		c0.231-0.084,0.461-0.169,0.691-0.256l0.323,1.164C141.725,54.535,141.672,54.565,141.593,54.501z M163.043,39.766h-0.656
		c-0.226,1.162-2.316,5.585-3.614,5.585c0-1.754-1.317-2.365-1.317-3.942c-0.134,0-2.297-2.756-2.297-3.286
		C157.207,38.082,162.308,36.939,163.043,39.766z M149.512,33.842c0.027-0.12,0.102-0.132,0.165-0.027l0.859,2.076
		c-0.402,0.057-0.802,0.122-1.202,0.194L149.512,33.842z M149.244,41.081c1.675,0.332,2.393,0.9,3.008,2.528
		c0.398,1.066,0.834,3.71,1.922,3.71c-0.072-1.871-0.573-3.74-1.654-5.289c-0.513-0.737-2.948-2.284-2.948-2.922
		c1.584,0,3.071-1.158,4.27,0.658c1.192,0.394,1.643,1.324,1.977,2.627c0.692,0.466,2.186,3.944,2.292,3.944
		c-0.771,3.069-8.976,2.952-11.491,2.952c0.253-1.522,0.983-3.457,0.983-4.595C148.237,43.467,149.118,42.52,149.244,41.081z
		 M147.935,40.095c-0.083,0.788-0.302,3.614-1.315,3.614c0,0.562-0.775,0.592-0.986,1.309h0.656
		c-0.106,1.426-0.219,2.852-0.332,4.272c-1.441,0.026-2.871,0.198-4.282,0.481c-2.541,0.506-4.993,1.36-7.541,1.82
		C135.197,46.332,141.748,40.155,147.935,40.095z M73.681,70.332c-0.26-0.186-0.52-0.371-0.78-0.557l1.307-1.116
		c0.098-0.062,0.155-0.02,0.128,0.092L73.681,70.332z M87.525,77.717l-1.167,1.658c-0.108-0.076-0.219-0.15-0.325-0.226
		c-0.222-0.159-0.444-0.317-0.667-0.476l2.052-1.071C87.528,77.564,87.575,77.615,87.525,77.717z M108.862,73.812l-2.474-1.966
		c-0.112-0.119-0.07-0.21,0.093-0.202l3.164,0.643C109.387,72.796,109.126,73.305,108.862,73.812z M117.054,66.043
		c0.213-0.472,0.404-0.911,0.587-1.336c0.294-0.035,0.581-0.07,0.858-0.106C117.954,65.306,117.439,66.043,117.054,66.043z
		 M117.708,56.013l0.222-2.816c0.037-0.16,0.135-0.175,0.219-0.035l0.901,2.175C118.412,55.158,117.993,55.499,117.708,56.013z
		 M125.599,67.024c0.23-0.9,0.63-1.192,0.985-1.965c1.637,1.303,2.742,3.487,3.614,5.581
		C128.779,69.466,126.896,67.024,125.599,67.024z"/>
	<path d="M75.557,82.601c0.08,0.04,0.159,0.071,0.243,0.093c0.098,0.026,0.163-0.048,0.137-0.146
		c-0.364-1.36-1.968-2.003-3.794-2.951c-0.09-0.047-0.172-0.001-0.183,0.1l0.122,2.759c-0.011,0.101-0.07,0.118-0.132,0.038
		l-1.34-2.366c-0.062-0.08-0.157-0.076-0.21,0.011c-1.047,1.723-2.093,3.058-1.72,4.394c0.027,0.098,0.121,0.128,0.192,0.056
		c0.06-0.06,0.111-0.126,0.161-0.204c0.055-0.085,0.109-0.079,0.129,0.021c0.11,0.531,0.37,1.739,0.868,2.376
		c0.062,0.08,0.151,0.061,0.19-0.033c0.024-0.06,0.051-0.129,0.08-0.219c0.031-0.096,0.083-0.1,0.128-0.009
		c0.292,0.606,0.858,1.375,1.253,1.691c0.079,0.063,0.192,0.031,0.228-0.064c0.013-0.033,0.025-0.069,0.036-0.107
		c0.029-0.097,0.091-0.11,0.156-0.032c0.358,0.425,1.246,1.238,1.683,1.481c0.089,0.049,0.228,0.011,0.279-0.077
		c0.252-0.432,0.604-1.583,0.696-2.131c0.017-0.1,0.076-0.12,0.151-0.051c0.029,0.027,0.057,0.051,0.085,0.073
		c0.079,0.063,0.193,0.034,0.229-0.061c0.18-0.473,0.275-1.423,0.219-2.093c-0.009-0.101,0.038-0.124,0.114-0.057
		c0.071,0.063,0.13,0.109,0.181,0.148c0.081,0.061,0.167,0.032,0.18-0.069c0.105-0.802-0.285-1.974-0.46-2.487
		C75.423,82.588,75.466,82.555,75.557,82.601z"/>
	<path d="M69.831,89.532c0.08,0.04,0.159,0.071,0.243,0.093c0.098,0.026,0.163-0.048,0.137-0.146
		c-0.364-1.36-1.968-2.003-3.794-2.951c-0.09-0.047-0.172-0.001-0.183,0.1l0.122,2.759c-0.011,0.101-0.07,0.118-0.132,0.038
		l-1.34-2.366c-0.062-0.08-0.157-0.076-0.21,0.011c-1.047,1.723-2.093,3.058-1.72,4.394c0.027,0.098,0.121,0.128,0.192,0.056
		c0.06-0.06,0.111-0.126,0.161-0.204c0.055-0.085,0.109-0.079,0.129,0.021c0.11,0.531,0.37,1.739,0.868,2.376
		c0.062,0.08,0.151,0.061,0.19-0.033c0.024-0.06,0.051-0.129,0.08-0.219c0.031-0.096,0.083-0.1,0.128-0.009
		c0.292,0.606,0.858,1.375,1.253,1.691c0.079,0.063,0.192,0.031,0.228-0.064c0.013-0.033,0.025-0.069,0.036-0.107
		c0.029-0.097,0.091-0.11,0.156-0.032c0.358,0.425,1.246,1.238,1.683,1.481c0.089,0.049,0.229,0.011,0.28-0.077
		c0.252-0.432,0.604-1.583,0.696-2.131c0.017-0.1,0.076-0.12,0.151-0.051c0.029,0.027,0.057,0.051,0.085,0.073
		c0.079,0.063,0.193,0.034,0.229-0.061c0.18-0.473,0.275-1.423,0.219-2.093c-0.009-0.101,0.038-0.124,0.114-0.057
		c0.071,0.063,0.13,0.109,0.181,0.148c0.081,0.061,0.167,0.032,0.18-0.069c0.105-0.802-0.285-1.974-0.46-2.487
		C69.698,89.52,69.74,89.487,69.831,89.532z"/>
	<path d="M46.025,60.689c-0.012,0.101,0.064,0.15,0.157,0.111c0.059-0.025,0.127-0.055,0.212-0.098
		c0.09-0.046,0.13-0.012,0.096,0.084c-0.222,0.635-0.366,1.579-0.31,2.082c0.011,0.101,0.114,0.158,0.206,0.116
		c0.033-0.015,0.067-0.031,0.101-0.05c0.089-0.048,0.142-0.013,0.133,0.087c-0.047,0.554,0.006,1.757,0.142,2.237
		c0.028,0.098,0.154,0.169,0.252,0.143c0.484-0.127,1.546-0.693,1.999-1.015c0.083-0.059,0.139-0.031,0.143,0.071
		c0.002,0.039,0.005,0.077,0.009,0.112c0.011,0.101,0.112,0.16,0.205,0.119c0.461-0.208,1.201-0.812,1.635-1.325
		c0.065-0.077,0.115-0.061,0.121,0.04c0.006,0.095,0.015,0.169,0.023,0.233c0.014,0.1,0.095,0.14,0.176,0.078
		c0.641-0.492,1.195-1.597,1.434-2.084c0.044-0.091,0.098-0.084,0.13,0.012c0.028,0.085,0.063,0.163,0.106,0.237
		c0.051,0.087,0.149,0.081,0.2-0.007c0.704-1.219,0.025-2.808-0.596-4.77c-0.031-0.097-0.121-0.122-0.2-0.059l-1.865,2.036
		c-0.079,0.064-0.133,0.034-0.12-0.067l0.726-2.621c0.013-0.101-0.058-0.165-0.156-0.141c-1.959,0.478-3.642,0.682-4.323,1.89
		c-0.05,0.088-0.005,0.176,0.096,0.176c0.085,0,0.168-0.01,0.258-0.03c0.099-0.022,0.133,0.021,0.077,0.106
		C46.793,58.848,46.123,59.886,46.025,60.689z"/>
	<path d="M47.567,87.693l-1.865,2.036c-0.079,0.064-0.133,0.034-0.12-0.067l0.726-2.621c0.013-0.101-0.058-0.165-0.156-0.141
		c-1.959,0.478-3.642,0.682-4.323,1.89c-0.05,0.088-0.005,0.176,0.096,0.176c0.085,0,0.167-0.01,0.258-0.03
		c0.099-0.022,0.133,0.021,0.077,0.106c-0.298,0.453-0.968,1.492-1.066,2.294c-0.012,0.101,0.064,0.15,0.157,0.111
		c0.06-0.025,0.127-0.055,0.212-0.098c0.09-0.046,0.13-0.012,0.096,0.084c-0.222,0.635-0.366,1.579-0.31,2.082
		c0.011,0.101,0.114,0.158,0.206,0.116c0.033-0.015,0.067-0.031,0.102-0.05c0.089-0.048,0.142-0.013,0.133,0.088
		c-0.047,0.554,0.006,1.757,0.142,2.237c0.028,0.098,0.154,0.169,0.252,0.143c0.484-0.127,1.546-0.693,1.999-1.015
		c0.083-0.059,0.139-0.031,0.143,0.071c0.002,0.039,0.005,0.077,0.008,0.112c0.011,0.101,0.112,0.16,0.205,0.119
		c0.462-0.208,1.201-0.812,1.635-1.325c0.065-0.077,0.115-0.061,0.121,0.04c0.006,0.095,0.015,0.169,0.023,0.233
		c0.014,0.1,0.095,0.14,0.176,0.078c0.641-0.492,1.195-1.597,1.433-2.084c0.045-0.091,0.098-0.084,0.13,0.012
		c0.028,0.085,0.063,0.163,0.106,0.237c0.051,0.087,0.149,0.081,0.2-0.007c0.704-1.219,0.025-2.808-0.596-4.77
		C47.736,87.655,47.646,87.63,47.567,87.693z"/>
	<path d="M34.388,66.212c-0.044,0.084-0.075,0.152-0.101,0.211c-0.04,0.093,0.009,0.169,0.11,0.158
		c0.803-0.09,1.849-0.749,2.305-1.043c0.085-0.055,0.127-0.021,0.105,0.077c-0.02,0.087-0.031,0.172-0.032,0.258
		c-0.001,0.101,0.086,0.147,0.174,0.098c1.233-0.679,1.474-2.391,1.957-4.39c0.024-0.099-0.041-0.168-0.141-0.154l-2.649,0.779
		c-0.1,0.014-0.131-0.04-0.068-0.119l1.977-1.868c0.063-0.08,0.036-0.171-0.061-0.201c-1.924-0.604-3.47-1.3-4.678-0.618
		c-0.088,0.05-0.096,0.148-0.009,0.2c0.073,0.044,0.149,0.078,0.236,0.108c0.096,0.033,0.102,0.087,0.011,0.131
		c-0.49,0.234-1.6,0.776-2.099,1.412c-0.062,0.08-0.023,0.162,0.077,0.177c0.064,0.009,0.137,0.019,0.232,0.026
		c0.101,0.007,0.117,0.057,0.039,0.122c-0.518,0.429-1.13,1.162-1.342,1.621c-0.043,0.092,0.016,0.194,0.116,0.206
		c0.036,0.004,0.073,0.008,0.113,0.01c0.101,0.005,0.128,0.062,0.069,0.144c-0.327,0.45-0.903,1.507-1.035,1.989
		c-0.027,0.098,0.044,0.224,0.141,0.253c0.48,0.141,1.682,0.207,2.236,0.165c0.101-0.008,0.135,0.045,0.086,0.134
		c-0.019,0.035-0.036,0.068-0.051,0.1c-0.043,0.092,0.013,0.195,0.114,0.208c0.502,0.061,1.448-0.073,2.085-0.289
		C34.401,66.083,34.435,66.123,34.388,66.212z"/>
	<path d="M137.537,111.936l-1.865,2.036c-0.079,0.064-0.133,0.034-0.12-0.067l0.726-2.621c0.013-0.101-0.058-0.165-0.156-0.141
		c-1.959,0.478-3.642,0.682-4.323,1.89c-0.05,0.088-0.005,0.176,0.096,0.176c0.085,0,0.168-0.01,0.258-0.03
		c0.099-0.022,0.133,0.021,0.077,0.106c-0.298,0.453-0.968,1.492-1.066,2.294c-0.012,0.101,0.064,0.15,0.157,0.111
		c0.059-0.025,0.127-0.055,0.212-0.098c0.09-0.046,0.13-0.012,0.096,0.084c-0.221,0.635-0.365,1.579-0.31,2.082
		c0.011,0.101,0.114,0.158,0.206,0.116c0.032-0.015,0.066-0.031,0.101-0.05c0.089-0.048,0.142-0.013,0.133,0.088
		c-0.047,0.554,0.006,1.757,0.142,2.237c0.028,0.098,0.154,0.169,0.252,0.143c0.484-0.127,1.546-0.693,1.999-1.015
		c0.083-0.059,0.139-0.031,0.143,0.071c0.002,0.039,0.005,0.077,0.008,0.112c0.011,0.101,0.112,0.16,0.205,0.119
		c0.461-0.208,1.201-0.812,1.635-1.325c0.065-0.077,0.115-0.061,0.121,0.04c0.006,0.095,0.015,0.169,0.023,0.233
		c0.014,0.1,0.095,0.14,0.176,0.078c0.641-0.492,1.195-1.597,1.433-2.084c0.045-0.091,0.098-0.084,0.13,0.012
		c0.028,0.085,0.063,0.163,0.106,0.237c0.051,0.087,0.149,0.081,0.2-0.007c0.705-1.219,0.025-2.808-0.596-4.77
		C137.706,111.898,137.615,111.873,137.537,111.936z"/>
	<path d="M126.824,84.211c0.002,0.039,0.005,0.077,0.008,0.112c0.011,0.101,0.112,0.16,0.205,0.119
		c0.462-0.208,1.201-0.812,1.635-1.325c0.065-0.077,0.115-0.061,0.121,0.04c0.006,0.095,0.015,0.169,0.023,0.233
		c0.014,0.1,0.095,0.14,0.176,0.078c0.641-0.492,1.195-1.597,1.433-2.084c0.045-0.091,0.098-0.084,0.13,0.012
		c0.028,0.085,0.062,0.163,0.106,0.237c0.051,0.087,0.149,0.081,0.2-0.007c0.705-1.219,0.025-2.808-0.596-4.77
		c-0.031-0.097-0.121-0.122-0.2-0.059l-1.865,2.036c-0.079,0.064-0.133,0.034-0.12-0.067l0.726-2.621
		c0.012-0.101-0.058-0.165-0.156-0.141c-1.959,0.478-3.642,0.682-4.323,1.89c-0.05,0.088-0.005,0.176,0.096,0.176
		c0.085,0,0.168-0.01,0.258-0.03c0.099-0.022,0.133,0.021,0.077,0.106c-0.298,0.453-0.968,1.492-1.066,2.294
		c-0.012,0.101,0.064,0.15,0.157,0.111c0.06-0.025,0.127-0.055,0.212-0.098c0.09-0.046,0.13-0.012,0.096,0.084
		c-0.222,0.635-0.366,1.579-0.31,2.082c0.011,0.101,0.114,0.158,0.206,0.116c0.033-0.015,0.066-0.031,0.102-0.05
		c0.089-0.048,0.142-0.014,0.133,0.087c-0.047,0.554,0.006,1.757,0.142,2.237c0.028,0.098,0.154,0.169,0.252,0.143
		c0.484-0.127,1.546-0.693,1.999-1.015C126.764,84.082,126.82,84.11,126.824,84.211z"/>
	<path d="M150.399,111.131l-1.865,2.036c-0.079,0.064-0.133,0.034-0.12-0.067l0.726-2.621c0.013-0.101-0.058-0.165-0.156-0.141
		c-1.959,0.478-3.642,0.682-4.323,1.89c-0.05,0.088-0.005,0.176,0.096,0.176c0.085,0,0.168-0.01,0.258-0.03
		c0.099-0.022,0.133,0.021,0.077,0.106c-0.298,0.453-0.968,1.492-1.066,2.294c-0.012,0.101,0.064,0.15,0.157,0.111
		c0.059-0.025,0.127-0.055,0.212-0.098c0.09-0.046,0.13-0.012,0.096,0.084c-0.222,0.635-0.366,1.579-0.31,2.082
		c0.011,0.101,0.114,0.158,0.206,0.116c0.033-0.015,0.067-0.031,0.101-0.05c0.089-0.048,0.142-0.013,0.133,0.088
		c-0.047,0.554,0.006,1.757,0.142,2.237c0.028,0.098,0.154,0.169,0.252,0.143c0.484-0.127,1.546-0.693,1.999-1.015
		c0.083-0.059,0.139-0.031,0.143,0.071c0.002,0.039,0.005,0.077,0.009,0.112c0.011,0.101,0.112,0.16,0.205,0.119
		c0.461-0.208,1.201-0.812,1.635-1.325c0.065-0.077,0.115-0.061,0.121,0.04c0.006,0.095,0.015,0.169,0.023,0.233
		c0.014,0.1,0.095,0.14,0.176,0.078c0.641-0.492,1.195-1.597,1.434-2.084c0.044-0.091,0.098-0.084,0.13,0.012
		c0.028,0.085,0.063,0.163,0.106,0.237c0.051,0.087,0.149,0.081,0.2-0.007c0.704-1.219,0.025-2.808-0.596-4.77
		C150.569,111.093,150.478,111.068,150.399,111.131z"/>
	<path d="M151.106,72.442c0.462-0.208,1.201-0.812,1.635-1.325c0.065-0.077,0.115-0.061,0.121,0.04
		c0.006,0.095,0.015,0.169,0.023,0.233c0.014,0.1,0.095,0.14,0.176,0.078c0.641-0.492,1.195-1.597,1.433-2.084
		c0.045-0.091,0.098-0.084,0.13,0.012c0.028,0.085,0.063,0.163,0.106,0.237c0.051,0.087,0.149,0.081,0.2-0.007
		c0.705-1.219,0.025-2.808-0.596-4.77c-0.031-0.097-0.122-0.122-0.2-0.059l-1.865,2.036c-0.079,0.064-0.133,0.034-0.12-0.067
		l0.726-2.621c0.013-0.101-0.058-0.165-0.156-0.141c-1.959,0.478-3.642,0.682-4.323,1.89c-0.05,0.088-0.005,0.176,0.096,0.176
		c0.085,0,0.168-0.01,0.258-0.03c0.099-0.022,0.133,0.021,0.077,0.106c-0.298,0.453-0.968,1.492-1.066,2.294
		c-0.012,0.101,0.064,0.15,0.157,0.111c0.059-0.025,0.127-0.055,0.212-0.098c0.09-0.046,0.13-0.012,0.096,0.084
		c-0.222,0.635-0.366,1.579-0.31,2.082c0.011,0.101,0.114,0.158,0.206,0.116c0.032-0.015,0.066-0.031,0.101-0.05
		c0.089-0.048,0.142-0.014,0.133,0.087c-0.047,0.554,0.006,1.757,0.142,2.237c0.028,0.098,0.154,0.169,0.252,0.143
		c0.484-0.127,1.546-0.693,1.999-1.015c0.083-0.059,0.139-0.031,0.143,0.071c0.002,0.039,0.005,0.077,0.008,0.112
		C150.913,72.424,151.014,72.484,151.106,72.442z"/>
	<path d="M150.9,81.132c0.038-0.094-0.019-0.228-0.112-0.267c-0.461-0.194-1.648-0.393-2.204-0.413
		c-0.101-0.004-0.129-0.06-0.07-0.143c0.023-0.032,0.043-0.064,0.062-0.094c0.052-0.087,0.009-0.196-0.09-0.219
		c-0.492-0.116-1.447-0.088-2.104,0.055c-0.099,0.022-0.128-0.022-0.072-0.106c0.053-0.079,0.091-0.143,0.123-0.199
		c0.05-0.088,0.01-0.169-0.092-0.169c-0.808,0-1.92,0.539-2.406,0.78c-0.091,0.045-0.129,0.007-0.096-0.089
		c0.029-0.085,0.049-0.167,0.06-0.253c0.013-0.101-0.069-0.155-0.162-0.117c-1.301,0.537-1.73,2.212-2.432,4.146
		c-0.035,0.095,0.022,0.171,0.123,0.169l2.719-0.479c0.101-0.002,0.126,0.054,0.055,0.126l-2.172,1.636
		c-0.071,0.072-0.055,0.166,0.038,0.207c1.845,0.814,3.304,1.677,4.58,1.134c0.093-0.04,0.111-0.136,0.031-0.198
		c-0.068-0.052-0.139-0.094-0.223-0.133c-0.092-0.043-0.092-0.098,0.004-0.131c0.513-0.178,1.676-0.593,2.243-1.17
		c0.071-0.072,0.041-0.158-0.057-0.184c-0.062-0.016-0.134-0.034-0.227-0.051c-0.1-0.018-0.11-0.07-0.025-0.125
		c0.562-0.369,1.251-1.029,1.513-1.462c0.052-0.087,0.006-0.194-0.093-0.218c-0.035-0.008-0.072-0.016-0.111-0.022
		c-0.1-0.017-0.121-0.076-0.052-0.151C150.025,82.583,150.715,81.597,150.9,81.132z"/>
	<path d="M163.817,72.025c0.082,0.048,0.149,0.081,0.207,0.109c0.091,0.044,0.169-0.002,0.162-0.103
		c-0.057-0.807-0.673-1.878-0.947-2.346c-0.051-0.087-0.016-0.128,0.082-0.102c0.086,0.023,0.17,0.038,0.256,0.042
		c0.101,0.006,0.15-0.079,0.105-0.17c-0.627-1.26-2.328-1.571-4.306-2.136c-0.097-0.028-0.169,0.034-0.16,0.135l0.669,2.679
		c0.01,0.101-0.045,0.129-0.122,0.063l-1.785-2.052c-0.077-0.066-0.169-0.043-0.204,0.052c-0.683,1.897-1.442,3.413-0.81,4.648
		c0.046,0.09,0.144,0.102,0.199,0.017c0.047-0.071,0.084-0.145,0.117-0.232c0.037-0.094,0.091-0.099,0.131-0.005
		c0.213,0.499,0.709,1.631,1.324,2.155c0.077,0.066,0.161,0.03,0.18-0.07c0.012-0.063,0.024-0.136,0.035-0.23
		c0.011-0.101,0.062-0.115,0.123-0.034c0.407,0.535,1.115,1.176,1.565,1.407c0.09,0.046,0.194-0.008,0.21-0.108
		c0.006-0.035,0.011-0.073,0.014-0.112c0.01-0.101,0.067-0.126,0.146-0.063c0.436,0.345,1.468,0.964,1.944,1.116
		c0.097,0.031,0.226-0.035,0.259-0.131c0.161-0.474,0.276-1.672,0.257-2.227c-0.003-0.101,0.051-0.133,0.138-0.08
		c0.034,0.02,0.067,0.039,0.098,0.055c0.09,0.046,0.196-0.005,0.212-0.105c0.082-0.499-0.014-1.449-0.203-2.095
		C163.688,72.006,163.729,71.974,163.817,72.025z"/>
	<path d="M160.087,79.599c0.082,0.048,0.149,0.081,0.207,0.109c0.091,0.044,0.169-0.002,0.162-0.103
		c-0.057-0.807-0.672-1.878-0.947-2.346c-0.051-0.087-0.016-0.128,0.082-0.102c0.086,0.023,0.17,0.038,0.256,0.042
		c0.101,0.006,0.15-0.08,0.105-0.17c-0.627-1.26-2.328-1.571-4.306-2.136c-0.098-0.028-0.169,0.034-0.16,0.135l0.669,2.679
		c0.009,0.101-0.045,0.129-0.122,0.063l-1.785-2.052c-0.077-0.066-0.169-0.043-0.204,0.052c-0.683,1.897-1.442,3.413-0.81,4.648
		c0.046,0.09,0.144,0.102,0.199,0.017c0.047-0.071,0.084-0.145,0.117-0.232c0.037-0.095,0.091-0.099,0.131-0.005
		c0.213,0.499,0.709,1.631,1.324,2.155c0.077,0.066,0.161,0.03,0.18-0.07c0.012-0.063,0.024-0.136,0.035-0.231
		c0.011-0.101,0.062-0.115,0.123-0.034c0.407,0.535,1.115,1.176,1.565,1.407c0.09,0.046,0.194-0.008,0.21-0.108
		c0.006-0.035,0.011-0.073,0.014-0.112c0.01-0.101,0.067-0.126,0.146-0.063c0.436,0.345,1.468,0.964,1.944,1.116
		c0.096,0.031,0.226-0.035,0.259-0.131c0.161-0.474,0.276-1.672,0.257-2.227c-0.004-0.101,0.051-0.133,0.138-0.08
		c0.034,0.02,0.067,0.039,0.098,0.055c0.09,0.046,0.196-0.005,0.212-0.105c0.082-0.499-0.014-1.449-0.203-2.095
		C159.959,79.58,160,79.548,160.087,79.599z"/>
	<path d="M159.47,104.355c0.086,0.023,0.17,0.038,0.256,0.042c0.101,0.006,0.15-0.08,0.105-0.17
		c-0.627-1.26-2.328-1.571-4.306-2.136c-0.098-0.028-0.169,0.034-0.16,0.135l0.669,2.679c0.009,0.101-0.045,0.129-0.122,0.063
		l-1.785-2.052c-0.077-0.066-0.169-0.043-0.204,0.052c-0.683,1.897-1.442,3.413-0.81,4.648c0.046,0.09,0.144,0.102,0.199,0.017
		c0.047-0.071,0.084-0.145,0.117-0.232c0.037-0.095,0.091-0.099,0.131-0.005c0.213,0.499,0.709,1.631,1.324,2.155
		c0.077,0.066,0.161,0.03,0.18-0.07c0.012-0.063,0.024-0.136,0.035-0.231c0.011-0.101,0.062-0.115,0.123-0.034
		c0.407,0.535,1.115,1.176,1.565,1.407c0.09,0.046,0.194-0.008,0.21-0.108c0.006-0.035,0.011-0.073,0.014-0.112
		c0.01-0.101,0.067-0.126,0.146-0.063c0.436,0.345,1.468,0.964,1.944,1.116c0.096,0.031,0.226-0.035,0.259-0.131
		c0.161-0.474,0.276-1.672,0.257-2.227c-0.004-0.101,0.051-0.133,0.138-0.08c0.034,0.02,0.067,0.039,0.098,0.055
		c0.09,0.046,0.196-0.005,0.212-0.105c0.082-0.499-0.014-1.449-0.203-2.095c-0.028-0.097,0.013-0.13,0.1-0.079
		c0.082,0.047,0.149,0.081,0.207,0.109c0.091,0.044,0.169-0.002,0.162-0.103c-0.057-0.807-0.672-1.878-0.947-2.346
		C159.337,104.369,159.372,104.329,159.47,104.355z"/>
	<path d="M175.309,52.354c0.09,0.02,0.173,0.03,0.258,0.03c0.101,0,0.146-0.087,0.096-0.176c-0.681-1.208-2.364-1.412-4.323-1.89
		c-0.099-0.024-0.169,0.04-0.156,0.141l0.726,2.621c0.013,0.101-0.041,0.131-0.12,0.067l-1.865-2.036
		c-0.079-0.064-0.17-0.038-0.2,0.059c-0.621,1.961-1.301,3.551-0.596,4.77c0.051,0.088,0.149,0.094,0.2,0.007
		c0.044-0.074,0.078-0.152,0.106-0.237c0.032-0.096,0.085-0.103,0.13-0.012c0.239,0.487,0.792,1.592,1.433,2.084
		c0.08,0.062,0.162,0.022,0.176-0.078c0.009-0.064,0.017-0.138,0.023-0.233c0.006-0.101,0.056-0.118,0.121-0.04
		c0.434,0.514,1.174,1.118,1.635,1.325c0.093,0.042,0.194-0.018,0.205-0.119c0.004-0.035,0.007-0.073,0.009-0.112
		c0.004-0.101,0.06-0.129,0.143-0.071c0.453,0.322,1.515,0.888,1.999,1.015c0.098,0.026,0.224-0.046,0.252-0.143
		c0.136-0.481,0.19-1.684,0.142-2.237c-0.009-0.101,0.044-0.135,0.133-0.087c0.035,0.019,0.069,0.035,0.101,0.05
		c0.093,0.042,0.195-0.015,0.206-0.116c0.056-0.503-0.088-1.447-0.31-2.082c-0.033-0.096,0.006-0.13,0.096-0.084
		c0.084,0.043,0.152,0.073,0.212,0.098c0.094,0.039,0.17-0.011,0.157-0.111c-0.098-0.802-0.768-1.841-1.066-2.294
		C175.177,52.375,175.21,52.332,175.309,52.354z"/>
	<path d="M166.194,49.294c0.05,0.025,0.09,0.043,0.125,0.058c0.055,0.023,0.1-0.006,0.093-0.066
		c-0.058-0.474-0.454-1.088-0.63-1.356c-0.033-0.05-0.013-0.076,0.045-0.063c0.053,0.012,0.102,0.018,0.153,0.018
		c0.06,0,0.086-0.052,0.057-0.104c-0.403-0.714-1.398-0.835-2.556-1.118c-0.058-0.014-0.1,0.024-0.092,0.083l0.429,1.549
		c0.008,0.059-0.024,0.077-0.071,0.04l-1.102-1.204c-0.047-0.038-0.1-0.022-0.119,0.035c-0.367,1.16-0.769,2.099-0.352,2.82
		c0.03,0.052,0.088,0.056,0.118,0.004c0.026-0.044,0.046-0.09,0.063-0.14c0.019-0.057,0.051-0.061,0.077-0.007
		c0.141,0.288,0.468,0.941,0.847,1.232c0.048,0.036,0.096,0.013,0.104-0.046c0.005-0.038,0.01-0.082,0.014-0.138
		c0.004-0.06,0.033-0.07,0.072-0.024c0.257,0.304,0.694,0.661,0.967,0.784c0.055,0.025,0.115-0.011,0.121-0.07
		c0.002-0.021,0.004-0.043,0.005-0.066c0.002-0.06,0.036-0.076,0.084-0.042c0.268,0.19,0.896,0.525,1.182,0.6
		c0.058,0.015,0.133-0.027,0.149-0.085c0.081-0.284,0.112-0.995,0.084-1.323c-0.005-0.06,0.026-0.08,0.079-0.052
		c0.021,0.011,0.041,0.021,0.06,0.03c0.055,0.025,0.115-0.009,0.122-0.069c0.033-0.297-0.052-0.855-0.183-1.231
		C166.117,49.287,166.14,49.267,166.194,49.294z"/>
	<path d="M78.046,40.828c-0.126-0.08-0.246-0.141-0.375-0.188c-0.154-0.056-0.269,0.052-0.242,0.214
		c0.367,2.209,2.808,3.448,5.517,5.254c0.136,0.091,0.278,0.032,0.314-0.128l0.345-4.377c0.036-0.16,0.135-0.175,0.219-0.035
		l1.706,4.119c0.085,0.14,0.237,0.151,0.336,0.021c2.024-2.634,3.933-4.67,3.537-6.909c-0.029-0.161-0.174-0.225-0.3-0.12
		c-0.107,0.089-0.202,0.188-0.292,0.301c-0.102,0.128-0.187,0.109-0.204-0.054c-0.093-0.871-0.323-2.853-1.025-3.954
		c-0.088-0.138-0.233-0.123-0.31,0.022c-0.049,0.093-0.103,0.2-0.164,0.341c-0.065,0.15-0.15,0.148-0.206-0.006
		c-0.375-1.019-1.164-2.344-1.75-2.913c-0.117-0.114-0.304-0.079-0.376,0.067c-0.025,0.051-0.051,0.107-0.075,0.165
		c-0.062,0.151-0.163,0.163-0.256,0.028c-0.509-0.739-1.809-2.183-2.473-2.643c-0.135-0.093-0.365-0.054-0.461,0.079
		c-0.472,0.654-1.217,2.45-1.451,3.316c-0.043,0.158-0.141,0.181-0.25,0.059c-0.043-0.048-0.085-0.092-0.126-0.132
		c-0.117-0.114-0.304-0.084-0.377,0.062c-0.362,0.732-0.664,2.244-0.679,3.329c-0.002,0.164-0.081,0.194-0.193,0.074
		c-0.104-0.112-0.19-0.195-0.267-0.265c-0.12-0.111-0.263-0.078-0.3,0.082c-0.294,1.272,0.149,3.217,0.352,4.069
		C78.259,40.868,78.185,40.915,78.046,40.828z"/>
	<path d="M76.968,23.949c-0.029-0.161-0.174-0.225-0.3-0.12c-0.107,0.089-0.202,0.188-0.292,0.301
		c-0.102,0.128-0.187,0.109-0.204-0.054c-0.093-0.871-0.323-2.853-1.025-3.954c-0.088-0.138-0.234-0.123-0.31,0.022
		c-0.049,0.093-0.103,0.2-0.164,0.341c-0.065,0.15-0.15,0.148-0.206-0.006c-0.375-1.019-1.164-2.344-1.75-2.913
		c-0.117-0.114-0.304-0.079-0.376,0.067c-0.025,0.051-0.05,0.107-0.075,0.165c-0.062,0.151-0.163,0.163-0.256,0.028
		c-0.509-0.739-1.809-2.183-2.473-2.643c-0.135-0.093-0.366-0.054-0.461,0.079c-0.472,0.654-1.217,2.45-1.451,3.316
		c-0.043,0.158-0.141,0.181-0.25,0.059c-0.043-0.048-0.085-0.092-0.126-0.132c-0.117-0.114-0.304-0.084-0.377,0.062
		c-0.362,0.732-0.664,2.244-0.679,3.329c-0.002,0.164-0.081,0.194-0.193,0.074c-0.104-0.112-0.191-0.195-0.267-0.265
		c-0.12-0.111-0.263-0.078-0.3,0.082c-0.294,1.272,0.149,3.217,0.352,4.069c0.038,0.159-0.037,0.206-0.175,0.119
		c-0.126-0.08-0.246-0.141-0.375-0.188c-0.154-0.056-0.269,0.052-0.242,0.214c0.367,2.209,2.808,3.448,5.517,5.254
		c0.136,0.091,0.278,0.032,0.315-0.128l0.345-4.377c0.036-0.16,0.135-0.175,0.219-0.035l1.706,4.119
		c0.085,0.14,0.237,0.151,0.336,0.021C75.456,28.224,77.365,26.187,76.968,23.949z"/>
	<path d="M170.684,65.197c0.09,0.02,0.173,0.03,0.258,0.03c0.101,0,0.146-0.087,0.096-0.176c-0.681-1.208-2.364-1.412-4.323-1.89
		c-0.099-0.024-0.169,0.04-0.156,0.141l0.726,2.621c0.013,0.101-0.041,0.131-0.12,0.067l-1.865-2.036
		c-0.079-0.064-0.17-0.038-0.2,0.059c-0.621,1.961-1.301,3.551-0.596,4.77c0.051,0.088,0.149,0.094,0.2,0.007
		c0.044-0.074,0.078-0.152,0.106-0.237c0.032-0.096,0.085-0.103,0.13-0.012c0.239,0.487,0.792,1.592,1.433,2.084
		c0.08,0.062,0.162,0.022,0.176-0.078c0.009-0.064,0.017-0.138,0.023-0.233c0.006-0.101,0.056-0.118,0.121-0.04
		c0.434,0.514,1.174,1.118,1.635,1.325c0.093,0.042,0.194-0.018,0.205-0.119c0.004-0.035,0.007-0.073,0.009-0.112
		c0.004-0.101,0.06-0.129,0.143-0.071c0.453,0.322,1.515,0.888,1.999,1.015c0.098,0.026,0.224-0.046,0.252-0.143
		c0.136-0.481,0.19-1.683,0.142-2.237c-0.009-0.101,0.044-0.135,0.133-0.088c0.035,0.019,0.069,0.035,0.101,0.05
		c0.093,0.042,0.195-0.015,0.206-0.116c0.056-0.503-0.088-1.447-0.31-2.082c-0.033-0.096,0.006-0.13,0.096-0.084
		c0.084,0.043,0.152,0.073,0.212,0.098c0.094,0.039,0.17-0.011,0.157-0.111c-0.098-0.803-0.768-1.841-1.066-2.294
		C170.552,65.219,170.585,65.176,170.684,65.197z"/>
	<path d="M179.875,36.308c-0.091-0.045-0.093-0.108-0.005-0.159c0.034-0.02,0.066-0.041,0.095-0.061
		c0.084-0.057,0.088-0.174,0.008-0.236c-0.401-0.309-1.282-0.676-1.939-0.817c-0.099-0.021-0.108-0.073-0.022-0.126
		c0.081-0.05,0.141-0.092,0.194-0.13c0.082-0.059,0.079-0.15-0.013-0.192c-0.737-0.333-1.972-0.301-2.514-0.281
		c-0.101,0.004-0.121-0.047-0.051-0.121c0.064-0.067,0.115-0.132,0.16-0.205c0.053-0.087,0.001-0.17-0.1-0.173
		c-1.386-0.046-2.436,1.286-3.862,2.711c-0.072,0.072-0.053,0.165,0.039,0.207l2.616,0.742c0.093,0.042,0.09,0.103-0.005,0.137
		l-2.709,0.535c-0.095,0.034-0.121,0.125-0.054,0.202c1.353,1.55,2.358,2.957,3.765,2.988c0.101,0.002,0.157-0.078,0.109-0.167
		c-0.041-0.076-0.089-0.146-0.147-0.214c-0.065-0.077-0.044-0.126,0.057-0.117c0.54,0.049,1.772,0.151,2.526-0.141
		c0.094-0.037,0.103-0.127,0.024-0.191c-0.05-0.041-0.109-0.087-0.187-0.141c-0.083-0.058-0.072-0.109,0.029-0.124
		c0.665-0.104,1.565-0.422,1.982-0.708c0.084-0.057,0.085-0.175,0.005-0.237c-0.028-0.022-0.058-0.044-0.091-0.065
		c-0.084-0.056-0.079-0.119,0.014-0.159c0.511-0.219,1.546-0.833,1.906-1.18c0.073-0.07,0.077-0.215,0.008-0.29
		C181.373,37.226,180.373,36.556,179.875,36.308z"/>
	<path d="M137.857,70.57l-1.865-2.036c-0.079-0.064-0.17-0.038-0.2,0.059c-0.621,1.961-1.301,3.551-0.596,4.77
		c0.051,0.088,0.149,0.094,0.2,0.007c0.044-0.074,0.078-0.152,0.106-0.237c0.032-0.096,0.085-0.103,0.13-0.012
		c0.239,0.487,0.792,1.592,1.433,2.084c0.08,0.062,0.162,0.022,0.176-0.078c0.009-0.064,0.017-0.138,0.023-0.233
		c0.006-0.101,0.056-0.118,0.121-0.04c0.434,0.514,1.174,1.118,1.635,1.325c0.093,0.042,0.194-0.018,0.205-0.119
		c0.004-0.035,0.007-0.073,0.009-0.112c0.004-0.101,0.06-0.129,0.143-0.071c0.453,0.322,1.515,0.888,1.999,1.015
		c0.098,0.026,0.224-0.046,0.252-0.143c0.136-0.481,0.19-1.684,0.142-2.237c-0.009-0.101,0.044-0.135,0.133-0.088
		c0.035,0.019,0.069,0.035,0.101,0.05c0.092,0.042,0.195-0.015,0.206-0.116c0.056-0.503-0.088-1.447-0.31-2.082
		c-0.033-0.096,0.006-0.13,0.096-0.084c0.084,0.043,0.152,0.073,0.212,0.098c0.093,0.039,0.17-0.011,0.157-0.111
		c-0.098-0.802-0.768-1.841-1.066-2.294c-0.056-0.085-0.022-0.128,0.077-0.106c0.09,0.02,0.173,0.03,0.258,0.03
		c0.101,0,0.146-0.087,0.096-0.176c-0.681-1.208-2.364-1.412-4.323-1.89c-0.098-0.024-0.169,0.04-0.156,0.141l0.726,2.621
		C137.99,70.603,137.936,70.633,137.857,70.57z"/>
	<path d="M164.618,94.948c0.039-0.005,0.077-0.01,0.112-0.017c0.1-0.019,0.151-0.124,0.103-0.213
		c-0.241-0.445-0.898-1.138-1.442-1.533c-0.082-0.06-0.069-0.11,0.031-0.124c0.094-0.013,0.167-0.027,0.23-0.04
		c0.099-0.021,0.133-0.105,0.066-0.181c-0.538-0.603-1.681-1.073-2.185-1.275c-0.094-0.038-0.091-0.092,0.002-0.131
		c0.085-0.035,0.159-0.074,0.229-0.123c0.083-0.058,0.07-0.155-0.021-0.199c-1.249-0.604-2.748,0.189-4.629,0.915
		c-0.095,0.036-0.116,0.129-0.048,0.205l2.092,1.738c0.068,0.075,0.041,0.131-0.061,0.124l-2.693-0.608
		c-0.101-0.007-0.161,0.066-0.131,0.163c0.609,1.965,0.958,3.658,2.233,4.257c0.092,0.043,0.176-0.008,0.168-0.109
		c-0.007-0.086-0.023-0.169-0.048-0.255c-0.028-0.097,0.011-0.133,0.1-0.084c0.474,0.264,1.559,0.855,2.367,0.894
		c0.101,0.005,0.146-0.074,0.099-0.165c-0.029-0.058-0.064-0.123-0.114-0.205c-0.053-0.087-0.021-0.128,0.077-0.102
		c0.65,0.174,1.602,0.248,2.099,0.155c0.1-0.019,0.149-0.125,0.1-0.214c-0.017-0.031-0.036-0.064-0.057-0.097
		c-0.054-0.086-0.024-0.141,0.077-0.14c0.556,0.006,1.751-0.136,2.221-0.307c0.095-0.035,0.158-0.166,0.125-0.261
		c-0.163-0.473-0.805-1.491-1.16-1.919C164.494,95.018,164.517,94.96,164.618,94.948z"/>
	<path d="M112.102,61.381c0.101,0.013,0.165-0.058,0.141-0.156c-0.478-1.959-0.682-3.642-1.89-4.323
		c-0.088-0.05-0.176-0.005-0.176,0.096c0,0.085,0.01,0.168,0.03,0.258c0.022,0.099-0.021,0.133-0.106,0.077
		c-0.453-0.298-1.492-0.968-2.294-1.066c-0.101-0.012-0.15,0.064-0.111,0.157c0.025,0.06,0.055,0.127,0.098,0.212
		c0.046,0.09,0.012,0.13-0.084,0.096c-0.635-0.222-1.579-0.366-2.082-0.31c-0.101,0.011-0.158,0.114-0.116,0.206
		c0.015,0.033,0.031,0.066,0.05,0.101c0.048,0.089,0.013,0.142-0.088,0.133c-0.554-0.047-1.756,0.006-2.237,0.142
		c-0.097,0.028-0.169,0.154-0.143,0.252c0.127,0.484,0.693,1.546,1.015,1.999c0.059,0.083,0.031,0.139-0.071,0.143
		c-0.039,0.002-0.077,0.005-0.112,0.008c-0.101,0.011-0.161,0.112-0.119,0.205c0.208,0.461,0.812,1.201,1.325,1.635
		c0.077,0.065,0.061,0.115-0.04,0.121c-0.095,0.006-0.169,0.015-0.233,0.023c-0.1,0.014-0.14,0.095-0.078,0.176
		c0.492,0.641,1.597,1.195,2.084,1.433c0.091,0.045,0.084,0.098-0.012,0.13c-0.085,0.028-0.163,0.063-0.237,0.106
		c-0.088,0.051-0.081,0.149,0.006,0.2c1.219,0.705,2.808,0.025,4.77-0.596c0.097-0.031,0.123-0.121,0.059-0.2l-2.036-1.865
		c-0.064-0.079-0.034-0.133,0.067-0.12L112.102,61.381z"/>
	<path d="M133.011,41.128c0.096,0.031,0.173-0.025,0.168-0.126c-0.096-2.014,0.024-3.705-1.032-4.604
		c-0.077-0.066-0.172-0.039-0.191,0.061c-0.016,0.083-0.022,0.167-0.02,0.259c0.002,0.101-0.046,0.126-0.119,0.055
		c-0.388-0.379-1.28-1.235-2.049-1.484c-0.096-0.031-0.16,0.034-0.139,0.133c0.013,0.063,0.03,0.135,0.056,0.226
		c0.028,0.097-0.013,0.13-0.101,0.079c-0.581-0.338-1.48-0.66-1.984-0.701c-0.101-0.008-0.176,0.082-0.153,0.18
		c0.008,0.035,0.018,0.071,0.03,0.109c0.03,0.097-0.014,0.142-0.111,0.114c-0.535-0.152-1.726-0.329-2.224-0.287
		c-0.101,0.009-0.195,0.119-0.189,0.22c0.033,0.499,0.385,1.65,0.615,2.156c0.042,0.092,0.004,0.142-0.097,0.127
		c-0.039-0.006-0.076-0.01-0.112-0.013c-0.101-0.008-0.179,0.08-0.156,0.178c0.116,0.493,0.568,1.334,0.99,1.858
		c0.063,0.079,0.038,0.124-0.062,0.111c-0.094-0.012-0.168-0.018-0.233-0.021c-0.101-0.006-0.156,0.067-0.11,0.157
		c0.361,0.723,1.34,1.477,1.773,1.804c0.081,0.061,0.064,0.112-0.037,0.125c-0.089,0.012-0.172,0.031-0.253,0.059
		c-0.096,0.034-0.108,0.131-0.032,0.197c1.062,0.924,2.752,0.559,4.796,0.324c0.101-0.012,0.143-0.096,0.096-0.185l-1.644-2.219
		c-0.047-0.09-0.008-0.137,0.089-0.105L133.011,41.128z"/>
	<path d="M62.104,82.095l-2.219,1.644c-0.09,0.047-0.137,0.008-0.105-0.089l1.212-2.434c0.031-0.096-0.025-0.173-0.126-0.168
		c-2.014,0.096-3.705-0.024-4.604,1.032c-0.066,0.077-0.039,0.172,0.061,0.191c0.083,0.016,0.167,0.022,0.259,0.02
		c0.101-0.002,0.126,0.046,0.055,0.119c-0.379,0.388-1.235,1.28-1.484,2.049c-0.031,0.096,0.034,0.16,0.133,0.139
		c0.063-0.013,0.135-0.03,0.226-0.056c0.097-0.028,0.13,0.013,0.079,0.101c-0.339,0.581-0.66,1.48-0.701,1.984
		c-0.008,0.101,0.082,0.176,0.18,0.153c0.035-0.008,0.071-0.018,0.109-0.03c0.097-0.03,0.142,0.014,0.114,0.111
		c-0.152,0.535-0.329,1.726-0.287,2.224c0.009,0.101,0.119,0.195,0.22,0.189c0.499-0.033,1.65-0.385,2.156-0.615
		c0.092-0.042,0.142-0.004,0.127,0.097c-0.006,0.039-0.01,0.076-0.013,0.112c-0.008,0.101,0.08,0.179,0.178,0.156
		c0.493-0.116,1.333-0.568,1.858-0.989c0.079-0.064,0.124-0.038,0.111,0.062c-0.012,0.094-0.018,0.168-0.022,0.233
		c-0.006,0.101,0.067,0.156,0.157,0.11c0.723-0.361,1.477-1.34,1.804-1.773c0.061-0.081,0.112-0.064,0.125,0.036
		c0.012,0.089,0.03,0.172,0.059,0.253c0.034,0.096,0.131,0.108,0.197,0.032c0.924-1.062,0.559-2.752,0.324-4.796
		C62.278,82.09,62.194,82.047,62.104,82.095z"/>
	<path d="M65.827,50.769c0.042-0.092-0.018-0.194-0.119-0.205c-0.035-0.004-0.073-0.007-0.112-0.008
		c-0.101-0.004-0.129-0.06-0.071-0.143c0.322-0.453,0.888-1.515,1.015-1.999c0.026-0.098-0.046-0.224-0.143-0.252
		c-0.481-0.136-1.683-0.19-2.237-0.142c-0.101,0.009-0.135-0.044-0.087-0.133c0.019-0.035,0.035-0.069,0.05-0.101
		c0.042-0.092-0.015-0.195-0.116-0.206c-0.503-0.056-1.447,0.088-2.082,0.31c-0.096,0.033-0.13-0.006-0.084-0.096
		c0.043-0.084,0.073-0.152,0.098-0.212c0.039-0.094-0.01-0.17-0.111-0.157c-0.803,0.098-1.841,0.768-2.294,1.066
		c-0.085,0.056-0.128,0.022-0.106-0.077c0.02-0.09,0.03-0.173,0.03-0.258c0-0.101-0.087-0.146-0.176-0.096
		c-1.208,0.681-1.412,2.364-1.89,4.323c-0.024,0.098,0.04,0.169,0.141,0.156l2.621-0.726c0.101-0.013,0.13,0.041,0.067,0.12
		l-2.036,1.865c-0.064,0.079-0.038,0.17,0.059,0.2c1.961,0.621,3.551,1.301,4.77,0.596c0.088-0.051,0.094-0.149,0.007-0.2
		c-0.074-0.044-0.152-0.078-0.237-0.106c-0.096-0.032-0.103-0.085-0.012-0.13c0.487-0.239,1.592-0.792,2.084-1.433
		c0.062-0.08,0.022-0.162-0.078-0.176c-0.064-0.009-0.138-0.018-0.233-0.023c-0.101-0.006-0.118-0.056-0.04-0.121
		C65.015,51.97,65.619,51.23,65.827,50.769z"/>
	<path d="M58.872,36.406l2.621-0.726c0.101-0.013,0.131,0.041,0.067,0.12l-2.036,1.865c-0.064,0.079-0.038,0.17,0.059,0.2
		c1.961,0.621,3.551,1.301,4.77,0.596c0.088-0.051,0.094-0.149,0.006-0.2c-0.074-0.044-0.152-0.078-0.237-0.106
		c-0.096-0.032-0.103-0.085-0.012-0.13c0.487-0.239,1.592-0.792,2.084-1.433c0.062-0.08,0.022-0.162-0.078-0.176
		c-0.064-0.009-0.138-0.017-0.233-0.023c-0.101-0.006-0.118-0.056-0.04-0.121c0.514-0.434,1.118-1.174,1.325-1.635
		c0.042-0.092-0.018-0.194-0.119-0.205c-0.035-0.004-0.073-0.007-0.112-0.008c-0.101-0.004-0.129-0.06-0.071-0.143
		c0.322-0.453,0.888-1.515,1.015-1.999c0.026-0.098-0.046-0.224-0.143-0.252c-0.481-0.136-1.684-0.19-2.237-0.142
		c-0.101,0.009-0.135-0.044-0.088-0.133c0.019-0.035,0.035-0.069,0.05-0.101c0.042-0.092-0.015-0.195-0.116-0.206
		c-0.503-0.056-1.447,0.088-2.082,0.31c-0.096,0.033-0.13-0.006-0.084-0.096c0.043-0.084,0.073-0.152,0.098-0.212
		c0.039-0.094-0.01-0.17-0.111-0.157c-0.802,0.098-1.841,0.768-2.294,1.066c-0.085,0.056-0.128,0.022-0.106-0.077
		c0.02-0.09,0.03-0.173,0.03-0.258c0-0.101-0.087-0.146-0.176-0.096c-1.208,0.681-1.412,2.364-1.89,4.323
		C58.707,36.348,58.772,36.419,58.872,36.406z"/>
	<path d="M131.163,91.338c-0.012,0.101,0.064,0.15,0.157,0.111c0.059-0.025,0.127-0.055,0.212-0.098
		c0.09-0.046,0.13-0.012,0.096,0.084c-0.221,0.635-0.365,1.579-0.31,2.082c0.011,0.101,0.114,0.158,0.206,0.116
		c0.032-0.015,0.066-0.031,0.101-0.05c0.089-0.048,0.142-0.013,0.133,0.088c-0.047,0.554,0.006,1.757,0.142,2.237
		c0.028,0.098,0.154,0.169,0.252,0.143c0.484-0.127,1.546-0.693,1.999-1.015c0.083-0.059,0.139-0.031,0.143,0.071
		c0.002,0.039,0.005,0.077,0.008,0.112c0.011,0.101,0.112,0.16,0.205,0.119c0.462-0.208,1.201-0.812,1.635-1.325
		c0.065-0.077,0.115-0.061,0.121,0.04c0.006,0.095,0.015,0.169,0.023,0.233c0.014,0.1,0.095,0.14,0.176,0.078
		c0.641-0.492,1.195-1.597,1.433-2.084c0.045-0.091,0.098-0.084,0.13,0.012c0.028,0.085,0.063,0.163,0.106,0.237
		c0.051,0.087,0.149,0.081,0.2-0.007c0.705-1.219,0.025-2.808-0.596-4.77c-0.031-0.097-0.122-0.122-0.2-0.059l-1.865,2.036
		c-0.079,0.064-0.133,0.034-0.12-0.067l0.726-2.621c0.013-0.101-0.058-0.165-0.156-0.141c-1.959,0.478-3.642,0.682-4.323,1.89
		c-0.05,0.088-0.005,0.176,0.096,0.176c0.085,0,0.168-0.01,0.258-0.03c0.099-0.022,0.133,0.021,0.077,0.106
		C131.931,89.497,131.261,90.535,131.163,91.338z"/>
	<path d="M131.811,105.425c-0.069,0.057-0.129,0.117-0.183,0.185c-0.063,0.079-0.022,0.168,0.078,0.184
		c1.391,0.216,2.627-0.993,4.231-2.281c0.079-0.063,0.07-0.158-0.018-0.208l-2.573-1.002c-0.088-0.051-0.079-0.112,0.019-0.136
		l2.706-0.271c0.098-0.025,0.133-0.113,0.075-0.196c-1.154-1.653-1.953-3.149-3.326-3.347c-0.1-0.014-0.166,0.058-0.129,0.153
		c0.031,0.079,0.07,0.153,0.121,0.23c0.056,0.084,0.028,0.131-0.071,0.11c-0.53-0.114-1.741-0.363-2.524-0.164
		c-0.098,0.025-0.117,0.114-0.047,0.187c0.045,0.046,0.097,0.099,0.168,0.162c0.076,0.068,0.058,0.117-0.043,0.12
		c-0.672,0.023-1.604,0.23-2.053,0.464c-0.09,0.047-0.106,0.163-0.034,0.234c0.026,0.025,0.053,0.051,0.083,0.076
		c0.077,0.066,0.064,0.127-0.033,0.156c-0.534,0.156-1.635,0.641-2.034,0.942c-0.081,0.061-0.102,0.205-0.043,0.287
		c0.294,0.405,1.205,1.191,1.669,1.497c0.085,0.056,0.079,0.118-0.014,0.159c-0.036,0.016-0.07,0.032-0.101,0.048
		c-0.09,0.047-0.109,0.163-0.037,0.234c0.361,0.355,1.191,0.826,1.827,1.045c0.096,0.033,0.099,0.085,0.006,0.128
		c-0.086,0.04-0.152,0.075-0.209,0.106c-0.089,0.049-0.096,0.139-0.01,0.192c0.691,0.42,1.921,0.536,2.462,0.582
		C131.876,105.308,131.889,105.36,131.811,105.425z"/>
	<path d="M32.92,52.262c0.101,0,0.154-0.079,0.118-0.174l-1.331-2.372c-0.036-0.095,0.009-0.137,0.101-0.094l2.297,1.532
		c0.092,0.043,0.174-0.004,0.181-0.105c0.134-2.053,0.415-3.759-0.56-4.774c-0.07-0.073-0.167-0.056-0.196,0.041
		c-0.024,0.083-0.039,0.166-0.046,0.256c-0.008,0.101-0.058,0.12-0.123,0.043c-0.348-0.416-1.149-1.357-1.89-1.682
		c-0.093-0.041-0.162,0.017-0.152,0.118c0.007,0.064,0.016,0.138,0.033,0.232c0.018,0.1-0.026,0.128-0.108,0.068
		c-0.544-0.395-1.407-0.805-1.904-0.896c-0.1-0.018-0.184,0.064-0.171,0.164c0.005,0.035,0.011,0.072,0.019,0.111
		c0.02,0.099-0.028,0.14-0.122,0.103c-0.517-0.205-1.683-0.5-2.184-0.508c-0.101-0.002-0.207,0.098-0.21,0.199
		c-0.017,0.499,0.218,1.68,0.396,2.207c0.032,0.096-0.01,0.142-0.109,0.117c-0.038-0.01-0.075-0.018-0.11-0.024
		c-0.1-0.018-0.186,0.061-0.172,0.162c0.066,0.502,0.431,1.384,0.798,1.947c0.055,0.085,0.025,0.128-0.073,0.105
		c-0.092-0.022-0.165-0.035-0.229-0.045c-0.1-0.016-0.162,0.051-0.126,0.146c0.287,0.756,1.185,1.604,1.583,1.973
		c0.074,0.069,0.052,0.119-0.049,0.121c-0.092,0.002-0.175,0.012-0.258,0.033c-0.099,0.024-0.121,0.12-0.051,0.193
		C29.22,52.47,30.903,52.266,32.92,52.262z"/>
	<path d="M50.391,48.742l2.297,1.532c0.092,0.043,0.174-0.004,0.181-0.105c0.134-2.053,0.415-3.759-0.56-4.774
		c-0.07-0.073-0.167-0.056-0.196,0.041c-0.025,0.083-0.039,0.166-0.047,0.256c-0.008,0.101-0.058,0.12-0.123,0.043
		c-0.348-0.416-1.149-1.357-1.89-1.682c-0.093-0.041-0.162,0.017-0.152,0.118c0.007,0.064,0.016,0.138,0.033,0.232
		c0.018,0.1-0.026,0.127-0.108,0.068c-0.544-0.395-1.406-0.805-1.904-0.896c-0.1-0.018-0.184,0.064-0.17,0.164
		c0.005,0.035,0.011,0.072,0.018,0.111c0.02,0.099-0.028,0.14-0.122,0.103c-0.517-0.205-1.683-0.5-2.183-0.508
		c-0.101-0.002-0.207,0.098-0.21,0.199c-0.017,0.499,0.218,1.68,0.396,2.207c0.032,0.096-0.01,0.142-0.108,0.117
		c-0.039-0.01-0.075-0.018-0.111-0.024c-0.1-0.018-0.186,0.061-0.172,0.162c0.066,0.502,0.431,1.384,0.798,1.947
		c0.055,0.085,0.025,0.128-0.073,0.105c-0.092-0.022-0.165-0.034-0.229-0.045c-0.1-0.016-0.162,0.051-0.126,0.146
		c0.287,0.756,1.185,1.604,1.583,1.973c0.074,0.069,0.052,0.119-0.049,0.122c-0.092,0.002-0.175,0.012-0.258,0.032
		c-0.098,0.024-0.12,0.12-0.051,0.194c0.95,1.011,2.633,0.807,4.649,0.803c0.101,0,0.154-0.079,0.118-0.174l-1.331-2.372
		C50.254,48.741,50.299,48.699,50.391,48.742z"/>
	<path d="M42.352,66.441c-0.516-0.205-1.683-0.5-2.183-0.508c-0.101-0.002-0.207,0.098-0.21,0.199
		c-0.018,0.499,0.218,1.68,0.396,2.207c0.032,0.096-0.01,0.142-0.108,0.117c-0.038-0.01-0.075-0.018-0.11-0.024
		c-0.1-0.018-0.186,0.061-0.173,0.162c0.066,0.502,0.431,1.384,0.798,1.947c0.055,0.085,0.025,0.128-0.074,0.105
		c-0.092-0.022-0.165-0.035-0.229-0.045c-0.1-0.016-0.162,0.051-0.126,0.146c0.287,0.756,1.185,1.604,1.583,1.973
		c0.074,0.069,0.052,0.119-0.049,0.121c-0.092,0.002-0.175,0.012-0.258,0.033c-0.099,0.024-0.121,0.12-0.051,0.193
		c0.95,1.011,2.633,0.807,4.65,0.803c0.101,0,0.154-0.079,0.118-0.174l-1.331-2.372c-0.036-0.095,0.009-0.137,0.101-0.094
		l2.297,1.532c0.092,0.043,0.174-0.004,0.18-0.105c0.134-2.053,0.415-3.759-0.56-4.774c-0.07-0.073-0.167-0.056-0.196,0.041
		c-0.025,0.083-0.039,0.166-0.047,0.256c-0.008,0.101-0.058,0.12-0.123,0.043c-0.348-0.416-1.149-1.357-1.89-1.682
		c-0.093-0.041-0.163,0.017-0.152,0.118c0.007,0.064,0.016,0.138,0.033,0.232c0.018,0.1-0.026,0.128-0.108,0.068
		c-0.544-0.395-1.407-0.805-1.904-0.896c-0.1-0.018-0.184,0.064-0.171,0.164c0.005,0.035,0.011,0.072,0.019,0.111
		C42.494,66.437,42.446,66.478,42.352,66.441z"/>
	<path d="M43.07,81.622c0.072-0.072,0.053-0.165-0.04-0.206l-2.618-0.736c-0.093-0.041-0.09-0.103,0.005-0.138l2.708-0.541
		c0.095-0.035,0.12-0.126,0.053-0.202c-1.357-1.547-2.365-2.951-3.772-2.98c-0.101-0.002-0.157,0.078-0.109,0.168
		c0.041,0.076,0.09,0.145,0.148,0.214c0.066,0.077,0.044,0.126-0.057,0.117c-0.54-0.048-1.772-0.147-2.526,0.147
		c-0.094,0.037-0.103,0.127-0.024,0.191c0.05,0.041,0.109,0.086,0.187,0.141c0.083,0.058,0.072,0.109-0.028,0.125
		c-0.664,0.105-1.564,0.425-1.98,0.713c-0.083,0.058-0.085,0.175-0.004,0.237c0.028,0.022,0.059,0.043,0.091,0.065
		c0.084,0.056,0.079,0.119-0.014,0.159c-0.51,0.22-1.544,0.837-1.903,1.185c-0.073,0.07-0.077,0.216-0.008,0.29
		c0.341,0.365,1.342,1.034,1.841,1.28c0.091,0.045,0.093,0.108,0.006,0.159c-0.034,0.02-0.066,0.041-0.095,0.061
		c-0.083,0.058-0.088,0.175-0.007,0.236c0.401,0.308,1.283,0.674,1.941,0.813c0.099,0.021,0.108,0.073,0.022,0.126
		c-0.08,0.05-0.141,0.092-0.193,0.13c-0.082,0.06-0.079,0.151,0.014,0.192c0.737,0.332,1.973,0.296,2.515,0.276
		c0.101-0.004,0.121,0.047,0.051,0.121c-0.063,0.067-0.115,0.133-0.159,0.205c-0.053,0.087-0.001,0.17,0.101,0.173
		C40.601,84.384,41.647,83.05,43.07,81.622z"/>
	<path d="M52.308,31.645c-0.07-0.073-0.167-0.056-0.196,0.041c-0.025,0.083-0.039,0.166-0.047,0.256
		c-0.008,0.101-0.058,0.12-0.123,0.043c-0.348-0.416-1.149-1.357-1.89-1.682c-0.093-0.041-0.162,0.017-0.152,0.118
		c0.007,0.064,0.016,0.138,0.033,0.232c0.018,0.1-0.026,0.127-0.108,0.068c-0.544-0.395-1.406-0.805-1.904-0.896
		c-0.1-0.018-0.184,0.064-0.17,0.164c0.005,0.035,0.011,0.072,0.018,0.111c0.02,0.099-0.028,0.14-0.122,0.103
		c-0.517-0.205-1.683-0.5-2.183-0.508c-0.101-0.002-0.207,0.098-0.21,0.199c-0.017,0.499,0.218,1.68,0.396,2.207
		c0.032,0.096-0.01,0.142-0.108,0.117c-0.039-0.01-0.075-0.018-0.111-0.024c-0.1-0.018-0.186,0.061-0.172,0.162
		c0.066,0.502,0.431,1.384,0.798,1.947c0.055,0.085,0.025,0.128-0.073,0.105c-0.092-0.022-0.165-0.034-0.229-0.045
		c-0.1-0.016-0.162,0.051-0.126,0.146c0.287,0.756,1.185,1.604,1.583,1.973c0.074,0.069,0.052,0.119-0.049,0.122
		c-0.092,0.002-0.175,0.012-0.258,0.032c-0.098,0.024-0.12,0.12-0.051,0.194c0.95,1.011,2.633,0.807,4.649,0.803
		c0.101,0,0.154-0.079,0.118-0.174l-1.331-2.372c-0.036-0.095,0.009-0.137,0.101-0.094l2.297,1.532
		c0.092,0.043,0.174-0.004,0.181-0.105C53.003,34.366,53.284,32.66,52.308,31.645z"/>
	<path d="M92.368,64.209c0.028,0.098,0.154,0.169,0.252,0.143c0.484-0.127,1.546-0.693,1.999-1.015
		c0.083-0.059,0.139-0.031,0.143,0.071c0.002,0.039,0.005,0.077,0.008,0.112c0.011,0.101,0.112,0.16,0.205,0.119
		c0.462-0.208,1.201-0.812,1.635-1.325c0.065-0.077,0.115-0.061,0.121,0.04c0.006,0.095,0.015,0.169,0.023,0.233
		c0.014,0.1,0.095,0.14,0.176,0.078c0.641-0.492,1.195-1.597,1.433-2.084c0.045-0.091,0.098-0.084,0.13,0.012
		c0.028,0.085,0.063,0.163,0.106,0.237c0.051,0.088,0.149,0.081,0.2-0.007c0.705-1.219,0.025-2.808-0.596-4.77
		c-0.031-0.097-0.121-0.122-0.2-0.059l-1.865,2.036c-0.079,0.064-0.133,0.034-0.12-0.067l0.726-2.621
		c0.013-0.101-0.058-0.165-0.156-0.141c-1.959,0.478-3.642,0.682-4.323,1.89c-0.05,0.088-0.005,0.176,0.096,0.176
		c0.085,0,0.168-0.01,0.258-0.03c0.099-0.022,0.133,0.022,0.077,0.106c-0.298,0.453-0.968,1.492-1.066,2.294
		c-0.012,0.101,0.064,0.15,0.157,0.111c0.06-0.025,0.127-0.055,0.212-0.098c0.09-0.046,0.13-0.012,0.096,0.084
		c-0.222,0.635-0.366,1.579-0.31,2.082c0.011,0.101,0.114,0.158,0.206,0.116c0.033-0.015,0.066-0.031,0.102-0.05
		c0.089-0.048,0.142-0.013,0.133,0.088C92.178,62.525,92.231,63.728,92.368,64.209z"/>
	<path d="M72.553,59.923c1.233-0.679,1.474-2.391,1.957-4.39c0.024-0.099-0.041-0.168-0.141-0.154l-2.649,0.779
		c-0.1,0.014-0.131-0.04-0.068-0.119l1.977-1.868c0.063-0.08,0.036-0.171-0.061-0.201c-1.924-0.604-3.47-1.3-4.678-0.618
		c-0.088,0.05-0.096,0.148-0.009,0.2c0.073,0.044,0.149,0.078,0.236,0.108c0.096,0.033,0.102,0.087,0.011,0.131
		c-0.49,0.234-1.6,0.776-2.099,1.412c-0.062,0.08-0.023,0.162,0.077,0.177c0.064,0.009,0.137,0.019,0.232,0.026
		c0.101,0.007,0.117,0.057,0.039,0.122c-0.518,0.429-1.129,1.162-1.342,1.621c-0.043,0.092,0.016,0.194,0.116,0.206
		c0.035,0.004,0.073,0.008,0.113,0.01c0.101,0.005,0.128,0.062,0.069,0.144c-0.327,0.45-0.903,1.507-1.035,1.989
		c-0.027,0.098,0.044,0.224,0.141,0.253c0.48,0.141,1.682,0.207,2.236,0.165c0.101-0.008,0.134,0.045,0.086,0.134
		c-0.019,0.035-0.036,0.068-0.051,0.1c-0.042,0.092,0.013,0.195,0.114,0.208c0.502,0.061,1.448-0.073,2.085-0.288
		c0.096-0.032,0.13,0.007,0.083,0.097c-0.044,0.084-0.075,0.152-0.101,0.211c-0.04,0.093,0.009,0.169,0.11,0.158
		c0.804-0.09,1.849-0.749,2.305-1.043c0.085-0.055,0.127-0.021,0.105,0.078c-0.02,0.087-0.031,0.172-0.032,0.258
		C72.378,59.926,72.465,59.971,72.553,59.923z"/>
	<path d="M95.494,82.577c-0.008,0.101,0.082,0.176,0.18,0.153c0.035-0.008,0.071-0.018,0.109-0.03
		c0.097-0.03,0.142,0.014,0.114,0.111c-0.152,0.535-0.329,1.726-0.287,2.224c0.009,0.101,0.119,0.195,0.22,0.189
		c0.499-0.033,1.65-0.385,2.156-0.615c0.092-0.042,0.142-0.004,0.127,0.097c-0.006,0.039-0.01,0.076-0.013,0.112
		c-0.008,0.101,0.08,0.179,0.178,0.156c0.493-0.116,1.334-0.568,1.858-0.989c0.079-0.063,0.124-0.038,0.111,0.063
		c-0.012,0.094-0.018,0.168-0.021,0.233c-0.006,0.101,0.067,0.156,0.157,0.11c0.723-0.361,1.477-1.34,1.804-1.773
		c0.061-0.081,0.112-0.064,0.125,0.037c0.012,0.089,0.031,0.172,0.059,0.253c0.034,0.096,0.131,0.108,0.198,0.032
		c0.924-1.062,0.559-2.752,0.324-4.796c-0.012-0.101-0.096-0.143-0.185-0.096l-2.219,1.644c-0.09,0.047-0.137,0.008-0.105-0.089
		l1.212-2.434c0.031-0.096-0.025-0.173-0.126-0.168c-2.014,0.096-3.705-0.024-4.604,1.032c-0.066,0.077-0.039,0.172,0.061,0.191
		c0.083,0.016,0.167,0.022,0.259,0.02c0.101-0.002,0.126,0.046,0.055,0.119c-0.379,0.388-1.235,1.28-1.484,2.049
		c-0.031,0.096,0.034,0.16,0.133,0.139c0.063-0.013,0.135-0.03,0.226-0.056c0.097-0.028,0.13,0.013,0.079,0.101
		C95.856,81.174,95.535,82.073,95.494,82.577z"/>
	<path d="M100.787,53.747c-0.063,0.079-0.038,0.17,0.059,0.2c1.961,0.621,3.551,1.301,4.77,0.596c0.088-0.051,0.094-0.149,0.007-0.2
		c-0.074-0.044-0.152-0.078-0.237-0.106c-0.096-0.032-0.103-0.085-0.012-0.13c0.487-0.239,1.592-0.792,2.084-1.433
		c0.062-0.08,0.022-0.162-0.078-0.176c-0.064-0.009-0.138-0.017-0.233-0.023c-0.101-0.006-0.118-0.056-0.04-0.121
		c0.514-0.434,1.118-1.174,1.325-1.635c0.042-0.092-0.018-0.194-0.119-0.205c-0.035-0.004-0.073-0.007-0.112-0.008
		c-0.101-0.004-0.129-0.06-0.071-0.143c0.322-0.453,0.887-1.515,1.015-1.999c0.026-0.098-0.046-0.224-0.143-0.252
		c-0.481-0.136-1.683-0.19-2.237-0.142c-0.101,0.009-0.135-0.044-0.088-0.133c0.019-0.035,0.035-0.069,0.05-0.101
		c0.042-0.092-0.015-0.195-0.116-0.206c-0.503-0.056-1.447,0.088-2.082,0.31c-0.096,0.033-0.13-0.006-0.084-0.096
		c0.043-0.084,0.073-0.152,0.098-0.212c0.039-0.093-0.011-0.17-0.111-0.157c-0.802,0.098-1.841,0.768-2.294,1.066
		c-0.085,0.056-0.128,0.022-0.106-0.077c0.02-0.09,0.03-0.173,0.03-0.258c0-0.101-0.087-0.146-0.176-0.096
		c-1.208,0.681-1.412,2.364-1.89,4.323c-0.024,0.099,0.04,0.169,0.141,0.156l2.621-0.726c0.101-0.013,0.13,0.041,0.067,0.12
		L100.787,53.747z"/>
	<path d="M99.19,43.833c0.026-0.098-0.046-0.224-0.143-0.252c-0.481-0.136-1.683-0.19-2.237-0.142
		c-0.101,0.009-0.135-0.044-0.087-0.133c0.019-0.035,0.035-0.069,0.05-0.101c0.042-0.092-0.015-0.195-0.116-0.206
		c-0.503-0.056-1.447,0.088-2.082,0.31c-0.096,0.033-0.13-0.006-0.084-0.096c0.043-0.084,0.073-0.152,0.098-0.212
		c0.039-0.093-0.01-0.17-0.111-0.157c-0.802,0.098-1.841,0.768-2.294,1.066c-0.085,0.056-0.128,0.022-0.106-0.077
		c0.02-0.09,0.03-0.173,0.03-0.258c0-0.101-0.087-0.146-0.176-0.096c-1.208,0.681-1.412,2.364-1.89,4.323
		c-0.024,0.099,0.04,0.169,0.141,0.156l2.621-0.726c0.101-0.013,0.131,0.041,0.067,0.12l-2.036,1.865
		c-0.064,0.079-0.038,0.17,0.059,0.2c1.961,0.621,3.551,1.301,4.77,0.596c0.088-0.051,0.094-0.149,0.007-0.2
		c-0.074-0.044-0.152-0.078-0.237-0.106c-0.096-0.032-0.103-0.085-0.012-0.13c0.487-0.239,1.592-0.792,2.084-1.433
		c0.062-0.08,0.022-0.162-0.078-0.176c-0.064-0.009-0.138-0.017-0.233-0.023c-0.101-0.006-0.118-0.056-0.04-0.121
		c0.514-0.434,1.118-1.174,1.325-1.635c0.042-0.092-0.018-0.194-0.119-0.205c-0.035-0.004-0.073-0.007-0.112-0.008
		c-0.101-0.004-0.129-0.06-0.071-0.143C98.498,45.379,99.063,44.317,99.19,43.833z"/>
	<path d="M74.889,46.001c0.134-2.053,0.415-3.759-0.56-4.774c-0.07-0.073-0.167-0.056-0.196,0.041
		c-0.025,0.083-0.039,0.166-0.047,0.256c-0.008,0.101-0.058,0.12-0.123,0.043c-0.348-0.416-1.149-1.357-1.89-1.682
		c-0.093-0.041-0.163,0.017-0.152,0.118c0.007,0.064,0.016,0.138,0.033,0.232c0.018,0.1-0.026,0.128-0.108,0.068
		c-0.544-0.395-1.407-0.805-1.904-0.896c-0.1-0.018-0.184,0.064-0.171,0.164c0.005,0.035,0.011,0.072,0.019,0.111
		c0.02,0.099-0.028,0.14-0.122,0.103c-0.516-0.205-1.683-0.5-2.183-0.508c-0.101-0.002-0.207,0.098-0.21,0.199
		c-0.018,0.499,0.218,1.68,0.396,2.207c0.032,0.096-0.01,0.142-0.108,0.117c-0.038-0.01-0.075-0.018-0.11-0.024
		c-0.1-0.018-0.186,0.061-0.173,0.162c0.066,0.502,0.431,1.384,0.798,1.947c0.055,0.085,0.025,0.128-0.074,0.105
		c-0.092-0.022-0.165-0.035-0.229-0.045c-0.1-0.016-0.162,0.051-0.126,0.146c0.287,0.756,1.185,1.604,1.583,1.973
		c0.074,0.069,0.052,0.119-0.049,0.121c-0.092,0.002-0.175,0.012-0.258,0.033c-0.099,0.024-0.121,0.12-0.051,0.194
		c0.95,1.011,2.633,0.807,4.65,0.803c0.101,0,0.154-0.079,0.118-0.174l-1.331-2.372c-0.036-0.095,0.009-0.137,0.101-0.094
		l2.297,1.532C74.801,46.149,74.883,46.102,74.889,46.001z"/>
	<path d="M82.509,58.334c-0.098,0.024-0.121,0.12-0.051,0.194c0.95,1.011,2.633,0.807,4.65,0.803c0.101,0,0.154-0.079,0.118-0.174
		l-1.331-2.372c-0.036-0.095,0.009-0.137,0.101-0.094l2.297,1.532c0.092,0.043,0.174-0.004,0.181-0.105
		c0.134-2.053,0.415-3.759-0.56-4.774c-0.07-0.073-0.167-0.056-0.196,0.041c-0.024,0.083-0.039,0.166-0.046,0.256
		c-0.008,0.101-0.058,0.12-0.123,0.043c-0.348-0.416-1.149-1.357-1.89-1.682c-0.093-0.041-0.162,0.017-0.152,0.118
		c0.007,0.064,0.016,0.138,0.033,0.232c0.018,0.1-0.026,0.128-0.108,0.068c-0.544-0.395-1.407-0.805-1.904-0.896
		c-0.1-0.018-0.184,0.064-0.171,0.164c0.005,0.035,0.011,0.072,0.019,0.111c0.02,0.099-0.028,0.14-0.122,0.103
		c-0.517-0.205-1.683-0.5-2.184-0.508c-0.101-0.002-0.207,0.098-0.21,0.199c-0.017,0.499,0.218,1.68,0.396,2.207
		c0.032,0.096-0.01,0.142-0.109,0.117c-0.038-0.01-0.075-0.018-0.11-0.024c-0.1-0.018-0.186,0.061-0.172,0.162
		c0.066,0.502,0.431,1.384,0.798,1.947c0.055,0.085,0.025,0.128-0.073,0.105c-0.092-0.022-0.165-0.035-0.229-0.045
		c-0.1-0.016-0.162,0.051-0.126,0.146c0.287,0.756,1.185,1.604,1.583,1.973c0.074,0.069,0.052,0.119-0.049,0.121
		C82.674,58.304,82.591,58.314,82.509,58.334z"/>
	<path d="M99.73,37.836c0.134-2.053,0.415-3.759-0.56-4.774c-0.07-0.073-0.167-0.056-0.196,0.041
		c-0.024,0.083-0.039,0.166-0.047,0.256c-0.008,0.101-0.058,0.12-0.123,0.043c-0.348-0.416-1.149-1.357-1.89-1.682
		c-0.093-0.041-0.163,0.017-0.152,0.118c0.007,0.064,0.016,0.138,0.033,0.232c0.018,0.1-0.026,0.128-0.108,0.068
		c-0.544-0.395-1.407-0.805-1.904-0.896c-0.1-0.018-0.184,0.064-0.171,0.164c0.005,0.035,0.011,0.072,0.019,0.111
		c0.02,0.099-0.028,0.14-0.122,0.103c-0.516-0.205-1.683-0.5-2.183-0.508c-0.101-0.002-0.207,0.098-0.21,0.199
		c-0.018,0.499,0.218,1.68,0.396,2.207c0.032,0.096-0.01,0.142-0.108,0.117c-0.038-0.01-0.075-0.018-0.11-0.024
		c-0.1-0.018-0.186,0.061-0.172,0.162c0.066,0.502,0.431,1.384,0.798,1.947c0.055,0.085,0.025,0.128-0.074,0.105
		c-0.092-0.022-0.165-0.035-0.229-0.045c-0.1-0.016-0.162,0.051-0.126,0.146c0.287,0.756,1.185,1.604,1.583,1.973
		c0.074,0.069,0.052,0.119-0.049,0.121c-0.092,0.002-0.175,0.012-0.258,0.033c-0.099,0.024-0.121,0.12-0.051,0.194
		c0.95,1.011,2.633,0.807,4.65,0.803c0.101,0,0.154-0.079,0.118-0.174l-1.331-2.372c-0.036-0.095,0.009-0.137,0.101-0.094
		l2.297,1.532C99.641,37.984,99.723,37.937,99.73,37.836z"/>
	<path d="M87.699,67.181l2.297,1.532c0.092,0.043,0.174-0.004,0.181-0.105c0.134-2.053,0.415-3.759-0.56-4.774
		c-0.07-0.073-0.167-0.056-0.196,0.041c-0.025,0.083-0.039,0.166-0.047,0.256c-0.008,0.101-0.058,0.12-0.123,0.043
		c-0.348-0.416-1.149-1.357-1.89-1.682c-0.093-0.041-0.162,0.017-0.152,0.118c0.007,0.064,0.016,0.138,0.033,0.232
		c0.018,0.1-0.026,0.128-0.108,0.068c-0.544-0.395-1.406-0.805-1.904-0.896c-0.1-0.018-0.184,0.064-0.17,0.164
		c0.005,0.035,0.011,0.072,0.018,0.111c0.02,0.099-0.028,0.14-0.122,0.103c-0.516-0.205-1.683-0.5-2.183-0.508
		c-0.101-0.002-0.207,0.098-0.21,0.199c-0.017,0.499,0.218,1.68,0.396,2.207c0.032,0.096-0.01,0.142-0.108,0.117
		c-0.039-0.01-0.075-0.018-0.11-0.024c-0.1-0.018-0.186,0.061-0.172,0.162c0.066,0.502,0.431,1.384,0.798,1.947
		c0.055,0.085,0.025,0.128-0.073,0.105c-0.092-0.022-0.165-0.035-0.229-0.045c-0.1-0.016-0.162,0.051-0.126,0.146
		c0.287,0.756,1.185,1.604,1.583,1.973c0.074,0.069,0.052,0.119-0.049,0.121c-0.092,0.002-0.175,0.012-0.258,0.033
		c-0.099,0.024-0.121,0.12-0.051,0.194c0.95,1.011,2.633,0.807,4.649,0.803c0.101,0,0.154-0.079,0.118-0.174l-1.331-2.372
		C87.562,67.18,87.607,67.138,87.699,67.181z"/>
	<path d="M110.232,37.18c-0.025,0.083-0.039,0.166-0.047,0.256c-0.008,0.101-0.058,0.12-0.123,0.043
		c-0.348-0.416-1.149-1.357-1.89-1.682c-0.093-0.041-0.162,0.017-0.152,0.118c0.007,0.064,0.016,0.138,0.033,0.232
		c0.018,0.1-0.026,0.128-0.108,0.068c-0.544-0.395-1.406-0.805-1.904-0.896c-0.1-0.018-0.184,0.064-0.171,0.164
		c0.005,0.035,0.011,0.072,0.019,0.111c0.02,0.099-0.028,0.14-0.122,0.103c-0.517-0.205-1.683-0.5-2.183-0.508
		c-0.101-0.002-0.207,0.098-0.21,0.199c-0.017,0.499,0.218,1.68,0.396,2.207c0.032,0.096-0.01,0.142-0.109,0.117
		c-0.038-0.01-0.075-0.018-0.11-0.024c-0.1-0.018-0.186,0.061-0.172,0.162c0.066,0.502,0.431,1.384,0.798,1.947
		c0.055,0.085,0.025,0.128-0.073,0.105c-0.092-0.022-0.165-0.034-0.229-0.045c-0.1-0.016-0.162,0.051-0.126,0.146
		c0.287,0.756,1.185,1.604,1.583,1.973c0.074,0.069,0.052,0.119-0.049,0.121c-0.092,0.002-0.175,0.012-0.258,0.033
		c-0.098,0.024-0.12,0.12-0.051,0.194c0.95,1.011,2.633,0.807,4.649,0.803c0.101,0,0.154-0.079,0.118-0.174l-1.331-2.372
		c-0.036-0.095,0.009-0.137,0.101-0.094l2.297,1.532c0.092,0.043,0.174-0.004,0.181-0.105c0.134-2.053,0.415-3.759-0.56-4.774
		C110.357,37.066,110.26,37.083,110.232,37.18z"/>
	<path d="M124.003,29.637l0.345-4.377c0.036-0.16,0.135-0.175,0.219-0.035l1.706,4.119c0.085,0.14,0.237,0.151,0.336,0.021
		c2.024-2.634,3.933-4.67,3.537-6.908c-0.029-0.161-0.174-0.225-0.3-0.12c-0.107,0.089-0.202,0.188-0.292,0.301
		c-0.102,0.128-0.187,0.109-0.204-0.054c-0.093-0.871-0.323-2.853-1.025-3.954c-0.088-0.138-0.233-0.123-0.31,0.022
		c-0.049,0.092-0.103,0.2-0.164,0.341c-0.065,0.15-0.15,0.148-0.206-0.006c-0.375-1.019-1.164-2.344-1.75-2.913
		c-0.117-0.114-0.304-0.079-0.376,0.067c-0.025,0.051-0.051,0.107-0.075,0.165c-0.062,0.151-0.163,0.163-0.256,0.028
		c-0.509-0.739-1.809-2.183-2.473-2.643c-0.135-0.093-0.365-0.054-0.461,0.079c-0.472,0.654-1.217,2.45-1.451,3.316
		c-0.043,0.158-0.141,0.181-0.25,0.059c-0.043-0.048-0.085-0.092-0.126-0.132c-0.117-0.114-0.304-0.084-0.377,0.062
		c-0.362,0.732-0.664,2.244-0.679,3.329c-0.002,0.164-0.081,0.194-0.193,0.074c-0.104-0.112-0.191-0.195-0.267-0.265
		c-0.12-0.111-0.263-0.078-0.3,0.082c-0.294,1.272,0.149,3.217,0.352,4.069c0.038,0.159-0.037,0.206-0.175,0.119
		c-0.126-0.08-0.246-0.141-0.375-0.188c-0.154-0.056-0.269,0.052-0.243,0.214c0.367,2.209,2.808,3.448,5.517,5.254
		C123.825,29.855,123.967,29.796,124.003,29.637z"/>
	<path d="M155.5,17.262c0.026-0.098-0.046-0.224-0.144-0.252c-0.481-0.136-1.683-0.19-2.237-0.142
		c-0.101,0.009-0.135-0.044-0.088-0.133c0.019-0.035,0.035-0.069,0.05-0.101c0.042-0.092-0.015-0.195-0.116-0.206
		c-0.503-0.056-1.447,0.088-2.082,0.31c-0.096,0.033-0.13-0.006-0.084-0.096c0.043-0.084,0.073-0.152,0.098-0.212
		c0.039-0.093-0.011-0.17-0.111-0.157c-0.803,0.098-1.841,0.768-2.294,1.066c-0.085,0.056-0.128,0.022-0.106-0.077
		c0.02-0.09,0.03-0.173,0.03-0.258c0-0.101-0.088-0.146-0.176-0.096c-1.208,0.681-1.412,2.364-1.89,4.323
		c-0.024,0.098,0.04,0.169,0.141,0.156l2.621-0.726c0.101-0.013,0.13,0.041,0.067,0.12l-2.037,1.865
		c-0.063,0.079-0.038,0.17,0.059,0.2c1.961,0.621,3.551,1.301,4.77,0.596c0.088-0.051,0.094-0.149,0.007-0.2
		c-0.074-0.044-0.152-0.078-0.237-0.106c-0.096-0.032-0.103-0.085-0.012-0.13c0.487-0.239,1.592-0.792,2.084-1.433
		c0.062-0.08,0.022-0.162-0.078-0.176c-0.064-0.009-0.138-0.017-0.233-0.023c-0.101-0.006-0.117-0.056-0.04-0.121
		c0.514-0.434,1.118-1.174,1.325-1.635c0.042-0.092-0.018-0.194-0.119-0.205c-0.035-0.004-0.073-0.007-0.112-0.008
		c-0.101-0.004-0.129-0.06-0.071-0.143C154.807,18.808,155.372,17.746,155.5,17.262z"/>
	<path d="M119.427,34.603l2.297,1.532c0.092,0.043,0.174-0.004,0.18-0.105c0.134-2.053,0.415-3.759-0.56-4.774
		c-0.07-0.073-0.167-0.056-0.196,0.041c-0.025,0.083-0.039,0.166-0.047,0.256c-0.008,0.101-0.058,0.12-0.123,0.043
		c-0.348-0.416-1.149-1.357-1.89-1.682c-0.093-0.041-0.162,0.017-0.152,0.118c0.007,0.064,0.016,0.138,0.033,0.232
		c0.018,0.1-0.026,0.128-0.108,0.068c-0.544-0.395-1.406-0.805-1.904-0.896c-0.1-0.018-0.184,0.064-0.17,0.164
		c0.005,0.035,0.011,0.072,0.019,0.111c0.02,0.099-0.028,0.14-0.122,0.103c-0.516-0.205-1.683-0.5-2.183-0.508
		c-0.101-0.002-0.207,0.098-0.21,0.199c-0.017,0.499,0.218,1.68,0.396,2.207c0.032,0.096-0.01,0.142-0.108,0.117
		c-0.039-0.01-0.075-0.018-0.11-0.024c-0.1-0.018-0.186,0.061-0.172,0.162c0.066,0.502,0.431,1.384,0.798,1.947
		c0.055,0.085,0.025,0.128-0.074,0.105c-0.092-0.022-0.165-0.035-0.229-0.045c-0.1-0.016-0.162,0.051-0.126,0.146
		c0.287,0.756,1.185,1.604,1.583,1.973c0.074,0.069,0.052,0.119-0.049,0.121c-0.093,0.002-0.175,0.012-0.258,0.033
		c-0.099,0.024-0.12,0.12-0.051,0.194c0.95,1.011,2.633,0.807,4.65,0.803c0.101,0,0.154-0.079,0.118-0.174l-1.331-2.372
		C119.29,34.602,119.335,34.56,119.427,34.603z"/>
	<path d="M33.517,40.602c-0.126-0.08-0.246-0.141-0.375-0.188c-0.154-0.056-0.269,0.052-0.242,0.214
		c0.367,2.209,2.808,3.448,5.517,5.254c0.136,0.091,0.278,0.032,0.315-0.128l0.239-3.032c0.288,0.013,0.587,0.018,0.903,0.015
		l1.128,2.724c0.085,0.14,0.237,0.151,0.337,0.021c2.024-2.634,3.933-4.67,3.536-6.909c-0.029-0.161-0.174-0.225-0.3-0.12
		c-0.107,0.089-0.202,0.188-0.292,0.301c-0.102,0.128-0.186,0.109-0.204-0.054c-0.093-0.871-0.323-2.853-1.025-3.954
		c-0.088-0.138-0.234-0.123-0.31,0.022c-0.049,0.092-0.103,0.2-0.164,0.341c-0.065,0.15-0.149,0.148-0.206-0.006
		c-0.375-1.019-1.164-2.344-1.75-2.913c-0.117-0.114-0.304-0.079-0.376,0.067c-0.025,0.051-0.05,0.106-0.075,0.165
		c-0.062,0.151-0.163,0.163-0.256,0.028c-0.509-0.739-1.809-2.183-2.473-2.643c-0.135-0.093-0.366-0.054-0.461,0.079
		c-0.472,0.654-1.217,2.45-1.451,3.316c-0.042,0.158-0.141,0.181-0.25,0.059c-0.043-0.048-0.085-0.092-0.126-0.132
		c-0.117-0.114-0.304-0.084-0.377,0.062c-0.362,0.732-0.665,2.244-0.679,3.329c-0.002,0.164-0.081,0.194-0.193,0.074
		c-0.104-0.112-0.191-0.195-0.267-0.265c-0.12-0.111-0.263-0.078-0.3,0.082c-0.294,1.272,0.149,3.217,0.352,4.069
		C33.73,40.643,33.656,40.69,33.517,40.602z"/>
	<path d="M56.499,27.073c-0.099,0.024-0.121,0.12-0.051,0.194c0.95,1.011,2.633,0.807,4.65,0.803c0.101,0,0.154-0.079,0.118-0.174
		l-1.331-2.371c-0.036-0.095,0.009-0.137,0.101-0.094l2.297,1.532c0.092,0.043,0.174-0.004,0.181-0.105
		c0.134-2.053,0.415-3.759-0.56-4.774c-0.07-0.073-0.167-0.056-0.196,0.041c-0.024,0.083-0.039,0.166-0.046,0.256
		c-0.008,0.101-0.058,0.12-0.123,0.043c-0.348-0.416-1.15-1.357-1.89-1.682c-0.093-0.041-0.162,0.017-0.152,0.118
		c0.007,0.064,0.016,0.138,0.033,0.232c0.018,0.1-0.026,0.128-0.108,0.068c-0.544-0.395-1.407-0.805-1.904-0.896
		c-0.1-0.018-0.184,0.064-0.171,0.164c0.005,0.035,0.011,0.072,0.019,0.111c0.02,0.099-0.028,0.14-0.122,0.103
		c-0.517-0.205-1.683-0.5-2.184-0.508c-0.101-0.002-0.207,0.098-0.21,0.199c-0.017,0.499,0.218,1.68,0.396,2.207
		c0.033,0.096-0.01,0.142-0.108,0.117c-0.038-0.01-0.075-0.018-0.11-0.024c-0.1-0.018-0.186,0.061-0.172,0.162
		c0.066,0.502,0.431,1.384,0.798,1.947c0.055,0.085,0.025,0.128-0.074,0.105c-0.092-0.022-0.165-0.035-0.229-0.045
		c-0.1-0.016-0.162,0.051-0.126,0.146c0.287,0.756,1.185,1.604,1.583,1.973c0.074,0.069,0.052,0.119-0.049,0.121
		C56.664,27.043,56.581,27.053,56.499,27.073z"/>
	<path d="M84.078,23.803l2.297,1.532c0.092,0.043,0.174-0.004,0.181-0.105c0.134-2.053,0.415-3.759-0.56-4.774
		c-0.07-0.073-0.167-0.056-0.196,0.041c-0.024,0.083-0.039,0.166-0.047,0.256c-0.008,0.101-0.058,0.12-0.123,0.043
		c-0.348-0.416-1.149-1.357-1.89-1.682c-0.093-0.041-0.163,0.017-0.152,0.118c0.007,0.064,0.016,0.138,0.033,0.232
		c0.018,0.1-0.026,0.128-0.108,0.068c-0.544-0.395-1.407-0.805-1.904-0.896c-0.1-0.018-0.184,0.064-0.171,0.164
		c0.005,0.035,0.011,0.072,0.019,0.111c0.02,0.099-0.028,0.14-0.122,0.103c-0.516-0.205-1.683-0.5-2.183-0.508
		c-0.101-0.002-0.207,0.098-0.21,0.199c-0.018,0.499,0.218,1.68,0.396,2.207c0.032,0.096-0.01,0.142-0.108,0.117
		c-0.038-0.01-0.075-0.018-0.11-0.024c-0.1-0.018-0.186,0.061-0.172,0.162c0.066,0.502,0.431,1.384,0.798,1.947
		c0.055,0.085,0.025,0.128-0.074,0.105c-0.092-0.022-0.165-0.035-0.229-0.045c-0.1-0.016-0.162,0.051-0.126,0.146
		c0.287,0.756,1.185,1.604,1.583,1.973c0.074,0.069,0.052,0.119-0.049,0.121c-0.092,0.002-0.175,0.012-0.258,0.032
		c-0.099,0.024-0.121,0.12-0.051,0.194c0.95,1.011,2.633,0.807,4.65,0.803c0.101,0,0.154-0.079,0.118-0.174l-1.331-2.372
		C83.941,23.802,83.987,23.76,84.078,23.803z"/>
	<path d="M163.409,27.392c-0.04-0.093-0.13-0.099-0.191-0.018c-0.039,0.052-0.083,0.112-0.135,0.191
		c-0.055,0.085-0.106,0.075-0.125-0.025c-0.125-0.661-0.472-1.55-0.772-1.958c-0.06-0.082-0.177-0.079-0.237,0.003
		c-0.021,0.029-0.042,0.06-0.062,0.093c-0.053,0.086-0.116,0.083-0.159-0.009c-0.236-0.503-0.883-1.518-1.241-1.867
		c-0.073-0.071-0.218-0.07-0.29,0.001c-0.355,0.352-0.993,1.372-1.224,1.878c-0.042,0.092-0.105,0.096-0.159,0.011
		c-0.021-0.034-0.043-0.065-0.064-0.093c-0.06-0.082-0.177-0.083-0.237,0c-0.296,0.41-0.635,1.303-0.754,1.965
		c-0.018,0.1-0.069,0.11-0.125,0.026c-0.052-0.079-0.097-0.138-0.136-0.189c-0.062-0.08-0.153-0.074-0.192,0.019
		c-0.309,0.747-0.237,1.98-0.2,2.522c0.007,0.101-0.043,0.122-0.119,0.055c-0.069-0.062-0.136-0.111-0.21-0.153
		c-0.088-0.05-0.17,0.004-0.17,0.106c-0.001,1.387,1.364,2.393,2.834,3.772c0.074,0.069,0.167,0.048,0.205-0.046l0.657-2.639
		c0.038-0.094,0.1-0.093,0.138,0.001l0.622,2.69c0.037,0.094,0.129,0.116,0.203,0.047c1.505-1.402,2.879-2.452,2.865-3.86
		c-0.001-0.101-0.083-0.155-0.171-0.104c-0.075,0.043-0.143,0.094-0.209,0.154c-0.075,0.068-0.125,0.048-0.119-0.054
		C163.664,29.37,163.725,28.136,163.409,27.392z"/>
	<path d="M114.112,23.738c-0.029-0.161-0.174-0.225-0.3-0.12c-0.107,0.089-0.202,0.188-0.292,0.301
		c-0.102,0.128-0.186,0.109-0.204-0.054c-0.093-0.871-0.323-2.853-1.025-3.954c-0.088-0.138-0.233-0.123-0.31,0.022
		c-0.049,0.093-0.103,0.2-0.164,0.341c-0.065,0.15-0.149,0.148-0.206-0.006c-0.375-1.019-1.164-2.344-1.75-2.913
		c-0.117-0.114-0.304-0.079-0.376,0.067c-0.025,0.051-0.051,0.107-0.075,0.165c-0.062,0.151-0.163,0.163-0.256,0.028
		c-0.509-0.739-1.809-2.183-2.473-2.643c-0.135-0.093-0.365-0.054-0.461,0.079c-0.472,0.654-1.217,2.45-1.451,3.316
		c-0.043,0.158-0.141,0.181-0.25,0.059c-0.043-0.048-0.085-0.092-0.126-0.132c-0.117-0.114-0.304-0.084-0.377,0.062
		c-0.362,0.732-0.664,2.244-0.679,3.329c-0.002,0.164-0.081,0.194-0.193,0.074c-0.104-0.112-0.19-0.195-0.267-0.265
		c-0.12-0.111-0.263-0.078-0.3,0.082c-0.294,1.272,0.149,3.217,0.352,4.069c0.038,0.159-0.037,0.206-0.175,0.119
		c-0.126-0.08-0.246-0.141-0.375-0.188c-0.154-0.056-0.269,0.052-0.242,0.214c0.367,2.209,2.808,3.448,5.517,5.254
		c0.136,0.091,0.278,0.032,0.315-0.128l0.345-4.377c0.036-0.16,0.135-0.175,0.219-0.035l1.706,4.119
		c0.085,0.14,0.237,0.151,0.337,0.021C112.6,28.013,114.509,25.976,114.112,23.738z"/>
	<path d="M78.389,10.645c-0.098,0.028-0.169,0.154-0.143,0.252c0.127,0.484,0.693,1.546,1.015,1.999
		c0.059,0.083,0.031,0.139-0.071,0.143c-0.039,0.002-0.077,0.005-0.112,0.008c-0.101,0.011-0.161,0.112-0.119,0.205
		c0.208,0.461,0.812,1.201,1.325,1.635c0.077,0.065,0.061,0.115-0.04,0.121c-0.095,0.006-0.169,0.015-0.233,0.023
		c-0.1,0.014-0.14,0.095-0.078,0.176c0.492,0.641,1.597,1.195,2.084,1.433c0.091,0.045,0.084,0.098-0.012,0.13
		c-0.085,0.028-0.163,0.063-0.237,0.106c-0.087,0.051-0.081,0.149,0.007,0.2c1.219,0.705,2.808,0.025,4.77-0.596
		c0.097-0.031,0.122-0.121,0.059-0.2l-2.036-1.865c-0.064-0.079-0.034-0.133,0.067-0.12l2.621,0.726
		c0.101,0.013,0.165-0.058,0.141-0.156c-0.478-1.959-0.682-3.642-1.89-4.323c-0.088-0.05-0.176-0.005-0.176,0.096
		c0,0.085,0.01,0.168,0.03,0.258c0.022,0.099-0.021,0.133-0.106,0.077c-0.453-0.298-1.491-0.968-2.294-1.066
		c-0.101-0.012-0.151,0.064-0.111,0.157c0.025,0.06,0.055,0.127,0.098,0.212c0.046,0.09,0.012,0.13-0.084,0.096
		c-0.635-0.222-1.579-0.366-2.082-0.31c-0.101,0.011-0.158,0.114-0.116,0.206c0.015,0.033,0.031,0.066,0.05,0.101
		c0.048,0.089,0.014,0.142-0.088,0.133C80.072,10.455,78.869,10.508,78.389,10.645z"/>
	<path d="M117.908,16.796c0.069-0.074,0.047-0.169-0.051-0.194c-0.083-0.02-0.165-0.03-0.258-0.033
		c-0.101-0.003-0.124-0.052-0.049-0.121c0.398-0.369,1.296-1.217,1.583-1.973c0.036-0.095-0.026-0.161-0.126-0.146
		c-0.064,0.01-0.137,0.023-0.229,0.045c-0.099,0.023-0.129-0.02-0.074-0.105c0.367-0.564,0.732-1.446,0.798-1.947
		c0.013-0.101-0.073-0.18-0.172-0.162c-0.035,0.006-0.072,0.015-0.11,0.024c-0.098,0.025-0.141-0.021-0.108-0.117
		c0.178-0.527,0.414-1.707,0.396-2.207c-0.004-0.101-0.109-0.201-0.21-0.199c-0.5,0.008-1.667,0.303-2.183,0.508
		c-0.094,0.037-0.142-0.003-0.122-0.103c0.008-0.039,0.014-0.076,0.019-0.111c0.013-0.101-0.071-0.183-0.17-0.164
		c-0.498,0.091-1.36,0.501-1.904,0.896c-0.082,0.06-0.126,0.032-0.108-0.068c0.017-0.094,0.026-0.167,0.033-0.232
		c0.011-0.101-0.059-0.159-0.152-0.118c-0.74,0.325-1.542,1.266-1.89,1.682c-0.065,0.078-0.115,0.058-0.123-0.043
		c-0.007-0.089-0.022-0.173-0.047-0.256c-0.029-0.097-0.125-0.115-0.196-0.041c-0.975,1.015-0.695,2.721-0.56,4.774
		c0.007,0.101,0.089,0.148,0.18,0.105l2.297-1.532c0.092-0.043,0.137-0.001,0.101,0.094l-1.331,2.372
		c-0.036,0.095,0.017,0.174,0.118,0.174C115.275,17.603,116.958,17.807,117.908,16.796z"/>
	<path d="M100.385,21.078c-0.129,0.047-0.249,0.108-0.375,0.188c-0.138,0.087-0.213,0.041-0.175-0.119
		c0.202-0.852,0.646-2.798,0.352-4.069c-0.037-0.159-0.18-0.193-0.3-0.082c-0.076,0.071-0.163,0.154-0.267,0.265
		c-0.112,0.12-0.19,0.089-0.193-0.074c-0.014-1.086-0.316-2.597-0.679-3.329c-0.073-0.147-0.26-0.177-0.377-0.062
		c-0.041,0.04-0.084,0.084-0.126,0.132c-0.109,0.122-0.208,0.099-0.25-0.059c-0.234-0.867-0.979-2.662-1.451-3.316
		c-0.096-0.133-0.327-0.172-0.461-0.079c-0.664,0.46-1.964,1.904-2.473,2.643c-0.093,0.135-0.193,0.123-0.256-0.028
		c-0.024-0.059-0.049-0.114-0.075-0.165c-0.073-0.147-0.259-0.181-0.376-0.067c-0.586,0.57-1.375,1.894-1.75,2.913
		c-0.057,0.154-0.141,0.156-0.206,0.006c-0.061-0.141-0.115-0.248-0.164-0.341c-0.076-0.145-0.222-0.16-0.31-0.022
		c-0.701,1.101-0.932,3.083-1.025,3.954c-0.017,0.163-0.102,0.182-0.204,0.054c-0.09-0.113-0.185-0.212-0.292-0.301
		c-0.126-0.104-0.271-0.041-0.3,0.12c-0.397,2.238,1.512,4.275,3.536,6.908c0.1,0.13,0.252,0.119,0.337-0.021l1.706-4.119
		c0.085-0.14,0.183-0.124,0.219,0.035l0.345,4.377c0.037,0.16,0.178,0.218,0.315,0.128c2.708-1.806,5.15-3.045,5.517-5.254
		C100.654,21.13,100.538,21.021,100.385,21.078z"/>
	<path d="M138.01,33.722l2.297,1.532c0.092,0.043,0.174-0.004,0.181-0.105c0.134-2.053,0.415-3.759-0.56-4.774
		c-0.07-0.073-0.167-0.056-0.196,0.041c-0.024,0.083-0.039,0.166-0.046,0.256c-0.008,0.101-0.058,0.12-0.123,0.043
		c-0.348-0.416-1.15-1.357-1.89-1.682c-0.093-0.041-0.162,0.017-0.152,0.118c0.007,0.064,0.016,0.138,0.033,0.232
		c0.018,0.1-0.026,0.128-0.108,0.068c-0.544-0.395-1.407-0.805-1.904-0.896c-0.1-0.018-0.184,0.064-0.171,0.164
		c0.005,0.035,0.011,0.072,0.019,0.111c0.02,0.099-0.028,0.14-0.122,0.103c-0.516-0.205-1.683-0.5-2.183-0.508
		c-0.101-0.002-0.207,0.098-0.21,0.199c-0.017,0.499,0.218,1.68,0.396,2.207c0.033,0.096-0.01,0.142-0.108,0.117
		c-0.038-0.01-0.075-0.018-0.11-0.024c-0.1-0.018-0.186,0.061-0.172,0.162c0.066,0.502,0.431,1.384,0.798,1.947
		c0.055,0.085,0.025,0.128-0.074,0.105c-0.092-0.022-0.165-0.035-0.229-0.045c-0.1-0.016-0.162,0.051-0.126,0.146
		c0.287,0.756,1.185,1.604,1.583,1.973c0.074,0.069,0.052,0.119-0.049,0.121c-0.092,0.002-0.175,0.012-0.258,0.033
		c-0.099,0.024-0.121,0.12-0.051,0.194c0.95,1.011,2.633,0.807,4.65,0.803c0.101,0,0.154-0.079,0.118-0.174l-1.331-2.372
		C137.873,33.721,137.918,33.679,138.01,33.722z"/>
	<path d="M139.927,16.625c-0.07-0.073-0.167-0.056-0.196,0.041c-0.024,0.083-0.039,0.166-0.046,0.256
		c-0.008,0.101-0.058,0.12-0.123,0.043c-0.348-0.416-1.15-1.357-1.89-1.682c-0.093-0.041-0.162,0.017-0.152,0.118
		c0.007,0.064,0.016,0.138,0.033,0.232c0.018,0.1-0.026,0.128-0.108,0.068c-0.544-0.395-1.407-0.805-1.904-0.896
		c-0.1-0.018-0.184,0.064-0.171,0.164c0.005,0.035,0.011,0.072,0.019,0.111c0.02,0.099-0.028,0.14-0.122,0.103
		c-0.516-0.205-1.683-0.5-2.183-0.508c-0.101-0.002-0.207,0.098-0.21,0.199c-0.017,0.499,0.218,1.68,0.396,2.207
		c0.033,0.096-0.01,0.142-0.108,0.117c-0.038-0.01-0.075-0.018-0.11-0.024c-0.1-0.018-0.186,0.061-0.172,0.162
		c0.066,0.502,0.431,1.384,0.798,1.947c0.055,0.085,0.025,0.128-0.074,0.105c-0.092-0.022-0.165-0.035-0.229-0.045
		c-0.1-0.016-0.162,0.051-0.126,0.146c0.287,0.756,1.185,1.604,1.583,1.973c0.074,0.069,0.052,0.119-0.049,0.121
		c-0.092,0.002-0.175,0.012-0.258,0.033c-0.099,0.024-0.121,0.12-0.051,0.194c0.95,1.011,2.633,0.807,4.65,0.803
		c0.101,0,0.154-0.079,0.118-0.174l-1.331-2.372c-0.036-0.095,0.009-0.137,0.101-0.094l2.297,1.532
		c0.092,0.043,0.174-0.004,0.181-0.105C140.622,19.346,140.902,17.64,139.927,16.625z"/>
</g>
</svg>
