<?xml version="1.0" encoding="iso-8859-1"?>
<!-- Generator: Adobe Illustrator 19.0.0, SVG Export Plug-In . SVG Version: 6.00 Build 0)  -->
<svg version="1.1" id="Capa_1" xmlns="http://www.w3.org/2000/svg" xmlns:xlink="http://www.w3.org/1999/xlink" x="0px" y="0px"
	 viewBox="0 0 463 463" style="enable-background:new 0 0 463 463;" xml:space="preserve">
<g>
	<path d="M423.5,264h-12.487l-37.751-45.301c-1.425-1.71-3.536-2.699-5.762-2.699h-18.097c1.027-2.638,1.597-5.503,1.597-8.5
		c0-12.958-10.542-23.5-23.5-23.5h-11.365l-13.927-27.854c-1.271-2.541-3.867-4.146-6.708-4.146H287V86.661
		c9.059-1.55,16.515-8.297,18.807-17.462L309.356,55H319.5c4.143,0,7.5-3.358,7.5-7.5V15h16.5c4.143,0,7.5-3.358,7.5-7.5
		S347.643,0,343.5,0h-224c-4.143,0-7.5,3.358-7.5,7.5s3.357,7.5,7.5,7.5H136v32.5c0,4.142,3.357,7.5,7.5,7.5h10.144l3.55,14.2
		c2.292,9.164,9.748,15.911,18.807,17.461V152h-8.5c-2.841,0-5.438,1.605-6.708,4.146L146.865,184H135.5
		c-12.958,0-23.5,10.542-23.5,23.5c0,2.997,0.57,5.862,1.597,8.5H95.5c-2.226,0-4.337,0.989-5.762,2.699L51.987,264H39.5
		c-4.143,0-7.5,3.358-7.5,7.5v32c0,4.142,3.357,7.5,7.5,7.5h384c4.143,0,7.5-3.358,7.5-7.5v-32C431,267.358,427.643,264,423.5,264z
		 M336,207.5c0,4.687-3.813,8.5-8.5,8.5H319v-17h8.5C332.187,199,336,202.813,336,207.5z M279,216v-17h25v17H279z M239,216v-17h25
		v17H239z M199,216v-17h25v17H199z M159,216v-17h25v17H159z M255,152V87h17v65H255z M223,152V87h17v65H223z M151,15h161v25H151V15z
		 M171.746,65.562L169.106,55h124.788l-2.64,10.561c-0.947,3.792-4.339,6.439-8.246,6.439H179.992
		C176.085,72,172.693,69.353,171.746,65.562z M191,87h17v65h-17V87z M172.135,167h118.73l8.5,17h-135.73L172.135,167z M127,207.5
		c0-4.687,3.813-8.5,8.5-8.5h8.5v17h-8.5C130.813,216,127,212.187,127,207.5z M99.013,231h264.975l27.5,33H335v-8.5
		c0-4.142-3.357-7.5-7.5-7.5s-7.5,3.358-7.5,7.5v8.5h-81v-8.5c0-4.142-3.357-7.5-7.5-7.5s-7.5,3.358-7.5,7.5v8.5h-81v-8.5
		c0-4.142-3.357-7.5-7.5-7.5s-7.5,3.358-7.5,7.5v8.5H71.513L99.013,231z M416,296H47v-17h8.5h352h8.5V296z"/>
	<path d="M423.5,336h-384c-4.143,0-7.5,3.358-7.5,7.5v32c0,4.142,3.357,7.5,7.5,7.5h12.487L88,426.215V455.5
		c0,4.142,3.357,7.5,7.5,7.5h272c4.143,0,7.5-3.358,7.5-7.5v-29.285L411.013,383H423.5c4.143,0,7.5-3.358,7.5-7.5v-32
		C431,339.358,427.643,336,423.5,336z M360,448H103v-17h257V448z M363.987,416H99.013l-27.5-33H128v8.5c0,4.142,3.357,7.5,7.5,7.5
		s7.5-3.358,7.5-7.5V383h81v8.5c0,4.142,3.357,7.5,7.5,7.5s7.5-3.358,7.5-7.5V383h81v8.5c0,4.142,3.357,7.5,7.5,7.5
		s7.5-3.358,7.5-7.5V383h56.487L363.987,416z M416,368h-8.5h-352H47v-17h369V368z"/>
</g>
<g>
</g>
<g>
</g>
<g>
</g>
<g>
</g>
<g>
</g>
<g>
</g>
<g>
</g>
<g>
</g>
<g>
</g>
<g>
</g>
<g>
</g>
<g>
</g>
<g>
</g>
<g>
</g>
<g>
</g>
</svg>
