<?xml version="1.0" encoding="iso-8859-1"?>
<!-- Generator: Adobe Illustrator 16.0.0, SVG Export Plug-In . SVG Version: 6.00 Build 0)  -->
<!DOCTYPE svg PUBLIC "-//W3C//DTD SVG 1.1//EN" "http://www.w3.org/Graphics/SVG/1.1/DTD/svg11.dtd">
<svg version="1.1" id="Capa_1" xmlns="http://www.w3.org/2000/svg" xmlns:xlink="http://www.w3.org/1999/xlink" x="0px" y="0px"
	 width="471.699px" height="471.698px" viewBox="0 0 471.699 471.698" style="enable-background:new 0 0 471.699 471.698;"
	 xml:space="preserve">
<g>
	<g>
		<path d="M328.428,453.266c9.774,1.551,25.207,0,25.207,0s-14.407-82.813-18.001-115.723
			c-3.604-32.921-25.712-122.058-33.947-137.156c-2.865-5.26-5.054-10.253-6.439-15.349c-39.281,5.416-79.482,5.747-118.504-0.988
			c-1.353,5.438-3.683,10.74-6.739,16.336c-8.225,15.098-30.346,104.235-33.943,137.156
			c-3.603,32.909-17.999,115.723-17.999,115.723s15.433,1.551,25.207,0c9.774-1.539,2.575,10.287,2.575,10.287
			c12.858,7.723,33.943-5.654,39.094,3.086c5.142,8.752,36.003,4.115,32.917,1.034c-3.085-3.09,10.802-9.254,9.257-1.552
			c-1.557,7.723,8.728,4.12,8.728,4.12s10.285,3.603,8.745-4.111c-1.545-7.711,12.347-1.547,9.257,1.551
			c-3.094,3.09,27.775,7.71,32.909-1.03c5.153-8.744,26.244,4.633,39.101-3.09C325.852,463.553,318.655,451.735,328.428,453.266z"/>
		<path d="M304.6,11.062c-12.427,40.232-27.146,60.656-43.772,60.656c-11.812,0-20.913-10.458-24.987-16.13
			c-4.076,5.685-13.182,16.13-24.982,16.13c-16.623,0-31.351-20.424-43.777-60.656l-7.364,2.943c0,0,6.685,25.207,2.571,47.831
			c-4.111,22.632,3.604,71.493,11.325,91.042c3.042,7.716,4.354,14.375,4.376,20.55c38.091,6.752,77.392,6.486,115.755,1.122
			c-0.137-6.498,1.105-13.485,4.34-21.68c7.71-19.55,15.425-68.411,11.316-91.043c-4.111-22.63,2.573-47.831,2.573-47.831
			L304.6,11.062z"/>
		<path d="M291.52,4.614C285.037,3.438,281.478,0,275.331,0c-1.888,0-4.016,0.328-6.564,1.146c0,0,25.76,27.687-32.917,49.662
			c-58.675-21.975-32.917-49.662-32.917-49.662C200.387,0.328,198.251,0,196.362,0c-6.147,0-9.704,3.438-16.186,4.614
			c-8.488,1.549-11.191,4.631-11.191,4.631c0.104,0.331,0.196,0.613,0.301,0.936c14.312,46.45,29.384,59.184,41.581,59.184
			c13.425,0,23.363-15.362,24.982-18.023c1.625,2.661,11.563,18.023,24.979,18.023c12.202,0,27.274-12.726,41.581-59.184
			c0.107-0.323,0.2-0.613,0.304-0.936C302.712,9.245,300.008,6.163,291.52,4.614z"/>
	</g>
</g>
<g>
</g>
<g>
</g>
<g>
</g>
<g>
</g>
<g>
</g>
<g>
</g>
<g>
</g>
<g>
</g>
<g>
</g>
<g>
</g>
<g>
</g>
<g>
</g>
<g>
</g>
<g>
</g>
<g>
</g>
</svg>
