<?xml version="1.0" encoding="iso-8859-1"?>
<!-- Generator: Adobe Illustrator 18.0.0, SVG Export Plug-In . SVG Version: 6.00 Build 0)  -->
<!DOCTYPE svg PUBLIC "-//W3C//DTD SVG 1.1//EN" "http://www.w3.org/Graphics/SVG/1.1/DTD/svg11.dtd">
<svg version="1.1" id="Capa_1" xmlns="http://www.w3.org/2000/svg" xmlns:xlink="http://www.w3.org/1999/xlink" x="0px" y="0px"
	 viewBox="0 0 56 56" style="enable-background:new 0 0 56 56;" xml:space="preserve">
<g>
	<circle cx="19" cy="27.5" r="3.5"/>
	<circle cx="35" cy="27.5" r="3.5"/>
	<path d="M38.5,36c-0.553,0-1,0.447-1,1c0,5.514-4.486,10-10,10s-10-4.486-10-10c0-0.553-0.447-1-1-1s-1,0.447-1,1
		c0,6.617,5.383,12,12,12s12-5.383,12-12C39.5,36.447,39.053,36,38.5,36z"/>
	<path d="M50.5,11.5C50.5,5.052,40.617,0,28,0S5.5,5.052,5.5,11.5c0,2.919,2.023,5.625,5.721,7.717C7.668,23.126,5.5,28.314,5.5,34
		c0,12.131,9.869,22,22,22s22-9.869,22-22c0-5.515-2.044-10.558-5.409-14.424C48.233,17.439,50.5,14.605,50.5,11.5z M7.5,11.5
		C7.5,6.351,16.888,2,28,2s20.5,4.351,20.5,9.5c0,2.398-2.12,4.768-5.844,6.562c-0.055-0.052-0.115-0.096-0.17-0.147
		c-0.394-0.368-0.802-0.721-1.222-1.059c-0.142-0.115-0.285-0.227-0.429-0.337c-0.396-0.303-0.803-0.593-1.219-0.869
		c-0.182-0.121-0.365-0.238-0.55-0.353c-0.399-0.248-0.806-0.483-1.222-0.706c-0.206-0.11-0.413-0.216-0.622-0.319
		c-0.419-0.207-0.845-0.403-1.278-0.584c-0.204-0.085-0.409-0.164-0.615-0.243c-0.46-0.176-0.926-0.339-1.4-0.484
		c-0.174-0.053-0.35-0.101-0.526-0.15c-0.518-0.144-1.042-0.274-1.574-0.381c-0.125-0.025-0.252-0.045-0.378-0.068
		c-0.584-0.107-1.175-0.195-1.775-0.254c-0.065-0.006-0.131-0.009-0.197-0.015C28.827,12.035,28.168,12,27.5,12
		c-0.644,0-1.279,0.034-1.909,0.088c-0.07,0.006-0.141,0.009-0.212,0.016c-0.596,0.057-1.183,0.142-1.764,0.246
		c-0.104,0.019-0.208,0.036-0.312,0.056c-0.559,0.108-1.109,0.239-1.653,0.389c-0.123,0.034-0.245,0.068-0.367,0.104
		c-0.53,0.156-1.051,0.331-1.564,0.525c-0.126,0.048-0.251,0.098-0.376,0.149c-0.511,0.205-1.013,0.425-1.504,0.666
		c-0.112,0.055-0.222,0.114-0.333,0.171c-0.505,0.259-1.001,0.532-1.482,0.828c-0.078,0.048-0.153,0.099-0.23,0.148
		c-0.513,0.324-1.015,0.665-1.499,1.029c-0.03,0.023-0.059,0.047-0.089,0.07c-0.524,0.399-1.031,0.818-1.517,1.261
		C9.382,16,7.5,13.746,7.5,11.5z M27.5,54c-11.028,0-20-8.972-20-20c0-5.832,2.524-11.072,6.519-14.731
		c0.299-0.274,0.597-0.55,0.909-0.803c0.224-0.182,0.461-0.347,0.693-0.519c0.278-0.207,0.553-0.418,0.84-0.609
		c0.287-0.191,0.588-0.362,0.885-0.538c0.249-0.148,0.495-0.304,0.75-0.441c0.337-0.181,0.688-0.339,1.037-0.5
		c0.233-0.108,0.461-0.226,0.698-0.324c0.37-0.154,0.752-0.283,1.132-0.415c0.231-0.08,0.458-0.172,0.692-0.243
		c0.392-0.12,0.796-0.212,1.197-0.309c0.234-0.056,0.463-0.125,0.699-0.172c0.432-0.087,0.874-0.143,1.315-0.201
		c0.213-0.028,0.423-0.072,0.638-0.093C26.16,14.036,26.826,14,27.5,14c0.686,0,1.365,0.035,2.034,0.103
		c0.073,0.007,0.143,0.024,0.216,0.032c4.388,0.494,8.34,2.419,11.402,5.289c0.169,0.159,0.347,0.305,0.511,0.47
		C45.268,23.514,47.5,28.5,47.5,34C47.5,45.028,38.528,54,27.5,54z"/>
</g>
<g>
</g>
<g>
</g>
<g>
</g>
<g>
</g>
<g>
</g>
<g>
</g>
<g>
</g>
<g>
</g>
<g>
</g>
<g>
</g>
<g>
</g>
<g>
</g>
<g>
</g>
<g>
</g>
<g>
</g>
</svg>
