<?xml version="1.0" encoding="iso-8859-1"?>
<!-- Generator: Adobe Illustrator 19.0.0, SVG Export Plug-In . SVG Version: 6.00 Build 0)  -->
<svg version="1.1" id="Capa_1" xmlns="http://www.w3.org/2000/svg" xmlns:xlink="http://www.w3.org/1999/xlink" x="0px" y="0px"
	 viewBox="0 0 463 463" style="enable-background:new 0 0 463 463;" xml:space="preserve">
<g>
	<path d="M367.5,128h-89.99l5.692-72.102c1.134-14.363-3.824-28.668-13.602-39.249C259.822,6.068,245.95,0,231.457,0
		C217.05,0,203.178,6.068,193.4,16.649c-9.778,10.581-14.736,24.886-13.602,39.249L185.49,128H95.5C78.131,128,64,142.131,64,159.5
		v272c0,17.369,14.131,31.5,31.5,31.5h272c17.369,0,31.5-14.131,31.5-31.5v-272C399,142.131,384.869,128,367.5,128z
		 M264.865,288.165l3.595-45.539C285.631,254.606,296,274.176,296,295.5c0,35.565-28.935,64.5-64.5,64.5S167,331.065,167,295.5
		c0-21.41,10.351-40.918,27.539-52.881l3.596,45.546C199.5,305.456,214.155,319,231.5,319S263.5,305.456,264.865,288.165z
		 M193.213,225.817C167.709,239.816,152,266.215,152,295.5c0,43.836,35.664,79.5,79.5,79.5s79.5-35.664,79.5-79.5
		c0-29.17-15.741-55.674-41.213-69.678l1.443-18.279C305.514,223.022,328,257.329,328,295.5c0,53.21-43.29,96.5-96.5,96.5
		S135,348.71,135,295.5c0-38.227,22.471-72.482,56.77-87.957L193.213,225.817z M204.416,26.83c7.05-7.629,16.653-11.83,27.127-11.83
		c10.388,0,19.991,4.201,27.041,11.83c7.05,7.628,10.482,17.533,9.665,27.888l-18.337,232.267
		C249.159,296.526,241.071,304,231.5,304s-17.659-7.474-18.412-17.016L194.751,54.718C193.934,44.363,197.366,34.458,204.416,26.83z
		 M384,431.5c0,9.098-7.402,16.5-16.5,16.5h-272c-9.098,0-16.5-7.402-16.5-16.5v-272c0-9.098,7.402-16.5,16.5-16.5h91.174
		l3.852,48.785C148.128,208.517,120,249.526,120,295.5c0,61.481,50.019,111.5,111.5,111.5S343,356.981,343,295.5
		c0-45.909-28.147-86.99-70.525-103.722L276.326,143H367.5c9.098,0,16.5,7.402,16.5,16.5V431.5z"/>
	<path d="M99.5,152c-6.341,0-11.5,5.159-11.5,11.5S93.159,175,99.5,175s11.5-5.159,11.5-11.5S105.841,152,99.5,152z"/>
	<path d="M363.5,152c-6.341,0-11.5,5.159-11.5,11.5s5.159,11.5,11.5,11.5s11.5-5.159,11.5-11.5S369.841,152,363.5,152z"/>
	<path d="M99.5,416c-6.341,0-11.5,5.159-11.5,11.5S93.159,439,99.5,439s11.5-5.159,11.5-11.5S105.841,416,99.5,416z"/>
	<path d="M363.5,416c-6.341,0-11.5,5.159-11.5,11.5s5.159,11.5,11.5,11.5s11.5-5.159,11.5-11.5S369.841,416,363.5,416z"/>
</g>
<g>
</g>
<g>
</g>
<g>
</g>
<g>
</g>
<g>
</g>
<g>
</g>
<g>
</g>
<g>
</g>
<g>
</g>
<g>
</g>
<g>
</g>
<g>
</g>
<g>
</g>
<g>
</g>
<g>
</g>
</svg>
