<?xml version="1.0" encoding="iso-8859-1"?>
<!-- Generator: Adobe Illustrator 18.0.0, SVG Export Plug-In . SVG Version: 6.00 Build 0)  -->
<!DOCTYPE svg PUBLIC "-//W3C//DTD SVG 1.1//EN" "http://www.w3.org/Graphics/SVG/1.1/DTD/svg11.dtd">
<svg version="1.1" id="Capa_1" xmlns="http://www.w3.org/2000/svg" xmlns:xlink="http://www.w3.org/1999/xlink" x="0px" y="0px"
	 viewBox="0 0 480 480" style="enable-background:new 0 0 480 480;" xml:space="preserve">
<g>
	<path d="M50.559,264.87l19.461,4.613c4.174-17.608,17.568-36.12,35.829-49.519L94.017,203.84
		C71.713,220.204,55.874,242.449,50.559,264.87z"/>
	<path d="M436.675,107.671c20.123-5.506,35.196-27.241,35.196-53.157C471.871,24.455,451.596,0,426.675,0
		s-45.196,24.455-45.196,54.514c0,25.916,15.073,47.651,35.196,53.157v140.501h-43.354c-2.929-19.874-14.363-40.288-32.379-57.303
		c-19.216-18.148-42.876-29.423-61.748-29.423H102.986c-18.87,0-42.526,11.274-61.736,29.424
		c-21.049,19.886-33.121,44.417-33.121,67.302c0,35.913,10.264,65.597,29.683,85.841c18.146,18.916,43.16,28.915,72.34,28.915
		c38.792,0,66.946-18.07,80.949-41.49c14,23.42,42.146,41.49,80.929,41.49c29.181,0,54.199-9.998,72.35-28.914
		c17.593-18.335,27.674-44.41,29.421-75.842h42.874v21.198c0,15.298-7.719,49.312-28.985,80.316
		c-16.586,24.183-46.309,53.009-93.715,53.009h-52.978c-4.602-21.299-23.579-37.31-46.233-37.31
		c-26.086,0-47.309,21.223-47.309,47.31c0,26.084,21.223,47.305,47.309,47.305c22.654,0,41.63-16.009,46.233-37.305h52.978
		c56.113,0,90.904-33.551,110.208-61.696c22.324-32.548,32.492-70.313,32.492-91.629v-21.198H467.8v-20h-31.125V107.671z
		 M401.479,54.514c0-18.708,11.539-34.514,25.196-34.514s25.196,15.806,25.196,34.514c0,18.711-11.539,34.519-25.196,34.519
		S401.479,73.225,401.479,54.514z M329.949,330.167c-14.288,14.89-34.316,22.761-57.918,22.761
		c-34.865,0-70.928-21.152-70.928-56.551h-20c0,35.398-36.074,56.551-70.95,56.551c-23.6,0-43.624-7.87-57.907-22.76
		c-15.777-16.448-24.117-41.344-24.117-71.996c0-38.812,47.365-76.726,74.857-76.726h176.208c25.129,0,66.847,31.656,73.859,66.726
		h-15.841v20h16.538C352.11,294.245,343.977,315.548,329.949,330.167z M194.764,460c-15.058,0-27.309-12.249-27.309-27.305
		c0-15.059,12.25-27.31,27.309-27.31c15.057,0,27.307,12.251,27.307,27.31C222.07,447.751,209.821,460,194.764,460z"/>
</g>
<g>
</g>
<g>
</g>
<g>
</g>
<g>
</g>
<g>
</g>
<g>
</g>
<g>
</g>
<g>
</g>
<g>
</g>
<g>
</g>
<g>
</g>
<g>
</g>
<g>
</g>
<g>
</g>
<g>
</g>
</svg>
