<?xml version="1.0" encoding="utf-8"?>
<!-- Generator: Adobe Illustrator 17.0.0, SVG Export Plug-In . SVG Version: 6.00 Build 0)  -->
<!DOCTYPE svg PUBLIC "-//W3C//DTD SVG 1.1//EN" "http://www.w3.org/Graphics/SVG/1.1/DTD/svg11.dtd">
<svg version="1.1" id="Capa_1" xmlns="http://www.w3.org/2000/svg" xmlns:xlink="http://www.w3.org/1999/xlink" x="0px" y="0px"
	 width="31.33px" height="27.783px" viewBox="0 0 31.33 27.783" enable-background="new 0 0 31.33 27.783" preserveAspectRatio="fit">
<path d="M16.051,5.717L14.74,4.406c0.356-0.308,0.812-0.504,1.311-0.535V5.717z M13.985,6.217c0.032,0.503,0.231,0.96,0.543,1.317
	l1.317-1.317H13.985z M16.051,8.281v-1.87l-1.322,1.322C15.087,8.05,15.545,8.25,16.051,8.281z M14.541,4.606
	c-0.32,0.358-0.523,0.819-0.557,1.328h1.885L14.541,4.606z M18.397,5.935c-0.032-0.506-0.232-0.964-0.548-1.321l-1.322,1.321H18.397
	z M16.334,6.397v1.884c0.509-0.032,0.971-0.235,1.329-0.555L16.334,6.397z M16.334,3.869v1.86l1.314-1.315
	C17.292,4.101,16.836,3.902,16.334,3.869z M17.86,7.527c0.309-0.357,0.505-0.812,0.537-1.311h-1.846L17.86,7.527z M25.453,16.588
	c0.038,0.363,0.058,0.733,0.058,1.107c0,5.562-4.305,10.088-9.597,10.088c-5.291,0-9.596-4.526-9.596-10.088
	c0-0.437,0.03-0.868,0.083-1.289c-2.858-1.571-6.999-4.127-6.328-5.412c0,0,6.724-5.015,11.104-9.377c0,0,2.259-1.6,4.415-1.615
	c0,0,2.721-0.131,4.776,1.786c0,0,10.426,8.552,10.903,8.74C31.687,10.693,29.939,14.049,25.453,16.588z M12.284,6.078
	c0,0.127,0.104,0.231,0.233,0.231h0.564c0.077,0,0.142-0.036,0.186-0.092h0.349c0.032,0.607,0.274,1.155,0.652,1.579l-0.246,0.245
	c-0.067-0.009-0.14,0.013-0.194,0.064l-0.399,0.4c-0.092,0.093-0.092,0.24,0,0.33c0.091,0.092,0.239,0.092,0.33,0l0.399-0.399
	c0.053-0.052,0.074-0.127,0.064-0.195l0.246-0.245c0.425,0.383,0.977,0.625,1.584,0.658v0.359c-0.056,0.042-0.092,0.11-0.092,0.185
	v0.565c0,0.129,0.104,0.233,0.233,0.233c0.129,0,0.233-0.104,0.233-0.233V9.198c0-0.076-0.037-0.143-0.092-0.185V8.652
	c0.611-0.032,1.166-0.276,1.592-0.665l0.262,0.261c-0.009,0.069,0.011,0.141,0.065,0.194l0.4,0.399c0.09,0.091,0.236,0.09,0.33,0
	c0.09-0.09,0.09-0.238,0-0.33l-0.401-0.399c-0.052-0.053-0.127-0.076-0.196-0.064l-0.262-0.261c0.376-0.425,0.614-0.969,0.646-1.572
	h0.373c0.042,0.055,0.109,0.09,0.183,0.09h0.564c0.13,0,0.234-0.104,0.234-0.232c0-0.128-0.104-0.232-0.234-0.232h-0.564
	c-0.078,0-0.143,0.037-0.188,0.093h-0.371c-0.034-0.608-0.274-1.16-0.656-1.584l0.267-0.266c0.067,0.008,0.138-0.013,0.191-0.067
	l0.4-0.398c0.092-0.091,0.092-0.238,0-0.33c-0.091-0.09-0.238-0.09-0.329,0l-0.399,0.398c-0.054,0.054-0.076,0.129-0.066,0.199
	L17.91,4.152c-0.424-0.381-0.973-0.621-1.577-0.654V3.137c0.053-0.044,0.09-0.111,0.09-0.186V2.387c0-0.128-0.104-0.232-0.233-0.232
	c-0.128,0-0.232,0.104-0.232,0.232v0.564c0,0.078,0.037,0.145,0.093,0.187v0.36c-0.603,0.034-1.149,0.27-1.573,0.645l-0.249-0.249
	c0.011-0.068-0.011-0.141-0.064-0.194l-0.4-0.4c-0.09-0.091-0.237-0.091-0.329,0c-0.092,0.092-0.092,0.24,0,0.331l0.4,0.399
	c0.053,0.053,0.125,0.073,0.194,0.064l0.248,0.249c-0.387,0.427-0.631,0.982-0.663,1.592h-0.349
	c-0.044-0.056-0.11-0.092-0.186-0.092h-0.564C12.387,5.843,12.282,5.948,12.284,6.078z M23.356,21.362l-1.948-1.498
	c-0.422,0.265-0.919,0.421-1.453,0.421c-1.51,0-2.737-1.226-2.737-2.738c0-0.283,0.042-0.553,0.121-0.811l-6.086-4.676
	c-1.655,1.205-2.874,3.028-3.35,5.15c-0.057-0.03-0.117-0.062-0.177-0.094c-0.013,0.193-0.021,0.385-0.021,0.58
	c0,4.798,3.683,8.7,8.208,8.7C19.205,26.396,22.049,24.331,23.356,21.362z M24.122,17.695c0-0.141-0.003-0.28-0.009-0.418
	c-0.04,0.019-0.078,0.037-0.116,0.055c-0.814-3.89-4.118-6.814-8.061-6.814c-1.171,0-2.284,0.263-3.294,0.728l5.516,4.238
	c0.482-0.419,1.109-0.677,1.797-0.677c1.512,0,2.739,1.226,2.739,2.738c0,0.435-0.103,0.842-0.283,1.207l1.453,1.117
	C24.033,19.174,24.122,18.445,24.122,17.695z M12.673,19.154c-0.782,0-1.417-0.636-1.417-1.419c0-0.509,0.273-0.952,0.677-1.202
	l1.985,0.536c0.106,0.2,0.172,0.425,0.172,0.666C14.09,18.519,13.455,19.154,12.673,19.154z M13.692,17.912
	c0-0.403-0.327-0.729-0.728-0.729c-0.4,0-0.727,0.327-0.727,0.729c0,0.4,0.328,0.727,0.727,0.727
	C13.365,18.639,13.691,18.312,13.692,17.912z M10.818,15.117l-0.603,0.005v0.944l1.717,0.466c0.216-0.134,0.468-0.216,0.74-0.216
	c0.542,0.001,1.006,0.31,1.246,0.753l1.001,0.272L10.818,15.117z M13.441,22.766h4.945v-0.484h-4.945V22.766z"/>
</svg>
