<?xml version="1.0" encoding="iso-8859-1"?>
<!-- Generator: Adobe Illustrator 19.0.0, SVG Export Plug-In . SVG Version: 6.00 Build 0)  -->
<svg version="1.1" id="Capa_1" xmlns="http://www.w3.org/2000/svg" xmlns:xlink="http://www.w3.org/1999/xlink" x="0px" y="0px"
	 viewBox="0 0 463 463" style="enable-background:new 0 0 463 463;" xml:space="preserve">
<path d="M323.501,0c-12.958,0-23.5,10.542-23.5,23.5V32h-17v-8.5c0-4.142-3.358-7.5-7.5-7.5h-48c-12.958,0-23.5,10.542-23.5,23.5
	c0,2.131,0.29,4.194,0.824,6.159L122.854,158.92c-0.227,0.227-0.441,0.464-0.657,0.7c-0.134,0.146-0.263,0.296-0.393,0.445
	c-0.379,0.433-0.745,0.876-1.09,1.335c-0.088,0.117-0.172,0.238-0.257,0.356c-0.347,0.48-0.679,0.968-0.988,1.473
	c-0.218,0.354-0.428,0.713-0.627,1.079c-0.142,0.264-0.278,0.53-0.41,0.8c-0.226,0.456-0.438,0.919-0.634,1.39
	c-0.077,0.186-0.15,0.373-0.221,0.561c-0.22,0.569-0.419,1.148-0.595,1.738c-0.032,0.107-0.062,0.215-0.092,0.322
	c-0.185,0.655-0.343,1.321-0.471,1.997c-0.007,0.035-0.018,0.068-0.024,0.103c-0.019,0.102-0.032,0.205-0.049,0.307
	c-0.036,0.209-0.071,0.419-0.101,0.631c-0.031,0.213-0.056,0.425-0.081,0.638c-0.018,0.152-0.036,0.303-0.05,0.457
	c-0.03,0.303-0.052,0.605-0.069,0.908c-0.004,0.063-0.008,0.125-0.011,0.187c-0.261,5.124,1.151,10.166,4.107,14.466l76.122,110.723
	c-0.164,1.299-0.258,2.619-0.258,3.962c0,3.24,0.493,6.367,1.405,9.311l-5.996,3.598c-7.038,4.222-11.409,11.943-11.409,20.151V352
	h-0.5c-4.142,0-7.5,3.358-7.5,7.5V416h-24.5c-4.142,0-7.5,3.358-7.5,7.5V448h-16.5c-4.142,0-7.5,3.358-7.5,7.5s3.358,7.5,7.5,7.5
	h208c4.142,0,7.5-3.358,7.5-7.5s-3.358-7.5-7.5-7.5h-16.5v-24.5c0-4.142-3.358-7.5-7.5-7.5h-24.5v-56.5c0-4.142-3.358-7.5-7.5-7.5
	h-0.5v-15.441c0-8.208-4.372-15.929-11.409-20.151l-5.996-3.598c0.913-2.944,1.405-6.071,1.405-9.311
	c0-14.79-10.249-27.226-24.016-30.594l-67.998-98.907L227.499,63c0,0,0.001,0,0.001,0h48c4.142,0,7.5-3.358,7.5-7.5V47h17v40.5
	c0,4.142,3.358,7.5,7.5,7.5h8.5v42.945c-4.765,2.647-8,7.728-8,13.555c0,8.547,6.953,15.5,15.5,15.5s15.5-6.953,15.5-15.5
	c0-5.827-3.235-10.908-8-13.555V95h8.5c4.142,0,7.5-3.358,7.5-7.5v-64C347.001,10.542,336.459,0,323.501,0z M132.46,180.257
	c-0.023-0.034-0.042-0.07-0.065-0.104c-0.129-0.196-0.253-0.395-0.365-0.601c-0.008-0.015-0.014-0.031-0.023-0.046
	c-0.511-0.952-0.848-2.012-0.963-3.137c0-0.001,0-0.002,0-0.003c-0.028-0.275-0.041-0.555-0.042-0.837
	c0-0.065,0.006-0.131,0.007-0.196c0.004-0.213,0.012-0.425,0.032-0.633c0.012-0.125,0.033-0.25,0.051-0.375
	c0.021-0.151,0.04-0.303,0.069-0.452c0.026-0.132,0.06-0.26,0.092-0.389c0.036-0.149,0.07-0.299,0.115-0.445
	c0.028-0.092,0.063-0.182,0.093-0.273c0.062-0.183,0.125-0.366,0.199-0.543c0.016-0.039,0.036-0.077,0.053-0.116
	c0.539-1.232,1.359-2.315,2.383-3.161c0.003-0.002,0.006-0.004,0.009-0.006c0.206-0.17,0.421-0.331,0.643-0.481
	c0.014-0.01,0.03-0.018,0.044-0.028c1.349-0.901,2.968-1.429,4.709-1.429c0.286,0,0.568,0.015,0.846,0.043
	c0.041,0.004,0.083,0.012,0.124,0.017c0.235,0.027,0.468,0.061,0.696,0.106c0.071,0.015,0.141,0.034,0.211,0.05
	c0.207,0.047,0.414,0.097,0.615,0.159c0.048,0.015,0.094,0.033,0.141,0.048c0.226,0.074,0.451,0.153,0.669,0.245
	c0.005,0.002,0.009,0.004,0.014,0.006c3.044,1.294,5.184,4.315,5.184,7.826c0,4.687-3.813,8.5-8.5,8.5
	C136.575,184,133.99,182.514,132.46,180.257z M157.082,159.93c-0.241-0.272-0.489-0.539-0.743-0.799
	c-0.314-0.324-0.635-0.639-0.966-0.943c-0.133-0.122-0.269-0.239-0.404-0.357c-0.449-0.394-0.908-0.773-1.384-1.13
	c-0.08-0.06-0.162-0.116-0.242-0.175c-0.519-0.379-1.049-0.74-1.597-1.074c-0.271-0.167-0.548-0.325-0.826-0.48
	c-0.35-0.195-0.703-0.383-1.063-0.56c-0.435-0.214-0.877-0.417-1.327-0.605c-0.21-0.087-0.422-0.17-0.636-0.251
	c-0.543-0.208-1.094-0.398-1.655-0.566c-0.139-0.042-0.279-0.081-0.42-0.12c-0.019-0.005-0.038-0.011-0.057-0.016l63.507-87.75
	l-51.877,95.159C157.293,160.147,157.182,160.044,157.082,159.93z M144.906,198.366c5.783-1.367,10.748-4.872,14.006-9.636
	l58.414,84.966c-5.513,1.888-10.342,5.258-14.003,9.641L144.906,198.366z M300.001,448h-145v-17h145V448z M187.001,416v-49h81v49
	H187.001z M255.874,329.271c2.546,1.527,4.127,4.32,4.127,7.289V352h-65v-15.441c0-2.968,1.581-5.761,4.127-7.289l6.013-3.608
	c5.711,5.762,13.625,9.338,22.36,9.338s16.648-3.576,22.36-9.338L255.874,329.271z M244.001,303.5c0,9.098-7.402,16.5-16.5,16.5
	s-16.5-7.402-16.5-16.5s7.402-16.5,16.5-16.5S244.001,294.402,244.001,303.5z M268.001,48h-40.5c-4.687,0-8.5-3.813-8.5-8.5
	s3.813-8.5,8.5-8.5h40.5V48z M315.001,23.5c0-4.687,3.813-8.5,8.5-8.5s8.5,3.813,8.5,8.5V48h-17V23.5z M315.001,80V63h17v17H315.001
	z"/>
<g>
</g>
<g>
</g>
<g>
</g>
<g>
</g>
<g>
</g>
<g>
</g>
<g>
</g>
<g>
</g>
<g>
</g>
<g>
</g>
<g>
</g>
<g>
</g>
<g>
</g>
<g>
</g>
<g>
</g>
</svg>
