<?xml version="1.0" encoding="iso-8859-1"?>
<!-- Generator: Adobe Illustrator 19.0.0, SVG Export Plug-In . SVG Version: 6.00 Build 0)  -->
<svg version="1.1" id="Capa_1" xmlns="http://www.w3.org/2000/svg" xmlns:xlink="http://www.w3.org/1999/xlink" x="0px" y="0px"
	 viewBox="0 0 463 463" style="enable-background:new 0 0 463 463;" xml:space="preserve">
<g>
	<path d="M87.5,343h288c4.142,0,7.5-3.358,7.5-7.5v-264c0-4.142-3.358-7.5-7.5-7.5h-288c-4.142,0-7.5,3.358-7.5,7.5v264
		C80,339.642,83.358,343,87.5,343z M271.5,272h-80H167v-17h129v17H271.5z M199,287h65v9h-65V287z M187.25,311h4.25h80h4.25l12.75,17
		h-114L187.25,311z M307.25,328l-21.75-29c-1.417-1.889-3.639-3-6-3H279v-9h24.5c4.142,0,7.5-3.358,7.5-7.5v-32
		c0-4.142-3.358-7.5-7.5-7.5h-144c-4.142,0-7.5,3.358-7.5,7.5v32c0,4.142,3.358,7.5,7.5,7.5H184v9h-0.5c-2.361,0-4.583,1.111-6,3
		l-21.75,29H95V111h129v33h-24.5c-4.142,0-7.5,3.358-7.5,7.5v24c0,2.841,1.605,5.438,4.146,6.708L224,196.135V207.5
		c0,4.142,3.358,7.5,7.5,7.5s7.5-3.358,7.5-7.5v-11.365l27.854-13.927c2.541-1.27,4.146-3.867,4.146-6.708v-24
		c0-4.142-3.358-7.5-7.5-7.5H239v-33h129v217H307.25z M231.5,183.115l-24.5-12.25V159h49v11.865L231.5,183.115z M368,79v17H95V79
		H368z"/>
	<path d="M103.5,47h16c4.142,0,7.5-3.358,7.5-7.5s-3.358-7.5-7.5-7.5h-16c-4.142,0-7.5,3.358-7.5,7.5S99.358,47,103.5,47z"/>
	<path d="M151.5,47h16c4.142,0,7.5-3.358,7.5-7.5s-3.358-7.5-7.5-7.5h-16c-4.142,0-7.5,3.358-7.5,7.5S147.358,47,151.5,47z"/>
	<path d="M199.5,47h16c4.142,0,7.5-3.358,7.5-7.5s-3.358-7.5-7.5-7.5h-16c-4.142,0-7.5,3.358-7.5,7.5S195.358,47,199.5,47z"/>
	<path d="M247.5,47h16c4.142,0,7.5-3.358,7.5-7.5s-3.358-7.5-7.5-7.5h-16c-4.142,0-7.5,3.358-7.5,7.5S243.358,47,247.5,47z"/>
	<path d="M295.5,47h16c4.142,0,7.5-3.358,7.5-7.5s-3.358-7.5-7.5-7.5h-16c-4.142,0-7.5,3.358-7.5,7.5S291.358,47,295.5,47z"/>
	<path d="M343.5,47h16c4.142,0,7.5-3.358,7.5-7.5s-3.358-7.5-7.5-7.5h-16c-4.142,0-7.5,3.358-7.5,7.5S339.358,47,343.5,47z"/>
	<path d="M415,361.234V23.5C415,10.542,404.458,0,391.5,0h-320C58.542,0,48,10.542,48,23.5v337.734c-9.29,3.138-16,11.93-16,22.266
		v56c0,12.958,10.542,23.5,23.5,23.5h352c12.958,0,23.5-10.542,23.5-23.5v-56C431,373.164,424.29,364.372,415,361.234z M71.5,15h320
		c4.687,0,8.5,3.813,8.5,8.5V360H63V23.5C63,18.813,66.813,15,71.5,15z M416,439.5c0,4.687-3.813,8.5-8.5,8.5h-352
		c-4.687,0-8.5-3.813-8.5-8.5v-56c0-4.687,3.813-8.5,8.5-8.5h352c4.687,0,8.5,3.813,8.5,8.5V439.5z"/>
	<path d="M87.5,416h-16c-4.142,0-7.5,3.358-7.5,7.5s3.358,7.5,7.5,7.5h16c4.142,0,7.5-3.358,7.5-7.5S91.642,416,87.5,416z"/>
	<path d="M135.5,416h-16c-4.142,0-7.5,3.358-7.5,7.5s3.358,7.5,7.5,7.5h16c4.142,0,7.5-3.358,7.5-7.5S139.642,416,135.5,416z"/>
	<path d="M87.5,392h-16c-4.142,0-7.5,3.358-7.5,7.5s3.358,7.5,7.5,7.5h16c4.142,0,7.5-3.358,7.5-7.5S91.642,392,87.5,392z"/>
	<path d="M135.5,392h-16c-4.142,0-7.5,3.358-7.5,7.5s3.358,7.5,7.5,7.5h16c4.142,0,7.5-3.358,7.5-7.5S139.642,392,135.5,392z"/>
	<path d="M391.5,416h-24c-4.142,0-7.5,3.358-7.5,7.5s3.358,7.5,7.5,7.5h24c4.142,0,7.5-3.358,7.5-7.5S395.642,416,391.5,416z"/>
	<path d="M231.5,416h-64c-4.142,0-7.5,3.358-7.5,7.5s3.358,7.5,7.5,7.5h64c4.142,0,7.5-3.358,7.5-7.5S235.642,416,231.5,416z"/>
	<path d="M231.5,392h-64c-4.142,0-7.5,3.358-7.5,7.5s3.358,7.5,7.5,7.5h64c4.142,0,7.5-3.358,7.5-7.5S235.642,392,231.5,392z"/>
	<path d="M271.5,416h-8c-4.142,0-7.5,3.358-7.5,7.5s3.358,7.5,7.5,7.5h8c4.142,0,7.5-3.358,7.5-7.5S275.642,416,271.5,416z"/>
	<path d="M303.5,416h-8c-4.142,0-7.5,3.358-7.5,7.5s3.358,7.5,7.5,7.5h8c4.142,0,7.5-3.358,7.5-7.5S307.642,416,303.5,416z"/>
	<path d="M335.5,416h-8c-4.142,0-7.5,3.358-7.5,7.5s3.358,7.5,7.5,7.5h8c4.142,0,7.5-3.358,7.5-7.5S339.642,416,335.5,416z"/>
	<path d="M391.5,392h-24c-4.142,0-7.5,3.358-7.5,7.5s3.358,7.5,7.5,7.5h24c4.142,0,7.5-3.358,7.5-7.5S395.642,392,391.5,392z"/>
	<path d="M271.5,392h-8c-4.142,0-7.5,3.358-7.5,7.5s3.358,7.5,7.5,7.5h8c4.142,0,7.5-3.358,7.5-7.5S275.642,392,271.5,392z"/>
	<path d="M303.5,392h-8c-4.142,0-7.5,3.358-7.5,7.5s3.358,7.5,7.5,7.5h8c4.142,0,7.5-3.358,7.5-7.5S307.642,392,303.5,392z"/>
	<path d="M335.5,392h-8c-4.142,0-7.5,3.358-7.5,7.5s3.358,7.5,7.5,7.5h8c4.142,0,7.5-3.358,7.5-7.5S339.642,392,335.5,392z"/>
</g>
<g>
</g>
<g>
</g>
<g>
</g>
<g>
</g>
<g>
</g>
<g>
</g>
<g>
</g>
<g>
</g>
<g>
</g>
<g>
</g>
<g>
</g>
<g>
</g>
<g>
</g>
<g>
</g>
<g>
</g>
</svg>
