<?xml version="1.0" encoding="iso-8859-1"?>
<!-- Generator: Adobe Illustrator 16.0.0, SVG Export Plug-In . SVG Version: 6.00 Build 0)  -->
<!DOCTYPE svg PUBLIC "-//W3C//DTD SVG 1.1//EN" "http://www.w3.org/Graphics/SVG/1.1/DTD/svg11.dtd">
<svg version="1.1" id="Capa_1" xmlns="http://www.w3.org/2000/svg" xmlns:xlink="http://www.w3.org/1999/xlink" x="0px" y="0px"
	 width="309.833px" height="309.833px" viewBox="0 0 309.833 309.833" style="enable-background:new 0 0 309.833 309.833;"
	 xml:space="preserve">
<g>
	<g>
		<path d="M186.63,171.741c-6.126-3.62-12.049-7.902-17.646-12.77c8.357-9.08,15.627-16.195,20.572-20.842
			c6.167,0.14,12.091-2.198,16.399-6.507c8.787-8.784,8.787-23.084,0-31.871c-8.782-8.787-23.084-8.787-31.872,0
			c-3.837,3.834-6.115,8.87-6.509,14.289c-6.907,6.449-13.916,13.502-20.878,20.992c-2.892-3.747-5.675-7.641-8.3-11.607
			c1.698-7.54-0.534-15.433-5.965-20.865c-8.785-8.785-23.079-8.785-31.871,0c-8.788,8.788-8.788,23.086,0,31.874
			c2.687,2.682,6.056,4.64,9.784,5.683c4.505,6.946,9.412,13.675,14.613,20.019c-3.495,4.345-7.099,9.015-10.965,14.209
			c-4.546,0.833-8.616,2.946-11.819,6.151c-8.788,8.787-8.788,23.089,0,31.866c8.779,8.787,23.086,8.787,31.866,0
			c5.004-5.007,7.355-12.039,6.384-19.02c2.408-3.221,4.873-6.421,7.382-9.59c6.934,5.986,14.374,11.34,22.162,15.943
			c1.046,3.754,3.003,7.136,5.717,9.854c8.787,8.781,23.084,8.781,31.876,0c8.782-8.793,8.782-23.084,0-31.877
			C202.112,172.237,194.18,170.01,186.63,171.741z M184.394,112.386c2.692-2.211,6.68-2.02,9.051,0.896
			c2.258,2.747,1.859,6.81-0.859,9.041c-0.119,0.101-12.914,10.654-30.577,29.815c-3.011-3.021-5.985-6.156-8.844-9.452
			C171.019,123.364,183.829,112.842,184.394,112.386z M123.459,200.173c-2.03,2.915-6.05,3.641-8.96,1.621
			c-2.959-2.03-3.617-6.074-1.624-8.953c5.893-8.497,12.212-16.964,18.83-25.223c3.011,3.324,5.924,6.327,9.051,9.32
			C134.701,184.541,128.884,192.349,123.459,200.173z M199.161,195.653c-1.326,3.304-5.074,4.909-8.368,3.594
			c-15.782-6.317-31.032-16.767-45.345-31.074c-21.707-21.712-33.764-44.959-34.269-45.938c-1.624-3.151-0.37-7.037,2.783-8.66
			c2.499-1.282,5.51-0.816,7.498,1.167c0.466,0.471,0.859,1.012,1.173,1.61c0.111,0.223,11.638,22.351,32.127,42.835
			c13.031,13.029,26.763,22.484,40.811,28.097C198.809,188.59,200.44,192.453,199.161,195.653z"/>
		<path d="M154.919,0.002C69.361,0.002,0,69.364,0,154.917c0,85.559,69.361,154.914,154.919,154.914
			c85.563,0,154.914-69.355,154.914-154.914C309.833,69.364,240.482,0.002,154.919,0.002z M206.4,30.541
			c0.559-1.354,2.112-1.988,3.459-1.439c8.389,3.464,16.477,7.785,24.058,12.839c1.211,0.81,1.543,2.459,0.735,3.674
			c-0.519,0.769-1.352,1.183-2.212,1.183c-0.502,0-1.01-0.145-1.465-0.445c-7.28-4.865-15.073-9.021-23.136-12.35
			C206.483,33.446,205.841,31.897,206.4,30.541z M156.62,18.616h0.145c9.07,0,18.152,0.88,26.986,2.612
			c1.435,0.282,2.371,1.675,2.092,3.112c-0.248,1.269-1.356,2.144-2.6,2.144c-0.165,0-0.342-0.016-0.512-0.05
			c-8.498-1.67-17.233-2.516-25.961-2.516c-1.468,0-2.727-1.188-2.727-2.651C154.044,19.801,155.152,18.616,156.62,18.616z
			 M103.397,29.22c8.399-3.49,17.173-6.157,26.092-7.928c1.422-0.298,2.825,0.647,3.112,2.084c0.287,1.438-0.647,2.83-2.089,3.112
			c-8.562,1.701-17.005,4.267-25.081,7.625c-0.334,0.137-0.678,0.202-1.012,0.202c-1.041,0-2.03-0.616-2.454-1.633
			C101.403,31.335,102.043,29.782,103.397,29.22z M58.309,59.421c6.434-6.436,13.518-12.259,21.062-17.318
			c1.214-0.811,2.858-0.492,3.679,0.728c0.808,1.214,0.49,2.864-0.73,3.679c-7.254,4.862-14.069,10.467-20.262,16.66
			c-0.518,0.521-1.191,0.774-1.877,0.774c-0.673,0-1.356-0.259-1.872-0.774C57.275,62.143,57.275,60.46,58.309,59.421z
			 M28.148,104.543c3.475-8.386,7.806-16.474,12.87-24.039c0.811-1.22,2.455-1.538,3.674-0.732c1.214,0.81,1.543,2.459,0.728,3.674
			c-4.867,7.28-9.03,15.061-12.37,23.125c-0.42,1.018-1.417,1.637-2.449,1.637c-0.345,0-0.687-0.062-1.015-0.199
			C28.229,107.452,27.587,105.898,28.148,104.543z M17.604,158.35v-0.57c0-9.124,0.891-18.25,2.646-27.13
			c0.288-1.437,1.675-2.367,3.112-2.089c1.437,0.285,2.372,1.68,2.089,3.112c-1.686,8.542-2.545,17.329-2.545,26.103v0.575
			c0,1.46-1.183,2.65-2.651,2.65C18.792,161,17.604,159.821,17.604,158.35z M31.84,212.968c-0.329,0.146-0.683,0.207-1.022,0.207
			c-1.036,0-2.022-0.61-2.447-1.626c-3.513-8.389-6.214-17.149-8.016-26.066c-0.292-1.439,0.642-2.838,2.079-3.127
			c1.468-0.285,2.83,0.642,3.122,2.07c1.735,8.575,4.327,17.006,7.705,25.073C33.829,210.845,33.192,212.399,31.84,212.968z
			 M62.472,256.522c-0.521,0.522-1.204,0.781-1.888,0.781c-0.673,0-1.346-0.248-1.866-0.766
			c-6.462-6.411-12.312-13.479-17.386-21.003c-0.818-1.212-0.5-2.863,0.714-3.677c1.225-0.817,2.864-0.502,3.682,0.715
			c4.883,7.239,10.509,14.038,16.723,20.205C63.5,253.808,63.507,255.491,62.472,256.522z M107.399,285.121
			c-0.419,1.02-1.411,1.642-2.454,1.642c-0.329,0-0.673-0.067-1.007-0.202c-8.401-3.448-16.508-7.752-24.091-12.79
			c-1.214-0.808-1.548-2.454-0.735-3.677c0.806-1.217,2.444-1.543,3.674-0.74c7.291,4.847,15.082,8.984,23.162,12.304
			C107.304,282.21,107.956,283.764,107.399,285.121z M157.2,296.937v-2.651l-0.388,2.651c-9.031,0-18.007-0.865-26.745-2.558
			c-1.432-0.285-2.375-1.673-2.095-3.107c0.282-1.439,1.655-2.382,3.112-2.097c8.394,1.631,17.043,2.459,25.691,2.459
			c1.458,0,2.863,1.191,2.863,2.651C159.634,295.746,158.663,296.937,157.2,296.937z M210.403,286.229
			c-8.389,3.511-17.155,6.192-26.077,7.984c-0.171,0.036-0.348,0.052-0.523,0.052c-1.237,0-2.346-0.87-2.595-2.123
			c-0.295-1.439,0.643-2.838,2.077-3.128c8.569-1.719,17.015-4.308,25.072-7.674c1.352-0.564,2.905,0.062,3.47,1.424
			C212.392,284.111,211.754,285.665,210.403,286.229z M255.421,255.926c-6.41,6.441-13.483,12.287-21.018,17.362
			c-0.455,0.306-0.974,0.456-1.476,0.456c-0.854,0-1.693-0.409-2.206-1.176c-0.812-1.212-0.497-2.858,0.72-3.677
			c7.249-4.883,14.054-10.501,20.221-16.704c1.03-1.036,2.713-1.047,3.749-0.011C256.452,253.208,256.452,254.88,255.421,255.926z
			 M154.919,266.267c-61.498,0-111.35-49.85-111.35-111.351c0-61.495,49.853-111.351,111.35-111.351
			c61.496,0,111.351,49.855,111.351,111.351C266.27,216.417,216.415,266.267,154.919,266.267z M285.496,210.737
			c-3.454,8.394-7.768,16.481-12.816,24.062c-0.518,0.777-1.351,1.186-2.211,1.186c-0.502,0-1.01-0.14-1.455-0.445
			c-1.222-0.812-1.553-2.454-0.745-3.671c4.852-7.301,8.999-15.089,12.324-23.156c0.559-1.347,2.112-1.989,3.459-1.439
			C285.408,207.832,286.05,209.385,285.496,210.737z M295.93,157.49v0.285c0,9.03-0.87,18.062-2.589,26.838
			c-0.238,1.274-1.356,2.144-2.594,2.144c-0.172,0-0.337-0.01-0.514-0.046c-1.434-0.28-2.371-1.673-2.092-3.107
			c1.646-8.456,2.486-17.134,2.486-25.828c0-1.466,1.19-2.791,2.65-2.791C294.744,154.984,295.93,156.025,295.93,157.49z
			 M281.804,102.848c1.357-0.562,2.91,0.075,3.465,1.427c3.5,8.394,6.177,17.168,7.953,26.082c0.295,1.437-0.643,2.832-2.076,3.117
			c-0.176,0.039-0.353,0.054-0.528,0.054c-1.232,0-2.341-0.87-2.6-2.133c-1.709-8.572-4.282-17.01-7.638-25.08
			C279.815,104.963,280.452,103.41,281.804,102.848z M271.634,83.94c-0.455,0.308-0.968,0.451-1.471,0.451
			c-0.859,0-1.693-0.415-2.205-1.173c-4.878-7.252-10.491-14.061-16.685-20.239c-1.035-1.033-1.035-2.708-0.005-3.749
			c1.041-1.033,2.719-1.033,3.749-0.005c6.446,6.421,12.277,13.499,17.342,21.041C273.177,81.473,272.846,83.125,271.634,83.94z"/>
	</g>
</g>
<g>
</g>
<g>
</g>
<g>
</g>
<g>
</g>
<g>
</g>
<g>
</g>
<g>
</g>
<g>
</g>
<g>
</g>
<g>
</g>
<g>
</g>
<g>
</g>
<g>
</g>
<g>
</g>
<g>
</g>
</svg>
