<?xml version="1.0" encoding="iso-8859-1"?>
<!-- Generator: Adobe Illustrator 18.0.0, SVG Export Plug-In . SVG Version: 6.00 Build 0)  -->
<!DOCTYPE svg PUBLIC "-//W3C//DTD SVG 1.1//EN" "http://www.w3.org/Graphics/SVG/1.1/DTD/svg11.dtd">
<svg version="1.1" id="Capa_1" xmlns="http://www.w3.org/2000/svg" xmlns:xlink="http://www.w3.org/1999/xlink" x="0px" y="0px"
	 viewBox="0 0 480 480" style="enable-background:new 0 0 480 480;" xml:space="preserve">
<g>
	<path d="M305.509,330.8c4.915,0,9.999-3.794,10-10.145l0.001-201.601c0-3.458-2.268-10-10.848-10l-99.855,0v-19.11
		c0-9.894-8.049-17.942-17.942-17.942h-58.219c-9.894,0-17.942,8.049-17.942,17.942v19.11L0,109.054l0.001,211.168
		c0,7.707,6.134,10.578,10,10.578H305.509z M75.377,310.8V129.054c49.004,0,115.759,0,164.756,0.001V310.8H75.377z M295.509,310.8
		h-35.376V129.055c15.107,0,27.417,0,35.377,0C295.51,163.438,295.51,276.453,295.509,310.8z M130.703,92.002h54.104v17.052
		l-54.104,0V92.002z M55.377,129.054V310.8H20.001C20,276.452,20,163.438,20,129.054C27.966,129.054,40.275,129.054,55.377,129.054z
		"/>
	<path d="M387.974,48.392v23.853c-7.54,0.462-16.68,1.818-24.826,5.83c-10.374,5.109-22.739,16.366-22.739,40.978V309.84
		c0,17.924-6.055,39.291-34.898,39.291H10v20h20.042c-3.745,6.208-5.905,13.475-5.905,21.238c0,22.739,18.5,41.238,41.239,41.238
		s41.238-18.5,41.238-41.238c0-7.763-2.159-15.031-5.904-21.238h114.088c-3.745,6.208-5.904,13.475-5.904,21.238
		c0,22.739,18.499,41.238,41.238,41.238s41.239-18.5,41.239-41.238c0-7.763-2.159-15.031-5.905-21.238h20.042
		c33.862,0,54.898-22.719,54.898-59.291V119.054c0-19.4,9.616-25.384,27.565-26.724v23.282H480v-67.22H387.974z M86.615,390.369
		c0,11.711-9.527,21.238-21.238,21.238s-21.239-9.527-21.239-21.238s9.528-21.238,21.239-21.238S86.615,378.658,86.615,390.369z
		 M271.372,390.369c0,11.711-9.528,21.238-21.239,21.238s-21.238-9.527-21.238-21.238s9.527-21.238,21.238-21.238
		S271.372,378.658,271.372,390.369z M460,95.612h-52.026v-27.22H460V95.612z"/>
</g>
<g>
</g>
<g>
</g>
<g>
</g>
<g>
</g>
<g>
</g>
<g>
</g>
<g>
</g>
<g>
</g>
<g>
</g>
<g>
</g>
<g>
</g>
<g>
</g>
<g>
</g>
<g>
</g>
<g>
</g>
</svg>
