<?xml version="1.0" encoding="iso-8859-1"?>
<!-- Generator: Adobe Illustrator 18.0.0, SVG Export Plug-In . SVG Version: 6.00 Build 0)  -->
<!DOCTYPE svg PUBLIC "-//W3C//DTD SVG 1.1//EN" "http://www.w3.org/Graphics/SVG/1.1/DTD/svg11.dtd">
<svg version="1.1" id="Capa_1" xmlns="http://www.w3.org/2000/svg" xmlns:xlink="http://www.w3.org/1999/xlink" x="0px" y="0px"
	 viewBox="0 0 80.358 95.093" style="enable-background:new 0 0 80.358 95.093;" xml:space="preserve">
<g>
	<path d="M22.717,26.965l6.241-5.878C28.958,21.087,19.038,15.993,22.717,26.965z"/>
	<path d="M59.391,26.965l-6.241-5.878C53.15,21.087,63.07,15.993,59.391,26.965z"/>
	<g>
		<path d="M38.921,12.463c0.411-0.036,0.832-0.054,1.258-0.054c0.426,0,0.847,0.019,1.258,0.054c1.278,0.111,2.455,0.389,3.345,0.8
			l1.847-3.997c-1.449-0.67-3.258-1.091-5.192-1.219c-0.414-0.027-0.834-0.042-1.258-0.042c-0.424,0-0.843,0.015-1.258,0.042
			c-1.934,0.128-3.743,0.549-5.192,1.219l1.847,3.997C36.466,12.852,37.643,12.574,38.921,12.463z"/>
		<path d="M77.483,22.338c-1.842-4.356-4.479-8.267-7.837-11.625c-3.358-3.358-7.27-5.995-11.625-7.837
			C53.51,0.967,48.72,0,43.783,0h-2.346h-1.258h-1.258h-2.346c-4.937,0-9.727,0.967-14.237,2.875
			c-4.356,1.842-8.267,4.479-11.625,7.837c-3.358,3.358-5.995,7.269-7.837,11.625C0.967,26.848,0,31.638,0,36.575v51.572h4.403
			V52.854l3.323,2.177c0.509-0.777,1.234-1.475,2.062-2.092c0.003,1.27,0.071,2.472,0.203,3.608
			c-1.639,1.542-3.141,3.592-3.903,6.262l4.234,1.209c0.225-0.787,0.554-1.501,0.95-2.147c0.546,1.373,1.242,2.584,2.087,3.627
			c-0.945,2.098-1.642,4.61-1.783,7.564l4.398,0.209c0.081-1.708,0.399-3.327,0.949-4.849c1.496,0.757,4.148,0.618,4.148,0.618
			c2.101,10.056,9.554,25.339,9.904,26.054l4.072-1.646C33.035,87.218,32.836,76.76,33,69.374h5.921h1.258h1.258h5.921
			c0.164,7.386-0.035,17.845-2.047,24.074l4.072,1.646c0.35-0.715,7.803-15.998,9.904-26.054c0,0,2.652,0.14,4.148-0.618
			c0.55,1.522,0.868,3.141,0.949,4.849l4.398-0.209c-0.141-2.954-0.838-5.466-1.783-7.564c0.845-1.043,1.541-2.254,2.087-3.627
			c0.396,0.646,0.726,1.359,0.95,2.147l4.234-1.209c-0.762-2.67-2.264-4.72-3.903-6.262c0.132-1.136,0.2-2.338,0.203-3.608
			c0.828,0.617,1.553,1.314,2.062,2.092l3.323-2.177v35.294h4.403V36.575C80.358,31.638,79.391,26.848,77.483,22.338z
			 M28.636,78.607c-1.569-4.132-2.957-8.398-3.486-11.694c0.484-0.266,0.994-0.551,1.522-0.853c0.666-0.381,1.361-0.788,2.068-1.217
			c-0.045,0.984-0.088,2.102-0.123,3.321C28.531,71.196,28.5,74.851,28.636,78.607z M41.437,64.971h-1.258h-1.258h-5.773
			c0.06-1.343,0.123-2.42,0.168-3.134c0.974-0.687,1.829-1.307,2.604-1.869c1.236-0.896,2.225-1.613,3.001-2.093
			c0.043-0.027,0.085-0.053,0.127-0.078c0.827-0.499,1.101-0.523,1.127-0.524c0.001,0,0.003,0,0.005,0c0.002,0,0.004,0,0.005,0
			c0.026,0.001,0.3,0.025,1.126,0.524c0.042,0.025,0.084,0.051,0.127,0.078c0.776,0.48,1.765,1.197,3.001,2.093
			c0.774,0.562,1.63,1.182,2.604,1.869c0.045,0.714,0.108,1.791,0.168,3.134H41.437z M51.723,78.607
			c0.135-3.756,0.104-7.411,0.019-10.442c-0.034-1.219-0.078-2.338-0.123-3.321c0.707,0.429,1.402,0.836,2.068,1.217
			c0.528,0.302,1.038,0.587,1.522,0.853C54.68,70.209,53.292,74.475,51.723,78.607z M75.955,52.104
			c-1.519-2.036-3.776-3.538-5.893-4.599c-0.707-3.449-2.29-7.081-5.576-9.755c-0.695-0.565-1.386-1.022-2.044-1.393
			c0.024-0.456,0.046-1,0.07-1.661c0.021-0.571,0.039-1.141,0.052-1.622c1.303-0.821,3.201-2.389,4.113-4.935
			c0.931-2.602,0.576-5.476-1.054-8.542c-1.866-3.508-4.156-5.58-6.807-6.157c-3.054-0.666-5.285,0.954-5.529,1.141l2.675,3.498
			c0,0-0.011,0.009-0.034,0.025c0.036-0.025,0.896-0.615,2.004-0.35c1.293,0.31,2.608,1.662,3.804,3.911
			c1.017,1.912,1.288,3.581,0.806,4.961c-0.707,2.024-2.857,3.027-3,3.091l-1.346,0.537l-0.001,1.444
			c-0.038,1.751-0.11,3.805-0.178,4.843l-0.36,2.649l-0.019-0.003c0.021,0.003,2.152,0.348,4.231,2.113
			c1.307,1.109,2.591,4.114,2.547,4.104l-0.503,2.143l-0.506,2.143c0.606,0.144,1.57,0.432,2.664,0.857
			c0.055,0.613,0.087,1.247,0.095,1.904c0.005,0.391,0.002,0.774-0.007,1.15c-1.36-0.703-2.363-1.025-2.479-1.061l-0.655,2.102
			L62.36,56.74c0.03,0.01,1.527,0.502,3.217,1.624c-0.273,1.117-0.64,2.111-1.097,2.973c-2.148-2.744-4.324-4.09-4.497-4.195
			l-2.276,3.769l-0.01-0.006c0.016,0.01,1.62,1.013,3.238,3.054c0.149,0.189,0.294,0.38,0.434,0.573c0,0-7.007-2.966-10.933-5.693
			c-1.316-0.914-2.431-1.723-3.414-2.436c-2.465-1.788-4.062-2.945-5.586-3.361c-0.418-0.114-0.831-0.173-1.255-0.173
			c-0.001,0-0.002,0-0.003,0c-0.001,0-0.002,0-0.003,0c-0.424,0-0.836,0.059-1.255,0.173c-1.524,0.416-3.12,1.573-5.586,3.361
			c-0.984,0.713-2.099,1.522-3.414,2.436c-3.926,2.727-10.933,5.693-10.933,5.693c0.14-0.193,0.284-0.384,0.434-0.573
			c1.618-2.041,3.222-3.044,3.238-3.054l-0.01,0.006l-2.276-3.769c-0.173,0.105-2.35,1.451-4.497,4.195
			c-0.457-0.862-0.824-1.856-1.097-2.973c1.691-1.122,3.187-1.614,3.217-1.624l-0.663-2.099l-0.656-2.102
			c-0.116,0.036-1.119,0.358-2.479,1.061c-0.009-0.376-0.012-0.758-0.007-1.15c0.008-0.657,0.04-1.291,0.095-1.904
			c1.094-0.425,2.057-0.713,2.664-0.857l-0.506-2.143l-0.503-2.143c-0.044,0.01,1.24-2.994,2.547-4.104
			c2.079-1.765,4.21-2.11,4.231-2.113l-0.019,0.003l-0.36-2.649c-0.068-1.038-0.14-3.092-0.178-4.843l-0.001-1.444l-1.346-0.537
			c-0.142-0.064-2.293-1.067-3-3.091c-0.482-1.38-0.21-3.049,0.807-4.961c1.196-2.248,2.511-3.601,3.804-3.911
			c1.107-0.266,1.968,0.324,2.004,0.35c-0.023-0.016-0.034-0.025-0.034-0.025l2.675-3.498c-0.244-0.187-2.475-1.807-5.529-1.141
			c-2.651,0.578-4.941,2.649-6.807,6.157c-1.631,3.066-1.986,5.94-1.054,8.542c0.911,2.547,2.81,4.115,4.113,4.935
			c0.014,0.481,0.031,1.051,0.052,1.622c0.024,0.661,0.046,1.205,0.07,1.661c-0.658,0.371-1.349,0.828-2.044,1.393
			c-3.286,2.674-4.869,6.306-5.576,9.755c-2.117,1.061-4.374,2.563-5.893,4.599V36.575c0-8.593,3.346-16.672,9.423-22.749
			c6.077-6.077,14.155-9.423,22.749-9.423h2.346h1.258h1.258h2.346c8.593,0,16.672,3.346,22.749,9.423
			c6.076,6.076,9.423,14.155,9.423,22.749V52.104z"/>
		<path d="M45.89,30.142c-1.431-0.661-2.926-1.059-4.453-1.191c-0.417-0.036-0.836-0.053-1.258-0.049
			c-0.421-0.004-0.841,0.013-1.258,0.049c-1.528,0.132-3.022,0.531-4.453,1.191c-2.199,1.015-3.948,2.219-5.199,3.577
			c-0.484,0.526-1.958,2.126-1.198,3.859c0.402,0.916,1.293,1.475,2.396,1.507l8.455,0.651l1.258,0.097l1.258-0.097l8.455-0.651
			c1.103-0.033,1.994-0.591,2.396-1.507c0.76-1.733-0.714-3.334-1.198-3.859C49.839,32.361,48.089,31.157,45.89,30.142z
			 M41.437,35.419l-1.258,0.097l-1.258-0.097l-4.546-0.35c0.563-0.354,1.196-0.694,1.897-1.018c0.857-0.396,1.745-0.654,2.649-0.772
			c0.417-0.054,0.836-0.079,1.258-0.073c0.421-0.006,0.841,0.018,1.258,0.073c0.903,0.118,1.792,0.376,2.649,0.772
			c0.701,0.324,1.334,0.663,1.897,1.018L41.437,35.419z"/>
	</g>
</g>
<g>
</g>
<g>
</g>
<g>
</g>
<g>
</g>
<g>
</g>
<g>
</g>
<g>
</g>
<g>
</g>
<g>
</g>
<g>
</g>
<g>
</g>
<g>
</g>
<g>
</g>
<g>
</g>
<g>
</g>
</svg>
