<?xml version="1.0" encoding="iso-8859-1"?>
<!-- Generator: Adobe Illustrator 18.1.1, SVG Export Plug-In . SVG Version: 6.00 Build 0)  -->
<svg version="1.1" id="Capa_1" xmlns="http://www.w3.org/2000/svg" xmlns:xlink="http://www.w3.org/1999/xlink" x="0px" y="0px"
	 viewBox="0 0 15.744 15.744" style="enable-background:new 0 0 15.744 15.744;" xml:space="preserve">
<g>
	<g>
		<path style="fill:#010002;" d="M4.198,3.328c0.424,0,0.767,0.309,0.767,0.69c0,0.381-0.343,0.69-0.767,0.69S3.43,4.399,3.43,4.018
			S3.774,3.328,4.198,3.328z M7.699,3.446c0.726,0,1.315-0.528,1.315-1.181S8.424,1.082,7.699,1.082
			c-0.724,0-1.314,0.53-1.314,1.183S6.975,3.446,7.699,3.446z M11.491,3.368c0.423,0,0.767,0.309,0.767,0.69
			c0,0.381-0.343,0.69-0.767,0.69c-0.423,0-0.767-0.309-0.767-0.69S11.068,3.368,11.491,3.368z M2.954,12.296h9.49v2.365h-9.49
			V12.296z M14.432,2.619c0.725,0,1.312,0.529,1.312,1.182s-0.588,1.182-1.312,1.182c-0.725,0-1.312-0.529-1.312-1.182
			S13.707,2.619,14.432,2.619z M2.628,3.846c0-0.655-0.589-1.183-1.315-1.183C0.589,2.663,0,3.191,0,3.846
			c0,0.651,0.589,1.182,1.312,1.182C2.04,5.028,2.628,4.497,2.628,3.846z M13.346,5.122c-0.112,0-0.242,0.024-0.394,0.083
			l-1.8,1.618l0.151-1.651c0,0-0.124-0.189-0.313-0.189c-0.077,0-0.165,0.032-0.257,0.119L9.644,6.495L8.223,4.259
			c0,0-0.174-0.178-0.486-0.178c-0.156,0-0.346,0.045-0.566,0.178L5.787,6.44L4.849,5.103c0,0-0.102-0.162-0.258-0.162
			c-0.082,0-0.179,0.046-0.284,0.186l0.098,1.799L2.632,5.205c0,0-0.113-0.046-0.262-0.046c-0.177,0-0.405,0.066-0.548,0.356
			l1.145,6.31h9.461l1.577-6.147C14.004,5.678,13.884,5.122,13.346,5.122z M11.388,10.485H4.086L3.639,8.024
			c0.227,0.159,0.496,0.241,0.767,0.241c0.189,0,0.378-0.04,0.556-0.121C5.165,8.051,5.338,7.911,5.469,7.74
			c0.103,0.026,0.21,0.039,0.319,0.039c0.011,0,0.021,0,0.031,0c0.449-0.011,0.861-0.244,1.1-0.622L7.698,5.93l0.816,1.284
			c0.232,0.368,0.63,0.599,1.064,0.619C9.6,7.834,9.623,7.835,9.645,7.835c0.18,0,0.359-0.037,0.522-0.106
			c0.107,0.118,0.237,0.217,0.386,0.291c0.19,0.095,0.395,0.142,0.601,0.142c0.324,0,0.645-0.117,0.896-0.343l0.032-0.029
			C12.081,7.791,11.388,10.485,11.388,10.485z"/>
	</g>
</g>
<g>
</g>
<g>
</g>
<g>
</g>
<g>
</g>
<g>
</g>
<g>
</g>
<g>
</g>
<g>
</g>
<g>
</g>
<g>
</g>
<g>
</g>
<g>
</g>
<g>
</g>
<g>
</g>
<g>
</g>
</svg>
