<?xml version='1.0' encoding='iso-8859-1'?>
<svg version="1.1" xmlns="http://www.w3.org/2000/svg" viewBox="0 0 463 463" xmlns:xlink="http://www.w3.org/1999/xlink" enable-background="new 0 0 463 463">
  <path d="M389.553,204.477c-19.618-31.097-45.417-58.937-70.366-85.859c-34.862-37.62-67.792-73.153-80.537-113.382  C237.662,2.118,234.77,0,231.5,0s-6.162,2.118-7.15,5.235c-12.746,40.229-45.675,75.762-80.537,113.382  c-24.949,26.923-50.748,54.763-70.366,85.859C50.94,240.152,40,275.159,40,311.5c0,39.367,16.375,77.976,46.109,108.714  C111.251,446.206,143.199,463,167.5,463c28.225,0,45.983-5.094,56.5-9.942v2.442c0,4.142,3.358,7.5,7.5,7.5s7.5-3.358,7.5-7.5  v-2.442c10.517,4.848,28.275,9.942,56.5,9.942c24.301,0,56.249-16.794,81.391-42.786C406.625,389.476,423,350.867,423,311.5  C423,275.159,412.06,240.152,389.553,204.477z M366.109,409.786C343.999,432.643,315.624,448,295.5,448  c-31.42,0-49.484-7.094-56.5-12.009v-16.397l108.556-69.786c3.484-2.24,4.493-6.88,2.253-10.364  c-2.24-3.485-6.881-4.494-10.364-2.253L239,401.763v-54.168l116.556-74.929c3.484-2.24,4.493-6.88,2.253-10.365  c-2.24-3.485-6.88-4.493-10.364-2.253L239,329.763v-54.168l84.556-54.357c3.484-2.24,4.493-6.88,2.253-10.365  c-2.241-3.484-6.881-4.492-10.365-2.253L239,257.762v-54.167l44.556-28.643c3.484-2.24,4.493-6.88,2.253-10.365  c-2.241-3.485-6.881-4.494-10.365-2.253L239,185.762V119.5c0-4.142-3.358-7.5-7.5-7.5s-7.5,3.358-7.5,7.5v66.262l-36.444-23.428  c-3.485-2.239-8.125-1.231-10.365,2.253s-1.231,8.125,2.253,10.365L224,203.595v54.167l-76.444-49.143  c-3.485-2.239-8.125-1.231-10.365,2.253c-2.24,3.484-1.231,8.125,2.253,10.365L224,275.595v54.168l-108.444-69.714  c-3.483-2.241-8.125-1.232-10.364,2.253c-2.24,3.484-1.231,8.125,2.253,10.365L224,347.595v54.168l-100.444-64.571  c-3.485-2.241-8.125-1.232-10.364,2.253c-2.24,3.484-1.231,8.125,2.253,10.364L224,419.594v16.397  C216.984,440.906,198.92,448,167.5,448c-20.124,0-48.499-15.357-70.609-38.214C81.246,393.612,55,359.337,55,311.5  c0-74.976,50.743-129.733,99.815-182.687c30.848-33.288,60.231-64.997,76.685-100.679c16.453,35.683,45.837,67.392,76.685,100.679  C357.257,181.767,408,236.524,408,311.5C408,359.337,381.754,393.612,366.109,409.786z"/>
</svg>
