<?xml version="1.0" encoding="iso-8859-1"?>
<!-- Generator: Adobe Illustrator 17.1.0, SVG Export Plug-In . SVG Version: 6.00 Build 0)  -->
<!DOCTYPE svg PUBLIC "-//W3C//DTD SVG 1.1//EN" "http://www.w3.org/Graphics/SVG/1.1/DTD/svg11.dtd">
<svg version="1.1" id="Layer_1" xmlns="http://www.w3.org/2000/svg" xmlns:xlink="http://www.w3.org/1999/xlink" x="0px" y="0px"
	 viewBox="0 0 800 800" style="enable-background:new 0 0 800 800;" preserveAspectRatio="fit">
<path d="M800,448.195l-94.435,196.809c-11.813,22.897-35.422,37.282-61.187,37.282H87.548c-10.261,0-16.918-10.82-12.291-19.979
	l0.234-0.465c7.553-14.953,3.071-33.179-10.554-42.924l-0.77-0.55c-31.63-22.621-50.397-59.117-50.397-98.003v-44.63h495.722v-0.276
	c0-15.058,12.207-27.264,27.264-27.264H800z M481.952,282.955h-96.39c-7.605,0-13.77,6.165-13.77,13.77v151.471
	c0,7.605,6.165,13.77,13.77,13.77h96.39c7.605,0,13.77-6.165,13.77-13.77V296.725C495.722,289.12,489.557,282.955,481.952,282.955z
	 M647.192,338.035h-110.16c-7.605,0-13.77,6.165-13.77,13.77v55.08c0,7.605,6.165,13.77,13.77,13.77h110.16
	c7.605,0,13.77-6.165,13.77-13.77v-55.08C660.962,344.2,654.797,338.035,647.192,338.035z M220.321,461.965h110.16
	c7.605,0,13.77-6.165,13.77-13.77v-110.16c0-7.605-6.165-13.77-13.77-13.77h-110.16c-7.605,0-13.77,6.165-13.77,13.77v110.16
	C206.551,455.8,212.716,461.965,220.321,461.965z M213.274,255.414l-34.263,27.541v179.01H41.31v-179.01H0v-27.541h96.39v-39.93
	H60.792V199.41H96.39v-81.696h13.77v81.696h35.599v16.074H110.16v39.93H213.274z M154.135,368.71h-44.811v41.121h44.811V368.71z
	 M154.135,302.812h-44.811v41.121h44.811V302.812z"/>
</svg>
