<?xml version="1.0" encoding="iso-8859-1"?>
<!-- Generator: Adobe Illustrator 19.0.0, SVG Export Plug-In . SVG Version: 6.00 Build 0)  -->
<svg version="1.1" id="Capa_1" xmlns="http://www.w3.org/2000/svg" xmlns:xlink="http://www.w3.org/1999/xlink" x="0px" y="0px"
	 viewBox="0 0 55.233 55.233" style="enable-background:new 0 0 55.233 55.233;" xml:space="preserve">
<g>
	<g>
		<path d="M36.85,17.435l-3.121-0.287c-1.193-0.113-2.362,0.255-3.289,1.027c-0.942,0.785-1.521,1.896-1.631,3.125l-1.627,18.252
			l0.928,0.142c3.435,0.526,6.79,1.185,9.97,1.958l1.129,0.274l1.739-19.515C41.173,19.897,39.334,17.664,36.85,17.435z
			 M37.423,39.441c-2.606-0.604-5.316-1.133-8.083-1.578l1.46-16.385c0.062-0.697,0.389-1.325,0.919-1.768
			c0.515-0.429,1.165-0.63,1.825-0.572l3.121,0.287c1.39,0.129,2.417,1.388,2.291,2.808L37.423,39.441z"/>
		<path d="M22.768,21.089l-3.121-0.287c-1.19-0.113-2.362,0.255-3.289,1.027c-0.942,0.785-1.521,1.896-1.631,3.125l-1.187,13.322
			l1.039,0.051c1.852,0.092,3.73,0.225,5.583,0.396c1.494,0.138,3.006,0.302,4.493,0.49l1.029,0.13l1.184-13.277
			C27.093,23.55,25.253,21.317,22.768,21.089z M23.877,37.104c-1.174-0.139-2.358-0.264-3.53-0.371
			c-1.536-0.142-3.088-0.257-4.629-0.346l1.003-11.254c0.062-0.697,0.389-1.325,0.919-1.768c0.515-0.429,1.162-0.632,1.825-0.572
			l3.121,0.287h0c1.39,0.128,2.418,1.388,2.291,2.808L23.877,37.104z"/>
		<path d="M8.883,25.132l-3.121-0.287c-1.196-0.113-2.364,0.255-3.289,1.027c-0.941,0.786-1.52,1.896-1.63,3.125L0,38.462
			l1.163-0.074c3.255-0.206,6.672-0.266,10.161-0.181l0.938,0.023l0.723-8.123C13.207,27.593,11.368,25.36,8.883,25.132z
			 M10.435,36.188c-2.81-0.045-5.572-0.002-8.236,0.137l0.637-7.15c0.062-0.697,0.388-1.324,0.919-1.767
			c0.455-0.379,1.014-0.582,1.595-0.582c0.076,0,0.153,0.003,0.229,0.01L8.7,27.123h0c1.389,0.128,2.417,1.388,2.291,2.808
			L10.435,36.188z"/>
		<path d="M51.115,9.13l-3.121-0.287c-1.189-0.115-2.362,0.254-3.289,1.027c-0.942,0.786-1.521,1.896-1.631,3.126L40.466,42.26
			l0.802,0.223c3.59,0.997,6.887,2.136,9.799,3.384l1.268,0.544l2.879-32.304C55.44,11.591,53.601,9.358,51.115,9.13z M50.586,43.5
			c-2.442-0.986-5.118-1.897-7.98-2.719l2.46-27.608c0.063-0.697,0.389-1.325,0.92-1.768c0.515-0.429,1.167-0.631,1.825-0.572
			l3.121,0.287h0c1.39,0.128,2.417,1.387,2.29,2.807L50.586,43.5z"/>
	</g>
</g>
<g>
</g>
<g>
</g>
<g>
</g>
<g>
</g>
<g>
</g>
<g>
</g>
<g>
</g>
<g>
</g>
<g>
</g>
<g>
</g>
<g>
</g>
<g>
</g>
<g>
</g>
<g>
</g>
<g>
</g>
</svg>
