<?xml version="1.0" encoding="iso-8859-1"?>
<!-- Generator: Adobe Illustrator 18.0.0, SVG Export Plug-In . SVG Version: 6.00 Build 0)  -->
<!DOCTYPE svg PUBLIC "-//W3C//DTD SVG 1.1//EN" "http://www.w3.org/Graphics/SVG/1.1/DTD/svg11.dtd">
<svg version="1.1" id="Capa_1" xmlns="http://www.w3.org/2000/svg" xmlns:xlink="http://www.w3.org/1999/xlink" x="0px" y="0px"
	 viewBox="0 0 59.979 59.979" style="enable-background:new 0 0 59.979 59.979;" xml:space="preserve">
<g>
	<path d="M27.649,27.979c0-0.553-0.448-1-1-1s-1,0.447-1,1c0,3.869-1.776,6-5,6c-2.596,0-5.369-1.132-5.369-4.307
		c0-2.224,1.809-4.032,4.032-4.032c1.641,0,2.975,1.335,2.975,2.976c0,1.18-0.96,2.14-2.141,2.14c-0.816,0-1.48-0.664-1.48-1.48
		c0-0.529,0.43-0.96,0.959-0.96c0.552,0,1-0.447,1-1s-0.448-1-1-1c-1.632,0-2.959,1.328-2.959,2.96c0,1.919,1.562,3.48,3.48,3.48
		c2.283,0,4.141-1.857,4.141-4.14c0-2.743-2.232-4.976-4.975-4.976c-3.326,0-6.032,2.706-6.032,6.032
		c0,3.772,2.961,6.307,7.369,6.307C24.967,35.979,27.649,32.913,27.649,27.979z"/>
	<path d="M38.28,21.979c-4.318,0-7,3.065-7,8c0,0.553,0.448,1,1,1c0.552,0,1-0.447,1-1c0-3.869,1.776-6,5-6
		c2.596,0,5.369,1.132,5.369,4.307c0,2.224-1.809,4.032-4.032,4.032c-1.641,0-2.975-1.335-2.975-2.976c0-1.18,0.96-2.14,2.141-2.14
		c0.816,0,1.48,0.664,1.48,1.48c0,0.529-0.43,0.96-0.959,0.96c-0.552,0-1,0.447-1,1s0.448,1,1,1c1.632,0,2.959-1.328,2.959-2.96
		c0-1.919-1.562-3.48-3.48-3.48c-2.283,0-4.141,1.857-4.141,4.14c0,2.743,2.232,4.976,4.975,4.976c3.326,0,6.032-2.706,6.032-6.032
		C45.649,24.513,42.688,21.979,38.28,21.979z"/>
	<path d="M30.649,37.979c-7.29,0-12,3.925-12,10c0,1.117,0.129,2.696,1.244,3.505c1.269,0.921,3.034,0.345,5.079-0.321
		c1.7-0.555,3.628-1.184,5.677-1.184s3.977,0.629,5.677,1.184c1.282,0.418,2.455,0.8,3.464,0.8c0.6,0,1.142-0.135,1.615-0.479
		c1.115-0.809,1.244-2.388,1.244-3.505C42.649,41.903,37.938,37.979,30.649,37.979z M26.939,48.489
		c0.589-1.476,2.026-2.524,3.71-2.524c1.684,0,3.121,1.048,3.71,2.524c-1.153-0.291-2.401-0.511-3.71-0.511
		S28.092,48.199,26.939,48.489z M40.23,49.865c-0.444,0.321-1.953-0.171-3.284-0.605c-0.117-0.038-0.24-0.078-0.36-0.117
		c-0.403-2.92-2.908-5.178-5.937-5.178s-5.534,2.258-5.937,5.178c-0.12,0.039-0.244,0.079-0.36,0.117
		c-1.332,0.435-2.84,0.927-3.284,0.605c-0.098-0.071-0.418-0.418-0.418-1.887c0-5.898,5.166-8,10-8s10,2.102,10,8
		C40.649,49.447,40.329,49.794,40.23,49.865z"/>
	<path d="M56.271,18.842c-0.564-4.081-2.323-7.604-4.826-9.668c-0.644-0.531-1.116-1.365-1.403-2.479
		c-0.826-3.209-3.846-5.451-7.694-5.714c-2.141-0.147-3.996,0.518-6.028,1.331c-0.07,0.03-0.154,0.028-0.276-0.05
		c-0.417-1.106-1.361-1.867-2.658-2.142c-3.007-0.638-7.636,1.31-11.354,4.691c0.006-0.891,0.192-1.687,0.696-1.938l1.685-0.843
		L22.77,1.108c-1.737-0.978-5.924-2.039-9.334,0.944c-1.238,1.082-2.137,2.596-2.599,4.377c-0.094,0.364-0.19,0.755-0.277,1.14
		c-0.038,0.166-0.174,0.216-0.23,0.229c-0.11,0.024-0.198-0.001-0.299-0.122C9.497,7.025,8.688,6.708,7.86,6.819
		C7.064,6.931,6.398,7.441,6.08,8.181c-1.968,4.567-5.65,16.191,2.2,26.139v16.658c0,2.757,2.243,5,5,5h3v1.694
		c0,1.271,1.034,2.306,2.305,2.306h23.39c1.271,0,2.305-1.034,2.305-2.306v-1.694h3c2.757,0,5-2.243,5-5V34.373
		C53.452,33.053,57.503,27.761,56.271,18.842z M7.917,8.972C7.933,8.935,7.981,8.822,8.139,8.8c0.063-0.006,0.218-0.012,0.329,0.124
		l0.064,0.078c0.555,0.661,1.421,0.946,2.27,0.739c0.861-0.209,1.516-0.874,1.709-1.734c0.082-0.362,0.173-0.731,0.262-1.076
		c0.361-1.39,1.045-2.557,1.98-3.373c2.095-1.833,4.415-1.596,5.8-1.195c-0.5,0.948-0.648,2.279-0.419,3.912
		c0.075,0.538,0.443,0.979,0.959,1.149c0.522,0.174,1.089,0.036,1.477-0.357c3.808-3.865,8.198-5.457,10.4-4.99
		c0.941,0.199,1.137,0.72,1.201,0.891c0.198,0.525,0.596,0.941,1.123,1.173c0.556,0.246,1.2,0.256,1.769,0.029
		c1.865-0.747,3.421-1.305,5.149-1.192c2.366,0.161,5.156,1.353,5.894,4.216c0.395,1.533,1.09,2.719,2.067,3.524
		c1.003,0.827,3.412,3.301,4.117,8.398c0.768,5.555-0.699,9.517-2.009,11.811V18.979v-1.747l-1.507,0.885
		c-2.458,1.444-4.605,1.885-6.385,1.314c-0.276-0.089-0.533-0.2-0.771-0.325c-0.099-0.052-0.18-0.115-0.273-0.172
		c-0.13-0.08-0.268-0.156-0.385-0.244c-0.108-0.08-0.197-0.166-0.294-0.249c-0.084-0.072-0.176-0.141-0.252-0.215
		c-0.107-0.103-0.196-0.206-0.288-0.308c-0.049-0.055-0.107-0.11-0.152-0.164c-0.101-0.121-0.184-0.234-0.265-0.345
		c-0.022-0.031-0.052-0.065-0.072-0.095c-0.09-0.129-0.164-0.246-0.226-0.349c-0.003-0.006-0.009-0.014-0.013-0.02
		c-0.128-0.214-0.193-0.355-0.199-0.369c0,0-0.001-0.001-0.001-0.001l-0.217-0.503l-0.547-0.084
		c-9.591-1.479-14.262,2.537-15.57,3.94c-6.965-0.755-9.986-2.757-10.013-2.774l-0.74-0.513l-0.587,0.683
		c-1.559,1.812-3.355,2.734-4.588,3.188L8.28,20.756v0.697v9.368C3.377,22.633,5.843,13.784,7.917,8.972z M42.28,57.673
		c0,0.169-0.137,0.306-0.305,0.306h-23.39c-0.168,0-0.305-0.137-0.305-0.306v-1.694h24V57.673z M50.28,50.979c0,1.654-1.346,3-3,3
		h-3h-28h-3c-1.654,0-3-1.346-3-3V36.79V22.129c1.231-0.532,2.767-1.422,4.196-2.885c1.408,0.73,4.807,2.158,10.708,2.729
		l0.565,0.055l0.336-0.457c0.038-0.051,3.799-5,13.546-3.676c0.516,0.89,1.797,2.672,4.113,3.429
		c1.952,0.638,4.143,0.404,6.535-0.693v15.718V50.979z"/>
</g>
<g>
</g>
<g>
</g>
<g>
</g>
<g>
</g>
<g>
</g>
<g>
</g>
<g>
</g>
<g>
</g>
<g>
</g>
<g>
</g>
<g>
</g>
<g>
</g>
<g>
</g>
<g>
</g>
<g>
</g>
</svg>
