<?xml version="1.0" encoding="iso-8859-1"?>
<!-- Generator: Adobe Illustrator 18.0.0, SVG Export Plug-In . SVG Version: 6.00 Build 0)  -->
<!DOCTYPE svg PUBLIC "-//W3C//DTD SVG 1.1//EN" "http://www.w3.org/Graphics/SVG/1.1/DTD/svg11.dtd">
<svg version="1.1" id="Capa_1" xmlns="http://www.w3.org/2000/svg" xmlns:xlink="http://www.w3.org/1999/xlink" x="0px" y="0px"
	 viewBox="0 0 480 480" style="enable-background:new 0 0 480 480;" xml:space="preserve">
<path d="M409.706,70.295C364.376,24.964,304.106,0,240,0C175.895,0,115.625,24.965,70.294,70.294C24.964,115.625,0,175.894,0,240
	s24.964,124.375,70.294,169.706C115.625,455.035,175.895,479.999,240,480c0.004,0-0.003,0,0.001,0
	c64.102,0,124.377-24.967,169.705-70.294C455.036,364.376,480,304.107,480,240S455.036,115.625,409.706,70.295z M84.437,84.436
	L84.437,84.436C125.989,42.884,181.236,20,240,20c39.452,0,77.311,10.329,110.512,29.682
	C282.14,68.468,215.862,107.698,161.78,161.78c-54.082,54.083-93.312,120.36-112.098,188.733C30.329,317.311,20,279.452,20,240
	C20,181.236,42.884,125.989,84.437,84.436z M64.719,372.991c15.649-71.048,55.007-140.873,111.204-197.069
	c56.196-56.196,126.02-95.555,197.069-111.203c7.89,6.012,15.437,12.582,22.572,19.717c7.135,7.135,13.705,14.682,19.717,22.572
	c-15.649,71.049-55.008,140.873-111.204,197.068c-56.196,56.196-126.02,95.555-197.069,111.203
	c-7.89-6.012-15.438-12.582-22.572-19.717C77.302,388.429,70.732,380.882,64.719,372.991z M395.563,395.563
	C354.011,437.116,298.764,460,240,460c-39.451,0-77.31-10.329-110.512-29.682c68.373-18.787,134.65-58.017,188.731-112.098
	c54.082-54.082,93.312-120.359,112.098-188.732C449.671,162.689,460,200.548,460,240C460,298.764,437.116,354.011,395.563,395.563z"
	/>
<g>
</g>
<g>
</g>
<g>
</g>
<g>
</g>
<g>
</g>
<g>
</g>
<g>
</g>
<g>
</g>
<g>
</g>
<g>
</g>
<g>
</g>
<g>
</g>
<g>
</g>
<g>
</g>
<g>
</g>
</svg>
