<?xml version="1.0" encoding="iso-8859-1"?>
<!-- Generator: Adobe Illustrator 16.0.0, SVG Export Plug-In . SVG Version: 6.00 Build 0)  -->
<!DOCTYPE svg PUBLIC "-//W3C//DTD SVG 1.1//EN" "http://www.w3.org/Graphics/SVG/1.1/DTD/svg11.dtd">
<svg version="1.1" id="Capa_1" xmlns="http://www.w3.org/2000/svg" xmlns:xlink="http://www.w3.org/1999/xlink" x="0px" y="0px"
	 width="563.805px" height="563.805px" viewBox="0 0 563.805 563.805" style="enable-background:new 0 0 563.805 563.805;"
	 xml:space="preserve">
<g>
	<path d="M559.051,462.828l-70.784-160.913c0.092-0.056,0.172-0.11,0.257-0.159l-0.263-0.606
		c25.894-15.306,41.543-35.049,41.628-56.616c-0.018-4.339-0.673-8.788-1.909-12.962c0,0,0.013-0.006,0.024-0.012
		c-0.019-0.062-0.019-0.123-0.037-0.178c23.22-9.798,40.093-34.309,34.891-58.042c-1.75-7.895-5.931-15.698-13.14-22.834
		c-14.854-14.712-31.763-18.115-50.196-18.115c-7.76,0-15.789,0.569-24.058,1.163c-1.175,0.085-2.344,0.795-3.488,0.795
		c-0.08,0-0.159,0.673-0.239,0.673h-0.012c-27.815,0-47.772-24.517-72.112-24.719c-0.061,0.006-0.122-0.098-0.184-0.196
		l-0.122-0.471l0,0l-0.766-3.011l-0.765-3.011l-1.573-6.188c-1.707-6.805-8.77-11.365-15.783-11.365H221.667
		c-7.014,0-8.262,2.613-2.785,6.995l43.666,33.997c5.478,4.382,15.606,7.968,22.62,7.968h16.219v19.596
		c16.188-2.301,33.311-3.568,51.163-3.568c7.546,0,14.957,0.275,22.276,0.704v-16.732h11.971h6.322c3.477,0,6.279-1.249,8.023-3.335
		c0.697-0.833,2.344-1.818,2.674-2.889c0.258-0.82,1.61-1.701,1.61-2.631c0,0.018,0,0.03,0,0.049c0,0.942-1.353,1.793-1.609,2.625
		c12.233,1.193,21.542,11.383,31.634,17.479c9.241,5.582,20.557,6.016,30.985,6.561c1.567,0.079,2.993,0.11,4.565,0.11
		c10.869,0,21.892-1.713,32.699-2.038c0.508-0.018,0.979-0.024,1.481-0.024c41.892,0,49.572,53.385,14.646,64.009
		c-21.94-31.065-77.596-53.03-144.989-57.039c-7.308-0.435-14.719-0.722-22.277-0.722c-14.125,0-27.857,0.808-41.022,2.326
		c-69.817,8.072-123.667,36.72-134.371,73.44h-2.252h-22.674h-0.135c-0.049-6.12-0.123-6.12-0.184-6.12
		c-1.457-24.48-6.463-51.249-22.54-51.249c-7.393,0-12.411,6.034-15.857,14.81c-0.006-0.018-0.012-0.042-0.018-0.061
		c-0.012,0.037-0.024,0.085-0.037,0.123c-3.445-8.752-8.458-14.762-15.832-14.762c-7.24,0-12.191,5.734-15.637,14.223
		c-0.012-0.031-0.019-0.062-0.031-0.092c-0.012,0.037-0.024,0.08-0.043,0.122c-3.439-8.47-8.396-14.467-15.618-14.467
		c-16.089-0.006-21.096,26.873-22.552,51.353c-0.067,0-0.134,0-0.184,6.12H43.44H15.282c-4.192,0-7.638,1.23-10.331,3.231
		c-8.794,7.846-5.881,27.369,8.794,27.369h30.166c0.073,0,0.171,6.12,0.257,6.12h0.288c2.142,24.48,7.717,43.789,21.836,43.789
		c7.258,0,12.222-6.328,15.661-14.854c-1.218-3.017-2.185-6.199-3.048-9.535c0.851,3.195,1.854,6.182,3.048,9.138
		c1.921-4.768,3.36-9.62,4.431-15.306c-1.077,5.997-2.485,11.272-4.431,16.101c3.439,8.525,8.409,14.854,15.667,14.854
		c7.399,0,12.424-6.75,15.869-15.557c-3.115-7.986-4.939-16.39-5.955-28.629c1.016,12.24,2.833,20.049,5.961,28.036
		c1.854-4.73,3.237-9.425,4.278-14.987c-1.041,5.875-2.405,10.997-4.278,15.783c3.445,8.807,8.47,14.565,15.875,14.565
		c14.125,0,19.7-18.911,21.836-43.391c0.11,0,0.196,0,0.288,0s0.184-6.12,0.257-6.12h27.552
		c13.396,30.6,59.266,55.594,119.083,65.129c21.102,46.096,66.035,74.181,116.146,74.181c2.441,0,4.89,0.135,7.356,0l24.657,61.414
		c2.228,5.227,8.635,13.47,14.314,13.47h92.528c0.71,0,1.377-0.141,1.989-0.392c4.29-1.763,6.113-9.082,4.076-13.617
		L559.051,462.828z M120.24,226.822h5.049c0.863-12.24,2.454-20.404,4.088-26.267c1.634,5.863,3.225,14.027,4.088,26.267
		c0.062,0,0.123,0.037,0.178,2.876c0,0.19,0.006,0.41,0.006,0.618c0.012,0.729,0.024,1.555,0.037,2.625h-8.745
		c0.037-0.881,0.073-1.995,0.122-2.846c0.067-1.053,0.147-3.274,0.227-3.274H120.24h-0.031c-0.019,0-0.031,0-0.031,0H120.24z
		 M106.531,232.942c0.037-0.863,0.074-1.726,0.123-2.625c0.006-0.184,0.024-0.367,0.03-0.557c-0.012,0.82-0.018,1.928-0.03,3.182
		H106.531z M120.313,229.766c0.012,0.184,0.024,0.367,0.031,0.551c0.049,0.9,0.085,1.763,0.122,2.625h-0.122
		C120.332,231.694,120.326,230.586,120.313,229.766z M88.912,226.822h4.627c0.857-12.24,2.448-20.404,4.088-26.261
		c1.634,5.857,3.226,14.021,4.083,26.261h5.049h0.08c0,0-0.031,0-0.043,0h-0.037h-5.049c0.079,0,0.159,2.222,0.226,3.274
		c0.049,0.845,0.086,1.958,0.128,2.846h-8.868c0.037-0.881,0.073-1.995,0.123-2.846c0.061-1.053,0.141-3.274,0.22-3.274H88.912
		h-0.03c-0.019,0-0.031,0-0.031,0H88.912z M74.787,232.942c0.037-0.863,0.073-1.726,0.122-2.625
		c0.006-0.184,0.024-0.367,0.031-0.557c-0.012,0.82-0.019,1.928-0.031,3.182H74.787z M88.979,229.766
		c0.012,0.184,0.024,0.367,0.031,0.551c0.049,0.9,0.085,1.763,0.123,2.625H89.01C89.003,231.694,88.991,230.586,88.979,229.766z
		 M66.298,200.562c1.634,5.857,3.225,14.021,4.082,26.261h4.627h0.08h-0.043h-0.037H70.38c0.08,0,0.159,2.222,0.227,3.274
		c0.049,0.845,0.085,1.958,0.128,2.846H61.99c0.013-1.071,0.019-1.897,0.037-2.625c0-0.214,0.006-0.435,0.006-0.618
		c0.055-2.839,0.123-2.876,0.178-2.876C63.067,214.583,64.658,206.418,66.298,200.562z M63.238,269.663H63h-0.165h-0.153
		c-0.049,0-0.104-2.301-0.153-3.819c-0.049-0.502-0.104-2.301-0.104-2.301h0.049h7.735h5.031c0,0,0.08,0.728,0.123,2.252
		c-0.037-0.489-0.086-2.252-0.086-2.252h-5.067c-0.092,0-0.196,2.84-0.3,3.85c-0.055,0.496-0.104,1.774-0.153,2.271h-0.166h-0.238
		c-0.863,6.12-1.946,12.234-3.054,16.212C65.185,281.896,64.102,275.782,63.238,269.663z M94.567,269.663h-0.239h-0.166
		c-0.049-0.496-0.104-1.775-0.153-2.271c-0.098-1.01-0.208-3.85-0.3-3.85h-5.031c0,0-0.08,1.763-0.123,2.252
		c0.037-1.524,0.08-2.252,0.08-2.252h5.074h7.828h5.453c0,0,0.08,0.728,0.123,2.252c-0.043-0.489-0.086-2.252-0.086-2.252h-5.483
		c-0.092,0-0.196,2.84-0.3,3.85c-0.049,0.496-0.104,1.769-0.153,2.271h-0.166h-0.239c-0.863,6.12-1.946,12.234-3.054,16.212
		C96.513,281.896,95.43,275.782,94.567,269.663z M133.147,265.825c-0.055,1.524-0.104,3.837-0.159,3.837h-0.153h-0.165h-0.239
		c-0.863,6.12-1.946,12.24-3.06,16.218c-1.108-3.979-2.191-10.099-3.054-16.218h-0.239h-0.165c-0.049-0.496-0.104-1.775-0.153-2.271
		c-0.104-1.01-0.208-3.85-0.3-3.85h-5.453c0,0-0.079,1.763-0.122,2.252c0.043-1.524,0.08-2.252,0.08-2.252h5.49h7.735h0.098
		C133.294,263.542,133.196,265.33,133.147,265.825z M373.174,208.481v-0.019h0.013L373.174,208.481z M329.489,331.842
		c7.553,0.489,15.239,0.765,23.061,0.765c7.417,0,14.694-0.281,21.873-0.729c2.98,7.271,3.947,14.891,3.078,23.238
		c-0.722,6.897,6.322,12.699,12.699,12.699c6.848,0,11.181-4.915,12.405-11.041l8.69,20.606
		C377.525,376.487,347.733,359.633,329.489,331.842z M313.981,281.475l-13.231,0.819l7.319-11.824l21.665-35.006l3.702-5.985
		l-23.898,1.193l0,0l-53.263,2.656c-8.452,0.422-15.643-6.083-16.065-14.535l0,0l0,0c-0.422-8.452,6.083-15.643,14.535-16.065
		c0.508-0.024,1.034-0.024,1.536,0l96.513,4.872l20.343,0.937l-11.738,15.41l-12.265,15.324l131.06,30.392h-0.079l-130.986-30.343
		l-0.056,0.447l-0.055,0.178l-21.206,27.724l152.101,3.464L313.981,281.475z M489.43,445.05c-10.521,0-19.052-8.531-19.052-19.052
		s8.531-19.052,19.052-19.052s19.052,8.531,19.052,19.052S499.95,445.05,489.43,445.05z"/>
</g>
<g>
</g>
<g>
</g>
<g>
</g>
<g>
</g>
<g>
</g>
<g>
</g>
<g>
</g>
<g>
</g>
<g>
</g>
<g>
</g>
<g>
</g>
<g>
</g>
<g>
</g>
<g>
</g>
<g>
</g>
</svg>
