<?xml version="1.0" encoding="utf-8"?>
<!-- Generator: Adobe Illustrator 17.0.2, SVG Export Plug-In . SVG Version: 6.00 Build 0)  -->
<!DOCTYPE svg PUBLIC "-//W3C//DTD SVG 1.1//EN" "http://www.w3.org/Graphics/SVG/1.1/DTD/svg11.dtd">
<svg version="1.1" id="Capa_1" xmlns="http://www.w3.org/2000/svg" xmlns:xlink="http://www.w3.org/1999/xlink" x="0px" y="0px"
	 width="64px" height="64px" viewBox="0 0 64 64" enable-background="new 0 0 64 64" xml:space="preserve">
<path d="M39.216,14.341V9.073c0-4.176-3.267-7.573-7.282-7.573S24.65,4.897,24.65,9.073v5.339c-3.041,1.659-6.443,4.902-7.169,11.19
	c-0.948,8.215-0.593,21.939-0.296,29.389c0.164,4.141,3.879,7.509,8.281,7.509h13.066c4.402,0,8.117-3.368,8.281-7.509
	c0.297-7.449,0.652-21.174-0.296-29.389C45.784,19.242,42.316,15.991,39.216,14.341z M43.816,54.872
	c-0.101,2.552-2.471,4.628-5.283,4.628H25.467c-2.812,0-5.183-2.076-5.283-4.628c-0.294-7.363-0.647-20.911,0.278-28.926
	c0.511-4.428,2.638-7.541,6.32-9.251l0.868-0.403V9.073c0-2.521,1.922-4.573,4.283-4.573s4.282,2.052,4.282,4.573v7.169l0.883,0.399
	c3.756,1.697,5.923,4.828,6.439,9.305C44.464,33.961,44.11,47.509,43.816,54.872z"/>
<path d="M30.25,17.125h3.5c0.828,0,1.5-0.672,1.5-1.5s-0.672-1.5-1.5-1.5h-3.5c-0.828,0-1.5,0.672-1.5,1.5
	S29.422,17.125,30.25,17.125z"/>
<path d="M39.895,35.482c-1.216-3.143-4.347-5.291-7.811-5.291c-0.44,0-0.875,0.036-1.301,0.103
	c-0.158-0.039-0.314-0.084-0.465-0.141c-0.576-0.219-1.497-0.988-0.75-1.624c0.592-0.504,1.688-0.648,2.423-0.416
	c0.394,0.125,0.907,0.495,0.331,0.792c-0.42,0.216-0.812,0.193-1.239,0.01c-0.589-0.252-0.87,0.701-0.289,0.95
	c0.718,0.307,1.607,0.257,2.232-0.245c0.447-0.359,0.785-1.034,0.439-1.585c-0.768-1.222-2.668-1.201-3.856-0.68
	c-1.17,0.513-1.801,2.085-0.73,3.067c0.114,0.104,0.235,0.198,0.362,0.284c-2.246,0.809-4.1,2.53-4.969,4.775
	c-1.506,0.107-2.697,1.366-2.697,2.898s1.191,2.792,2.697,2.899c1.217,3.143,4.348,5.291,7.812,5.291s6.595-2.148,7.811-5.291
	c1.505-0.107,2.697-1.367,2.697-2.899S41.399,35.59,39.895,35.482z M39.479,39.77l-0.641-0.095l-0.188,0.618
	c-0.856,2.813-3.557,4.778-6.565,4.778c-3.008,0-5.709-1.965-6.566-4.778l-0.189-0.619l-0.641,0.097
	c-0.066,0.01-0.135,0.018-0.205,0.018c-0.776,0-1.407-0.631-1.407-1.407c0-0.775,0.631-1.406,1.407-1.406
	c0.07,0,0.139,0.008,0.205,0.018l0.641,0.097l0.189-0.619c0.857-2.813,3.558-4.778,6.566-4.778s5.709,1.965,6.565,4.778l0.188,0.619
	l0.641-0.096c0.806-0.132,1.612,0.542,1.613,1.388C41.091,39.228,40.284,39.897,39.479,39.77z"/>
<path d="M29.989,38.037c-0.853,0-0.853,1.323,0,1.323S30.842,38.037,29.989,38.037z"/>
<path d="M34.179,37.954c-0.853,0-0.853,1.323,0,1.323S35.032,37.954,34.179,37.954z"/>
<path d="M33.539,40.212c-0.274,0-0.51,0.171-0.604,0.412c-0.13,0.059-0.426,0.139-0.851,0.139s-0.721-0.08-0.851-0.139
	c-0.095-0.241-0.33-0.412-0.604-0.412c-0.359,0-0.65,0.291-0.65,0.65c0,0.729,0.827,1.201,2.105,1.201s2.105-0.472,2.105-1.201
	C34.189,40.503,33.898,40.212,33.539,40.212z"/>
</svg>
