<?xml version="1.0" encoding="utf-8"?>
<!-- Generator: Adobe Illustrator 16.0.4, SVG Export Plug-In . SVG Version: 6.00 Build 0)  -->
<!DOCTYPE svg PUBLIC "-//W3C//DTD SVG 1.1//EN" "http://www.w3.org/Graphics/SVG/1.1/DTD/svg11.dtd">
<svg version="1.1" id="Layer_1" xmlns="http://www.w3.org/2000/svg" xmlns:xlink="http://www.w3.org/1999/xlink" x="0px" y="0px"
	 width="32px" height="32px" viewBox="0 0 32 32" enable-background="new 0 0 32 32" xml:space="preserve">
<g>
	<path d="M1.285,11.671C0.6,11.934,0.114,12.55,0.017,13.277c-0.096,0.728,0.213,1.449,0.806,1.88l6.492,4.724L30.374,1.74
		L9.985,21.826l8.875,6.458c0.565,0.411,1.293,0.534,1.964,0.33c0.67-0.204,1.204-0.712,1.444-1.368l9.494-25.985
		c0.096-0.264,0.029-0.559-0.171-0.756c-0.2-0.197-0.495-0.259-0.758-0.158L1.285,11.671z"/>
	<path d="M5.774,21.451l0.055,0.301l1.26,6.889c0.094,0.512,0.436,0.941,0.912,1.148c0.476,0.206,1.025,0.162,1.461-0.119
		c1.755-1.132,4.047-2.634,3.985-2.722L5.774,21.451z"/>
</g>
</svg>
