<?xml version="1.0" encoding="iso-8859-1"?>
<!-- Generator: Adobe Illustrator 18.1.1, SVG Export Plug-In . SVG Version: 6.00 Build 0)  -->
<svg version="1.1" id="Capa_1" xmlns="http://www.w3.org/2000/svg" xmlns:xlink="http://www.w3.org/1999/xlink" x="0px" y="0px"
	 viewBox="0 0 27.205 27.205" style="enable-background:new 0 0 27.205 27.205;" xml:space="preserve">
<g>
	<path style="fill:#010002;" d="M11.325,18.617c0-0.778-0.632-1.41-1.409-1.41c-0.779,0-1.411,0.632-1.411,1.41
		s0.632,1.41,1.411,1.41C10.693,20.027,11.325,19.396,11.325,18.617z M10.205,19.516c-0.399,0-0.723-0.324-0.723-0.725
		c0-0.398,0.324-0.723,0.723-0.723s0.722,0.324,0.722,0.723C10.927,19.191,10.604,19.516,10.205,19.516z M15.751,18.617
		c0,0.778,0.629,1.41,1.408,1.41c0.779,0,1.41-0.632,1.41-1.41s-0.631-1.41-1.41-1.41C16.381,17.207,15.751,17.839,15.751,18.617z
		 M16.871,18.068c0.399,0,0.723,0.324,0.723,0.723c-0.001,0.4-0.324,0.725-0.723,0.725s-0.723-0.324-0.723-0.725
		C16.148,18.393,16.472,18.068,16.871,18.068z M10.422,22.189h6.091C16.513,22.189,13.564,25.428,10.422,22.189z M25.605,11.225
		l0.002-0.03c0.014-0.186,0.026-0.373,0.026-0.562c0-3.574-1.303-5.104-3.765-7.343C19.529,1.166,17.125,0,13.605,0
		c-3.518,0-5.922,1.166-8.261,3.29c-2.462,2.236-3.767,3.769-3.767,7.343c0,0.138,0.009,0.276,0.015,0.415l0.006,0.177
		c-0.629,0.035-1.133,0.524-1.133,1.134v7.611c0,0.636,0.532,1.151,1.193,1.151h0.408c0.235,0.234,0.557,0.369,0.895,0.369H4.18
		c0.054,0,0.108-0.007,0.161-0.015c1.917,3.44,5.29,5.73,9.126,5.73c3.857,0,7.248-2.313,9.16-5.783
		c0.126,0.04,0.26,0.067,0.4,0.067h1.221c0.339,0,0.657-0.132,0.887-0.369h0.413c0.659,0,1.192-0.516,1.192-1.151v-7.611
		C26.74,11.749,26.235,11.256,25.605,11.225z M21.768,19.773c-1.55,3.423-4.684,5.765-8.301,5.765c-3.418,0-6.407-2.093-8.032-5.214
		c0.001-0.014,0.003-0.026,0.003-0.04v-5.372h1.917l4.23-3.145l-1.693,3.174c0,0,7.212,1.499,11.876,0.299
		C21.768,15.24,21.768,19.773,21.768,19.773z M23.595,10.842c-1.532-4.217-5.493-6.53-10.128-6.53
		c-4.614,0-8.562,2.296-10.105,6.482C3.458,5.134,7.143,1.65,13.855,1.65c6.027,0,9.899,3.484,9.993,9.192H23.595z"/>
</g>
<g>
</g>
<g>
</g>
<g>
</g>
<g>
</g>
<g>
</g>
<g>
</g>
<g>
</g>
<g>
</g>
<g>
</g>
<g>
</g>
<g>
</g>
<g>
</g>
<g>
</g>
<g>
</g>
<g>
</g>
</svg>
