<?xml version="1.0" encoding="iso-8859-1"?>
<!-- Generator: Adobe Illustrator 19.0.0, SVG Export Plug-In . SVG Version: 6.00 Build 0)  -->
<svg version="1.1" id="Capa_1" xmlns="http://www.w3.org/2000/svg" xmlns:xlink="http://www.w3.org/1999/xlink" x="0px" y="0px"
	 viewBox="0 0 55 55" style="enable-background:new 0 0 55 55;" xml:space="preserve">
<g>
	<g>
		<path d="M27.5,0C12.337,0,0,12.337,0,27.5S12.337,55,27.5,55S55,42.663,55,27.5S42.663,0,27.5,0z M27.5,53
			C13.439,53,2,41.561,2,27.5S13.439,2,27.5,2S53,13.439,53,27.5S41.561,53,27.5,53z"/>
		<path d="M27.5,5C15.094,5,5,15.094,5,27.5c0,4.328,1.413,5.698,2.476,6.352C8.61,34.55,9.704,34.9,10.743,34.9
			c0.542,0,1.068-0.096,1.579-0.286c3.246-1.213,4.739-5.974,5.632-8.818c0.185-0.588,0.338-1.084,0.475-1.425
			c0.864-2.161,1.032-8.265,1.063-10.815c1.815,0.279,6.351,1.694,12.774,8.624c2.582,2.786,4.431,4.943,5.916,6.678
			c3.705,4.325,4.949,5.78,8.029,5.12c1.41-0.306,2.602-1.477,3.541-3.481l0.068-0.146l0.02-0.16C49.946,29.304,50,28.398,50,27.5
			C50,15.094,39.906,5,27.5,5z M47.873,29.791c-0.459,0.94-1.175,2.035-2.084,2.231c-1.803,0.391-2.381-0.139-6.088-4.467
			c-1.496-1.747-3.358-3.921-5.968-6.735c-9.245-9.974-15.12-9.344-15.361-9.313L17.5,11.621V12.5c0,2.45-0.167,9.225-0.929,11.129
			c-0.149,0.374-0.322,0.92-0.526,1.569c-0.731,2.331-2.093,6.672-4.423,7.543c-0.896,0.331-1.908,0.141-3.098-0.593
			C8.107,31.892,7,31.211,7,27.5C7,16.196,16.196,7,27.5,7S48,16.196,48,27.5C48,28.265,47.957,29.035,47.873,29.791z"/>
	</g>
</g>
<g>
</g>
<g>
</g>
<g>
</g>
<g>
</g>
<g>
</g>
<g>
</g>
<g>
</g>
<g>
</g>
<g>
</g>
<g>
</g>
<g>
</g>
<g>
</g>
<g>
</g>
<g>
</g>
<g>
</g>
</svg>
