<?xml version="1.0" encoding="iso-8859-1"?>
<!-- Generator: Adobe Illustrator 18.0.0, SVG Export Plug-In . SVG Version: 6.00 Build 0)  -->
<!DOCTYPE svg PUBLIC "-//W3C//DTD SVG 1.1//EN" "http://www.w3.org/Graphics/SVG/1.1/DTD/svg11.dtd">
<svg version="1.1" id="Capa_1" xmlns="http://www.w3.org/2000/svg" xmlns:xlink="http://www.w3.org/1999/xlink" x="0px" y="0px"
	 viewBox="0 0 103.301 80.159" style="enable-background:new 0 0 103.301 80.159;" preserveAspectRatio="fit">
<g>
	<path d="M47.602,59.159c-1.892,0-2.84,2.447-1.502,3.785l4.099,4.179c0.829,0.83,2.174,0.869,3.004,0.04l4.099-4.239
		c1.338-1.338,0.391-3.766-1.502-3.766H47.602z"/>
	<path d="M103.269,56.096c-0.143-2.779-0.768-5.771-1.858-8.892c-1.64-4.698-4.395-9.759-7.638-14.063
		c1.197-4.101,1.621-8.242,1.26-12.326c-0.317-3.592-1.239-7.138-2.739-10.542c-2.554-5.794-5.917-9.19-6.059-9.331L85.291,0
		l-1.296,0.315c-5.015,1.218-9.263,3.953-12.626,8.13c-2.036,2.529-3.428,5.189-4.338,7.395c-4.048-0.987-7.977-1.56-12.977-1.711
		v0.03h-2.353h-0.048H51.6h-2.546v-0.03c-4,0.151-8.832,0.725-12.88,1.711c-0.911-2.206-2.248-4.866-4.284-7.395
		c-3.363-4.177-7.59-6.912-12.605-8.13L17.999,0l-0.938,0.942c-0.142,0.142-3.503,3.538-6.057,9.331
		c-1.5,3.404-2.42,6.95-2.738,10.542C7.905,24.9,8.33,29.04,9.527,33.141c-3.244,4.304-5.998,9.366-7.638,14.063
		c-1.089,3.121-1.714,6.112-1.857,8.892c-0.167,3.236,0.32,6.2,1.445,8.81l2.281,5.289l2.112-5.359
		c0.799-2.026,2.253-3.085,3.55-3.638c-0.012,0.953-0.03,2.038-0.05,3.064l-0.113,5.706l4.129-3.939
		c2.734-2.608,6.592-3.058,11.465-1.337c2.355,0.832,4.415,2.061,5.722,2.887c9.209,6.447,18.089,12.581,18.089,12.581h3.038h3.038
		c0,0,9.351-6.455,18.812-13.087c1.251-0.738,2.924-1.641,4.802-2.314c4.918-1.762,8.808-1.34,11.562,1.286l4.129,3.931
		l-0.113-5.709c-0.02-1.026-0.038-2.113-0.05-3.066c1.297,0.553,2.751,1.61,3.55,3.637l2.112,5.359l2.281-5.29
		C102.95,62.296,103.436,59.332,103.269,56.096z M35.307,47.834c0-1.749,1.423-3.172,3.172-3.172s3.172,1.423,3.172,3.172
		c0,1.749-1.423,3.172-3.172,3.172S35.307,49.583,35.307,47.834z M64.924,51.006c-1.749,0-3.172-1.423-3.172-3.172
		c0-1.749,1.423-3.172,3.172-3.172c1.749,0,3.172,1.423,3.172,3.172C68.095,49.583,66.673,51.006,64.924,51.006z M98.506,58.469
		c-2.782-2.242-6.005-2.569-6.858-2.616l-1.037-0.056l-0.746,0.72c-0.753,0.727-0.753,1.467-0.753,2.693
		c0,0.206,0.001,0.442,0.003,0.708c-1.315-0.54-2.727-0.864-4.225-0.968c0.778-0.564,1.519-1.106,2.215-1.619
		c3.039-2.241,3.296-6.689,0.542-9.272c-7.867-7.38-23.159-18.903-31.407-5.438l0.01,11.815c0,0,1.743,2.673,5.772,4.067
		c3.961,1.371,6.125,1.469-9.508,12.52c-0.487,0.344-1.139,0.344-1.626,0c-15.632-11.051-13.469-11.148-9.508-12.52
		c4.029-1.395,5.772-4.067,5.772-4.067l0.011-11.815c-8.247-13.465-23.54-1.943-31.407,5.438c-2.754,2.584-2.497,7.031,0.542,9.272
		c0.693,0.511,1.432,1.051,2.207,1.614c-1.533,0.097-2.976,0.422-4.318,0.974c0.002-0.266,0.003-0.503,0.003-0.708
		c0-1.226,0-1.966-0.753-2.693l-0.748-0.721l-1.036,0.057c-0.853,0.047-4.076,0.374-6.858,2.616
		c-0.224-3.473,0.64-6.999,1.582-9.698c1.601-4.585,4.388-9.57,7.648-13.677l0.343-0.432c3.958-4.248,12.56-8.415,12.56-8.415
		c-2.376-10.615-9.506-12.991-9.506-12.991c-2.97,3.24-4.127,7.802-4.479,11.972c-0.074-1.299-0.06-2.594,0.048-3.88
		c0.257-3.053,1.027-6.078,2.29-8.99c1.443-3.328,3.215-5.765,4.257-7.041c3.392,1.102,6.31,3.152,8.69,6.108
		c2.295,2.851,3.607,5.933,4.303,8.016l0.722,2.16l2.189-0.629c2.443-0.702,5.021-1.232,7.716-1.588
		c2.355,1.665,5.145,4.321,5.145,7.564c0,5.612,0.148,9.841,3.396,9.841c3.249,0,3.396-4.229,3.396-9.841
		c0-3.235,2.777-5.887,5.129-7.552c2.665,0.356,5.215,0.882,7.632,1.577l2.189,0.629l0.722-2.16
		c0.696-2.084,2.008-5.166,4.303-8.016c2.38-2.957,5.3-5.008,8.694-6.109c1.02,1.245,2.739,3.605,4.18,6.875
		c1.29,2.927,2.082,5.97,2.354,9.043c0.096,1.085,0.124,2.175,0.09,3.269c-0.422-3.967-1.611-8.194-4.409-11.247
		c0,0-7.129,2.377-9.506,12.991c0,0,7.881,3.818,12.026,7.87l0.775,0.977c3.26,4.107,6.048,9.092,7.649,13.677
		C97.866,51.469,98.73,54.996,98.506,58.469z"/>
</g>
<g>
</g>
<g>
</g>
<g>
</g>
<g>
</g>
<g>
</g>
<g>
</g>
<g>
</g>
<g>
</g>
<g>
</g>
<g>
</g>
<g>
</g>
<g>
</g>
<g>
</g>
<g>
</g>
<g>
</g>
</svg>
