<?xml version="1.0" encoding="iso-8859-1"?>
<!-- Generator: Adobe Illustrator 16.0.0, SVG Export Plug-In . SVG Version: 6.00 Build 0)  -->
<!DOCTYPE svg PUBLIC "-//W3C//DTD SVG 1.1//EN" "http://www.w3.org/Graphics/SVG/1.1/DTD/svg11.dtd">
<svg version="1.1" id="Capa_1" xmlns="http://www.w3.org/2000/svg" xmlns:xlink="http://www.w3.org/1999/xlink" x="0px" y="0px"
	 width="45px" height="45px" viewBox="0 0 45 45" style="enable-background:new 0 0 45 45;" xml:space="preserve">
<g>
	<g>
		<g>
			<path d="M44.801,24.198c-0.506-1.75-4.51-3.289-5.306-3.58c-0.854-0.313-3.047-1.063-5.153-1.339
				c-3.697-1.809-7.843-3.073-7.922-3.096c-0.066-0.014-1.706-0.358-6.284-0.358c-3.043,0-6.013,0.6-8.633,1.128
				c-1.372,0.277-2.667,0.54-3.817,0.682c-3.304,0.408-5.792,0.446-5.817,0.446c-0.197,0.003-0.374,0.124-0.447,0.308
				C1.363,18.534,0,21.966,0,23.535c0,1.698,2.37,3.405,2.64,3.595c0.082,0.058,0.18,0.088,0.28,0.088h0.987
				c0.733,1.171,2.027,1.957,3.507,1.957c1.481,0,2.774-0.784,3.508-1.957h20.325c0.705,1.167,1.974,1.957,3.435,1.957
				s2.729-0.79,3.436-1.957h6.254c0.213,0,0.401-0.137,0.467-0.34C44.852,26.828,45.219,25.644,44.801,24.198z M32.77,19.621
				c-0.852,0.179-1.788,0.29-2.814,0.342l0.026-0.048c0.068-0.125,0.081-0.276,0.03-0.411c-0.051-0.136-0.16-0.241-0.295-0.29
				l-1.473-0.521c-0.135-0.048-0.28-0.034-0.403,0.034c-0.123,0.069-0.21,0.188-0.239,0.327L27.41,19.98
				c-2.495-0.082-5.267-0.415-8.332-0.838l1.343-2.336c4.18,0.014,5.745,0.325,5.756,0.325C26.218,17.143,29.486,18.14,32.77,19.621
				z M11.697,17.913c2.32-0.468,4.923-0.97,7.57-1.07l-1.237,2.153c-0.548-0.077-1.104-0.157-1.673-0.237
				c-1.707-0.243-3.449-0.492-5.256-0.726C11.299,17.993,11.497,17.953,11.697,17.913z M7.414,28.196
				c-1.748,0-3.172-1.424-3.172-3.172c0-1.75,1.424-3.171,3.172-3.171c1.75,0,3.173,1.421,3.173,3.171
				C10.587,26.772,9.164,28.196,7.414,28.196z M34.682,28.196c-1.68,0-3.045-1.366-3.045-3.045c0-1.68,1.365-3.045,3.045-3.045
				c1.681,0,3.045,1.366,3.045,3.045C37.727,26.83,36.359,28.196,34.682,28.196z"/>
			<circle cx="7.414" cy="25.025" r="2.02"/>
			<circle cx="34.682" cy="25.151" r="2.02"/>
		</g>
	</g>
</g>
<g>
</g>
<g>
</g>
<g>
</g>
<g>
</g>
<g>
</g>
<g>
</g>
<g>
</g>
<g>
</g>
<g>
</g>
<g>
</g>
<g>
</g>
<g>
</g>
<g>
</g>
<g>
</g>
<g>
</g>
</svg>
