<?xml version="1.0" encoding="iso-8859-1"?>
<!-- Generator: Adobe Illustrator 18.0.0, SVG Export Plug-In . SVG Version: 6.00 Build 0)  -->
<!DOCTYPE svg PUBLIC "-//W3C//DTD SVG 1.1//EN" "http://www.w3.org/Graphics/SVG/1.1/DTD/svg11.dtd">
<svg version="1.1" id="Capa_1" xmlns="http://www.w3.org/2000/svg" xmlns:xlink="http://www.w3.org/1999/xlink" x="0px" y="0px"
	 viewBox="0 0 59.978 59.978" style="enable-background:new 0 0 59.978 59.978;" xml:space="preserve">
<g>
	<path d="M30.28,41.673c-2.757,0-5,2.243-5,5s2.243,5,5,5s5-2.243,5-5S33.037,41.673,30.28,41.673z M30.28,49.673
		c-1.654,0-3-1.346-3-3s1.346-3,3-3s3,1.346,3,3S31.934,49.673,30.28,49.673z"/>
	<path d="M39.28,23.978c-3.86,0-7,3.141-7,7s3.14,7,7,7s7-3.141,7-7S43.14,23.978,39.28,23.978z M39.28,35.978c-2.757,0-5-2.243-5-5
		s2.243-5,5-5s5,2.243,5,5S42.037,35.978,39.28,35.978z"/>
	<circle cx="39.28" cy="30.978" r="2"/>
	<path d="M28.28,30.978c0-3.859-3.14-7-7-7s-7,3.141-7,7s3.14,7,7,7S28.28,34.838,28.28,30.978z M21.28,35.978c-2.757,0-5-2.243-5-5
		s2.243-5,5-5s5,2.243,5,5S24.037,35.978,21.28,35.978z"/>
	<circle cx="21.28" cy="30.978" r="2"/>
	<path d="M56.27,18.842c-0.563-4.082-2.323-7.605-4.825-9.668c-0.644-0.531-1.116-1.365-1.402-2.479
		c-0.827-3.209-3.847-5.451-7.695-5.714c-2.141-0.151-3.996,0.517-6.028,1.331c-0.07,0.03-0.154,0.027-0.276-0.05
		c-0.417-1.106-1.361-1.867-2.658-2.142c-3.01-0.637-7.636,1.309-11.354,4.691c0.006-0.891,0.192-1.687,0.696-1.938l1.685-0.843
		L22.77,1.107c-1.737-0.978-5.924-2.039-9.334,0.944c-1.238,1.082-2.137,2.596-2.599,4.377c-0.094,0.364-0.19,0.755-0.277,1.14
		c-0.038,0.166-0.174,0.216-0.23,0.229c-0.111,0.024-0.198-0.001-0.299-0.122C9.497,7.023,8.689,6.705,7.86,6.819
		C7.064,6.931,6.398,7.44,6.08,8.181c-1.968,4.567-5.65,16.191,2.2,26.139v16.658c0,2.757,2.243,5,5,5h3v1.694
		c0,1.271,1.034,2.306,2.305,2.306h23.39c1.271,0,2.305-1.034,2.305-2.306v-1.694h3c2.757,0,5-2.243,5-5V34.373
		C53.451,33.055,57.504,27.762,56.27,18.842z M7.916,8.972C7.933,8.934,7.981,8.822,8.139,8.8c0.063-0.009,0.219-0.012,0.329,0.124
		l0.064,0.078c0.555,0.661,1.423,0.947,2.27,0.739c0.861-0.209,1.516-0.874,1.709-1.734c0.082-0.362,0.173-0.731,0.262-1.076
		c0.361-1.39,1.045-2.557,1.98-3.373c2.096-1.834,4.416-1.596,5.8-1.195c-0.5,0.948-0.648,2.279-0.419,3.912
		c0.075,0.538,0.443,0.979,0.959,1.149c0.522,0.173,1.089,0.036,1.477-0.357c3.807-3.865,8.198-5.458,10.4-4.99
		c0.941,0.199,1.137,0.72,1.201,0.891c0.198,0.525,0.596,0.941,1.123,1.173c0.556,0.245,1.2,0.256,1.769,0.029
		c1.865-0.747,3.425-1.308,5.149-1.192c2.366,0.161,5.156,1.353,5.893,4.216c0.395,1.533,1.09,2.719,2.067,3.524
		c1.003,0.827,3.412,3.3,4.117,8.398c0.768,5.555-0.699,9.517-2.01,11.811V18.978v-1.747l-1.507,0.885
		c-2.458,1.444-4.606,1.886-6.385,1.314c-0.276-0.089-0.533-0.2-0.771-0.325c-0.099-0.052-0.18-0.115-0.273-0.172
		c-0.13-0.08-0.268-0.156-0.385-0.244c-0.108-0.08-0.197-0.166-0.294-0.249c-0.084-0.072-0.176-0.141-0.252-0.215
		c-0.107-0.103-0.196-0.206-0.288-0.308c-0.049-0.055-0.107-0.11-0.152-0.164c-0.101-0.121-0.184-0.234-0.265-0.345
		c-0.022-0.031-0.052-0.065-0.072-0.095c-0.09-0.129-0.164-0.246-0.226-0.349c-0.003-0.006-0.009-0.014-0.013-0.02
		c-0.128-0.214-0.193-0.355-0.199-0.369c0,0-0.001-0.001-0.001-0.001l-0.217-0.503l-0.547-0.084c-9.59-1.48-14.263,2.537-15.57,3.94
		c-6.965-0.755-9.986-2.757-10.013-2.774l-0.74-0.513l-0.587,0.683c-1.559,1.812-3.355,2.734-4.588,3.188L8.28,20.756v0.697v9.368
		C3.377,22.633,5.843,13.784,7.916,8.972z M42.28,57.673c0,0.169-0.137,0.306-0.305,0.306h-23.39c-0.168,0-0.305-0.137-0.305-0.306
		v-1.694h24V57.673z M50.28,50.978c0,1.654-1.346,3-3,3h-3h-28h-3c-1.654,0-3-1.346-3-3V36.79V22.129
		c1.231-0.532,2.767-1.422,4.196-2.885c1.408,0.73,4.807,2.158,10.708,2.729l0.565,0.055l0.336-0.457
		c0.038-0.051,3.8-4.994,13.546-3.676c0.516,0.89,1.797,2.672,4.113,3.429c1.951,0.638,4.143,0.405,6.535-0.693v15.718V50.978z"/>
</g>
<g>
</g>
<g>
</g>
<g>
</g>
<g>
</g>
<g>
</g>
<g>
</g>
<g>
</g>
<g>
</g>
<g>
</g>
<g>
</g>
<g>
</g>
<g>
</g>
<g>
</g>
<g>
</g>
<g>
</g>
</svg>
