<?xml version="1.0" encoding="iso-8859-1"?>
<!-- Generator: Adobe Illustrator 18.0.0, SVG Export Plug-In . SVG Version: 6.00 Build 0)  -->
<!DOCTYPE svg PUBLIC "-//W3C//DTD SVG 1.1//EN" "http://www.w3.org/Graphics/SVG/1.1/DTD/svg11.dtd">
<svg version="1.1" id="Capa_1" xmlns="http://www.w3.org/2000/svg" xmlns:xlink="http://www.w3.org/1999/xlink" x="0px" y="0px"
	 viewBox="0 0 56 56" style="enable-background:new 0 0 56 56;" xml:space="preserve">
<g>
	<path d="M38.817,38.962c-0.004-0.119-0.024-0.236-0.07-0.346c-0.003-0.008-0.009-0.014-0.012-0.022
		c-0.028-0.062-0.058-0.123-0.099-0.179c-0.024-0.033-0.054-0.059-0.081-0.088c-0.016-0.017-0.029-0.034-0.045-0.049
		c-0.081-0.077-0.173-0.138-0.273-0.184c-0.02-0.009-0.041-0.015-0.062-0.023C38.063,38.029,37.947,38,37.824,38h-4h-10h-4
		c-0.122,0-0.239,0.029-0.35,0.071c-0.021,0.008-0.042,0.014-0.062,0.023c-0.101,0.046-0.192,0.108-0.273,0.184
		c-0.016,0.016-0.03,0.032-0.045,0.049c-0.027,0.029-0.058,0.055-0.081,0.088c-0.04,0.056-0.072,0.117-0.099,0.179
		c-0.003,0.008-0.009,0.014-0.012,0.022c-0.046,0.11-0.065,0.228-0.07,0.346c0,0.013-0.008,0.024-0.008,0.037
		c0,0.01,0.005,0.017,0.005,0.027c0.003,0.097,0.015,0.195,0.046,0.29l2,6C21.012,45.725,21.394,46,21.824,46
		s0.813-0.275,0.948-0.684L24.545,40h8.559l1.772,5.316C35.012,45.725,35.394,46,35.824,46s0.813-0.275,0.948-0.684l2-6
		c0.032-0.095,0.044-0.192,0.046-0.29c0-0.01,0.005-0.017,0.005-0.027C38.824,38.987,38.817,38.976,38.817,38.962z M21.824,41.838
		L21.212,40h1.225L21.824,41.838z M35.824,41.838L35.212,40h1.225L35.824,41.838z"/>
	<path d="M21.824,25.5c0-0.198-0.027-0.388-0.058-0.577c-2.201,0.33-4.585-0.165-6.268-1.472c-0.419,0.577-0.674,1.281-0.674,2.049
		c0,1.933,1.567,3.5,3.5,3.5S21.824,27.433,21.824,25.5z"/>
	<path d="M34.883,24.923c-0.031,0.189-0.058,0.379-0.058,0.577c0,1.933,1.567,3.5,3.5,3.5s3.5-1.567,3.5-3.5
		c0-0.768-0.255-1.472-0.674-2.049C39.468,24.758,37.084,25.253,34.883,24.923z"/>
	<path d="M23.199,23.781C23.384,23.929,23.605,24,23.824,24c0.294,0,0.584-0.129,0.782-0.375c0.345-0.432,0.274-1.061-0.156-1.406
		l-5-4c-0.432-0.345-1.061-0.272-1.406,0.156c-0.345,0.432-0.274,1.061,0.156,1.406L23.199,23.781z"/>
	<path d="M32.825,24c0.219,0,0.439-0.071,0.624-0.219l5-4c0.431-0.346,0.501-0.975,0.156-1.406
		c-0.346-0.431-0.974-0.502-1.406-0.156l-5,4c-0.431,0.346-0.501,0.975-0.156,1.406C32.241,23.872,32.532,24,32.825,24z"/>
	<path d="M46.28,0.086c-0.369-0.163-0.802-0.09-1.095,0.188s-0.39,0.706-0.245,1.083c0.787,2.058,0.807,3.753,0.058,5.04
		C43.854,8.36,41.22,8.92,40.789,9h-4.965V5.306C35.824,4.034,34.79,3,33.519,3H22.13c-1.271,0-2.306,1.034-2.306,2.306V9h-4.56
		c-0.438-0.081-3.067-0.642-4.209-2.603c-0.749-1.287-0.73-2.982,0.058-5.04c0.145-0.378,0.048-0.806-0.246-1.084
		c-0.294-0.277-0.727-0.352-1.096-0.187C9.148,0.366,6.025,2.321,5.879,13.381C5.851,13.584,5.824,13.788,5.824,14v33
		c0,2.757,2.243,5,5,5h3v1.694c0,1.271,1.034,2.306,2.306,2.306h23.389c1.271,0,2.306-1.034,2.306-2.306V52h3c2.757,0,5-2.243,5-5
		l-0.002-25.392l0.047-0.525C51.385,2.899,46.807,0.32,46.28,0.086z M21.824,5.306C21.824,5.137,21.961,5,22.13,5h11.389
		c0.169,0,0.306,0.137,0.306,0.306V9h-12V5.306z M39.824,53.694c0,0.169-0.137,0.306-0.306,0.306H16.13
		c-0.169,0-0.306-0.137-0.306-0.306V52h24V53.694z M47.877,20.917l-0.046,0.504c-0.003,0.031-0.007,0.085-0.007,0.116V47
		c0,1.654-1.346,3-3,3h-3h-28h-3c-1.654,0-3-1.346-3-3V14c0-0.115,0.02-0.225,0.046-0.413c0.006-0.042,0.009-0.084,0.01-0.126
		c0.045-3.444,0.388-5.891,0.815-7.615C8.833,6.4,9.047,6.925,9.336,7.418c1.735,2.962,5.538,3.548,5.699,3.571
		C15.083,10.996,15.132,11,15.18,11h4.645h16h5.049c0.048,0,0.097-0.004,0.145-0.011c0.161-0.023,3.964-0.609,5.699-3.571
		c0.289-0.492,0.502-1.016,0.641-1.57C48.048,8.624,48.515,13.262,47.877,20.917z"/>
</g>
<g>
</g>
<g>
</g>
<g>
</g>
<g>
</g>
<g>
</g>
<g>
</g>
<g>
</g>
<g>
</g>
<g>
</g>
<g>
</g>
<g>
</g>
<g>
</g>
<g>
</g>
<g>
</g>
<g>
</g>
</svg>
