<?xml version="1.0" encoding="iso-8859-1"?>
<!-- Generator: Adobe Illustrator 16.0.0, SVG Export Plug-In . SVG Version: 6.00 Build 0)  -->
<!DOCTYPE svg PUBLIC "-//W3C//DTD SVG 1.1//EN" "http://www.w3.org/Graphics/SVG/1.1/DTD/svg11.dtd">
<svg version="1.1" id="Capa_1" xmlns="http://www.w3.org/2000/svg" xmlns:xlink="http://www.w3.org/1999/xlink" x="0px" y="0px"
	 width="302.464px" height="302.464px" viewBox="0 0 302.464 302.464" style="enable-background:new 0 0 302.464 302.464;"
	 xml:space="preserve">
<g>
	<g>
		<path d="M217.424,74.453c0-2.296-1.854-4.147-4.147-4.147h-8.679c-1.253-10.934-14.126-19.534-25.284-19.534
			c-11.164,0-24.035,8.601-25.29,19.534h-8.682c-2.289,0-4.145,1.856-4.145,4.147c0,2.294,1.856,4.146,4.145,4.146h11.843
			c-0.191,1.188-0.318,2.392-0.318,3.632c0,12.502,10.139,22.646,22.648,22.646c12.506,0,22.639-10.139,22.639-22.646
			c0-1.235-0.119-2.444-0.315-3.632h11.428C215.57,78.599,217.424,76.747,217.424,74.453z"/>
		<path d="M197.545,130.626c0-11.454-8.067-20.738-18.02-20.738c-9.958,0-18.03,9.284-18.03,20.738v3.086h36.05V130.626z"/>
		<rect x="161.495" y="141.666" width="36.05" height="11.933"/>
		<path d="M302.464,88.186c0-6.881-5.877-11.125-12.06-7.244c-9.32,5.833-21.649,17.93-27.993,42.445
			c-4.811,18.603-27.895,38.549-64.866,52.322v-14.157h-36.05v24.492c-41.534,8.799-93.929,10.378-153.839-1.346
			c-7.159-1.403-9.745,2.278-5.833,8.42l7.816,12.277c3.917,6.151,13.008,11.138,20.293,11.138h80.75l-60.967,24.948
			c-2.71,1.118-4.008,4.205-2.895,6.918c0.836,2.056,2.819,3.293,4.909,3.293c0.668,0,1.346-0.119,2.004-0.394l84.949-34.766h62.854
			c7.291,0,18.088-3.36,23.603-8.13c13.654-11.826,36.904-36.236,45.428-71.069c0.196-0.79,0.394-1.527,0.585-2.291h25.145
			c2.926,0,5.303-2.369,5.303-5.303c0-2.931-2.377-5.303-5.303-5.303h-21.971c1.228-3.531,2.491-6.591,3.775-9.243h18.195
			c2.926,0,5.303-2.369,5.303-5.302c0-2.931-2.377-5.303-5.303-5.303h-11.288c1.678-1.791,3.324-3.068,4.894-3.943
			C296.271,97.087,302.464,95.078,302.464,88.186z"/>
	</g>
</g>
<g>
</g>
<g>
</g>
<g>
</g>
<g>
</g>
<g>
</g>
<g>
</g>
<g>
</g>
<g>
</g>
<g>
</g>
<g>
</g>
<g>
</g>
<g>
</g>
<g>
</g>
<g>
</g>
<g>
</g>
</svg>
