<?xml version="1.0" encoding="iso-8859-1"?>
<!-- Generator: Adobe Illustrator 16.0.0, SVG Export Plug-In . SVG Version: 6.00 Build 0)  -->
<!DOCTYPE svg PUBLIC "-//W3C//DTD SVG 1.1//EN" "http://www.w3.org/Graphics/SVG/1.1/DTD/svg11.dtd">
<svg version="1.1" id="Capa_1" xmlns="http://www.w3.org/2000/svg" xmlns:xlink="http://www.w3.org/1999/xlink" x="0px" y="0px"
	 width="14.562px" height="14.562px" viewBox="0 0 14.562 14.562" style="enable-background:new 0 0 14.562 14.562;"
	 xml:space="preserve">
<g>
	<path d="M9.419,7.287C9.42,7.288,9.421,7.292,9.422,7.293C9.421,7.29,9.419,7.287,9.418,7.283c-0.032-0.112-0.073-0.22-0.119-0.326
		c-0.004-0.009-0.006-0.019-0.01-0.028c0.002,0.007,0.005,0.013,0.007,0.02C9.289,6.938,9.285,6.927,9.281,6.916
		c0.002,0.005,0.004,0.009,0.006,0.013c-0.241-0.733-0.65-2.444,0.17-4.166H8.225l0.24-0.717L9.14,2.272l1.452,0.486L8.961,0
		L5.998,1.22L7.45,1.706l0.714,0.239L7.891,2.763H4.034c0.821,1.722,0.412,3.433,0.17,4.166c0.002-0.004,0.005-0.008,0.007-0.013
		C4.207,6.927,4.203,6.938,4.198,6.949C4.2,6.942,4.202,6.936,4.205,6.929c-0.004,0.009-0.007,0.019-0.01,0.028
		c-0.047,0.106-0.087,0.215-0.12,0.327C4.074,7.287,4.072,7.29,4.071,7.293c0-0.001,0.002-0.004,0.002-0.006
		C4.072,7.292,4.07,7.296,4.069,7.301C4.007,7.523,3.971,7.754,3.971,7.995c0,1.177,0.794,1.987,1.894,2.267l0.197,0.478
		c0.067,0.184,0.131,0.293,0.293,0.293h0.123v3.056c-0.875,0.018-1.547,0.116-1.547,0.236c0,0.132,0.813,0.238,1.815,0.238
		s1.815-0.106,1.815-0.238c0-0.12-0.672-0.219-1.547-0.236v-3.056h0.098c0.162,0,0.22-0.101,0.293-0.293l0.194-0.47
		c1.116-0.271,1.924-1.086,1.924-2.274c0-0.24-0.036-0.472-0.098-0.694C9.423,7.296,9.421,7.292,9.419,7.287z M9.941,2.232
		L9.115,1.955L9.014,0.664L9.941,2.232z M6.834,1.192L8.52,0.499L7.661,1.468L6.834,1.192z M7.962,1.569L8.724,0.71l0.09,1.144
		L7.962,1.569z M9.017,3.056c-0.19,0.509-0.287,1.01-0.323,1.485c-0.109,0.076-0.58,0.371-1.188,0.371l0.622-1.856H9.017z
		 M4.476,3.056h3.316L7.181,4.88C7.036,4.854,6.886,4.81,6.734,4.739C5.869,4.336,5.066,4.596,4.808,4.701
		C4.783,4.18,4.688,3.623,4.476,3.056z"/>
</g>
<g>
</g>
<g>
</g>
<g>
</g>
<g>
</g>
<g>
</g>
<g>
</g>
<g>
</g>
<g>
</g>
<g>
</g>
<g>
</g>
<g>
</g>
<g>
</g>
<g>
</g>
<g>
</g>
<g>
</g>
</svg>
