<?xml version="1.0" encoding="iso-8859-1"?>
<!-- Generator: Adobe Illustrator 16.0.0, SVG Export Plug-In . SVG Version: 6.00 Build 0)  -->
<!DOCTYPE svg PUBLIC "-//W3C//DTD SVG 1.1//EN" "http://www.w3.org/Graphics/SVG/1.1/DTD/svg11.dtd">
<svg version="1.1" id="Capa_1" xmlns="http://www.w3.org/2000/svg" xmlns:xlink="http://www.w3.org/1999/xlink" x="0px" y="0px"
	 width="538.774px" height="538.774px" viewBox="0 0 538.774 538.774" style="enable-background:new 0 0 538.774 538.774;"
	 xml:space="preserve">
<g>
	<path d="M223.884,199.383c0.693,0.082,3.384,0.803,5.787,1.773c-2.361,0.479-4.655,1.988-3.288,4.73
		c1.519,3.064,5.313,2.63,7.694,0.934c6.342-4.513-7.148-9.01-10.193-9.357C222.661,197.323,222.675,199.246,223.884,199.383z
		 M232.311,202.475c1.09,0.698,1.752,1.419,1.332,2.093c-0.975,1.563-3.972,2.495-5.285,0.871c-1.706-2.093,1.902-2.59,3.202-2.534
		C231.941,202.918,232.161,202.723,232.311,202.475z M262.079,181.037c4.511,4.543-4.111,12.505-8.394,13.126
		c-0.831,0.117-1.19-1.15-0.348-1.269c3.435-0.497,6.352-3.594,7.857-6.548c0.98-1.92,0.845-3.995-1.081-5.194
		c-1.227-0.775-3.188-1.09-4.35-0.054c-1.561,1.41,1.129,2.735,2.117,2.982c0.829,0.201,0.478,1.477-0.348,1.271
		c-2.002-0.497-4.702-2.595-2.936-4.875C256.439,178.097,260.252,179.201,262.079,181.037z M114.831,243.653
		c6.963-7.633,2.787-19.42-3.815-25.417c-9.357-8.501-22.227-7.26-32.747-1.893c-8.678,4.427-16.19,12.174-20.822,21.049
		c7.972-4.837,16.813-1.286,22.577,7.178c1.328,1.944-1.601,4.172-2.938,2.208c-5.253-7.698-13.588-11.418-20.844-3.803
		c-0.434,0.457-0.968,2.098-1.481,2.074c-4.142,11.957-2.791,23.531,7.988,33.146c1.752,1.573-0.479,4.494-2.252,2.917
		c-28.852-25.746,1.664-74.626,36.354-72.748c18.328,0.989,33.759,23.44,19.714,38.83c-15.91,17.429-42.127-18.208-16.97-25.368
		c2.25-0.644,3.659,2.759,1.375,3.407C81.601,230.753,101.602,258.151,114.831,243.653z M252.267,186.519
		c-5.824-4.063-6.653-11.591-0.961-16.23c3.771-3.068,7.063,2.564,3.523,5.194c-0.684,0.507-1.344-0.642-0.67-1.139
		c2.513-1.862-0.067-4.629-2.576-2.59c-1.433,1.171-2.322,2.877-2.795,4.623c-0.98,3.58,1.349,7.049,4.149,9.003
		C253.625,185.863,252.964,187.011,252.267,186.519z M538.576,249.715c-0.528-5.213-3.268-9.873-7.449-12.846
		c-0.163-0.315-0.326-0.634-0.499-0.959c-0.28-5.668-3.202-10.834-7.542-13.665c-4.438-3.578-9.441-6.335-13.722-7.559
		c-4.247-1.215-26.653-14.61-51.543-31.542c-1.853-1.545-3.701-3.001-5.549-4.427c-0.938-0.726-1.946-1.351-3.011-1.874
		c-0.798-0.835-1.68-1.584-2.623-2.25c-24.819-17.443-52.322-26.294-81.739-26.294c-7.943,0-16.026,0.667-24.025,1.979
		c-1.471,0.247-2.927,0.697-4.359,1.355c-1.493-0.065-3.02,0.049-4.443,0.359c-4.657,1.053-9.194,2.308-13.758,3.813
		c-10.618-13.611-28.838-20.29-39.461-23.193c-3.88-0.945-6.695-1.372-9.138-1.372c-0.721,0-1.4,0.04-1.692,0.082
		c-2.194,0.11-4.945,0.574-8.569,1.473c-10.37,2.844-28.401,9.476-38.986,23.069c-4.555-1.5-9.087-2.758-13.754-3.818
		c-1.417-0.317-2.926-0.437-4.45-0.359c-1.423-0.656-2.882-1.104-4.359-1.354c-7.995-1.309-16.076-1.979-24.019-1.979
		c-29.412,0-56.915,8.846-81.737,26.29c-0.947,0.665-1.825,1.421-2.623,2.256c-1.066,0.516-2.075,1.148-3.018,1.874
		c-1.848,1.423-3.699,2.882-5.08,4.077c-25.352,17.28-47.76,30.677-52.014,31.89c-4.732,1.354-10.356,4.592-15.04,8.669
		c-3.594,3.127-5.745,7.51-6.046,12.244c-0.264,0.474-0.507,0.938-0.735,1.4c-4.154,2.954-6.868,7.574-7.395,12.722
		c-1.482,14.685,5.376,29.549,20.397,44.176c0.598,0.579,1.253,1.125,1.96,1.634c0.564,0.69,1.146,1.297,1.764,1.844
		c2.327,2.076,4.844,4.209,7.656,6.402c-2.061,3.188-3.041,6.875-2.835,10.655c0.059,1.069,0.46,6.805,2.754,15.042
		c0.352,1.274,0.873,2.497,1.582,3.748c0.161,1.367,0.462,2.623,0.898,3.808c5.021,13.563,12.874,25.637,23.349,35.899
		c0.898,0.878,1.907,1.652,3.055,2.348c0.835,1.139,1.752,2.123,2.786,2.987c7.832,6.543,16.851,12.073,26.815,16.441
		c1.773,0.775,3.624,1.261,5.521,1.434c1.552,1.185,3.272,2.095,5.131,2.729c16.066,5.419,34.571,8.312,55.088,8.606h0.168
		c0.455,0,0.903-0.019,1.333-0.056c2.882-0.215,69.794-5.703,106.603-49.378c0.565,0,1.081-0.028,1.62-0.07
		c0.99,0.023,1.993-0.014,2.987-0.145l0.614,0.019l0.101-0.009c1.227,0.168,2.49,0.195,3.764,0.084
		c0.406,0.022,0.81,0.014,1.211,0.004c36.798,43.735,103.771,49.224,106.603,49.438c0.435,0.037,0.859,0.047,1.639,0.057
		c20.428-0.29,38.933-3.184,55.002-8.606c1.792-0.606,3.458-1.479,5.105-2.726c1.899-0.168,3.799-0.663,5.544-1.428
		c9.96-4.369,18.986-9.904,26.817-16.447c1.026-0.868,1.951-1.848,2.786-2.986c1.153-0.7,2.161-1.476,3.053-2.353
		c10.473-10.259,18.322-22.332,23.349-35.895c0.439-1.186,0.738-2.441,0.896-3.804c0.709-1.251,1.232-2.487,1.587-3.752
		c2.291-8.233,2.692-13.983,2.754-15.038c0.205-3.799-0.771-7.472-2.833-10.654c2.805-2.194,5.32-4.327,7.653-6.408
		c0.611-0.546,1.195-1.153,1.765-1.839c0.705-0.509,1.367-1.06,1.97-1.647C533.199,279.262,540.06,264.403,538.576,249.715z
		 M313.978,176.391c4.672-1.998,12.26-4.847,22.01-7.045l-7.258,12.34c-4.078-2.901-11.766-6.863-11.499-0.574
		c0.121,2.926,2.114,6.182,5.46,5.507c3.006-0.606,2.786-3.351,1.713-5.507c1.228,0.712,2.427,1.526,3.355,2.214l-17.753,30.198
		c-0.294-0.196-0.598-0.396-0.985-0.511c-4.14-1.272-6.655,4.209-7.057,7.374c-2.907-2.38-5.413-6.232-6.146-9.166
		c-0.303-1.199-2.146-0.693-1.848,0.507c0.723,2.914,5.391,9.945,9.898,12.234l-1.988,3.402c-4.56-1.335-11.868-0.411-10.883,5.5
		c0.462,2.754,3.379,3.799,5.81,3.137l-6.221,10.58c-0.69-0.702-1.396-1.4-1.97-2.17c0.364,0.091,0.771,0.059,1.046-0.324
		c1.335-1.834,1.241-4.957,0.368-6.94c-1.152-2.613-4.316-0.648-5.162,1.09c-1.567,3.236,1.415,7.264,4.63,10.2l-7.462,12.692
		l-4.22-23.933l2.059-3.465c0.336-0.049,0.695,0,1.026-0.073c5.288-1.081,10.884-6.331,7.641-11.961
		c-0.252-0.434-0.537-0.793-0.859-1.095l18.407-30.936c3.099,3.493,7.253,6.553,8.667,1.696c0.821-2.81-0.014-6.531-3.407-6.963
		c-1.433-0.187-2.306,0.345-2.828,1.171L313.978,176.391z M321.879,180.696c0.845,0.999,2.674,4.145-0.028,4.091
		c-2.096-0.042-3.192-2.982-2.562-4.711c0.271-0.74,1.251-0.665,2.465-0.229C321.649,180.113,321.636,180.409,321.879,180.696z
		 M309.049,215.174l-4.084,6.942c-0.555-0.215-1.115-0.438-1.656-0.784c0.28-0.143,0.509-0.361,0.551-0.744
		C304.018,219.015,306.818,213.042,309.049,215.174z M300.872,229.071l-1.125,1.92c-0.187-0.726-0.499-1.447-0.976-2.103
		c-0.084-0.11-0.2-0.114-0.308-0.182C299.337,228.765,300.153,228.903,300.872,229.071z M297.11,229.859
		c3.691,5.057-5.376,6.032-4.242,1.118c0.387-1.678,2.375-2.259,4.489-2.298C296.979,228.933,296.765,229.386,297.11,229.859z
		 M288.005,243.116c-0.084,0.114-0.037,0.214-0.07,0.32c-0.21-0.306-0.443-0.607-0.63-0.913c-0.48-0.807-0.812-1.683-0.868-2.623
		c-0.032-0.583,1.199-2.958,1.938-1.788C289.13,239.331,288.817,242.008,288.005,243.116z M285.541,224.621
		c-0.099,0.009-0.163,0-0.262,0.009l1.433-2.408c1.167,1.755,0.154,5.486-1.021,6.949c-1.158,1.438-2.843,2.112-4.583,2.485
		l3.047-5.118c0.695,0.033,1.363,0.023,1.899-0.067C287.268,226.266,286.745,224.415,285.541,224.621z M310.22,190.269
		c-0.476-1.213-1.199-4.784,1.345-3.86c1.974,0.703,2.072,3.841,0.915,5.276c-0.5,0.621-1.396,0.229-2.408-0.574
		C310.253,190.896,310.36,190.628,310.22,190.269z M307.957,189.064c-0.304-0.348-0.593-0.712-0.878-1.076l1.256-2.117
		C307.905,186.771,307.808,187.937,307.957,189.064z M230.432,185.93l1.26,2.117c-0.285,0.359-0.576,0.721-0.877,1.071
		C230.966,187.993,230.866,186.829,230.432,185.93z M224.796,176.447l5.463,9.183c-0.521-0.828-1.396-1.354-2.833-1.167
		c-3.384,0.43-4.226,4.154-3.409,6.963c1.421,4.856,5.572,1.797,8.669-1.701l18.405,30.94c-0.315,0.301-0.607,0.663-0.859,1.095
		c-3.246,5.628,2.35,10.881,7.635,11.966c0.332,0.065,0.698,0.019,1.034,0.065l2.054,3.465l-4.219,23.935l-7.465-12.694
		c3.216-2.938,6.198-6.959,4.63-10.198c-0.84-1.736-4.009-3.694-5.16-1.09c-0.879,1.983-0.971,5.104,0.367,6.938
		c0.277,0.383,0.684,0.418,1.052,0.327c-0.583,0.766-1.291,1.466-1.974,2.17l-6.221-10.587c2.431,0.665,5.351-0.375,5.806-3.134
		c0.985-5.909-6.324-6.835-10.886-5.496l-2-3.405c4.513-2.289,9.178-9.313,9.904-12.232c0.301-1.199-1.555-1.713-1.851-0.509
		c-0.73,2.931-3.234,6.789-6.145,9.167c-0.396-3.162-2.917-8.648-7.059-7.374c-0.393,0.117-0.688,0.317-0.985,0.513l-17.753-30.2
		c0.931-0.688,2.13-1.496,3.357-2.212c-1.068,2.156-1.29,4.893,1.718,5.5c3.344,0.679,5.337-2.581,5.46-5.5
		c0.268-6.284-7.416-2.332-11.502,0.569l-7.255-12.335C212.534,171.603,220.127,174.45,224.796,176.447z M228.7,191.171
		c-1.013,0.803-1.911,1.19-2.408,0.574c-1.15-1.438-1.055-4.574,0.917-5.281c2.544-0.917,1.823,2.653,1.344,3.867
		C228.409,190.682,228.521,190.952,228.7,191.171z M252.727,226.52c0.539,0.089,1.204,0.098,1.897,0.07l3.048,5.12
		c-1.739-0.369-3.43-1.048-4.583-2.485c-1.174-1.463-2.189-5.202-1.022-6.949l1.428,2.408c-0.091-0.014-0.156,0-0.257-0.014
		C252.024,224.469,251.506,226.317,252.727,226.52z M250.402,238.169c0.732-1.169,1.97,1.204,1.937,1.788
		c-0.058,0.943-0.392,1.818-0.87,2.621c-0.187,0.31-0.42,0.616-0.63,0.917c-0.026-0.11,0.009-0.21-0.068-0.32
		C249.954,242.057,249.644,239.385,250.402,238.169z M241.414,228.737c2.112,0.042,4.1,0.625,4.487,2.299
		c1.127,4.902-7.939,3.932-4.25-1.123C242.006,229.444,241.796,228.989,241.414,228.737z M240.31,228.765
		c-0.1,0.062-0.224,0.072-0.306,0.182c-0.479,0.658-0.793,1.377-0.976,2.103l-1.131-1.92
		C238.618,228.961,239.435,228.823,240.31,228.765z M233.811,222.175l-4.086-6.95c2.236-2.125,5.031,3.848,5.195,5.418
		c0.037,0.383,0.273,0.602,0.548,0.747C234.919,221.734,234.364,221.96,233.811,222.175z M217.021,179.903
		c1.213-0.434,2.194-0.511,2.466,0.236c0.635,1.725-0.464,4.663-2.562,4.702c-2.705,0.056-0.875-3.092-0.033-4.091
		C217.14,180.463,217.126,180.171,217.021,179.903z M33.012,281.153c-12.387-12.064-15.861-21.949-15.089-29.61
		c0.191,1.605,0.656,3.134,1.44,4.464c4.487,7.607,12.004,1.346,15.866-3.388c1.715-2.101-1.272-5.12-3.001-3.003
		c-13.535,16.598-11.789-11.416-2.38-8.679C47.545,246.061,39.583,269.779,33.012,281.153z M74.073,334.535
		c-0.401,8.331-1.629,17.255-3.895,25.688c-10.155-9.945-15.884-20.651-19.107-29.355c2.726-3.37,5.416-6.781,8.755-9.475
		C70.916,312.427,74.442,326.774,74.073,334.535z M269.428,351.958v-0.02l0,0V351.958z M468.598,360.167
		c-2.269-8.434-3.491-17.353-3.897-25.688c-0.373-7.762,3.16-22.108,14.249-13.138c3.332,2.697,6.021,6.104,8.751,9.474
		C484.479,339.51,478.753,350.221,468.598,360.167z M491.849,313.43c0,0-0.247,4.476-2.123,11.234
		c-9.265-9.844-21.613-20.545-29.276-3.31c-3.486,7.836-1.531,18.099-0.327,26.196c0.84,5.666,2.035,11.425,3.678,17.021
		c-6.1,5.092-13.516,9.843-22.551,13.8c12.773-14.636,19.9-34.63,3.467-48.468c-0.812-0.686-1.713-1.33-2.669-1.923
		c-1.219-0.919-2.604-1.777-4.327-2.496c-1.101-0.467-2.16-0.616-3.196-0.635c-5.106-1.279-10.534-0.971-14.617,2.138
		c-7.393,5.638-2.24,18.43,3.225,23.316c9.815,8.755,22.36-0.094,24.068-10.053c1.782,4.018,2.338,8.671,1.941,13.282
		c-0.942,10.911-8.229,21.011-17.086,28.432c-13.334,4.494-29.627,7.384-49.56,7.663c0,0-65.807-4.942-97.229-46.759
		c0,0-3.323-3.375-11.234-2.852v0.13c-0.317-0.046-0.583-0.037-0.889-0.069c-0.306,0.032-0.574,0.023-0.894,0.069v-0.13
		c-1.039-0.075-1.983-0.065-2.863-0.019v0.056c-0.885-0.047-1.825-0.056-2.863,0.019v0.131c-0.315-0.047-0.583-0.037-0.894-0.07
		c-0.301,0.033-0.567,0.023-0.89,0.07v-0.131c-7.913-0.522-11.236,2.856-11.236,2.856c-31.417,41.808-97.229,46.755-97.229,46.755
		c-19.929-0.28-36.23-3.174-49.564-7.664c-8.851-7.42-16.144-17.52-17.079-28.432c-0.397-4.611,0.156-9.269,1.939-13.282
		c1.71,9.955,14.256,18.809,24.068,10.053c5.467-4.886,10.618-17.679,3.225-23.316c-4.082-3.108-9.505-3.417-14.61-2.138
		c-1.036,0.019-2.093,0.168-3.197,0.635c-1.72,0.719-3.106,1.582-4.329,2.502c-0.957,0.588-1.855,1.231-2.667,1.913
		c-16.435,13.843-9.308,33.827,3.466,48.473c-9.033-3.953-16.445-8.7-22.549-13.796c1.636-5.601,2.835-11.36,3.67-17.021
		c1.205-8.106,3.165-18.374-0.324-26.201c-7.666-17.226-20.015-6.529-29.276,3.314c-1.883-6.754-2.126-11.234-2.126-11.234
		c11.133-16.824-3.715-23.513-3.715-23.513c-2.59-2.007-4.894-3.957-7.024-5.866c0.023-0.042,0.061-0.061,0.086-0.098
		c6.37-10.632,11.546-25.347,6.522-37.442c-2.361-5.687-10.247-11.469-16.727-9.759c3.283-2.858,6.657-4.527,8.24-4.979
		c11.889-3.393,57.65-34.639,57.65-34.639c1.801-1.519,3.608-2.945,5.414-4.329c20.479,1.685,34.516,26.747,54.134,31.785
		c14.547,3.731,33.435-6.251,34.293-22.668c0.67-12.727-10.055-25.282-22.656-27.394c-15.044-2.529-21.245,9.008-20.635,22.601
		c0.142,3.169,5.08,3.188,4.936,0c-0.726-16.312,12.125-23.973,25.081-12.646c12.468,10.895,9.759,31.316-8.172,35.579
		c-24.21,5.764-39.652-24.462-61.965-30.924c34.193-24.035,68.286-25.316,92.627-21.31l64.781,110.196l7.397-41.98l-36.608-61.549
		c3.643-15.065,25.559-22.411,33.568-24.605c0,0,4.403-1.078,5.234-0.826v-0.056c0.831-0.254,5.234,0.826,5.234,0.826
		c8.013,2.193,29.925,9.54,33.565,24.603l-36.597,61.549l7.395,41.983l64.784-110.199c24.339-4.004,58.432-2.723,92.627,21.31
		c-22.312,6.462-37.756,36.688-61.969,30.927c-17.932-4.268-20.639-24.684-8.168-35.582c12.956-11.32,25.805-3.666,25.081,12.646
		c-0.145,3.183,4.793,3.169,4.934,0c0.606-13.59-5.592-25.127-20.634-22.6c-12.596,2.112-23.321,14.668-22.658,27.393
		c0.858,16.426,19.746,26.407,34.293,22.668c19.621-5.04,33.654-30.103,54.139-31.785c1.807,1.386,3.607,2.81,5.409,4.333
		c0,0,45.761,31.242,57.652,34.634c1.582,0.455,4.956,2.124,8.237,4.985c-6.478-1.715-14.37,4.067-16.727,9.754
		c-5.021,12.102,0.149,26.813,6.524,37.444c0.023,0.037,0.061,0.057,0.084,0.094c-2.128,1.904-4.438,3.859-7.028,5.871
		 M434.346,348.411c-0.336,0.079-0.644,0.219-0.989,0.271c-8.629,1.428-17.544-12.938-9.824-18.827
		c1.013-0.771,2.212-1.186,3.5-1.349c-1.488,1.731-2.585,3.868-3.104,6.029C422.104,342.091,428.018,346.515,434.346,348.411z
		 M435.662,330.012c1.115,0.43,2.161,0.892,3.028,1.316c0.023,0.01,0.038,0.019,0.052,0.023c0.28,0.2,0.561,0.336,0.84,0.578
		c5.251,4.467,4.383,9.689,0.873,13.147c-0.056-0.009-0.094-0.042-0.159-0.051C424.513,343.575,428.144,328.855,435.662,330.012z
		 M114.845,334.586c-0.521-2.166-1.62-4.294-3.102-6.03c1.286,0.163,2.485,0.579,3.498,1.349c7.722,5.895-1.194,20.251-9.822,18.832
		c-0.343-0.061-0.653-0.196-0.989-0.28C110.754,346.562,116.665,342.147,114.845,334.586z M98.479,345.083
		c-0.065,0.005-0.105,0.042-0.161,0.052c-3.507-3.459-4.377-8.681,0.875-13.143c0.28-0.248,0.558-0.383,0.836-0.579
		c0.014-0.01,0.028-0.019,0.049-0.028c0.868-0.429,1.911-0.887,3.029-1.312C110.635,328.916,114.257,343.631,98.479,345.083z
		 M505.757,281.097c-6.571-11.374-14.533-35.094,3.164-40.221c9.414-2.73,11.154,25.282-2.38,8.678
		c-1.727-2.116-4.714,0.903-3.001,3.001c3.864,4.735,11.374,10.996,15.868,3.389c0.784-1.323,1.246-2.859,1.438-4.464
		C521.625,259.145,518.152,269.033,505.757,281.097z M283.94,175.43c-3.538-2.627-0.248-8.263,3.519-5.195
		c5.693,4.642,4.863,12.167-0.962,16.23c-0.695,0.493-1.357-0.653-0.667-1.132c2.805-1.96,5.129-5.43,4.153-9.01
		c-0.48-1.743-1.367-3.449-2.8-4.616c-2.511-2.046-5.092,0.721-2.576,2.585C285.279,174.79,284.626,175.931,283.94,175.43z
		 M276.696,180.983c1.825-1.839,5.639-2.938,7.481-0.56c1.765,2.28-0.934,4.378-2.936,4.877c-0.826,0.206-1.176-1.066-0.35-1.271
		c0.994-0.25,3.683-1.573,2.118-2.978c-1.162-1.043-3.122-0.721-4.35,0.046c-1.925,1.204-2.053,3.269-1.082,5.194
		c1.507,2.955,4.424,6.051,7.859,6.548c0.835,0.114,0.48,1.386-0.351,1.271C280.809,193.491,272.181,185.524,276.696,180.983z
		 M304.694,206.762c2.385,1.696,6.175,2.125,7.691-0.931c1.367-2.745-0.924-4.259-3.285-4.732c2.403-0.971,5.092-1.692,5.787-1.769
		c1.213-0.138,1.227-2.062,0-1.92C311.84,197.759,298.347,202.251,304.694,206.762z M310.416,205.376
		c-1.312,1.636-4.308,0.698-5.283-0.871c-0.42-0.672,0.243-1.396,1.33-2.088c0.146,0.25,0.369,0.441,0.747,0.422
		C308.517,202.791,312.124,203.283,310.416,205.376z M238.728,277.853c0,0-20.078-40.757-60.814-40.757
		c-40.727,0-86.682,40.757-86.682,40.757s23.956,32.348,64.693,32.348C196.651,310.201,238.728,277.853,238.728,277.853z
		 M177.913,254.936c16.256,0,28.427,9.84,35.811,18.148c-14.204,8.438-36.641,19.331-57.799,19.331
		c-15.674,0-28.397-6.333-37.472-13.049C133.688,268.687,157.315,254.936,177.913,254.936z M300.046,277.797
		c0,0,42.078,32.352,82.804,32.352c40.734,0,64.694-32.352,64.694-32.352s-45.956-40.755-86.682-40.755
		C320.124,237.038,300.046,277.797,300.046,277.797z M382.85,292.359c-21.101,0-43.601-10.931-57.844-19.396
		c7.317-8.277,19.447-18.081,35.856-18.081c20.629,0,44.286,13.777,59.538,24.474C411.384,286.04,398.685,292.359,382.85,292.359z
		 M402.218,357.464c-10.912,16.451-36.343,18.663-52.211,8.933c-19.723-12.097-32.711-34.583-58.73-31.134
		c-3.785,0.499-3.738-5.446,0-5.937c23.345-3.095,36.296,12.498,52.943,25.776c12.373,9.856,29.813,16.27,44.543,6.571
		c9.539-6.277,19.051-20.442,4.321-28.441c-4.942-2.684-23.335-6.963-18.248,6.259c1.563,4.195,4.392,7.131,8.494,8.802
		c3.351,1.862,0.354,6.986-2.996,5.125c-6.464-3.58-13.517-10.343-11.612-18.674c1.316-5.75,5.773-11.107,12.224-11.07
		C399.632,323.773,413.194,340.911,402.218,357.464z M478.272,281.055c-1.773,1.577-4.004-1.345-2.25-2.912
		c10.776-9.624,12.13-21.196,7.986-33.153c-0.514,0.033-1.041-1.614-1.48-2.074c-7.257-7.612-15.597-3.895-20.843,3.804
		c-1.339,1.97-4.266-0.262-2.94-2.208c5.764-8.459,14.604-12.013,22.58-7.178c-4.635-8.874-12.148-16.622-20.825-21.046
		c-10.52-5.367-23.387-6.616-32.744,1.893c-6.608,5.997-10.781,17.786-3.817,25.415c13.235,14.505,33.229-12.9,13.861-18.414
		c-2.287-0.656-0.878-4.053,1.377-3.412c25.155,7.159-1.06,42.797-16.97,25.365c-14.044-15.387,1.391-37.84,19.714-38.83
		C476.615,206.428,507.124,255.309,478.272,281.055z M247.497,335.319c-26.017-3.449-39.007,19.037-58.73,31.135
		c-15.866,9.735-41.301,7.519-52.211-8.934c-10.977-16.549,2.59-33.696,21.277-33.794c6.45-0.042,10.909,5.325,12.223,11.065
		c1.909,8.336-5.146,15.098-11.612,18.678c-3.351,1.857-6.347-3.271-2.996-5.124c4.104-1.676,6.938-4.603,8.501-8.803
		c5.08-13.222-13.311-8.933-18.255-6.254c-14.729,7.995-5.216,22.159,4.324,28.441c14.725,9.688,32.163,3.286,44.536-6.581
		c16.647-13.268,29.599-28.87,52.943-25.771C251.24,329.877,251.282,335.819,247.497,335.319z"/>
</g>
<g>
</g>
<g>
</g>
<g>
</g>
<g>
</g>
<g>
</g>
<g>
</g>
<g>
</g>
<g>
</g>
<g>
</g>
<g>
</g>
<g>
</g>
<g>
</g>
<g>
</g>
<g>
</g>
<g>
</g>
</svg>
