<?xml version='1.0' encoding='iso-8859-1'?>
<svg version="1.1" xmlns="http://www.w3.org/2000/svg" viewBox="0 0 285 285" xmlns:xlink="http://www.w3.org/1999/xlink" enable-background="new 0 0 285 285">
  <g>
    <g>
      <path d="m195.446,103.546h31.744c8.284,0 15.885,2.976 21.796,7.911l6.681,.841c8.228,1.042 15.722-4.789 16.757-13.009 1.034-8.22-4.79-15.722-13.009-16.757l-63.54-8c-4.731-0.59-9.451,1.089-12.735,4.537l-15.606,16.383 5.69-.757c8.579-1.14 16.9,2.324 22.222,8.851z"/>
      <path d="m59.643,98.994l2.825,4.552h25.426l-4.919-9.265 34.565,39.513c2.76,3.154 7.058,4.712 11.056,4.161l49.505-6.582c7.321-0.973 12.199-8.056 10.52-15.248-1.476-6.315-7.554-10.364-13.811-9.534-0.001,0-0.002,0-0.004,0l-42.861,5.699-31.301-35.782 34.259,23.283 2.919-.388-21.922-35.322c-5.097-8.212-15.886-10.738-24.098-5.642l-26.518,16.457c-8.212,5.096-10.738,15.885-5.641,24.098z"/>
      <circle cx="60.907" cy="37.992" r="25.907"/>
      <path d="m53.31,175.717h113.341c-0.242-12.397 9.778-22.43 21.989-22.43h60.61v-15.681c0-12.183-9.877-22.06-22.06-22.06h-26.488c1.923,13.559-7.61,25.94-21.02,27.722l-49.505,6.582c-11.045,1.468-20.386-5.059-23.236-10.429l-12.676-23.875h-40.955c-12.183,0-22.06,9.877-22.06,22.06v16.051c-3.55271e-15,12.183 9.876,22.06 22.06,22.06z"/>
      <path d="m111,199.416c0-5.523-4.478-10-10-10h-91c-5.523,0-10,4.477-10,10 0,5.522 4.477,10 10,10h91c5.522,0 10-4.478 10-10z"/>
      <path d="m76.817,231.416c0,5.522 4.477,10 10,10h91.183c5.522,0 10-4.478 10-10 0-5.523-4.478-10-10-10h-91.183c-5.522,0-10,4.477-10,10z"/>
      <path d="m264,252.916h-229.003c-5.523,0-10,4.477-10,10 0,5.522 4.477,10 10,10h229.003c5.522,0 10-4.478 10-10 0-5.523-4.478-10-10-10z"/>
      <path d="m275,165.287h-86.36c-5.522,0-10,4.478-10,10 0,5.523 4.478,10 10,10h86.36c5.522,0 10-4.477 10-10s-4.478-10-10-10z"/>
    </g>
  </g>
</svg>
