<?xml version="1.0" encoding="utf-8"?>
<!-- Generator: Adobe Illustrator 16.0.0, SVG Export Plug-In . SVG Version: 6.00 Build 0)  -->
<!DOCTYPE svg PUBLIC "-//W3C//DTD SVG 1.1//EN" "http://www.w3.org/Graphics/SVG/1.1/DTD/svg11.dtd">
<svg version="1.1" id="Layer_1_copy_2" xmlns="http://www.w3.org/2000/svg" xmlns:xlink="http://www.w3.org/1999/xlink" x="0px"
	 y="0px" width="126px" height="126px" viewBox="0 0 126 126" enable-background="new 0 0 126 126" xml:space="preserve">
<path stroke="#6D6E70" stroke-width="0" stroke-linecap="round" stroke-linejoin="round" d="M41.709,47.433
	c-0.185-0.189-0.248-0.465-0.164-0.715c0.084-0.25,0.301-0.432,0.561-0.472l4.604-0.703l2.065-4.4
	c0.116-0.247,0.364-0.404,0.637-0.404s0.521,0.157,0.637,0.404l2.065,4.4l4.604,0.703c0.26,0.04,0.477,0.222,0.561,0.472
	c0.084,0.25,0.021,0.525-0.164,0.714l-3.352,3.437l0.794,4.857c0.043,0.266-0.068,0.533-0.289,0.688
	c-0.121,0.085-0.263,0.128-0.405,0.128c-0.117,0-0.234-0.029-0.34-0.087l-4.11-2.271l-4.108,2.271
	c-0.234,0.131-0.524,0.115-0.745-0.041c-0.22-0.155-0.332-0.422-0.289-0.688l0.791-4.857L41.709,47.433z M69.827,47.433
	c-0.185-0.189-0.248-0.465-0.164-0.715c0.084-0.25,0.301-0.432,0.561-0.472l4.604-0.703l2.065-4.4
	c0.116-0.247,0.364-0.404,0.637-0.404s0.521,0.157,0.637,0.404l2.065,4.4l4.604,0.703c0.26,0.04,0.477,0.222,0.561,0.472
	c0.084,0.25,0.021,0.525-0.164,0.714L81.88,50.87l0.794,4.857c0.043,0.266-0.068,0.533-0.289,0.688
	c-0.121,0.085-0.263,0.128-0.405,0.128c-0.117,0-0.234-0.029-0.34-0.087l-4.11-2.271l-4.108,2.271
	c-0.234,0.131-0.524,0.115-0.745-0.041c-0.22-0.155-0.332-0.422-0.289-0.688l0.791-4.857L69.827,47.433z M88.517,71.036
	c0.265,0.403,0.31,0.913,0.118,1.356c-4.285,9.904-14.318,16.304-25.563,16.304c-11.486,0-21.58-6.431-25.714-16.382
	c-0.185-0.443-0.135-0.949,0.131-1.347c0.267-0.398,0.714-0.637,1.192-0.637c0.001,0,0.001,0,0.002,0l48.638,0.06
	C87.803,70.39,88.252,70.633,88.517,71.036z M96.617,114.848H29.383c-10.053,0-18.23-8.178-18.23-18.23V29.382
	c0-10.052,8.178-18.23,18.23-18.23h67.234c10.053,0,18.23,8.178,18.23,18.23v67.235C114.848,106.67,106.67,114.848,96.617,114.848z
	 M29.383,19.731c-5.322,0-9.652,4.33-9.652,9.651v67.235c0,5.321,4.33,9.651,9.652,9.651h67.234c5.322,0,9.652-4.33,9.652-9.651
	V29.382c0-5.321-4.33-9.651-9.652-9.651H29.383z"/>
</svg>
