<?xml version="1.0" encoding="iso-8859-1"?>
<!-- Generator: Adobe Illustrator 16.0.0, SVG Export Plug-In . SVG Version: 6.00 Build 0)  -->
<!DOCTYPE svg PUBLIC "-//W3C//DTD SVG 1.1//EN" "http://www.w3.org/Graphics/SVG/1.1/DTD/svg11.dtd">
<svg version="1.1" id="Capa_1" xmlns="http://www.w3.org/2000/svg" xmlns:xlink="http://www.w3.org/1999/xlink" x="0px" y="0px"
	 width="45.74px" height="45.74px" viewBox="0 0 45.74 45.74" style="enable-background:new 0 0 45.74 45.74;" xml:space="preserve"
	>
<g>
	<g>
		<g>
			<g>
				<g>
					<path d="M12.2,15.267c0-3.322,0.896-6.43,2.448-9.113c0.376-0.649-0.191-1.451-0.918-1.265
						C5.35,7.041-0.711,14.961,0.067,24.179c0.736,8.701,7.768,15.803,16.463,16.617c6.033,0.565,11.517-1.811,15.221-5.848
						c0.5-0.546,0.073-1.432-0.666-1.401c-0.196,0.009-0.395,0.013-0.594,0.013C20.389,33.56,12.2,25.371,12.2,15.267z"/>
				</g>
			</g>
			<g>
				<path d="M23.144,5.6l0.917,2.633l2.788,0.061c0.354,0.008,0.498,0.456,0.218,0.669l-2.221,1.687l0.805,2.669
					c0.104,0.338-0.279,0.614-0.568,0.414l-2.292-1.59l-2.29,1.59c-0.29,0.201-0.669-0.076-0.569-0.414l0.805-2.669l-2.221-1.687
					c-0.28-0.213-0.134-0.661,0.218-0.669l2.788-0.061L22.44,5.6C22.556,5.267,23.027,5.267,23.144,5.6z"/>
			</g>
			<g>
				<path d="M40.26,26.44l0.881,2.53l2.679,0.057c0.389,0.009,0.549,0.502,0.24,0.737l-2.134,1.621l0.772,2.564
					c0.111,0.371-0.309,0.677-0.627,0.454l-2.201-1.527l-2.2,1.527c-0.318,0.223-0.739-0.083-0.626-0.454l0.772-2.564l-2.133-1.621
					c-0.31-0.234-0.149-0.729,0.238-0.737l2.679-0.057l0.884-2.53C39.612,26.074,40.131,26.074,40.26,26.44z"/>
			</g>
			<g>
				<path d="M39.926,8.098l1.325,3.799l4.021,0.086c0.452,0.01,0.639,0.584,0.278,0.858l-3.204,2.434l1.162,3.853
					c0.131,0.433-0.356,0.788-0.729,0.529l-3.306-2.294l-3.305,2.294c-0.372,0.259-0.86-0.097-0.729-0.529l1.161-3.853l-3.205-2.434
					c-0.358-0.273-0.172-0.849,0.279-0.858l4.022-0.086l1.324-3.799C39.173,7.672,39.776,7.672,39.926,8.098z"/>
			</g>
		</g>
	</g>
</g>
<g>
</g>
<g>
</g>
<g>
</g>
<g>
</g>
<g>
</g>
<g>
</g>
<g>
</g>
<g>
</g>
<g>
</g>
<g>
</g>
<g>
</g>
<g>
</g>
<g>
</g>
<g>
</g>
<g>
</g>
</svg>
