<?xml version="1.0" encoding="iso-8859-1"?>
<!-- Generator: Adobe Illustrator 16.0.0, SVG Export Plug-In . SVG Version: 6.00 Build 0)  -->
<!DOCTYPE svg PUBLIC "-//W3C//DTD SVG 1.1//EN" "http://www.w3.org/Graphics/SVG/1.1/DTD/svg11.dtd">
<svg version="1.1" id="Capa_1" xmlns="http://www.w3.org/2000/svg" xmlns:xlink="http://www.w3.org/1999/xlink" x="0px" y="0px"
	 width="540.084px" height="540.085px" viewBox="0 0 540.084 540.085" style="enable-background:new 0 0 540.084 540.085;"
	 xml:space="preserve">
<g>
	<path d="M391.575,492.137l-2.988-8.18L363.62,137.759c-0.01-0.156-0.035-0.325-0.068-0.486V84.766
		c6.498-1.745,11.109-7.662,11.109-14.479c0-8.275-6.734-15.008-15.008-15.008s-15.002,6.733-15.002,15.008
		c0,6.817,4.604,12.732,11.102,14.479l0.016,53.604l-16.484,104.756L316.631,83.725c-0.031-0.214-0.086-0.418-0.143-0.618v-53.62
		c6.49-1.742,11.098-7.663,11.098-14.485c0-8.273-6.729-15.001-15.002-15.001c-8.275,0-15.008,6.728-15.008,15.001
		c0,6.821,4.609,12.743,11.105,14.485V84.2c0,0.282,0.037,0.568,0.105,0.867l-10.246,126.129l-28.121-12.953
		c-0.146-0.057-0.287-0.103-0.637-0.194l-0.345-0.063c-0.146-0.015-0.305-0.021-0.444-0.021l-1.033,0.142
		c-0.157,0.046-0.304,0.094-0.281,0.099l-27.774,12.775l-8.67-126.841V29.486c6.497-1.736,11.103-7.657,11.103-14.485
		C242.339,6.728,235.612,0,227.337,0c-8.274,0-15.009,6.728-15.009,15.001c0,6.821,4.605,12.743,11.105,14.485l0.015,54.388
		l-22.645,159.245l-16.574-105.526c-0.017-0.146-0.042-0.286-0.075-0.428V84.761c6.498-1.745,11.107-7.667,11.107-14.483
		c0-8.275-6.732-15.002-15.006-15.002c-8.275,0-15.003,6.728-15.003,15.002c0,6.817,4.604,12.737,11.103,14.483l0.006,54.619
		l-24.866,344.571l-3.005,8.189c-0.15,0.435-0.224,0.879-0.224,1.325v42.715l0.026,0.355l1.344-0.041l0,0l-1.297,0.412
		c0.03,0.147,0.067,0.294,0.173,0.597c0.053,0.172,0.124,0.319,0.203,0.471l0.168,0.297c0.136,0.216,0.224,0.299,0.209,0.271
		l0.256,0.335c0.109,0.113,0.224,0.208,0.575,0.491c0.178,0.136,0.344,0.229,0.344,0.193l0.378,0.22
		c0.219,0.088,0.454,0.155,0.674,0.204c0.263,0.067,0.538,0.099,0.854,0.099h89.707c2.154,0,3.904-1.751,3.884-4.202v-36.862
		c0-4.208,3.424-7.633,7.633-7.633c4.207,0,7.626,3.425,7.626,7.633v37.16c0,2.149,1.75,3.9,3.899,3.9h10.256
		c2.146,0,3.898-1.751,3.898-3.9v-37.16c0-4.208,3.424-7.633,7.633-7.633c3.334,0,6.303,2.208,7.285,5.384l0.346,39.436l0.082,0.747
		c0.033,0.167,0.086,0.329,0.129,0.435l0.107,0.325l1.229-0.528l-1.004,0.968l0.271,0.392l1.535,1.211
		c0.127,0.059,0.262,0.105,0.402,0.139l0.355,0.109c0.262,0.053,0.521,0.079,0.789,0.079h89.697c0.277,0,0.543-0.026,0.82-0.085
		c0.258-0.058,0.508-0.137,0.898-0.319c0.174-0.087,0.346-0.183,0.68-0.438c0.137-0.101,0.262-0.227,0.141-0.144l0.299-0.252
		l0.832-1.441l0.215-43.94C391.817,493.003,391.731,492.549,391.575,492.137z M297.534,219.333l-0.979,10.873l-23.678-11.538
		v-10.715L297.534,219.333z M312.577,7.802c3.969,0,7.199,3.229,7.199,7.202s-3.23,7.209-7.199,7.209
		c-3.971,0-7.207-3.236-7.207-7.209S308.606,7.802,312.577,7.802z M359.653,63.078c3.967,0,7.195,3.236,7.195,7.209
		c0,3.973-3.229,7.202-7.195,7.202c-3.975,0-7.209-3.229-7.209-7.202C352.444,66.314,355.68,63.078,359.653,63.078z M335.34,269.419
		c0.209,1.985,1.875,3.479,3.879,3.479c2.006,0,3.674-1.494,3.873-3.412l15.461-96.602l11.432,158.956
		c-2.354-5.211-7.602-8.843-13.682-8.843c-8.271,0-15.006,6.725-15.006,15.001c0,6.812,4.609,12.733,11.107,14.49v53.704
		l-26.959,48.813l-24.633-68.201l-0.6-68.1l13.773-197.852L335.34,269.419z M356.301,330.801c3.98,0,7.215,3.229,7.215,7.203
		c0,3.973-3.234,7.207-7.215,7.207c-3.973,0-7.203-3.234-7.203-7.207C349.098,334.029,352.329,330.801,356.301,330.801z
		 M360.206,406.505v-54.017c5.133-1.381,9.09-5.368,10.523-10.35l8.326,115.82L360.206,406.505z M328.602,465.431l26.982-48.861
		l28.428,77.59v38.122h-55.41V465.431L328.602,465.431z M277.43,322.092l15.086,9.096l0.299,33.481L277.43,322.092z
		 M262.627,322.092l-17.223,47.673l-0.073-37.249L262.627,322.092z M270.027,239.29c3.976,0,7.21,3.23,7.21,7.204
		c0,3.973-3.234,7.202-7.21,7.202c-3.972,0-7.2-3.229-7.2-7.202C262.826,242.52,266.055,239.29,270.027,239.29z M292.405,318.596
		l0.031,3.43l-18.512-11.159v-49.888c6.502-1.745,11.115-7.667,11.115-14.484c0-8.275-6.732-15.008-15.009-15.008
		c-8.273,0-15.006,6.733-15.006,15.008c0,6.817,4.604,12.738,11.103,14.484v49.888l-20.853,12.575l-4.021-84.501l27.722-13.496
		l27.923,13.611L292.405,318.596z M286.686,483.595c-8.51,0-15.436,6.923-15.436,15.427v33.261h-2.445v-33.261
		c0-8.504-6.921-15.427-15.426-15.427c-8.518,0-15.442,6.923-15.442,15.427v33.261H219.26v-67.17l50.765-140.558l50.767,140.563
		v67.163h-18.676v-33.26C302.118,490.516,295.198,483.595,286.686,483.595z M240.408,219.333l24.666-11.378v10.715l-23.69,11.538
		L240.408,219.333z M180.237,63.078c3.974,0,7.21,3.236,7.21,7.209c0,3.973-3.236,7.202-7.21,7.202
		c-3.972,0-7.202-3.229-7.202-7.202C173.034,66.314,176.265,63.078,180.237,63.078z M183.755,330.801
		c3.974,0,7.203,3.229,7.203,7.203c0,3.973-3.229,7.207-7.203,7.207s-7.202-3.234-7.202-7.207
		C176.553,334.029,179.782,330.801,183.755,330.801z M179.857,352.488v54.017l-18.855,51.461l8.327-115.831
		C170.759,347.107,174.716,351.098,179.857,352.488z M187.656,352.488c6.496-1.745,11.102-7.67,11.102-14.49
		c0-8.275-6.728-15.001-15.002-15.001c-6.078,0-11.332,3.632-13.685,8.844l11.43-158.962l15.458,96.534
		c0.205,1.985,1.871,3.485,3.878,3.485c1.997,0,3.665-1.494,3.872-3.429l21.166-146.799l6.526,93.911
		c-0.024,0.231-0.029,0.488-0.004,0.69l5.11,107.132l0.138,66.832l-23.031,63.771l-26.961-48.813V352.49h0.003V352.488z
		 M227.318,7.802c3.973,0,7.202,3.229,7.202,7.202s-3.229,7.209-7.202,7.209c-3.974,0-7.204-3.236-7.204-7.209
		S223.345,7.802,227.318,7.802z M211.459,465.431v66.851h-55.414v-38.122l28.427-77.59L211.459,465.431z M269.494,199.36
		L269.494,199.36L269.494,199.36L269.494,199.36z"/>
</g>
<g>
</g>
<g>
</g>
<g>
</g>
<g>
</g>
<g>
</g>
<g>
</g>
<g>
</g>
<g>
</g>
<g>
</g>
<g>
</g>
<g>
</g>
<g>
</g>
<g>
</g>
<g>
</g>
<g>
</g>
</svg>
