<?xml version="1.0" encoding="iso-8859-1"?>
<!-- Generator: Adobe Illustrator 18.0.0, SVG Export Plug-In . SVG Version: 6.00 Build 0)  -->
<!DOCTYPE svg PUBLIC "-//W3C//DTD SVG 1.1//EN" "http://www.w3.org/Graphics/SVG/1.1/DTD/svg11.dtd">
<svg version="1.1" id="Capa_1" xmlns="http://www.w3.org/2000/svg" xmlns:xlink="http://www.w3.org/1999/xlink" x="0px" y="0px"
	 viewBox="0 0 469.983 469.983" style="enable-background:new 0 0 469.983 469.983;" xml:space="preserve">
<g>
	<path d="M207.803,116.771c-17.244,17.245-26.741,40.172-26.741,64.559c0,4.325,0.313,8.6,0.901,12.81L10.144,365.958
		c-13.525,13.528-13.525,35.537,0,49.062l44.818,44.82c6.763,6.763,15.645,10.143,24.53,10.143c8.883,0,17.77-3.382,24.534-10.143
		l171.819-171.82c4.209,0.587,8.484,0.901,12.808,0.901c24.386,0,47.315-9.498,64.558-26.741l76.727-76.728L284.53,40.044
		L207.803,116.771z M89.885,445.696c-5.73,5.729-15.053,5.729-20.781,0.002l-44.818-44.82c-5.728-5.728-5.728-15.049,0.001-20.778
		l163.72-163.72c4.529,10.9,11.199,20.911,19.797,29.509l16.291,16.291c8.598,8.598,18.61,15.267,29.51,19.796L89.885,445.696z
		 M339.068,248.038c-13.466,13.467-31.37,20.883-50.415,20.883c-19.045,0-36.949-7.417-50.416-20.883l-16.292-16.291
		c-13.467-13.467-20.884-31.372-20.884-50.417s7.417-36.95,20.883-50.417l30.13-30.13l117.123,117.125L339.068,248.038z
		 M383.34,203.767L266.217,86.641l18.313-18.314l117.124,117.125L383.34,203.767z"/>
	<rect x="395.103" y="32.892" transform="matrix(0.7071 0.7071 -0.7071 0.7071 164.5179 -267.4394)" width="20" height="63.977"/>
	<rect x="348.959" y="0" width="20" height="63.977"/>
	<rect x="406.007" y="101.024" width="63.977" height="20"/>
	<path d="M102.765,317.819l49.399,49.398l71.728-71.728l-49.397-49.397L102.765,317.819z M131.05,317.819l14.652-14.652
		l21.113,21.114l-14.651,14.651L131.05,317.819z M180.958,310.139l-21.113-21.113l14.65-14.65l21.113,21.113L180.958,310.139z"/>
</g>
<g>
</g>
<g>
</g>
<g>
</g>
<g>
</g>
<g>
</g>
<g>
</g>
<g>
</g>
<g>
</g>
<g>
</g>
<g>
</g>
<g>
</g>
<g>
</g>
<g>
</g>
<g>
</g>
<g>
</g>
</svg>
