<?xml version="1.0" encoding="iso-8859-1"?>
<!-- Generator: Adobe Illustrator 19.0.0, SVG Export Plug-In . SVG Version: 6.00 Build 0)  -->
<svg version="1.1" id="Capa_1" xmlns="http://www.w3.org/2000/svg" xmlns:xlink="http://www.w3.org/1999/xlink" x="0px" y="0px"
	 viewBox="0 0 46.401 46.401" style="enable-background:new 0 0 46.401 46.401;" xml:space="preserve">
<g>
	<path d="M43.308,20.433L6.102,0.541c-1.252-0.669-2.521-0.72-3.484-0.14C1.654,0.978,1.101,2.12,1.101,3.531v39.343
		c0,1.407,0.554,2.547,1.519,3.126c0.447,0.268,0.959,0.401,1.504,0.401c0.632,0,1.308-0.181,1.977-0.538l37.206-19.893
		c1.733-0.926,1.992-2.132,1.992-2.768C45.3,22.566,45.041,21.36,43.308,20.433z M42.365,24.207L5.159,44.099
		c-0.61,0.326-1.162,0.394-1.51,0.185c-0.349-0.209-0.548-0.723-0.548-1.41V3.531c0-0.691,0.198-1.207,0.545-1.415
		C3.778,2.037,3.94,1.998,4.124,1.998c0.299,0,0.655,0.104,1.035,0.307l37.206,19.893c0.577,0.309,0.936,0.693,0.936,1.006
		C43.3,23.514,42.942,23.898,42.365,24.207z"/>
</g>
<g>
</g>
<g>
</g>
<g>
</g>
<g>
</g>
<g>
</g>
<g>
</g>
<g>
</g>
<g>
</g>
<g>
</g>
<g>
</g>
<g>
</g>
<g>
</g>
<g>
</g>
<g>
</g>
<g>
</g>
</svg>
