<?xml version="1.0" encoding="utf-8"?>
<!-- Generator: Adobe Illustrator 16.0.0, SVG Export Plug-In . SVG Version: 6.00 Build 0)  -->
<!DOCTYPE svg PUBLIC "-//W3C//DTD SVG 1.1//EN" "http://www.w3.org/Graphics/SVG/1.1/DTD/svg11.dtd">
<svg version="1.1" id="Capa_1" xmlns="http://www.w3.org/2000/svg" xmlns:xlink="http://www.w3.org/1999/xlink" x="0px" y="0px"
	 width="35.618px" height="50.885px" viewBox="0 0 35.618 50.885" enable-background="new 0 0 35.618 50.885" xml:space="preserve">
<path fill="#040606" d="M35.398,44.863l-8.661-22.077c-0.501-1.275-0.419-3.311,0.182-4.542l2.531-5.183
	c0.602-1.233,0.049-2.644-1.295-2.916c-0.43-0.07-0.865-0.112-1.294-0.138V1.785c0-0.88-0.713-1.593-1.593-1.593H25.02
	c-0.88,0-1.593,0.713-1.593,1.593v8.349c-0.354,0.044-0.567,0.081-0.567,0.081c-1.357,0.328-2.471,0.856-3.301,1.386
	c-0.521,0.333-1.143,0.531-1.775,0.601c-0.633-0.069-1.253-0.268-1.775-0.601c-0.83-0.53-1.943-1.059-3.3-1.386
	c0,0-0.213-0.037-0.567-0.081V1.785c0-0.88-0.713-1.593-1.593-1.593h-0.248c-0.88,0-1.593,0.713-1.593,1.593v8.224
	c-0.428,0.026-0.863,0.068-1.293,0.138c-1.344,0.271-1.896,1.683-1.294,2.916l2.53,5.183c0.602,1.231,0.683,3.266,0.183,4.542
	L0.169,44.863c-0.5,1.277,0.145,2.679,1.458,3.068c3.269,0.966,9.479,2.518,15.737,2.591v0.001c0.128,0.001,0.256,0.006,0.384,0.006
	c0.011,0,0.023-0.001,0.035-0.001s0.024,0.001,0.035,0.001c0.128,0,0.256-0.005,0.384-0.006v-0.001
	c6.258-0.073,12.468-1.625,15.737-2.591C35.253,47.542,35.899,46.141,35.398,44.863z"/>
</svg>
