<?xml version="1.0" encoding="iso-8859-1"?>
<!-- Generator: Adobe Illustrator 16.0.0, SVG Export Plug-In . SVG Version: 6.00 Build 0)  -->
<!DOCTYPE svg PUBLIC "-//W3C//DTD SVG 1.1//EN" "http://www.w3.org/Graphics/SVG/1.1/DTD/svg11.dtd">
<svg version="1.1" id="Capa_1" xmlns="http://www.w3.org/2000/svg" xmlns:xlink="http://www.w3.org/1999/xlink" x="0px" y="0px"
	 width="517.255px" height="517.254px" viewBox="0 0 517.255 517.254" style="enable-background:new 0 0 517.255 517.254;"
	 xml:space="preserve">
<g>
	<g>
		<path d="M258.618,517.254c142.615,0,258.637-116.021,258.637-258.627C517.255,116.022,401.233,0,258.618,0
			C116.012,0,0,116.022,0,258.627C0,401.233,116.012,517.254,258.618,517.254z M34.789,311.049
			c4.504,3.252,9.409,6.102,14.257,8.883l1.492,0.861c38.403,21.945,87.334,33.545,141.516,33.545
			c17.327,0,35.133-1.186,52.871-3.51c14.219-1.863,29.06-4.895,45.383-9.303c1.54-0.412,3.213-0.805,4.954-1.205
			c4.8-1.119,10.231-2.391,13.76-4.543c0.22-0.037,0.153-0.535-0.545-2.018c-2.142-4.15-4.466-8.301-6.799-12.469l-0.976-1.73
			c-8.539-15.186-17.93-29.07-27.884-41.264l-2.143-2.695c-3.634-4.668-7.401-9.477-11.896-11.926
			c-1.778-0.975-6.598,0.182-10.471,1.291c-1.865,0.545-3.644,1.033-5.154,1.311c-5.833,1.061-11.657,2.256-17.48,3.461
			c-10.366,2.143-21.104,4.352-31.881,5.729c-13.148,1.654-24.9,2.984-36.978,2.467c-23.868-0.984-48.95-7.42-78.938-20.263
			c-13.072-5.728-25.713-13.75-38.651-24.528c-0.823-0.688-1.96-1.922-3.232-3.337c-1.081-1.205-3.299-3.644-4.838-4.801
			c3.088-21.037,9.075-41.138,17.48-59.928c-1.597,6.56-3.098,13.168-4.332,19.823c-0.354,1.827-0.851,3.844-1.387,5.958
			c-1.396,5.728-3.146,12.852-2.056,17.375c2.075,8.721,10.92,14.927,18.714,20.397c0.899,0.593,1.568,1.109,2.295,1.683
			c1.004,0.775,3.347,2.563,4.37,2.802c1.062-1.071,2.248-7.545,2.64-9.687c0.229-1.262,0.439-2.353,0.641-3.118
			c3.739-14.994,9.715-31.308,17.748-48.453c1.817-3.834,3.566-7.669,5.335-11.513c7.411-16.094,15.08-32.742,24.844-48.205
			c13.196-21.085,29.988-41.386,54.42-65.828c0.363-0.373,0.765-0.698,1.138-1.062c12.049-4.848,24.576-8.73,37.523-11.494
			c-2.696,2.295-5.364,4.638-8.003,6.981c-2.238,1.989-4.447,3.958-6.627,5.833c-40.105,34.301-71.107,78.259-94.765,134.391
			c-5.938,14.057-12.67,29.988-16.457,46.245c-0.354,1.501-0.966,3.251-1.625,5.087c-0.976,2.735-2.324,6.493-2.008,8.358
			c0.201,1.062,3.337,2.744,9.305,4.934c1.338,0.488,2.553,0.937,3.461,1.358c11.523,5.164,24.576,9.008,38.814,11.447
			c1.291,0.2,2.726,0.525,4.198,0.832c3.175,0.707,6.436,1.453,9.008,1.109c0.612-0.364,1.195-2.411,1.473-3.396l0.488-1.606
			c2.629-7.774,5.192-15.644,7.679-23.466c2.199-6.866,4.934-13.56,7.544-20.024c1.31-3.232,2.611-6.445,3.863-9.687
			c9.247-24.241,17.624-44.532,28.391-64.748c21.277-39.531,49.926-72.685,82.888-95.883c5.422-3.825,10.604-7.181,15.635-10.165
			c8.721,1.348,17.26,3.232,25.637,5.537c-13.665,5.288-25.78,13.33-35.716,20.636c-48.023,35.142-75.783,85.546-90.605,121.635
			c-8.367,20.292-17.834,43.28-24.767,65.981c-0.593,2.018-1.454,4.217-2.343,6.464c-1.435,3.624-2.926,7.372-3.089,10.499
			c1.023-0.363,1.779-0.363,2.591-0.354c5.346,0,10.997-0.879,16.476-1.74c2.228-0.354,4.447-0.697,6.608-0.975l3.079-0.422
			c13.722-1.854,26.679-3.604,39.914-6.626c1.912-0.42,4.217-0.708,6.684-1.014c5.25-0.641,11.771-1.444,14.401-3.882
			c1.473-1.386,2.467-5.068,3.261-8.032c0.498-1.846,0.985-3.634,1.559-5.125l1.999-5.125c3.844-9.936,7.841-20.225,12.412-30.131
			c13.32-29.032,31.91-55.893,55.214-79.818c15.004-15.415,33.938-28.649,51.943-36.318c6.196-2.61,12.001-4.571,17.758-5.986
			l1.253-0.287c0.086-0.019,0.2-0.048,0.296-0.067c11.007,8.453,21.267,17.853,30.581,28.123c-4.322-3.031-8.559-5.823-12.613-8.252
			l-1.271-0.774c-3.013-1.846-6.13-3.758-8.979-3.758c-8.147,1.119-16.094,4.409-21.43,6.79l-1.214,0.536
			c-0.804,0.334-2.305,0.975-2.649,1.406c0.459,0.602,3.997,3.739,5.499,5.078c1.157,1.023,2.189,1.951,2.859,2.687
			c9.619,10.519,18.054,20.655,25.79,30.982l0.697,0.937c12.958,17.184,26.374,34.951,37.409,53.99
			c10.308,17.662,19.688,38.91,27.874,63.15c2.793,8.243,4.772,16.858,6.35,25.684c-1.74,16.562-5.278,32.58-10.356,47.908
			c-0.41-6.473-1.052-13.271-1.998-20.816c-1.826-14.803-4.169-30.533-8.74-45.289c-12.106-39.483-34.023-73.86-51.752-99.401
			c-12.537-18.006-24.547-32.981-36.701-45.766c-0.641-0.679-1.453-1.616-2.353-2.668c-2.075-2.41-6.913-8.062-9.266-8.062
			c-2.63,0.708-5.824,3.376-8.645,5.728c-1.042,0.861-2.037,1.693-2.983,2.4c-9.869,7.592-18.81,16.438-29.845,29.567
			c-0.717,0.823-1.674,1.789-2.754,2.878c-1.778,1.769-7.162,7.172-6.99,9.084c0.392,1.951,5.001,5.843,7.468,7.937
			c1.435,1.205,2.735,2.314,3.682,3.261c10.797,10.777,20.837,21.764,29.845,32.666c26.564,32.493,55.539,71.776,69.032,116.883
			c8.73,29.184,13.616,54.744,14.917,78.154l0.115,2.477c-4.542,5.822-9.353,11.416-14.43,16.771c0.086-7-0.852-14.43-1.75-21.361
			c-0.297-2.297-0.584-4.523-0.822-6.637c-4.877-43.807-17.041-82.449-36.156-114.846c-7.765-13.234-16.849-25.905-24.748-36.74
			c-13.722-18.829-28.897-36.05-43.261-51.838c-4.063-4.513-7.727-8.224-11.217-11.37c-1.062-0.937-1.979-1.75-2.361-1.874
			c0.182,0.076-0.708,1.53-1.091,2.151l-7.821,13.062c-7.096,11.857-12.23,25.063-17.203,37.839l-3.194,8.166
			c-0.555,1.435-1.348,3.127-2.209,4.925c-1.922,4.055-4.312,9.113-3.844,12.145c0.306,1.884,3.155,4.398,5.45,6.436
			c1.406,1.243,2.745,2.448,3.759,3.586c7.879,8.701,15.185,18.254,21.065,27.568c19.536,31.098,40.88,68.41,51.083,109.395
			c4.274,17.031,5.853,34.885,4.456,50.252c-0.478,5.68-1.501,11.158-3.107,16.705c-0.134,0.479-0.335,1.1-0.555,1.73
			c-0.268,0.793-0.774,2.258-0.67,2.734c0.067,0.029,0.373,0.086,0.632,0.145c-23.964,10.691-50.051,17.385-77.476,19.268
			c11.398-3.213,22.166-7.182,31.537-10.939c3.165-1.242,6.455-2.342,9.764-3.441c6.225-2.076,12.689-4.227,17.978-7.508
			c1.567-0.965,2.151-2.639,3.04-5.518c2.047-6.875,3.003-13.254,3.003-19.449l0.01-1.244c0.028-1.1,0.105-4.025-0.449-4.686
			c-0.431,0.096-1.406,0.373-2.19,0.594l-1.233,0.334c-2.343,0.594-4.724,1.158-7.104,1.713l-5.26,1.252
			c-15.108,3.787-29.959,6.656-44.111,8.51c-40.698,5.346-85.384,4.17-128.176-3.336c-15.147-2.648-28.429-5.824-40.411-9.592
			c-9.562-8.043-18.446-16.859-26.593-26.326c40.315,17.357,87.956,26.508,139.029,26.508c16.553,0,33.44-0.965,50.193-2.859
			c15.367-1.787,30.236-5.02,46.713-8.76c1.53-0.344,3.366-0.65,5.308-0.965c4.522-0.736,10.126-1.645,12.622-3.48
			c0.631-0.594,0.966-3.031-1.023-11.256c-0.229-0.918-0.411-1.73-0.563-2.41c-3.424-15.107-9.343-29.92-14.603-42.619
			c-0.392-0.908-0.765-2.027-1.176-3.242c-0.86-2.553-2.668-7.859-4.428-8.443c-0.65,0-1.75,0.383-2.61,0.697
			c-0.612,0.221-1.215,0.441-1.778,0.604l-1.033,0.324c-4.666,1.473-9.353,2.945-14.066,4.295
			c-15.242,4.445-32.178,7.879-51.752,10.508c-17.127,2.295-34.511,3.453-51.676,3.453c-35.726,0-69.405-4.896-100.072-14.535
			c-18.494-5.814-35.878-13.148-51.791-21.736C38.91,326.79,36.653,318.997,34.789,311.049z"/>
	</g>
</g>
<g>
</g>
<g>
</g>
<g>
</g>
<g>
</g>
<g>
</g>
<g>
</g>
<g>
</g>
<g>
</g>
<g>
</g>
<g>
</g>
<g>
</g>
<g>
</g>
<g>
</g>
<g>
</g>
<g>
</g>
</svg>
