<?xml version="1.0" encoding="utf-8"?>
<!-- Generator: Adobe Illustrator 17.1.0, SVG Export Plug-In . SVG Version: 6.00 Build 0)  -->
<!DOCTYPE svg PUBLIC "-//W3C//DTD SVG 1.1//EN" "http://www.w3.org/Graphics/SVG/1.1/DTD/svg11.dtd">
<svg version="1.1" id="Capa_1" xmlns="http://www.w3.org/2000/svg" xmlns:xlink="http://www.w3.org/1999/xlink" x="0px" y="0px"
	 width="1000px" height="1000px" viewBox="0 0 1000 1000" enable-background="new 0 0 1000 1000" xml:space="preserve">
<g>
	<path d="M497.7,223.1c0.1,0.1,0.3,0.2,0.4,0.3c10.6-6.4,26.4-16,33.2-21c6.8-5,13.4-10.1,19.7-15.4c-16.4,5.8-34.7,9-54.2,9
		c-16.5,0-32.2-2.3-46.6-6.6C464.7,201.4,480.6,212.7,497.7,223.1z"/>
	<path d="M887.4,529.8v-278c0-93.4-75.7-169.1-169.1-169.1h-64.9c4.4,10.2,7.6,20.6,10.2,31.1h45.9c41.1,0,78.8,16.3,106.3,46
		c26.7,28.9,41.5,67.8,41.5,109.6c0,8.3-6.7,15-15,15s-15-6.7-15-15c0-34.2-11.9-65.9-33.5-89.3c-21.7-23.5-51.6-36.4-84.3-36.4
		h-39.7c0.3,1.4,6.7,37,11.9,52.3c0.8,2.3,1.1,4.7,1,7.1c0.2,5.1-1.3,9.9-4.5,13.6c-3.5,4.1-8.6,6.4-14.3,6.4
		c-2.4,0-4.9-0.4-7.4-1.2l-31-10c-0.1,0-0.2,0-0.4,0c-1.6,0-3.3,0.7-3.8,1c-29.7,24.3-91.8,60.2-92.1,60.4
		c0,0.4-0.1,123.2-0.1,123.2c0,14.5-11.4,26.3-25.4,26.3h-8.6c-14,0-25.4-11.8-25.4-26.3V273.6c-22.9-12.4-60.7-34.3-93-60.7
		c-0.5-0.4-2.2-1-3.8-1c-0.2,0-0.3,0-0.4,0l-31,10c-2.5,0.8-5,1.2-7.4,1.2c-6.5,0-12.2-2.9-15.6-8.1c-2.2-3.3-5.3-10.2-1.3-20.2
		c0,0,8.2-31.7,11-47c0.2-1.4,0.5-2.7,0.7-4.1h-34.7c-32.5,0-62.2,12.9-83.6,36.3c-21.3,23.3-33,55-33,89.3c0,8.3-6.7,15-15,15
		s-15-6.7-15-15c0-41.9,14.5-80.8,40.8-109.6c27.2-29.7,64.7-46.1,105.8-46.1h40.9c2.6-10.5,5.8-20.9,10.2-31.1h-61.1
		c-93.4,0-169.1,75.7-169.1,169.1v278c0,5.5,4.5,10,10,10l115.9,0.1V324.8c0-5.8,4.7-10.5,10.5-10.5c5.8,0,10.5,4.7,10.5,10.5
		l-0.1,631.7c0,10.2,2.3,10.4,10,10.4l459.8,0c5.5,0,10-4.5,10-10l0.1-632c0-5.9,4.8-10.8,10.8-10.8s10.8,4.8,10.8,10.8V540
		l114.1-0.2C882.9,539.8,887.4,535.3,887.4,529.8z M663.9,361.3c0,26.3-21.3,51.3-47.6,51.3s-47.6-25-47.6-51.3v-26.5
		c0-5.5,4.5-10,10-10h75.3c5.5,0,10,4.5,10,10V361.3z"/>
	<path d="M376.3,82.7c0.7-4,3.7-10.8-0.9-13.4c-7-4-11.5,9.2-13.6,13.4c-4.9,10-23.9,96.7-29.2,113.9l-1.6,3.9
		c-1.9,4.7-0.5,7.7,3,7.7c0.8,0,1.7-0.2,2.8-0.5l31.1-10.1c1.5-0.5,3.1-0.7,4.9-0.7c4.7,0,9.9,1.7,13.3,4.4
		c28.3,23.1,60.8,42.7,83.6,55.3c0.6-9.8,5.3-18,14-24.4c-24-15.2-46.8-32.6-67.1-52.5c-12-11.7-25.1-23.9-33.9-38.6
		c-9.8-16.4-10.8-33-7.7-51.4C375.5,87.3,375.9,85,376.3,82.7z"/>
	<path d="M582.5,178.9c-13.2,12.9-27.5,24.7-42.3,35.6c-6.7,4.9-36,22.8-37.9,23.9c-2.8,1.7-7.4,4.4-7.6,4.6
		c-7.1,4.5-9.9,9.5-9.9,15.8v5.9v8.4v8.3v115.2c0,6.3,4.6,11.3,10.4,11.3h8.6c5.7,0,10.4-5.1,10.4-11.3v-121
		c0-7.5,1.7-11.9,9.3-16.3c22.6-13,58.1-33.2,88.4-57.9c3.4-2.7,8.6-4.4,13.3-4.4c1.7,0,3.4,0.2,4.9,0.7l31.1,10.1
		c1,0.3,1.9,0.5,2.8,0.5c2.8,0,4.2-1.9,3.8-5c0.1-0.7-25.8-110.4-30.7-120.4c-1.8-3.6-4.2-10.6-7.6-13c-1.9-1.3-4.5-1.5-6.4-0.2
		c-3.8,2.6-1,9.7-0.4,13.2c3.4,19,5.1,37.6-4.8,55.1C608.9,153.2,595.1,166.6,582.5,178.9z"/>
</g>
</svg>
