<?xml version="1.0" encoding="iso-8859-1"?>
<!-- Generator: Adobe Illustrator 18.0.0, SVG Export Plug-In . SVG Version: 6.00 Build 0)  -->
<!DOCTYPE svg PUBLIC "-//W3C//DTD SVG 1.1//EN" "http://www.w3.org/Graphics/SVG/1.1/DTD/svg11.dtd">
<svg version="1.1" id="Capa_1" xmlns="http://www.w3.org/2000/svg" xmlns:xlink="http://www.w3.org/1999/xlink" x="0px" y="0px"
	 viewBox="0 0 470 470" style="enable-background:new 0 0 470 470;" xml:space="preserve">
<g>
	<path d="M81.871,211.639h82.975c15.563,0,28.225-12.661,28.225-28.225v-21.891c0-15.563-12.661-28.225-28.225-28.225H81.871
		c-15.563,0-28.225,12.661-28.225,28.225v21.891C53.646,198.978,66.308,211.639,81.871,211.639z M73.646,161.523
		c0-4.535,3.689-8.225,8.225-8.225h82.975c4.535,0,8.225,3.689,8.225,8.225v21.891c0,4.535-3.689,8.225-8.225,8.225H81.871
		c-4.535,0-8.225-3.689-8.225-8.225V161.523z"/>
	<path d="M253.841,211.639h82.976c15.563,0,28.224-12.661,28.224-28.225v-21.891c0-15.563-12.661-28.225-28.224-28.225h-82.976
		c-15.563,0-28.224,12.661-28.224,28.225v21.891C225.617,198.978,238.278,211.639,253.841,211.639z M245.617,161.523
		c0-4.535,3.689-8.225,8.224-8.225h82.976c4.534,0,8.224,3.689,8.224,8.225v21.891c0,4.535-3.689,8.225-8.224,8.225h-82.976
		c-4.534,0-8.224-3.689-8.224-8.225V161.523z"/>
	<path d="M470,264.535h-48.517V133.172c0-25.611-20.837-46.447-46.448-46.447H46.448C20.837,86.725,0,107.561,0,133.172v159.98
		c0,25.612,20.837,46.449,46.448,46.449H70.64c4.698,24.831,26.543,43.674,52.719,43.674s48.022-18.843,52.719-43.674h66.532
		c4.698,24.831,26.543,43.674,52.719,43.674c26.176,0,48.021-18.843,52.719-43.674h26.988c25.611,0,46.448-20.837,46.448-46.449
		v-8.617H470V264.535z M46.448,106.725h328.587c14.584,0,26.448,11.864,26.448,26.447v105.221H20V133.172
		C20,118.589,31.864,106.725,46.448,106.725z M123.358,363.275c-18.563,0-33.666-15.104-33.666-33.668
		c0-18.571,15.103-33.68,33.666-33.68c18.564,0,33.667,15.108,33.667,33.68C157.025,348.172,141.923,363.275,123.358,363.275z
		 M295.328,363.275c-18.563,0-33.666-15.104-33.666-33.668c0-18.571,15.103-33.68,33.666-33.68c18.564,0,33.667,15.108,33.667,33.68
		C328.995,348.172,313.893,363.275,295.328,363.275z M375.035,319.602h-26.989c-4.702-24.832-26.545-43.674-52.718-43.674
		c-26.172,0-48.015,18.842-52.717,43.674h-66.535c-4.702-24.832-26.545-43.674-52.718-43.674s-48.015,18.842-52.717,43.674H46.448
		C31.864,319.602,20,307.736,20,293.152v-34.76h381.483v34.76C401.483,307.736,389.619,319.602,375.035,319.602z"/>
</g>
<g>
</g>
<g>
</g>
<g>
</g>
<g>
</g>
<g>
</g>
<g>
</g>
<g>
</g>
<g>
</g>
<g>
</g>
<g>
</g>
<g>
</g>
<g>
</g>
<g>
</g>
<g>
</g>
<g>
</g>
</svg>
