<?xml version="1.0" encoding="iso-8859-1"?>
<!-- Generator: Adobe Illustrator 18.0.0, SVG Export Plug-In . SVG Version: 6.00 Build 0)  -->
<!DOCTYPE svg PUBLIC "-//W3C//DTD SVG 1.1//EN" "http://www.w3.org/Graphics/SVG/1.1/DTD/svg11.dtd">
<svg version="1.1" id="Capa_1" xmlns="http://www.w3.org/2000/svg" xmlns:xlink="http://www.w3.org/1999/xlink" x="0px" y="0px"
	 viewBox="0 0 500.432 500.432" style="enable-background:new 0 0 500.432 500.432;" xml:space="preserve">
<g>
	<path d="M416.042,271.805l-21.732-45.274h-31.672l-27.166-57.047H210.576v-53.219h-85.197v53.219h-23.803l-16.3,57.047H69.313
		L43.054,305.31H0l47.316,78.857h349.865l103.251-112.362H416.042z M145.379,136.265h45.197v33.219h-45.197V136.265z
		 M116.662,189.484h206.182l17.642,37.047H106.077L116.662,189.484z M83.728,246.531h297.997l12.132,25.274h-48.263l-30.788,33.505
		H64.135L83.728,246.531z M388.398,364.167H58.64L35.324,325.31h288.265l30.788-33.505h100.515L388.398,364.167z"/>
	<rect x="130.851" y="198.007" width="48.897" height="20"/>
	<rect x="200.123" y="198.007" width="48.897" height="20"/>
	<rect x="96.215" y="261.845" width="48.898" height="20"/>
	<rect x="165.487" y="261.845" width="48.898" height="20"/>
	<rect x="234.759" y="261.845" width="48.897" height="20"/>
</g>
<g>
</g>
<g>
</g>
<g>
</g>
<g>
</g>
<g>
</g>
<g>
</g>
<g>
</g>
<g>
</g>
<g>
</g>
<g>
</g>
<g>
</g>
<g>
</g>
<g>
</g>
<g>
</g>
<g>
</g>
</svg>
