<?xml version="1.0" encoding="iso-8859-1"?>
<!-- Generator: Adobe Illustrator 17.1.0, SVG Export Plug-In . SVG Version: 6.00 Build 0)  -->
<!DOCTYPE svg PUBLIC "-//W3C//DTD SVG 1.1//EN" "http://www.w3.org/Graphics/SVG/1.1/DTD/svg11.dtd">
<svg version="1.1" id="Capa_1" xmlns="http://www.w3.org/2000/svg" xmlns:xlink="http://www.w3.org/1999/xlink" x="0px" y="0px"
	 viewBox="0 0 203.118 203.118" style="enable-background:new 0 0 203.118 203.118;" xml:space="preserve">
<path d="M201.572,15.411L187.627,1.464c-1.823-1.823-4.732-1.96-6.72-0.32L157.931,20.12c-1.086,0.898-1.743,2.211-1.81,3.618
	c-0.067,1.407,0.462,2.776,1.459,3.773l0.964,0.964l-55.744,55.744l-6.689-6.689c-3.932-3.933-9.165-6.099-14.734-6.099
	c-5.109,0-9.989,1.88-13.743,5.295c-0.438,0.398-0.868,0.809-1.293,1.233c-2.641,2.642-4.866,5.646-6.614,8.929
	c-2.271,4.268-6.495,6.979-11.297,7.253c-13.375,0.765-25.691,6.459-34.68,16.035c-19.356,20.622-17.987,54.623,3.052,75.794
	c10.829,10.898,25.614,17.148,40.565,17.148c0.002,0,0.002,0,0.003,0c13.992,0,27.013-5.314,36.662-14.962
	c8.861-8.861,14.141-20.784,14.867-33.57c0.274-4.845,2.852-8.989,6.894-11.087c3.856-1.999,7.317-4.638,10.288-7.842
	c0.005-0.006,0.122-0.132,0.127-0.139c7.485-8.154,7.177-20.714-0.702-28.593l-6.687-6.687l55.744-55.744l0.962,0.962
	c0.94,0.941,2.212,1.465,3.535,1.465c0.079,0,0.159-0.002,0.238-0.006c1.407-0.066,2.72-0.724,3.617-1.811l18.976-22.976
	C203.533,20.142,203.395,17.233,201.572,15.411z M91.436,127.605c0,4.275-1.664,8.294-4.688,11.317
	c-3.023,3.022-7.042,4.688-11.317,4.688c-4.275,0-8.294-1.665-11.317-4.688c-3.023-3.023-4.688-7.041-4.688-11.316
	c0-4.274,1.665-8.294,4.688-11.316c3.023-3.023,7.042-4.688,11.317-4.688c4.275,0,8.294,1.664,11.317,4.687
	C89.771,119.311,91.436,123.331,91.436,127.605z M62.985,176.992c-0.977,0.977-2.256,1.465-3.536,1.465
	c-1.28,0-2.559-0.488-3.536-1.465l-29.869-29.869c-1.953-1.952-1.953-5.118,0-7.07c1.953-1.953,5.118-1.953,7.071,0l29.869,29.869
	C64.937,171.874,64.937,175.04,62.985,176.992z"/>
<g>
</g>
<g>
</g>
<g>
</g>
<g>
</g>
<g>
</g>
<g>
</g>
<g>
</g>
<g>
</g>
<g>
</g>
<g>
</g>
<g>
</g>
<g>
</g>
<g>
</g>
<g>
</g>
<g>
</g>
</svg>
