<?xml version="1.0" encoding="iso-8859-1"?>
<!-- Generator: Adobe Illustrator 18.0.0, SVG Export Plug-In . SVG Version: 6.00 Build 0)  -->
<!DOCTYPE svg PUBLIC "-//W3C//DTD SVG 1.1//EN" "http://www.w3.org/Graphics/SVG/1.1/DTD/svg11.dtd">
<svg version="1.1" id="Capa_1" xmlns="http://www.w3.org/2000/svg" xmlns:xlink="http://www.w3.org/1999/xlink" x="0px" y="0px"
	 viewBox="0 0 97.503 98.142" style="enable-background:new 0 0 97.503 98.142;" xml:space="preserve">
<g>
	<path d="M36.026,56.03c0.953-1.442,1.236-3.319,0.774-5.147c-0.454-1.799-1.554-3.351-3.097-4.371
		c-1.126-0.744-2.317-1.122-3.541-1.122c-2.084,0-4.015,1.113-5.297,3.053c-0.962,1.455-1.324,3.027-1.047,4.547
		c0.206,1.131,0.876,2.76,2.895,4.095c1.424,0.942,2.98,1.439,4.498,1.439C33.223,58.523,34.978,57.614,36.026,56.03z
		 M31.895,53.299c-0.054,0.082-0.18,0.273-0.685,0.273c-0.529,0-1.173-0.225-1.767-0.618c-0.433-0.286-0.708-0.597-0.755-0.852
		c-0.042-0.232,0.069-0.57,0.306-0.928c0.344-0.521,0.781-0.832,1.167-0.832c0.236,0,0.508,0.101,0.81,0.301
		C32.054,51.357,32.275,52.725,31.895,53.299z"/>
	<path d="M66.582,45.389c-1.224,0-2.415,0.377-3.541,1.122c-1.543,1.02-2.643,2.573-3.097,4.371
		c-0.462,1.829-0.18,3.705,0.774,5.147c1.048,1.585,2.803,2.493,4.815,2.493c1.518,0,3.073-0.498,4.498-1.439
		c2.02-1.335,2.689-2.964,2.895-4.095c0.277-1.52-0.085-3.092-1.047-4.547C70.596,46.502,68.666,45.389,66.582,45.389z
		 M68.055,52.101c-0.047,0.255-0.321,0.566-0.755,0.852c-0.594,0.393-1.239,0.618-1.767,0.618c-0.505,0-0.631-0.191-0.685-0.273
		c-0.379-0.574-0.159-1.942,0.923-2.658c0.302-0.2,0.575-0.301,0.81-0.301c0.386,0,0.823,0.311,1.167,0.832
		C67.985,51.531,68.097,51.869,68.055,52.101z"/>
	<path d="M92.78,51.845c-2.722-3.818-6.379-6.774-10.64-8.617c-0.014-0.846-0.184-3.323-1.595-5.999
		c2.821-3.751,3.984-9.957,3.455-18.492c-0.423-6.825-1.774-12.656-1.832-12.901L80.802,0l-3.15,5.101
		c-1.289,2.078-5.525,7.727-9.579,8.868c-3.588,1.01-6.365,2.442-8.286,4.269c-3.306-0.884-6.932-1.331-10.804-1.331
		c-0.077,0-0.154,0.002-0.232,0.002c-0.077,0-0.154-0.002-0.232-0.002c-3.872,0-7.497,0.447-10.803,1.331
		c-1.921-1.827-4.698-3.259-8.286-4.269c-4.054-1.141-8.29-6.79-9.579-8.868L16.702,0l-1.367,5.837
		c-0.057,0.245-1.409,6.076-1.832,12.901c-0.528,8.534,0.634,14.74,3.455,18.492c-1.411,2.676-1.581,5.152-1.595,5.999
		c-4.261,1.843-7.918,4.799-10.64,8.617C1.633,56.18,0,61.293,0,66.632c0,8.604,4.501,16.832,11.746,21.475
		c4.354,2.79,9.971,4.204,16.696,4.204c0.571,0,1.158-0.01,1.745-0.031c1.031-0.036,2.048-0.127,3.05-0.256
		c3.08,3.179,7.918,6.117,15.283,6.117c0.078,0,0.154-0.002,0.232-0.003c0.078,0.001,0.154,0.003,0.232,0.003
		c7.365,0,12.203-2.938,15.283-6.117c1.003,0.129,2.019,0.221,3.05,0.256c0.587,0.02,1.174,0.031,1.745,0.031
		c6.725,0,12.342-1.414,16.696-4.204c7.245-4.643,11.746-12.871,11.746-21.475C97.503,61.293,95.87,56.18,92.78,51.845z
		 M77.927,22.039c0.411-0.967,0.791-1.9,1.142-2.801c0.351,5.962-0.218,10.635-1.616,13.563c-0.873-1.084-1.924-2.29-2.996-3.287
		C75.309,27.822,76.621,25.112,77.927,22.039z M28.089,18.735c4.17,1.174,6.036,2.722,6.868,3.813l1.058,1.389l1.664-0.531
		c3.222-1.028,6.87-1.549,10.842-1.549c0.078,0,0.154,0.002,0.232,0.002c0.077,0,0.154-0.002,0.232-0.002
		c3.972,0,7.62,0.521,10.842,1.549l1.664,0.531l1.058-1.389c0.832-1.092,2.698-2.639,6.868-3.813
		c1.899-0.535,3.835-1.63,5.784-3.268c-1.89,5.264-4.638,10.901-6.05,13.548l-0.349,0.654c-0.068-0.01-0.133-0.022-0.202-0.031
		c-4.237-0.596-7.848,0.337-10.733,2.775c-5.691,4.809-6.372,13.685-6.445,16.322C51.297,53.155,50.537,57,50.219,58h-1.467h-1.467
		c-0.319-1-1.078-4.845-1.201-9.265c-0.073-2.638-0.754-11.565-6.445-16.374c-2.885-2.438-6.496-3.345-10.733-2.749
		c-0.068,0.01-0.134,0.034-0.202,0.044l-0.349-0.647c-1.412-2.647-4.16-8.281-6.05-13.545C24.254,17.102,26.19,18.2,28.089,18.735z
		 M51.752,77.439c0,0.266,1,0.468,2,0.604v2.424V82h-2v-1.534V77.439z M18.434,19.238c0.351,0.901,0.731,1.834,1.142,2.801
		c1.306,3.073,2.619,5.783,3.469,7.475c-1.072,0.997-2.123,2.203-2.996,3.287C18.652,29.874,18.083,25.201,18.434,19.238z
		 M83.086,83.938c-3.544,2.271-8.262,3.422-14.025,3.422c-0.443,0-0.898-0.008-1.355-0.022c1.864-3.379,2.406-6.287,2.432-6.434
		l-2.437-0.438l-2.435-0.447c-0.001,0.007-0.032,0.168-0.103,0.447c-0.259,1.022-1.052,3.643-2.885,6.222
		c-0.022,0.03-0.042,0.061-0.064,0.091c-1.21,1.679-2.637,3.03-4.271,4.052c-2.506,1.567-5.501,2.359-8.96,2.359
		c-0.078,0-0.154-0.003-0.232-0.003c-0.077,0.001-0.154,0.003-0.232,0.003c-3.458,0-6.454-0.792-8.96-2.359
		c-1.634-1.022-3.061-2.373-4.271-4.052c-0.022-0.03-0.043-0.061-0.064-0.091c-1.833-2.579-2.626-5.2-2.885-6.222
		c-0.07-0.279-0.102-0.439-0.103-0.447l-2.435,0.447l-2.437,0.438c0.026,0.147,0.568,3.055,2.432,6.434
		c-0.457,0.014-0.912,0.022-1.355,0.022c-5.763,0-10.481-1.151-14.025-3.422c-5.839-3.741-9.466-10.373-9.466-17.306
		c0-4.303,1.315-8.422,3.804-11.912c2.437-3.418,5.8-5.978,9.726-7.405l1.493-0.536c0,0,0.129-1.582,0.129-1.584
		c0.233-2.867,0.923-5.789,2.925-7.975c1.686-1.842,4.133-2.631,6.581-2.68c2.34-0.047,4.963,0.072,6.835,1.654
		c3.274,2.767,4.57,8.417,4.691,12.781c0.117,4.207,0.751,7.739,1.163,9.632c-1.299,0.83-1.929,2.77-0.672,4.026l4.127,4.361v0.867
		v4.051c0,0.212-1.396,0.836-1.396,0.836c-0.785,0.37-1.515,0.557-2.398,0.557c-2.008,0-3.833-0.959-4.856-2.614
		C36.587,69.859,36.373,69,36.373,68h-2.476h-2.476c0,2,0.76,3.679,1.758,5.294c1.427,2.309,3.572,3.897,6.572,4.595v2.577v5.353V87
		h9h9v-1.181v-5.353v-2.577c3-0.698,5.145-2.286,6.572-4.595C65.321,71.679,66.081,70,66.081,68h-2.476H61.13
		c0,1-0.272,1.859-0.786,2.691c-1.023,1.655-2.906,2.649-4.914,2.649c-0.884,0-1.496-0.205-2.281-0.575c0,0-1.396-0.641-1.396-0.853
		v-4.051v-0.867l4.126-4.361c1.256-1.256,0.744-3.196-0.555-4.026c0.412-1.893,0.988-5.425,1.105-9.632
		c0.121-4.365,1.387-10.014,4.662-12.781c1.872-1.582,4.481-1.701,6.821-1.654c2.447,0.049,4.887,0.838,6.573,2.68
		c2.002,2.186,2.688,5.108,2.921,7.975c0,0.002,0.127,1.584,0.127,1.584l1.492,0.536c3.926,1.426,7.288,3.987,9.725,7.405
		c2.488,3.49,3.804,7.609,3.804,11.912C92.552,73.566,88.925,80.197,83.086,83.938z M45.752,77.439v3.028V82h-2v-1.534v-2.424
		C44.752,77.906,45.752,77.704,45.752,77.439z"/>
</g>
<g>
</g>
<g>
</g>
<g>
</g>
<g>
</g>
<g>
</g>
<g>
</g>
<g>
</g>
<g>
</g>
<g>
</g>
<g>
</g>
<g>
</g>
<g>
</g>
<g>
</g>
<g>
</g>
<g>
</g>
</svg>
