<?xml version="1.0" encoding="iso-8859-1"?>
<!-- Generator: Adobe Illustrator 19.0.0, SVG Export Plug-In . SVG Version: 6.00 Build 0)  -->
<svg version="1.1" id="Layer_1" xmlns="http://www.w3.org/2000/svg" xmlns:xlink="http://www.w3.org/1999/xlink" x="0px" y="0px"
	 viewBox="0 0 410.936 410.936" style="enable-background:new 0 0 410.936 410.936;" xml:space="preserve">
<g id="XMLID_512_">
	<g>
		<path d="M397.936,205.467c0-50,12.999-79.998,12.999-79.998c-16.733,0-47.463,48.994-57.055,65h-40.975
			c2.119-6.48,5.572-12.517,10.2-17.586c0.907-0.995,1.87-1.965,2.861-2.884l-13.594-14.67c-1.401,1.299-2.763,2.67-4.042,4.073
			c-8,8.764-13.525,19.564-16.135,31.066h-34.76c2.611-11.518,8.141-22.332,16.148-31.104c1.28-1.403,2.642-2.774,4.046-4.075
			l-13.59-14.674c-1.814,1.681-3.575,3.454-5.23,5.268c-11.36,12.446-18.869,28.067-21.751,44.584h-34.785
			c2.885-16.566,10.411-32.234,21.806-44.717c1.651-1.812,3.415-3.589,5.241-5.281l-13.594-14.67
			c-2.237,2.073-4.4,4.253-6.424,6.473c-14.741,16.148-24.229,36.643-27.286,58.195H150c0-20.682,0-39.959,0-55
			c-110,0-150,70-150,70s40,70,150,70c0-17.088,0-36.073,0-55h31.982c3.467,24.566,15.449,47.711,33.745,64.667l13.596-14.668
			c-14.243-13.2-23.773-30.995-27.078-49.999h34.788c3.305,18.954,12.811,36.693,27.007,49.851l13.594-14.67
			c-10.136-9.394-17.179-21.804-20.22-35.181h34.764c3.04,13.363,10.074,25.758,20.195,35.139l13.596-14.668
			c-6.04-5.598-10.522-12.713-13.072-20.471h40.984c9.592,16.006,40.321,65,57.055,65
			C410.936,285.467,397.936,255.467,397.936,205.467z M70,205.469c-5.523,0-10-4.477-10-10s4.477-10,10-10c5.522,0,10,4.477,10,10
			S75.522,205.469,70,205.469z"/>
	</g>
</g>
<g>
</g>
<g>
</g>
<g>
</g>
<g>
</g>
<g>
</g>
<g>
</g>
<g>
</g>
<g>
</g>
<g>
</g>
<g>
</g>
<g>
</g>
<g>
</g>
<g>
</g>
<g>
</g>
<g>
</g>
</svg>
