<?xml version="1.0" encoding="iso-8859-1"?>
<!-- Generator: Adobe Illustrator 19.0.0, SVG Export Plug-In . SVG Version: 6.00 Build 0)  -->
<svg version="1.1" id="Capa_1" xmlns="http://www.w3.org/2000/svg" xmlns:xlink="http://www.w3.org/1999/xlink" x="0px" y="0px"
	 viewBox="0 0 463 463" style="enable-background:new 0 0 463 463;" xml:space="preserve">
<g>
	<path d="M398.901,317.619c-0.115-0.028-0.232-0.055-0.349-0.078l-44.809-8.957c3.419-6.501,5.257-13.415,5.257-20.613V199h8.5
		c8.547,0,15.5-6.953,15.5-15.5v-24c0-8.547-6.953-15.5-15.5-15.5H359v-8.5c0-35.967-15.213-69.148-40-92.643V39.5
		c0-4.143-3.358-7.5-7.5-7.5c-1.476,0-2.849,0.433-4.009,1.169c-13.18-9.836-28.37-17.214-44.954-21.362
		C260.873,5.04,254.772,0,247.5,0h-32c-7.272,0-13.373,5.041-15.037,11.807c-16.584,4.149-31.774,11.526-44.954,21.362
		C154.349,32.433,152.976,32,151.5,32c-4.142,0-7.5,3.357-7.5,7.5v3.357c-24.787,23.494-40,56.675-40,92.643v8.5h-8.5
		c-8.547,0-15.5,6.953-15.5,15.5v24c0,8.547,6.953,15.5,15.5,15.5h8.5v88.971c0,7.198,1.838,14.112,5.257,20.613l-44.809,8.957
		c-0.117,0.023-0.233,0.05-0.349,0.078C35.779,324.699,16,350.032,16,379.224V439.5c0,12.958,10.542,23.5,23.5,23.5h384
		c12.958,0,23.5-10.542,23.5-23.5v-60.276C447,350.032,427.221,324.699,398.901,317.619z M360,448H103v-40.5
		c0-9.098,7.402-16.5,16.5-16.5h224c9.098,0,16.5,7.402,16.5,16.5V448z M119,191.5v-40V143h225v8.5v40v96.471
		C344,318.342,292.481,344,231.5,344S119,318.342,119,287.971V191.5z M159,49.56c11.773-9.977,25.654-17.613,41-22.081V128h-41
		V49.56z M263,27.479c15.346,4.468,29.227,12.104,41,22.081V128h-41V27.479z M319,376v-35.938c6.316-3.287,12.017-6.934,17-10.892
		V376H319z M159,376v-29.256C179.459,354.501,204.361,359,231.5,359s52.041-4.499,72.5-12.256V376H159z M127,376v-46.83
		c4.983,3.958,10.684,7.605,17,10.892V376H127z M367.5,159c0.276,0,0.5,0.225,0.5,0.5v24c0,0.275-0.224,0.5-0.5,0.5H359v-25H367.5z
		 M343.722,128H319V64.922C333.208,82.554,342.143,104.444,343.722,128z M215.5,15h32c0.276,0,0.5,0.225,0.5,0.5V128h-33V15.5
		C215,15.225,215.224,15,215.5,15z M144,64.922V128h-24.722C120.857,104.444,129.792,82.554,144,64.922z M95.5,184
		c-0.276,0-0.5-0.225-0.5-0.5v-24c0-0.275,0.224-0.5,0.5-0.5h8.5v25H95.5z M31,439.5v-60.276c0-22.238,15.028-41.545,36.57-47.01
		l44.43-8.882v53.577c-13.759,3.374-24,15.806-24,30.591V448H39.5C34.813,448,31,444.187,31,439.5z M432,439.5
		c0,4.687-3.813,8.5-8.5,8.5H375v-40.5c0-14.785-10.241-27.216-24-30.591v-53.577l44.43,8.882
		c21.542,5.465,36.57,24.771,36.57,47.01V439.5z"/>
	<path d="M167.5,231h128c12.958,0,23.5-10.542,23.5-23.5v-24c0-12.958-10.542-23.5-23.5-23.5h-128c-12.958,0-23.5,10.542-23.5,23.5
		v24C144,220.458,154.542,231,167.5,231z M159,183.5c0-4.687,3.813-8.5,8.5-8.5h128c4.687,0,8.5,3.813,8.5,8.5v24
		c0,4.687-3.813,8.5-8.5,8.5h-128c-4.687,0-8.5-3.813-8.5-8.5V183.5z"/>
</g>
<g>
</g>
<g>
</g>
<g>
</g>
<g>
</g>
<g>
</g>
<g>
</g>
<g>
</g>
<g>
</g>
<g>
</g>
<g>
</g>
<g>
</g>
<g>
</g>
<g>
</g>
<g>
</g>
<g>
</g>
</svg>
