<?xml version="1.0" encoding="iso-8859-1"?>
<!-- Generator: Adobe Illustrator 16.0.0, SVG Export Plug-In . SVG Version: 6.00 Build 0)  -->
<!DOCTYPE svg PUBLIC "-//W3C//DTD SVG 1.1//EN" "http://www.w3.org/Graphics/SVG/1.1/DTD/svg11.dtd">
<svg version="1.1" id="Capa_1" xmlns="http://www.w3.org/2000/svg" xmlns:xlink="http://www.w3.org/1999/xlink" x="0px" y="0px"
	 width="124.964px" height="124.964px" viewBox="0 0 124.964 124.964" style="enable-background:new 0 0 124.964 124.964;"
	 xml:space="preserve">
<g>
	<path d="M20.665,13.449C20.665,6.021,26.686,0,34.113,0c7.428,0,13.449,6.021,13.449,13.449c0,7.428-6.021,13.449-13.449,13.449
		C26.686,26.898,20.665,20.877,20.665,13.449z M49.712,11.38l39.246-6.925l-3.17,34.241l-14.582-6.111l-0.699,7.548l-6.557-2.922
		c-4.248,6.229-11.835,9.108-19.342,9.108c-2.653,0-5.291-0.366-7.77-1.06l-4.975,23.216c-0.759,3.543-3.246,5.816-6.188,6.986
		L25.65,117.85c-0.002,3.928-3.189,7.114-7.12,7.114c-0.002,0-0.003,0-0.004,0c-3.932-0.003-7.118-3.192-7.116-7.125l0.026-44.798
		c-2.804-2.391-4.538-5.861-3.708-9.736l6.221-29.028c1.158-5.409,6.642-8.004,11.298-8.139l0.04,0.003c0,0,1.641,0.008,3.056,0.278
		c1.48,0.283,2.777,0.995,2.777,0.995c2.822,1.368,5.544,3.938,6.648,7.129c5.72,2.5,14.38,1.67,17.651-3.341
		c0.068-0.104,0.156-0.187,0.23-0.286l0.432-4.672l-7.457-3.125L49.712,11.38z M59.54,28.854c1.061-0.053,2.146,0.203,3.104,0.828
		c1.406,0.917,2.202,2.398,2.33,3.951l2.338,1.042l0.332-3.584l-8-3.353L59.54,28.854z M90.296,36.416l18.644,12.023l1.543-2.393
		L91.84,34.023L90.296,36.416z M114.835,4.241l-0.649-2.772L92.588,6.524l0.648,2.772L114.835,4.241z M92.997,20.869l-0.166,2.843
		l24.447,1.428l0.166-2.843L92.997,20.869z"/>
</g>
<g>
</g>
<g>
</g>
<g>
</g>
<g>
</g>
<g>
</g>
<g>
</g>
<g>
</g>
<g>
</g>
<g>
</g>
<g>
</g>
<g>
</g>
<g>
</g>
<g>
</g>
<g>
</g>
<g>
</g>
</svg>
