<?xml version="1.0" encoding="utf-8"?>
<!-- Generator: Adobe Illustrator 16.0.4, SVG Export Plug-In . SVG Version: 6.00 Build 0)  -->
<!DOCTYPE svg PUBLIC "-//W3C//DTD SVG 1.1//EN" "http://www.w3.org/Graphics/SVG/1.1/DTD/svg11.dtd">
<svg version="1.1" id="Capa_1" xmlns="http://www.w3.org/2000/svg" xmlns:xlink="http://www.w3.org/1999/xlink" x="0px" y="0px"
	 width="7.662px" height="18.512px" viewBox="0 0 7.662 18.512" enable-background="new 0 0 7.662 18.512" xml:space="preserve">
<path d="M6.437,16.842c0.318-1.52,0.873-4.986,0.418-9.18c-0.492-4.54-2.135-7.527-3.01-7.66V0c0,0-0.008,0.001-0.011,0.002
	C3.828,0.001,3.822,0,3.822,0L3.817,0.003c-0.875,0.133-2.518,3.12-3.01,7.66c-0.454,4.195,0.1,7.66,0.42,9.181H0v1.668h7.662
	v-1.668H6.437V16.842z M6.312,11.545c0.08-0.189,0.152-0.369,0.222-0.527c-0.003,0.359-0.007,0.713-0.022,1.049
	C6.455,11.906,6.385,11.731,6.312,11.545z M2.747,6.684c0.22,0.36,0.514,0.854,0.836,1.409C3.262,8.836,2.93,9.637,2.62,10.453
	C2.322,9.901,2.06,9.379,1.852,8.898C2.131,8.091,2.438,7.347,2.747,6.684z M3.294,5.581C3.673,4.871,4.021,4.3,4.299,3.876
	c0.177,0.317,0.397,0.722,0.673,1.213C4.755,5.531,4.421,6.222,4.041,7.061C3.753,6.531,3.504,6.031,3.294,5.581z M3.793,8.453
	C4.071,8.932,4.36,9.438,4.634,9.926c-0.325,0.73-0.663,1.529-0.976,2.346c-0.294-0.49-0.57-0.971-0.827-1.432
	C3.136,10.024,3.469,9.209,3.793,8.453z M4.838,10.289c0.278,0.506,0.532,0.975,0.72,1.344c0.067,0.135,0.127,0.271,0.188,0.41
	c-0.287,0.693-0.608,1.482-0.909,2.26c-0.249-0.455-0.521-0.938-0.817-1.426c-0.05-0.08-0.096-0.16-0.145-0.242
	C4.181,11.828,4.515,11.028,4.838,10.289z M5.272,9.32c0.354-0.774,0.672-1.435,0.896-1.888c0.088,0.221,0.166,0.437,0.23,0.633
	c0.072,0.746,0.104,1.456,0.121,2.144c-0.09,0.207-0.227,0.523-0.389,0.91C5.909,10.604,5.625,10.006,5.272,9.32z M6.001,7.032
	C5.795,7.437,5.462,8.116,5.078,8.947C4.84,8.5,4.577,8.017,4.282,7.497C4.269,7.472,4.256,7.45,4.243,7.425
	c0.361-0.81,0.691-1.503,0.923-1.984C5.299,5.68,5.438,5.93,5.59,6.204C5.748,6.484,5.88,6.762,6.001,7.032z M2.892,2.623
	l0.262,0.686L3.611,2.54c0,0,0.117,0.328,0.279,0.604C3.935,3.22,4.013,3.36,4.119,3.551c-0.265,0.4-0.616,0.962-0.995,1.658
	C2.65,4.151,2.417,3.457,2.417,3.457L2.892,2.623z M1.963,4.234C2.034,4.782,2.198,5.657,2.55,6.339
	C2.248,6.969,1.946,7.672,1.667,8.439C1.566,8.177,1.479,7.923,1.419,7.691C1.388,7.569,1.361,7.459,1.338,7.358
	C1.474,6.265,1.688,5.204,1.963,4.234z M1.273,9.629c-0.042,0.139-0.084,0.278-0.124,0.418c0.006-0.24,0.005-0.472,0.019-0.72
	C1.196,9.424,1.236,9.526,1.273,9.629z M1.206,13.078c-0.036-0.496-0.055-1.033-0.068-1.588c0.1-0.477,0.211-0.943,0.335-1.391
	c0.017,0.031,0.028,0.062,0.044,0.098c0.12,0.23,0.385,0.752,0.704,1.359c-0.284,0.822-0.527,1.633-0.691,2.369
	C1.416,13.631,1.305,13.338,1.206,13.078z M1.751,14.494c0.137-0.762,0.381-1.635,0.684-2.537c0.259,0.484,0.54,0.99,0.811,1.438
	c-0.33,0.941-0.6,1.861-0.764,2.689c-0.093-0.16-0.188-0.318-0.261-0.477C2.097,15.346,1.93,14.938,1.751,14.494z M2.739,16.498
	c0.133-0.818,0.399-1.766,0.73-2.742c0.016,0.021,0.03,0.049,0.043,0.07c0.295,0.455,0.62,1.031,0.909,1.568
	c-0.196,0.537-0.366,1.033-0.493,1.447H2.967C2.892,16.735,2.815,16.614,2.739,16.498z M4.274,16.842
	c0.097-0.312,0.218-0.668,0.356-1.053c0.246,0.467,0.446,0.863,0.539,1.053H4.274z M5.991,16.567
	c-0.176-0.373-0.512-1.061-0.949-1.883c0.287-0.744,0.598-1.516,0.884-2.213c0.194,0.498,0.353,0.988,0.464,1.379
	C6.278,14.996,6.12,15.928,5.991,16.567z"/>
</svg>
