<?xml version="1.0" encoding="iso-8859-1"?>
<!-- Generator: Adobe Illustrator 19.0.0, SVG Export Plug-In . SVG Version: 6.00 Build 0)  -->
<svg version="1.1" id="Capa_1" xmlns="http://www.w3.org/2000/svg" xmlns:xlink="http://www.w3.org/1999/xlink" x="0px" y="0px"
	 viewBox="0 0 463 463" style="enable-background:new 0 0 463 463;" xml:space="preserve">
<path d="M455.5,236H439v-16.5c0-4.142-3.357-7.5-7.5-7.5H303v-80.5c0-4.142-3.357-7.5-7.5-7.5H279V99.5
	c0-8.547-6.953-15.5-15.5-15.5h-112c-8.547,0-15.5,6.953-15.5,15.5V124h-16.5c-4.143,0-7.5,3.358-7.5,7.5V212H71.5
	c-4.143,0-7.5,3.358-7.5,7.5V236H47V115.5c0-4.142-3.357-7.5-7.5-7.5h-32c-4.143,0-7.5,3.358-7.5,7.5v256c0,4.142,3.357,7.5,7.5,7.5
	h320c4.143,0,7.5-3.358,7.5-7.5V283h89v88.5c0,4.142,3.357,7.5,7.5,7.5s7.5-3.358,7.5-7.5V283h16.5c4.143,0,7.5-3.358,7.5-7.5v-32
	C463,239.358,459.643,236,455.5,236z M32,364H15V123h17V364z M151,99.5c0-0.276,0.225-0.5,0.5-0.5h112c0.275,0,0.5,0.224,0.5,0.5
	V156h-33.025c0.011-0.166,0.025-0.331,0.025-0.5c0-12.958-10.542-23.5-23.5-23.5S184,142.542,184,155.5
	c0,0.169,0.014,0.334,0.025,0.5H151V99.5z M236.067,171c-5.575,10.226-16.449,17-28.567,17s-22.992-6.774-28.567-17H236.067z
	 M198.975,156c0.011-0.166,0.025-0.331,0.025-0.5c0-4.687,3.813-8.5,8.5-8.5s8.5,3.813,8.5,8.5c0,0.169,0.014,0.334,0.025,0.5
	H198.975z M127,139h9v24.5c0,4.142,3.357,7.5,7.5,7.5h19.09c6.516,18.863,24.511,32,44.91,32s38.394-13.137,44.91-32h19.09
	c4.143,0,7.5-3.358,7.5-7.5V139h9v73H127V139z M79,227h345v9H79V227z M128,364H47v-81h81V364z M224,364h-81v-81h81V364z M239,364
	v-81h81v81H239z M448,268H47v-17h401V268z"/>
<g>
</g>
<g>
</g>
<g>
</g>
<g>
</g>
<g>
</g>
<g>
</g>
<g>
</g>
<g>
</g>
<g>
</g>
<g>
</g>
<g>
</g>
<g>
</g>
<g>
</g>
<g>
</g>
<g>
</g>
</svg>
