<?xml version="1.0" encoding="utf-8"?>
<!-- Generator: Adobe Illustrator 16.0.4, SVG Export Plug-In . SVG Version: 6.00 Build 0)  -->
<!DOCTYPE svg PUBLIC "-//W3C//DTD SVG 1.1//EN" "http://www.w3.org/Graphics/SVG/1.1/DTD/svg11.dtd">
<svg version="1.1" id="Layer_1" xmlns="http://www.w3.org/2000/svg" xmlns:xlink="http://www.w3.org/1999/xlink" x="0px" y="0px"
	 width="112px" height="111.854px" viewBox="0 0 112 111.854" enable-background="new 0 0 112 111.854" xml:space="preserve">
<path d="M60.666,66.586c10.268-0.467,20.066-2.333,28-5.134v45.269c-7.934,2.799-17.732,4.666-28,5.133V66.586L60.666,66.586z
	 M23.333,106.721c7.933,2.799,17.733,4.666,28,5.133V66.586c-10.267-0.467-20.067-2.333-28-5.134V106.721z M98,57.253v45.267
	c8.867-5.133,14-11.199,14-18.666c0-2.8,0-25.666,0-45.268C112,45.586,106.867,52.12,98,57.253z M0,38.586
	c0,19.602,0,42.468,0,45.268c0,7,5.133,13.533,14,18.666V57.253C5.133,52.12,0,46.054,0,38.586z M112,32.521
	c0-6.884-4.799-13.198-13.052-18.083l10.718-6.185c2.334-0.933,2.801-3.732,1.4-6.065s-4.666-2.8-6.533-1.4l-13.393,9.859
	c-0.049-0.02-0.094-0.04-0.142-0.06l-3.263,2.563l-16.805,12.37c0,0-1.867,0.934-3.268,0c-1.398-0.466-2.799-0.934-4.199-0.934
	c-4.667,0.468-7.934,4.2-7.467,8.867s4.2,7.934,8.867,7.466c4.666-0.466,8.398-4.667,7.467-8.865
	c-0.467-1.4,0.934-2.801,0.934-2.801l18.42-10.627C100.012,22.624,105,27.716,105,32.521c0,9.8-21,21-49,21s-49-11.2-49-21
	s21-21,49-21c7,0,13.533,0.467,19.6,1.867l6.066-5.601C73.732,5.453,65.334,4.521,56,4.521c-30.8,0-56,12.6-56,28
	c0,15.399,25.2,28,56,28S112,47.919,112,32.521z"/>
</svg>
