<?xml version="1.0" encoding="iso-8859-1"?>
<!-- Generator: Adobe Illustrator 18.0.0, SVG Export Plug-In . SVG Version: 6.00 Build 0)  -->
<!DOCTYPE svg PUBLIC "-//W3C//DTD SVG 1.1//EN" "http://www.w3.org/Graphics/SVG/1.1/DTD/svg11.dtd">
<svg version="1.1" id="Capa_1" xmlns="http://www.w3.org/2000/svg" xmlns:xlink="http://www.w3.org/1999/xlink" x="0px" y="0px"
	 viewBox="0 0 60.56 60.56" style="enable-background:new 0 0 60.56 60.56;" xml:space="preserve">
<g>
	<path style="fill:#1D1D1B;" d="M51.559,24.889c-1.257-0.682-2.845,0.506-3.072,1.765c-0.057,0.313,0.406,0.452,0.485,0.134
		c0.133-0.54,0.483-0.966,0.97-1.233c0.492-0.27,0.954-0.233,1.489-0.194C51.684,25.378,51.772,25.005,51.559,24.889z"/>
	<path style="fill:#1D1D1B;" d="M55.962,17.989c-3.594-3.812-9.118-4.892-14.144-5.084c-10.442-0.398-24.929,2.827-25.873,15.477
		c-1.946-6.013-9.192-10.94-15.546-9.108c-0.024,0.007-0.032,0.027-0.051,0.039c-0.215,0.011-0.412,0.183-0.33,0.45
		c1.459,4.739,2.839,9.566,2.424,14.292c-0.007-0.001-0.014,0-0.022-0.001c-0.164-0.019-0.203,0.262-0.039,0.29
		c0.012,0.002,0.024,0.003,0.036,0.005c-0.242,2.325-0.922,4.625-2.266,6.876c-0.063,0.105-0.049,0.203-0.001,0.281
		c-0.071,0.161-0.04,0.361,0.177,0.402c3.863,0.718,8.138-0.838,11.198-3.173c1.882-1.437,4.245-3.826,4.735-6.361
		c0.62,3.874,2.706,7.082,5.602,9.534c0.007,0.071,0.009,0.142,0.022,0.214c0.029,0.163,0.246,0.177,0.345,0.083
		c0.856,0.69,1.773,1.321,2.743,1.882c0.054,0.173,0.133,0.342,0.256,0.499c0.114,0.146,0.357-0.044,0.257-0.198
		c-0.006-0.01-0.008-0.02-0.014-0.03c3.25,1.774,7.002,2.842,10.716,3.098c1.713,0.118,3.596,0.133,5.531,0.011
		c0.041,0.056,0.077,0.113,0.121,0.167c0.12,0.144,0.344-0.035,0.264-0.192c8.696-0.63,18.31-4.099,18.449-13.841
		C60.63,28.43,59.646,21.896,55.962,17.989z M0.63,20.268c0.218,0.139,0.521-0.145,0.366-0.366c-0.021-0.03-0.042-0.06-0.064-0.09
		c5.446,0.062,10.016,1.868,13.025,6.008c-3.194-2.861-7.841-3.987-12.03-3.374C1.607,21.461,1.19,20.627,0.63,20.268z
		 M2.032,22.793C7.115,22.425,11.14,24.2,14.98,27.53c0.024,0.021,0.048,0.017,0.073,0.027c0.141,0.259,0.282,0.518,0.413,0.792
		c-3.658-2.68-8.412-3.663-12.874-3.054C2.453,24.491,2.271,23.606,2.032,22.793z M3.381,30.976
		c3.87-0.453,7.748-0.716,11.634-0.973C11.556,32.8,7.781,34.38,3.297,34.106c0.075-0.683,0.121-1.374,0.118-2.079
		C3.414,31.676,3.4,31.326,3.381,30.976z M3.353,30.582c-0.052-0.702-0.141-1.401-0.244-2.098c0.012,0,0.019,0.009,0.031,0.006
		c4.015-0.686,7.83-0.448,11.616,0.98C10.937,29.617,7.136,30.039,3.353,30.582z M3.262,34.469c4.182,0.478,8.619-0.7,11.691-3.633
		c-2.795,4.142-7.307,6.488-12.316,6.394C2.914,36.33,3.137,35.414,3.262,34.469z M9.557,39.082c-2.783,1.648-5.62,2.01-8.754,2.195
		c0.74-1.181,1.304-2.416,1.728-3.693c5.312,0.507,10.437-2.111,13.14-6.722c0.142-0.243-0.08-0.459-0.295-0.445
		c0.11-0.116,0.234-0.215,0.34-0.336C16.475,33.687,12.311,37.451,9.557,39.082z M16.07,29.92c-0.022-0.058-0.044-0.115-0.064-0.173
		c0.041-0.151-0.024-0.328-0.229-0.323c-0.029,0.001-0.059,0.003-0.088,0.004c-0.004-0.109-0.059-0.219-0.182-0.271
		c-3.948-1.662-8.291-2.116-12.446-0.98c-0.045-0.285-0.084-0.572-0.136-0.855c-0.073-0.404-0.16-1.004-0.274-1.686
		c4.652-0.295,8.646,0.836,12.731,3.217c0.125,0.073,0.231,0.023,0.29-0.064c0.046,0.103,0.097,0.199,0.142,0.305
		c0.053,0.125,0.196,0.099,0.272,0.015C16.073,29.383,16.071,29.652,16.07,29.92z M35.21,14.128
		c-0.208-0.082-0.415-0.112-0.62-0.118c0.554-0.07,1.108-0.129,1.66-0.177c-0.538,0.792-0.568,1.93,0.05,2.7
		c0.235,0.292,0.549,0.5,0.894,0.635c-0.796,0.399-1.41,1.119-1.556,2.056c-0.023-0.011-0.049-0.013-0.073-0.023
		c-0.013-0.01-0.017-0.025-0.034-0.031c-1.015-0.395-2.079-1.026-2.456-2.112c-0.415-1.193,0.566-2.876,1.975-2.353
		C35.415,14.839,35.562,14.267,35.21,14.128z M39.25,16.896c0.064-0.046,0.127-0.09,0.191-0.142c-0.116,1.434,1.085,2.41,2.37,2.981
		c-1.446-0.149-2.957,0.793-3.305,2.25c-0.011-0.003-0.012-0.014-0.024-0.016c-0.199-0.036-0.399-0.046-0.598-0.046
		c-0.954-0.369-1.723-1.219-1.712-2.304c0.015-1.431,1.509-2.425,2.842-2.191C39.349,17.485,39.506,17.028,39.25,16.896z
		 M38.349,34.674c-1.382,0.192-2.402,1.554-2.481,2.922c-0.092-0.039-0.185-0.067-0.276-0.09c0.113-0.173-0.048-0.434-0.259-0.303
		c-0.648,0.404-1.604,0.308-2.046-0.366c-0.426-0.65-0.197-1.451,0.33-1.951c0.043-0.04,0.063-0.088,0.073-0.138
		c0.794,0.22,1.6,0.468,2.435,0.732c0.115,0.036,0.196-0.017,0.248-0.092c0.139-0.011,0.287-0.11,0.305-0.265
		c0.059-0.505,0.032-1.014-0.056-1.517c0.401,0.422,0.862,0.794,1.334,1.101c0.191,0.124,0.431-0.176,0.247-0.32
		c-0.914-0.714-1.763-1.594-2.047-2.758c-0.337-1.381,0.448-2.962,1.98-3.052c0.005,0,0.006-0.005,0.011-0.005
		c-0.009,0.073-0.033,0.142-0.036,0.216c-0.081,1.629,1.156,2.939,2.64,3.338c-1.198,0.418-2.192,1.818-2.101,3.026
		c0.107,1.407,1.274,2.407,2.59,2.713c-0.814,0.555-1.311,1.64-1.368,2.66c-0.091-0.039-0.178-0.059-0.265-0.082
		c-0.02-0.064-0.067-0.12-0.146-0.118c-1.327,0.046-2.682-0.782-2.948-2.146c-0.279-1.431,0.741-2.508,1.973-3.002
		C38.801,35.05,38.68,34.628,38.349,34.674z M31.691,34.4c-1.553,0.354-2.726,1.953-2.394,3.564c0.244,1.184,1.215,2.01,2.331,2.241
		c-1,0.241-1.871,0.939-2.295,1.885c-0.01-0.005-0.011-0.016-0.023-0.02c-0.279-0.09-0.581-0.179-0.891-0.251
		c0.118,0.011,0.235,0.031,0.355,0.028c0.243-0.007,0.242-0.364,0-0.376c-1.448-0.071-2.793-1.44-2.422-2.95
		c0.242-0.986,0.952-1.45,1.784-1.705c0.103,0.023,0.204,0.053,0.31,0.055c0.108,0.002,0.17-0.09,0.176-0.182
		c0.177-0.038,0.355-0.071,0.533-0.099c0.199-0.031,0.142-0.291,0-0.349c-0.444-0.182-0.904-0.162-1.341-0.026
		c-0.622-0.46-0.792-1.331-0.483-2.108c0.026-0.066,0.014-0.117-0.002-0.166c2.016-0.122,3.854,0.163,5.729,0.645
		c-0.687,0.668-0.843,1.823-0.243,2.608c0.287,0.376,0.698,0.605,1.138,0.699c-0.626,0.473-1.04,1.261-1.075,2.038
		c-0.027-0.023-0.059-0.04-0.101-0.038c-1.297,0.074-2.591-0.726-2.845-2.059c-0.251-1.316,0.691-2.495,1.921-2.84
		C32.237,34.886,32.076,34.312,31.691,34.4z M25.463,38.097c-1.196-0.035-2.386-1.138-2.136-2.411
		c0.175-0.887,0.905-1.446,1.731-1.625c0.127,0.025,0.252,0.057,0.384,0.06c0.092,0.002,0.134-0.058,0.141-0.125
		c0.02,0,0.04-0.004,0.059-0.004c0.048,0.067,0.123,0.115,0.229,0.098c0.305-0.048,0.603-0.084,0.899-0.113
		c-0.512,0.8-0.141,1.843,0.567,2.433c-0.806,0.442-1.435,1.294-1.58,2.145c-0.149-0.046-0.298-0.062-0.446-0.082
		c0.051,0,0.101,0.012,0.152,0.009C25.71,38.471,25.713,38.105,25.463,38.097z M22.725,35.813c-0.008,0-0.014-0.006-0.023-0.004
		c-1.307,0.202-2.894-0.941-2.552-2.383c0.303-1.279,1.721-1.71,2.846-1.36c0.025,0.008,0.043-0.006,0.066-0.006
		c0.129,0.679,0.559,1.298,1.153,1.675c-0.782,0.359-1.392,1.091-1.489,1.993C22.722,35.757,22.725,35.785,22.725,35.813z
		 M19.996,25.426c0.134,0.046,0.238-0.03,0.288-0.134c0.119,1.132,0.989,1.765,2,2.09c-0.698,0.205-1.34,0.711-1.569,1.307
		c-0.07,0.181-0.101,0.362-0.115,0.541c-0.011-0.079-0.061-0.161-0.133-0.191c-0.262-0.108-0.537-0.13-0.809-0.098
		c-0.727-0.348-1.397-0.929-1.584-1.717C17.801,26.081,18.89,25.044,19.996,25.426z M41.775,25.181
		c-1.621,0.086-3.239-1.461-2.713-3.148c0.425-1.362,1.97-2.041,3.285-1.645c0.233,0.07,0.355-0.16,0.295-0.337
		c0.044,0.014,0.088,0.029,0.131,0.042c-0.416,1.763-0.669,3.613-0.77,5.508c-1.617-0.252-3.252,0.872-3.742,2.409
		c-0.03-0.034-0.076-0.056-0.139-0.055c-1.576,0.025-3.111-1.264-3.034-2.921c0.073-1.59,1.747-2.696,3.236-2.492
		c0.048,0.007,0.081-0.019,0.122-0.031c-0.056,1.744,1.611,3.195,3.329,3.042C42.011,25.532,42.017,25.168,41.775,25.181z
		 M42.137,31.869c-0.011-0.001-0.015-0.01-0.028-0.009c-1.682,0.162-3.403-1.117-3.393-2.901c0.009-1.781,1.656-2.823,3.266-2.857
		C41.906,28.004,41.959,29.938,42.137,31.869z M42.228,32.771c0.177,1.602,0.422,3.192,0.732,4.741
		c-0.129,0.012-0.258,0.024-0.389,0.024c-0.035-0.027-0.077-0.046-0.129-0.047c-0.097-0.001-0.191,0.009-0.284,0.021
		c-1.173-0.11-2.315-0.691-2.738-1.873c-0.302-0.841-0.033-1.686,0.596-2.299C40.673,32.697,41.384,32.606,42.228,32.771z
		 M31.818,29.584c-0.016-0.006-0.029,0.003-0.044,0.003c-0.096-0.159-0.2-0.314-0.315-0.463c0.185,0.027,0.37,0.063,0.555,0.115
		c2.65,0.754,3.675,3.194,4.062,5.649c-0.437-0.272-0.903-0.494-1.382-0.692C35.085,32.267,33.525,30.261,31.818,29.584z
		 M32.016,30.047c1.544,0.832,2.09,2.278,2.19,3.952c-0.614-0.219-1.252-0.388-1.904-0.509c0.005-0.013,0.014-0.022,0.018-0.037
		C32.613,32.295,32.506,31.098,32.016,30.047z M27.091,33.417c-0.354,0.048-0.708,0.096-1.049,0.164
		c0.133-2.287,2.04-4.18,4.248-4.453c-1.898,0.499-3.219,2.289-3.207,4.271C27.083,33.407,27.091,33.409,27.091,33.417z
		 M24.117,27.769c-0.009-0.011-0.022-0.015-0.031-0.025c0.026-0.887,0.927-1.719,1.835-1.314c0.098,0.044,0.182,0.022,0.252-0.02
		c0.232,1.165,1.05,2.247,2.279,2.558c-0.526,0.266-0.997,0.623-1.408,1.038c-0.064-0.078-0.145-0.128-0.218-0.191
		c0.132-0.052,0.11-0.274-0.046-0.265c-0.119,0.007-0.241,0.007-0.364,0.002c-0.298-0.134-0.624-0.193-0.963-0.178
		c-0.549-0.187-1.031-0.527-1.276-1.084c-0.031-0.07-0.037-0.142-0.054-0.214C24.182,27.986,24.193,27.855,24.117,27.769z
		 M26.795,30.258c-0.766,0.882-1.241,2.013-1.255,3.25c-0.27-0.031-0.538-0.004-0.798,0.053c-0.941-0.542-1.523-1.831-0.883-2.794
		C24.549,29.731,25.81,29.803,26.795,30.258z M32.521,28.679c-0.402-0.143-0.82-0.24-1.249-0.278
		c-0.43-0.038-0.852-0.016-1.262,0.049c0.013-0.04,0.034-0.075,0.023-0.125c-0.122-0.579,0.125-1.142,0.551-1.535
		c0.149-0.138,0.308-0.227,0.471-0.298c0.455,0.036,0.902-0.034,1.4-0.172C32.138,27.119,32.153,27.953,32.521,28.679z
		 M30.597,29.381c-1.025,0.924-1.744,2.628-0.935,3.766c0.119,0.168,0.378,0.11,0.39-0.106c0.039-0.743-0.136-1.376,0.106-2.118
		c0.198-0.604,0.566-1.115,1.013-1.553c0.725,1.209,0.974,2.534,0.62,3.937c-0.01,0.038-0.009,0.072-0.005,0.105
		c-1.365-0.2-2.77-0.204-4.119-0.065C27.704,31.536,28.917,29.988,30.597,29.381z M35.453,30.501
		c-0.02,0.136-0.014,0.266-0.017,0.399c-0.631-0.852-1.458-1.56-2.394-2.006c-0.425-0.76-0.399-1.685-0.016-2.464
		c0.344-0.701,0.833-0.995,1.441-1.287c-0.006,1.508,1.162,2.758,2.586,3.098C36.2,28.655,35.6,29.507,35.453,30.501z
		 M34.534,24.516c-0.255,0.016-0.499,0.099-0.727,0.221c-0.01-0.006-0.012-0.018-0.024-0.022c-1.366-0.548-2.29-2.276-1.597-3.675
		c0.663-1.338,2.117-1.558,3.42-1.268c0.056,0.941,0.619,1.785,1.41,2.264C35.822,22.342,34.812,23.261,34.534,24.516z
		 M31.534,21.023c-0.592,1.623,0.346,3.375,1.898,3.965c-0.38,0.305-0.675,0.718-0.874,1.127c-0.015-0.005-0.03-0.013-0.049-0.01
		c-0.056,0.01-0.117,0.011-0.175,0.018c-0.005-0.107-0.056-0.219-0.166-0.262c-0.474-0.184-0.938-0.114-1.35,0.088
		c-0.647-0.216-1.23-0.605-1.507-1.165c-0.621-1.251,0.513-2.504,1.766-2.383c0.242,0.023,0.342-0.359,0.125-0.462
		c-0.212-0.101-0.423-0.143-0.627-0.147c-1.128-0.575-1.878-1.913-1.426-3.171c0.519-1.445,1.935-1.65,3.265-1.565
		c0.014,0.001,0.021-0.009,0.034-0.011c0.259,0.864,0.976,1.532,1.798,1.976C33.074,19.143,31.931,19.934,31.534,21.023z
		 M29.947,21.918c-0.901,0.387-1.539,1.573-1.377,2.527c0.14,0.825,0.79,1.486,1.535,1.815c0.062,0.028,0.118,0.035,0.179,0.058
		c-0.581,0.547-0.924,1.395-0.735,2.142c0.009,0.034,0.035,0.044,0.052,0.068c-0.167,0.04-0.324,0.106-0.485,0.161
		c-1.186-0.28-2.313-1.185-2.399-2.484c-0.069-1.047,0.476-1.796,1.197-2.432c0.069-0.01,0.137-0.008,0.205-0.024
		c0.124-0.03,0.14-0.142,0.097-0.229c0.011-0.009,0.022-0.019,0.034-0.028c0.192-0.152-0.016-0.47-0.234-0.402
		c-0.242,0.075-0.45,0.179-0.644,0.295c-0.748-0.167-1.42-0.793-1.56-1.532c0.273,0.01,0.302-0.384,0.059-0.465
		c-0.022-0.007-0.044-0.005-0.066-0.011c0.008-0.058,0.007-0.115,0.023-0.173c0.3-1.127,1.534-1.508,2.546-1.22
		c0.037,0.011,0.066-0.005,0.098-0.01C28.665,20.79,29.213,21.496,29.947,21.918z M26.924,23.722
		c-0.535,0.503-0.779,1.19-0.803,1.902c-0.012,0.001-0.02-0.007-0.034-0.003c-1.142,0.358-2.641-0.436-2.725-1.714
		c-0.076-1.159,0.843-1.849,1.845-2.012C25.352,22.801,26.061,23.489,26.924,23.722z M24.617,25.959
		c-0.514,0.277-0.918,0.796-1.069,1.361c-0.992-0.184-2.059-0.562-2.521-1.52c-0.512-1.063,0.355-2.383,1.532-1.715
		c0.109,0.062,0.213,0.025,0.286-0.045C22.979,25.008,23.729,25.715,24.617,25.959z M21.319,28.691
		c0.255-0.435,0.738-0.72,1.227-0.807c0.36-0.064,0.653,0.01,0.954,0.119c0.098,0.693,0.536,1.216,1.117,1.539
		c-0.569,0.211-1.075,0.589-1.343,1.084c-0.1,0.186-0.159,0.377-0.2,0.568C21.868,31.233,20.628,29.868,21.319,28.691z
		 M40.814,39.346c0.409-0.739,0.999-1.005,1.69-1.403c0.177-0.024,0.35-0.068,0.521-0.122c0.368,1.786,0.81,3.518,1.306,5.149
		c-0.009,0.003-0.019,0.005-0.028,0.008c-0.444-0.088-0.907-0.015-1.338,0.162c-0.95-0.089-1.862-0.586-2.288-1.474
		C40.322,40.928,40.425,40.047,40.814,39.346z M42.849,19.76c-1.393-0.555-3.199-1.548-2.728-3.281
		c0.563-2.07,2.974-1.814,4.679-1.771C43.943,16.258,43.3,17.957,42.849,19.76z M33.977,14.101c-0.896,0.283-1.606,1.19-1.637,2.172
		c-0.003,0.094,0.009,0.183,0.016,0.273c-0.163-0.075-0.333-0.117-0.504-0.148c0.09-0.122-0.008-0.343-0.175-0.274
		c-0.892,0.366-1.968-0.156-2.253-1.054C30.904,14.642,32.435,14.322,33.977,14.101z M26.822,16.266
		c0.197,0.005,0.313-0.226,0.244-0.385c0.571-0.224,1.151-0.434,1.743-0.62c0.239,0.676,0.835,1.178,1.514,1.358
		c-0.885,0.394-1.638,1.183-1.854,2.053c-0.066,0.268-0.081,0.532-0.069,0.79c-0.209-0.095-0.429-0.137-0.651-0.155
		c-0.699-0.276-1.513-0.636-1.887-1.323C25.431,17.194,25.922,16.245,26.822,16.266z M24.524,17.704
		c0.314-0.052,0.244-0.59-0.076-0.559c-0.018,0.002-0.034,0.008-0.052,0.01c0.283-0.158,0.559-0.324,0.852-0.469
		c-0.1,0.254-0.153,0.523-0.138,0.774c0.059,0.98,0.897,1.574,1.762,1.944c-0.852,0.272-1.58,1.006-1.684,1.903
		c-0.126,0.005-0.25,0.031-0.373,0.059c-0.019-0.009-0.031-0.024-0.056-0.024c-0.985-0.027-1.928-0.798-1.924-1.837
		C22.838,18.532,23.624,17.854,24.524,17.704z M20.63,20.988c0.106-0.968,0.827-1.26,1.539-1.72
		c0.132-0.085,0.139-0.349-0.049-0.376c-0.102-0.015-0.2-0.005-0.299,0.003c0.261-0.212,0.522-0.423,0.797-0.62
		c-0.249,0.39-0.387,0.851-0.349,1.343c0.08,1.045,0.94,1.812,1.917,1.986c-0.754,0.416-1.321,1.217-1.36,2.064
		c-0.209-0.201-0.446-0.294-0.687-0.33c0.164,0.01,0.188-0.238,0.037-0.283C21.256,22.784,20.52,21.996,20.63,20.988z
		 M21.985,23.312c-0.744-0.017-1.502,0.616-1.684,1.371c-0.051-0.077-0.145-0.124-0.233-0.059c-0.095,0.069-0.204,0.121-0.318,0.159
		c-0.215-0.045-0.429-0.028-0.638,0.017c-0.17-0.042-0.333-0.111-0.459-0.245c-0.371-0.394-0.272-0.966,0.021-1.364
		c0.136-0.185-0.039-0.396-0.228-0.419c0.483-0.815,1.041-1.563,1.662-2.251c-0.053,0.181-0.091,0.363-0.094,0.539
		C19.993,22.201,20.888,23.153,21.985,23.312z M17.787,35.058c-0.843-2.151-1.186-4.579-0.842-7.299
		c0.021-0.167-0.087-0.28-0.225-0.331c0.237-1.273,0.621-2.429,1.117-3.489c0.011,0.369,0.147,0.734,0.425,1.005
		c0.055,0.054,0.116,0.096,0.176,0.139c-0.494,0.336-0.87,0.885-0.958,1.469c-0.177,1.17,0.618,2.059,1.596,2.543
		c-0.69,0.294-1.282,0.926-1.481,1.588c-0.353,1.174,0.305,2.501,1.443,2.928c0.158,0.059,0.231-0.172,0.108-0.257
		c-0.855-0.593-1.429-1.68-0.942-2.702c0.454-0.955,1.319-1.113,2.261-1.24c0.099-0.014,0.134-0.083,0.133-0.158
		c-0.061,0.923,0.56,1.772,1.401,2.111c-1.135,0.057-2.254,0.939-2.437,2.079c-0.006,0.035,0,0.069-0.004,0.104
		c-0.595-0.036-1.221,0.479-1.518,0.935C17.924,34.663,17.845,34.858,17.787,35.058z M18.081,35.761
		c0-0.382,0.135-0.761,0.379-1.073c0.323-0.411,0.676-0.506,1.109-0.61c0.157,1.103,1.151,1.992,2.249,2.088
		c-1.187,0.437-1.82,1.793-1.54,3.033C19.387,38.158,18.65,37.007,18.081,35.761z M21.947,40.899
		c-0.159-0.14-0.311-0.286-0.464-0.431c-0.009-0.017-0.006-0.035-0.023-0.05c-0.697-0.638-1.022-1.68-0.629-2.575
		c0.359-0.818,1.121-1.207,1.96-1.318c0.246,0.992,1.122,1.764,2.138,1.928C23.545,38.476,22.298,39.564,21.947,40.899z
		 M24.99,43.113c-0.949-0.566-1.837-1.195-2.659-1.881c0.308-1.453,1.837-2.482,3.346-2.151c0.016,0.003,0.025-0.007,0.04-0.006
		c0.048,1.253,0.966,2.289,2.136,2.636c-0.83-0.118-1.672-0.045-2.305,0.541C25.286,42.495,25.094,42.794,24.99,43.113z
		 M25.385,43.348c0.153-0.452,0.526-0.85,0.972-1.019c0.909-0.343,1.921,0,2.807,0.248c-0.024,0.094-0.053,0.186-0.069,0.283
		c-0.151,0.964,0.191,1.851,0.797,2.503C28.301,44.822,26.788,44.146,25.385,43.348z M31.409,45.835
		c-1.114-0.514-1.956-1.661-1.709-2.931c0.284-1.466,1.654-2.291,3.077-2.217c0.073,0.004,0.13-0.026,0.175-0.068
		c0.438,1.628,2.396,2.354,3.932,2.034c0.265-0.055,0.145-0.431-0.109-0.397c-1.259,0.17-2.807-0.382-3.211-1.705
		c-0.436-1.428,0.843-2.563,2.181-2.452c0.055,0.005,0.1-0.018,0.14-0.047c0.009,0.084,0.005,0.169,0.022,0.251
		c0.251,1.251,1.267,2.125,2.441,2.344c-0.632,0.425-1.055,1.299-1.257,2.175c-1.198-0.2-2.799,0.017-3.712,0.858
		c-0.693,0.638-1.029,1.647-0.663,2.501C32.275,46.078,31.842,45.957,31.409,45.835z M33.193,46.285
		c-0.497-0.976,0.162-2.092,1.069-2.554c0.874-0.445,1.815-0.327,2.743-0.441c-0.063,0.452-0.069,0.885-0.001,1.228
		c0.244,1.222,1.192,2.209,2.314,2.515C37.263,46.976,35.197,46.722,33.193,46.285z M41.204,46.357
		c-3.817,1.469-4.936-5.323-1.431-5.345c0.041,0,0.073-0.023,0.107-0.042c0.021,0.255,0.062,0.502,0.147,0.726
		c0.382,0.999,1.258,1.635,2.23,1.848c-0.314,0.24-0.583,0.532-0.766,0.852C41.126,45.033,41.052,45.715,41.204,46.357z
		 M41.919,47.009c-0.296-0.742-0.322-1.627,0.077-2.318c0.533-0.922,1.454-1.109,2.425-1.217c0.025-0.003,0.039-0.02,0.061-0.029
		c0.33,1.051,0.675,2.069,1.039,3.021c0.021,0.054,0.052,0.094,0.088,0.128C44.408,46.807,43.172,46.944,41.919,47.009z
		 M46.138,46.494c0.021-0.057,0.029-0.121,0.004-0.198c-3.397-10.31-4.328-21.642-0.602-31.943c0.095-0.264-0.306-0.417-0.443-0.187
		c-0.01,0.016-0.017,0.034-0.027,0.05c-1.964-0.426-5.093-0.213-5.601,2.234c-0.009,0.042-0.004,0.08-0.011,0.122
		c-0.036-0.034-0.086-0.053-0.134-0.021c-0.74,0.5-1.98,0.304-2.508-0.414c-0.564-0.768-0.303-1.747,0.328-2.371
		c1.595-0.103,3.17-0.116,4.676-0.056c3.964,0.159,8.296,0.841,11.624,3.189c4.89,3.45,6.25,10.275,6.279,15.931
		C59.76,40.506,53.707,45.001,46.138,46.494z"/>
</g>
<g>
</g>
<g>
</g>
<g>
</g>
<g>
</g>
<g>
</g>
<g>
</g>
<g>
</g>
<g>
</g>
<g>
</g>
<g>
</g>
<g>
</g>
<g>
</g>
<g>
</g>
<g>
</g>
<g>
</g>
</svg>
