<?xml version="1.0" encoding="iso-8859-1"?>
<!-- Generator: Adobe Illustrator 18.0.0, SVG Export Plug-In . SVG Version: 6.00 Build 0)  -->
<!DOCTYPE svg PUBLIC "-//W3C//DTD SVG 1.1//EN" "http://www.w3.org/Graphics/SVG/1.1/DTD/svg11.dtd">
<svg version="1.1" id="Capa_1" xmlns="http://www.w3.org/2000/svg" xmlns:xlink="http://www.w3.org/1999/xlink" x="0px" y="0px"
	 viewBox="0 0 44 44" style="enable-background:new 0 0 44 44;" xml:space="preserve">
<g>
	<path d="M22,0C9.869,0,0,9.869,0,22s9.869,22,22,22s22-9.869,22-22S34.131,0,22,0z M22,42C10.972,42,2,33.028,2,22S10.972,2,22,2
		s20,8.972,20,20S33.028,42,22,42z"/>
	<path d="M13,12c-2.757,0-5,2.243-5,5c0,0.553,0.448,1,1,1s1-0.447,1-1c0-1.654,1.346-3,3-3s3,1.346,3,3c0,0.553,0.448,1,1,1
		s1-0.447,1-1C18,14.243,15.757,12,13,12z"/>
	<path d="M31,12c-2.757,0-5,2.243-5,5c0,0.553,0.448,1,1,1s1-0.447,1-1c0-1.654,1.346-3,3-3s3,1.346,3,3c0,0.553,0.448,1,1,1
		s1-0.447,1-1C36,14.243,33.757,12,31,12z"/>
	<path d="M33.25,26.833c0-0.334-0.167-0.646-0.445-0.832l-4.25-2.833c-0.459-0.306-1.081-0.182-1.387,0.277
		c-0.306,0.46-0.182,1.08,0.277,1.387l3.002,2.001l-3.002,2.002C27.167,29.021,27,29.333,27,29.667s0.167,0.646,0.445,0.832
		l3.002,2.001l-3.002,2.001c-0.459,0.307-0.583,0.927-0.277,1.387c0.193,0.289,0.51,0.445,0.833,0.445
		c0.19,0,0.383-0.055,0.554-0.168l4.25-2.833c0.278-0.186,0.445-0.498,0.445-0.832s-0.167-0.646-0.445-0.832l-3.002-2.001
		l3.002-2.002C33.083,27.479,33.25,27.167,33.25,26.833z"/>
</g>
<g>
</g>
<g>
</g>
<g>
</g>
<g>
</g>
<g>
</g>
<g>
</g>
<g>
</g>
<g>
</g>
<g>
</g>
<g>
</g>
<g>
</g>
<g>
</g>
<g>
</g>
<g>
</g>
<g>
</g>
</svg>
