<?xml version="1.0" encoding="iso-8859-1"?>
<!-- Generator: Adobe Illustrator 18.0.0, SVG Export Plug-In . SVG Version: 6.00 Build 0)  -->
<!DOCTYPE svg PUBLIC "-//W3C//DTD SVG 1.1//EN" "http://www.w3.org/Graphics/SVG/1.1/DTD/svg11.dtd">
<svg version="1.1" id="Capa_1" xmlns="http://www.w3.org/2000/svg" xmlns:xlink="http://www.w3.org/1999/xlink" x="0px" y="0px"
	 viewBox="0 0 480 480" style="enable-background:new 0 0 480 480;" xml:space="preserve">
<g>
	<path d="M285.985,83.931c0-25.356-20.629-45.985-45.985-45.985s-45.985,20.629-45.985,45.985s20.629,45.985,45.985,45.985
		S285.985,109.287,285.985,83.931z M214.015,83.931c0-14.328,11.657-25.985,25.985-25.985s25.985,11.657,25.985,25.985
		S254.328,109.916,240,109.916S214.015,98.259,214.015,83.931z"/>
	<path d="M309.885,131.512c7.705-18.899,12.943-36.098,12.943-47.937C322.828,37.491,285.668,0,239.992,0
		c-45.667,0-82.82,37.491-82.82,83.575c0,11.84,5.237,29.041,12.942,47.941c-66.999,28.004-111.339,93.972-111.339,167.255
		C58.775,398.701,140.072,480,240,480s181.225-81.299,181.225-181.229C421.225,225.432,376.904,159.513,309.885,131.512z
		 M400.911,288.771h-65.5c-2.087-58.323-22.154-98.744-40.635-123.884c2.452-5.005,4.843-10.034,7.134-15.03
		C358.612,173.431,397.11,227.491,400.911,288.771z M230,246.408v42.363h-65.416c1.48-39.687,11.846-74.441,30.903-103.632
		C210.154,213.173,224.652,237.557,230,246.408z M230,308.771V450.95c-22.24-18.02-62.315-61.475-65.407-142.178H230z M250,450.955
		V308.771h65.415c-1.697,45.487-15.069,84.504-39.824,116.092C266.473,436.498,257.29,445.069,250,450.955z M250,288.771v-42.389
		c5.359-8.867,19.834-33.211,34.483-61.201c14.785,22.861,29.108,56.775,30.919,103.59H250z M239.992,20
		c34.647,0,62.836,28.52,62.836,63.575c0,27.246-39.706,100.892-62.835,140.485c-23.124-39.594-62.821-113.238-62.821-140.485
		C177.172,48.52,205.353,20,239.992,20z M178.088,149.862c2.29,4.995,4.681,10.023,7.132,15.028
		c-18.42,25.055-38.54,65.488-40.631,123.882H79.089C82.894,227.533,121.404,173.436,178.088,149.862z M79.095,308.771h65.494
		c2.244,62.715,25.28,104.735,44.773,129.311c5.629,7.096,11.265,13.164,16.568,18.283
		C136.497,441.368,83.569,381.52,79.095,308.771z M274.07,456.365c5.303-5.119,10.939-11.188,16.568-18.283
		c19.494-24.575,42.529-66.596,44.773-129.311h65.494C396.431,381.52,343.503,441.368,274.07,456.365z"/>
</g>
<g>
</g>
<g>
</g>
<g>
</g>
<g>
</g>
<g>
</g>
<g>
</g>
<g>
</g>
<g>
</g>
<g>
</g>
<g>
</g>
<g>
</g>
<g>
</g>
<g>
</g>
<g>
</g>
<g>
</g>
</svg>
