<?xml version="1.0" encoding="iso-8859-1"?>
<!-- Generator: Adobe Illustrator 18.0.0, SVG Export Plug-In . SVG Version: 6.00 Build 0)  -->
<!DOCTYPE svg PUBLIC "-//W3C//DTD SVG 1.1//EN" "http://www.w3.org/Graphics/SVG/1.1/DTD/svg11.dtd">
<svg version="1.1" id="Capa_1" xmlns="http://www.w3.org/2000/svg" xmlns:xlink="http://www.w3.org/1999/xlink" x="0px" y="0px"
	 viewBox="0 0 99.428 95.671" style="enable-background:new 0 0 99.428 95.671;" xml:space="preserve">
<g>
	<path d="M98.735,35.393c-0.711-2.305-2.115-4.271-4.062-5.686c-1.88-1.366-4.191-2.119-6.505-2.119c-1.103,0-2.2,0.166-3.262,0.493
		l-15.477,4.772c-0.627,0.193-1.269,0.291-1.908,0.291c-1.653,0-3.289-0.673-4.489-1.848c-1.239-1.212-1.921-2.84-1.921-4.583
		V11.062C61.111,4.962,56.148,0,50.049,0h-0.615h-0.055C43.28,0,38.318,4.962,38.318,11.062v15.652c0,3.546-2.875,6.431-6.41,6.431
		c-0.639,0-1.281-0.098-1.908-0.291l-15.477-4.772c-1.062-0.327-2.159-0.493-3.262-0.493c-2.315,0-4.625,0.753-6.505,2.119
		c-1.947,1.415-3.351,3.381-4.062,5.686l-0.197,0.64c-0.871,2.823-0.59,5.817,0.791,8.429c1.381,2.612,3.696,4.53,6.52,5.401
		l14.962,4.613c1.995,0.615,3.524,2.102,4.193,4.08c0.669,1.978,0.358,4.088-0.854,5.788l-9.59,13.456
		c-3.54,4.967-2.378,11.888,2.589,15.428l0.545,0.389c1.886,1.344,4.103,2.054,6.412,2.054c3.573,0,6.944-1.736,9.016-4.643
		l9.401-13.192c1.167-1.637,2.96-2.605,4.952-2.688c0.093-0.004,0.186-0.008,0.28-0.008c2.104,0,4.011,0.983,5.232,2.696
		l9.401,13.192c2.072,2.907,5.442,4.642,9.015,4.643h0c2.309,0,4.526-0.71,6.412-2.054l0.546-0.389
		c4.967-3.54,6.128-10.461,2.589-15.428l-9.59-13.456c-1.212-1.7-1.523-3.81-0.854-5.788c0.669-1.978,2.197-3.465,4.193-4.08
		l14.962-4.613c2.823-0.87,5.139-2.788,6.52-5.401c1.381-2.612,1.662-5.606,0.792-8.429L98.735,35.393z M94.042,42.295
		c-0.802,1.517-2.147,2.631-3.787,3.137l-14.962,4.613c-3.435,1.059-6.067,3.62-7.219,7.025c-1.152,3.405-0.617,7.037,1.47,9.965
		l9.59,13.456c2.056,2.885,1.382,6.905-1.503,8.961l-0.546,0.389c-1.095,0.781-2.382,1.193-3.721,1.193
		c-2.078,0-4.036-1.008-5.24-2.697l-9.401-13.192c-2.102-2.95-5.385-4.642-9.008-4.642c-0.094,0-0.187,0.002-0.28,0.004
		c-3.511,0.085-6.68,1.764-8.728,4.638l-9.401,13.192c-1.203,1.689-3.162,2.697-5.24,2.697c-1.339,0-2.626-0.413-3.721-1.193
		l-0.545-0.389c-2.885-2.056-3.559-6.076-1.503-8.961l9.59-13.456c2.086-2.928,2.622-6.56,1.47-9.965
		c-1.152-3.405-3.783-5.966-7.219-7.025L9.174,45.432c-1.64-0.506-2.985-1.62-3.787-3.137c-0.802-1.517-0.965-3.256-0.46-4.896
		l0.197-0.64c0.836-2.712,3.302-4.534,6.137-4.534c0.639,0,1.277,0.097,1.896,0.288l15.477,4.772c1.07,0.33,2.172,0.497,3.274,0.497
		c6.091,0,11.046-4.965,11.046-11.067V11.062c0-3.543,2.882-6.425,6.425-6.425h0.055h0.615c3.543,0,6.425,2.882,6.425,6.425v15.652
		c0,3.001,1.177,5.806,3.315,7.897c2.089,2.044,4.835,3.17,7.732,3.17c1.103,0,2.205-0.167,3.274-0.497l15.477-4.772
		c0.619-0.191,1.257-0.288,1.896-0.288c2.835,0,5.301,1.822,6.137,4.534l0.197,0.64C95.007,39.039,94.844,40.778,94.042,42.295z"/>
	<path d="M49.434,15.55c0.091,0.007,0.184,0.011,0.277,0.011c2.076,0,3.758-1.683,3.758-3.758c0-2.076-1.683-3.758-3.758-3.758
		c-0.093,0-0.185,0.005-0.277,0.011c-1.946,0.142-3.482,1.765-3.482,3.747C45.952,13.785,47.488,15.408,49.434,15.55z"/>
	<path d="M49.434,28.828c0.093,0.005,0.186,0.007,0.28,0.007c3.005,0,5.45-2.445,5.45-5.45c0-3.005-2.445-5.45-5.45-5.45
		c-0.094,0-0.187,0.002-0.28,0.007c-2.876,0.146-5.17,2.532-5.17,5.443S46.558,28.682,49.434,28.828z M49.434,22.622
		c0.088-0.032,0.182-0.051,0.28-0.051c0.449,0,0.814,0.365,0.814,0.814c0,0.449-0.365,0.814-0.814,0.814
		c-0.099,0-0.193-0.018-0.28-0.051c-0.311-0.115-0.533-0.413-0.533-0.763C48.901,23.035,49.123,22.737,49.434,22.622z"/>
	<path d="M56.208,37.841c0-3.581-2.913-6.494-6.494-6.494c-0.094,0-0.187,0.003-0.28,0.007c-3.451,0.147-6.214,3-6.214,6.487
		c0,3.487,2.763,6.34,6.214,6.487c0.093,0.004,0.186,0.007,0.28,0.007C53.295,44.335,56.208,41.422,56.208,37.841z M49.714,39.699
		c-0.095,0-0.189-0.009-0.28-0.023c-0.891-0.136-1.577-0.905-1.577-1.834c0-0.929,0.686-1.698,1.577-1.834
		c0.092-0.014,0.185-0.023,0.28-0.023c1.024,0,1.858,0.833,1.858,1.858C51.572,38.866,50.738,39.699,49.714,39.699z"/>
	<circle cx="87.753" cy="39.087" r="3.758"/>
	<path d="M76.726,37.177c-0.565,0-1.125,0.088-1.666,0.261c-1.386,0.445-2.516,1.403-3.182,2.697
		c-0.666,1.295-0.788,2.771-0.343,4.157c0.726,2.264,2.812,3.786,5.189,3.786c0.565,0,1.125-0.088,1.666-0.261
		c1.386-0.445,2.516-1.403,3.182-2.697c0.666-1.295,0.787-2.771,0.343-4.157C81.188,38.699,79.103,37.177,76.726,37.177z M77.448,43
		c-0.058,0.112-0.196,0.313-0.475,0.403c-0.082,0.026-0.166,0.04-0.249,0.04c-0.295,0-0.649-0.175-0.774-0.566
		c-0.09-0.279-0.006-0.509,0.051-0.621c0.058-0.112,0.196-0.313,0.475-0.403c0.082-0.026,0.166-0.04,0.249-0.04
		c0.295,0,0.648,0.175,0.774,0.566C77.589,42.659,77.506,42.888,77.448,43z"/>
	<path d="M62.961,40.549c-0.673,0-1.34,0.105-1.985,0.312c-3.41,1.094-5.294,4.758-4.2,8.167c0.866,2.698,3.35,4.511,6.183,4.511
		c0.673,0,1.34-0.105,1.985-0.312c3.41-1.094,5.294-4.758,4.2-8.167C68.278,42.362,65.793,40.549,62.961,40.549z M63.527,48.813
		c-0.186,0.06-0.377,0.09-0.569,0.09c-0.81,0-1.52-0.519-1.768-1.291c-0.313-0.975,0.226-2.023,1.201-2.336
		c0.186-0.06,0.377-0.09,0.568-0.09c0.81,0,1.52,0.519,1.768,1.291C65.041,47.452,64.502,48.5,63.527,48.813z"/>
	<circle cx="11.685" cy="39.087" r="3.758"/>
	<path d="M24.377,37.438c-0.541-0.174-1.101-0.261-1.666-0.261c-2.377,0-4.462,1.521-5.189,3.786
		c-0.445,1.386-0.323,2.863,0.343,4.157c0.666,1.295,1.796,2.253,3.182,2.697c0.54,0.173,1.101,0.261,1.666,0.261h0
		c2.377,0,4.462-1.522,5.189-3.786c0.445-1.386,0.323-2.863-0.343-4.157C26.894,38.841,25.764,37.883,24.377,37.438z M23.487,42.877
		c-0.125,0.391-0.479,0.566-0.774,0.566h0c-0.083,0-0.167-0.013-0.25-0.04c-0.279-0.089-0.417-0.291-0.475-0.403
		c-0.058-0.112-0.141-0.341-0.051-0.621c0.125-0.391,0.479-0.566,0.774-0.566c0.083,0,0.167,0.013,0.249,0.04
		c0.279,0.09,0.418,0.291,0.475,0.403C23.494,42.368,23.577,42.597,23.487,42.877z"/>
	<path d="M36.478,53.539L36.478,53.539c2.833,0,5.317-1.813,6.183-4.511c1.094-3.41-0.79-7.074-4.2-8.167
		c-0.644-0.207-1.312-0.312-1.985-0.312c-2.832,0-5.317,1.813-6.183,4.512c-1.094,3.41,0.79,7.074,4.2,8.167
		C35.138,53.435,35.806,53.539,36.478,53.539z M34.709,46.477c0.248-0.772,0.958-1.291,1.768-1.291c0.191,0,0.382,0.03,0.568,0.09
		c0.975,0.313,1.514,1.361,1.201,2.336c-0.248,0.772-0.958,1.291-1.767,1.291h0c-0.191,0-0.383-0.03-0.569-0.09
		C34.935,48.5,34.396,47.452,34.709,46.477z"/>
	<circle cx="25.911" cy="84.346" r="3.758"/>
	<path d="M35.798,70.476c-0.929-0.662-2.022-1.012-3.16-1.012c-1.76,0-3.421,0.855-4.441,2.288
		c-1.744,2.447-1.171,5.857,1.276,7.601c0.929,0.662,2.022,1.012,3.16,1.012c0,0,0,0,0,0c1.76,0,3.421-0.855,4.441-2.288
		c0.845-1.186,1.177-2.629,0.936-4.065C37.769,72.577,36.983,71.321,35.798,70.476z M33.297,75.387
		c-0.22,0.308-0.538,0.342-0.665,0.342c-0.118,0-0.294-0.026-0.47-0.151c-0.365-0.26-0.451-0.77-0.191-1.135
		c0.22-0.309,0.539-0.342,0.665-0.342c0.117,0,0.294,0.026,0.469,0.151c0.239,0.17,0.309,0.404,0.33,0.528
		C33.458,74.904,33.468,75.148,33.297,75.387z"/>
	<path d="M44.792,57.853c-1.107-0.789-2.409-1.206-3.765-1.206c-2.098,0-4.076,1.019-5.292,2.726
		c-2.078,2.916-1.396,6.979,1.52,9.057c1.107,0.789,2.409,1.205,3.765,1.206h0c2.098,0,4.076-1.019,5.292-2.726
		c1.007-1.413,1.403-3.133,1.116-4.844C47.141,60.356,46.205,58.86,44.792,57.853z M42.536,64.22C42.183,64.715,41.631,65,41.02,65
		h0c-0.386,0-0.758-0.119-1.075-0.345c-0.834-0.594-1.029-1.757-0.435-2.591c0.353-0.496,0.906-0.78,1.516-0.78
		c0.386,0,0.757,0.119,1.074,0.345c0.404,0.288,0.672,0.716,0.754,1.205S42.824,63.816,42.536,64.22z"/>
	<circle cx="73.204" cy="84.346" r="3.758"/>
	<path d="M63.318,70.476c-2.448,1.744-3.02,5.154-1.276,7.601c1.021,1.432,2.681,2.288,4.441,2.288c1.138,0,2.231-0.35,3.16-1.012
		c1.186-0.845,1.971-2.101,2.212-3.536c0.241-1.436-0.091-2.879-0.936-4.065c-1.021-1.433-2.681-2.288-4.441-2.288
		C65.339,69.465,64.247,69.814,63.318,70.476z M67.143,74.443c0.17,0.239,0.161,0.483,0.14,0.607
		c-0.021,0.124-0.091,0.358-0.33,0.528c-0.175,0.125-0.352,0.151-0.469,0.151c-0.127,0-0.446-0.033-0.665-0.342
		c-0.26-0.365-0.175-0.874,0.191-1.135c0.175-0.125,0.352-0.151,0.469-0.151C66.604,74.101,66.923,74.134,67.143,74.443z"/>
	<path d="M63.38,59.373c-1.216-1.707-3.195-2.726-5.292-2.726c-1.356,0-2.658,0.417-3.765,1.206
		c-2.916,2.078-3.598,6.141-1.521,9.057c1.216,1.707,3.195,2.726,5.292,2.726c1.356,0,2.658-0.417,3.765-1.206
		C64.776,66.353,65.458,62.29,63.38,59.373z M59.169,64.655C58.853,64.88,58.481,65,58.095,65c-0.611,0-1.163-0.284-1.516-0.78
		c-0.594-0.834-0.399-1.996,0.435-2.591c0.317-0.226,0.688-0.345,1.074-0.345c0.611,0,1.163,0.284,1.517,0.78
		C60.199,62.898,60.004,64.06,59.169,64.655z"/>
</g>
<g>
</g>
<g>
</g>
<g>
</g>
<g>
</g>
<g>
</g>
<g>
</g>
<g>
</g>
<g>
</g>
<g>
</g>
<g>
</g>
<g>
</g>
<g>
</g>
<g>
</g>
<g>
</g>
<g>
</g>
</svg>
