<?xml version="1.0" encoding="iso-8859-1"?>
<!-- Generator: Adobe Illustrator 18.0.0, SVG Export Plug-In . SVG Version: 6.00 Build 0)  -->
<!DOCTYPE svg PUBLIC "-//W3C//DTD SVG 1.1//EN" "http://www.w3.org/Graphics/SVG/1.1/DTD/svg11.dtd">
<svg version="1.1" id="Capa_1" xmlns="http://www.w3.org/2000/svg" xmlns:xlink="http://www.w3.org/1999/xlink" x="0px" y="0px"
	 viewBox="0 0 59 59" style="enable-background:new 0 0 59 59;" xml:space="preserve">
<g>
	<path d="M14.808,29.293c-0.391,0.391-0.391,1.023,0,1.414s1.023,0.391,1.414,0c1.949-1.949,5.122-1.949,7.071,0
		C23.488,30.902,23.744,31,24,31s0.512-0.098,0.707-0.293c0.391-0.391,0.391-1.023,0-1.414
		C21.978,26.564,17.537,26.564,14.808,29.293z"/>
	<path d="M29.5,0C14.888,0,3,11.888,3,26.5V51c0,2.757,2.243,5,5,5h6.55c0.046,0.022,0.096,0.04,0.142,0.062
		c3.51,1.654,7.728,2.643,12.542,2.878c0.107,0.005,0.214,0.011,0.322,0.016C28.195,58.982,28.84,59,29.5,59
		c4.657,0,8.889-0.683,12.59-2.022c0.085,0.004,0.169,0.024,0.254,0.024c1.057,0,2.103-0.351,2.988-1.015
		C46.238,56.048,47.882,56.032,51,56c2.757,0,5-2.243,5-5V26.5C56,11.888,44.112,0,29.5,0z M5,26.5C5,12.99,15.991,2,29.5,2
		S54,12.99,54,26.5v3.4c-0.722,0.067-1.379,0.1-2,0.1c-10.405,0-19.571-7.335-22.809-18.252c-0.131-0.442-0.551-0.74-1.007-0.715
		C17.638,11.55,8.8,18.165,5,27.375V26.5z M42.1,54.98c-0.014-0.002-0.026-0.01-0.04-0.011c-0.501-0.048-1.227-0.232-1.836-0.843
		l-4.513-4.513c0.323-0.176,0.619-0.391,0.924-0.594c0.122-0.082,0.248-0.15,0.368-0.236c0.34-0.243,0.658-0.516,0.974-0.793
		c0.02,0,0.039,0.011,0.06,0.009c0.504,0.302,1.675,1.371,3.486,3.184l0.116,0.115c0.195,0.195,0.451,0.293,0.707,0.293
		s0.512-0.098,0.707-0.293c0.391-0.391,0.391-1.023,0-1.414l-0.115-0.115c-0.636-0.637-1.598-1.6-2.477-2.381
		c-0.319-0.284-0.663-0.584-1.013-0.84c0.459-0.517,0.924-1.098,1.334-1.763l4.392,4.393c1.169,1.17,1.169,3.072,0,4.242
		l-0.707,0.707C43.818,54.773,42.947,55.049,42.1,54.98z M46.587,47.762l-5.146-5.146C41.802,41.474,42,40.26,42,39
		c0-0.553-0.448-1-1-1s-1,0.447-1,1c0,2.406-0.855,4.615-2.275,6.343c-0.011,0.013-0.022,0.026-0.033,0.039
		C35.855,47.59,33.09,49,30,49c-5.514,0-10-4.486-10-10c0-0.553-0.448-1-1-1s-1,0.447-1,1c0,6.617,5.383,12,12,12
		c1.286,0,2.522-0.208,3.684-0.584l5.124,5.124c0.094,0.094,0.192,0.183,0.292,0.268c-0.215,0.058-0.432,0.113-0.651,0.167
		c-0.396,0.097-0.794,0.192-1.201,0.276c-0.298,0.061-0.602,0.115-0.905,0.169c-0.442,0.078-0.889,0.148-1.344,0.21
		c-0.208,0.029-0.411,0.063-0.621,0.088c-0.667,0.079-1.348,0.138-2.038,0.184c-0.197,0.013-0.396,0.024-0.595,0.034
		C31.008,56.973,30.263,57,29.5,57c-0.809,0-1.59-0.031-2.364-0.072c-0.399-0.022-0.794-0.051-1.187-0.084
		c-0.276-0.022-0.547-0.05-0.818-0.078c-3.712-0.394-7.089-1.292-9.917-2.666c-0.06-0.029-0.129-0.028-0.193-0.044
		C8.584,50.849,5,45.137,5,37.5c0-12.823,9.827-23.404,22.512-24.419C31.199,24.431,40.948,32,52,32
		c0.439,0,0.891-0.015,1.366-0.044C53.787,33.773,54,35.635,54,37.5c0,5.844-1.983,10.468-5.903,13.79
		C48.086,50.026,47.581,48.756,46.587,47.762z M8,54c-1.654,0-3-1.346-3-3v-4.226c1.384,2.876,3.459,5.308,6.148,7.226H8z M54,51
		c0,1.654-1.346,3-3.01,3c-1.073,0.011-2.203,0.02-3.185,0.025c2.762-1.906,4.827-4.278,6.195-7.096V51z"/>
</g>
<g>
</g>
<g>
</g>
<g>
</g>
<g>
</g>
<g>
</g>
<g>
</g>
<g>
</g>
<g>
</g>
<g>
</g>
<g>
</g>
<g>
</g>
<g>
</g>
<g>
</g>
<g>
</g>
<g>
</g>
</svg>
