<?xml version="1.0" encoding="utf-8"?>
<!-- Generator: Adobe Illustrator 17.1.0, SVG Export Plug-In . SVG Version: 6.00 Build 0)  -->
<!DOCTYPE svg PUBLIC "-//W3C//DTD SVG 1.1//EN" "http://www.w3.org/Graphics/SVG/1.1/DTD/svg11.dtd">
<svg version="1.1" id="Capa_1" xmlns="http://www.w3.org/2000/svg" xmlns:xlink="http://www.w3.org/1999/xlink" x="0px" y="0px"
	 width="1000px" height="1000px" viewBox="0 0 1000 1000" enable-background="new 0 0 1000 1000" xml:space="preserve">
<path d="M922.606,471.529c-16.71-43.479-35.012-91.496-64.4-128.276c-22.216-27.803-63.87-51.881-100.746-46.25
	c-0.479,0.073-3.56,0.746-8.913,1.943c1.331,9.227,2.011,18.583,2.011,28.039c0,26.248-5.154,51.743-15.319,75.776
	c-9.806,23.183-23.831,43.991-41.685,61.846c-17.855,17.855-38.663,31.88-61.846,41.685c-24.033,10.165-49.528,15.319-75.776,15.319
	s-51.742-5.154-75.776-15.319c-23.183-9.806-43.991-23.831-61.846-41.685c-17.855-17.855-31.88-38.663-41.685-61.846
	c-2.411-5.7-4.53-11.485-6.375-17.34c-152.941,35.083-294.746,67.669-303.027,69.597c-7.299,1.699-16.184,2.713-22.735,6.199
	c-5.526,2.94-9.487,7.64-9.487,15.993v381.766c0,15.044,15.905,28.903,35.503,30.944l141.915,14.758l638.322,66.437
	c58.7,6.118,106.354-25.531,106.354-70.708c0-28.519-18.982-55.522-47.74-73.176c28.758-11.623,47.745-34.734,47.745-63.21
	c0-28.471-18.985-55.474-47.694-73.079C994.255,656.379,946.321,533.237,922.606,471.529z M735.726,897.084L110,831.93v-62.544
	l625.726,65.105c58.701,6.123,106.346,25.059,106.346,42.329C842.072,894.095,794.427,903.206,735.726,897.084z M735.726,772.423
	L110,707.269v-62.593l625.726,65.202c58.701,6.123,106.346,25.054,106.346,42.329C842.072,769.478,794.427,778.546,735.726,772.423z
	 M735.726,647.762L110,582.652V520.06l625.726,65.11c58.701,6.118,106.346,25.103,106.346,42.373
	C842.072,644.866,794.427,653.88,735.726,647.762z"/>
<path d="M421.306,326.986c0,15.768,2.72,30.899,7.701,44.961c18.506,52.241,68.341,89.665,126.924,89.665
	c74.352,0,134.626-60.274,134.626-134.626c0-4.971-0.278-9.876-0.803-14.708c-7.328-67.432-64.442-119.918-133.823-119.918
	c-7.086,0-14.042,0.551-20.832,1.606c-4.608-9.426-9.713-18.638-15.216-27.62c-5.547-9.054-11.493-17.874-17.715-26.451
	c-7.626-10.512-15.666-20.659-23.911-30.412c-15.331-18.135-31.972-35.302-50.263-50.478c-16.017-13.29-33.049-26.093-52.186-34.562
	c-10.824-4.79-23.233-3.264-29.708,7.79c-5.471,9.34-3.039,24.917,7.79,29.709c8.982,3.975,17.516,8.928,25.642,14.435
	c2.348,1.591,4.677,3.209,6.968,4.881c0.835,0.61,3.828,2.892,4.616,3.473c3.471,2.748,6.903,5.545,10.253,8.44
	c8.839,7.638,17.339,15.672,25.455,24.075c8.545,8.847,16.76,18.018,24.546,27.541c2.212,2.706,4.407,5.427,6.557,8.184
	c0.005,0.006,0.009,0.011,0.014,0.017c0.078,0.103,0.163,0.215,0.257,0.339c0.906,1.196,1.813,2.391,2.707,3.595
	c0.033,0.045,0.065,0.09,0.098,0.134c3.533,4.762,6.996,9.577,10.328,14.483c2.328,3.427,4.608,6.888,6.839,10.38
	c4.352,6.812,8.504,13.752,12.369,20.852c0.914,1.679,1.812,3.366,2.701,5.058C450.468,230.379,421.306,275.273,421.306,326.986z"/>
</svg>
