<?xml version="1.0" encoding="iso-8859-1"?>
<!-- Generator: Adobe Illustrator 16.0.0, SVG Export Plug-In . SVG Version: 6.00 Build 0)  -->
<!DOCTYPE svg PUBLIC "-//W3C//DTD SVG 1.1//EN" "http://www.w3.org/Graphics/SVG/1.1/DTD/svg11.dtd">
<svg version="1.1" id="Capa_1" xmlns="http://www.w3.org/2000/svg" xmlns:xlink="http://www.w3.org/1999/xlink" x="0px" y="0px"
	 width="24px" height="24px" viewBox="0 0 24 24" style="enable-background:new 0 0 24 24;" xml:space="preserve">
<g>
	<path d="M8.5,3c0-1.104,0.896-2,2-2s2,0.896,2,2s-0.896,2-2,2S8.5,4.104,8.5,3z M15.5,9v1c0.245,0,6-0.114,6-10h-1
		C20.5,8.897,15.704,9,15.5,9z M17.908,11.087c-0.312-0.139-0.678-0.11-0.963,0.081l-1.625,1.084
		c-1.151,0.59-2.809,1.247-4.82,1.448l-0.006,0.019c-0.335,0.004-0.663,0.155-0.85,0.463l-2,3.301
		C7.616,17.53,7.591,17.58,7.57,17.629l-2,5c-0.205,0.514,0.044,1.096,0.557,1.301C6.25,23.979,6.376,24,6.5,24
		c0.397,0,0.772-0.236,0.929-0.629l1.969-4.923l0.07-0.115c0.915-0.44,2.716-1.362,3.732-2.233c0.102-0.045,0.198-0.098,0.299-0.145
		V24h1v-8.555c0.877-0.481,1.667-0.996,2.277-1.43l0.73,5.125c0.072,0.5,0.5,0.858,0.99,0.858c0.047,0,0.095-0.003,0.145-0.01
		c0.547-0.078,0.926-0.587,0.849-1.134l-1-7C18.441,11.519,18.224,11.227,17.908,11.087z M5.811,9.951l2.713-0.882L9.702,12.8
		c2.899,0,4.7-1.3,4.7-1.3l-0.483-4.255l2.821-1.802c0.187-0.119,0.326-0.296,0.402-0.503l1.299-3.6
		c0.188-0.519-0.08-1.092-0.602-1.28c-0.519-0.187-1.094,0.08-1.279,0.601l-1.186,3.28l-0.017,0.011l-9.26,3.803L6.009,7.783
		l-1.615-3.23c-0.247-0.494-0.846-0.695-1.34-0.448C2.561,4.353,2.358,4.953,2.605,5.447l2,4C4.779,9.793,5.13,10,5.5,10
		C5.604,10,5.708,9.984,5.811,9.951z"/>
</g>
<g>
</g>
<g>
</g>
<g>
</g>
<g>
</g>
<g>
</g>
<g>
</g>
<g>
</g>
<g>
</g>
<g>
</g>
<g>
</g>
<g>
</g>
<g>
</g>
<g>
</g>
<g>
</g>
<g>
</g>
</svg>
