<?xml version="1.0" encoding="utf-8"?>
<!-- Generator: Adobe Illustrator 16.0.4, SVG Export Plug-In . SVG Version: 6.00 Build 0)  -->
<!DOCTYPE svg PUBLIC "-//W3C//DTD SVG 1.1//EN" "http://www.w3.org/Graphics/SVG/1.1/DTD/svg11.dtd">
<svg version="1.1" id="Capa_1" xmlns="http://www.w3.org/2000/svg" xmlns:xlink="http://www.w3.org/1999/xlink" x="0px" y="0px"
	 width="19.84px" height="12.348px" viewBox="0 0 19.84 12.348" enable-background="new 0 0 19.84 12.348" preserveAspectRatio="fit">
<path d="M19.472,10.908l-0.147-4.695L19.25,4.561c0.01-0.051,0.024-0.153-0.021-0.252c-0.053-0.11-0.172-0.182-0.252-0.225
	c-0.016-0.32-0.042-0.551-0.077-0.551c-0.034,0-0.062,0.227-0.075,0.547c-0.08,0.041-0.203,0.117-0.257,0.229
	c-0.046,0.099-0.028,0.201-0.019,0.252l-0.223,6.349h-1.185l-0.151-4.75c0,0,0.004-0.183-0.031-0.254
	c-0.035-0.074-0.104-0.121-0.164-0.154c-0.01-0.375-0.041-0.662-0.076-0.662c-0.039,0-0.068,0.279-0.079,0.65
	c-0.062,0.03-0.146,0.084-0.187,0.166c-0.031,0.071-0.031,0.254-0.031,0.254l-0.147,4.748h-1.028v-3.4l-0.09-0.01V6.852h-0.638
	v0.576l-0.606-0.004h-0.07V6.436h-0.209c-0.002-0.08-0.024-0.25-0.174-0.436c-0.141-0.174-0.362-0.303-0.494-0.369
	c-0.006-0.432-0.049-0.773-0.104-0.773c-0.053,0-0.095,0.338-0.104,0.767c-0.129,0.06-0.363,0.191-0.514,0.376
	c-0.031,0.037-0.056,0.078-0.076,0.112V5.945h-0.275c0.1-0.09,1.001-0.967,0.85-1.92c-0.147-0.93-1.057-1.502-1.777-2.014
	c-0.498-0.351-0.765-0.595-0.905-0.79h-0.02c0.007-0.104,0.011-0.219,0.011-0.338c0-0.428-0.05-0.771-0.107-0.85V0.029
	C9.934,0.02,9.929,0.001,9.921,0.001H9.919H9.917c-0.005,0-0.013,0.02-0.021,0.028v0.005c-0.062,0.079-0.107,0.422-0.107,0.85
	c0,0.119,0.003,0.232,0.011,0.338H9.778C9.64,1.417,9.371,1.661,8.872,2.012C8.153,2.523,7.245,3.096,7.097,4.025
	c-0.151,0.953,0.751,1.83,0.85,1.92H7.671v0.168C7.648,6.079,7.626,6.038,7.594,6.001C7.446,5.816,7.208,5.684,7.082,5.624
	C7.077,5.195,7.031,4.857,6.978,4.857c-0.055,0-0.096,0.343-0.105,0.773C6.742,5.698,6.52,5.827,6.381,6.001
	c-0.15,0.186-0.172,0.354-0.174,0.436h-0.21v0.978L5.321,7.428V6.852h-0.64v0.646l-0.087,0.01v3.4H3.563L3.417,6.161
	c0,0,0-0.183-0.032-0.254c-0.04-0.082-0.126-0.136-0.187-0.166c-0.009-0.371-0.04-0.65-0.078-0.65c-0.039,0-0.068,0.287-0.076,0.662
	c-0.061,0.033-0.131,0.08-0.165,0.154C2.845,5.979,2.846,6.161,2.846,6.161l-0.149,4.748H1.513L1.29,4.561
	C1.3,4.51,1.317,4.407,1.27,4.309C1.218,4.198,1.095,4.122,1.014,4.081c-0.013-0.32-0.04-0.547-0.075-0.547
	c-0.034,0-0.063,0.229-0.074,0.551C0.782,4.128,0.663,4.198,0.61,4.309C0.564,4.407,0.579,4.51,0.59,4.561L0.515,6.214l-0.147,4.695
	H0v1.439h19.84v-1.439H19.472z M10.72,10.891H9.119V9.196c0,0-0.009-0.455,0.378-0.719c0.166-0.111,0.294-0.162,0.422-0.164
	c0.128,0.002,0.258,0.053,0.424,0.164c0.386,0.264,0.377,0.719,0.377,0.719V10.891z"/>
</svg>
