<?xml version="1.0" encoding="iso-8859-1"?>
<!-- Generator: Adobe Illustrator 18.0.0, SVG Export Plug-In . SVG Version: 6.00 Build 0)  -->
<!DOCTYPE svg PUBLIC "-//W3C//DTD SVG 1.1//EN" "http://www.w3.org/Graphics/SVG/1.1/DTD/svg11.dtd">
<svg version="1.1" id="Capa_1" xmlns="http://www.w3.org/2000/svg" xmlns:xlink="http://www.w3.org/1999/xlink" x="0px" y="0px"
	 viewBox="0 0 320 320" style="enable-background:new 0 0 320 320;" xml:space="preserve">
<g>
	<path d="M292.697,19.995H27.303C12.223,19.995,0,32.219,0,47.299v163.822c0,15.079,12.223,27.304,27.303,27.304H133.79v24.7
		h-21.544c-10.185,0-18.439,8.255-18.439,18.44c0,10.184,8.255,18.44,18.439,18.44h95.508c10.186,0,18.439-8.256,18.439-18.44
		c0-10.185-8.254-18.44-18.439-18.44H186.21v-24.7h106.487c15.08,0,27.303-12.225,27.303-27.304V47.299
		C320,32.219,307.777,19.995,292.697,19.995z M288.328,206.752H31.672V51.667h256.656V206.752z"/>
	<g>
		<g>
			<g>
				<path d="M131.135,159.999c-1.588,0-3.18-0.53-4.494-1.622l-27.129-22.517c-1.613-1.34-2.545-3.323-2.545-5.418
					c0-2.093,0.932-4.078,2.545-5.416l27.129-22.517c2.991-2.483,7.428-2.07,9.912,0.921c2.484,2.992,2.072,7.431-0.92,9.913
					l-20.603,17.099l20.603,17.102c2.992,2.483,3.404,6.921,0.92,9.914C135.16,159.134,133.154,159.999,131.135,159.999z"/>
			</g>
		</g>
		<g>
			<g>
				<path d="M188.867,159.999c-2.02,0-4.027-0.865-5.42-2.542c-2.483-2.993-2.072-7.431,0.92-9.914l20.602-17.102l-20.602-17.099
					c-2.992-2.483-3.403-6.922-0.92-9.913c2.483-2.991,6.922-3.404,9.913-0.921l27.127,22.517c1.614,1.338,2.546,3.323,2.546,5.416
					c0,2.095-0.932,4.078-2.546,5.418l-27.127,22.517C192.045,159.468,190.45,159.999,188.867,159.999z"/>
			</g>
		</g>
		<g>
			<path d="M147.072,182.146c-0.648,0-1.307-0.09-1.961-0.279c-3.734-1.081-5.885-4.983-4.803-8.72l25.859-89.324
				c1.082-3.734,4.984-5.884,8.721-4.805c3.734,1.083,5.885,4.985,4.805,8.722l-25.861,89.324
				C152.938,180.145,150.127,182.146,147.072,182.146z"/>
		</g>
	</g>
</g>
<g>
</g>
<g>
</g>
<g>
</g>
<g>
</g>
<g>
</g>
<g>
</g>
<g>
</g>
<g>
</g>
<g>
</g>
<g>
</g>
<g>
</g>
<g>
</g>
<g>
</g>
<g>
</g>
<g>
</g>
</svg>
