<?xml version="1.0" encoding="utf-8"?>
<!-- Generator: Adobe Illustrator 16.0.0, SVG Export Plug-In . SVG Version: 6.00 Build 0)  -->
<!DOCTYPE svg PUBLIC "-//W3C//DTD SVG 1.1//EN" "http://www.w3.org/Graphics/SVG/1.1/DTD/svg11.dtd">
<svg version="1.1" id="Layer_1" xmlns="http://www.w3.org/2000/svg" xmlns:xlink="http://www.w3.org/1999/xlink" x="0px" y="0px"
	 width="32px" height="32px" viewBox="0 0 32 32" enable-background="new 0 0 32 32" xml:space="preserve">
<g id="vallet_1_">
	<circle fill="#333332" cx="18" cy="20" r="2"/>
	<path fill="#333332" d="M29.001,13C29,13,29,13,29.001,13L29,7V6.5V4c0-1.657-1.344-3-3-3h-4H5.5C2.467,1,0,3.468,0,6.5v20
		C0,29.532,2.467,32,5.5,32h18c3.032,0,5.5-2.468,5.5-5.5V25c0,0,0,0,0.001,0C32.999,21.999,32.999,16.001,29.001,13z M5.5,3H22h4
		c0.551,0,1,0.448,1,1v2.5V7v3.184C26.686,10.072,26.352,10,26,10h-0.001V9V7V5c0-0.553-0.448-1-1-1h-21c-0.552,0-1,0.447-1,1v2
		v1.943C2.382,8.312,2,7.452,2,6.5C2,4.567,3.566,3,5.5,3z M24.999,6h-21V5h21V6z M24.999,7v1h-21V7H24.999z M24.999,9v1H22H5.5
		c-0.54,0-1.044-0.132-1.5-0.35V9H24.999z M27,26.5c0,1.933-1.567,3.5-3.5,3.5h-18C3.566,30,2,28.433,2,26.5V10.739
		C2.951,11.526,4.171,12,5.5,12H22h4c0.551,0,1,0.448,1,1v2h-9c-2.762,0-5,2.238-5,5s2.239,5,5,5h9V26.5z M28.277,23H18
		c-1.654,0-3-1.346-3-3s1.346-3,3-3h9c0.617-0.008,1.229-0.307,1.602-0.804c0.104-0.14,0.185-0.297,0.25-0.461
		c0.009-0.022,0.025-0.039,0.033-0.062C29.604,16.616,30,17.772,30,19C30,20.538,29.379,21.965,28.277,23z"/>
</g>
</svg>
