<?xml version="1.0" encoding="iso-8859-1"?>
<!-- Generator: Adobe Illustrator 16.0.0, SVG Export Plug-In . SVG Version: 6.00 Build 0)  -->
<!DOCTYPE svg PUBLIC "-//W3C//DTD SVG 1.1//EN" "http://www.w3.org/Graphics/SVG/1.1/DTD/svg11.dtd">
<svg version="1.1" id="Capa_1" xmlns="http://www.w3.org/2000/svg" xmlns:xlink="http://www.w3.org/1999/xlink" x="0px" y="0px"
	 width="612px" height="612.001px" viewBox="0 0 612 612.001" style="enable-background:new 0 0 612 612.001;" xml:space="preserve"
	>
<g>
	<path d="M31.727,89.566C19.946,53.86,39.409,15.223,75.119,3.44c35.71-11.783,74.345,7.687,86.126,43.393l133.999,406.124
		c-12.488-3.298-25.768-3.901-39.025-1.477L126.49,58.3c-5.459-16.546-23.357-25.563-39.903-20.104
		c-16.546,5.459-25.563,23.357-20.104,39.903c3.167,9.597-2.047,19.945-11.644,23.111C45.242,104.376,34.894,99.163,31.727,89.566z
		 M559.677,408.154l-219.548,72.438c7.792,8.846,13.969,19.361,17.889,31.244c0.141,0.424,0.218,0.853,0.351,1.276l212.775-70.203
		c9.597-3.167,14.81-13.515,11.644-23.112C579.623,410.201,569.274,404.988,559.677,408.154z M340.643,517.574
		c12.438,37.701-8.039,78.347-45.741,90.787c-37.701,12.439-78.347-8.04-90.786-45.74c-12.439-37.701,8.039-78.347,45.74-90.787
		C287.557,459.395,328.204,479.874,340.643,517.574z M306.51,528.836c-6.219-18.851-26.542-29.089-45.393-22.869
		c-18.851,6.219-29.09,26.542-22.871,45.393c6.22,18.851,26.543,29.09,45.394,22.87C302.491,568.01,312.73,547.687,306.51,528.836z
		 M499.343,122.977l74.537,225.91c1.584,4.799-1.023,9.973-5.821,11.556L333.46,437.847c-4.799,1.584-9.973-1.023-11.556-5.821
		l-74.538-225.91c-1.583-4.799,1.023-9.972,5.822-11.555l234.599-77.405C492.586,115.572,497.76,118.178,499.343,122.977z
		 M468.311,254.207l-79.882-43.951l-38.028,82.854l25.178,11.587l16.442-35.843l29.69,89.985l28.414-9.375l-29.686-89.971
		l34.533,19.008L468.311,254.207z"/>
</g>
<g>
</g>
<g>
</g>
<g>
</g>
<g>
</g>
<g>
</g>
<g>
</g>
<g>
</g>
<g>
</g>
<g>
</g>
<g>
</g>
<g>
</g>
<g>
</g>
<g>
</g>
<g>
</g>
<g>
</g>
</svg>
