<?xml version="1.0" encoding="iso-8859-1"?>
<!-- Generator: Adobe Illustrator 19.0.0, SVG Export Plug-In . SVG Version: 6.00 Build 0)  -->
<svg version="1.1" id="Layer_1" xmlns="http://www.w3.org/2000/svg" xmlns:xlink="http://www.w3.org/1999/xlink" x="0px" y="0px"
	 viewBox="0 0 360 360" style="enable-background:new 0 0 360 360;" xml:space="preserve">
<g id="XMLID_808_">
	<g>
		<g>
			<path d="M265.16,209.182L360,180l-94.84-29.182c-2.166-6.32-5.015-12.322-8.46-17.919L290,70l-62.898,33.3
				c-5.598-3.444-11.6-6.294-17.92-8.46L180,0l-29.182,94.84c-6.32,2.166-12.322,5.016-17.919,8.46L70,70l33.3,62.898
				c-3.444,5.598-6.294,11.6-8.46,17.92L0,180l94.84,29.182c2.166,6.32,5.015,12.322,8.46,17.92L70,290l62.899-33.3
				c5.597,3.444,11.599,6.294,17.919,8.46L180,360l29.182-94.84c6.32-2.166,12.322-5.016,17.919-8.46L290,290l-33.299-62.899
				C260.145,221.504,262.995,215.502,265.16,209.182z M180,240c-33.137,0-60-26.863-60-60c0-33.137,26.863-60,60-60
				c33.137,0,60,26.863,60,60C240,213.137,213.137,240,180,240z"/>
			<circle cx="180" cy="180" r="40"/>
		</g>
	</g>
</g>
<g>
</g>
<g>
</g>
<g>
</g>
<g>
</g>
<g>
</g>
<g>
</g>
<g>
</g>
<g>
</g>
<g>
</g>
<g>
</g>
<g>
</g>
<g>
</g>
<g>
</g>
<g>
</g>
<g>
</g>
</svg>
