<?xml version="1.0" encoding="iso-8859-1"?>
<!-- Generator: Adobe Illustrator 16.0.4, SVG Export Plug-In . SVG Version: 6.00 Build 0)  -->
<!DOCTYPE svg PUBLIC "-//W3C//DTD SVG 1.1//EN" "http://www.w3.org/Graphics/SVG/1.1/DTD/svg11.dtd">
<svg version="1.1" id="Capa_1" xmlns="http://www.w3.org/2000/svg" xmlns:xlink="http://www.w3.org/1999/xlink" x="0px" y="0px"
	 width="27.042px" height="35px" viewBox="0 0 27.042 35" style="enable-background:new 0 0 27.042 35;" xml:space="preserve">
<path d="M27.042,22.111c-1.242,0.563-2.353,0.85-3.355,0.94v-4.288c1.554-0.408,2.775-1.789,2.881-3.44l0.216-3.4
	c0.062-0.97-0.263-1.887-0.915-2.581c-0.575-0.613-1.343-0.966-2.183-1.044V2.364c0-1.3-1.062-2.364-2.363-2.364H5.719
	c-1.3,0-2.363,1.064-2.363,2.364v5.934C2.517,8.376,1.748,8.729,1.173,9.342c-0.652,0.694-0.977,1.611-0.915,2.581l0.216,3.4
	c0.105,1.651,1.327,3.032,2.881,3.44v4.288C2.353,22.96,1.242,22.675,0,22.111c1.142,1.037,2.267,1.798,3.355,2.345v8.181
	C3.355,33.938,4.418,35,5.718,35h15.604c1.301,0,2.363-1.062,2.363-2.363v-8.181C24.775,23.909,25.9,23.148,27.042,22.111z
	 M8.754,18.9c1.977,0,3.688-1.604,3.813-3.577l0.135-2.126h1.638l0.135,2.126c0.126,1.973,1.837,3.577,3.813,3.577h3.753v4.127
	c-4.329-0.536-6.328-4.646-8.521-2.772c-2.192-1.873-4.191,2.236-8.521,2.772V18.9H8.754z M25.506,11.842l-0.217,3.4
	c-0.083,1.311-1.221,2.378-2.535,2.378h-4.465c-1.314,0-2.451-1.067-2.535-2.378l-0.216-3.4c-0.039-0.613,0.163-1.189,0.57-1.624
	c0.407-0.433,0.97-0.673,1.584-0.673h5.659c0.615,0,1.177,0.24,1.584,0.673C25.343,10.652,25.545,11.229,25.506,11.842z
	 M11.026,1.704h4.992c0.158,0,0.286,0.128,0.286,0.286s-0.128,0.287-0.286,0.287h-4.992c-0.158,0-0.286-0.129-0.286-0.287
	S10.868,1.704,11.026,1.704z M22.043,3.75v4.516h-4.35c-0.972,0-1.867,0.381-2.518,1.076c-0.582,0.62-0.886,1.422-0.904,2.275
	h-1.497c-0.018-0.854-0.322-1.655-0.904-2.275c-0.651-0.695-1.546-1.076-2.518-1.076h-4.35V3.75H22.043z M1.754,15.242l-0.216-3.4
	c-0.039-0.613,0.163-1.189,0.57-1.624c0.407-0.433,0.97-0.673,1.584-0.673h5.659c0.615,0,1.177,0.24,1.584,0.673
	c0.407,0.435,0.609,1.011,0.57,1.624l-0.217,3.4c-0.083,1.311-1.221,2.378-2.535,2.378H4.288C2.976,17.62,1.838,16.553,1.754,15.242
	z M13.522,33.818c-0.653,0-1.183-0.529-1.183-1.183s0.529-1.182,1.183-1.182s1.183,0.528,1.183,1.182S14.175,33.818,13.522,33.818z
	 M22.043,30.625H5.002v-5.5c3.811,1.221,6.988-0.126,8.521-1.624c1.532,1.498,4.709,2.845,8.521,1.624L22.043,30.625L22.043,30.625z
	"/>
<g>
</g>
<g>
</g>
<g>
</g>
<g>
</g>
<g>
</g>
<g>
</g>
<g>
</g>
<g>
</g>
<g>
</g>
<g>
</g>
<g>
</g>
<g>
</g>
<g>
</g>
<g>
</g>
<g>
</g>
</svg>
