<?xml version="1.0" encoding="iso-8859-1"?>
<!-- Generator: Adobe Illustrator 16.0.0, SVG Export Plug-In . SVG Version: 6.00 Build 0)  -->
<!DOCTYPE svg PUBLIC "-//W3C//DTD SVG 1.1//EN" "http://www.w3.org/Graphics/SVG/1.1/DTD/svg11.dtd">
<svg version="1.1" id="Capa_1" xmlns="http://www.w3.org/2000/svg" xmlns:xlink="http://www.w3.org/1999/xlink" x="0px" y="0px"
	 width="390px" height="390px" viewBox="0 0 390 390" style="enable-background:new 0 0 390 390;" xml:space="preserve">
<g>
	<g>
		<g>
			<path d="M266.017,167.717c-7.502-7.498-19.699-7.498-27.2,0l-90.255,90.256c-11.101,11.1-29.162,11.1-40.268-0.002
				c-11.1-11.104-11.1-29.165,0.001-40.267l90.254-90.254c7.498-7.502,7.498-19.699,0-27.203l-43.519-43.52
				c-7.498-7.497-19.701-7.497-27.199,0l-90.259,90.257c-50.096,50.093-50.094,131.609,0.002,181.708
				c50.098,50.096,131.611,50.098,181.708,0l90.255-90.257c7.5-7.498,7.5-19.701,0-27.199L266.017,167.717z M233.236,282.096
				l-38.08-38.078l57.259-57.263l38.079,38.079L233.236,282.096z"/>
			<path d="M389.664,26.142c-0.786-1.802-2.762-2.767-4.664-2.28L266.086,54.138c-1.397,0.357-2.496,1.434-2.879,2.827
				c-0.382,1.388,0.014,2.873,1.031,3.892l26.297,26.318l-60.823,39.4c-1.678,1.086-2.298,3.24-1.458,5.054
				c0.203,0.437,0.478,0.822,0.802,1.146c1.021,1.019,2.55,1.441,3.996,1.003l115.591-35.039c1.347-0.404,2.38-1.489,2.727-2.854
				c0.344-1.364-0.054-2.808-1.042-3.805l-22.051-22.218l59.894-38.751C389.816,30.044,390.45,27.941,389.664,26.142z"/>
		</g>
	</g>
</g>
<g>
</g>
<g>
</g>
<g>
</g>
<g>
</g>
<g>
</g>
<g>
</g>
<g>
</g>
<g>
</g>
<g>
</g>
<g>
</g>
<g>
</g>
<g>
</g>
<g>
</g>
<g>
</g>
<g>
</g>
</svg>
