<?xml version="1.0" encoding="iso-8859-1"?>
<!-- Generator: Adobe Illustrator 19.0.0, SVG Export Plug-In . SVG Version: 6.00 Build 0)  -->
<svg version="1.1" id="Layer_1" xmlns="http://www.w3.org/2000/svg" xmlns:xlink="http://www.w3.org/1999/xlink" x="0px" y="0px"
	 viewBox="0 0 512 512" style="enable-background:new 0 0 512 512;" xml:space="preserve">
<g>
	<g>
		<g>
			<path d="M503.467,494.933h-25.6v-42.667c0-4.71-3.814-8.533-8.533-8.533c-30.549,0-71.27-32.785-103.748-83.533
				C328.482,302.225,307.2,230.033,307.2,162.133c0-0.273-0.137-0.503-0.162-0.768c-0.017-0.256,0.068-0.495,0.017-0.759
				c-1.724-9.506-17.007-89.771-42.522-113.323V25.6c4.719,0,8.533-3.823,8.533-8.533s-3.814-8.533-8.533-8.533
				C264.533,3.823,260.719,0,256,0s-8.533,3.823-8.533,8.533c-4.719,0-8.533,3.823-8.533,8.533s3.814,8.533,8.533,8.533v21.683
				c-25.515,23.552-40.798,103.817-42.522,113.323c-0.051,0.265,0.034,0.503,0.017,0.759c-0.026,0.265-0.162,0.495-0.162,0.768
				c0,149.99-101.052,281.6-162.133,281.6c-4.719,0-8.533,3.823-8.533,8.533v42.667h-25.6c-4.719,0-8.533,3.823-8.533,8.533
				S3.814,512,8.533,512h494.933c4.719,0,8.533-3.823,8.533-8.533S508.186,494.933,503.467,494.933z M204.8,494.933h-17.067V375.467
				c0-4.71-3.814-8.533-8.533-8.533s-8.533,3.823-8.533,8.533v119.467H153.6v-76.8c0-4.71-3.814-8.533-8.533-8.533
				s-8.533,3.823-8.533,8.533v76.8h-17.067v-42.667c0-4.71-3.814-8.533-8.533-8.533s-8.533,3.823-8.533,8.533v42.667H85.333v-25.6
				c0-4.71-3.814-8.533-8.533-8.533s-8.533,3.823-8.533,8.533v25.6H51.2v-34.688c56.9-7.322,123.068-85.956,153.6-186.47V494.933z
				 M264.533,494.933h-17.067v-42.667c0-7.083,4.352-14.984,8.533-20.813c4.181,5.828,8.533,13.73,8.533,20.813V494.933z
				 M290.133,494.933H281.6v-42.667c0-20.028-17.57-38.17-19.567-40.166c-3.337-3.337-8.73-3.337-12.066,0
				c-1.997,1.997-19.567,20.139-19.567,40.166v42.667h-8.533V170.667h42.667c4.719,0,8.533-3.823,8.533-8.533
				c0-4.71-3.814-8.533-8.533-8.533H223.71c6.554-31.522,19.029-74.889,32.29-90.846c14.626,17.604,28.305,68.548,34.133,100.164
				V494.933z M460.8,494.933h-17.067v-25.6c0-4.71-3.814-8.533-8.533-8.533s-8.533,3.823-8.533,8.533v25.6H409.6v-42.667
				c0-4.71-3.814-8.533-8.533-8.533c-4.719,0-8.533,3.823-8.533,8.533v42.667h-17.067v-76.8c0-4.71-3.814-8.533-8.533-8.533
				s-8.533,3.823-8.533,8.533v76.8h-17.067V375.467c0-4.71-3.814-8.533-8.533-8.533c-4.719,0-8.533,3.823-8.533,8.533v119.467H307.2
				V273.775c30.532,100.514,96.7,179.149,153.6,186.47V494.933z"/>
			<path d="M256,358.4c-4.719,0-8.533,3.823-8.533,8.533V384c0,4.71,3.814,8.533,8.533,8.533s8.533-3.823,8.533-8.533v-17.067
				C264.533,362.223,260.719,358.4,256,358.4z"/>
			<path d="M247.467,110.933v25.6c0,4.71,3.814,8.533,8.533,8.533s8.533-3.823,8.533-8.533v-25.6c0-4.71-3.814-8.533-8.533-8.533
				S247.467,106.223,247.467,110.933z"/>
			<path d="M230.4,213.333c0,14.114,11.486,25.6,25.6,25.6s25.6-11.486,25.6-25.6c0-14.114-11.486-25.6-25.6-25.6
				S230.4,199.219,230.4,213.333z M264.533,213.333c0,4.702-3.823,8.533-8.533,8.533s-8.533-3.831-8.533-8.533
				c0-4.702,3.823-8.533,8.533-8.533S264.533,208.631,264.533,213.333z"/>
			<path d="M256,307.2c-4.719,0-8.533,3.823-8.533,8.533V332.8c0,4.71,3.814,8.533,8.533,8.533s8.533-3.823,8.533-8.533v-17.067
				C264.533,311.023,260.719,307.2,256,307.2z"/>
			<path d="M256,256c-4.719,0-8.533,3.823-8.533,8.533V281.6c0,4.71,3.814,8.533,8.533,8.533s8.533-3.823,8.533-8.533v-17.067
				C264.533,259.823,260.719,256,256,256z"/>
		</g>
	</g>
</g>
<g>
</g>
<g>
</g>
<g>
</g>
<g>
</g>
<g>
</g>
<g>
</g>
<g>
</g>
<g>
</g>
<g>
</g>
<g>
</g>
<g>
</g>
<g>
</g>
<g>
</g>
<g>
</g>
<g>
</g>
</svg>
