<?xml version="1.0" encoding="utf-8"?>
<!-- Generator: Adobe Illustrator 16.0.4, SVG Export Plug-In . SVG Version: 6.00 Build 0)  -->
<!DOCTYPE svg PUBLIC "-//W3C//DTD SVG 1.1//EN" "http://www.w3.org/Graphics/SVG/1.1/DTD/svg11.dtd">
<svg version="1.1" id="Capa_1" xmlns="http://www.w3.org/2000/svg" xmlns:xlink="http://www.w3.org/1999/xlink" x="0px" y="0px"
	 width="8.585px" height="19.675px" viewBox="0 0 8.585 19.675" enable-background="new 0 0 8.585 19.675" preserveAspectRatio="fit">
<path d="M8.527,1.038l0.059-0.423L4.167,0l-0.06,0.437l0.155,0.021L3.957,2.7L3.481,3.028L1.277,18.863H0v0.812h7.645v-0.812H6.348
	L8.511,3.319l-0.444-0.06l0.304-2.243L8.527,1.038z M6.328,4.291L6.134,5.667L5.187,5.535l0.191-1.377h0.004
	c0-0.004,0-0.008,0-0.014C5.423,3.845,5.671,3.63,5.931,3.666c0.262,0.037,0.439,0.31,0.396,0.609c0,0.005-0.002,0.009-0.002,0.014
	L6.328,4.291z M5.886,7.466L5.695,8.844L4.746,8.712l0.191-1.379l0.004,0.001c0-0.006,0-0.01,0-0.015
	C4.983,7.02,5.228,6.806,5.487,6.842c0.261,0.036,0.438,0.31,0.397,0.608c0,0.005-0.002,0.01-0.002,0.014L5.886,7.466z
	 M5.443,10.641l-0.191,1.38l-0.948-0.133l0.193-1.379h0.002c0-0.004,0-0.008,0.001-0.014c0.041-0.298,0.288-0.515,0.545-0.478
	c0.262,0.036,0.44,0.309,0.397,0.608c0,0.004-0.001,0.008-0.003,0.014L5.443,10.641L5.443,10.641z M3.96,3.959L3.963,3.96
	c0.001-0.005,0-0.009,0.001-0.014c0.042-0.3,0.286-0.515,0.547-0.477c0.261,0.036,0.438,0.307,0.396,0.608
	c0,0.005,0,0.009-0.003,0.016h0.003L4.716,5.469L3.768,5.338L3.96,3.959z M3.518,7.137h0.003c0.001-0.004,0-0.01,0.001-0.015
	c0.04-0.299,0.288-0.513,0.547-0.477c0.263,0.035,0.44,0.309,0.397,0.608C4.465,7.259,4.464,7.262,4.464,7.268h0.002L4.274,8.646
	L3.327,8.515L3.518,7.137z M3.076,10.312h0.003c0.001-0.006,0-0.009,0.001-0.014c0.042-0.3,0.288-0.514,0.548-0.477
	c0.261,0.034,0.438,0.308,0.397,0.608c0,0.005-0.003,0.009-0.003,0.014h0.003l-0.192,1.379L2.884,11.69L3.076,10.312z M3.141,16.794
	l-0.192,1.379l-0.948-0.133l0.191-1.377h0.003c0.001-0.004,0-0.01,0.001-0.016c0.042-0.299,0.288-0.512,0.547-0.477
	c0.261,0.037,0.44,0.309,0.398,0.607c0,0.006-0.003,0.012-0.004,0.016H3.141L3.141,16.794z M2.442,14.865l0.192-1.377h0.003
	c0-0.005,0-0.01,0-0.014c0.042-0.301,0.287-0.516,0.546-0.479c0.262,0.037,0.44,0.309,0.398,0.608c0,0.006-0.001,0.009-0.002,0.015
	h0.002L3.39,14.998L2.442,14.865z M4.561,16.992l-0.193,1.379L3.42,18.24l0.191-1.378h0.003c0-0.006,0-0.009,0.001-0.013
	c0.042-0.303,0.288-0.514,0.547-0.477c0.261,0.033,0.44,0.307,0.398,0.607c0,0.004-0.003,0.01-0.003,0.012H4.561z M3.861,15.063
	l0.192-1.376h0.005c0-0.006,0-0.01,0-0.014c0.04-0.301,0.287-0.516,0.546-0.479c0.261,0.036,0.44,0.31,0.397,0.608
	C5,13.808,4.998,13.812,4.998,13.818h0.004L4.81,15.194L3.861,15.063z M5.979,17.192l-0.192,1.376l-0.949-0.133l0.192-1.376h0.003
	c0-0.005,0-0.011,0-0.015c0.043-0.301,0.288-0.514,0.549-0.478c0.262,0.036,0.438,0.31,0.396,0.608
	c-0.001,0.005-0.003,0.008-0.003,0.014L5.979,17.192z M6.421,14.016l-0.192,1.378L5.28,15.261l0.192-1.377h0.003v-0.014
	c0.043-0.301,0.289-0.515,0.548-0.479C6.285,13.427,6.464,13.701,6.421,14c-0.002,0.004-0.002,0.01-0.002,0.016L6.421,14.016
	L6.421,14.016z M6.862,10.837l-0.19,1.379l-0.947-0.133l0.191-1.377h0.002c0-0.004,0-0.01,0-0.014
	c0.043-0.299,0.289-0.514,0.549-0.477c0.261,0.036,0.438,0.309,0.397,0.608c-0.002,0.006-0.003,0.01-0.004,0.014H6.862z
	 M7.305,7.663L7.114,9.041L6.166,8.908l0.19-1.378H6.36c0-0.005,0-0.007,0.001-0.014c0.041-0.3,0.288-0.513,0.547-0.477
	c0.262,0.037,0.438,0.308,0.396,0.608c0,0.004-0.001,0.01-0.004,0.015L7.305,7.663L7.305,7.663z M7.748,4.486L7.556,5.865
	L6.607,5.733l0.191-1.378H6.8c0.002-0.005,0-0.009,0.002-0.014C6.844,4.042,7.091,3.827,7.35,3.865
	C7.611,3.9,7.789,4.173,7.75,4.473C7.748,4.478,7.746,4.482,7.744,4.486H7.748z"/>
</svg>
