<?xml version="1.0" encoding="iso-8859-1"?>
<!-- Generator: Adobe Illustrator 18.0.0, SVG Export Plug-In . SVG Version: 6.00 Build 0)  -->
<!DOCTYPE svg PUBLIC "-//W3C//DTD SVG 1.1//EN" "http://www.w3.org/Graphics/SVG/1.1/DTD/svg11.dtd">
<svg version="1.1" id="Capa_1" xmlns="http://www.w3.org/2000/svg" xmlns:xlink="http://www.w3.org/1999/xlink" x="0px" y="0px"
	 viewBox="0 0 295.996 295.996" style="enable-background:new 0 0 295.996 295.996;" xml:space="preserve">
<g>
	<path d="M147.998,0C66.392,0,0,66.392,0,147.998s66.392,147.998,147.998,147.998s147.998-66.392,147.998-147.998
		S229.605,0,147.998,0z M147.998,279.996c-36.256,0-69.143-14.696-93.022-38.44c-9.536-9.482-17.631-20.41-23.934-32.42
		C21.442,190.847,16,170.047,16,147.998C16,75.214,75.214,16,147.998,16c34.523,0,65.987,13.328,89.533,35.102
		c12.208,11.288,22.289,24.844,29.558,39.996c8.27,17.239,12.907,36.538,12.907,56.9
		C279.996,220.782,220.782,279.996,147.998,279.996z"/>
	<circle cx="98.497" cy="114.998" r="16"/>
	<circle cx="197.497" cy="114.998" r="16"/>
	<path d="M180.664,218.997v-20.843c18-6.919,33.794-19.318,44.488-35.867l-13.355-8.684c-15.596,24.135-44.087,37.607-72.652,34.308
		c-22.262-2.567-42.828-15.393-55.051-34.308L70.5,162.287c10.577,16.368,26.164,28.966,44.164,35.953v20.757
		c0,18.196,14.804,33,33,33S180.664,237.193,180.664,218.997z M130.664,202.828c2,0.399,4.388,0.731,6.522,0.977
		c3.462,0.399,6.834,0.595,10.279,0.595c5.832,0,12.199-0.564,17.199-1.651v16.248c0,9.374-7.626,17-17,17c-9.374,0-17-7.626-17-17
		V202.828z"/>
</g>
<g>
</g>
<g>
</g>
<g>
</g>
<g>
</g>
<g>
</g>
<g>
</g>
<g>
</g>
<g>
</g>
<g>
</g>
<g>
</g>
<g>
</g>
<g>
</g>
<g>
</g>
<g>
</g>
<g>
</g>
</svg>
