<?xml version="1.0" encoding="iso-8859-1"?>
<!-- Generator: Adobe Illustrator 17.1.0, SVG Export Plug-In . SVG Version: 6.00 Build 0)  -->
<!DOCTYPE svg PUBLIC "-//W3C//DTD SVG 1.1//EN" "http://www.w3.org/Graphics/SVG/1.1/DTD/svg11.dtd">
<svg version="1.1" id="Capa_1" xmlns="http://www.w3.org/2000/svg" xmlns:xlink="http://www.w3.org/1999/xlink" x="0px" y="0px"
	 viewBox="0 0 210.613 210.613" style="enable-background:new 0 0 210.613 210.613;" xml:space="preserve">
<path d="M128.307,208.626c-0.015,0-0.031,0-0.046,0h-45.91c-0.03,0.001-0.061,0.001-0.091,0h-0.296c-0.73,0-1.423-0.319-1.898-0.873
	l-35.759-41.718c-0.389-0.453-0.602-1.03-0.602-1.627V65.911c0-0.334-0.2-0.518-0.319-0.598c-0.12-0.08-0.366-0.196-0.674-0.067
	l-20.885,8.6c-1.174,0.486-2.525,0.01-3.14-1.103L0.312,39.467c-0.643-1.164-0.262-2.626,0.865-3.33L48.557,6.58
	c4.816-3.005,10.363-4.593,16.041-4.593h15.877c1.381,0,2.5,1.119,2.5,2.5c0,11.493,9.35,20.842,20.843,20.842h2.98
	c11.493,0,20.842-9.35,20.842-20.842c0-1.381,1.119-2.5,2.5-2.5h15.877c5.678,0,11.225,1.588,16.041,4.593l47.379,29.558
	c1.127,0.704,1.508,2.166,0.865,3.33l-18.376,33.275c-0.614,1.113-1.966,1.588-3.14,1.103l-20.885-8.6
	c-0.309-0.126-0.554-0.012-0.673,0.067c-0.119,0.08-0.319,0.264-0.319,0.598v98.497c0,0.597-0.213,1.174-0.602,1.627l-35.759,41.718
	c-0.475,0.554-1.168,0.873-1.898,0.873h-0.296C128.338,208.626,128.323,208.626,128.307,208.626z M86.148,203.626h38.317
	c-2.485-6.622-5.693-20.806,6.045-32.543c12.021-12.023,25.501-11.039,31.397-9.828V65.911c0-1.912,0.949-3.688,2.537-4.752
	c1.588-1.064,3.592-1.264,5.359-0.536l18.822,7.75l16.152-29.248L159.41,10.822l0,0c-4.021-2.509-8.653-3.835-13.394-3.835h-13.497
	c-1.262,13.081-12.316,23.342-25.722,23.342h-2.98c-13.406,0-24.461-10.262-25.723-23.342H64.597c-4.741,0-9.373,1.326-13.394,3.835
	L5.835,39.125l16.152,29.248l18.822-7.75c1.767-0.728,3.77-0.527,5.359,0.536c1.589,1.064,2.537,2.84,2.537,4.752v95.344
	c5.896-1.208,19.375-2.195,31.397,9.828C91.841,182.82,88.633,197.004,86.148,203.626z M50.815,165.944L81.549,201.8
	c2.124-5.503,4.89-17.311-4.981-27.182C66.886,164.937,56.17,165.07,50.815,165.944z M155.12,165.567
	c-5.746,0-13.708,1.685-21.074,9.051c-9.769,9.769-7.046,21.636-4.962,27.159l30.714-35.833
	C158.517,165.734,156.928,165.567,155.12,165.567z M106.952,146.26h-3.29c-4.482,0-8.129-3.646-8.129-8.129v-8.209l-16.636-26.928
	c-4.559-5.748-7.285-13.013-7.285-20.902c0-18.562,15.086-33.667,33.642-33.694c0.037-0.001,0.073-0.001,0.109,0
	c18.553,0.031,33.637,15.134,33.637,33.694c0,7.889-2.726,15.154-7.285,20.902l-16.636,26.928v8.209
	C115.08,142.613,111.434,146.26,106.952,146.26z M100.533,131.711v6.419c0,1.725,1.404,3.129,3.129,3.129h3.29
	c1.725,0,3.129-1.404,3.129-3.129v-6.419H100.533z M99.427,126.711h11.76l8.845-14.317c-4.435,2.164-9.411,3.382-14.666,3.391
	c-0.038,0.001-0.076,0.001-0.114,0c-5.256-0.008-10.233-1.227-14.669-3.391L99.427,126.711z M105.307,53.564
	c-2.37,1.104-10.823,6.586-10.823,28.527c0,19.23,7.911,26.34,10.823,28.305c2.912-1.965,10.823-9.075,10.823-28.305
	C116.13,60.15,107.676,54.668,105.307,53.564z M114.217,54.812c3.562,4.783,6.913,13.061,6.913,27.278
	c0,14.196-4.062,22.705-7.934,27.592c11.999-3.436,20.805-14.504,20.805-27.592C134.001,69.378,125.69,58.57,114.217,54.812z
	 M96.396,54.812C84.923,58.57,76.612,69.378,76.612,82.091c0,13.087,8.806,24.156,20.805,27.592
	c-3.872-4.887-7.934-13.396-7.934-27.592C89.483,67.873,92.834,59.595,96.396,54.812z"/>
<g>
</g>
<g>
</g>
<g>
</g>
<g>
</g>
<g>
</g>
<g>
</g>
<g>
</g>
<g>
</g>
<g>
</g>
<g>
</g>
<g>
</g>
<g>
</g>
<g>
</g>
<g>
</g>
<g>
</g>
</svg>
