<?xml version="1.0" encoding="iso-8859-1"?>
<!-- Generator: Adobe Illustrator 16.0.0, SVG Export Plug-In . SVG Version: 6.00 Build 0)  -->
<!DOCTYPE svg PUBLIC "-//W3C//DTD SVG 1.1//EN" "http://www.w3.org/Graphics/SVG/1.1/DTD/svg11.dtd">
<svg version="1.1" id="Capa_1" xmlns="http://www.w3.org/2000/svg" xmlns:xlink="http://www.w3.org/1999/xlink" x="0px" y="0px"
	 width="35.934px" height="23.674px" viewBox="0 0 35.934 23.674" style="enable-background:new 0 0 35.934 23.674;"
	 preserveAspectRatio="fit">
<path style="fill:#000000;" d="M29.646,4.331C26.506,1.638,22.431,0,17.964,0C8.043,0,0,8.043,0,17.969
	c0,0.266,0.026,2.75,0.038,3.015v2.69H35.86V21.18l0.034-0.196c0.011-0.266,0.039-2.749,0.039-3.015
	C35.934,9.161,29.646,4.331,29.646,4.331z M4.37,20.984c-0.015-0.164,0.006-2.549-0.005-2.713H8.05v-1.19H4.624
	c0-0.014-0.259,0.002-0.259,0.002c0.145-3.085,1.32-6.163,3.539-8.59l0.093-0.1l0.166,0.144l2.452,2.454l0.77-0.772L8.78,7.616
	c2.358-2.156,5.35-3.393,8.542-3.535l0.185-0.001c0,0,0.077-0.003,0.072,0.046v3.634h0.981V4.081
	c0.484,0.02,0.968,0.077,1.445,0.152c2.741,0.362,5.289,1.545,7.352,3.43l-2.6,2.602l0.723,0.726l2.497-2.498l0.138-0.111
	l0.118,0.156c2.159,2.36,3.394,5.35,3.539,8.543h-3.681v1.19l3.698-0.005c0,0,0.003,2.561-0.01,2.709L4.37,20.984z M22.8,12.398
	c0,0-5.844,1.792-6.963,2.909c-1.121,1.122-1.121,2.935,0.002,4.057c1.117,1.121,2.932,1.121,4.054,0
	C21.011,18.242,22.8,12.398,22.8,12.398z"/>
<g>
</g>
<g>
</g>
<g>
</g>
<g>
</g>
<g>
</g>
<g>
</g>
<g>
</g>
<g>
</g>
<g>
</g>
<g>
</g>
<g>
</g>
<g>
</g>
<g>
</g>
<g>
</g>
<g>
</g>
</svg>
