<?xml version="1.0" encoding="iso-8859-1"?>
<!-- Generator: Adobe Illustrator 18.0.0, SVG Export Plug-In . SVG Version: 6.00 Build 0)  -->
<!DOCTYPE svg PUBLIC "-//W3C//DTD SVG 1.1//EN" "http://www.w3.org/Graphics/SVG/1.1/DTD/svg11.dtd">
<svg version="1.1" id="Capa_1" xmlns="http://www.w3.org/2000/svg" xmlns:xlink="http://www.w3.org/1999/xlink" x="0px" y="0px"
	 viewBox="0 0 492.71 492.71" style="enable-background:new 0 0 492.71 492.71;" xml:space="preserve">
<path d="M475.256,446.423c-8.789-7.206-19.764-10.822-30.948-10.678c4.11-10.117,6.457-21.244,6.457-32.96
	c0-34.518-19.862-64.133-48.159-76.842c0.467-8.318,0.9-16.632,1.284-24.932c5.105-1.009,9.347,0.274,13.161,3.493
	c1.125,1.138,25.919,26.216,28.784,29.121c5.961,6.016,15.475,7.366,22.977,2.714c8.695-5.408,11.378-16.842,5.98-25.551
	c-5.924-9.551-6.696-10.771-21.599-34.781c-12.033-17.823-31.269-27.745-48.191-28.917c-0.018-1.206,0.014-2.49-0.018-3.681
	c-0.404-16.335,9.642-31.144,24.989-36.776c10.025-3.678,18.866-9.111,25.98-15.789c0.084,0.018,0.164,0.04,0.244,0.058
	c13.305,2.063,25.213-3.432,26.611-12.317c0.931-5.987-3.229-11.909-10.059-15.804c0.962-3.931,1.64-7.956,1.64-12.126
	c0-34.036-33.746-61.628-75.369-61.628c-3.984,0-7.808,0.474-11.633,0.958c-2.748-7.996-7.874-18.391-13.694-26.893l0.018-0.007
	c0,0-8.792-14.207-3.664-27.19c0.436-1.086,0.08-2.321-0.834-3.012c-0.917-0.699-2.201-0.691-3.136,0.021
	c-8.228,6.363-17.574,17.455-18.462,34.495c-0.393,7.535-0.438,22.685,3.392,36.124c-16.587,11.297-27.351,28.107-27.351,47.132
	c0,7.432,1.863,14.453,4.821,21.052c-17.357,7.344-35.563,18.608-52.294,32.79C257.661,56.311,177.713,18.62,135.689,9.104
	c-5.446-1.332-11.039-2.288-16.806-2.762c-5.754-0.554-9.194-0.467-9.194-0.467C49.107,5.875,0,54.983,0,115.558
	c0,60.568,49.107,109.683,109.688,109.683c0,0,66.563,0,77.971,138.158c9.561,115.757,81.858,126.71,124.571,122.804
	c0.276,0,177.569,0.058,177.569,0.058c1.607,0,2.91-1.304,2.91-2.918C492.71,469.05,486.315,455.502,475.256,446.423z"/>
<g>
</g>
<g>
</g>
<g>
</g>
<g>
</g>
<g>
</g>
<g>
</g>
<g>
</g>
<g>
</g>
<g>
</g>
<g>
</g>
<g>
</g>
<g>
</g>
<g>
</g>
<g>
</g>
<g>
</g>
</svg>
