<?xml version="1.0" encoding="iso-8859-1"?>
<!-- Generator: Adobe Illustrator 19.0.0, SVG Export Plug-In . SVG Version: 6.00 Build 0)  -->
<svg version="1.1" id="Capa_1" xmlns="http://www.w3.org/2000/svg" xmlns:xlink="http://www.w3.org/1999/xlink" x="0px" y="0px"
	 viewBox="0 0 463 463" style="enable-background:new 0 0 463 463;" xml:space="preserve">
<path d="M455.5,20h-32c-4.142,0-7.5,3.358-7.5,7.5V140h-33V51.5c0-4.142-3.358-7.5-7.5-7.5h-96h-96h-96c-4.142,0-7.5,3.358-7.5,7.5
	V140H47V27.5c0-4.142-3.358-7.5-7.5-7.5h-32C3.358,20,0,23.358,0,27.5v408c0,4.142,3.358,7.5,7.5,7.5h32c4.142,0,7.5-3.358,7.5-7.5
	V411h369v24.5c0,4.142,3.358,7.5,7.5,7.5h32c4.142,0,7.5-3.358,7.5-7.5v-408C463,23.358,459.642,20,455.5,20z M287,123h81v17h-81
	V123z M368,108h-81V59h33v8.5c0,4.142,3.358,7.5,7.5,7.5s7.5-3.358,7.5-7.5V59h33V108z M272,140h-81V59h33v8.5
	c0,4.142,3.358,7.5,7.5,7.5s7.5-3.358,7.5-7.5V59h33V140z M95,59h33v8.5c0,4.142,3.358,7.5,7.5,7.5s7.5-3.358,7.5-7.5V59h33v81H95
	V59z M416,155v113h-33v-88.5c0-4.142-3.358-7.5-7.5-7.5h-96h-96h-96c-4.142,0-7.5,3.358-7.5,7.5V268H47V155H416z M191,268v-81h33
	v8.5c0,4.142,3.358,7.5,7.5,7.5s7.5-3.358,7.5-7.5V187h33v81H191z M95,268v-17h81v17H95z M135.5,203c4.142,0,7.5-3.358,7.5-7.5V187
	h33v49H95v-49h33v8.5C128,199.642,131.358,203,135.5,203z M287,187h33v8.5c0,4.142,3.358,7.5,7.5,7.5s7.5-3.358,7.5-7.5V187h33v81
	h-81V187z M32,428H15V35h17V428z M135.5,331c4.142,0,7.5-3.358,7.5-7.5V315h33v81H95v-81h33v8.5C128,327.642,131.358,331,135.5,331z
	 M191,315h33v8.5c0,4.142,3.358,7.5,7.5,7.5s7.5-3.358,7.5-7.5V315h33v49h-81V315z M191,379h81v17h-81V379z M287,396v-81h33v8.5
	c0,4.142,3.358,7.5,7.5,7.5s7.5-3.358,7.5-7.5V315h33v81H287z M383,396v-88.5c0-4.142-3.358-7.5-7.5-7.5h-96h-96h-96
	c-4.142,0-7.5,3.358-7.5,7.5V396H47V283h369v113H383z M448,428h-17V35h17V428z"/>
<g>
</g>
<g>
</g>
<g>
</g>
<g>
</g>
<g>
</g>
<g>
</g>
<g>
</g>
<g>
</g>
<g>
</g>
<g>
</g>
<g>
</g>
<g>
</g>
<g>
</g>
<g>
</g>
<g>
</g>
</svg>
