<?xml version="1.0" encoding="utf-8"?>
<!-- Generator: Adobe Illustrator 16.0.0, SVG Export Plug-In . SVG Version: 6.00 Build 0)  -->
<!DOCTYPE svg PUBLIC "-//W3C//DTD SVG 1.1//EN" "http://www.w3.org/Graphics/SVG/1.1/DTD/svg11.dtd">
<svg version="1.1" id="Layer_1_copy_2" xmlns="http://www.w3.org/2000/svg" xmlns:xlink="http://www.w3.org/1999/xlink" x="0px"
	 y="0px" width="126px" height="126px" viewBox="0 0 126 126" enable-background="new 0 0 126 126" preserveAspectRatio="fit">
<path stroke="#6D6E70" stroke-width="0" stroke-linecap="round" stroke-linejoin="round" d="M89.018,71.036
	c0.265,0.403,0.31,0.913,0.118,1.356c-4.285,9.904-14.318,16.304-25.563,16.304c-11.486,0-21.58-6.431-25.714-16.382
	c-0.185-0.443-0.135-0.949,0.131-1.347c0.267-0.398,0.714-0.637,1.192-0.637c0.001,0,0.001,0,0.002,0l48.638,0.06
	C88.304,70.39,88.753,70.633,89.018,71.036z M38.979,53.876c-0.055-0.113-0.082-0.237-0.082-0.359c0-0.183,0.062-0.363,0.175-0.506
	l7.695-9.755c0.158-0.197,0.392-0.308,0.645-0.308s0.486,0.111,0.641,0.304l7.697,9.757c0.189,0.237,0.229,0.58,0.1,0.859
	c-0.146,0.293-0.428,0.467-0.741,0.467h-3.554c-0.181,0-0.351-0.083-0.463-0.225l-3.68-4.664l-3.681,4.664
	c-0.112,0.141-0.281,0.225-0.462,0.225h-3.552C39.403,54.335,39.113,54.155,38.979,53.876z M71.098,53.876
	c-0.055-0.113-0.082-0.237-0.082-0.359c0-0.183,0.062-0.363,0.175-0.506l7.695-9.755c0.158-0.197,0.392-0.308,0.645-0.308
	s0.486,0.111,0.641,0.304l7.697,9.757c0.189,0.237,0.229,0.58,0.1,0.859c-0.146,0.293-0.428,0.467-0.741,0.467h-3.554
	c-0.181,0-0.351-0.083-0.463-0.225l-3.68-4.664l-3.681,4.664c-0.112,0.141-0.281,0.225-0.462,0.225h-3.552
	C71.522,54.335,71.232,54.155,71.098,53.876z M96.617,114.848H29.383c-10.053,0-18.23-8.178-18.23-18.23V29.382
	c0-10.052,8.178-18.23,18.23-18.23h67.234c10.053,0,18.23,8.178,18.23,18.23v67.235C114.848,106.67,106.67,114.848,96.617,114.848z
	 M29.383,19.731c-5.322,0-9.652,4.33-9.652,9.651v67.235c0,5.321,4.33,9.651,9.652,9.651h67.234c5.322,0,9.652-4.33,9.652-9.651
	V29.382c0-5.321-4.33-9.651-9.652-9.651H29.383z"/>
</svg>
