<?xml version="1.0" encoding="iso-8859-1"?>
<!-- Generator: Adobe Illustrator 16.0.0, SVG Export Plug-In . SVG Version: 6.00 Build 0)  -->
<!DOCTYPE svg PUBLIC "-//W3C//DTD SVG 1.1//EN" "http://www.w3.org/Graphics/SVG/1.1/DTD/svg11.dtd">
<svg version="1.1" id="Capa_1" xmlns="http://www.w3.org/2000/svg" xmlns:xlink="http://www.w3.org/1999/xlink" x="0px" y="0px"
	 width="129.656px" height="129.656px" viewBox="0 0 129.656 129.656" style="enable-background:new 0 0 129.656 129.656;"
	 xml:space="preserve">
<g>
	<g>
		<path d="M7.376,53.346H18.91c3.211,0,5.592-0.567,8.037-2.579c4.132-3.399,10.629-7.995,13.574-8.47
			c3.542-0.572,6.234,2.458,9.557,2.055c3.319-0.404,0.277-5.902-2.496-10.016c-3.812-5.652-9.556-2.092-14.545,0.72
			C29.423,37.1,14.463,45.812,6.54,50.44C3.79,52.044,4.164,53.346,7.376,53.346z"/>
		<path d="M123.841,56.156H64.833l0,0H5.818C2.606,56.156,0,58.674,0,61.778v31.208c0,3.109,4.059,5.336,7.273,5.336
			c0,0,22.433,0,46.789,0c1.917,0,3.763-2.514,5.608-5.34c1.137-1.743,3.081-2.795,5.162-2.795c2.084,0,4.021,1.054,5.16,2.797
			c1.845,2.824,3.69,5.338,5.606,5.338c24.357,0,46.785,0,46.785,0c3.216,0,7.271-2.227,7.271-5.336V61.778
			C129.661,58.671,127.051,56.156,123.841,56.156z M52.364,81.456c0,4.653-3.911,8.431-8.728,8.431H17.455
			c-4.819,0-8.726-3.777-8.726-8.431v-8.434c0-4.655,3.907-8.433,8.726-8.433h26.182c4.816,0,8.728,3.777,8.728,8.433V81.456z
			 M120.933,81.456c0,4.653-3.91,8.431-8.728,8.431H86.024c-4.818,0-8.728-3.777-8.728-8.431v-8.434
			c0-4.655,3.912-8.433,8.728-8.433h26.182c4.817,0,8.728,3.777,8.728,8.433V81.456z"/>
		<path d="M79.568,44.353c3.321,0.403,6.014-2.627,9.558-2.055c2.945,0.475,9.439,5.071,13.573,8.47
			c2.447,2.012,4.821,2.579,8.038,2.579h11.533c3.214,0,3.586-1.301,0.835-2.908c-7.925-4.627-22.884-13.34-26.497-15.384
			c-4.991-2.811-10.734-6.372-14.544-0.719C79.29,38.451,76.247,43.949,79.568,44.353z"/>
	</g>
</g>
<g>
</g>
<g>
</g>
<g>
</g>
<g>
</g>
<g>
</g>
<g>
</g>
<g>
</g>
<g>
</g>
<g>
</g>
<g>
</g>
<g>
</g>
<g>
</g>
<g>
</g>
<g>
</g>
<g>
</g>
</svg>
