<?xml version="1.0" encoding="utf-8"?>
<!-- Generator: Adobe Illustrator 16.0.4, SVG Export Plug-In . SVG Version: 6.00 Build 0)  -->
<!DOCTYPE svg PUBLIC "-//W3C//DTD SVG 1.1//EN" "http://www.w3.org/Graphics/SVG/1.1/DTD/svg11.dtd">
<svg version="1.1" id="Capa_1" xmlns="http://www.w3.org/2000/svg" xmlns:xlink="http://www.w3.org/1999/xlink" x="0px" y="0px"
	 width="10.607px" height="19.938px" viewBox="0 0 10.607 19.938" enable-background="new 0 0 10.607 19.938" preserveAspectRatio="fit">
<path d="M9.316,19.373c-0.564-0.689-2.004-2.533-2.433-4.002C6.343,13.53,6.32,12.096,6.32,12.096h0.245v-0.791H6.247
	c0,0-0.318-2.955-0.393-3.96C5.779,6.339,5.708,5.63,5.708,5.63l0.121-0.191V4.884L5.758,4.667V4.111L5.876,3.96V3.363L5.573,3.096
	L5.368,0.001H5.239L5.034,3.096L4.728,3.363V3.96L4.85,4.111v0.556L4.778,4.884v0.555L4.901,5.63c0,0-0.073,0.709-0.148,1.715
	c-0.072,1.006-0.391,3.96-0.391,3.96h-0.32v0.791h0.243c0,0-0.021,1.436-0.561,3.275c-0.434,1.469-1.867,3.312-2.435,4.002H0v0.564
	h10.607v-0.564H9.316z M5.624,13.178H5.9c0.011,0.078,0.024,0.189,0.046,0.322H5.624V13.178z M5.624,13.793h0.362
	c0.029,0.188,0.06,0.396,0.095,0.607H5.624V13.793z M5.624,14.696h0.505c0.034,0.211,0.072,0.42,0.107,0.604H5.624V14.696z
	 M5.624,15.594h0.675c0.003,0.008,0.006,0.018,0.006,0.023c0.048,0.201,0.101,0.4,0.152,0.586H5.624V15.594z M5.624,16.496h0.923
	c0.12,0.373,0.217,0.631,0.217,0.631s-0.367-0.178-0.627-0.225c-0.255-0.049-0.513-0.066-0.513-0.066V16.496z M4.709,13.178h0.274
	V13.5h-0.32C4.68,13.365,4.698,13.256,4.709,13.178z M4.621,13.793h0.362v0.607H4.524C4.56,14.19,4.592,13.981,4.621,13.793z
	 M4.478,14.696h0.506v0.604H4.369C4.406,15.115,4.444,14.906,4.478,14.696z M4.304,15.617c0.002-0.006,0.002-0.016,0.004-0.023
	h0.676v0.609H4.148C4.203,16.018,4.256,15.819,4.304,15.617z M4.059,16.496h0.925v0.34c0,0-0.26,0.018-0.519,0.066
	c-0.254,0.047-0.62,0.225-0.62,0.225S3.94,16.869,4.059,16.496z M5.036,17.323v2.051H2.038C2.51,18.752,3.641,17.481,5.036,17.323z
	 M5.569,19.373v-2.051c1.394,0.158,2.526,1.43,3.002,2.051H5.569z"/>
</svg>
