<?xml version="1.0" encoding="iso-8859-1"?>
<!-- Generator: Adobe Illustrator 16.0.0, SVG Export Plug-In . SVG Version: 6.00 Build 0)  -->
<!DOCTYPE svg PUBLIC "-//W3C//DTD SVG 1.1//EN" "http://www.w3.org/Graphics/SVG/1.1/DTD/svg11.dtd">
<svg version="1.1" id="Capa_1" xmlns="http://www.w3.org/2000/svg" xmlns:xlink="http://www.w3.org/1999/xlink" x="0px" y="0px"
	 width="479.835px" height="479.835px" viewBox="0 0 479.835 479.835" style="enable-background:new 0 0 479.835 479.835;"
	 xml:space="preserve">
<g>
	<path d="M202.698,113.268c-11.4,0-44.4,20.3-53.4,36.8c-17.1,31.5-37.1,88.9-43,136.2l130.9-59.2c2.1-1,4.4-1.5,6.8-1.5l0,0
		c4.4,0,8.7,1.8,11.8,5l18.301,19C267.099,183.167,235.198,113.268,202.698,113.268z"/>
	<path d="M275.398,280.767l9.5-5.5l-9.7-10l-26.6-27.6c-1.2-1.3-2.9-2-4.601-2c-0.899,0-1.8,0.2-2.6,0.6l-136.2,61.7l-101.4,45.8
		c-6.3,2.9-4.3,12.2,2.6,12.2h110.6h27.2L275.398,280.767z"/>
	<path d="M377.398,240.067c-1.101-1.7-3-2.6-4.9-2.6c-1,0-2,0.2-2.9,0.8l-68.6,39.4l-4.5,2.6l-4.5,2.601l-17.399,10l-110.4,63.3
		l-8.7,5l-8.7,5l-8.9,5.1l-5.6,3.2c-4.3,2.5-2.6,7.8,2.1,9.4l74.7,21.5c0.6,0.2,1.2,0.3,1.8,0.3h263.1c4.6,0,7.4-5.1,4.9-8.9
		L377.398,240.067z"/>
	<circle cx="406.098" cy="113.268" r="39.1"/>
</g>
<g>
</g>
<g>
</g>
<g>
</g>
<g>
</g>
<g>
</g>
<g>
</g>
<g>
</g>
<g>
</g>
<g>
</g>
<g>
</g>
<g>
</g>
<g>
</g>
<g>
</g>
<g>
</g>
<g>
</g>
</svg>
