<?xml version="1.0" encoding="utf-8"?>
<!-- Generator: Adobe Illustrator 17.0.0, SVG Export Plug-In . SVG Version: 6.00 Build 0)  -->
<!DOCTYPE svg PUBLIC "-//W3C//DTD SVG 1.1//EN" "http://www.w3.org/Graphics/SVG/1.1/DTD/svg11.dtd">
<svg version="1.1" id="Capa_1" xmlns="http://www.w3.org/2000/svg" xmlns:xlink="http://www.w3.org/1999/xlink" x="0px" y="0px"
	 width="52px" height="52px" viewBox="0 0 52 52" enable-background="new 0 0 52 52" preserveAspectRatio="fit">
<g>
	<path d="M44.478,13c0.028-1.104-0.5-2-1.148-2s-1.174,0.897-1.232,2c-0.274,5.26-1.55,15.358-5.081,15.942
		c-2.599,0.431-5.237-7.282-6.754-9.255s-7.188-3.202-9.457,0.938c-2.268,4.14-2.988,7.322-6.479,8.414
		c-2.473,0.774-3.709-3.721-4.24-6.445c-0.211-1.084-0.449-2.859-0.56-3.958c-0.189-1.867-0.312-3.75-0.363-5.628
		c-0.03-1.104-0.51-1.94-1.104-1.868s-1.08,1.026-1.045,2.13c0.117,3.7,0.555,7.387,1.255,10.92
		c1.081,7.743,4.043,19.952,12.087,24.029c0.985,0.499,2.648,1.167,3.714,1.424c0.648,0.156,1.303,0.238,1.966,0.238
		c1.497,0,2.939-0.414,4.316-1.154c8.352-3.544,12.739-17.281,13.365-27.158C44.141,18.709,44.401,16.085,44.478,13z M24.804,23.622
		c1.88-0.252,3.833,0.624,3.833,0.624c3.973,2.242,3.09,6.164,2.046,6.766c-0.87,0.502-1.446,0.38-1.825,0.031
		c-0.8-0.736-0.884-2.828-1.859-3.347c-1.458-0.776-3.751-0.164-3.751,1.663c0,1.967-2.079,2.039-2.618,1.405
		c-1.691-1.99-0.443-3.937,0.786-5.151C22.201,24.836,23.709,23.769,24.804,23.622z"/>
	<path d="M33.743,11.01c0,0.709,0.745-0.249,1.664-0.249c0.919,0,1.664,0.958,1.664,0.249c0-1.416-0.745-1.662-1.664-1.662
		C34.488,9.348,33.743,9.594,33.743,11.01z"/>
	<path d="M17.7,9.348c-0.919,0-1.664,0.246-1.664,1.662c0,0.709,0.745-0.249,1.664-0.249c0.918,0,1.663,0.958,1.663,0.249
		C19.363,9.594,18.618,9.348,17.7,9.348z"/>
	<path d="M32.525,7.054c0.404,0.519,6.075-1.799,5.611-2.488C37.906,4.224,37.07,3.2,37.07,3.2
		c-0.635-0.727-6.424,1.226-5.944,2.122C31.56,6.13,32.176,6.607,32.525,7.054z"/>
	<path d="M19.029,7.054c0.35-0.446,0.965-0.924,1.398-1.731c0.48-0.896-5.31-2.849-5.944-2.122c0,0-0.835,1.023-1.066,1.365
		C12.954,5.255,18.624,7.572,19.029,7.054z"/>
</g>
</svg>
