<?xml version="1.0" encoding="iso-8859-1"?>
<!-- Generator: Adobe Illustrator 18.0.0, SVG Export Plug-In . SVG Version: 6.00 Build 0)  -->
<!DOCTYPE svg PUBLIC "-//W3C//DTD SVG 1.1//EN" "http://www.w3.org/Graphics/SVG/1.1/DTD/svg11.dtd">
<svg version="1.1" id="Capa_1" xmlns="http://www.w3.org/2000/svg" xmlns:xlink="http://www.w3.org/1999/xlink" x="0px" y="0px"
	 viewBox="0 0 60.003 60.003" style="enable-background:new 0 0 60.003 60.003;" xml:space="preserve">
<g>
	<path d="M19.693,32.917c0.232,0,0.465-0.081,0.653-0.242l4.565-3.934c1.05-0.919,1.771-2.083,2.086-3.369
		c0.208-0.854,0.16-1.426,0.13-1.634c-0.238-2.417-2.104-4.234-4.353-4.234c-1.172,0-2.268,0.469-3.07,1.264
		c-0.785-0.802-1.851-1.264-3.014-1.264c-2.249,0-4.114,1.817-4.353,4.233c-0.031,0.21-0.079,0.781,0.13,1.634
		c0.314,1.285,1.035,2.45,2.084,3.369l4.482,3.929C19.223,32.834,19.458,32.917,19.693,32.917z M14.41,24.897
		c-0.13-0.533-0.098-0.837-0.099-0.837h0c0.007-0.034,0.012-0.069,0.015-0.104c0.112-1.219,0.96-2.452,2.364-2.452
		c0.919,0,1.7,0.529,2.087,1.416c0.159,0.364,0.519,0.6,0.917,0.6s0.757-0.235,0.917-0.6c0.376-0.86,1.225-1.416,2.164-1.416
		c1.404,0,2.252,1.233,2.375,2.527c0,0.003,0.041,0.312-0.094,0.866c-0.216,0.884-0.721,1.692-1.454,2.333l-3.901,3.361
		l-3.829-3.356C15.131,26.589,14.626,25.781,14.41,24.897z"/>
	<path d="M43.619,19.504c-1.171,0-2.268,0.469-3.07,1.264c-0.785-0.802-1.851-1.264-3.014-1.264c-2.249,0-4.114,1.817-4.353,4.233
		c-0.031,0.21-0.079,0.781,0.13,1.634c0.314,1.285,1.035,2.45,2.084,3.369l4.483,3.929c0.188,0.165,0.424,0.248,0.659,0.248
		c0.232,0,0.465-0.081,0.653-0.242l4.565-3.934c1.049-0.919,1.77-2.084,2.084-3.369c0.209-0.854,0.161-1.426,0.13-1.635
		C47.733,21.322,45.868,19.504,43.619,19.504z M45.899,24.898c-0.216,0.884-0.721,1.692-1.454,2.333l-3.901,3.361l-3.83-3.356
		c-0.739-0.646-1.244-1.455-1.459-2.339c-0.13-0.533-0.098-0.837-0.099-0.837h0c0.007-0.034,0.012-0.069,0.015-0.104
		c0.112-1.219,0.96-2.452,2.364-2.452c0.919,0,1.7,0.529,2.087,1.416c0.159,0.364,0.519,0.6,0.917,0.6s0.757-0.235,0.917-0.6
		c0.376-0.86,1.225-1.416,2.164-1.416c1.404,0,2.252,1.233,2.375,2.528C45.994,24.036,46.035,24.343,45.899,24.898z"/>
	<path d="M59.796,26.569c-0.402-1.698-1.366-3.157-2.578-3.903c-0.811-0.5-1.678-0.66-2.507-0.461
		c-0.189,0.045-0.372,0.115-0.549,0.198c-2.336-5.685-5.98-9.364-9.727-11.737l1.36-2.72c0.247-0.494,0.047-1.095-0.447-1.342
		c-0.496-0.245-1.094-0.046-1.342,0.447l-1.303,2.605c-0.617-0.327-1.231-0.626-1.837-0.892l0.983-2.95
		c0.175-0.524-0.108-1.091-0.632-1.265c-0.525-0.176-1.091,0.108-1.265,0.632l-0.948,2.844c-0.693-0.248-1.366-0.461-2.011-0.642
		l0.857-2.57c0.175-0.524-0.108-1.091-0.632-1.265c-0.527-0.177-1.09,0.108-1.265,0.632l-0.908,2.724
		C33.779,6.641,32.7,6.495,31.9,6.418V4.499c0-0.553-0.448-1-1-1s-1,0.447-1,1v1.848c-0.525,0.028-1.443,0.102-2.63,0.289
		l-0.384-2.301c-0.091-0.545-0.604-0.921-1.151-0.822c-0.544,0.091-0.913,0.606-0.822,1.15l0.392,2.35
		c-1.07,0.242-2.257,0.576-3.506,1.022l-0.951-2.852c-0.175-0.523-0.74-0.808-1.265-0.632c-0.524,0.174-0.807,0.74-0.632,1.265
		l0.986,2.957c-0.863,0.378-1.741,0.818-2.621,1.323l-1.522-3.043c-0.247-0.493-0.847-0.692-1.342-0.447
		c-0.494,0.247-0.694,0.848-0.447,1.342l1.606,3.212c-0.881,0.601-1.749,1.284-2.594,2.044l-2.411-2.411
		c-0.391-0.391-1.023-0.391-1.414,0s-0.391,1.023,0,1.414l2.391,2.391c-3.078,3.271-5.649,7.833-6.829,14.211
		c-0.015,0.083-0.025,0.166-0.04,0.249c-0.254-0.07-0.512-0.118-0.776-0.118C1.73,28.939,0,31.322,0,34.363s1.73,5.424,3.939,5.424
		c0.403,0,0.798-0.102,1.177-0.267c0.701,2.671,1.863,5.179,3.459,7.379c3.245,4.472,9.658,9.793,21.817,9.602
		c0.186,0.003,0.368,0.004,0.551,0.004c11.797,0,18.071-5.202,21.266-9.605c2.881-3.971,4.346-8.947,4.23-14.077
		c0.035,0.001,0.071,0.014,0.106,0.014c0.227,0,0.451-0.025,0.67-0.078C59.363,32.245,60.497,29.527,59.796,26.569z M4.674,37.489
		c-0.206,0.166-0.456,0.298-0.734,0.298C3.022,37.787,2,36.38,2,34.363s1.022-3.424,1.939-3.424c0.167,0,0.336,0.047,0.504,0.139
		c-0.049,0.533-0.081,1.065-0.096,1.596c-0.001,0.035,0,0.071-0.001,0.106c-0.011,0.442-0.009,0.883,0.004,1.323
		c0.004,0.139,0.009,0.278,0.015,0.417c0.016,0.355,0.041,0.708,0.073,1.06c0.013,0.145,0.022,0.291,0.037,0.435
		c0.047,0.438,0.106,0.872,0.177,1.304C4.66,37.376,4.664,37.433,4.674,37.489z M50.59,45.725
		c-4.316,5.949-11.074,8.93-20.184,8.775h-0.014h-0.014c-9.089,0.162-15.868-2.826-20.185-8.775
		c-2.062-2.843-3.329-6.257-3.726-9.868c-0.008-0.075-0.009-0.152-0.017-0.227c-0.057-0.573-0.089-1.151-0.102-1.732
		c-0.005-0.249-0.001-0.498,0.002-0.748c0.004-0.409,0.021-0.82,0.047-1.231c0.019-0.293,0.039-0.585,0.069-0.879
		c0.064-0.623,0.138-1.246,0.253-1.869c1.097-5.929,3.438-10.164,6.237-13.2l1.235,1.235c0.195,0.195,0.451,0.293,0.707,0.293
		s0.512-0.098,0.707-0.293c0.391-0.391,0.391-1.023,0-1.414l-1.229-1.229c0.684-0.619,1.384-1.181,2.094-1.683l0.533,1.067
		c0.175,0.351,0.528,0.553,0.896,0.553c0.15,0,0.303-0.034,0.446-0.105c0.494-0.247,0.694-0.848,0.447-1.342l-0.628-1.256
		c0.795-0.464,1.59-0.872,2.372-1.22l0.413,1.24c0.14,0.419,0.53,0.684,0.949,0.684c0.104,0,0.211-0.017,0.316-0.052
		c0.524-0.174,0.807-0.74,0.632-1.265l-0.45-1.349c1.148-0.407,2.235-0.7,3.224-0.917l0.291,1.747
		c0.082,0.489,0.505,0.836,0.985,0.836c0.054,0,0.11-0.004,0.166-0.014c0.544-0.091,0.913-0.606,0.822-1.15l-0.296-1.777
		c1.021-0.146,1.824-0.201,2.31-0.22v2.161c0,0.553,0.448,1,1,1s1-0.447,1-1V8.416c0.666,0.065,1.521,0.178,2.516,0.374
		l-0.464,1.393c-0.175,0.524,0.108,1.091,0.632,1.265c0.105,0.035,0.212,0.052,0.316,0.052c0.419,0,0.809-0.265,0.949-0.684
		l0.521-1.564c0.644,0.175,1.318,0.385,2.014,0.634l-0.433,1.298c-0.175,0.524,0.108,1.091,0.632,1.265
		c0.105,0.035,0.212,0.052,0.316,0.052c0.419,0,0.809-0.265,0.949-0.684l0.395-1.184c0.177,0.079,0.353,0.153,0.531,0.238
		c0.36,0.171,0.707,0.353,1.053,0.538l-0.822,1.645c-0.247,0.494-0.047,1.095,0.447,1.342c0.144,0.071,0.296,0.105,0.446,0.105
		c0.367,0,0.72-0.202,0.896-0.553l0.763-1.526c4.174,2.689,7.196,6.516,9.039,11.43l-0.003,0.003l0.182,0.513
		c0.271,0.762,0.506,1.524,0.715,2.296c0.016,0.059,0.031,0.118,0.046,0.177c0.201,0.76,0.376,1.528,0.523,2.319
		c0.001,0.005,0.002,0.009,0.003,0.014c0.124,0.668,0.207,1.336,0.272,2.004c0.011,0.113,0.026,0.223,0.035,0.337
		C54.794,36.684,53.466,41.76,50.59,45.725z M56.751,30.813c-0.136,0.031-0.282,0.031-0.436-0.001
		c-0.004-0.041-0.012-0.078-0.017-0.118c-0.068-0.626-0.152-1.252-0.268-1.878c-0.001-0.003-0.001-0.006-0.001-0.009
		c-0.002-0.012-0.006-0.024-0.008-0.037c-0.141-0.755-0.304-1.48-0.482-2.186c-0.023-0.091-0.051-0.18-0.075-0.271
		c-0.177-0.677-0.371-1.33-0.581-1.962c-0.007-0.02-0.011-0.04-0.018-0.06c0.101-0.069,0.204-0.116,0.31-0.142
		c0.381-0.094,0.75,0.067,0.994,0.219c0.758,0.467,1.402,1.486,1.68,2.661C58.315,28.994,57.644,30.6,56.751,30.813z"/>
	<path d="M41.6,35.704c-0.443-0.33-1.069-0.241-1.4,0.2c-0.332,0.441-0.242,1.068,0.2,1.399l1.411,1.058
		c-1.268,1.599-5.325,6.17-10.887,7.008c-3.517,0.535-7.047-0.548-10.504-3.181l1.18-0.885c0.442-0.331,0.531-0.958,0.2-1.399
		c-0.33-0.442-0.956-0.531-1.4-0.2l-4,3c-0.442,0.331-0.531,0.958-0.2,1.399c0.196,0.263,0.497,0.4,0.801,0.4
		c0.208,0,0.419-0.065,0.599-0.2l1.176-0.882c0.034,0.036,0.055,0.081,0.096,0.113c3.344,2.64,6.792,3.971,10.277,3.971
		c0.689,0,1.38-0.053,2.072-0.156c6.351-0.958,10.796-6.001,12.192-7.785l0.987,0.74c0.18,0.135,0.391,0.2,0.599,0.2
		c0.304,0,0.604-0.138,0.801-0.4c0.332-0.441,0.242-1.068-0.2-1.399L41.6,35.704z"/>
</g>
<g>
</g>
<g>
</g>
<g>
</g>
<g>
</g>
<g>
</g>
<g>
</g>
<g>
</g>
<g>
</g>
<g>
</g>
<g>
</g>
<g>
</g>
<g>
</g>
<g>
</g>
<g>
</g>
<g>
</g>
</svg>
