<?xml version='1.0' encoding='iso-8859-1'?>
<svg version="1.1" xmlns="http://www.w3.org/2000/svg" viewBox="0 0 463.001 463.001" xmlns:xlink="http://www.w3.org/1999/xlink" enable-background="new 0 0 463.001 463.001">
  <path d="m460.602,274.003c-2.386-2.214-5.928-2.636-8.766-1.046-17.304,9.69-50.441,16.975-85.526,24.688-50.487,11.099-102.27,22.488-127.31,44.264v-15.76c15.896-3.076 44.015-14.657 66.232-37.501 26.251-26.99 38.957-62.437 37.765-105.355-0.112-4.059-3.436-7.292-7.497-7.292h-12.602c-7.777-9.481-11.725-21.365-16.62-36.102-9.611-28.938-21.572-64.951-69.916-106.109-2.803-2.386-6.922-2.386-9.725,0-48.344,41.158-60.305,77.171-69.916,106.109-4.896,14.737-8.843,26.621-16.62,36.102h-12.601c-4.062,0-7.385,3.232-7.497,7.292-1.192,42.918 11.514,78.365 37.765,105.355 22.218,22.844 50.337,34.425 66.232,37.501v15.76c-25.04-21.777-76.823-33.165-127.31-44.264-35.085-7.713-68.223-14.998-85.526-24.688-2.837-1.59-6.38-1.167-8.766,1.046-2.386,2.214-3.071,5.713-1.697,8.664 0.66,1.418 16.476,35.129 42.584,69.381 35.888,47.08 72.297,70.952 108.215,70.952 37.344,0 59.727-12.284 72.5-25.715v26.215c0,4.142 3.357,7.5 7.5,7.5s7.5-3.358 7.5-7.5v-26.215c12.773,13.431 35.156,25.715 72.5,25.715 35.918,0 72.327-23.872 108.215-70.953 26.108-34.251 41.924-67.962 42.584-69.381 1.374-2.95 0.689-6.449-1.697-8.663zm-91.071,38.291c12.961-2.849 25.663-5.642 37.515-8.548-71.823,44.234-132.13,54.196-164.197,55.934 16.364-23.13 76.928-36.448 126.682-47.386zm-77.487-167.668c5.657,17.034 10.544,31.746 21.974,43.991 1.418,1.52 3.403,2.383 5.482,2.383h8.559c-0.461,35.431-11.739,64.734-33.579,87.188-19.58,20.132-43.033,29.464-55.48,32.569v-254.344c34.973,33.822 44.908,63.719 53.044,88.213zm-123.523,133.563c-21.84-22.455-33.118-51.757-33.579-87.188h8.559c2.079,0 4.064-0.863 5.482-2.383 11.43-12.246 16.316-26.957 21.974-43.991 8.136-24.494 18.072-54.391 53.044-88.213v254.343c-12.447-3.105-35.9-12.437-55.48-32.568zm51.631,81.491c-32.067-1.738-92.374-11.699-164.197-55.933 11.852,2.906 24.554,5.699 37.515,8.548 49.754,10.937 110.318,24.255 126.682,47.385zm-68.652,48.32c-52.85,0-99.085-64.825-121.967-103.507 84.191,57.242 156.159,68.624 191.935,70.267-5.439,11.922-21.903,33.24-69.968,33.24zm160,0c-48.065,0-64.529-21.319-69.967-33.24 35.779-1.644 107.759-13.028 191.961-70.285-22.86,38.678-69.078,103.525-121.994,103.525z"/>
</svg>
