<?xml version="1.0" encoding="utf-8"?>
<!-- Generator: Adobe Illustrator 16.0.4, SVG Export Plug-In . SVG Version: 6.00 Build 0)  -->
<!DOCTYPE svg PUBLIC "-//W3C//DTD SVG 1.1//EN" "http://www.w3.org/Graphics/SVG/1.1/DTD/svg11.dtd">
<svg version="1.1" id="Capa_1" xmlns="http://www.w3.org/2000/svg" xmlns:xlink="http://www.w3.org/1999/xlink" x="0px" y="0px"
	 width="19.676px" height="13.41px" viewBox="0 0 19.676 13.41" enable-background="new 0 0 19.676 13.41" preserveAspectRatio="fit">
<path d="M9.894,0.853V0.851c-0.029,0-0.057,0-0.082,0c-0.011,0-0.019,0-0.029,0l0,0C2.035,0.851,0-0.001,0-0.001l0.587,1.336
	c0,0,0.122,0.025,0.473,0.066v0.528c0,0,0.564,0.178,2.82,0.307v0.352h0.316L4.18,3.319H3.634v0.26H1.255v1.107h2.891l-0.23,7.428
	c-0.354,0.072-0.621,0.389-0.621,0.766v0.018h-1.85v0.513h6.94v-0.513H6.624V12.88c0-0.377-0.268-0.693-0.619-0.766L5.771,4.687
	h4.012v0.002h4.121l-0.233,7.426c-0.353,0.071-0.621,0.389-0.621,0.766v0.019h-1.758v0.512h6.942v-0.512h-1.852v-0.019
	c0-0.377-0.268-0.692-0.621-0.766l-0.234-7.426h2.896V3.581h-2.378V3.319h-0.549l-0.019-0.732h0.317v-0.35
	c2.254-0.131,2.82-0.309,2.82-0.309V1.401c0.35-0.041,0.472-0.066,0.472-0.066l0.588-1.336C19.676-0.001,17.641,0.851,9.894,0.853z
	 M9.126,3.579H6.288v-0.26H5.737L5.72,2.587h0.319V2.315C7.022,2.349,7.705,2.37,9.126,2.376V3.579z M13.938,3.319h-0.549v0.262
	H10.55V2.376c1.419-0.006,2.106-0.027,3.085-0.061v0.271h0.321L13.938,3.319z"/>
</svg>
