<?xml version="1.0" encoding="iso-8859-1"?>
<!-- Generator: Adobe Illustrator 18.0.0, SVG Export Plug-In . SVG Version: 6.00 Build 0)  -->
<!DOCTYPE svg PUBLIC "-//W3C//DTD SVG 1.1//EN" "http://www.w3.org/Graphics/SVG/1.1/DTD/svg11.dtd">
<svg version="1.1" id="Capa_1" xmlns="http://www.w3.org/2000/svg" xmlns:xlink="http://www.w3.org/1999/xlink" x="0px" y="0px"
	 viewBox="0 0 491.744 491.744" style="enable-background:new 0 0 491.744 491.744;" xml:space="preserve">
<path d="M487.314,118.834c-0.847-3.149-3.131-5.705-6.157-6.905l-26.212-10.358c-3.701-1.462-6.545-4.515-7.743-8.309
	s-0.622-7.927,1.568-11.249c1.908-2.879,2.401-6.468,1.362-9.766c-1.039-3.292-3.511-5.944-6.721-7.214l-46.624-18.428
	c-5.125-20.123-18.957-36.743-27.238-45.213c-1.213-1.244-3.032-1.7-4.699-1.18c-1.664,0.519-2.898,1.926-3.189,3.652l-8.473,49.886
	h0.426c-3.848,3.239-7.125,7.144-9.682,11.716c-0.614,0.772-1.246,1.542-1.632,2.511l-46.024,96.7L98.21,195.948
	c-10.02,1.58-19.436,5.228-27.824,10.538c-9.979,6.317-22.678,6.461-32.804,0.381l-21.27-12.771
	c-3.415-2.053-7.927-1.305-10.477,1.904c-2.78,3.492-2.199,8.576,1.298,11.353l31.624,25.148c2.497,1.986,3.369,5.395,2.127,8.333
	c0,0.001-0.001,0.002-0.001,0.003c-3.426,6.384-5.242,13.604-5.22,21.184c-1.687,15.49-0.319,17.688,8.242,62.901
	c0.104,0.736,13.339,44.392-9.838,59.59c-5.513,5.168-12.578,11.959-15.477,19.035c-6.359,13.861-5.153,10.603-7.731,76.56
	c-0.181,4.859,2.833,9.475,7.675,11.069c5.873,1.938,12.204-1.253,14.147-7.114c0.484-1.468,17.329-52.49,17.329-52.49
	c3.568-11.305,30.782-12.656,46.368-30.686l3.323-3.912c5.813-6.806,11.4-24.678,14.368-54.169
	c0.825-8.197,8.109-14.191,16.348-14.191h106.92c5.827,7.384,12.682,13.469,20.233,18.044l18.091,135.434
	c0.542,4.054,3.738,7.416,7.99,7.981c5.086,0.686,9.76-2.895,10.448-7.981l17.428-130.503
	c29.572-11.708,51.001-46.231,51.001-87.001c0-6.519-0.568-12.872-1.614-19.007l21.295-71.334
	c1.647-5.517,5.533-10.09,10.712-12.606c5.179-2.516,11.176-2.743,16.531-0.627l8.492,3.356
	c17.484,6.912,37.435,1.542,49.092-13.201l18.414-23.279C487.463,125.339,488.158,121.976,487.314,118.834z"/>
<g>
</g>
<g>
</g>
<g>
</g>
<g>
</g>
<g>
</g>
<g>
</g>
<g>
</g>
<g>
</g>
<g>
</g>
<g>
</g>
<g>
</g>
<g>
</g>
<g>
</g>
<g>
</g>
<g>
</g>
</svg>
