<?xml version="1.0" encoding="iso-8859-1"?>
<!-- Generator: Adobe Illustrator 16.0.0, SVG Export Plug-In . SVG Version: 6.00 Build 0)  -->
<!DOCTYPE svg PUBLIC "-//W3C//DTD SVG 1.1//EN" "http://www.w3.org/Graphics/SVG/1.1/DTD/svg11.dtd">
<svg version="1.1" id="Capa_1" xmlns="http://www.w3.org/2000/svg" xmlns:xlink="http://www.w3.org/1999/xlink" x="0px" y="0px"
	 width="537.766px" height="537.766px" viewBox="0 0 537.766 537.766" style="enable-background:new 0 0 537.766 537.766;"
	 xml:space="preserve">
<g>
	<g id="Layer_1_108_">
		<g>
			<path d="M59.641,102.496L6.09,162.421c-8.925,10.2-7.65,24.225,1.275,33.15c5.1,3.825,10.2,6.375,15.3,6.375
				c6.375,0,12.75-2.55,17.85-7.65l53.55-59.925c15.3-17.85,38.25-28.05,62.475-28.05h10.2v40.8
				c-35.7,17.85-59.925,53.55-59.925,95.625V501.57c0,15.301,12.75,26.775,26.775,26.775h160.65c15.3,0,26.775-11.475,26.775-26.775
				V242.746c0-42.075-24.226-79.05-59.925-95.625v-40.8h67.575V59.146H156.541C119.565,59.146,83.865,74.446,59.641,102.496z"/>
			<path d="M527.565,14.521c-7.65-5.1-15.3-6.375-24.225-3.825l-144.075,48.45v47.175l142.8,47.175
				c7.65,2.55,16.575,1.275,24.225-3.825c7.65-5.1,11.476-12.75,11.476-21.675v-91.8C537.766,27.271,533.94,19.621,527.565,14.521z"
				/>
		</g>
	</g>
</g>
<g>
</g>
<g>
</g>
<g>
</g>
<g>
</g>
<g>
</g>
<g>
</g>
<g>
</g>
<g>
</g>
<g>
</g>
<g>
</g>
<g>
</g>
<g>
</g>
<g>
</g>
<g>
</g>
<g>
</g>
</svg>
