<?xml version="1.0" encoding="utf-8"?>
<!-- Generator: Adobe Illustrator 16.0.0, SVG Export Plug-In . SVG Version: 6.00 Build 0)  -->
<!DOCTYPE svg PUBLIC "-//W3C//DTD SVG 1.1//EN" "http://www.w3.org/Graphics/SVG/1.1/DTD/svg11.dtd">
<svg version="1.1" id="Layer_1" xmlns="http://www.w3.org/2000/svg" xmlns:xlink="http://www.w3.org/1999/xlink" x="0px" y="0px"
	 width="800px" height="800px" viewBox="0 0 800 800" enable-background="new 0 0 800 800" xml:space="preserve">
<g>
	<path fill="#231F20" d="M540.694,648.064c10.657-225.892,210.977-157.695,210.977-157.695
		c-57.538-119.341-309.004-108.688-309.004-108.688V253.82c-51.144-117.211-238.681-53.277-238.681-53.277l-19.178,134.258
		C-13.379,330.539,7.929,464.795,7.929,464.795c59.672-49.197,133.758-53.262,181.142-49.197
		c186.098,15.998,179.01,232.468,179.01,232.468L540.694,648.064L540.694,648.064z M214.644,349.719l17.049-121.472
		C382.998,189.887,414.965,273,414.965,273v142.598l-35.495,53.46C350.367,358.242,214.644,349.719,214.644,349.719z"/>
	<path fill="#231F20" d="M169.892,469.058c-80.03,0-144.914,64.884-144.914,144.911c0,80.035,64.884,144.912,144.914,144.912
		c80.028,0,144.91-64.877,144.91-144.912C314.802,533.94,249.92,469.058,169.892,469.058z M169.892,690.688
		c-42.372,0-76.72-34.346-76.72-76.719c0-42.371,34.349-76.717,76.72-76.717s76.717,34.346,76.717,76.717
		C246.609,656.342,212.263,690.688,169.892,690.688z"/>
	<circle fill="#231F20" cx="169.892" cy="613.969" r="34.095"/>
	<path fill="#231F20" d="M692.003,758.881c60.019,0,108.682-48.666,108.682-108.684c0-60.019-48.663-108.687-108.682-108.687
		c-60.018,0-108.685,48.669-108.685,108.687C583.318,710.214,631.985,758.881,692.003,758.881z M692.003,592.658
		c31.782,0,57.537,25.756,57.537,57.539c0,31.784-25.754,57.539-57.537,57.539c-31.784,0-57.54-25.755-57.54-57.539
		C634.463,618.414,660.219,592.658,692.003,592.658z"/>
	<path fill="#231F20" d="M692.003,675.77c14.116,0,25.572-11.453,25.572-25.571c0-14.117-11.456-25.572-25.572-25.572
		c-14.118,0-25.573,11.455-25.573,25.572S677.885,675.77,692.003,675.77z"/>
	<path fill="#231F20" d="M562.009,172.839c0,0-62.272,46.882-55.878,200.321h55.878c0,0-28.174-112.932,0-159.831V172.839z"/>
</g>
</svg>
