<?xml version="1.0" encoding="iso-8859-1"?>
<!-- Generator: Adobe Illustrator 19.0.0, SVG Export Plug-In . SVG Version: 6.00 Build 0)  -->
<svg version="1.1" id="Layer_1" xmlns="http://www.w3.org/2000/svg" xmlns:xlink="http://www.w3.org/1999/xlink" x="0px" y="0px"
	 viewBox="0 0 340 340" style="enable-background:new 0 0 340 340;" xml:space="preserve">
<g id="XMLID_2_">
	<g>
		<g>
			<path d="M256.926,135.388c2.423-12.165-4.402-24.959-15.259-30.388c-15.132-7.566-40.367-0.823-51.759,2.909
				c-0.18-0.057-0.36-0.112-0.541-0.169C177.16,125.455,170,146.906,170,170s7.16,44.544,19.367,62.26
				c0.18-0.057,0.361-0.112,0.541-0.169c11.393,3.732,36.627,10.475,51.759,2.909c10.857-5.429,17.682-18.224,15.259-30.388
				c-0.998-2.385-2.969-8.205-3.105-8.657C251.34,187.732,250,179.02,250,170s1.34-17.733,3.821-25.955
				C253.958,143.593,255.928,137.773,256.926,135.388z"/>
			<path d="M57.774,118.904C17.357,139.636,0,170,0,170s17.357,30.363,57.774,51.095C71.437,208.312,80,190.141,80,170
				C80,149.857,71.437,131.688,57.774,118.904z M39.999,170c-5.523,0-10-4.477-10-10s4.477-10,10-10c5.523,0,10,4.477,10,10
				S45.522,170,39.999,170z"/>
			<path d="M168.823,102.648C163.414,98.461,156.729,93.555,152,91c-30.109-16.274-46.987-0.148-55.291,13.768
				c-6.837,1.575-13.269,3.487-19.316,5.652C91.451,126.302,100,147.169,100,170s-8.549,43.697-22.608,59.581
				c6.047,2.165,12.479,4.077,19.316,5.652c8.305,13.916,25.182,30.042,55.291,13.768c4.729-2.556,11.415-7.462,16.823-11.649
				c0.006-0.001,0.012-0.002,0.018-0.003C156.889,217.693,150,194.635,150,170s6.889-47.693,18.841-67.348
				C168.835,102.651,168.829,102.65,168.823,102.648z"/>
			<path d="M310,130l-32.259,8.064C272.806,147.648,270,158.498,270,170c0,11.501,2.806,22.352,7.741,31.936L310,210
				c0,0,30-10,30-40S310,130,310,130z"/>
		</g>
	</g>
</g>
<g>
</g>
<g>
</g>
<g>
</g>
<g>
</g>
<g>
</g>
<g>
</g>
<g>
</g>
<g>
</g>
<g>
</g>
<g>
</g>
<g>
</g>
<g>
</g>
<g>
</g>
<g>
</g>
<g>
</g>
</svg>
