<?xml version="1.0" encoding="utf-8"?>
<!-- Generator: Adobe Illustrator 16.0.4, SVG Export Plug-In . SVG Version: 6.00 Build 0)  -->
<!DOCTYPE svg PUBLIC "-//W3C//DTD SVG 1.1//EN" "http://www.w3.org/Graphics/SVG/1.1/DTD/svg11.dtd">
<svg version="1.1" id="Layer_1" xmlns="http://www.w3.org/2000/svg" xmlns:xlink="http://www.w3.org/1999/xlink" x="0px" y="0px"
	 width="74.667px" height="105.102px" viewBox="0 0 74.667 105.102" enable-background="new 0 0 74.667 105.102"
	 xml:space="preserve">
<path d="M47.307,16.193l5.998-13.409c9.778,1.904,11.309,5.259,11.323,5.296c0.11,0.305,0.398,0.495,0.705,0.495
	c0.086,0,0.172-0.015,0.256-0.044c0.39-0.142,0.591-0.571,0.449-0.96C65.928,7.261,63.009,0,37.333,0
	C11.66,0,8.74,7.261,8.628,7.571C8.49,7.953,8.686,8.37,9.066,8.517c0.38,0.148,0.812-0.044,0.967-0.422
	c0.02-0.047,1.551-3.405,11.328-5.31l6.004,13.418C3.666,18.807,0,30.616,0,34.556c0,4.438,0,50.926,0,50.926
	c0,5.266,4.271,9.535,9.539,9.535h5.115l-5.945,8.918c-0.229,0.346-0.137,0.811,0.209,1.039c0.127,0.086,0.271,0.127,0.416,0.127
	c0.242,0,0.479-0.117,0.625-0.334l6.5-9.75H58.21l6.5,9.75c0.145,0.217,0.383,0.334,0.625,0.334c0.143,0,0.287-0.041,0.414-0.127
	c0.346-0.229,0.438-0.693,0.209-1.039l-5.945-8.92h5.119c5.267,0,9.535-4.27,9.535-9.539c0,0,0-46.194,0-50.926
	C74.667,30.349,71.001,18.747,47.307,16.193z M30.037,25.016h14.598c1.125,0,2.035,0.91,2.035,2.035v0.597
	c0,1.125-0.91,2.035-2.035,2.035H30.037c-1.125,0-2.035-0.91-2.035-2.035v-0.597C28.001,25.926,28.912,25.016,30.037,25.016z
	 M22.882,2.511c3.688-0.607,8.41-1.012,14.451-1.012S48.097,1.904,51.785,2.51l-6.05,13.521c-2.571-0.226-5.364-0.349-8.401-0.349
	c-3.035,0-5.828,0.125-8.398,0.354L22.882,2.511z M16.333,85.681c-3.863,0-7-3.135-7-7c0-3.861,3.137-7,7-7c3.864,0,7,3.139,7,7
	C23.333,82.547,20.198,85.681,16.333,85.681z M58.333,85.681c-3.862,0-7-3.135-7-7c0-3.861,3.138-7,7-7c3.863,0,7,3.139,7,7
	C65.333,82.547,62.197,85.681,58.333,85.681z M65.333,62.99c0,2.227-1.801,4.025-4.026,4.025H13.362
	c-2.226,0-4.026-1.801-4.026-4.025V38.377c0-2.227,1.801-4.027,4.026-4.027h47.945c2.228,0,4.026,1.801,4.026,4.027V62.99
	L65.333,62.99z"/>
</svg>
