<?xml version="1.0" encoding="utf-8"?>
<!-- Generator: Adobe Illustrator 16.0.4, SVG Export Plug-In . SVG Version: 6.00 Build 0)  -->
<!DOCTYPE svg PUBLIC "-//W3C//DTD SVG 1.1//EN" "http://www.w3.org/Graphics/SVG/1.1/DTD/svg11.dtd">
<svg version="1.1" id="Capa_1" xmlns="http://www.w3.org/2000/svg" xmlns:xlink="http://www.w3.org/1999/xlink" x="0px" y="0px"
	 width="19.676px" height="18.211px" viewBox="0 0 19.676 18.211" enable-background="new 0 0 19.676 18.211" preserveAspectRatio="fit">
<path d="M18.54,10.887l1.136-1.184c0,0-0.839-0.473-2.111-0.229c-1.272,0.235-1.879,1.103-1.879,1.103l-0.791-0.543l1.022-1.915
	c0,0-0.987-0.209-2.245-0.164C12.416,8,11.143,8.896,11.143,8.896S10.77,7.849,9.062,6.428C7.358,5.006,5.307,4.752,5.307,4.752
	c0.404,0.701,1.174,3.473,1.174,3.473S5.927,7.542,4.963,7.07C4.19,6.69,3.047,6.592,3.047,6.592l0.581,2.318
	c0,0-0.396-0.648-1.481-1.002C1.372,7.654,0.174,7.894,0.174,7.894l1.271,2.63L0,10.982v0.021l0.234,0.15v0.629H0v1.676h19.229
	v-1.807l-0.66-0.363L18.54,10.887z M1.879,10.961L0.397,8.064L0.95,8.04l1.5,2.972L1.879,10.961z M4.325,11.474
	c0,0-0.183-1.009-0.416-2.119C3.676,8.244,3.212,6.769,3.212,6.769l0.232,0.053c0,0,0.523,0.826,0.866,2.229
	c0.311,1.269,0.362,2.247,0.362,2.247L4.325,11.474z M7.338,11.512c0,0-0.275-1.666-0.638-3.218c-0.363-1.551-1.033-3.23-1.033-3.23
	l0.441,0.104c0,0,0.785,1.299,1.199,3.055c0.413,1.76,0.482,3.669,0.482,3.669L7.338,11.512z M13.475,11.51l1.844-3.33l0.396,0.021
	l-1.754,3.314L13.475,11.51z M14.092,11.56l0.432-0.783l0.291,0.828L14.092,11.56z M17.189,12.084l-0.455-0.065
	c0,0,0.873-0.884,1.433-1.423c0.562-0.536,1.06-0.938,1.06-0.938l0.332,0.071c0,0-0.854,0.825-1.305,1.254
	C17.805,11.408,17.189,12.084,17.189,12.084z"/>
</svg>
