<?xml version='1.0' encoding='iso-8859-1'?>
<svg version="1.1" xmlns="http://www.w3.org/2000/svg" viewBox="0 0 319.212 319.212" xmlns:xlink="http://www.w3.org/1999/xlink" enable-background="new 0 0 319.212 319.212">
  <g>
    <g>
      <circle cx="79.406" cy="293.305" r="25.907"/>
      <path d="m260.37,1.03c-4.954-2.438-10.949-0.399-13.389,4.555-17.125,34.783-14.328,29.103-21.824,44.327-2.863-4.209-7.565-6.562-12.406-6.562-1.994,0-3.939,0.404-5.734,1.15 2.977,6.074 3.568,12.94 1.648,19.47l-.426,1.449-11.69-2.781 .604-2.053c2.456-8.353-2.701-17.197-11.495-18.942-7.606-1.515-15.109,3.072-17.286,10.481l-1.047,3.563-.929-.221c-5.372-1.282-10.765,2.041-12.043,7.414-1.271,5.343 2.006,10.699 7.325,12.017l-.881,2.998h-3.24c-5.523,0-10,4.478-10,10 0,4.642 3.168,8.535 7.457,9.661l-5.657,19.245-32.309,31.155c0.13,5.021-1.306,9.81-3.813,13.749-8.165,12.834-8.339,13.106-20.751,32.618 0.358,2.186-0.89-5.428 6.701,40.877l-19.284-43.454c10.278-16.155 11.178-17.57 23.209-36.482 3.658-5.75 2.049-13.513-3.837-17.256-5.734-3.645-13.507-2.058-17.256,3.837l-26.806,42.135c-2.247,3.532-2.577,7.953-0.879,11.78l21.295,47.985-9.489-12.526-.977,2.757c-3.29,9.286 1.798,19.203 10.65,22.34l.001,.001c32.078,11.366 21.021,7.448 29.417,10.423 8.927,3.161 19.075-1.435 22.34-10.651l16.502-46.575 8.079-22.801 50.889-49.072c1.874-1.807 3.245-4.07 3.979-6.567l9.753-33.177h1.681c5.522,0 10-4.478 10-10 0-0.079-0.01-0.155-0.012-0.233 2.119-1.347 3.738-3.484 4.365-6.12 0.193-0.812 0.269-1.622 0.261-2.42 6.247-12.688 25.09-50.961 31.857-64.705 2.441-4.956 0.402-10.95-4.553-13.389zm-71.838,131.424c-1.544,5.257-4.206,8.974-7.811,12.45-1.525,1.083 2.775-1.292-38.946,20.885l31.265-30.148c1.874-1.807 3.245-4.07 3.979-6.567l9.165-31.177h12.508l-10.16,34.557z"/>
    </g>
  </g>
</svg>
