<?xml version="1.0" encoding="iso-8859-1"?>
<!-- Generator: Adobe Illustrator 19.0.0, SVG Export Plug-In . SVG Version: 6.00 Build 0)  -->
<svg version="1.1" id="Layer_1" xmlns="http://www.w3.org/2000/svg" xmlns:xlink="http://www.w3.org/1999/xlink" x="0px" y="0px"
	 viewBox="0 0 512 512" style="enable-background:new 0 0 512 512;" xml:space="preserve">
<g>
	<g>
		<g>
			<path d="M503.467,426.654H8.533c-4.71,0-8.533,3.823-8.533,8.533s3.823,8.533,8.533,8.533h494.933
				c4.719,0,8.533-3.823,8.533-8.533S508.186,426.654,503.467,426.654z"/>
			<path d="M34.176,367.774c0.435,4.361,4.104,7.68,8.491,7.68h426.667c4.719,0,8.533-3.823,8.533-8.533s-3.814-8.533-8.533-8.533
				h-33.732c1.365-19.789,7.518-71.1,34.91-122.018c-9.566,59.81-9.711,94.669-9.711,96.418c0,4.71,3.814,8.533,8.533,8.533
				s8.533-3.823,8.533-8.533c0-0.503,0.196-51.319,16.905-134.861c0.162-0.828,0.162-1.673,0.077-2.492
				c-0.009-0.085,0.026-0.171,0.017-0.256c-0.017-0.128-0.094-0.247-0.119-0.375c-0.145-0.853-0.401-1.664-0.802-2.432
				c-0.06-0.111-0.077-0.23-0.145-0.341c-0.017-0.026-0.009-0.051-0.026-0.077c-0.009-0.017-0.026-0.017-0.034-0.034
				c-0.358-0.614-0.785-1.186-1.306-1.698c-0.162-0.171-0.384-0.282-0.555-0.435c-0.094-0.085-0.137-0.196-0.239-0.273
				c-0.026-0.017-0.051-0.017-0.068-0.034c-0.102-0.077-0.23-0.12-0.341-0.188c-0.776-0.546-1.613-0.973-2.517-1.229
				c-0.043-0.009-0.085-0.043-0.137-0.051c-0.094-0.026-0.205,0-0.29-0.026c-0.845-0.188-1.698-0.239-2.586-0.171
				c-0.12,0.017-0.239-0.034-0.367-0.017c-0.077,0.009-0.145,0.051-0.213,0.06c-0.136,0.026-0.264,0.009-0.393,0.034
				c-1.732,0.35-170.513,35.729-193.314,170.496h-84.454c25.856-105.617,114.381-162.202,168.986-187.75
				c-54.733,52.446-67.695,89.353-68.301,91.187c-1.493,4.454,0.913,9.259,5.367,10.761c0.896,0.307,1.818,0.452,2.722,0.452
				c3.55,0,6.878-2.244,8.081-5.786c0.145-0.418,12.706-35.285,64.742-85.026c-4.429,13.406-4.557,21.931-4.557,22.562
				c0,4.685,3.78,8.465,8.474,8.499c0.017,0,0.043,0.009,0.06,0.009c4.659,0,8.465-3.78,8.533-8.448
				c0-0.162,0.333-11.733,8.533-29.321v12.194c0,4.71,3.814,8.533,8.533,8.533s8.533-3.823,8.533-8.533v-42.667
				c0-0.179-0.111-0.333-0.119-0.512c-0.026-0.418-0.06-0.819-0.145-1.229c-0.102-0.478-0.282-0.922-0.469-1.374
				c-0.111-0.29-0.162-0.597-0.316-0.87c-0.154-0.282-0.341-0.512-0.529-0.777c-0.119-0.179-0.145-0.393-0.29-0.572
				c-0.239-0.299-0.572-0.444-0.845-0.708c-0.111-0.102-0.188-0.23-0.29-0.333c-0.145-0.119-0.205-0.299-0.35-0.41
				c-0.009-0.009-0.026-0.009-0.043-0.017c-0.008-0.008-0.008-0.017-0.017-0.026c-0.171-0.128-0.375-0.145-0.555-0.265
				c-0.503-0.324-1.033-0.546-1.579-0.751c-0.401-0.154-0.768-0.367-1.186-0.452c-0.154-0.034-0.307-0.043-0.469-0.06
				c-0.486-0.085-0.973-0.043-1.476-0.034c-0.538,0.009-1.058,0.017-1.587,0.128c-0.085,0.017-0.179,0-0.256,0.017
				c-0.085,0.026-0.171-0.009-0.256,0.008c-0.009,0-0.043,0.017-0.051,0.017s-0.017,0.009-0.026,0.009
				c-3.234,0.896-188.075,53.828-226.313,221.542h-85.137c26.095-119.117,123.375-202.581,183.475-244.019
				c-55.04,68.907-73.259,127.676-74.146,130.637c-1.357,4.514,1.212,9.267,5.726,10.624c0.819,0.247,1.638,0.358,2.458,0.358
				c3.669,0,7.057-2.381,8.166-6.084c0.196-0.666,16.862-54.519,66.21-118.571c-5.948,21.786-6.118,38.11-6.118,39.322
				c0,4.71,3.814,8.533,8.533,8.533s8.533-3.823,8.533-8.533c0-0.393,0.265-31.778,17.067-64.819v47.753
				c0,4.71,3.814,8.533,8.533,8.533c4.719,0,8.533-3.823,8.533-8.533v-76.8c0-0.205-0.068-0.401-0.085-0.614
				c-0.017-0.239-0.051-0.461-0.077-0.708c-0.085-0.521-0.213-1.032-0.393-1.527c-0.077-0.222-0.162-0.435-0.265-0.649
				c-0.051-0.119-0.085-0.256-0.145-0.375c-0.043-0.077-0.051-0.154-0.094-0.23c-0.375-0.683-0.853-1.306-1.399-1.86
				c-0.017-0.017-0.026-0.051-0.043-0.068c-0.068-0.06-0.145-0.085-0.213-0.145c-0.077-0.068-0.171-0.128-0.247-0.196
				c-0.094-0.085-0.137-0.205-0.239-0.29c-0.102-0.077-0.213-0.094-0.316-0.162c-0.188-0.137-0.333-0.307-0.538-0.435
				c-0.29-0.179-0.614-0.273-0.922-0.418c-0.213-0.094-0.41-0.205-0.631-0.282c-0.188-0.068-0.35-0.162-0.546-0.213
				c-0.094-0.034-0.205-0.026-0.316-0.06c-0.631-0.154-1.263-0.256-1.911-0.273c-0.179,0-0.333,0.034-0.512,0.043
				c-0.068,0-0.145,0.017-0.205,0.017c-0.222,0.017-0.418,0.026-0.64,0.051c-0.538,0.077-1.067,0.222-1.587,0.401
				c-0.213,0.077-0.418,0.137-0.623,0.222c-0.128,0.06-0.273,0.077-0.401,0.137c-8.414,4.207-203.921,104.021-242.031,289.237
				H50.389L35.209,206.545c19.695,5.99,52.045,25.958,70.767,39.322c3.84,2.722,9.156,1.843,11.904-1.988
				c2.739-3.831,1.852-9.165-1.988-11.904c-0.87-0.623-2.782-1.963-5.35-3.738l-6.938-56.798
				c21.606,3.217,45.909,15.241,46.182,15.386c4.224,2.108,9.344,0.393,11.452-3.823c2.099-4.215,0.393-9.335-3.823-11.452
				c-1.468-0.725-36.25-17.963-63.548-17.963c-2.441,0-4.77,1.05-6.383,2.876c-1.621,1.835-2.381,4.267-2.091,6.69l6.46,52.864
				c-20.497-12.749-49.024-28.297-66.253-28.297c-2.415,0-4.71,1.024-6.323,2.807c-1.621,1.792-2.406,4.173-2.167,6.579
				L34.176,367.774z M454.238,230.507c-28.706,54.195-34.594,107.529-35.797,127.881h-33.178
				C389.086,335.987,403.644,276.894,454.238,230.507z M440.209,220.053c-55.006,51.567-68.992,116.07-72.294,138.334h-59.273
				C323.226,280.93,392.149,239.74,440.209,220.053z"/>
			<path d="M25.6,409.587h460.8c4.719,0,8.533-3.823,8.533-8.533c0-4.71-3.814-8.533-8.533-8.533H25.6
				c-4.71,0-8.533,3.823-8.533,8.533C17.067,405.764,20.89,409.587,25.6,409.587z"/>
		</g>
	</g>
</g>
<g>
</g>
<g>
</g>
<g>
</g>
<g>
</g>
<g>
</g>
<g>
</g>
<g>
</g>
<g>
</g>
<g>
</g>
<g>
</g>
<g>
</g>
<g>
</g>
<g>
</g>
<g>
</g>
<g>
</g>
</svg>
