<?xml version="1.0" encoding="iso-8859-1"?>
<!-- Generator: Adobe Illustrator 18.0.0, SVG Export Plug-In . SVG Version: 6.00 Build 0)  -->
<!DOCTYPE svg PUBLIC "-//W3C//DTD SVG 1.1//EN" "http://www.w3.org/Graphics/SVG/1.1/DTD/svg11.dtd">
<svg version="1.1" id="Capa_1" xmlns="http://www.w3.org/2000/svg" xmlns:xlink="http://www.w3.org/1999/xlink" x="0px" y="0px"
	 viewBox="0 0 44 44" style="enable-background:new 0 0 44 44;" xml:space="preserve">
<g>
	<circle cx="13" cy="18" r="3"/>
	<path d="M20,18c0-3.859-3.141-7-7-7s-7,3.141-7,7s3.141,7,7,7S20,21.859,20,18z M13,23c-2.757,0-5-2.243-5-5s2.243-5,5-5
		s5,2.243,5,5S15.757,23,13,23z"/>
	<circle cx="31" cy="18" r="3"/>
	<path d="M31,11c-3.859,0-7,3.141-7,7s3.141,7,7,7s7-3.141,7-7S34.859,11,31,11z M31,23c-2.757,0-5-2.243-5-5s2.243-5,5-5
		s5,2.243,5,5S33.757,23,31,23z"/>
	<path d="M22,0C9.869,0,0,9.869,0,22s9.869,22,22,22s22-9.869,22-22S34.131,0,22,0z M22,42C10.972,42,2,33.028,2,22S10.972,2,22,2
		s20,8.972,20,20S33.028,42,22,42z"/>
	<path d="M22,26c-3.309,0-6,2.691-6,6s2.691,6,6,6s6-2.691,6-6S25.309,26,22,26z M22,36c-2.206,0-4-1.794-4-4s1.794-4,4-4
		s4,1.794,4,4S24.206,36,22,36z"/>
	<path d="M18.71,12.742C18.901,12.915,19.142,13,19.381,13c0.272,0,0.544-0.111,0.742-0.329c0.37-0.41,0.338-1.042-0.071-1.413
		l-6.381-5.77c-0.409-0.369-1.04-0.338-1.413,0.071c-0.37,0.41-0.338,1.042,0.071,1.413L18.71,12.742z"/>
	<path d="M24.619,13c0.239,0,0.479-0.085,0.671-0.258l6.381-5.77c0.409-0.371,0.441-1.003,0.071-1.413
		c-0.372-0.409-1.003-0.44-1.413-0.071l-6.381,5.77c-0.409,0.371-0.441,1.003-0.071,1.413C24.075,12.889,24.347,13,24.619,13z"/>
</g>
<g>
</g>
<g>
</g>
<g>
</g>
<g>
</g>
<g>
</g>
<g>
</g>
<g>
</g>
<g>
</g>
<g>
</g>
<g>
</g>
<g>
</g>
<g>
</g>
<g>
</g>
<g>
</g>
<g>
</g>
</svg>
