<?xml version="1.0" encoding="utf-8"?>
<!-- Generator: Adobe Illustrator 17.0.2, SVG Export Plug-In . SVG Version: 6.00 Build 0)  -->
<!DOCTYPE svg PUBLIC "-//W3C//DTD SVG 1.1//EN" "http://www.w3.org/Graphics/SVG/1.1/DTD/svg11.dtd">
<svg version="1.1" id="Capa_1" xmlns="http://www.w3.org/2000/svg" xmlns:xlink="http://www.w3.org/1999/xlink" x="0px" y="0px"
	 width="64px" height="64px" viewBox="0 0 64 64" enable-background="new 0 0 64 64" xml:space="preserve">
<path d="M55.074,24.669C52.1,16.464,44.7,10.488,36.055,9.041c-0.143-0.053-0.297-0.094-0.472-0.104
	c-0.11-0.006-0.224-0.005-0.335-0.01C34.179,8.784,33.097,8.695,32,8.695c-10.327,0-19.644,6.51-23.074,15.974
	C4.547,24.719,1,28.296,1,32.687s3.547,7.969,7.926,8.019C12.356,50.169,21.673,56.679,32,56.679s19.644-6.51,23.074-15.974
	C59.453,40.655,63,37.077,63,32.687S59.453,24.719,55.074,24.669z M54.98,37.706c-0.216,0-0.453-0.02-0.744-0.062l-1.275-0.187
	l-0.376,1.233C49.894,47.516,41.429,53.679,32,53.679S14.106,47.516,11.415,38.69l-0.376-1.233l-1.275,0.187
	c-0.291,0.043-0.528,0.062-0.744,0.062c-2.768,0-5.02-2.252-5.02-5.02s2.252-5.019,5.02-5.019c0.219,0,0.461,0.021,0.74,0.062
	l1.278,0.19l0.377-1.236c1.825-5.983,6.306-10.734,11.939-13.18c-1.258,2.785,0.45,6.219,3.297,7.559
	c3.547,1.669,9.286,1.887,11.707-1.744c1.091-1.636,0.122-3.705-1.198-4.825c-1.847-1.567-4.531-1.79-6.725-0.919
	c-1.776,0.705-1.003,3.607,0.798,2.893c1.304-0.517,2.492-0.556,3.743,0.131c1.717,0.944,0.135,2.022-1.065,2.367
	c-2.237,0.643-5.538,0.118-7.287-1.452c-2.208-1.982,0.636-4.231,2.396-4.847c1.908-0.668,4.004-0.816,6.023-0.743
	c8.162,1.161,15.145,6.897,17.543,14.76l0.377,1.236l1.278-0.19c0.279-0.041,0.521-0.062,0.74-0.062c2.768,0,5.02,2.251,5.02,5.019
	S57.748,37.706,54.98,37.706z"/>
<path d="M28.398,31.288c-0.828,0-1.5,0.672-1.5,1.5v0c0,1.599-1.3,2.898-2.898,2.898s-2.898-1.3-2.898-2.898v0
	c0-0.828-0.672-1.5-1.5-1.5s-1.5,0.672-1.5,1.5c0,3.252,2.646,5.898,5.898,5.898s5.898-2.646,5.898-5.898
	C29.898,31.96,29.227,31.288,28.398,31.288z"/>
<path d="M43.398,31.288c-0.828,0-1.5,0.672-1.5,1.5v0c0,1.599-1.3,2.898-2.898,2.898s-2.898-1.3-2.898-2.898v0
	c0-0.828-0.672-1.5-1.5-1.5s-1.5,0.672-1.5,1.5c0,3.252,2.646,5.898,5.898,5.898s5.898-2.646,5.898-5.898
	C44.898,31.96,44.227,31.288,43.398,31.288z"/>
<path d="M31.75,40.625c-1.935,0-1.935,3,0,3S33.685,40.625,31.75,40.625z"/>
<path d="M49.192,8.99c-0.399,0.438-0.503,1.072-0.263,1.616c0.24,0.543,0.778,0.894,1.372,0.894h6.375c0.828,0,1.5-0.672,1.5-1.5
	s-0.672-1.5-1.5-1.5h-1.366h-1.614l0.807-0.886l3.283-3.604c0.399-0.438,0.503-1.072,0.263-1.616
	C57.809,1.851,57.271,1.5,56.677,1.5h-6.375c-0.828,0-1.5,0.672-1.5,1.5s0.672,1.5,1.5,1.5h1.366h1.614l-0.807,0.886L49.192,8.99z"
	/>
<path d="M54.272,20.133c0.24,0.543,0.778,0.894,1.372,0.894h3.689c0.828,0,1.5-0.672,1.5-1.5s-0.672-1.5-1.5-1.5h-0.296l1.405-1.543
	c0.399-0.439,0.503-1.073,0.263-1.616s-0.778-0.894-1.372-0.894h-3.689c-0.828,0-1.5,0.672-1.5,1.5s0.672,1.5,1.5,1.5h0.296
	l-1.405,1.543C54.136,18.956,54.032,19.59,54.272,20.133z"/>
</svg>
