<?xml version="1.0" encoding="iso-8859-1"?>
<!-- Generator: Adobe Illustrator 18.1.1, SVG Export Plug-In . SVG Version: 6.00 Build 0)  -->
<svg version="1.1" id="Capa_1" xmlns="http://www.w3.org/2000/svg" xmlns:xlink="http://www.w3.org/1999/xlink" x="0px" y="0px"
	 viewBox="0 0 19.675 19.675" style="enable-background:new 0 0 19.675 19.675;" xml:space="preserve">
<g>
	<path style="fill:#030104;" d="M18.494,13.318l-0.002-1.238h-1.236l-0.002-1.236h-1.236l-0.001-1.238H14.78l-0.001-1.234H13.54
		v-1.24h-1.199V5.615h0.136V5.053H7.283v0.562h0.136v1.494l-0.024,0.02h-1.19v1.24H4.966L4.965,9.604H3.728v1.238H2.49v1.236H1.251
		v1.238H0.014l-0.001,0.889H0v0.416h19.675v-1.304H18.494z M1.258,13.339v-0.014h0.015L1.258,13.339z M6.211,8.373h0.012
		L6.211,8.387V8.373z M4.972,9.61h0.013L4.972,9.625V9.61z M3.734,10.851h0.014l-0.014,0.013V10.851z M2.496,12.102v-0.016h0.015
		L2.496,12.102z M5.913,14.132H3.452l3.989-5.758h0.007v-0.01l0.686-0.988h1.442L5.913,14.132z M17.457,14.129l-6.428-6.811h1.004
		l6.538,6.811H17.457z"/>
</g>
<g>
</g>
<g>
</g>
<g>
</g>
<g>
</g>
<g>
</g>
<g>
</g>
<g>
</g>
<g>
</g>
<g>
</g>
<g>
</g>
<g>
</g>
<g>
</g>
<g>
</g>
<g>
</g>
<g>
</g>
</svg>
