<?xml version="1.0" encoding="iso-8859-1"?>
<!-- Generator: Adobe Illustrator 19.0.0, SVG Export Plug-In . SVG Version: 6.00 Build 0)  -->
<svg version="1.1" id="Capa_1" xmlns="http://www.w3.org/2000/svg" xmlns:xlink="http://www.w3.org/1999/xlink" x="0px" y="0px"
	 viewBox="0 0 463 463" style="enable-background:new 0 0 463 463;" xml:space="preserve">
<g>
	<path d="M311.5,200h-57.851l-5.508-27.54c-1.025-5.126-4.551-9.242-9.141-11.206V45.766c9.29-3.138,16-11.93,16-22.266
		C255,10.542,244.458,0,231.5,0S208,10.542,208,23.5c0,10.336,6.71,19.128,16,22.266v115.489c-4.59,1.963-8.115,6.08-9.141,11.206
		L209.351,200H151.5c-12.958,0-23.5,10.542-23.5,23.5v216c0,12.958,10.542,23.5,23.5,23.5h160c12.958,0,23.5-10.542,23.5-23.5v-216
		C335,210.542,324.458,200,311.5,200z M231.5,15c4.687,0,8.5,3.813,8.5,8.5s-3.813,8.5-8.5,8.5s-8.5-3.813-8.5-8.5
		S226.813,15,231.5,15z M229.568,175.402c0.047-0.233,0.253-0.402,0.49-0.402h2.883c0.237,0,0.443,0.169,0.49,0.402l4.92,24.598
		h-13.703L229.568,175.402z M320,439.5c0,4.687-3.813,8.5-8.5,8.5h-160c-4.687,0-8.5-3.813-8.5-8.5v-216c0-4.687,3.813-8.5,8.5-8.5
		h160c4.687,0,8.5,3.813,8.5,8.5V439.5z"/>
	<path d="M287.5,240h-112c-8.547,0-15.5,6.953-15.5,15.5v136c0,8.547,6.953,15.5,15.5,15.5h112c8.547,0,15.5-6.953,15.5-15.5v-136
		C303,246.953,296.047,240,287.5,240z M288,255.5v8.5h-24.5c-0.275,0-0.5-0.224-0.5-0.5V255h24.5C287.775,255,288,255.224,288,255.5
		z M175.5,255H200v8.5c0,0.276-0.225,0.5-0.5,0.5H175v-8.5C175,255.224,175.225,255,175.5,255z M287.5,392h-112
		c-0.275,0-0.5-0.224-0.5-0.5V279h24.5c8.547,0,15.5-6.953,15.5-15.5V255h33v8.5c0,8.547,6.953,15.5,15.5,15.5H288v112.5
		C288,391.776,287.775,392,287.5,392z"/>
	<path d="M231.5,296c-21.78,0-39.5,17.72-39.5,39.5s17.72,39.5,39.5,39.5s39.5-17.72,39.5-39.5S253.28,296,231.5,296z M231.5,360
		c-13.51,0-24.5-10.991-24.5-24.5s10.99-24.5,24.5-24.5s24.5,10.991,24.5,24.5S245.01,360,231.5,360z"/>
</g>
<g>
</g>
<g>
</g>
<g>
</g>
<g>
</g>
<g>
</g>
<g>
</g>
<g>
</g>
<g>
</g>
<g>
</g>
<g>
</g>
<g>
</g>
<g>
</g>
<g>
</g>
<g>
</g>
<g>
</g>
</svg>
