<?xml version="1.0" encoding="iso-8859-1"?>
<!-- Generator: Adobe Illustrator 18.1.1, SVG Export Plug-In . SVG Version: 6.00 Build 0)  -->
<svg version="1.1" id="Capa_1" xmlns="http://www.w3.org/2000/svg" xmlns:xlink="http://www.w3.org/1999/xlink" x="0px" y="0px"
	 viewBox="0 0 34.058 34.058" style="enable-background:new 0 0 34.058 34.058;" xml:space="preserve">
<g>
	<path d="M3.714,23.755c0,0-1.833,7.199-2.489,10.014l3.52-4.818c-0.319-0.709-0.126-1.789,0.432-2.4
		c0.751-0.818,2.088-0.818,2.907-0.068c0.822,0.752,0.877,2.023,0.127,2.844C7.642,29.95,6.589,30.2,5.845,29.923l-4.398,4.135
		l9.277-3.592l3.727-5.586l-4.877-4.568L3.714,23.755z M29.794,0.067c-1.408,0.965-19.025,18.871-19.025,18.871l4.961,4.736
		c0,0,14.936-17.674,17.104-21.27C32.516-0.622,29.794,0.067,29.794,0.067z"/>
	<g>
	</g>
	<g>
	</g>
	<g>
	</g>
	<g>
	</g>
	<g>
	</g>
	<g>
	</g>
	<g>
	</g>
	<g>
	</g>
	<g>
	</g>
	<g>
	</g>
	<g>
	</g>
	<g>
	</g>
	<g>
	</g>
	<g>
	</g>
	<g>
	</g>
</g>
<g>
</g>
<g>
</g>
<g>
</g>
<g>
</g>
<g>
</g>
<g>
</g>
<g>
</g>
<g>
</g>
<g>
</g>
<g>
</g>
<g>
</g>
<g>
</g>
<g>
</g>
<g>
</g>
<g>
</g>
</svg>
