<?xml version="1.0" encoding="iso-8859-1"?>
<!-- Generator: Adobe Illustrator 17.1.0, SVG Export Plug-In . SVG Version: 6.00 Build 0)  -->
<!DOCTYPE svg PUBLIC "-//W3C//DTD SVG 1.1//EN" "http://www.w3.org/Graphics/SVG/1.1/DTD/svg11.dtd">
<svg version="1.1" id="Capa_1" xmlns="http://www.w3.org/2000/svg" xmlns:xlink="http://www.w3.org/1999/xlink" x="0px" y="0px"
	 viewBox="0 0 200 200" style="enable-background:new 0 0 200 200;" xml:space="preserve">
<g>
	<path d="M115.531,82.105c-0.557-0.159-1.232,0.353-1.64,0.668c-0.481,0.373-0.857,1.011-1.188,1.519
		c-0.673,1.032-1.076,2.297-1.361,3.487c-0.136,0.844-1.948,3.194,0.299,1.754c0.691-0.443,1.597,0.388,2.39,0.544
		c0.816,0.161,1.587,0.263,2.417,0.146c1.875-0.264,2.786-1.505,3.603-3.086c0.755-1.462,1.735-3.162,1.841-4.843
		c0.027-0.16,0.239-0.469-0.016-0.547c-0.274-0.027-0.545-0.074-0.818-0.103c-0.462-0.049-0.953-0.013-1.403,0.104
		c-0.87,0.227-1.826,0.397-2.537,0.981c-0.235,0.193-2.063,2.299-2.285,1.63c-0.183-0.328,0.339-0.95,0.482-1.224
		C115.415,82.945,115.756,82.318,115.531,82.105z"/>
	<path d="M38.702,74.598c-0.536,0.458-1.015-2.29-1.116-2.576c-0.308-0.867-1.039-1.506-1.667-2.149
		c-0.325-0.333-0.727-0.616-1.148-0.813c-0.249-0.116-0.505-0.216-0.754-0.334c-0.258-0.065-0.236,0.309-0.296,0.46
		c-0.777,1.493-0.815,3.456-0.922,5.098c-0.116,1.776,0.024,3.309,1.494,4.503c0.651,0.529,1.364,0.839,2.146,1.122
		c0.76,0.275,1.965,0.032,2.328,0.767c1.182,2.393,0.843-0.555,1.161-1.348c0.37-1.166,0.677-2.457,0.633-3.689
		c-0.022-0.606-0.015-1.346-0.234-1.914c-0.187-0.481-0.501-1.268-1.06-1.419c-0.303,0.066-0.334,0.779-0.347,0.995
		C38.902,73.61,39.029,74.412,38.702,74.598z"/>
	<path d="M41.64,98.382c0.893,0.947,1.928,1.569,3.073,2.164c1.114,0.578,3.018,0.45,3.427,1.655
		c1.331,3.923,1.41-0.683,2.062-1.838c0.807-1.719,1.543-3.643,1.727-5.547c0.09-0.937,0.252-2.075,0.03-2.993
		c-0.189-0.778-0.513-2.053-1.342-2.399c-0.48,0.04-0.673,1.13-0.737,1.46c-0.091,0.471-0.06,1.731-0.6,1.951
		c-0.918,0.596-1.095-3.73-1.193-4.191c-0.297-1.397-1.291-2.528-2.127-3.647c-0.432-0.578-0.993-1.096-1.601-1.485
		c-0.36-0.23-0.733-0.436-1.092-0.668c-0.384-0.153-0.426,0.427-0.549,0.648c-1.5,2.14-1.958,5.152-2.458,7.657
		C39.719,93.858,39.621,96.245,41.64,98.382z"/>
	<path d="M88.667,65.913c-0.48,0.04-0.673,1.13-0.737,1.46c-0.091,0.471-0.06,1.731-0.6,1.951c-0.918,0.596-1.095-3.73-1.193-4.191
		c-0.297-1.397-1.291-2.529-2.127-3.647c-0.432-0.578-0.993-1.096-1.601-1.485c-0.36-0.23-0.733-0.436-1.092-0.668
		c-0.384-0.153-0.426,0.427-0.549,0.648c-1.5,2.14-1.958,5.152-2.458,7.657c-0.54,2.709-0.638,5.097,1.381,7.234
		c0.893,0.947,1.928,1.569,3.073,2.164c1.114,0.578,3.018,0.45,3.427,1.655c1.331,3.923,1.41-0.682,2.062-1.838
		c0.807-1.719,1.543-3.643,1.727-5.547c0.09-0.937,0.252-2.075,0.03-2.993C89.819,67.534,89.496,66.259,88.667,65.913z"/>
	<path d="M150.47,58.419c-0.297-1.397-1.291-2.528-2.127-3.647c-0.432-0.578-0.993-1.096-1.601-1.485
		c-0.36-0.23-0.733-0.436-1.092-0.668c-0.384-0.153-0.426,0.427-0.549,0.648c-1.5,2.14-1.958,5.152-2.458,7.657
		c-0.54,2.709-0.638,5.097,1.381,7.234c0.893,0.947,1.928,1.569,3.073,2.164c1.114,0.578,3.018,0.45,3.427,1.655
		c1.331,3.923,1.411-0.683,2.062-1.838c0.807-1.719,1.543-3.643,1.727-5.547c0.09-0.937,0.252-2.075,0.03-2.993
		c-0.189-0.778-0.512-2.053-1.342-2.399c-0.48,0.04-0.673,1.13-0.737,1.46c-0.092,0.471-0.06,1.731-0.601,1.951
		C150.744,63.206,150.567,58.88,150.47,58.419z"/>
	<path d="M59.773,46.646c-0.426,0.023-0.85,0.074-1.276,0.095c-0.401,0.1-0.097,0.596-0.068,0.847
		c0.031,2.613,1.417,5.326,2.474,7.652c1.143,2.515,2.457,4.51,5.344,5.067c1.278,0.247,2.481,0.148,3.758-0.037
		c1.242-0.18,2.713-1.396,3.748-0.656c3.37,2.409,0.747-1.378,0.601-2.696c-0.348-1.867-0.874-3.859-1.836-5.512
		c-0.474-0.813-1.007-1.832-1.723-2.448c-0.608-0.521-1.614-1.368-2.49-1.165c-0.366,0.313,0.113,1.311,0.254,1.616
		c0.201,0.436,0.961,1.44,0.651,1.935c-0.398,1.019-3.066-2.389-3.415-2.707c-1.056-0.961-2.524-1.299-3.856-1.72
		C61.251,46.7,60.493,46.607,59.773,46.646z"/>
	<path d="M69.853,28.527c-0.547-1.319-1.731-2.25-2.757-3.197c-0.53-0.489-1.176-0.897-1.845-1.168
		c-0.396-0.16-0.801-0.295-1.196-0.457c-0.406-0.08-0.341,0.498-0.421,0.738c-1.084,2.378-0.984,5.423-1.018,7.977
		c-0.036,2.763,0.304,5.127,2.679,6.86c1.051,0.767,2.182,1.19,3.417,1.566c1.201,0.365,3.049-0.109,3.671,1.001
		c2.025,3.614,1.262-0.929,1.692-2.184c0.479-1.837,0.852-3.864,0.684-5.769c-0.083-0.938-0.131-2.086-0.518-2.949
		c-0.328-0.731-0.879-1.925-1.757-2.114c-0.465,0.127-0.456,1.234-0.458,1.57c-0.004,0.48,0.257,1.712-0.234,2.028
		C70.997,33.183,70.034,28.963,69.853,28.527z"/>
	<path d="M79.123,15.075c-0.547-1.319-1.731-2.25-2.757-3.197c-0.53-0.489-1.176-0.897-1.845-1.168
		c-0.396-0.16-0.801-0.295-1.196-0.457c-0.406-0.08-0.341,0.498-0.421,0.738c-1.084,2.378-0.984,5.423-1.018,7.977
		c-0.036,2.763,0.304,5.127,2.679,6.86c1.051,0.767,2.182,1.19,3.417,1.566c1.201,0.365,3.049-0.109,3.671,1.001
		c2.025,3.614,1.262-0.929,1.692-2.184c0.48-1.837,0.852-3.864,0.684-5.769c-0.083-0.938-0.131-2.086-0.518-2.949
		c-0.328-0.731-0.879-1.925-1.757-2.114c-0.465,0.127-0.456,1.234-0.458,1.57c-0.004,0.48,0.257,1.712-0.234,2.028
		C80.268,19.731,79.304,15.511,79.123,15.075z"/>
	<path d="M53.216,24.834c-0.547-1.319-1.731-2.25-2.757-3.197c-0.53-0.489-1.176-0.897-1.845-1.168
		c-0.396-0.16-0.801-0.295-1.196-0.457c-0.406-0.08-0.341,0.498-0.421,0.738c-1.084,2.378-0.984,5.423-1.018,7.977
		c-0.036,2.763,0.304,5.127,2.679,6.86c1.051,0.767,2.182,1.19,3.417,1.566c1.201,0.365,3.049-0.109,3.671,1.001
		c2.025,3.614,1.262-0.929,1.692-2.184c0.48-1.837,0.852-3.864,0.684-5.769c-0.083-0.938-0.131-2.086-0.518-2.948
		c-0.328-0.731-0.879-1.925-1.757-2.114c-0.465,0.127-0.456,1.234-0.458,1.57c-0.004,0.48,0.257,1.712-0.234,2.028
		C54.361,29.49,53.397,25.27,53.216,24.834z"/>
	<path d="M123.866,14.467c-0.162-0.703-0.467-1.404-0.867-2.004c-0.237-0.355-0.496-0.695-0.73-1.051
		c-0.29-0.295-0.562,0.219-0.764,0.372c-2.235,1.354-3.868,3.927-5.334,6.018c-1.586,2.262-2.637,4.408-1.651,7.177
		c0.437,1.226,1.133,2.213,1.941,3.218c0.786,0.978,2.581,1.627,2.469,2.895c-0.363,4.126,1.566-0.056,2.628-0.852
		c1.431-1.248,2.88-2.713,3.815-4.381c0.46-0.821,1.067-1.798,1.233-2.728c0.14-0.789,0.358-2.085-0.261-2.737
		c-0.456-0.156-1.072,0.763-1.263,1.04c-0.274,0.394-0.752,1.56-1.336,1.544c-1.08,0.175,0.501-3.855,0.597-4.317
		C124.635,17.264,124.181,15.827,123.866,14.467z"/>
	<path d="M94.362,11.867c-0.32-0.646-0.778-1.258-1.306-1.75c-0.312-0.291-0.643-0.561-0.953-0.854
		c-0.35-0.22-0.497,0.343-0.657,0.538c-1.862,1.833-2.857,4.713-3.802,7.086c-1.021,2.567-1.549,4.897,0.05,7.364
		c0.708,1.092,1.613,1.891,2.631,2.684c0.991,0.77,2.887,0.988,3.071,2.247c0.599,4.099,1.511-0.416,2.36-1.435
		c1.104-1.544,2.176-3.304,2.701-5.144c0.258-0.905,0.623-1.995,0.57-2.939c-0.046-0.8-0.133-2.112-0.886-2.602
		c-0.479-0.047-0.867,0.99-0.989,1.303c-0.175,0.447-0.372,1.691-0.943,1.81c-1.011,0.42-0.403-3.866-0.415-4.338
		C95.755,14.411,94.982,13.118,94.362,11.867z"/>
	<path d="M27.124,94.11c-0.474-0.813-1.007-1.832-1.723-2.448c-0.608-0.521-1.614-1.368-2.49-1.165
		c-0.366,0.313,0.113,1.311,0.254,1.616c0.201,0.436,0.961,1.44,0.651,1.935c-0.398,1.02-3.066-2.389-3.415-2.707
		c-1.056-0.961-2.524-1.299-3.856-1.72c-0.688-0.217-1.446-0.311-2.166-0.271c-0.426,0.023-0.85,0.074-1.276,0.095
		c-0.401,0.1-0.097,0.596-0.068,0.847c0.031,2.613,1.417,5.326,2.474,7.652c1.143,2.515,2.457,4.511,5.344,5.067
		c1.278,0.247,2.481,0.148,3.758-0.037c1.242-0.18,2.713-1.396,3.748-0.656c3.37,2.409,0.747-1.378,0.601-2.696
		C28.612,97.756,28.087,95.764,27.124,94.11z"/>
	<path d="M41.06,39.057c-0.688-0.217-1.446-0.311-2.166-0.271c-0.426,0.023-0.85,0.074-1.276,0.095
		c-0.401,0.1-0.097,0.596-0.067,0.847c0.031,2.613,1.417,5.326,2.474,7.652c1.143,2.515,2.457,4.511,5.344,5.067
		c1.278,0.247,2.481,0.148,3.758-0.037c1.242-0.18,2.713-1.396,3.748-0.656c3.37,2.409,0.747-1.378,0.601-2.696
		c-0.348-1.867-0.874-3.859-1.836-5.512c-0.474-0.813-1.007-1.832-1.723-2.448c-0.608-0.521-1.614-1.368-2.49-1.165
		c-0.366,0.313,0.113,1.311,0.254,1.616c0.201,0.436,0.961,1.44,0.651,1.935c-0.398,1.02-3.066-2.389-3.415-2.707
		C43.859,39.816,42.391,39.477,41.06,39.057z"/>
	<path d="M113.789,41.45c-0.856,0.275-1.286,1.517-1.541,2.276c-0.3,0.896-0.235,2.044-0.225,2.985
		c0.02,1.913,0.59,3.893,1.248,5.674c0.551,1.207,0.238,5.802,1.898,2.007c0.51-1.166,2.396-0.876,3.555-1.357
		c1.192-0.495,2.275-1.027,3.246-1.894c2.193-1.957,2.299-4.344,1.992-7.09c-0.285-2.538-0.485-5.578-1.797-7.838
		c-0.103-0.23-0.096-0.812-0.492-0.693c-0.377,0.2-0.767,0.374-1.145,0.572c-0.639,0.335-1.242,0.804-1.721,1.343
		c-0.928,1.043-2.015,2.086-2.43,3.452c-0.137,0.451-0.682,4.746-1.546,4.074c-0.52-0.266-0.381-1.518-0.432-1.995
		C114.363,42.634,114.264,41.532,113.789,41.45z"/>
	<path d="M82.831,39.98c-0.137,0.451-0.682,4.746-1.546,4.074c-0.52-0.266-0.381-1.518-0.432-1.995
		c-0.036-0.334-0.135-1.437-0.61-1.518c-0.856,0.275-1.286,1.517-1.541,2.276c-0.3,0.896-0.235,2.044-0.225,2.985
		c0.02,1.913,0.59,3.893,1.248,5.674c0.551,1.207,0.238,5.802,1.898,2.007c0.51-1.166,2.396-0.876,3.555-1.357
		c1.192-0.495,2.275-1.027,3.246-1.894c2.193-1.957,2.299-4.344,1.992-7.09c-0.284-2.538-0.485-5.578-1.797-7.838
		c-0.103-0.23-0.096-0.812-0.492-0.693c-0.377,0.2-0.767,0.374-1.145,0.572c-0.639,0.335-1.242,0.804-1.721,1.343
		C84.332,37.571,83.245,38.614,82.831,39.98z"/>
	<path d="M102.51,42.164c0.51-1.166,2.396-0.876,3.555-1.357c1.192-0.495,2.276-1.027,3.246-1.894c2.194-1.957,2.3-4.344,1.992-7.09
		c-0.284-2.538-0.484-5.578-1.797-7.838c-0.103-0.23-0.096-0.812-0.492-0.693c-0.377,0.2-0.767,0.374-1.145,0.572
		c-0.639,0.335-1.242,0.804-1.721,1.343c-0.928,1.043-2.015,2.086-2.43,3.452c-0.137,0.451-0.682,4.746-1.546,4.074
		c-0.52-0.266-0.381-1.518-0.432-1.995c-0.036-0.334-0.135-1.437-0.61-1.518c-0.856,0.275-1.286,1.517-1.541,2.276
		c-0.3,0.896-0.235,2.044-0.225,2.985c0.02,1.913,0.59,3.893,1.248,5.674C101.163,41.364,100.85,45.959,102.51,42.164z"/>
	<path d="M150.257,30.894c-0.103-0.23-0.096-0.812-0.492-0.693c-0.377,0.2-0.767,0.374-1.145,0.572
		c-0.639,0.335-1.242,0.804-1.721,1.343c-0.928,1.043-2.015,2.086-2.43,3.452c-0.137,0.451-0.682,4.746-1.546,4.074
		c-0.52-0.266-0.381-1.518-0.432-1.995c-0.036-0.334-0.135-1.437-0.61-1.518c-0.856,0.275-1.286,1.517-1.541,2.276
		c-0.3,0.896-0.235,2.044-0.225,2.985c0.021,1.913,0.59,3.893,1.248,5.674c0.551,1.207,0.238,5.802,1.898,2.007
		c0.51-1.166,2.396-0.876,3.555-1.357c1.192-0.495,2.276-1.027,3.246-1.894c2.194-1.957,2.3-4.344,1.992-7.09
		C151.769,36.194,151.569,33.154,150.257,30.894z"/>
	<path d="M136.798,20.713c-0.103-0.23-0.096-0.812-0.492-0.693c-0.377,0.2-0.767,0.374-1.145,0.572
		c-0.639,0.335-1.242,0.804-1.721,1.343c-0.928,1.043-2.015,2.086-2.43,3.452c-0.137,0.451-0.682,4.746-1.546,4.074
		c-0.52-0.266-0.381-1.518-0.432-1.995c-0.036-0.334-0.135-1.437-0.61-1.518c-0.856,0.275-1.286,1.517-1.541,2.276
		c-0.3,0.896-0.235,2.044-0.225,2.985c0.021,1.913,0.59,3.893,1.248,5.674c0.551,1.207,0.238,5.802,1.898,2.007
		c0.51-1.166,2.396-0.876,3.555-1.357c1.192-0.495,2.276-1.027,3.246-1.894c2.193-1.957,2.3-4.344,1.992-7.09
		C138.311,26.014,138.11,22.973,136.798,20.713z"/>
	<path d="M155.804,84.965c-0.377,0.2-0.767,0.374-1.145,0.572c-0.639,0.335-1.242,0.804-1.721,1.343
		c-0.928,1.043-2.015,2.086-2.43,3.452c-0.137,0.451-0.682,4.746-1.546,4.074c-0.52-0.266-0.381-1.518-0.432-1.995
		c-0.036-0.334-0.135-1.437-0.61-1.518c-0.856,0.275-1.286,1.517-1.541,2.276c-0.3,0.896-0.235,2.044-0.225,2.985
		c0.021,1.913,0.59,3.893,1.248,5.674c0.551,1.207,0.238,5.802,1.898,2.007c0.51-1.166,2.396-0.876,3.555-1.357
		c1.192-0.495,2.275-1.027,3.246-1.894c2.193-1.957,2.3-4.344,1.992-7.09c-0.284-2.538-0.485-5.578-1.797-7.838
		C156.193,85.427,156.2,84.845,155.804,84.965z"/>
	<path d="M159.47,54.393c0.51-1.166,2.396-0.876,3.555-1.357c1.192-0.495,2.275-1.027,3.246-1.894
		c2.193-1.957,2.299-4.344,1.992-7.09c-0.285-2.538-0.485-5.578-1.797-7.838c-0.104-0.23-0.096-0.812-0.492-0.693
		c-0.377,0.2-0.767,0.374-1.145,0.572c-0.639,0.335-1.242,0.804-1.721,1.343c-0.928,1.043-2.015,2.086-2.43,3.452
		c-0.137,0.451-0.682,4.746-1.546,4.074c-0.52-0.266-0.381-1.518-0.432-1.995c-0.035-0.334-0.135-1.437-0.61-1.518
		c-0.856,0.275-1.286,1.517-1.541,2.276c-0.3,0.896-0.235,2.044-0.225,2.985c0.021,1.913,0.59,3.893,1.248,5.674
		C158.123,53.593,157.81,58.188,159.47,54.393z"/>
	<path d="M137.301,49.525c-0.48,0.04-0.673,1.131-0.737,1.46c-0.091,0.471-0.06,1.731-0.6,1.951
		c-0.918,0.596-1.095-3.73-1.193-4.191c-0.297-1.397-1.291-2.529-2.127-3.647c-0.432-0.578-0.993-1.096-1.601-1.485
		c-0.36-0.23-0.734-0.436-1.092-0.668c-0.384-0.153-0.426,0.427-0.549,0.648c-1.5,2.14-1.958,5.152-2.458,7.657
		c-0.54,2.709-0.638,5.097,1.381,7.234c0.894,0.947,1.928,1.569,3.073,2.164c1.114,0.579,3.018,0.45,3.427,1.655
		c1.331,3.923,1.41-0.682,2.062-1.838c0.807-1.719,1.543-3.643,1.726-5.547c0.09-0.937,0.252-2.075,0.03-2.993
		C138.453,51.146,138.13,49.872,137.301,49.525z"/>
	<path d="M188.263,73.723c-0.425-0.043-0.845-0.115-1.27-0.16c-0.717-0.076-1.479-0.021-2.177,0.162
		c-1.351,0.352-2.834,0.616-3.938,1.523c-0.364,0.299-3.202,3.569-3.547,2.531c-0.285-0.509,0.526-1.474,0.748-1.899
		c0.156-0.298,0.685-1.27,0.335-1.601c-0.864-0.247-1.912,0.547-2.546,1.038c-0.747,0.579-1.331,1.569-1.845,2.358
		c-0.508,0.779-0.914,1.645-1.251,2.54c0.024-0.172,0.056-0.346,0.078-0.518c0.033-0.263-0.145-0.506-0.406-0.555
		c-0.256-0.041-0.514,0.116-0.576,0.374c-0.81,3.342-2.034,6.639-3.645,9.817c-0.375-0.604-1.087-1.033-1.779-1.451
		c-0.575-0.348-1.291-0.779-1.301-1.098c-0.003-0.079,0.049-0.379,0.825-0.924c0.209-0.146,0.274-0.428,0.15-0.651
		c-0.124-0.226-0.398-0.32-0.632-0.218c-2.128,0.903-2.898,3.673-2.392,5.72c0.282,1.138,1.104,1.821,1.699,2.237
		c0.994,0.694,0.994,0.694,0.312,1.736c-2.627,4.008-5.973,7.904-9.943,11.58c-3.789,3.51-7.874,6.367-12.161,9.021
		c0.02-0.047,0.039-0.099,0.06-0.138c0.779-1.732,1.483-3.668,1.636-5.575c0.075-0.938,0.218-2.079-0.019-2.993
		c-0.202-0.775-0.546-2.044-1.381-2.377c-0.479,0.048-0.655,1.141-0.713,1.472c-0.084,0.473-0.032,1.731-0.568,1.961
		c-0.908,0.611-1.156-3.712-1.261-4.171c-0.319-1.392-1.332-2.507-2.186-3.612c-0.441-0.571-1.01-1.08-1.625-1.459
		c-0.363-0.224-0.74-0.424-1.103-0.65c-0.387-0.146-0.419,0.434-0.538,0.657c-1.465,2.164-1.874,5.183-2.333,7.696
		c-0.496,2.718-0.554,5.106,1.499,7.21c0.909,0.932,1.953,1.537,3.108,2.113c0.98,0.489,2.551,0.43,3.221,1.203
		c-2.168,1.292-4.377,2.556-6.63,3.837c-0.874,0.496-1.75,0.994-2.625,1.496c-0.158-0.887-0.556-1.71-0.944-2.512
		c-0.497-1.027-0.966-1.997-0.881-2.985c0.069-0.74,1.011-0.896,1.789-0.896c0.502,0,0.949,0.067,1.17,0.107
		c0.248,0.044,0.496-0.105,0.568-0.35c0.073-0.244-0.049-0.504-0.284-0.603c-0.594-0.252-1.234-0.41-1.9-0.47
		c-2.819-0.266-5.707,1.458-7.298,4.245c-1.194,2.015-0.723,3.579-0.267,5.092c0.216,0.716,0.439,1.456,0.514,2.287
		c0.102,1.118-0.576,1.648-1.688,2.422c-0.272,0.188-0.547,0.381-0.81,0.588c-1.18,0.934-2.337,1.899-3.438,2.871
		c-0.96,0.847-1.88,1.708-2.767,2.576c0.01-0.199,0.025-0.399,0.018-0.596c-0.022-0.606-0.015-1.347-0.234-1.914
		c-0.187-0.481-0.501-1.268-1.06-1.419c-0.303,0.066-0.334,0.779-0.347,0.995c-0.019,0.309,0.108,1.11-0.219,1.297
		c-0.536,0.458-1.015-2.29-1.116-2.576c-0.308-0.867-1.038-1.506-1.667-2.149c-0.325-0.333-0.727-0.616-1.148-0.813
		c-0.249-0.116-0.505-0.216-0.754-0.334c-0.258-0.065-0.236,0.309-0.296,0.46c-0.777,1.494-0.815,3.456-0.922,5.098
		c-0.116,1.776,0.024,3.309,1.494,4.503c0.651,0.529,1.364,0.839,2.146,1.122c0.159,0.058,0.34,0.09,0.526,0.116
		c-3.895,4.49-7.062,9.376-9.423,14.57c0.428-11.413,1.993-21.039,4.768-29.339c3.286,1.452,6.117,1.15,9.023-0.947
		c2.539-1.83,4.962-5.144,4.148-8.954c-0.051-0.24-0.267-0.413-0.516-0.395c-0.246,0.013-0.445,0.203-0.47,0.448
		c-0.281,2.758-1.029,3.873-2.412,3.511c-1.002-0.259-1.884-0.83-2.817-1.435c-0.751-0.487-1.523-0.987-2.383-1.329
		c3.177-4.722,7.255-9.161,12.131-13.203c4.02-3.331,8.312-5.884,12.855-8.586c0.919-0.547,1.841-1.096,2.763-1.652
		c3.07-1.854,5.717-3.627,8.092-5.416c1.181-0.89,2.346-1.821,3.461-2.769c0.187-0.158,0.361-0.322,0.532-0.482
		c0.754-0.709,1.199-1.056,1.984-0.814c0.524,0.162,0.979,0.457,1.461,0.77c0.697,0.452,1.419,0.92,2.422,1.021
		c1.217,0.08,2.448-0.201,3.696-0.824c1.934-0.963,4.608-3.388,4.049-6.116c-0.047-0.23-0.249-0.396-0.484-0.399
		c-0.002,0-0.004,0-0.006,0c-0.233,0-0.436,0.161-0.487,0.389c-0.118,0.515-0.572,2.193-1.474,2.193
		c-0.251,0-0.545-0.121-0.875-0.358c-0.108-0.077-0.278-0.224-0.491-0.404c-1-0.85-2.036-1.685-2.957-2.002
		c4.329-4.462,7.881-10.086,10.2-15.962c0.203,0.085,0.676-0.085,1.606-0.681c1.072-0.687,2.479,0.602,3.71,0.845
		c1.266,0.25,2.463,0.409,3.752,0.227c2.911-0.41,4.324-2.337,5.593-4.791c1.172-2.269,2.694-4.909,2.857-7.517
		c0.042-0.249,0.371-0.728-0.025-0.849c-0.425-0.043-0.845-0.115-1.27-0.16c-0.717-0.076-1.479-0.021-2.177,0.162
		c-1.351,0.352-2.834,0.616-3.938,1.523c-0.364,0.299-3.202,3.569-3.547,2.531c-0.285-0.509,0.526-1.474,0.748-1.899
		c0.156-0.298,0.685-1.27,0.335-1.601c-0.864-0.247-1.912,0.548-2.546,1.038c-0.747,0.579-1.331,1.569-1.845,2.358
		c-0.564,0.865-0.999,1.838-1.356,2.838c0.344-1.424,0.618-2.846,0.796-4.252c0.033-0.263-0.145-0.506-0.406-0.555
		c-0.26-0.042-0.514,0.117-0.576,0.374c-0.809,3.341-2.033,6.638-3.644,9.817c-0.375-0.603-1.087-1.033-1.779-1.45
		c-0.575-0.348-1.291-0.779-1.302-1.098c-0.002-0.079,0.049-0.379,0.825-0.924c0.209-0.146,0.274-0.428,0.15-0.651
		c-0.125-0.226-0.398-0.319-0.632-0.218c-2.127,0.903-2.898,3.673-2.392,5.72c0.282,1.138,1.104,1.821,1.699,2.237
		c0.994,0.693,0.994,0.693,0.312,1.735c-2.626,4.006-5.971,7.901-9.943,11.581c-4.065,3.765-8.468,6.781-13.098,9.598
		c0.042-0.124,0.086-0.238,0.134-0.328c0.779-1.732,1.483-3.668,1.636-5.575c0.075-0.938,0.218-2.079-0.019-2.994
		c-0.202-0.775-0.546-2.044-1.381-2.377c-0.479,0.048-0.655,1.141-0.713,1.472c-0.084,0.473-0.032,1.731-0.568,1.961
		c-0.908,0.611-1.156-3.712-1.261-4.171c-0.319-1.392-1.332-2.507-2.186-3.612c-0.441-0.571-1.01-1.08-1.625-1.459
		c-0.363-0.224-0.74-0.424-1.103-0.65c-0.387-0.146-0.419,0.434-0.538,0.657c-1.465,2.164-1.874,5.184-2.333,7.696
		c-0.496,2.718-0.554,5.106,1.499,7.21c0.909,0.932,1.953,1.537,3.108,2.113c1.014,0.506,2.653,0.434,3.279,1.297
		c-1.906,1.124-3.846,2.229-5.816,3.349c-0.877,0.499-1.755,0.998-2.634,1.502c-0.158-0.887-0.556-1.711-0.944-2.513
		c-0.497-1.027-0.966-1.996-0.881-2.984c0.069-0.74,1.011-0.896,1.789-0.896c0.502,0,0.949,0.067,1.17,0.107
		c0.249,0.043,0.495-0.104,0.568-0.349c0.073-0.244-0.049-0.504-0.283-0.604c-0.593-0.253-1.234-0.411-1.9-0.47
		c-2.825-0.269-5.708,1.458-7.298,4.244c-1.195,2.015-0.723,3.579-0.267,5.093c0.216,0.716,0.439,1.456,0.514,2.286
		c0.102,1.119-0.576,1.649-1.689,2.423c-0.271,0.188-0.547,0.381-0.81,0.588c-0.63,0.499-1.248,1.004-1.854,1.512
		c-0.016-0.518-0.047-1.08-0.222-1.534c-0.187-0.481-0.501-1.268-1.06-1.419c-0.303,0.066-0.334,0.779-0.347,0.995
		c-0.019,0.309,0.108,1.11-0.219,1.297c-0.536,0.458-1.015-2.29-1.116-2.576c-0.308-0.867-1.039-1.506-1.667-2.149
		c-0.325-0.333-0.727-0.616-1.148-0.813c-0.249-0.116-0.505-0.216-0.754-0.334c-0.258-0.065-0.236,0.309-0.296,0.46
		c-0.777,1.494-0.815,3.456-0.922,5.098c-0.116,1.776,0.024,3.309,1.494,4.503c0.453,0.368,0.938,0.627,1.454,0.848
		c-0.948,0.944-1.853,1.896-2.703,2.852c-1.892,2.138-3.607,4.374-5.154,6.686c-0.19-0.386-0.451-0.767-0.823-0.867
		c-0.303,0.066-0.334,0.779-0.347,0.995c-0.019,0.309,0.108,1.11-0.218,1.297c-0.536,0.458-1.015-2.29-1.116-2.576
		c-0.308-0.867-1.038-1.506-1.667-2.149c-0.325-0.333-0.727-0.616-1.148-0.813c-0.249-0.116-0.505-0.216-0.754-0.334
		c-0.258-0.065-0.236,0.309-0.296,0.46c-0.777,1.494-0.815,3.456-0.922,5.098c-0.116,1.776,0.024,3.309,1.494,4.503
		c0.591,0.481,1.237,0.778,1.936,1.041c-2.9,5.851-4.764,12.079-5.489,18.484c-0.301,2.665-0.46,5.351-0.476,8.015
		c-0.11-0.262-0.219-0.523-0.329-0.785c-3.248-7.779-5.233-14.597-6.066-20.764c0.019-0.868,0.022-1.734,0-2.597
		c-0.001-0.029-0.002-0.059-0.003-0.088c2.35-0.092,4.034-1.111,5.281-3.187c1.164-1.939,1.826-4.833,0.193-7.141
		c-0.143-0.2-0.409-0.27-0.63-0.159c-0.221,0.109-0.329,0.362-0.255,0.598c0.369,1.179,0.424,1.989,0.163,2.409
		c-0.078,0.124-0.227,0.296-0.634,0.358c-0.713,0.11-1.42-0.016-2.184-0.146c-0.572-0.098-1.164-0.199-1.769-0.203
		c0.621-3.202,1.686-6.447,3.162-9.682c0.118-0.07,0.228-0.133,0.365-0.221c1.072-0.687,2.479,0.602,3.71,0.845
		c1.266,0.25,2.463,0.409,3.752,0.227c2.911-0.41,4.324-2.337,5.593-4.791c1.172-2.269,2.694-4.909,2.857-7.517
		c0.042-0.249,0.371-0.729-0.025-0.849c-0.425-0.043-0.845-0.115-1.27-0.16c-0.717-0.076-1.479-0.021-2.177,0.162
		c-1.351,0.352-2.834,0.616-3.938,1.523c-0.364,0.299-3.202,3.569-3.547,2.531c-0.139-0.249-0.016-0.606,0.172-0.956
		c0.477-0.667,0.961-1.335,1.454-2.012c0.446-0.613,0.893-1.229,1.338-1.848c1.479-2.062,2.709-3.956,3.76-5.792
		c0.523-0.915,1.021-1.849,1.482-2.773c0.078-0.156,0.146-0.313,0.213-0.467c0.284-0.652,0.432-0.942,0.945-0.997
		c0.371-0.041,0.732,0.024,1.125,0.091c0.615,0.105,1.29,0.186,1.935-0.018c0.828-0.295,1.58-0.837,2.235-1.61
		c1.018-1.2,2.107-3.599,0.936-5.283c-0.136-0.193-0.388-0.267-0.603-0.177c-0.217,0.091-0.342,0.32-0.3,0.552
		c0.131,0.722,0.085,1.324-0.12,1.57c-0.081,0.097-0.301,0.203-0.72,0.108c-0.09-0.02-0.237-0.066-0.421-0.123
		c-0.621-0.191-1.553-0.479-2.309-0.488c0.41-1.097,0.74-2.24,1.033-3.397c0.246-0.114,0.548-0.282,0.94-0.533
		c1.072-0.687,2.479,0.602,3.71,0.845c1.266,0.25,2.463,0.409,3.752,0.227c2.911-0.41,4.324-2.337,5.593-4.791
		c1.172-2.269,2.694-4.909,2.857-7.517c0.042-0.249,0.371-0.729-0.025-0.849c-0.425-0.043-0.845-0.115-1.27-0.16
		c-0.717-0.076-1.479-0.021-2.177,0.162c-1.351,0.352-2.834,0.616-3.938,1.523c-0.364,0.299-3.202,3.569-3.547,2.531
		c-0.285-0.509,0.526-1.474,0.748-1.899c0.156-0.298,0.685-1.27,0.335-1.601c-0.864-0.247-1.912,0.547-2.546,1.038
		c-0.747,0.579-1.331,1.569-1.845,2.358c-0.775,1.188-1.317,2.575-1.727,3.965c0.478-4.265,0.204-8.605-0.889-12.415
		c-0.073-0.256-0.335-0.411-0.591-0.35c-0.005,0.001-0.008,0.004-0.012,0.005c-0.348-1.714-0.853-3.494-1.728-4.996
		c-0.474-0.813-1.007-1.832-1.723-2.448c-0.608-0.521-1.615-1.368-2.49-1.165c-0.366,0.313,0.113,1.311,0.254,1.616
		c0.201,0.436,0.961,1.44,0.651,1.935c-0.398,1.019-3.066-2.389-3.415-2.707c-1.056-0.961-2.524-1.299-3.856-1.72
		c-0.688-0.217-1.446-0.311-2.166-0.271c-0.426,0.023-0.85,0.074-1.276,0.095c-0.401,0.1-0.097,0.596-0.068,0.847
		c0.031,2.613,1.417,5.326,2.474,7.652c1.143,2.515,2.457,4.51,5.344,5.067c1.278,0.247,2.481,0.148,3.758-0.037
		c1.242-0.18,2.713-1.396,3.748-0.656c0.174,0.124,0.323,0.222,0.466,0.315c0.098,1.373,0.118,2.764,0.039,4.168
		c-0.418-0.209-0.938-0.28-1.41-0.347c-0.293-0.04-0.978-0.136-1.04-0.267c0-0.002-0.053-0.168,0.271-0.692
		c0.135-0.217,0.083-0.501-0.119-0.658c-0.203-0.157-0.491-0.137-0.667,0.05c-1.185,1.237-0.907,3.338,0.03,4.575
		c0.531,0.701,1.291,0.927,1.815,1.035c0.209,0.044,0.6,0.125,0.652,0.147c0.031,0.102-0.044,0.523-0.08,0.727
		c-0.588,3.325-1.673,6.78-3.225,10.27c-0.36,0.81-0.749,1.596-1.15,2.371c0.747-1.686,1.411-3.55,1.558-5.392
		c0.075-0.938,0.218-2.079-0.019-2.993c-0.202-0.775-0.546-2.044-1.381-2.377c-0.479,0.048-0.655,1.141-0.713,1.472
		c-0.084,0.473-0.032,1.731-0.569,1.961c-0.908,0.611-1.156-3.712-1.261-4.171c-0.319-1.392-1.332-2.507-2.186-3.612
		c-0.441-0.571-1.01-1.08-1.625-1.459c-0.363-0.224-0.74-0.424-1.103-0.65c-0.387-0.146-0.419,0.434-0.538,0.657
		c-1.465,2.164-1.874,5.184-2.333,7.696c-0.496,2.718-0.554,5.106,1.499,7.21c0.909,0.932,1.953,1.537,3.108,2.113
		c1.123,0.56,3.025,0.4,3.453,1.599c0.151,0.422,0.282,0.727,0.403,0.965c-2.028,3.333-4.374,6.442-6.816,9.664
		c-0.39,0.515-0.78,1.03-1.17,1.547c-0.346-0.47-0.79-0.854-1.224-1.231c-0.594-0.515-1.154-1.002-1.362-1.629
		c-0.04-0.123-0.031-0.219,0.028-0.323c0.21-0.37,0.94-0.683,1.57-0.827c0.248-0.057,0.414-0.291,0.384-0.544
		c-0.029-0.253-0.243-0.443-0.497-0.443c0,0-0.001,0-0.001,0c-0.47,0.001-0.946,0.079-1.412,0.231
		c-2.224,0.714-3.442,2.987-3.662,4.917c-0.223,1.707,0.541,2.617,1.28,3.498c0.335,0.399,0.682,0.812,0.956,1.318
		c0.34,0.63,0.077,1.107-0.417,1.899c-0.126,0.201-0.253,0.405-0.367,0.616c-0.51,0.94-0.994,1.894-1.438,2.833
		c-0.708,1.494-1.331,2.984-1.858,4.444c-1.392-3.766-3.353-7.367-5.843-10.727c-1.125-1.512-2.413-3.03-3.825-4.514
		c-0.014-0.015-0.029-0.029-0.043-0.044c1.06-0.561,2.42,0.648,3.616,0.883c1.266,0.25,2.463,0.409,3.752,0.227
		c2.911-0.41,4.324-2.337,5.593-4.791c1.172-2.269,2.694-4.909,2.857-7.517c0.042-0.249,0.371-0.729-0.025-0.849
		c-0.425-0.043-0.845-0.115-1.27-0.16c-0.717-0.076-1.479-0.021-2.177,0.162c-1.351,0.352-2.834,0.616-3.938,1.523
		c-0.364,0.299-3.202,3.569-3.547,2.531c-0.285-0.509,0.526-1.474,0.748-1.899c0.156-0.298,0.685-1.27,0.335-1.601
		c-0.864-0.247-1.912,0.547-2.546,1.038c-0.747,0.579-1.331,1.569-1.845,2.358c-1.045,1.602-1.67,3.565-2.112,5.412
		c-0.06,0.373-0.332,0.936-0.608,1.498c-0.343-0.339-0.69-0.677-1.042-1.009c-0.175-0.165-0.359-0.319-0.542-0.471
		c-0.718-0.597-1.118-0.969-0.992-1.673c0.102-0.566,0.301-1.067,0.495-1.552c0.426-1.068,0.867-2.173,0.124-3.716
		c-0.637-1.382-1.926-2.76-3.589-3.291c0.14-0.235,0.277-0.476,0.409-0.731c0.755-1.462,1.735-3.162,1.841-4.843
		c0.027-0.16,0.239-0.469-0.016-0.547c-0.274-0.027-0.545-0.074-0.818-0.103c-0.462-0.049-0.953-0.013-1.403,0.104
		c-0.87,0.227-1.826,0.397-2.537,0.981c-0.235,0.193-2.063,2.299-2.285,1.63c-0.183-0.328,0.339-0.95,0.482-1.224
		c0.1-0.192,0.441-0.818,0.216-1.031c-0.557-0.159-1.232,0.353-1.64,0.668c-0.481,0.373-0.857,1.011-1.188,1.519
		c-0.673,1.032-1.076,2.297-1.361,3.487c-0.032,0.198-0.157,0.479-0.299,0.774c-2.919-2.115-5.688-4.33-8.22-6.938
		c0.917,0.06,1.959,0.849,2.899,1.034c1.266,0.25,2.463,0.409,3.752,0.227c2.911-0.41,4.324-2.337,5.593-4.791
		c1.172-2.269,2.694-4.909,2.857-7.517c0.042-0.249,0.371-0.729-0.025-0.849c-0.425-0.043-0.845-0.115-1.27-0.16
		c-0.717-0.076-1.479-0.021-2.177,0.162c-1.351,0.352-2.834,0.616-3.938,1.523c-0.364,0.299-3.202,3.569-3.547,2.531
		c-0.285-0.509,0.526-1.474,0.748-1.899c0.156-0.298,0.685-1.27,0.335-1.601c-0.864-0.247-1.912,0.547-2.546,1.038
		c-0.747,0.579-1.331,1.569-1.845,2.358c-1.045,1.602-1.67,3.565-2.112,5.412c-0.036,0.221-0.149,0.512-0.29,0.828
		c-2.303-2.627-4.234-5.339-5.71-8.083c-0.097-0.182-0.3-0.56-0.316-0.62c0.057-0.084,0.401-0.282,0.587-0.39
		c0.465-0.269,1.116-0.721,1.4-1.552c0.502-1.469,0.108-3.551-1.405-4.354c-0.226-0.121-0.507-0.051-0.649,0.162
		c-0.143,0.212-0.103,0.498,0.093,0.662c0.472,0.396,0.474,0.57,0.474,0.572c-0.018,0.144-0.639,0.449-0.904,0.579
		c-0.424,0.208-0.89,0.437-1.228,0.777c-0.891-2.261-1.52-4.576-1.873-6.897c-0.039-0.262-0.268-0.432-0.542-0.423
		c-0.264,0.025-0.462,0.253-0.452,0.518c0.009,0.24,0.029,0.482,0.045,0.724c-0.235-0.614-0.494-1.215-0.817-1.77
		c-0.474-0.813-1.007-1.832-1.723-2.448c-0.608-0.521-1.614-1.368-2.49-1.165c-0.366,0.313,0.113,1.311,0.254,1.616
		c0.201,0.436,0.961,1.44,0.651,1.935c-0.398,1.019-3.066-2.389-3.415-2.707c-1.056-0.961-2.524-1.299-3.856-1.72
		c-0.688-0.217-1.446-0.311-2.166-0.271c-0.426,0.023-0.85,0.074-1.276,0.095c-0.401,0.1-0.097,0.596-0.068,0.847
		c0.031,2.613,1.417,5.326,2.474,7.652c1.143,2.515,2.457,4.511,5.344,5.067c1.278,0.247,2.481,0.148,3.758-0.037
		c1.242-0.18,2.713-1.396,3.748-0.656c0.381,0.272,0.676,0.455,0.915,0.582c1.27,4.115,3.346,8.121,5.998,11.427
		c-0.643,0.219-1.354,0.699-2.042,1.188c-0.156,0.111-0.281,0.201-0.36,0.248c-0.198,0.118-0.375,0.181-0.514,0.181
		c-0.442,0-0.712-0.815-0.809-1.513c-0.032-0.233-0.223-0.412-0.457-0.431c-0.243-0.015-0.45,0.131-0.517,0.356
		c-0.585,1.968,1.199,3.904,2.542,4.727c0.866,0.53,1.75,0.809,2.646,0.829c0.736-0.01,1.314-0.317,1.824-0.589
		c0.35-0.186,0.68-0.36,1.039-0.438c0.5-0.106,0.733,0.118,1.209,0.65c0.111,0.125,0.226,0.253,0.35,0.377
		c0.745,0.752,1.51,1.481,2.276,2.17c1.57,1.412,3.332,2.826,5.384,4.324c0.615,0.448,1.23,0.891,1.844,1.332
		c3.033,2.182,5.897,4.241,8.519,6.828c3.131,3.092,5.695,6.407,7.628,9.862c-0.572,0.192-1.1,0.473-1.615,0.746
		c-0.684,0.363-1.33,0.706-2.029,0.823c-0.08,0.014-0.155,0.021-0.227,0.021c0,0-0.001,0-0.002,0c-0.262,0-1.049-0.008-1.086-2.501
		c-0.004-0.246-0.186-0.452-0.43-0.487c-0.248-0.033-0.477,0.113-0.548,0.349c-0.828,2.703,0.707,5.243,2.419,6.72
		c1.917,1.653,3.912,2.065,6.292,1.3c1.516,6.38,1.973,13.484,1.43,22.228c-0.606-0.547-1.183-1.052-1.746-1.527
		c-1.129-0.953-2.307-1.894-3.5-2.795c-0.267-0.202-0.547-0.389-0.822-0.571c-1.13-0.749-1.818-1.265-1.741-2.386
		c0.057-0.832,0.264-1.577,0.464-2.298c0.423-1.522,0.861-3.097-0.373-5.077c-1.647-2.748-4.603-4.41-7.389-4.094
		c-0.668,0.074-1.305,0.246-1.893,0.511c-0.232,0.104-0.349,0.367-0.271,0.609c0.079,0.243,0.327,0.39,0.576,0.337
		c0.246-0.05,0.739-0.134,1.285-0.134c1.057,0,1.626,0.288,1.691,0.854c0.106,0.99-0.341,1.97-0.816,3.008
		c-0.371,0.81-0.751,1.642-0.889,2.53c-0.887-0.482-1.774-0.961-2.659-1.439c-4.589-2.479-9.021-4.882-13.23-7.64
		c0.92,0.055,1.966,0.848,2.909,1.034c1.266,0.25,2.463,0.409,3.752,0.227c2.911-0.41,4.324-2.337,5.593-4.791
		c1.172-2.269,2.694-4.909,2.857-7.517c0.042-0.249,0.371-0.728-0.025-0.849c-0.425-0.043-0.845-0.115-1.27-0.16
		c-0.717-0.076-1.479-0.021-2.177,0.162c-1.351,0.352-2.834,0.616-3.938,1.523c-0.364,0.299-3.202,3.569-3.547,2.531
		c-0.285-0.509,0.526-1.474,0.748-1.899c0.156-0.298,0.685-1.27,0.335-1.601c-0.864-0.247-1.912,0.548-2.546,1.038
		c-0.747,0.579-1.331,1.569-1.845,2.358c-1.045,1.602-1.67,3.565-2.112,5.412c-0.054,0.334-0.277,0.82-0.521,1.321
		c-2.159-1.496-4.26-3.094-6.279-4.883c-4.049-3.592-7.478-7.415-10.19-11.363c-0.705-1.026-0.705-1.026,0.274-1.743
		c0.585-0.428,1.394-1.128,1.65-2.272c0.462-2.058-0.368-4.809-2.515-5.667c-0.237-0.097-0.509,0.005-0.628,0.23
		c-0.119,0.227-0.048,0.507,0.164,0.648c0.788,0.528,0.846,0.827,0.845,0.907c-0.004,0.317-0.71,0.765-1.278,1.124
		c-0.675,0.428-1.37,0.868-1.743,1.498c-1.047-1.959-1.925-3.971-2.667-6.011c0.055-0.17,0.113-0.325,0.177-0.44
		c0.807-1.719,1.543-3.643,1.727-5.547c0.09-0.937,0.252-2.075,0.03-2.993c-0.189-0.778-0.513-2.053-1.342-2.399
		c-0.48,0.04-0.673,1.13-0.737,1.46c-0.091,0.471-0.06,1.731-0.6,1.951c-0.918,0.596-1.095-3.73-1.193-4.191
		c-0.297-1.397-1.291-2.529-2.127-3.647c-0.432-0.578-0.993-1.096-1.601-1.485c-0.36-0.23-0.733-0.436-1.092-0.668
		c-0.384-0.153-0.426,0.427-0.549,0.648c-1.5,2.14-1.958,5.152-2.458,7.657c-0.54,2.709-0.638,5.097,1.381,7.234
		c0.893,0.946,1.928,1.569,3.073,2.164c1.114,0.578,3.018,0.45,3.427,1.655c0.576,1.699,0.918,1.796,1.173,1.268
		c2.288,7.236,6.577,14.356,11.999,19.708c-0.914,0.338-1.932,1.194-2.914,2.067c-0.208,0.185-0.374,0.334-0.48,0.414
		c-0.331,0.25-0.628,0.376-0.883,0.376c-0.892,0-1.377-1.654-1.504-2.161c-0.058-0.228-0.227-0.378-0.501-0.378
		c-0.235,0.008-0.433,0.179-0.475,0.41c-0.5,2.739,2.226,5.105,4.18,6.027c1.078,0.509,2.15,0.767,3.187,0.767
		c0.175,0,0.35-0.007,0.544-0.024c0.983-0.121,1.694-0.604,2.382-1.072c0.475-0.322,0.923-0.627,1.444-0.8
		c0.811-0.271,1.313,0.152,2.001,0.771c0.173,0.156,0.352,0.316,0.542,0.471c1.147,0.931,2.332,1.837,3.521,2.691
		c1.478,1.065,3.074,2.121,4.788,3.189c-1.078-0.273-2.179-0.463-3.26-0.467c-0.941-0.004-2.089-0.061-2.984,0.244
		c-0.758,0.26-1.997,0.698-2.267,1.555c0.084,0.474,1.187,0.567,1.522,0.601c0.478,0.048,1.729-0.098,1.998,0.42
		c0.677,0.86-3.614,1.431-4.065,1.571c-1.364,0.423-2.4,1.517-3.437,2.451c-0.536,0.483-1.001,1.089-1.332,1.73
		c-0.196,0.379-0.367,0.77-0.565,1.148c-0.117,0.397,0.465,0.386,0.696,0.487c2.268,1.298,5.31,1.479,7.849,1.748
		c2.747,0.29,5.134,0.169,7.077-2.036c0.861-0.976,1.386-2.063,1.874-3.258c0.474-1.161,0.173-3.043,1.333-3.562
		c0.596,0.339,1.193,0.68,1.787,1.017c4.365,2.47,8.497,4.818,12.402,7.821c-1.33-0.393-2.717-0.681-4.072-0.687
		c-0.941-0.004-2.089-0.061-2.984,0.244c-0.758,0.26-1.997,0.698-2.267,1.555c0.084,0.474,1.187,0.567,1.522,0.601
		c0.478,0.048,1.729-0.098,1.998,0.42c0.677,0.86-3.614,1.431-4.065,1.571c-1.364,0.423-2.4,1.517-3.437,2.451
		c-0.536,0.483-1.001,1.089-1.332,1.73c-0.196,0.379-0.367,0.77-0.565,1.148c-0.117,0.397,0.465,0.386,0.696,0.487
		c2.268,1.298,5.31,1.479,7.849,1.748c2.747,0.29,5.134,0.169,7.077-2.036c0.861-0.976,1.386-2.063,1.874-3.258
		c0.413-1.013,0.238-2.572,0.956-3.299c3.821,3.341,7.112,6.939,9.793,10.744c-0.853,0.36-1.614,0.877-2.354,1.38
		c-0.92,0.625-1.789,1.215-2.785,1.495c-1.378,0.388-2.147-0.705-2.487-3.458c-0.03-0.244-0.233-0.43-0.479-0.438
		c-0.272,0.008-0.461,0.165-0.508,0.406c-0.731,3.827,1.763,7.088,4.341,8.863c2.952,2.032,5.786,2.273,9.039,0.752
		c3.942,11.337,5.655,35.442,5.662,35.662c0.008,0.268,0.226,0.482,0.494,0.485l5.585,0.065c0.002,0,0.004,0,0.006,0
		c0.13,0,0.256-0.052,0.35-0.144c0.095-0.093,0.149-0.221,0.15-0.353c0.002-0.22,1.236-24.547,4.891-35.854
		c3.284,1.452,6.114,1.149,9.02-0.948c2.539-1.83,4.962-5.144,4.148-8.954c-0.051-0.24-0.275-0.414-0.516-0.395
		c-0.246,0.013-0.445,0.203-0.47,0.448c-0.281,2.758-1.031,3.871-2.412,3.511c-1.002-0.258-1.883-0.829-2.816-1.434
		c-0.751-0.487-1.524-0.987-2.384-1.329c3.176-4.722,7.255-9.161,12.131-13.204c0.729-0.604,1.469-1.175,2.215-1.733
		c0.808,0.599,0.938,2.126,1.526,3.029c0.704,1.082,1.424,2.051,2.453,2.847c2.324,1.801,4.69,1.471,7.334,0.669
		c2.444-0.742,5.397-1.491,7.381-3.193c0.208-0.144,0.781-0.242,0.592-0.61c-0.266-0.334-0.507-0.686-0.771-1.022
		c-0.446-0.567-1.017-1.075-1.634-1.448c-1.195-0.723-2.418-1.602-3.837-1.761c-0.469-0.052-4.791,0.193-4.288-0.779
		c0.167-0.559,1.423-0.651,1.883-0.788c0.322-0.096,1.388-0.394,1.381-0.876c-0.426-0.792-1.726-0.989-2.519-1.101
		c-0.677-0.095-1.448,0.022-2.174,0.163c1.09-0.662,2.195-1.32,3.315-1.986c0.918-0.547,1.839-1.094,2.76-1.65
		c3.065-1.851,5.712-3.623,8.093-5.416c1.181-0.891,2.346-1.822,3.462-2.769c0.186-0.157,0.361-0.321,0.531-0.481
		c0.755-0.709,1.201-1.056,1.984-0.815c0.523,0.162,0.978,0.457,1.459,0.769c0.698,0.453,1.42,0.921,2.424,1.022
		c1.22,0.081,2.45-0.201,3.696-0.824c1.934-0.964,4.608-3.388,4.049-6.115c-0.047-0.23-0.249-0.396-0.484-0.399
		c-0.002,0-0.004,0-0.006,0c-0.233,0-0.436,0.161-0.487,0.389c-0.118,0.515-0.572,2.192-1.474,2.192
		c-0.251,0-0.546-0.12-0.875-0.356c-0.108-0.078-0.277-0.224-0.489-0.403c-1-0.852-2.037-1.687-2.959-2.004
		c5.199-5.359,9.277-12.393,11.444-19.528c0.25-0.114,0.566-0.289,0.975-0.551c1.072-0.687,2.479,0.602,3.71,0.845
		c1.266,0.25,2.463,0.409,3.752,0.227c2.911-0.41,4.324-2.337,5.593-4.791c1.172-2.269,2.694-4.909,2.857-7.517
		C188.33,74.323,188.659,73.843,188.263,73.723z M68.709,85.686c-0.294,0.493-0.595,0.998-0.776,1.553
		c-0.533-0.37-1.067-0.738-1.599-1.105c-1.175-0.81-2.332-1.61-3.471-2.417c0.57,0.077,1.207,0.543,1.784,0.657
		c0.816,0.161,1.587,0.263,2.417,0.146c0.978-0.138,1.69-0.545,2.267-1.124c0.097,0.081,0.161,0.182,0.162,0.313
		C69.493,84.372,69.112,85.01,68.709,85.686z"/>
	<path d="M176.256,70.137c0.949-0.555,1.536-1.557,2.151-2.439c0.318-0.456,0.561-0.992,0.698-1.53
		c0.081-0.319,0.141-0.642,0.224-0.96c0.018-0.318-0.416-0.208-0.607-0.244c-1.928-0.578-4.242-0.183-6.194,0.059
		c-2.112,0.262-3.881,0.769-4.954,2.763c-0.475,0.883-0.68,1.79-0.837,2.771c-0.153,0.954,0.403,2.315-0.38,2.906
		c-2.545,1.924,0.841,0.866,1.844,1.062c1.452,0.173,3.037,0.245,4.474-0.082c0.707-0.161,1.578-0.319,2.196-0.704
		c0.523-0.327,1.376-0.872,1.429-1.563c-0.146-0.341-0.99-0.218-1.246-0.185c-0.367,0.047-1.28,0.376-1.572,0.034
		C172.823,71.498,175.942,70.32,176.256,70.137z"/>
</g>
</svg>
