<?xml version="1.0" encoding="iso-8859-1"?>
<!-- Generator: Adobe Illustrator 19.0.0, SVG Export Plug-In . SVG Version: 6.00 Build 0)  -->
<svg version="1.1" id="Capa_1" xmlns="http://www.w3.org/2000/svg" xmlns:xlink="http://www.w3.org/1999/xlink" x="0px" y="0px"
	 viewBox="0 0 463 463" style="enable-background:new 0 0 463 463;" xml:space="preserve">
<g>
	<path d="M455.5,184h-21.971c-5.114-21.851-13.71-42.569-25.617-61.736l15.568-15.568c1.407-1.406,2.197-3.314,2.197-5.303
		s-0.79-3.897-2.197-5.303l-56.569-56.568c-2.929-2.929-7.678-2.929-10.606,0l-15.568,15.568
		C321.569,43.182,300.851,34.585,279,29.471V7.5c0-4.142-3.358-7.5-7.5-7.5h-80c-4.142,0-7.5,3.358-7.5,7.5v21.971
		c-21.851,5.114-42.569,13.71-61.736,25.617l-15.568-15.568c-2.929-2.93-7.678-2.929-10.606,0L39.521,96.089
		c-1.407,1.406-2.197,3.314-2.197,5.303s0.79,3.897,2.197,5.303l15.568,15.568C43.182,141.431,34.585,162.149,29.471,184H7.5
		c-4.142,0-7.5,3.358-7.5,7.5v80c0,4.142,3.358,7.5,7.5,7.5h21.971c5.114,21.851,13.71,42.569,25.617,61.736l-15.568,15.568
		c-2.929,2.929-2.929,7.678,0,10.606l56.569,56.569c2.929,2.929,7.678,2.929,10.606,0l15.568-15.568
		c19.167,11.907,39.885,20.503,61.736,25.617V455.5c0,4.142,3.358,7.5,7.5,7.5h80c4.142,0,7.5-3.358,7.5-7.5v-21.971
		c21.851-5.114,42.569-13.71,61.736-25.617l15.568,15.568c2.929,2.929,7.678,2.929,10.606,0l56.569-56.569
		c2.929-2.929,2.929-7.678,0-10.606l-15.568-15.568c11.907-19.167,20.503-39.885,25.617-61.736H455.5c4.142,0,7.5-3.358,7.5-7.5v-80
		C463,187.358,459.642,184,455.5,184z M448,264h-20.509c-3.567,0-6.641,2.512-7.35,6.008c-4.906,24.167-14.345,46.918-28.056,67.621
		c-1.969,2.974-1.572,6.922,0.95,9.444l14.535,14.535l-45.962,45.962l-14.535-14.535c-2.521-2.521-6.471-2.919-9.444-0.95
		c-20.703,13.711-43.454,23.15-67.621,28.056c-3.496,0.709-6.008,3.783-6.008,7.35V448h-65v-20.509c0-3.567-2.512-6.641-6.008-7.35
		c-24.167-4.906-46.918-14.345-67.621-28.056c-2.973-1.969-6.922-1.572-9.444,0.95l-14.535,14.535L55.43,361.607l14.535-14.535
		c2.522-2.522,2.919-6.471,0.95-9.444c-13.711-20.703-23.15-43.454-28.056-67.621c-0.709-3.496-3.783-6.008-7.35-6.008H15v-65
		h20.509c3.567,0,6.641-2.512,7.35-6.008c4.906-24.167,14.345-46.918,28.056-67.621c1.969-2.974,1.572-6.922-0.95-9.444
		L55.43,101.392l45.962-45.962l14.535,14.535c2.521,2.521,6.471,2.919,9.444,0.95c20.703-13.711,43.454-23.15,67.621-28.056
		c3.496-0.709,6.008-3.783,6.008-7.35V15h65v20.509c0,3.567,2.512,6.641,6.008,7.35c24.167,4.906,46.918,14.345,67.621,28.056
		c2.974,1.97,6.923,1.572,9.444-0.95l14.535-14.535l45.962,45.962l-14.535,14.535c-2.522,2.522-2.919,6.471-0.95,9.444
		c13.71,20.703,23.15,43.454,28.056,67.621c0.709,3.496,3.783,6.008,7.35,6.008H448V264z"/>
	<path d="M231.5,71.5c-88.224,0-160,71.776-160,160s71.776,160,160,160s160-71.776,160-160S319.724,71.5,231.5,71.5z M367.5,239
		h8.808c-1.758,34.339-15.522,65.558-37.162,89.539l-6.176-6.176c-2.929-2.929-7.678-2.929-10.606,0
		c-2.929,2.929-2.929,7.678,0,10.606l6.176,6.176c-23.982,21.64-55.2,35.404-89.539,37.162V367.5c0-4.142-3.358-7.5-7.5-7.5
		s-7.5,3.358-7.5,7.5v8.808c-34.339-1.758-65.558-15.522-89.539-37.162l6.176-6.176c2.929-2.929,2.929-7.678,0-10.606
		c-2.929-2.929-7.678-2.929-10.606,0l-6.176,6.176c-21.64-23.982-35.404-55.2-37.162-89.539H95.5c4.142,0,7.5-3.358,7.5-7.5
		s-3.358-7.5-7.5-7.5h-8.808c1.758-34.339,15.522-65.558,37.162-89.539l6.176,6.176c1.464,1.464,3.384,2.197,5.303,2.197
		s3.839-0.732,5.303-2.197c2.929-2.929,2.929-7.678,0-10.606l-6.176-6.176c23.982-21.64,55.2-35.404,89.539-37.162V95.5
		c0,4.142,3.358,7.5,7.5,7.5s7.5-3.358,7.5-7.5v-8.808c34.339,1.758,65.558,15.522,89.539,37.162l-6.176,6.176
		c-2.929,2.929-2.929,7.678,0,10.606c1.464,1.464,3.384,2.197,5.303,2.197s3.839-0.732,5.303-2.197l6.176-6.176
		c21.64,23.982,35.404,55.2,37.162,89.539H367.5c-4.142,0-7.5,3.358-7.5,7.5S363.358,239,367.5,239z"/>
	<path d="M231.5,144c-48.248,0-87.5,39.252-87.5,87.5s39.252,87.5,87.5,87.5s87.5-39.252,87.5-87.5S279.748,144,231.5,144z
		 M231.5,304c-39.977,0-72.5-32.523-72.5-72.5s32.523-72.5,72.5-72.5s72.5,32.523,72.5,72.5S271.477,304,231.5,304z"/>
	<path d="M231.5,176c-30.603,0-55.5,24.897-55.5,55.5s24.897,55.5,55.5,55.5s55.5-24.897,55.5-55.5S262.103,176,231.5,176z
		 M231.5,272c-22.332,0-40.5-18.168-40.5-40.5s18.168-40.5,40.5-40.5s40.5,18.168,40.5,40.5S253.832,272,231.5,272z"/>
</g>
<g>
</g>
<g>
</g>
<g>
</g>
<g>
</g>
<g>
</g>
<g>
</g>
<g>
</g>
<g>
</g>
<g>
</g>
<g>
</g>
<g>
</g>
<g>
</g>
<g>
</g>
<g>
</g>
<g>
</g>
</svg>
