<?xml version="1.0" encoding="iso-8859-1"?>
<!-- Generator: Adobe Illustrator 18.1.1, SVG Export Plug-In . SVG Version: 6.00 Build 0)  -->
<svg version="1.1" id="Capa_1" xmlns="http://www.w3.org/2000/svg" xmlns:xlink="http://www.w3.org/1999/xlink" x="0px" y="0px"
	 viewBox="0 0 18.375 18.375" style="enable-background:new 0 0 18.375 18.375;" xml:space="preserve">
<g>
	<g>
		<path style="fill:#030104;" d="M8.488,14.414c-0.159-0.578-0.346-0.715-0.643-0.799c-0.183-0.203-0.357-0.367-0.455-0.385
			c-0.219-0.043-0.568-0.176-0.568-0.351c0-0.176-0.22-1.187,0-1.315c0.219-0.131,0.833-0.787,0.699-1.185
			c-0.131-0.394-0.044-1.709,0-2.365c0.044-0.658-0.259-2.22-0.292-2.445C7.187,5.324,6.405,5.117,6.405,5.117
			s-1.211-0.17-2.193-0.285C3.44,4.738,1.935,6.756,1.886,6.959C1.84,7.162,2.264,7.621,2.264,7.621S1.869,8.104,1.913,8.498
			s0.088,0.832,0,0.965c-0.087,0.131-0.701,1.051-0.701,1.49c0,0.436,0,1.355-0.044,1.881s-0.174,0.791-0.044,0.879
			c0.132,0.086,0.572,0.043,0.572,0.35c0,0.308,0,1.054-0.176,1.447c-0.178,0.393-0.745,1.271-0.791,1.707
			c-0.002,0.02-0.008,0.051-0.012,0.074c-0.106,0.354-0.194,0.727-0.273,1.084h8.078c0.021-0.104,0.046-0.205,0.052-0.326
			c0.007-0.111,0.011-0.238,0.013-0.367c0.063-0.586,0.078-1.33,0.049-1.996C8.714,15.303,8.771,14.822,8.488,14.414z M5.794,9.328
			C5.662,9.6,5.538,10.033,5.462,10.283c-0.078,0.252-0.031,0.537,0.084,0.73c0.113,0.19-0.152,0.786-0.229,1.018
			c-0.076,0.229,0.136,0.592-0.136,0.613c-0.269,0.02-0.556,0.02-0.901,0.096c-0.346,0.078-0.65,0.152-0.959,0.133
			c-0.31-0.02-0.192-0.154-0.729,0.039c-0.537,0.191-0.979,0.441-1.151,0.48s-0.135-0.229-0.058-0.771
			c0.077-0.535,0.058-1.188,0.038-1.402c-0.02-0.206,0-0.592,0.172-0.803c0.035-0.043,0.058-0.078,0.073-0.104
			c0.027,0.198,0.095,0.594,0.197,0.621c0.134,0.041,0.459,0.021,0.709-0.095c0.248-0.114,0.439-0.114,0.596-0.075
			c0.153,0.036,0.133,0.17,0.31,0.057c0.17-0.113,0.305-0.402,0.324-0.557C3.818,10.111,3.876,9.955,3.859,9.9
			C3.836,9.841,3.664,9.88,3.416,9.859c-0.25-0.019-0.634-0.035-0.864,0C2.321,9.9,2.205,9.955,2.128,9.996
			c-0.075,0.037-0.21,0.037-0.21,0.037S1.688,10.016,1.802,9.9c0.115-0.117,0.27-0.54,0.383-0.596
			c0.116-0.059,0.386-0.461,0.576-0.748c0.192-0.289,0.52-1.02,0.52-1.02s0.441-0.113,0.52,0.061C3.876,7.77,4.03,7.979,4.03,7.979
			s0.229,0.559,0.439,0.596C4.681,8.614,5.18,8.593,5.333,8.557c0.153-0.039,0.374,0.098,0.374,0.098S5.929,9.061,5.794,9.328z
			 M5.63,5.895C5.437,5.922,4.651,5.922,4.401,5.951c-0.252,0.028-0.783,0.221-0.98,0.334c-0.194,0.111-1.229,0.42-1.229,0.42
			S3.59,5.277,3.898,5.193c0.307-0.082,0.895-0.027,1.37,0.059C5.744,5.336,6.33,5.277,6.247,5.445
			C6.163,5.613,5.826,5.865,5.63,5.895z M2.589,11.301c-0.19-0.02-0.475,0.012-0.666,0.146C1.73,11.582,1.84,11.742,1.84,11.742
			s0.115,0.094,0.209,0.15c0.1,0.057,0.178,0.075,0.233,0.021c0.059-0.062,0.151-0.058,0.248-0.113c0,0,0.174-0.174,0.366-0.213
			c0.19-0.035,0.307-0.035,0.537-0.06c0.229-0.02,0.345,0.023,0.364-0.057c0.019-0.076,0.094-0.096-0.136-0.115
			C3.435,11.338,2.783,11.32,2.589,11.301z"/>
		<path style="fill:#030104;" d="M17.701,13.764c-0.099-0.143-0.228-0.307-0.358-0.475c-0.254-0.918-0.84-0.803-1.012-0.871
			c-0.007-0.004-0.033,0.004-0.049,0.004c-0.188-0.07-0.366-0.174-0.366-0.303c0-0.189-0.235-1.271,0-1.41
			c0.234-0.141,0.893-0.844,0.751-1.27c-0.141-0.42-0.045-1.828-0.002-2.535c0.048-0.705-0.139-0.939-0.139-0.939
			s0.609-0.186,0.562-0.938c-0.045-0.754,0-2.396,0-2.396s-0.75-0.893-0.938-1.174c-0.188-0.283-0.283-0.516-0.799-0.801
			c-0.516-0.279-0.609-0.328-0.894-0.467C14.177,0.047,13.708,0,13.567,0c-0.144,0-1.175,0.33-1.646,0.424
			c-0.471,0.092-0.844,0.281-1.033,0.328C10.701,0.797,10.56,1.08,10.56,1.457c0,0.375-0.375,2.252-0.425,2.631
			c-0.043,0.375-0.231,0.939-0.043,1.221c0.188,0.283,0.938,1.174,0.938,1.174S10.607,7,10.653,7.424
			c0.05,0.422,0.095,0.889,0,1.031c-0.093,0.143-0.749,1.129-0.749,1.598c0,0.471,0,1.455-0.049,2.021
			c-0.049,0.563-0.187,0.844-0.049,0.938c0.144,0.096,0.61,0.047,0.61,0.377c0,0.326,0,1.127-0.187,1.551
			c-0.188,0.422-0.796,1.359-0.843,1.834c-0.028,0.256-0.181,0.881-0.338,1.496h8.624c0.06-0.175,0.105-0.369,0.119-0.607
			c0.049-0.75-0.046-2.018,0.049-2.439C17.936,14.797,18.03,14.232,17.701,13.764z M15.021,8.266
			c-0.144,0.289-0.389,0.844-0.475,1.115c-0.082,0.264-0.122,0.531,0,0.736c0.125,0.205-0.164,0.844-0.246,1.09
			c-0.082,0.25,0.146,0.639-0.143,0.658c-0.289,0.023-0.6,0.023-0.97,0.104c-0.369,0.082-0.696,0.164-1.029,0.146
			c-0.326-0.021-0.204-0.164-0.779,0.041c-0.577,0.204-1.051,0.473-1.234,0.514c-0.186,0.043-0.146-0.246-0.062-0.821
			c0.082-0.576,0.062-1.277,0.042-1.5c-0.021-0.229,0-0.642,0.186-0.866c0.033-0.046,0.075-0.11,0.075-0.11s0.104,0.633,0.212,0.664
			c0.146,0.039,0.493,0.023,0.761-0.104c0.269-0.123,0.476-0.123,0.638-0.08c0.164,0.041,0.146,0.184,0.331,0.061
			c0.187-0.125,0.328-0.432,0.349-0.598c0.023-0.164,0.082-0.328,0.062-0.389c-0.021-0.064-0.207-0.023-0.475-0.043
			c-0.269-0.021-0.68-0.039-0.926,0c-0.247,0.043-0.369,0.104-0.455,0.143c-0.08,0.043-0.224,0.043-0.224,0.043
			s-0.245-0.023-0.122-0.145c0.122-0.125,0.288-0.576,0.41-0.639c0.125-0.062,0.411-0.492,0.618-0.803
			c0.206-0.307,0.555-1.092,0.555-1.092s0.474-0.123,0.556,0.062s0.247,0.412,0.247,0.412s0.25,0.596,0.474,0.639
			c0.229,0.039,0.764,0.02,0.926-0.021c0.165-0.041,0.536-0.041,0.536-0.041S15.166,7.979,15.021,8.266z M14.774,2.885
			c-0.094,0.029-0.277-0.029-0.462-0.184c-0.188-0.154-0.188-0.154-0.371-0.154c-0.187,0-0.34,0.309-0.493,0.398
			c-0.153,0.094-0.275,0.188-0.434,0.279c-0.154,0.092-0.216,0.061-0.432,0c-0.217-0.062-0.555,0-0.804,0
			c0,0-0.275,0.125-0.399,0.219c-0.124,0.092-1.051,0.799-1.051,0.799l0.174-0.818c0,0,0.164-1.031,0.164-1.217
			c0-0.188,0.126-0.803,0.157-0.895c0.031-0.094,0.035-0.172,0.155-0.27c0.19-0.158,0.59-0.318,0.59-0.318s0.466-0.033,0.682-0.127
			c0.216-0.092,0.544-0.143,0.729-0.205c0.187-0.062,0.453-0.096,0.699-0.096s0.544,0.109,0.732,0.174
			c0.183,0.062,0.696,0.478,0.696,0.478s-0.088,0.365-0.119,0.52c-0.029,0.152,0.031,0.338,0.124,0.523
			C15.208,2.176,14.868,2.855,14.774,2.885z M11.381,10.426c-0.207-0.02-0.329,0.043-0.537,0.188
			c-0.202,0.143-0.265,0.286-0.265,0.286s0.08,0.369,0.184,0.431c0.104,0.063,0.289-0.021,0.353-0.082
			c0.06-0.062,0.101-0.224,0.202-0.287c0,0,0.188-0.185,0.393-0.228c0.205-0.041,0.329-0.041,0.578-0.061
			c0.244-0.023,0.368,0.02,0.389-0.061c0.023-0.084,0.104-0.104-0.145-0.127C12.287,10.469,11.585,10.447,11.381,10.426z"/>
	</g>
</g>
<g>
</g>
<g>
</g>
<g>
</g>
<g>
</g>
<g>
</g>
<g>
</g>
<g>
</g>
<g>
</g>
<g>
</g>
<g>
</g>
<g>
</g>
<g>
</g>
<g>
</g>
<g>
</g>
<g>
</g>
</svg>
