<?xml version="1.0" encoding="iso-8859-1"?>
<!-- Generator: Adobe Illustrator 19.0.0, SVG Export Plug-In . SVG Version: 6.00 Build 0)  -->
<svg version="1.1" id="Layer_1" xmlns="http://www.w3.org/2000/svg" xmlns:xlink="http://www.w3.org/1999/xlink" x="0px" y="0px"
	 viewBox="0 0 512 512" style="enable-background:new 0 0 512 512;" xml:space="preserve">
<g>
	<g>
		<g>
			<path d="M298.667,204.8c-4.71,0-8.533,3.823-8.533,8.533c0,4.71,3.823,8.533,8.533,8.533v14.216
				c-5.999,8.602-12.851,16.282-19.575,23.637C266.701,273.246,256,284.937,256,298.667c0,11.11,7.151,20.489,17.067,24.021v52.779
				h-59.733c-4.71,0-8.533,3.823-8.533,8.533s3.823,8.533,8.533,8.533H281.6c4.71,0,8.533-3.823,8.533-8.533v-59.733h34.133v8.533
				c0,4.71,3.823,8.533,8.533,8.533c4.71,0,8.533-3.823,8.533-8.533v-10.103c9.916-3.541,17.067-12.92,17.067-24.03
				c0-13.73-10.701-25.421-23.091-38.946c-6.724-7.356-13.576-15.036-19.575-23.637v-14.216c4.71,0,8.533-3.823,8.533-8.533
				c0-4.71-3.823-8.533-8.533-8.533c0-4.71-3.823-8.533-8.533-8.533S298.667,200.09,298.667,204.8z M322.722,271.241
				c9.574,10.453,18.611,20.326,18.611,27.426c0,4.702-3.831,8.533-8.533,8.533h-51.2c-4.702,0-8.533-3.831-8.533-8.533
				c0-7.1,9.037-16.973,18.611-27.426c4.958-5.419,10.368-11.332,15.522-17.852C312.354,259.908,317.764,265.822,322.722,271.241z"
				/>
			<path d="M503.467,494.933H460.8V435.2c0-4.71-3.823-8.533-8.533-8.533h-8.533V315.733c0-4.71-3.823-8.533-8.533-8.533h-8.533
				v-35.703c9.916-3.541,17.067-12.919,17.067-24.03c0-13.73-10.701-25.421-23.091-38.946c-6.724-7.356-13.577-15.036-19.575-23.637
				v-14.217c4.71,0,8.533-3.823,8.533-8.533c0-4.71-3.823-8.533-8.533-8.533c0-4.71-3.823-8.533-8.533-8.533
				c-4.71,0-8.533,3.823-8.533,8.533c-4.71,0-8.533,3.823-8.533,8.533c0,4.71,3.823,8.533,8.533,8.533v14.217
				c-5.999,8.602-12.851,16.282-19.575,23.637c-12.39,13.525-23.091,25.216-23.091,38.946c0,14.114,11.486,25.6,25.6,25.6H409.6
				V307.2h-34.133c-4.71,0-8.533,3.823-8.533,8.533s3.823,8.533,8.533,8.533h42.667h8.533V435.2c0,4.71,3.823,8.533,8.533,8.533
				h8.533v51.2H409.6v-76.8c0-4.71-3.823-8.533-8.533-8.533s-8.533,3.823-8.533,8.533v8.533h-19.686l-23.518-62.729
				c-1.254-3.328-4.437-5.538-7.996-5.538c-3.558,0-6.741,2.21-7.996,5.538l-23.518,62.729h-19.686v-8.533
				c0-4.71-3.823-8.533-8.533-8.533s-8.533,3.823-8.533,8.533v76.8H51.2v-51.2h8.533c4.71,0,8.533-3.823,8.533-8.533v-17.067
				c0-4.71-3.823-8.533-8.533-8.533c-4.702,0-8.533-3.831-8.533-8.533c0-7.1,9.028-16.964,18.586-27.409
				c2.773-3.029,5.658-6.187,8.533-9.481c3.106-3.55,2.739-8.943-0.811-12.041c-3.55-3.089-8.943-2.731-12.049,0.819
				c-2.782,3.191-5.572,6.238-8.269,9.182c-12.373,13.525-23.057,25.207-23.057,38.929c0,11.127,7.134,20.617,17.067,24.141v1.459
				h-8.533c-4.71,0-8.533,3.823-8.533,8.533v59.733h-25.6c-4.71,0-8.533,3.823-8.533,8.533S3.823,512,8.533,512h494.933
				c4.71,0,8.533-3.823,8.533-8.533S508.177,494.933,503.467,494.933z M418.133,256h-51.2c-4.702,0-8.533-3.831-8.533-8.533
				c0-7.1,9.037-16.973,18.611-27.426c4.958-5.419,10.368-11.332,15.522-17.852c5.154,6.519,10.564,12.433,15.522,17.852
				c9.574,10.453,18.611,20.326,18.611,27.426C426.667,252.169,422.835,256,418.133,256z M341.333,391.236l13.286,35.43h-26.573
				L341.333,391.236z M392.533,494.933h-17.067v-25.6c0-4.71-3.823-8.533-8.533-8.533s-8.533,3.823-8.533,8.533v25.6h-34.133v-25.6
				c0-4.71-3.823-8.533-8.533-8.533s-8.533,3.823-8.533,8.533v25.6h-17.067v-51.2h76.774h0.026h0.026h25.574V494.933z"/>
			<path d="M230.4,170.667c-4.71,0-8.533,3.823-8.533,8.533s3.823,8.533,8.533,8.533h68.267c4.71,0,8.533-3.823,8.533-8.533
				s-3.823-8.533-8.533-8.533h-0.998l-6.639-53.052c9.455-3.772,16.171-12.971,16.171-23.748c0-9.062-4.668-15.804-10.069-23.612
				c-8.064-11.639-19.098-27.588-24.149-62.933C272.375,3.123,268.783,0,264.533,0c-4.25,0-7.842,3.123-8.448,7.322
				C251.034,42.667,240,58.615,231.936,70.255c-5.402,7.808-10.069,14.549-10.069,23.612c0,10.778,6.716,19.977,16.171,23.748
				l-6.639,53.052H230.4z M248.602,170.667l6.4-51.2h19.063l6.4,51.2H248.602z M245.965,79.974
				c5.419-7.834,12.612-18.219,18.569-34.867c5.956,16.649,13.15,27.034,18.569,34.867c4.617,6.673,7.031,10.325,7.031,13.892
				c0,4.702-3.831,8.533-8.533,8.533h-34.133c-4.702,0-8.533-3.831-8.533-8.533C238.933,90.3,241.348,86.647,245.965,79.974z"/>
			<path d="M68.267,297.088v18.645c0,4.71,3.823,8.533,8.533,8.533s8.533-3.823,8.533-8.533v-17.067c4.71,0,8.533-3.823,8.533-8.533
				s-3.823-8.533-8.533-8.533H76.8c-4.702,0-8.533-3.831-8.533-8.533c0-7.1,9.037-16.973,18.611-27.426
				c4.975-5.444,10.411-11.375,15.582-17.92c0.179,0.222,0.35,0.444,0.521,0.657c2.91,3.712,8.277,4.352,11.981,1.451
				c3.703-2.91,4.352-8.277,1.442-11.981c-1.63-2.082-3.695-4.779-5.47-7.262v-14.319c4.71,0,8.533-3.823,8.533-8.533
				s-3.823-8.533-8.533-8.533c0-4.71-3.823-8.533-8.533-8.533c-4.71,0-8.533,3.823-8.533,8.533c-4.71,0-8.533,3.823-8.533,8.533
				s3.823,8.533,8.533,8.533v14.217c-5.999,8.602-12.851,16.282-19.576,23.637C61.901,247.646,51.2,259.337,51.2,273.067
				C51.2,284.177,58.351,293.555,68.267,297.088z"/>
			<path d="M128,256v14.217c-5.999,8.602-12.851,16.282-19.575,23.637c-12.39,13.525-23.091,25.216-23.091,38.946
				c0,11.11,7.151,20.489,17.067,24.021V435.2c0,4.71,3.823,8.533,8.533,8.533s8.533-3.823,8.533-8.533v-76.8H153.6v76.8
				c0,4.71,3.823,8.533,8.533,8.533h51.2c4.71,0,8.533-3.823,8.533-8.533s-3.823-8.533-8.533-8.533h-42.667V356.83
				c9.916-3.541,17.067-12.919,17.067-24.03c0-13.73-10.701-25.421-23.091-38.946c-6.724-7.356-13.577-15.036-19.576-23.637V256
				c4.71,0,8.533-3.823,8.533-8.533s-3.823-8.533-8.533-8.533c0-4.71-3.823-8.533-8.533-8.533S128,234.223,128,238.933
				c-4.71,0-8.533,3.823-8.533,8.533S123.29,256,128,256z M136.533,287.522c5.154,6.519,10.564,12.433,15.522,17.852
				c9.574,10.453,18.611,20.326,18.611,27.426c0,4.702-3.831,8.533-8.533,8.533h-51.2c-4.702,0-8.533-3.831-8.533-8.533
				c0-7.1,9.037-16.973,18.611-27.426C125.969,299.955,131.379,294.042,136.533,287.522z"/>
			<path d="M150.733,224.205c3.746,2.859,9.097,2.15,11.955-1.604c3.328-4.352,7.202-8.585,11.315-13.073
				c4.318-4.71,9.02-9.839,13.747-15.846c5.146,6.511,10.556,12.416,15.505,17.826c9.574,10.453,18.611,20.326,18.611,27.426
				c0,4.702-3.831,8.533-8.533,8.533H179.2c-4.71,0-8.533,3.823-8.533,8.533s3.823,8.533,8.533,8.533h25.6v85.333
				c0,4.71,3.823,8.533,8.533,8.533c4.71,0,8.533-3.823,8.533-8.533v-86.904c9.916-3.541,17.067-12.919,17.067-24.03
				c0-13.73-10.701-25.421-23.091-38.946c-6.724-7.356-13.577-15.036-19.576-23.637v-14.216c4.71,0,8.533-3.823,8.533-8.533
				c0-4.71-3.823-8.533-8.533-8.533c0-4.71-3.823-8.533-8.533-8.533s-8.533,3.823-8.533,8.533c-4.71,0-8.533,3.823-8.533,8.533
				c0,4.71,3.823,8.533,8.533,8.533v14.344c-5.845,8.405-11.904,15.104-17.775,21.521c-4.386,4.779-8.516,9.293-12.297,14.242
				C146.27,215.987,146.987,221.338,150.733,224.205z"/>
		</g>
	</g>
</g>
<g>
</g>
<g>
</g>
<g>
</g>
<g>
</g>
<g>
</g>
<g>
</g>
<g>
</g>
<g>
</g>
<g>
</g>
<g>
</g>
<g>
</g>
<g>
</g>
<g>
</g>
<g>
</g>
<g>
</g>
</svg>
