<?xml version="1.0" encoding="iso-8859-1"?>
<!-- Generator: Adobe Illustrator 17.1.0, SVG Export Plug-In . SVG Version: 6.00 Build 0)  -->
<!DOCTYPE svg PUBLIC "-//W3C//DTD SVG 1.1//EN" "http://www.w3.org/Graphics/SVG/1.1/DTD/svg11.dtd">
<svg version="1.1" id="Capa_1" xmlns="http://www.w3.org/2000/svg" xmlns:xlink="http://www.w3.org/1999/xlink" x="0px" y="0px"
	 viewBox="0 0 200 200" style="enable-background:new 0 0 200 200;" xml:space="preserve">
<g>
	<path d="M152.447,99.547c-2.541,0.183-6.239,0.188-9.076-0.575c-0.476-0.128-0.455-0.294,0.036-0.338
		c13.82-1.26,26.025-6.391,32.44-13.284c1.826-1.964,3.266-4.118,4.289-6.424c0.464-1.045,0.753-2.151,1.13-3.228
		c0.405-1.157,0.481-1.761,0.412-2.059c-0.111-0.48-0.835,0.291-0.978,0.762c-0.187,0.619-0.375,1.236-0.632,1.832
		c-0.539,1.246-1.239,2.432-2.013,3.586c-0.274,0.409-0.705,0.391-0.959-0.031c-1.085-1.802-2.237-3.579-2.646-5.339
		c-0.112-0.48-0.221-0.488-0.244,0.004c-0.146,3.121,1.769,6.804,0.176,9.499c-1.638,2.769-5.646,4.816-9.294,6.43
		c-7.35,3.253-17.003,4.237-25.366,6.556c-8.958,2.485-14.594,6.875-17.724,12.376c-0.244,0.428-0.463,0.386-0.527-0.103
		c-0.043-0.326-0.093-0.655-0.153-0.986c-1.088-6.049-3.242-12.235-3.074-18.164c0.159-5.587,2.575-10.866,7.569-14.823
		c1.181-0.931,2.488-1.786,3.889-2.578c0.862-0.49,3.778-1.886,4.256-2.005c12.167-3.01,22.445-9.632,27.371-17.266
		c1.405-2.179,2.443-4.499,3.092-6.916c0.294-1.095,0.425-2.23,0.638-3.345c0.215-1.125,0.226-1.731,0.148-2.038
		c-0.122-0.477-0.729,0.338-0.803,0.825c-0.096,0.637-0.192,1.272-0.354,1.896c-0.336,1.299-0.823,2.558-1.378,3.795
		c-0.202,0.45-0.601,0.481-0.887,0.08c-1.169-1.639-2.392-3.245-2.958-4.928c-0.157-0.467-0.256-0.463-0.219,0.029
		c0.229,3.114,2.365,6.525,1.252,9.4c-1.145,2.955-4.49,5.492-7.563,7.556c-6.192,4.157-14.703,6.357-21.908,9.716
		c-13.76,6.417-17.401,17.501-15.524,29.388c0.077,0.487-0.177,0.648-0.601,0.396c-0.19-0.113-0.385-0.222-0.584-0.329
		c-0.435-0.232-1.072-0.691-1.425-1.035c-1.664-1.622-3.633-3.153-5.944-4.572c-6.776-4.157-14.981-7.31-20.661-12.145
		c-2.818-2.399-5.853-5.301-6.654-8.367c-0.779-2.982,1.731-6.129,2.313-9.196c0.092-0.484-0.005-0.501-0.214-0.054
		c-0.754,1.607-2.151,3.065-3.5,4.56c-0.33,0.366-0.723,0.289-0.872-0.18c-0.411-1.293-0.751-2.599-0.937-3.927
		c-0.089-0.638-0.113-1.28-0.136-1.924c-0.018-0.492-0.528-1.371-0.704-0.911c-0.113,0.297-0.17,0.899-0.085,2.042
		c0.084,1.133,0.086,2.275,0.253,3.396c0.37,2.476,1.137,4.898,2.285,7.223c4.026,8.144,13.484,15.892,25.23,20.267
		c0.462,0.172,0.441,0.355-0.052,0.369c-2.601,0.075-5.737-0.74-7.89-1.48c-0.466-0.16-0.593,0.013-0.248,0.365
		c1.517,1.547,3.967,2.955,7.051,3.101c1.019,0.053,1.925-0.25,2.85-0.539c1.401-0.438,1.488,0.075,2.289,0.66
		c1.302,0.946,2.504,1.944,3.571,3.003c4.511,4.499,6.311,10.019,5.834,15.587c-0.017,0.198-0.037,0.397-0.06,0.595
		c-0.037,0.329-0.206,0.973-0.397,1.427c-0.498,1.181-1.141,2.315-1.833,3.433c-0.259,0.419-0.824,0.561-1.248,0.308
		c-0.719-0.429-1.404-0.878-2.015-1.369c-0.384-0.309-0.426-0.273-0.122,0.114c0.546,0.695,1.097,1.39,1.658,2.083
		c0.31,0.383,0.346,1.028,0.081,1.444c-1.542,2.428-2.942,4.897-3.16,7.734c-0.047,0.597-0.066,1.197-0.062,1.799
		c0.003,0.493-0.199,0.558-0.501,0.168c-2.686-3.456-7.058-5.736-9.639-9.287c-0.539-0.74-0.989-1.533-1.373-2.362
		c-0.207-0.447-0.297-0.941-0.227-1.091c0.07-0.15,0.063-0.177-0.024-0.065c-0.087,0.112-0.304-0.166-0.464-0.633
		c-0.362-1.059-0.643-2.159-0.871-3.281c-0.241-1.181-0.7-2.426-0.175-3.86c0.445-1.218,1.436-2.457,2.112-3.677
		c1.331-2.418,2.481-4.815,3.585-7.21c0.206-0.448,0.157-0.473-0.148-0.087c-1.615,2.043-4.145,3.704-5.897,5.678
		c-0.327,0.369-0.618,0.292-0.693-0.195c-1.827-11.895-8.667-21.346-23.727-23.275c-7.885-1.009-16.662-0.516-23.825-2.593
		c-3.554-1.031-7.513-2.431-9.502-4.898c-1.934-2.4-0.938-6.299-1.666-9.335c-0.115-0.479-0.21-0.454-0.218,0.038
		c-0.028,1.775-0.704,3.677-1.319,5.595c-0.151,0.469-0.541,0.56-0.87,0.193c-0.905-1.01-1.751-2.062-2.467-3.196
		c-0.344-0.545-0.628-1.121-0.914-1.699c-0.218-0.442-1.044-1.034-1.016-0.542c0.018,0.317,0.214,0.89,0.76,1.897
		c0.542,0.998,1.012,2.039,1.625,2.993c1.353,2.106,3.047,4,5.049,5.648c7.015,5.773,18.82,8.956,31.326,8.124
		c0.492-0.033,0.548,0.143,0.105,0.358c-2.341,1.136-5.535,1.681-7.802,1.889c-0.491,0.045-0.535,0.255-0.076,0.435
		c2.018,0.788,4.831,1.067,7.703-0.067c0.951-0.37,1.652-1.018,2.378-1.661c1.098-0.974,1.388-0.542,2.358-0.338
		c1.575,0.328,3.081,0.745,4.489,1.273c5.961,2.251,9.868,6.545,11.718,11.819c1.964,5.597,1.792,12.145,2.596,18.239
		c0.266,2.02,0.766,3.873,1.452,5.61c0.181,0.458,0.042,1.084-0.324,1.415c-0.551,0.499-1.078,1.007-1.55,1.538
		c-0.327,0.368-0.618,0.292-0.693-0.195c-1.827-11.895-8.667-21.346-23.726-23.275c-7.885-1.009-16.662-0.516-23.825-2.593
		c-3.554-1.031-7.513-2.431-9.502-4.898c-1.934-2.4-0.938-6.299-1.666-9.335c-0.115-0.479-0.21-0.454-0.218,0.038
		c-0.028,1.775-0.704,3.677-1.319,5.595c-0.151,0.469-0.541,0.56-0.87,0.193c-0.905-1.01-1.751-2.062-2.467-3.196
		c-0.344-0.545-0.628-1.121-0.914-1.699c-0.218-0.442-1.044-1.034-1.016-0.542c0.018,0.317,0.214,0.89,0.76,1.897
		c0.542,0.998,1.012,2.039,1.625,2.993c1.353,2.106,3.047,3.999,5.049,5.648c7.015,5.773,18.82,8.956,31.326,8.124
		c0.492-0.033,3.694,0.411,4.664,0.615c1.575,0.328,3.081,0.745,4.489,1.273c5.961,2.251,9.867,6.545,11.718,11.819
		c1.964,5.597,1.792,12.145,2.596,18.238c0.818,6.219,3.831,10.884,7.774,15.308c0.328,0.368,0.25,0.466-0.197,0.257
		c-1.953-0.912-4.446-1.485-7.311-1.043c-0.487,0.075-0.476,0.146,0.016,0.171c4.845,0.243,7.317,3.914,9.668,6.461
		c0.546,0.59,1.099,1.176,1.713,1.717c0.963,0.849,0.714,2.97,0.854,4.28c0.152,1.429,0.277,2.869,0.4,4.31
		c0.341,12.612-1.147,20.931-1.698,23.53c-0.102,0.482,0.186,0.759,0.666,0.646c1.856-0.439,2.617-0.265,4.835,0.225
		c2.533,0.56,21.107,0.918,20.263,0s-4.845-27.542-4.534-28.376c1.203-3.217,1.555-6.64,1.379-10.137
		c-0.025-0.492,0.178-1.215,0.486-1.599c1.483-1.845,3.421-3.487,6.513-4.086c0.484-0.094,0.481-0.159-0.012-0.155
		c-2.614,0.021-4.815,0.669-6.59,1.565c-0.44,0.222-0.812,0.233-0.848-0.006s0.146-0.769,0.403-1.189
		c2.752-4.504,4.522-9.167,4.135-14.755c-0.194-2.812-0.629-5.684-0.955-8.533c-0.056-0.49,0.211-1.141,0.589-1.457
		c0.792-0.663,1.571-1.33,2.343-2.001c0.372-0.323,0.339-0.367-0.099-0.14c-0.559,0.29-1.157,0.537-1.777,0.761
		c-0.463,0.168-0.502,0.08-0.057-0.131c0.224-0.106,0.457-0.206,0.7-0.299c0.461-0.175,0.449-0.246-0.038-0.168
		c-0.374,0.06-0.737,0.136-1.089,0.224c-0.478,0.12-0.887-0.152-0.914-0.645c-0.113-2.063-0.082-4.094,0.235-6.059
		c0.89-5.518,4.225-10.414,10.23-13.637c1.419-0.757,2.968-1.421,4.612-2.01c1.012-0.364,1.235-0.839,2.637-0.061
		c0.926,0.513,1.827,1.036,2.94,1.242c3.394,0.643,6.416-0.121,8.443-1.253C153.008,99.702,152.939,99.511,152.447,99.547z
		 M91.197,131.58c0.445-1.218,1.436-2.457,2.112-3.677c0.144-0.261,0.284-0.522,0.422-0.782c0.23-0.434,0.607-0.436,0.859-0.013
		c1.248,2.086,2.765,4.026,4.453,5.921c0.328,0.368,0.249,0.466-0.197,0.258c-1.871-0.871-4.241-1.424-6.956-1.079
		c-0.489,0.062-0.858-0.034-0.807-0.247C91.113,131.835,91.15,131.709,91.197,131.58z M103.996,152.19
		c-2.683-3.474-7.076-5.757-9.665-9.319c-1.57-2.155-2.41-4.735-2.958-7.431c-0.14-0.683-0.347-1.387-0.397-2.137
		c-0.033-0.492,0.425-0.897,0.916-0.855c4.618,0.394,7.035,3.941,9.33,6.427c0.546,0.59,1.099,1.176,1.713,1.717
		c0.962,0.849,0.714,2.97,0.854,4.28c0.252,2.37,0.436,4.767,0.649,7.152C104.48,152.516,104.297,152.58,103.996,152.19z
		 M118.84,124.546c0.033-0.079,0.068-0.059,0.066,0.043c-0.001,0.102-0.039,0.164-0.071,0.142
		C118.804,124.708,118.807,124.625,118.84,124.546z M119.539,133.339c-0.018,2.196-0.259,4.348-0.988,6.343
		c-0.169,0.463-0.422,0.437-0.528-0.044c-0.128-0.581-0.252-1.162-0.372-1.743c-0.264-1.29-1.146-3.235-0.488-4.337
		c0.421-0.702,0.769-1.428,1.109-2.157c0.132-0.284,0.263-0.577,0.395-0.876c0.198-0.451,0.568-0.472,0.71,0
		C119.67,131.497,119.548,132.446,119.539,133.339z"/>
	<circle cx="109" cy="53.399" r="6.491"/>
	<circle cx="94" cy="56.399" r="6.491"/>
	<circle cx="62.013" cy="60.175" r="6.491"/>
	<circle cx="68.013" cy="74.175" r="6.491"/>
	<circle cx="79.36" cy="51.81" r="6.491"/>
	<circle cx="127.333" cy="50.534" r="6.491"/>
	<circle cx="113.779" cy="38.319" r="6.491"/>
	<circle cx="133.435" cy="80.046" r="6.491"/>
	<circle cx="126.944" cy="92.509" r="6.491"/>
	<circle cx="63.102" cy="45.043" r="6.491"/>
	<circle cx="44.435" cy="56.79" r="6.491"/>
	<circle cx="50.926" cy="71.771" r="6.491"/>
	<circle cx="46.769" cy="40.946" r="6.491"/>
	<circle cx="129.333" cy="34.062" r="6.491"/>
	<circle cx="152.667" cy="72.665" r="6.491"/>
	<circle cx="146.667" cy="86.665" r="6.491"/>
	<circle cx="167.333" cy="61.175" r="6.491"/>
	<circle cx="166.139" cy="78.202" r="6.491"/>
	<circle cx="31.123" cy="106.562" r="6.491"/>
	<circle cx="18.142" cy="95.184" r="6.491"/>
	<circle cx="107.083" cy="110.93" r="6.491"/>
	<circle cx="178.667" cy="49.299" r="6.491"/>
	<circle cx="181.701" cy="65.175" r="6.491"/>
	<circle cx="138.926" cy="113.052" r="6.491"/>
	<circle cx="124.761" cy="17.983" r="6.491"/>
	<circle cx="155.648" cy="109.93" r="6.491"/>
	<circle cx="170.824" cy="100" r="6.491"/>
	<circle cx="183.806" cy="89.536" r="6.491"/>
	<circle cx="38.541" cy="26.843" r="6.491"/>
	<circle cx="77.083" cy="18.843" r="6.491"/>
	<circle cx="98.509" cy="11.492" r="6.491"/>
	<circle cx="122.27" cy="64.492" r="6.491"/>
	<circle cx="74.565" cy="95.901" r="6.491"/>
	<circle cx="40.031" cy="89.536" r="6.491"/>
	<circle cx="54.259" cy="94.156" r="6.491"/>
	<circle cx="67.241" cy="117.052" r="6.491"/>
	<circle cx="49.031" cy="115.767" r="6.491"/>
	<circle cx="21.906" cy="76.665" r="6.491"/>
	<circle cx="30.397" cy="58.299" r="6.491"/>
	<circle cx="15.415" cy="62.001" r="6.491"/>
	<circle cx="31.397" cy="42.843" r="6.491"/>
	<circle cx="77.083" cy="34.455" r="6.491"/>
	<circle cx="109.779" cy="24.08" r="6.491"/>
	<circle cx="144.417" cy="38.897" r="6.491"/>
	<circle cx="143.417" cy="53.897" r="6.491"/>
	<circle cx="158.843" cy="30.571" r="6.491"/>
	<circle cx="175.211" cy="34.455" r="6.491"/>
	<circle cx="141.926" cy="22.473" r="6.491"/>
	<circle cx="90.065" cy="72.771" r="6.491"/>
	<circle cx="77.083" cy="130.667" r="6.491"/>
	<circle cx="92.019" cy="25.333" r="6.491"/>
	<circle cx="95.019" cy="40.333" r="6.491"/>
	<circle cx="60.75" cy="30.333" r="6.491"/>
	<circle cx="53.259" cy="15.983" r="6.491"/>
	<circle cx="107.083" cy="84.508" r="6.491"/>
	<circle cx="106.083" cy="69.508" r="6.491"/>
</g>
</svg>
