<?xml version="1.0" encoding="utf-8"?>
<!-- Generator: Adobe Illustrator 16.0.0, SVG Export Plug-In . SVG Version: 6.00 Build 0)  -->
<!DOCTYPE svg PUBLIC "-//W3C//DTD SVG 1.1//EN" "http://www.w3.org/Graphics/SVG/1.1/DTD/svg11.dtd">
<svg version="1.1" id="Layer_1" xmlns="http://www.w3.org/2000/svg" xmlns:xlink="http://www.w3.org/1999/xlink" x="0px" y="0px"
	 width="50px" height="50px" viewBox="0 0 50 50" enable-background="new 0 0 50 50" preserveAspectRatio="fit">
<path d="M28.166,37.825c0.555-2.625,1.982-11.161-1.273-17.413c0,0,6.072,0.623,5.762,8.408c0,0,5.294-10.588-3.582-12.612
	c0,0,2.803-6.696,9.654-4.049c0,0-5.513-6.188-13.417,1.082c-0.824-2.276-0.286-5.506-0.286-5.506
	c-3.264,1.591-3.846,4.54-3.817,6.557c-2.88-0.541-7.92,0.586-9.382,5.806c0,0,5.5-3.833,9.833-1.5c0,0-7.689,2.126-8.001,9.444
	c0,0,3.205-3.94,6.51-4.905c-0.268,0.256-0.437,0.613-0.437,1.013c0,0.774,0.628,1.401,1.401,1.401c0.281,0,0.542-0.084,0.761-0.227
	c-0.182,0.236-0.294,0.527-0.294,0.85c0,0.774,0.628,1.402,1.401,1.402c0.674,0,1.235-0.477,1.37-1.109
	c0.408,2.896,0.452,7.51-2.268,11.2c-1.687-0.976-2.462-2.772-2.796-3.97c0.16,0.224,0.46,0.313,0.722,0.197
	c0.302-0.131,0.438-0.481,0.307-0.783c-0.055-0.125-0.147-0.221-0.259-0.281c0.109,0.02,0.226,0.007,0.335-0.041
	c0.302-0.132,0.438-0.482,0.307-0.785c-0.067-0.154-0.194-0.266-0.342-0.318c1.451-0.188,3.37,0.801,3.37,0.801
	c-1.367-2.797-4.725-2.314-4.725-2.314c1.29-1.646,4.085-1.091,4.085-1.091c-1.459-1.784-3.613-1.364-4.643-0.663
	c-0.333-0.79-1.062-1.839-2.604-1.902c0,0,0.76,1.166,0.826,2.192c-4.317-1.483-5.409,1.864-5.409,1.864
	c2.218-2.198,4.449-0.067,4.449-0.067c-3.111,2.3,0.755,5.521,0.755,5.521c-1.448-2.979,0.811-4.256,0.811-4.256
	c-0.163,2.395,1.092,4.842,1.94,6.2c-4.803,0.354-8.146,1.136-8.146,2.046c0,1.242,6.231,2.25,13.917,2.25
	c7.686,0,13.917-1.008,13.917-2.25C38.917,38.948,34.324,38.059,28.166,37.825z M21.818,22.935c0.182,0.013,0.362,0.042,0.541,0.082
	c-0.053,0.085-0.096,0.177-0.13,0.272C22.116,23.146,21.978,23.025,21.818,22.935z M22.238,24.999
	c0.087-0.114,0.157-0.24,0.206-0.379c0.059,0.075,0.124,0.143,0.196,0.204C22.496,24.862,22.36,24.92,22.238,24.999z M23.901,25.11
	c0.075-0.02,0.148-0.043,0.218-0.074c0.028,0.136,0.058,0.283,0.086,0.437C24.125,25.335,24.022,25.213,23.901,25.11z M19.738,32.65
	c0.042,0.045,0.091,0.082,0.145,0.111c-0.062-0.01-0.124-0.009-0.187,0.002C19.714,32.729,19.728,32.689,19.738,32.65z
	 M19.694,31.889c-0.046,0.063-0.08,0.133-0.1,0.207c-0.029-0.031-0.062-0.061-0.097-0.084
	C19.561,31.966,19.626,31.924,19.694,31.889z M19.197,33.283c-0.015-0.065-0.028-0.127-0.041-0.186c0.032,0,0.065-0.004,0.098-0.009
	C19.225,33.15,19.205,33.215,19.197,33.283z"/>
</svg>
