<?xml version="1.0" encoding="iso-8859-1"?>
<!-- Generator: Adobe Illustrator 18.0.0, SVG Export Plug-In . SVG Version: 6.00 Build 0)  -->
<!DOCTYPE svg PUBLIC "-//W3C//DTD SVG 1.1//EN" "http://www.w3.org/Graphics/SVG/1.1/DTD/svg11.dtd">
<svg version="1.1" id="Capa_1" xmlns="http://www.w3.org/2000/svg" xmlns:xlink="http://www.w3.org/1999/xlink" x="0px" y="0px"
	 viewBox="0 0 480 480" style="enable-background:new 0 0 480 480;" xml:space="preserve">
<g>
	<path d="M465.169,154.745c9.979-7.884,14.831-20.813,14.831-39.528c0-32.2-14.427-48.527-42.879-48.527H56.424
		C25.312,66.689,0,92.003,0,123.117v190.73c0,31.114,25.312,56.428,56.424,56.428h5.107c4.692,24.478,26.254,43.035,52.081,43.035
		c25.823,0,47.381-18.557,52.072-43.035h151.842c4.691,24.478,26.25,43.035,52.073,43.035c25.997,0,47.669-18.805,52.167-43.522
		c16.348-1.584,28.131-7.156,35.812-16.935c9.155-11.655,10.329-26.968,10.329-39.006c0-7.231-1.579-21.106-12.151-32.778
		c-5.877-6.487-13.433-11.135-22.574-13.93l-20.34-103.665h19.559C442.512,163.475,455.376,162.482,465.169,154.745z
		 M113.611,393.311c-18.218,0-33.039-14.819-33.039-33.035c0-18.218,14.821-33.039,33.039-33.039
		c18.213,0,33.03,14.821,33.03,33.039C146.642,378.491,131.824,393.311,113.611,393.311z M275.977,350.275h-78.159V163.475h78.159
		V350.275z M369.598,393.311c-18.213,0-33.031-14.819-33.031-33.035c0-18.218,14.818-33.039,33.031-33.039
		c18.217,0,33.038,14.821,33.038,33.039C402.636,378.491,387.815,393.311,369.598,393.311z M447.905,313.848
		c0,21.237-4.36,33.281-26.325,35.885c-4.903-24.213-26.346-42.497-51.983-42.497c-25.823,0-47.382,18.559-52.073,43.039h-21.548
		V143.475H177.817v206.801h-12.134c-4.691-24.48-26.249-43.039-52.072-43.039c-25.827,0-47.389,18.559-52.081,43.039h-5.107
		C36.34,350.275,20,333.934,20,313.848v-190.73c0-20.086,16.34-36.428,36.424-36.428h380.697c19.233,0,22.879,10.026,22.879,28.527
		c0,12.026-2.432,20.046-7.229,23.835c-3.871,3.059-10.154,4.423-20.372,4.423H328.358v140.52h81.731
		C444.221,283.994,447.905,304.872,447.905,313.848z M412.189,264.032c-0.698-0.014-1.389-0.038-2.099-0.038h-61.731v-100.52h44.1
		L412.189,264.032z"/>
	<path d="M46.934,231.453H150.45v-87.979H46.934V231.453z M66.934,163.475h63.517v47.979H66.934V163.475z"/>
</g>
<g>
</g>
<g>
</g>
<g>
</g>
<g>
</g>
<g>
</g>
<g>
</g>
<g>
</g>
<g>
</g>
<g>
</g>
<g>
</g>
<g>
</g>
<g>
</g>
<g>
</g>
<g>
</g>
<g>
</g>
</svg>
