<?xml version="1.0" encoding="iso-8859-1"?>
<!-- Generator: Adobe Illustrator 18.0.0, SVG Export Plug-In . SVG Version: 6.00 Build 0)  -->
<!DOCTYPE svg PUBLIC "-//W3C//DTD SVG 1.1//EN" "http://www.w3.org/Graphics/SVG/1.1/DTD/svg11.dtd">
<svg version="1.1" id="Capa_1" xmlns="http://www.w3.org/2000/svg" xmlns:xlink="http://www.w3.org/1999/xlink" x="0px" y="0px"
	 viewBox="0 0 489.199 489.199" style="enable-background:new 0 0 489.199 489.199;" xml:space="preserve">
<g>
	<g>
		<path d="M244.583,489.199l-8.536-13.991c-5.915-9.695-144.86-238.385-144.86-320.324C91.188,69.48,160.001,0,244.584,0
			c84.601,0,153.428,69.48,153.428,154.884c0,81.94-138.976,310.63-144.892,320.325L244.583,489.199z M244.584,20
			c-73.555,0-133.396,60.509-133.396,134.884c0,21.712,12.243,71.08,70.566,182.962c24.937,47.837,50.095,91.173,62.831,112.682
			c12.75-21.527,37.944-64.917,62.895-112.777c58.296-111.82,70.532-161.164,70.532-182.868C378.012,80.509,318.156,20,244.584,20z"
			/>
	</g>
	<g>
		<path d="M244.6,236.446c-44.587,0-80.862-36.275-80.862-80.862s36.275-80.862,80.862-80.862c44.588,0,80.862,36.275,80.862,80.862
			S289.188,236.446,244.6,236.446z M244.6,94.722c-33.56,0-60.862,27.303-60.862,60.862s27.303,60.862,60.862,60.862
			s60.862-27.303,60.862-60.862S278.159,94.722,244.6,94.722z"/>
	</g>
</g>
<g>
</g>
<g>
</g>
<g>
</g>
<g>
</g>
<g>
</g>
<g>
</g>
<g>
</g>
<g>
</g>
<g>
</g>
<g>
</g>
<g>
</g>
<g>
</g>
<g>
</g>
<g>
</g>
<g>
</g>
</svg>
