<?xml version="1.0" encoding="iso-8859-1"?>
<!-- Generator: Adobe Illustrator 18.0.0, SVG Export Plug-In . SVG Version: 6.00 Build 0)  -->
<!DOCTYPE svg PUBLIC "-//W3C//DTD SVG 1.1//EN" "http://www.w3.org/Graphics/SVG/1.1/DTD/svg11.dtd">
<svg version="1.1" id="Capa_1" xmlns="http://www.w3.org/2000/svg" xmlns:xlink="http://www.w3.org/1999/xlink" x="0px" y="0px"
	 viewBox="0 0 63.954 101.944" style="enable-background:new 0 0 63.954 101.944;" preserveAspectRatio="fit">
<g>
	<path d="M16.935,86.711c0,2.453,1.368,3.566,3.056,3.566s1.688-8.882,0-8.882S16.935,84.258,16.935,86.711z"/>
	<path d="M37.121,90.276c1.688,0,3.056-1.113,3.056-3.566s-1.368-5.316-3.056-5.316S35.433,90.276,37.121,90.276z"/>
	<path d="M7.083,34.735c-1.75,4.173-2.567,9.022-2.319,13.926c0.29,5.737,1.984,11.036,4.772,14.922
		c1.799,2.507,3.389,5.179,4.89,7.873c1.289,2.314,0.911,4.408-0.679,6.501c-3.137,4.127-4.112,9.39-2.485,13.409
		c0.96,2.37,2.77,4.046,5.056,4.725c0.495,0.669,1.295,1.601,2.445,2.527c3.383,2.722,7.186,3.311,9.78,3.327l0.014,0l0.014,0
		c7.066-0.042,10.832-3.984,12.221-5.853c2.288-0.678,4.1-2.355,5.06-4.726c1.199-2.961,0.983-6.598-0.467-9.958
		c1.422,0.996,2.831,1.688,4.083,2.168c3.039,1.164,5.699,1.301,6.782,1.301c0.302,0,0.482-0.011,0.512-0.013l6.194-0.402
		l-4.924-3.78c-0.019-0.015-1.973-1.562-3.392-4.324c-1.918-3.735-1.943-7.814-0.073-12.125c3.286-7.576,3.758-15.604,3.576-21.004
		c-0.033-0.965-0.086-1.881-0.153-2.739c0.815,1.034,1.297,1.755,1.308,1.771l3.114,4.702l1.121-5.528
		c1.048-5.172,0.134-10.443-2.644-15.244c-1.37-2.367-2.884-4.081-3.786-5c0.047-1.58-0.067-2.943-0.19-3.903
		c-0.555-4.321-2.377-8.939-5.824-8.939c-0.705,0-1.757,0.213-2.772,1.228c-0.522,0.522-1.321,1.342-2.264,2.331
		c-2.344-0.841-4.671-1.147-6.81-0.884c-0.028,0.003-0.057,0.007-0.085,0.011c0.188-2.645,1.054-5.017,1.064-5.046l1.503-4.018
		l-4.19,0.92c-2.835,0.622-5.382,1.642-7.307,2.563L28.663,0L26.54,7.486c-5.648,3.217-8.058,7.796-9.085,11.089
		c-0.031,0.1-0.061,0.199-0.09,0.298c-0.598-0.708-1.291-1.506-2.098-2.411c-2.526-2.83-5.252-5.667-6.469-6.883
		C7.783,8.564,6.73,8.351,6.026,8.351c-3.447,0-5.269,4.618-5.824,8.939c-0.282,2.193-0.513,6.493,1.102,10.658
		C2.51,31.059,4.483,33.364,7.083,34.735z M55.81,27.947c0.088-0.226,0.169-0.453,0.246-0.68c1.234,1.82,2.517,4.325,3.015,7.349
		c-0.882-0.919-1.872-1.856-2.94-2.708L54.48,30.59C54.993,29.788,55.438,28.906,55.81,27.947z M51.725,15.217
		c0.129,0.426,0.252,0.91,0.359,1.458c0.469,2.381,0.476,5.051,0.021,7.326c-0.183,0.914-0.468,1.91-0.909,2.868
		c-0.053-0.753-0.197-1.54-0.458-2.353C49.837,21.712,50.716,17.98,51.725,15.217z M50.03,34.735
		c0.767-0.404,1.478-0.893,2.133-1.457l0.241,1.001c0.036,0.149,3.527,15.068-2.123,28.095c-3.055,7.045-1.576,12.653,0.204,16.117
		c0.103,0.201,0.209,0.398,0.316,0.589c-3.541-1.456-6.203-4.127-7.925-7.95l1.196-2.095c1.01-1.784,2.189-3.618,3.506-5.453
		c2.788-3.885,4.482-9.185,4.772-14.922C52.597,43.757,51.78,38.908,50.03,34.735z M34.759,8.591
		c-0.296,1.767-0.452,3.875-0.11,5.895l0.571,3.38l2.936-1.77c0.019-0.012,1.576-0.824,4.319-0.334
		c-0.21,0.233-0.42,0.467-0.629,0.7c-2.395,2.684-3.796,4.439-4.636,5.64c-1.109-0.405-2.265-0.724-3.464-0.961
		c-0.538-3.555-1.263-7.342-2.239-11.109C32.401,9.578,33.509,9.065,34.759,8.591z M28.427,20.647
		c0.081-0.502,0.165-1.007,0.253-1.515c0.088,0.509,0.173,1.016,0.253,1.518c0.229,1.426,0.426,2.821,0.597,4.168
		c-0.213,0.109-0.491,0.177-0.856,0.177c-0.361,0-0.636-0.067-0.848-0.173C27.999,23.474,28.197,22.077,28.427,20.647z
		 M27.356,29.009c0.424,0.09,0.866,0.137,1.319,0.137c0.455,0,0.899-0.048,1.325-0.138c0.029,0.303,0.057,0.602,0.084,0.896
		c-0.192,0.366-0.588,0.688-1.409,0.688c-0.814,0-1.21-0.317-1.404-0.679C27.298,29.616,27.326,29.315,27.356,29.009z
		 M26.925,34.502c0.553,0.158,1.142,0.241,1.75,0.241c0.609,0,1.198-0.083,1.752-0.241c0.014,0.23,0.026,0.453,0.038,0.671
		c-0.203,0.679-0.801,1.024-1.79,1.024c-0.986,0-1.584-0.343-1.789-1.019C26.898,34.959,26.911,34.734,26.925,34.502z
		 M28.675,40.347c0.696,0,1.349-0.092,1.952-0.265c-0.021,0.48-0.21,0.693-0.376,0.826c-0.341,0.272-0.916,0.429-1.576,0.429
		c-0.66,0-1.235-0.156-1.576-0.429c-0.166-0.132-0.355-0.345-0.376-0.826C27.326,40.255,27.979,40.347,28.675,40.347z
		 M21.968,19.792c0.602-1.851,1.526-3.494,2.762-4.92c-0.437,2.12-0.803,4.208-1.109,6.22c-0.721,0.134-1.426,0.299-2.115,0.494
		C21.614,21.029,21.762,20.425,21.968,19.792z M17.169,55.833c0.556,0,1.234-0.097,1.951-0.416
		c-0.064,0.543-0.174,1.128-0.345,1.754l4.503,1.235c0.736-2.683,0.778-5.353,0.121-7.721c-0.421-1.518-1.009-2.503-1.283-2.908
		c-0.419-0.729-1.049-1.399-1.884-2.005c-1.522-1.104-4.236-2.281-6.54-2.626l0.002-0.014c-0.078-0.009-0.256-0.028-0.512-0.049
		c-0.088-0.007-0.186-0.015-0.292-0.023c-0.751-0.055-1.929-0.109-3.235-0.056c0.418-3.057,1.322-5.938,2.667-8.411l1.424-2.62
		l-1.75-0.457c-0.607-0.795-2.001-2.999-1.174-5.571c0.73-2.272,0.712-4.743,0.352-7.051c0.2,0.221,0.399,0.443,0.598,0.665
		c4.363,4.887,4.911,6.162,4.959,6.291l0.886,2.423l2.323-1.123c0.953-0.461,1.962-0.835,3.024-1.122
		c-0.898,7.798-0.912,13.564-0.912,13.963c0,3.542,2.724,6.016,6.624,6.016s6.624-2.474,6.624-6.015
		c0-0.402-0.013-6.154-0.896-13.893c0.97,0.278,1.896,0.627,2.772,1.051l2.323,1.123l0.886-2.423
		c0.048-0.129,0.596-1.404,4.959-6.291c0.198-0.222,0.398-0.444,0.598-0.665c-0.361,2.308-0.378,4.779,0.352,7.051
		c0.826,2.573-0.568,4.776-1.174,5.571l-1.75,0.457l1.424,2.62c1.345,2.474,2.249,5.355,2.667,8.413
		c-1.321-0.056-2.513-0.001-3.271,0.055c-0.107,0.008-0.204,0.016-0.293,0.023c-0.256,0.022-0.433,0.04-0.511,0.049l0.002,0.014
		c-2.304,0.345-5.018,1.523-6.54,2.626c-0.836,0.606-1.465,1.277-1.884,2.006c-0.274,0.405-0.861,1.389-1.282,2.907
		c-0.657,2.368-0.615,5.038,0.121,7.721l4.503-1.235c-0.172-0.626-0.282-1.211-0.347-1.755c0.718,0.32,1.396,0.417,1.953,0.417
		c1.139,0,2.272-0.402,3.366-1.196c1.246-0.904,2.728-2.476,3.774-4.005c0.197-0.288,0.375-0.57,0.535-0.845
		c-0.419,4.273-1.776,8.251-3.801,11.074c-1.678,2.338-3.03,4.806-4.533,7.246c-0.736,1.196-1.744,2.833-2.022,4.987
		c-0.33,2.555,0.485,5.142,2.42,7.689c2.456,3.231,2.711,6.763,1.874,8.83c-0.492,1.215-1.335,1.922-2.505,2.101l-1.144,0.174
		l-0.554,1.016c-0.005,0.01-0.612,1.04-1.898,2.075c-1.871,1.505-4.181,2.277-6.867,2.296c-6.121-0.042-8.593-4.078-8.769-4.378
		l-0.522-1.004l-1.172-0.179c-1.17-0.178-2.012-0.885-2.505-2.101c-0.837-2.067-0.582-5.599,1.874-8.83
		c1.936-2.547,2.75-5.134,2.42-7.689c-0.278-2.155-1.286-3.792-2.022-4.988c-1.5-2.437-2.858-4.912-4.532-7.246
		c-2.013-2.806-3.366-6.755-3.793-11c0.149,0.252,0.313,0.51,0.493,0.772c1.047,1.529,2.528,3.101,3.774,4.005
		C14.897,55.431,16.029,55.833,17.169,55.833z M13.846,47.942c1.304,0.348,2.85,1.035,3.645,1.611
		c0.36,0.261,0.52,0.458,0.571,0.543c-0.019,0.065-0.081,0.226-0.277,0.497c-0.34,0.469-0.576,0.571-0.616,0.571
		c-0.075,0-0.291-0.064-0.624-0.306C15.624,50.19,14.545,48.961,13.846,47.942z M43.232,47.942
		c-0.699,1.019-1.778,2.248-2.699,2.916c-0.333,0.242-0.549,0.306-0.624,0.306c-0.04,0-0.276-0.102-0.616-0.571
		c-0.196-0.27-0.258-0.431-0.277-0.497c0.051-0.086,0.211-0.282,0.571-0.543C40.382,48.976,41.928,48.29,43.232,47.942z
		 M5.029,16.674c0.109-0.551,0.232-1.039,0.362-1.467c1.011,2.758,1.891,6.488,0.985,9.309c-0.261,0.813-0.405,1.6-0.458,2.353
		C5.477,25.91,5.191,24.914,5.008,24C4.552,21.725,4.56,19.055,5.029,16.674z"/>
</g>
<g>
</g>
<g>
</g>
<g>
</g>
<g>
</g>
<g>
</g>
<g>
</g>
<g>
</g>
<g>
</g>
<g>
</g>
<g>
</g>
<g>
</g>
<g>
</g>
<g>
</g>
<g>
</g>
<g>
</g>
</svg>
