<?xml version="1.0" encoding="iso-8859-1"?>
<!-- Generator: Adobe Illustrator 18.0.0, SVG Export Plug-In . SVG Version: 6.00 Build 0)  -->
<!DOCTYPE svg PUBLIC "-//W3C//DTD SVG 1.1//EN" "http://www.w3.org/Graphics/SVG/1.1/DTD/svg11.dtd">
<svg version="1.1" id="Capa_1" xmlns="http://www.w3.org/2000/svg" xmlns:xlink="http://www.w3.org/1999/xlink" x="0px" y="0px"
	 viewBox="0 0 44 44" style="enable-background:new 0 0 44 44;" xml:space="preserve">
<g>
	<circle cx="13" cy="15" r="3"/>
	<path d="M13,22c3.86,0,7-3.141,7-7s-3.14-7-7-7s-7,3.141-7,7S9.14,22,13,22z M13,10c2.757,0,5,2.243,5,5s-2.243,5-5,5s-5-2.243-5-5
		S10.243,10,13,10z"/>
	<circle cx="31" cy="15" r="3"/>
	<path d="M31,22c3.86,0,7-3.141,7-7s-3.14-7-7-7s-7,3.141-7,7S27.14,22,31,22z M31,10c2.757,0,5,2.243,5,5s-2.243,5-5,5
		s-5-2.243-5-5S28.243,10,31,10z"/>
	<path d="M22,0C9.869,0,0,9.869,0,22s9.869,22,22,22s22-9.869,22-22S34.131,0,22,0z M22,42C10.972,42,2,33.028,2,22S10.972,2,22,2
		s20,8.972,20,20S33.028,42,22,42z"/>
	<path d="M35.53,28.704h-2.112l0.018-0.004c-2.485-4.118-6.003-5.422-6.205-5.492c-1.828-0.544-3.718-0.008-5.248,1.514
		c-1.605-1.521-3.496-2.056-5.386-1.493c-0.144,0.054-3.553,1.358-6.016,5.476H8.47c-0.799,0-1.513,0.477-1.818,1.215
		c-0.305,0.737-0.138,1.579,0.427,2.144l1.208,1.209c1.568,1.568,3.654,2.433,5.873,2.433c2.42,0,4.723-1.064,6.319-2.92
		c0.783-0.908,1.231-1.083,1.358-1.086c0.059,0.006,0.16,0.004,0.22,0c0.091,0.014,0.572,0.174,1.357,1.086
		c1.597,1.855,3.9,2.92,6.32,2.92h0.107c2.218,0,4.304-0.864,5.873-2.433l1.208-1.209c0.564-0.564,0.732-1.406,0.427-2.144
		C37.043,29.181,36.329,28.704,35.53,28.704z M34.299,31.857c-1.191,1.19-2.774,1.847-4.458,1.847h-0.107
		c-1.837,0-3.588-0.811-4.804-2.225c-1.03-1.196-1.971-1.782-2.867-1.782c-0.039,0-0.077,0.002-0.116,0.004
		c-0.938-0.058-1.908,0.53-2.984,1.778c-1.216,1.414-2.967,2.225-4.803,2.225c-1.684,0-3.268-0.656-4.458-1.847L8.47,30.704h2.112
		c0.684,0,1.333-0.372,1.693-0.971c2.093-3.468,4.966-4.609,4.957-4.609c1.427-0.425,2.624,0.336,3.376,1.049
		c0.751,0.712,1.926,0.71,2.675,0c0.753-0.712,1.953-1.475,3.324-1.066c0.03,0.011,2.995,1.11,5.118,4.629
		c0.362,0.598,1.011,0.969,1.693,0.969l2.089-0.056L34.299,31.857z"/>
</g>
<g>
</g>
<g>
</g>
<g>
</g>
<g>
</g>
<g>
</g>
<g>
</g>
<g>
</g>
<g>
</g>
<g>
</g>
<g>
</g>
<g>
</g>
<g>
</g>
<g>
</g>
<g>
</g>
<g>
</g>
</svg>
