<?xml version="1.0" encoding="iso-8859-1"?>
<!-- Generator: Adobe Illustrator 16.0.0, SVG Export Plug-In . SVG Version: 6.00 Build 0)  -->
<!DOCTYPE svg PUBLIC "-//W3C//DTD SVG 1.1//EN" "http://www.w3.org/Graphics/SVG/1.1/DTD/svg11.dtd">
<svg version="1.1" id="Capa_1" xmlns="http://www.w3.org/2000/svg" xmlns:xlink="http://www.w3.org/1999/xlink" x="0px" y="0px"
	 width="529.188px" height="529.188px" viewBox="0 0 529.188 529.188" style="enable-background:new 0 0 529.188 529.188;"
	 xml:space="preserve">
<g>
	<g>
		<path d="M348.062,211.255c-115.993-31.929-175.586,67.042-178.78,98.971c-3.194,31.93-10.643,47.889-23.409,47.889
			c-12.766,0-22.348-43.634,11.705-92.584c34.052-48.95,164.944-146.851,67.043-237.312C124.587-55.854,29.88,69.721,49.034,121.865
			c6.646,22.883,24.212,32.991,24.212,32.991s-22.615,29.261-16.763,36.979c5.852,7.717,46.828-33.259,48.415-36.979
			c1.597-3.729,29.797-12.24,23.944-60.129c-5.852-47.889,90.452-36.71,48.951,37.782C136.292,207-0.988,246.369,10.717,380.454
			c0,0,10.643,187.291,312.866,141.534c0,0,218.149-35.113,193.679-268.17C448.096,272.971,434.259,238.919,348.062,211.255z
			 M411.979,350.36l-1.263-0.842c-35.353-14.267-48.28-45.977-32.713-60.243c15.567-14.277,33.401,5.183,33.401,5.183h0.134
			c0,0,17.835-19.46,33.402-5.192C460.508,303.542,447.331,336.084,411.979,350.36z"/>
	</g>
</g>
<g>
</g>
<g>
</g>
<g>
</g>
<g>
</g>
<g>
</g>
<g>
</g>
<g>
</g>
<g>
</g>
<g>
</g>
<g>
</g>
<g>
</g>
<g>
</g>
<g>
</g>
<g>
</g>
<g>
</g>
</svg>
