<?xml version="1.0" encoding="iso-8859-1"?>
<!-- Generator: Adobe Illustrator 17.1.0, SVG Export Plug-In . SVG Version: 6.00 Build 0)  -->
<!DOCTYPE svg PUBLIC "-//W3C//DTD SVG 1.1//EN" "http://www.w3.org/Graphics/SVG/1.1/DTD/svg11.dtd">
<svg version="1.1" id="Capa_1" xmlns="http://www.w3.org/2000/svg" xmlns:xlink="http://www.w3.org/1999/xlink" x="0px" y="0px"
	 viewBox="0 0 150 150" style="enable-background:new 0 0 150 150;" xml:space="preserve">
<g>
	<path d="M19.343,84.474c0.576,0.608,1.442,0.957,2.378,0.957c0.683,0,1.356-0.187,1.917-0.526c0.073,0.008,0.147,0.015,0.227,0.015
		h25.643c0.894,0,1.677-0.312,2.318-0.953l0.095-0.099c0.59-0.587,0.901-1.369,0.901-2.263V59.089c0-1.287-0.61-2.057-1.144-2.483
		c-0.426-0.534-1.195-1.144-2.483-1.144H22.302c-1.066,0-1.976,0.438-2.561,1.231c-0.626,0.851-0.82,2.031-0.514,3.101
		c-0.033,7.498-0.253,15.035-0.654,22.402C18.524,83.103,18.79,83.89,19.343,84.474z M25.391,78.29
		c0.244-5.401,0.394-10.847,0.445-16.199h20.358V78.29H25.391z M51.495,83.592L51.495,83.592L51.495,83.592L51.495,83.592z"/>
	<path d="M45.924,52.265c0.576,0.607,1.442,0.956,2.378,0.956c0.683,0,1.356-0.186,1.918-0.526c0.073,0.008,0.148,0.015,0.227,0.015
		h25.643c0.894,0,1.676-0.312,2.326-0.96l0.086-0.092c0.59-0.587,0.902-1.369,0.902-2.263V26.879c0-1.288-0.61-2.057-1.145-2.482
		c-0.426-0.534-1.195-1.145-2.482-1.145H48.883c-1.066,0-1.976,0.438-2.56,1.231c-0.626,0.85-0.821,2.031-0.515,3.101
		c-0.033,7.507-0.253,15.045-0.654,22.403C45.105,50.894,45.371,51.681,45.924,52.265z M51.972,46.08
		c0.244-5.387,0.394-10.831,0.445-16.199h20.358V46.08H51.972z"/>
	<path d="M83.493,36.842c0.576,0.607,1.443,0.956,2.379,0.956c0.683,0,1.356-0.186,1.917-0.526c0.073,0.009,0.147,0.016,0.227,0.016
		h25.643c0.894,0,1.677-0.312,2.226-0.868c0.029-0.024,0.056-0.05,0.1-0.093l0.086-0.091c0.59-0.587,0.902-1.369,0.902-2.263V11.457
		c0-1.288-0.61-2.058-1.145-2.483c-0.426-0.534-1.195-1.145-2.482-1.145H86.452c-1.066,0-1.976,0.438-2.56,1.231
		c-0.626,0.851-0.821,2.031-0.515,3.101c-0.033,7.508-0.253,15.046-0.654,22.403C82.674,35.471,82.94,36.258,83.493,36.842z
		 M89.541,30.658c0.244-5.387,0.394-10.832,0.445-16.2h20.358v16.2H89.541z"/>
	<path d="M82.138,55.424c0.346,0.365,0.862,0.574,1.416,0.574c0.373,0,0.741-0.095,1.057-0.27c0.021,0.001,0.042,0.002,0.064,0.002
		h13.397c0.532,0,1-0.187,1.352-0.541l-0.354-0.353l0.432,0.275c0.354-0.353,0.541-0.82,0.541-1.352V41.997
		c0-0.596-0.236-1.113-0.667-1.468c-0.354-0.43-0.872-0.666-1.466-0.666H83.858c-0.635,0-1.179,0.263-1.531,0.741
		c-0.363,0.493-0.481,1.173-0.315,1.792c-0.018,3.906-0.132,7.829-0.341,11.66C81.642,54.598,81.803,55.07,82.138,55.424z
		 M85.721,51.79c0.118-2.665,0.191-5.347,0.219-7.986h10.162v7.986H85.721z"/>
	<path d="M25.102,49.732c0.346,0.365,0.862,0.574,1.416,0.574c0.373,0,0.741-0.095,1.056-0.27c0.021,0.001,0.042,0.002,0.064,0.002
		h13.398c0.532,0,0.999-0.187,1.352-0.541l-0.354-0.353l0.432,0.275c0.354-0.352,0.542-0.819,0.542-1.352V36.306
		c0-0.596-0.236-1.114-0.667-1.468c-0.354-0.43-0.872-0.666-1.466-0.666H26.821c-0.635,0-1.179,0.263-1.53,0.741
		c-0.363,0.493-0.481,1.173-0.315,1.792c-0.018,3.909-0.133,7.832-0.341,11.66C24.605,48.906,24.767,49.379,25.102,49.732z
		 M28.685,46.099c0.117-2.655,0.191-5.337,0.219-7.986h10.162v7.986H28.685z"/>
	<path d="M62.247,19.086c0.346,0.365,0.862,0.575,1.416,0.575c0.373,0,0.741-0.095,1.056-0.27c0.021,0.001,0.042,0.002,0.064,0.002
		h13.397c0.532,0,1-0.188,1.352-0.542l-0.354-0.352l0,0l0.432,0.275c0.354-0.353,0.541-0.819,0.541-1.352V5.659
		c0-0.595-0.236-1.112-0.667-1.467c-0.354-0.431-0.872-0.667-1.467-0.667H63.966c-0.635,0-1.179,0.263-1.53,0.741
		c-0.363,0.493-0.481,1.173-0.315,1.792c-0.018,3.907-0.133,7.83-0.341,11.661C61.75,18.26,61.912,18.732,62.247,19.086z
		 M65.83,15.452c0.118-2.664,0.191-5.346,0.219-7.986H76.21v7.986H65.83z"/>
	<path d="M45.852,21.136c0.278,0.294,0.691,0.462,1.133,0.462c0.282,0,0.561-0.068,0.804-0.195H57.6c0.426,0,0.801-0.15,1.055-0.408
		l0.086-0.084c0.284-0.284,0.435-0.659,0.435-1.083v-8.602c0-0.472-0.187-0.884-0.527-1.168c-0.284-0.34-0.696-0.526-1.167-0.526
		H47.207c-0.508,0-0.944,0.212-1.228,0.597c-0.286,0.389-0.381,0.921-0.256,1.408c-0.013,2.841-0.097,5.701-0.249,8.5
		C45.45,20.47,45.581,20.85,45.852,21.136z M48.709,18.252c0.081-1.856,0.132-3.726,0.153-5.57h7.162v5.57H48.709z"/>
	<path d="M130.7,28.638h-10.274c-0.508,0-0.944,0.212-1.227,0.596c-0.287,0.389-0.382,0.922-0.257,1.408
		c-0.013,2.849-0.097,5.708-0.249,8.502c-0.024,0.433,0.107,0.812,0.378,1.099c0.278,0.294,0.691,0.463,1.133,0.463
		c0.281,0,0.56-0.068,0.802-0.195h9.813c0.426,0,0.802-0.151,1.023-0.385l0.117-0.107c0.285-0.283,0.436-0.658,0.436-1.083v-8.602
		c0-0.472-0.187-0.885-0.527-1.168C131.583,28.824,131.171,28.638,130.7,28.638z M129.244,31.788v5.571h-7.315
		c0.081-1.856,0.132-3.726,0.153-5.571H129.244z"/>
	<path d="M124.94,96.216c0.885-0.583,1.371-1.521,1.371-2.65V71.848h6.692c0.894,0,1.677-0.312,2.226-0.868
		c0.029-0.024,0.056-0.05,0.1-0.093l0.087-0.091c0.59-0.587,0.901-1.369,0.901-2.263V46.018c0-1.288-0.61-2.058-1.145-2.483
		c-0.426-0.534-1.195-1.144-2.482-1.144h-26.894c-1.066,0-1.976,0.438-2.561,1.231c-0.626,0.85-0.821,2.031-0.515,3.101
		c-0.033,7.508-0.253,15.045-0.654,22.402c-0.049,0.906,0.217,1.693,0.77,2.277c0.576,0.607,1.443,0.956,2.379,0.956
		c0.683,0,1.356-0.186,1.918-0.526c0.073,0.009,0.147,0.016,0.226,0.016h12.321v19.459c-6.622,1.526-13.224,3.14-19.639,4.799
		v-6.564h8.798c0.533,0,1-0.188,1.353-0.542l-0.355-0.352c0,0,0,0,0,0l0.432,0.275c0.354-0.353,0.541-0.82,0.541-1.352V75.807
		c0-0.594-0.236-1.112-0.667-1.467c-0.354-0.431-0.872-0.667-1.467-0.667H94.627c-0.635,0-1.179,0.263-1.53,0.74
		c-0.364,0.494-0.482,1.175-0.315,1.794c-0.018,3.906-0.132,7.829-0.341,11.66c-0.03,0.541,0.132,1.014,0.467,1.367
		c0.142,0.15,0.317,0.265,0.507,0.359v13.323H77.762V88.358h8.388c0.894,0,1.676-0.312,2.226-0.867
		c0.029-0.024,0.056-0.05,0.1-0.093l0.087-0.092c0.59-0.587,0.901-1.369,0.901-2.263V62.528c0-1.287-0.61-2.057-1.145-2.482
		c-0.426-0.534-1.196-1.145-2.483-1.145H58.944c-1.066,0-1.976,0.438-2.561,1.231c-0.626,0.851-0.821,2.031-0.515,3.101
		c-0.033,7.507-0.253,15.045-0.654,22.403c-0.049,0.906,0.217,1.693,0.77,2.277c0.576,0.607,1.443,0.956,2.378,0.956
		c0.193,0,0.385-0.019,0.574-0.048v16.705c0,0.781,0.23,1.462,0.684,2.023c0.535,1.119,1.575,1.76,2.866,1.76h8.646v4.506
		l-5.775,4.442c-0.213,0.014-0.422,0.053-0.603,0.11c-0.173,0.015-0.351,0.045-0.542,0.092c-5.156-2.013-10.301-4.199-15.299-6.504
		v-8.275h0.81c0.533,0,1-0.188,1.352-0.542l-0.355-0.352h0l0.431,0.275c0.354-0.352,0.542-0.819,0.542-1.352V89.947
		c0-0.595-0.236-1.112-0.667-1.466c-0.354-0.432-0.872-0.668-1.467-0.668H35.509c-0.635,0-1.178,0.263-1.53,0.74
		c-0.364,0.494-0.482,1.175-0.315,1.794c-0.018,3.906-0.133,7.829-0.341,11.66c-0.03,0.541,0.132,1.014,0.467,1.367
		c0.346,0.365,0.862,0.574,1.416,0.574c0.373,0,0.741-0.095,1.057-0.27c0.021,0.001,0.042,0.002,0.063,0.002h5.959v10.289
		c0,0.606,0.149,1.168,0.417,1.617c0.283,0.644,0.791,1.141,1.51,1.478c5.616,2.628,11.515,5.157,17.539,7.519v19.876
		c0,2.115,1.667,3.223,3.314,3.223s3.314-1.107,3.314-3.223v-19.821l6.233-4.451c1.723-0.091,3.148-1.569,3.148-3.311
		c0-0.158-0.017-0.311-0.041-0.462c0.022-0.153,0.041-0.308,0.041-0.477v-6.394h18.498c0.782,0,1.463-0.229,2.024-0.684
		c1.12-0.534,1.76-1.574,1.76-2.865v-3.042c7.763-2.028,15.541-3.932,23.123-5.658C123.916,97.125,124.512,96.762,124.94,96.216z
		 M108.886,65.219c0.244-5.402,0.394-10.847,0.445-16.2h20.358v16.2H108.886z M96.49,85.601c0.118-2.665,0.191-5.347,0.219-7.986
		h10.162v7.986H96.49z M65.566,88.358h5.567v14.323h-5.567V88.358z M82.835,65.53v16.199H62.033
		c0.244-5.401,0.394-10.847,0.445-16.199H82.835z M47.753,99.741h-0.842c-0.417-0.162-0.863-0.251-1.311-0.251
		s-0.894,0.089-1.311,0.251h-6.916c0.117-2.655,0.191-5.337,0.219-7.986h10.162V99.741z"/>
</g>
</svg>
