<?xml version="1.0" encoding="iso-8859-1"?>
<!-- Generator: Adobe Illustrator 19.0.0, SVG Export Plug-In . SVG Version: 6.00 Build 0)  -->
<svg version="1.1" id="Layer_1" xmlns="http://www.w3.org/2000/svg" xmlns:xlink="http://www.w3.org/1999/xlink" x="0px" y="0px"
	 viewBox="0 0 351.473 351.473" style="enable-background:new 0 0 351.473 351.473;" xml:space="preserve">
<g id="XMLID_823_">
	<g>
		<g>
			<path d="M331.473,100.736c0,0-55.736-30-155.736-30S20,100.737,20,100.737v30H0v90h20v30c0,0,55.736,30,155.736,30
				s155.736-30,155.736-30v-30h20v-90h-19.999V100.736z M301.473,130.736v90v12.02c-4.147,1.77-9.374,3.751-15.736,5.727
				c-12.147,3.771-37.364,8.028-66.39,10.401l-43.61-38.148l-43.61,38.148c-29.025-2.373-54.242-6.63-66.39-10.401
				c-6.362-1.976-11.589-3.957-15.736-5.727v-12.02v-90v-12.02c4.147-1.77,9.374-3.751,15.736-5.727
				c18.006-5.59,64.713-12.254,110-12.254s91.994,6.664,110,12.254c6.362,1.976,11.589,3.957,15.736,5.727V130.736z"/>
			<path d="M175.736,120.737c-44.039,0-88.736,6.594-104.07,11.355c-0.56,0.174-1.115,0.35-1.666,0.526v86.238
				c0.551,0.177,1.107,0.353,1.667,0.526c8.825,2.74,28.421,6.378,53.723,8.823l37.179-32.522l13.168-11.519l13.168,11.519
				l37.179,32.522c25.302-2.445,44.897-6.083,53.724-8.823c0.559-0.174,1.115-0.35,1.666-0.526v-86.238
				c-0.551-0.177-1.107-0.353-1.667-0.526C264.473,127.331,219.775,120.737,175.736,120.737z"/>
		</g>
	</g>
</g>
<g>
</g>
<g>
</g>
<g>
</g>
<g>
</g>
<g>
</g>
<g>
</g>
<g>
</g>
<g>
</g>
<g>
</g>
<g>
</g>
<g>
</g>
<g>
</g>
<g>
</g>
<g>
</g>
<g>
</g>
</svg>
