<?xml version="1.0" encoding="iso-8859-1"?>
<!-- Generator: Adobe Illustrator 16.0.0, SVG Export Plug-In . SVG Version: 6.00 Build 0)  -->
<!DOCTYPE svg PUBLIC "-//W3C//DTD SVG 1.1//EN" "http://www.w3.org/Graphics/SVG/1.1/DTD/svg11.dtd">
<svg version="1.1" id="Capa_1" xmlns="http://www.w3.org/2000/svg" xmlns:xlink="http://www.w3.org/1999/xlink" x="0px" y="0px"
	 width="456.954px" height="456.953px" viewBox="0 0 456.954 456.953" style="enable-background:new 0 0 456.954 456.953;"
	 xml:space="preserve">
<g>
	<path d="M55.494,9.513C44.193-1.784,27.323-3.22,17.793,6.301L6.302,17.805c-9.521,9.521-8.095,26.399,3.2,37.696l391.948,391.942
		c11.301,11.302,28.164,12.728,37.694,3.206l11.509-11.501c9.521-9.521,8.087-26.401-3.206-37.694L55.494,9.513z M98.019,125.268
		L40.476,67.723l28.263-28.26l57.539,57.542l-0.375,0.376l-51.86-46.37L52.358,73.366l45.698,51.86L98.019,125.268z
		 M241.907,241.906c-6.219,6.219-16.296,6.219-22.514,0c-6.217-6.216-6.217-16.296,0-22.514c6.218-6.217,16.295-6.217,22.514,0
		C248.123,225.61,248.123,235.69,241.907,241.906z M281.312,281.314c-6.22,6.216-16.302,6.216-22.518,0
		c-6.216-6.219-6.216-16.302,0-22.518c6.216-6.219,16.298-6.219,22.518,0C287.528,265.013,287.528,275.096,281.312,281.314z
		 M320.709,320.72c-6.22,6.216-16.291,6.216-22.519,0c-6.215-6.22-6.215-16.302,0-22.518c6.228-6.22,16.299-6.22,22.519,0
		C326.924,304.418,326.924,314.5,320.709,320.72z M360.114,360.117c-6.219,6.215-16.298,6.215-22.518,0
		c-6.215-6.22-6.215-16.299,0-22.518c6.22-6.216,16.299-6.216,22.518,0C366.33,343.818,366.33,353.897,360.114,360.117z"/>
</g>
<g>
</g>
<g>
</g>
<g>
</g>
<g>
</g>
<g>
</g>
<g>
</g>
<g>
</g>
<g>
</g>
<g>
</g>
<g>
</g>
<g>
</g>
<g>
</g>
<g>
</g>
<g>
</g>
<g>
</g>
</svg>
