<?xml version="1.0" encoding="iso-8859-1"?>
<!-- Generator: Adobe Illustrator 18.0.0, SVG Export Plug-In . SVG Version: 6.00 Build 0)  -->
<!DOCTYPE svg PUBLIC "-//W3C//DTD SVG 1.1//EN" "http://www.w3.org/Graphics/SVG/1.1/DTD/svg11.dtd">
<svg version="1.1" id="Capa_1" xmlns="http://www.w3.org/2000/svg" xmlns:xlink="http://www.w3.org/1999/xlink" x="0px" y="0px"
	 viewBox="0 0 59 59" style="enable-background:new 0 0 59 59;" xml:space="preserve">
<g>
	<path d="M37,43c-0.553,0-1,0.447-1,1c0,3.309-2.691,6-6,6s-6-2.691-6-6c0-0.553-0.447-1-1-1s-1,0.447-1,1c0,4.411,3.589,8,8,8
		s8-3.589,8-8C38,43.447,37.553,43,37,43z"/>
	<circle cx="23" cy="37" r="2"/>
	<circle cx="37" cy="37" r="2"/>
	<path d="M54.981,23.208C54.576,10.489,44.443,2,29.5,2S4.424,10.489,4.019,23.208C1.705,23.857,0,25.981,0,28.5v14
		C0,45.532,2.468,48,5.5,48c1.965,0,3.688-1.039,4.661-2.594C13.961,52.52,21.291,57,29.5,57s15.539-4.48,19.339-11.594
		C49.812,46.961,51.535,48,53.5,48c3.032,0,5.5-2.468,5.5-5.5v-14C59,25.981,57.295,23.857,54.981,23.208z M29.5,4
		c11.418,0,22.93,5.897,23.474,19.027c-1.559,0.149-2.927,0.954-3.833,2.133c-1.977-4.119-5.144-7.392-9.036-9.5
		c-3.122-1.916-6.785-2.983-10.763-2.983c-4.124,0-7.901,1.2-11.081,3.323c-3.606,2.113-6.533,5.265-8.402,9.16
		c-0.906-1.179-2.273-1.984-3.833-2.133C6.57,9.897,18.082,4,29.5,4z M18.402,18.283C21.579,16.185,25.398,15,29.5,15
		c3.402,0,6.605,0.821,9.414,2.294c4.456,2.686,7.715,7.281,8.945,13.077c-3.811,1.274-5.979-1.35-8.029-4.405
		c-0.34-0.506-0.879-0.849-1.479-0.94c-0.615-0.091-1.245,0.078-1.733,0.468c-9.285,7.417-21.98,5.465-25.45,4.748
		C12.271,25.115,14.845,20.997,18.402,18.283z M5.5,46C3.57,46,2,44.43,2,42.5v-14C2,26.57,3.57,25,5.5,25
		c1.688,0,3.101,1.202,3.428,2.794c0,0.001,0,0.003,0,0.004C8.977,28.025,9,28.262,9,28.5v13.965
		c-0.006,0.046-0.016,0.142-0.017,0.176c0,0.003,0.002,0.006,0.002,0.009C8.905,44.509,7.379,46,5.5,46z M48,42.524
		C44.919,50.111,37.684,55,29.5,55s-15.42-4.889-18.501-12.476C11,42.515,11,42.507,11,42.5V32.258
		c1.58,0.326,4.493,0.801,8.044,0.8c5.602,0,12.789-1.184,18.822-6.003c0.073-0.06,0.149-0.058,0.181-0.054
		c0.078,0.013,0.112,0.063,0.123,0.079c1.631,2.431,4.563,6.776,9.83,5.326V42.5C48,42.509,48,42.517,48,42.524z M57,42.5
		c0,1.93-1.57,3.5-3.5,3.5c-1.879,0-3.405-1.491-3.485-3.351c0-0.003,0.002-0.006,0.002-0.009C50.015,42.576,50.008,42.513,50,42.5
		v-14c0-0.238,0.023-0.475,0.071-0.701c0-0.001,0-0.003,0-0.004C50.399,26.202,51.812,25,53.5,25c1.93,0,3.5,1.57,3.5,3.5V42.5z"/>
</g>
<g>
</g>
<g>
</g>
<g>
</g>
<g>
</g>
<g>
</g>
<g>
</g>
<g>
</g>
<g>
</g>
<g>
</g>
<g>
</g>
<g>
</g>
<g>
</g>
<g>
</g>
<g>
</g>
<g>
</g>
</svg>
