<?xml version="1.0" encoding="iso-8859-1"?>
<!-- Generator: Adobe Illustrator 16.0.0, SVG Export Plug-In . SVG Version: 6.00 Build 0)  -->
<!DOCTYPE svg PUBLIC "-//W3C//DTD SVG 1.1//EN" "http://www.w3.org/Graphics/SVG/1.1/DTD/svg11.dtd">
<svg version="1.1" id="Capa_1" xmlns="http://www.w3.org/2000/svg" xmlns:xlink="http://www.w3.org/1999/xlink" x="0px" y="0px"
	 width="577.574px" height="577.574px" viewBox="0 0 577.574 577.574" style="enable-background:new 0 0 577.574 577.574;"
	 xml:space="preserve">
<g>
	<g id="Layer_1_116_">
		<g>
			<path d="M58.65,426.487c10.2,0,19.125-2.55,26.775-6.375c14.025,43.35,54.825,73.95,103.275,73.95
				c59.925,0,108.375-48.45,108.375-108.375v-65.025c0-17.85-15.299-33.15-33.149-33.15h-150.45c-15.3,0-28.05,10.2-31.875,25.5
				c-6.375-2.55-14.025-3.824-21.675-3.824C26.775,309.188,0,335.962,0,369.112C0,398.438,26.775,426.487,58.65,426.487z
				 M58.65,343.612c10.2,0,17.85,6.375,20.4,15.3v15.3c-2.55,8.925-11.475,15.3-20.4,15.3c-12.75,0-21.675-10.199-21.675-21.675
				C36.975,356.362,47.175,343.612,58.65,343.612z"/>
			<path d="M525.301,125.587c29.324-5.1,52.273-30.6,52.273-61.2c0-34.425-28.049-62.475-62.475-62.475H142.8
				c-34.425,0-62.475,28.05-62.475,62.475c0,34.425,28.05,62.475,62.475,62.475h21.675v109.65c0,14.025,11.475,25.5,24.225,25.5
				s24.225-11.475,24.225-25.5v-109.65h163.2l49.725,374.85H39.525c-20.4,0-36.975,16.575-36.975,36.976
				c0,20.399,16.575,36.975,36.975,36.975h497.25c20.4,0,38.25-16.575,36.975-36.975
				C568.65,434.137,525.301,125.587,525.301,125.587z"/>
		</g>
	</g>
</g>
<g>
</g>
<g>
</g>
<g>
</g>
<g>
</g>
<g>
</g>
<g>
</g>
<g>
</g>
<g>
</g>
<g>
</g>
<g>
</g>
<g>
</g>
<g>
</g>
<g>
</g>
<g>
</g>
<g>
</g>
</svg>
