<?xml version="1.0" encoding="utf-8"?>
<!-- Generator: Adobe Illustrator 17.1.0, SVG Export Plug-In . SVG Version: 6.00 Build 0)  -->
<!DOCTYPE svg PUBLIC "-//W3C//DTD SVG 1.1//EN" "http://www.w3.org/Graphics/SVG/1.1/DTD/svg11.dtd">
<svg version="1.1" id="Capa_1" xmlns="http://www.w3.org/2000/svg" xmlns:xlink="http://www.w3.org/1999/xlink" x="0px" y="0px"
	 width="800px" height="800px" viewBox="0 0 800 800" enable-background="new 0 0 800 800" xml:space="preserve">
<g>
	<circle fill="#1E120D" cx="257.87" cy="492.895" r="31.772"/>
	<circle fill="#1E120D" cx="437.59" cy="492.895" r="31.772"/>
	<path fill="#1E120D" d="M347.73,777.373c73.878,0,143.247-31.387,195.328-88.378c51.688-56.561,80.153-131.659,80.153-211.46
		c0-28.886-3.749-57.148-10.959-84.146c1.853,0.398,3.717,0.78,5.602,1.124c26.081,4.762,47.355,12.211,63.23,22.141
		c12.311,7.7,18.11,14.976,20.471,18.628c6.371,9.853,17.208,15.736,28.988,15.736c15.858,0,29.566-10.653,33.335-25.905
		c2.803-11.344,5.944-29.188,4.988-49.776c-1.179-25.374-8.157-48.539-20.74-68.853c-16.089-25.973-40.607-46.254-73.178-60.61
		c6.361-6.363,12.595-13.576,18.38-21.72c11.502-16.191,19.721-34.072,24.427-53.147c5.457-22.118,6.197-45.927,2.201-70.765
		c-1.376-8.548-5.91-16.197-12.769-21.538c-6.063-4.722-13.638-7.322-21.328-7.322c-6.636,0-13.089,1.896-18.662,5.484
		c-9.027,5.81-34.251,19.835-73.398,24.556c-38.512,4.644-60.734,35.309-74.044,58.086c-0.05-0.025-0.102-0.05-0.151-0.074
		C499.406,83.402,430.117,27.373,347.73,27.373c-96.372,0-174.83,76.663-177.738,172.331c-2.169,2.233-4.31,4.498-6.391,6.829
		c-5.618,6.296-6.653,11.597-8.532,21.22c-0.722,3.699-1.696,8.8-2.893,15.16c-2.026,10.766-4.03,21.617-4.05,21.725l-0.005,0.029
		l-0.005,0.029c-0.413,2.263-0.582,4.536-0.537,6.79c-48.632,55.896-75.33,128.767-75.33,206.049
		c0,79.801,28.466,154.899,80.153,211.46C204.483,745.986,273.852,777.373,347.73,777.373z M525.486,200.17
		c0.699,0.851,1.421,1.251,2.179,1.251c9.705,0,25.215-64.849,69.725-70.216c44.787-5.401,74.34-21.582,86.044-29.115
		c0.756-0.487,1.596-0.709,2.424-0.709c2.103,0,4.125,1.436,4.478,3.625c14.433,89.711-47.337,132.812-73.007,146.612
		c-3.437,1.848-2.556,6.701,1.366,7.575c135.486,30.204,124.039,126.424,116.058,158.722c-0.496,2.006-2.335,3.102-4.211,3.102
		c-1.441,0-2.904-0.647-3.795-2.024c-9.371-14.494-35.472-41.57-103.505-53.992c-8.023-1.465-15.43-3.456-22.277-5.868
		c-67.304-23.716-80.009-88.464-81.839-100.788c-0.116-0.78-0.473-1.505-1.004-2.103c-0.354-0.398-0.783-0.741-1.277-0.999
		c-44.042-23.04-92.134-31.381-137.825-31.381c-92.81,0-175.65,34.445-194.076,50.094c-0.314,0.267-0.652,0.461-0.998,0.623
		c-0.594,0.277-1.219,0.422-1.842,0.422c-2.548,0-4.984-2.141-4.477-4.917c0,0,0.616-3.339,1.514-8.166
		c1.349-7.252,3.333-17.862,4.821-25.579c1.082-5.614,1.902-9.697,2.021-9.831c47.263-52.96,114.731-69.879,177.169-69.879
		c79.841,0,151.449,27.68,161.973,43.065C525.246,199.868,525.366,200.023,525.486,200.17z M135.979,446.368
		c15.648-16.238,30.884-32.893,45.374-50.176c24.55-29.281,56.903-66.1,62.399-105.493
		c5.525-39.614,110.477,105.603,178.713,120.225c62.629,13.421,106.097,47.4,112.818,116.946c0.623,6.451,9.028,8.437,12.434,2.923
		c9.377-15.184,22.08-39.901,28.555-70.492c1.031-4.873,7.7-5.593,9.809-1.08c0.852,1.823,1.695,3.689,2.529,5.572
		c0.182,4.223,0.283,8.47,0.283,12.742c0,146.407-108.184,265.518-241.167,265.518c-132.227-0.003-236.977-121.028-240.714-249.352
		C106.36,471.358,121.78,461.102,135.979,446.368z"/>
</g>
</svg>
