<?xml version="1.0" encoding="iso-8859-1"?>
<!-- Generator: Adobe Illustrator 18.0.0, SVG Export Plug-In . SVG Version: 6.00 Build 0)  -->
<!DOCTYPE svg PUBLIC "-//W3C//DTD SVG 1.1//EN" "http://www.w3.org/Graphics/SVG/1.1/DTD/svg11.dtd">
<svg version="1.1" id="Capa_1" xmlns="http://www.w3.org/2000/svg" xmlns:xlink="http://www.w3.org/1999/xlink" x="0px" y="0px"
	 viewBox="0 0 59.991 59.991" style="enable-background:new 0 0 59.991 59.991;" xml:space="preserve">
<g>
	<path d="M54.245,12.991h-4.345l-2.03-4.662c-0.275-1.367-1.925-5.138-2.559-5.966c-1.601-2.089-4.455-2.901-7.189-1.997
		l-6.53,2.855c-0.965,0.318-2.024,0.304-2.98-0.04L21.08,0.469c-1.441-0.52-3.074-0.355-4.598,0.46
		c-1.916,1.027-3.419,2.938-3.911,4.944c-0.04,0.121-0.189,0.49-0.354,0.899c-0.377,0.938-0.521,1.31-0.583,1.521L9.59,12.991H5.745
		c-2.481,0-4.5,2.019-4.5,4.5s2.019,4.5,4.5,4.5h2.5v29c0,2.757,2.243,5,5,5h3v1.694c0,1.271,1.034,2.306,2.305,2.306h23.39
		c1.271,0,2.305-1.034,2.305-2.306v-1.694h3c2.757,0,5-2.243,5-5v-29h2c2.481,0,4.5-2.019,4.5-4.5S56.727,12.991,54.245,12.991z
		 M13.501,9.019c0.036-0.084,0.042-0.077,0.055-0.167c0.046-0.157,0.342-0.894,0.519-1.334c0.317-0.79,0.395-0.988,0.428-1.125
		c0.367-1.492,1.515-2.945,2.925-3.701c0.719-0.385,1.82-0.756,2.975-0.342l7.532,2.712c1.377,0.497,2.898,0.516,4.372,0.025
		l6.53-2.855c1.841-0.608,3.805-0.066,4.888,1.348c0.507,0.661,2.084,4.386,2.192,5.176c0.012,0.091,0.037,0.18,0.074,0.264
		l1.612,3.701c-0.119-0.009-0.236-0.035-0.356-0.035h-34c-0.494,0-0.975,0.097-1.446,0.242L13.501,9.019z M13.724,46.558
		c0.265-0.014,0.535-0.046,0.811-0.103c1.93-0.396,3.842-1.279,5.683-2.627c5.084-3.723,9.06,1.464,9.225,1.686
		c0.188,0.254,0.485,0.402,0.801,0.403c0.001,0,0.002,0,0.003,0c0.315,0,0.612-0.149,0.801-0.401
		c0.167-0.223,4.143-5.408,9.227-1.688c0.46,0.337,0.925,0.645,1.393,0.923c1.405,0.836,2.842,1.407,4.29,1.704
		c0.258,0.053,0.516,0.08,0.772,0.095c0.012,0,0.023,0.001,0.035,0.002c0.092,0.005,0.184,0.014,0.275,0.014
		c0.156,0,0.31-0.016,0.464-0.029c-1.036,1.081-2.254,1.893-3.649,2.431c-5.898,2.273-13.117-1.007-13.188-1.039
		c-0.133-0.062-0.277-0.093-0.42-0.093s-0.287,0.031-0.42,0.093c-0.072,0.033-7.29,3.312-13.188,1.039
		c-1.386-0.534-2.6-1.341-3.635-2.419c0.232,0.02,0.469,0.022,0.71,0.01C13.715,46.557,13.719,46.558,13.724,46.558z M42.245,57.685
		c0,0.169-0.137,0.306-0.305,0.306h-23.39c-0.168,0-0.305-0.137-0.305-0.306v-1.694h24V57.685z M47.245,53.991h-3h-28h-3
		c-1.654,0-3-1.346-3-3v-4.673c1.464,2.105,3.361,3.626,5.682,4.519c5.894,2.266,12.578-0.188,14.318-0.912
		c1.213,0.505,4.831,1.852,8.909,1.852c1.769,0,3.625-0.254,5.409-0.939c2.322-0.892,4.218-2.417,5.682-4.523v4.677
		C50.245,52.645,48.9,53.991,47.245,53.991z M50.245,37.591c-0.858-0.79-1.801-1.294-2.821-1.491
		c-1.801-0.348-3.379,0.146-4.118,1.289c-0.601,0.932-0.507,2.131,0.253,3.208c0.878,1.245,2.271,1.458,2.954,1.398
		c0.543-0.052,0.935-0.529,0.892-1.073c-0.042-0.544-0.507-0.95-1.068-0.919c-0.071,0.015-0.729,0.028-1.144-0.559
		c-0.163-0.23-0.406-0.663-0.208-0.97c0.224-0.346,0.962-0.622,2.06-0.41c0.967,0.186,1.834,0.806,2.652,1.894
		c0.596,0.793,0.701,1.755,0.314,2.649c-0.585,1.158-2.063,2.217-3.656,1.889c-1.646-0.338-3.296-1.105-4.902-2.281
		c-4.7-3.441-9-1.108-11.21,1.168c-2.21-2.275-6.511-4.609-11.21-1.168c-1.606,1.176-3.256,1.943-4.902,2.281
		c-0.623,0.125-1.206,0.07-1.722-0.109c-0.012-0.004-0.023-0.01-0.036-0.015c-0.152-0.055-0.299-0.12-0.438-0.195
		c-0.034-0.019-0.066-0.04-0.099-0.06c-0.112-0.065-0.22-0.135-0.321-0.211c-0.042-0.032-0.081-0.065-0.121-0.098
		c-0.088-0.073-0.173-0.148-0.252-0.228c-0.036-0.036-0.071-0.073-0.105-0.111c-0.079-0.087-0.152-0.177-0.219-0.27
		c-0.024-0.033-0.049-0.065-0.071-0.098c-0.064-0.095-0.119-0.194-0.171-0.294c-0.022-0.043-0.049-0.085-0.069-0.128
		c-0.01-0.023-0.02-0.046-0.03-0.069c-0.388-0.894-0.283-1.858,0.314-2.651c0.658-0.875,1.429-1.709,2.612-1.887
		c0.831-0.129,1.459,0.071,1.767,0.553c0.203,0.318,0.194,0.667,0.108,0.795C14.911,39.976,14.071,40,14.073,40
		c-0.552,0-1,0.447-1,1s0.448,1,1,1c0.194,0,1.926-0.041,2.875-1.478c0.55-0.832,0.513-2.027-0.091-2.974
		c-0.748-1.172-2.116-1.698-3.75-1.456c-1.256,0.189-2.19,0.824-2.861,1.46V21.991h40V37.591z M54.245,19.991h-3h-42h-3.5
		c-1.378,0-2.5-1.121-2.5-2.5s1.122-2.5,2.5-2.5h4.5h1.479h37.041h0.479h5c1.378,0,2.5,1.121,2.5,2.5S55.624,19.991,54.245,19.991z"
		/>
	<path d="M21.552,37.378c3.424,0,6.215-2.752,6.327-6.176c1.006-0.734,2.666-0.734,3.673,0c0.112,3.424,2.903,6.176,6.326,6.176
		c3.495,0,6.337-2.865,6.337-6.388s-2.843-6.388-6.337-6.388c-2.828,0-5.228,1.877-6.041,4.461
		c-0.652-0.291-1.372-0.461-2.122-0.461s-1.47,0.17-2.122,0.461c-0.813-2.583-3.213-4.461-6.041-4.461
		c-3.494,0-6.337,2.865-6.337,6.388S18.057,37.378,21.552,37.378z M37.877,26.603c2.392,0,4.337,1.969,4.337,4.388
		s-1.946,4.388-4.337,4.388s-4.337-1.969-4.337-4.388S35.486,26.603,37.877,26.603z M21.552,26.603c2.392,0,4.337,1.969,4.337,4.388
		s-1.946,4.388-4.337,4.388s-4.337-1.969-4.337-4.388S19.16,26.603,21.552,26.603z"/>
</g>
<g>
</g>
<g>
</g>
<g>
</g>
<g>
</g>
<g>
</g>
<g>
</g>
<g>
</g>
<g>
</g>
<g>
</g>
<g>
</g>
<g>
</g>
<g>
</g>
<g>
</g>
<g>
</g>
<g>
</g>
</svg>
