<?xml version="1.0" encoding="iso-8859-1"?>
<!-- Generator: Adobe Illustrator 19.0.0, SVG Export Plug-In . SVG Version: 6.00 Build 0)  -->
<svg version="1.1" id="Capa_1" xmlns="http://www.w3.org/2000/svg" xmlns:xlink="http://www.w3.org/1999/xlink" x="0px" y="0px"
	 viewBox="0 0 463 463" style="enable-background:new 0 0 463 463;" xml:space="preserve">
<path d="M343.5,416H295v-24.5c0-4.142-3.357-7.5-7.5-7.5H239V78.277c18.205-3.515,32-19.561,32-38.777C271,17.72,253.28,0,231.5,0
	S192,17.72,192,39.5c0,19.216,13.795,35.262,32,38.777V384h-48.5c-4.143,0-7.5,3.358-7.5,7.5V416h-48.5
	c-8.547,0-15.5,6.953-15.5,15.5v16c0,8.547,6.953,15.5,15.5,15.5h224c8.547,0,15.5-6.953,15.5-15.5v-16
	C359,422.953,352.047,416,343.5,416z M207,39.5c0-13.509,10.99-24.5,24.5-24.5S256,25.991,256,39.5S245.01,64,231.5,64
	S207,53.009,207,39.5z M183,399h97v17h-97V399z M344,447.5c0,0.276-0.225,0.5-0.5,0.5h-224c-0.275,0-0.5-0.224-0.5-0.5v-16
	c0-0.276,0.225-0.5,0.5-0.5h224c0.275,0,0.5,0.224,0.5,0.5V447.5z"/>
<g>
</g>
<g>
</g>
<g>
</g>
<g>
</g>
<g>
</g>
<g>
</g>
<g>
</g>
<g>
</g>
<g>
</g>
<g>
</g>
<g>
</g>
<g>
</g>
<g>
</g>
<g>
</g>
<g>
</g>
</svg>
