<?xml version="1.0" encoding="iso-8859-1"?>
<!-- Generator: Adobe Illustrator 19.0.0, SVG Export Plug-In . SVG Version: 6.00 Build 0)  -->
<svg version="1.1" id="Layer_1" xmlns="http://www.w3.org/2000/svg" xmlns:xlink="http://www.w3.org/1999/xlink" x="0px" y="0px"
	 viewBox="0 0 490 490" style="enable-background:new 0 0 490 490;" xml:space="preserve">
<g id="XMLID_1016_">
	<g>
		<g>
			<path d="M0,20v450h490V20H0z M460,440H30V170h430V440z M460,140H30V50h430V140z"/>
			<circle cx="430" cy="95" r="15"/>
			<circle cx="370" cy="95" r="15"/>
			<circle cx="310" cy="95" r="15"/>
			<path d="M210,265h-25v-15c0-24.813-20.187-45-45-45s-45,20.187-45,45v15H70v140h140V265z M125,250c0-8.271,6.729-15,15-15
				s15,6.729,15,15v15h-30V250z M180,375h-80v-80h80V375z"/>
			<rect x="250" y="230" width="170" height="30"/>
			<rect x="250" y="290" width="170" height="30"/>
			<rect x="250" y="350" width="170" height="30"/>
		</g>
	</g>
</g>
<g>
</g>
<g>
</g>
<g>
</g>
<g>
</g>
<g>
</g>
<g>
</g>
<g>
</g>
<g>
</g>
<g>
</g>
<g>
</g>
<g>
</g>
<g>
</g>
<g>
</g>
<g>
</g>
<g>
</g>
</svg>
