<?xml version="1.0" encoding="iso-8859-1"?>
<!-- Generator: Adobe Illustrator 18.0.0, SVG Export Plug-In . SVG Version: 6.00 Build 0)  -->
<!DOCTYPE svg PUBLIC "-//W3C//DTD SVG 1.1//EN" "http://www.w3.org/Graphics/SVG/1.1/DTD/svg11.dtd">
<svg version="1.1" id="Capa_1" xmlns="http://www.w3.org/2000/svg" xmlns:xlink="http://www.w3.org/1999/xlink" x="0px" y="0px"
	 viewBox="0 0 84.532 108.177" style="enable-background:new 0 0 84.532 108.177;" xml:space="preserve">
<g>
	<path d="M33.909,93.087h-1.217v6.511h6.511v-1.217C39.203,95.457,36.833,93.087,33.909,93.087z"/>
	<path d="M45.33,99.598h6.511v-6.511h-1.217c-2.924,0-5.294,2.37-5.294,5.294V99.598z"/>
	<path d="M17.842,34.051c-1.964,4.717-2.88,10.191-2.601,15.727c0.328,6.508,2.25,12.518,5.41,16.922
		c4.71,6.565,6.882,11.74,7.873,14.925c0.428,1.374,0.678,2.504,0.825,3.366c-1.291,0.482-2.395,1.317-3.227,2.462
		c-1.138,1.566-1.739,3.664-1.739,6.065v5.648c0,4.968,4.042,9.01,9.01,9.01h17.745c4.968,0,9.011-4.042,9.011-9.01v-5.648
		c0-2.402-0.602-4.499-1.739-6.065c-0.832-1.145-1.935-1.979-3.225-2.462c0.523-3.031,2.347-9.441,8.697-18.291
		c3.161-4.405,5.082-10.415,5.41-16.922c0.279-5.536-0.637-11.01-2.601-15.727c7.478-2.896,11.771-8.509,14.116-12.956
		c3.368-6.389,4.047-12.672,3.605-16.11C83.833,0.486,81.33,0,80.281,0c-0.159,0-0.32,0.011-0.479,0.033
		c-2.334,0.318-6.819,1.821-11.425,3.828c-3.065,1.336-8.585,3.953-11.105,6.474c-2.191,2.191-4.057,5.881-5.433,9.221
		c-0.044-0.015-0.088-0.03-0.132-0.045l4.263-18.158l-2.815-0.365C52.844,0.948,45.53,0.005,42.269,0h-0.036
		c-3.264,0.006-10.568,0.948-10.877,0.988l-2.815,0.365l4.264,18.165c-0.037,0.013-0.074,0.024-0.11,0.037
		c-1.375-3.34-3.242-7.03-5.433-9.221c-2.521-2.52-8.04-5.138-11.105-6.474C11.55,1.854,7.065,0.351,4.731,0.033
		C4.573,0.011,4.411,0,4.252,0c-1.05,0-3.553,0.486-4.132,4.986c-0.442,3.438,0.237,9.721,3.605,16.11
		C6.07,25.543,10.363,31.154,17.842,34.051z M35.324,7.813l4.96,10.01h3.987l4.902-9.955l-2.453,10.45l-1.177,5.015l-1.687,7.186
		h-3.201l-1.686-7.184l-1.177-5.015L35.324,7.813z M5.239,5.353c4.823,1.185,15.594,5.803,18.398,8.607
		c1.611,1.611,3.51,5.2,5.209,9.845l0.973,2.66l2.55-1.233c0.524-0.253,1.063-0.483,1.616-0.691l2.607,11.105h11.326l2.609-11.113
		c0.561,0.21,1.107,0.443,1.638,0.699l2.55,1.233l0.973-2.66c1.699-4.645,3.597-8.234,5.209-9.845
		C63.7,11.156,74.47,6.538,79.293,5.353c0.295,1.819,0.118,6.106-1.95,11.073c-1.341,3.221-3.168,5.991-5.429,8.233
		c-2.642,2.62-5.819,4.428-9.442,5.375l-3.167,0.828l1.563,2.876c0.1,0.185,0.198,0.372,0.294,0.561
		c-2.355-1.414-5.197-2.477-8.423-2.477v5.127c5.622,0,9.972,5.073,11.212,6.685c0.021,0.166,0.041,0.333,0.06,0.5
		c-2.744-2.291-6.608-4.514-11.271-4.514v5.127c5.715,0,10.115,5.242,11.271,6.763c-0.526,4.71-2.051,9.077-4.294,12.203
		c-0.841,1.173-1.61,2.309-2.314,3.408c-0.238-0.285-0.496-0.576-0.776-0.867c-2.739-2.848-6.184-4.354-9.963-4.354v5.127
		c4.536,0,7.036,3.439,7.909,4.936c-0.245,0.465-0.479,0.922-0.7,1.369c-0.063-0.069-0.126-0.138-0.192-0.206
		c-1.761-1.812-4.172-2.732-7.164-2.732v5.127c1.562,0,2.696,0.378,3.466,1.155c0.991,1.001,1.205,2.481,1.251,3.09
		c-1.473,4.582-1.386,7.227-1.377,7.427l0.113,2.444h2.447c1.101,0,1.565,0.444,1.846,0.832c0.49,0.675,0.761,1.759,0.761,3.052
		v5.648c0,2.142-1.742,3.884-3.884,3.884H33.394c-2.141,0-3.884-1.742-3.884-3.884v-5.648c0-1.293,0.27-2.377,0.76-3.052
		c0.281-0.387,0.745-0.832,1.847-0.832h2.447l0.113-2.444c0.012-0.256,0.081-2.616-1.134-6.681c-0.088-0.294-0.181-0.59-0.277-0.887
		c0.068-0.768,0.347-2.063,1.176-2.914c0.727-0.746,1.809-1.109,3.309-1.109v-5.127c-3.703,0-5.894,1.501-7.08,2.761
		c-0.011,0.011-0.02,0.023-0.031,0.034c-0.267-0.537-0.546-1.077-0.837-1.62c1.015-1.614,3.476-4.623,7.719-4.623v-5.127
		c-3.779,0-7.224,1.506-9.963,4.354c-0.204,0.212-0.396,0.424-0.578,0.634c-0.68-1.05-1.402-2.109-2.167-3.174
		c-2.305-3.212-3.851-7.734-4.335-12.592c1.501-1.869,5.669-6.373,10.966-6.373v-5.127c-4.451,0-8.174,2.026-10.89,4.202
		c0.016-0.136,0.034-0.272,0.052-0.408c0.524-0.689,1.466-1.826,2.744-2.956c2.634-2.329,5.357-3.51,8.094-3.51v-5.127
		c-3.038,0-5.712,0.942-7.951,2.232c0.055-0.106,0.11-0.211,0.167-0.315l1.563-2.876l-3.167-0.828
		c-3.624-0.947-6.801-2.756-9.443-5.376c-2.261-2.242-4.088-5.012-5.429-8.234C5.121,11.457,4.944,7.171,5.239,5.353z"/>
	<path d="M24.954,53.269c-0.2,1.662,0.413,3.346,1.681,4.622c1.127,1.133,2.683,1.87,4.381,2.074
		c0.315,0.038,0.635,0.057,0.95,0.057h0c3.424,0,6.168-2.156,6.525-5.126c0.2-1.662-0.413-3.347-1.681-4.622
		c-1.127-1.134-2.683-1.87-4.381-2.074c-0.316-0.038-0.635-0.057-0.951-0.057C28.055,48.143,25.311,50.299,24.954,53.269z
		 M31.479,53.27c0.112,0,0.226,0.007,0.339,0.021c0.55,0.066,1.044,0.284,1.357,0.598c0.168,0.169,0.235,0.323,0.226,0.396
		c-0.022,0.183-0.536,0.611-1.434,0.611h0c-0.112,0-0.226-0.007-0.339-0.021c-1.101-0.132-1.608-0.79-1.583-0.994
		C30.066,53.698,30.581,53.27,31.479,53.27z"/>
	<path d="M52.593,60.022c0.315,0,0.635-0.019,0.951-0.057c1.698-0.204,3.254-0.941,4.381-2.074c1.268-1.275,1.88-2.96,1.681-4.622
		c-0.357-2.97-3.101-5.126-6.525-5.126c-0.315,0-0.635,0.019-0.951,0.057c-1.698,0.204-3.254,0.941-4.381,2.074
		c-1.268,1.275-1.88,2.96-1.681,4.622C46.425,57.866,49.169,60.022,52.593,60.022z M52.742,53.29
		c0.113-0.014,0.227-0.021,0.339-0.021c0.898,0,1.413,0.428,1.435,0.611c0.024,0.204-0.482,0.862-1.583,0.994
		c-0.113,0.014-0.227,0.021-0.339,0.021c-0.898,0-1.413-0.428-1.435-0.611C51.134,54.081,51.64,53.422,52.742,53.29z"/>
	<rect x="37.799" y="84.502" width="8.91" height="5.127"/>
	<path d="M24.881,28.049l1.815-1.305c0,0-3.088-9.174-5.633-10.924c-2.546-1.75-7.743-4.243-12.039-5.198
		C9.024,10.621,10.403,23.962,24.881,28.049z"/>
	<path d="M75.485,10.621c-4.296,0.955-9.493,3.447-12.039,5.198c-2.546,1.75-5.633,10.924-5.633,10.924l1.815,1.305
		C74.106,23.962,75.485,10.621,75.485,10.621z"/>
</g>
<g>
</g>
<g>
</g>
<g>
</g>
<g>
</g>
<g>
</g>
<g>
</g>
<g>
</g>
<g>
</g>
<g>
</g>
<g>
</g>
<g>
</g>
<g>
</g>
<g>
</g>
<g>
</g>
<g>
</g>
</svg>
