<?xml version="1.0" encoding="iso-8859-1"?>
<!-- Generator: Adobe Illustrator 18.1.1, SVG Export Plug-In . SVG Version: 6.00 Build 0)  -->
<svg version="1.1" id="Capa_1" xmlns="http://www.w3.org/2000/svg" xmlns:xlink="http://www.w3.org/1999/xlink" x="0px" y="0px"
	 viewBox="0 0 19.676 19.676" style="enable-background:new 0 0 19.676 19.676;" xml:space="preserve">
<g>
	<path style="fill:#030104;" d="M6.33,4.704C6.261,4.649,5.842,4.618,5.722,4.631C5.6,4.649,4.937,4.875,5.283,5.051
		c0,0,0.665,0.113,0.771,0.078C6.158,5.094,6.401,4.756,6.33,4.704z M6.933,6.2C7.05,6.145,7.287,5.879,7.287,5.879
		S7.194,5.85,7.073,5.85H6.741c-0.141,0-0.166,0.322-0.166,0.322S6.812,6.258,6.933,6.2z M19.282,14.862l-0.046-0.031
		c-0.011-0.01-0.126-0.096-0.413-0.205c-0.128-0.057-0.486-0.709-0.684-1.059c-0.197-0.359-0.973-0.85-1.2-0.814
		c-0.265-0.118-0.724-0.797-1.329-0.856c-0.074-0.008-0.125-0.017-0.154-0.021c-0.004-0.013-0.009-0.021-0.011-0.023
		c-0.047-0.1-0.122-0.088-0.34-0.061c-0.31,0.039-0.89-0.326-1.276-0.566c-0.164-0.105-0.298-0.184-0.39-0.23l-0.071-0.031
		c-0.299-0.137-0.636-0.291-0.928-0.802c-0.296-0.516,0.285-2.051,0.424-2.283l0.045-0.07c0.114-0.191,0.234-0.387,0.156-0.598
		c-0.046-0.125-0.659-1.234-1.396-2.562l-0.438-0.791c-0.22-0.402-0.604-0.682-0.859-0.865l-0.153-0.115
		c-0.074-0.058-0.206-0.4-3.61-0.4c-0.589,0-1.079,0.51-1.097,0.523L5.493,3.014L5.482,3.032C5.46,3.059,4.996,3.668,4.811,4.083
		C4.635,4.471,3.736,5.836,3.544,6.108C3.38,6.34,2.751,7.479,2.751,7.833c0,0.262,0.293,1.01,0.568,1.688l0.064,0.156
		c0.305,0.77,0.312,1.004,0.288,1.075c-0.016,0.047-0.088,0.118-0.178,0.194c-0.258,0.113-0.516,0.324-0.64,0.5
		c-0.006,0.008-0.019,0.013-0.025,0.021c-0.221,0.221-0.262,0.407-0.262,0.719c0,0.207-0.299,0.428-0.382,0.455
		c-0.213,0.07-0.462,0.754-0.38,1.045c0.037,0.143-0.164,0.664-0.357,1.02c-0.103,0.119-0.209,0.24-0.307,0.363
		c-0.388,0.111-0.988,1.027-0.988,1.432c0,0.238-0.07,0.484-0.152,0.697h19.676L19.282,14.862z M9.035,5.61
		C8.947,5.801,8.111,7.372,8.042,7.616C7.971,7.862,7.417,8.156,7.119,8.122C6.863,8.094,5.902,8.104,5.674,8.147L5.447,8.125
		c0,0-0.357-1.021-0.498-1.574c-0.015-0.283-0.01-0.74,0.002-1.105c0.065-0.547,0.17-1.176,0.217-1.455
		c0.183-0.323,0.457-0.692,0.519-0.776c0.075-0.049,0.436-0.262,0.881-0.262c0.961,0,1.655,0.014,2.163,0.029l0.168,0.1
		c0.029,0.041,0.104,0.145,0.157,0.273c0.067,0.176-0.108,0.264-0.193,0.596c-0.088,0.33-0.178,0.578-0.226,0.645
		C8.582,4.666,7.832,4.53,7.764,4.53c-0.065,0-0.372,0.039-0.533,0.09c-0.005-0.027-0.005-0.055,0-0.09
		c0.037-0.146,0.082-0.131,0-0.131c-0.078,0-0.307,0.193-0.307,0.193S6.681,4.563,6.569,4.563c-0.113,0-0.019,0.178-0.065,0.322
		C6.456,5.032,6.456,5.145,6.52,5.161c0.064,0.018,0.081-0.064,0.098-0.145C6.634,4.934,6.78,4.934,6.893,4.934
		c0.08,0,0.163,0.027,0.203,0.041c0.002,0.006,0.003,0.016,0.003,0.024c0.017,0.104,0.229,0.164,0.402,0.199
		c0.174,0.037,0.698-0.111,0.871-0.111c0.176,0,0.402-0.055,0.596,0.035C9.159,5.208,9.123,5.417,9.035,5.61z M6.074,6.342
		c0.302-0.166-0.159-0.311-0.159-0.311C5.896,6.176,5.984,6.395,6.074,6.342z M6.138,7.313C5.982,7.334,6.063,7.456,6.063,7.456
		s0.157,0,0.216,0.039c0.06,0.039,0.215,0,0.372-0.02c0.159-0.02,0.334-0.117,0.334-0.117S6.295,7.295,6.138,7.313z M7.035,6.907
		c-0.117,0-0.084-0.072-0.302-0.094C6.518,6.795,6.156,6.823,5.999,6.84C5.842,6.86,5.866,7.065,5.866,7.065s0.159-0.02,0.256-0.02
		h0.953c0.393,0,0.276-0.041,0.276-0.041S7.155,6.907,7.035,6.907z"/>
</g>
<g>
</g>
<g>
</g>
<g>
</g>
<g>
</g>
<g>
</g>
<g>
</g>
<g>
</g>
<g>
</g>
<g>
</g>
<g>
</g>
<g>
</g>
<g>
</g>
<g>
</g>
<g>
</g>
<g>
</g>
</svg>
