<?xml version="1.0" encoding="iso-8859-1"?>
<!-- Generator: Adobe Illustrator 16.0.0, SVG Export Plug-In . SVG Version: 6.00 Build 0)  -->
<!DOCTYPE svg PUBLIC "-//W3C//DTD SVG 1.1//EN" "http://www.w3.org/Graphics/SVG/1.1/DTD/svg11.dtd">
<svg version="1.1" id="Capa_1" xmlns="http://www.w3.org/2000/svg" xmlns:xlink="http://www.w3.org/1999/xlink" x="0px" y="0px"
	 width="23.6px" height="23.6px" viewBox="0 0 23.6 23.6" style="enable-background:new 0 0 23.6 23.6;" xml:space="preserve">
<g>
	<path d="M23.57,3.665c-0.074-0.231-0.284-0.396-0.528-0.413l-2.899-0.195l-1.084-2.697c-0.183-0.455-0.933-0.455-1.113,0
		l-1.086,2.697L13.96,3.252c-0.244,0.019-0.454,0.182-0.528,0.413c-0.076,0.233-0.004,0.489,0.187,0.646l0.878,0.731
		C2.069,7.942,0,18.085,0,18.085l2.897-1.888c0,0-1.246,3.015-0.675,7.385l3.522-5.538c0,0,0.521,3.027,1.634,4.283
		c0,0,2.367-10.729,7.927-14.004l-0.168,0.673c-0.061,0.238,0.03,0.488,0.229,0.632c0.195,0.146,0.464,0.152,0.672,0.023L18.5,8.104
		l2.462,1.547c0.099,0.061,0.209,0.092,0.319,0.092c0.123,0,0.246-0.039,0.353-0.115c0.198-0.144,0.289-0.394,0.229-0.632
		l-0.709-2.819l2.229-1.863C23.573,4.154,23.646,3.899,23.57,3.665z M20.096,5.497c-0.177,0.148-0.253,0.383-0.197,0.607
		l0.438,1.734l-1.517-0.95c-0.098-0.062-0.211-0.094-0.319-0.094c-0.11,0-0.224,0.031-0.319,0.094l-1.516,0.952l0.438-1.735
		c0.057-0.226-0.021-0.459-0.197-0.607l-1.372-1.146l1.784-0.121c0.229-0.018,0.431-0.161,0.517-0.375L18.5,2.192l0.668,1.662
		c0.086,0.214,0.286,0.357,0.516,0.375l1.785,0.121L20.096,5.497z"/>
</g>
<g>
</g>
<g>
</g>
<g>
</g>
<g>
</g>
<g>
</g>
<g>
</g>
<g>
</g>
<g>
</g>
<g>
</g>
<g>
</g>
<g>
</g>
<g>
</g>
<g>
</g>
<g>
</g>
<g>
</g>
</svg>
