<?xml version="1.0" encoding="iso-8859-1"?>
<!-- Generator: Adobe Illustrator 19.0.0, SVG Export Plug-In . SVG Version: 6.00 Build 0)  -->
<svg version="1.1" id="Capa_1" xmlns="http://www.w3.org/2000/svg" xmlns:xlink="http://www.w3.org/1999/xlink" x="0px" y="0px"
	 viewBox="0 0 463 463" style="enable-background:new 0 0 463 463;" xml:space="preserve">
<g>
	<path d="M439.5,216H335v-64.5c0-4.142-3.357-7.5-7.5-7.5h-96c-4.143,0-7.5,3.358-7.5,7.5V184h-16.5c-4.143,0-7.5,3.358-7.5,7.5
		s3.357,7.5,7.5,7.5H224v17H23.5C10.542,216,0,226.542,0,239.5S10.542,263,23.5,263H32v48.5c0,4.142,3.357,7.5,7.5,7.5
		s7.5-3.358,7.5-7.5V263h81v48.5c0,4.142,3.357,7.5,7.5,7.5s7.5-3.358,7.5-7.5V263h81v41h-8.5c-4.143,0-7.5,3.358-7.5,7.5
		s3.357,7.5,7.5,7.5h128c4.143,0,7.5-3.358,7.5-7.5s-3.357-7.5-7.5-7.5H335v-41h81v48.5c0,4.142,3.357,7.5,7.5,7.5
		s7.5-3.358,7.5-7.5V263h8.5c12.958,0,23.5-10.542,23.5-23.5S452.458,216,439.5,216z M239,159h81v113h-81V159z M23.5,248
		c-4.687,0-8.5-3.813-8.5-8.5s3.813-8.5,8.5-8.5H224v17H23.5z M239,304v-17h81v17H239z M439.5,248H335v-17h104.5
		c4.687,0,8.5,3.813,8.5,8.5S444.187,248,439.5,248z"/>
	<path d="M263.5,191h32c4.143,0,7.5-3.358,7.5-7.5s-3.357-7.5-7.5-7.5h-32c-4.143,0-7.5,3.358-7.5,7.5S259.357,191,263.5,191z"/>
	<path d="M263.5,215h32c4.143,0,7.5-3.358,7.5-7.5s-3.357-7.5-7.5-7.5h-32c-4.143,0-7.5,3.358-7.5,7.5S259.357,215,263.5,215z"/>
	<path d="M263.5,239h32c4.143,0,7.5-3.358,7.5-7.5s-3.357-7.5-7.5-7.5h-32c-4.143,0-7.5,3.358-7.5,7.5S259.357,239,263.5,239z"/>
</g>
<g>
</g>
<g>
</g>
<g>
</g>
<g>
</g>
<g>
</g>
<g>
</g>
<g>
</g>
<g>
</g>
<g>
</g>
<g>
</g>
<g>
</g>
<g>
</g>
<g>
</g>
<g>
</g>
<g>
</g>
</svg>
