<?xml version="1.0" encoding="iso-8859-1"?>
<!-- Generator: Adobe Illustrator 19.0.0, SVG Export Plug-In . SVG Version: 6.00 Build 0)  -->
<svg version="1.1" id="Layer_1" xmlns="http://www.w3.org/2000/svg" xmlns:xlink="http://www.w3.org/1999/xlink" x="0px" y="0px"
	 viewBox="0 0 490 490" style="enable-background:new 0 0 490 490;" xml:space="preserve">
<g id="XMLID_979_">
	<g>
		<g>
			<path d="M245,150c41.355,0,75-33.645,75-75S286.355,0,245,0c-41.355,0-75,33.645-75,75S203.645,150,245,150z M245,30
				c24.813,0,45,20.187,45,45s-20.187,45-45,45s-45-20.187-45-45S220.187,30,245,30z"/>
			<path d="M358.426,380l-14.4-60H370v-15c0-68.925-56.075-125-125-125s-125,56.075-125,125v15h25.974l-14.4,60H0v110h230V380
				h-67.574l14.4-60H230v30h30v-30h53.174l14.4,60H260v110h230V380H358.426z M200,410v50H30v-50H200z M230,290h-78.817
				c6.434-40.392,38.427-72.356,78.817-78.793V290z M260,290v-78.793c40.391,6.437,72.383,38.401,78.817,78.793H260z M460,460H290
				v-50h170V460z"/>
		</g>
	</g>
</g>
<g>
</g>
<g>
</g>
<g>
</g>
<g>
</g>
<g>
</g>
<g>
</g>
<g>
</g>
<g>
</g>
<g>
</g>
<g>
</g>
<g>
</g>
<g>
</g>
<g>
</g>
<g>
</g>
<g>
</g>
</svg>
