<?xml version="1.0" encoding="iso-8859-1"?>
<!-- Generator: Adobe Illustrator 16.0.0, SVG Export Plug-In . SVG Version: 6.00 Build 0)  -->
<!DOCTYPE svg PUBLIC "-//W3C//DTD SVG 1.1//EN" "http://www.w3.org/Graphics/SVG/1.1/DTD/svg11.dtd">
<svg version="1.1" id="Capa_1" xmlns="http://www.w3.org/2000/svg" xmlns:xlink="http://www.w3.org/1999/xlink" x="0px" y="0px"
	 width="365.408px" height="365.408px" viewBox="0 0 365.408 365.408" style="enable-background:new 0 0 365.408 365.408;"
	 xml:space="preserve">
<g>
	<g>
		<path d="M301.504,24.592h-23.538v-8.393c0-8.946-7.253-16.199-16.2-16.199H103.642c-8.947,0-16.2,7.253-16.2,16.199v8.393H63.904
			c-8.947,0-16.2,7.253-16.2,16.2v20.341c0,8.946,7.253,16.199,16.2,16.199l13.067,0.087l23.739,273.192
			c0.728,8.373,7.735,14.797,16.139,14.797h131.708c8.404,0,15.412-6.424,16.141-14.797l23.747-273.279h13.06
			c8.947,0,16.2-7.253,16.2-16.199V40.792C317.704,31.845,310.451,24.592,301.504,24.592z M144.815,249.102
			c-15.104-15.104-10.385-44.31,10.541-65.235c19.297-19.296,45.641-24.81,61.467-13.704c-4.594,8.493-10.935,16.342-19.621,23.031
			c-5.592,4.288-11.362,7.502-16.446,10.337c-3.459,1.928-6.726,3.746-9.469,5.637c-13.339,9.17-22.634,24.146-25.934,40.451
			C145.171,249.448,144.994,249.275,144.815,249.102z M210.052,238.561c-18.755,18.757-44.159,24.486-60.1,14.604
			c18.662-26.765,36.955-35.026,36.955-35.026c19.124-9.528,29.176-26.157,33.395-45.094c0.095,0.098,0.192,0.188,0.291,0.282
			C235.696,188.428,230.978,217.637,210.052,238.561z"/>
	</g>
</g>
<g>
</g>
<g>
</g>
<g>
</g>
<g>
</g>
<g>
</g>
<g>
</g>
<g>
</g>
<g>
</g>
<g>
</g>
<g>
</g>
<g>
</g>
<g>
</g>
<g>
</g>
<g>
</g>
<g>
</g>
</svg>
