<?xml version='1.0' encoding='iso-8859-1'?>
<svg version="1.1" xmlns="http://www.w3.org/2000/svg" viewBox="0 0 314.758 314.758" xmlns:xlink="http://www.w3.org/1999/xlink" enable-background="new 0 0 314.758 314.758">
  <g>
    <g>
      <path d="m109.153,48.813h-29.572c-8.129,0-14.719,6.59-14.719,14.72v96.347c0,6.5 4.218,12.005 10.061,13.955v-84.392c0.103-20.156 15.104-36.982 34.23-40.63z"/>
      <path d="m235.176,48.813h-30.043c19.128,3.648 34.13,20.474 34.231,40.631v84.542c6.088-1.805 10.532-7.433 10.532-14.106v-96.347c0-8.13-6.59-14.72-14.72-14.72z"/>
      <path d="m128.572,.879h-28.605c-3.526,0-6.384,2.858-6.384,6.384v23.233c0,3.526 2.858,6.384 6.384,6.384h20.759c-1.053-3.475-1.625-7.158-1.625-10.973-0.001-9.586 3.583-18.346 9.471-25.028z"/>
      <path d="m214.058,36.879c3.526,0 6.384-2.858 6.384-6.384v-23.232c0-3.526-2.858-6.384-6.384-6.384h-28.616c5.889,6.682 9.472,15.442 9.472,25.027 0,3.815-0.572,7.497-1.625,10.973-2.84217e-14,0 20.769,0 20.769,0z"/>
      <path d="m202.401,60.405c0,1.447-0.012,118.708 0,121.056 0.038,7.384 6.443,13.156 13.84,12.367 6.301-0.672 11.192-6.02 11.16-12.492v-91.832c-0.074-14.72-10.854-26.952-25-29.099z"/>
      <path d="m189.976,148.423h-21.308v2.28c0,1.323-1.073,2.396-2.396,2.396h-18.692c-1.323,0-2.396-1.073-2.396-2.396v-2.28h-21.418l.006,151.335c0,8.285 6.717,15 15,15 8.284,0 15-6.716 15-15v-116.658c0-1.788 1.45-3.238 3.238-3.238 1.788,0 3.238,1.45 3.238,3.238v116.658c0,8.273 6.703,15 15,15 8.284,0 15-6.716 15-15-2.84217e-14-1.527-0.272-151.335-0.272-151.335z"/>
      <path d="m111.886,60.452c-14.011,2.261-24.925,14.424-25,29.052v91.832c-0.034,6.915 5.558,12.563 12.501,12.563 6.871,0 12.464-5.553 12.499-12.438v-121.009z"/>
      <path d="m189.976,134.425c0-22.605 0-51.538 0-74.354-10.042,0-55.656,0-66.21,0 0,16.367 0,58.315 0,74.354h21.418v-2.28c0-1.323 1.073-2.396 2.396-2.396h18.692c1.323,0 2.396,1.073 2.396,2.396v2.28h21.308z"/>
      <path d="m157.007,51.813c14.303,0 25.907-11.596 25.907-25.907-0.001-14.351-11.632-25.906-25.907-25.906-14.276,0-25.907,11.565-25.907,25.907 0,14.311 11.604,25.906 25.907,25.906z"/>
    </g>
  </g>
</svg>
