<?xml version="1.0" encoding="iso-8859-1"?>
<!-- Generator: Adobe Illustrator 18.1.1, SVG Export Plug-In . SVG Version: 6.00 Build 0)  -->
<svg version="1.1" id="Capa_1" xmlns="http://www.w3.org/2000/svg" xmlns:xlink="http://www.w3.org/1999/xlink" x="0px" y="0px"
	 viewBox="0 0 111.11 111.11" style="enable-background:new 0 0 111.11 111.11;" xml:space="preserve">
<g>
	<path style="fill:#030104;" d="M52.22,0l-1.095,5.064l2.095,0.452l-1.986,9.195l-1.524-0.304l-19.411,89.851H15.951v6.852h71.957
		v-6.852H74.034l17.461-80.825l-1.513-0.351l1.986-9.195l2.094,0.453l1.096-5.064L52.22,0z M52.901,75.507l-2.46,11.389
		l-8.003-1.729l2.46-11.39c0.478-2.21,2.657-3.614,4.867-3.138C51.974,71.119,53.38,73.298,52.901,75.507z M57.887,52.422
		L55.428,63.81l-8.004-1.729l2.461-11.39c0.478-2.209,2.656-3.614,4.868-3.136C56.963,48.033,58.366,50.212,57.887,52.422z
		 M52.411,38.997l2.46-11.39c0.478-2.209,2.656-3.614,4.866-3.137c2.211,0.478,3.614,2.656,3.138,4.866l-2.46,11.388L52.411,38.997z
		 M71.37,79.499L68.91,90.886l-8.003-1.729l2.459-11.39c0.479-2.209,2.656-3.614,4.867-3.137
		C70.443,75.109,71.848,77.288,71.37,79.499z M76.358,56.413l-2.461,11.389l-8.004-1.729l2.459-11.389
		c0.479-2.21,2.656-3.615,4.867-3.138C75.43,52.024,76.834,54.201,76.358,56.413z M81.346,33.325l-2.461,11.39l-8.004-1.73
		l2.461-11.389c0.477-2.21,2.655-3.615,4.865-3.137C80.418,28.938,81.823,31.117,81.346,33.325z"/>
</g>
<g>
</g>
<g>
</g>
<g>
</g>
<g>
</g>
<g>
</g>
<g>
</g>
<g>
</g>
<g>
</g>
<g>
</g>
<g>
</g>
<g>
</g>
<g>
</g>
<g>
</g>
<g>
</g>
<g>
</g>
</svg>
