<?xml version="1.0" encoding="iso-8859-1"?>
<!-- Generator: Adobe Illustrator 16.0.0, SVG Export Plug-In . SVG Version: 6.00 Build 0)  -->
<!DOCTYPE svg PUBLIC "-//W3C//DTD SVG 1.1//EN" "http://www.w3.org/Graphics/SVG/1.1/DTD/svg11.dtd">
<svg version="1.1" id="Capa_1" xmlns="http://www.w3.org/2000/svg" xmlns:xlink="http://www.w3.org/1999/xlink" x="0px" y="0px"
	 width="32px" height="32px" viewBox="0 0 32 32" style="enable-background:new 0 0 32 32;" xml:space="preserve">
<g>
	<g>
		<circle cx="13.94" cy="7.853" r="0.887"/>
		<path d="M17.207,17.53c-0.843-0.029-1.549,0.631-1.578,1.473c-0.029,0.845,0.631,1.55,1.474,1.579
			c0.844,0.029,1.549-0.631,1.578-1.475C18.709,18.266,18.049,17.559,17.207,17.53z M17.134,19.635
			c-0.319-0.011-0.569-0.279-0.56-0.599c0.012-0.32,0.279-0.57,0.6-0.56c0.318,0.01,0.57,0.279,0.559,0.6
			C17.722,19.395,17.455,19.646,17.134,19.635z"/>
		<path d="M26.571,20.823c0.017-0.039,0.035-0.08,0.052-0.12c0.358-0.809,0.698-1.574,0.776-2.622
			c0.047-0.64-0.328-1.347-0.892-1.679c-0.01-0.006-0.019-0.01-0.028-0.017c0.002-0.067,0.002-0.138,0.002-0.209
			c-0.006-0.697-0.271-1.149-0.858-1.466c-0.106-0.057-0.21-0.104-0.313-0.14c-0.168-0.34-0.438-0.647-0.689-0.862
			c-0.245-0.209-0.735-0.553-1.252-0.509c-0.396,0.033-0.795,0.25-1.146,0.44c-0.067,0.037-0.134,0.073-0.196,0.105
			c-0.065,0.034-0.137,0.078-0.209,0.125c-0.153-0.171-0.315-0.333-0.484-0.486c1.072-0.694,1.906-1.648,2.376-2.756
			c0.933-0.079,1.672-1.158,1.672-2.48c0-1.375-0.798-2.489-1.783-2.489c-0.097,0-0.192,0.014-0.286,0.035
			c-1.149-1.862-3.396-3.138-5.988-3.188v-1.27h0.613V0h-0.802h-0.021h-0.803v1.235h0.614v1.27
			c-2.594,0.051-4.838,1.327-5.989,3.188c-0.093-0.02-0.188-0.034-0.286-0.034c-0.985,0-1.782,1.114-1.782,2.489
			c0,1.323,0.739,2.402,1.671,2.48c0.47,1.108,1.305,2.062,2.376,2.756c-0.105,0.095-0.208,0.194-0.308,0.296
			c-0.653-0.18-1.332-0.308-2.068-0.179c-0.522,0.092-2.11,0.373-2.619,1.532c-0.209,0.475-0.228,1.006-0.067,1.468
			c-0.334,0.239-0.607,0.537-0.775,0.854c-0.221,0.416-0.259,0.848-0.123,1.248c-0.713,0.541-0.931,1.547-0.992,2.273
			c-0.968,0.221-1.697,1.083-1.709,2.117h0.965c0.014-0.667,0.559-1.206,1.229-1.206s1.216,0.539,1.229,1.206h0.965
			c-0.013-1.156-0.924-2.1-2.067-2.165c0.057-0.568,0.224-1.285,0.686-1.688c0.11,0.135,0.243,0.265,0.398,0.383
			c0.176,0.136,0.712,0.545,1.314,0.24c0.417-0.209,0.631-0.535,0.577-0.869c-0.031-0.19-0.136-0.354-0.301-0.47
			c-0.494-0.344-1.412-0.181-1.515-0.161C7.653,18.28,7.578,18.3,7.502,18.324c-0.05-0.221-0.013-0.452,0.111-0.686
			c0.116-0.22,0.305-0.428,0.537-0.602c0.332,0.411,0.834,0.632,1.392,0.617c0.442-0.014,0.957-0.24,1.176-0.573
			c-0.183,0.692-0.283,1.427-0.283,2.188c0,2.955,1.484,5.51,3.641,6.729v4.121c-0.785,0.266-1.351,1.006-1.351,1.881
			c1.296,0,2.76,0,3.978,0c0-0.932-0.641-1.711-1.507-1.927v-3.587c0.552,0.176,1.133,0.271,1.733,0.271
			c0.066,0,0.132-0.003,0.196-0.006c0.064,0.002,0.13,0.006,0.195,0.006c0.601,0,1.181-0.096,1.732-0.271v3.587
			c-0.865,0.216-1.507,0.995-1.507,1.927c1.218,0,2.683,0,3.978,0c0-0.875-0.564-1.615-1.35-1.882v-4.121
			c2.156-1.22,3.641-3.772,3.641-6.728c0-1.071-0.197-2.09-0.549-3.012c0.059,0.061,0.129,0.116,0.213,0.162
			c0.348,0.194,0.875,0.217,1.2,0.055c0.423-0.211,0.741-0.692,0.789-1.155c0.293,0.196,0.407,0.444,0.411,0.864
			c0,0.01,0,0.02,0,0.029c-0.247-0.005-0.482,0.062-0.7,0.204c-0.345,0.226-0.886,0.769-0.725,1.376
			c0.086,0.326,0.317,0.539,0.633,0.585c0.378,0.056,0.81-0.153,1.01-0.483c0.142-0.23,0.244-0.504,0.308-0.819
			c0.258,0.249,0.418,0.624,0.394,0.959c-0.069,0.944-0.374,1.629-0.726,2.423c-0.024,0.052-0.047,0.105-0.071,0.16
			c-1.151-0.242-2.294,0.472-2.579,1.617l0.939,0.223c0.166-0.646,0.82-1.044,1.474-0.891c0.653,0.154,1.06,0.805,0.918,1.457
			l0.938,0.223C27.915,22.26,27.43,21.273,26.571,20.823z M7.849,18.855c0.364-0.068,0.872-0.063,1.056,0.064
			c0.042,0.03,0.049,0.053,0.053,0.073c0.005,0.032-0.08,0.146-0.255,0.233c-0.131,0.066-0.313,0.096-0.676-0.182
			c-0.078-0.061-0.147-0.12-0.208-0.184C7.828,18.861,7.837,18.857,7.849,18.855z M9.522,17.051
			c-0.335,0.012-0.626-0.101-0.838-0.318c0.417-0.172,0.882-0.229,1.297-0.092c0.142,0.047,0.206,0.09,0.233,0.113
			C10.146,16.859,9.826,17.042,9.522,17.051z M10.826,16.706c-0.012-0.196-0.136-0.466-0.655-0.638
			c-0.591-0.196-1.227-0.114-1.779,0.129c-0.075-0.294-0.049-0.622,0.083-0.921c0.255-0.582,0.965-0.968,2.171-1.181
			c0.521-0.091,1.017-0.028,1.516,0.092C11.583,14.91,11.125,15.764,10.826,16.706z M15.739,10.637h2.742v1.326h-2.742V10.637z
			 M12.433,7.853c0-0.832,0.675-1.507,1.507-1.507c0.833,0,1.508,0.675,1.508,1.507c0,0.833-0.675,1.508-1.508,1.508
			C13.108,9.361,12.433,8.686,12.433,7.853z M20.418,19.494c-0.003,0.08-0.07,0.142-0.15,0.139l-0.406-0.014
			c-0.084,0.386-0.248,0.752-0.481,1.07l0.276,0.297c0.055,0.06,0.052,0.15-0.006,0.205l-0.504,0.471
			c-0.027,0.025-0.064,0.04-0.104,0.039s-0.074-0.018-0.102-0.045l-0.269-0.288c-0.338,0.225-0.724,0.374-1.124,0.437l-0.013,0.399
			c-0.003,0.08-0.07,0.144-0.15,0.14l-0.688-0.023c-0.08-0.002-0.143-0.068-0.139-0.149l0.012-0.389
			c-0.398-0.082-0.777-0.25-1.107-0.495l-0.27,0.253c-0.059,0.054-0.15,0.051-0.205-0.007l-0.47-0.504
			c-0.053-0.055-0.049-0.151,0.007-0.204l0.265-0.246c-0.229-0.347-0.377-0.738-0.435-1.147l-0.347-0.012
			c-0.079-0.003-0.142-0.07-0.14-0.15l0.023-0.688c0.003-0.08,0.07-0.143,0.15-0.139l0.347,0.012
			c0.086-0.408,0.264-0.792,0.518-1.122l-0.239-0.257c-0.026-0.027-0.041-0.065-0.039-0.104c0.001-0.039,0.018-0.074,0.046-0.101
			l0.502-0.47c0.059-0.055,0.151-0.051,0.205,0.006l0.248,0.266c0.344-0.219,0.73-0.359,1.132-0.412l0.013-0.353
			c0.002-0.08,0.068-0.143,0.148-0.14l0.688,0.024c0.08,0.002,0.144,0.07,0.141,0.149l-0.014,0.365
			c0.394,0.088,0.765,0.262,1.084,0.506l0.283-0.264c0.028-0.025,0.065-0.041,0.104-0.039c0.039,0.001,0.075,0.018,0.101,0.045
			l0.471,0.504c0.055,0.058,0.051,0.149-0.008,0.205l-0.287,0.27c0.215,0.336,0.355,0.715,0.412,1.109l0.406,0.014
			c0.08,0.002,0.143,0.07,0.141,0.15L20.418,19.494z M20.173,9.361c-0.833,0-1.508-0.675-1.508-1.508
			c0-0.832,0.675-1.507,1.508-1.507s1.508,0.675,1.508,1.507C21.681,8.686,21.006,9.361,20.173,9.361z M23.063,15.772
			c-0.238-0.517-0.526-0.998-0.858-1.434c0.036-0.022,0.069-0.042,0.099-0.057c0.064-0.035,0.135-0.072,0.207-0.111
			c0.299-0.163,0.639-0.347,0.91-0.37c0.209-0.017,0.521,0.123,0.809,0.368c0.115,0.098,0.221,0.207,0.312,0.32
			c-0.144,0.022-0.285,0.063-0.427,0.127C23.931,14.697,23.051,15.125,23.063,15.772z M24.409,15.936
			c-0.133,0.068-0.448,0.064-0.637-0.041c-0.104-0.058-0.107-0.109-0.109-0.126c-0.014-0.145,0.326-0.438,0.695-0.603
			c0.135-0.06,0.267-0.09,0.401-0.09c0.032,0,0.065,0.002,0.099,0.005c0.006,0.031,0.01,0.062,0.014,0.09
			C24.891,15.445,24.674,15.804,24.409,15.936z M25.583,17.583c-0.076,0.125-0.27,0.22-0.409,0.201
			c-0.054-0.009-0.106-0.031-0.137-0.144c-0.058-0.216,0.2-0.541,0.473-0.719c0.106-0.07,0.216-0.105,0.329-0.107
			C25.792,17.123,25.706,17.382,25.583,17.583z"/>
		<circle cx="20.173" cy="7.853" r="0.887"/>
	</g>
</g>
<g>
</g>
<g>
</g>
<g>
</g>
<g>
</g>
<g>
</g>
<g>
</g>
<g>
</g>
<g>
</g>
<g>
</g>
<g>
</g>
<g>
</g>
<g>
</g>
<g>
</g>
<g>
</g>
<g>
</g>
</svg>
