<?xml version="1.0" encoding="iso-8859-1"?>
<!-- Generator: Adobe Illustrator 16.0.0, SVG Export Plug-In . SVG Version: 6.00 Build 0)  -->
<!DOCTYPE svg PUBLIC "-//W3C//DTD SVG 1.1//EN" "http://www.w3.org/Graphics/SVG/1.1/DTD/svg11.dtd">
<svg version="1.1" id="Capa_1" xmlns="http://www.w3.org/2000/svg" xmlns:xlink="http://www.w3.org/1999/xlink" x="0px" y="0px"
	 width="94.201px" height="94.201px" viewBox="0 0 94.201 94.201" style="enable-background:new 0 0 94.201 94.201;"
	 xml:space="preserve">
<g>
	<g>
		<path d="M91.264,56.74c-0.095-0.105-0.243-0.114-0.333-0.021c-0.058,0.06-0.108,0.12-0.135,0.19
			c-0.436,1.168-1.108,2.152-2.295,2.759c-0.484,0.248-1.08,0.161-1.309-0.2c-0.258-0.406-0.514-0.812-0.762-1.225
			c-0.781-1.297-1.755-2.43-2.962-3.41c-1.368-1.111-2.851-1.985-4.581-2.467c-1.771-0.493-3.551-0.956-5.312-1.474
			c-1.296-0.38-2.587-0.787-3.85-1.255c-0.996-0.368-2.042-0.682-2.83-1.427c-0.574-0.543-1.126-1.107-1.701-1.649
			c-1.007-0.949-1.734-2.039-2.17-3.341c-0.586-1.75-0.473-3.429,0.209-5.12c0.593-1.471,2.431-2.148,3.648-1.508
			c0.38,0.199,0.682,0.559,0.966,0.885c1.093,1.253,1.384,2.615,0.599,4.127c-0.582,1.12-2.29,1.485-3.284,0.681
			c-0.094-0.076-0.189-0.151-0.286-0.226c-0.159-0.122-0.312-0.202-0.344-0.179c-0.03,0.023,0.021,0.21,0.115,0.417
			c0.057,0.125,0.111,0.251,0.16,0.379c0.525,1.385,1.643,2.318,3.359,1.714c0.041-0.015,0.09-0.014,0.129-0.031
			c0.405-0.188,0.802-0.138,1.201,0.021c0.613,0.243,1.235,0.466,1.843,0.717c1.621,0.67,3.224,1.396,5.054,1.377
			c0.242-0.002,0.483-0.003,0.727-0.002c0.401,0.001,0.032-0.358-0.847-0.762c-0.535-0.245-1.069-0.476-1.607-0.696
			c-1.244-0.508-2.566-0.852-3.685-1.619c-0.252-0.173-0.392-0.316-0.169-0.608c0.2-0.265,0.356-0.55,0.762-0.289
			c0.134,0.086,0.258,0.188,0.396,0.269c0.456,0.272,0.897,0.576,1.382,0.797c0.729,0.334,1.502,0.581,2.23,0.915
			c1.37,0.63,2.774,1.127,4.319,1.144c0.188,0.002,0.376-0.011,0.563-0.029c0.312-0.029,0.568-0.1,0.573-0.157
			c0.004-0.058-0.141-0.152-0.325-0.212c-0.11-0.036-0.223-0.069-0.336-0.096c-0.4-0.094-0.834-0.111-1.205-0.265
			c-0.792-0.328-1.573-0.69-2.323-1.098c-1.586-0.861-3.146-1.767-4.724-2.644c-0.44-0.246-0.589-0.589-0.635-1.067
			c-0.165-1.701-0.947-3.519-2.266-4.711c-2.024-1.829-5.736-1.913-7.746-0.006c-0.527,0.5-0.947,1.177-1.149,1.855
			c-0.803,2.697,0.317,5.488,0.848,8.126c0.032,0.166-0.047,0.438-0.178,0.532c-1.539,1.103-3.265,1.868-3.872,3.751
			c-0.527,1.638-0.479,3.44-0.568,5.135c-0.096,1.803-0.24,3.607-0.173,5.414c0.047,1.248,0.171,2.495,0.305,3.736
			c0.445,4.105,0.727,8.467-1.527,12.188c-0.914,1.509-2.444,2.732-4.368,2.693c-2.706-0.055-4.773-2.328-5.584-4.597
			c-0.293-0.82-0.253-2.019-0.052-2.852c0.396-1.646,1.84-3.163,3.358-3.991c0.771-0.42,1.62-0.608,2.503-0.462
			c0.872,0.143,2.157,0.583,2.825,1.146c0.065,0.057,0.124,0.133,0.201,0.161c0.06,0.021,0.12,0.033,0.185,0.043
			c0.103,0.017,0.211-0.057,0.241-0.161c0.021-0.07,0.032-0.139,0.008-0.19c-0.133-0.278-0.279-0.567-0.492-0.791
			c-1.17-1.23-2.419-2.375-3.966-3.187c-0.398-0.208-0.666-0.509-0.748-0.938c-0.234-1.235-0.525-2.464-0.679-3.708
			c-0.258-2.068-0.478-4.143-0.618-6.219c-0.152-2.243-0.02-4.479,0.653-6.655c0.374-1.208,0.79-2.403,1.176-3.607
			c0.119-0.374,0.15-0.776,0.303-1.137c0.67-1.582,1.334-3.168,2.068-4.724c0.685-1.454,1.402-2.898,2.2-4.3
			c0.966-1.695,2.03-3.341,3.047-5.01c0.025-0.04,0.036-0.088,0.048-0.143c0.016-0.082-0.037-0.146-0.122-0.146
			c-0.063,0-0.113,0.002-0.15,0.024c-0.396,0.238-0.817,0.453-1.168,0.743c-0.709,0.585-1.391,1.199-2.058,1.827
			c-0.26,0.243-0.435,0.564-0.668,0.835c-0.693,0.798-1.476,1.536-2.081,2.39c-1.225,1.723-2.406,3.474-3.334,5.369
			c-0.781,1.595-1.633,3.161-2.491,4.721c-0.995,1.805-1.781,3.709-2.941,5.437c-0.392,0.584-0.631,1.26-1.013,1.852
			c-0.614,0.951-1.281,1.872-1.938,2.798c-0.929,1.312-1.853,2.626-2.809,3.918c-1.109,1.498-2.521,2.739-3.886,4.02
			c-0.336,0.314-0.684,0.621-1.008,0.945c-0.062,0.062-0.106,0.142-0.159,0.242c-0.074,0.142,0.305,0.244,0.81,0.081
			c0.318-0.103,0.601-0.243,0.869-0.395c1.399-0.793,2.699-1.705,3.796-2.869c0.785-0.833,1.617-1.629,2.465-2.406
			c0.731-0.67,1.547-1.259,2.267-1.94c0.803-0.761,1.535-1.59,2.31-2.379c0.049-0.05,0.117-0.085,0.19-0.114
			c0.114-0.049,0.257-0.001,0.316,0.104c0.039,0.068,0.07,0.136,0.067,0.202c-0.035,0.669-0.06,1.343-0.172,2.003
			c-0.071,0.421-0.342,0.81-0.428,1.231c-0.219,1.065-0.81,1.971-1.494,2.773c-0.979,1.149-2.046,2.253-3.207,3.235
			c-1.736,1.469-3.481,2.945-5.54,4.027c-0.671,0.353-1.31,0.766-1.998,1.079c-1.424,0.649-2.896,1.188-4.435,1.556
			c-1.445,0.346-2.889,0.701-4.333,1.054c-0.132,0.032-0.263,0.062-0.395,0.094c-0.218,0.052-0.399,0.121-0.403,0.156
			c-0.004,0.034,0.077,0.114,0.183,0.177c0.064,0.039,0.132,0.073,0.201,0.086c0.318,0.061,0.646,0.124,0.967,0.113
			c1.444-0.048,2.89-0.107,4.333-0.192c0.632-0.037,1.268-0.107,1.887-0.232c0.965-0.194,1.944-0.375,2.867-0.693
			c1.383-0.477,2.733-1.043,4.078-1.616c1.603-0.684,3.197-1.4,4.511-2.541c1.011-0.878,1.979-1.799,2.961-2.708
			c0.301-0.278,0.499-0.249,0.637,0.125c0.191,0.52,0.337,0.941-0.097,1.365c-1.024,0.998-2.15,1.753-3.006,2.92
			c-0.698,0.951-1.287,1.969-1.699,3.062c-0.314,0.83-0.583,1.642-1.479,2.064c-3.196,1.51-6.489,2.833-9.898,3.857
			c-4.47,1.343-9.075,1.708-13.728,2.021c-2.377,0.161-4.758,0.327-7.142,0.338c-1.15,0.006-2.299-0.029-3.446-0.105
			c-1.291-0.085-2.853-0.59-4.121-0.187C0.21,77.812-0.008,77.924,0,77.976c0.143,0.836,1.689,0.821,2.352,0.985
			c0.669,0.166,1.34,0.327,2.013,0.479c1.35,0.305,2.711,0.568,4.082,0.776c4.954,0.75,10.044,0.794,15.04,0.449
			c1.23-0.085,2.46-0.199,3.685-0.345c4.366-0.521,8.518-1.553,12.671-2.899c0.37-0.12,0.589-0.072,0.758,0.31
			c0.241,0.55,0.54,1.08,0.865,1.591c0.196,0.306,0.188,0.422-0.204,0.515c-0.786,0.186-1.568,0.386-2.358,0.551
			c-0.963,0.201-1.933,0.375-2.901,0.556c-0.983,0.183-1.966,0.385-2.956,0.529c-1.809,0.267-3.621,0.522-5.438,0.734
			c-1.42,0.166-2.85,0.279-4.277,0.375c-0.939,0.063-1.885,0.058-2.828,0.08c-1.003,0.022-2.009,0.09-3.009,0.048
			c-1.296-0.054-2.591-0.171-3.881-0.307c-1.332-0.141-2.658-0.335-3.987-0.506c-0.154-0.02-0.291-0.008-0.401,0.075
			c-0.5,0.373,2.575,1.486,2.885,1.591c1.295,0.439,2.625,0.778,3.978,1.013c4.159,0.719,8.415,0.812,12.631,0.809
			c1.124-0.001,2.248-0.001,3.372-0.016c3.942-0.054,7.724-0.466,11.56-1.319c0.876-0.195,1.744-0.426,2.627-0.587
			c0.565-0.103,1.195,0.241,1.722,0.393c0.676,0.196,1.372,0.341,2.079,0.382c0.981,0.057,2.098-0.108,3.048-0.33
			c3.985-0.933,5.997-4.346,6.618-7.962c0.024-0.14,0.052-0.278,0.08-0.417c0.047-0.23,0.12-0.422,0.163-0.429
			s0.148,0.104,0.236,0.247c0.053,0.086,0.103,0.173,0.146,0.264c0.159,0.328,0.295,0.668,0.45,0.997
			c0.292,0.624,0.58,1.25,0.89,1.865c0.303,0.6,0.622,1.19,0.955,1.773c0.032,0.056,0.09,0.1,0.154,0.14
			c0.099,0.062,0.212,0.021,0.249-0.096c0.022-0.071,0.042-0.143,0.05-0.214c0.01-0.091-0.043-0.189-0.071-0.282
			c-0.159-0.536-0.356-1.065-0.474-1.609c-0.302-1.396-0.575-2.799-0.846-4.2c-0.102-0.522-0.157-1.054-0.248-1.577
			c-0.203-1.173-0.425-2.344-0.621-3.518c-0.221-1.327-0.437-2.654-0.628-3.984c-0.176-1.22-0.407-2.438-0.456-3.663
			c-0.078-1.941-0.105-3.892,0.001-5.83c0.076-1.389,0.385-2.767,0.632-4.143c0.094-0.52,0.265-0.553,0.709-0.223
			c0.546,0.406,1.053,0.862,1.624,1.23c1.907,1.228,4.079,1.865,6.264,2.478c1.898,0.531,3.862,0.692,5.81,0.898
			c1.609,0.171,3.247,0.174,4.87,0.15c1.354-0.019,2.46,0.373,3.337,1.342c0.288,0.318,0.566,0.645,0.854,0.964
			c1.02,1.136,1.887,2.353,2.371,3.792c0.055,0.164,0.228,0.37,0.388,0.414c0.489,0.135,1.001,0.169,1.434-0.174
			c0.62-0.489,1.219-1.005,1.844-1.487c1.247-0.965,1.524-2.274,1.479-3.693C91.38,56.883,91.328,56.812,91.264,56.74z
			 M70.604,52.73c-0.202,0.006-0.403,0.004-0.601-0.023c-1.1-0.148-2.164-0.436-3.154-0.923c-0.9-0.444-1.806-0.881-2.68-1.369
			c-0.277-0.155-0.521-0.434-0.666-0.709c-0.088-0.168-0.042-0.508,0.09-0.648c0.233-0.247,0.593-0.231,0.896-0.047
			c0.497,0.303,1,0.601,1.473,0.936c1.537,1.089,3.203,1.939,5.029,2.507c0.039,0.012,0.076,0.028,0.114,0.046
			c0.061,0.029,0.108,0.089,0.105,0.134C71.208,52.679,70.936,52.724,70.604,52.73z"/>
		<path d="M18.261,56.323c0.761,0.098,1.522,0.197,2.287,0.254c1.637,0.118,3.106-0.497,4.584-1.015
			c1.814-0.635,3.213-1.875,4.585-3.098c0.942-0.839,1.753-1.817,2.58-2.765c0.723-0.827,1.457-1.657,2.062-2.562
			c1.142-1.711,2.17-3.491,3.294-5.213c0.62-0.95,1.362-1.829,2.005-2.767c0.593-0.865,1.095-1.787,1.695-2.648
			c1.096-1.574,2.16-3.177,3.378-4.665c1.09-1.333,2.356-2.539,3.573-3.776c0.317-0.323,0.732-0.563,1.111-0.83
			c1.088-0.767,2.164-1.551,3.278-2.282c0.861-0.566,1.781-1.05,2.656-1.597c0.407-0.256,0.408-0.397-0.004-0.646
			c-0.497-0.298-1.023-0.557-1.556-0.796c-1.198-0.536-2.356-1.172-3.722-1.287c-1.459-0.123-2.913-0.201-4.358,0.125
			c-1.405,0.318-2.804,0.673-4.223,0.93c-1.941,0.353-3.9,0.617-5.846,0.945c-0.313,0.053-0.688,0.176-0.879,0.39
			c-0.335,0.374-0.707,0.496-1.174,0.412c-1.13-0.205-2.256-0.433-3.386-0.642c-0.056-0.01-0.116-0.003-0.177,0.009
			c-0.096,0.02-0.146,0.11-0.112,0.202c0.022,0.06,0.049,0.116,0.094,0.153c0.956,0.785,2.04,1.379,3.198,1.85
			c0.197,0.08,0.517,0.119,0.668,0.021c0.385-0.247,0.77-0.228,1.189-0.188c1.143,0.108,2.268,0.391,3.437,0.23
			c0.847-0.117,1.725-0.074,2.551-0.254c1.723-0.377,3.449-0.461,5.198-0.321c0.072,0.006,0.144,0.034,0.212,0.067
			c0.111,0.054,0.149,0.181,0.085,0.283c-0.04,0.064-0.082,0.124-0.137,0.172c-0.923,0.803-1.85,1.602-2.789,2.387
			c-0.17,0.142-0.39,0.255-0.607,0.314c-0.852,0.234-1.7,0.488-2.569,0.645c-0.763,0.137-1.55,0.163-2.328,0.219
			c-0.321,0.022-0.647,0.003-0.97-0.008c-0.883-0.03-1.769-0.109-2.649-0.081c-0.542,0.017-1.13,0.1-1.604,0.326
			c-0.508,0.24-0.666,0.355-1.159,0.055c-0.214-0.131-0.421-0.271-0.643-0.422c-0.349-0.24-0.62-0.328-0.611-0.195
			c0.007,0.095,0.014,0.169,0.04,0.237c0.434,1.093,1.036,2,2.34,2.367c1.539,0.433,3.06,0.917,4.671,1.054
			c0.441,0.038,0.888,0.019,1.329,0.061c0.467,0.045,0.569,0.304,0.299,0.67c-0.151,0.206-0.312,0.409-0.43,0.632
			c-0.225,0.424-0.416,0.863-0.628,1.294c-0.218,0.438-0.554,0.803-1.065,0.867c-0.862,0.108-1.745,0.241-2.602,0.173
			c-0.993-0.08-1.989-0.301-2.943-0.582c-0.762-0.227-1.463-0.638-2.193-0.963c-0.05-0.022-0.103-0.039-0.18-0.064
			c-0.101-0.032-0.134,0.092-0.073,0.278c0.04,0.122,0.076,0.229,0.116,0.334c0.323,0.848,1.031,1.409,1.646,2.055
			c0.858,0.902,1.903,1.439,3.13,1.697c0.431,0.091,0.875,0.121,1.312,0.185c0.453,0.066,0.61,0.271,0.401,0.633
			c-0.303,0.526-0.651,1.033-1.029,1.514c-0.146,0.187-0.412,0.358-0.651,0.402c-0.952,0.178-1.911,0.36-2.877,0.43
			c-0.939,0.066-1.891-0.019-2.836-0.009c-1.098,0.013-2.022-0.329-2.767-1.103c-0.05-0.052-0.109-0.095-0.172-0.135
			c-0.103-0.067-0.207-0.106-0.236-0.089c-0.029,0.017-0.039,0.147-0.021,0.29c0.011,0.089,0.027,0.175,0.068,0.249
			c0.419,0.773,0.844,1.589,1.678,2.01c1.152,0.581,2.364,1.062,3.564,1.556c0.43,0.177,0.901,0.264,1.352,0.398
			c0.464,0.138,0.579,0.307,0.464,0.745c-0.074,0.28-0.163,0.569-0.312,0.82c-0.442,0.746-0.889,1.517-1.829,1.794
			c-1.069,0.317-2.141,0.649-3.235,0.861c-0.986,0.192-1.976,0.066-2.871-0.443c-0.084-0.048-0.177-0.084-0.281-0.122
			c-0.16-0.058-0.284-0.026-0.283,0.071c0.001,0.075,0.002,0.13,0.026,0.175c0.396,0.746,0.877,1.464,1.676,1.84
			c0.623,0.293,1.338,0.417,2.019,0.595c0.445,0.115,0.514,0.263,0.205,0.591c-0.127,0.135-0.292,0.238-0.422,0.37
			c-0.937,0.943-1.976,1.747-3.197,2.359c-1.723,0.864-3.509,1.474-5.468,1.576c-0.075,0.004-0.15,0.021-0.226,0.041
			c-0.123,0.033-0.224,0.085-0.226,0.115c-0.003,0.03,0.105,0.101,0.242,0.158C18.087,56.282,18.172,56.312,18.261,56.323z"/>
		<path d="M93.243,49.234c-0.822-1.66-2.016-3.092-3.388-4.362c-1.21-1.121-2.554-2.111-3.802-3.196
			c-1.61-1.397-3.286-2.746-4.744-4.278c-1.457-1.529-2.73-3.226-3.99-4.91c-0.993-1.327-2.083-2.565-3.199-3.798
			c-1.041-1.148-2.127-2.211-3.589-2.869c-0.285-0.129-0.571-0.253-0.859-0.376c-0.476-0.204-0.881-0.343-0.903-0.309
			c-0.023,0.033-0.001,0.131,0.049,0.218c0.031,0.054,0.062,0.105,0.096,0.155c0.389,0.577,0.875,1.056,1.415,1.525
			c0.752,0.653,1.326,1.489,1.991,2.234c0.322,0.361,0.705,0.675,1.013,1.045c0.767,0.922,1.507,1.861,2.252,2.798
			c0.825,1.035,1.66,2.064,2.46,3.117c0.817,1.075,1.599,2.177,2.396,3.266c0.034,0.046,0.057,0.099,0.092,0.143
			c0.527,0.671,1.006,1.383,1.596,2c0.561,0.586,1.251,1.059,1.858,1.606c1.046,0.942,2.037,1.942,3.118,2.848
			c0.816,0.685,1.554,1.412,2.128,2.288c0.068,0.106,0.139,0.211,0.217,0.329c0.12,0.182-0.123,0.345-0.544,0.362
			c-0.268,0.011-0.516,0.024-0.76,0.059c-1.082,0.15-2.187,1.091-2.351,2.02c-0.268,1.519-0.051,2.944,0.757,4.288
			c0.673,1.116,1.673,1.61,3.02,0.829c0.416-0.24,0.813-0.539,0.812-1.073c0-0.126-0.04-0.285-0.127-0.366
			c-0.048-0.045-0.249,0.014-0.35,0.072c-0.445,0.26-0.906,0.33-1.399,0.154c-0.766-0.273-1.37-1.119-1.359-1.894
			c0.012-0.832,0.549-1.603,1.278-1.85c1.095-0.368,2.193-0.007,2.787,0.58c0.75,0.74,1.059,1.632,0.987,2.684
			c-0.082,1.196-0.052,2.4-0.053,3.602c0,0.068,0.028,0.136,0.065,0.204c0.058,0.106,0.192,0.16,0.303,0.12
			c0.069-0.026,0.135-0.056,0.18-0.104c0.194-0.206,0.353-0.441,0.52-0.67c0.494-0.676,0.868-1.397,0.939-2.233
			c0.129-1.53-0.009-3.04-0.39-4.529C93.614,50.381,93.508,49.77,93.243,49.234z"/>
		<path d="M60.432,27.094c0.32,0.242,0.681,0.443,1.045,0.623c0.058,0.029,0.138,0.02,0.222,0c0.122-0.027,0.199-0.14,0.172-0.252
			c-0.017-0.07-0.038-0.137-0.075-0.196c-0.081-0.129-0.246-0.21-0.327-0.338c-0.648-1.025-0.98-1.43-0.097-2.377
			c0.612-0.655,1.053-1.439,1.187-2.313c0.143-0.94,0.188-1.894,0.261-2.843c0.007-0.092-0.013-0.186-0.042-0.299
			c-0.041-0.163-0.12-0.23-0.185-0.153c-0.052,0.062-0.086,0.103-0.101,0.148c-0.219,0.676-0.36,1.385-0.667,2.023
			c-0.256,0.533-0.69,0.994-1.077,1.463c-0.044,0.053-0.127,0.076-0.219,0.093c-0.132,0.024-0.248-0.062-0.256-0.196
			c-0.005-0.081-0.006-0.162,0.005-0.24c0.012-0.084,0.115-0.155,0.173-0.234c0.27-0.367,0.585-0.711,0.795-1.106
			c0.594-1.118,0.686-2.327,0.608-3.556c-0.001-0.01-0.021-0.019-0.058-0.039c-0.033-0.018-0.146,0.323-0.257,0.763
			c-0.067,0.27-0.144,0.533-0.257,0.781c-0.114,0.25-0.234,0.507-0.398,0.749c-0.265,0.391-0.608,0.566-0.628,0.508
			c-0.017-0.054-0.025-0.081-0.023-0.106c0.188-2.243,0.323-4.493,0.593-6.729c0.173-1.436,0.238-2.841-0.164-4.243
			c-0.016-0.054-0.049-0.104-0.087-0.151c-0.061-0.078-0.163-0.073-0.227,0.011c-0.041,0.054-0.075,0.109-0.085,0.167
			c-0.122,0.731-0.218,1.466-0.334,2.198c-0.068,0.427-0.167,0.85-0.241,1.277c-0.201,1.144-0.287,2.317-0.617,3.426
			c-0.668,2.246-0.899,4.523-0.9,6.841C58.17,24.587,58.975,25.996,60.432,27.094z"/>
		<path d="M62.626,13.081c0.073,1.364,0.113,2.706,0.494,4.057c0.497,1.763,0.727,3.59,1.078,5.39
			c0.03,0.152,0.071,0.305,0.114,0.454c0.071,0.25,0.789-1.599,0.534-4.201c-0.121-1.232-0.341-2.544-0.624-3.747
			c-0.603-2.552-1.907-4.244-1.913-4.177c-0.004,0.044-0.006,0.083,0,0.123C62.417,11.68,62.588,12.377,62.626,13.081z"/>
		<path d="M68.855,31.32c-0.558,0.239-1.108,0.507-1.617,0.824c-0.267,0.166-0.574,0.459-0.374,0.809
			c0.193,0.337,0.581,0.149,0.893,0.136c1.015-0.045,2.03-0.15,3.018,0.198c0.331,0.116,0.676,0.206,1.022,0.262
			c0.071,0.012,0.149-0.016,0.235-0.054c0.123-0.054,0.154-0.345,0.07-0.653c-0.055-0.201-0.111-0.38-0.205-0.54
			c-0.326-0.559-0.738-1.073-1.092-1.618c-0.765-1.175-1.961-1.816-3.227-2.379c-0.093-0.041-0.192-0.087-0.292-0.093
			c-0.062-0.003-0.124,0.004-0.186,0.014c-0.103,0.017-0.149,0.108-0.106,0.203c0.029,0.063,0.062,0.12,0.112,0.151
			c0.847,0.529,1.353,1.35,1.982,2.062C69.388,30.983,69.279,31.138,68.855,31.32z"/>
	</g>
</g>
<g>
</g>
<g>
</g>
<g>
</g>
<g>
</g>
<g>
</g>
<g>
</g>
<g>
</g>
<g>
</g>
<g>
</g>
<g>
</g>
<g>
</g>
<g>
</g>
<g>
</g>
<g>
</g>
<g>
</g>
</svg>
