<?xml version="1.0" encoding="iso-8859-1"?>
<!-- Generator: Adobe Illustrator 18.0.0, SVG Export Plug-In . SVG Version: 6.00 Build 0)  -->
<!DOCTYPE svg PUBLIC "-//W3C//DTD SVG 1.1//EN" "http://www.w3.org/Graphics/SVG/1.1/DTD/svg11.dtd">
<svg version="1.1" id="Capa_1" xmlns="http://www.w3.org/2000/svg" xmlns:xlink="http://www.w3.org/1999/xlink" x="0px" y="0px"
	 viewBox="0 0 53 53" style="enable-background:new 0 0 53 53;" xml:space="preserve">
<g>
	<path d="M24.5,24c0-3.859-3.141-7-7-7s-7,3.141-7,7s3.141,7,7,7S24.5,27.859,24.5,24z M12.5,24c0-2.757,2.243-5,5-5s5,2.243,5,5
		s-2.243,5-5,5S12.5,26.757,12.5,24z"/>
	<path d="M35.5,17c-3.859,0-7,3.141-7,7s3.141,7,7,7s7-3.141,7-7S39.359,17,35.5,17z M35.5,29c-2.757,0-5-2.243-5-5s2.243-5,5-5
		s5,2.243,5,5S38.257,29,35.5,29z"/>
	<path d="M43.5,6h-9V2.306C34.5,1.034,33.466,0,32.194,0H20.806C19.534,0,18.5,1.034,18.5,2.306V6h-9c-2.757,0-5,2.243-5,5v33
		c0,2.757,2.243,5,5,5h3v1.694c0,1.271,1.034,2.306,2.306,2.306h23.389c1.271,0,2.306-1.034,2.306-2.306V49h3c2.757,0,5-2.243,5-5
		V11C48.5,8.243,46.257,6,43.5,6z M20.5,2.306C20.5,2.137,20.637,2,20.806,2h11.389C32.363,2,32.5,2.137,32.5,2.306V6h-12V2.306z
		 M38.5,50.694c0,0.169-0.137,0.306-0.306,0.306H14.806c-0.169,0-0.306-0.137-0.306-0.306V49h24V50.694z M46.5,44
		c0,1.654-1.346,3-3,3h-3h-28h-3c-1.654,0-3-1.346-3-3V11c0-1.654,1.346-3,3-3h9h16h9c1.654,0,3,1.346,3,3V44z"/>
	<path d="M36.5,38h-1v-1c0-0.553-0.447-1-1-1s-1,0.447-1,1v1h-2v-1c0-0.553-0.447-1-1-1s-1,0.447-1,1v1h-2v-1c0-0.553-0.447-1-1-1
		s-1,0.447-1,1v1h-2v-1c0-0.553-0.447-1-1-1s-1,0.447-1,1v1h-2v-1c0-0.553-0.447-1-1-1s-1,0.447-1,1v1h-1c-0.553,0-1,0.447-1,1
		s0.447,1,1,1h1v1c0,0.553,0.447,1,1,1s1-0.447,1-1v-1h2v1c0,0.553,0.447,1,1,1s1-0.447,1-1v-1h2v1c0,0.553,0.447,1,1,1s1-0.447,1-1
		v-1h2v1c0,0.553,0.447,1,1,1s1-0.447,1-1v-1h2v1c0,0.553,0.447,1,1,1s1-0.447,1-1v-1h1c0.553,0,1-0.447,1-1S37.053,38,36.5,38z"/>
</g>
<g>
</g>
<g>
</g>
<g>
</g>
<g>
</g>
<g>
</g>
<g>
</g>
<g>
</g>
<g>
</g>
<g>
</g>
<g>
</g>
<g>
</g>
<g>
</g>
<g>
</g>
<g>
</g>
<g>
</g>
</svg>
