<?xml version="1.0" encoding="iso-8859-1"?>
<!-- Generator: Adobe Illustrator 18.0.0, SVG Export Plug-In . SVG Version: 6.00 Build 0)  -->
<!DOCTYPE svg PUBLIC "-//W3C//DTD SVG 1.1//EN" "http://www.w3.org/Graphics/SVG/1.1/DTD/svg11.dtd">
<svg version="1.1" id="Capa_1" xmlns="http://www.w3.org/2000/svg" xmlns:xlink="http://www.w3.org/1999/xlink" x="0px" y="0px"
	 viewBox="0 0 44.002 44.002" style="enable-background:new 0 0 44.002 44.002;" xml:space="preserve">
<g>
	<path d="M13.001,14c1.654,0,3,1.346,3,3c0,0.553,0.448,1,1,1s1-0.447,1-1c0-2.757-2.243-5-5-5s-5,2.243-5,5c0,0.553,0.448,1,1,1
		s1-0.447,1-1C10.001,15.346,11.347,14,13.001,14z"/>
	<path d="M27.001,18c0.552,0,1-0.447,1-1c0-1.654,1.346-3,3-3s3,1.346,3,3c0,0.553,0.448,1,1,1s1-0.447,1-1c0-2.757-2.243-5-5-5
		s-5,2.243-5,5C26.001,17.553,26.449,18,27.001,18z"/>
	<path d="M44.001,22c0-12.131-9.869-22-22-22s-22,9.869-22,22s9.869,22,22,22c2.936,0,5.799-0.591,8.525-1.744l0.284,0.284
		c0.975,0.975,2.255,1.462,3.535,1.462c1.281,0,2.561-0.487,3.536-1.462l0.707-0.707c1.691-1.691,1.91-4.302,0.666-6.236
		C42.309,31.723,44.001,26.935,44.001,22z M22.001,42c-11.028,0-20-8.972-20-20s8.972-20,20-20s20,8.972,20,20
		c0,4.367-1.443,8.619-4.083,12.091l-4.476-4.475c0.362-1.142,0.559-2.356,0.559-3.616c0-0.553-0.448-1-1-1s-1,0.447-1,1
		c0,5.514-4.486,10-10,10s-10-4.486-10-10c0-0.553-0.448-1-1-1s-1,0.447-1,1c0,6.617,5.383,12,12,12
		c1.286,0,2.522-0.208,3.684-0.584l3.308,3.308C26.744,41.571,24.398,42,22.001,42z M37.174,40.419l-0.707,0.707
		c-1.171,1.17-3.074,1.169-4.243,0l-0.762-0.762c0,0,0,0,0,0l-3.75-3.75c0.821-0.448,1.565-1.008,2.267-1.624
		c0.02,0,0.039,0.01,0.059,0.009c0.504,0.302,1.675,1.371,3.486,3.184l0.116,0.115c0.195,0.195,0.451,0.293,0.707,0.293
		s0.512-0.098,0.707-0.293c0.391-0.391,0.391-1.023,0-1.414l-0.115-0.115c-0.636-0.637-1.598-1.6-2.477-2.381
		c-0.319-0.284-0.663-0.584-1.013-0.84c0.459-0.517,0.924-1.098,1.334-1.763l4.37,4.37c0.028,0.036,0.081,0.102,0.103,0.125
		c0.004,0.004,0.009,0.007,0.013,0.012C38.332,37.467,38.308,39.284,37.174,40.419z"/>
</g>
<g>
</g>
<g>
</g>
<g>
</g>
<g>
</g>
<g>
</g>
<g>
</g>
<g>
</g>
<g>
</g>
<g>
</g>
<g>
</g>
<g>
</g>
<g>
</g>
<g>
</g>
<g>
</g>
<g>
</g>
</svg>
