<?xml version="1.0" encoding="iso-8859-1"?>
<!-- Generator: Adobe Illustrator 16.0.0, SVG Export Plug-In . SVG Version: 6.00 Build 0)  -->
<!DOCTYPE svg PUBLIC "-//W3C//DTD SVG 1.1//EN" "http://www.w3.org/Graphics/SVG/1.1/DTD/svg11.dtd">
<svg version="1.1" id="Capa_1" xmlns="http://www.w3.org/2000/svg" xmlns:xlink="http://www.w3.org/1999/xlink" x="0px" y="0px"
	 width="70.096px" height="70.096px" viewBox="0 0 70.096 70.096" style="enable-background:new 0 0 70.096 70.096;"
	 xml:space="preserve">
<g>
	<path d="M5.256,32.938l-5.144,0.64C1.02,41.993,6.801,49.316,15.25,53.841v-5.133C9.573,44.779,5.834,39.201,5.256,32.938z
		 M35.046,7.933c15.868,0,28.845,9.65,29.813,21.852l5.236,0.645C69.545,15.694,54.07,3.874,35.046,3.874
		C16.033,3.874,0.558,15.687,0,30.423l5.236-0.645C6.206,17.583,19.183,7.933,35.046,7.933z M54.85,48.708v5.133
		c8.446-4.524,14.229-11.848,15.14-20.256l-5.15-0.637C64.261,39.208,60.517,44.779,54.85,48.708z M35.267,33.671v-0.018
		c12.773-2.005,21.746,6.308,21.828,6.399c0.383,0.363,0.992,0.35,1.355-0.034c0.366-0.39,0.349-0.992-0.034-1.358
		c-0.397-0.366-9.596-8.932-23.143-6.945v-0.063c12.979-5.207,24.251,2.96,24.36,3.039c0.432,0.314,1.026,0.229,1.335-0.191
		c0.314-0.425,0.219-1.02-0.199-1.338c-0.451-0.343-10.369-7.56-22.818-4.393c4.373-1.917,13.195-4.956,20.684-2.292
		c0.5,0.178,1.04-0.082,1.218-0.582c0.179-0.501-0.082-1.042-0.581-1.22c-9.438-3.354-20.342,1.398-23.868,3.171
		c0.046-0.034,0.08-0.07,0.123-0.101c0.073-0.074,7.719-7.577,17.729-7.296c0.527,0.014,0.972-0.402,0.985-0.926
		c0.014-0.525-0.403-0.97-0.934-0.977c-7.711-0.217-13.952,3.668-17.041,6.059c1.24-2.047,4.547-6.742,9.502-8.379
		c0.506-0.157,0.773-0.703,0.609-1.205c-0.172-0.501-0.705-0.775-1.205-0.604c-3.956,1.3-6.902,4.223-8.776,6.62
		c0.91-2.24,2.391-5.049,3.756-5.765c0.466-0.245,0.653-0.819,0.4-1.287c-0.243-0.472-0.817-0.65-1.283-0.402
		c-1.679,0.876-3.076,3.273-4.006,5.257v-4.076l-0.585-1.254h-0.127l-0.599,1.254v4.073c-0.919-1.983-2.32-4.38-3.999-5.256
		c-0.465-0.241-1.044-0.07-1.289,0.402c-0.243,0.474-0.057,1.049,0.405,1.29c1.371,0.712,2.849,3.525,3.758,5.761
		c-1.872-2.394-4.815-5.316-8.764-6.617c-0.505-0.171-1.049,0.106-1.213,0.607c-0.164,0.498,0.113,1.041,0.606,1.198
		c4.958,1.641,8.256,6.336,9.512,8.383c-3.092-2.394-9.335-6.276-17.052-6.056c-0.525,0-0.939,0.445-0.926,0.974
		c0.015,0.52,0.457,0.939,0.979,0.926c10.001-0.281,17.651,7.222,17.732,7.296c0.034,0.036,0.077,0.07,0.115,0.101
		c-3.518-1.773-14.413-6.524-23.849-3.164c-0.501,0.175-0.761,0.719-0.582,1.217c0.174,0.5,0.724,0.76,1.215,0.582
		c7.493-2.667,16.313,0.375,20.687,2.288c-12.451-3.164-22.379,4.057-22.824,4.393c-0.424,0.318-0.512,0.913-0.2,1.338
		c0.308,0.421,0.916,0.506,1.331,0.191c0.117-0.079,11.382-8.249,24.359-3.039v0.063c-13.54-1.986-22.742,6.572-23.139,6.945
		c-0.378,0.369-0.399,0.965-0.038,1.365c0.364,0.373,0.967,0.387,1.348,0.034c0.094-0.092,9.065-8.412,21.828-6.402v0.021
		c-11.964,0.862-18.541,9.038-18.822,9.394c-0.322,0.407-0.251,1.013,0.161,1.335c0.411,0.328,1.013,0.26,1.34-0.157
		c0.06-0.076,5.842-7.229,16.098-8.539c-7.4,2.152-12.703,10.396-12.941,10.776c-0.284,0.445-0.147,1.041,0.294,1.314
		c0.445,0.287,1.034,0.15,1.314-0.294c0.06-0.09,5.513-8.556,12.556-10.137v0.537c0,0-0.712,0.229-0.953,1.026
		c-0.238,0.805-0.953,0.647-1.99,1.681c-1.03,1.037-0.873,1.902-1.03,2.228c-0.159,0.315-2.945,0-3.498,0.315
		c-0.561,0.321,0.55,0.954,1.03,1.43c0.479,0.479,0.315,1.362,0.799,2.146c0.472,0.797,2.385,0.314,2.385,0.314
		s-0.556,14.551,0,16.782c0.484,1.934,3.145,2.307,3.831,2.378v0.014c0,0,0.027-0.006,0.08-0.006c0.057,0,0.084,0.006,0.084,0.006
		v-0.014c0.688-0.071,3.354-0.444,3.835-2.378c0.554-2.231,0-16.782,0-16.782s1.902,0.482,2.382-0.314
		c0.479-0.794,0.321-1.678,0.801-2.146c0.482-0.469,1.595-1.108,1.036-1.43c-0.554-0.315-3.34,0-3.504-0.315
		c-0.161-0.325,0-1.19-1.028-2.228c-1.04-1.04-1.756-0.883-1.993-1.681c-0.234-0.797-0.953-1.026-0.953-1.026V37.37
		c7.055,1.577,12.499,10.044,12.554,10.137c0.281,0.444,0.876,0.581,1.314,0.294c0.445-0.273,0.582-0.869,0.294-1.314
		C49.2,46.11,43.885,37.862,36.491,35.71c10.256,1.311,16.032,8.463,16.094,8.539c0.329,0.417,0.932,0.485,1.342,0.157
		c0.41-0.322,0.486-0.928,0.157-1.335C53.81,42.705,47.233,34.536,35.267,33.671z"/>
</g>
<g>
</g>
<g>
</g>
<g>
</g>
<g>
</g>
<g>
</g>
<g>
</g>
<g>
</g>
<g>
</g>
<g>
</g>
<g>
</g>
<g>
</g>
<g>
</g>
<g>
</g>
<g>
</g>
<g>
</g>
</svg>
