<?xml version="1.0" encoding="iso-8859-1"?>
<!-- Generator: Adobe Illustrator 19.0.0, SVG Export Plug-In . SVG Version: 6.00 Build 0)  -->
<svg version="1.1" id="Layer_1" xmlns="http://www.w3.org/2000/svg" xmlns:xlink="http://www.w3.org/1999/xlink" x="0px" y="0px"
	 viewBox="0 0 490 490" style="enable-background:new 0 0 490 490;" xml:space="preserve">
<g id="XMLID_953_">
	<g>
		<g>
			<path d="M115,0C51.589,0,0,51.589,0,115v260c0,63.411,51.589,115,115,115s115-51.589,115-115V115C230,51.589,178.411,0,115,0z
				 M115,460c-42.256,0-77.396-30.998-83.907-71.447C52.091,410.968,81.936,425,115,425s62.909-14.032,83.907-36.447
				C192.396,429.002,157.256,460,115,460z M115,395c-42.256,0-77.396-30.998-83.907-71.447C52.091,345.968,81.936,360,115,360
				s62.909-14.032,83.907-36.447C192.396,364.002,157.256,395,115,395z M115,330c-42.256,0-77.396-30.998-83.907-71.447
				C52.091,280.968,81.936,295,115,295s62.909-14.032,83.907-36.447C192.396,299.002,157.256,330,115,330z M115,265
				c-42.256,0-77.396-30.998-83.907-71.447C52.091,215.968,81.936,230,115,230s62.909-14.032,83.907-36.447
				C192.396,234.002,157.256,265,115,265z M115,200c-46.869,0-85-38.131-85-85s38.131-85,85-85s85,38.131,85,85S161.869,200,115,200
				z"/>
			<path d="M375,0c-63.411,0-115,51.589-115,115v260c0,63.411,51.589,115,115,115s115-51.589,115-115V115
				C490,51.589,438.411,0,375,0z M375,460c-42.256,0-77.396-30.998-83.907-71.447C312.091,410.968,341.936,425,375,425
				c33.064,0,62.909-14.032,83.907-36.447C452.396,429.002,417.256,460,375,460z M375,395c-42.256,0-77.396-30.998-83.907-71.447
				C312.091,345.968,341.936,360,375,360c33.064,0,62.909-14.032,83.907-36.447C452.396,364.002,417.256,395,375,395z M375,330
				c-42.256,0-77.396-30.998-83.907-71.447C312.091,280.968,341.936,295,375,295c33.064,0,62.909-14.032,83.907-36.447
				C452.396,299.002,417.256,330,375,330z M291.093,193.553C312.091,215.968,341.936,230,375,230
				c33.064,0,62.909-14.032,83.907-36.447C452.396,234.002,417.256,265,375,265C332.744,265,297.604,234.002,291.093,193.553z
				 M375,200c-46.869,0-85-38.131-85-85s38.131-85,85-85c46.869,0,85,38.131,85,85S421.869,200,375,200z"/>
		</g>
	</g>
</g>
<g>
</g>
<g>
</g>
<g>
</g>
<g>
</g>
<g>
</g>
<g>
</g>
<g>
</g>
<g>
</g>
<g>
</g>
<g>
</g>
<g>
</g>
<g>
</g>
<g>
</g>
<g>
</g>
<g>
</g>
</svg>
