<?xml version="1.0" encoding="iso-8859-1"?>
<!-- Generator: Adobe Illustrator 19.0.0, SVG Export Plug-In . SVG Version: 6.00 Build 0)  -->
<svg version="1.1" id="Capa_1" xmlns="http://www.w3.org/2000/svg" xmlns:xlink="http://www.w3.org/1999/xlink" x="0px" y="0px"
	 viewBox="0 0 463 463" style="enable-background:new 0 0 463 463;" xml:space="preserve">
<g>
	<path d="M415,183.5C415,82.318,332.683,0,231.5,0S48,82.318,48,183.5c0,87.624,61.74,161.088,144,179.206V416h-32.5
		c-8.547,0-15.5,6.953-15.5,15.5v16c0,8.547,6.953,15.5,15.5,15.5h144c8.547,0,15.5-6.953,15.5-15.5v-16
		c0-8.547-6.953-15.5-15.5-15.5H271v-53.294C353.26,344.588,415,271.124,415,183.5z M63,183.5C63,90.589,138.589,15,231.5,15
		S400,90.589,400,183.5S324.411,352,231.5,352S63,276.411,63,183.5z M304,431.5v16c0,0.276-0.225,0.5-0.5,0.5h-144
		c-0.275,0-0.5-0.224-0.5-0.5v-16c0-0.276,0.225-0.5,0.5-0.5h144C303.775,431,304,431.224,304,431.5z M256,416h-49v-50.64
		c8.017,1.074,16.193,1.64,24.5,1.64s16.483-0.565,24.5-1.64V416z"/>
	<path d="M383,183.5C383,99.962,315.037,32,231.5,32S80,99.962,80,183.5S147.963,335,231.5,335S383,267.038,383,183.5z M95,183.5
		C95,108.234,156.233,47,231.5,47S368,108.234,368,183.5S306.767,320,231.5,320S95,258.766,95,183.5z"/>
	<path d="M231.5,215c17.369,0,31.5-14.131,31.5-31.5c0-10.54-5.209-19.88-13.182-25.602l17.887-44.716
		c1.538-3.846-0.333-8.211-4.179-9.749c-3.843-1.539-8.211,0.331-9.749,4.178l-17.881,44.702c-1.438-0.202-2.904-0.313-4.396-0.313
		c-17.369,0-31.5,14.131-31.5,31.5S214.131,215,231.5,215z M231.5,167c9.098,0,16.5,7.402,16.5,16.5s-7.402,16.5-16.5,16.5
		s-16.5-7.402-16.5-16.5S222.402,167,231.5,167z"/>
	<path d="M164.518,127.125c1.465,1.464,3.385,2.197,5.304,2.197s3.839-0.732,5.304-2.197c2.929-2.929,2.929-7.678,0-10.606
		l-12.022-12.022c17.56-15.224,39.027-23.62,60.897-25.18V95.5c0,4.142,3.357,7.5,7.5,7.5s7.5-3.358,7.5-7.5V79.316
		c21.87,1.56,43.337,9.956,60.897,25.18l-12.022,12.022c-2.929,2.929-2.929,7.678,0,10.606c1.465,1.464,3.385,2.197,5.304,2.197
		s3.839-0.732,5.304-2.197l12.021-12.021c15.224,17.56,23.62,39.027,25.179,60.897H319.5c-4.143,0-7.5,3.358-7.5,7.5
		s3.357,7.5,7.5,7.5h16.183c-1.56,21.87-9.956,43.337-25.179,60.897l-12.021-12.021c-2.93-2.929-7.678-2.929-10.607,0
		c-2.929,2.929-2.929,7.678,0,10.606c0,0,17.401,17.4,17.518,17.517c1.465,1.464,3.384,2.197,5.304,2.197
		c1.919,0,3.839-0.732,5.304-2.197c46.592-46.593,46.592-122.405,0-168.998c-46.594-46.593-122.406-46.593-169,0
		c-46.592,46.593-46.592,122.405,0,168.998c2.929,2.929,7.677,2.93,10.607,0c0.117-0.117,17.518-17.517,17.518-17.517
		c2.929-2.929,2.929-7.678,0-10.606c-2.93-2.929-7.678-2.929-10.607,0l-12.021,12.021c-15.224-17.56-23.62-39.027-25.179-60.897
		H143.5c4.143,0,7.5-3.358,7.5-7.5s-3.357-7.5-7.5-7.5h-16.183c1.56-21.87,9.956-43.337,25.179-60.897L164.518,127.125z"/>
	<path d="M255,271.5c0-4.142-3.357-7.5-7.5-7.5h-32c-4.143,0-7.5,3.358-7.5,7.5s3.357,7.5,7.5,7.5h32
		C251.643,279,255,275.642,255,271.5z"/>
</g>
<g>
</g>
<g>
</g>
<g>
</g>
<g>
</g>
<g>
</g>
<g>
</g>
<g>
</g>
<g>
</g>
<g>
</g>
<g>
</g>
<g>
</g>
<g>
</g>
<g>
</g>
<g>
</g>
<g>
</g>
</svg>
