<?xml version="1.0" encoding="utf-8"?>
<!-- Generator: Adobe Illustrator 16.0.4, SVG Export Plug-In . SVG Version: 6.00 Build 0)  -->
<!DOCTYPE svg PUBLIC "-//W3C//DTD SVG 1.1//EN" "http://www.w3.org/Graphics/SVG/1.1/DTD/svg11.dtd">
<svg version="1.1" id="Capa_1" xmlns="http://www.w3.org/2000/svg" xmlns:xlink="http://www.w3.org/1999/xlink" x="0px" y="0px"
	 width="5.738px" height="19.675px" viewBox="0 0 5.738 19.675" enable-background="new 0 0 5.738 19.675" preserveAspectRatio="fit">
<path d="M3.836,7.279L2.875,8.238L2.868,8.237c-0.005,0-0.007,0.005-0.013,0.005L2.153,7.536l-0.19,0.193l0.709,0.707
	c0,0.111,0.089,0.2,0.197,0.2c0.11,0,0.199-0.089,0.199-0.2c0-0.001-0.002-0.003-0.002-0.005l0.961-0.96L3.836,7.279z M5.049,18.661
	v-8.442h0.163V6.775h0.057V6.509H4.89v-0.4l0,0L4.002,4.448h0.004V3.293H3.989C3.92,3.133,2.982,0.417,2.915,0.001H2.822
	C2.756,0.417,1.815,3.133,1.75,3.293h-0.02v1.154l0,0l-0.88,1.662H0.848v0.4h-0.38v0.266h0.06v3.443H0.69v8.443H0v1.014h5.738
	v-1.014H5.049z M2.868,10.139c-0.939,0-1.701-0.763-1.701-1.703c0-0.939,0.762-1.702,1.701-1.702S4.57,7.496,4.57,8.436
	S3.809,10.139,2.868,10.139z"/>
</svg>
