<?xml version="1.0" encoding="iso-8859-1"?>
<!-- Generator: Adobe Illustrator 17.1.0, SVG Export Plug-In . SVG Version: 6.00 Build 0)  -->
<!DOCTYPE svg PUBLIC "-//W3C//DTD SVG 1.1//EN" "http://www.w3.org/Graphics/SVG/1.1/DTD/svg11.dtd">
<svg version="1.1" id="Capa_1" xmlns="http://www.w3.org/2000/svg" xmlns:xlink="http://www.w3.org/1999/xlink" x="0px" y="0px"
	 viewBox="0 0 490 490" style="enable-background:new 0 0 490 490;" xml:space="preserve">
<path d="M388.344,308.818c-8.531-0.658-16.625-0.54-23.925-0.008c-0.423-4.693-1.223-9.277-2.371-13.722
	c5.327-2.304,11.304-4.504,17.77-6.276c33.438-9.156,63.221-2.416,88.523,20.035c3.687,3.271,8.712,4.069,13.046,2.515
	c1.988-0.713,3.831-1.922,5.332-3.613c4.772-5.378,4.28-13.607-1.099-18.378c-31.849-28.258-70.813-37.135-112.679-25.67
	c-6.096,1.669-11.823,3.658-17.099,5.777c26.211-18.37,53.408-55.018,27.922-76.981c12.45-10.031,21.425-30.597,21.425-53.843
	c0-25.82-9.716-49.791-27.358-67.496c-10.334-10.368-23.256-18.456-38.412-24.039c-16.727-6.162-40.134-12.445-62.801-9.239
	c-1.787,0.308-2.909,1.105-3.287,2.62c-0.379,1.516,0.131,2.913,1.667,3.859c0.028,0.017,1.167,0.784,5.484,3.072
	c16.253,8.613,61.337,36.449,61.708,52.462c0.094,4.087-4.559,7.547-12.349,0.658c-6.511-5.757-25.367-17.8-41.422-17.811
	c-1.478-0.001-2.905,0.473-3.604,1.771c-0.701,1.3-0.277,2.899,0.81,4.078c11.354,12.316,26.202,25.408,31.138,43.573
	c3.291,12.114-0.173,44.598,21.572,59.348c-11.208,11.162-18.092,30.689-20.55,48.608c-10.799-5.476-22.913-8.732-35.743-9.168
	v-15.241c0-4.706-3.815-8.521-8.521-8.521c-4.706,0-8.522,3.816-8.522,8.521v15.19h-40v-15.19c0-4.706-3.816-8.521-8.521-8.521
	c-4.706,0-8.521,3.816-8.521,8.521v15.241c-12.83,0.436-24.944,3.691-35.743,9.168c-2.458-17.918-9.343-37.446-20.551-48.608
	c21.746-14.75,18.282-47.233,21.573-59.348c4.936-18.165,19.783-31.257,31.138-43.573c1.087-1.179,1.511-2.778,0.81-4.078
	c-0.699-1.299-2.126-1.772-3.604-1.771c-16.054,0.011-34.911,12.054-41.422,17.811c-7.79,6.889-12.442,3.429-12.349-0.658
	c0.371-16.013,45.455-43.849,61.708-52.462c4.317-2.288,5.456-3.055,5.484-3.072c1.536-0.946,2.047-2.344,1.668-3.859
	c-0.379-1.515-1.501-2.313-3.288-2.62c-22.667-3.206-46.074,3.077-62.801,9.239c-15.156,5.583-28.079,13.671-38.411,24.039
	c-17.644,17.705-27.359,41.676-27.359,67.496c0,23.246,8.975,43.812,21.425,53.843c-25.486,21.963,1.711,58.611,27.921,76.981
	c-5.275-2.12-11.003-4.108-17.098-5.777c-41.866-11.465-80.83-2.588-112.679,25.669c-5.378,4.771-5.87,13-1.099,18.378
	c1.501,1.691,3.344,2.901,5.332,3.613c4.334,1.555,9.359,0.756,13.046-2.515c25.303-22.451,55.086-29.191,88.523-20.035
	c6.467,1.772,12.442,3.972,17.771,6.276c-1.148,4.444-1.948,9.028-2.371,13.721c-7.301-0.532-15.396-0.65-23.926,0.009
	c-43.278,3.339-76.96,24.847-97.402,62.196c-3.452,6.306-1.138,14.218,5.17,17.67c1.983,1.086,4.125,1.601,6.237,1.6
	c4.603,0,9.066-2.447,11.432-6.771c16.11-29.433,41.602-45.81,75.766-48.671c8.817-0.739,17.155-0.46,24.38,0.248
	c0.472,2.139,1.022,4.249,1.65,6.325c-15.128,3.024-32.722,9.816-44.601,24.739c-14.885,18.7-17.148,44.857-6.729,77.743
	c1.758,5.547,6.884,9.091,12.407,9.091c1.303-0.001,2.628-0.198,3.936-0.612c6.854-2.172,10.649-9.489,8.479-16.342
	c-7.626-24.067-6.876-42.102,2.229-53.601c8.853-11.181,24.354-15.215,36.18-16.607c15.504,22.04,41.134,36.442,70.128,36.442
	h68.168c28.979,0,54.598-14.388,70.104-36.409c11.822,1.407,27.336,5.434,36.153,16.511c9.152,11.498,9.919,29.554,2.279,53.665
	c-2.172,6.853,1.625,14.169,8.478,16.342c1.308,0.414,2.633,0.611,3.936,0.611c5.523,0,10.649-3.544,12.406-9.09
	c10.42-32.886,8.156-59.043-6.728-77.743c-11.879-14.924-29.473-21.715-44.601-24.739c0.63-2.083,1.183-4.2,1.655-6.347
	c6.977-0.677,15.015-0.95,23.574-0.291c34.564,2.668,60.325,19.065,76.566,48.737c2.365,4.323,6.826,6.771,11.431,6.771
	c2.112,0,4.255-0.516,6.239-1.602c6.307-3.451,8.621-11.362,5.169-17.669C465.305,333.664,431.623,312.157,388.344,308.818z"/>
<g>
</g>
<g>
</g>
<g>
</g>
<g>
</g>
<g>
</g>
<g>
</g>
<g>
</g>
<g>
</g>
<g>
</g>
<g>
</g>
<g>
</g>
<g>
</g>
<g>
</g>
<g>
</g>
<g>
</g>
</svg>
