<?xml version="1.0" encoding="iso-8859-1"?>
<!-- Generator: Adobe Illustrator 18.0.0, SVG Export Plug-In . SVG Version: 6.00 Build 0)  -->
<!DOCTYPE svg PUBLIC "-//W3C//DTD SVG 1.1//EN" "http://www.w3.org/Graphics/SVG/1.1/DTD/svg11.dtd">
<svg version="1.1" id="Capa_1" xmlns="http://www.w3.org/2000/svg" xmlns:xlink="http://www.w3.org/1999/xlink" x="0px" y="0px"
	 viewBox="0 0 44 44" style="enable-background:new 0 0 44 44;" xml:space="preserve">
<g>
	<path d="M33,27h-7h-4h-4h-7c-0.552,0-1,0.448-1,1c0,6.617,5.383,12,12,12s12-5.383,12-12C34,27.448,33.552,27,33,27z M23,29h2v2h-2
		V29z M21,29v3v1h-2v-4H21z M22,38c-5.176,0-9.447-3.954-9.95-9H17v5c0,0.552,0.448,1,1,1h4c0.552,0,1-0.448,1-1v-1h3
		c0.552,0,1-0.448,1-1v-3h4.95C31.447,34.046,27.176,38,22,38z"/>
	<path d="M22,0C9.869,0,0,9.869,0,22s9.869,22,22,22s22-9.869,22-22S34.131,0,22,0z M22,42C10.972,42,2,33.028,2,22S10.972,2,22,2
		s20,8.972,20,20S33.028,42,22,42z"/>
	<path d="M20,16c0-3.86-3.14-7-7-7s-7,3.14-7,7s3.14,7,7,7S20,19.86,20,16z M8.034,16.34C8.652,17.333,9.744,18,11,18
		c1.933,0,3.5-1.567,3.5-3.5c0-1.62-1.106-2.97-2.601-3.369C12.254,11.051,12.621,11,13,11c2.757,0,5,2.243,5,5s-2.243,5-5,5
		C10.36,21,8.213,18.936,8.034,16.34z"/>
	<path d="M31,9c-3.86,0-7,3.14-7,7s3.14,7,7,7s7-3.14,7-7S34.86,9,31,9z M31,21c-2.757,0-5-2.243-5-5s2.243-5,5-5
		c0.379,0,0.746,0.051,1.101,0.131C30.606,11.53,29.5,12.88,29.5,14.5c0,1.933,1.567,3.5,3.5,3.5c1.256,0,2.348-0.667,2.966-1.66
		C35.787,18.936,33.64,21,31,21z"/>
</g>
<g>
</g>
<g>
</g>
<g>
</g>
<g>
</g>
<g>
</g>
<g>
</g>
<g>
</g>
<g>
</g>
<g>
</g>
<g>
</g>
<g>
</g>
<g>
</g>
<g>
</g>
<g>
</g>
<g>
</g>
</svg>
