<?xml version="1.0" encoding="iso-8859-1"?>
<!-- Generator: Adobe Illustrator 16.0.0, SVG Export Plug-In . SVG Version: 6.00 Build 0)  -->
<!DOCTYPE svg PUBLIC "-//W3C//DTD SVG 1.1//EN" "http://www.w3.org/Graphics/SVG/1.1/DTD/svg11.dtd">
<svg version="1.1" id="Capa_1" xmlns="http://www.w3.org/2000/svg" xmlns:xlink="http://www.w3.org/1999/xlink" x="0px" y="0px"
	 width="465.785px" height="465.785px" viewBox="0 0 465.785 465.785" style="enable-background:new 0 0 465.785 465.785;"
	 xml:space="preserve">
<g>
	<g>
		<path d="M0,394.845h465.785V70.94H0V394.845z M23.55,244.462c15.028,4.938,40.735,14.828,66.265,31.37
			c-21.005,4.292-43.096,10.624-66.265,18.995V244.462z M23.55,371.293v-59.718c29.903-11.133,57.905-18.848,83.906-23.056
			c7.947,6.308,15.605,13.317,22.64,21.119c-4.302,1.535-8.76,2.901-13.573,3.867c-26.008,5.274-39.912,14.472-42.507,28.12
			c-2.044,10.765,4.157,21.279,11.649,29.667H23.55z M210.837,211.445c-0.104-0.014-10.247-2.126-14.803-9.758
			c-2.813-4.697-3.072-10.928-0.764-18.526c4.577-15.088,20.182-27.399,34.809-27.437c0.024,0,0.046,0,0.07,0
			c1.302,0,2.552,0.223,3.819,0.417l-5.003,126.737c-10.301-4.172-21.155-7.391-32.541-9.674
			c16.24-26.582,20.606-52.34,20.684-52.814l1.138-7.46L210.837,211.445z M249.356,164.24c6.256,6.149,11.485,15.466,15.296,27.792
			c2.982,9.664,5.158,18.552,6.913,26.864c-7.782,1.03-15.953,1.445-24.434,1.336L249.356,164.24z M228.289,299.721l-2.825,71.572
			h-46.328c-4.098-19.933-12.323-38.647-24.359-55.871c13.024-7.742,23.465-17.601,31.757-28.044
			C201.472,289.814,215.392,293.942,228.289,299.721z M145.121,302.879c-4.983-5.888-10.465-11.562-16.406-17.028
			c13.603-1.242,26.621-1.462,39.018-0.621C161.389,291.838,153.892,297.909,145.121,302.879z M108.744,371.293
			c-10.031-7.79-20.71-19.296-19.295-26.741c1.192-6.3,12.196-12.002,30.2-15.653c7.544-1.534,14.507-3.702,20.961-6.355
			c10.189,14.038,18.149,30.228,22.427,48.75H108.744z M241.186,371.293l2.504-63.661c32.881,19.656,49.648,47.556,57.078,63.661
			H241.186z M317.915,371.293c-6.82-17.323-26.745-56.5-73.536-81.21l2.141-54.068c1.09,0.012,2.208,0.084,3.298,0.084
			c8.571,0,16.774-0.653,24.729-1.743c0.569,3.267,1.122,6.488,1.644,9.569c5.702,34.107,9.826,58.754,49.11,80.253
			c20.222,11.061,40.816,14.812,58.985,18.105c26.285,4.777,44.956,8.235,54.581,29.019H317.915V371.293z M442.242,277.628
			c-28.902-5.018-64.159-16.823-66.399-31.679c-0.981-6.508,3.964-24.383,66.399-54.389V277.628z M442.242,174.218
			c-59.254,27.485-85.387,51.092-81.924,74.075c0.877,5.775,9.093,34.224,81.924,45.232v55.174
			c-14.091-14.334-34.224-18.069-55.15-21.876c-17.833-3.246-36.264-6.589-54.265-16.431
			c-32.589-17.833-35.634-36.031-41.169-69.068c-0.528-3.157-1.086-6.46-1.687-9.798c22.417-5.368,42.006-15.473,58.496-30.356
			c38.548-34.802,49.239-85.17,52.133-106.686h41.642V174.218z M337.864,189.597c-14.25,12.846-31.33,21.558-50.851,26.369
			c-1.847-8.766-4.171-18.211-7.361-28.557c-7.502-24.307-18.827-36.37-29.543-42.218l1.992-50.692h132.598
			C381.558,115.061,371.13,159.633,337.864,189.597z M23.55,94.492h212.835l-1.8,45.799c-1.569-0.166-3.075-0.26-4.444-0.26
			c-0.038,0-0.076,0-0.11,0c-21.381,0.052-43.246,17.003-49.786,38.583c-3.665,12.099-2.849,22.632,2.418,31.318
			c4.695,7.739,11.972,12.113,17.506,14.467c-2.404,9.535-8.307,28.174-20.608,46.144c-20.905-2.425-43.453-1.924-67.575,1.454
			c-6.665-4.98-13.721-9.782-21.273-14.303c-27.439-16.438-53.582-25.623-67.168-29.747V94.492H23.55z"/>
		<path d="M156.356,166.165c0-28.677-23.333-52.008-52.008-52.008c-28.677,0-52.008,23.332-52.008,52.008
			c0,28.675,23.331,52.009,52.008,52.009C133.023,218.174,156.356,194.84,156.356,166.165z M68.038,166.165
			c0-20.017,16.292-36.309,36.31-36.309s36.307,16.292,36.307,36.309s-16.29,36.308-36.307,36.308S68.038,186.182,68.038,166.165z"
			/>
	</g>
</g>
<g>
</g>
<g>
</g>
<g>
</g>
<g>
</g>
<g>
</g>
<g>
</g>
<g>
</g>
<g>
</g>
<g>
</g>
<g>
</g>
<g>
</g>
<g>
</g>
<g>
</g>
<g>
</g>
<g>
</g>
</svg>
