<?xml version="1.0" encoding="iso-8859-1"?>
<!-- Generator: Adobe Illustrator 18.0.0, SVG Export Plug-In . SVG Version: 6.00 Build 0)  -->
<!DOCTYPE svg PUBLIC "-//W3C//DTD SVG 1.1//EN" "http://www.w3.org/Graphics/SVG/1.1/DTD/svg11.dtd">
<svg version="1.1" id="Capa_1" xmlns="http://www.w3.org/2000/svg" xmlns:xlink="http://www.w3.org/1999/xlink" x="0px" y="0px"
	 viewBox="0 0 60.002 60.002" style="enable-background:new 0 0 60.002 60.002;" xml:space="preserve">
<g>
	<path d="M37.11,20c-1.917,0-3.764,0.509-5.341,1.471c-1.022,0.624-2.293,0.624-3.317,0C26.874,20.509,25.027,20,23.11,20
		c-5.238,0-9.5,3.813-9.5,8.5s4.262,8.5,9.5,8.5c1.917,0,3.764-0.509,5.341-1.471c1.024-0.623,2.294-0.623,3.317,0
		C33.346,36.491,35.193,37,37.11,37c5.238,0,9.5-3.813,9.5-8.5S42.348,20,37.11,20z M37.11,35c-1.549,0-3.036-0.407-4.3-1.178
		c-0.833-0.508-1.766-0.762-2.7-0.762c-0.933,0-1.867,0.254-2.7,0.762C26.146,34.593,24.659,35,23.11,35c-4.136,0-7.5-2.916-7.5-6.5
		s3.364-6.5,7.5-6.5c1.549,0,3.037,0.407,4.3,1.178c1.666,1.016,3.734,1.017,5.399,0C34.074,22.407,35.561,22,37.11,22
		c4.136,0,7.5,2.916,7.5,6.5S41.246,35,37.11,35z"/>
	<circle cx="24.61" cy="30" r="2"/>
	<circle cx="36.61" cy="29" r="3"/>
	<path d="M30.001,0c-14.612,0-26.5,11.888-26.5,26.5V51c0,2.757,2.243,5,5,5h6.55c0.046,0.022,0.096,0.04,0.142,0.062
		c3.51,1.654,7.728,2.643,12.542,2.878c0.107,0.005,0.214,0.011,0.322,0.016C28.696,58.982,29.341,59,30.001,59
		c3.48,0,6.74-0.398,9.723-1.155l0.695,0.695c0.975,0.975,2.255,1.462,3.536,1.462s2.561-0.487,3.536-1.462l0.707-0.707
		c0.535-0.535,0.908-1.165,1.15-1.833h2.154c2.757,0,5-2.243,5-5V26.5C56.501,11.888,44.613,0,30.001,0z M48.197,50.762
		l-5.146-5.146C43.412,44.474,43.61,43.26,43.61,42c0-0.553-0.448-1-1-1s-1,0.447-1,1c0,5.514-4.486,10-10,10s-10-4.486-10-10
		c0-0.553-0.448-1-1-1s-1,0.447-1,1c0,6.617,5.383,12,12,12c1.285,0,2.522-0.208,3.684-0.584l2.771,2.771
		C35.553,56.727,32.849,57,30.001,57c-0.809,0-1.59-0.031-2.364-0.072c-0.399-0.022-0.794-0.051-1.187-0.084
		c-0.276-0.022-0.547-0.05-0.818-0.078c-3.712-0.394-7.089-1.292-9.917-2.666L15.508,54h-0.089c-6.371-3.217-9.918-8.905-9.918-16.5
		c0-0.473,0.019-0.94,0.047-1.41c0.011-0.193,0.028-0.385,0.044-0.576l0.011-0.127c0.016-0.172,0.032-0.345,0.052-0.523
		c0.107-0.988,0.265-1.945,0.47-2.856l0.026,0.004l0.237-0.836C9.278,20.999,18.802,13.524,29.501,13h0.975
		c13.25,0.661,24.025,11.646,24.025,24.5c0,5.776-1.972,10.402-5.863,13.766C48.503,51.089,48.356,50.921,48.197,50.762z M8.501,54
		c-1.654,0-3-1.346-3-3v-4.226C6.885,49.651,8.96,52.083,11.649,54H8.501z M46.076,57.126c-1.17,1.169-3.073,1.17-4.243,0
		l-4.513-4.513c0.821-0.448,1.565-1.007,2.267-1.623c0.02,0,0.039,0.011,0.059,0.009c0.505,0.303,1.678,1.373,3.491,3.188
		l0.111,0.111c0.195,0.195,0.451,0.293,0.707,0.293s0.512-0.098,0.707-0.293c0.391-0.391,0.391-1.023,0-1.414l-0.11-0.11
		c-1.58-1.582-2.678-2.629-3.495-3.225c0.46-0.517,0.925-1.099,1.334-1.764l4.393,4.393c0.002,0.002,0.004,0.005,0.006,0.007
		c0.156,0.158,0.289,0.333,0.404,0.519c0.033,0.053,0.058,0.111,0.088,0.167c0.082,0.152,0.156,0.308,0.211,0.471
		c0.014,0.042,0.025,0.083,0.037,0.125c0.054,0.19,0.091,0.385,0.107,0.583c0.002,0.026,0.006,0.052,0.008,0.078
		c0.013,0.231,0.002,0.465-0.039,0.699l-0.02,0.115c-0.118,0.541-0.381,1.057-0.801,1.478L46.076,57.126z M54.501,51
		c0,1.654-1.346,3-3,3h-1.858c-0.005-0.078-0.026-0.154-0.034-0.231c-0.021-0.196-0.043-0.389-0.087-0.582
		c-0.004-0.018-0.004-0.037-0.008-0.056c2.147-1.759,3.82-3.879,4.987-6.308V51z M30.55,11.001L30.525,11l-1.073,0.001
		C18.92,11.516,9.48,18.229,5.501,27.694V26.5c0-13.51,10.991-24.5,24.5-24.5s24.5,10.99,24.5,24.5v1.196
		C50.582,18.397,41.323,11.528,30.55,11.001z"/>
</g>
<g>
</g>
<g>
</g>
<g>
</g>
<g>
</g>
<g>
</g>
<g>
</g>
<g>
</g>
<g>
</g>
<g>
</g>
<g>
</g>
<g>
</g>
<g>
</g>
<g>
</g>
<g>
</g>
<g>
</g>
</svg>
