<?xml version='1.0' encoding='iso-8859-1'?>
<svg version="1.1" xmlns="http://www.w3.org/2000/svg" viewBox="0 0 463 463" xmlns:xlink="http://www.w3.org/1999/xlink" enable-background="new 0 0 463 463">
  <path d="m444.476,153.889c-1.604-1.423-3.735-2.091-5.873-1.835-0.414,0.05-41.77,5.025-71.837,7.982-28.804,2.833-47.482,25.228-61.121,41.58-4.799,5.753-12.001,14.388-14.959,15.09-15.062-7.731-13.789-34.121 3.786-78.442 12.059-30.408 5.556-63.878-18.807-96.79-17.869-24.141-38.895-39.421-39.78-40.06-2.619-1.887-6.15-1.887-8.77,0-0.886,0.639-21.911,15.919-39.78,40.06-24.362,32.912-30.865,66.382-18.807,96.79 17.574,44.318 18.849,70.707 3.786,78.442-2.958-0.702-10.16-9.337-14.959-15.09-13.639-16.352-32.317-38.747-61.121-41.58-30.067-2.958-71.423-7.932-71.837-7.982-2.132-0.256-4.269,0.412-5.873,1.835-1.605,1.423-2.524,3.465-2.524,5.611 0,45.684 15.799,88.18 48.299,129.916 27.644,35.499 62.492,64.363 93.238,89.83 35.663,29.538 66.463,55.048 66.463,76.254 0,4.142 3.357,7.5 7.5,7.5s7.5-3.358 7.5-7.5c0-21.206 30.8-46.716 66.463-76.255 30.746-25.466 65.595-54.331 93.238-89.83 32.5-41.735 48.299-84.231 48.299-129.915 0-2.146-0.919-4.188-2.524-5.611zm-180.654-103.201c21.24,28.833 26.861,56.438 16.706,82.047-11.213,28.275-16.165,49.861-15.138,65.991 0.964,15.149 7.273,25.742 18.755,31.482 5.955,2.977 12.35,1.688 19.011-3.834 4.442-3.683 8.875-8.997 14.007-15.15 12.646-15.161 28.383-34.028 51.071-36.26 16.362-1.609 36.026-3.81 50.694-5.499l-179.928,179.928v-325.915c7.147,6.48 16.443,15.835 24.822,27.21zm-117.985,160.536c5.132,6.153 9.564,11.467 14.007,15.15 6.662,5.521 13.058,6.811 19.011,3.834 11.481-5.74 17.791-16.333 18.755-31.482 1.027-16.129-3.925-37.715-15.138-65.991-10.155-25.609-4.534-53.214 16.706-82.047 8.38-11.375 17.676-20.73 24.822-27.209v325.915l-179.928-179.929c14.668,1.689 34.332,3.89 50.694,5.499 22.688,2.232 38.425,21.099 51.071,36.26zm21.268,156.469c-56.487-46.787-125.829-104.23-135.061-189.042l191.956,191.956v49.758c-13.072-16.371-33.555-33.341-56.895-52.672zm128.79,0c-23.339,19.332-43.823,36.301-56.895,52.672v-49.758l191.956-191.956c-9.232,84.812-78.574,142.255-135.061,189.042z"/>
</svg>
