<?xml version="1.0" encoding="iso-8859-1"?>
<!-- Generator: Adobe Illustrator 16.0.0, SVG Export Plug-In . SVG Version: 6.00 Build 0)  -->
<!DOCTYPE svg PUBLIC "-//W3C//DTD SVG 1.1//EN" "http://www.w3.org/Graphics/SVG/1.1/DTD/svg11.dtd">
<svg version="1.1" id="Capa_1" xmlns="http://www.w3.org/2000/svg" xmlns:xlink="http://www.w3.org/1999/xlink" x="0px" y="0px"
	 width="305.965px" height="305.965px" viewBox="0 0 305.965 305.965" style="enable-background:new 0 0 305.965 305.965;"
	 xml:space="preserve">
<g>
	<g>
		<polygon points="283.388,225.064 9.29,225.064 9.29,264.31 0,264.31 0,277.721 292.678,277.721 292.678,264.31 283.388,264.31 		
			"/>
		<path d="M207.404,48.954c-4.106-1.968-7.218-4.433-9.549-6.84h-4.391c0,0-0.021,0-0.031,0c2.849,3.345,7.291,7.073,13.971,9.421
			V48.954z"/>
		<path d="M207.404,57.931c-10.046-2.62-15.917-8.218-19.117-12.593c-0.026,0.207-0.042,0.424-0.042,0.642v2.698
			c3.144,4.274,9,9.794,19.159,12.187V57.931L207.404,57.931z"/>
		<path d="M207.404,53.174c-7.954-2.656-12.956-7.21-15.959-11.06c-0.187,0-0.383,0-0.585,0c-0.803,0-1.512,0.546-1.983,1.38
			c2.817,4.189,8.404,10.084,18.527,12.836V53.174L207.404,53.174z"/>
		<path d="M207.404,45.979c0-2.131-1.17-3.865-2.609-3.865h-2.62h-2.123c1.926,1.81,4.35,3.591,7.353,5.11V45.979z"/>
		<path d="M207.404,62.459c-9.605-2.167-15.591-7.035-19.164-11.289v3.384c3.531,4.135,9.512,8.854,19.164,10.801V62.459z"/>
		<path d="M207.404,66.94c-9.237-1.792-15.307-6.045-19.164-10.092v3.357c3.826,3.928,9.885,8.029,19.164,9.598V66.94z"/>
		<path d="M188.245,65.55c3.718,3.819,9.533,7.807,18.377,9.461c0.482-0.643,0.782-1.437,0.782-2.312v-1.331
			c-8.953-1.462-15.089-5.186-19.164-9.004v3.187H188.245z"/>
		<path d="M192.108,76.569h1.253c-1.937-1.088-3.625-2.281-5.09-3.516C188.468,75.026,190.099,76.569,192.108,76.569z"/>
		<path d="M197.825,28.244c-0.425,0-0.771,0.345-0.771,0.771v10.066h-3.532v2.322h8.616v-2.317h-3.531V29.016
			C198.602,28.594,198.26,28.244,197.825,28.244z"/>
		<path d="M302.713,150.997c-1.797-0.787-6.1-0.622-9.61,0.378c-3.521,0.999-8.938,1.284-12.102,0.652l-5.742-1.17V66.329h-8.523
			v31.364h-11.609V85.69c0-3.415-2.775-6.193-6.193-6.193h-46.8V77.46h-8.616v2.037h-0.725c-3.418,0-8.27,1.859-11.18,3.664
			c-11.139,6.907-30.256,12.205-52.118,12.205c-20.875,0-36.094-4.852-46.269-11.289c3.008,0.106,6.02,0.182,9.036,0.182
			c44.98,0,89.123-11.48,95.979-13.342v0.062c2.2,2.017,5.007,4.005,8.569,5.6h6.727c0.533,0,1.041-0.101,1.502-0.303
			c-7.68-1.68-13.085-5.08-16.793-8.552c-0.59,0.169-57.723,16.671-110.444,13.458c-2.343-0.966-4.888-1.675-6.957-1.675H39.485
			c-3.42,0-6.193,2.778-6.193,6.193v17.81h-4.256c-1.709,0-3.097,1.391-3.097,3.092v14.333c0,1.701,1.388,3.091,3.097,3.091h4.262
			v44.907c0,3.423,2.773,6.193,6.193,6.193H70.85c3.425,0,6.193-2.771,6.193-6.193v-5.463c0-3.412,2.038-8.088,4.668-10.258
			c10.959-9.139,27.084-19.446,45.081-19.5c23.977-0.088,38.815,7.361,47.964,15.801c2.512,2.322,3.998,7.241,3.651,10.648
			l-5.738,56.535h82.457V139.11h11.609v29.823h8.523v-3.49c0,0,2.568-0.518,5.742-1.159c3.164-0.643,8.58-0.353,12.091,0.642
			s7.813,1.17,9.61,0.389c1.803-0.782,3.263-3.998,3.263-7.166C305.97,154.984,304.515,151.779,302.713,150.997z M214.86,165.438
			c-17.745,0-32.135-14.39-32.135-32.133c0-17.748,14.39-32.133,32.135-32.133c17.746,0,32.131,14.385,32.131,32.133
			C246.996,151.049,232.611,165.438,214.86,165.438z"/>
	</g>
</g>
<g>
</g>
<g>
</g>
<g>
</g>
<g>
</g>
<g>
</g>
<g>
</g>
<g>
</g>
<g>
</g>
<g>
</g>
<g>
</g>
<g>
</g>
<g>
</g>
<g>
</g>
<g>
</g>
<g>
</g>
</svg>
