<?xml version="1.0" encoding="iso-8859-1"?>
<!-- Generator: Adobe Illustrator 16.0.0, SVG Export Plug-In . SVG Version: 6.00 Build 0)  -->
<!DOCTYPE svg PUBLIC "-//W3C//DTD SVG 1.1//EN" "http://www.w3.org/Graphics/SVG/1.1/DTD/svg11.dtd">
<svg version="1.1" id="Capa_1" xmlns="http://www.w3.org/2000/svg" xmlns:xlink="http://www.w3.org/1999/xlink" x="0px" y="0px"
	 width="305.054px" height="305.054px" viewBox="0 0 305.054 305.054" style="enable-background:new 0 0 305.054 305.054;"
	 xml:space="preserve">
<g>
	<g>
		<path d="M166.21,11.703C166.21,5.238,160.085,0,152.529,0c-7.555,0-13.68,5.238-13.68,11.703c0,6.462,0,11.7,0,11.7h27.361V11.703
			z"/>
		<path d="M138.849,75.85c0,8.787-3.855,21.896-8.611,29.279l-8.021,12.461c-4.751,7.386-8.611,20.5-8.611,29.28v142.276
			c0,8.782,7.12,15.907,15.907,15.907h21.834h2.361h21.833c8.787,0,15.907-7.125,15.907-15.907V146.875
			c0-8.785-3.857-21.893-8.611-29.279l-8.021-12.461c-4.759-7.384-8.611-20.498-8.611-29.28V27.18h-27.361V75.85H138.849z
			 M180.601,158.326v85.398h-56.142v-85.398H180.601z"/>
	</g>
</g>
<g>
</g>
<g>
</g>
<g>
</g>
<g>
</g>
<g>
</g>
<g>
</g>
<g>
</g>
<g>
</g>
<g>
</g>
<g>
</g>
<g>
</g>
<g>
</g>
<g>
</g>
<g>
</g>
<g>
</g>
</svg>
