<?xml version="1.0" encoding="iso-8859-1"?>
<!-- Generator: Adobe Illustrator 19.0.0, SVG Export Plug-In . SVG Version: 6.00 Build 0)  -->
<svg version="1.1" id="Capa_1" xmlns="http://www.w3.org/2000/svg" xmlns:xlink="http://www.w3.org/1999/xlink" x="0px" y="0px"
	 viewBox="0 0 51.722 51.722" style="enable-background:new 0 0 51.722 51.722;" xml:space="preserve">
<g>
	<path d="M43.287,40.325L27.081,0.622C26.928,0.248,26.566,0.002,26.162,0c-0.002,0-0.004,0-0.006,0c-0.401,0-0.765,0.24-0.921,0.61
		L8.44,40.313c-0.131,0.309-0.098,0.663,0.087,0.942c0.185,0.28,0.498,0.448,0.833,0.448h12v9.02c0,0.266,0.106,0.521,0.294,0.708
		c0.188,0.187,0.441,0.292,0.706,0.292c0.001,0,0.002,0,0.003,0l7.072-0.02c0.551-0.001,0.997-0.449,0.997-1v-9h11.928
		c0.333,0,0.644-0.166,0.83-0.442C43.377,40.984,43.413,40.633,43.287,40.325z M23.361,49.719v-8.517v-0.5v-12h5v12.5h0.072v8.503
		L23.361,49.719z M30.361,39.703v-2.382l5.447-2.724l-0.895-1.789l-4.553,2.276v-2.764l3.447-1.724l-0.895-1.789l-2.553,1.276
		v-2.382c0-0.552-0.448-1-1-1h-7c-0.552,0-1,0.448-1,1v4.234l-3.485-2.091l-1.029,1.715l4.515,2.709v5.434H10.87L26.139,3.606
		l14.734,36.097L30.361,39.703L30.361,39.703z"/>
</g>
<g>
</g>
<g>
</g>
<g>
</g>
<g>
</g>
<g>
</g>
<g>
</g>
<g>
</g>
<g>
</g>
<g>
</g>
<g>
</g>
<g>
</g>
<g>
</g>
<g>
</g>
<g>
</g>
<g>
</g>
</svg>
