<?xml version="1.0" encoding="iso-8859-1"?>
<!-- Generator: Adobe Illustrator 18.1.1, SVG Export Plug-In . SVG Version: 6.00 Build 0)  -->
<svg version="1.1" id="Capa_1" xmlns="http://www.w3.org/2000/svg" xmlns:xlink="http://www.w3.org/1999/xlink" x="0px" y="0px"
	 viewBox="0 0 18.512 18.512" style="enable-background:new 0 0 18.512 18.512;" xml:space="preserve">
<g>
	<path d="M11.862,16.842c0.318-1.52,0.873-4.986,0.418-9.18c-0.492-4.54-2.135-7.527-3.01-7.66V0c0,0-0.008,0.001-0.011,0.002
		C9.253,0.001,9.247,0,9.247,0L9.242,0.003c-0.875,0.133-2.518,3.12-3.01,7.66c-0.454,4.195,0.1,7.66,0.42,9.181H5.425v1.668h7.662
		v-1.668h-1.225V16.842z M11.737,11.545c0.08-0.189,0.152-0.369,0.222-0.527c-0.003,0.359-0.007,0.713-0.022,1.049
		C11.88,11.906,11.81,11.731,11.737,11.545z M8.172,6.684c0.22,0.36,0.514,0.854,0.836,1.409c-0.321,0.743-0.653,1.544-0.963,2.36
		c-0.298-0.552-0.56-1.074-0.768-1.555C7.556,8.091,7.863,7.347,8.172,6.684z M8.719,5.581C9.098,4.871,9.446,4.3,9.724,3.876
		c0.177,0.317,0.397,0.722,0.673,1.213C10.18,5.531,9.846,6.222,9.466,7.061C9.178,6.531,8.929,6.031,8.719,5.581z M9.218,8.453
		c0.278,0.479,0.567,0.985,0.841,1.473c-0.325,0.73-0.663,1.529-0.976,2.346c-0.294-0.49-0.57-0.971-0.827-1.432
		C8.561,10.024,8.894,9.209,9.218,8.453z M10.263,10.289c0.278,0.506,0.532,0.975,0.72,1.344c0.067,0.135,0.127,0.271,0.188,0.41
		c-0.287,0.693-0.608,1.482-0.909,2.26c-0.249-0.455-0.521-0.938-0.817-1.426c-0.05-0.08-0.096-0.16-0.145-0.242
		C9.606,11.828,9.94,11.028,10.263,10.289z M10.697,9.32c0.354-0.774,0.672-1.435,0.896-1.888c0.088,0.221,0.166,0.437,0.23,0.633
		c0.072,0.746,0.104,1.456,0.121,2.144c-0.09,0.207-0.227,0.523-0.389,0.91C11.334,10.604,11.05,10.006,10.697,9.32z M11.426,7.032
		c-0.206,0.405-0.539,1.084-0.923,1.915c-0.238-0.447-0.501-0.93-0.796-1.45C9.694,7.472,9.681,7.45,9.668,7.425
		c0.361-0.81,0.691-1.503,0.923-1.984c0.133,0.239,0.272,0.489,0.424,0.763C11.173,6.484,11.305,6.762,11.426,7.032z M8.317,2.623
		l0.262,0.686L9.036,2.54c0,0,0.117,0.328,0.279,0.604C9.36,3.22,9.438,3.36,9.544,3.551c-0.265,0.4-0.616,0.962-0.995,1.658
		C8.075,4.151,7.842,3.457,7.842,3.457L8.317,2.623z M7.388,4.234c0.071,0.548,0.235,1.423,0.587,2.105
		c-0.302,0.63-0.604,1.333-0.883,2.1C6.991,8.177,6.904,7.923,6.844,7.691C6.813,7.569,6.786,7.459,6.763,7.358
		C6.899,6.265,7.113,5.204,7.388,4.234z M6.698,9.629c-0.042,0.139-0.084,0.278-0.124,0.418c0.006-0.24,0.005-0.472,0.019-0.72
		C6.621,9.424,6.661,9.526,6.698,9.629z M6.631,13.078c-0.036-0.496-0.055-1.033-0.068-1.588c0.1-0.477,0.211-0.943,0.335-1.391
		c0.017,0.031,0.028,0.062,0.044,0.098c0.12,0.23,0.385,0.752,0.704,1.359c-0.284,0.822-0.527,1.633-0.691,2.369
		C6.841,13.631,6.73,13.338,6.631,13.078z M7.176,14.494c0.137-0.762,0.381-1.635,0.684-2.537c0.259,0.484,0.54,0.99,0.811,1.438
		c-0.33,0.941-0.6,1.861-0.764,2.689c-0.093-0.16-0.188-0.318-0.261-0.477C7.522,15.346,7.355,14.938,7.176,14.494z M8.164,16.498
		c0.133-0.818,0.399-1.766,0.73-2.742c0.016,0.021,0.03,0.049,0.043,0.07c0.295,0.455,0.62,1.031,0.909,1.568
		c-0.196,0.537-0.366,1.033-0.493,1.447H8.392C8.317,16.735,8.24,16.614,8.164,16.498z M9.699,16.842
		c0.097-0.312,0.218-0.668,0.356-1.053c0.246,0.467,0.446,0.863,0.539,1.053H9.699z M11.416,16.567
		c-0.176-0.373-0.512-1.061-0.949-1.883c0.287-0.744,0.598-1.516,0.884-2.213c0.194,0.498,0.353,0.988,0.464,1.379
		C11.703,14.996,11.545,15.928,11.416,16.567z"/>
</g>
<g>
</g>
<g>
</g>
<g>
</g>
<g>
</g>
<g>
</g>
<g>
</g>
<g>
</g>
<g>
</g>
<g>
</g>
<g>
</g>
<g>
</g>
<g>
</g>
<g>
</g>
<g>
</g>
<g>
</g>
</svg>
