<?xml version="1.0" encoding="iso-8859-1"?>
<!-- Generator: Adobe Illustrator 19.0.0, SVG Export Plug-In . SVG Version: 6.00 Build 0)  -->
<svg version="1.1" id="Capa_1" xmlns="http://www.w3.org/2000/svg" xmlns:xlink="http://www.w3.org/1999/xlink" x="0px" y="0px"
	 viewBox="0 0 463 463" style="enable-background:new 0 0 463 463;" xml:space="preserve">
<g>
	<path d="M423.5,316H423v-24.5c0-4.143-3.358-7.5-7.5-7.5H407v-54.396c0-13.989-9.395-26.444-22.847-30.289L359,192.129v-11.531
		c5.054-4.43,8-10.831,8-17.66V139h8.5c4.142,0,7.5-3.357,7.5-7.5s-3.358-7.5-7.5-7.5H375v-0.5c0-23.639-17.36-43.295-40-46.902
		V75.5c0-4.143-3.358-7.5-7.5-7.5s-7.5,3.357-7.5,7.5v1.098c-22.64,3.607-40,23.263-40,46.902v0.5h-0.5c-4.142,0-7.5,3.357-7.5,7.5
		s3.358,7.5,7.5,7.5h8.5v23.937c0,6.829,2.945,13.23,8,17.659v11.532l-25.155,7.187C257.395,203.159,248,215.614,248,229.604V316h-9
		v-40.5c0-4.143-3.358-7.5-7.5-7.5H215v-38.396c0-13.989-9.395-26.444-22.847-30.289L167,192.129v-11.531
		c5.054-4.43,8-10.831,8-17.66V139h8.5c4.142,0,7.5-3.357,7.5-7.5s-3.358-7.5-7.5-7.5H183v-0.5c0-23.639-17.36-43.295-40-46.902
		V75.5c0-4.143-3.358-7.5-7.5-7.5s-7.5,3.357-7.5,7.5v1.098c-22.64,3.607-40,23.263-40,46.902v0.5h-0.5c-4.142,0-7.5,3.357-7.5,7.5
		s3.358,7.5,7.5,7.5H96v23.937c0,6.829,2.945,13.23,8,17.659v11.532l-25.155,7.187C65.395,203.159,56,215.614,56,229.604V316H39.5
		C17.72,316,0,333.72,0,355.5S17.72,395,39.5,395h384c21.78,0,39.5-17.72,39.5-39.5S445.28,316,423.5,316z M408,316h-81v-17h81V316z
		 M295,316v-72.5c0-0.275,0.224-0.5,0.5-0.5h64c0.276,0,0.5,0.225,0.5,0.5V284h-40.5c-4.142,0-7.5,3.357-7.5,7.5V316H295z
		 M311.312,191.055c3.873,2.581,8.38,3.945,13.035,3.945h6.312c4.654,0,9.162-1.365,13.037-3.947l0.306-0.204v6.955
		c0,0.072-0.002,0.145,0,0.216v1.983c-1.424,1.289-6.962,3.997-16.5,3.997s-15.076-2.708-16.5-3.997v-9.156L311.312,191.055z
		 M303,228v-15.215c5.588,3.898,14.175,6.215,24.5,6.215s18.912-2.317,24.5-6.215V228H303z M392,229.604V284h-17v-40.5
		c0-5.827-3.235-10.908-8-13.555v-19.931l13.033,3.723C387.079,215.751,392,222.275,392,229.604z M360,123.5v0.5h-0.5H335V91.883
		C349.315,95.279,360,108.161,360,123.5z M295,123.5c0-15.339,10.685-28.221,25-31.617V124h-24.5H295V123.5z M352,139v23.938
		c0,2.848-1.415,5.492-3.785,7.072l-12.841,8.562c-1.402,0.935-3.033,1.429-4.716,1.429h-6.312c-1.684,0-3.314-0.493-4.715-1.427
		l-12.846-8.563c-2.371-1.58-3.786-4.225-3.786-7.073V139H352z M263,229.604c0-7.328,4.921-13.853,11.967-15.866L288,210.013v19.932
		c-4.765,2.647-8,7.728-8,13.555V316h-17V229.604z M224,316h-81v-33h81V316z M103,316v-72.5c0-0.275,0.224-0.5,0.5-0.5h64
		c0.276,0,0.5,0.225,0.5,0.5V268h-32.5c-4.142,0-7.5,3.357-7.5,7.5V316H103z M119.312,191.055c3.873,2.581,8.38,3.945,13.035,3.945
		h6.312c4.654,0,9.162-1.365,13.037-3.947l0.306-0.204v6.955c0,0.072-0.002,0.145,0,0.216v1.983
		c-1.424,1.289-6.962,3.997-16.5,3.997s-15.076-2.708-16.5-3.997v-9.156L119.312,191.055z M111,228v-15.215
		c5.588,3.898,14.175,6.215,24.5,6.215s18.912-2.317,24.5-6.215V228H111z M200,229.604V268h-17v-24.5c0-5.827-3.235-10.908-8-13.555
		v-19.931l13.033,3.723C195.079,215.751,200,222.275,200,229.604z M168,123.5v0.5h-0.5H143V91.883
		C157.315,95.279,168,108.161,168,123.5z M103,123.5c0-15.339,10.685-28.221,25-31.617V124h-24.5H103V123.5z M160,139v23.938
		c0,2.848-1.415,5.492-3.785,7.072l-12.841,8.562c-1.402,0.935-3.033,1.429-4.716,1.429h-6.312c-1.684,0-3.314-0.493-4.715-1.427
		l-12.846-8.563c-2.371-1.58-3.786-4.225-3.786-7.073V139H160z M71,229.604c0-7.328,4.921-13.853,11.967-15.866L96,210.013v19.932
		c-4.765,2.647-8,7.728-8,13.555V316H71V229.604z M423.5,380h-384C25.991,380,15,369.01,15,355.5S25.991,331,39.5,331h384
		c13.509,0,24.5,10.99,24.5,24.5S437.009,380,423.5,380z"/>
	<path d="M231.5,341c-7.995,0-14.5,6.505-14.5,14.5s6.505,14.5,14.5,14.5s14.5-6.505,14.5-14.5S239.495,341,231.5,341z"/>
	<path d="M183.5,341c-7.995,0-14.5,6.505-14.5,14.5s6.505,14.5,14.5,14.5s14.5-6.505,14.5-14.5S191.495,341,183.5,341z"/>
	<path d="M135.5,341c-7.995,0-14.5,6.505-14.5,14.5s6.505,14.5,14.5,14.5s14.5-6.505,14.5-14.5S143.495,341,135.5,341z"/>
	<path d="M39.5,341c-7.995,0-14.5,6.505-14.5,14.5S31.505,370,39.5,370S54,363.495,54,355.5S47.495,341,39.5,341z"/>
	<path d="M87.5,341c-7.995,0-14.5,6.505-14.5,14.5S79.505,370,87.5,370s14.5-6.505,14.5-14.5S95.495,341,87.5,341z"/>
	<path d="M423.5,341c-7.995,0-14.5,6.505-14.5,14.5s6.505,14.5,14.5,14.5s14.5-6.505,14.5-14.5S431.495,341,423.5,341z"/>
	<path d="M375.5,341c-7.995,0-14.5,6.505-14.5,14.5s6.505,14.5,14.5,14.5s14.5-6.505,14.5-14.5S383.495,341,375.5,341z"/>
	<path d="M279.5,341c-7.995,0-14.5,6.505-14.5,14.5s6.505,14.5,14.5,14.5s14.5-6.505,14.5-14.5S287.495,341,279.5,341z"/>
	<path d="M327.5,341c-7.995,0-14.5,6.505-14.5,14.5s6.505,14.5,14.5,14.5s14.5-6.505,14.5-14.5S335.495,341,327.5,341z"/>
</g>
<g>
</g>
<g>
</g>
<g>
</g>
<g>
</g>
<g>
</g>
<g>
</g>
<g>
</g>
<g>
</g>
<g>
</g>
<g>
</g>
<g>
</g>
<g>
</g>
<g>
</g>
<g>
</g>
<g>
</g>
</svg>
