<?xml version="1.0" encoding="iso-8859-1"?>
<!-- Generator: Adobe Illustrator 18.0.0, SVG Export Plug-In . SVG Version: 6.00 Build 0)  -->
<!DOCTYPE svg PUBLIC "-//W3C//DTD SVG 1.1//EN" "http://www.w3.org/Graphics/SVG/1.1/DTD/svg11.dtd">
<svg version="1.1" id="Capa_1" xmlns="http://www.w3.org/2000/svg" xmlns:xlink="http://www.w3.org/1999/xlink" x="0px" y="0px"
	 viewBox="0 0 485.51 485.51" style="enable-background:new 0 0 485.51 485.51;" xml:space="preserve">
<g>
	<path d="M235.823,142.502c9.959-10.408,0.957-0.15,26.336-29.058c-6.303-9.258-14.149-9.457-21.402-10.544
		c-33.371,40.14-44.76,48.447-62.35,63.857c-7.809,6.176-16.404,11.8-24.656,17.81c-15.115,11.857-78.241,42.371-147.971,77.184
		c-3.865,1.939-5.514,6.622-3.676,10.558c1.885,4.01,6.646,5.73,10.652,3.851c117.124-54.977,140.287-64.218,178.551-93.047
		C230.622,150.152,212.227,165.946,235.823,142.502z"/>
	<path d="M279.286,150.58c-5.609-6.205-9.602-13.623-11.723-21.81c-27.213,32.061-34.727,39.811-63.92,63.688
		c-7.291,6.357-15.857,11.234-23.807,16.968c-38.922,26.383-21.35,14.161-48.992,35.309c-31.416,26.547-49.832,48.616-63.451,63.167
		c-5.955,6.52-9.363,10.246-9.363,10.246c-3.035,3.331-2.893,8.516,0.393,11.648c3.33,3.192,8.611,3.072,11.799-0.258
		c0,0,3.486-3.646,9.586-10.023c15.766-16.093,42.83-47.341,85.777-76.628C211.684,213.181,234.606,200.58,279.286,150.58z"/>
	<path d="M291.354,274.465c14.451-14.977,28.578-35.007,38.949-49.122c-6.189-4.735-12.254-10.913-15.771-17.85
		c-4.681,11.316-29.457,45.527-36.832,53.247c-45.889,48.031-79.279,66.383-90.586,87.575c-7.063,13.239-8.35,22.351-18.891,70.915
		c-0.707,3.239,1.275,6.48,4.51,7.305c3.303,0.857,6.68-1.136,7.529-4.445c17.511-68.029,22.473-73.42,35.309-83.735
		C285.884,281.846,281.349,284.835,291.354,274.465z"/>
	<path d="M239.535,243.431c5.572-14.975,69.007-57.666,69.433-57.981c-0.449-5.985-4.131-17.318-10.699-20.882
		c-49.34,39.082-71.825,56.216-77.184,70.827c-14.487,39.5-4.19,53.147-105.293,99.927c-3.477,1.848-4.889,6.137-3.143,9.694
		c1.773,3.639,6.158,5.146,9.803,3.363C225.852,305.203,227.737,275.136,239.535,243.431z"/>
	<path d="M448.815,35.348C426.174,12.713,395.485,0,363.477,0c-32.006,0.007-62.695,12.721-85.324,35.348l-40.068,40.069
		c-3.875,3.874-1.688,10.558,3.756,11.375l8.063,1.21c16.734,2.506,29.791,15.782,32.023,32.559c0.299,1,1.908,19.843,21.354,28.354
		c13.435,5.882,21.982,19.318,21.59,33.985c-0.457,17.531,11.736,32.842,28.897,36.307l8.861,1.791
		c25.72,5.189,27.853,29.876,37.068,30.718c2.096,0.18,4-0.582,5.359-1.933l43.76-43.775
		C495.938,158.886,495.938,82.478,448.815,35.348z M450.575,113.402c-0.361,0.049-0.723,0.071-1.084,0.071
		c-3.959,0-7.414-2.938-7.967-6.983c-0.188-1.384-0.611-2.687-0.877-4.053c-2.783-14.653-9.588-27.993-20.256-38.657
		c-27.986-27.993-72.799-28.697-101.98-2.662c-1.068,0.941-2.244,1.649-3.268,2.662c-3.143,3.143-8.232,3.143-11.375,0
		c-3.143-3.143-3.143-8.233,0-11.376c35.291-35.277,92.707-35.291,127.998,0c14.176,14.165,23.066,32.134,25.725,51.965
		C458.071,108.769,454.973,112.814,450.575,113.402z"/>
	<path d="M354.941,233.481c-0.297,0.187-54.054,42.747-80.253,94.595c-21.504,42.556-39.479,120.227-45.23,146.7
		c-0.514,2.362-0.027,4.831,1.34,6.823c1.369,1.993,3.5,3.338,5.889,3.706l0.662,0.102c4.547,0.7,8.846-2.23,9.867-6.716
		c5.555-24.388,23.822-99.27,48.705-146.752c30.061-57.363,79.703-84.391,79.703-84.391S365.192,235.437,354.941,233.481z"/>
</g>
<g>
</g>
<g>
</g>
<g>
</g>
<g>
</g>
<g>
</g>
<g>
</g>
<g>
</g>
<g>
</g>
<g>
</g>
<g>
</g>
<g>
</g>
<g>
</g>
<g>
</g>
<g>
</g>
<g>
</g>
</svg>
