<?xml version="1.0" encoding="iso-8859-1"?>
<!-- Generator: Adobe Illustrator 18.0.0, SVG Export Plug-In . SVG Version: 6.00 Build 0)  -->
<!DOCTYPE svg PUBLIC "-//W3C//DTD SVG 1.1//EN" "http://www.w3.org/Graphics/SVG/1.1/DTD/svg11.dtd">
<svg version="1.1" id="Capa_1" xmlns="http://www.w3.org/2000/svg" xmlns:xlink="http://www.w3.org/1999/xlink" x="0px" y="0px"
	 viewBox="0 0 480 480" style="enable-background:new 0 0 480 480;" xml:space="preserve">
<path d="M389.447,95.303c-4.561-33.77-13.594-56.322-13.976-57.265l-2.53-6.245H204.337V0h-83.708v31.793H88.035v163.742h32.595V480
	h114.821v-10c0-17.708-5.289-30.759-11.413-45.872c-8.777-21.66-19.701-48.616-19.701-104.052V195.535h53.708
	c67.384,0,101.195,28.967,101.495,29.229l10.595,9.467l5.335-13.168C394.663,173.695,393.664,126.529,389.447,95.303z M140.629,20
	h43.708v11.793h-43.708V20z M205.502,431.64c4.153,10.248,7.654,18.887,9.159,28.36h-74.031V195.535h43.708v124.541
	C184.337,379.411,196.57,409.598,205.502,431.64z M361.319,201.616c-16.512-10.168-50.746-26.081-103.273-26.081H108.035V51.793
	h251.104C365.662,71.658,383.066,135.848,361.319,201.616z"/>
<g>
</g>
<g>
</g>
<g>
</g>
<g>
</g>
<g>
</g>
<g>
</g>
<g>
</g>
<g>
</g>
<g>
</g>
<g>
</g>
<g>
</g>
<g>
</g>
<g>
</g>
<g>
</g>
<g>
</g>
</svg>
