<?xml version="1.0" encoding="iso-8859-1"?>
<!-- Generator: Adobe Illustrator 18.0.0, SVG Export Plug-In . SVG Version: 6.00 Build 0)  -->
<!DOCTYPE svg PUBLIC "-//W3C//DTD SVG 1.1//EN" "http://www.w3.org/Graphics/SVG/1.1/DTD/svg11.dtd">
<svg version="1.1" id="Capa_1" xmlns="http://www.w3.org/2000/svg" xmlns:xlink="http://www.w3.org/1999/xlink" x="0px" y="0px"
	 viewBox="0 0 49 49" style="enable-background:new 0 0 49 49;" xml:space="preserve">
<g>
	<path d="M45.888,19.976c-0.055-0.273-0.133-0.534-0.197-0.802c-0.065-0.271-0.124-0.544-0.199-0.81
		c-0.115-0.412-0.25-0.814-0.387-1.214c-0.066-0.192-0.125-0.388-0.196-0.577c-0.176-0.471-0.374-0.929-0.579-1.382
		c-0.052-0.114-0.098-0.232-0.151-0.344c-0.227-0.478-0.476-0.941-0.736-1.397c-0.053-0.093-0.1-0.189-0.154-0.281
		c-0.228-0.386-0.474-0.757-0.724-1.125c-0.114-0.169-0.221-0.344-0.339-0.509c-0.133-0.184-0.277-0.358-0.415-0.537
		C37.766,5.69,31.407,2.337,24.342,2.337c-8.3,0-15.628,4.782-19.259,11.978c-0.061,0.119-0.126,0.234-0.184,0.354
		c-0.166,0.344-0.313,0.698-0.462,1.052c-0.107,0.252-0.218,0.501-0.315,0.759c-0.111,0.295-0.206,0.597-0.305,0.899
		c-0.104,0.315-0.211,0.629-0.301,0.952c-0.083,0.295-0.149,0.597-0.22,0.898c-0.059,0.25-0.133,0.494-0.184,0.748
		C1.306,20.955,0,23.084,0,25.163c0,2.153,1.268,4.089,3.208,4.979C5.704,39.896,14.385,46.663,24.5,46.663
		c10.116,0,18.797-6.767,21.292-16.521c1.94-0.89,3.208-2.825,3.208-4.979C49,23.084,47.694,20.955,45.888,19.976z M5.286,19.48
		c0.067-0.27,0.139-0.536,0.216-0.801c0.089-0.306,0.184-0.609,0.287-0.907c0.078-0.228,0.161-0.455,0.246-0.679
		c0.135-0.351,0.278-0.697,0.432-1.036c0.064-0.142,0.128-0.283,0.195-0.423C9.868,8.98,16.603,4.663,24.5,4.663
		c6.668,0,12.505,3.08,16.093,8.041c0.12,0.168,0.236,0.34,0.351,0.513c0.174,0.257,0.343,0.518,0.504,0.785
		c0.159,0.264,0.31,0.533,0.456,0.805c0.113,0.209,0.226,0.418,0.332,0.632c0.15,0.303,0.29,0.613,0.425,0.925
		c0.092,0.214,0.184,0.428,0.269,0.646c0.119,0.305,0.228,0.615,0.333,0.927c0.083,0.249,0.164,0.499,0.238,0.753
		c0.085,0.29,0.161,0.584,0.233,0.88c0.037,0.154,0.07,0.311,0.104,0.467c-4.082,1.317-7.131-1.614-9.008-4.408
		c-0.339-0.505-0.878-0.849-1.479-0.94c-0.616-0.094-1.245,0.076-1.733,0.468c-9.308,7.437-22.771,5.459-26.424,4.742
		C5.225,19.759,5.252,19.617,5.286,19.48z M44.62,28.458c-0.327,0.111-0.574,0.384-0.652,0.721
		C41.861,38.295,33.855,44.663,24.5,44.663c-9.354,0-17.36-6.367-19.468-15.483c-0.078-0.337-0.324-0.609-0.652-0.721
		C2.957,27.974,2,26.649,2,25.163c0-1.354,0.932-2.83,2.12-3.443c1.151,0.264,4.777,1.002,9.406,1.002
		c5.856,0,13.306-1.183,19.34-6.004c0.073-0.058,0.146-0.058,0.181-0.053c0.078,0.012,0.111,0.063,0.123,0.079
		c3.301,4.917,7.47,6.675,11.78,5.011c1.154,0.635,2.05,2.08,2.05,3.408C47,26.649,46.044,27.974,44.62,28.458z"/>
	<path d="M33,33.663H17.011c-0.552,0-1,0.467-1,1.02c0,2.865,1.596,5.569,3.972,6.729c1.704,0.831,3.391,1.252,5.017,1.252
		c1.624,0,3.313-0.42,5.02-1.249c2.389-1.16,3.988-3.875,3.98-6.754C33.999,34.109,33.551,33.663,33,33.663z M20.86,39.614
		c-0.055-0.027-0.105-0.063-0.159-0.092c0.5-0.395,1.863-0.859,4.306-0.859c2.438,0,3.802,0.461,4.306,0.855
		c-0.057,0.031-0.11,0.069-0.167,0.097C26.281,41.005,23.715,41.006,20.86,39.614z M30.816,38.195
		c-0.992-0.983-2.976-1.532-5.809-1.532c-2.835,0-4.819,0.551-5.809,1.536c-0.547-0.723-0.939-1.601-1.101-2.536h13.818
		C31.753,36.597,31.362,37.473,30.816,38.195z"/>
	<path d="M16.379,30.663c0-2.072,1.686-3.759,3.758-3.759c0.404,0,0.769-0.244,0.924-0.617c0.155-0.374,0.069-0.804-0.217-1.09
		c-2.238-2.238-6.313-2.238-8.552,0c-0.391,0.391-0.391,1.023,0,1.414s1.023,0.391,1.414,0c0.933-0.933,2.39-1.273,3.711-1.023
		c-1.808,0.973-3.039,2.883-3.039,5.075c0,0.553,0.448,1,1,1S16.379,31.215,16.379,30.663z"/>
	<path d="M29.293,25.197c-0.286,0.286-0.372,0.716-0.217,1.09c0.155,0.373,0.52,0.617,0.924,0.617c2.073,0,3.759,1.687,3.759,3.759
		c0,0.553,0.448,1,1,1s1-0.447,1-1c0-2.192-1.231-4.103-3.039-5.075c1.318-0.251,2.778,0.091,3.711,1.023
		c0.391,0.391,1.023,0.391,1.414,0s0.391-1.023,0-1.414C35.606,22.958,31.531,22.958,29.293,25.197z"/>
</g>
<g>
</g>
<g>
</g>
<g>
</g>
<g>
</g>
<g>
</g>
<g>
</g>
<g>
</g>
<g>
</g>
<g>
</g>
<g>
</g>
<g>
</g>
<g>
</g>
<g>
</g>
<g>
</g>
<g>
</g>
</svg>
