<?xml version="1.0" encoding="iso-8859-1"?>
<!-- Generator: Adobe Illustrator 18.1.1, SVG Export Plug-In . SVG Version: 6.00 Build 0)  -->
<svg version="1.1" id="Capa_1" xmlns="http://www.w3.org/2000/svg" xmlns:xlink="http://www.w3.org/1999/xlink" x="0px" y="0px"
	 viewBox="0 0 58.33 58.33" style="enable-background:new 0 0 58.33 58.33;" xml:space="preserve">
<g>
	<g>
		<path style="fill:#030104;" d="M35.647,26.538c-1.535-0.905-4.147-2.099-7.285-2.129c-0.048-0.002-0.096-0.002-0.143-0.002
			c-2.769,0-4.762,0.802-5.985,1.512c-0.479,0.277-0.814,0.995-0.754,1.544c0.629,5.748,3.741,7.299,7.491,7.299
			c3.61,0,6.625-1.449,7.405-6.695C36.457,27.52,36.123,26.818,35.647,26.538z M27.756,30.606c-0.042,0.013-0.082,0.019-0.124,0.019
			c-0.481,0-0.841-0.856-1.062-1.575c-0.241-0.802-0.418-1.79,0.117-1.953c0.038-0.012,0.081-0.017,0.121-0.017
			c0.481,0,0.841,0.856,1.06,1.575C28.112,29.456,28.291,30.444,27.756,30.606z M31.348,28.902c-0.201,0.73-0.541,1.603-1.027,1.603
			c-0.037,0-0.074-0.006-0.111-0.015c-0.54-0.148-0.389-1.141-0.167-1.946c0.202-0.733,0.543-1.604,1.028-1.604
			c0.038,0,0.076,0.004,0.111,0.014C31.721,27.103,31.571,28.094,31.348,28.902z"/>
		<path style="fill:#030104;" d="M43.565,8.721c-2.666-1.587-5.645,0.164-7.893,1.055c-2.248,0.894-2.658,0.355-2.658,0.355
			s-0.948-1.173-1.572-1.792c0.404-0.75,0.848-1.542,1.339-2.38c0.614-1.05,1.114-1.899,1.088-1.913
			c-0.026-0.014,0.556,0.101,1.183-0.207c0.369-0.182,0.684-0.476,0.891-0.866c0.525-0.989,0.148-2.213-0.84-2.737
			c-0.987-0.524-2.215-0.147-2.737,0.84c-0.206,0.391-0.272,0.815-0.218,1.223c0.097,0.691,0.517,1.108,0.486,1.092
			c-0.029-0.017-0.468,0.866-1.013,1.954c-0.319,0.642-0.712,1.402-1.155,2.227c-0.482-0.286-0.982-0.443-1.494-0.443
			c-0.647,0-1.274,0.248-1.873,0.693c-0.5-0.92-0.938-1.769-1.291-2.477c-0.545-1.088-0.982-1.971-1.013-1.954
			c-0.03,0.017,0.391-0.4,0.485-1.092c0.057-0.407-0.01-0.832-0.217-1.223c-0.522-0.987-1.749-1.364-2.736-0.84
			c-0.989,0.524-1.365,1.748-0.84,2.737c0.207,0.391,0.522,0.685,0.89,0.866c0.627,0.308,1.21,0.193,1.183,0.207
			s0.473,0.863,1.088,1.913c0.567,0.968,1.073,1.876,1.524,2.726c-0.393,0.445-0.768,0.973-1.127,1.567l0.034-0.121
			c0,0-0.409,0.538-2.657-0.355c-2.248-0.892-5.227-2.643-7.893-1.054c-2.323,1.386-4.867,2.484-5.88,4.486
			c-0.249,0.493-0.035,1.276,0.434,1.567c0.434,0.269,1.049,0.545,1.845,0.651c1.745,0.233,2.847,1.479,4.591,1.712
			s4.68-0.22,5.538-0.95c0.676-0.574,1.434-1.765,2.309-2.292c-1.013,2.813-1.699,6.132-1.921,9.212
			c-0.039,0.551,0.333,0.777,0.835,0.547c1.452-0.667,3.434-1.249,5.941-1.249c0.055,0,0.107,0,0.162,0.001
			c2.997,0.029,5.535,0.957,7.31,1.864c0.491,0.252,0.87,0.032,0.843-0.52c-0.168-3.293-0.893-6.927-1.997-9.959
			c0.956,0.456,1.774,1.779,2.499,2.396c0.859,0.73,3.794,1.183,5.538,0.95c1.744-0.233,2.847-1.479,4.591-1.712
			s2.619-1.28,2.619-1.28C49.18,11.521,46.229,10.309,43.565,8.721z M26.629,16.158c-0.414,0-0.75-0.336-0.75-0.75
			s0.336-0.75,0.75-0.75s0.75,0.336,0.75,0.75S27.043,16.158,26.629,16.158z M31.046,16.158c-0.414,0-0.75-0.336-0.75-0.75
			s0.336-0.75,0.75-0.75s0.75,0.336,0.75,0.75S31.46,16.158,31.046,16.158z"/>
		<path style="fill:#030104;" d="M30.775,36.219c-1.739,0.357-3.34,0.18-4.312-0.011c-0.542-0.106-0.92,0.203-0.907,0.756
			c0.033,1.388-0.016,3.877-0.1,6.666c-0.001,0.03,0.004,0.058,0.011,0.086c0.011,0.048,0,0.532-0.022,1.084
			c-0.089,2.147-0.218,5.353-0.316,8.073c-0.003,0.023-0.071,2.891-0.108,4.458c-0.013,0.553,0.424,0.999,0.977,0.999h4.707
			c0.554,0,0.999-0.113,0.998-0.252l-0.002-0.252c-0.019-2.191-0.007-15.021-0.002-19.469c0.001-0.553,0.006-1.024,0.015-1.055
			c0.006-0.018,0.01-0.035,0.01-0.054c0.002-0.101,0.004-0.194,0.004-0.283C31.735,36.414,31.316,36.107,30.775,36.219z
			 M27.1,52.264c-0.471,0.289-0.939-0.238-0.919-0.789c0.073-1.953,0.155-4.012,0.223-5.672c0.022-0.552,0.484-0.902,0.979-0.656
			c1.097,0.543,2.065,1.642,1.503,3.865C28.437,50.793,27.796,51.838,27.1,52.264z M29.697,57.331h-0.534
			c-0.553-0.001-0.99-0.034-0.979-0.077c0.008-0.023,0.014-0.051,0.013-0.078c-0.006-0.242-0.002-0.5,0.013-0.771
			c0.095-1.77,0.822-2.799,1.617-3.398c0.439-0.333,0.863-0.051,0.863,0.502c0.001,1.092,0.002,2.059,0.003,2.823
			C30.695,56.883,30.25,57.331,29.697,57.331z M30.694,43.342c-0.001,0.553-0.43,0.833-0.837,0.461
			c-0.65-0.593-1.091-1.537-0.941-2.945c0.095-0.905,0.474-1.496,0.924-1.881c0.418-0.358,0.858-0.057,0.857,0.496
			C30.696,40.549,30.694,41.885,30.694,43.342z"/>
	</g>
</g>
<g>
</g>
<g>
</g>
<g>
</g>
<g>
</g>
<g>
</g>
<g>
</g>
<g>
</g>
<g>
</g>
<g>
</g>
<g>
</g>
<g>
</g>
<g>
</g>
<g>
</g>
<g>
</g>
<g>
</g>
</svg>
