<?xml version="1.0" encoding="iso-8859-1"?>
<!-- Generator: Adobe Illustrator 16.0.0, SVG Export Plug-In . SVG Version: 6.00 Build 0)  -->
<!DOCTYPE svg PUBLIC "-//W3C//DTD SVG 1.1//EN" "http://www.w3.org/Graphics/SVG/1.1/DTD/svg11.dtd">
<svg version="1.1" id="Capa_1" xmlns="http://www.w3.org/2000/svg" xmlns:xlink="http://www.w3.org/1999/xlink" x="0px" y="0px"
	 width="44.922px" height="44.922px" viewBox="0 0 44.922 44.922" style="enable-background:new 0 0 44.922 44.922;"
	 xml:space="preserve">
<g>
	<g>
		<path d="M44.662,30.428L27.518,18.295c-0.357-0.254-0.859-0.059-0.951,0.37l-1.47,6.829l-9.055,4.896
			c-0.559,0.303-0.344,1.15,0.291,1.15h3.929v4.141h-3.579c-1.072,0-1.941,0.869-1.941,1.941v7.18h2.46v-6.236
			c0-0.201,0.163-0.363,0.363-0.363h2.697v6.6h22.083V31.54h1.964C44.904,31.54,45.15,30.774,44.662,30.428z M37.38,38.201h-3.81
			c-0.323,0-0.586-0.264-0.586-0.586v-3.029c0-0.323,0.263-0.586,0.586-0.586h3.81c0.323,0,0.585,0.263,0.585,0.586v3.029
			C37.964,37.939,37.703,38.201,37.38,38.201z"/>
		<path d="M3.596,5.948C5.481,5.554,7.564,5.936,9.532,7.5c0.912,0.725,1.582,1.53,2.043,2.378
			c-0.591-0.671-1.412-1.146-2.363-1.288c-1.458-0.219-2.906,0.497-3.783,1.683c-0.352,0.475-0.553,0.949-0.651,1.416
			c-0.067,0.318,0.307,0.561,0.563,0.36c0.879-0.684,2.05-1.046,3.483-0.844c1.177,0.166,2.08,0.648,2.729,1.314
			C11.45,12.608,0.555,24.875,0,44.801h6.697c-0.585-21.974,7.052-30.522,7.058-30.554l0,0c0.733,0.485,1.353,1.228,1.754,2.27
			c0.522,1.354,0.432,2.581-0.04,3.595c-0.136,0.291,0.182,0.597,0.473,0.462c0.436-0.202,0.856-0.507,1.243-0.96
			c0.956-1.123,1.327-2.695,0.783-4.065c-0.354-0.895-1.001-1.587-1.789-2.011c0.93,0.258,1.866,0.729,2.778,1.453
			c1.937,1.539,2.784,3.444,2.85,5.341c0.013,0.356,0.449,0.514,0.678,0.24c0.63-0.754,1.105-1.712,1.276-2.986
			c0.298-2.212-0.466-4.505-2.225-5.879c-0.569-0.445-1.192-0.774-1.84-0.993c0.065,0.006,0.129,0.013,0.195,0.021
			c2.366,0.276,4.052,1.374,5.117,2.862c0.248,0.347,0.812,0.198,0.854-0.226c0.08-0.827-0.018-1.719-0.401-2.687
			c-0.892-2.24-2.855-3.913-5.257-4.116c-0.863-0.072-1.701,0.036-2.477,0.294c0.076-0.813-0.007-1.653-0.272-2.476
			c-0.739-2.294-2.813-3.831-5.196-4.193C11.2,0.033,10.289,0.149,9.486,0.431C9.107,0.564,9.089,1.116,9.461,1.267
			c1.716,0.691,3.192,2.093,4.005,4.361c0.022,0.063,0.043,0.124,0.063,0.186C13.17,5.232,12.708,4.7,12.146,4.246
			C10.41,2.844,8.004,2.618,5.917,3.407c-1.24,0.469-2.08,1.176-2.676,1.991C3.051,5.66,3.277,6.015,3.596,5.948z"/>
	</g>
</g>
<g>
</g>
<g>
</g>
<g>
</g>
<g>
</g>
<g>
</g>
<g>
</g>
<g>
</g>
<g>
</g>
<g>
</g>
<g>
</g>
<g>
</g>
<g>
</g>
<g>
</g>
<g>
</g>
<g>
</g>
</svg>
