<?xml version="1.0" encoding="iso-8859-1"?>
<!-- Generator: Adobe Illustrator 18.0.0, SVG Export Plug-In . SVG Version: 6.00 Build 0)  -->
<!DOCTYPE svg PUBLIC "-//W3C//DTD SVG 1.1//EN" "http://www.w3.org/Graphics/SVG/1.1/DTD/svg11.dtd">
<svg version="1.1" id="Capa_1" xmlns="http://www.w3.org/2000/svg" xmlns:xlink="http://www.w3.org/1999/xlink" x="0px" y="0px"
	 viewBox="0 0 480 480" style="enable-background:new 0 0 480 480;" xml:space="preserve">
<g>
	<path d="M454.359,316.114L179.268,41.024l-6.857,9.633c-0.616,0.865-15.148,21.514-21.49,50.602
		c-8.583,39.371,1.892,75.193,30.292,103.593l99.729,99.729H61.396C27.542,304.581,0,332.123,0,365.977v11.603
		c0,33.854,27.542,61.396,61.396,61.396h357.209c33.854,0,61.396-27.542,61.396-61.396v-11.603
		C480,345.456,469.87,327.268,454.359,316.114z M195.355,190.71c-23.524-23.523-31.944-51.977-25.027-84.569
		c2.937-13.837,8.14-25.641,12.262-33.51l231.951,231.95H309.226L195.355,190.71z M460,377.579c0,22.826-18.57,41.396-41.396,41.396
		H61.396C38.57,418.976,20,400.406,20,377.579v-11.603c0-22.826,18.57-41.396,41.396-41.396h357.209
		c22.826,0,41.396,18.57,41.396,41.396V377.579z"/>
	<polygon points="91.7,340.118 71.7,340.118 71.7,361.779 50.04,361.779 50.04,381.779 71.7,381.779 71.7,403.439 91.7,403.439 
		91.7,381.779 113.36,381.779 113.36,361.779 91.7,361.779 	"/>
	
		<rect x="254.069" y="122.949" transform="matrix(0.7071 -0.7071 0.7071 0.7071 -55.0335 241.5578)" width="20.001" height="128.522"/>
</g>
<g>
</g>
<g>
</g>
<g>
</g>
<g>
</g>
<g>
</g>
<g>
</g>
<g>
</g>
<g>
</g>
<g>
</g>
<g>
</g>
<g>
</g>
<g>
</g>
<g>
</g>
<g>
</g>
<g>
</g>
</svg>
