<?xml version="1.0" encoding="iso-8859-1"?>
<!-- Generator: Adobe Illustrator 19.0.0, SVG Export Plug-In . SVG Version: 6.00 Build 0)  -->
<svg version="1.1" id="Capa_1" xmlns="http://www.w3.org/2000/svg" xmlns:xlink="http://www.w3.org/1999/xlink" x="0px" y="0px"
	 viewBox="0 0 463 463" style="enable-background:new 0 0 463 463;" xml:space="preserve">
<g>
	<path d="M447.5,172H399v-17h24.5c8.547,0,15.5-6.953,15.5-15.5v-48c0-8.547-6.953-15.5-15.5-15.5h-96
		c-8.547,0-15.5,6.953-15.5,15.5v48c0,8.547,6.953,15.5,15.5,15.5H352v17h-97v-17h24.5c8.547,0,15.5-6.953,15.5-15.5v-48
		c0-8.547-6.953-15.5-15.5-15.5h-96c-8.547,0-15.5,6.953-15.5,15.5v48c0,8.547,6.953,15.5,15.5,15.5H208v17h-97v-17h24.5
		c8.547,0,15.5-6.953,15.5-15.5v-48c0-8.547-6.953-15.5-15.5-15.5h-96C30.953,76,24,82.953,24,91.5v48c0,8.547,6.953,15.5,15.5,15.5
		H64v17H15.5C6.953,172,0,178.953,0,187.5v80c0,5.827,3.235,10.908,8,13.555V379.5c0,4.142,3.357,7.5,7.5,7.5h32
		c4.143,0,7.5-3.358,7.5-7.5v-56c0-4.687,3.813-8.5,8.5-8.5h336c4.687,0,8.5,3.813,8.5,8.5v56c0,4.142,3.357,7.5,7.5,7.5h32
		c4.143,0,7.5-3.358,7.5-7.5v-98.445c4.765-2.647,8-7.728,8-13.555v-80C463,178.953,456.047,172,447.5,172z M448,187.5v80
		c0,0.276-0.225,0.5-0.5,0.5H311v-81h136.5C447.775,187,448,187.224,448,187.5z M247,268v-81h49v81H247z M199,268v-81h33v81H199z
		 M327,139.5v-48c0-0.276,0.225-0.5,0.5-0.5h96c0.275,0,0.5,0.224,0.5,0.5v48c0,0.276-0.225,0.5-0.5,0.5h-96
		C327.225,140,327,139.776,327,139.5z M367,155h17v17h-17V155z M183,139.5v-48c0-0.276,0.225-0.5,0.5-0.5h96
		c0.275,0,0.5,0.224,0.5,0.5v48c0,0.276-0.225,0.5-0.5,0.5h-96C183.225,140,183,139.776,183,139.5z M223,155h17v17h-17V155z
		 M39,139.5v-48c0-0.276,0.225-0.5,0.5-0.5h96c0.275,0,0.5,0.224,0.5,0.5v48c0,0.276-0.225,0.5-0.5,0.5h-96
		C39.225,140,39,139.776,39,139.5z M79,155h17v17H79V155z M15,187.5c0-0.276,0.225-0.5,0.5-0.5H184v81H15.5
		c-0.275,0-0.5-0.224-0.5-0.5V187.5z M423,372v-48.5c0-12.958-10.542-23.5-23.5-23.5h-336C50.542,300,40,310.542,40,323.5V372H23
		v-89h417v89H423z"/>
	<path d="M39.5,227c4.143,0,7.5-3.358,7.5-7.5v-8c0-4.142-3.357-7.5-7.5-7.5s-7.5,3.358-7.5,7.5v8C32,223.642,35.357,227,39.5,227z"
		/>
	<path d="M63.5,227c4.143,0,7.5-3.358,7.5-7.5v-8c0-4.142-3.357-7.5-7.5-7.5s-7.5,3.358-7.5,7.5v8C56,223.642,59.357,227,63.5,227z"
		/>
	<path d="M87.5,227c4.143,0,7.5-3.358,7.5-7.5v-8c0-4.142-3.357-7.5-7.5-7.5s-7.5,3.358-7.5,7.5v8C80,223.642,83.357,227,87.5,227z"
		/>
	<path d="M111.5,227c4.143,0,7.5-3.358,7.5-7.5v-8c0-4.142-3.357-7.5-7.5-7.5s-7.5,3.358-7.5,7.5v8
		C104,223.642,107.357,227,111.5,227z"/>
	<path d="M135.5,227c4.143,0,7.5-3.358,7.5-7.5v-8c0-4.142-3.357-7.5-7.5-7.5s-7.5,3.358-7.5,7.5v8
		C128,223.642,131.357,227,135.5,227z"/>
	<path d="M39.5,251h24c4.143,0,7.5-3.358,7.5-7.5s-3.357-7.5-7.5-7.5h-24c-4.143,0-7.5,3.358-7.5,7.5S35.357,251,39.5,251z"/>
	<path d="M87.5,251h24c4.143,0,7.5-3.358,7.5-7.5s-3.357-7.5-7.5-7.5h-24c-4.143,0-7.5,3.358-7.5,7.5S83.357,251,87.5,251z"/>
	<path d="M159.5,227c4.143,0,7.5-3.358,7.5-7.5v-8c0-4.142-3.357-7.5-7.5-7.5s-7.5,3.358-7.5,7.5v8
		C152,223.642,155.357,227,159.5,227z"/>
	<path d="M135.5,251h24c4.143,0,7.5-3.358,7.5-7.5s-3.357-7.5-7.5-7.5h-24c-4.143,0-7.5,3.358-7.5,7.5S131.357,251,135.5,251z"/>
	<path d="M215.5,196c-4.143,0-7.5,3.358-7.5,7.5v8c0,4.142,3.357,7.5,7.5,7.5s7.5-3.358,7.5-7.5v-8
		C223,199.358,219.643,196,215.5,196z"/>
	<path d="M215.5,228c-4.143,0-7.5,3.358-7.5,7.5v16c0,4.142,3.357,7.5,7.5,7.5s7.5-3.358,7.5-7.5v-16
		C223,231.358,219.643,228,215.5,228z"/>
	<path d="M263.5,211h16c4.143,0,7.5-3.358,7.5-7.5s-3.357-7.5-7.5-7.5h-16c-4.143,0-7.5,3.358-7.5,7.5S259.357,211,263.5,211z"/>
	<path d="M279.5,220h-16c-4.143,0-7.5,3.358-7.5,7.5s3.357,7.5,7.5,7.5h16c4.143,0,7.5-3.358,7.5-7.5S283.643,220,279.5,220z"/>
	<path d="M279.5,244h-16c-4.143,0-7.5,3.358-7.5,7.5s3.357,7.5,7.5,7.5h16c4.143,0,7.5-3.358,7.5-7.5S283.643,244,279.5,244z"/>
	<path d="M351.5,196h-16c-4.143,0-7.5,3.358-7.5,7.5s3.357,7.5,7.5,7.5h16c4.143,0,7.5-3.358,7.5-7.5S355.643,196,351.5,196z"/>
	<path d="M351.5,220h-16c-4.143,0-7.5,3.358-7.5,7.5s3.357,7.5,7.5,7.5h16c4.143,0,7.5-3.358,7.5-7.5S355.643,220,351.5,220z"/>
	<path d="M351.5,244h-16c-4.143,0-7.5,3.358-7.5,7.5s3.357,7.5,7.5,7.5h16c4.143,0,7.5-3.358,7.5-7.5S355.643,244,351.5,244z"/>
	<path d="M383.5,196h-8c-4.143,0-7.5,3.358-7.5,7.5s3.357,7.5,7.5,7.5h8c4.143,0,7.5-3.358,7.5-7.5S387.643,196,383.5,196z"/>
	<path d="M383.5,220h-8c-4.143,0-7.5,3.358-7.5,7.5s3.357,7.5,7.5,7.5h8c4.143,0,7.5-3.358,7.5-7.5S387.643,220,383.5,220z"/>
	<path d="M383.5,244h-8c-4.143,0-7.5,3.358-7.5,7.5s3.357,7.5,7.5,7.5h8c4.143,0,7.5-3.358,7.5-7.5S387.643,244,383.5,244z"/>
	<path d="M407.5,211h16c4.143,0,7.5-3.358,7.5-7.5s-3.357-7.5-7.5-7.5h-16c-4.143,0-7.5,3.358-7.5,7.5S403.357,211,407.5,211z"/>
	<path d="M407.5,235h16c4.143,0,7.5-3.358,7.5-7.5s-3.357-7.5-7.5-7.5h-16c-4.143,0-7.5,3.358-7.5,7.5S403.357,235,407.5,235z"/>
	<path d="M407.5,259h16c4.143,0,7.5-3.358,7.5-7.5s-3.357-7.5-7.5-7.5h-16c-4.143,0-7.5,3.358-7.5,7.5S403.357,259,407.5,259z"/>
</g>
<g>
</g>
<g>
</g>
<g>
</g>
<g>
</g>
<g>
</g>
<g>
</g>
<g>
</g>
<g>
</g>
<g>
</g>
<g>
</g>
<g>
</g>
<g>
</g>
<g>
</g>
<g>
</g>
<g>
</g>
</svg>
