<?xml version="1.0" encoding="iso-8859-1"?>
<!-- Generator: Adobe Illustrator 19.0.0, SVG Export Plug-In . SVG Version: 6.00 Build 0)  -->
<svg version="1.1" id="Layer_1" xmlns="http://www.w3.org/2000/svg" xmlns:xlink="http://www.w3.org/1999/xlink" x="0px" y="0px"
	 viewBox="0 0 490 490" style="enable-background:new 0 0 490 490;" xml:space="preserve">
<g id="XMLID_931_">
	<g>
		<path d="M391.314,70l-20-70H118.686l-20,70H55v90h31.302l30,330h257.396l30-330H435V70H391.314z M346.302,460H143.698l-3.636-40
			h209.876L346.302,460z M352.666,390H137.335l-14.546-160h244.422L352.666,390z M369.938,200H120.062l-3.636-40h257.149
			L369.938,200z M405,130H85v-30h220V70H129.886l11.429-40h207.371l11.429,40H335v30h70V130z"/>
	</g>
</g>
<g>
</g>
<g>
</g>
<g>
</g>
<g>
</g>
<g>
</g>
<g>
</g>
<g>
</g>
<g>
</g>
<g>
</g>
<g>
</g>
<g>
</g>
<g>
</g>
<g>
</g>
<g>
</g>
<g>
</g>
</svg>
