<?xml version="1.0" encoding="utf-8"?>
<!-- Generator: Adobe Illustrator 17.0.2, SVG Export Plug-In . SVG Version: 6.00 Build 0)  -->
<!DOCTYPE svg PUBLIC "-//W3C//DTD SVG 1.1//EN" "http://www.w3.org/Graphics/SVG/1.1/DTD/svg11.dtd">
<svg version="1.1" id="Capa_1" xmlns="http://www.w3.org/2000/svg" xmlns:xlink="http://www.w3.org/1999/xlink" x="0px" y="0px"
	 width="64px" height="64px" viewBox="0 0 64 64" enable-background="new 0 0 64 64" xml:space="preserve">
<g>
	<path d="M58.629,26.164c-0.251-1.886-0.286-5.135,1.465-6.226c0.032-0.02,0.055-0.049,0.083-0.074
		c1.432-0.458,2.423-1.101,1.645-1.966l-21.13-6.367L6.478,16.288c0,0-3.918,0.56-3.568,6.647c0.19,3.313,1.229,4.94,2.138,5.741
		l-2.808,0.846c-0.779,0.865,0.212,1.508,1.645,1.966c0.027,0.025,0.05,0.054,0.082,0.074c1.751,1.092,1.717,4.341,1.465,6.227
		c-6.29,1.786-4.032,2.368-4.032,2.368l1.38,0.334c-0.971,0.877-1.935,2.54-1.754,5.694c0.35,6.087,3.568,6.507,3.568,6.507
		l22.39,7.277l33.794-8.186c0,0,2.259-0.583-4.033-2.369c-0.253-1.884-0.288-5.132,1.467-6.226c0.032-0.02,0.055-0.049,0.082-0.074
		c1.432-0.458,2.423-1.101,1.644-1.966l-1.469-0.443c0.98-0.591,2.452-2.135,2.682-6.145c0.159-2.758-0.56-4.374-1.393-5.325
		l2.903-0.703C62.661,28.533,64.92,27.95,58.629,26.164z M30.362,26.086l5.683-1.168l19.205-3.947l2.861-0.588
		c-0.914,1.673-0.876,3.963-0.725,5.435c0.034,0.333,0.072,0.637,0.109,0.868l-3.132,0.779l-24.24,6.03L30.362,26.086z M5.95,32.009
		l2.861,0.588l18.444,3.791l1.611,0.331l0,0h0l4.832,0.993l0.238,7.409L9.023,38.923l-2.456-0.611
		c0.036-0.231,0.074-0.535,0.109-0.868C6.826,35.972,6.865,33.682,5.95,32.009z M4.839,22.642c-0.035-1.619,0.254-2.79,0.837-3.385
		c0.371-0.38,0.809-0.459,1.109-0.459c0.159,0,0.273,0.022,0.281,0.022l14.742,4.806l7.355,2.398l-0.241,7.461L8.288,27.7
		l-1.089-0.305c-0.04-0.011-0.094-0.019-0.136-0.021C6.978,27.368,4.938,27.18,4.839,22.642z M27.037,56.736l-21.722-6.09
		c-0.04-0.011-0.094-0.019-0.136-0.021c-0.086-0.006-2.127-0.194-2.226-4.731c-0.035-1.62,0.255-2.79,0.837-3.386
		c0.372-0.38,0.81-0.459,1.11-0.459c0.159,0,0.273,0.022,0.281,0.022c0,0,0.001,0,0,0l22.096,7.205L27.037,56.736z M55.501,49.069
		c0.034,0.333,0.072,0.637,0.109,0.868l-27.372,6.81l0.239-7.409l5.852-1.203l0.864,0.209l3.239-1.053l14.932-3.069l2.862-0.588
		C55.311,45.307,55.349,47.597,55.501,49.069z M57.009,38.999c-0.05,0.001-0.1,0.008-0.147,0.022l-2.064,0.579l-19.658,5.511
		l-0.24-7.461l6.449-2.103l15.617-5.093c0.002-0.001,0.821-0.183,1.422,0.429c0.582,0.595,0.872,1.766,0.837,3.385
		C59.124,38.805,57.083,38.993,57.009,38.999z"/>
</g>
</svg>
