<?xml version="1.0" encoding="iso-8859-1"?>
<!-- Generator: Adobe Illustrator 16.0.0, SVG Export Plug-In . SVG Version: 6.00 Build 0)  -->
<!DOCTYPE svg PUBLIC "-//W3C//DTD SVG 1.1//EN" "http://www.w3.org/Graphics/SVG/1.1/DTD/svg11.dtd">
<svg version="1.1" id="Capa_1" xmlns="http://www.w3.org/2000/svg" xmlns:xlink="http://www.w3.org/1999/xlink" x="0px" y="0px"
	 width="96.806px" height="96.806px" viewBox="0 0 96.806 96.806" style="enable-background:new 0 0 96.806 96.806;"
	 xml:space="preserve">
<g>
	<path d="M80.599,52.689c-1.591-0.315-3.276,0.451-5.044-0.201c0.188-0.877,0.291-1.785,0.291-2.719V34.643
		c0-7.16-5.805-12.965-12.965-12.965c0,0-6.915,4.43-14.694,4.537c-7.779,0.109-14.262-4.537-14.262-4.537
		c-7.161,0-12.965,5.805-12.965,12.965V49.77c0,0.889,0.091,1.758,0.262,2.6c-2.002,0.761-3.899,0.089-5.671,0.455
		C5.988,54.798,0,46.688,0,52.654c0,5.967,21.669,22.474,48.402,22.474s48.404-14.94,48.404-22.474
		C96.806,45.123,90.544,54.669,80.599,52.689z M47.32,62.328c-13.798,0-24.983-3.528-24.983-7.883c0-0.981,0.574-1.922,1.614-2.789
		c3.571,2.978,12.685,5.095,23.369,5.095s20.122-2.117,23.693-5.095c1.04,0.867,1.29,1.808,1.29,2.789
		C72.304,58.799,61.119,62.328,47.32,62.328z"/>
</g>
<g>
</g>
<g>
</g>
<g>
</g>
<g>
</g>
<g>
</g>
<g>
</g>
<g>
</g>
<g>
</g>
<g>
</g>
<g>
</g>
<g>
</g>
<g>
</g>
<g>
</g>
<g>
</g>
<g>
</g>
</svg>
