<?xml version="1.0" encoding="iso-8859-1"?>
<!-- Generator: Adobe Illustrator 19.0.0, SVG Export Plug-In . SVG Version: 6.00 Build 0)  -->
<svg version="1.1" id="Layer_1" xmlns="http://www.w3.org/2000/svg" xmlns:xlink="http://www.w3.org/1999/xlink" x="0px" y="0px"
	 viewBox="0 0 502.769 502.769" style="enable-background:new 0 0 502.769 502.769;" xml:space="preserve">
<g id="XMLID_906_">
	<g>
		<path d="M408.341,172.209l94.427-94.428l-58.336-19.445L424.987,0L330.56,94.428l14.141,42.424l-22.9,22.9
			c-34.119-29.27-78.428-46.982-126.801-46.982c-107.523,0-195,87.477-195,195s87.477,195,195,195s195-87.477,195-195
			c0-48.375-17.713-92.686-46.985-126.805l22.898-22.898L408.341,172.209z M411.877,55.537l8.839,26.516l26.516,8.839
			l-46.993,46.994l-26.517-8.839l-8.839-26.517L411.877,55.537z M360,307.769c0,90.981-74.019,165-165,165s-165-74.019-165-165
			s74.019-165,165-165c40.1,0,76.9,14.385,105.525,38.258l-42.678,42.678c-17.535-13.143-39.298-20.936-62.847-20.936
			c-57.897,0-105,47.103-105,105c0,57.897,47.103,105,105,105c57.897,0,105-47.103,105-105c0-23.551-7.795-45.316-20.939-62.851
			l42.678-42.678C345.614,230.865,360,267.667,360,307.769z M270,307.769c0,41.355-33.645,75-75,75s-75-33.645-75-75
			s33.645-75,75-75c15.263,0,29.469,4.594,41.327,12.456l-33.567,33.567c-2.477-0.664-5.077-1.023-7.76-1.023
			c-16.542,0-30,13.458-30,30s13.458,30,30,30s30-13.458,30-30c0-2.685-0.36-5.287-1.025-7.765l33.566-33.566
			C265.406,278.297,270,292.504,270,307.769z"/>
	</g>
</g>
<g>
</g>
<g>
</g>
<g>
</g>
<g>
</g>
<g>
</g>
<g>
</g>
<g>
</g>
<g>
</g>
<g>
</g>
<g>
</g>
<g>
</g>
<g>
</g>
<g>
</g>
<g>
</g>
<g>
</g>
</svg>
