<?xml version="1.0" encoding="iso-8859-1"?>
<!-- Generator: Adobe Illustrator 16.0.0, SVG Export Plug-In . SVG Version: 6.00 Build 0)  -->
<!DOCTYPE svg PUBLIC "-//W3C//DTD SVG 1.1//EN" "http://www.w3.org/Graphics/SVG/1.1/DTD/svg11.dtd">
<svg version="1.1" id="Capa_1" xmlns="http://www.w3.org/2000/svg" xmlns:xlink="http://www.w3.org/1999/xlink" x="0px" y="0px"
	 width="950px" height="950px" viewBox="0 0 950 950" style="enable-background:new 0 0 950 950;" xml:space="preserve">
<g>
	<path d="M475,86.074C211.982,89.243,0,214.49,0,368.537v41.343c0,0,2.568,135.091,2.568,195.097
		c0,150.891,224.666,254.779,472.432,258.949c247.737-4.17,472.432-108.061,472.432-258.949c0-60.006,2.568-195.097,2.568-195.097
		v-41.343C950,214.49,738.018,89.243,475,86.074z M745.685,353.189l49.139-35.551c8.95-6.475,21.453-4.469,27.927,4.48
		c6.475,8.949,4.469,21.453-4.48,27.927l-49.138,35.551c-3.543,2.563-7.644,3.798-11.707,3.798c-6.198,0-12.309-2.872-16.22-8.277
		C734.73,372.167,736.736,359.664,745.685,353.189z M591.105,190.419l49.138-35.551c8.948-6.474,21.452-4.469,27.927,4.48
		c6.475,8.949,4.469,21.452-4.479,27.927l-49.139,35.551c-3.543,2.563-7.644,3.798-11.707,3.798c-6.198,0-12.309-2.872-16.22-8.278
		C580.15,209.397,582.156,196.894,591.105,190.419z M476.024,244.161c95.227,2.289,170.837,36.366,170.837,78.078
		c0,41.713-75.633,75.791-170.837,78.08c-95.228-2.289-170.838-36.365-170.838-78.08
		C305.188,280.527,380.797,246.449,476.024,244.161z M600.22,482.104l-49.138,35.551c-3.543,2.562-7.645,3.799-11.707,3.799
		c-6.199,0-12.309-2.873-16.22-8.279c-6.476-8.949-4.47-21.451,4.479-27.926l49.139-35.552c8.947-6.475,21.451-4.469,27.927,4.48
		C611.175,463.125,609.169,475.629,600.22,482.104z M286.041,190.419l49.138-35.551c8.948-6.474,21.452-4.469,27.928,4.48
		c6.475,8.949,4.469,21.452-4.48,27.927l-49.138,35.551c-3.543,2.563-7.645,3.798-11.707,3.798c-6.199,0-12.31-2.872-16.22-8.278
		C275.085,209.397,277.091,196.894,286.041,190.419z M236.902,436.109l49.138-35.552c8.949-6.475,21.452-4.469,27.927,4.48
		c6.476,8.948,4.469,21.453-4.479,27.927l-49.138,35.552c-3.543,2.563-7.644,3.798-11.707,3.798c-6.199,0-12.309-2.872-16.22-8.277
		C225.948,455.087,227.954,442.584,236.902,436.109z M135.555,370.592l49.138-35.551c8.95-6.475,21.453-4.469,27.927,4.479
		c6.474,8.949,4.469,21.453-4.48,27.928L159.002,403c-3.543,2.562-7.644,3.798-11.707,3.798c-6.199,0-12.309-2.872-16.22-8.278
		C124.601,389.57,126.606,377.066,135.555,370.592z M880.047,612.098c0,113.35-199.282,188.254-405.047,192.938
		c-205.351-4.684-405.047-79.588-405.047-192.938l-0.682-99.938l11.91,12.27C104.035,544.625,131,561.865,162,578.051v33.846
		c0,22.293,17.77,40.41,40.084,40.41c12.141,0,22.916-5.359,29.916-13.828v63.936c0,22.32,18.678,40.947,41,40.947
		c22.322,0,41-18.627,41-40.947v-70.436c3,0.664,6,1.322,9,1.963v18.365c0,22.314,18.107,40.389,40.463,40.389
		c17.028,0,31.537-10.57,37.537-25.52v79.766c0,22.322,18.678,40.949,41,40.949s41-18.627,41-40.949v-96.162
		c21-0.607,42-2.174,63-4.227v5.754c0,22.314,18.186,40.389,40.458,40.389c22.356,0,40.542-18.074,40.542-40.389v-18.365
		c27-5.924,55.195-12.799,80.666-21.506c0.332,22.062,17.916,39.871,40.062,39.871c22.315,0,40.271-18.119,40.271-40.412v-33.844
		c31-16.188,57.965-33.426,80.819-53.621l11.846-12.27L880.047,612.098z"/>
</g>
<g>
</g>
<g>
</g>
<g>
</g>
<g>
</g>
<g>
</g>
<g>
</g>
<g>
</g>
<g>
</g>
<g>
</g>
<g>
</g>
<g>
</g>
<g>
</g>
<g>
</g>
<g>
</g>
<g>
</g>
</svg>
