<?xml version="1.0" encoding="iso-8859-1"?>
<!-- Generator: Adobe Illustrator 18.0.0, SVG Export Plug-In . SVG Version: 6.00 Build 0)  -->
<!DOCTYPE svg PUBLIC "-//W3C//DTD SVG 1.1//EN" "http://www.w3.org/Graphics/SVG/1.1/DTD/svg11.dtd">
<svg version="1.1" id="Capa_1" xmlns="http://www.w3.org/2000/svg" xmlns:xlink="http://www.w3.org/1999/xlink" x="0px" y="0px"
	 viewBox="0 0 59.002 59.002" style="enable-background:new 0 0 59.002 59.002;" xml:space="preserve">
<g>
	<path d="M29.638,36.74c-8.001,0-13.171,4.302-13.171,10.958c0,1.213,0.138,2.926,1.332,3.792c1.359,0.987,3.198,0.387,5.524-0.371
		c1.889-0.616,4.03-1.314,6.314-1.314s4.425,0.698,6.314,1.314c1.457,0.475,2.722,0.888,3.798,0.888
		c0.643-0.001,1.218-0.147,1.727-0.517c1.194-0.866,1.332-2.579,1.332-3.792C42.809,41.042,37.639,36.74,29.638,36.74z
		 M25.375,48.414c0.618-1.77,2.285-3.05,4.263-3.05s3.645,1.281,4.263,3.05c-1.32-0.344-2.756-0.609-4.263-0.609
		S26.695,48.07,25.375,48.414z M40.302,49.871c-0.532,0.391-2.158-0.141-3.729-0.653c-0.149-0.049-0.306-0.099-0.461-0.149
		c-0.409-3.211-3.153-5.705-6.474-5.705s-6.065,2.494-6.474,5.705c-0.155,0.05-0.312,0.101-0.461,0.149
		c-1.57,0.512-3.197,1.043-3.729,0.653c-0.152-0.11-0.507-0.543-0.507-2.173c0-6.604,5.771-8.958,11.171-8.958
		s11.171,2.354,11.171,8.958C40.809,49.328,40.454,49.761,40.302,49.871z"/>
	<circle cx="21.138" cy="35.002" r="2"/>
	<circle cx="37.138" cy="35.002" r="2"/>
	<path d="M58.399,43.657c-2.099-4.705-2.759-13.611-2.965-18.502c-0.193-4.619-1.571-8.96-3.983-12.554
		c-4.309-6.421-9.09-9.038-12.312-10.448c-6.56-2.871-14.085-2.871-20.645,0c-3.791,1.658-8.126,4.074-11.545,9.418
		c-2.292,3.584-3.552,7.9-3.642,12.485c-0.103,5.269-0.594,14.845-2.725,19.777c-0.678,1.569,0.036,3.406,1.592,4.095
		c0.895,0.396,2.607,0.632,4.752,0.899c0.139,0.018,0.265,0.033,0.396,0.05v1.124c0,2.663,2.343,5,5.015,5h2.802v1.694
		c0,1.271,1.034,2.306,2.305,2.306h23.39c1.271,0,2.305-1.034,2.305-2.306v-1.694h3c2.713,0,5.184-2.383,5.184-5v-1.159
		c0.541-0.089,1.099-0.173,1.657-0.25c1.45-0.204,2.819-0.396,3.705-0.74c0.805-0.313,1.428-0.923,1.755-1.718
		C58.769,45.334,58.754,44.454,58.399,43.657z M41.138,56.696c0,0.169-0.137,0.306-0.305,0.306h-23.39
		c-0.168,0-0.305-0.137-0.305-0.306v-1.694h24V56.696z M49.322,50.002c0,1.514-1.577,3-3.184,3h-3h-28h-2.802
		c-1.55,0-3.015-1.458-3.015-3V27.945c4.039-0.278,19.387-1.802,25.819-9.082c1.453,2.695,4.954,8.311,9.565,9.764
		c1.563,0.493,3.109,0.475,4.616-0.056V50.002z M56.589,45.374c-0.116,0.284-0.34,0.502-0.629,0.614
		c-0.669,0.26-1.986,0.444-3.26,0.623c-0.458,0.064-0.922,0.131-1.379,0.202V27.002c0-0.359-0.192-0.69-0.504-0.868
		c-0.313-0.178-0.694-0.176-1.005,0.007c-1.485,0.878-2.959,1.066-4.503,0.58c-5.15-1.621-9.04-10.048-9.078-10.133
		c-0.15-0.33-0.467-0.553-0.828-0.582c-0.362-0.031-0.71,0.137-0.912,0.438c-5.791,8.608-26.008,9.551-26.212,9.56
		c-0.536,0.022-0.958,0.463-0.958,0.999v19.861c-0.051-0.007-0.096-0.012-0.148-0.019c-1.392-0.174-3.494-0.436-4.19-0.743
		c-0.566-0.251-0.815-0.897-0.566-1.474c2.267-5.246,2.783-15.115,2.889-20.531c0.083-4.216,1.233-8.174,3.327-11.446
		c3.131-4.894,7.146-7.126,10.662-8.664c6.051-2.648,12.991-2.648,19.042,0c2.992,1.31,7.436,3.743,11.454,9.731
		c2.206,3.287,3.467,7.271,3.646,11.522c0.26,6.147,1.014,14.475,3.137,19.232C56.703,44.764,56.708,45.085,56.589,45.374z"/>
	<path d="M18.147,29.859l5,3c0.161,0.097,0.338,0.143,0.514,0.143c0.34,0,0.671-0.173,0.858-0.485
		c0.284-0.474,0.131-1.088-0.343-1.372l-5-3c-0.475-0.284-1.088-0.131-1.372,0.343S17.673,29.575,18.147,29.859z"/>
	<path d="M34.139,33.002c0.175,0,0.353-0.046,0.514-0.143l5-3c0.474-0.284,0.627-0.898,0.343-1.372
		c-0.285-0.474-0.898-0.627-1.372-0.343l-5,3c-0.474,0.284-0.627,0.898-0.343,1.372C33.468,32.829,33.799,33.002,34.139,33.002z"/>
	<path d="M32.138,5.002c-1.328,0-2.662,0.084-3.965,0.25c-0.548,0.07-0.936,0.57-0.866,1.118c0.064,0.506,0.495,0.874,0.991,0.874
		c0.042,0,0.085-0.003,0.128-0.008c1.22-0.155,2.468-0.234,3.712-0.234c0.552,0,1-0.447,1-1S32.69,5.002,32.138,5.002z"/>
	<path d="M23.808,8.24c0.526-0.167,0.817-0.729,0.65-1.256c-0.167-0.527-0.733-0.817-1.256-0.65
		C16.707,8.398,9.127,13.741,9.138,22.003c0.001,0.552,0.448,0.999,1,0.999c0,0,0.001,0,0.001,0c0.552-0.001,1-0.449,0.999-1.001
		C11.128,14.819,17.957,10.1,23.808,8.24z"/>
	<path d="M32.138,10.002c-0.001,0-0.003,0-0.005,0c-5.868,0-11.184,1.953-14.584,5.358c-0.39,0.392-0.39,1.024,0.001,1.415
		c0.195,0.194,0.451,0.292,0.707,0.292c0.256,0,0.512-0.098,0.708-0.293c3.029-3.033,7.828-4.772,13.169-4.772
		c0.001,0,0.003,0,0.005,0c0.552,0,1-0.447,1-1C33.138,10.45,32.69,10.002,32.138,10.002z"/>
	<path d="M16.432,18.304c-0.5-0.239-1.095-0.024-1.332,0.476c-0.627,1.325-0.96,2.785-0.962,4.222c0,0.552,0.447,1,0.999,1.001
		c0,0,0,0,0,0c0.552,0,1-0.447,1-0.999c0.001-1.143,0.268-2.308,0.77-3.368C17.144,19.136,16.931,18.54,16.432,18.304z"/>
</g>
<g>
</g>
<g>
</g>
<g>
</g>
<g>
</g>
<g>
</g>
<g>
</g>
<g>
</g>
<g>
</g>
<g>
</g>
<g>
</g>
<g>
</g>
<g>
</g>
<g>
</g>
<g>
</g>
<g>
</g>
</svg>
