<?xml version="1.0" encoding="iso-8859-1"?>
<!-- Generator: Adobe Illustrator 16.0.0, SVG Export Plug-In . SVG Version: 6.00 Build 0)  -->
<!DOCTYPE svg PUBLIC "-//W3C//DTD SVG 1.1//EN" "http://www.w3.org/Graphics/SVG/1.1/DTD/svg11.dtd">
<svg version="1.1" id="Capa_1" xmlns="http://www.w3.org/2000/svg" xmlns:xlink="http://www.w3.org/1999/xlink" x="0px" y="0px"
	 width="286.744px" height="286.743px" viewBox="0 0 286.744 286.743" style="enable-background:new 0 0 286.744 286.743;"
	 xml:space="preserve">
<g>
	<g>
		<path d="M47.203,278.707c3.557,5.157,9.32,8.036,15.249,8.036c3.219,0,6.48-0.839,9.445-2.594l141.298-83.72
			c1.388,3.246,2.258,6.332,2.082,8.621c-0.265,3.283-1.279,7.721-2.273,12.014c-2.512,10.889-5.105,22.146,0.559,30.929
			c2.771,4.298,7.167,7.244,12.366,8.284c1.211,0.244,2.449,0.373,3.66,0.373c4.977,0,9.637-2.061,13.138-5.799
			c8.435-9.041,8.497-27.791,7.782-38.163c-0.041-0.616-0.135-1.228-0.254-1.828c-2.355-11.148-3.749-25.077-3.241-34.471
			l20.992-12.442c8.818-5.22,11.729-16.606,6.509-25.422c-5.225-8.824-16.622-11.729-25.425-6.506l-0.767,0.45L69.903,34.307
			c1.696-3.117,2.889-4.973,3.213-5.46c5.663-8.505,3.392-19.995-5.103-25.696C59.508-2.559,47.971-0.296,42.26,8.215
			c-2.931,4.357-70.925,108.572-1.515,262.818C42.198,274.264,44.476,276.843,47.203,278.707z M59.213,58.735l162.893,93.263
			L69.018,242.709C35.145,158.75,46.731,94.076,59.213,58.735z"/>
		<circle cx="82.988" cy="187.934" r="12.593"/>
		<circle cx="151.922" cy="152.143" r="12.593"/>
		<circle cx="82.988" cy="115.366" r="21.209"/>
		<path d="M79.706,145.354c-3.705,0-10.955,5.629-4.039,5.629C79.372,150.979,86.621,145.354,79.706,145.354z"/>
		<path d="M79.006,222.244c-2.206,0-11.697,4.283-6.618,4.283C74.595,226.527,84.086,222.244,79.006,222.244z"/>
		<path d="M116.266,175.46c4.523,0,10.625-6.871,3.697-6.871C115.445,168.589,109.342,175.46,116.266,175.46z"/>
		<path d="M191.157,158.88c4.521,0,10.636-6.855,3.708-6.855C190.354,152.024,184.234,158.88,191.157,158.88z"/>
		<path d="M126.591,122.053c3.148,0,11.127-4.769,4.267-4.769C127.709,117.279,119.73,122.053,126.591,122.053z"/>
		<path d="M122.932,191.647c-2.979,0-11.169,4.505-4.329,4.505C121.578,196.152,129.765,191.647,122.932,191.647z"/>
		<path d="M66.605,80.258c5.799,0,7.904-7.348,0.953-7.348C61.758,72.91,59.653,80.258,66.605,80.258z"/>
	</g>
</g>
<g>
</g>
<g>
</g>
<g>
</g>
<g>
</g>
<g>
</g>
<g>
</g>
<g>
</g>
<g>
</g>
<g>
</g>
<g>
</g>
<g>
</g>
<g>
</g>
<g>
</g>
<g>
</g>
<g>
</g>
</svg>
