<?xml version="1.0" encoding="iso-8859-1"?>
<!-- Generator: Adobe Illustrator 16.0.0, SVG Export Plug-In . SVG Version: 6.00 Build 0)  -->
<!DOCTYPE svg PUBLIC "-//W3C//DTD SVG 1.1//EN" "http://www.w3.org/Graphics/SVG/1.1/DTD/svg11.dtd">
<svg version="1.1" id="Capa_1" xmlns="http://www.w3.org/2000/svg" xmlns:xlink="http://www.w3.org/1999/xlink" x="0px" y="0px"
	 width="79.542px" height="79.541px" viewBox="0 0 79.542 79.541" style="enable-background:new 0 0 79.542 79.541;"
	 xml:space="preserve">
<g>
	<path style="fill:#010002;" d="M79.523,46.593h0.011c-0.228,5.872-2.227,12.236-5.297,18.107c0,0-7.327,14.841-30.336,14.841
		c-23.007,0-30.466-14.711-30.466-14.711c-3.076-5.897-4.942-12.221-5.176-18.232h0.016c-0.01-0.165-0.016-0.315-0.016-0.471
		c0-2.822,1.745-5.463,4.751-7.741l3.203,2.05c-1.983,1.331-3.13,2.817-3.13,4.396c0,5.557,13.797,10.066,30.818,10.066
		c17.018,0,30.812-4.51,30.812-10.066c0-3.845-6.617-7.185-16.331-8.88l0.046-4.042c12.434,2.434,21.111,7.873,21.111,14.217
		C79.539,46.282,79.534,46.433,79.523,46.593z M20.104,22.662c-0.122,0.945-0.277,2.454,0.885,4.513
		c1.442,2.491,3.288,3.351,3.886,3.775c-0.101-0.642,0.075-2.561-1.276-4.893c-1.167-2.095-2.439-3.024-3.197-3.749
		c-2.128-3.071-4.528-5.53-6.359-7.472l-4.357-4.528c-0.005,0,1.564,1.815,4.176,4.678C15.651,17,18.02,19.55,20.104,22.662z
		 M31.012,46.629c0.932,0.875,2.11,2.314,4.735,3.77c2.936,1.642,5.419,1.642,6.255,1.828c-0.471-0.767-1.421-3.194-4.666-4.991
		c-2.662-1.466-4.65-1.182-5.875-0.975c-4.016-2.34-7.456-4.727-10.234-6.441c-3.966-2.444-6.542-3.689-6.532-3.689
		c-0.01,0.005,2.499,1.375,6.379,3.94C23.742,41.837,27.061,44.263,31.012,46.629z M33.381,33.85
		c-0.318,1.082-0.774,2.832,0.249,5.408c1.227,3.151,3.267,4.461,3.899,5.057c0.005-0.771,0.541-2.957-0.616-5.919
		c-1.022-2.63-2.354-3.94-3.117-4.906c-1.988-3.938-4.412-7.21-6.273-9.755l-4.448-5.999l4.205,6.131
		C29.086,26.507,31.447,29.867,33.381,33.85z M25.904,40.244c0.886,0.785,2.017,2.11,4.492,3.418
		c2.768,1.455,5.08,1.403,5.854,1.554c-0.456-0.694-1.401-2.918-4.454-4.526c-2.503-1.305-4.344-1.018-5.478-0.805
		c-3.78-2.105-7.029-4.27-9.634-5.833c-3.738-2.227-6.162-3.35-6.146-3.361c-0.01,0.011,2.346,1.256,5.994,3.594
		C19.038,35.897,22.184,38.108,25.904,40.244z M20.565,33.945c0.833,0.722,1.903,1.932,4.209,3.086
		c2.589,1.31,4.73,1.22,5.453,1.347c-0.435-0.635-1.354-2.657-4.199-4.094c-2.335-1.165-4.037-0.87-5.08-0.668
		c-3.537-1.893-6.576-3.865-9.01-5.281c-3.482-2.025-5.743-3.048-5.732-3.058c-0.011,0.015,2.19,1.144,5.6,3.27
		C14.155,30.013,17.088,32.026,20.565,33.945z M15.125,24.777c1.559,1.396,3.048,1.476,3.886,1.75
		c-0.181-0.678-0.026-2.363-1.802-3.945c-1.522-1.303-3.055-1.409-3.839-1.468c-6.258-5.359-11.804-8.808-13.08-9.624l-0.288-0.197
		c-0.046,0.044,6.066,4.073,13.225,10.351C13.456,22.424,13.875,23.708,15.125,24.777z M15.02,27.736
		c0.774,0.658,1.771,1.761,3.917,2.789c2.387,1.188,4.365,1.066,5.033,1.173c-0.42-0.572-1.295-2.388-3.92-3.689
		c-2.167-1.036-3.726-0.777-4.687-0.58c-3.277-1.701-6.082-3.511-8.344-4.771c-3.221-1.862-5.321-2.763-5.315-2.773
		c0,0.011,2.048,1.013,5.191,2.97C9.075,24.164,11.791,26.002,15.02,27.736z M26.924,28.076c-0.223,1.012-0.526,2.651,0.582,4.963
		c1.341,2.832,3.309,3.907,3.923,4.412c-0.052-0.704,0.282-2.757-0.969-5.414c-1.124-2.354-2.423-3.479-3.187-4.321
		c-2.079-3.5-4.492-6.374-6.354-8.611l-4.422-5.261l4.209,5.403C22.528,21.569,24.892,24.529,26.924,28.076z M51.515,34.096
		c-0.704,0.693-1.802,1.843-2.154,4.23c-0.44,2.899,0.523,4.735,0.74,5.444c0.337-0.575,1.693-2.02,2.118-4.756
		c0.357-2.429-0.078-3.977-0.233-5.03c0.197-3.824-0.232-7.319-0.554-10.028c-0.477-3.946-0.823-6.4-0.818-6.4l0.569,6.405
		C51.432,26.719,51.779,30.266,51.515,34.096z M49.262,27.594c-0.61,0.684-1.554,1.818-1.734,4.049
		c-0.218,2.711,0.787,4.35,1.036,4.997c0.273-0.557,1.439-1.988,1.651-4.534c0.181-2.281-0.315-3.682-0.528-4.645
		c-0.041-3.544-0.632-6.744-1.077-9.227l-1.093-5.87l0.875,5.885C48.76,20.78,49.278,24.037,49.262,27.594z M46.642,21.22
		c-0.518,0.663-1.314,1.771-1.336,3.835c-0.031,2.514,1.008,3.956,1.279,4.533c0.207-0.541,1.176-1.932,1.212-4.29
		c0.025-2.105-0.513-3.351-0.771-4.226c-0.262-3.257-0.981-6.162-1.538-8.414l-1.336-5.331l1.123,5.362
		C45.767,14.996,46.43,17.947,46.642,21.22z M51.256,50.983c0.403-0.59,1.973-2.029,2.63-4.939c0.57-2.579,0.207-4.272,0.109-5.417
		c0.471-4.093,0.223-7.886,0.041-10.817c-0.274-4.274-0.508-6.931-0.508-6.931l0.244,6.925c0.093,2.975,0.248,6.809-0.29,10.9
		c-0.803,0.707-2.056,1.859-2.6,4.386C50.2,48.167,51.075,50.202,51.256,50.983z M38.176,17.031c0.321,0.733,0.649,1.877,1.838,3.34
		c1.311,1.667,2.768,2.221,3.219,2.524c-0.102-0.557-0.083-2.177-1.525-4.002c-1.199-1.479-2.413-1.802-3.177-1.973
		c-1.755-2.338-3.141-4.585-4.332-6.268c-1.667-2.429-2.863-3.78-2.853-3.79c-0.01,0.005,1.113,1.421,2.692,3.891
		C35.152,12.445,36.457,14.693,38.176,17.031z M39.3,14.895c0.642,1.538,1.68,2.095,2.19,2.566c0.106-0.552,0.81-1.74,0.088-3.49
		c-0.634-1.458-1.711-2.04-2.252-2.343C36.7,5.626,33.922,1.261,33.286,0.233L33.148,0c-0.046,0.016,2.939,4.994,5.885,11.972
		C38.927,12.614,38.774,13.696,39.3,14.895z M41.93,27.084c1.403,1.815,2.98,2.455,3.462,2.783c-0.091-0.608-0.036-2.39-1.585-4.388
		c-1.273-1.628-2.604-1.983-3.433-2.175c-1.888-2.561-3.376-5.01-4.632-6.856c-1.8-2.641-3.056-4.129-3.056-4.143
		c0,0.008,1.184,1.566,2.885,4.254c1.178,1.852,2.576,4.301,4.412,6.866C40.328,24.226,40.677,25.461,41.93,27.084z M43.636,14.996
		c-0.419,0.647-1.062,1.706-0.955,3.593c0.16,2.307,1.188,3.547,1.471,4.057c0.152-0.5,0.958-1.851,0.811-4.008
		c-0.102-1.926-0.694-3.029-0.981-3.813c-0.45-2.946-1.315-5.551-1.947-7.576l-1.548-4.774c-0.005,0,0.489,1.856,1.364,4.821
		C42.422,9.365,43.233,12.021,43.636,14.996z M41.617,29.805c0.35,0.88,0.699,2.221,2.02,3.987c1.483,1.988,3.172,2.713,3.685,3.086
		c-0.083-0.668,0.016-2.605-1.616-4.79c-1.346-1.792-2.772-2.188-3.671-2.405c-1.988-2.801-3.562-5.463-4.888-7.472
		c-1.908-2.869-3.254-4.498-3.249-4.503c-0.005,0.005,1.245,1.699,3.06,4.624C38.197,24.342,39.675,27.004,41.617,29.805z
		 M22.315,47.323c-0.005,0.01,2.196,1.258,5.636,3.687c0.244,0.052,0.482,0.108,0.733,0.16C24.83,48.602,22.31,47.328,22.315,47.323
		z M49.775,52.164c-0.518-0.808-1.057-1.403-1.595-1.854c-0.181-0.497-0.367-0.963-0.567-1.367c1.168,1.191,2.261,1.781,2.664,2.113
		c0-0.052,0-0.124,0-0.202c0.146,0.471,0.275,0.947,0.42,1.434c0.223-0.02,0.44-0.03,0.658-0.051
		c-0.404-1.378-0.85-2.714-1.337-3.978c-0.171-0.683-0.45-1.429-0.9-2.227c-0.43-0.999-0.859-1.957-1.284-2.868
		c0.522,0.357,0.942,0.596,1.16,0.766c-0.067-0.725,0.104-2.821-1.604-5.214c-1.002-1.398-2.078-2.024-2.959-2.364l-2.703-5.258
		c-0.005,0,0.881,1.918,2.4,5.152c-0.228-0.073-0.44-0.138-0.624-0.192c-2.079-3.047-3.718-5.937-5.119-8.111
		c-1.994-3.102-3.417-4.862-3.407-4.868c-0.005,0.011,1.315,1.836,3.208,5c1.292,2.18,2.84,5.064,4.852,8.109
		c0.359,0.942,0.709,2.395,2.081,4.332c0.647,0.906,1.326,1.569,1.947,2.074c0.233,0.533,0.481,1.083,0.725,1.657
		c-1.165-1.17-2.338-1.548-3.132-1.781c-0.229-0.354-0.445-0.704-0.663-1.054c-1.342-2.874-2.778-5.414-3.982-7.529
		c-2.651-4.64-4.378-7.482-4.368-7.482l4.06,7.609c0.308,0.572,0.626,1.193,0.965,1.823c-0.445-0.761-0.87-1.478-1.266-2.136
		c-2.068-3.35-3.565-5.248-3.56-5.253c-0.011,0.011,1.38,1.976,3.337,5.391c1.149,2.009,2.476,4.583,4.13,7.355
		c0.728,1.618,1.421,3.332,2.029,5.145c-0.163,0.373-0.354,0.828-0.518,1.377c-1.83-3.133-3.314-6.029-4.645-8.262
		c-0.43-0.743-0.829-1.39-1.199-1.993c-1.675-3.441-3.591-6.4-5.134-8.779c-2.692-4.158-4.433-6.724-4.427-6.724l4.158,6.856
		c1.781,2.954,4.114,6.734,5.911,11.141c-0.417,1.139-1.033,2.988-0.127,5.831c1.093,3.464,3.182,5.022,3.819,5.711
		c0.057-0.776,0.709-2.874-0.06-5.841c0.479,0.891,0.981,1.817,1.527,2.76c-0.228,1.072-0.28,2.413,0.132,4.127
		c1.725-0.016,3.42-0.072,5.088-0.187C49.832,52.288,49.811,52.227,49.775,52.164z M25.529,45.728
		c-4.184-2.682-6.916-4.041-6.908-4.046c-0.008,0.005,2.638,1.494,6.726,4.306c2.372,1.631,5.267,3.795,8.596,6.001
		c0.415,0.052,0.834,0.083,1.248,0.124C31.442,49.751,28.19,47.432,25.529,45.728z M55.683,47.39
		c0.787-4.354,0.73-8.445,0.73-11.599l-0.15-7.461c-0.005,0-0.072,2.848-0.135,7.441c-0.088,3.197-0.135,7.316-0.994,11.661
		c-0.906,0.694-2.304,1.849-3.097,4.5c-0.021,0.088-0.03,0.165-0.052,0.253c1.201-0.113,2.367-0.248,3.511-0.403
		C55.87,49.824,55.705,48.39,55.683,47.39z"/>
</g>
<g>
</g>
<g>
</g>
<g>
</g>
<g>
</g>
<g>
</g>
<g>
</g>
<g>
</g>
<g>
</g>
<g>
</g>
<g>
</g>
<g>
</g>
<g>
</g>
<g>
</g>
<g>
</g>
<g>
</g>
</svg>
