<?xml version="1.0" encoding="iso-8859-1"?>
<!-- Generator: Adobe Illustrator 18.0.0, SVG Export Plug-In . SVG Version: 6.00 Build 0)  -->
<!DOCTYPE svg PUBLIC "-//W3C//DTD SVG 1.1//EN" "http://www.w3.org/Graphics/SVG/1.1/DTD/svg11.dtd">
<svg version="1.1" id="Capa_1" xmlns="http://www.w3.org/2000/svg" xmlns:xlink="http://www.w3.org/1999/xlink" x="0px" y="0px"
	 viewBox="0 0 295.996 295.996" style="enable-background:new 0 0 295.996 295.996;" xml:space="preserve">
<g>
	<path d="M147.998,0C66.392,0,0,66.392,0,147.998c0,30.934,9.546,59.677,25.838,83.45c-0.591,2.508-0.896,5.101-0.886,7.743
		c0.032,8.814,3.495,17.065,9.752,23.275c6.227,6.181,14.476,9.53,23.244,9.53c0.042,0,0.085,0,0.126,0
		c2.666,0,5.28-0.321,7.806-0.935c23.512,15.74,51.761,24.934,82.118,24.934c81.606,0,147.998-66.392,147.998-147.998
		S229.605,0,147.998,0z M147.998,279.996c-24.187,0-46.872-6.546-66.387-17.948l5.161-5.191l18.572-18.682
		c12.961,6.13,27.415,9.578,42.652,9.578c55.557,0,100.756-45.756,100.756-100.756h-16c0,46-38.021,84.756-84.756,84.756
		s-84.756-38.756-84.756-84.756h-16c0,16.153,3.903,31.508,10.818,45.141l-23.355,23.523c-1.28-2.137-2.501-4.313-3.662-6.525
		C21.442,190.847,16,170.048,16,147.998C16,75.214,75.214,16,147.998,16c34.523,0,65.987,13.328,89.533,35.102
		c12.208,11.288,22.289,24.844,29.558,39.997c8.27,17.238,12.907,36.537,12.907,56.899
		C279.996,220.782,220.782,279.996,147.998,279.996z M40.951,239.156c-0.017-4.541,1.736-8.817,4.936-12.04l20.791-20.945
		c6.722,9.191,14.955,17.227,24.333,23.721l-20.994,21.131c-3.198,3.223-7.461,4.975-12.002,4.975c-0.022,0-0.043,0-0.065,0
		c-4.517,0-8.768-1.703-11.975-4.887C42.753,247.911,40.968,243.697,40.951,239.156z"/>
	<path d="M49.657,93.284c-0.1,1.025-0.16,2.092-0.16,3.213c0,19.059,30.181,42.432,36.231,46.923l4.769,3.541l4.769-3.541
		c6.051-4.491,36.231-27.864,36.231-46.923c0-9.929-4.199-16.098-7.723-19.524c-4.585-4.461-10.68-6.917-17.16-6.917
		c-5.802,0-11.64,2.089-16.117,6.176c-4.478-4.087-10.315-6.176-16.117-6.176c-2,0-3.962,0.235-5.854,0.689
		c-4.243,1.019-8.136,3.143-11.307,6.227C54.094,80.012,50.443,85.217,49.657,93.284z M98.497,95.997
		c0-9.225,6.213-9.941,8.117-9.941c4.098,0,8.883,2.734,8.883,10.441c0,5.234-9.858,18.135-25,30.378
		c-15.142-12.243-25-25.144-25-30.378c0-7.707,4.785-10.441,8.883-10.441c1.904,0,8.117,0.717,8.117,9.941H98.497z"/>
	<path d="M221.614,70.056c-5.802,0-11.64,2.089-16.117,6.176c-4.477-4.087-10.315-6.176-16.117-6.176
		c-6.481,0-12.575,2.456-17.161,6.916c-3.522,3.427-7.722,9.597-7.722,19.525c0,19.059,30.181,42.432,36.231,46.923l4.769,3.541
		l4.769-3.541c6.051-4.491,36.231-27.864,36.231-46.923c0-9.929-4.199-16.098-7.723-19.524
		C234.189,72.512,228.095,70.056,221.614,70.056z M213.497,95.997c0-9.225,6.213-9.941,8.117-9.941
		c4.098,0,8.883,2.734,8.883,10.441c0,5.234-9.858,18.135-25,30.378c-15.142-12.243-25-25.144-25-30.378
		c0-7.707,4.785-10.441,8.883-10.441c1.904,0,8.117,0.717,8.117,9.941H213.497z"/>
</g>
<g>
</g>
<g>
</g>
<g>
</g>
<g>
</g>
<g>
</g>
<g>
</g>
<g>
</g>
<g>
</g>
<g>
</g>
<g>
</g>
<g>
</g>
<g>
</g>
<g>
</g>
<g>
</g>
<g>
</g>
</svg>
