<?xml version="1.0" encoding="iso-8859-1"?>
<!-- Generator: Adobe Illustrator 16.0.0, SVG Export Plug-In . SVG Version: 6.00 Build 0)  -->
<!DOCTYPE svg PUBLIC "-//W3C//DTD SVG 1.1//EN" "http://www.w3.org/Graphics/SVG/1.1/DTD/svg11.dtd">
<svg version="1.1" id="Capa_1" xmlns="http://www.w3.org/2000/svg" xmlns:xlink="http://www.w3.org/1999/xlink" x="0px" y="0px"
	 width="290.3px" height="290.301px" viewBox="0 0 290.3 290.301" style="enable-background:new 0 0 290.3 290.301;"
	 xml:space="preserve">
<g>
	<g>
		<path d="M132.055,174.368h1.533v64.623c-23.962,2.697-41.819,12.986-41.819,25.295c0,14.364,24.296,26.015,54.27,26.015
			c29.969,0,54.27-11.65,54.27-26.015c0-12.614-18.739-23.12-43.6-25.502v-64.416h1.532c77.91-42.354,59.61-125.696,48.151-159.548
			C203.576,6.501,193.509,0,184.727,0h-79.15C96.79,0,86.726,6.501,83.904,14.82C72.453,48.677,54.148,132.014,132.055,174.368z
			 M89.468,53.12c0-5.672,25.015-10.276,55.876-10.276c30.859,0,55.875,4.604,55.875,10.276s-25.016,10.276-55.875,10.276
			C114.483,63.391,89.468,58.792,89.468,53.12z M92.442,63.566c12.8,5.411,36.571,6.437,52.695,6.437
			c16.293,0,40.387-1.051,53.094-6.612c2.937,19.374,8.021,82.917-50.311,89.463h-5.149C84.626,146.336,89.494,83.153,92.442,63.566
			z"/>
	</g>
</g>
<g>
</g>
<g>
</g>
<g>
</g>
<g>
</g>
<g>
</g>
<g>
</g>
<g>
</g>
<g>
</g>
<g>
</g>
<g>
</g>
<g>
</g>
<g>
</g>
<g>
</g>
<g>
</g>
<g>
</g>
</svg>
