<?xml version="1.0" encoding="iso-8859-1"?>
<!-- Generator: Adobe Illustrator 18.1.1, SVG Export Plug-In . SVG Version: 6.00 Build 0)  -->
<svg version="1.1" id="Capa_1" xmlns="http://www.w3.org/2000/svg" xmlns:xlink="http://www.w3.org/1999/xlink" x="0px" y="0px"
	 viewBox="0 0 19.503 19.503" style="enable-background:new 0 0 19.503 19.503;" xml:space="preserve">
<g>
	<path d="M7.676,10.931c0,0.717,0.985,1.102,1.912,1.102c0.929,0,1.915-0.385,1.915-1.102c0-0.664-0.854-1.046-1.719-1.096
		L9.727,6.522H9.452L9.397,9.837C8.529,9.885,7.676,10.267,7.676,10.931z M9.802,11.027l-0.013-0.895
		c0.953,0.054,1.526,0.484,1.526,0.799c0,0.336-0.654,0.807-1.725,0.807c-1.068,0-1.724-0.471-1.724-0.807
		c0-0.314,0.575-0.746,1.525-0.799l-0.015,0.895H9.802z M18.58,7.787c-0.678-0.534-2.109-1.108-2.663-1.305
		c-0.554-0.199-1.937-0.473-1.937-0.473l-0.187-0.198V5.177l-0.151-0.276h-0.68l-0.939-1.126h-1.647l0.007,0.016H10.34v1.928
		l0.18,0.586c0,0,1.139,0,1.203,0c0.043,0.083,1.016,1.933,1.016,1.933V8.235v0.004l1.119,0.297V8.531
		c0.052,0.007,1.02,0.143,2.047,0.835c0.816,0.552,1.066,1.178,1.091,1.245c-0.183,0.125-0.453,0.295-0.763,0.436
		c-0.567,0.258-1.686,0.455-1.686,0.455l-0.062,0.316l1.373,2.684l-6.131-0.627L3.648,14.5l1.372-2.682l-0.064-0.316
		c0,0-1.119-0.197-1.684-0.455c-0.311-0.143-0.581-0.311-0.763-0.436c0.025-0.066,0.275-0.691,1.093-1.245
		c1.025-0.693,1.994-0.828,2.045-0.835v0.005l1.118-0.297V8.234l0.001,0.002c0,0,0.971-1.85,1.015-1.933c0.067,0,1.206,0,1.206,0
		l0.179-0.586V3.791H9.122l0.004-0.016H7.481L6.539,4.901H5.86L5.709,5.177v0.632L5.522,6.008c0,0-1.382,0.274-1.936,0.473
		C3.035,6.678,1.602,7.253,0.922,7.787C0.439,8.167-0.06,8.874,0.006,9.728v3.043l0.02,0.035c0.032,0.055,0.755,1.275,1.828,1.693
		l-0.146,0.197l-0.332,0.035v0.996h16.751v-0.996l-0.333-0.033l-0.145-0.199c1.006-0.393,1.695-1.477,1.807-1.658
		c0.014-0.018,0.025-0.035,0.025-0.035v-0.01l0.016-0.025V9.728C19.563,8.874,19.063,8.167,18.58,7.787z M11.749,6.067h-1.112v-1.6
		h1.098l0.015,0.021L11.749,6.067L11.749,6.067z M7.754,4.487l0.014-0.021h1.097v1.6H7.754V4.487z M5.445,6.622
		c0.126-0.028,0.202-0.041,0.202-0.041v1.897L5.639,8.295c-0.003,0-0.073,0.011-0.193,0.034V6.622H5.445z M4.494,6.875
		c0.099-0.033,0.199-0.06,0.292-0.087V8.52C4.694,8.553,4.597,8.59,4.494,8.634V6.875z M3.458,7.283
		C3.505,7.26,3.549,7.236,3.6,7.214C3.654,7.186,3.71,7.16,3.769,7.136v1.866C3.693,9.048,3.618,9.098,3.542,9.149
		c-0.03,0.02-0.056,0.038-0.083,0.058L3.458,7.283L3.458,7.283z M2.442,8.015C2.484,7.97,2.577,7.876,2.731,7.753v2.14
		c-0.145,0.184-0.231,0.342-0.289,0.454V8.015z M14.057,8.329c-0.119-0.023-0.189-0.034-0.19-0.034l-0.011,0.184V6.581
		c0,0,0.076,0.014,0.201,0.041C14.057,6.622,14.057,8.329,14.057,8.329z M15.01,8.633c-0.102-0.043-0.199-0.081-0.293-0.115V6.787
		c0.094,0.028,0.193,0.054,0.293,0.088V8.633z M16.046,9.207c-0.028-0.02-0.055-0.039-0.083-0.058
		c-0.077-0.051-0.152-0.1-0.229-0.146V7.136c0.059,0.024,0.115,0.05,0.17,0.078c0.048,0.022,0.095,0.046,0.141,0.069L16.046,9.207
		L16.046,9.207z M17.063,10.351c-0.056-0.111-0.143-0.271-0.291-0.458v-2.14c0.158,0.125,0.252,0.221,0.291,0.265V10.351z"/>
</g>
<g>
</g>
<g>
</g>
<g>
</g>
<g>
</g>
<g>
</g>
<g>
</g>
<g>
</g>
<g>
</g>
<g>
</g>
<g>
</g>
<g>
</g>
<g>
</g>
<g>
</g>
<g>
</g>
<g>
</g>
</svg>
