<?xml version='1.0' encoding='iso-8859-1'?>
<svg version="1.1" xmlns="http://www.w3.org/2000/svg" viewBox="0 0 306.376 306.376" xmlns:xlink="http://www.w3.org/1999/xlink" enable-background="new 0 0 306.376 306.376">
  <g>
    <g>
      <circle cx="133.426" cy="25.907" r="25.907"/>
      <path d="m238.526,247.933c-0.04,0-0.082,0-0.123,0-5.523,0.023-9.98,4.519-9.958,10.042 0.023,5.508 4.496,9.958 9.999,9.958 0.027,0 0.055,0 0.081,0 2.429,0 4.714,0.94 6.439,2.651 1.734,1.72 2.695,4.013 2.705,6.456 0.011,2.441-0.931,4.741-2.65,6.476-1.721,1.734-4.013,2.695-6.455,2.706l-25.096,.105c-1.786,7.739-5.757,14.652-11.236,20.048l36.416-.153c7.785-0.033 15.091-3.096 20.572-8.623 5.482-5.528 8.482-12.859 8.449-20.643-0.066-16.03-13.128-29.023-29.143-29.023z"/>
      <path d="m173.278,247.644c-0.005,0-0.01,0-0.015,0-5.523,0.023-9.981,4.52-9.958,10.043 0.023,5.508 4.495,9.957 9.997,9.957h0.002c0.029,0 0.058,0 0.083,0 5.025,0 9.12,4.051 9.143,9.105 0.021,5.042-4.064,9.161-9.106,9.183l-59.822,.251 14.115-54.789c0.263-1.02 0.418-2.064 0.462-3.115l2-47.791c0.009-0.211-0.005-0.417-0.005-0.627h5.079l15.699,42.801-8.524,51.399 16.184-.068c-4.459-4.012-7.278-9.813-7.306-16.256-0.051-12.131 9.776-22.042 21.907-22.094h0.025 0.026 0.016c1.979,0 3.935,0.142 5.86,0.412l2.055-12.389c0.425-2.559 0.178-5.185-0.715-7.619l-14.083-38.397v-88.09c0-1.122 0.801-2.084 1.905-2.287s2.195,0.411 2.594,1.46c0.354,0.931 0.697,2.074 1.015,3.474 2.48,10.921 6.34,30.466 6.38,30.661 0.898,4.413 4.102,8.002 8.385,9.395 4.213,1.371 8.933,0.42 12.306-2.669l10.419-9.541-12.561,122.936c9.38,6.526 15.626,16.52 17.259,27.844l17.481-171.09 1.867-1.709c5.092-4.662 5.439-12.569 0.777-17.66-0.193-0.211-0.4-0.401-0.604-0.596l1.333-13.051c0.561-5.494-3.438-10.403-8.932-10.965-5.498-0.558-10.403,3.438-10.965,8.932l-1.835,17.964-14.889,13.632c-0.704-3.363-1.395-6.624-1.986-9.363-3.524-16.314-15.025-26.856-29.299-26.856h-23.633-9.975-33.632c-16.23,0-29.5,13.204-29.581,29.395-0.089,11.043-0.038,4.678-0.241,29.992-0.03,3.891 1.836,7.831 5.224,10.259 0.023,0.016 0.042,0.036 0.065,0.053 28.564,20.169 24.555,17.338 42.939,30.321 5.64,3.983 13.44,2.637 17.421-3.001 3.982-5.64 2.639-13.439-3.001-17.421-13.937-9.841-9.495-6.704-37.598-26.549 0.089-11.026 0.099-12.258 0.189-23.49 0.007-1.368 1.12-2.472 2.487-2.468 1.367,0.004 2.473,1.113 2.473,2.48v12.423l10.787,7.617 2.515-5.412c5.111-11.005 18.206-15.804 29.222-10.683 11.026,5.123 15.807,18.194 10.681,29.222l-6.822,14.681c4.643,7.931 4.673,18.305-1.131,26.522-3.77,5.339-9.502,8.903-15.842,10.003l-2.717,5.848-37.848,81.447-6.442,25.004-5.188,.022c-9.554,20.56-8.823,19.04-9.367,20.04l105.475-.442c16.069-0.068 29.088-13.197 29.022-29.268-0.067-15.836-12.822-29.022-29.251-29.022z"/>
      <path d="m142.507,117.752c2.328-5.008 0.154-10.955-4.854-13.282-1.364-0.634-2.798-0.935-4.209-0.935-3.771,0-7.381,2.144-9.073,5.789l-3.435,7.393 16.604,11.725 4.967-10.69z"/>
      <path d="m111.292,170.389l-11.344-8.011-60.308,129.781c-2.328,5.008-0.154,10.955 4.854,13.282 4.999,2.324 10.952,0.161 13.282-4.855l59.131-127.248c-1.972-0.733-3.861-1.71-5.615-2.949z"/>
    </g>
  </g>
</svg>
