<?xml version="1.0" encoding="iso-8859-1"?>
<!-- Generator: Adobe Illustrator 16.0.0, SVG Export Plug-In . SVG Version: 6.00 Build 0)  -->
<!DOCTYPE svg PUBLIC "-//W3C//DTD SVG 1.1//EN" "http://www.w3.org/Graphics/SVG/1.1/DTD/svg11.dtd">
<svg version="1.1" id="Capa_1" xmlns="http://www.w3.org/2000/svg" xmlns:xlink="http://www.w3.org/1999/xlink" x="0px" y="0px"
	 width="25.998px" height="25.998px" viewBox="0 0 25.998 25.998" style="enable-background:new 0 0 25.998 25.998;"
	 xml:space="preserve">
<g>
	<path d="M12.08,4.104L12.08,4.104L12.08,4.104L12.08,4.104z M21.877,9.029c-0.566,3.689-2.797,5.49-5.764,3.999
		c1.193-0.747,1.268-3.354,1.268-3.354s-0.847,0.604-1.146,0.784c0,0-0.348-0.363-0.893-0.637c-0.544-0.274-1.043-0.336-1.043-0.336
		c-0.033-0.348-0.055-1.388-0.055-1.388s-2.048,1.615-1.936,3.018C9.343,9.624,9.457,6.759,12.08,4.104
		C10.502,3.31,3.681,3.032,0,8.992c3.743-1.6,6.053,2.559,5.007,4.637c2.836,0,3.602,3.692,1.711,5.132
		c3.826,0,2.309,2.716,2.342,3.555c1.239-1.953,3.375-2.609,3.959-0.493c0.721-2.656,4.008-3.467,5.771-1.579
		c1.076-1.555,5.353-1.854,6.369,1.397C27.816,15.168,23.455,9.822,21.877,9.029z"/>
</g>
<g>
</g>
<g>
</g>
<g>
</g>
<g>
</g>
<g>
</g>
<g>
</g>
<g>
</g>
<g>
</g>
<g>
</g>
<g>
</g>
<g>
</g>
<g>
</g>
<g>
</g>
<g>
</g>
<g>
</g>
</svg>
