<?xml version="1.0" encoding="iso-8859-1"?>
<!-- Generator: Adobe Illustrator 19.0.0, SVG Export Plug-In . SVG Version: 6.00 Build 0)  -->
<svg version="1.1" id="Layer_1" xmlns="http://www.w3.org/2000/svg" xmlns:xlink="http://www.w3.org/1999/xlink" x="0px" y="0px"
	 viewBox="0 0 490 490" style="enable-background:new 0 0 490 490;" xml:space="preserve">
<g id="XMLID_536_">
	<g>
		<path d="M260,150.168V110h109.271l-27.5-55l27.5-55H230v150.168L2.821,466.145L0,470.167V490h475l15-0.1v-19.833L260,150.168z
			 M260,30h60.729l-12.5,25l12.5,25H260V30z M245,180.695l94.541,131.495l-36.1,24.595L245,296.771l-58.441,40.014l-36.1-24.595
			L245,180.695z M44.188,460l88.753-123.444l53.66,36.56L245,333.129l58.399,39.986l53.66-36.56L445.813,460H44.188z"/>
	</g>
</g>
<g>
</g>
<g>
</g>
<g>
</g>
<g>
</g>
<g>
</g>
<g>
</g>
<g>
</g>
<g>
</g>
<g>
</g>
<g>
</g>
<g>
</g>
<g>
</g>
<g>
</g>
<g>
</g>
<g>
</g>
</svg>
