<?xml version="1.0" encoding="iso-8859-1"?>
<!-- Generator: Adobe Illustrator 17.1.0, SVG Export Plug-In . SVG Version: 6.00 Build 0)  -->
<!DOCTYPE svg PUBLIC "-//W3C//DTD SVG 1.1//EN" "http://www.w3.org/Graphics/SVG/1.1/DTD/svg11.dtd">
<svg version="1.1" id="Capa_1" xmlns="http://www.w3.org/2000/svg" xmlns:xlink="http://www.w3.org/1999/xlink" x="0px" y="0px"
	 viewBox="0 0 211.474 211.474" style="enable-background:new 0 0 211.474 211.474;" xml:space="preserve">
<g>
	<path d="M91.53,160.161c-11.559,0-21.534-3.864-28.845-11.176c-8.903-8.902-12.683-21.795-10.645-36.304
		c2.002-14.247,9.404-28.394,20.845-39.833c13.584-13.585,30.822-21.377,47.293-21.377c11.559,0,21.534,3.864,28.845,11.176
		c18.179,18.18,13.603,52.335-10.201,76.138C125.238,152.37,108,160.161,91.53,160.161z M120.179,56.471
		c-14.932,0-31.29,7.444-43.758,19.912c-10.677,10.678-17.577,23.815-19.428,36.994c-1.815,12.916,1.462,24.307,9.228,32.072
		c6.354,6.354,15.105,9.711,25.31,9.711c14.931,0,31.289-7.443,43.757-19.911c21.854-21.854,26.43-52.837,10.201-69.067
		C139.135,59.83,130.383,56.471,120.179,56.471z"/>
	<path d="M183.928,74.856c-0.243,0-0.481-0.005-0.717-0.017c-6.428-0.303-12.675-3.579-17.694-6.211
		c-2.512-1.317-4.884-2.563-6.505-2.99c-0.958-0.253-2.115-0.381-3.438-0.381c-2.305,0-4.624,0.387-6.164,0.711
		c-0.143,0.03-0.276,0.104-0.386,0.214c-0.807,0.806-2.057,0.964-3.038,0.385c-0.269-0.158-0.499-0.361-0.685-0.595
		c-0.234-0.187-0.438-0.417-0.598-0.687c-0.58-0.982-0.422-2.232,0.385-3.039c0.109-0.109,0.183-0.243,0.213-0.386
		c0.475-2.254,1.15-6.496,0.33-9.603c-0.428-1.621-1.672-3.994-2.99-6.506c-2.632-5.019-5.908-11.266-6.211-17.693
		c-0.362-7.668,5.359-19.028,8.802-25.117c1.067-1.886,3.108-3.016,5.278-2.938c4.602,0.193,10.618,1.134,13.144,4.521
		c1.554,2.083,1.942,4.085,2.318,6.02c0.443,2.279,0.861,4.432,3.311,7.352c2.37,2.823,5.394,4.262,8.319,5.653
		c1.807,0.859,3.676,1.748,5.326,2.94c0.108,0.078,0.211,0.166,0.306,0.261l0.082,0.082c4.335,3.342,5.692,6.897,6.786,9.762
		c0.833,2.182,1.491,3.905,3.27,5.389c2.927,2.442,5.079,2.864,7.357,3.31c1.935,0.379,3.935,0.771,6.019,2.324
		c3.387,2.526,4.328,8.543,4.521,13.145c0.091,2.179-1.035,4.201-2.939,5.278C203.639,68.689,191.874,74.856,183.928,74.856z
		 M155.573,60.258c1.754,0,3.341,0.184,4.715,0.547c2.167,0.572,4.662,1.881,7.551,3.396c4.583,2.403,10.285,5.395,15.607,5.646
		c0.158,0.008,0.318,0.011,0.481,0.011c6.948,0,18.549-6.254,21.939-8.17c0.262-0.148,0.417-0.423,0.405-0.717
		c-0.239-5.691-1.504-8.592-2.515-9.346c-1.171-0.873-2.354-1.104-3.989-1.425c-2.534-0.496-5.688-1.113-9.6-4.377
		c-2.78-2.32-3.82-5.043-4.737-7.445c-1.013-2.654-1.97-5.16-5.277-7.669c-0.092-0.069-0.178-0.146-0.259-0.227l-0.05-0.051
		c-1.253-0.875-2.778-1.601-4.389-2.367c-3.249-1.545-6.932-3.297-10.001-6.954c-3.281-3.911-3.895-7.072-4.389-9.611
		c-0.317-1.635-0.547-2.815-1.418-3.983c-0.754-1.012-3.654-2.276-9.345-2.515c-0.001,0-0.001,0-0.002,0
		c-0.313,0-0.573,0.155-0.714,0.404c-1.996,3.529-8.482,15.579-8.16,22.419c0.251,5.323,3.242,11.025,5.645,15.607
		c1.516,2.89,2.824,5.385,3.396,7.553c0.814,3.085,0.603,6.69,0.137,9.687C152.088,60.44,153.82,60.258,155.573,60.258z"/>
	<path d="M61.206,211.474c-0.081,0-0.161-0.002-0.242-0.005c-4.602-0.193-10.618-1.134-13.144-4.521
		c-1.554-2.083-1.942-4.085-2.318-6.02c-0.443-2.279-0.861-4.432-3.311-7.352c-2.371-2.825-5.396-4.264-8.321-5.654
		c-1.806-0.859-3.674-1.747-5.324-2.939c-0.109-0.078-0.211-0.166-0.306-0.261l-0.082-0.082c-4.335-3.342-5.692-6.897-6.786-9.762
		c-0.833-2.182-1.491-3.905-3.27-5.389c-2.927-2.442-5.079-2.864-7.357-3.31c-1.935-0.379-3.935-0.771-6.019-2.325
		c-3.387-2.525-4.328-8.541-4.521-13.144c-0.091-2.179,1.035-4.201,2.939-5.278c4.833-2.732,17.181-9.212,25.117-8.802
		c6.429,0.303,12.675,3.579,17.694,6.212c2.512,1.317,4.885,2.563,6.506,2.99c0.958,0.252,2.115,0.381,3.439,0.381
		c2.306,0,4.624-0.387,6.163-0.711c0.141-0.03,0.275-0.104,0.386-0.215c0.806-0.808,2.055-0.965,3.04-0.385
		c0.27,0.159,0.5,0.363,0.687,0.599c0.234,0.187,0.438,0.418,0.597,0.688c0.577,0.982,0.418,2.23-0.388,3.035
		c-0.109,0.109-0.183,0.243-0.213,0.386c-0.475,2.253-1.15,6.496-0.33,9.601c0.428,1.622,1.673,3.996,2.991,6.509
		c2.632,5.019,5.907,11.265,6.21,17.691c0.362,7.671-5.359,19.029-8.802,25.117C65.215,210.346,63.286,211.474,61.206,211.474z
		 M31.631,181.043c1.252,0.875,2.776,1.6,4.387,2.365c3.25,1.546,6.933,3.297,10.003,6.957c3.281,3.91,3.895,7.071,4.389,9.61
		c0.317,1.635,0.547,2.815,1.418,3.983c0.754,1.012,3.654,2.276,9.345,2.515l0.033,0.001c0.28,0,0.542-0.155,0.683-0.405
		c1.996-3.529,8.483-15.577,8.16-22.42c-0.251-5.321-3.242-11.023-5.645-15.605c-1.516-2.891-2.825-5.387-3.397-7.555
		c-0.814-3.084-0.603-6.689-0.136-9.686c-1.485,0.229-3.217,0.412-4.97,0.412c-1.754,0-3.34-0.185-4.715-0.547
		c-2.167-0.572-4.663-1.881-7.552-3.396c-4.582-2.403-10.285-5.395-15.607-5.646c-6.889-0.303-18.95,6.199-22.42,8.16
		c-0.262,0.148-0.417,0.423-0.405,0.717c0.239,5.691,1.503,8.591,2.514,9.345c1.172,0.874,2.354,1.105,3.991,1.426
		c2.534,0.496,5.687,1.113,9.599,4.377c2.781,2.32,3.82,5.043,4.737,7.445c1.013,2.654,1.97,5.16,5.277,7.669
		c0.092,0.069,0.178,0.146,0.259,0.227L31.631,181.043z"/>
	<path d="M64.053,150.118c-0.199,0-0.399-0.023-0.596-0.072c-0.849-0.208-1.528-0.846-1.79-1.68
		c-0.181-0.577-4.393-14.229-1.616-23.843c2.779-9.619,2.905-9.745,3.435-10.274c0.976-0.977,2.56-0.977,3.535,0
		c0.765,0.765,0.931,1.901,0.497,2.828c-0.104,0.279-0.633,1.808-2.663,8.834c-1.523,5.273-0.442,12.403,0.53,16.839l16.501-16.5
		c0.976-0.977,2.56-0.977,3.535,0c0.977,0.977,0.977,2.559,0,3.535l-19.601,19.601C65.347,149.86,64.708,150.118,64.053,150.118z"/>
	<path d="M80.666,153.676c-7.959,0-15.815-2.425-16.249-2.561c-1.317-0.413-2.05-1.814-1.638-3.132
		c0.412-1.317,1.812-2.057,3.132-1.64c0.127,0.039,12.8,3.938,20.96,1.584c7.927-2.29,9.05-2.636,9.185-2.679
		c1.259-0.427,2.646,0.214,3.13,1.47c0.497,1.288-0.145,2.735-1.433,3.231c-0.107,0.042-0.39,0.151-9.495,2.78
		C85.888,153.416,83.271,153.676,80.666,153.676z"/>
	<path d="M146.855,98.516c-0.64,0-1.28-0.244-1.768-0.732c-0.765-0.765-0.931-1.901-0.497-2.828
		c0.104-0.279,0.633-1.808,2.663-8.834c1.523-5.273,0.442-12.403-0.53-16.839l-16.501,16.5c-0.976,0.977-2.56,0.977-3.535,0
		c-0.977-0.977-0.977-2.559,0-3.535l19.601-19.601c0.618-0.618,1.518-0.87,2.364-0.66c0.849,0.208,1.528,0.846,1.79,1.68
		c0.181,0.577,4.393,14.229,1.616,23.843c-2.779,9.619-2.905,9.745-3.435,10.274C148.135,98.272,147.495,98.516,146.855,98.516z"/>
	<path d="M115.255,66.916c-1.006,0-1.955-0.612-2.335-1.608c-0.493-1.289,0.152-2.734,1.442-3.228
		c0.106-0.041,0.387-0.148,9.488-2.777c9.614-2.776,23.266,1.437,23.842,1.616c1.317,0.413,2.05,1.814,1.638,3.132
		c-0.413,1.316-1.813,2.053-3.132,1.64c-0.127-0.039-12.803-3.94-20.96-1.585c-7.949,2.297-9.057,2.639-9.188,2.68
		C115.787,66.874,115.519,66.916,115.255,66.916z"/>
	<path d="M55.309,183.189c-1.229,0-2.299-0.905-2.473-2.156c-0.041-0.29-0.976-7.201-0.006-15.348
		c0.316-2.658,1.07-5.236,1.961-7.532c-2.803,1.206-6.154,2.059-9.814,1.837c-9.32-0.57-19.731-2.785-20.17-2.879
		c-1.35-0.289-2.209-1.618-1.92-2.968c0.29-1.351,1.624-2.211,2.968-1.921c0.104,0.022,10.491,2.23,19.429,2.777
		c7.947,0.49,14.402-5.977,14.466-6.042c0.916-0.931,2.396-1.001,3.395-0.161c0.999,0.842,1.184,2.308,0.422,3.368
		c-0.047,0.066-4.918,6.951-5.771,14.112c-0.895,7.513-0.015,14.004-0.006,14.068c0.19,1.367-0.765,2.63-2.132,2.82
		C55.54,183.181,55.424,183.189,55.309,183.189z"/>
	<path d="M148.896,66.02c-0.573,0-1.147-0.196-1.612-0.589c-0.931-0.785-1.161-2.127-0.544-3.177
		c0.064-0.108,6.374-10.942,6.203-18.979c-0.193-9.071,1.682-17.246,1.762-17.59c0.313-1.345,1.654-2.179,3-1.868
		c1.345,0.312,2.182,1.655,1.87,3c-0.018,0.078-1.812,7.93-1.633,16.353c0.096,4.494-1.389,9.484-3.005,13.539
		c3.89-1.921,8.835-3.543,13.809-2.957c8.507,0.997,15.089-3.975,15.155-4.025c1.096-0.843,2.664-0.636,3.506,0.457
		c0.842,1.095,0.637,2.664-0.457,3.506c-0.333,0.257-8.279,6.266-18.788,5.027c-8.401-0.977-17.562,6.637-17.653,6.715
		C150.042,65.824,149.469,66.02,148.896,66.02z"/>
</g>
<g>
</g>
<g>
</g>
<g>
</g>
<g>
</g>
<g>
</g>
<g>
</g>
<g>
</g>
<g>
</g>
<g>
</g>
<g>
</g>
<g>
</g>
<g>
</g>
<g>
</g>
<g>
</g>
<g>
</g>
</svg>
