<?xml version="1.0" encoding="iso-8859-1"?>
<!-- Generator: Adobe Illustrator 18.0.0, SVG Export Plug-In . SVG Version: 6.00 Build 0)  -->
<!DOCTYPE svg PUBLIC "-//W3C//DTD SVG 1.1//EN" "http://www.w3.org/Graphics/SVG/1.1/DTD/svg11.dtd">
<svg version="1.1" id="Capa_1" xmlns="http://www.w3.org/2000/svg" xmlns:xlink="http://www.w3.org/1999/xlink" x="0px" y="0px"
	 viewBox="0 0 44 44" style="enable-background:new 0 0 44 44;" xml:space="preserve">
<g>
	<path d="M44,22c0-8.725-5.106-16.28-12.487-19.835c-0.004-0.002-0.006-0.007-0.01-0.009c-0.012-0.007-0.027-0.007-0.039-0.013
		C28.595,0.77,25.386,0,22,0c-3.298,0-6.47,0.712-9.429,2.117C4.935,5.746,0,13.55,0,22c0,12.131,9.869,22,22,22
		c5.838,0,11.148-2.29,15.091-6.014c0.377-0.035,0.719-0.275,0.852-0.656c0.026-0.075,0.023-0.151,0.031-0.227
		C41.705,33.159,44,27.844,44,22z M42,22c0,5.308-2.093,10.127-5.479,13.711c-1.955-0.908-6.958-3.721-9.091-9.508
		c-2.181-5.922-0.839-13.271,3.967-21.847C37.7,7.726,42,14.368,42,22z M2,22C2,14.63,6.136,7.81,12.602,4.354
		c4.924,8.772,6.339,16.257,4.185,22.249c-2.325,6.467-8.192,9.074-9.028,9.416C4.202,32.408,2,27.458,2,22z M9.366,37.488
		c2.139-1.041,7.064-4.016,9.292-10.177c2.365-6.54,0.928-14.551-4.249-23.82C16.815,2.502,19.363,2,22,2
		c2.684,0,5.243,0.54,7.584,1.503c-5.055,9.072-6.415,16.949-4.02,23.419c2.186,5.904,6.88,8.98,9.411,10.268
		C31.479,40.181,26.952,42,22,42C17.211,42,12.813,40.305,9.366,37.488z"/>
	<path d="M11.467,26.627c1.445,0,2.754-0.524,3.593-1.579v-0.001c1.717-2.157,0.831-5.728-1.973-7.959
		c-1.314-1.046-2.859-1.657-4.353-1.722c-1.604-0.075-2.978,0.493-3.847,1.586c-0.87,1.093-1.112,2.551-0.683,4.105
		c0.398,1.44,1.341,2.81,2.654,3.854C8.293,26.053,9.955,26.627,11.467,26.627z M6.452,18.197c0.433-0.543,1.146-0.837,2.021-0.837
		c0.058,0,0.116,0.001,0.175,0.004c1.074,0.047,2.208,0.504,3.193,1.288c1.909,1.519,2.666,3.877,1.654,5.149
		c-1.012,1.274-3.482,1.063-5.39-0.454c-0.986-0.784-1.687-1.787-1.973-2.823C5.878,19.604,5.991,18.777,6.452,18.197z"/>
	<path d="M30.859,17.088c-1.313,1.045-2.256,2.414-2.654,3.854c-0.43,1.554-0.188,3.012,0.683,4.104
		c0.821,1.033,2.085,1.593,3.581,1.593c0.088,0,0.177-0.002,0.266-0.006c1.493-0.064,3.038-0.676,4.353-1.722
		c2.804-2.231,3.689-5.802,1.973-7.96C37.341,14.794,33.663,14.856,30.859,17.088z M37.495,18.197
		c1.012,1.273,0.255,3.631-1.654,5.15c-0.985,0.784-2.119,1.241-3.193,1.288c-0.948,0.051-1.734-0.254-2.195-0.833v-0.001
		c-0.461-0.579-0.574-1.405-0.319-2.326c0.286-1.036,0.986-2.039,1.973-2.823c1.067-0.85,2.31-1.289,3.374-1.289
		C36.319,17.363,37.048,17.637,37.495,18.197z"/>
</g>
<g>
</g>
<g>
</g>
<g>
</g>
<g>
</g>
<g>
</g>
<g>
</g>
<g>
</g>
<g>
</g>
<g>
</g>
<g>
</g>
<g>
</g>
<g>
</g>
<g>
</g>
<g>
</g>
<g>
</g>
</svg>
