<?xml version="1.0" encoding="iso-8859-1"?>
<!-- Generator: Adobe Illustrator 16.0.0, SVG Export Plug-In . SVG Version: 6.00 Build 0)  -->
<!DOCTYPE svg PUBLIC "-//W3C//DTD SVG 1.1//EN" "http://www.w3.org/Graphics/SVG/1.1/DTD/svg11.dtd">
<svg version="1.1" id="Capa_1" xmlns="http://www.w3.org/2000/svg" xmlns:xlink="http://www.w3.org/1999/xlink" x="0px" y="0px"
	 width="47.706px" height="47.706px" viewBox="0 0 47.706 47.706" style="enable-background:new 0 0 47.706 47.706;"
	 xml:space="preserve">
<g>
	<g id="Watermelon">
		<path d="M23.833,47.706c-0.004,0-0.009,0-0.014,0c-6.346,0-12.316-2.483-16.811-6.994C2.495,36.182,0.02,30.165,0.041,23.77
			c0.002-0.552,0.449-0.998,1-0.998h4.998c0.552,0,1,0.449,1,1c0,0.553-0.448,1-1,1H2.06C2.286,30.259,4.523,35.385,8.425,39.3
			c4.117,4.13,9.584,6.405,15.395,6.405c0.004,0,0.009,0,0.013,0c11.684,0,21.263-9.311,21.808-20.959h-3.412c-0.552,0-1-0.448-1-1
			c0-0.553,0.448-1,1-1h4.437c0.267,0,0.521,0.105,0.708,0.293c0.188,0.188,0.292,0.443,0.292,0.708
			C47.639,36.962,36.949,47.706,23.833,47.706z"/>
		<path d="M24.263,43.037c-0.001,0-0.002,0-0.003,0c-5.148-0.001-9.988-2.005-13.626-5.645c-3.638-3.639-5.642-8.477-5.641-13.623
			c0-0.552,0.448-1,1-1h21.803c0.553,0,1,0.448,1,1c0,0.553-0.447,1-1,1H7.021c0.239,4.236,2.002,8.186,5.026,11.209
			c3.261,3.261,7.598,5.057,12.212,5.058c0.001,0,0.002,0,0.003,0c4.61,0,8.945-1.796,12.206-5.058
			c3.025-3.024,4.79-6.974,5.029-11.209h-6.604c-0.553,0-1-0.447-1-1c0-0.552,0.447-1,1-1h7.632c0.552,0,1,0.448,1,1
			c0.001,5.146-2.003,9.983-5.644,13.625C34.245,41.032,29.407,43.037,24.263,43.037z"/>
		<g>
			<g>
				<path d="M25.05,37.268c0,0.633-0.489,1.092-1.093,1.092s-1.093-0.463-1.093-1.092c0-0.627,0.818-2.016,1.075-2.459
					C23.939,34.807,25.05,36.695,25.05,37.268z"/>
				<path d="M23.958,38.609c-0.753,0-1.343-0.59-1.343-1.342c0-0.596,0.576-1.666,1.078-2.533c0.044-0.076,0.142-0.15,0.231-0.151
					c0.001,0,0.001,0,0.002,0c0.088,0,0.186,0.021,0.23,0.097c0.191,0.324,1.145,1.978,1.145,2.586
					C25.3,38.02,24.71,38.609,23.958,38.609z M23.939,35.311c-0.322,0.571-0.825,1.521-0.825,1.957c0,0.48,0.362,0.842,0.843,0.842
					s0.843-0.361,0.843-0.842C24.8,36.973,24.35,36.048,23.939,35.311z"/>
			</g>
			<g>
				<path d="M20.357,36.844c-0.218,0.596-0.835,0.858-1.402,0.652c-0.565-0.207-0.868-0.811-0.652-1.4
					c0.214-0.59,1.458-1.615,1.853-1.943C20.156,34.152,20.553,36.307,20.357,36.844z"/>
				<path d="M19.345,37.816c-0.161,0-0.32-0.028-0.474-0.084c-0.708-0.26-1.06-1.016-0.802-1.723
					c0.205-0.562,1.118-1.375,1.891-2.019c0.069-0.058,0.18-0.091,0.263-0.058c0.083,0.029,0.163,0.086,0.179,0.174
					c0.068,0.371,0.398,2.25,0.191,2.822C20.396,37.468,19.906,37.816,19.345,37.816z M19.982,34.626
					c-0.859,0.739-1.335,1.254-1.445,1.556c-0.165,0.45,0.052,0.916,0.503,1.08c0.441,0.16,0.919-0.061,1.082-0.503
					C20.224,36.482,20.116,35.459,19.982,34.626z"/>
			</g>
			<g>
				<path d="M16.09,34.842c-0.405,0.484-1.075,0.52-1.539,0.133c-0.461-0.388-0.538-1.059-0.135-1.539
					c0.403-0.481,1.923-1.019,2.405-1.191C16.821,32.244,16.459,34.402,16.09,34.842z"/>
				<path d="M15.263,35.488c-0.313,0-0.623-0.114-0.872-0.322c-0.577-0.484-0.649-1.314-0.166-1.893
					c0.385-0.459,1.521-0.909,2.468-1.25c0.083-0.029,0.198-0.021,0.267,0.035c0.068,0.058,0.123,0.139,0.108,0.227
					c-0.062,0.372-0.394,2.25-0.787,2.718C16.023,35.311,15.652,35.488,15.263,35.488z M16.499,32.629
					c-1.06,0.4-1.684,0.721-1.89,0.967c-0.308,0.367-0.264,0.877,0.104,1.187c0.354,0.296,0.887,0.254,1.187-0.103
					C16.088,34.455,16.337,33.457,16.499,32.629z"/>
			</g>
			<g>
				<path d="M12.769,31.5c-0.548,0.316-1.19,0.121-1.493-0.4c-0.3-0.522-0.144-1.18,0.4-1.494c0.543-0.312,2.155-0.299,2.669-0.297
					C14.345,29.309,13.263,31.213,12.769,31.5z"/>
				<path d="M12.212,31.902c-0.477,0-0.908-0.254-1.154-0.678c-0.375-0.654-0.159-1.459,0.492-1.836
					c0.386-0.223,1.226-0.33,2.565-0.33h0.192c0.089,0,0.189,0.047,0.234,0.125c0.044,0.076,0.063,0.172,0.02,0.248
					c-0.186,0.328-1.142,1.979-1.668,2.284C12.683,31.838,12.446,31.902,12.212,31.902z M13.909,29.559
					c-1.455,0.014-1.944,0.17-2.108,0.264c-0.416,0.24-0.548,0.734-0.309,1.152c0.233,0.401,0.739,0.545,1.151,0.31
					C12.91,31.129,13.49,30.257,13.909,29.559z"/>
			</g>
			<g>
				<path d="M27.187,36.844c0.218,0.596,0.835,0.858,1.401,0.652c0.566-0.207,0.868-0.811,0.652-1.4
					c-0.213-0.59-1.458-1.615-1.853-1.943C27.39,34.152,26.993,36.307,27.187,36.844z"/>
				<path d="M28.201,37.816c-0.562,0-1.051-0.349-1.249-0.887c-0.207-0.572,0.123-2.451,0.191-2.822
					c0.016-0.088,0.078-0.16,0.161-0.19s0.177-0.013,0.244,0.043c0.812,0.677,1.725,1.487,1.929,2.05
					c0.258,0.706-0.095,1.463-0.803,1.721C28.521,37.788,28.362,37.816,28.201,37.816z M27.562,34.626
					c-0.128,0.804-0.245,1.845-0.141,2.133c0.162,0.441,0.639,0.663,1.083,0.503c0.451-0.166,0.667-0.63,0.502-1.08
					C28.897,35.877,28.412,35.355,27.562,34.626z"/>
			</g>
			<g>
				<path d="M31.455,34.842c0.405,0.484,1.075,0.52,1.539,0.133c0.462-0.388,0.538-1.059,0.135-1.539
					c-0.403-0.481-1.922-1.019-2.404-1.191C30.724,32.244,31.085,34.402,31.455,34.842z"/>
				<path d="M32.283,35.488c-0.39,0-0.761-0.178-1.02-0.485c-0.394-0.467-0.725-2.346-0.786-2.717
					c-0.016-0.088,0.018-0.177,0.086-0.233c0.066-0.057,0.161-0.074,0.245-0.043c0.985,0.354,2.124,0.805,2.512,1.266
					c0.237,0.283,0.349,0.634,0.313,0.99c-0.032,0.35-0.203,0.67-0.479,0.901C32.906,35.374,32.596,35.488,32.283,35.488z
					 M31.046,32.628c0.154,0.799,0.4,1.815,0.6,2.052c0.299,0.356,0.831,0.399,1.188,0.103c0.174-0.146,0.282-0.349,0.304-0.566
					c0.021-0.221-0.051-0.44-0.2-0.62C32.729,33.348,32.092,33.021,31.046,32.628z"/>
			</g>
			<g>
				<path d="M34.777,31.5c0.548,0.316,1.189,0.121,1.493-0.4c0.3-0.522,0.144-1.18-0.4-1.494c-0.543-0.312-2.154-0.299-2.668-0.297
					C33.202,29.309,34.283,31.213,34.777,31.5z"/>
				<path d="M35.333,31.902L35.333,31.902c-0.233,0-0.47-0.063-0.681-0.187c-0.526-0.305-1.481-1.957-1.667-2.284
					c-0.044-0.076-0.043-0.172,0.001-0.248c0.044-0.078,0.126-0.125,0.215-0.125h0.229c1.339,0,2.178,0.107,2.563,0.332
					c0.651,0.375,0.867,1.181,0.492,1.832C36.241,31.648,35.809,31.902,35.333,31.902z M33.638,29.559
					c0.418,0.698,0.998,1.57,1.265,1.726c0.136,0.079,0.281,0.118,0.43,0.118l0,0c0.296,0,0.565-0.16,0.722-0.43
					c0.238-0.416,0.105-0.91-0.31-1.149C35.582,29.729,35.091,29.572,33.638,29.559z"/>
			</g>
		</g>
		<path d="M31.364,27.43c-1.943,0-3.772-1.355-4.449-3.297c-0.179-0.514,0.092-1.076,0.606-1.254
			c0.514-0.18,1.075,0.092,1.254,0.605c0.405,1.164,1.469,1.977,2.588,1.977c1.247,0,2.251-1.009,2.598-2.006
			c0.18-0.514,0.739-0.789,1.254-0.606c0.515,0.178,0.785,0.74,0.606,1.254C35.14,26.061,33.307,27.43,31.364,27.43z"/>
		<path d="M27.922,8.798c-0.265,0-0.51-0.139-0.645-0.367c-0.563-0.949-2.403-4.145-2.41-5.424
			c-0.004-0.825,0.307-1.588,0.874-2.149c0.557-0.55,1.306-0.855,2.11-0.858c1.686,0,3,1.309,3.008,2.979
			c0.006,1.272-1.121,3.409-2.224,5.332l-0.063,0.11c-0.132,0.231-0.378,0.375-0.645,0.377C27.927,8.798,27.924,8.798,27.922,8.798z
			 M27.867,1.499c-0.417,0.002-0.795,0.153-1.07,0.425c-0.277,0.275-0.431,0.657-0.429,1.075c0.002,0.477,0.723,2.02,1.549,3.525
			c0.961-1.768,1.446-2.957,1.443-3.539C29.356,2.138,28.713,1.499,27.867,1.499z"/>
		<path d="M20.809,16.041c-0.053,0-0.107-0.006-0.161-0.018c-1.078-0.236-4.668-1.074-5.608-1.944
			c-0.605-0.56-0.951-1.308-0.973-2.105c-0.022-0.782,0.268-1.538,0.815-2.128c1.091-1.179,3.043-1.263,4.23-0.162
			c0.935,0.866,1.754,3.241,2.366,5.231c0.064,0.111,0.101,0.239,0.101,0.376c0,0.417-0.329,0.793-0.759,0.75
			C20.815,16.041,20.812,16.041,20.809,16.041z M17.079,10.373c-0.414,0-0.803,0.175-1.097,0.493
			c-0.279,0.301-0.427,0.68-0.416,1.067c0.011,0.391,0.186,0.763,0.493,1.046c0.35,0.324,1.97,0.852,3.634,1.276
			c-0.634-1.908-1.171-3.073-1.601-3.471C17.802,10.515,17.452,10.373,17.079,10.373z"/>
		<path d="M38.21,15.971c-0.189,0-0.376-0.073-0.518-0.208c-0.193-0.185-0.273-0.457-0.211-0.717
			c0.256-1.073,1.161-4.647,2.046-5.571c1.134-1.18,3.064-1.208,4.236-0.082c0.577,0.556,0.909,1.293,0.933,2.078
			c0.023,0.797-0.277,1.563-0.847,2.155c-0.893,0.928-3.318,1.709-5.332,2.287l-0.101,0.028C38.35,15.961,38.28,15.971,38.21,15.971
			z M41.68,10.041c-0.396,0-0.776,0.168-1.07,0.474c-0.33,0.344-0.887,1.954-1.342,3.609c2.358-0.738,3.213-1.236,3.501-1.537
			c0.288-0.299,0.439-0.68,0.428-1.072c-0.011-0.389-0.179-0.758-0.473-1.04C42.433,10.195,42.062,10.041,41.68,10.041z"/>
	</g>
	<g>
	</g>
	<g>
	</g>
	<g>
	</g>
	<g>
	</g>
	<g>
	</g>
	<g>
	</g>
	<g>
	</g>
	<g>
	</g>
	<g>
	</g>
	<g>
	</g>
	<g>
	</g>
	<g>
	</g>
	<g>
	</g>
	<g>
	</g>
	<g>
	</g>
</g>
<g>
</g>
<g>
</g>
<g>
</g>
<g>
</g>
<g>
</g>
<g>
</g>
<g>
</g>
<g>
</g>
<g>
</g>
<g>
</g>
<g>
</g>
<g>
</g>
<g>
</g>
<g>
</g>
<g>
</g>
</svg>
