<?xml version="1.0" encoding="iso-8859-1"?>
<!-- Generator: Adobe Illustrator 18.1.1, SVG Export Plug-In . SVG Version: 6.00 Build 0)  -->
<svg version="1.1" id="Capa_1" xmlns="http://www.w3.org/2000/svg" xmlns:xlink="http://www.w3.org/1999/xlink" x="0px" y="0px"
	 viewBox="0 0 58.008 58.008" style="enable-background:new 0 0 58.008 58.008;" xml:space="preserve">
<g>
	<path style="fill:#030104;" d="M54.498,30.22c1.936,0,3.51-1.573,3.51-3.51c0-1.935-1.574-3.51-3.51-3.51
		c-1.937,0-3.51,1.575-3.51,3.51c0,0.806,0.282,1.54,0.74,2.135l-6.693,7.456c-1.908-1.842-4.103-3.354-6.506-4.467l6.635-16.228
		c1.904-0.034,3.444-1.59,3.444-3.502c0-1.938-1.573-3.511-3.51-3.511s-3.511,1.573-3.511,3.511c0,1.312,0.734,2.445,1.805,3.047
		l-6.539,15.988c-2.158-0.802-4.453-1.298-6.826-1.444l-0.305-6.991c1.73-0.217,3.079-1.68,3.079-3.466
		c0-1.937-1.574-3.51-3.511-3.51c-1.936,0-3.51,1.573-3.51,3.51c0,1.448,0.883,2.693,2.138,3.229l0.262,7.186
		c-2.315,0.032-4.57,0.393-6.709,1.055l-3.872-15.413c1.216-0.551,2.067-1.771,2.067-3.19c0-1.938-1.575-3.511-3.511-3.511
		s-3.51,1.573-3.51,3.511c0,1.815,1.392,3.297,3.161,3.475l3.916,15.75c-1.802,0.716-3.498,1.655-5.065,2.78L6.409,23.968
		c0.386-0.564,0.611-1.243,0.611-1.974c0-1.938-1.574-3.511-3.51-3.511c-1.935,0-3.51,1.573-3.51,3.511
		c0,1.934,1.575,3.51,3.51,3.51c0.547,0,1.06-0.138,1.521-0.361l8.199,10.08c-1.894,1.593-3.542,3.488-4.88,5.634
		c-0.495-0.262-1.051-0.422-1.65-0.422c-2.007,0-3.641,1.633-3.641,3.641h0.112c-0.392,0.332-0.646,0.822-0.646,1.375v2.152
		c0,0.998,0.812,1.812,1.811,1.812h48.463c0.999,0,1.812-0.813,1.812-1.812v-2.152c0-0.742-0.45-1.381-1.092-1.658
		c-0.147-1.873-1.702-3.355-3.612-3.355c-0.457,0-0.887,0.102-1.287,0.258c-0.696-1.096-1.477-2.125-2.326-3.082l6.873-7.656
		C53.577,30.125,54.026,30.22,54.498,30.22z M45.1,10.406c0.938,0,1.698,0.76,1.698,1.698c0,0.936-0.761,1.698-1.698,1.698
		s-1.698-0.763-1.698-1.698C43.402,11.166,44.163,10.406,45.1,10.406z M16.158,13.803c-0.937,0-1.698-0.763-1.698-1.698
		c0-0.939,0.762-1.698,1.698-1.698c0.937,0,1.698,0.76,1.698,1.698C17.856,13.04,17.094,13.803,16.158,13.803z M3.51,23.692
		c-0.937,0-1.698-0.763-1.698-1.698c0-0.938,0.762-1.7,1.698-1.7c0.938,0,1.699,0.762,1.699,1.7
		C5.209,22.93,4.448,23.692,3.51,23.692z M27.594,19.238c0-0.938,0.762-1.7,1.698-1.7c0.937,0,1.699,0.762,1.699,1.7
		c0,0.937-0.762,1.698-1.699,1.698C28.356,20.937,27.594,20.175,27.594,19.238z M6.7,42.316c0.26,0,0.497,0.07,0.718,0.174
		c-0.194,0.377-0.379,0.761-0.555,1.149H5C5.196,42.88,5.88,42.316,6.7,42.316z M49.909,42.316c0.819,0,1.504,0.564,1.698,1.323
		h-1.414c-0.194-0.428-0.386-0.856-0.603-1.271C49.696,42.351,49.797,42.316,49.909,42.316z M49.7,45.509
		c0.125,0,0.246-0.02,0.354-0.059h2.745l0.002,2.15H4.336v-2.15h2.863c0.081,0.035,0.166,0.059,0.254,0.059
		C7.453,45.509,49.694,45.509,49.7,45.509z M10.402,43.639c0.194-0.759,0.88-1.323,1.699-1.323s1.504,0.564,1.699,1.323
		C13.8,43.639,10.402,43.639,10.402,43.639z M15.803,43.639c0.194-0.759,0.879-1.323,1.699-1.323c0.819,0,1.504,0.564,1.698,1.323
		C19.2,43.639,15.803,43.639,15.803,43.639z M21.203,43.639c0.195-0.759,0.88-1.323,1.699-1.323c0.82,0,1.505,0.564,1.699,1.323
		C24.601,43.639,21.203,43.639,21.203,43.639z M26.605,43.639c0.194-0.759,0.879-1.323,1.699-1.323c0.819,0,1.504,0.564,1.698,1.323
		C30.002,43.639,26.605,43.639,26.605,43.639z M32.006,43.639c0.193-0.759,0.879-1.323,1.697-1.323c0.82,0,1.506,0.564,1.699,1.323
		C35.402,43.639,32.006,43.639,32.006,43.639z M37.407,43.639c0.195-0.759,0.881-1.323,1.699-1.323c0.82,0,1.505,0.564,1.699,1.323
		C40.805,43.639,37.407,43.639,37.407,43.639z M42.808,43.639c0.194-0.759,0.879-1.323,1.699-1.323c0.819,0,1.504,0.564,1.698,1.323
		C46.205,43.639,42.808,43.639,42.808,43.639z M48.226,43.601c0.007,0.012,0.015,0.024,0.021,0.038h-0.038
		C48.211,43.625,48.222,43.614,48.226,43.601z M47.022,41.485c-0.654-0.639-1.529-1.051-2.515-1.051
		c-1.076,0-2.033,0.478-2.701,1.221c-0.667-0.743-1.624-1.221-2.7-1.221s-2.033,0.478-2.699,1.221
		c-0.668-0.743-1.625-1.221-2.701-1.221s-2.033,0.478-2.701,1.221c-0.666-0.743-1.625-1.221-2.699-1.221
		c-1.076,0-2.033,0.478-2.7,1.221c-0.668-0.743-1.625-1.221-2.701-1.221c-1.075,0-2.033,0.478-2.7,1.221
		c-0.667-0.743-1.625-1.221-2.7-1.221c-1.076,0-2.033,0.478-2.701,1.221c-0.667-0.743-1.625-1.221-2.7-1.221
		c-0.523,0-1.015,0.115-1.461,0.316c4.065-5.73,10.674-9.303,17.891-9.303C36.133,31.45,43.032,35.258,47.022,41.485z
		 M54.498,25.012c0.937,0,1.697,0.762,1.697,1.698c0,0.938-0.762,1.7-1.697,1.7c-0.938,0-1.699-0.762-1.699-1.7
		C52.799,25.774,53.561,25.012,54.498,25.012z"/>
</g>
<g>
</g>
<g>
</g>
<g>
</g>
<g>
</g>
<g>
</g>
<g>
</g>
<g>
</g>
<g>
</g>
<g>
</g>
<g>
</g>
<g>
</g>
<g>
</g>
<g>
</g>
<g>
</g>
<g>
</g>
</svg>
