<?xml version="1.0" encoding="utf-8"?>
<!-- Generator: Adobe Illustrator 16.0.4, SVG Export Plug-In . SVG Version: 6.00 Build 0)  -->
<!DOCTYPE svg PUBLIC "-//W3C//DTD SVG 1.1//EN" "http://www.w3.org/Graphics/SVG/1.1/DTD/svg11.dtd">
<svg version="1.1" id="Layer_1" xmlns="http://www.w3.org/2000/svg" xmlns:xlink="http://www.w3.org/1999/xlink" x="0px" y="0px"
	 width="32px" height="32px" viewBox="0 0 32 32" enable-background="new 0 0 32 32" preserveAspectRatio="fit">
<g>
	<path d="M16,0.878c-2.397,0-4.669,0.545-6.699,1.519L8.999,0.908L7.337,1.404l0.672,1.69C7.999,3.1,7.988,3.105,7.978,3.112
		L6.089,0L4.323,1.343L6.76,3.93c-3.823,2.836-6.306,7.381-6.306,12.494c0,8.573,6.974,15.547,15.546,15.547
		c8.572,0,15.545-6.974,15.545-15.547C31.546,7.852,24.573,0.878,16,0.878z M16,28.184c-6.484,0-11.758-5.273-11.758-11.76
		c0-0.86,0.093-1.7,0.27-2.509h7.507L11.99,10.75l3.235,3.165h12.263c0.176,0.809,0.27,1.649,0.27,2.509
		C27.758,22.908,22.484,28.184,16,28.184z"/>
	<circle cx="11.585" cy="17.667" r="1.69"/>
	<circle cx="21.091" cy="17.667" r="1.69"/>
	<path d="M16.331,24.464c2.001,0,3.67-1.364,4.198-3.18h-8.396C12.661,23.1,14.33,24.464,16.331,24.464z"/>
</g>
</svg>
