<?xml version="1.0" encoding="iso-8859-1"?>
<!-- Generator: Adobe Illustrator 18.0.0, SVG Export Plug-In . SVG Version: 6.00 Build 0)  -->
<!DOCTYPE svg PUBLIC "-//W3C//DTD SVG 1.1//EN" "http://www.w3.org/Graphics/SVG/1.1/DTD/svg11.dtd">
<svg version="1.1" id="Capa_1" xmlns="http://www.w3.org/2000/svg" xmlns:xlink="http://www.w3.org/1999/xlink" x="0px" y="0px"
	 viewBox="0 0 60.003 60.003" style="enable-background:new 0 0 60.003 60.003;" xml:space="preserve">
<g>
	<path d="M59.796,26.568c-0.402-1.697-1.366-3.156-2.577-3.902c-0.811-0.5-1.678-0.662-2.507-0.461
		c-0.189,0.045-0.371,0.114-0.549,0.198c-2.336-5.685-5.98-9.364-9.727-11.736l1.36-2.72c0.247-0.494,0.047-1.095-0.447-1.342
		c-0.496-0.247-1.095-0.047-1.342,0.447l-1.303,2.605c-0.617-0.327-1.231-0.626-1.837-0.892l0.983-2.95
		c0.175-0.524-0.108-1.091-0.632-1.265c-0.527-0.176-1.091,0.108-1.265,0.632l-0.948,2.844c-0.693-0.248-1.366-0.461-2.011-0.642
		l0.857-2.57c0.175-0.524-0.108-1.091-0.632-1.265c-0.526-0.176-1.091,0.108-1.265,0.632l-0.908,2.724
		C33.779,6.641,32.7,6.496,31.9,6.419V4.5c0-0.553-0.448-1-1-1s-1,0.447-1,1v1.85c-0.525,0.028-1.443,0.102-2.63,0.288l-0.384-2.302
		c-0.091-0.544-0.602-0.918-1.151-0.822c-0.544,0.091-0.913,0.606-0.822,1.15l0.392,2.35c-1.071,0.242-2.258,0.574-3.507,1.02
		l-0.95-2.85c-0.174-0.523-0.739-0.808-1.265-0.632c-0.524,0.174-0.807,0.74-0.632,1.265l0.985,2.954
		c-0.863,0.378-1.742,0.818-2.621,1.322l-1.52-3.04c-0.247-0.494-0.846-0.694-1.342-0.447c-0.494,0.247-0.694,0.848-0.447,1.342
		l1.604,3.208c-0.881,0.601-1.75,1.284-2.595,2.045l-2.408-2.407c-0.391-0.391-1.023-0.391-1.414,0s-0.391,1.023,0,1.414
		l2.388,2.388c-3.076,3.27-5.646,7.833-6.826,14.213c-0.015,0.083-0.025,0.167-0.04,0.25c-0.254-0.07-0.512-0.118-0.776-0.118
		C1.73,28.939,0,31.322,0,34.363s1.73,5.424,3.939,5.424c0.403,0,0.798-0.102,1.177-0.267c0.701,2.671,1.863,5.179,3.459,7.378
		c3.194,4.404,9.468,9.606,21.27,9.606c0.182,0,0.364-0.001,0.548-0.004c0.185,0.003,0.366,0.004,0.548,0.004
		c11.8-0.001,18.075-5.202,21.269-9.606c2.881-3.97,4.346-8.945,4.23-14.076c0.034,0.001,0.07,0.014,0.104,0.014
		c0.227,0,0.452-0.026,0.672-0.079C59.363,32.245,60.497,29.526,59.796,26.568z M4.674,37.489c-0.206,0.166-0.456,0.298-0.734,0.298
		C3.022,37.787,2,36.38,2,34.363s1.022-3.424,1.939-3.424c0.167,0,0.335,0.047,0.504,0.139c-0.049,0.533-0.081,1.066-0.096,1.597
		c-0.001,0.034,0,0.067-0.001,0.101c-0.011,0.445-0.009,0.889,0.004,1.332c0.004,0.136,0.009,0.271,0.015,0.407
		c0.016,0.36,0.042,0.719,0.074,1.076c0.012,0.141,0.021,0.282,0.036,0.422c0.047,0.438,0.106,0.874,0.177,1.307
		C4.66,37.375,4.664,37.433,4.674,37.489z M50.59,45.724c-4.315,5.949-11.099,8.909-20.184,8.776h-0.014h-0.014
		c-9.088,0.138-15.87-2.828-20.185-8.776c-2.062-2.842-3.329-6.255-3.726-9.866c-0.008-0.078-0.01-0.157-0.017-0.235
		c-0.057-0.57-0.089-1.144-0.102-1.721c-0.005-0.252-0.001-0.504,0.002-0.757c0.004-0.406,0.021-0.814,0.047-1.222
		c0.019-0.294,0.039-0.588,0.069-0.883c0.064-0.623,0.138-1.246,0.253-1.869c1.097-5.927,3.437-10.164,6.236-13.199l1.235,1.235
		c0.195,0.195,0.451,0.293,0.707,0.293s0.512-0.098,0.707-0.293c0.391-0.391,0.391-1.023,0-1.414l-1.226-1.226
		c0.684-0.618,1.384-1.179,2.094-1.681l0.531,1.061c0.175,0.351,0.528,0.553,0.896,0.553c0.15,0,0.303-0.034,0.446-0.105
		c0.494-0.247,0.694-0.848,0.447-1.342l-0.627-1.253c0.795-0.464,1.59-0.87,2.372-1.218l0.412,1.235
		c0.14,0.419,0.53,0.684,0.949,0.684c0.104,0,0.211-0.017,0.316-0.052c0.524-0.174,0.807-0.74,0.632-1.265l-0.448-1.344
		c1.147-0.406,2.235-0.704,3.222-0.921l0.291,1.745c0.082,0.489,0.505,0.836,0.985,0.836c0.054,0,0.11-0.004,0.166-0.014
		c0.544-0.091,0.913-0.606,0.822-1.15L27.59,8.558c1.029-0.148,1.824-0.2,2.31-0.219V10.5c0,0.553,0.448,1,1,1s1-0.447,1-1V8.408
		c0.669,0.06,1.53,0.169,2.523,0.359l-0.472,1.417c-0.175,0.524,0.108,1.091,0.632,1.265c0.105,0.035,0.212,0.052,0.316,0.052
		c0.419,0,0.809-0.265,0.949-0.684l0.534-1.603c0.644,0.173,1.32,0.383,2.015,0.629l-0.447,1.341
		c-0.175,0.524,0.108,1.091,0.632,1.265c0.105,0.035,0.212,0.052,0.316,0.052c0.419,0,0.809-0.265,0.949-0.684l0.411-1.232
		c0.526,0.234,1.057,0.495,1.59,0.78l-0.844,1.688c-0.247,0.494-0.047,1.095,0.447,1.342c0.144,0.071,0.296,0.105,0.446,0.105
		c0.367,0,0.72-0.202,0.896-0.553l0.78-1.561c3.519,2.287,6.923,5.857,9.027,11.458l-0.008,0.01l0.182,0.513
		c0.26,0.732,0.485,1.466,0.688,2.208c0.025,0.093,0.052,0.182,0.076,0.276c0.2,0.76,0.377,1.528,0.523,2.32
		c0.124,0.668,0.207,1.337,0.272,2.005c0.011,0.113,0.026,0.223,0.035,0.337C54.794,36.685,53.466,41.76,50.59,45.724z
		 M56.751,30.812c-0.136,0.031-0.281,0.031-0.436,0c-0.004-0.04-0.012-0.076-0.016-0.115c-0.068-0.63-0.153-1.26-0.269-1.89
		c-0.143-0.771-0.31-1.509-0.491-2.228c-0.022-0.086-0.048-0.17-0.071-0.256c-0.178-0.683-0.374-1.341-0.585-1.978
		c-0.006-0.018-0.01-0.036-0.016-0.054c0.101-0.069,0.204-0.116,0.31-0.142c0.379-0.089,0.751,0.068,0.994,0.219
		c0.758,0.467,1.402,1.486,1.68,2.66C58.315,28.993,57.644,30.599,56.751,30.812z"/>
	<path d="M18.105,19.747c-0.565-0.04-1.026,0.384-1.062,0.935c-0.035,0.552,0.384,1.026,0.935,1.062
		c1.315,0.083,2.629,0.768,3.606,1.878c0.42,0.477,0.754,1.006,0.992,1.558c-0.816-0.401-1.712-0.642-2.647-0.701
		c-1.866-0.123-3.666,0.495-5.07,1.732c-0.415,0.365-0.455,0.997-0.09,1.412s0.997,0.455,1.411,0.09
		c1.003-0.884,2.284-1.332,3.622-1.238c1.332,0.084,2.552,0.684,3.435,1.688c0.193,0.219,0.468,0.339,0.75,0.339
		c0.108,0,0.217-0.018,0.323-0.054c0.383-0.131,0.649-0.479,0.675-0.883c0.117-1.84-0.576-3.759-1.9-5.264
		C21.761,20.794,19.946,19.864,18.105,19.747z"/>
	<path d="M40,18.5c-3.86,0-7,3.141-7,7s3.14,7,7,7s7-3.141,7-7S43.86,18.5,40,18.5z M40,30.5c-2.757,0-5-2.243-5-5s2.243-5,5-5
		s5,2.243,5,5S42.757,30.5,40,30.5z"/>
	<circle cx="40" cy="25.5" r="2"/>
	<path d="M33.857,37.363c-1.239,0-2.404,0.549-3.195,1.505c-0.352,0.426-0.292,1.057,0.133,1.408
		c0.425,0.353,1.056,0.291,1.408-0.133c0.41-0.496,1.013-0.78,1.654-0.78c1.182,0,2.143,0.961,2.143,2.143s-0.961,2.144-2.143,2.144
		c-0.504,0-0.976-0.17-1.364-0.491c-0.426-0.35-1.056-0.29-1.408,0.135c-0.352,0.426-0.292,1.056,0.134,1.408
		c0.476,0.393,1.037,0.658,1.629,0.808c0.153,0.115,0.295,0.243,0.414,0.394c0.352,0.452,0.506,1.014,0.436,1.582
		c-0.07,0.567-0.358,1.074-0.81,1.426c-0.452,0.353-1.016,0.508-1.581,0.437c-0.568-0.07-1.075-0.357-1.427-0.809
		c-0.31-0.398-0.466-0.874-0.452-1.378c0.016-0.552-0.419-1.013-0.971-1.028c-0.557,0.029-1.013,0.42-1.028,0.972
		c-0.027,0.96,0.283,1.906,0.874,2.663c0.68,0.873,1.66,1.429,2.758,1.565c0.173,0.021,0.346,0.032,0.518,0.032
		c0.917,0,1.804-0.304,2.538-0.876c0.873-0.68,1.429-1.659,1.565-2.758c0.101-0.818-0.04-1.628-0.4-2.35
		C36.864,44.796,38,43.287,38,41.505C38,39.221,36.142,37.363,33.857,37.363z"/>
</g>
<g>
</g>
<g>
</g>
<g>
</g>
<g>
</g>
<g>
</g>
<g>
</g>
<g>
</g>
<g>
</g>
<g>
</g>
<g>
</g>
<g>
</g>
<g>
</g>
<g>
</g>
<g>
</g>
<g>
</g>
</svg>
