<?xml version="1.0" encoding="iso-8859-1"?>
<!-- Generator: Adobe Illustrator 16.0.0, SVG Export Plug-In . SVG Version: 6.00 Build 0)  -->
<!DOCTYPE svg PUBLIC "-//W3C//DTD SVG 1.1//EN" "http://www.w3.org/Graphics/SVG/1.1/DTD/svg11.dtd">
<svg version="1.1" id="Capa_1" xmlns="http://www.w3.org/2000/svg" xmlns:xlink="http://www.w3.org/1999/xlink" x="0px" y="0px"
	 width="45.906px" height="45.907px" viewBox="0 0 45.906 45.907" style="enable-background:new 0 0 45.906 45.907;"
	 xml:space="preserve">
<g>
	<g>
		<g>
			<path d="M25.753,6.001v-1.12c0-0.495-0.151-0.978-0.405-1.4l-1.546-2.565c-0.177-0.294-0.5-0.476-0.843-0.476
				c-0.344,0-0.665,0.181-0.842,0.476l-1.529,2.565c-0.253,0.422-0.376,0.906-0.376,1.4v1.118c0.882-0.159,1.826-0.241,2.768-0.241
				C23.924,5.758,24.82,5.84,25.753,6.001z"/>
			<path d="M35.959,12.541l0.799-0.798c0.349-0.348,0.599-0.785,0.715-1.263L38.2,7.578c0.082-0.333-0.015-0.687-0.258-0.929
				c-0.242-0.244-0.596-0.341-0.93-0.258l-2.9,0.727c-0.479,0.118-0.916,0.366-1.267,0.715l-0.795,0.798
				C33.568,9.696,34.895,11.021,35.959,12.541z"/>
			<path d="M2.23,22.477l2.565,1.553c0.422,0.253,0.908,0.402,1.401,0.402h1.118c-0.157-0.933-0.24-1.828-0.24-2.771
				c0-0.943,0.083-1.838,0.24-2.77H6.195c-0.493,0-0.979,0.124-1.401,0.377l-2.565,1.535c-0.293,0.177-0.473,0.492-0.473,0.836
				C1.756,21.984,1.936,22.301,2.23,22.477z"/>
			<path d="M39.711,18.891H38.59c0.158,0.932,0.242,1.826,0.242,2.77c0,0.944-0.084,1.838-0.242,2.771h1.121
				c0.493,0,0.977-0.148,1.398-0.402l2.565-1.546c0.295-0.177,0.476-0.499,0.476-0.842c0-0.344-0.181-0.666-0.476-0.843l-2.565-1.53
				C40.688,19.015,40.204,18.891,39.711,18.891z"/>
			<path d="M8.432,10.479c0.121,0.478,0.367,0.916,0.716,1.263l0.797,0.797c1.066-1.52,2.389-2.844,3.91-3.91l-0.797-0.795
				c-0.349-0.348-0.785-0.597-1.264-0.716L8.893,6.392C8.559,6.309,8.207,6.406,7.965,6.65C7.721,6.892,7.624,7.246,7.707,7.578
				L8.432,10.479z"/>
			<path d="M31.956,7.233c0.188-0.455,0.252-0.953,0.181-1.441l-0.434-2.958c-0.049-0.339-0.274-0.629-0.592-0.761
				c-0.315-0.133-0.683-0.088-0.957,0.115l-2.407,1.774c-0.396,0.293-0.708,0.688-0.896,1.144l-0.432,1.033
				c1.84,0.413,3.562,1.144,5.102,2.134L31.956,7.233z"/>
			<path d="M36.355,13.131c0.981,1.544,1.707,3.269,2.108,5.113l1.037-0.428c0.457-0.187,0.854-0.495,1.146-0.892l1.786-2.398
				c0.205-0.275,0.25-0.639,0.12-0.955c-0.13-0.318-0.419-0.544-0.76-0.596l-2.956-0.446c-0.488-0.074-0.984-0.014-1.438,0.173
				L36.355,13.131z"/>
			<path d="M5.279,16.844c0.294,0.397,0.688,0.706,1.143,0.897l1.033,0.431c0.413-1.841,1.144-3.562,2.133-5.102L8.55,12.637
				c-0.454-0.19-0.952-0.252-1.44-0.181l-2.96,0.433c-0.34,0.05-0.627,0.274-0.761,0.592c-0.131,0.316-0.086,0.68,0.116,0.957
				L5.279,16.844z"/>
			<path d="M14.448,8.233c1.543-0.984,3.268-1.707,5.111-2.109l-0.427-1.037c-0.187-0.455-0.496-0.852-0.892-1.146l-2.399-1.784
				c-0.274-0.207-0.638-0.251-0.955-0.121c-0.318,0.13-0.543,0.417-0.595,0.758L13.844,5.75c-0.073,0.488-0.014,0.987,0.174,1.443
				L14.448,8.233z"/>
			<path d="M22.951,8.523c-7.241,0-13.114,5.878-13.114,13.122c0,1.025,0.13,2.002,0.352,2.982h25.524
				c0.223-0.98,0.352-1.958,0.352-2.982C36.066,14.401,30.197,8.523,22.951,8.523z"/>
			<path d="M44.377,27.275H1.53C0.685,27.275,0,27.95,0,28.796c0,0.845,0.685,1.52,1.53,1.52h42.847c0.845,0,1.529-0.675,1.529-1.52
				C45.906,27.95,45.222,27.275,44.377,27.275z"/>
			<path d="M20.242,34.165c0-0.845-0.685-1.543-1.53-1.543H5.45c-0.845,0-1.53,0.698-1.53,1.543c0,0.847,0.685,1.545,1.53,1.545
				h13.262C19.558,35.709,20.242,35.01,20.242,34.165z"/>
			<path d="M39.684,37.327H26.421c-0.845,0-1.53,0.699-1.53,1.545c0,0.845,0.687,1.545,1.53,1.545h13.263
				c0.845,0,1.529-0.7,1.529-1.545C41.213,38.026,40.527,37.327,39.684,37.327z"/>
			<path d="M22.538,42.377H9.276c-0.846,0-1.53,0.698-1.53,1.544c0,0.847,0.685,1.545,1.53,1.545h13.262
				c0.845,0,1.53-0.699,1.53-1.545C24.068,43.077,23.383,42.377,22.538,42.377z"/>
		</g>
	</g>
</g>
<g>
</g>
<g>
</g>
<g>
</g>
<g>
</g>
<g>
</g>
<g>
</g>
<g>
</g>
<g>
</g>
<g>
</g>
<g>
</g>
<g>
</g>
<g>
</g>
<g>
</g>
<g>
</g>
<g>
</g>
</svg>
