<?xml version="1.0" encoding="iso-8859-1"?>
<!-- Generator: Adobe Illustrator 19.0.0, SVG Export Plug-In . SVG Version: 6.00 Build 0)  -->
<svg version="1.1" id="Capa_1" xmlns="http://www.w3.org/2000/svg" xmlns:xlink="http://www.w3.org/1999/xlink" x="0px" y="0px"
	 viewBox="0 0 463 463" style="enable-background:new 0 0 463 463;" xml:space="preserve">
<path d="M455.5,284h-8H439V131.5c0-4.142-3.357-7.5-7.5-7.5h-160c-4.143,0-7.5,3.358-7.5,7.5V284h-17V131.5
	c0-4.142-3.357-7.5-7.5-7.5h-160c-4.143,0-7.5,3.358-7.5,7.5V284h-8.5c-4.687,0-8.5-3.813-8.5-8.5v-184C55,82.953,48.047,76,39.5,76
	h-32C3.357,76,0,79.358,0,83.5S3.357,91,7.5,91h32c0.275,0,0.5,0.224,0.5,0.5v184c0,10.336,6.71,19.128,16,22.266V315.5
	c0,8.547,6.953,15.5,15.5,15.5H80v10.234c-9.29,3.138-16,11.93-16,22.266c0,12.958,10.542,23.5,23.5,23.5s23.5-10.542,23.5-23.5
	c0-10.336-6.71-19.128-16-22.266V331h321v10.234c-9.29,3.138-16,11.93-16,22.266c0,12.958,10.542,23.5,23.5,23.5
	s23.5-10.542,23.5-23.5c0-10.336-6.71-19.128-16-22.266V331h8.5c8.547,0,15.5-6.953,15.5-15.5V299h0.5c4.143,0,7.5-3.358,7.5-7.5
	S459.643,284,455.5,284z M87.5,372c-4.687,0-8.5-3.813-8.5-8.5s3.813-8.5,8.5-8.5s8.5,3.813,8.5,8.5S92.187,372,87.5,372z
	 M423.5,372c-4.687,0-8.5-3.813-8.5-8.5s3.813-8.5,8.5-8.5s8.5,3.813,8.5,8.5S428.187,372,423.5,372z M279,139h65v24.5
	c0,4.142,3.357,7.5,7.5,7.5s7.5-3.358,7.5-7.5V139h65v145H279V139z M87,235h145v17H87V235z M152,139v24.5c0,4.142,3.357,7.5,7.5,7.5
	s7.5-3.358,7.5-7.5V139h65v81H87v-81H152z M87,267h145v17H87V267z M440,315.5c0,0.276-0.225,0.5-0.5,0.5h-368
	c-0.275,0-0.5-0.224-0.5-0.5V299h369V315.5z"/>
<g>
</g>
<g>
</g>
<g>
</g>
<g>
</g>
<g>
</g>
<g>
</g>
<g>
</g>
<g>
</g>
<g>
</g>
<g>
</g>
<g>
</g>
<g>
</g>
<g>
</g>
<g>
</g>
<g>
</g>
</svg>
