<?xml version="1.0" encoding="iso-8859-1"?>
<!-- Generator: Adobe Illustrator 19.0.0, SVG Export Plug-In . SVG Version: 6.00 Build 0)  -->
<svg version="1.1" id="Capa_1" xmlns="http://www.w3.org/2000/svg" xmlns:xlink="http://www.w3.org/1999/xlink" x="0px" y="0px"
	 viewBox="0 0 463 463" style="enable-background:new 0 0 463 463;" xml:space="preserve">
<g>
	<path d="M363.359,321.069l-37.621-22.573l-7.123-21.368c-1.31-3.929-5.559-6.054-9.487-4.743c-3.93,1.31-6.053,5.558-4.744,9.487
		l7.422,22.265l-2.135,13.52l-46.75-28.05c0.046-0.697,0.078-1.398,0.078-2.106c0-8.036-3.029-15.375-8-20.946V199.5
		c0-0.089-0.01-0.175-0.013-0.264C264.695,192.033,271,180.49,271,167.5v-80c0-0.169-0.014-0.334-0.025-0.5h12.033
		c10.803,0,20.178-7.32,22.798-17.8l3.55-14.2H319.5c4.142,0,7.5-3.358,7.5-7.5V15h16.5c4.142,0,7.5-3.358,7.5-7.5
		S347.642,0,343.5,0h-224c-4.142,0-7.5,3.358-7.5,7.5s3.358,7.5,7.5,7.5H136v32.5c0,4.142,3.358,7.5,7.5,7.5h10.144l3.55,14.2
		c2.62,10.48,11.995,17.8,22.798,17.8h12.033c-0.011,0.166-0.025,0.331-0.025,0.5v80c0,12.99,6.305,24.533,16.013,31.736
		c-0.003,0.088-0.013,0.175-0.013,0.264v67.054c-4.971,5.571-8,12.91-8,20.946c0,0.708,0.032,1.41,0.078,2.106l-46.75,28.05
		l-2.135-13.52l7.422-22.265c1.31-3.93-0.814-8.177-4.744-9.487c-3.93-1.309-8.176,0.814-9.487,4.743l-7.123,21.368l-37.621,22.573
		c-2.969,1.781-4.333,5.364-3.3,8.668l40,128c0.979,3.131,3.878,5.263,7.159,5.263h24c2.193,0,4.277-0.96,5.702-2.628
		c1.425-1.667,2.049-3.875,1.707-6.042l-14.109-89.357l70.701-44.605l70.701,44.605l-14.109,89.357
		c-0.342,2.167,0.281,4.375,1.707,6.042c1.425,1.668,3.508,2.628,5.702,2.628h24c3.28,0,6.18-2.132,7.159-5.263l40-128
		C367.691,326.433,366.328,322.85,363.359,321.069z M248,287.5c0,9.098-7.402,16.5-16.5,16.5s-16.5-7.402-16.5-16.5
		s7.402-16.5,16.5-16.5S248,278.402,248,287.5z M151,15h161v25H151V15z M171.746,65.562L169.106,55h124.789l-2.64,10.562
		c-0.948,3.791-4.339,6.438-8.246,6.438H179.992C176.085,72,172.694,69.353,171.746,65.562z M256.025,87
		c-0.011,0.166-0.025,0.331-0.025,0.5v49.051c-4.87-3.864-10.666-6.604-17-7.828V111.5c0-4.142-3.358-7.5-7.5-7.5
		s-7.5,3.358-7.5,7.5v17.223c-6.334,1.223-12.13,3.964-17,7.828V87.5c0-0.169-0.014-0.334-0.025-0.5H256.025z M231.5,143
		c13.509,0,24.5,10.991,24.5,24.5S245.009,192,231.5,192S207,181.009,207,167.5S217.991,143,231.5,143z M231.5,207
		c2.918,0,5.76-0.328,8.5-0.931v51.106c-2.706-0.76-5.555-1.175-8.5-1.175s-5.794,0.415-8.5,1.175v-51.106
		C225.74,206.672,228.582,207,231.5,207z M149.014,448l-36.595-117.104l25.407-15.244L158.723,448H149.014z M155.851,333.636
		l48.987-29.392c2.362,3.747,5.485,6.966,9.159,9.431l-55.744,35.169L155.851,333.636z M249.003,313.675
		c3.674-2.465,6.798-5.684,9.159-9.431l48.987,29.392l-2.401,15.208L249.003,313.675z M313.986,448h-9.708l20.897-132.349
		l25.407,15.244L313.986,448z"/>
	<path d="M231.58,175c4.142,0,7.5-3.358,7.5-7.5s-3.358-7.5-7.5-7.5h-0.08c-4.142,0-7.46,3.358-7.46,7.5S227.438,175,231.58,175z"/>
</g>
<g>
</g>
<g>
</g>
<g>
</g>
<g>
</g>
<g>
</g>
<g>
</g>
<g>
</g>
<g>
</g>
<g>
</g>
<g>
</g>
<g>
</g>
<g>
</g>
<g>
</g>
<g>
</g>
<g>
</g>
</svg>
