<?xml version="1.0" encoding="iso-8859-1"?>
<!-- Generator: Adobe Illustrator 18.0.0, SVG Export Plug-In . SVG Version: 6.00 Build 0)  -->
<!DOCTYPE svg PUBLIC "-//W3C//DTD SVG 1.1//EN" "http://www.w3.org/Graphics/SVG/1.1/DTD/svg11.dtd">
<svg version="1.1" id="Capa_1" xmlns="http://www.w3.org/2000/svg" xmlns:xlink="http://www.w3.org/1999/xlink" x="0px" y="0px"
	 viewBox="0 0 295.996 295.996" style="enable-background:new 0 0 295.996 295.996;" xml:space="preserve">
<g>
	<path d="M147.998,0C66.392,0,0,66.392,0,147.998s66.392,147.998,147.998,147.998s147.998-66.392,147.998-147.998
		S229.605,0,147.998,0z M147.998,279.996c-36.256,0-69.143-14.696-93.022-38.44c-9.536-9.482-17.631-20.41-23.934-32.42
		C21.442,190.847,16,170.048,16,147.998C16,75.214,75.214,16,147.998,16c34.523,0,65.987,13.328,89.533,35.102
		c12.208,11.288,22.289,24.844,29.558,39.997c8.27,17.238,12.907,36.537,12.907,56.899
		C279.996,220.782,220.782,279.996,147.998,279.996z"/>
	<path d="M147.997,184.174c0.676,7.488,3.876,14.792,9.608,20.523c6.499,6.499,15.018,9.749,23.535,9.749
		c8.518,0,17.037-3.25,23.535-9.749c7.852-7.851,23.536-23.534,23.536-23.534s-17.881-17.88-23.535-23.535
		c-6.499-6.498-15.018-9.748-23.536-9.748c-8.519,0-17.037,3.25-23.535,9.748c-5.732,5.732-8.933,13.036-9.608,20.524
		c-0.676-7.488-3.876-14.792-9.608-20.524c-6.498-6.498-15.017-9.748-23.535-9.748c-8.519,0-17.037,3.25-23.536,9.748
		c-5.654,5.655-23.535,23.535-23.535,23.535s15.684,15.684,23.536,23.534c6.498,6.499,15.017,9.749,23.535,9.749
		c8.518,0,17.036-3.25,23.535-9.749C144.121,198.966,147.321,191.662,147.997,184.174z"/>
	<circle cx="98.497" cy="114.998" r="16"/>
	<circle cx="197.497" cy="114.998" r="16"/>
</g>
<g>
</g>
<g>
</g>
<g>
</g>
<g>
</g>
<g>
</g>
<g>
</g>
<g>
</g>
<g>
</g>
<g>
</g>
<g>
</g>
<g>
</g>
<g>
</g>
<g>
</g>
<g>
</g>
<g>
</g>
</svg>
