<?xml version="1.0" encoding="iso-8859-1"?>
<!-- Generator: Adobe Illustrator 18.0.0, SVG Export Plug-In . SVG Version: 6.00 Build 0)  -->
<!DOCTYPE svg PUBLIC "-//W3C//DTD SVG 1.1//EN" "http://www.w3.org/Graphics/SVG/1.1/DTD/svg11.dtd">
<svg version="1.1" id="Capa_1" xmlns="http://www.w3.org/2000/svg" xmlns:xlink="http://www.w3.org/1999/xlink" x="0px" y="0px"
	 viewBox="0 0 44 44" style="enable-background:new 0 0 44 44;" xml:space="preserve">
<g>
	<circle cx="13" cy="16" r="3"/>
	<path d="M13,9c-3.86,0-7,3.14-7,7s3.14,7,7,7s7-3.14,7-7S16.86,9,13,9z M13,21c-2.757,0-5-2.243-5-5s2.243-5,5-5s5,2.243,5,5
		S15.757,21,13,21z"/>
	<circle cx="31" cy="16" r="3"/>
	<path d="M31,9c-3.86,0-7,3.14-7,7s3.14,7,7,7s7-3.14,7-7S34.86,9,31,9z M31,21c-2.757,0-5-2.243-5-5s2.243-5,5-5s5,2.243,5,5
		S33.757,21,31,21z"/>
	<path d="M22,0C9.869,0,0,9.869,0,22s9.869,22,22,22s22-9.869,22-22S34.131,0,22,0z M22,42C10.972,42,2,33.028,2,22S10.972,2,22,2
		s20,8.972,20,20S33.028,42,22,42z"/>
</g>
<g>
</g>
<g>
</g>
<g>
</g>
<g>
</g>
<g>
</g>
<g>
</g>
<g>
</g>
<g>
</g>
<g>
</g>
<g>
</g>
<g>
</g>
<g>
</g>
<g>
</g>
<g>
</g>
<g>
</g>
</svg>
