<?xml version="1.0" encoding="iso-8859-1"?>
<!-- Generator: Adobe Illustrator 19.0.0, SVG Export Plug-In . SVG Version: 6.00 Build 0)  -->
<svg version="1.1" id="Capa_1" xmlns="http://www.w3.org/2000/svg" xmlns:xlink="http://www.w3.org/1999/xlink" x="0px" y="0px"
	 viewBox="0 0 463 463" style="enable-background:new 0 0 463 463;" xml:space="preserve">
<path d="M455.5,392H439V247.5c0-26.191-21.309-47.5-47.5-47.5H391v-8.5c0-12.958-10.542-23.5-23.5-23.5h-160
	c-12.958,0-23.5,10.542-23.5,23.5v8.5h-0.5c-26.191,0-47.5,21.309-47.5,47.5V344h-0.5c-9.098,0-16.5-7.402-16.5-16.5v-240
	C119,70.131,104.869,56,87.5,56h-8C62.131,56,48,70.131,48,87.5V88h-0.5C38.953,88,32,94.953,32,103.5v18.445
	c-4.765,2.647-8,7.728-8,13.555V392H7.5c-4.142,0-7.5,3.357-7.5,7.5s3.358,7.5,7.5,7.5h448c4.142,0,7.5-3.357,7.5-7.5
	S459.642,392,455.5,392z M424,247.5V392H263V215h128.5C409.42,215,424,229.579,424,247.5z M248,215v17h-33v-17H248z M248,311v17h-33
	v-17H248z M215,296v-17h33v17H215z M248,264h-33v-17h33V264z M215,343h33v17h-33V343z M215,375h33v17h-33V375z M199,191.5
	c0-4.687,3.813-8.5,8.5-8.5h160c4.687,0,8.5,3.813,8.5,8.5v8.5H199V191.5z M151,247.5c0-17.921,14.58-32.5,32.5-32.5H200v177h-49
	V247.5z M63,87.5C63,78.402,70.402,71,79.5,71h8c9.098,0,16.5,7.402,16.5,16.5v240c0,17.369,14.131,31.5,31.5,31.5h0.5v33H87V135.5
	c0-5.827-3.235-10.908-8-13.555V103.5C79,94.953,72.047,88,63.5,88H63V87.5z M39,135.5c0-0.275,0.224-0.5,0.5-0.5h32
	c0.276,0,0.5,0.225,0.5,0.5V360H39V135.5z M47,103.5c0-0.275,0.224-0.5,0.5-0.5h16c0.276,0,0.5,0.225,0.5,0.5V120H47V103.5z M39,392
	v-17h33v17H39z"/>
<g>
</g>
<g>
</g>
<g>
</g>
<g>
</g>
<g>
</g>
<g>
</g>
<g>
</g>
<g>
</g>
<g>
</g>
<g>
</g>
<g>
</g>
<g>
</g>
<g>
</g>
<g>
</g>
<g>
</g>
</svg>
