<?xml version="1.0" encoding="iso-8859-1"?>
<!-- Generator: Adobe Illustrator 16.0.0, SVG Export Plug-In . SVG Version: 6.00 Build 0)  -->
<!DOCTYPE svg PUBLIC "-//W3C//DTD SVG 1.1//EN" "http://www.w3.org/Graphics/SVG/1.1/DTD/svg11.dtd">
<svg version="1.1" id="Capa_1" xmlns="http://www.w3.org/2000/svg" xmlns:xlink="http://www.w3.org/1999/xlink" x="0px" y="0px"
	 width="43.831px" height="43.832px" viewBox="0 0 43.831 43.832" style="enable-background:new 0 0 43.831 43.832;"
	 xml:space="preserve">
<g>
	<g>
		<path d="M36.182,19.639c-0.592,0-1.162,0.074-1.713,0.201L29.932,9.785c-0.241-0.537-0.775-0.883-1.366-0.883h-2.837
			c-0.827,0-1.5,0.671-1.5,1.5c0,0.828,0.673,1.5,1.5,1.5h1.867l1.254,2.778H16.183l-0.84-1.86h0.705c0.828,0,1.5-0.672,1.5-1.5
			c0-0.829-0.672-1.5-1.5-1.5h-5.506c-0.828,0-1.5,0.671-1.5,1.5c0,0.828,0.672,1.5,1.5,1.5h1.51l1.442,3.197l-2.873,4.225
			c-0.915-0.389-1.92-0.604-2.976-0.604C3.43,19.638,0,23.068,0,27.283s3.43,7.646,7.645,7.646c3.701,0,6.797-2.646,7.496-6.146
			h1.285c0.719,1.819,2.652,2.918,4.633,2.504c2.209-0.463,3.625-2.631,3.166-4.842c-0.062-0.292-0.155-0.568-0.272-0.83l6.727-6.88
			l1.058,2.342c-1.933,1.388-3.196,3.648-3.196,6.206c0,4.215,3.431,7.646,7.646,7.646c4.216,0,7.646-3.43,7.646-7.646
			C43.824,23.066,40.395,19.639,36.182,19.639z M17.289,24.429c-0.377,0.388-0.671,0.852-0.869,1.354h-1.278
			c-0.297-1.481-1.022-2.81-2.043-3.85l1.842-2.709L17.289,24.429z M11.349,24.507c0.289,0.384,0.514,0.812,0.672,1.274h-1.539
			L11.349,24.507z M7.646,31.927c-2.561,0-4.645-2.083-4.645-4.646s2.084-4.646,4.645-4.646c0.426,0,0.828,0.076,1.221,0.184
			l-2.46,3.616c-0.313,0.459-0.347,1.055-0.086,1.545c0.261,0.491,0.771,0.799,1.325,0.799h4.375
			C11.392,30.604,9.681,31.927,7.646,31.927z M21.808,23.516c-0.551-0.231-1.155-0.336-1.777-0.307l-2.494-5.529h9.977
			L21.808,23.516z M36.182,31.927c-2.562,0-4.646-2.083-4.646-4.646c0-1.334,0.571-2.529,1.478-3.377l1.804,3.992
			c0.25,0.557,0.797,0.885,1.366,0.885c0.207,0,0.416-0.043,0.614-0.135c0.757-0.341,1.093-1.229,0.75-1.982l-1.797-3.983
			c0.146-0.014,0.283-0.043,0.433-0.043c2.562,0,4.646,2.083,4.646,4.646C40.824,29.843,38.74,31.927,36.182,31.927z"/>
	</g>
</g>
<g>
</g>
<g>
</g>
<g>
</g>
<g>
</g>
<g>
</g>
<g>
</g>
<g>
</g>
<g>
</g>
<g>
</g>
<g>
</g>
<g>
</g>
<g>
</g>
<g>
</g>
<g>
</g>
<g>
</g>
</svg>
