<?xml version="1.0" encoding="iso-8859-1"?>
<!-- Generator: Adobe Illustrator 18.1.1, SVG Export Plug-In . SVG Version: 6.00 Build 0)  -->
<svg version="1.1" id="Capa_1" xmlns="http://www.w3.org/2000/svg" xmlns:xlink="http://www.w3.org/1999/xlink" x="0px" y="0px"
	 viewBox="0 0 18.836 18.836" style="enable-background:new 0 0 18.836 18.836;" xml:space="preserve">
<g>
	<path d="M17.407,17.332c-0.826-0.588-0.942-1.412-1.413-1.914c-0.473-0.5-1.443-1.295-1.975-1.502
		c-0.529-0.203-0.441-0.203-0.737-0.441c-0.295-0.235-0.146-0.352-0.528-0.471c-0.384-0.117-0.855,0.088-0.855,0.088
		s0.912-0.707,0.767-2.475c-0.148-1.766-0.532-2.77-0.532-3.828c0-1.062,0.267-1.768-0.294-2.268
		c-0.56-0.502-0.941-0.264-1.266-0.502C10.25,3.785,9.896,3.136,9.543,2.753C9.189,2.368,9.073,2.136,9.101,1.78
		C9.132,1.426,9.043,0.425,8.16,0.102C7.275-0.221,6.745,0.31,6.509,0.456C6.274,0.604,6.037,0.663,5.978,0.812
		C5.919,0.958,5.95,1.104,6.01,1.25c0.06,0.148,0.06,0.943,0.06,0.943l0.088,0.148L6.097,3.046c0,0,0.061,0.178,0.178,0.119
		c0.117-0.058,0.117-0.058,0.117-0.058s0.146,0.354,0.205,0.5c0.06,0.146,0.089,0.354,0.296,0.236s0.499-0.263,0.675-0.15
		c0.179,0.121,0.325,0.621,0.325,0.621s-0.265,0.295-0.56,0.353c-0.294,0.062-0.678,0.15-0.825,0.531
		C6.361,5.584,6.392,7.26,6.361,8.086C6.332,8.911,6.01,9.558,5.95,9.883C5.89,10.207,5.89,10.5,5.89,10.5s-0.441,0.354-0.56,0.648
		c-0.118,0.293-0.089,0.59-0.089,0.59s-0.708,0.234-1.119,0.736c-0.412,0.5-0.176,1.266-0.176,1.266s-2.299,1.268-2.711,1.387
		c-0.411,0.115-0.795,0.469-1,1.117c-0.206,0.648,0.088,2.592,0.088,2.592h18.351C18.674,18.836,18.233,17.924,17.407,17.332z
		 M10.486,10.52c0.907-0.299,1.021-0.295,1.333-0.726c0.313-0.432-0.06-1.238-0.06-1.238s0.431,0.531,0.472,1.238
		c0.04,0.707-0.783,0.962-1.903,1.316c-1.119,0.352-2.022,0.688-2.022,0.688S9.289,10.912,10.486,10.52z M7.206,0.722
		c0,0,0.766-0.076,0.825-0.234C8.09,0.331,7.599,0.15,7.54,0.15c0,0,0.648,0.041,1.002,0.395s0.412,0.666,0.373,1.098
		C8.874,2.077,9.033,2.37,9.209,2.588c0.177,0.215,0.489,0.686,0.489,0.686s-0.35-0.173-0.567-0.315
		C8.915,2.823,8.345,2.743,8.345,2.743S8.992,2.509,8.896,2.47C8.796,2.431,8.7,2.155,8.621,1.858
		c-0.078-0.291-0.647-0.41-0.708-0.41s0.276-0.254,0.06-0.295C7.757,1.116,7.206,0.722,7.206,0.722z M7.362,8.853
		c0.06-0.314,0.297-1.062,0.297-1.062l0.353,0.058c0,0,0.117,0.314,0.253,0.512C8.404,8.556,8.699,9.4,8.699,9.4
		C8.207,9.874,7.187,9.949,7.187,9.949S7.306,9.167,7.362,8.853z M6.774,11.168c0,0-0.059-0.158,0.333-0.217
		c0.393-0.059,0.728-0.059,0.728-0.059s-0.511,0.256-0.647,0.274C7.051,11.186,6.774,11.168,6.774,11.168z M11.566,13.957
		c-1.119-0.375-2.276-0.924-2.633-1.082C8.58,12.719,7.46,12.406,7.46,12.406s1.317-0.139,2.122,0.215s3.162,1.531,3.555,1.689
		c0.395,0.155,1.256,1.157,1.256,1.157S12.684,14.33,11.566,13.957z"/>
</g>
<g>
</g>
<g>
</g>
<g>
</g>
<g>
</g>
<g>
</g>
<g>
</g>
<g>
</g>
<g>
</g>
<g>
</g>
<g>
</g>
<g>
</g>
<g>
</g>
<g>
</g>
<g>
</g>
<g>
</g>
</svg>
