<?xml version="1.0" encoding="iso-8859-1"?>
<!-- Generator: Adobe Illustrator 16.0.0, SVG Export Plug-In . SVG Version: 6.00 Build 0)  -->
<!DOCTYPE svg PUBLIC "-//W3C//DTD SVG 1.1//EN" "http://www.w3.org/Graphics/SVG/1.1/DTD/svg11.dtd">
<svg version="1.1" id="Capa_1" xmlns="http://www.w3.org/2000/svg" xmlns:xlink="http://www.w3.org/1999/xlink" x="0px" y="0px"
	 width="35.669px" height="35.669px" viewBox="0 0 35.669 35.669" style="enable-background:new 0 0 35.669 35.669;"
	 xml:space="preserve">
<g>
	<g>
		<path d="M13.527,26.663h2.203c0.365,0,0.66-0.295,0.66-0.66v-0.339c0-0.364-0.295-0.66-0.66-0.66h-2.203
			c-0.365,0-0.66,0.296-0.66,0.66v0.339C12.867,26.367,13.162,26.663,13.527,26.663z"/>
		<path d="M12.867,27.945c0,0.365,0.295,0.66,0.66,0.66h2.203c0.365,0,0.66-0.295,0.66-0.66v-0.338c0-0.365-0.295-0.66-0.66-0.66
			h-2.203c-0.365,0-0.66,0.295-0.66,0.66V27.945z"/>
		<path d="M12.867,29.878c0,0.364,0.295,0.66,0.66,0.66h2.203c0.365,0,0.66-0.296,0.66-0.66V29.54c0-0.365-0.295-0.661-0.66-0.661
			h-2.203c-0.365,0-0.66,0.296-0.66,0.661V29.878z"/>
		<path d="M12.867,31.82c0,0.365,0.295,0.66,0.66,0.66h2.203c0.365,0,0.66-0.295,0.66-0.66v-0.338c0-0.365-0.295-0.662-0.66-0.662
			h-2.203c-0.365,0-0.66,0.297-0.66,0.662V31.82z"/>
		<path d="M10.396,13.707H8.783c-0.412,0-0.746,0.334-0.746,0.746v0.383c0,0.413,0.334,0.747,0.746,0.747h1.614
			c0.412,0,0.746-0.334,0.746-0.747v-0.383C11.143,14.041,10.809,13.707,10.396,13.707z"/>
		<path d="M10.396,15.904H8.783c-0.412,0-0.746,0.335-0.746,0.747v0.383c0,0.413,0.334,0.747,0.746,0.747h1.614
			c0.412,0,0.746-0.334,0.746-0.747v-0.383C11.143,16.239,10.809,15.904,10.396,15.904z"/>
		<path d="M10.396,18.09H8.783c-0.412,0-0.746,0.334-0.746,0.746v0.382c0,0.413,0.334,0.747,0.746,0.747h1.614
			c0.412,0,0.746-0.334,0.746-0.747v-0.382C11.143,18.424,10.809,18.09,10.396,18.09z"/>
		<path d="M10.396,20.287H8.783c-0.412,0-0.746,0.335-0.746,0.747v0.382c0,0.413,0.334,0.747,0.746,0.747h1.614
			c0.412,0,0.746-0.334,0.746-0.747v-0.382C11.143,20.622,10.809,20.287,10.396,20.287z"/>
		<path d="M15.373,32.936h-1.49c-1.135,0-2.055,0.92-2.055,2.056v0.678h5.599V34.99C17.428,33.855,16.508,32.936,15.373,32.936z"/>
		<circle cx="9.632" cy="23.767" r="1.237"/>
		<path d="M10.251,1.075c0.042,0,0.082-0.005,0.121-0.014l2.86,4.256c-0.41,0.358-0.671,0.884-0.671,1.471v2.54
			c0,1.078,0.875,1.953,1.954,1.953h3.317h0.003h3.317c1.079,0,1.952-0.875,1.952-1.953v-2.54c0-0.587-0.26-1.113-0.67-1.471
			l2.859-4.256c0.039,0.009,0.079,0.014,0.121,0.014c0.296,0,0.537-0.241,0.537-0.538C25.954,0.241,25.712,0,25.416,0
			s-0.538,0.241-0.538,0.538c0,0.073,0.015,0.143,0.042,0.207l-2.891,4.3c-0.264-0.133-0.561-0.209-0.877-0.209h-3.316h-0.004
			h-3.316c-0.316,0-0.613,0.077-0.876,0.209l-2.891-4.3c0.025-0.064,0.04-0.135,0.04-0.207c0-0.297-0.24-0.538-0.537-0.538
			C9.955,0,9.713,0.241,9.713,0.538C9.713,0.834,9.955,1.075,10.251,1.075z M19.788,7.357c0.495,0,0.896,0.401,0.896,0.896
			s-0.4,0.896-0.896,0.896s-0.896-0.401-0.896-0.896C18.892,7.759,19.292,7.357,19.788,7.357z M15.879,7.357
			c0.495,0,0.896,0.401,0.896,0.896s-0.401,0.896-0.896,0.896c-0.495,0-0.896-0.401-0.896-0.896
			C14.983,7.759,15.385,7.357,15.879,7.357z"/>
		<path d="M19.542,19.896c-0.043,0.041-0.099,0.063-0.155,0.063c-0.056,0-0.111-0.021-0.154-0.063c-0.086-0.086-0.086-0.225,0-0.311
			l0.391-0.391c-0.439-0.361-0.988-0.592-1.589-0.637v0.59c0,0.115-0.087,0.207-0.199,0.218v0.001h-0.001c-0.001,0-0.001,0-0.002,0
			v-0.001c-0.112-0.011-0.199-0.103-0.199-0.218v-0.59c-0.6,0.045-1.149,0.275-1.588,0.637l0.391,0.391
			c0.085,0.086,0.085,0.225,0,0.311c-0.043,0.041-0.099,0.063-0.156,0.063c-0.056,0-0.112-0.021-0.155-0.063l-0.395-0.396
			c-0.45,0.503-0.727,1.166-0.727,1.894h2.628v-0.729c0-0.114,0.087-0.207,0.199-0.217v-0.001c0,0,0,0,0.001,0s0.002,0,0.002,0
			v0.001c0.112,0.01,0.199,0.103,0.199,0.217v0.729h2.629c0-0.728-0.276-1.39-0.726-1.894L19.542,19.896z"/>
		<path d="M22.203,11.94h-4.367h-0.004h-4.367c-1.079,0-1.953,0.875-1.953,1.953v8.864c0,1.079,0.874,1.954,1.953,1.954h4.367h0.003
			h4.367c1.079,0,1.953-0.875,1.953-1.954v-8.864C24.156,12.815,23.282,11.94,22.203,11.94z M19.788,13.499
			c0.278,0,0.505,0.226,0.505,0.505c0,0.279-0.227,0.505-0.505,0.505s-0.505-0.226-0.505-0.505
			C19.283,13.725,19.509,13.499,19.788,13.499z M19.788,14.78c0.278,0,0.505,0.227,0.505,0.505c0,0.279-0.227,0.505-0.505,0.505
			s-0.505-0.226-0.505-0.505C19.283,15.007,19.509,14.78,19.788,14.78z M16.888,13.942c0-0.212,0.172-0.383,0.384-0.383h0.561h0.003
			h0.561c0.213,0,0.384,0.171,0.384,0.383v1.406c0,0.212-0.171,0.384-0.384,0.384h-0.561h-0.004h-0.56
			c-0.211,0-0.384-0.171-0.384-0.384V13.942z M15.879,13.498c0.279,0,0.505,0.227,0.505,0.506c0,0.279-0.227,0.505-0.505,0.505
			c-0.278,0-0.505-0.226-0.505-0.505C15.375,13.725,15.601,13.498,15.879,13.498z M15.879,14.78c0.279,0,0.505,0.227,0.505,0.505
			c0,0.279-0.227,0.505-0.505,0.505c-0.278,0-0.505-0.226-0.505-0.505C15.375,15.007,15.601,14.78,15.879,14.78z M14.472,13.498
			c0.279,0,0.505,0.227,0.505,0.506c0,0.279-0.227,0.505-0.505,0.505s-0.505-0.226-0.505-0.505
			C13.967,13.725,14.192,13.498,14.472,13.498z M13.966,15.286c0-0.279,0.227-0.505,0.505-0.505c0.278,0,0.505,0.227,0.505,0.505
			c0,0.279-0.227,0.505-0.505,0.505C14.192,15.791,13.966,15.565,13.966,15.286z M21.435,22.261h-3.604l0,0h-3.6
			c-0.066-0.278-0.103-0.567-0.103-0.866c0-2.047,1.659-3.712,3.704-3.725l0,0c0.001,0,0.002,0,0.003,0l0,0
			c2.044,0.011,3.704,1.678,3.704,3.725C21.539,21.693,21.502,21.982,21.435,22.261z M21.197,15.791
			c-0.279,0-0.506-0.226-0.506-0.505c0-0.278,0.227-0.505,0.506-0.505s0.505,0.227,0.505,0.505
			C21.702,15.565,21.474,15.791,21.197,15.791z M21.197,14.509c-0.279,0-0.506-0.226-0.506-0.505c0-0.279,0.227-0.505,0.506-0.505
			s0.505,0.226,0.505,0.505C21.702,14.283,21.474,14.509,21.197,14.509z"/>
		<path d="M19.937,26.663h2.203c0.365,0,0.662-0.295,0.662-0.66v-0.339c0-0.364-0.297-0.66-0.662-0.66h-2.203
			c-0.364,0-0.66,0.296-0.66,0.66v0.339C19.277,26.367,19.573,26.663,19.937,26.663z"/>
		<path d="M19.277,27.945c0,0.365,0.296,0.66,0.66,0.66h2.203c0.365,0,0.662-0.295,0.662-0.66v-0.338c0-0.365-0.297-0.66-0.662-0.66
			h-2.203c-0.364,0-0.66,0.295-0.66,0.66V27.945z"/>
		<path d="M19.277,29.878c0,0.364,0.296,0.66,0.66,0.66h2.203c0.365,0,0.662-0.296,0.662-0.66V29.54
			c0-0.365-0.297-0.661-0.662-0.661h-2.203c-0.364,0-0.66,0.296-0.66,0.661V29.878z"/>
		<path d="M19.277,31.82c0,0.365,0.296,0.66,0.66,0.66h2.203c0.365,0,0.662-0.295,0.662-0.66v-0.338
			c0-0.365-0.297-0.662-0.662-0.662h-2.203c-0.364,0-0.66,0.297-0.66,0.662V31.82z"/>
		<path d="M26.884,13.707h-1.613c-0.412,0-0.746,0.334-0.746,0.746v0.383c0,0.413,0.334,0.747,0.746,0.747h1.613
			c0.414,0,0.748-0.334,0.748-0.747v-0.383C27.632,14.041,27.298,13.707,26.884,13.707z"/>
		<path d="M26.884,15.904h-1.613c-0.412,0-0.746,0.334-0.746,0.747v0.383c0,0.413,0.334,0.747,0.746,0.747h1.613
			c0.414,0,0.748-0.334,0.748-0.747v-0.383C27.632,16.239,27.298,15.904,26.884,15.904z"/>
		<path d="M26.884,18.09h-1.613c-0.412,0-0.746,0.334-0.746,0.747v0.382c0,0.413,0.334,0.747,0.746,0.747h1.613
			c0.414,0,0.748-0.334,0.748-0.747v-0.382C27.632,18.424,27.298,18.09,26.884,18.09z"/>
		<path d="M26.884,20.287h-1.613c-0.412,0-0.746,0.335-0.746,0.747v0.382c0,0.413,0.334,0.747,0.746,0.747h1.613
			c0.414,0,0.748-0.334,0.748-0.747v-0.382C27.632,20.622,27.298,20.287,26.884,20.287z"/>
		<path d="M21.785,32.936h-1.49c-1.135,0-2.055,0.92-2.055,2.056v0.678h5.599V34.99C23.838,33.855,22.918,32.936,21.785,32.936z"/>
		<circle cx="26.036" cy="23.767" r="1.237"/>
	</g>
</g>
<g>
</g>
<g>
</g>
<g>
</g>
<g>
</g>
<g>
</g>
<g>
</g>
<g>
</g>
<g>
</g>
<g>
</g>
<g>
</g>
<g>
</g>
<g>
</g>
<g>
</g>
<g>
</g>
<g>
</g>
</svg>
