<?xml version="1.0" encoding="iso-8859-1"?>
<!-- Generator: Adobe Illustrator 19.0.0, SVG Export Plug-In . SVG Version: 6.00 Build 0)  -->
<svg version="1.1" id="Capa_1" xmlns="http://www.w3.org/2000/svg" xmlns:xlink="http://www.w3.org/1999/xlink" x="0px" y="0px"
	 viewBox="0 0 463 463" style="enable-background:new 0 0 463 463;" xml:space="preserve">
<g>
	<path d="M195.28,245.48c8.891,6.05,22.092,9.52,36.22,9.52c14.129,0,27.33-3.47,36.22-9.52c3.424-2.33,4.312-6.995,1.98-10.42
		c-2.33-3.425-6.995-4.31-10.42-1.98c-6.367,4.333-16.752,6.92-27.78,6.92c-11.027,0-21.412-2.587-27.78-6.92
		c-3.423-2.329-8.089-1.444-10.42,1.98S191.856,243.15,195.28,245.48z"/>
	<path d="M369.052,325.444l-2.058-0.686c-0.197-82.189-9.166-148.334-13.646-176.296c3.815-2.201,7.377-4.517,10.639-6.953
		c2.589-1.934,3.648-5.308,2.63-8.374S362.731,128,359.5,128h-0.728C356.819,94.941,342.054,64.709,319,42.857V39.5
		c0-4.143-3.357-7.5-7.5-7.5c-1.476,0-2.849,0.432-4.009,1.169c-13.18-9.836-28.37-17.214-44.954-21.362
		C260.873,5.04,254.772,0,247.5,0h-32c-7.272,0-13.374,5.041-15.037,11.807c-16.584,4.149-31.774,11.527-44.953,21.363
		C154.349,32.433,152.977,32,151.5,32c-4.143,0-7.5,3.357-7.5,7.5v3.358C120.947,64.71,106.181,94.942,104.228,128H103.5
		c-3.231,0-6.099,2.069-7.117,5.136s0.041,6.44,2.63,8.374c3.262,2.436,6.824,4.752,10.639,6.953
		c-4.48,27.961-13.449,94.107-13.646,176.296l-2.057,0.686C71.251,333.011,56,354.17,56,378.097V439.5
		c0,12.958,10.542,23.5,23.5,23.5h304c12.958,0,23.5-10.542,23.5-23.5v-61.403C407,354.17,391.75,333.01,369.052,325.444z
		 M351.971,319.751L287,298.094v-17.95l17.377-10.268C323.266,258.714,335,237.401,335,214.257V157.33
		c1.449-0.587,2.88-1.184,4.282-1.797C343.751,184.527,351.463,245.031,351.971,319.751z M336,448H127v-40.5
		c0-9.098,7.402-16.5,16.5-16.5h176c9.098,0,16.5,7.402,16.5,16.5V448z M176,313.906V376h-17v-56.427L176,313.906z M320,143v3.847
		C295.216,155.217,264.107,160,231.5,160s-63.716-4.783-88.5-13.153V143H320z M159,49.56c11.773-9.977,25.654-17.613,41-22.081V128
		h-41V49.56z M263,27.479c15.345,4.468,29.227,12.104,41,22.08V128h-41V27.479z M143,162.678c10.226,3.194,21.302,5.807,33,7.797
		V183.5c0,4.143,3.357,7.5,7.5,7.5s7.5-3.357,7.5-7.5v-10.859c12.981,1.548,26.566,2.359,40.5,2.359s27.519-0.811,40.5-2.359V183.5
		c0,4.143,3.357,7.5,7.5,7.5s7.5-3.357,7.5-7.5v-13.025c11.698-1.99,22.774-4.603,33-7.797v51.579
		c0,17.865-8.91,34.229-23.254,42.705l-41.331,24.423C248.091,285.713,239.823,288,231.5,288c-0.001,0-0.002,0-0.003,0
		s-0.002,0-0.003,0c-8.316,0-16.584-2.287-23.908-6.615l-41.331-24.423C151.911,248.485,143,232.122,143,214.257V162.678z M191,376
		v-32.619c9.74,9.918,23.726,15.619,40.5,15.619s30.76-5.702,40.5-15.619V376H191z M199.955,294.299
		c9.634,5.692,20.54,8.701,31.545,8.701c0.001,0,0.002,0,0.003,0s0.002,0,0.003,0c10.999,0,21.905-3.009,31.539-8.701l8.954-5.291
		v14.336c0,0.008,0,0.016,0,0.024v0.133c0,29.86-20.921,40.5-40.5,40.5S191,333.36,191,303.5v-0.131c0-0.009,0-0.018,0-0.027
		v-14.335L199.955,294.299z M287,376v-62.094l17,5.667V376H287z M343.722,128h-0.112c-0.038,0-0.075,0-0.113,0H319V64.922
		C333.208,82.554,342.143,104.444,343.722,128z M215.5,15h32c0.275,0,0.5,0.225,0.5,0.5V128h-33V15.5
		C215,15.225,215.225,15,215.5,15z M144,64.923V128h-24.722C120.857,104.444,129.792,82.555,144,64.923z M123.721,155.534
		c1.401,0.613,2.83,1.209,4.279,1.796v56.927c0,23.145,11.734,44.456,30.624,55.619L176,280.144v17.95l-64.971,21.657
		C111.537,245.089,119.252,184.545,123.721,155.534z M71,439.5v-61.403c0-17.46,11.129-32.901,27.693-38.422L144,324.573V376h-0.5
		c-17.369,0-31.5,14.131-31.5,31.5V448H79.5C74.813,448,71,444.187,71,439.5z M392,439.5c0,4.687-3.813,8.5-8.5,8.5H351v-40.5
		c0-17.369-14.131-31.5-31.5-31.5H319v-51.427l45.308,15.102C380.871,345.195,392,360.636,392,378.097V439.5z"/>
</g>
<g>
</g>
<g>
</g>
<g>
</g>
<g>
</g>
<g>
</g>
<g>
</g>
<g>
</g>
<g>
</g>
<g>
</g>
<g>
</g>
<g>
</g>
<g>
</g>
<g>
</g>
<g>
</g>
<g>
</g>
</svg>
