<?xml version="1.0" encoding="iso-8859-1"?>
<!-- Generator: Adobe Illustrator 19.0.0, SVG Export Plug-In . SVG Version: 6.00 Build 0)  -->
<svg version="1.1" id="Layer_1" xmlns="http://www.w3.org/2000/svg" xmlns:xlink="http://www.w3.org/1999/xlink" x="0px" y="0px"
	 viewBox="0 0 512 512" style="enable-background:new 0 0 512 512;" xml:space="preserve">
<g>
	<g>
		<g>
			<path d="M284.1,176.7l8.533,8.533c3.337,3.336,8.73,3.336,12.066,0c3.336-3.337,3.336-8.73,0-12.066l-2.5-2.5l30.6-30.601
				l22.067,22.067L309.7,207.3c-1.604,1.596-2.5,3.772-2.5,6.033v213.333c0,4.71,3.823,8.533,8.533,8.533s8.533-3.823,8.533-8.533
				V216.866l48.7-48.7c3.337-3.337,3.337-8.73,0-12.066l-34.133-34.133c-3.336-3.336-8.73-3.336-12.066,0L284.1,164.634
				C280.764,167.97,280.764,173.363,284.1,176.7z"/>
			<path d="M503.467,494.933H341.333V460.8h8.533c4.71,0,8.533-3.823,8.533-8.533c0-4.71-3.823-8.533-8.533-8.533H204.8V268.066
				l14.566-14.558l0.009-0.009L256,216.866v112.401l-31.633,31.625l-0.009,0.009l-8.525,8.533c-3.337,3.337-3.337,8.73,0,12.066
				c1.664,1.664,3.849,2.5,6.033,2.5v42.667c0,4.71,3.823,8.533,8.533,8.533s8.533-3.823,8.533-8.533v-56.201L256,353.399v73.267
				c0,4.71,3.823,8.533,8.533,8.533c4.71,0,8.533-3.823,8.533-8.533V319.266l23.1-23.1c3.336-3.337,3.336-8.73,0-12.066
				c-3.337-3.337-8.73-3.337-12.066,0l-11.034,11.034v-133c0-4.71-3.823-8.533-8.533-8.533c-4.71,0-8.533,3.823-8.533,8.533v30.601
				l-34.133,34.133v-64.734c0-2.261-0.896-4.437-2.5-6.033l-24.542-24.542c-1.749-3.883-7.091-16.742-7.091-29.158
				c0-12.288,4.864-39.586,7.168-51.849c15.138-2.5,35.499-13.184,35.499-42.018c0-4.71-3.823-8.533-8.533-8.533
				C207.283,0,179.9,8.747,179.26,41.532c-0.964,4.881-8.593,43.921-8.593,60.868c0,18.859,9.054,37.18,9.429,37.948
				c0.418,0.819,0.956,1.57,1.604,2.219l23.1,23.1v78.268L190.234,258.5c-1.604,1.596-2.5,3.772-2.5,6.033v179.2h-25.6
				c-4.71,0-8.533,3.823-8.533,8.533c0,4.71,3.823,8.533,8.533,8.533h8.533v34.133H8.533c-4.71,0-8.533,3.823-8.533,8.533
				S3.823,512,8.533,512h494.933c4.71,0,8.533-3.823,8.533-8.533S508.177,494.933,503.467,494.933z M211.686,18.91
				c-2.756,7.663-8.499,11.477-13.773,13.372C200.67,24.619,206.421,20.804,211.686,18.91z M324.267,494.933h-59.733V486.4
				c0-4.71-3.823-8.533-8.533-8.533s-8.533,3.823-8.533,8.533v8.533h-59.733V460.8h136.533V494.933z"/>
			<path d="M207.735,62.66c-3.337,3.328-3.337,8.738,0,12.066l14.131,14.14V102.4h-8.533c-4.71,0-8.533,3.823-8.533,8.533
				s3.823,8.533,8.533,8.533h9.745c3.814,14.677,17.067,25.6,32.922,25.6s29.107-10.923,32.922-25.6h9.745
				c4.71,0,8.533-3.823,8.533-8.533s-3.823-8.533-8.533-8.533h-8.533V88.875l14.14-14.148c3.328-3.336,3.328-8.738-0.009-12.075
				c-3.328-3.319-8.738-3.328-12.066,0.009l-14.14,14.14h-13.525V59.733c0-4.71-3.823-8.533-8.533-8.533s-8.533,3.823-8.533,8.533
				V76.8h-13.534l-14.131-14.14C216.465,59.332,211.063,59.332,207.735,62.66z M238.933,110.891V93.867h34.133v17.067
				c0,9.412-7.654,17.067-17.067,17.067c-9.404,0-17.05-7.637-17.067-17.041c0-0.009,0.009-0.017,0.009-0.026
				C238.942,110.916,238.933,110.908,238.933,110.891z"/>
		</g>
	</g>
</g>
<g>
</g>
<g>
</g>
<g>
</g>
<g>
</g>
<g>
</g>
<g>
</g>
<g>
</g>
<g>
</g>
<g>
</g>
<g>
</g>
<g>
</g>
<g>
</g>
<g>
</g>
<g>
</g>
<g>
</g>
</svg>
