<?xml version="1.0" encoding="iso-8859-1"?>
<!-- Generator: Adobe Illustrator 18.0.0, SVG Export Plug-In . SVG Version: 6.00 Build 0)  -->
<!DOCTYPE svg PUBLIC "-//W3C//DTD SVG 1.1//EN" "http://www.w3.org/Graphics/SVG/1.1/DTD/svg11.dtd">
<svg version="1.1" id="Capa_1" xmlns="http://www.w3.org/2000/svg" xmlns:xlink="http://www.w3.org/1999/xlink" x="0px" y="0px"
	 viewBox="0 0 484.696 484.696" style="enable-background:new 0 0 484.696 484.696;" xml:space="preserve">
<g>
	<path d="M305.894,142.215l-1.257-0.496c10.983-24.122,19.334-47.264,19.334-61.872C323.971,35.819,288.467,0,244.826,0
		c-43.633,0-79.13,35.819-79.13,79.847c0,4.686,0.868,10.258,2.397,16.45L41.709,146.16v338.536l137.092-54.088l127.093,50.143
		l137.093-54.088V88.127L305.894,142.215z M188.801,149.839c18.896,39.849,43.178,80.066,47.488,87.13l8.536,13.991l8.537-13.99
		c3.941-6.458,24.578-40.624,42.531-76.886v295.221l-107.093-42.252V149.839z M244.826,20c32.612,0,59.145,26.847,59.145,59.847
		c0,25.591-37.152,94.647-59.145,132.363c-21.987-37.711-59.13-106.759-59.13-132.363C185.697,46.847,212.222,20,244.826,20z
		 M61.709,159.77l107.092-42.252v295.535L61.709,455.305V159.77z M422.987,413.053l-107.093,42.252V159.769l107.093-42.252V413.053z
		"/>
	<path d="M288.995,80.184c0-24.351-19.811-44.162-44.162-44.162c-24.351,0-44.161,19.811-44.161,44.162
		c0,24.351,19.811,44.162,44.161,44.162C269.185,124.346,288.995,104.535,288.995,80.184z M220.672,80.184
		c0-13.323,10.839-24.162,24.161-24.162c13.323,0,24.162,10.839,24.162,24.162c0,13.323-10.839,24.162-24.162,24.162
		C231.511,104.346,220.672,93.507,220.672,80.184z"/>
</g>
<g>
</g>
<g>
</g>
<g>
</g>
<g>
</g>
<g>
</g>
<g>
</g>
<g>
</g>
<g>
</g>
<g>
</g>
<g>
</g>
<g>
</g>
<g>
</g>
<g>
</g>
<g>
</g>
<g>
</g>
</svg>
