<?xml version="1.0" encoding="iso-8859-1"?>
<!-- Generator: Adobe Illustrator 16.0.0, SVG Export Plug-In . SVG Version: 6.00 Build 0)  -->
<!DOCTYPE svg PUBLIC "-//W3C//DTD SVG 1.1//EN" "http://www.w3.org/Graphics/SVG/1.1/DTD/svg11.dtd">
<svg version="1.1" id="Capa_1" xmlns="http://www.w3.org/2000/svg" xmlns:xlink="http://www.w3.org/1999/xlink" x="0px" y="0px"
	 width="218.214px" height="218.214px" viewBox="0 0 218.214 218.214" style="enable-background:new 0 0 218.214 218.214;"
	 xml:space="preserve">
<g>
	<path d="M216.19,52.456h-56.452c-1.522-2.5-6.966-10.321-16.69-12.696c-7.118-1.732-14.656,0.036-22.384,5.307
		c-0.401,0.262-8.917,5.806-11.012,19.142c-7.344-10.461-25.459-33.612-43.504-35.609c-0.996,0.131-2.131,0.706-2.262,1.833
		c-0.088,0.688-1.635,15.235,1.809,25.254c-17.016-4.497-40.125-8.692-63.781-7.078c-0.719,0.045-1.397,0.487-1.702,1.16
		C-0.12,50.41-0.05,51.196,0.343,51.82c0.28,0.436,27.632,40.417,72.765,62.112c-2.962,3.032-14.416,18.036-22.186,73.332
		c-0.106,0.7,0.149,1.431,0.725,1.869c0.387,0.323,0.847,0.481,1.31,0.481c0.21,0,0.466-0.037,0.685-0.129
		c1.571-0.547,38.946-13.7,48.717-27.035c0.387-0.555,0.505-1.254,0.286-1.9c-0.043-0.121-3.736-11.222-0.53-18.097
		c17.497-3.185,42.749-14.029,47.626-49.736c0.371-2.521,0.158-5.681-0.049-9.353c-0.603-10.15-1.285-22.734,9.438-26.78h57.03
		c1.157,0,2.053-0.922,2.053-2.058C218.243,53.378,217.336,52.456,216.19,52.456z M145.6,83.608c0.194,3.31,0.39,6.428,0.109,8.55
		c-7.015,51.404-58.072,47.593-60.261,47.355c-1.203-0.262-2.141,0.73-2.232,1.875c-0.106,1.139,0.74,2.137,1.875,2.234
		c0.094,0,1.279,0.098,3.297,0.098c2.207,0,5.59-0.243,9.362-0.694c-1.952,6.771-0.165,14.87,0.679,17.793
		c-8.199,9.913-33.84,20.191-42.913,23.602c8.412-56.873,20.645-67.688,20.87-67.895c0.32-0.255,0.43-0.633,0.561-0.986
		c4.028,1.79,7.931,3.727,12.236,5.176c0.216,0.085,0.436,0.128,0.661,0.128c0.871,0,1.65-0.542,1.952-1.406
		c0.369-1.072-0.219-2.26-1.291-2.619C44.799,101.303,14.077,63.447,5.941,52.523c43.76-1.942,84.779,15.665,85.188,15.844
		c1.071,0.445,2.25-0.018,2.716-1.083c0.45-1.047-0.019-2.256-1.066-2.701c-0.173-0.085-8.802-3.647-21.93-7.413
		c-3.751-6.711-3.385-19.099-3.017-24.104c20.252,4.333,41.452,38.009,41.677,38.347c0.487,0.785,1.428,1.108,2.326,0.91
		c0.889-0.262,1.479-1.065,1.479-1.988c0-15.402,9.201-21.525,9.621-21.805c6.747-4.573,13.152-6.15,19.12-4.734
		c6.808,1.653,11.411,6.947,13.499,9.828C144.181,59.41,144.99,73.287,145.6,83.608z M146.153,53.016
		c0,2.201-1.778,3.949-3.958,3.949c-2.174,0-3.952-1.748-3.952-3.949c0-2.174,1.778-3.945,3.952-3.945
		C144.375,49.071,146.153,50.842,146.153,53.016z"/>
</g>
<g>
</g>
<g>
</g>
<g>
</g>
<g>
</g>
<g>
</g>
<g>
</g>
<g>
</g>
<g>
</g>
<g>
</g>
<g>
</g>
<g>
</g>
<g>
</g>
<g>
</g>
<g>
</g>
<g>
</g>
</svg>
