<?xml version="1.0" encoding="iso-8859-1"?>
<!-- Generator: Adobe Illustrator 18.0.0, SVG Export Plug-In . SVG Version: 6.00 Build 0)  -->
<!DOCTYPE svg PUBLIC "-//W3C//DTD SVG 1.1//EN" "http://www.w3.org/Graphics/SVG/1.1/DTD/svg11.dtd">
<svg version="1.1" id="Capa_1" xmlns="http://www.w3.org/2000/svg" xmlns:xlink="http://www.w3.org/1999/xlink" x="0px" y="0px"
	 viewBox="0 0 493.812 493.812" style="enable-background:new 0 0 493.812 493.812;" xml:space="preserve">
<path d="M481.448,72.878c-13.545-13.933-34.656-17.255-51.832-8.15c-58.514,30.978-125.682,85.433-166.907,179.566
	c4.061-89.902,3.841-84.174,3.783-85.519c-0.22-4.849-2.208-9.169-5.285-12.446c7.861-7.09,33.007-31.041,52.958-64.292
	c15.616-26.027,23.736-44.451,27.498-54.126c0.749-1.928,0.605-4.088-0.392-5.9c-0.997-1.812-2.746-3.096-4.776-3.492l-5.74-1.122
	c-3.341-0.653-6.65,1.193-7.859,4.375c-4.59,12.074-15.742,40.79-22.59,53.218c-15.715,28.52-34.384,52.214-44.023,63.703
	c-2.329,2.776-5.777,4.387-9.401,4.387h-0.022c-3.582,0-6.979-1.587-9.281-4.33c-9.625-11.467-28.33-35.192-44.071-63.76
	c-6.848-12.428-17.999-41.144-22.59-53.218c-1.21-3.182-4.519-5.028-7.859-4.375l-5.74,1.122c-2.03,0.396-3.779,1.68-4.776,3.492
	c-0.997,1.813-1.142,3.973-0.392,5.9c3.762,9.675,11.882,28.099,27.498,54.126c20.096,33.493,45.47,57.557,53.134,64.45
	c-3.514,3.686-5.708,8.569-5.455,14.058l3.783,83.789C189.885,150.16,122.698,95.706,64.185,64.713
	c-17.172-9.102-38.287-5.79-51.821,8.147C-1.18,86.79-3.893,107.991,5.697,124.891l5.162,9.083
	c14.977,26.371,21.811,56.591,19.631,86.832c-0.958,13.367,3.67,26.517,12.786,36.315c9.124,9.801,21.899,15.365,35.291,15.365
	h52.514c-19.718,4.582-40.177,11.136-59.445,20.658c-7.9,3.907-14.1,10.581-17.394,18.764L23.29,388.683
	c-5.927,14.728-1.61,31.595,10.661,41.654l46.427,38.062c10.621,8.702,25.294,10.589,37.783,4.861
	c29.959-13.733,82.662-45.92,102.137-108.079l12.384-86.059l5.985,132.527c0.2,4.204,3.58,7.68,7.875,7.875
	c4.549,0.199,8.404-3.319,8.615-7.875l5.981-132.487l12.377,86.02c19.468,62.152,72.178,94.334,102.147,108.097
	c12.471,5.717,27.144,3.835,37.772-4.871l46.427-38.063c12.272-10.048,16.588-26.934,10.669-41.653l-30.953-76.774
	c-3.294-8.19-9.493-14.872-17.39-18.772c-19.269-9.522-39.738-16.077-59.464-20.658h52.528c13.385,0,26.172-5.564,35.284-15.365
	c9.123-9.791,13.744-22.94,12.779-36.296c-2.173-30.253,4.662-60.479,19.632-86.858l5.169-9.058
	C497.706,107.999,494.992,86.815,481.448,72.878z"/>
<g>
</g>
<g>
</g>
<g>
</g>
<g>
</g>
<g>
</g>
<g>
</g>
<g>
</g>
<g>
</g>
<g>
</g>
<g>
</g>
<g>
</g>
<g>
</g>
<g>
</g>
<g>
</g>
<g>
</g>
</svg>
