<?xml version="1.0" encoding="iso-8859-1"?>
<!-- Generator: Adobe Illustrator 19.0.0, SVG Export Plug-In . SVG Version: 6.00 Build 0)  -->
<svg version="1.1" id="Capa_1" xmlns="http://www.w3.org/2000/svg" xmlns:xlink="http://www.w3.org/1999/xlink" x="0px" y="0px"
	 viewBox="0 0 463 463" style="enable-background:new 0 0 463 463;" xml:space="preserve">
<path d="M455.5,396h-2.144L447,370.577V227.5c0-14.785-10.241-27.216-24-30.591V179.5c0-8.547-6.953-15.5-15.5-15.5H407V75.5
	c0-12.958-10.542-23.5-23.5-23.5h-80C290.542,52,280,62.542,280,75.5V92h-0.5c-12.958,0-23.5,10.542-23.5,23.5V276h-8.5
	c-4.687,0-8.5-3.813-8.5-8.5v-64c0-12.958-10.542-23.5-23.5-23.5H207v-64.5c0-12.958-10.542-23.5-23.5-23.5h-16
	c-12.958,0-23.5,10.542-23.5,23.5V276h-8.5c-4.687,0-8.5-3.813-8.5-8.5v-64c0-12.958-10.542-23.5-23.5-23.5H95v-64.5
	C95,102.542,84.458,92,71.5,92h-16C42.542,92,32,102.542,32,115.5v225.734c-9.29,3.138-16,11.93-16,22.266V396H7.5
	c-4.142,0-7.5,3.357-7.5,7.5s3.358,7.5,7.5,7.5h448c4.142,0,7.5-3.357,7.5-7.5S459.642,396,455.5,396z M432,364h-25v-8.5
	c0-4.143-3.358-7.5-7.5-7.5s-7.5,3.357-7.5,7.5v8.5h-25V243h65V364z M365.356,379H392v17h-30.894L365.356,379z M407,379h26.644
	l4.25,17H407V379z M432,227.5v0.5h-65v-0.5c0-9.098,7.402-16.5,16.5-16.5h32C424.598,211,432,218.402,432,227.5z M408,179.5V196h-17
	v-16.5c0-0.275,0.224-0.5,0.5-0.5h16C407.776,179,408,179.225,408,179.5z M295,75.5c0-4.687,3.813-8.5,8.5-8.5h80
	c4.687,0,8.5,3.813,8.5,8.5V164h-0.5c-8.547,0-15.5,6.953-15.5,15.5v17.409c-13.759,3.374-24,15.806-24,30.591v143.077L345.644,396
	H335v-32.5c0-10.336-6.71-19.128-16-22.266V115.5c0-12.958-10.542-23.5-23.5-23.5H295V75.5z M256.269,359.055
	C257.987,370.332,267.75,379,279.5,379h0.5v17h-25v-32.5C255,361.87,255.47,360.35,256.269,359.055z M304,355.5
	c0,4.687-3.813,8.5-8.5,8.5h-16c-4.687,0-8.5-3.813-8.5-8.5V139h33V355.5z M295,379h0.5c11.75,0,21.513-8.668,23.231-19.945
	C319.53,360.35,320,361.87,320,363.5V396h-25V379z M279.5,107h16c4.687,0,8.5,3.813,8.5,8.5v8.5h-33v-8.5
	C271,110.813,274.813,107,279.5,107z M215.5,195c4.687,0,8.5,3.813,8.5,8.5v64c0,12.958,10.542,23.5,23.5,23.5h8.5v50.234
	c-9.29,3.138-16,11.93-16,22.266V396h-17v-32.5c0-10.336-6.71-19.128-16-22.266V195H215.5z M144.269,359.055
	C145.987,370.332,155.75,379,167.5,379h0.5v17h-25v-32.5C143,361.87,143.47,360.35,144.269,359.055z M192,355.5
	c0,4.687-3.813,8.5-8.5,8.5h-16c-4.687,0-8.5-3.813-8.5-8.5V139h33V355.5z M183,379h0.5c11.75,0,21.513-8.668,23.231-19.945
	C207.53,360.35,208,361.87,208,363.5V396h-25V379z M167.5,107h16c4.687,0,8.5,3.813,8.5,8.5v8.5h-33v-8.5
	C159,110.813,162.813,107,167.5,107z M103.5,195c4.687,0,8.5,3.813,8.5,8.5v64c0,12.958,10.542,23.5,23.5,23.5h8.5v50.234
	c-9.29,3.138-16,11.93-16,22.266V396h-17v-32.5c0-10.336-6.71-19.128-16-22.266V195H103.5z M47,139h33v216.5
	c0,4.687-3.813,8.5-8.5,8.5h-16c-4.687,0-8.5-3.813-8.5-8.5V139z M71.5,379c11.75,0,21.513-8.668,23.231-19.945
	C95.53,360.35,96,361.87,96,363.5V396H71v-17H71.5z M55.5,107h16c4.687,0,8.5,3.813,8.5,8.5v8.5H47v-8.5
	C47,110.813,50.813,107,55.5,107z M31,363.5c0-1.63,0.47-3.15,1.269-4.445C33.987,370.332,43.75,379,55.5,379H56v17H31V363.5z"/>
<g>
</g>
<g>
</g>
<g>
</g>
<g>
</g>
<g>
</g>
<g>
</g>
<g>
</g>
<g>
</g>
<g>
</g>
<g>
</g>
<g>
</g>
<g>
</g>
<g>
</g>
<g>
</g>
<g>
</g>
</svg>
