<?xml version="1.0" encoding="iso-8859-1"?>
<!-- Generator: Adobe Illustrator 18.0.0, SVG Export Plug-In . SVG Version: 6.00 Build 0)  -->
<!DOCTYPE svg PUBLIC "-//W3C//DTD SVG 1.1//EN" "http://www.w3.org/Graphics/SVG/1.1/DTD/svg11.dtd">
<svg version="1.1" id="Capa_1" xmlns="http://www.w3.org/2000/svg" xmlns:xlink="http://www.w3.org/1999/xlink" x="0px" y="0px"
	 viewBox="0 0 60.003 60.003" style="enable-background:new 0 0 60.003 60.003;" xml:space="preserve">
<g>
	<path d="M29.098,30.999c0.025,0.012,0.05,0.021,0.076,0.031c0.113,0.042,0.228,0.07,0.344,0.07h0.001h0c0.001,0,0.001,0,0.001,0
		c0.11,0,0.216-0.024,0.319-0.059c0.029-0.01,0.056-0.022,0.084-0.034c0.09-0.04,0.174-0.092,0.25-0.158
		c0.009-0.008,0.022-0.011,0.031-0.02L44.17,17.69c0.402-0.379,0.422-1.012,0.043-1.414c-0.378-0.401-1.012-0.421-1.414-0.043
		L29.37,28.867l-13.326-7.521c-0.482-0.271-1.091-0.102-1.363,0.38c-0.271,0.48-0.102,1.091,0.379,1.362l13.966,7.883
		C29.051,30.984,29.075,30.989,29.098,30.999z"/>
	<ellipse cx="20.354" cy="31.413" rx="3.055" ry="3.066"/>
	<ellipse cx="40.43" cy="27.91" rx="3.055" ry="3.065"/>
	<path d="M59.796,26.568c-0.402-1.698-1.366-3.157-2.578-3.902c-0.811-0.5-1.679-0.66-2.507-0.461
		c-0.189,0.045-0.371,0.114-0.549,0.198c-2.335-5.685-5.977-9.368-9.722-11.747l1.355-2.709c0.247-0.494,0.047-1.095-0.447-1.342
		c-0.495-0.246-1.095-0.047-1.342,0.447l-1.295,2.59c-0.618-0.329-1.232-0.624-1.84-0.892l0.978-2.935
		c0.175-0.524-0.108-1.091-0.632-1.265c-0.526-0.177-1.091,0.108-1.265,0.632L39.009,8.01c-0.693-0.249-1.365-0.462-2.011-0.643
		l0.85-2.551c0.175-0.524-0.108-1.091-0.632-1.265c-0.525-0.177-1.09,0.108-1.265,0.632L35.05,6.887
		c-1.264-0.265-2.35-0.412-3.15-0.486V4.499c0-0.553-0.448-1-1-1s-1,0.447-1,1v1.842c-0.525,0.025-1.444,0.097-2.632,0.283
		l-0.382-2.29c-0.091-0.544-0.604-0.917-1.151-0.822c-0.544,0.091-0.913,0.606-0.822,1.15l0.39,2.337
		c-1.071,0.242-2.258,0.576-3.508,1.023l-0.947-2.84c-0.174-0.523-0.739-0.809-1.265-0.632c-0.524,0.174-0.807,0.74-0.632,1.265
		l0.982,2.946c-0.863,0.379-1.742,0.82-2.621,1.325l-1.517-3.035c-0.247-0.494-0.847-0.693-1.342-0.447
		c-0.494,0.247-0.694,0.848-0.447,1.342l1.603,3.205c-0.881,0.602-1.749,1.286-2.594,2.047l-2.407-2.406
		c-0.391-0.391-1.023-0.391-1.414,0s-0.391,1.023,0,1.414l2.387,2.387c-3.076,3.273-5.646,7.837-6.826,14.213
		c-0.015,0.083-0.025,0.167-0.04,0.25c-0.254-0.07-0.512-0.118-0.776-0.118C1.73,28.939,0,31.322,0,34.363s1.73,5.424,3.939,5.424
		c0.404,0,0.798-0.102,1.177-0.267c0.701,2.671,1.863,5.179,3.459,7.378c3.194,4.404,9.468,9.606,21.269,9.606
		c0.181,0,0.364-0.001,0.548-0.004c12.15,0.17,18.573-5.13,21.817-9.603c2.881-3.971,4.346-8.946,4.23-14.077
		c0.035,0.001,0.07,0.014,0.104,0.014c0.227,0,0.452-0.025,0.671-0.078C59.363,32.245,60.497,29.526,59.796,26.568z M4.674,37.489
		c-0.206,0.166-0.456,0.298-0.735,0.298C3.022,37.787,2,36.38,2,34.363s1.022-3.424,1.939-3.424c0.167,0,0.336,0.047,0.505,0.139
		c-0.049,0.533-0.081,1.066-0.096,1.597c-0.001,0.034,0,0.067-0.001,0.101c-0.011,0.445-0.009,0.889,0.004,1.332
		c0.004,0.136,0.009,0.271,0.015,0.407c0.016,0.36,0.042,0.719,0.074,1.076c0.012,0.141,0.021,0.282,0.036,0.422
		c0.047,0.438,0.106,0.874,0.177,1.307C4.66,37.375,4.664,37.433,4.674,37.489z M50.59,45.724
		c-4.315,5.949-11.108,8.893-20.185,8.776h-0.027c-9.066,0.166-15.869-2.827-20.184-8.776c-2.062-2.842-3.329-6.255-3.726-9.866
		c-0.008-0.078-0.01-0.157-0.017-0.235c-0.057-0.57-0.089-1.144-0.102-1.721c-0.005-0.252-0.001-0.504,0.002-0.757
		c0.004-0.406,0.021-0.814,0.047-1.222c0.019-0.294,0.039-0.588,0.069-0.883c0.064-0.623,0.138-1.246,0.253-1.869
		c1.097-5.928,3.438-10.163,6.237-13.199l1.235,1.235c0.195,0.195,0.451,0.293,0.707,0.293s0.512-0.098,0.707-0.293
		c0.391-0.391,0.391-1.023,0-1.414l-1.229-1.229c0.684-0.619,1.384-1.181,2.094-1.683l0.533,1.067
		c0.175,0.351,0.528,0.553,0.896,0.553c0.15,0,0.303-0.034,0.446-0.105c0.494-0.247,0.694-0.848,0.447-1.342l-0.628-1.257
		c0.795-0.464,1.59-0.872,2.372-1.219l0.413,1.24c0.14,0.419,0.53,0.684,0.949,0.684c0.104,0,0.211-0.017,0.316-0.052
		c0.524-0.174,0.807-0.74,0.632-1.265l-0.45-1.349c1.148-0.407,2.235-0.7,3.224-0.917l0.291,1.747
		c0.082,0.489,0.505,0.836,0.985,0.836c0.054,0,0.11-0.004,0.166-0.014c0.544-0.091,0.913-0.606,0.822-1.15l-0.296-1.777
		c1.021-0.146,1.824-0.201,2.31-0.22v2.161c0,0.553,0.448,1,1,1s1-0.447,1-1V8.404c0.669,0.06,1.53,0.169,2.525,0.359l-0.473,1.42
		c-0.175,0.524,0.108,1.091,0.632,1.265c0.105,0.035,0.212,0.052,0.316,0.052c0.419,0,0.809-0.265,0.949-0.684l0.535-1.605
		c0.644,0.173,1.32,0.383,2.015,0.63l-0.447,1.342c-0.175,0.524,0.108,1.091,0.632,1.265c0.105,0.035,0.212,0.052,0.316,0.052
		c0.419,0,0.809-0.265,0.949-0.684l0.411-1.232c0.526,0.234,1.057,0.495,1.59,0.78l-0.844,1.688
		c-0.247,0.494-0.047,1.095,0.447,1.342c0.144,0.071,0.296,0.105,0.446,0.105c0.367,0,0.72-0.202,0.896-0.553l0.78-1.56
		c3.519,2.288,6.923,5.86,9.027,11.457l-0.008,0.01l0.182,0.513c0.26,0.731,0.484,1.464,0.687,2.205
		c0.025,0.094,0.052,0.185,0.077,0.28c0.2,0.759,0.376,1.527,0.523,2.318c0.122,0.661,0.205,1.323,0.269,1.984
		c0.012,0.124,0.028,0.245,0.039,0.37C54.791,36.693,53.464,41.763,50.59,45.724z M56.751,30.812c-0.135,0.032-0.281,0.032-0.436,0
		c-0.004-0.035-0.011-0.066-0.014-0.101c-0.068-0.635-0.153-1.27-0.271-1.904c-0.143-0.772-0.31-1.513-0.493-2.233
		c-0.021-0.081-0.046-0.16-0.067-0.241c-0.18-0.689-0.377-1.352-0.59-1.994c-0.005-0.016-0.009-0.032-0.014-0.047
		c0.101-0.069,0.204-0.116,0.31-0.142c0.379-0.091,0.75,0.068,0.994,0.219c0.758,0.466,1.402,1.485,1.68,2.66
		C58.315,28.993,57.644,30.599,56.751,30.812z"/>
	<path d="M46.3,40.7l-1.837,1.378c-3.847-2.875-7.828-4.046-11.835-3.44c-7.044,1.062-11.754,7.16-12.544,8.249L18.5,45.7
		c-0.443-0.331-1.069-0.242-1.4,0.2c-0.332,0.441-0.242,1.068,0.2,1.399l4,3c0.18,0.135,0.391,0.2,0.599,0.2
		c0.304,0,0.604-0.138,0.801-0.4c0.332-0.441,0.242-1.068-0.2-1.399l-0.816-0.612c0.593-0.81,4.987-6.536,11.254-7.474
		c3.293-0.491,6.604,0.432,9.852,2.718L42.3,43.7c-0.442,0.331-0.531,0.958-0.2,1.399c0.196,0.263,0.497,0.4,0.801,0.4
		c0.208,0,0.419-0.065,0.599-0.2l4-3c0.442-0.331,0.531-0.958,0.2-1.399C47.37,40.457,46.745,40.37,46.3,40.7z"/>
</g>
<g>
</g>
<g>
</g>
<g>
</g>
<g>
</g>
<g>
</g>
<g>
</g>
<g>
</g>
<g>
</g>
<g>
</g>
<g>
</g>
<g>
</g>
<g>
</g>
<g>
</g>
<g>
</g>
<g>
</g>
</svg>
