<?xml version="1.0" encoding="iso-8859-1"?>
<!-- Generator: Adobe Illustrator 16.0.0, SVG Export Plug-In . SVG Version: 6.00 Build 0)  -->
<!DOCTYPE svg PUBLIC "-//W3C//DTD SVG 1.1//EN" "http://www.w3.org/Graphics/SVG/1.1/DTD/svg11.dtd">
<svg version="1.1" id="Capa_1" xmlns="http://www.w3.org/2000/svg" xmlns:xlink="http://www.w3.org/1999/xlink" x="0px" y="0px"
	 width="568.816px" height="568.816px" viewBox="0 0 568.816 568.816" style="enable-background:new 0 0 568.816 568.816;"
	 xml:space="preserve">
<g>
	<g>
		<path d="M284.405,568.816c156.825,0,284.408-127.582,284.408-284.408C568.813,127.583,441.23,0,284.405,0
			S0.003,127.583,0.003,284.408C0.003,441.234,127.58,568.816,284.405,568.816z M284.405,519.857
			c-19.511,0-38.458-2.43-56.604-6.922l54.548-139.334c0.685,0.018,1.358,0.104,2.05,0.104c0.3,0,0.587-0.043,0.881-0.043
			l54.621,139.523C322.099,517.508,303.524,519.857,284.405,519.857z M244.068,284.408c0-22.24,18.097-40.336,40.337-40.336
			s40.337,18.097,40.337,40.336c0,5.238-1.034,10.232-2.864,14.83c-3.543,8.916-10.153,16.285-18.543,20.764
			c-5.649,3.018-12.094,4.738-18.93,4.738c-7.479,0-14.468-2.082-20.478-5.65c-8.127-4.816-14.413-12.387-17.577-21.432
			C244.901,293.504,244.068,289.061,244.068,284.408z M397.001,491.131l-54.449-139.09c7.209-6.205,13.378-13.543,18.311-21.732
			h154.469C501.562,399.686,457.24,458.191,397.001,491.131z M399.511,284.408c0-9.431,7.649-17.081,17.08-17.081
			c9.432,0,17.081,7.65,17.081,17.081c0,9.432-7.649,17.082-17.081,17.082C407.16,301.49,399.511,293.84,399.511,284.408z
			 M448.471,284.408c0-9.431,7.649-17.081,17.08-17.081c9.432,0,17.081,7.65,17.081,17.081c0,9.432-7.649,17.082-17.081,17.082
			C456.12,301.49,448.471,293.84,448.471,284.408z M284.405,48.96c114.113,0,209.506,81.623,230.92,189.549H360.856
			c-15.637-25.949-44.009-43.397-76.451-43.397c-32.442,0-60.814,17.448-76.451,43.397H53.485
			C74.899,130.583,170.292,48.96,284.405,48.96z M106.417,293.742c-1.781,0-3.226-1.445-3.226-3.227v-12.208
			c0-1.781,1.444-3.225,3.226-3.225h15.416v-15.41c0-1.781,1.444-3.226,3.226-3.226h12.209c1.781,0,3.226,1.444,3.226,3.226v15.41
			h15.41c1.787,0,3.225,1.444,3.225,3.225v12.208c0,1.781-1.444,3.227-3.225,3.227h-15.41v15.41c0,1.781-1.444,3.225-3.226,3.225
			h-12.209c-1.787,0-3.226-1.443-3.226-3.225v-15.41H106.417z M207.954,330.309c4.725,7.846,10.6,14.891,17.43,20.93
			l-54.547,139.334c-59.737-33.041-103.661-91.268-117.351-160.264H207.954z"/>
	</g>
</g>
<g>
</g>
<g>
</g>
<g>
</g>
<g>
</g>
<g>
</g>
<g>
</g>
<g>
</g>
<g>
</g>
<g>
</g>
<g>
</g>
<g>
</g>
<g>
</g>
<g>
</g>
<g>
</g>
<g>
</g>
</svg>
