<?xml version="1.0" encoding="iso-8859-1"?>
<!-- Generator: Adobe Illustrator 18.0.0, SVG Export Plug-In . SVG Version: 6.00 Build 0)  -->
<!DOCTYPE svg PUBLIC "-//W3C//DTD SVG 1.1//EN" "http://www.w3.org/Graphics/SVG/1.1/DTD/svg11.dtd">
<svg version="1.1" id="Capa_1" xmlns="http://www.w3.org/2000/svg" xmlns:xlink="http://www.w3.org/1999/xlink" x="0px" y="0px"
	 viewBox="0 0 60 60" style="enable-background:new 0 0 60 60;" xml:space="preserve">
<g>
	<path d="M21,43c2.757,0,5-2.243,5-5s-2.243-5-5-5s-5,2.243-5,5S18.243,43,21,43z M21,35c1.654,0,3,1.346,3,3s-1.346,3-3,3
		s-3-1.346-3-3S19.346,35,21,35z"/>
	<path d="M53,24.077h-1.344l-0.739-1.477c-3.319-7.621,0.99-21.157,1.034-21.293c0.099-0.304,0.046-0.638-0.143-0.896
		C51.62,0.153,51.32,0,51,0H9C8.65,0,8.326,0.183,8.145,0.482c-0.181,0.299-0.192,0.671-0.031,0.98
		c4.047,7.741,4.31,13.471,0.992,21.09l-0.762,1.524H7c-1.654,0-3,1.346-3,3V28c0,1.654,1.346,3,3,3h1v20c0,2.757,2.243,5,5,5h3
		v1.694C16,58.966,17.034,60,18.306,60h23.389C42.966,60,44,58.966,44,57.694V56h3c2.757,0,5-2.243,5-5V31h1c1.654,0,3-1.346,3-3
		v-0.923C56,25.423,54.654,24.077,53,24.077z M10.618,2H49.66c-0.543,1.939-1.487,5.782-1.846,10H13.349
		C13.205,8.775,12.307,5.545,10.618,2z M47.677,16H13.138c0.099-0.67,0.174-1.337,0.21-2h34.346
		C47.671,14.666,47.661,15.333,47.677,16z M10.917,23.399c0.818-1.88,1.431-3.664,1.842-5.399h35.042
		c0.187,1.931,0.585,3.797,1.305,5.447L49.382,24H10.617L10.917,23.399z M42,57.694C42,57.863,41.863,58,41.694,58H18.306
		C18.137,58,18,57.863,18,57.694V56h24V57.694z M50,44.917c-3.44-0.523-5-3.729-5-6.917c0-2.757-2.243-5-5-5s-5,2.243-5,5
		s2.243,5,5,5c1.387,0,2.643-0.57,3.55-1.485c1.013,3.028,3.364,5.061,6.45,5.422V51c0,1.654-1.346,3-3,3h-3H16h-3
		c-1.654,0-3-1.346-3-3V31h40V44.917z M43,38c0,1.654-1.346,3-3,3s-3-1.346-3-3s1.346-3,3-3S43,36.346,43,38z M54,28
		c0,0.552-0.448,1-1,1h-2H9H7c-0.552,0-1-0.448-1-1v-0.923c0-0.552,0.448-1,1-1h46c0.552,0,1,0.448,1,1V28z"/>
	<path d="M16.143,46.518c1.025,2.423,2.639,4.07,4.795,4.898c1.138,0.437,2.316,0.6,3.44,0.6c2.475,0,4.682-0.789,5.589-1.163
		c1.32,0.544,5.386,1.962,9.03,0.563c2.189-0.841,3.818-2.526,4.842-5.011c0.205-0.499-0.022-1.071-0.515-1.293
		c-0.493-0.222-1.072-0.011-1.309,0.474c-0.306,0.625-1.075,1.195-1.871,1.025c-0.975-0.206-1.957-0.68-2.921-1.407
		c-1.286-0.972-2.638-1.354-4.019-1.15c-1.417,0.215-2.538,1.031-3.238,1.691c-0.7-0.66-1.82-1.476-3.237-1.69
		c-1.38-0.212-2.732,0.177-4.019,1.149c-0.964,0.728-1.946,1.201-2.92,1.407c-0.857,0.181-1.563-0.342-1.845-0.96
		c-0.011-0.024-0.021-0.049-0.031-0.074l-0.017-0.033c-0.019-0.037-0.038-0.072-0.061-0.106c-0.266-0.41-0.796-0.569-1.253-0.364
		c-0.49,0.224-0.715,0.795-0.509,1.293C16.098,46.417,16.119,46.468,16.143,46.518z M20.204,48.568
		c1.264-0.268,2.513-0.862,3.712-1.769c0.849-0.642,1.666-0.896,2.503-0.77c1.59,0.234,2.727,1.77,2.735,1.781
		c0.188,0.262,0.49,0.417,0.813,0.417s0.624-0.155,0.813-0.417c0.011-0.015,1.146-1.54,2.726-1.78
		c0.842-0.121,1.661,0.125,2.514,0.769c1.199,0.906,2.448,1.501,3.712,1.769c0.06,0.013,0.118,0.023,0.177,0.032
		c-0.485,0.401-1.025,0.717-1.618,0.944c-3.521,1.356-7.849-0.665-7.892-0.686c-0.272-0.129-0.591-0.129-0.863,0.001
		c-0.043,0.021-4.342,2.049-7.88,0.688c-0.595-0.229-1.137-0.544-1.625-0.948C20.087,48.592,20.146,48.58,20.204,48.568z"/>
	<circle cx="21" cy="38" r="1"/>
</g>
<g>
</g>
<g>
</g>
<g>
</g>
<g>
</g>
<g>
</g>
<g>
</g>
<g>
</g>
<g>
</g>
<g>
</g>
<g>
</g>
<g>
</g>
<g>
</g>
<g>
</g>
<g>
</g>
<g>
</g>
</svg>
