<?xml version="1.0" encoding="iso-8859-1"?>
<!-- Generator: Adobe Illustrator 18.0.0, SVG Export Plug-In . SVG Version: 6.00 Build 0)  -->
<!DOCTYPE svg PUBLIC "-//W3C//DTD SVG 1.1//EN" "http://www.w3.org/Graphics/SVG/1.1/DTD/svg11.dtd">
<svg version="1.1" id="Capa_1" xmlns="http://www.w3.org/2000/svg" xmlns:xlink="http://www.w3.org/1999/xlink" x="0px" y="0px"
	 viewBox="0 0 59.002 59.002" style="enable-background:new 0 0 59.002 59.002;" xml:space="preserve">
<g>
	<path d="M27.845,34.002c0-3.859-3.141-7-7-7s-7,3.141-7,7s3.141,7,7,7S27.845,37.861,27.845,34.002z M20.845,39.002
		c-2.757,0-5-2.243-5-5s2.243-5,5-5s5,2.243,5,5S23.602,39.002,20.845,39.002z"/>
	<circle cx="18.845" cy="32.002" r="2"/>
	<path d="M38.845,27.002c-3.859,0-7,3.141-7,7s3.141,7,7,7s7-3.141,7-7S42.704,27.002,38.845,27.002z M38.845,39.002
		c-2.757,0-5-2.243-5-5s2.243-5,5-5s5,2.243,5,5S41.602,39.002,38.845,39.002z"/>
	<circle cx="36.845" cy="32.002" r="2"/>
	<path d="M30.63,44.096c-4.562,0.688-7.486,4.866-7.608,5.044c-0.313,0.455-0.199,1.077,0.256,1.391
		c0.174,0.12,0.371,0.177,0.566,0.177c0.318,0,0.631-0.151,0.824-0.433c0.025-0.036,2.547-3.641,6.26-4.201
		c1.973-0.302,3.971,0.337,5.933,1.886c0.435,0.343,1.064,0.267,1.405-0.165c0.342-0.434,0.268-1.063-0.165-1.405
		C35.687,44.484,33.173,43.713,30.63,44.096z"/>
	<path d="M58.399,43.657c-2.099-4.705-2.759-13.611-2.965-18.502c-0.193-4.619-1.571-8.96-3.983-12.554
		c-4.309-6.421-9.09-9.038-12.312-10.448c-6.561-2.87-14.084-2.871-20.645,0c-3.791,1.658-8.127,4.074-11.546,9.418
		c-2.292,3.583-3.552,7.9-3.642,12.485c-0.104,5.27-0.595,14.846-2.726,19.777c-0.678,1.57,0.037,3.407,1.593,4.095
		c0.895,0.396,2.606,0.632,4.752,0.899c0.139,0.018,0.265,0.033,0.396,0.05v1.124c0,2.663,2.344,5,5.015,5h2.509v1.694
		c0,1.271,1.034,2.306,2.306,2.306h23.389c1.271,0,2.306-1.034,2.306-2.306v-1.694h3.293c2.713,0,5.184-2.383,5.184-5v-1.159
		c0.541-0.089,1.099-0.173,1.657-0.25c1.45-0.204,2.819-0.396,3.705-0.74c0.805-0.313,1.428-0.923,1.755-1.718
		C58.769,45.334,58.754,44.454,58.399,43.657z M40.845,56.696c0,0.169-0.137,0.306-0.306,0.306H17.151
		c-0.169,0-0.306-0.137-0.306-0.306v-1.694h24V56.696z M49.322,50.002c0,1.514-1.577,3-3.184,3h-3.293h-28h-2.509
		c-1.55,0-3.015-1.458-3.015-3V27.945c4.038-0.278,19.387-1.802,25.819-9.082c1.453,2.695,4.954,8.311,9.565,9.765
		c1.561,0.49,3.107,0.473,4.615-0.057V50.002z M56.589,45.374c-0.116,0.284-0.34,0.502-0.629,0.614
		c-0.669,0.26-1.986,0.444-3.26,0.623c-0.458,0.064-0.922,0.131-1.379,0.202V27.002c0-0.359-0.192-0.69-0.504-0.868
		c-0.313-0.178-0.694-0.176-1.005,0.007c-1.484,0.878-2.957,1.066-4.503,0.58c-5.15-1.621-9.039-10.048-9.078-10.133
		c-0.15-0.33-0.467-0.553-0.828-0.582c-0.357-0.031-0.709,0.137-0.912,0.438c-5.79,8.608-26.008,9.551-26.212,9.56
		c-0.535,0.022-0.958,0.463-0.958,0.999v19.861c-0.051-0.007-0.096-0.012-0.148-0.019c-1.391-0.174-3.493-0.436-4.189-0.744
		c-0.566-0.25-0.814-0.897-0.566-1.473C4.684,39.38,5.2,29.511,5.307,24.095c0.083-4.217,1.233-8.175,3.327-11.446
		c3.13-4.894,7.146-7.126,10.662-8.664c6.05-2.647,12.99-2.647,19.04,0c2.993,1.31,7.437,3.744,11.454,9.731
		c2.206,3.287,3.467,7.271,3.646,11.522c0.26,6.147,1.014,14.475,3.137,19.232C56.702,44.763,56.708,45.085,56.589,45.374z"/>
</g>
<g>
</g>
<g>
</g>
<g>
</g>
<g>
</g>
<g>
</g>
<g>
</g>
<g>
</g>
<g>
</g>
<g>
</g>
<g>
</g>
<g>
</g>
<g>
</g>
<g>
</g>
<g>
</g>
<g>
</g>
</svg>
