<?xml version="1.0" encoding="iso-8859-1"?>
<!-- Generator: Adobe Illustrator 16.0.0, SVG Export Plug-In . SVG Version: 6.00 Build 0)  -->
<!DOCTYPE svg PUBLIC "-//W3C//DTD SVG 1.1//EN" "http://www.w3.org/Graphics/SVG/1.1/DTD/svg11.dtd">
<svg version="1.1" id="Capa_1" xmlns="http://www.w3.org/2000/svg" xmlns:xlink="http://www.w3.org/1999/xlink" x="0px" y="0px"
	 width="30.057px" height="30.057px" viewBox="0 0 30.057 30.057" style="enable-background:new 0 0 30.057 30.057;"
	 xml:space="preserve">
<g>
	<g>
		<path d="M29.315,21.528c-0.653-1.332-1.688-2.961-2.916-4.587c-0.974-1.291-4.296-5.501-6.171-5.501
			c-0.299,0-0.576,0.09-0.805,0.261c-0.147,0.113-0.205,0.16-2.396,4.18c-1.001-2.208-4.929-10.822-6.616-14.523
			c-0.304-0.667-1.251-0.667-1.555,0C6.567,6.389,0,20.834,0,21.086c0,0.992,1.252,2.656,9.635,2.656
			c1.204,0,2.255-0.035,3.18-0.098c-0.669,1.231-1.406,2.594-2.222,4.1c-0.184,0.34-0.153,0.756,0.08,1.063
			c0.188,0.25,0.48,0.392,0.786,0.392c0.071,0,0.143-0.007,0.214-0.022c17.614-3.909,17.614-3.909,17.848-4.086
			C30.517,24.337,29.933,22.792,29.315,21.528z M8.007,5.6l2.83-0.938c0.251,0.55,0.53,1.162,0.832,1.825L6.892,8.048
			C7.29,7.173,7.667,6.347,8.007,5.6z M5.213,11.736l7.696-2.525c0.269,0.591,0.543,1.191,0.818,1.799l-9.619,3.157
			C4.469,13.374,4.841,12.557,5.213,11.736z M2.439,17.848l12.528-4.113c0.281,0.619,0.557,1.224,0.82,1.806L1.341,20.28
			C1.595,19.712,1.979,18.862,2.439,17.848z M14.083,21.304L9.66,22.755c-0.008,0-0.016,0-0.024,0c-1.977,0-3.792-0.13-5.248-0.347
			l11.064-3.63C15.042,19.536,14.588,20.372,14.083,21.304z M18.214,26.237c-0.57,0.433-1.385,0.316-1.813-0.253
			c-0.432-0.572-0.318-1.385,0.255-1.817c0.568-0.431,1.385-0.315,1.814,0.257C18.901,24.993,18.787,25.807,18.214,26.237z
			 M18.771,20.874c-0.975,0.734-2.355,0.548-3.104-0.416c0.667-1.228,1.33-2.448,1.938-3.562c0.611,0.046,1.203,0.322,1.604,0.852
			C19.951,18.73,19.753,20.13,18.771,20.874z M21.604,18.363c-0.783-1.04-0.577-2.519,0.462-3.302
			c0.327-0.248,0.702-0.386,1.085-0.439c0.775,0.812,1.617,1.792,2.463,2.912c0.037,0.051,0.07,0.101,0.107,0.148
			c-0.145,0.438-0.418,0.843-0.813,1.144C23.866,19.609,22.388,19.402,21.604,18.363z M22.486,25.757
			c-0.471-0.813-0.277-1.862,0.488-2.441c0.832-0.627,2.018-0.461,2.645,0.371c0.282,0.374,0.396,0.818,0.367,1.251
			C24.931,25.191,23.698,25.486,22.486,25.757z"/>
	</g>
</g>
<g>
</g>
<g>
</g>
<g>
</g>
<g>
</g>
<g>
</g>
<g>
</g>
<g>
</g>
<g>
</g>
<g>
</g>
<g>
</g>
<g>
</g>
<g>
</g>
<g>
</g>
<g>
</g>
<g>
</g>
</svg>
