<?xml version="1.0" encoding="iso-8859-1"?>
<!-- Generator: Adobe Illustrator 19.0.0, SVG Export Plug-In . SVG Version: 6.00 Build 0)  -->
<svg version="1.1" id="Capa_1" xmlns="http://www.w3.org/2000/svg" xmlns:xlink="http://www.w3.org/1999/xlink" x="0px" y="0px"
	 viewBox="0 0 463 463" style="enable-background:new 0 0 463 463;" xml:space="preserve">
<path d="M455.5,300H455v-43.246c0-10.55-4.108-20.469-11.568-27.929l-5.22-5.221l-18.653-68.393
	C415.832,141.545,403.335,132,389.169,132H335v-24.5c0-8.547-6.953-15.5-15.5-15.5h-304C6.953,92,0,98.953,0,107.5v192
	c0,8.547,6.953,15.5,15.5,15.5h28.125c-1.31,2.836-2.294,5.851-2.902,9H23.5c-4.143,0-7.5,3.357-7.5,7.5s3.357,7.5,7.5,7.5h17.223
	c3.515,18.205,19.561,32,38.777,32s35.262-13.795,38.777-32h115.668c2.647,4.765,7.728,8,13.555,8h64c5.827,0,10.908-3.235,13.555-8
	h19.668c3.515,18.205,19.561,32,38.777,32s35.262-13.795,38.777-32H455.5c4.143,0,7.5-3.357,7.5-7.5v-24
	C463,303.357,459.643,300,455.5,300z M421.681,219.999L367.5,220c-0.275,0-0.5-0.225-0.5-0.5V171h40.5
	c0.272,0,0.54-0.016,0.805-0.045L421.681,219.999z M389.169,147c6.268,0,11.901,3.576,14.68,9H359.5c-4.143,0-7.5,3.357-7.5,7.5v56
	c0,8.547,6.953,15.5,15.5,15.5l60.893-0.001l4.431,4.433c4.628,4.627,7.176,10.778,7.176,17.322V276h-8.5
	c-4.143,0-7.5,3.357-7.5,7.5s3.357,7.5,7.5,7.5h8.5v9h-32.5c-0.063,0-0.125,0.008-0.188,0.01c-6.626-5.023-14.875-8.01-23.812-8.01
	s-17.186,2.987-23.812,8.01c-0.063-0.002-0.125-0.01-0.188-0.01H335V147H389.169z M344.723,324H327v-8.5
	c0-0.169-0.02-0.333-0.025-0.5h0.525h20.125C346.315,317.836,345.331,320.851,344.723,324z M15,299.5V251h254.393l-11.196,11.196
	c-2.929,2.93-2.929,7.678,0,10.607c1.465,1.464,3.385,2.196,5.304,2.196s3.839-0.732,5.304-2.196l24-24
	c0.028-0.028,0.052-0.059,0.079-0.088c0.144-0.148,0.285-0.3,0.416-0.46c0.077-0.094,0.144-0.192,0.216-0.289
	c0.074-0.1,0.152-0.197,0.221-0.301c0.074-0.111,0.139-0.226,0.207-0.34c0.057-0.096,0.118-0.19,0.171-0.289
	c0.062-0.115,0.114-0.234,0.169-0.351c0.049-0.104,0.101-0.207,0.146-0.314c0.048-0.115,0.086-0.232,0.128-0.349
	c0.041-0.114,0.085-0.227,0.12-0.343c0.036-0.118,0.062-0.238,0.092-0.358c0.029-0.118,0.063-0.234,0.086-0.353
	c0.028-0.141,0.045-0.283,0.065-0.425c0.014-0.1,0.033-0.199,0.043-0.3c0.049-0.494,0.049-0.991,0-1.485
	c-0.01-0.102-0.029-0.2-0.043-0.3c-0.02-0.142-0.037-0.284-0.065-0.425c-0.024-0.12-0.057-0.236-0.086-0.353
	c-0.03-0.12-0.056-0.24-0.092-0.358c-0.036-0.117-0.079-0.23-0.12-0.344c-0.042-0.116-0.08-0.234-0.127-0.348
	c-0.044-0.107-0.097-0.21-0.146-0.315c-0.055-0.117-0.107-0.235-0.169-0.35c-0.053-0.099-0.114-0.193-0.171-0.289
	c-0.068-0.114-0.132-0.229-0.207-0.34c-0.069-0.104-0.147-0.201-0.221-0.301c-0.072-0.096-0.139-0.195-0.216-0.289
	c-0.131-0.16-0.272-0.312-0.416-0.46c-0.028-0.029-0.051-0.06-0.079-0.088l-24-24c-2.93-2.928-7.678-2.928-10.607,0
	c-2.929,2.93-2.929,7.678,0,10.607L269.393,236H15V107.5c0-0.275,0.225-0.5,0.5-0.5h304c0.275,0,0.5,0.225,0.5,0.5V300H103.497
	c-0.063,0-0.123,0.008-0.186,0.009C96.686,294.987,88.436,292,79.5,292c-8.936,0-17.186,2.987-23.812,8.01
	c-0.064-0.002-0.126-0.01-0.19-0.01H15.5C15.225,300,15,299.775,15,299.5z M232,315.5v8.5H118.277c-0.608-3.149-1.592-6.164-2.902-9
	h116.65C232.02,315.167,232,315.331,232,315.5z M79.5,356C65.99,356,55,345.01,55,331.5S65.99,307,79.5,307s24.5,10.99,24.5,24.5
	S93.01,356,79.5,356z M311.5,332h-64c-0.275,0-0.5-0.225-0.5-0.5v-16c0-0.275,0.225-0.5,0.5-0.5h64c0.275,0,0.5,0.225,0.5,0.5
	v15.961c0,0.013-0.002,0.026-0.002,0.039c0,0.003,0,0.005,0,0.008C311.994,331.779,311.773,332,311.5,332z M383.5,356
	c-13.51,0-24.5-10.99-24.5-24.5s10.99-24.5,24.5-24.5s24.5,10.99,24.5,24.5S397.01,356,383.5,356z M448,324h-25.723
	c-0.608-3.149-1.592-6.164-2.902-9H448V324z"/>
<g>
</g>
<g>
</g>
<g>
</g>
<g>
</g>
<g>
</g>
<g>
</g>
<g>
</g>
<g>
</g>
<g>
</g>
<g>
</g>
<g>
</g>
<g>
</g>
<g>
</g>
<g>
</g>
<g>
</g>
</svg>
