<?xml version="1.0" encoding="iso-8859-1"?>
<!-- Generator: Adobe Illustrator 16.0.0, SVG Export Plug-In . SVG Version: 6.00 Build 0)  -->
<!DOCTYPE svg PUBLIC "-//W3C//DTD SVG 1.1//EN" "http://www.w3.org/Graphics/SVG/1.1/DTD/svg11.dtd">
<svg version="1.1" id="Capa_1" xmlns="http://www.w3.org/2000/svg" xmlns:xlink="http://www.w3.org/1999/xlink" x="0px" y="0px"
	 width="31.125px" height="31.125px" viewBox="0 0 31.125 31.125" style="enable-background:new 0 0 31.125 31.125;"
	 xml:space="preserve">
<g>
	<path d="M25.281,16.47l5.844,0.267c0,0-5.403,0.681-6.056,0.875c-1.239,3.311-4.899,2.47-6.085,4.058
		c-1.866,2.501-5.297,3.35-10.642,1.895c-0.541,0.785-5.931,4.927-7.466,5.427s3.175-3.199,3.175-3.199s-2.259,1.567-3.789,1.974
		c-1.528,0.403,4.119-3.854,4.119-3.854s-2.454,1.021-3.782,1.105c-1.33,0.084,2.567-2.399,2.567-2.399s-1.201,0.092-1.656,0.092
		c-0.455,0-0.655-0.371,0.973-1.107c1.627-0.735,5.069-2.426,8.245-3.033c0.214-1.104-5.533-9.708-5.212-10.421
		c0.321-0.715,3.248-0.465,7.425,4.354c0.393-0.713-0.789-11.315,0.141-10.352c0.929,0.965,4.894,8.889,5.321,14.957
		c0.679,0.144,1.94-0.93,3.319-1.57C24.202,14.379,25.281,16.47,25.281,16.47z"/>
</g>
<g>
</g>
<g>
</g>
<g>
</g>
<g>
</g>
<g>
</g>
<g>
</g>
<g>
</g>
<g>
</g>
<g>
</g>
<g>
</g>
<g>
</g>
<g>
</g>
<g>
</g>
<g>
</g>
<g>
</g>
</svg>
