<?xml version="1.0" encoding="iso-8859-1"?>
<!-- Generator: Adobe Illustrator 19.0.0, SVG Export Plug-In . SVG Version: 6.00 Build 0)  -->
<svg version="1.1" id="Layer_1" xmlns="http://www.w3.org/2000/svg" xmlns:xlink="http://www.w3.org/1999/xlink" x="0px" y="0px"
	 viewBox="0 0 490 490" style="enable-background:new 0 0 490 490;" xml:space="preserve">
<g id="XMLID_197_">
	<g>
		<path d="M430,146.237V42.952l-217.642,79.097H72.565L0,146.237V287.86l72.565,24.188H95v135h100v-135h17.38L430,390.468V287.86
			l60-20V166.237L430,146.237z M60,276.237l-30-10V167.86l30-10V276.237z M165,417.048h-40v-105h40V417.048z M200,282.048H90v-130
			h110V282.048z M400,347.769l-170-61.26V147.557l170-61.783V347.769z M460,246.237l-30,10V177.86l30,10V246.237z"/>
	</g>
</g>
<g>
</g>
<g>
</g>
<g>
</g>
<g>
</g>
<g>
</g>
<g>
</g>
<g>
</g>
<g>
</g>
<g>
</g>
<g>
</g>
<g>
</g>
<g>
</g>
<g>
</g>
<g>
</g>
<g>
</g>
</svg>
