<?xml version="1.0" encoding="utf-8"?>
<!-- Generator: Adobe Illustrator 16.0.4, SVG Export Plug-In . SVG Version: 6.00 Build 0)  -->
<!DOCTYPE svg PUBLIC "-//W3C//DTD SVG 1.1//EN" "http://www.w3.org/Graphics/SVG/1.1/DTD/svg11.dtd">
<svg version="1.1" id="Capa_1" xmlns="http://www.w3.org/2000/svg" xmlns:xlink="http://www.w3.org/1999/xlink" x="0px" y="0px"
	 width="19.675px" height="18.449px" viewBox="0 0 19.675 18.449" enable-background="new 0 0 19.675 18.449" preserveAspectRatio="fit">
<path d="M18.811,17.922v-7.73h0.321V8.022h-0.438V7.255h0.142V6.951h-4.416V6.326h-1.856c0.052-0.07,0-0.564,0.108-0.674
	c0.111-0.109,0.057-0.219,0.184-0.219s0.184-0.018,0.184-0.018s0.11,0.166,0.057,0.311C13.039,5.875,12.93,6.02,12.93,6.02
	s-0.019,0.297,0.184,0.076c0,0,0.201-0.424,0.183-0.607c-0.02-0.182-0.072-0.533-0.072-0.588c0-0.055-0.186-0.312-0.186-0.312
	l0.092-0.326c0,0,0.146,0.051,0.184-0.041c0.038-0.092-0.086-0.67-0.086-0.744c0-0.072-0.018-0.182-0.184-0.201
	c-0.168-0.02-0.336-0.01-0.392,0.211c-0.056,0.221-0.093,0.643-0.2,0.881c-0.113,0.238-0.459,0.404-0.552,0.605
	c-0.092,0.203-0.073,0.59-0.073,0.773s0.053,0.348,0.017,0.477c-0.007,0.027-0.013,0.066-0.021,0.104h-0.365V5.8
	c0-0.219,0.021-0.828-0.108-1.174c-0.128-0.352-0.111-0.443-0.128-0.701c-0.02-0.256,0-0.605-0.163-0.641
	c-0.167-0.037-0.279,0.035-0.279,0.035s0.037-0.529-0.128-0.586c-0.165-0.055-0.385-0.018-0.424,0.057
	c-0.034,0.072-0.144-0.057-0.217-0.111C9.976,2.653,9.92,2.637,9.857,2.632V1.94c0.221-0.035,0.388-0.225,0.388-0.451
	c0-0.232-0.167-0.42-0.388-0.457V0.811c0.018-0.004,0.039-0.012,0.063-0.02c0,0,0.294-0.148,0.386-0.352
	C10.397,0.235,10.432,0,10.432,0s-0.311,0.125-0.438,0.275c-0.028,0.029-0.056,0.061-0.078,0.09
	c-0.015-0.109-0.068-0.195-0.13-0.195c-0.063,0-0.119,0.086-0.133,0.195c-0.022-0.029-0.049-0.061-0.075-0.09
	C9.45,0.125,9.135,0,9.135,0s0.04,0.236,0.131,0.439c0.091,0.203,0.386,0.352,0.386,0.352c0.021,0.008,0.042,0.016,0.059,0.02v0.223
	C9.491,1.069,9.324,1.257,9.324,1.49c0,0.227,0.167,0.416,0.388,0.451v0.707C9.685,2.651,9.662,2.664,9.643,2.68
	C9.551,2.75,9.478,2.77,9.405,2.77c-0.074,0-0.219,0.039-0.204,0.15c0.019,0.107,0.09,0.418,0.09,0.529c0,0.111,0.113,0.459,0,0.607
	C9.186,4.205,9.142,4.291,9.142,4.291S9.037,4.089,9.037,3.744c0-0.109-0.008-0.424-0.22-0.441c-0.247-0.02-0.24,0.24-0.218,0.404
	C8.616,3.871,8.635,4.423,8.486,4.55C8.34,4.682,8.34,4.882,8.321,5.121C8.302,5.36,8.377,5.487,8.432,5.582
	c0.053,0.09,0.053,0.199,0.073,0.293c0.018,0.09,0.093,0.182,0.093,0.182s0.036,0.129,0.091,0.039
	c0.053-0.092-0.142-0.529-0.022-0.443c0.082,0.055,0.074,0.418,0.06,0.674H8.051C8.046,6.289,8.04,6.25,8.032,6.223
	c-0.036-0.129,0.02-0.293,0.02-0.477s0.018-0.57-0.075-0.773c-0.092-0.201-0.44-0.367-0.553-0.605
	c-0.109-0.239-0.144-0.661-0.2-0.882c-0.056-0.22-0.182-0.201-0.348-0.183C6.713,3.319,6.694,3.434,6.694,3.503
	c0,0.074-0.297,0.457-0.131,0.717c0.054,0.084,0.184,0.041,0.184,0.041l0.092,0.326c0,0-0.183,0.258-0.183,0.312
	c0,0.054-0.056,0.407-0.076,0.588C6.562,5.671,6.763,6.096,6.763,6.096C6.966,6.315,6.947,6.02,6.947,6.02S6.839,5.875,6.783,5.727
	C6.729,5.582,6.839,5.416,6.839,5.416s0.055,0.018,0.185,0.018c0.126,0,0.071,0.109,0.182,0.219
	c0.108,0.109,0.059,0.604,0.108,0.674H5.227v0.625H0.723v0.305h0.279v0.768H0.455v2.169h0.314v7.729H0v0.527h19.675v-0.527H18.811
	L18.811,17.922z M3.666,17.922H2.504v-7.568h1.161L3.666,17.922L3.666,17.922z M6.621,17.922H5.46v-7.568h1.161V17.922z
	 M10.914,17.922H8.416v-7.568h2.498V17.922z M14.044,17.922h-1.338v-7.568h1.338V17.922z M17.071,17.922h-1.231v-7.568h1.231V17.922
	z"/>
</svg>
