<?xml version="1.0" encoding="iso-8859-1"?>
<!-- Generator: Adobe Illustrator 19.0.0, SVG Export Plug-In . SVG Version: 6.00 Build 0)  -->
<svg version="1.1" id="Layer_1" xmlns="http://www.w3.org/2000/svg" xmlns:xlink="http://www.w3.org/1999/xlink" x="0px" y="0px"
	 viewBox="0 0 460 460" style="enable-background:new 0 0 460 460;" xml:space="preserve">
<g id="XMLID_10_">
	<g>
		<path d="M460,150.001c-15.998,0-46.21,63.975-52.735,78.21c-36.211-12.598-96.027-32.087-145.85-41.984
			c-16.737-35.796-8.77-86.227-8.77-86.227c-42.241,18.104-51.705,54.409-52.572,80.36c-29.716,2.008-69.517,12.336-109.739,25.307
			C29.227,225.373,0,240.001,0,240.001h100l-30,20c0,0,37.477,17.921,79.162,29.772C162.017,277.074,170,259.454,170,240.001h20
			c0,20.81-7.102,39.99-19.005,55.251c9.507,2.038,18.935,3.557,27.902,4.278c3.916,21.08,16.529,45.653,51.103,60.471
			c0,0,0-31.249,0-64.101c21.165-3.658,44.773-9.423,67.959-15.891c4.606,10.79,13.872,22.206,32.041,29.992v-39.407
			c21.68-6.669,41.663-13.375,57.265-18.803c6.525,14.235,36.737,78.21,52.735,78.21c0,0-18-36-18-90S460,150.001,460,150.001z
			 M129.999,240.001c-5.523,0-10-4.477-10-10s4.477-10,10-10c5.523,0,10,4.477,10,10S135.522,240.001,129.999,240.001z"/>
	</g>
</g>
<g>
</g>
<g>
</g>
<g>
</g>
<g>
</g>
<g>
</g>
<g>
</g>
<g>
</g>
<g>
</g>
<g>
</g>
<g>
</g>
<g>
</g>
<g>
</g>
<g>
</g>
<g>
</g>
<g>
</g>
</svg>
