<?xml version="1.0" encoding="iso-8859-1"?>
<!-- Generator: Adobe Illustrator 17.1.0, SVG Export Plug-In . SVG Version: 6.00 Build 0)  -->
<!DOCTYPE svg PUBLIC "-//W3C//DTD SVG 1.1//EN" "http://www.w3.org/Graphics/SVG/1.1/DTD/svg11.dtd">
<svg version="1.1" id="Capa_1" xmlns="http://www.w3.org/2000/svg" xmlns:xlink="http://www.w3.org/1999/xlink" x="0px" y="0px"
	 viewBox="0 0 208.951 208.951" style="enable-background:new 0 0 208.951 208.951;" xml:space="preserve">
<path d="M1.706,108.849c-2.078-1.819-2.287-4.978-0.468-7.056c1.821-2.077,4.978-2.287,7.056-0.467l16.633,14.567
	c7.31,6.402,19.201,6.401,26.511-0.001l10.922-9.565c4.826-4.228,10.989-6.584,17.309-7.082l9.7-12.136L35.41,58.093
	c-3.724-2.004-5.563-6.255-4.474-10.34c1.058-3.971,4.667-6.745,8.777-6.745c1.217,0,2.406,0.242,3.533,0.718l67.051,28.334
	c0.636,0.269,1.209,0.666,1.685,1.168l19.495,20.587l17.501,16.927l1.589-1.392c10.924-9.566,28.684-9.582,39.629-0.051
	l16.939,13.988c2.129,1.758,2.43,4.91,0.672,7.039c-1.757,2.129-4.91,2.43-7.039,0.672l-16.992-14.031
	c-0.037-0.031-0.074-0.062-0.11-0.094c-7.309-6.401-19.201-6.401-26.51,0l-4.992,4.372c-0.339,0.313-1.372,1.255-2.827,2.477
	l-2.603,2.279c-2.073,1.815-4.392,3.283-6.864,4.41c-1.027,0.556-2.042,1.038-3.007,1.381c-3.393,1.208-6.653,1.795-9.968,1.795
	c-0.001,0-0.001,0-0.002,0c-4.639,0-9.23-1.201-13.738-3.559c-1.605-0.789-3.136-1.727-4.573-2.814
	c-2.364-1.676-4.701-3.674-7.005-6.006l-5.851-5.125c-3.515-2.573-6.506-3.855-8.728-4.476c-1.425-0.328-2.883-0.51-4.347-0.54
	c-0.436,0.061-0.868,0.072-1.285,0.016c-4.517,0.175-8.975,1.752-12.417,4.766l-10.922,9.566c-10.94,9.583-28.746,9.583-39.687,0
	L1.706,108.849z M190.196,144.055c-10.945-9.531-28.706-9.516-39.628,0.051l-10.422,9.128c-7.309,6.402-19.2,6.401-26.511,0
	l-11.589-10.151c-10.941-9.582-28.747-9.583-39.687,0.001l-10.922,9.566c-7.31,6.402-19.201,6.402-26.511,0.001L8.294,138.081
	c-2.077-1.82-5.234-1.61-7.056,0.467c-1.819,2.078-1.61,5.236,0.468,7.056l16.633,14.568c10.941,9.583,28.745,9.583,39.687,0
	l10.922-9.566c7.31-6.401,19.201-6.399,26.511,0l11.589,10.15c5.471,4.792,12.655,7.188,19.843,7.188
	c7.186,0,14.374-2.396,19.844-7.188l10.422-9.128c7.309-6.401,19.201-6.401,26.51,0c0.036,0.032,0.073,0.064,0.11,0.094
	l16.992,14.031c2.129,1.758,5.282,1.457,7.039-0.672c1.758-2.129,1.457-5.281-0.672-7.039L190.196,144.055z M144.922,87.332
	c12.131,0,22-9.869,22-22s-9.869-22-22-22c-12.131,0-22,9.869-22,22S132.791,87.332,144.922,87.332z"/>
<g>
</g>
<g>
</g>
<g>
</g>
<g>
</g>
<g>
</g>
<g>
</g>
<g>
</g>
<g>
</g>
<g>
</g>
<g>
</g>
<g>
</g>
<g>
</g>
<g>
</g>
<g>
</g>
<g>
</g>
</svg>
