<?xml version="1.0" encoding="iso-8859-1"?>
<!-- Generator: Adobe Illustrator 18.0.0, SVG Export Plug-In . SVG Version: 6.00 Build 0)  -->
<!DOCTYPE svg PUBLIC "-//W3C//DTD SVG 1.1//EN" "http://www.w3.org/Graphics/SVG/1.1/DTD/svg11.dtd">
<svg version="1.1" id="Capa_1" xmlns="http://www.w3.org/2000/svg" xmlns:xlink="http://www.w3.org/1999/xlink" x="0px" y="0px"
	 viewBox="0 0 480 480" style="enable-background:new 0 0 480 480;" xml:space="preserve">
<g>
	<path d="M216.89,345.148c95.158,0,172.574-77.416,172.574-172.573C389.464,77.417,312.047,0,216.89,0
		C121.733,0,44.317,77.417,44.317,172.575C44.317,267.732,121.733,345.148,216.89,345.148z M216.89,20
		c84.13,0,152.574,68.445,152.574,152.575c0,84.129-68.444,152.573-152.574,152.573c-84.128,0-152.572-68.444-152.572-152.573
		C64.317,88.445,132.761,20,216.89,20z"/>
	<path d="M371.597,327.284c41.326-41.324,64.085-96.267,64.085-154.709c0-55.096-20.234-107.078-57.174-147.475l8.026-8.026
		L372.393,2.931l-29.865,29.865l14.143,14.143l7.687-7.687c33.173,36.608,51.326,83.57,51.326,133.322
		c0,53.1-20.679,103.021-58.228,140.568c-75.11,75.113-195.872,77.433-273.811,6.963l7.61-7.61l-14.143-14.142L47.246,328.22
		l14.143,14.143l8.101-8.101c37.934,34.655,86.07,54.58,137.4,56.874V460h-44.096v20h108.197v-20H226.89v-68.865
		C281.576,388.691,332.64,366.243,371.597,327.284z"/>
</g>
<g>
</g>
<g>
</g>
<g>
</g>
<g>
</g>
<g>
</g>
<g>
</g>
<g>
</g>
<g>
</g>
<g>
</g>
<g>
</g>
<g>
</g>
<g>
</g>
<g>
</g>
<g>
</g>
<g>
</g>
</svg>
