<?xml version="1.0" encoding="iso-8859-1"?>
<!-- Generator: Adobe Illustrator 16.0.0, SVG Export Plug-In . SVG Version: 6.00 Build 0)  -->
<!DOCTYPE svg PUBLIC "-//W3C//DTD SVG 1.1//EN" "http://www.w3.org/Graphics/SVG/1.1/DTD/svg11.dtd">
<svg version="1.1" id="Capa_1" xmlns="http://www.w3.org/2000/svg" xmlns:xlink="http://www.w3.org/1999/xlink" x="0px" y="0px"
	 width="466.606px" height="466.606px" viewBox="0 0 466.606 466.606" style="enable-background:new 0 0 466.606 466.606;"
	 xml:space="preserve">
<g>
	<g>
		<path d="M314.247,29.845c5.137,0,9.381-3.873,9.874-9.013c0.497-5.44-3.511-10.285-8.957-10.794L208.25,0.046L207.309,0
			c-5.058,0-9.396,3.955-9.868,8.999c-0.245,2.641,0.549,5.213,2.246,7.257c1.687,2.04,4.071,3.296,6.712,3.539l2.661,0.252
			l-5.189,37.926l-12.796-1.028l-0.863-0.038c-5.114,0-9.438,4.009-9.846,9.127c-0.431,5.45,3.653,10.245,8.98,10.668l7.851,0.843
			l-7.079,51.708l-4.28-0.509l-0.87-0.042c-5.19,0-9.414,3.925-9.824,9.115c-0.219,2.637,0.599,5.205,2.312,7.221
			c1.717,2.028,4.112,3.258,6.601,3.458l3.376,0.421l-7.061,51.604l-0.609-0.028c-5.105,0-9.43,4.014-9.847,9.139
			c-0.212,2.637,0.621,5.198,2.343,7.215c1.725,2.02,4.119,3.242,6.756,3.452l2.615,0.215l-7.079,51.771
			c-5.117,0.017-9.454,4.023-9.853,9.121c-0.214,2.645,0.609,5.214,2.339,7.237c1.288,1.519,2.975,2.593,4.853,3.122l-8.215,59.959
			l-0.571-0.024c-5.109,0-9.392,3.819-9.954,8.9l-10.66,95.67c-0.298,2.685,0.525,5.334,2.262,7.273
			c1.739,1.947,4.284,3.062,6.975,3.062h119.237c5.426,0,9.95-4.248,10.287-9.674l5.245-83.619c0.253-4.088-2.048-7.851-5.715-9.666
			l5.843-62.451l11.117,0.89l0.842,0.044c5.137,0,9.478-4.016,9.874-9.121c0.444-5.45-3.623-10.251-9.085-10.688l-10.9-0.882
			l4.854-51.908l9.63,0.781l0.85,0.04c5.121,0,9.478-4.016,9.882-9.125c0.217-2.645-0.613-5.213-2.336-7.237
			c-1.72-2.016-4.12-3.242-6.749-3.452l-9.429-0.771l4.86-51.904l8.195,0.659l0.813,0.03c5.121,0,9.474-4.014,9.883-9.131
			c0.437-5.44-3.644-10.239-9.094-10.668l-7.95-0.644l4.853-51.918l6.677,0.537l0.861,0.03c5.134,0,9.474-4.01,9.874-9.115
			c0.213-2.645-0.608-5.206-2.324-7.229c-1.719-2.016-4.115-3.242-6.76-3.452l-6.48-0.519l3.442-36.748L314.247,29.845z
			 M266.094,41.244l2.612,0.249l0.156,0.024l3.343,0.323l-2.24,23.159l-6.096-0.589L266.094,41.244z M260.932,88.873l3.098,0.417
			l0.156,0.016l4.806,0.651l-6.111,45.681l-8.071-1.086L260.932,88.873z M255.109,158.417l0.145,0.022l5.021,0.675l-6.119,45.676
			l-8.079-1.084l6.119-45.681L255.109,158.417z M243.984,37.882l2.753,0.261l0.145,0.024l3.21,0.307l-2.244,23.155l-6.1-0.585
			L243.984,37.882z M236.298,86.548l3.661,0.487l0.148,0.024l4.27,0.571l-6.117,45.677l-8.069-1.086L236.298,86.548z
			 M235.631,156.784l-6.121,45.673l-8.053-1.082l6.113-45.673l3.468,0.469l0.142,0.016L235.631,156.784z M221.877,36.008
			l2.763,0.256l0.134,0.016l3.228,0.313l-2.246,23.161l-6.125-0.591L221.877,36.008z M211.667,84.222l4.224,0.567l0.13,0.016
			l3.715,0.495l-6.123,45.673l-8.057-1.082L211.667,84.222z M202.926,153.37l4.036,0.531l0.15,0.028l3.895,0.517l-6.127,45.681
			l-8.061-1.086L202.926,153.37z M194.19,229.575l4.051,0.545l0.142,0.008l3.875,0.521l-6.113,45.677l-8.069-1.082L194.19,229.575z
			 M175.906,394.817l-2.04,14.03l-8.049-1.158l2.042-14.046l2.968,0.437l3.147-15.653c0.11-0.569,0.543-0.89,1.265-0.837
			c0.575,0.116,0.95,0.685,0.832,1.266l-3.108,15.549L175.906,394.817z M187.397,351.312l-8.069-1.082l6.115-45.685l3.801,0.513
			l0.158,0.017l4.111,0.545L187.397,351.312z M206.207,396.901l-2.038,14.054l-8.047-1.158l2.04-14.058l3.174,0.473l2.801-14.022
			c0.108-0.557,0.595-0.833,1.262-0.833c0.357,0.076,0.559,0.288,0.671,0.453c0.114,0.16,0.232,0.448,0.164,0.817l-2.779,13.894
			L206.207,396.901z M212.033,353.633l-8.061-1.086l6.114-45.668l3.244,0.437l0.15,0.028l4.675,0.612L212.033,353.633z
			 M212.708,277.6l6.117-45.684l3.493,0.465l0.134,0.023l4.434,0.593l-6.125,45.673L212.708,277.6z M234.477,413.047l-8.053-1.166
			l2.04-14.05l2.889,0.421l2.48-12.311c0.119-0.562,0.597-0.862,1.265-0.83c0.353,0.076,0.555,0.284,0.667,0.445
			c0.118,0.168,0.239,0.461,0.165,0.821l-2.44,12.21l3.04,0.445L234.477,413.047z M236.677,355.965l-8.073-1.09l6.119-45.668
			l3.422,0.469l0.143,0.016l4.494,0.598L236.677,355.965z M245.403,280.994l-8.067-1.082l6.123-45.681l2.926,0.389l0.152,0.032
			l4.989,0.665L245.403,280.994z M264.799,415.147l-8.059-1.163l2.04-14.062l2.62,0.385l2.141-10.596
			c0.116-0.569,0.589-0.934,1.258-0.842c0.481,0.097,0.926,0.766,0.826,1.255l-2.092,10.487l3.306,0.493L264.799,415.147z
			 M261.301,358.294l-8.071-1.078l6.115-45.677l4.096,0.557h0.152l3.835,0.51L261.301,358.294z M270.041,283.327l-8.063-1.082
			l6.124-45.685l4.323,0.576l0.152,0.021l3.583,0.477L270.041,283.327z M278.773,207.122l-8.056-1.084l6.115-45.681l4.324,0.575
			l0.141,0.022l3.595,0.487L278.773,207.122z M287.505,137.959l-8.059-1.084l6.119-45.665l4.501,0.605l0.151,0.008l3.415,0.463
			L287.505,137.959z M292.065,68.368l-6.099-0.583l2.235-23.175l2.461,0.236l0.14,0.03l3.503,0.331L292.065,68.368z"/>
	</g>
</g>
<g>
</g>
<g>
</g>
<g>
</g>
<g>
</g>
<g>
</g>
<g>
</g>
<g>
</g>
<g>
</g>
<g>
</g>
<g>
</g>
<g>
</g>
<g>
</g>
<g>
</g>
<g>
</g>
<g>
</g>
</svg>
