<?xml version="1.0" encoding="iso-8859-1"?>
<!-- Generator: Adobe Illustrator 18.0.0, SVG Export Plug-In . SVG Version: 6.00 Build 0)  -->
<!DOCTYPE svg PUBLIC "-//W3C//DTD SVG 1.1//EN" "http://www.w3.org/Graphics/SVG/1.1/DTD/svg11.dtd">
<svg version="1.1" id="Capa_1" xmlns="http://www.w3.org/2000/svg" xmlns:xlink="http://www.w3.org/1999/xlink" x="0px" y="0px"
	 viewBox="0 0 60.003 60.003" style="enable-background:new 0 0 60.003 60.003;" xml:space="preserve">
<g>
	<path d="M59.796,26.569c-0.402-1.697-1.366-3.156-2.577-3.902c-0.811-0.5-1.677-0.66-2.507-0.461
		c-0.189,0.045-0.371,0.114-0.549,0.198c-2.336-5.685-5.98-9.364-9.727-11.736l1.36-2.72c0.247-0.494,0.047-1.095-0.447-1.342
		c-0.496-0.246-1.095-0.046-1.342,0.447l-1.303,2.605c-0.617-0.327-1.231-0.626-1.837-0.892l0.983-2.95
		c0.175-0.524-0.108-1.091-0.632-1.265c-0.526-0.176-1.091,0.108-1.265,0.632l-0.948,2.844c-0.693-0.248-1.366-0.461-2.011-0.642
		l0.857-2.57c0.175-0.524-0.108-1.091-0.632-1.265c-0.525-0.176-1.09,0.108-1.265,0.632l-0.908,2.724
		C33.779,6.641,32.7,6.496,31.9,6.419V4.5c0-0.553-0.448-1-1-1s-1,0.447-1,1v1.833c-0.526,0.021-1.445,0.09-2.635,0.275
		l-0.379-2.272c-0.091-0.545-0.603-0.924-1.151-0.822c-0.544,0.091-0.913,0.606-0.822,1.15L25.3,6.983
		c-1.072,0.242-2.26,0.576-3.51,1.024l-0.941-2.823c-0.174-0.523-0.739-0.808-1.265-0.632c-0.524,0.174-0.807,0.74-0.632,1.265
		l0.977,2.931c-0.864,0.379-1.742,0.822-2.622,1.328l-1.511-3.023c-0.247-0.493-0.847-0.693-1.342-0.447
		c-0.494,0.247-0.694,0.848-0.447,1.342l1.597,3.195c-0.881,0.603-1.75,1.289-2.595,2.052l-2.401-2.401
		c-0.391-0.391-1.023-0.391-1.414,0s-0.391,1.023,0,1.414l2.383,2.383c-3.074,3.277-5.642,7.844-6.821,14.218
		c-0.015,0.083-0.025,0.167-0.04,0.25c-0.254-0.07-0.512-0.118-0.776-0.118C1.73,28.94,0,31.322,0,34.363s1.73,5.424,3.939,5.424
		c0.403,0,0.798-0.102,1.177-0.267c0.701,2.671,1.863,5.179,3.459,7.378c3.244,4.473,9.674,9.782,21.817,9.603
		c0.185,0.003,0.366,0.004,0.548,0.004c11.8-0.001,18.075-5.202,21.269-9.606c2.881-3.97,4.346-8.945,4.23-14.076
		c0.034,0.001,0.07,0.014,0.104,0.014c0.227,0,0.452-0.026,0.672-0.079C59.363,32.245,60.497,29.527,59.796,26.569z M4.674,37.489
		c-0.206,0.166-0.456,0.298-0.734,0.298C3.022,37.787,2,36.381,2,34.363s1.022-3.424,1.939-3.424c0.167,0,0.335,0.047,0.504,0.139
		c-0.049,0.533-0.081,1.066-0.096,1.597c-0.001,0.034,0,0.067-0.001,0.101c-0.011,0.445-0.009,0.889,0.004,1.332
		c0.004,0.136,0.009,0.271,0.015,0.407c0.016,0.36,0.042,0.719,0.074,1.076c0.012,0.141,0.021,0.282,0.036,0.422
		c0.047,0.438,0.106,0.874,0.177,1.307C4.66,37.376,4.664,37.433,4.674,37.489z M50.59,45.725
		c-4.315,5.949-11.098,8.935-20.184,8.776h-0.014h-0.014c-9.102,0.139-15.87-2.828-20.185-8.776
		c-2.062-2.842-3.329-6.255-3.726-9.866c-0.008-0.078-0.01-0.157-0.017-0.235c-0.057-0.57-0.089-1.144-0.102-1.721
		c-0.005-0.252-0.001-0.504,0.002-0.757c0.004-0.406,0.021-0.814,0.047-1.222c0.019-0.294,0.039-0.588,0.069-0.883
		c0.064-0.623,0.138-1.246,0.253-1.869c1.097-5.928,3.439-10.163,6.24-13.196l1.232,1.232c0.195,0.195,0.451,0.293,0.707,0.293
		s0.512-0.098,0.707-0.293c0.391-0.391,0.391-1.023,0-1.414l-1.222-1.222c0.684-0.617,1.384-1.177,2.094-1.677l0.527,1.053
		c0.175,0.351,0.528,0.553,0.896,0.553c0.15,0,0.303-0.034,0.446-0.105c0.494-0.247,0.694-0.848,0.447-1.342l-0.622-1.244
		c0.795-0.463,1.589-0.868,2.371-1.216l0.408,1.224c0.14,0.419,0.53,0.684,0.949,0.684c0.104,0,0.211-0.017,0.316-0.052
		c0.524-0.174,0.807-0.74,0.632-1.265l-0.444-1.332c1.146-0.406,2.234-0.703,3.22-0.92l0.289,1.732
		c0.082,0.489,0.505,0.836,0.985,0.836c0.054,0,0.11-0.004,0.166-0.014c0.544-0.091,0.913-0.606,0.822-1.15l-0.294-1.765
		c1.028-0.149,1.823-0.203,2.308-0.225V10.5c0,0.553,0.448,1,1,1s1-0.447,1-1V8.394c0.67,0.058,1.533,0.166,2.53,0.355l-0.478,1.435
		c-0.175,0.524,0.108,1.091,0.632,1.265c0.105,0.035,0.212,0.052,0.316,0.052c0.419,0,0.809-0.265,0.949-0.684l0.54-1.621
		c0.644,0.173,1.32,0.383,2.015,0.63l-0.453,1.358c-0.175,0.524,0.108,1.091,0.632,1.265c0.105,0.035,0.212,0.052,0.316,0.052
		c0.419,0,0.809-0.265,0.949-0.684l0.416-1.247c0.526,0.235,1.058,0.496,1.591,0.782l-0.85,1.701
		c-0.247,0.494-0.047,1.095,0.447,1.342c0.144,0.071,0.296,0.105,0.446,0.105c0.367,0,0.72-0.202,0.896-0.553l0.785-1.571
		c3.517,2.292,6.919,5.867,9.022,11.468l-0.008,0.011l0.182,0.513c0.26,0.732,0.485,1.467,0.688,2.209
		c0.025,0.092,0.051,0.181,0.076,0.275c0.2,0.76,0.377,1.529,0.523,2.32c0.124,0.668,0.207,1.337,0.272,2.005
		c0.011,0.113,0.026,0.223,0.035,0.337C54.794,36.685,53.466,41.761,50.59,45.725z M56.751,30.813c-0.136,0.031-0.281,0.031-0.436,0
		c-0.004-0.04-0.012-0.076-0.016-0.115c-0.068-0.63-0.153-1.26-0.269-1.89c-0.143-0.771-0.31-1.509-0.491-2.228
		c-0.022-0.086-0.048-0.17-0.071-0.256c-0.178-0.683-0.374-1.341-0.585-1.978c-0.006-0.018-0.01-0.036-0.016-0.054
		c0.101-0.069,0.204-0.116,0.31-0.142c0.381-0.091,0.751,0.068,0.994,0.219c0.758,0.467,1.402,1.486,1.68,2.66
		C58.315,28.993,57.644,30.6,56.751,30.813z"/>
	<path d="M27.861,30.321c1.44,3.058,4.542,5.184,8.139,5.184c4.962,0,9-4.037,9-9s-4.038-9-9-9c-3.597,0-6.7,2.126-8.139,5.184
		c-1.251-1.914-3.409-3.184-5.861-3.184c-3.86,0-7,3.141-7,7s3.14,7,7,7C24.452,33.505,26.61,32.235,27.861,30.321z M36,33.505
		c-3.316,0-6.095-2.32-6.814-5.421l12.657-5.424C42.572,23.765,43,25.085,43,26.505C43,30.364,39.86,33.505,36,33.505z M36,19.505
		c1.68,0,3.222,0.595,4.43,1.585l-11.403,4.887C29.298,22.364,32.318,19.505,36,19.505z M22,21.505c2.605,0,4.727,2.01,4.955,4.556
		l-8.491-3.088C19.37,22.067,20.62,21.505,22,21.505z M17,26.505c0-0.639,0.132-1.246,0.351-1.809l9.363,3.405
		c-0.67,1.972-2.519,3.404-4.715,3.404C19.243,31.505,17,29.262,17,26.505z"/>
	<path d="M45,34.505c-0.552,0-1,0.447-1,1s0.448,1,1,1c0.307,0,0.597,0.06,0.876,0.146c-2.369,4.31-6.226,7.495-10.926,8.975
		c-4.438,1.395-9.129,1.109-13.352-0.756c0.42-0.225,0.893-0.364,1.402-0.364c0.552,0,1-0.447,1-1s-0.448-1-1-1
		c-2.757,0-5,2.243-5,5c0,0.553,0.448,1,1,1s1-0.447,1-1c0-0.376,0.077-0.732,0.204-1.064c2.9,1.385,5.971,2.053,9.005,2.053
		c7.348,0,14.453-3.873,18.289-10.644C47.814,38.326,48,38.894,48,39.505c0,0.553,0.448,1,1,1s1-0.447,1-1
		C50,36.748,47.757,34.505,45,34.505z"/>
	<circle cx="23" cy="28.505" r="1"/>
	<circle cx="33.5" cy="29.005" r="1.5"/>
</g>
<g>
</g>
<g>
</g>
<g>
</g>
<g>
</g>
<g>
</g>
<g>
</g>
<g>
</g>
<g>
</g>
<g>
</g>
<g>
</g>
<g>
</g>
<g>
</g>
<g>
</g>
<g>
</g>
<g>
</g>
</svg>
