<?xml version="1.0" encoding="iso-8859-1"?>
<!-- Generator: Adobe Illustrator 16.0.0, SVG Export Plug-In . SVG Version: 6.00 Build 0)  -->
<!DOCTYPE svg PUBLIC "-//W3C//DTD SVG 1.1//EN" "http://www.w3.org/Graphics/SVG/1.1/DTD/svg11.dtd">
<svg version="1.1" id="Capa_1" xmlns="http://www.w3.org/2000/svg" xmlns:xlink="http://www.w3.org/1999/xlink" x="0px" y="0px"
	 width="496.863px" height="496.863px" viewBox="0 0 496.863 496.863" style="enable-background:new 0 0 496.863 496.863;"
	 xml:space="preserve">
<g>
	<path d="M344.883,409.022c12.785-21.984,33.229-147.855-132.412-205.115c1.023-35.783-21.468-87.984-38.853-107.416
		c0,0-6.139-29.166-8.176-39.904c-2.046-10.739-20.961-40.401-36.806-43.471c0,0-6.646,22.998-4.6,32.197
		c0,0-21.984-21.735-35.534-21.611c0,0-2.936,26.135,0.124,30.228c0,0-24.47,16.648-22.434,27.894c0,0-74.606,25.704-65.407,36.95
		c0,0,6.407,9.782,13.311,12.852c0,0,14.583,28.41,56.753,26.871c31.824,1.147,16.495,8.071,15.338,18.427
		c-1.157,10.356,1.922,27.617,1.54,34.138c-0.382,6.521-11.503,40.65,0.383,79.369c11.886,38.729-11.121,150.17-25.685,157.838
		c-14.563,7.68-23.763,29.023-11.494,29.023h64.413c0,0,9.715-15.588,18.149-16.094c8.435-0.508,10.987-25.943,10.481-32.848
		c-0.507-6.904,4.982-53.865,0.067-73.803c-4.916-19.938,1.214-25.15,3.901-25.914c2.687-0.766-7.287-24.652-26.077-11.227
		c-8.357,5.096-18.819-14.029-18.819-14.029s-1.004-5.594,5.011-8.672c5.298-8.654-13.034-14.201,12.269-33.756
		c-1.147-12.27,6.713-24.93,9.964-27.426c0,0,4.217,0.956,5.364,3.834c0,0,5.269-13.617,12.699-13.617s14.525,17.892,16.056,28.373
		c0,0,50.614,15.08,57.767,82.055c0,0,39.368,7.154,50.614,28.115c0,0,5.947-25.379,13.292-39.369
		c6.225-11.848,8.176-42.43-19.938-40.898c-28.113,1.529-13.655,22.777-12.269,26.076c3.558,8.434-2.658,24.566-18.914,15.846
		c-16.257-8.723-10.223-61.344,30.676-66.461c40.899-5.115,53.168,34.76,45.499,64.93c-7.669,30.16-23.008,49.84-16.361,67.732
		c6.646,17.891,19.947,68.027-27.081,87.152h19.421c0,0,34.76-21.717,36.3-28.879c1.529-7.152,99.688,79.885,164.102,4.217
		c20.244-27.426,1.53-67.932,0-70.992S433.843,437.653,344.883,409.022z"/>
	<path d="M192.791,418.251c-2.305-4.982-16.104-2.945-16.104-2.945c-1.53,21.094-25.685,61.984-25.685,61.984h15.721
		c2.687-38.25,44.475-9.773,32.972-25.111C188.191,436.841,195.096,423.243,192.791,418.251z"/>
</g>
<g>
</g>
<g>
</g>
<g>
</g>
<g>
</g>
<g>
</g>
<g>
</g>
<g>
</g>
<g>
</g>
<g>
</g>
<g>
</g>
<g>
</g>
<g>
</g>
<g>
</g>
<g>
</g>
<g>
</g>
</svg>
