<?xml version="1.0" encoding="iso-8859-1"?>
<!-- Generator: Adobe Illustrator 18.0.0, SVG Export Plug-In . SVG Version: 6.00 Build 0)  -->
<!DOCTYPE svg PUBLIC "-//W3C//DTD SVG 1.1//EN" "http://www.w3.org/Graphics/SVG/1.1/DTD/svg11.dtd">
<svg version="1.1" id="Capa_1" xmlns="http://www.w3.org/2000/svg" xmlns:xlink="http://www.w3.org/1999/xlink" x="0px" y="0px"
	 viewBox="0 0 44 44" style="enable-background:new 0 0 44 44;" xml:space="preserve">
<g>
	<circle cx="13" cy="15" r="3"/>
	<path d="M20,15c0-3.859-3.14-7-7-7s-7,3.141-7,7s3.14,7,7,7S20,18.859,20,15z M8,15c0-2.757,2.243-5,5-5s5,2.243,5,5s-2.243,5-5,5
		S8,17.757,8,15z"/>
	<circle cx="31" cy="15" r="3"/>
	<path d="M31,8c-3.86,0-7,3.141-7,7s3.14,7,7,7s7-3.141,7-7S34.86,8,31,8z M31,20c-2.757,0-5-2.243-5-5s2.243-5,5-5s5,2.243,5,5
		S33.757,20,31,20z"/>
	<path d="M22,0C9.869,0,0,9.869,0,22s9.869,22,22,22s22-9.869,22-22S34.131,0,22,0z M22,42C10.972,42,2,33.028,2,22S10.972,2,22,2
		s20,8.972,20,20S33.028,42,22,42z"/>
	<path d="M32.5,29H31h-2H9v7h20h2h1.5c1.93,0,3.5-1.57,3.5-3.5S34.43,29,32.5,29z M21,31h3v3h-3V31z M19,34h-3v-3h3V34z M11,31h3v3
		h-3V31z M29,34h-3v-3h3V34z M32.5,34H31v-3h1.5c0.827,0,1.5,0.673,1.5,1.5S33.327,34,32.5,34z"/>
</g>
<g>
</g>
<g>
</g>
<g>
</g>
<g>
</g>
<g>
</g>
<g>
</g>
<g>
</g>
<g>
</g>
<g>
</g>
<g>
</g>
<g>
</g>
<g>
</g>
<g>
</g>
<g>
</g>
<g>
</g>
</svg>
