<?xml version="1.0" encoding="iso-8859-1"?>
<!-- Generator: Adobe Illustrator 19.0.0, SVG Export Plug-In . SVG Version: 6.00 Build 0)  -->
<svg version="1.1" id="Capa_1" xmlns="http://www.w3.org/2000/svg" xmlns:xlink="http://www.w3.org/1999/xlink" x="0px" y="0px"
	 viewBox="0 0 463 463" style="enable-background:new 0 0 463 463;" xml:space="preserve">
<path d="M455.5,444H455V147.5c0-4.143-3.358-7.5-7.5-7.5H447v-32.5c0-4.143-3.358-7.5-7.5-7.5H247V83h8.5c4.142,0,7.5-3.357,7.5-7.5
	V49.766c9.29-3.138,16-11.93,16-22.266C279,14.542,268.458,4,255.5,4h-48c-4.142,0-7.5,3.357-7.5,7.5V12h-17v-0.5
	c0-4.143-3.358-7.5-7.5-7.5h-48C114.542,4,104,14.542,104,27.5c0,10.336,6.71,19.128,16,22.266V75.5c0,4.143,3.358,7.5,7.5,7.5h8.5
	v17H23.5c-4.142,0-7.5,3.357-7.5,7.5V140h-0.5c-4.142,0-7.5,3.357-7.5,7.5V444H7.5c-4.142,0-7.5,3.357-7.5,7.5s3.358,7.5,7.5,7.5h48
	c4.142,0,7.5-3.357,7.5-7.5s-3.358-7.5-7.5-7.5H55V222.606l21.803-21.803C78.21,199.396,79,197.489,79,195.5V155h68.148
	l27.507,48.138C170.541,207.372,168,213.144,168,219.5c0,6.727,2.845,12.797,7.39,17.085L145.843,340H143.5h-8
	c-4.142,0-7.5,3.357-7.5,7.5s3.358,7.5,7.5,7.5h0.5v32.5c0,30.603,24.897,55.5,55.5,55.5s55.5-24.897,55.5-55.5V355h0.5
	c4.142,0,7.5-3.357,7.5-7.5s-3.358-7.5-7.5-7.5h-8h-2.343L207.61,236.585c4.545-4.288,7.39-10.359,7.39-17.085
	c0-6.356-2.541-12.128-6.655-16.362L235.852,155H384v40.5c0,1.989,0.79,3.896,2.197,5.304L408,222.606V444h-0.5
	c-4.142,0-7.5,3.357-7.5,7.5s3.358,7.5,7.5,7.5h48c4.142,0,7.5-3.357,7.5-7.5S459.642,444,455.5,444z M415,139h17v8.5
	c0,4.687-3.813,8.5-8.5,8.5s-8.5-3.813-8.5-8.5V139z M432,124h-17v-9h17V124z M400,140H151.345c-0.006,0-0.013,0-0.019,0H63v-25h337
	V140z M31,139h17v8.5c0,4.687-3.813,8.5-8.5,8.5s-8.5-3.813-8.5-8.5V139z M215,19h40.5c4.687,0,8.5,3.813,8.5,8.5
	s-3.813,8.5-8.5,8.5H215V19z M200,27v9h-17v-9H200z M127.5,19H168v17h-40.5c-4.687,0-8.5-3.813-8.5-8.5S122.813,19,127.5,19z
	 M135,51h113v17H135V51z M151,83h81v17h-81V83z M48,115v9H31v-9H48z M23,444v-17h17v17H23z M64,192.394l-21.803,21.803
	C40.79,215.604,40,217.511,40,219.5V412H23V164.213C27.246,168.406,33.075,171,39.5,171c10.336,0,19.128-6.71,22.266-16H64V192.394z
	 M200,219.5c0,4.687-3.813,8.5-8.5,8.5s-8.5-3.813-8.5-8.5s3.813-8.5,8.5-8.5S200,214.813,200,219.5z M232,387.5
	c0,22.332-18.168,40.5-40.5,40.5S151,409.832,151,387.5V355h0.476c0.009,0,0.019,0.002,0.028,0.002c0.008,0,0.016-0.002,0.024-0.002
	h79.944c0.008,0,0.016,0.002,0.024,0.002c0.009,0,0.019-0.002,0.028-0.002H232V387.5z M221.557,340h-60.114l27.747-97.115
	c0.76,0.074,1.53,0.115,2.31,0.115s1.55-0.04,2.31-0.115L221.557,340z M194.998,196.262c-1.142-0.171-2.31-0.262-3.498-0.262
	s-2.357,0.09-3.498,0.262L164.424,155h54.153L194.998,196.262z M399,192.394V155h2.234c3.138,9.29,11.93,16,22.266,16
	c6.425,0,12.254-2.594,16.5-6.787V412h-17V219.5c0-1.989-0.79-3.896-2.197-5.304L399,192.394z M423,444v-17h17v17H423z"/>
<g>
</g>
<g>
</g>
<g>
</g>
<g>
</g>
<g>
</g>
<g>
</g>
<g>
</g>
<g>
</g>
<g>
</g>
<g>
</g>
<g>
</g>
<g>
</g>
<g>
</g>
<g>
</g>
<g>
</g>
</svg>
