<?xml version="1.0" encoding="iso-8859-1"?>
<!-- Generator: Adobe Illustrator 18.0.0, SVG Export Plug-In . SVG Version: 6.00 Build 0)  -->
<!DOCTYPE svg PUBLIC "-//W3C//DTD SVG 1.1//EN" "http://www.w3.org/Graphics/SVG/1.1/DTD/svg11.dtd">
<svg version="1.1" id="Capa_1" xmlns="http://www.w3.org/2000/svg" xmlns:xlink="http://www.w3.org/1999/xlink" x="0px" y="0px"
	 viewBox="0 0 59.639 59.639" style="enable-background:new 0 0 59.639 59.639;" xml:space="preserve">
<g>
	<path d="M11.807,30.917c0.249,0,0.498-0.092,0.691-0.277l3.366-3.22c0.399-0.382,0.413-1.015,0.031-1.414
		c-0.381-0.398-1.015-0.413-1.414-0.031l-3.366,3.22c-0.399,0.382-0.413,1.015-0.031,1.414
		C11.281,30.813,11.544,30.917,11.807,30.917z"/>
	<path d="M15.572,32.754c0.196,0.205,0.459,0.309,0.723,0.309c0.249,0,0.498-0.092,0.691-0.277l5.61-5.366
		c0.399-0.382,0.413-1.015,0.031-1.414c-0.382-0.398-1.015-0.413-1.414-0.031l-5.61,5.366
		C15.205,31.722,15.191,32.355,15.572,32.754z"/>
	<path d="M40.579,26.005c-0.382-0.398-1.015-0.413-1.414-0.031l-3.366,3.22c-0.399,0.382-0.413,1.015-0.031,1.414
		c0.196,0.205,0.459,0.309,0.723,0.309c0.249,0,0.498-0.092,0.691-0.277l3.366-3.22C40.947,27.038,40.961,26.405,40.579,26.005z"/>
	<path d="M45.896,25.974l-5.609,5.366c-0.399,0.382-0.413,1.015-0.031,1.414c0.196,0.205,0.459,0.309,0.723,0.309
		c0.249,0,0.498-0.092,0.691-0.277l5.609-5.366c0.399-0.382,0.413-1.015,0.031-1.414C46.928,25.607,46.296,25.592,45.896,25.974z"/>
	<path d="M32.746,44.697c-2.921-0.439-6.287,1.612-9.232,5.625c-0.327,0.445-0.231,1.071,0.214,1.397
		c0.178,0.131,0.386,0.194,0.591,0.194c0.308,0,0.611-0.142,0.807-0.408c2.455-3.343,5.192-5.151,7.324-4.831
		c1.709,0.256,2.611,1.864,3.066,3.169c0.182,0.521,0.752,0.797,1.273,0.614c0.521-0.183,0.796-0.753,0.614-1.274
		C36.504,46.605,34.849,45.011,32.746,44.697z"/>
	<path d="M19.61,50.929c-0.18,0.189-0.29,0.45-0.29,0.71s0.11,0.52,0.29,0.71c0.19,0.18,0.45,0.29,0.71,0.29
		c0.26,0,0.52-0.11,0.71-0.29c0.18-0.19,0.29-0.44,0.29-0.71c0-0.26-0.11-0.521-0.29-0.71C20.659,50.559,19.989,50.559,19.61,50.929
		z"/>
	<path d="M15.61,50.929c-0.18,0.189-0.29,0.45-0.29,0.71s0.11,0.52,0.29,0.71c0.19,0.18,0.45,0.29,0.71,0.29
		c0.26,0,0.52-0.11,0.71-0.29c0.18-0.19,0.29-0.45,0.29-0.71s-0.11-0.521-0.29-0.71C16.659,50.559,15.989,50.559,15.61,50.929z"/>
	<path d="M12.61,50.929c-0.18,0.189-0.29,0.45-0.29,0.71c0,0.27,0.11,0.52,0.29,0.71c0.19,0.18,0.45,0.29,0.71,0.29
		c0.26,0,0.52-0.11,0.71-0.29c0.18-0.19,0.29-0.45,0.29-0.71s-0.11-0.521-0.29-0.71C13.649,50.559,12.979,50.559,12.61,50.929z"/>
	<path d="M16.03,49.349c0.18-0.19,0.29-0.45,0.29-0.71s-0.11-0.521-0.29-0.71c-0.38-0.37-1.05-0.37-1.42,0
		c-0.18,0.189-0.29,0.45-0.29,0.71s0.11,0.52,0.29,0.71c0.19,0.18,0.45,0.29,0.71,0.29C15.579,49.639,15.84,49.529,16.03,49.349z"/>
	<path d="M13.03,49.349c0.18-0.19,0.29-0.45,0.29-0.71s-0.11-0.521-0.29-0.71c-0.38-0.37-1.05-0.37-1.42,0
		c-0.18,0.189-0.29,0.45-0.29,0.71s0.11,0.52,0.29,0.71c0.19,0.18,0.45,0.29,0.71,0.29C12.579,49.639,12.84,49.529,13.03,49.349z"/>
	<path d="M20.61,47.929c-0.18,0.189-0.29,0.45-0.29,0.71s0.11,0.52,0.29,0.71c0.19,0.18,0.45,0.29,0.71,0.29
		c0.26,0,0.52-0.11,0.71-0.29c0.18-0.19,0.29-0.45,0.29-0.71s-0.11-0.521-0.29-0.71C21.649,47.559,20.979,47.559,20.61,47.929z"/>
	<path d="M24.32,45.639c0-0.26-0.11-0.521-0.29-0.71c-0.37-0.37-1.05-0.37-1.42,0c-0.18,0.189-0.29,0.439-0.29,0.71
		c0,0.27,0.11,0.52,0.29,0.71c0.19,0.18,0.45,0.29,0.71,0.29c0.26,0,0.52-0.11,0.71-0.29C24.209,46.159,24.32,45.899,24.32,45.639z"
		/>
	<path d="M20.32,46.639c0.26,0,0.52-0.11,0.71-0.29c0.18-0.19,0.29-0.45,0.29-0.71s-0.11-0.521-0.29-0.71
		c-0.37-0.37-1.05-0.37-1.42,0c-0.18,0.189-0.29,0.45-0.29,0.71s0.11,0.52,0.29,0.71C19.8,46.529,20.059,46.639,20.32,46.639z"/>
	<path d="M23.32,43.639c0.26,0,0.52-0.11,0.71-0.29c0.18-0.19,0.29-0.45,0.29-0.71s-0.11-0.521-0.29-0.71
		c-0.37-0.37-1.04-0.37-1.42,0c-0.18,0.189-0.29,0.45-0.29,0.71s0.11,0.52,0.29,0.71C22.8,43.529,23.059,43.639,23.32,43.639z"/>
	<path d="M26.32,43.639c0.26,0,0.52-0.11,0.71-0.29c0.18-0.19,0.29-0.45,0.29-0.71s-0.11-0.521-0.29-0.71
		c-0.38-0.37-1.05-0.37-1.42,0c-0.18,0.189-0.29,0.45-0.29,0.71s0.11,0.52,0.29,0.71C25.8,43.529,26.059,43.639,26.32,43.639z"/>
	<path d="M29.32,42.639c0.26,0,0.52-0.11,0.71-0.29c0.18-0.19,0.29-0.45,0.29-0.71s-0.11-0.521-0.29-0.71
		c-0.37-0.37-1.05-0.37-1.41,0c-0.19,0.18-0.3,0.439-0.3,0.71c0,0.27,0.11,0.529,0.29,0.71C28.8,42.529,29.059,42.639,29.32,42.639z
		"/>
	<path d="M33.32,42.639c0.26,0,0.52-0.11,0.71-0.29c0.18-0.19,0.29-0.45,0.29-0.71s-0.11-0.521-0.29-0.71
		c-0.37-0.37-1.05-0.37-1.42,0c-0.18,0.189-0.29,0.45-0.29,0.71s0.11,0.52,0.29,0.71C32.8,42.529,33.059,42.639,33.32,42.639z"/>
	<path d="M36.32,43.639c0.26,0,0.52-0.11,0.71-0.29c0.18-0.19,0.29-0.45,0.29-0.71s-0.11-0.521-0.29-0.71
		c-0.38-0.37-1.04-0.37-1.42,0c-0.18,0.189-0.29,0.45-0.29,0.71s0.11,0.52,0.29,0.71C35.8,43.529,36.059,43.639,36.32,43.639z"/>
	<path d="M39.03,46.349c0.18-0.19,0.29-0.45,0.29-0.71s-0.11-0.521-0.29-0.71c-0.37-0.37-1.05-0.37-1.42,0
		c-0.18,0.189-0.29,0.45-0.29,0.71s0.11,0.52,0.29,0.71c0.19,0.18,0.45,0.29,0.71,0.29C38.579,46.639,38.84,46.529,39.03,46.349z"/>
	<path d="M40.61,44.929c-0.18,0.189-0.29,0.45-0.29,0.71s0.11,0.52,0.29,0.71c0.19,0.18,0.45,0.29,0.71,0.29
		c0.26,0,0.52-0.11,0.71-0.29c0.18-0.19,0.29-0.45,0.29-0.71s-0.11-0.521-0.29-0.71C41.659,44.559,40.979,44.559,40.61,44.929z"/>
	<path d="M40.32,43.639c0.26,0,0.52-0.11,0.71-0.29c0.18-0.19,0.29-0.45,0.29-0.71s-0.11-0.521-0.29-0.71
		c-0.38-0.37-1.04-0.37-1.42,0c-0.18,0.189-0.29,0.45-0.29,0.71s0.11,0.52,0.29,0.71C39.8,43.529,40.059,43.639,40.32,43.639z"/>
	<path d="M19.03,47.929c-0.38-0.37-1.05-0.37-1.42,0c-0.18,0.189-0.29,0.45-0.29,0.71s0.11,0.52,0.29,0.71
		c0.19,0.18,0.45,0.29,0.71,0.29c0.26,0,0.52-0.11,0.71-0.29c0.18-0.19,0.29-0.45,0.29-0.71S19.209,48.119,19.03,47.929z"/>
	<path d="M56.366,23.282L56.366,23.282l-0.279-0.627c-0.261-0.588-0.37-1.237-0.313-1.878l0.06-0.673
		c0.143-1.614-0.403-3.227-1.496-4.423l-0.543-0.595c-0.425-0.465-0.729-1.033-0.882-1.645l-0.188-0.752
		c-0.38-1.526-1.382-2.85-2.747-3.631l-0.853-0.488c-0.528-0.302-0.98-0.731-1.309-1.243l-0.51-0.793
		c-0.832-1.293-2.117-2.19-3.622-2.526L42.565,3.76C41.992,3.633,41.448,3.371,40.992,3l-0.862-0.7
		c-1.16-0.945-2.621-1.396-4.114-1.283l-1.23,0.097c-0.574,0.047-1.163-0.044-1.696-0.255l-1.135-0.449
		c-1.377-0.545-2.893-0.545-4.27,0L26.55,0.858c-0.535,0.211-1.121,0.301-1.696,0.255l-1.23-0.097
		c-1.499-0.112-2.955,0.338-4.114,1.282L18.647,3c-0.456,0.371-1,0.634-1.574,0.761l-1.119,0.249
		c-1.504,0.335-2.79,1.232-3.621,2.525l-0.511,0.794c-0.328,0.511-0.781,0.94-1.309,1.242L9.662,9.059
		C8.297,9.84,7.295,11.164,6.915,12.69l-0.188,0.753c-0.152,0.61-0.457,1.179-0.882,1.644l-0.543,0.595
		c-1.093,1.196-1.638,2.809-1.496,4.423l0.06,0.673c0.056,0.641-0.052,1.29-0.313,1.878l-0.279,0.627
		c-0.665,1.498-0.665,3.217,0,4.715l0.279,0.627c0.261,0.588,0.37,1.237,0.313,1.878l-0.06,0.673
		c-0.143,1.614,0.403,3.227,1.496,4.423l0.543,0.595c0.425,0.465,0.729,1.032,0.882,1.644l0.684,2.74
		c0.066,0.264,0.237,0.49,0.473,0.625l0.436,0.25v9.188c0,2.757,2.243,5,5,5h3v1.694c0,1.271,1.034,2.306,2.305,2.306h23.39
		c1.271,0,2.305-1.034,2.305-2.306v-1.694h3c2.757,0,5-2.243,5-5V40.212l0.593-2.377c0.152-0.611,0.457-1.179,0.882-1.644
		l0.543-0.595c1.093-1.196,1.638-2.809,1.496-4.423l-0.06-0.673c-0.056-0.641,0.052-1.29,0.313-1.878l0.279-0.627
		C57.031,26.499,57.031,24.78,56.366,23.282z M11.202,26.145c0.052-0.02,0.103-0.041,0.155-0.06c0.645-0.24,1.307-0.453,1.985-0.637
		c0.035-0.01,0.071-0.018,0.107-0.028c1.32-0.352,2.667-0.579,4.022-0.688c0.063-0.005,0.125-0.011,0.188-0.016
		c0.664-0.048,1.33-0.068,1.994-0.058c0.046,0.001,0.092,0.003,0.138,0.004c1.354,0.028,2.703,0.175,4.027,0.439
		c0.057,0.011,0.115,0.022,0.172,0.034c0.649,0.134,1.291,0.295,1.924,0.485c0.048,0.014,0.094,0.031,0.142,0.046
		c0.6,0.185,1.191,0.395,1.772,0.63c0.055,0.022,0.111,0.041,0.166,0.064c0.446,0.184,0.878,0.4,1.311,0.614
		c0,0.003,0,0.006,0,0.006c-0.002,0.052-0.006,0.107-0.009,0.159c-0.005,0.082-0.01,0.165-0.017,0.253
		c-0.005,0.06-0.01,0.124-0.016,0.186c-0.008,0.089-0.016,0.181-0.026,0.276c-0.007,0.068-0.015,0.139-0.024,0.21
		c-0.012,0.099-0.025,0.2-0.039,0.303c-0.01,0.074-0.021,0.148-0.032,0.224c-0.016,0.108-0.035,0.219-0.055,0.331
		c-0.014,0.078-0.027,0.155-0.042,0.234c-0.023,0.12-0.05,0.244-0.076,0.369c-0.016,0.075-0.031,0.148-0.049,0.225
		c-0.037,0.157-0.078,0.318-0.122,0.48c-0.012,0.046-0.022,0.091-0.035,0.137c-0.057,0.206-0.121,0.415-0.191,0.625
		c-0.023,0.07-0.051,0.141-0.075,0.211c-0.05,0.143-0.101,0.286-0.157,0.43c-0.034,0.086-0.071,0.173-0.107,0.259
		c-0.054,0.13-0.109,0.26-0.169,0.39c-0.042,0.091-0.087,0.182-0.131,0.273c-0.061,0.125-0.125,0.25-0.192,0.375
		c-0.05,0.093-0.101,0.185-0.154,0.277c-0.071,0.123-0.145,0.245-0.221,0.367c-0.057,0.09-0.114,0.18-0.174,0.27
		c-0.083,0.124-0.172,0.245-0.261,0.367c-0.062,0.084-0.122,0.168-0.188,0.25c-0.104,0.132-0.216,0.26-0.328,0.388
		c-0.06,0.068-0.116,0.137-0.178,0.204c-0.179,0.192-0.367,0.381-0.568,0.563c-2.49,2.252-6.179,3.15-10.962,2.673
		c-1.204-0.121-2.143-0.68-2.884-1.52c-0.093-0.106-0.188-0.205-0.276-0.322c-0.036-0.048-0.067-0.102-0.102-0.151
		c-0.133-0.189-0.264-0.385-0.385-0.602c-0.006-0.01-0.011-0.021-0.016-0.031c-0.291-0.526-0.548-1.129-0.771-1.815
		c-0.588-1.812-0.906-4.127-0.947-6.892C9.929,26.658,10.558,26.39,11.202,26.145z M17.335,21.963l0.411-0.654
		c0.413-0.657,1.049-1.111,1.792-1.28l0.901-0.205c0.739-0.168,1.438-0.514,2.02-0.999l0.695-0.577
		c0.574-0.476,1.297-0.717,2.027-0.646l0.992,0.079c0.742,0.057,1.493-0.058,2.182-0.336l0.917-0.37
		c0.676-0.274,1.421-0.273,2.098,0l0.916,0.37c0.688,0.278,1.441,0.392,2.182,0.336l0.993-0.079
		c0.731-0.064,1.452,0.171,2.025,0.646l0.695,0.578c0.583,0.485,1.282,0.831,2.021,0.999l0.902,0.206
		c0.742,0.168,1.378,0.622,1.791,1.279l0.411,0.654c0.174,0.276,0.38,0.529,0.604,0.765c0.019,0.02,0.032,0.045,0.051,0.064
		c-0.114-0.012-0.228-0.013-0.342-0.024c-0.404-0.037-0.809-0.067-1.214-0.084c-0.155-0.007-0.31-0.01-0.466-0.014
		c-0.423-0.01-0.845-0.01-1.268,0.001c-0.13,0.003-0.259,0.006-0.388,0.011c-0.482,0.02-0.963,0.054-1.444,0.102
		c-0.068,0.007-0.136,0.011-0.204,0.018c-1.139,0.123-2.27,0.321-3.383,0.6c-0.032,0.008-0.063,0.018-0.094,0.026
		c-0.493,0.126-0.982,0.267-1.466,0.424c-0.14,0.045-0.279,0.095-0.418,0.143c-0.371,0.127-0.739,0.262-1.104,0.407
		c-0.179,0.071-0.356,0.145-0.533,0.22c-0.323,0.138-0.642,0.284-0.96,0.436c-0.117,0.056-0.239,0.103-0.355,0.161
		c-0.154-0.077-0.313-0.144-0.469-0.217c-0.207-0.098-0.414-0.197-0.623-0.289c-0.22-0.097-0.443-0.186-0.666-0.275
		c-0.236-0.095-0.471-0.191-0.709-0.278c-0.194-0.071-0.391-0.135-0.587-0.201c-0.271-0.092-0.541-0.184-0.815-0.265
		c-0.162-0.048-0.325-0.089-0.488-0.134c-0.309-0.085-0.619-0.171-0.931-0.244c-0.124-0.029-0.25-0.052-0.374-0.079
		c-0.351-0.077-0.701-0.152-1.055-0.213c-0.082-0.014-0.164-0.023-0.246-0.037c-0.396-0.065-0.792-0.125-1.191-0.17
		c-0.016-0.002-0.032-0.002-0.048-0.004c-1.091-0.122-2.189-0.167-3.287-0.146c-0.299,0.006-0.597,0.01-0.895,0.027
		c-0.198,0.011-0.396,0.031-0.594,0.047c-0.22,0.017-0.441,0.029-0.661,0.052c0.019-0.02,0.032-0.044,0.05-0.064
		C16.955,22.493,17.161,22.24,17.335,21.963z M49.28,26.084c0.054,0.02,0.107,0.042,0.161,0.062c0.643,0.244,1.27,0.512,1.874,0.809
		c-0.041,2.765-0.358,5.08-0.947,6.892c-0.223,0.686-0.48,1.29-0.771,1.815c-0.006,0.01-0.011,0.021-0.016,0.031
		c-0.121,0.217-0.252,0.412-0.385,0.602c-0.035,0.049-0.066,0.103-0.102,0.151c-0.088,0.117-0.183,0.216-0.276,0.322
		c-0.741,0.839-1.68,1.399-2.884,1.52c-4.785,0.479-8.473-0.421-10.962-2.673c-0.201-0.182-0.389-0.37-0.568-0.563
		c-0.062-0.067-0.118-0.136-0.178-0.204c-0.113-0.128-0.224-0.257-0.328-0.388c-0.065-0.083-0.126-0.167-0.188-0.25
		c-0.09-0.121-0.178-0.243-0.261-0.367c-0.06-0.089-0.117-0.179-0.174-0.27c-0.076-0.122-0.151-0.244-0.221-0.367
		c-0.053-0.092-0.104-0.184-0.154-0.277c-0.067-0.125-0.13-0.25-0.192-0.375c-0.044-0.091-0.089-0.182-0.131-0.273
		c-0.059-0.13-0.115-0.26-0.169-0.39c-0.036-0.086-0.074-0.173-0.107-0.259c-0.056-0.144-0.107-0.287-0.157-0.43
		c-0.025-0.071-0.052-0.142-0.075-0.211c-0.07-0.21-0.133-0.419-0.191-0.625c-0.013-0.046-0.023-0.091-0.035-0.137
		c-0.043-0.162-0.085-0.323-0.122-0.48c-0.018-0.076-0.032-0.15-0.049-0.225c-0.027-0.125-0.053-0.249-0.076-0.369
		c-0.015-0.079-0.028-0.156-0.042-0.234c-0.02-0.112-0.039-0.223-0.055-0.331c-0.012-0.076-0.022-0.15-0.032-0.224
		c-0.014-0.103-0.028-0.205-0.039-0.303c-0.008-0.071-0.017-0.141-0.024-0.21c-0.01-0.095-0.019-0.187-0.026-0.276
		c-0.005-0.063-0.011-0.126-0.016-0.186c-0.007-0.088-0.012-0.172-0.017-0.253c-0.003-0.052-0.007-0.107-0.009-0.156
		c0,0,0-0.005,0-0.009c0.433-0.214,0.865-0.429,1.312-0.614c0.054-0.022,0.11-0.042,0.164-0.063c0.582-0.235,1.174-0.446,1.774-0.63
		c0.047-0.014,0.093-0.031,0.141-0.045c0.633-0.19,1.276-0.351,1.924-0.485c0.058-0.012,0.116-0.023,0.174-0.035
		c1.322-0.263,2.668-0.41,4.021-0.438c0.049-0.001,0.098-0.003,0.146-0.004c0.661-0.01,1.323,0.01,1.984,0.058
		c0.068,0.005,0.136,0.012,0.204,0.017c1.35,0.109,2.692,0.335,4.006,0.686c0.038,0.01,0.077,0.02,0.115,0.03
		C47.976,25.632,48.637,25.845,49.28,26.084z M42.32,57.333c0,0.169-0.137,0.306-0.305,0.306h-23.39
		c-0.168,0-0.305-0.137-0.305-0.306v-1.694h24V57.333z M50.32,50.639c0,1.654-1.346,3-3,3h-3h-28h-3c-1.654,0-3-1.346-3-3v-9.768
		v-2.766c0.799,0.912,1.69,1.474,2.589,1.802c0.043,0.016,0.086,0.031,0.128,0.046c0.129,0.044,0.257,0.085,0.385,0.12
		c0.088,0.024,0.173,0.044,0.26,0.064c0.092,0.021,0.184,0.044,0.276,0.06c0.187,0.035,0.37,0.062,0.547,0.08
		c0.595,0.06,1.171,0.092,1.737,0.112c0.146,0.005,0.291,0.009,0.435,0.012c0.142,0.002,0.289,0.011,0.429,0.011
		c0.271,0,0.529-0.018,0.793-0.027c0.182-0.006,0.368-0.008,0.547-0.019c0.534-0.033,1.055-0.083,1.559-0.156
		c0.016-0.002,0.032-0.003,0.048-0.005c0.518-0.077,1.017-0.18,1.503-0.3c0.154-0.038,0.3-0.086,0.45-0.128
		c0.327-0.092,0.65-0.189,0.962-0.301c0.168-0.06,0.331-0.126,0.495-0.192c0.285-0.115,0.563-0.239,0.834-0.372
		c0.156-0.077,0.312-0.154,0.463-0.236c0.278-0.151,0.544-0.316,0.806-0.487c0.124-0.081,0.252-0.156,0.372-0.241
		c0.373-0.264,0.732-0.544,1.071-0.851c0.227-0.205,0.439-0.417,0.643-0.632c0.068-0.072,0.13-0.146,0.196-0.219
		c0.132-0.146,0.261-0.294,0.383-0.444c0.07-0.086,0.137-0.174,0.204-0.261c0.109-0.141,0.214-0.283,0.314-0.427
		c0.064-0.091,0.126-0.182,0.187-0.274c0.097-0.146,0.188-0.294,0.277-0.442c0.053-0.088,0.108-0.176,0.158-0.265
		c0.095-0.168,0.184-0.336,0.27-0.505c0.035-0.069,0.073-0.137,0.107-0.205c0.115-0.236,0.223-0.471,0.323-0.707
		c0.026-0.062,0.048-0.124,0.073-0.186c0.06-0.147,0.12-0.294,0.174-0.44c0.054,0.146,0.115,0.293,0.174,0.44
		c0.025,0.062,0.047,0.124,0.073,0.186c0.099,0.235,0.207,0.471,0.322,0.706c0.034,0.07,0.073,0.139,0.109,0.209
		c0.086,0.168,0.174,0.335,0.269,0.502c0.051,0.089,0.105,0.177,0.158,0.265c0.089,0.148,0.181,0.295,0.277,0.442
		c0.061,0.092,0.123,0.183,0.187,0.274c0.1,0.144,0.206,0.286,0.314,0.427c0.067,0.088,0.134,0.176,0.205,0.262
		c0.122,0.15,0.25,0.296,0.382,0.442c0.066,0.073,0.128,0.147,0.197,0.22c0.204,0.216,0.416,0.427,0.643,0.632
		c0.339,0.306,0.699,0.587,1.071,0.851c0.12,0.085,0.247,0.16,0.371,0.24c0.263,0.172,0.53,0.337,0.808,0.488
		c0.151,0.082,0.307,0.159,0.462,0.235c0.271,0.133,0.549,0.257,0.834,0.372c0.164,0.066,0.328,0.133,0.496,0.193
		c0.31,0.111,0.63,0.208,0.955,0.299c0.153,0.043,0.302,0.092,0.459,0.13c0.484,0.119,0.98,0.222,1.496,0.298
		c0.032,0.005,0.067,0.006,0.1,0.011c0.487,0.07,0.99,0.119,1.505,0.151c0.187,0.011,0.381,0.013,0.572,0.02
		c0.258,0.009,0.51,0.027,0.775,0.027c0.138,0,0.282-0.009,0.422-0.011c0.148-0.002,0.297-0.006,0.447-0.012
		c0.565-0.02,1.138-0.052,1.732-0.112c0.177-0.018,0.36-0.045,0.547-0.08c0.092-0.017,0.184-0.04,0.276-0.06
		c0.086-0.02,0.172-0.04,0.26-0.064c0.129-0.035,0.257-0.076,0.385-0.12c0.043-0.015,0.085-0.03,0.128-0.046
		c0.899-0.329,1.79-0.891,2.589-1.802v1.984V50.639z M54.539,27.184l-0.279,0.627c-0.399,0.896-0.564,1.888-0.479,2.866l0.06,0.673
		c0.093,1.058-0.264,2.114-0.98,2.897L52.32,34.84v-0.514c0.029-0.092,0.052-0.199,0.08-0.294c0.072-0.243,0.14-0.49,0.203-0.744
		c0.033-0.134,0.065-0.271,0.096-0.41c0.088-0.393,0.17-0.797,0.239-1.219c0-0.002,0-0.004,0.001-0.006
		c0.078-0.475,0.14-0.974,0.194-1.487c0.006-0.057,0.013-0.113,0.018-0.171c0.051-0.518,0.091-1.056,0.118-1.614
		c0.004-0.075,0.006-0.153,0.009-0.229c0.025-0.582,0.041-1.179,0.041-1.807v-0.602l-0.532-0.282
		c-0.395-0.209-0.8-0.405-1.212-0.593c-0.194-0.089-0.39-0.169-0.586-0.252c-0.21-0.089-0.42-0.178-0.634-0.262
		c-0.246-0.097-0.495-0.187-0.744-0.276c-0.167-0.059-0.335-0.117-0.504-0.172c-0.266-0.088-0.533-0.173-0.802-0.251
		c-0.055-0.016-0.108-0.035-0.164-0.051c-0.013-0.018-0.031-0.031-0.044-0.049c-0.176-0.236-0.37-0.453-0.581-0.651
		c-0.041-0.039-0.084-0.074-0.127-0.111c-0.225-0.197-0.46-0.379-0.715-0.528l-0.687-0.401c-0.399-0.233-0.742-0.566-0.991-0.964
		l-0.411-0.654c-0.698-1.11-1.778-1.879-3.042-2.165l-0.901-0.205c-0.433-0.099-0.843-0.302-1.186-0.587l-0.696-0.579
		c-0.977-0.812-2.204-1.208-3.463-1.102l-0.992,0.079c-0.428,0.039-0.871-0.032-1.272-0.195l-0.915-0.37
		c-1.16-0.47-2.438-0.471-3.6,0l-0.916,0.37c-0.402,0.162-0.844,0.229-1.272,0.195l-0.991-0.079
		c-1.257-0.087-2.486,0.29-3.465,1.103l-0.696,0.578c-0.342,0.285-0.752,0.488-1.186,0.587l-0.899,0.204
		c-1.265,0.287-2.345,1.056-3.043,2.166l-0.411,0.654c-0.25,0.397-0.592,0.73-0.991,0.964l-0.689,0.402
		c-0.254,0.149-0.49,0.332-0.715,0.529c-0.042,0.037-0.084,0.071-0.124,0.109c-0.211,0.198-0.405,0.416-0.581,0.652
		c-0.013,0.018-0.031,0.031-0.044,0.049c-0.055,0.016-0.109,0.035-0.164,0.051c-0.269,0.079-0.536,0.164-0.802,0.251
		c-0.169,0.056-0.337,0.113-0.504,0.172c-0.249,0.089-0.497,0.179-0.744,0.276c-0.214,0.084-0.424,0.173-0.634,0.262
		c-0.196,0.083-0.392,0.164-0.586,0.252c-0.412,0.188-0.817,0.384-1.212,0.593L7.32,25.745v0.602c0,0.627,0.016,1.225,0.041,1.807
		c0.003,0.076,0.006,0.154,0.009,0.229c0.027,0.558,0.067,1.096,0.118,1.614c0.006,0.058,0.012,0.114,0.018,0.171
		c0.054,0.513,0.116,1.012,0.194,1.487c0,0.002,0,0.004,0.001,0.006c0.069,0.422,0.151,0.825,0.239,1.219
		c0.031,0.139,0.063,0.275,0.096,0.41C8.1,33.542,8.168,33.79,8.24,34.032c0.028,0.095,0.051,0.202,0.08,0.294v2.029
		c-0.251-0.552-0.588-1.063-0.998-1.513l-0.543-0.595c-0.716-0.783-1.073-1.84-0.98-2.897l0.06-0.673
		c0.086-0.979-0.08-1.97-0.479-2.866l-0.278-0.627c-0.437-0.981-0.437-2.108,0-3.09l0.279-0.627
		c0.399-0.896,0.564-1.888,0.479-2.866l-0.06-0.673c-0.093-1.058,0.264-2.114,0.98-2.897l0.543-0.595
		c0.648-0.71,1.114-1.577,1.346-2.51l0.188-0.752c0.25-1.001,0.905-1.867,1.8-2.379l0.852-0.488
		c0.806-0.462,1.497-1.118,1.998-1.897l0.511-0.793c0.544-0.848,1.388-1.436,2.373-1.655l1.117-0.248
		c0.876-0.193,1.707-0.596,2.403-1.161l0.863-0.702c0.682-0.555,1.521-0.852,2.393-0.852c0.1,0,0.201,0.004,0.302,0.012l1.231,0.097
		c0.877,0.066,1.772-0.066,2.588-0.39l1.135-0.449c0.901-0.357,1.896-0.357,2.797,0l1.135,0.449c0.815,0.323,1.71,0.457,2.588,0.39
		l1.231-0.097c0.972-0.076,1.935,0.221,2.695,0.841l0.863,0.701c0.697,0.565,1.527,0.968,2.402,1.161l1.117,0.247
		c0.986,0.221,1.83,0.809,2.375,1.656l0.51,0.792c0.501,0.78,1.192,1.437,1.998,1.898l0.853,0.488c0.895,0.512,1.55,1.378,1.8,2.379
		l0.188,0.751c0.232,0.934,0.698,1.801,1.346,2.511l0.543,0.595c0.716,0.783,1.073,1.84,0.98,2.897l-0.06,0.673
		c-0.086,0.979,0.08,1.97,0.479,2.866l0.278,0.627C54.975,25.076,54.975,26.203,54.539,27.184z"/>
	<path d="M39.61,50.929c-0.18,0.189-0.29,0.45-0.29,0.71c0,0.27,0.11,0.52,0.29,0.71c0.19,0.18,0.45,0.29,0.71,0.29
		c0.26,0,0.52-0.11,0.71-0.29c0.18-0.19,0.29-0.45,0.29-0.71s-0.11-0.521-0.29-0.71C40.649,50.559,39.979,50.559,39.61,50.929z"/>
	<path d="M43.61,50.929c-0.18,0.189-0.29,0.45-0.29,0.71c0,0.27,0.11,0.52,0.29,0.71c0.19,0.18,0.45,0.29,0.71,0.29
		c0.26,0,0.52-0.11,0.71-0.29c0.18-0.19,0.29-0.45,0.29-0.71s-0.11-0.521-0.29-0.71C44.649,50.559,43.979,50.559,43.61,50.929z"/>
	<path d="M46.61,50.929c-0.18,0.189-0.29,0.45-0.29,0.71s0.11,0.52,0.29,0.71c0.19,0.18,0.45,0.29,0.71,0.29
		c0.26,0,0.52-0.11,0.71-0.29c0.18-0.19,0.29-0.45,0.29-0.71s-0.11-0.521-0.29-0.71C47.659,50.559,46.989,50.559,46.61,50.929z"/>
	<path d="M46.03,47.929c-0.38-0.37-1.05-0.37-1.42,0c-0.18,0.189-0.29,0.45-0.29,0.71s0.11,0.52,0.29,0.71
		c0.19,0.18,0.45,0.29,0.71,0.29c0.26,0,0.52-0.11,0.71-0.29c0.18-0.19,0.29-0.45,0.29-0.71S46.209,48.119,46.03,47.929z"/>
	<path d="M47.61,47.929c-0.18,0.189-0.29,0.45-0.29,0.71s0.11,0.52,0.29,0.71c0.19,0.18,0.45,0.29,0.71,0.29
		c0.26,0,0.52-0.11,0.71-0.29c0.18-0.19,0.29-0.45,0.29-0.71s-0.11-0.521-0.29-0.71C48.649,47.559,47.979,47.559,47.61,47.929z"/>
	<path d="M40.03,49.349c0.18-0.19,0.29-0.45,0.29-0.71s-0.11-0.521-0.29-0.71c-0.38-0.37-1.05-0.37-1.42,0
		c-0.18,0.189-0.29,0.45-0.29,0.71s0.11,0.52,0.29,0.71c0.19,0.18,0.45,0.29,0.71,0.29C39.579,49.639,39.84,49.529,40.03,49.349z"/>
	<path d="M43.03,47.929c-0.38-0.37-1.05-0.37-1.42,0c-0.18,0.189-0.29,0.45-0.29,0.71s0.11,0.52,0.29,0.71
		c0.19,0.18,0.45,0.29,0.71,0.29c0.26,0,0.52-0.11,0.71-0.29c0.18-0.19,0.29-0.45,0.29-0.71S43.209,48.119,43.03,47.929z"/>
</g>
<g>
</g>
<g>
</g>
<g>
</g>
<g>
</g>
<g>
</g>
<g>
</g>
<g>
</g>
<g>
</g>
<g>
</g>
<g>
</g>
<g>
</g>
<g>
</g>
<g>
</g>
<g>
</g>
<g>
</g>
</svg>
