<?xml version="1.0" encoding="iso-8859-1"?>
<!-- Generator: Adobe Illustrator 17.1.0, SVG Export Plug-In . SVG Version: 6.00 Build 0)  -->
<!DOCTYPE svg PUBLIC "-//W3C//DTD SVG 1.1//EN" "http://www.w3.org/Graphics/SVG/1.1/DTD/svg11.dtd">
<svg version="1.1" id="Capa_1" xmlns="http://www.w3.org/2000/svg" xmlns:xlink="http://www.w3.org/1999/xlink" x="0px" y="0px"
	 viewBox="0 0 179.192 179.192" style="enable-background:new 0 0 179.192 179.192;" xml:space="preserve">
<path d="M117.662,2.088c10.171-1.523,19.795-2.073,28.364-2.073c4.542,0,9.083,0.16,13.495,0.475
	c10.206,0.729,18.452,8.975,19.181,19.181c0.777,10.879,0.878,25.593-1.564,41.892L117.662,2.088z M2.054,117.629
	c-2.442,16.299-2.341,31.013-1.564,41.892c0.729,10.206,8.976,18.452,19.181,19.181c4.411,0.315,8.951,0.475,13.495,0.475
	c0.002,0,0.002,0,0.004,0c8.568,0,18.191-0.55,28.36-2.072L2.054,117.629z M174.921,73.49c-4.927,22.126-14.972,46.055-34.38,66.813
	c-0.077,0.082-0.156,0.161-0.238,0.238c-20.665,19.321-44.55,29.396-66.846,34.348L4.271,105.702
	c4.927-22.126,14.972-46.055,34.38-66.813c0.077-0.082,0.156-0.161,0.238-0.238c20.665-19.321,44.55-29.396,66.846-34.348
	L174.921,73.49z M126.684,73.88l-7.15-7.15l5.562-5.562c1.953-1.953,1.953-5.119,0-7.071c-1.953-1.952-5.118-1.952-7.071,0
	l-5.562,5.562l-7.15-7.15c-1.952-1.951-5.117-1.952-7.071,0c-1.953,1.953-1.953,5.119,0,7.071l7.15,7.15l-8.173,8.173l-7.15-7.15
	c-1.952-1.951-5.117-1.952-7.071,0c-1.953,1.953-1.953,5.119,0,7.071l7.15,7.15l-8.173,8.173l-7.15-7.15
	c-1.953-1.952-5.118-1.952-7.071,0c-1.953,1.953-1.953,5.119,0,7.071l7.15,7.15l-8.173,8.173l-7.15-7.15
	c-1.953-1.952-5.118-1.952-7.071,0c-1.953,1.953-1.953,5.119,0,7.071l7.15,7.15l-5.562,5.562c-1.953,1.953-1.953,5.119,0,7.071
	c0.977,0.976,2.256,1.464,3.536,1.464s2.559-0.488,3.536-1.464l5.562-5.562l7.15,7.15c0.977,0.976,2.256,1.464,3.536,1.464
	s2.559-0.488,3.536-1.464c1.953-1.953,1.953-5.119,0-7.071l-7.15-7.15l8.173-8.173l7.15,7.15c0.977,0.976,2.256,1.464,3.536,1.464
	s2.559-0.488,3.536-1.464c1.953-1.953,1.953-5.119,0-7.071l-7.15-7.15l8.173-8.173l7.15,7.15c0.977,0.976,2.256,1.464,3.536,1.464
	c1.279,0,2.559-0.488,3.536-1.464c1.953-1.953,1.953-5.119,0-7.071l-7.15-7.15l8.173-8.173l7.15,7.15
	c0.977,0.976,2.256,1.464,3.536,1.464c1.279,0,2.559-0.488,3.536-1.464C128.636,78.999,128.636,75.833,126.684,73.88z"/>
<g>
</g>
<g>
</g>
<g>
</g>
<g>
</g>
<g>
</g>
<g>
</g>
<g>
</g>
<g>
</g>
<g>
</g>
<g>
</g>
<g>
</g>
<g>
</g>
<g>
</g>
<g>
</g>
<g>
</g>
</svg>
