<?xml version="1.0" encoding="iso-8859-1"?>
<!-- Generator: Adobe Illustrator 18.0.0, SVG Export Plug-In . SVG Version: 6.00 Build 0)  -->
<!DOCTYPE svg PUBLIC "-//W3C//DTD SVG 1.1//EN" "http://www.w3.org/Graphics/SVG/1.1/DTD/svg11.dtd">
<svg version="1.1" id="Capa_1" xmlns="http://www.w3.org/2000/svg" xmlns:xlink="http://www.w3.org/1999/xlink" x="0px" y="0px"
	 viewBox="0 0 296.258 296.258" style="enable-background:new 0 0 296.258 296.258;" xml:space="preserve">
<g>
	<path d="M148.26,0.131C66.653,0.131,0.262,66.522,0.262,148.129c0,14,1.955,27.553,5.604,40.398C1.939,195.632,0,201.84,0,207.27
		c0,21.927,17.407,39.857,39.127,40.718c27.078,29.567,65.976,48.14,109.133,48.14c81.606,0,147.998-66.392,147.998-147.998
		C296.258,66.522,229.866,0.131,148.26,0.131z M148.26,280.127c-34.936,0-66.738-13.647-90.374-35.884
		c0.271-0.126,0.542-0.252,0.81-0.384c13.504-6.647,22.821-20.549,22.821-36.59c0-9.527-5.948-21.439-18.184-36.416
		c-8.415-10.3-16.722-18.2-17.07-18.531l-5.504-5.217l-5.503,5.216c-0.229,0.218-3.897,3.71-8.766,8.989
		c-2.536,2.751-5.393,5.979-8.272,9.502c-1.282-7.372-1.957-14.95-1.957-22.684c0-72.784,59.214-131.998,131.998-131.998
		c34.523,0,65.987,13.328,89.533,35.102c12.208,11.288,22.289,24.844,29.558,39.996c8.27,17.239,12.907,36.538,12.907,56.9
		C280.258,220.913,221.044,280.127,148.26,280.127z M16,207.27c0-8.673,13.101-25.674,24.763-37.847
		c11.659,12.161,24.755,29.153,24.755,37.847c0,13.652-11.107,24.76-24.758,24.76C27.107,232.029,16,220.922,16,207.27z"/>
	<circle cx="98.759" cy="131.129" r="16"/>
	<circle cx="197.759" cy="131.129" r="16"/>
	<rect x="179.713" y="79.536" transform="matrix(0.9176 0.3974 -0.3974 0.9176 51.8611 -75.1814)" width="55.22" height="16"/>
	<rect x="61.586" y="79.536" transform="matrix(0.9176 -0.3974 0.3974 0.9176 -27.4412 42.6555)" width="55.22" height="16"/>
	<path d="M188.983,214.31l11.811-10.793c-13.457-14.727-32.605-23.172-52.534-23.172c-19.931,0-39.079,8.446-52.536,23.172
		l11.812,10.793c10.433-11.417,25.276-17.965,40.725-17.965C163.707,196.345,178.55,202.893,188.983,214.31z"/>
</g>
<g>
</g>
<g>
</g>
<g>
</g>
<g>
</g>
<g>
</g>
<g>
</g>
<g>
</g>
<g>
</g>
<g>
</g>
<g>
</g>
<g>
</g>
<g>
</g>
<g>
</g>
<g>
</g>
<g>
</g>
</svg>
