<?xml version="1.0" encoding="iso-8859-1"?>
<!-- Generator: Adobe Illustrator 18.0.0, SVG Export Plug-In . SVG Version: 6.00 Build 0)  -->
<!DOCTYPE svg PUBLIC "-//W3C//DTD SVG 1.1//EN" "http://www.w3.org/Graphics/SVG/1.1/DTD/svg11.dtd">
<svg version="1.1" id="Capa_1" xmlns="http://www.w3.org/2000/svg" xmlns:xlink="http://www.w3.org/1999/xlink" x="0px" y="0px"
	 viewBox="0 0 295.996 295.996" style="enable-background:new 0 0 295.996 295.996;" xml:space="preserve">
<g>
	<path d="M147.998,0C66.392,0,0,66.392,0,147.998s66.392,147.998,147.998,147.998s147.998-66.392,147.998-147.998
		S229.605,0,147.998,0z M147.998,279.996c-36.256,0-69.143-14.696-93.022-38.44c-9.536-9.482-17.631-20.41-23.934-32.42
		C21.442,190.847,16,170.048,16,147.998c0-17.688,3.506-34.571,9.846-50.001h6.818c0,9.697,0,21.606,0,29.149
		c0,1.463,0,2.766,0,3.852c0,27.232,22.415,49.313,49.646,49.313c26.948,0,49.085-21.476,49.539-48.313h0.238
		c0-9,7.137-15.91,15.909-15.91s15.909,6.91,15.909,15.91h0.155c0.456,26.84,22.341,48.392,49.29,48.392
		c27.231,0,49.313-22.158,49.313-49.391c0-6.686,0-21.424,0-33.001h5.904h1.582c6.34,15.43,9.846,32.313,9.846,50.001
		C279.996,220.782,220.782,279.996,147.998,279.996z M213.352,81.997c-19.014,0-35.505,10.695-43.732,26.416
		c-5.691-5.2-13.286-8.326-21.622-8.326c-8.357,0-15.971,3.143-21.665,8.367c-8.197-15.743-24.659-26.457-43.689-26.457
		c-6.569,0-15.808,0-24.537,0c-9.925,0-19.176,0-23.108,0c-0.523,0-0.953,0-1.276,0C56.577,42.574,99.241,16,147.998,16
		c34.523,0,65.987,13.328,89.533,35.102c9.708,8.978,18.072,19.387,24.744,30.896c-0.323,0-0.754,0-1.278,0
		C253.605,81.997,227.391,81.997,213.352,81.997z"/>
	<path d="M211.843,202.107l-11.811-10.793c-13.332,14.588-32.298,22.954-52.036,22.954s-38.703-8.366-52.034-22.954l-11.811,10.793
		c16.354,17.896,39.624,28.161,63.845,28.161S195.488,220.003,211.843,202.107z"/>
</g>
<g>
</g>
<g>
</g>
<g>
</g>
<g>
</g>
<g>
</g>
<g>
</g>
<g>
</g>
<g>
</g>
<g>
</g>
<g>
</g>
<g>
</g>
<g>
</g>
<g>
</g>
<g>
</g>
<g>
</g>
</svg>
