<?xml version="1.0" encoding="iso-8859-1"?>
<!-- Generator: Adobe Illustrator 16.0.0, SVG Export Plug-In . SVG Version: 6.00 Build 0)  -->
<!DOCTYPE svg PUBLIC "-//W3C//DTD SVG 1.1//EN" "http://www.w3.org/Graphics/SVG/1.1/DTD/svg11.dtd">
<svg version="1.1" id="Capa_1" xmlns="http://www.w3.org/2000/svg" xmlns:xlink="http://www.w3.org/1999/xlink" x="0px" y="0px"
	 width="979.7px" height="979.7px" viewBox="0 0 979.7 979.7" style="enable-background:new 0 0 979.7 979.7;" xml:space="preserve"
	>
<g>
	<g>
		<path d="M218.651,636.7c5.5,3.7,11.8,5.399,18,5.399c10.5,0,20.8-5.1,27.1-14.5l75-112.699V539l-77.1,219
			c-3.2,9.1,3.5,18.6,13.2,18.6h63.9V935.9c0,24.199,19.6,43.8,43.8,43.8s43.8-19.601,43.8-43.8V776.6h21.2V935.9
			c0,24.199,19.601,43.8,43.8,43.8c24.2,0,43.801-19.601,43.801-43.8V776.6h63.899c9.601,0,16.4-9.5,13.2-18.6l-77.1-219v-24.1
			l36.5,46.1c6.199,7.8,15.6,12.4,25.6,12.4h82v-65.2h-66.2c0,0-69.8-98-91.399-131.8c-18.2-28.4-48.7-48.4-84.7-48.4
			c-19.601,0-39.9,6-56.101,17.3c-12.699,8.8-20.699,21-29.3,33.5c-14.899,21.8-29.5,43.8-44.2,65.7
			c-17.5,26.2-34.899,52.4-52.3,78.6c-12.8,19.2-25.6,38.5-38.3,57.801c-2.4,3.6-4.7,7.1-7.1,10.699
			C199.651,606.6,203.651,626.7,218.651,636.7z"/>
		<path d="M336.551,143.7c3,2.4,6.2,4.6,9.601,6.6v46.8h181.6v-38.3c3.5-2.5,6.7-5.4,9.6-8.6c3.801-4.1,7-8.7,9.601-13.7
			c4.7-9,7.399-19.2,7.399-30c0-35.7-29-64.7-64.699-64.7c-10.301,0-20.101,2.4-28.801,6.7C448.452,20,419.952,0,386.751,0
			c-44.5,0-80.6,36.1-80.6,80.6c0,20.8,7.899,39.8,20.899,54.1C329.952,138,333.152,141,336.551,143.7z"/>
		<path d="M699.251,416.7v75.1V557v54.5c0,9.7,7.8,17.5,17.5,17.5s17.5-7.8,17.5-17.5V416.7c23.9-8.601,41.3-34.5,41.3-65.1
			c0-37.7-26.3-95.2-58.8-95.2s-58.8,57.5-58.8,95.2C657.851,382.2,675.251,408.1,699.251,416.7z"/>
		<path d="M525.952,248.3c0-7.7,0.399-19.1-0.101-32h-88.899h-88.9c-0.5,12.9-0.1,24.3-0.1,32c0,33.5-29.8,44.7-29.8,44.7
			c10.199,51.2,82,14.9,82,14.9c-11.7-6.8-17.601-20.3-20.5-33.9c12.199,20.2,33.3,33.5,57.3,33.5s45.1-13.3,57.3-33.5
			c-2.9,13.7-8.8,27.1-20.5,33.9c0,0,71.7,36.3,82-14.9C555.751,293,525.952,281.8,525.952,248.3z"/>
	</g>
</g>
<g>
</g>
<g>
</g>
<g>
</g>
<g>
</g>
<g>
</g>
<g>
</g>
<g>
</g>
<g>
</g>
<g>
</g>
<g>
</g>
<g>
</g>
<g>
</g>
<g>
</g>
<g>
</g>
<g>
</g>
</svg>
