<?xml version="1.0" encoding="iso-8859-1"?>
<!-- Generator: Adobe Illustrator 19.0.0, SVG Export Plug-In . SVG Version: 6.00 Build 0)  -->
<svg version="1.1" id="Layer_1" xmlns="http://www.w3.org/2000/svg" xmlns:xlink="http://www.w3.org/1999/xlink" x="0px" y="0px"
	 viewBox="0 0 512 512" style="enable-background:new 0 0 512 512;" xml:space="preserve">
<g>
	<g>
		<g>
			<path d="M211.482,264.329c0.631,0.137,1.246,0.205,1.86,0.205c3.917,0,7.441-2.705,8.32-6.682
				c0.674-3.046,15.889-72.38,17.143-138.385h8.661V256c0,4.71,3.823,8.533,8.533,8.533c4.71,0,8.533-3.823,8.533-8.533V110.933
				c0-4.71-3.823-8.533-8.533-8.533h-20.011c-1.937-4.915-4.676-13.056-5.402-21.47L256,61.867l25.421,19.063
				c-1.161,13.372-7.39,26.052-7.458,26.197c-0.589,1.178-0.896,2.492-0.896,3.806c0,68.412,16.563,143.744,17.271,146.918
				c0.879,3.977,4.412,6.682,8.32,6.682c0.614,0,1.237-0.068,1.86-0.205c4.599-1.024,7.501-5.581,6.485-10.18
				c-0.171-0.751-16.555-75.23-16.862-141.329c2.364-5.282,8.525-20.463,8.525-36.019c0-2.688-1.263-5.222-3.413-6.827l-30.72-23.04
				v-38.4C264.533,3.823,260.71,0,256,0c-4.71,0-8.533,3.823-8.533,8.533v38.4l-30.72,23.04c-2.15,1.604-3.413,4.139-3.413,6.827
				c0,15.633,6.161,30.737,8.508,35.942c-0.299,66.065-16.666,140.655-16.836,141.406
				C203.981,258.748,206.882,263.305,211.482,264.329z"/>
			<path d="M179.2,290.133h14.967c-8.619,36.139-22.443,64.145-22.596,64.452c-2.108,4.215-0.393,9.344,3.814,11.443
				c1.229,0.614,2.526,0.905,3.814,0.905c3.123,0,6.135-1.732,7.637-4.719c0.674-1.357,15.889-32.102,24.858-72.081h16.597
				l-14.754,66.415c-1.024,4.599,1.877,9.156,6.477,10.18c0.623,0.136,1.246,0.205,1.86,0.205c3.917,0,7.441-2.705,8.32-6.682
				l15.582-70.118h20.437l15.59,70.118c0.879,3.977,4.412,6.682,8.32,6.682c0.614,0,1.237-0.068,1.86-0.205
				c4.599-1.024,7.501-5.581,6.485-10.18l-14.763-66.415h16.589c8.977,39.979,24.192,70.724,24.875,72.081
				c1.485,2.987,4.506,4.719,7.637,4.719c1.271,0,2.586-0.29,3.797-0.905c4.224-2.099,5.931-7.228,3.831-11.443
				c-0.154-0.307-13.978-28.314-22.605-64.452H332.8c4.719,0,8.533-3.823,8.533-8.533c0-4.71-3.814-8.533-8.533-8.533H179.2
				c-4.71,0-8.533,3.823-8.533,8.533C170.667,286.31,174.49,290.133,179.2,290.133z"/>
			<path d="M503.467,494.933h-97.741c-7.526-11.913-31.582-51.533-51.925-102.4h13.133c4.719,0,8.533-3.823,8.533-8.533
				c0-4.71-3.814-8.533-8.533-8.533H145.067c-4.71,0-8.533,3.823-8.533,8.533c0,4.71,3.823,8.533,8.533,8.533h13.133
				c-20.318,50.799-44.399,90.479-51.925,102.4H8.533c-4.71,0-8.533,3.823-8.533,8.533C0,508.177,3.823,512,8.533,512h494.933
				c4.719,0,8.533-3.823,8.533-8.533C512,498.756,508.186,494.933,503.467,494.933z M187.733,494.933
				c0-37.641,30.626-68.267,68.267-68.267c37.641,0,68.267,30.626,68.267,68.267H187.733z M341.333,494.933
				c0-47.053-38.281-85.333-85.333-85.333s-85.333,38.281-85.333,85.333h-44.322c11.366-18.842,32.324-56.243,50.167-102.4h158.984
				c17.835,46.157,38.793,83.558,50.159,102.4H341.333z"/>
		</g>
	</g>
</g>
<g>
</g>
<g>
</g>
<g>
</g>
<g>
</g>
<g>
</g>
<g>
</g>
<g>
</g>
<g>
</g>
<g>
</g>
<g>
</g>
<g>
</g>
<g>
</g>
<g>
</g>
<g>
</g>
<g>
</g>
</svg>
