<?xml version="1.0" encoding="iso-8859-1"?>
<!-- Generator: Adobe Illustrator 18.1.1, SVG Export Plug-In . SVG Version: 6.00 Build 0)  -->
<svg version="1.1" id="Capa_1" xmlns="http://www.w3.org/2000/svg" xmlns:xlink="http://www.w3.org/1999/xlink" x="0px" y="0px"
	 viewBox="0 0 19.675 19.675" style="enable-background:new 0 0 19.675 19.675;" xml:space="preserve">
<g>
	<path d="M12.599,7.199l0.007-0.018l-2.444-2.805c-0.087-0.1-0.232-0.102-0.322-0.003L0,15.375h19.675L12.599,7.199z M1.056,14.908
		c0.65-0.727,7.065-7.883,8.614-9.611l-4.272,9.611H1.056z M10.376,12.91H8.894v-0.699h1.482V12.91z M11.248,8.418H9.939V7.774
		h1.309V8.418z M12.731,10.554h-1.44V9.946h1.44C12.731,9.946,12.731,10.554,12.731,10.554z M14.082,13.215V12.56h1.42v0.654
		L14.082,13.215L14.082,13.215z M6.642,8.846v0.686H7.64V8.846H6.642z M5.416,11.197h1.002v-0.625H5.416V11.197z M2.745,13.994h0.95
		v-0.563h-0.95V13.994z M4.51,13.14h1.199v-0.595H4.51V13.14z"/>
</g>
<g>
</g>
<g>
</g>
<g>
</g>
<g>
</g>
<g>
</g>
<g>
</g>
<g>
</g>
<g>
</g>
<g>
</g>
<g>
</g>
<g>
</g>
<g>
</g>
<g>
</g>
<g>
</g>
<g>
</g>
</svg>
