<?xml version="1.0" encoding="iso-8859-1"?>
<!-- Generator: Adobe Illustrator 18.0.0, SVG Export Plug-In . SVG Version: 6.00 Build 0)  -->
<!DOCTYPE svg PUBLIC "-//W3C//DTD SVG 1.1//EN" "http://www.w3.org/Graphics/SVG/1.1/DTD/svg11.dtd">
<svg version="1.1" id="Capa_1" xmlns="http://www.w3.org/2000/svg" xmlns:xlink="http://www.w3.org/1999/xlink" x="0px" y="0px"
	 viewBox="0 0 49 49" style="enable-background:new 0 0 49 49;" xml:space="preserve">
<g>
	<path d="M45.888,19.976c-0.054-0.272-0.132-0.532-0.196-0.799c-0.065-0.273-0.125-0.548-0.2-0.816
		c-0.114-0.408-0.247-0.804-0.382-1.2c-0.068-0.198-0.128-0.398-0.201-0.593c-0.173-0.463-0.368-0.913-0.57-1.359
		c-0.055-0.122-0.104-0.248-0.162-0.368c-0.223-0.469-0.467-0.922-0.721-1.369c-0.058-0.102-0.11-0.208-0.169-0.309
		c-0.222-0.376-0.463-0.737-0.706-1.097c-0.12-0.179-0.233-0.363-0.358-0.538c-0.126-0.174-0.263-0.339-0.394-0.509
		C37.785,5.7,31.417,2.337,24.342,2.337c-8.3,0-15.628,4.782-19.259,11.978c-0.061,0.119-0.126,0.234-0.184,0.354
		c-0.166,0.344-0.313,0.698-0.462,1.052c-0.107,0.252-0.218,0.501-0.315,0.759c-0.111,0.295-0.206,0.597-0.305,0.899
		c-0.104,0.315-0.211,0.629-0.301,0.952c-0.083,0.295-0.149,0.597-0.22,0.898c-0.059,0.25-0.133,0.494-0.184,0.748
		C1.306,20.955,0,23.084,0,25.163c0,2.153,1.268,4.09,3.208,4.979C5.704,39.896,14.385,46.663,24.5,46.663
		c10.116,0,18.797-6.767,21.292-16.521c1.94-0.89,3.208-2.825,3.208-4.979C49,23.084,47.694,20.955,45.888,19.976z M5.286,19.48
		c0.067-0.27,0.139-0.536,0.216-0.801c0.089-0.306,0.184-0.609,0.287-0.907c0.078-0.228,0.161-0.455,0.246-0.679
		c0.135-0.351,0.278-0.697,0.432-1.036c0.064-0.142,0.128-0.283,0.195-0.423C9.868,8.98,16.603,4.663,24.5,4.663
		c6.669,0,12.508,3.081,16.095,8.044c0.118,0.166,0.232,0.335,0.345,0.504c0.176,0.26,0.347,0.525,0.511,0.795
		c0.157,0.261,0.306,0.528,0.452,0.797c0.115,0.211,0.228,0.423,0.335,0.639c0.149,0.301,0.288,0.609,0.422,0.919
		c0.093,0.216,0.185,0.432,0.271,0.652c0.119,0.303,0.227,0.612,0.332,0.923c0.083,0.249,0.165,0.5,0.239,0.755
		c0.085,0.29,0.161,0.584,0.233,0.88c0.037,0.154,0.07,0.31,0.104,0.466c-4.082,1.317-7.131-1.614-9.007-4.408
		c-0.339-0.505-0.878-0.849-1.479-0.94c-0.616-0.094-1.245,0.076-1.733,0.468c-9.309,7.437-22.771,5.459-26.424,4.742
		C5.225,19.759,5.252,19.617,5.286,19.48z M44.62,28.458c-0.328,0.111-0.574,0.384-0.652,0.721
		C41.861,38.295,33.855,44.663,24.5,44.663S7.14,38.295,5.032,29.179c-0.078-0.337-0.324-0.609-0.652-0.721
		C2.957,27.974,2,26.649,2,25.163c0-1.354,0.932-2.83,2.12-3.443c1.151,0.264,4.777,1.002,9.406,1.002
		c5.856,0,13.306-1.183,19.34-6.004c0.073-0.058,0.146-0.058,0.181-0.053c0.078,0.012,0.111,0.063,0.123,0.079
		c3.3,4.916,7.469,6.675,11.779,5.011C46.104,22.389,47,23.834,47,25.163C47,26.649,46.043,27.974,44.62,28.458z"/>
	<path d="M17.609,33.349c0.232,0,0.465-0.081,0.653-0.242l3.077-2.651c0.757-0.662,1.278-1.505,1.506-2.437
		c0.149-0.612,0.121-1.034,0.094-1.219c-0.181-1.791-1.575-3.138-3.256-3.138c-0.768,0-1.492,0.27-2.064,0.735
		c-0.56-0.47-1.268-0.735-2.033-0.735c-1.681,0-3.075,1.346-3.256,3.137c-0.026,0.184-0.055,0.606,0.095,1.219
		c0.228,0.932,0.749,1.774,1.505,2.438l3.019,2.646C17.138,33.266,17.374,33.349,17.609,33.349z M14.368,27.543
		c-0.066-0.269-0.06-0.429-0.063-0.429c0,0,0,0.001,0,0.001c0.006-0.032,0.011-0.065,0.014-0.099
		c0.062-0.673,0.518-1.354,1.268-1.354c0.485,0,0.899,0.283,1.106,0.758c0.159,0.364,0.519,0.6,0.916,0.6c0,0,0,0,0,0
		c0.397,0,0.757-0.235,0.916-0.599c0.202-0.461,0.656-0.759,1.159-0.759c0.75,0,1.206,0.682,1.275,1.417
		c0,0.001,0.016,0.165-0.057,0.465c-0.13,0.529-0.435,1.016-0.875,1.401l-2.413,2.079l-2.366-2.073
		C14.802,28.56,14.498,28.074,14.368,27.543z"/>
	<path d="M33.723,23.663c-0.768,0-1.493,0.27-2.064,0.735c-0.56-0.47-1.269-0.735-2.034-0.735c-1.681,0-3.075,1.346-3.256,3.137
		c-0.026,0.184-0.055,0.607,0.095,1.219c0.227,0.931,0.748,1.774,1.506,2.438l3.019,2.646c0.188,0.165,0.424,0.248,0.659,0.248
		c0.232,0,0.465-0.081,0.653-0.242l3.077-2.651c0.758-0.663,1.279-1.506,1.506-2.437c0.15-0.612,0.122-1.034,0.095-1.219
		C36.798,25.009,35.404,23.663,33.723,23.663z M34.941,27.544c-0.129,0.529-0.434,1.016-0.875,1.401l-2.413,2.078l-2.366-2.072
		c-0.447-0.392-0.751-0.878-0.881-1.409c-0.066-0.269-0.06-0.428-0.063-0.428c0,0,0,0-0.001,0.001
		c0.006-0.032,0.011-0.065,0.014-0.099c0.062-0.673,0.518-1.354,1.268-1.354c0.485,0,0.899,0.283,1.106,0.758
		c0.159,0.364,0.519,0.6,0.917,0.6s0.757-0.235,0.917-0.6c0.201-0.46,0.656-0.758,1.158-0.758c0.75,0,1.206,0.682,1.275,1.416
		C34.999,27.081,35.015,27.245,34.941,27.544z"/>
	<path d="M32.559,34.639c-0.442-0.33-1.069-0.242-1.4,0.2c-0.332,0.441-0.242,1.068,0.2,1.399l0.678,0.509
		c-1.01,1.212-3.542,3.832-6.913,4.34c-2.159,0.324-4.335-0.296-6.477-1.824l0.442-0.331c0.442-0.331,0.531-0.958,0.2-1.399
		c-0.331-0.442-0.956-0.531-1.4-0.2l-2.694,2.021c-0.442,0.331-0.531,0.958-0.2,1.399c0.196,0.263,0.497,0.4,0.801,0.4
		c0.208,0,0.419-0.065,0.599-0.2l0.579-0.434c2.274,1.763,4.622,2.656,7,2.656c0.481,0,0.964-0.036,1.447-0.109
		c4.118-0.621,7.071-3.716,8.218-5.115l0.413,0.31c0.18,0.135,0.391,0.2,0.599,0.2c0.304,0,0.604-0.138,0.801-0.4
		c0.332-0.441,0.242-1.068-0.2-1.399L32.559,34.639z"/>
</g>
<g>
</g>
<g>
</g>
<g>
</g>
<g>
</g>
<g>
</g>
<g>
</g>
<g>
</g>
<g>
</g>
<g>
</g>
<g>
</g>
<g>
</g>
<g>
</g>
<g>
</g>
<g>
</g>
<g>
</g>
</svg>
