<?xml version="1.0" encoding="iso-8859-1"?>
<!-- Generator: Adobe Illustrator 19.0.0, SVG Export Plug-In . SVG Version: 6.00 Build 0)  -->
<svg version="1.1" id="Capa_1" xmlns="http://www.w3.org/2000/svg" xmlns:xlink="http://www.w3.org/1999/xlink" x="0px" y="0px"
	 viewBox="0 0 463 463" style="enable-background:new 0 0 463 463;" xml:space="preserve">
<path d="M399.538,263.787C406.534,258.004,411,249.264,411,239.5c0-17.369-14.131-31.5-31.5-31.5c-8.075,0-15.447,3.057-21.027,8.07
	c-0.319-0.042-0.642-0.07-0.973-0.07H315v-8.5c0-8.547-6.953-15.5-15.5-15.5h-16c-5.827,0-10.908,3.235-13.555,8h-59.668
	c-1.165-6.037-3.705-11.587-7.286-16.312c0.002-0.063,0.01-0.125,0.01-0.188V87.728c13.985-6.849,25.554-18.216,32.658-32.728H259.5
	c4.142,0,7.5-3.358,7.5-7.5V15h16.5c4.142,0,7.5-3.358,7.5-7.5S287.642,0,283.5,0h-224C55.358,0,52,3.358,52,7.5s3.358,7.5,7.5,7.5
	H76v32.5c0,4.142,3.358,7.5,7.5,7.5h23.842c7.104,14.512,18.673,25.878,32.658,32.728V183.5c0,0.063,0.008,0.125,0.01,0.188
	c-3.733,4.925-6.333,10.75-7.425,17.086C118.532,203.936,108,216.507,108,231.5v16c0,17.369,14.131,31.5,31.5,31.5h130.445
	c2.647,4.765,7.728,8,13.555,8h16c8.547,0,15.5-6.953,15.5-15.5V263h42.5c0.331,0,0.654-0.029,0.973-0.07
	c0.324,0.292,0.653,0.579,0.989,0.857l-11.341,62.372c-0.398,2.188,0.196,4.44,1.621,6.147c1.425,1.707,3.534,2.694,5.758,2.694h0.5
	v40.5c0,10.335,6.71,19.127,16,22.266v36.18c-4.765,2.647-8,7.728-8,13.555c0,8.547,6.953,15.5,15.5,15.5s15.5-6.953,15.5-15.5
	c0-5.827-3.235-10.908-8-13.555v-36.18c9.29-3.138,16-11.93,16-22.266V335h0.5c2.224,0,4.333-0.987,5.758-2.694
	c1.425-1.708,2.019-3.959,1.621-6.147L399.538,263.787z M379.5,223c9.098,0,16.5,7.402,16.5,16.5s-7.402,16.5-16.5,16.5
	s-16.5-7.402-16.5-16.5S370.402,223,379.5,223z M268,232h-65.551c3.864-4.871,6.605-10.666,7.827-17H268V232z M147,207.5
	c0-13.509,10.991-24.5,24.5-24.5s24.5,10.991,24.5,24.5S185.009,232,171.5,232S147,221.009,147,207.5z M91,15h161v25H91V15z
	 M124.617,55h93.767c-10.343,15.473-27.73,25-46.883,25S134.96,70.473,124.617,55z M171.5,95c5.65,0,11.177-0.661,16.5-1.913v78.538
	c-5.025-2.32-10.612-3.625-16.5-3.625s-11.475,1.305-16.5,3.625V93.087C160.323,94.339,165.85,95,171.5,95z M123,247.5v-16
	c0-6.794,4.129-12.639,10.009-15.165C137.033,233.874,152.758,247,171.5,247H268v17H139.5C130.402,264,123,256.598,123,247.5z
	 M300,271.5c0,0.275-0.224,0.5-0.5,0.5h-16c-0.276,0-0.5-0.225-0.5-0.5v-64c0-0.275,0.224-0.5,0.5-0.5h16c0.276,0,0.5,0.225,0.5,0.5
	V271.5z M315,231h34.175c-0.76,2.706-1.175,5.555-1.175,8.5s0.415,5.794,1.175,8.5H315V231z M379.5,271
	c2.052,0,4.056-0.204,5.999-0.58l9.014,49.58h-30.026l9.014-49.58C375.444,270.796,377.448,271,379.5,271z M379.5,384
	c-4.687,0-8.5-3.813-8.5-8.5V367h17v8.5C388,380.187,384.187,384,379.5,384z M388,352h-17v-17h17V352z"/>
<g>
</g>
<g>
</g>
<g>
</g>
<g>
</g>
<g>
</g>
<g>
</g>
<g>
</g>
<g>
</g>
<g>
</g>
<g>
</g>
<g>
</g>
<g>
</g>
<g>
</g>
<g>
</g>
<g>
</g>
</svg>
