<?xml version="1.0" encoding="iso-8859-1"?>
<!-- Generator: Adobe Illustrator 18.0.0, SVG Export Plug-In . SVG Version: 6.00 Build 0)  -->
<!DOCTYPE svg PUBLIC "-//W3C//DTD SVG 1.1//EN" "http://www.w3.org/Graphics/SVG/1.1/DTD/svg11.dtd">
<svg version="1.1" id="Capa_1" xmlns="http://www.w3.org/2000/svg" xmlns:xlink="http://www.w3.org/1999/xlink" x="0px" y="0px"
	 viewBox="0 0 44 44" style="enable-background:new 0 0 44 44;" xml:space="preserve">
<g>
	<path d="M22,0C9.869,0,0,9.869,0,22s9.869,22,22,22s22-9.869,22-22S34.131,0,22,0z M5.166,29.646
		c0.077,0.004,0.152,0.015,0.23,0.015c0.053,0,0.106-0.007,0.16-0.008c0.072-0.002,0.145-0.006,0.218-0.011
		c0.231-0.017,0.462-0.044,0.693-0.093c1.912-0.404,3.807-1.308,5.631-2.687c1.452-1.097,2.925-1.545,4.393-1.325
		c2.758,0.411,4.681,3.022,4.698,3.047c0.188,0.262,0.501,0.421,0.813,0.416c0.32,0,0.622-0.154,0.81-0.414
		c0.02-0.026,1.942-2.638,4.7-3.049c0.366-0.054,0.733-0.067,1.1-0.039c1.1,0.085,2.203,0.541,3.293,1.364
		c1.824,1.379,3.719,2.282,5.631,2.687c0.523,0.11,1.049,0.136,1.561,0.086c-1.059,1.152-2.313,2.011-3.753,2.566
		c-5.803,2.237-12.84-1.067-12.911-1.102C22.295,31.033,22.147,31,22,31s-0.295,0.033-0.432,0.098
		c-0.07,0.034-7.107,3.337-12.911,1.102c-1.434-0.552-2.684-1.405-3.743-2.558C4.996,29.649,5.083,29.642,5.166,29.646z M22,2
		c10.577,0,19.239,8.259,19.932,18.663c-0.884-0.88-1.864-1.433-2.928-1.644c-1.763-0.35-3.316,0.134-4.064,1.265
		c-0.623,0.943-0.543,2.17,0.216,3.28c0.872,1.275,2.262,1.497,2.944,1.431c0.542-0.055,0.931-0.532,0.887-1.075
		s-0.533-0.979-1.068-0.916c-0.077,0.003-0.707,0.024-1.111-0.568c-0.17-0.247-0.42-0.713-0.198-1.049
		c0.228-0.343,0.952-0.615,2.006-0.406c0.95,0.189,1.806,0.82,2.614,1.932c0.605,0.831,0.705,1.829,0.309,2.758
		c-0.581,1.178-2.034,2.25-3.589,1.921c-1.623-0.343-3.251-1.125-4.84-2.325c-1.902-1.438-3.893-2.015-5.91-1.705
		c-2.389,0.362-4.214,1.886-5.198,2.907c-0.984-1.021-2.81-2.545-5.198-2.907c-2.018-0.311-4.007,0.267-5.91,1.705
		c-1.589,1.2-3.217,1.982-4.84,2.325c-0.203,0.042-0.401,0.064-0.594,0.068c-0.021,0-0.041-0.004-0.062-0.004
		c-0.168,0-0.333-0.01-0.493-0.037c-0.041-0.007-0.078-0.02-0.118-0.028c-0.133-0.027-0.264-0.059-0.389-0.103
		c-0.058-0.02-0.112-0.046-0.167-0.069c-0.099-0.041-0.198-0.085-0.292-0.135c-0.064-0.035-0.124-0.073-0.184-0.111
		c-0.08-0.05-0.158-0.102-0.232-0.158c-0.057-0.043-0.112-0.087-0.165-0.133c-0.076-0.066-0.149-0.134-0.219-0.206
		c-0.038-0.039-0.078-0.078-0.113-0.118c-0.094-0.106-0.181-0.216-0.26-0.331c-0.007-0.01-0.015-0.019-0.022-0.029
		c-0.092-0.138-0.172-0.28-0.24-0.426c-0.007-0.017-0.014-0.034-0.021-0.051c-0.421-0.943-0.326-1.963,0.29-2.808
		c0.649-0.893,1.411-1.744,2.573-1.924c0.794-0.123,1.404,0.069,1.711,0.54c0.226,0.347,0.216,0.734,0.122,0.881
		C6.814,22.976,5.998,23,6,23c-0.553,0-1,0.447-1,1s0.447,1,1,1c0.703,0,2.097-0.318,2.861-1.512c0.551-0.86,0.499-2.087-0.13-3.052
		c-0.751-1.152-2.092-1.668-3.693-1.425c-1.326,0.205-2.296,0.925-2.968,1.613C2.781,10.238,11.436,2,22,2z M22,42
		c-7.238,0-13.57-3.877-17.082-9.651c0.917,0.713,1.922,1.295,3.031,1.721c5.8,2.227,12.318-0.232,14.051-0.975
		c1.216,0.521,4.788,1.886,8.814,1.886c1.712,0,3.507-0.247,5.236-0.911c1.11-0.426,2.115-1.01,3.032-1.724
		C35.572,38.122,29.239,42,22,42z"/>
	<path d="M10.447,11.839c2.213-1.107,4.96-0.017,7.105,1.056C17.696,12.966,17.849,13,17.999,13c0.367,0,0.72-0.202,0.896-0.553
		c0.247-0.494,0.047-1.095-0.447-1.342c-2.363-1.181-5.854-2.577-8.895-1.056c-0.494,0.247-0.694,0.848-0.447,1.342
		C9.354,11.886,9.952,12.084,10.447,11.839z"/>
	<path d="M25.001,13c0.15,0,0.303-0.034,0.446-0.105c2.146-1.072,4.893-2.164,7.105-1.056c0.494,0.245,1.095,0.047,1.342-0.447
		s0.047-1.095-0.447-1.342c-3.04-1.52-6.531-0.125-8.895,1.056c-0.494,0.247-0.694,0.848-0.447,1.342
		C24.281,12.798,24.634,13,25.001,13z"/>
	<circle cx="29.5" cy="15.5" r="1.5"/>
	<circle cx="14.5" cy="15.5" r="1.5"/>
</g>
<g>
</g>
<g>
</g>
<g>
</g>
<g>
</g>
<g>
</g>
<g>
</g>
<g>
</g>
<g>
</g>
<g>
</g>
<g>
</g>
<g>
</g>
<g>
</g>
<g>
</g>
<g>
</g>
<g>
</g>
</svg>
