<?xml version="1.0" encoding="iso-8859-1"?>
<!-- Generator: Adobe Illustrator 18.1.1, SVG Export Plug-In . SVG Version: 6.00 Build 0)  -->
<svg version="1.1" id="Capa_1" xmlns="http://www.w3.org/2000/svg" xmlns:xlink="http://www.w3.org/1999/xlink" x="0px" y="0px"
	 viewBox="0 0 461.123 461.123" style="enable-background:new 0 0 461.123 461.123;" xml:space="preserve">
<g>
	<g>
		<path style="fill:#010002;" d="M428.871,108.002c12.453-37.944-9.722-80.822-40.675-104.688
			c-16.639-12.827-33.782,14.843-17.346,27.507c17.533,13.518,31.978,38.261,28.466,60.696
			C409.704,95.484,419.702,101.068,428.871,108.002z"/>
		<polygon style="fill:#010002;" points="363.981,92.801 363.981,92.801 363.981,100.93 		"/>
		<path style="fill:#010002;" d="M421.751,123.145c-8.494-6.877-18.005-12.551-28.06-16.42c-9.616-3.698-19.687-5.796-29.718-5.796
			c-27.71,0.008-55.161,15.891-71.946,57.445C243.174,279.295,113.539,373.758,85.358,394.396
			c-22.28,16.314-136.129,66.727-48.308,66.727c23.28,0,60.737-3.544,117.824-12.209c272.429-41.334,298.733-242.37,298.733-242.37
			C464.165,177.347,447.99,144.369,421.751,123.145z M395.073,281.823c-10.559,18.094-38.668,1.74-28.076-16.412
			c15.054-25.8,56.713-74.84,18.021-96.641c-18.265-10.291-1.878-38.383,16.412-28.076
			C462.865,175.315,420.629,238.018,395.073,281.823z"/>
	</g>
</g>
<g>
</g>
<g>
</g>
<g>
</g>
<g>
</g>
<g>
</g>
<g>
</g>
<g>
</g>
<g>
</g>
<g>
</g>
<g>
</g>
<g>
</g>
<g>
</g>
<g>
</g>
<g>
</g>
<g>
</g>
</svg>
