<?xml version="1.0" encoding="utf-8"?>
<!-- Generator: Adobe Illustrator 16.0.4, SVG Export Plug-In . SVG Version: 6.00 Build 0)  -->
<!DOCTYPE svg PUBLIC "-//W3C//DTD SVG 1.1//EN" "http://www.w3.org/Graphics/SVG/1.1/DTD/svg11.dtd">
<svg version="1.1" id="Layer_1" xmlns="http://www.w3.org/2000/svg" xmlns:xlink="http://www.w3.org/1999/xlink" x="0px" y="0px"
	 width="112px" height="68.042px" viewBox="0 0 112 68.042" enable-background="new 0 0 112 68.042" xml:space="preserve">
<path d="M112,1.776v53.2c0,1.4-1.867,2.333-2.8,1.4c0,0-11.2-21-25.2-21s-44.333,0-44.333,0C33.133,35.376,28,40.509,28,47.042
	s5.133,11.666,11.667,11.666h24.267c6.066,0,10.732-4.666,10.732-10.731v-7.935h8.867v7.935c0,11.198-8.867,20.065-20.066,20.065
	H41.533c-12.6,0-22.867-10.267-22.867-23.334v-0.465c0-12.601,10.268-22.867,22.867-22.867c0,0,28.467,0,42.467,0s25.2-21,25.2-21
	C110.133-0.557,112,0.376,112,1.776z M24.732,21.376H5.666v-4.667h-2v4.667H0v14h3.667v4.666h2v-4.666H14
	C15.867,29.776,20.066,24.643,24.732,21.376z"/>
</svg>
