<?xml version="1.0" encoding="iso-8859-1"?>
<!-- Generator: Adobe Illustrator 16.0.0, SVG Export Plug-In . SVG Version: 6.00 Build 0)  -->
<!DOCTYPE svg PUBLIC "-//W3C//DTD SVG 1.1//EN" "http://www.w3.org/Graphics/SVG/1.1/DTD/svg11.dtd">
<svg version="1.1" id="Capa_1" xmlns="http://www.w3.org/2000/svg" xmlns:xlink="http://www.w3.org/1999/xlink" x="0px" y="0px"
	 width="190.124px" height="190.124px" viewBox="0 0 190.124 190.124" style="enable-background:new 0 0 190.124 190.124;"
	 xml:space="preserve">
<g>
	<path d="M56.69,104.498c0.905-8.762-12.172-16.571-19.285-10.077c-0.257,0.234-0.424,0.501-0.553,0.776
		c-0.038,0.05-0.08,0.098-0.119,0.146c-0.04,0.021-0.086,0.024-0.125,0.045c-0.394,0.204-0.593,0.567-0.658,0.958
		c-3.008,4.624-2.73,10.714,0.79,15.229c2.086,2.675,4.876,4.13,7.798,4.452c-0.212,2.736-0.4,5.475-0.618,8.213
		c-0.059,0.739,0.444,1.384,1.016,1.771c0.106,0.071,0.211,0.144,0.316,0.215c0.394,0.266,1.043,0.266,1.437,0
		c0.106-0.071,0.211-0.144,0.316-0.215c0.572-0.387,1.075-1.031,1.016-1.771c-0.219-2.752-0.408-5.505-0.622-8.257
		c2.228-0.325,4.43-1.289,6.363-2.92C56.774,110.521,57.561,107.41,56.69,104.498z M44.604,107.175
		c-2.582-2.014-3.582-5.782-2.624-8.845c2.2,0.353,4.298,1.096,6.359,2.349c1.299,0.79,2.713,1.934,3.6,3.23
		c-0.008,0.317-0.043,0.634-0.117,0.95C51.109,107.928,46.981,109.029,44.604,107.175z"/>
	<path d="M158.653,75.05c-11.349-27.485-27.096-60.139-56.146-72.264C83.574-5.118,65.825,4.899,53.221,18.988
		c-17.129,19.146-26.638,45.233-33.96,69.429c-6.745,22.289-12.473,47.725-9.998,71.164c0.166,1.571,0.415,3.129,0.701,4.681
		c-0.356,0.638-0.564,1.395-0.442,2.285c2.458,17.981,28.597,20.765,42.597,22.346c26.645,3.008,54.341,0.066,80.712-4.111
		c19.682-3.119,41.283-7.276,47.11-29.301C186.859,129.326,168.262,98.322,158.653,75.05z M142.666,81.367
		c-2.574,0.606-4.641-1.238-4.819-3.703c-0.173-2.391,0.877-4.1,2.227-5.764c0.129,0.066,0.241,0.152,0.387,0.197
		c2.502,0.779,4.487,1.66,4.791,4.624C145.481,78.968,144.93,80.833,142.666,81.367z M103.244,14.896
		c1.355,0.792,1.917,2.825,2.299,4.212c0.916,3.331,0.66,8.575-3.285,9.643c-6.573,1.779-4.695-8.066-2.231-13.771
		C101.167,14.973,102.209,14.29,103.244,14.896z M83.667,8.237c5.356-1.184,10.402-0.791,15.145,0.735
		c-2.87,2.099-4.969,5.174-6.194,8.587c-1.284,2.817-1.797,5.929-1.226,8.777c-0.06,0.006-0.107-0.027-0.168-0.013
		c-4.467,1.063-7.934,4.521-9.851,8.568c-0.062,0.083-0.132,0.145-0.193,0.229c-2.11,2.948-2.207,6.932-0.875,10.308
		c0.536,1.659,1.467,3.134,2.865,4.282c0.567,0.513,1.188,0.96,1.863,1.323c1.403,0.754,2.911,1.06,4.424,1.075
		c0.048,0.005,0.086,0.02,0.134,0.023c0.262,0.023,0.51-0.014,0.769-0.006c-0.026,0.078-0.066,0.14-0.081,0.23
		c-0.449,2.611-0.217,5.226-0.112,7.86c0.079,1.979-0.574,6.138,1.517,7.26c0.67,0.358,1.577,0.448,2.239,0
		c2.185-1.48,1.002-5.085,0.733-7.26c-0.325-2.621-0.453-5.402-1.485-7.86c-0.062-0.148-0.15-0.285-0.256-0.409
		c4.896-0.857,8.635-4.566,8.645-9.717c0.116-0.584,0.211-1.174,0.243-1.776c0.08-1.48-0.223-3.393-0.932-5.032
		c0.991,0.019,2.007-0.057,3.06-0.34c0.137-0.011,0.278,0.008,0.414-0.007c0.139,3.965,0.87,7.93,1.83,11.76
		c0.108,0.437,0.316,0.749,0.556,1.02c-3.987,3.024-5.684,8.524-3.426,13.671c1.758,4.006,5.983,5.964,10.175,5.961
		c-1.221,4.27-1.15,9.399,1.097,12.865c1.108,1.708,3.352,0.88,3.573-0.969c0.269-2.229-0.125-4.588-0.305-6.826
		c-0.157-1.948-0.092-3.896-0.094-5.841c1.034-0.378,2.001-0.881,2.857-1.547c0.384-0.133,0.778-0.251,1.146-0.41
		c6.513-2.829,7.642-10.077,3.693-15.502c-2.652-3.646-9.625-7.992-14.799-6.902c-0.844-2.835-1.679-5.638-2.046-8.603
		c3.103-1.601,5.41-4.49,5.64-8.356c0.148-2.485-0.927-5.479-2.681-8.054c-0.121-0.448-0.219-0.915-0.367-1.341
		c-0.021-0.063-0.052-0.13-0.074-0.193c14.978,11.886,25.891,33.896,32.394,47.62c0.31,0.654,0.619,1.322,0.929,1.98
		c-1.221-0.292-2.488-0.379-3.758-0.168c-2.456,0.409-6.188,2.107-6.989,4.724c-1.866,2.15-3.021,5.348-3.056,7.697
		c-0.081,5.618,3.908,9.849,8.988,10.955c-0.083,0.889-0.171,1.778-0.212,2.669c-0.106,2.308-0.777,5.23,1.081,6.978
		c0.931,0.878,2.313,0.878,3.245,0c1.711-1.609,1.216-4.034,1.117-6.173c-0.053-1.15-0.155-2.297-0.26-3.441
		c3.5-0.749,5.977-3.095,7.132-6.156c0.103-0.157,0.235-0.292,0.33-0.453c5.438,12.294,10.437,24.96,14.301,37.703
		c-20.928-18.065-51.636-16.917-71.726-36.912c-16.57-16.49-23.756-35.801-48.409-38.937C54.438,28.395,66.092,12.118,83.667,8.237z
		 M95.638,39.411c-0.007,1.234-0.53,2.626-1.311,3.577c-1.303,1.587-3.928,2.808-5.381,2.175c-2.13-0.928-2.792-4.588-1.284-6.528
		c1.254-1.613,3.593-3.378,5.937-4.482c0.535,0.562,1.003,1.193,1.446,1.847C95.256,37.125,95.645,38.258,95.638,39.411z
		 M109.836,51.672c0.521,0.229,1.144,0.284,1.871,0.005c1.894-0.728,5.531-2.78,6.665,0.04c0.986,2.458,0.338,5.299-1.065,7.445
		c-1.738,2.658-5.403,1.636-7.403-0.123C107.983,57.348,108.553,54.347,109.836,51.672z M119.834,176.605
		c-16.947,2.17-34.032,3.269-51.107,3.578c-13.984,0.253-47.409,2.169-52.875-15.382c-0.24-0.77-0.654-1.272-1.122-1.656
		c-0.246-9.092,0.382-18.502,1.67-28.008c2.501,2.211,5.662,3.465,8.975,3.604c-1.296,5.365-2.805,16.603,3.336,16.756
		c0.712,0.019,1.533-0.412,1.856-1.064c1.181-2.382-0.597-4.687-1.193-7.045c-0.734-2.9-0.742-6.107-0.357-9.085
		c0.521-0.168,1.031-0.383,1.527-0.635c0.678,0.323,1.508,0.375,2.427-0.122c0.891-0.481,1.659-1.018,2.318-1.595
		c-0.125,0.835-0.14,1.672-0.105,2.507c-0.324,1.031-0.451,2.121-0.316,3.195c0.52,4.14,3.797,7.002,7.473,8.539
		c0.237,0.099,0.505,0.128,0.75,0.211c0.14,0.049,0.273,0.131,0.413,0.172c0.163,0.528,0.329,1.067,0.466,1.632
		c0.874,3.604,1.461,7.309,1.779,10.999c0.159,1.855,2.795,1.886,2.905,0c0.202-3.485,0.047-6.873-0.378-10.336
		c-0.068-0.558-0.113-1.184-0.163-1.817c1.859-0.156,3.678-0.711,5.201-1.728c3.609-2.41,5.876-8.353,3.886-12.402
		c-0.316-0.643-0.85-0.857-1.391-0.815c-0.734-1.885-2.075-3.559-4.118-4.77c-3.995-2.367-9.97-2.188-13.681,0.754
		c0.093-0.34,0.132-0.688,0.189-1.034c0.589-2.643,0.001-5.484-1.43-8.069c-0.74-1.46-1.681-2.809-2.774-3.921
		c-1.015-1.034-2.288-1.927-3.66-2.593c-0.06-0.034-0.124-0.059-0.185-0.092c-0.226-0.104-0.446-0.219-0.678-0.31
		c-2.953-1.426-6.284-1.824-9.512-0.606c3.825-17.026,9.426-33.886,15.888-49.326c28.844,0.186,19.916,32.403,27.291,52.901
		c3.105,8.63,10.318,12.513,18.606,15.182c10.79,3.474,19.711,1.008,29.326,9.365C120.2,151.529,122.512,165.351,119.834,176.605z
		 M23.806,120.083c2.951-0.59,6.075,1.269,8.027,3.415c1.149,1.265,1.92,2.96,2.003,4.668c0.086,1.793-1.42,3.051-2.793,4.061
		c-1.026,0.09-2.091,0.291-3.138,0.373c-1.467-0.331-2.865-1.083-3.941-2.212C21.803,128.122,21.548,122.622,23.806,120.083z
		 M50.372,141.843c-0.554,1.756-1.66,2.833-2.956,3.301c-0.451-0.07-0.904-0.163-1.36-0.294c-0.039-0.034-0.066-0.078-0.107-0.111
		c-0.391-0.312-0.934-0.456-1.446-0.41c-1.628-0.622-3.095-2.06-3.506-3.203c-0.264-0.736-0.237-1.213,0.17-2.131
		c0.426-0.96,0.915-1.868,1.367-2.798C46.891,135.377,52.178,136.118,50.372,141.843z M155.771,169.66
		c-6.325,2.603-13.694,3.507-20.379,4.642c-0.648,0.11-1.3,0.2-1.948,0.307c0.115-14.689-6.312-35.609-19.896-43.25
		c-15.539-8.741-38.165-2.445-42.337-24.235c-3.742-19.538-4.397-53.481-33.195-46.02c1.312-2.981,2.644-5.915,4.004-8.771
		c3.547-0.663,6.703-0.671,9.552-0.159c6.748,2.957,12.082,7.098,16.852,11.851c7.825,10.375,13.515,24.864,23.624,33.186
		c9.125,7.512,23.537,9.382,34.634,12.298c2.021,0.531,3.917,1.13,5.789,1.745c0.554,0.178,1.107,0.359,1.661,0.539
		c15.388,5.386,25.999,13.885,36.895,27.163C172.557,151.804,169.369,164.063,155.771,169.66z"/>
	<path d="M103.853,144.172c-1.543-2.939-4.874-5.083-8.381-5.848c-0.105-0.045-0.202-0.104-0.308-0.146
		c-0.148-0.059-0.281-0.048-0.422-0.071c0.02-0.029,0.039-0.058,0.067-0.084c0.325-0.316-0.202-0.831-0.493-0.493
		c-0.156,0.181-0.253,0.375-0.368,0.563c-0.377-0.037-0.752-0.046-1.126-0.051c-1.481-0.914-3.557-0.784-5.243-0.261
		c-2.808,0.872-5.101,3.222-5.57,6.173c-0.207,1.301-0.13,2.604,0.128,3.86c-0.022,1.426,0.229,2.927,0.837,4.458
		c1.726,4.349,5.853,6.988,10.236,7.299c-0.037,1.749-0.045,3.497,0.065,5.248c0.143,2.277,0.191,4.874,2.268,6.206
		c1.151,0.737,2.361-0.065,2.817-1.146c0.742-1.76-0.263-3.868-0.559-5.673c-0.274-1.667-0.364-3.369-0.431-5.066
		c0.628-0.185,1.256-0.382,1.86-0.68C104.898,155.671,106.773,149.736,103.853,144.172z M95.917,147.933
		c-0.034,0.048-0.028,0.039-0.049,0.07c-0.084,0.1-0.168,0.197-0.256,0.292c-0.225,0.249-0.475,0.476-0.726,0.697
		c-0.076,0.067-0.095,0.088-0.104,0.099c-0.011,0.001-0.063,0.028-0.305,0.189c-0.283,0.188-0.582,0.347-0.884,0.502
		c-0.079,0.036-0.075,0.037-0.114,0.055c-0.107,0.04-0.214,0.08-0.323,0.116c-0.302,0.104-0.614,0.174-0.926,0.239
		c-0.22,0.019-0.44,0.021-0.661,0.019c-0.138-0.001-0.164,0.001-0.222,0.003c0.004-0.009-0.016-0.022-0.132-0.048
		c-0.181-0.04-0.253-0.05-0.301-0.054c-0.019-0.013-0.011-0.016-0.073-0.045c-0.116-0.06-0.227-0.126-0.338-0.193
		c-0.019-0.018-0.01-0.01-0.034-0.032c-0.603-0.571-0.047,0.03-0.327-0.398c-0.525-0.806-0.428-0.728-0.695-1.895
		c-0.027-0.116-0.189-0.997-0.222-1.086c-0.015-0.188-0.027-0.377-0.025-0.564c-0.001-0.064-0.004-0.089-0.006-0.133
		c0.011-0.041,0.02-0.066,0.034-0.131c0.026-0.115,0.018-0.131,0.011-0.15c0.037-0.051,0.072-0.098,0.167-0.263
		c0.058-0.1,0.297-0.436,0.39-0.579c0.403-0.458,0.871-0.889,1.323-1.284c0.451-0.396,0.895-0.804,1.356-1.189
		c0.067-0.051,0.222-0.173,0.385-0.302c0.155,0.17,0.323,0.334,0.557,0.453c0.816,0.415,1.609,0.858,2.293,1.47
		c0.54,0.483,0.779,0.904,0.877,1.181c0.279,0.789,0.089,1.554-0.183,2.129C96.266,147.392,96.093,147.663,95.917,147.933z"/>
</g>
<g>
</g>
<g>
</g>
<g>
</g>
<g>
</g>
<g>
</g>
<g>
</g>
<g>
</g>
<g>
</g>
<g>
</g>
<g>
</g>
<g>
</g>
<g>
</g>
<g>
</g>
<g>
</g>
<g>
</g>
</svg>
