<?xml version="1.0" encoding="iso-8859-1"?>
<!-- Generator: Adobe Illustrator 19.0.0, SVG Export Plug-In . SVG Version: 6.00 Build 0)  -->
<svg version="1.1" id="Layer_1" xmlns="http://www.w3.org/2000/svg" xmlns:xlink="http://www.w3.org/1999/xlink" x="0px" y="0px"
	 viewBox="0 0 460 460" style="enable-background:new 0 0 460 460;" xml:space="preserve">
<g id="XMLID_109_">
	<g>
		<path d="M460,205c0-20,0-40,0-40c-24.787,0-49.555,20.489-57.422,50.167c-1.943-0.108-4.019-0.167-6.245-0.167
			c-44.722,0-96.25-16.641-146.333-28.456V135c-26.585,0-49.117,17.296-56.994,41.245C185.202,175.449,177.52,175,170,175
			c-106.306,0-126.12,34.592-129.502,60H20c-11.046,0-20,8.954-20,20s8.954,20,20,20h34.9c14.326,8.691,39.266,15.685,76.03,18.57
			C134.854,311.542,150.851,325,170,325v-30c120.042,0,195.595-22.236,232.618-40.017C410.527,284.58,435.255,305,460,305
			c0,0,0-20,0-40c0-10-10-30-20-30C450,235,460,215,460,205z M100,245c-5.523,0-10-4.477-10-10s4.477-10,10-10s10,4.477,10,10
			S105.523,245,100,245z"/>
	</g>
</g>
<g>
</g>
<g>
</g>
<g>
</g>
<g>
</g>
<g>
</g>
<g>
</g>
<g>
</g>
<g>
</g>
<g>
</g>
<g>
</g>
<g>
</g>
<g>
</g>
<g>
</g>
<g>
</g>
<g>
</g>
</svg>
