<?xml version='1.0' encoding='iso-8859-1'?>
<svg version="1.1" xmlns="http://www.w3.org/2000/svg" viewBox="0 0 295.92 295.92" xmlns:xlink="http://www.w3.org/1999/xlink" enable-background="new 0 0 295.92 295.92">
  <g>
    <g>
      <circle cx="208.367" cy="79.72" r="25.907"/>
      <path d="m65.711,138.08c4.801,4.089 12.064,3.932 16.705-0.49 0.008-0.008 0.017-0.014 0.024-0.021l31.222-29.913 46.392,10.387-41.397,1.446c-5.759,5.517-26.644,25.527-27.826,26.66 10.391,0 77.099,0 87.56,0l10.534-8.474 37.928,6.069c2.986,0.48 6.06-0.144 8.634-1.765l49.675-31.269c5.843-3.677 7.597-11.395 3.92-17.237-3.679-5.842-11.395-7.597-17.238-3.919l-45.692,28.759-34.368-5.499-19.514-24.257c-5.875-7.302-16.401-8.625-23.901-3.177l15.318,7.738-50.368-12c-0.006-0.001-0.012-0.001-0.017-0.003-4.178-0.928-8.487,0.42-11.362,3.175l-36.796,35.227c-5.326,5.101-5.122,13.733 0.567,18.563z"/>
      <path d="m162.737,210.607h91.183c5.522,0 10-4.478 10-10 0-5.523-4.478-10-10-10h-91.183c-5.523,0-10,4.477-10,10-2.84217e-14,5.523 4.478,10 10,10z"/>
      <path d="m285.92,222.107h-229.003c-5.522,0-10,4.477-10,10 0,5.522 4.478,10 10,10h229.003c5.522,0 10-4.478 10-10s-4.478-10-10-10z"/>
      <path d="m176.92,168.607c0-5.522-4.478-10-10-10h-91c-5.522,0-10,4.478-10,10s4.478,10 10,10h91c5.522,0 10-4.478 10-10z"/>
      <path d="m119.5,200.607c0-5.523-4.478-10-10-10h-99.5c-5.523,0-10,4.478-10,10s4.477,10 10,10h99.5c5.522,0 10-4.477 10-10z"/>
    </g>
  </g>
</svg>
