<?xml version="1.0" encoding="iso-8859-1"?>
<!-- Generator: Adobe Illustrator 16.0.0, SVG Export Plug-In . SVG Version: 6.00 Build 0)  -->
<!DOCTYPE svg PUBLIC "-//W3C//DTD SVG 1.1//EN" "http://www.w3.org/Graphics/SVG/1.1/DTD/svg11.dtd">
<svg version="1.1" id="Capa_1" xmlns="http://www.w3.org/2000/svg" xmlns:xlink="http://www.w3.org/1999/xlink" x="0px" y="0px"
	 width="919.9px" height="919.9px" viewBox="0 0 919.9 919.9" style="enable-background:new 0 0 919.9 919.9;" xml:space="preserve"
	>
<g>
	<g>
		<path d="M795.5,869.9V50c0-27.6-22.399-50-50-50H174.4c-27.6,0-50,22.4-50,50v819.9c0,27.6,22.4,50,50,50h571.2
			C773.2,919.9,795.5,897.5,795.5,869.9z M459.9,833.1c-108.101,0-195.8-87.699-195.8-195.8c0-108.1,87.699-195.8,195.8-195.8
			c108.1,0,195.8,87.7,195.8,195.8C655.7,745.5,568.101,833.1,459.9,833.1z M691.601,345H228.3V97.3h463.3V345z"/>
		<circle cx="459.9" cy="639.2" r="64.4"/>
	</g>
</g>
<g>
</g>
<g>
</g>
<g>
</g>
<g>
</g>
<g>
</g>
<g>
</g>
<g>
</g>
<g>
</g>
<g>
</g>
<g>
</g>
<g>
</g>
<g>
</g>
<g>
</g>
<g>
</g>
<g>
</g>
</svg>
