<?xml version="1.0" encoding="iso-8859-1"?>
<!-- Generator: Adobe Illustrator 16.0.0, SVG Export Plug-In . SVG Version: 6.00 Build 0)  -->
<!DOCTYPE svg PUBLIC "-//W3C//DTD SVG 1.1//EN" "http://www.w3.org/Graphics/SVG/1.1/DTD/svg11.dtd">
<svg version="1.1" id="Capa_1" xmlns="http://www.w3.org/2000/svg" xmlns:xlink="http://www.w3.org/1999/xlink" x="0px" y="0px"
	 width="435.051px" height="435.05px" viewBox="0 0 435.051 435.05" style="enable-background:new 0 0 435.051 435.05;"
	 xml:space="preserve">
<g>
	<path d="M435.051,231.888V108.613c0-7.584-6.17-13.754-13.756-13.754H13.756C6.171,94.859,0,101.029,0,108.613v123.275
		c0,5.273,3.068,10.146,7.818,12.412l148.528,70.908l0.176,0.173c16.5,16,38.164,24.811,61.003,24.811
		c22.84,0,44.504-8.811,60.999-24.811l0.176-0.173l0.221-0.104L427.217,244.3C431.977,242.028,435.051,237.157,435.051,231.888z
		 M27.506,223.214v-49.476h102.29v78.724c0,5.975,0.611,11.959,1.816,17.789l0.612,2.959L27.506,223.214z M277.748,252.462
		c0,33.207-27.016,60.225-60.222,60.225c-33.207,0-60.225-27.018-60.225-60.225v-78.724h120.447V252.462L277.748,252.462z
		 M407.541,223.214L302.83,273.21l0.609-2.957c1.205-5.853,1.816-11.836,1.816-17.791v-78.724h102.285V223.214L407.541,223.214z
		 M407.541,146.23H27.506v-23.863h380.035V146.23L407.541,146.23z"/>
</g>
<g>
</g>
<g>
</g>
<g>
</g>
<g>
</g>
<g>
</g>
<g>
</g>
<g>
</g>
<g>
</g>
<g>
</g>
<g>
</g>
<g>
</g>
<g>
</g>
<g>
</g>
<g>
</g>
<g>
</g>
</svg>
