<?xml version="1.0" encoding="iso-8859-1"?>
<!-- Generator: Adobe Illustrator 16.0.0, SVG Export Plug-In . SVG Version: 6.00 Build 0)  -->
<!DOCTYPE svg PUBLIC "-//W3C//DTD SVG 1.1//EN" "http://www.w3.org/Graphics/SVG/1.1/DTD/svg11.dtd">
<svg version="1.1" id="Capa_1" xmlns="http://www.w3.org/2000/svg" xmlns:xlink="http://www.w3.org/1999/xlink" x="0px" y="0px"
	 width="423.906px" height="423.906px" viewBox="0 0 423.906 423.906" style="enable-background:new 0 0 423.906 423.906;"
	 xml:space="preserve">
<g>
	<g>
		<path d="M388.763,112.685H35.146c-4.881,0-8.84,3.957-8.84,8.84v42.687c0,4.882,3.959,8.841,8.84,8.841h9.158l27.213,145.853
			c-16.375,9.923-27.342,27.915-27.342,48.422c0,31.198,25.381,56.578,56.578,56.578c31.197,0,56.58-25.38,56.58-56.578
			c0-1.603-0.086-3.185-0.215-4.754H266.79c-0.131,1.569-0.215,3.152-0.215,4.754c0,31.198,25.381,56.578,56.578,56.578
			s56.578-25.38,56.578-56.578c0-20.507-10.969-38.499-27.344-48.422l27.215-145.853h9.158c4.881,0,8.84-3.959,8.84-8.841v-42.687
			C397.601,116.642,393.642,112.685,388.763,112.685z M100.753,388.545c-11.697,0-21.217-9.517-21.217-21.217
			c0-11.699,9.52-21.217,21.217-21.217c11.699,0,21.217,9.519,21.217,21.217C121.971,379.028,112.453,388.545,100.753,388.545z
			 M323.153,388.545c-11.699,0-21.217-9.517-21.217-21.217c0-11.699,9.518-21.217,21.217-21.217
			c11.697,0,21.217,9.519,21.217,21.217C344.37,379.028,334.851,388.545,323.153,388.545z"/>
		<path d="M342.517,49.776c-0.193-0.363-0.479-0.67-0.826-0.89L320.47,35.528c-0.969-0.611-2.23-0.436-3,0.412l-4.744,5.238
			l-4.703-15.914c-0.145-0.482-0.438-0.907-0.838-1.21L280.368,3.721c-0.674-0.513-1.572-0.623-2.355-0.288l-24.68,10.592
			l-28.055,4.549L201.003,6.722c-0.1-0.048-0.201-0.09-0.307-0.125l-20.039-6.483c-0.723-0.234-1.518-0.104-2.129,0.35
			l-17.611,13.065l-22.752-0.759c-0.506-0.014-1.01,0.131-1.428,0.423l-24.752,17.288c-0.633,0.441-1.01,1.163-1.01,1.933v7.731
			L94.74,53.583c-0.063,0.054-0.125,0.109-0.184,0.169L61.356,88.139l301.59,0.142L342.517,49.776z"/>
	</g>
</g>
<g>
</g>
<g>
</g>
<g>
</g>
<g>
</g>
<g>
</g>
<g>
</g>
<g>
</g>
<g>
</g>
<g>
</g>
<g>
</g>
<g>
</g>
<g>
</g>
<g>
</g>
<g>
</g>
<g>
</g>
</svg>
