<?xml version="1.0" encoding="iso-8859-1"?>
<!-- Generator: Adobe Illustrator 19.0.0, SVG Export Plug-In . SVG Version: 6.00 Build 0)  -->
<svg version="1.1" id="Layer_1" xmlns="http://www.w3.org/2000/svg" xmlns:xlink="http://www.w3.org/1999/xlink" x="0px" y="0px"
	 viewBox="0 0 320.001 320.001" style="enable-background:new 0 0 320.001 320.001;" xml:space="preserve">
<g id="XMLID_813_">
	<g>
		<path d="M270.284,86.478c-28.856,0-57.708,21.743-75.186,37.922c-5.953-5.87-13.372-10.249-21.658-12.558
			c6.697-14.545,19.465-25.857,32.511-34.555c27.571-18.381,24.65-49.542,0-64.333C160-14.617,86.477,3.764,86.477,49.716
			c0,28.856,21.743,57.708,37.922,75.186c-5.87,5.953-10.249,13.372-12.557,21.657c-14.546-6.697-25.859-19.465-34.556-32.511
			c-18.38-27.57-49.541-24.65-64.332,0C-14.617,160,3.764,233.523,49.716,233.523c28.856,0,57.709-21.743,75.186-37.922
			c5.953,5.87,13.372,10.249,21.657,12.557c-6.697,14.546-19.465,25.858-32.51,34.556c-27.571,18.381-24.651,49.542,0,64.333
			c45.952,27.571,119.475,9.19,119.475-36.762c0-28.856-21.743-57.709-37.922-75.186c5.87-5.953,10.249-13.372,12.557-21.657
			c14.546,6.697,25.859,19.465,34.556,32.511c18.38,27.57,49.542,24.65,64.333,0C334.617,160,316.236,86.478,270.284,86.478z
			 M160,180c-11.045,0-20-8.954-20-20s8.955-20,20-20s20,8.954,20,20S171.045,180,160,180z"/>
	</g>
</g>
<g>
</g>
<g>
</g>
<g>
</g>
<g>
</g>
<g>
</g>
<g>
</g>
<g>
</g>
<g>
</g>
<g>
</g>
<g>
</g>
<g>
</g>
<g>
</g>
<g>
</g>
<g>
</g>
<g>
</g>
</svg>
