<?xml version="1.0" encoding="iso-8859-1"?>
<!-- Generator: Adobe Illustrator 18.0.0, SVG Export Plug-In . SVG Version: 6.00 Build 0)  -->
<!DOCTYPE svg PUBLIC "-//W3C//DTD SVG 1.1//EN" "http://www.w3.org/Graphics/SVG/1.1/DTD/svg11.dtd">
<svg version="1.1" id="Capa_1" xmlns="http://www.w3.org/2000/svg" xmlns:xlink="http://www.w3.org/1999/xlink" x="0px" y="0px"
	 viewBox="0 0 472.369 472.369" style="enable-background:new 0 0 472.369 472.369;" xml:space="preserve">
<path d="M461.947,205.056c-9.046-27.686-24.52-54.664-45.991-80.185c-18.33-21.787-40.547-41.773-64.248-57.797
	c-17.703-11.968-35.46-21.15-51.104-26.506l8.736-35.832L289.908,0l-8.707,35.71c-16.644-2.693-37.241-2.81-59.172-0.249
	c-28.419,3.317-57.343,10.835-83.646,21.74c-30.811,12.774-56.967,29.603-77.742,50.019c-24.233,23.813-40.429,51.921-48.137,83.542
	l-1.854,7.603l6.936,3.626c73.477,38.427,174.554,65.583,205.194,73.33l-43.167,177.048H1.265v20h459.829v-20H200.201
	l42.015-172.324c32.295,7.529,131.388,28.968,212.632,28.965c0.563,0,1.141-0.001,1.701-0.003l7.824-0.029l1.854-7.602
	C473.938,269.756,472.498,237.35,461.947,205.056z M74.66,121.485c18.937-18.609,42.953-34.021,71.384-45.809
	c20.91-8.67,48.141-16.358,75.19-20.007c-2.326,1.259-4.678,2.599-7.052,4.034c-22.786,13.773-42.96,33.16-59.959,57.623
	c-19.25,27.699-34.441,62.044-45.252,102.181c-25.493-9.257-51.604-19.893-74.979-31.59C41.433,163.033,55.09,140.716,74.66,121.485
	z M127.883,226.171c10.13-38.15,24.307-70.631,42.211-96.635c15.226-22.113,33.17-39.624,53.333-52.046
	c21.223-13.075,40.571-17.732,52.313-19.384L227.523,255.87C210.594,251.55,171.454,241.083,127.883,226.171z M295.029,63.431
	c9.448,6.919,23.254,19.329,35.408,39.21c12.411,20.303,20.463,44.155,23.931,70.893c4.094,31.568,1.773,67.252-6.879,106.178
	c-44.185-6.612-82.743-15.018-100.53-19.123L295.029,63.431z M448.461,288.963c-26.137-0.373-54.218-2.946-81.115-6.462
	c8.874-40.609,11.194-78.09,6.856-111.54c-3.831-29.542-12.814-56.037-26.7-78.751c-1.452-2.375-2.927-4.653-4.417-6.848
	c22.344,15.691,42.989,35.058,57.567,52.385c19.813,23.548,34.039,48.284,42.284,73.521
	C451.457,237.347,453.307,263.445,448.461,288.963z"/>
<g>
</g>
<g>
</g>
<g>
</g>
<g>
</g>
<g>
</g>
<g>
</g>
<g>
</g>
<g>
</g>
<g>
</g>
<g>
</g>
<g>
</g>
<g>
</g>
<g>
</g>
<g>
</g>
<g>
</g>
</svg>
