<?xml version="1.0" encoding="iso-8859-1"?>
<!-- Generator: Adobe Illustrator 18.0.0, SVG Export Plug-In . SVG Version: 6.00 Build 0)  -->
<!DOCTYPE svg PUBLIC "-//W3C//DTD SVG 1.1//EN" "http://www.w3.org/Graphics/SVG/1.1/DTD/svg11.dtd">
<svg version="1.1" id="Capa_1" xmlns="http://www.w3.org/2000/svg" xmlns:xlink="http://www.w3.org/1999/xlink" x="0px" y="0px"
	 viewBox="0 0 55.846 55.846" style="enable-background:new 0 0 55.846 55.846;" xml:space="preserve">
<g>
	<path d="M13,15.741c-2.757,0-5,2.243-5,5c0,0.553,0.448,1,1,1s1-0.447,1-1c0-1.654,1.346-3,3-3s3,1.346,3,3c0,0.553,0.448,1,1,1
		s1-0.447,1-1C18,17.984,15.757,15.741,13,15.741z"/>
	<path d="M36,20.741c0-2.757-2.243-5-5-5s-5,2.243-5,5c0,0.553,0.448,1,1,1s1-0.447,1-1c0-1.654,1.346-3,3-3s3,1.346,3,3
		c0,0.553,0.448,1,1,1S36,21.293,36,20.741z"/>
	<path d="M33.25,30.938c0-0.334-0.167-0.646-0.445-0.832l-4.25-2.833c-0.461-0.306-1.081-0.182-1.387,0.277
		c-0.306,0.46-0.182,1.08,0.277,1.387l3.002,2.001l-3.002,2.002C27.167,33.125,27,33.438,27,33.772s0.167,0.646,0.445,0.832
		l3.002,2.001l-3.002,2.001c-0.459,0.307-0.583,0.927-0.277,1.387c0.193,0.289,0.51,0.445,0.833,0.445
		c0.19,0,0.383-0.055,0.554-0.168l4.25-2.833c0.278-0.186,0.445-0.498,0.445-0.832s-0.167-0.646-0.445-0.832l-3.002-2.001
		l3.002-2.002C33.083,31.584,33.25,31.272,33.25,30.938z"/>
	<path d="M55.82,43.813c-0.212-2.116-1.852-3.708-3.829-3.708c-0.979,0-1.896,0.371-2.591,1.006c-0.68-0.64-1.574-1.006-2.546-1.006
		c-1.978,0-3.617,1.592-3.829,3.708c-0.031,0.204-0.068,0.699,0.113,1.438c0.273,1.118,0.899,2.129,1.808,2.924l3.785,3.317
		c0.188,0.165,0.424,0.248,0.659,0.248c0.232,0,0.465-0.081,0.652-0.242l3.856-3.322c0.91-0.798,1.536-1.81,1.809-2.926
		C55.888,44.511,55.851,44.016,55.82,43.813z M53.765,44.777c-0.174,0.714-0.584,1.37-1.177,1.89l-3.191,2.749l-3.133-2.745
		c-0.599-0.523-1.008-1.178-1.183-1.894c-0.1-0.406-0.08-0.642-0.082-0.642c0,0,0,0-0.001,0.001
		c0.007-0.034,0.012-0.068,0.016-0.103c0.088-0.959,0.748-1.929,1.841-1.929c0.712,0,1.317,0.412,1.62,1.104
		c0.159,0.363,0.519,0.599,0.916,0.599s0.758-0.235,0.916-0.6c0.293-0.67,0.954-1.103,1.685-1.103c1.093,0,1.753,0.97,1.851,1.999
		C53.842,44.106,53.87,44.345,53.765,44.777z"/>
	<path d="M47.862,34.617c0.181-0.739,0.144-1.235,0.112-1.44c-0.212-2.116-1.853-3.707-3.829-3.707c-0.148,0-0.29,0.024-0.435,0.041
		C43.897,28.36,44,27.22,44,26.105c0-12.131-9.869-22-22-22s-22,9.869-22,22s9.869,22,22,22c6.816,0,13.234-3.181,17.393-8.556
		l1.492,1.308c0.188,0.165,0.424,0.248,0.659,0.248c0.232,0,0.465-0.081,0.653-0.242l3.855-3.321
		C46.964,36.745,47.589,35.733,47.862,34.617z M37.89,38.232c-3.779,4.946-9.654,7.873-15.89,7.873c-11.028,0-20-8.972-20-20
		s8.972-20,20-20s20,8.972,20,20c0,1.406-0.166,2.859-0.493,4.325c-0.092-0.083-0.196-0.149-0.295-0.223
		c-0.076-0.056-0.146-0.12-0.225-0.17c-0.12-0.076-0.25-0.133-0.379-0.194c-0.078-0.037-0.15-0.083-0.231-0.115
		c-0.146-0.058-0.301-0.094-0.455-0.133c-0.07-0.018-0.137-0.046-0.209-0.059c-0.229-0.043-0.464-0.066-0.705-0.066
		c-1.977,0-3.617,1.591-3.829,3.708c-0.031,0.204-0.068,0.699,0.113,1.438c0.205,0.838,0.608,1.616,1.181,2.289
		c0.191,0.224,0.401,0.436,0.628,0.635L37.89,38.232z M45.919,34.141c-0.175,0.715-0.584,1.37-1.177,1.89l-3.191,2.749l-3.132-2.745
		c-0.196-0.171-0.363-0.361-0.517-0.558c-0.316-0.405-0.548-0.854-0.666-1.337c-0.075-0.304-0.082-0.512-0.082-0.598
		c0-0.028,0.001-0.043,0-0.043c0,0,0,0,0,0.001c0.007-0.034,0.012-0.068,0.015-0.103c0.088-0.958,0.749-1.929,1.841-1.929
		c0.712,0,1.318,0.412,1.62,1.103c0.159,0.364,0.519,0.6,0.917,0.6s0.757-0.235,0.917-0.6c0.064-0.147,0.153-0.278,0.25-0.4
		c0.056-0.069,0.124-0.13,0.19-0.192c0.334-0.313,0.769-0.51,1.244-0.51c1.093,0,1.753,0.97,1.851,2
		C45.996,33.472,46.024,33.709,45.919,34.141z"/>
</g>
<g>
</g>
<g>
</g>
<g>
</g>
<g>
</g>
<g>
</g>
<g>
</g>
<g>
</g>
<g>
</g>
<g>
</g>
<g>
</g>
<g>
</g>
<g>
</g>
<g>
</g>
<g>
</g>
<g>
</g>
</svg>
