<?xml version="1.0" encoding="iso-8859-1"?>
<!-- Generator: Adobe Illustrator 16.0.0, SVG Export Plug-In . SVG Version: 6.00 Build 0)  -->
<!DOCTYPE svg PUBLIC "-//W3C//DTD SVG 1.1//EN" "http://www.w3.org/Graphics/SVG/1.1/DTD/svg11.dtd">
<svg version="1.1" id="Capa_1" xmlns="http://www.w3.org/2000/svg" xmlns:xlink="http://www.w3.org/1999/xlink" x="0px" y="0px"
	 width="140.513px" height="140.513px" viewBox="0 0 140.513 140.513" style="enable-background:new 0 0 140.513 140.513;"
	 xml:space="preserve">
<g>
	<g>
		<path id="path3334" d="M70.999,125.72c-30.629,0.408-55.79-24.092-56.204-54.725C14.386,40.37,38.886,15.205,69.518,14.797
			c30.627-0.411,55.792,24.087,56.202,54.716C126.128,100.148,101.63,125.305,70.999,125.72z M69.319,0.006
			C30.519,0.525-0.515,32.397,0.006,71.194c0.519,38.799,32.391,69.833,71.188,69.312c38.798-0.518,69.831-32.389,69.312-71.189
			C139.989,30.519,108.113-0.514,69.319,0.006"/>
		<path id="path3336" d="M63.048,62.732c5.996-5.996,17.461-10.254,27.293-12.896c-2.648,9.817-6.921,21.364-12.872,27.32
			c-3.98,3.979-10.439,3.98-14.421,0C59.065,73.171,59.065,66.715,63.048,62.732z M36.976,103.225c0,0,33.439-4.597,47.704-18.858
			c14.262-14.263,18.86-47.699,18.86-47.699s-33.438,4.592-47.703,18.854C41.572,69.785,36.976,103.225,36.976,103.225"/>
	</g>
</g>
<g>
</g>
<g>
</g>
<g>
</g>
<g>
</g>
<g>
</g>
<g>
</g>
<g>
</g>
<g>
</g>
<g>
</g>
<g>
</g>
<g>
</g>
<g>
</g>
<g>
</g>
<g>
</g>
<g>
</g>
</svg>
