<?xml version="1.0" encoding="iso-8859-1"?>
<!-- Generator: Adobe Illustrator 16.0.0, SVG Export Plug-In . SVG Version: 6.00 Build 0)  -->
<!DOCTYPE svg PUBLIC "-//W3C//DTD SVG 1.1//EN" "http://www.w3.org/Graphics/SVG/1.1/DTD/svg11.dtd">
<svg version="1.1" id="Capa_1" xmlns="http://www.w3.org/2000/svg" xmlns:xlink="http://www.w3.org/1999/xlink" x="0px" y="0px"
	 width="489.751px" height="489.751px" viewBox="0 0 489.751 489.751" style="enable-background:new 0 0 489.751 489.751;"
	 xml:space="preserve">
<g>
	<path d="M2.933,379.802c0,0-24.432,98.829,67.741,98.829c92.163,0,102.156-34.426,102.156-34.426s23.323,25.542,38.862,28.869
		c15.549,3.328,154.348,1.109,154.348,1.109s25.542-35.534-54.41-41.09c0,0,24.432-38.862,15.548-66.632l19.986-3.327
		c0,0,33.315,88.836,55.52,108.821l45.527,1.109c0,0,14.439-6.665-22.214-34.426c-36.644-27.76-28.869-117.704-22.214-146.573
		c6.665-28.869,7.774-98.829-2.218-132.145c-9.993-33.315,0-5.556,0-5.556s63.294,15.548,75.505-23.323
		c0,0,15.549-6.665,12.212-21.095c0,0-49.974-22.204-58.857-26.65c0,0-6.665-19.852-25.819-26.928c0,0,6.522-27.626-1.94-31.929
		c0,0-29.979,18.876-32.207,24.432c0,0-2.219-32.207-7.774-37.752c0,0-37.752,24.432-35.534,58.857
		c0,0-53.301,79.952-46.636,133.253c0,0-179.89,66.622-135.472,205.432C145.069,408.671,76.22,439.769,2.933,379.802z"/>
</g>
<g>
</g>
<g>
</g>
<g>
</g>
<g>
</g>
<g>
</g>
<g>
</g>
<g>
</g>
<g>
</g>
<g>
</g>
<g>
</g>
<g>
</g>
<g>
</g>
<g>
</g>
<g>
</g>
<g>
</g>
</svg>
