<?xml version="1.0" encoding="iso-8859-1"?>
<!-- Generator: Adobe Illustrator 18.0.0, SVG Export Plug-In . SVG Version: 6.00 Build 0)  -->
<!DOCTYPE svg PUBLIC "-//W3C//DTD SVG 1.1//EN" "http://www.w3.org/Graphics/SVG/1.1/DTD/svg11.dtd">
<svg version="1.1" id="Capa_1" xmlns="http://www.w3.org/2000/svg" xmlns:xlink="http://www.w3.org/1999/xlink" x="0px" y="0px"
	 viewBox="0 0 51 51" style="enable-background:new 0 0 51 51;" xml:space="preserve">
<g>
	<path d="M29.827,43h-8c-0.553,0-1,0.447-1,1s0.447,1,1,1h8c0.553,0,1-0.447,1-1S30.38,43,29.827,43z"/>
	<path d="M16.979,33.972c0.184,0.164,0.421,0.253,0.664,0.253c0.051,0,0.102-0.004,0.152-0.012c0.295-0.045,0.554-0.22,0.706-0.476
		l2.532-4.221c0.164-0.271,0.189-0.604,0.068-0.898c-0.121-0.293-0.374-0.512-0.683-0.588l-10.139-2.535
		c-0.444-0.114-0.911,0.096-1.127,0.503c-0.215,0.407-0.124,0.908,0.221,1.214L16.979,33.972z M18.622,29.642l-1.218,2.032
		l-3.657-3.251L18.622,29.642z"/>
	<path d="M29.902,28.618c-0.121,0.294-0.096,0.627,0.068,0.898l2.533,4.221c0.153,0.256,0.412,0.431,0.706,0.476
		c0.051,0.008,0.102,0.012,0.152,0.012c0.243,0,0.48-0.089,0.664-0.253l7.604-6.76c0.345-0.306,0.436-0.807,0.22-1.214
		c-0.215-0.407-0.683-0.618-1.126-0.503l-10.139,2.535C30.276,28.107,30.023,28.325,29.902,28.618z M37.259,28.423l-3.658,3.252
		l-1.218-2.033L37.259,28.423z"/>
	<path d="M42.75,0.615c-0.182-0.437-0.639-0.687-1.111-0.598c-0.465,0.09-0.804,0.493-0.812,0.967
		c-0.074,4.625-0.619,8.31-1.432,11.263C35.421,8.864,30.438,7,25.178,7c-4.992,0-9.787,1.712-13.681,4.822
		c-0.749-2.88-1.248-6.431-1.319-10.838C10.17,0.511,9.831,0.108,9.366,0.018c-0.474-0.089-0.93,0.161-1.111,0.598
		C7.926,1.404,1.17,17.833,3.224,28.028l-0.013,0.209C3.194,28.49,3.178,28.743,3.178,29c0,12.131,9.869,22,22,22
		c11.626,0,21.222-9.061,21.926-20.656C50.955,20.564,43.105,1.467,42.75,0.615z M44.07,34.936c-1.894,5.09-5.054,8.117-6.893,9.385
		V39.53L44.07,34.936z M42.559,5.879c2.245,6.633,5.594,18.893,2.151,24.855c-0.146,0.253-0.3,0.496-0.467,0.719
		c-0.002,0.002-0.003,0.005-0.005,0.007c-0.183,0.244-0.381,0.47-0.591,0.679c-0.021,0.021-0.044,0.038-0.065,0.059
		c-0.183,0.177-0.375,0.341-0.578,0.493c-0.056,0.042-0.115,0.079-0.172,0.118c-0.176,0.122-0.359,0.236-0.549,0.34
		c-0.073,0.04-0.148,0.078-0.224,0.115c-0.186,0.092-0.38,0.175-0.579,0.251c-0.084,0.032-0.167,0.065-0.254,0.094
		c-0.21,0.071-0.429,0.13-0.653,0.183c-0.083,0.02-0.163,0.044-0.248,0.062c-0.31,0.065-0.631,0.117-0.968,0.151
		c-1.436,0.145-2.729,0.285-4.041,0.548l-5.856,1.171c-0.213,0.04-0.366-0.051-0.439-0.11c-0.072-0.059-0.193-0.19-0.193-0.407
		v-8.718c0-0.261,0.184-0.478,0.338-0.506c0.011,0,0.033-0.002,0.062-0.004c0.018-0.001,0.041-0.004,0.064-0.006
		c0.008-0.001,0.014-0.001,0.022-0.002C30.711,25.838,40.754,24.251,42.559,5.879z M25.178,9c5.055,0,9.84,1.876,13.545,5.297
		c-3.334,9.18-9.405,9.672-9.758,9.697c-0.049,0.007-0.094,0.025-0.142,0.035c-1.163,0.243-1.995,1.25-1.995,2.459v8.718
		c0,0.19,0.021,0.377,0.062,0.558c0.005,0.022,0.016,0.042,0.022,0.064c0.022,0.085,0.055,0.165,0.085,0.247l-1.41,1.838
		l-1.501-2.058c0.008-0.031,0.024-0.059,0.031-0.091c0.041-0.181,0.062-0.368,0.062-0.558v-8.718c0-1.207-0.83-2.211-2.071-2.465
		c-0.054-0.011-0.104-0.029-0.16-0.038c-0.27-0.018-6.522-0.522-9.818-10.111C15.771,10.727,20.38,9,25.178,9z M8.446,5.881
		c1.806,18.379,11.853,19.959,13.161,20.081c0.007,0.001,0.012,0.001,0.019,0.002c0.023,0.002,0.045,0.004,0.062,0.005
		c0.026,0.002,0.046,0.003,0.054,0.003c0.253,0.038,0.437,0.255,0.437,0.516v8.718c0,0.217-0.121,0.349-0.193,0.407
		c-0.016,0.013-0.05,0.027-0.073,0.041c-0.084,0.051-0.202,0.102-0.365,0.069l-5.856-1.171c-1.313-0.263-2.606-0.403-4.04-0.548
		c-0.398-0.04-0.773-0.109-1.135-0.192c-0.079-0.018-0.156-0.038-0.234-0.058c-0.73-0.192-1.389-0.472-1.969-0.851
		c-0.024-0.015-0.046-0.032-0.069-0.048c-0.597-0.402-1.116-0.904-1.554-1.512c-0.01-0.013-0.019-0.028-0.028-0.042
		c-0.177-0.25-0.334-0.526-0.485-0.811c-0.073-0.136-0.141-0.277-0.207-0.42c-0.124-0.269-0.242-0.546-0.346-0.843
		c-0.031-0.089-0.06-0.18-0.089-0.271c-0.121-0.38-0.233-0.774-0.323-1.197C3.818,21.317,6.529,11.55,8.446,5.881z M13.178,44.321
		c-1.839-1.267-4.997-4.293-6.891-9.38l6.891,4.589V44.321z M14.928,46.154c0.155-0.229,0.249-0.498,0.249-0.786v-6.155
		c0-0.46-0.226-0.892-0.619-1.166l-3.076-2.047c1.367,0.138,2.601,0.272,3.816,0.515l5.856,1.171c0.166,0.033,0.333,0.05,0.5,0.05
		c0.011,0,0.022-0.003,0.033-0.003c0.041,0,0.081-0.008,0.122-0.01c0.128-0.008,0.254-0.024,0.379-0.051
		c0.055-0.012,0.108-0.027,0.161-0.042c0.115-0.033,0.227-0.076,0.337-0.125c0.032-0.014,0.066-0.021,0.097-0.037l1.973,2.707
		c0.186,0.255,0.48,0.407,0.796,0.411c0.004,0,0.008,0,0.012,0c0.311,0,0.604-0.145,0.793-0.392l2.036-2.654
		c0.086,0.036,0.174,0.065,0.264,0.091c0.052,0.015,0.104,0.03,0.157,0.041c0.126,0.028,0.254,0.044,0.384,0.052
		c0.04,0.003,0.079,0.01,0.12,0.01c0.011,0,0.022,0.003,0.033,0.003c0.166,0,0.334-0.017,0.5-0.05l5.856-1.171
		c0.972-0.195,1.976-0.316,3.034-0.428l-2.961,1.972c-0.377,0.263-0.603,0.694-0.603,1.154v6.155c0,0.288,0.094,0.556,0.248,0.785
		C32.422,47.954,28.92,49,25.178,49C21.431,49,17.929,47.954,14.928,46.154z"/>
</g>
<g>
</g>
<g>
</g>
<g>
</g>
<g>
</g>
<g>
</g>
<g>
</g>
<g>
</g>
<g>
</g>
<g>
</g>
<g>
</g>
<g>
</g>
<g>
</g>
<g>
</g>
<g>
</g>
<g>
</g>
</svg>
