<?xml version="1.0" encoding="iso-8859-1"?>
<!-- Generator: Adobe Illustrator 18.1.1, SVG Export Plug-In . SVG Version: 6.00 Build 0)  -->
<svg version="1.1" id="Capa_1" xmlns="http://www.w3.org/2000/svg" xmlns:xlink="http://www.w3.org/1999/xlink" x="0px" y="0px"
	 viewBox="0 0 29.321 29.321" style="enable-background:new 0 0 29.321 29.321;" xml:space="preserve">
<g>
	<g>
		<path d="M28.524,10.848c1.967-1.649-0.856-0.77-0.856-0.77c1.209-2.266-0.703-1.059-0.703-1.059
			c-0.203,1.31-0.807,1.512-0.807,1.512c-2.923,2.52-5.439,2.167-5.439,2.167s0.035-0.469,0.06-1.176
			c1.717-0.719,2.659-2.602,2.659-2.602c0.907-1.813,1.913-1.663,1.913-1.663c4.283-0.806,0.354-1.159,0.354-1.159
			c2.72-3.123-0.807-0.906-0.807-0.906c-0.454-3.475-1.11-0.605-1.11-0.605c0.125,3.413-2.113,5.218-2.981,5.791
			c0.004-0.789-0.014-1.683-0.088-2.516c-0.204-2.216-2.216-1.461-3.93-1.059c-1.713,0.404-2.57,1.562-2.017,2.067
			c0.557,0.504,0.657,1.208,0.454,3.021c-0.2,1.813-3.526,2.872-5.136,3.325c-1.613,0.453-5.493-0.404-6.046-0.569
			C3.49,14.479,3.39,14.106,3.39,14.106c-0.553-1.156-0.906,0-0.906,0l0.199,0.757c-6.096,0.151,0.101,1.008,0.101,1.008
			c-3.124,1.763,0.503,0.705,0.503,0.705c0.103-0.705,2.824-0.48,2.824-0.48c4.283,0.175,3.172,4.056,3.172,4.056
			C6.36,24.886,2.43,22.62,2.43,22.62c-2.82-0.352-0.351,1.159-0.351,1.159c-3.879,1.259,0.404,1.11,0.404,1.11
			c-1.913,1.713,0.804,0.605,0.804,0.605c0.707-0.707,2.017-1.161,2.017-1.161c14.559-4.18,15.665-9.921,15.665-9.921
			c3.979-0.707,4.333-1.511,5.089-2.116c0.753-0.604,1.913-0.152,1.913-0.152C30.641,12.394,28.524,10.848,28.524,10.848z
			 M17.745,11.337c-0.917,0-1.663-0.789-1.663-1.761c0-0.975,0.746-1.765,1.663-1.765s1.664,0.791,1.664,1.765
			C19.409,10.548,18.663,11.337,17.745,11.337z"/>
		<circle cx="17.746" cy="9.576" r="0.771"/>
	</g>
	<g>
	</g>
	<g>
	</g>
	<g>
	</g>
	<g>
	</g>
	<g>
	</g>
	<g>
	</g>
	<g>
	</g>
	<g>
	</g>
	<g>
	</g>
	<g>
	</g>
	<g>
	</g>
	<g>
	</g>
	<g>
	</g>
	<g>
	</g>
	<g>
	</g>
</g>
<g>
</g>
<g>
</g>
<g>
</g>
<g>
</g>
<g>
</g>
<g>
</g>
<g>
</g>
<g>
</g>
<g>
</g>
<g>
</g>
<g>
</g>
<g>
</g>
<g>
</g>
<g>
</g>
<g>
</g>
</svg>
