<?xml version="1.0" encoding="iso-8859-1"?>
<!-- Generator: Adobe Illustrator 18.0.0, SVG Export Plug-In . SVG Version: 6.00 Build 0)  -->
<!DOCTYPE svg PUBLIC "-//W3C//DTD SVG 1.1//EN" "http://www.w3.org/Graphics/SVG/1.1/DTD/svg11.dtd">
<svg version="1.1" id="Capa_1" xmlns="http://www.w3.org/2000/svg" xmlns:xlink="http://www.w3.org/1999/xlink" x="0px" y="0px"
	 viewBox="0 0 480 480" style="enable-background:new 0 0 480 480;" xml:space="preserve">
<path d="M357.844,120.1l-8.592-1.222c-25.943-3.69-49.791-16.637-67.152-36.456c-17.521-20.003-27.186-45.682-27.213-72.309
	l-0.01-9.558l-9.548-0.422C243.274,0.042,241.581,0,240,0c-64.979,0-117.844,52.865-117.844,117.845v225.579h69.056v87.788
	C191.211,458.114,213.098,480,240,480c26.902,0,48.789-21.886,48.789-48.789v-87.788h69.056V120.1z M268.789,431.211
	C268.789,447.085,255.874,460,240,460c-15.874,0-28.788-12.915-28.788-28.789v-87.788h57.577V431.211z M337.844,323.423H142.156
	V117.845c0-52.371,41.354-95.264,93.125-97.732c2.169,27.86,13.262,54.353,31.776,75.488c18.582,21.212,43.464,35.763,70.788,41.558
	V323.423z"/>
<g>
</g>
<g>
</g>
<g>
</g>
<g>
</g>
<g>
</g>
<g>
</g>
<g>
</g>
<g>
</g>
<g>
</g>
<g>
</g>
<g>
</g>
<g>
</g>
<g>
</g>
<g>
</g>
<g>
</g>
</svg>
