<?xml version="1.0" encoding="iso-8859-1"?>
<!-- Generator: Adobe Illustrator 18.0.0, SVG Export Plug-In . SVG Version: 6.00 Build 0)  -->
<!DOCTYPE svg PUBLIC "-//W3C//DTD SVG 1.1//EN" "http://www.w3.org/Graphics/SVG/1.1/DTD/svg11.dtd">
<svg version="1.1" id="Capa_1" xmlns="http://www.w3.org/2000/svg" xmlns:xlink="http://www.w3.org/1999/xlink" x="0px" y="0px"
	 viewBox="0 0 60.002 60.002" style="enable-background:new 0 0 60.002 60.002;" xml:space="preserve">
<g>
	<path d="M59.795,26.568c-0.401-1.697-1.364-3.155-2.575-3.902c-0.813-0.499-1.678-0.657-2.509-0.462
		c-0.189,0.045-0.371,0.115-0.548,0.198c-2.336-5.685-5.98-9.363-9.727-11.736l1.359-2.719c0.247-0.494,0.047-1.095-0.447-1.342
		c-0.494-0.246-1.094-0.047-1.342,0.447l-1.302,2.604c-0.617-0.328-1.231-0.626-1.838-0.892l0.983-2.948
		c0.175-0.524-0.108-1.091-0.632-1.265c-0.528-0.177-1.09,0.108-1.265,0.632l-0.948,2.844c-0.693-0.248-1.366-0.461-2.012-0.642
		l0.856-2.569c0.175-0.524-0.108-1.091-0.632-1.265c-0.527-0.175-1.091,0.108-1.265,0.632l-0.908,2.723
		C33.779,6.64,32.7,6.495,31.9,6.417V4.5c0-0.553-0.447-1-1-1s-1,0.447-1,1v1.843c-0.525,0.026-1.441,0.097-2.632,0.284
		l-0.382-2.291c-0.09-0.545-0.604-0.916-1.15-0.822c-0.545,0.091-0.913,0.606-0.822,1.15l0.39,2.339
		c-1.072,0.242-2.258,0.573-3.509,1.02l-0.947-2.84c-0.175-0.523-0.736-0.809-1.265-0.632c-0.523,0.174-0.807,0.74-0.632,1.265
		l0.981,2.943c-0.863,0.378-1.742,0.822-2.621,1.327l-1.517-3.034c-0.248-0.494-0.847-0.693-1.342-0.447
		c-0.494,0.247-0.694,0.848-0.447,1.342l1.6,3.201c-0.881,0.602-1.749,1.288-2.594,2.05l-2.405-2.405
		c-0.391-0.391-1.023-0.391-1.414,0s-0.391,1.023,0,1.414l2.387,2.387c-3.075,3.273-5.646,7.835-6.826,14.213
		c-0.015,0.083-0.025,0.166-0.04,0.249c-0.254-0.07-0.512-0.118-0.776-0.118C1.73,28.938,0,31.321,0,34.363
		c0,3.041,1.73,5.424,3.939,5.424c0.404,0,0.798-0.103,1.177-0.267c0.701,2.671,1.863,5.178,3.458,7.378
		c3.194,4.404,9.466,9.605,21.267,9.605c0.182,0,0.366-0.001,0.551-0.004c0.186,0.003,0.368,0.004,0.551,0.004
		c11.798,0,18.071-5.202,21.267-9.605c2.879-3.969,4.344-8.942,4.229-14.07c0.035,0.001,0.07,0.007,0.104,0.007
		c0.227,0,0.451-0.025,0.672-0.078C59.363,32.245,60.496,29.526,59.795,26.568z M4.674,37.489c-0.206,0.166-0.456,0.298-0.734,0.298
		C3.022,37.787,2,36.38,2,34.363c0-2.019,1.022-3.425,1.939-3.425c0.167,0,0.335,0.047,0.504,0.14
		c-0.049,0.531-0.081,1.062-0.096,1.591c-0.001,0.04,0,0.08-0.001,0.12c-0.01,0.437-0.009,0.872,0.004,1.306
		c0.004,0.143,0.009,0.286,0.015,0.429c0.016,0.351,0.041,0.699,0.072,1.048c0.013,0.148,0.022,0.297,0.038,0.445
		c0.047,0.434,0.105,0.865,0.175,1.293C4.659,37.369,4.664,37.429,4.674,37.489z M50.591,45.724
		c-4.317,5.949-11.158,8.904-20.185,8.775h-0.027c-9.099,0.117-15.87-2.826-20.185-8.775c-2.062-2.843-3.329-6.257-3.726-9.868
		c-0.008-0.076-0.009-0.153-0.017-0.229c-0.057-0.572-0.089-1.149-0.102-1.728c-0.005-0.251-0.001-0.504,0.003-0.756
		c0.004-0.405,0.021-0.81,0.046-1.216c0.02-0.299,0.04-0.597,0.071-0.896c0.064-0.62,0.137-1.24,0.252-1.86
		c1.097-5.928,3.438-10.163,6.236-13.199l1.235,1.235c0.195,0.195,0.451,0.293,0.707,0.293s0.512-0.098,0.707-0.293
		c0.391-0.391,0.391-1.023,0-1.414l-1.23-1.23c0.684-0.619,1.384-1.181,2.095-1.683l0.534,1.067
		c0.176,0.351,0.528,0.553,0.896,0.553c0.15,0,0.303-0.034,0.446-0.105c0.494-0.247,0.694-0.848,0.447-1.342l-0.629-1.257
		c0.795-0.464,1.59-0.872,2.372-1.22l0.414,1.241c0.14,0.419,0.529,0.684,0.948,0.684c0.104,0,0.211-0.017,0.316-0.052
		c0.523-0.174,0.807-0.74,0.632-1.265l-0.45-1.35c1.148-0.407,2.236-0.7,3.224-0.917l0.291,1.748
		c0.081,0.489,0.505,0.836,0.985,0.836c0.055,0,0.109-0.004,0.165-0.014c0.545-0.091,0.913-0.606,0.822-1.15L27.59,8.558
		c1.021-0.146,1.824-0.201,2.31-0.22V10.5c0,0.553,0.447,1,1,1s1-0.447,1-1V8.426c0.666,0.065,1.52,0.176,2.514,0.37l-0.462,1.387
		c-0.175,0.524,0.108,1.091,0.632,1.265c0.105,0.035,0.212,0.052,0.316,0.052c0.419,0,0.809-0.265,0.948-0.684l0.521-1.562
		c0.645,0.174,1.319,0.383,2.015,0.631l-0.433,1.298c-0.175,0.524,0.108,1.091,0.632,1.265c0.105,0.035,0.212,0.052,0.316,0.052
		c0.419,0,0.809-0.265,0.948-0.684l0.395-1.185c0.177,0.079,0.353,0.154,0.532,0.238c0.36,0.171,0.707,0.353,1.053,0.538
		l-0.823,1.646c-0.076,0.151-0.096,0.31-0.093,0.468C40.776,13.51,40.639,13.5,40.5,13.5c-3.032,0-5.5,2.468-5.5,5.5
		s2.468,5.5,5.5,5.5S46,22.032,46,19c0-2.225-1.331-4.142-3.237-5.007c0.009-0.017,0.023-0.029,0.032-0.046l0.763-1.527
		c4.174,2.69,7.196,6.517,9.039,11.431l-0.003,0.004l0.182,0.512c0.272,0.766,0.509,1.532,0.719,2.308
		c0.013,0.049,0.026,0.098,0.038,0.147c0.204,0.769,0.381,1.548,0.53,2.348c0.122,0.658,0.203,1.317,0.268,1.975
		c0.012,0.128,0.029,0.253,0.04,0.382C54.791,36.693,53.464,41.763,50.591,45.724z M44,19c0,1.93-1.57,3.5-3.5,3.5S37,20.929,37,19
		s1.57-3.5,3.5-3.5S44,17.07,44,19z M56.751,30.812c-0.137,0.031-0.283,0.03-0.436,0c-0.004-0.036-0.011-0.069-0.015-0.105
		c-0.068-0.631-0.153-1.262-0.269-1.892c0-0.003-0.001-0.006-0.001-0.009c-0.002-0.012-0.006-0.023-0.008-0.035
		c-0.141-0.759-0.306-1.487-0.485-2.195c-0.02-0.079-0.045-0.157-0.066-0.237c-0.181-0.692-0.379-1.359-0.593-2.004
		c-0.005-0.014-0.008-0.029-0.013-0.043c0.101-0.07,0.204-0.117,0.309-0.143c0.383-0.091,0.752,0.069,0.995,0.22
		c0.758,0.467,1.401,1.486,1.68,2.66C58.314,28.993,57.645,30.599,56.751,30.812z"/>
	<path d="M40.157,39.797c-0.949-0.521-2.075,0.012-3.636,0.746c-1.402,0.662-3.148,1.486-5.104,1.734
		c-1.957,0.246-3.852-0.115-5.375-0.405c-1.695-0.324-2.919-0.557-3.707,0.185c-0.288,0.271-0.609,0.78-0.497,1.664
		c0.194,1.533,1.534,3.28,3.498,4.561c1.808,1.178,3.85,1.8,5.859,1.8c0.402,0,0.804-0.024,1.202-0.075
		c2.384-0.303,4.659-1.521,6.407-3.433c1.582-1.729,2.443-3.756,2.249-5.288C40.942,40.401,40.505,39.988,40.157,39.797z
		 M37.33,45.223c-0.126,0.138-0.283,0.295-0.453,0.458c-0.759-0.106-1.545-0.182-2.377-0.182c-2.891,0-5.426,0.686-6.961,1.723
		c-0.443-0.211-0.823-0.429-1.11-0.616c-1.59-1.036-2.442-2.28-2.591-3.045c0.426,0.008,1.219,0.159,1.83,0.276
		c1.575,0.3,3.731,0.713,6.002,0.425c2.27-0.288,4.256-1.226,5.705-1.91c0.563-0.266,1.294-0.61,1.704-0.724
		C39.126,42.406,38.61,43.823,37.33,45.223z"/>
	<path d="M18.29,22.62C18.109,22.809,18,23.069,18,23.33c0,0.27,0.109,0.529,0.29,0.71c0.189,0.189,0.45,0.29,0.71,0.29
		s0.52-0.101,0.71-0.29c0.18-0.19,0.29-0.44,0.29-0.71c0-0.261-0.11-0.521-0.29-0.7C19.33,22.25,18.67,22.259,18.29,22.62z"/>
	<path d="M25,24c0-3.032-2.468-5.5-5.5-5.5S14,20.967,14,24s2.468,5.5,5.5,5.5S25,27.032,25,24z M19.5,27.5
		c-1.93,0-3.5-1.57-3.5-3.5s1.57-3.5,3.5-3.5S23,22.07,23,24S21.43,27.5,19.5,27.5z"/>
	<path d="M40,21.33c0,0.27,0.109,0.529,0.29,0.71c0.189,0.189,0.45,0.29,0.71,0.29s0.52-0.101,0.71-0.29
		c0.18-0.181,0.29-0.44,0.29-0.71c0-0.261-0.11-0.521-0.29-0.7c-0.37-0.37-1.04-0.38-1.42,0C40.109,20.809,40,21.069,40,21.33z"/>
	<path d="M27.129,33.483c1.333,1.701,3.214,2.692,5.038,2.692c0.223,0,0.444-0.016,0.664-0.045c1.857-0.254,3.349-1.523,4.199-3.576
		c0.944-2.276,0.825-4.849-0.326-7.058c-1.045-2.004-2.817-3.452-4.742-3.876c-1.264-0.278-2.528-0.078-3.66,0.582
		c-0.477,0.278-0.638,0.891-0.36,1.368c0.279,0.477,0.89,0.638,1.368,0.36c0.699-0.408,1.447-0.525,2.223-0.357
		c1.354,0.298,2.624,1.362,3.398,2.847c0.877,1.684,0.969,3.64,0.252,5.368c-0.575,1.388-1.482,2.204-2.622,2.36
		c-1.32,0.175-2.799-0.549-3.87-1.92c-0.032-0.051-0.065-0.102-0.102-0.15c-0.323-0.428-0.897-0.482-1.34-0.177
		c-0.441,0.307-0.533,0.949-0.245,1.402C27.045,33.368,27.087,33.431,27.129,33.483z"/>
</g>
<g>
</g>
<g>
</g>
<g>
</g>
<g>
</g>
<g>
</g>
<g>
</g>
<g>
</g>
<g>
</g>
<g>
</g>
<g>
</g>
<g>
</g>
<g>
</g>
<g>
</g>
<g>
</g>
<g>
</g>
</svg>
