<?xml version="1.0" encoding="iso-8859-1"?>
<!-- Generator: Adobe Illustrator 19.0.0, SVG Export Plug-In . SVG Version: 6.00 Build 0)  -->
<svg version="1.1" id="Layer_1" xmlns="http://www.w3.org/2000/svg" xmlns:xlink="http://www.w3.org/1999/xlink" x="0px" y="0px"
	 viewBox="0 0 480.811 480.811" style="enable-background:new 0 0 480.811 480.811;" xml:space="preserve">
<g id="XMLID_945_">
	<g>
		<g>
			<path d="M240.405,82.5c-59.276,0-107.5,48.224-107.5,107.5s48.224,107.5,107.5,107.5s107.5-48.224,107.5-107.5
				S299.681,82.5,240.405,82.5z M240.405,267.5c-42.734,0-77.5-34.766-77.5-77.5s34.766-77.5,77.5-77.5s77.5,34.766,77.5,77.5
				S283.139,267.5,240.405,267.5z"/>
			<path d="M430.405,190c0-25.75-13.169-49.359-34.735-62.934c-0.318-0.783-0.644-1.566-0.976-2.348
				c5.651-24.85-1.729-50.858-19.938-69.068c-14.042-14.042-32.715-21.776-52.579-21.776c-5.563,0-11.086,0.617-16.484,1.84
				c-0.784-0.333-1.568-0.659-2.353-0.979C289.764,13.169,266.155,0,240.405,0c-25.749,0-49.359,13.169-62.934,34.735
				c-0.785,0.319-1.569,0.645-2.354,0.978c-5.398-1.222-10.921-1.839-16.484-1.839c-19.863,0-38.537,7.733-52.579,21.776
				c-18.211,18.21-25.592,44.217-19.938,69.068c-0.333,0.782-0.658,1.565-0.976,2.348C63.574,140.642,50.405,164.25,50.405,190
				s13.169,49.359,34.735,62.934c0.318,0.783,0.644,1.565,0.976,2.348c-5.654,24.851,1.728,50.858,19.938,69.068
				c14.042,14.042,32.715,21.776,52.58,21.776c2.266,0,4.524-0.108,6.771-0.312v134.997l75-25l75,25V345.814
				c2.246,0.204,4.504,0.312,6.77,0.312c19.865,0,38.539-7.734,52.581-21.776c18.21-18.209,25.59-44.218,19.938-69.067
				c0.332-0.783,0.658-1.565,0.976-2.349C417.236,239.359,430.405,215.75,430.405,190z M285.405,439.189l-45-15.001l-45,15v-74.327
				c12.704,9.662,28.405,15.139,45,15.139c16.595,0,32.296-5.477,45-15.139V439.189z M376.614,229.317l-5.112,2.686l-1.992,5.42
				c-1.255,3.415-2.696,6.883-4.283,10.308l-2.432,5.248l1.72,5.521c4.932,15.833,0.728,32.937-10.973,44.638
				c-8.376,8.376-19.515,12.989-31.364,12.989c-4.517,0-8.982-0.678-13.275-2.015l-5.52-1.719l-5.246,2.43
				c-3.43,1.589-6.899,3.03-10.31,4.284l-5.42,1.992l-2.686,5.111c-7.709,14.674-22.775,23.79-39.316,23.79
				c-16.541,0-31.607-9.116-39.317-23.791l-2.686-5.112l-5.42-1.991c-3.412-1.253-6.88-2.695-10.309-4.283l-5.247-2.431l-5.521,1.72
				c-4.293,1.337-8.758,2.015-13.272,2.015c-11.851,0-22.99-4.613-31.367-12.989c-11.701-11.7-15.906-28.805-10.974-44.638
				l1.72-5.521l-2.431-5.247c-1.588-3.429-3.03-6.897-4.283-10.309l-1.991-5.42l-5.112-2.686
				C89.52,221.607,80.405,206.542,80.405,190c0-16.541,9.116-31.606,23.792-39.317l5.111-2.686l1.992-5.42
				c1.253-3.411,2.695-6.88,4.284-10.31l2.43-5.246l-1.719-5.52c-4.932-15.833-0.727-32.938,10.974-44.639
				c8.376-8.376,19.516-12.989,31.366-12.989c4.514,0,8.979,0.678,13.272,2.016l5.521,1.72l5.248-2.432
				c3.426-1.588,6.894-3.029,10.307-4.283l5.42-1.991l2.686-5.112C208.798,39.116,223.863,30,240.405,30s31.607,9.116,39.317,23.792
				l2.686,5.111l5.42,1.992c3.413,1.254,6.881,2.695,10.309,4.284l5.247,2.431l5.521-1.72c4.293-1.337,8.759-2.016,13.272-2.016
				c11.85,0,22.99,4.613,31.366,12.989c11.701,11.701,15.905,28.806,10.973,44.639l-1.72,5.522l2.432,5.247
				c1.588,3.426,3.029,6.894,4.283,10.307l1.992,5.42l5.111,2.686c14.675,7.71,23.792,22.775,23.792,39.317
				C400.407,206.543,391.29,221.607,376.614,229.317z"/>
		</g>
	</g>
</g>
<g>
</g>
<g>
</g>
<g>
</g>
<g>
</g>
<g>
</g>
<g>
</g>
<g>
</g>
<g>
</g>
<g>
</g>
<g>
</g>
<g>
</g>
<g>
</g>
<g>
</g>
<g>
</g>
<g>
</g>
</svg>
