<?xml version="1.0" encoding="iso-8859-1"?>
<!-- Generator: Adobe Illustrator 18.0.0, SVG Export Plug-In . SVG Version: 6.00 Build 0)  -->
<!DOCTYPE svg PUBLIC "-//W3C//DTD SVG 1.1//EN" "http://www.w3.org/Graphics/SVG/1.1/DTD/svg11.dtd">
<svg version="1.1" id="Capa_1" xmlns="http://www.w3.org/2000/svg" xmlns:xlink="http://www.w3.org/1999/xlink" x="0px" y="0px"
	 viewBox="0 0 74.713 74.713" style="enable-background:new 0 0 74.713 74.713;" xml:space="preserve">
<path style="fill:#231F20;" d="M73.321,47.854l-14.604-7.215c-1.24-0.612-2.738-0.104-3.349,1.134L54.9,42.718l-6.154-3.04
	c0.017-0.799,0.026-1.576,0.026-2.321c0-12.796-2.404-34.452-11.416-34.452c-7.155,0-10.142,13.648-11.071,25.677l-3.847-1.9
	l0.467-0.946c0.611-1.238,0.104-2.737-1.134-3.349L7.167,15.172c-0.595-0.294-1.281-0.339-1.909-0.127
	c-0.628,0.213-1.146,0.666-1.439,1.261l-3.56,7.206c-0.611,1.238-0.104,2.737,1.134,3.349l14.605,7.215
	c0.348,0.172,0.727,0.259,1.107,0.259c0.271,0,0.541-0.044,0.802-0.132c0.628-0.213,1.146-0.666,1.439-1.261l0.435-0.881
	l6.183,3.055c-0.016,0.77-0.025,1.521-0.025,2.241c0,12.796,2.404,34.452,11.416,34.452c7.139,0,10.129-13.589,11.065-25.599
	l3.821,1.888l-0.435,0.881c-0.294,0.595-0.34,1.281-0.127,1.909s0.666,1.146,1.261,1.439l14.605,7.216
	c0.348,0.172,0.727,0.259,1.107,0.259c0.271,0,0.541-0.044,0.802-0.132c0.628-0.213,1.146-0.666,1.439-1.261l3.56-7.206
	C75.066,49.964,74.558,48.465,73.321,47.854z M37.357,28.11c3.728,0,6.749,4.14,6.749,9.247c0,0.009-0.001,0.018-0.001,0.028
	l-11.958-5.907C33.385,29.421,35.259,28.11,37.357,28.11z M37.357,46.604c-3.715,0-6.726-4.112-6.747-9.194l11.917,5.887
	C41.288,45.318,39.433,46.604,37.357,46.604z"/>
<g>
</g>
<g>
</g>
<g>
</g>
<g>
</g>
<g>
</g>
<g>
</g>
<g>
</g>
<g>
</g>
<g>
</g>
<g>
</g>
<g>
</g>
<g>
</g>
<g>
</g>
<g>
</g>
<g>
</g>
</svg>
