<?xml version="1.0" encoding="iso-8859-1"?>
<!-- Generator: Adobe Illustrator 16.0.0, SVG Export Plug-In . SVG Version: 6.00 Build 0)  -->
<!DOCTYPE svg PUBLIC "-//W3C//DTD SVG 1.1//EN" "http://www.w3.org/Graphics/SVG/1.1/DTD/svg11.dtd">
<svg version="1.1" id="Capa_1" xmlns="http://www.w3.org/2000/svg" xmlns:xlink="http://www.w3.org/1999/xlink" x="0px" y="0px"
	 width="48.014px" height="48.013px" viewBox="0 0 48.014 48.013" style="enable-background:new 0 0 48.014 48.013;"
	 xml:space="preserve">
<g>
	<g id="Game_Pad">
		<g>
			<path d="M15.238,24.087h-2.543c-0.414,0-0.75-0.336-0.75-0.75s0.336-0.75,0.75-0.75h2.543c0.414,0,0.75,0.336,0.75,0.75
				S15.652,24.087,15.238,24.087z"/>
			<path d="M10.104,24.087h-2.61c-0.414,0-0.75-0.336-0.75-0.75s0.336-0.75,0.75-0.75h2.608c0.414,0,0.75,0.336,0.75,0.75
				S10.518,24.087,10.104,24.087z"/>
			<path d="M15.238,26.675h-2.543c-0.414,0-0.75-0.336-0.75-0.75s0.336-0.75,0.75-0.75h2.543c0.414,0,0.75,0.336,0.75,0.75
				S15.652,26.675,15.238,26.675z"/>
			<path d="M7.493,26.675c-0.414,0-0.75-0.334-0.75-0.75c0-0.414,0.335-0.75,0.749-0.75l2.61-0.002c0.001,0,0.001,0,0.001,0
				c0.414,0,0.75,0.336,0.75,0.75c0,0.416-0.335,0.75-0.749,0.75L7.493,26.675L7.493,26.675z"/>
			<path d="M10.104,24.087L10.104,24.087c-0.414,0-0.75-0.336-0.75-0.75l0.001-2.578c0-0.414,0.336-0.75,0.75-0.75l0,0
				c0.414,0,0.75,0.336,0.75,0.75l-0.001,2.578C10.854,23.752,10.518,24.087,10.104,24.087z"/>
			<path d="M10.105,29.256c-0.414,0-0.75-0.336-0.75-0.75v-2.58c0-0.414,0.336-0.75,0.75-0.75s0.75,0.336,0.75,0.75v2.58
				C10.855,28.92,10.519,29.256,10.105,29.256z"/>
			<path d="M12.693,24.087c-0.414,0-0.75-0.336-0.75-0.75v-2.579c0-0.414,0.336-0.75,0.75-0.75s0.75,0.336,0.75,0.75v2.579
				C13.443,23.751,13.107,24.087,12.693,24.087z"/>
			<path d="M12.693,29.256L12.693,29.256c-0.414,0-0.75-0.336-0.75-0.75l0.001-2.58c0-0.414,0.336-0.75,0.75-0.75l0,0
				c0.414,0,0.75,0.336,0.75,0.75l-0.001,2.58C13.443,28.92,13.107,29.256,12.693,29.256z"/>
			<path d="M11.402,30.543c-1.121,0-2.034-0.912-2.039-2.037c-0.001-0.414,0.334-0.75,0.748-0.752c0.001,0,0.001,0,0.002,0
				c0.413,0,0.749,0.334,0.75,0.748c0.001,0.299,0.243,0.541,0.54,0.541c0.001,0,0.001,0,0.001,0c0.302,0,0.542-0.242,0.542-0.539
				c0.001-0.414,0.336-0.75,0.75-0.75h0.001c0.414,0,0.75,0.338,0.749,0.752c-0.002,1.123-0.917,2.037-2.04,2.037
				C11.405,30.543,11.403,30.543,11.402,30.543z"/>
			<path d="M12.695,21.509c-0.414,0-0.75-0.336-0.75-0.75c0-0.298-0.24-0.541-0.54-0.541c-0.299,0-0.542,0.242-0.542,0.54
				c0,0.414-0.336,0.75-0.75,0.75c-0.412,0-0.75-0.336-0.75-0.75c0-1.125,0.916-2.04,2.043-2.04
				c1.125,0.001,2.039,0.917,2.039,2.041C13.445,21.173,13.109,21.509,12.695,21.509z"/>
			<path d="M7.493,26.675c-1.125,0-2.04-0.914-2.04-2.039s0.915-2.04,2.039-2.041c0.001,0,0.001,0,0.001,0
				c0.412,0,0.75,0.335,0.75,0.75s-0.335,0.75-0.749,0.75c-0.301,0-0.541,0.242-0.541,0.541c0,0.298,0.24,0.539,0.54,0.539
				c0.412,0,0.75,0.336,0.75,0.75S7.907,26.675,7.493,26.675z"/>
			<path d="M15.157,26.675c-0.412,0-0.75-0.336-0.75-0.75s0.338-0.75,0.75-0.75c0.306,0,0.541-0.236,0.541-0.541
				c0-0.296-0.24-0.539-0.541-0.539c-0.412,0-0.747-0.336-0.747-0.75s0.336-0.75,0.75-0.75c0,0,0,0,0.001,0
				c1.124,0.001,2.037,0.915,2.037,2.039C17.198,25.759,16.282,26.675,15.157,26.675z"/>
		</g>
		<g>
			<path d="M11.272,35.295c-3.011,0-5.841-1.172-7.97-3.304C1.172,29.863-0.001,27.031,0,24.017c0-3.01,1.173-5.842,3.303-7.971
				c2.13-2.129,4.962-3.303,7.974-3.303c0.554,0,1,0.448,1,1c0,0.552-0.445,1-1,1c-2.478,0-4.808,0.965-6.56,2.718
				c-1.752,1.751-2.716,4.08-2.716,6.556c0,2.479,0.964,4.809,2.716,6.562c1.751,1.752,4.08,2.717,6.556,2.717
				c2.351,0,4.601-0.881,6.321-2.479c0.403-0.375,1.036-0.354,1.413,0.053c0.376,0.404,0.353,1.037-0.052,1.412
				c-2.095,1.944-4.819,3.017-7.681,3.017C11.275,35.295,11.273,35.295,11.272,35.295z"/>
			<path d="M36.747,35.293c-0.006,0-0.017,0-0.021,0c-2.854,0-5.58-1.07-7.67-3.017c-0.404-0.375-0.427-1.008-0.051-1.412
				c0.378-0.403,1.01-0.426,1.414-0.051c1.719,1.599,3.957,2.479,6.307,2.479c0.008,0,0.015,0,0.019,0c2.476,0,4.8-0.963,6.55-2.711
				c1.753-1.752,2.719-4.082,2.719-6.562c0.002-5.114-4.158-9.274-9.273-9.276c-0.553,0-1-0.448-1-1c0-0.552,0.447-1,1-1l0,0
				c6.221,0.002,11.275,5.061,11.273,11.276c0,3.012-1.174,5.846-3.305,7.976C42.581,34.122,39.754,35.293,36.747,35.293z"/>
			<path d="M36.549,14.716H11.467c-0.553,0-1-0.448-1-1c0-0.552,0.447-1,1-1h25.082c0.553,0,1,0.448,1,1
				C37.549,14.269,37.102,14.716,36.549,14.716z"/>
			<path d="M18.304,32.502c-0.269,0-0.537-0.106-0.734-0.32c-0.375-0.403-0.35-1.036,0.058-1.411
				c0.304-0.281,0.504-0.468,6.304-0.484c5.796-0.021,6.061,0.203,6.345,0.416c0.441,0.33,0.533,0.957,0.203,1.397
				c-0.274,0.371-0.767,0.496-1.178,0.33c-1.087-0.194-9.438-0.187-10.646,0.013C18.541,32.482,18.423,32.502,18.304,32.502z"/>
		</g>
		<g>
			<path d="M21.071,27.304c-0.227,0-0.433-0.074-0.562-0.207c-0.276-0.273-0.303-0.893,0.077-1.275l1.5-1.5
				c0.337-0.337,0.986-0.369,1.274-0.08c0.134,0.132,0.208,0.339,0.207,0.566c0,0.27-0.104,0.527-0.289,0.707l-1.498,1.5
				C21.599,27.199,21.34,27.304,21.071,27.304z M22.795,24.534c-0.14,0-0.27,0.052-0.357,0.142l-1.499,1.5
				c-0.183,0.185-0.16,0.486-0.078,0.567c0.07,0.07,0.409,0.078,0.566-0.08l1.499-1.501c0.09-0.089,0.142-0.218,0.142-0.355
				c0-0.104-0.028-0.182-0.061-0.211C22.976,24.565,22.899,24.534,22.795,24.534z"/>
			<path d="M24.827,27.304c-0.229,0-0.435-0.074-0.564-0.207c-0.132-0.133-0.208-0.338-0.208-0.566c0-0.27,0.104-0.526,0.286-0.709
				l1.5-1.5c0.339-0.338,0.991-0.367,1.272-0.077c0.131,0.126,0.205,0.33,0.207,0.557c0.005,0.271-0.102,0.531-0.281,0.715
				l-1.504,1.5C25.354,27.199,25.095,27.304,24.827,27.304z M26.549,24.535c-0.136,0-0.265,0.051-0.354,0.141l-1.5,1.502
				c-0.089,0.088-0.14,0.218-0.14,0.354c0,0.104,0.03,0.182,0.062,0.211c0.068,0.072,0.405,0.078,0.563-0.079l1.503-1.5
				c0.086-0.087,0.142-0.222,0.139-0.358c-0.002-0.103-0.029-0.178-0.062-0.207C26.73,24.566,26.652,24.535,26.549,24.535z"/>
		</g>
		<g>
			<circle cx="33.137" cy="24.671" r="1.704"/>
			<circle cx="42.432" cy="24.672" r="1.704"/>
			<circle cx="37.756" cy="21.529" r="1.705"/>
			<circle cx="37.784" cy="27.527" r="1.705"/>
		</g>
		<path d="M28.32,18.439h-8.449c-0.276,0-0.5-0.224-0.5-0.5s0.224-0.5,0.5-0.5h8.447c0.275,0,0.5,0.224,0.5,0.5
			C28.82,18.215,28.598,18.439,28.32,18.439z"/>
	</g>
</g>
<g>
</g>
<g>
</g>
<g>
</g>
<g>
</g>
<g>
</g>
<g>
</g>
<g>
</g>
<g>
</g>
<g>
</g>
<g>
</g>
<g>
</g>
<g>
</g>
<g>
</g>
<g>
</g>
<g>
</g>
</svg>
