<?xml version="1.0" encoding="iso-8859-1"?>
<!-- Generator: Adobe Illustrator 18.0.0, SVG Export Plug-In . SVG Version: 6.00 Build 0)  -->
<!DOCTYPE svg PUBLIC "-//W3C//DTD SVG 1.1//EN" "http://www.w3.org/Graphics/SVG/1.1/DTD/svg11.dtd">
<svg version="1.1" id="Capa_1" xmlns="http://www.w3.org/2000/svg" xmlns:xlink="http://www.w3.org/1999/xlink" x="0px" y="0px"
	 viewBox="0 0 45.347 45.347" style="enable-background:new 0 0 45.347 45.347;" xml:space="preserve">
<g>
	<path d="M27.674,32.347h-10c-0.553,0-1,0.447-1,1s0.447,1,1,1h10c0.553,0,1-0.447,1-1S28.226,32.347,27.674,32.347z"/>
	<path d="M33.842,27.991c-3.641-3.029-8.03-4.24-9.749-4.62c-0.865-0.191-1.769-0.191-2.636,0c-1.776,0.394-6.305,1.65-9.982,4.817
		c-1.44,1.242-2.247,3.054-2.212,4.971c0.035,1.907,0.901,3.678,2.377,4.858c2.483,1.987,6.058,3.061,10.636,3.195v0.015
		c0.168,0,0.335-0.001,0.5-0.004c0.165,0.003,0.332,0.004,0.5,0.004v-0.015c4.404-0.13,7.885-1.13,10.354-2.978
		c1.606-1.201,2.557-3.027,2.608-5.011C36.292,31.208,35.418,29.301,33.842,27.991z M32.433,36.633
		c-2.214,1.656-5.461,2.526-9.657,2.59c-4.349-0.065-7.673-0.996-9.886-2.768c-1.011-0.808-1.604-2.022-1.627-3.334
		c-0.024-1.319,0.529-2.565,1.518-3.418c3.333-2.871,7.48-4.02,9.107-4.38c0.296-0.065,0.587-0.097,0.888-0.097
		s0.592,0.031,0.887,0.097c1.575,0.349,5.597,1.455,8.9,4.204c1.102,0.917,1.713,2.245,1.677,3.645
		C34.204,34.539,33.546,35.801,32.433,36.633z"/>
	<path d="M42.004,12.883c0.004-0.005,0.009-0.009,0.013-0.014l-0.036-0.031c-0.602-1.107-1.301-2.162-2.091-3.157
		c0.039-0.227,0.075-0.455,0.093-0.687c0.278-3.701-2.265-6.963-3.807-8.58c-0.408-0.428-1.038-0.532-1.565-0.267
		c-0.526,0.267-0.812,0.836-0.709,1.42c0.115,0.649,0.283,1.809,0.316,3.078c-3.478-2.161-7.432-3.297-11.544-3.297
		c-3.301,0-6.473,0.713-9.429,2.118c-0.573,0.272-1.134,0.58-1.686,0.904c-0.105-1.121-0.065-2.194-0.005-2.927
		c0.049-0.582-0.28-1.121-0.819-1.343c-0.538-0.221-1.157-0.068-1.531,0.382c-1.31,1.57-3.448,4.742-3.055,8.344
		c0.004,0.041,0.015,0.079,0.02,0.12c-3.587,4.009-5.495,8.971-5.495,14.402c0,12.131,9.869,22,22,22s22-9.869,22-22
		C44.674,19.675,43.733,16.079,42.004,12.883z M39.112,11.959c0.118,0.17,0.221,0.35,0.334,0.524
		c-0.318,0.214-0.656,0.388-1.014,0.522c0.164-0.22,0.313-0.444,0.451-0.672c0.021-0.035,0.043-0.069,0.064-0.104
		C39,12.138,39.063,12.051,39.112,11.959z M34.081,6.973c-0.025,0.146-0.055,0.297-0.09,0.451c-0.007,0.03-0.013,0.06-0.021,0.09
		c-0.04,0.167-0.087,0.337-0.142,0.507c-0.004,0.012-0.008,0.025-0.013,0.037c-0.055,0.167-0.119,0.332-0.19,0.495
		c-0.022,0.05-0.048,0.097-0.072,0.145C33.5,8.81,33.443,8.92,33.381,9.026c-0.321,0.52-0.753,0.93-1.328,1.167
		c-0.552-1.39-0.479-2.982,0.287-4.322c0.594,0.332,1.18,0.683,1.745,1.078C34.083,6.957,34.082,6.965,34.081,6.973z M36.178,3.556
		c0.988,1.403,1.959,3.316,1.81,5.287c-0.026,0.341-0.094,0.676-0.187,1.006c-0.047,0.171-0.105,0.336-0.167,0.501
		c-0.369,0.947-1.012,1.844-1.942,2.681l-2.045-1.355c0.242-0.173,0.463-0.378,0.674-0.597c0.062-0.06,0.12-0.127,0.179-0.191
		c0.036-0.042,0.074-0.08,0.109-0.123C35.895,9.265,36.444,6.804,36.178,3.556z M13.727,5.463c0.79,1.111,1.066,2.444,0.851,3.715
		C13.4,8.602,12.6,7.433,12.244,6.279C12.727,5.983,13.224,5.714,13.727,5.463z M9.504,3.505c0.085,2.662,0.792,6.107,3.665,7.412
		l-2.493,2.054c-0.479-0.408-0.873-0.805-1.205-1.2c-0.763-0.989-1.212-2.046-1.334-3.162C7.928,6.7,8.693,4.861,9.504,3.505z
		 M7.879,12.991c-0.59-0.227-1.127-0.562-1.595-0.999c0.168-0.235,0.326-0.474,0.505-0.703c0.227,0.49,0.541,0.964,0.901,1.433
		C7.755,12.812,7.811,12.903,7.879,12.991z M22.674,43.347c-11.028,0-20-8.972-20-20c0-3.475,0.864-6.738,2.508-9.638
		c1.099,0.925,2.45,1.492,3.911,1.614c0.198,0.017,0.396,0.025,0.592,0.025c0.337,0,0.669-0.04,0.999-0.088
		c0.014,0,0.028-0.003,0.043-0.004c1.269-0.191,2.466-0.716,3.47-1.566c0.942-0.797,1.617-1.794,2.023-2.875
		c0.009-0.024,0.017-0.048,0.025-0.073c0.719-1.984,0.522-4.242-0.641-6.102c2.25-0.854,4.621-1.293,7.072-1.293
		c2.737,0,5.393,0.565,7.863,1.633c-1.568,2.857-0.967,6.526,1.615,8.711c1.016,0.86,2.23,1.385,3.516,1.57
		c0.048,0.005,0.096,0.015,0.144,0.013c0.282,0.034,0.563,0.074,0.85,0.074c0.196,0,0.394-0.009,0.592-0.025
		c1.162-0.097,2.256-0.472,3.208-1.086c1.435,2.804,2.211,5.927,2.211,9.111C42.674,34.375,33.702,43.347,22.674,43.347z"/>
	<path d="M19.691,19.967c0-2.38-3.459-3.625-6.875-3.625s-6.875,1.245-6.875,3.625s3.459,3.625,6.875,3.625
		S19.691,22.347,19.691,19.967z M7.941,19.967c0-0.472,1.708-1.625,4.875-1.625s4.875,1.153,4.875,1.625s-1.708,1.625-4.875,1.625
		S7.941,20.439,7.941,19.967z"/>
	<path d="M32.816,16.342c-3.416,0-6.875,1.245-6.875,3.625s3.459,3.625,6.875,3.625s6.875-1.245,6.875-3.625
		S36.232,16.342,32.816,16.342z M32.816,21.592c-3.167,0-4.875-1.153-4.875-1.625s1.708-1.625,4.875-1.625s4.875,1.153,4.875,1.625
		S35.983,21.592,32.816,21.592z"/>
</g>
<g>
</g>
<g>
</g>
<g>
</g>
<g>
</g>
<g>
</g>
<g>
</g>
<g>
</g>
<g>
</g>
<g>
</g>
<g>
</g>
<g>
</g>
<g>
</g>
<g>
</g>
<g>
</g>
<g>
</g>
</svg>
