<?xml version="1.0" encoding="iso-8859-1"?>
<!-- Generator: Adobe Illustrator 18.0.0, SVG Export Plug-In . SVG Version: 6.00 Build 0)  -->
<!DOCTYPE svg PUBLIC "-//W3C//DTD SVG 1.1//EN" "http://www.w3.org/Graphics/SVG/1.1/DTD/svg11.dtd">
<svg version="1.1" id="Capa_1" xmlns="http://www.w3.org/2000/svg" xmlns:xlink="http://www.w3.org/1999/xlink" x="0px" y="0px"
	 viewBox="0 0 60.002 60.002" style="enable-background:new 0 0 60.002 60.002;" xml:space="preserve">
<g>
	<path d="M36.5,25.499c-3.009,0-5.602,1.785-6.796,4.348c-0.817-0.83-1.95-1.348-3.204-1.348s-2.387,0.518-3.204,1.348
		c-1.194-2.563-3.787-4.348-6.796-4.348c-4.136,0-7.5,3.364-7.5,7.5s3.364,7.5,7.5,7.5s7.5-3.364,7.5-7.5c0-1.379,1.122-2.5,2.5-2.5
		s2.5,1.121,2.5,2.5c0,4.136,3.364,7.5,7.5,7.5s7.5-3.364,7.5-7.5S40.636,25.499,36.5,25.499z M16.5,38.499
		c-3.033,0-5.5-2.468-5.5-5.5s2.467-5.5,5.5-5.5s5.5,2.468,5.5,5.5S19.533,38.499,16.5,38.499z M36.5,38.499
		c-3.033,0-5.5-2.468-5.5-5.5s2.467-5.5,5.5-5.5s5.5,2.468,5.5,5.5S39.533,38.499,36.5,38.499z"/>
	<path d="M21,42.499c-0.552,0-1,0.447-1,1s0.448,1,1,1c7.072,0,12,1.581,12,3c0,0.553,0.448,1,1,1s1-0.447,1-1
		C35,42.74,23.338,42.499,21,42.499z"/>
	<path d="M16.553,23.394l6,3c0.144,0.071,0.296,0.105,0.446,0.105c0.367,0,0.72-0.202,0.896-0.553
		c0.247-0.494,0.047-1.095-0.447-1.342l-6-3c-0.496-0.246-1.094-0.046-1.342,0.447C15.858,22.546,16.059,23.147,16.553,23.394z"/>
	<path d="M30.001,26.499c0.15,0,0.303-0.034,0.446-0.105l6-3c0.494-0.247,0.694-0.848,0.447-1.342
		c-0.248-0.493-0.846-0.693-1.342-0.447l-6,3c-0.494,0.247-0.694,0.848-0.447,1.342C29.281,26.297,29.634,26.499,30.001,26.499z"/>
	<path d="M59.795,26.567c-0.401-1.697-1.364-3.156-2.576-3.902c-0.812-0.499-1.679-0.659-2.508-0.461
		c-0.188,0.045-0.37,0.114-0.548,0.198c-2.335-5.686-5.977-9.369-9.723-11.747l1.354-2.708c0.247-0.494,0.047-1.095-0.447-1.342
		c-0.495-0.246-1.095-0.047-1.342,0.447l-1.295,2.59c-0.618-0.329-1.233-0.624-1.84-0.891l0.978-2.935
		c0.175-0.524-0.108-1.091-0.632-1.265c-0.525-0.177-1.09,0.108-1.265,0.632L39.01,8.009c-0.693-0.249-1.365-0.462-2.011-0.643
		l0.85-2.55c0.175-0.524-0.108-1.091-0.632-1.265c-0.526-0.177-1.091,0.108-1.265,0.632L35.05,6.887
		c-1.264-0.265-2.35-0.412-3.15-0.486V4.499c0-0.553-0.448-1-1-1s-1,0.447-1,1v1.842c-0.525,0.024-1.444,0.095-2.633,0.281
		l-0.381-2.286c-0.091-0.544-0.604-0.917-1.151-0.822c-0.544,0.091-0.913,0.606-0.822,1.15l0.389,2.332
		c-1.071,0.241-2.259,0.574-3.509,1.02l-0.944-2.833c-0.174-0.523-0.74-0.809-1.265-0.632c-0.524,0.174-0.807,0.74-0.632,1.265
		l0.979,2.938c-0.864,0.378-1.742,0.82-2.623,1.325l-1.514-3.027c-0.247-0.494-0.846-0.693-1.342-0.447
		c-0.494,0.247-0.694,0.848-0.447,1.342l1.599,3.197c-0.881,0.603-1.75,1.287-2.596,2.05l-2.401-2.401
		c-0.391-0.391-1.023-0.391-1.414,0s-0.391,1.023,0,1.414l2.383,2.383c-3.073,3.273-5.641,7.839-6.821,14.218
		c-0.015,0.083-0.025,0.167-0.04,0.25c-0.254-0.07-0.512-0.118-0.776-0.118C1.73,28.939,0,31.321,0,34.362s1.73,5.424,3.939,5.424
		c0.403,0,0.798-0.102,1.177-0.267c0.701,2.671,1.863,5.179,3.459,7.378c3.194,4.404,9.468,9.606,21.27,9.606
		c0.182,0,0.364-0.001,0.548-0.004c12.143,0.17,18.573-5.131,21.817-9.603c2.879-3.969,4.345-8.941,4.23-14.07
		c0.035,0.001,0.07,0.007,0.104,0.007c0.227,0,0.451-0.025,0.672-0.078C59.363,32.244,60.496,29.525,59.795,26.567z M4.674,37.488
		c-0.206,0.166-0.456,0.298-0.734,0.298C3.022,37.786,2,36.38,2,34.362s1.022-3.424,1.939-3.424c0.167,0,0.335,0.047,0.504,0.139
		c-0.049,0.533-0.081,1.066-0.096,1.597c-0.001,0.034,0,0.067-0.001,0.101c-0.011,0.445-0.009,0.889,0.004,1.332
		c0.004,0.136,0.009,0.271,0.015,0.407c0.016,0.36,0.042,0.719,0.074,1.076c0.012,0.141,0.021,0.282,0.036,0.422
		c0.047,0.438,0.106,0.874,0.177,1.307C4.66,37.375,4.664,37.432,4.674,37.488z M50.591,45.724
		c-4.316,5.949-11.102,8.942-20.185,8.776h-0.027c-9.098,0.111-15.87-2.829-20.185-8.776c-2.062-2.842-3.329-6.255-3.726-9.866
		c-0.008-0.078-0.01-0.157-0.017-0.235c-0.057-0.57-0.089-1.144-0.102-1.721c-0.005-0.252-0.001-0.504,0.002-0.757
		c0.004-0.406,0.021-0.814,0.047-1.222c0.019-0.294,0.039-0.588,0.069-0.883c0.064-0.623,0.138-1.246,0.253-1.869
		c1.097-5.928,3.438-10.163,6.237-13.199l1.235,1.235c0.195,0.195,0.451,0.293,0.707,0.293s0.512-0.098,0.707-0.293
		c0.391-0.391,0.391-1.023,0-1.414l-1.229-1.229c0.684-0.619,1.384-1.181,2.094-1.683l0.533,1.067
		c0.175,0.351,0.528,0.553,0.896,0.553c0.15,0,0.303-0.034,0.446-0.105c0.494-0.247,0.694-0.848,0.447-1.342l-0.628-1.256
		c0.795-0.464,1.59-0.872,2.372-1.22l0.413,1.24c0.14,0.419,0.53,0.684,0.949,0.684c0.104,0,0.211-0.017,0.316-0.052
		c0.524-0.174,0.807-0.74,0.632-1.265l-0.45-1.349c1.148-0.407,2.235-0.7,3.224-0.917l0.291,1.747
		c0.082,0.489,0.505,0.836,0.985,0.836c0.054,0,0.11-0.004,0.166-0.014c0.544-0.091,0.913-0.606,0.822-1.15l-0.296-1.777
		c1.021-0.146,1.824-0.201,2.31-0.22v2.161c0,0.553,0.448,1,1,1s1-0.447,1-1V8.425c0.666,0.065,1.52,0.177,2.513,0.371l-0.462,1.387
		c-0.175,0.524,0.108,1.091,0.632,1.265c0.105,0.035,0.212,0.052,0.316,0.052c0.419,0,0.809-0.265,0.949-0.684l0.52-1.561
		c0.644,0.175,1.319,0.384,2.015,0.631l-0.432,1.297c-0.175,0.524,0.108,1.091,0.632,1.265c0.105,0.035,0.212,0.052,0.316,0.052
		c0.419,0,0.809-0.265,0.949-0.684l0.395-1.184c0.177,0.079,0.353,0.153,0.531,0.238c0.36,0.171,0.707,0.353,1.053,0.538
		l-0.823,1.645c-0.247,0.494-0.047,1.095,0.447,1.342c0.144,0.071,0.296,0.105,0.446,0.105c0.367,0,0.72-0.202,0.896-0.553
		l0.763-1.526c4.174,2.689,7.196,6.516,9.039,11.43l-0.003,0.003l0.182,0.513c0.272,0.766,0.509,1.532,0.719,2.308
		c0.013,0.049,0.026,0.098,0.038,0.147c0.204,0.769,0.382,1.548,0.53,2.348c0.122,0.659,0.204,1.318,0.268,1.976
		c0.012,0.127,0.029,0.252,0.04,0.38C54.791,36.694,53.464,41.763,50.591,45.724z M56.751,30.812c-0.136,0.03-0.283,0.03-0.436,0
		c-0.004-0.036-0.011-0.07-0.015-0.106c-0.068-0.63-0.153-1.261-0.269-1.891c-0.001-0.003-0.001-0.006-0.001-0.009
		c-0.002-0.012-0.006-0.024-0.008-0.036c-0.142-0.761-0.307-1.492-0.487-2.203c-0.017-0.068-0.039-0.135-0.057-0.203
		c-0.183-0.704-0.385-1.382-0.603-2.037c-0.004-0.011-0.006-0.023-0.01-0.035c0.101-0.069,0.204-0.116,0.31-0.142
		c0.38-0.094,0.751,0.068,0.994,0.219c0.758,0.467,1.401,1.486,1.68,2.66C58.314,28.992,57.645,30.599,56.751,30.812z"/>
</g>
<g>
</g>
<g>
</g>
<g>
</g>
<g>
</g>
<g>
</g>
<g>
</g>
<g>
</g>
<g>
</g>
<g>
</g>
<g>
</g>
<g>
</g>
<g>
</g>
<g>
</g>
<g>
</g>
<g>
</g>
</svg>
