<?xml version='1.0' encoding='iso-8859-1'?>
<svg version="1.1" xmlns="http://www.w3.org/2000/svg" viewBox="0 0 301.258 301.258" xmlns:xlink="http://www.w3.org/1999/xlink" enable-background="new 0 0 301.258 301.258">
  <g>
    <g>
      <path d="m100.156,177.788c-11.491-5.667-16.381-12.094-19.003-17.281h-21.281l-35.246-20.327c-3.258-1.878-7.337-1.533-10.233,0.862-2.896,2.396-3.998,6.34-2.764,9.891l17.153,49.329c2.503-1.029 5.207-1.571 7.995-1.571 1.395,0 2.769,0.135 4.108,0.399 3.719-5.544 10.143-9.332 17.453-9.332h8.497c7.264,0 13.679,3.708 17.452,9.33 6.677-1.317 13.803,0.596 18.959,5.752l6.009,6.009c5.14,5.14 7.053,12.305 5.74,18.951 4.182,2.802 7.303,7.068 8.633,12.057l14.208-47.629c-0.001-0.001-28.462-11.894-37.68-16.44z"/>
      <path d="m176.233,163.978c-6.151-2.325-17.572-5.779-21.894-7.095-8.517-2.594-11.998-7.54-12.718-14.348l-5.06-48.598 16.748,44.167c1.483,3.913 4.829,6.825 8.91,7.755l48.692,11.097c6.736,1.535 13.431-2.683 14.965-9.41 1.534-6.73-2.679-13.431-9.41-14.965l-42.158-9.607-14.371-37.898 15.076,21.064 4.271-11.185c3.672-9.616-1.147-20.388-10.764-24.06l-31.05-11.856c-9.616-3.672-20.388,1.147-24.06,10.763-24.569,64.347-23.529,60.982-24.273,65.257-1.425,8.196 0.427,16.458 4.826,23.163 6.693,11.067 58.548,28.786 58.548,28.786l-17.962,60.213c-2.368,7.939 2.147,16.294 10.086,18.662s16.294-2.148 18.662-10.086l21.934-73.526c2.242-7.513-1.679-15.484-8.998-18.293z"/>
      <circle cx="170.858" cy="27.59" r="27.59"/>
      <path d="m103.335,238.258c-0.697-2.144-1.559-4.21-2.57-6.191l.004-.004c3.515-3.515 3.515-9.215 0-12.73l-6.009-6.009c-1.757-1.758-4.061-2.637-6.365-2.637s-4.607,0.879-6.365,2.637l-.004,.004c-1.98-1.01-4.047-1.873-6.191-2.57 0-4.971-4.03-9.001-9.001-9.001h-8.497c-4.971,0-9.001,4.03-9.001,9.001-2.144,0.697-4.21,1.559-6.191,2.57-1.759-1.759-4.064-2.638-6.369-2.638s-4.61,0.879-6.369,2.638l-6.001,6.001c-3.517,3.517-3.517,9.22 0,12.737-1.01,1.98-1.873,4.047-2.57,6.191-4.971,0-9.001,4.03-9.001,9.001v8.498c0,4.971 4.03,9.001 9.001,9.001 0.697,2.143 1.559,4.21 2.57,6.191l-.004,.004c-3.515,3.515-3.515,9.215 0,12.73l6.009,6.009c1.757,1.758 4.061,2.636 6.365,2.636 2.304,0 4.607-0.879 6.365-2.636l.004-.004c1.98,1.01 4.047,1.873 6.191,2.57 0,4.971 4.03,9.001 9.001,9.001h8.497c4.971,0 9.001-4.03 9.001-9.001 2.143-0.697 4.21-1.559 6.191-2.57l.004,.004c1.758,1.758 4.061,2.636 6.365,2.636s4.607-0.879 6.365-2.636l6.009-6.009c3.515-3.515 3.515-9.214 0-12.73l-.004-.004c1.01-1.98 1.873-4.047 2.57-6.191 4.971,0 9.001-4.03 9.001-9.001v-8.498c0-4.97-4.03-9-9.001-9zm-40.749,26.499c-7.318,0-13.25-5.932-13.25-13.25 0-7.318 5.932-13.25 13.25-13.25s13.25,5.932 13.25,13.25c0,7.318-5.932,13.25-13.25,13.25z"/>
      <path d="m283.399,167.84h-3.759c-0.255-1.352-0.818-2.645-1.671-3.77-1.701-2.244-4.355-3.563-7.172-3.563h-3.386l-25.689-34.979c-1.349-1.837-3.536-2.866-5.812-2.735-2.275,0.131-4.33,1.405-5.459,3.385l-.015,.027c6.493,5.868 9.712,14.976 7.629,24.116-3.06,13.427-16.446,21.893-29.93,18.82l-13.051-2.974c3.038,6.229 3.529,13.221 1.647,19.532l-7.37,24.705 5.561-5.561c5.176-5.176 12.313-7.065 18.962-5.754 3.772-5.623 10.188-9.332 17.453-9.332h8.497c7.257,0 13.69,3.724 17.452,9.33 5.592-1.103 11.638,0.106 16.481,3.657h9.632c3.717,0 6.73-3.013 6.73-6.73v-21.444c5.68434e-14-3.716-3.013-6.73-6.73-6.73z"/>
      <path d="m276.335,238.258c-0.697-2.144-1.559-4.21-2.57-6.191l.004-.004c3.515-3.515 3.515-9.215 0-12.73l-6.009-6.009c-1.758-1.758-4.061-2.637-6.365-2.637-2.304,0-4.607,0.879-6.365,2.637l-.004,.004c-1.98-1.01-4.047-1.873-6.191-2.57 0-4.971-4.03-9.001-9.001-9.001h-8.497c-4.971,0-9.001,4.03-9.001,9.001-2.143,0.697-4.21,1.559-6.191,2.57-1.759-1.759-4.064-2.638-6.369-2.638-2.305,0-4.61,0.879-6.369,2.638l-6.001,6.001c-3.517,3.517-3.517,9.22 0,12.737-1.011,1.98-1.873,4.047-2.57,6.191-4.971,0-9.001,4.03-9.001,9.001v8.498c0,4.971 4.03,9.001 9.001,9.001 0.697,2.143 1.559,4.21 2.57,6.191l-.004,.004c-3.515,3.515-3.515,9.215 0,12.73l6.009,6.009c1.757,1.758 4.061,2.636 6.365,2.636s4.607-0.879 6.365-2.636l.004-.004c1.98,1.01 4.047,1.873 6.191,2.57 0,4.971 4.03,9.001 9.001,9.001h8.497c4.971,0 9.001-4.03 9.001-9.001 2.143-0.697 4.21-1.559 6.191-2.57l.004,.004c1.758,1.758 4.061,2.636 6.365,2.636 2.304,0 4.607-0.879 6.365-2.636l6.009-6.009c3.515-3.515 3.515-9.214 0-12.73l-.004-.004c1.011-1.98 1.873-4.047 2.57-6.191 4.971,0 9.001-4.03 9.001-9.001v-8.498c5.68434e-14-4.97-4.03-9-9.001-9zm-40.749,26.499c-7.318,0-13.25-5.932-13.25-13.25 0-7.318 5.932-13.25 13.25-13.25s13.25,5.932 13.25,13.25c0,7.318-5.932,13.25-13.25,13.25z"/>
    </g>
  </g>
</svg>
