<?xml version="1.0" encoding="iso-8859-1"?>
<!-- Generator: Adobe Illustrator 18.0.0, SVG Export Plug-In . SVG Version: 6.00 Build 0)  -->
<!DOCTYPE svg PUBLIC "-//W3C//DTD SVG 1.1//EN" "http://www.w3.org/Graphics/SVG/1.1/DTD/svg11.dtd">
<svg version="1.1" id="Capa_1" xmlns="http://www.w3.org/2000/svg" xmlns:xlink="http://www.w3.org/1999/xlink" x="0px" y="0px"
	 viewBox="0 0 612 792" style="enable-background:new 0 0 612 792;" preserveAspectRatio="fit">
<path d="M266.452,664.79c2.245,10.258-6.254,20.833-18.984,23.619c-12.73,2.786-24.869-3.272-27.115-13.53
	s6.254-20.833,18.984-23.619C252.067,648.473,264.207,654.531,266.452,664.79z M344.757,664.79
	c-2.246,10.262,6.253,20.84,18.983,23.626c12.73,2.786,24.87-3.275,27.116-13.537c2.246-10.262-6.253-20.84-18.983-23.626
	C359.143,648.467,347.003,654.528,344.757,664.79z M595.837,263.373c-14.551,29.296-36.042,50.482-63.857,62.978
	c-14.911,6.691-29.247,9.673-40.415,10.939c1.716,19.83,1.854,43.473,0.256,65.711c-1.917,26.736-7.224,64.355-21.595,91.776
	c-25.366,48.413-33.586,80.892-36.014,99.615c-1.681,12.973-0.768,20.515-0.346,22.958c6.047,10.538,26.355,51.437,3.785,91.534
	c-9.756,17.333-20.508,28.874-41.28,28.874c-6.76,0-13.942-1.155-23.041-2.622c-15.091-2.436-35.765-5.764-67.33-5.764
	c-31.572,0-52.247,3.335-67.337,5.764c-9.099,1.467-16.281,2.622-23.041,2.622c-20.771,0-31.524-11.541-41.28-28.874
	c-22.46-39.896-2.463-80.581,3.695-91.368c0-0.028,0.007-0.062,0.014-0.097l-0.097-0.062c0.042-0.055,0.09-0.131,0.138-0.201
	c1.287-7.881,4.151-45.127-36.333-122.372c-14.378-27.434-19.678-65.061-21.595-91.797c-1.591-22.204-1.453-45.812,0.256-65.628
	c-11.168-1.225-25.649-4.2-40.733-11.029c-27.607-12.496-48.981-33.676-63.525-62.951c-16.807-33.828-20.591-72.374-10.96-111.475
	c7.203-29.227,19.457-48.725,19.976-49.541l30.569-48.123l0.512,57c0.374,43.618,15.61,75.128,45.286,93.651
	c24.065,15.021,51.908,18.294,67.254,18.848l85.265-12.794c17.139-2.567,34.61-3.875,51.942-3.875
	c17.326,0,34.803,1.301,51.942,3.875l85.341,12.807c15.319-0.567,43.099-3.875,67.178-18.952
	c29.628-18.557,44.871-50.046,45.293-93.582l0.554-56.889l30.507,48.026c0.519,0.816,12.773,20.315,19.976,49.541
	C616.428,190.999,612.643,229.546,595.837,263.373z M209.298,578.354c2.449-2.498,4.906-4.857,7.327-6.954
	c-0.471-13.686-1.847-42.345-5.764-72.886c-2.851-22.204-6.566-41.536-10.932-57.263c-5.688,3.217-12.309,4.933-19.436,4.933
	c-7.293,0-14.592-1.799-21.359-5.176c3.155,15.395,7.383,28.41,12.475,38.132C191.114,516.359,203.762,549.661,209.298,578.354z
	 M179.967,399.66l0.014-0.014c-0.464-0.477-0.941-0.948-1.46-1.391c-3.19-2.733-7.092-4.366-10.427-4.366
	c-0.602,0-2.615,0.069-3.439,1.038c-1.266,1.474-0.948,7.742,5.411,13.188c3.197,2.733,7.092,4.366,10.427,4.366
	c0.602,0,2.609-0.076,3.439-1.038c0.616-0.72,0.775-2.193,0.429-3.958c-0.512-2.609-2.013-5.3-4.193-7.632
	C180.099,399.799,180.03,399.722,179.967,399.66z M452.935,440.649c-6.968,3.605-14.523,5.542-22.079,5.542
	c-7.127,0-13.741-1.716-19.436-4.933c-4.366,15.727-8.089,35.052-10.932,57.256c-3.916,30.541-5.3,59.2-5.764,72.886
	c2.615,2.27,5.279,4.83,7.922,7.563c4.546-23.843,15.111-56.654,37.737-99.823C445.525,469.336,449.773,456.197,452.935,440.649z
	 M431.389,399.667c-0.062,0.062-0.131,0.131-0.201,0.194c-2.18,2.332-3.681,5.023-4.193,7.632c-0.346,1.757-0.187,3.238,0.429,3.958
	c0.83,0.962,2.844,1.038,3.439,1.038c3.342,0,7.237-1.633,10.427-4.366c6.359-5.445,6.677-11.714,5.411-13.188
	c-0.83-0.962-2.844-1.038-3.439-1.038c-3.342,0-7.237,1.633-10.427,4.366c-0.519,0.443-0.996,0.913-1.46,1.391L431.389,399.667z
	 M577.155,176.095c-1.806,4.283-3.819,8.414-6.02,12.385c-10.206,18.398-24.605,33.503-42.795,44.898
	c-31.628,19.81-67.192,23.615-85.583,24.12l-1.488,0.042l-88.33-13.25c-15.492-2.325-31.288-3.501-46.947-3.501
	c-15.665,0-31.455,1.176-46.947,3.501l-88.233,13.236l-1.481-0.042c-18.419-0.491-54.032-4.262-85.645-23.996
	c-18.232-11.382-32.652-26.487-42.864-44.905c-2.2-3.965-4.2-8.089-6.006-12.358c-3.418,25.656,0.436,49.873,11.513,72.167
	c25.144,50.614,70.043,56.08,88.178,56.08c1.391,0,2.712-0.028,3.923-0.097l21.02-1.162l-3.473,20.764
	c-1.785,10.656-2.851,24.445-3.141,39.149c4.664-1.903,9.811-2.913,15.257-2.913c11.472,0,22.958,4.428,32.347,12.468
	c1.204,1.031,2.352,2.117,3.453,3.238c19.36,18.502,32.596,57.353,40.422,118.622c5.639,44.13,6.2,83.189,6.22,84.829l0.125,9.666
	l-8.282,4.982c-28.32,17.035-56.606,66.486-38.671,98.342c6.594,11.714,8.483,11.714,11.922,11.714
	c4.062,0,10.074-0.969,17.678-2.193c15.305-2.47,38.429-6.193,72.693-6.193c34.264,0,57.388,3.729,72.693,6.193
	c7.611,1.225,13.617,2.193,17.685,2.193c3.439,0,5.328,0,11.922-11.714c18.377-32.645-10.69-81.127-39.315-98.342
	c-0.007,0-8.289-4.982-8.289-4.982l0.125-9.666c0.014-1.64,0.581-40.699,6.213-84.829c7.819-61.276,21.055-100.12,40.422-118.622
	c1.1-1.121,2.249-2.207,3.453-3.238c9.389-8.04,20.875-12.468,32.347-12.468c5.695,0,11.071,1.093,15.907,3.176
	c-0.284-14.793-1.349-28.666-3.141-39.384l-3.439-20.536l20.799,0.927c1.072,0.048,2.207,0.069,3.39,0.069
	c18.35,0,63.746-5.466,88.89-56.066C576.754,226.058,580.601,201.8,577.155,176.095z M237.044,267.096l6.559,33.046
	c0.63-0.125,63.975-12.344,124.718-0.014l6.698-33.018C307.474,253.403,239.887,266.536,237.044,267.096z"/>
</svg>
