<?xml version="1.0" encoding="iso-8859-1"?>
<!-- Generator: Adobe Illustrator 16.0.0, SVG Export Plug-In . SVG Version: 6.00 Build 0)  -->
<!DOCTYPE svg PUBLIC "-//W3C//DTD SVG 1.1//EN" "http://www.w3.org/Graphics/SVG/1.1/DTD/svg11.dtd">
<svg version="1.1" id="Capa_1" xmlns="http://www.w3.org/2000/svg" xmlns:xlink="http://www.w3.org/1999/xlink" x="0px" y="0px"
	 width="47.776px" height="47.776px" viewBox="0 0 47.776 47.776" style="enable-background:new 0 0 47.776 47.776;"
	 xml:space="preserve">
<g>
	<g id="Sneaker">
		<path d="M17.06,40.024c-2.769,0-16.581-0.258-16.812-5.329c-0.038-0.838-0.1-1.526-0.15-2.107
			c-0.158-1.755-0.264-2.913,0.847-4.005C2.696,26.86,5.191,26.5,6.977,26.5c0.463,0,0.856,0.025,1.144,0.054
			c0.613-0.471,1.896-1.154,4.332-1.397c0.58-0.562,1.953-1.604,4.506-2.093c0.584-0.456,2.311-1.722,4.645-2.747
			c2.226-0.98,3.4-2.633,4.104-3.621l0.229-0.317c0.456-0.62,0.744-1.468,1.049-2.365c0.784-2.306,1.725-5.248,6.314-4.695
			c0.917,0.11,1.695,0.479,2.384,0.805c0.699,0.332,1.305,0.619,1.954,0.619c0.354-0.013,1.05-0.662,1.467-1.049
			c1.077-1.002,2.353-2.159,3.959-1.906c2.521,0.396,2.147,4.115,1.755,8.052c-0.226,2.241-0.479,4.781-0.032,5.768
			c0.199,0.44,0.381,0.744,0.571,1.064c0.615,1.03,1.146,1.92,1.67,5.93c0.312,1.099,2.087,7.851-1.257,9.602
			c-2.347,1.229-6.235,1.484-9.088,1.484c-1.206,0-2.472-0.049-3.657-0.14c-2.005-0.151-3.712-0.227-5.218-0.227
			c-2.537,0-4.146,0.211-5.847,0.435l-0.13,0.018C20.558,39.937,18.908,40.024,17.06,40.024z M6.977,28.499
			c-1.155,0-3.293,0.195-4.629,1.512c-0.403,0.396-0.408,0.726-0.26,2.397c0.056,0.604,0.119,1.323,0.158,2.196
			c0.074,1.65,6.043,3.419,14.812,3.419c1.736,0,3.34-0.084,4.511-0.238l0.129-0.018c1.768-0.231,3.438-0.451,6.105-0.451
			c1.557,0,3.312,0.076,5.368,0.23c1.139,0.088,2.352,0.133,3.508,0.133c3.714,0,6.611-0.445,8.159-1.256
			c1.419-0.743,0.983-4.82,0.243-7.344c-0.016-0.052-0.023-0.103-0.031-0.152c-0.474-3.661-0.889-4.356-1.413-5.235
			c-0.202-0.338-0.433-0.722-0.68-1.268c-0.667-1.476-0.408-4.057-0.136-6.79c0.179-1.774,0.548-5.466-0.065-5.876
			c-0.052-0.007-0.095-0.011-0.139-0.011c-0.646,0-1.448,0.747-2.156,1.405c-0.852,0.792-1.652,1.539-2.651,1.581l-0.177,0.004
			c-1.099,0-2.009-0.431-2.812-0.812c-0.602-0.285-1.17-0.556-1.764-0.626c-0.283-0.034-0.546-0.051-0.792-0.051
			c-2.13,0-2.653,1.23-3.394,3.404c-0.342,1.001-0.691,2.037-1.33,2.905l-0.21,0.293c-0.77,1.08-2.197,3.09-4.93,4.292
			c-2.568,1.129-4.363,2.608-4.381,2.625c-0.135,0.111-0.298,0.188-0.471,0.217c-2.789,0.477-3.804,1.695-3.846,1.747
			c-0.173,0.214-0.437,0.36-0.712,0.381c-2.9,0.222-3.775,1.126-3.784,1.136c-0.227,0.245-0.59,0.394-0.917,0.336
			C8.29,28.583,7.751,28.499,6.977,28.499z"/>
		<path d="M19.467,35.059c-1.36,0-2.703-0.041-4.195-0.146c-3.698-0.256-12.502-1.108-14.365-3.511
			c-0.345-0.442-0.479-0.946-0.386-1.452c0.07-0.396,0.451-0.652,0.847-0.585c0.396,0.071,0.657,0.451,0.585,0.848
			c-0.008,0.043-0.025,0.135,0.104,0.3c0.994,1.282,6.348,2.468,13.315,2.95c3.449,0.237,5.97,0.14,10.147-0.027
			c2.311-0.092,5.187-0.206,8.946-0.285c6.188-0.129,8.808-1.535,9.912-2.69c0.825-0.862,0.816-1.604,0.815-1.634
			c-0.01-0.396,0.299-0.732,0.694-0.752c0.416-0.012,0.73,0.276,0.759,0.67c0.009,0.134,0.053,1.336-1.14,2.636
			c-1.855,2.025-5.562,3.112-11.013,3.228c-3.749,0.079-6.616,0.191-8.92,0.284C23.221,34.982,21.327,35.059,19.467,35.059z"/>
		<path d="M15.384,39.427c-0.15,0-0.305-0.048-0.438-0.145c-0.336-0.242-0.412-0.71-0.17-1.048c1.005-1.396,0.223-3.535,0.215-3.557
			c-0.145-0.389,0.051-0.82,0.438-0.966c0.385-0.146,0.816,0.049,0.965,0.435c0.045,0.118,1.08,2.91-0.401,4.965
			C15.848,39.317,15.618,39.427,15.384,39.427z"/>
		<path d="M10.808,34.397c-0.133,0-0.265-0.034-0.385-0.104c-3.588-2.135-3.25-5.307-2.568-6.685
			c0.183-0.371,0.631-0.522,1.004-0.34c0.37,0.183,0.521,0.629,0.343,1c-0.136,0.285-1.225,2.822,1.99,4.733
			c0.354,0.212,0.473,0.673,0.261,1.026C11.312,34.267,11.062,34.397,10.808,34.397z"/>
		<g>
			<path d="M12.336,30.061c-0.061,0-0.121-0.021-0.169-0.065c-1.497-1.377-0.842-3.692-0.812-3.792
				c0.039-0.132,0.176-0.208,0.31-0.169c0.132,0.039,0.208,0.178,0.17,0.312c-0.006,0.021-0.595,2.118,0.672,3.283
				c0.104,0.095,0.108,0.252,0.017,0.354C12.472,30.033,12.403,30.061,12.336,30.061z"/>
			<path d="M14.047,29.363c-0.076,0-0.153-0.036-0.204-0.104c-1.512-2.138-0.386-3.537-0.337-3.598
				c0.091-0.104,0.248-0.118,0.354-0.032c0.104,0.089,0.121,0.244,0.033,0.353c-0.044,0.055-0.917,1.186,0.358,2.988
				c0.08,0.111,0.055,0.27-0.06,0.349C14.147,29.349,14.098,29.363,14.047,29.363z"/>
		</g>
		<path d="M13.315,31.002c-0.663,0-1.203-0.521-1.229-1.183c-0.014-0.327,0.103-0.642,0.324-0.885
			c0.223-0.242,0.527-0.383,0.856-0.396c0,0,0.001,0,0.002,0c0.713,0,1.251,0.52,1.277,1.181c0.028,0.678-0.501,1.253-1.18,1.28
			C13.363,31,13.319,31.002,13.315,31.002z M13.317,29.039c-0.229,0.009-0.407,0.093-0.54,0.235
			c-0.132,0.146-0.201,0.33-0.192,0.525c0.018,0.394,0.336,0.7,0.729,0.7v0.25l0.031-0.251c0.401-0.018,0.718-0.356,0.699-0.761
			C14.031,29.348,13.71,29.039,13.317,29.039z"/>
		<circle cx="13.304" cy="29.828" r="0.425"/>
		<g>
			<path d="M16.108,28.495c-0.074,0-0.147-0.032-0.196-0.096c-1.668-2.115-0.895-3.942-0.861-4.02
				c0.058-0.127,0.202-0.185,0.329-0.128c0.126,0.056,0.186,0.201,0.129,0.327c-0.026,0.066-0.679,1.642,0.797,3.51
				c0.085,0.107,0.065,0.267-0.042,0.352C16.217,28.478,16.164,28.495,16.108,28.495z"/>
			<path d="M17.708,27.664c-0.064,0-0.132-0.024-0.182-0.077c-1.344-1.422-0.896-3.616-0.875-3.709
				c0.029-0.136,0.163-0.219,0.296-0.192c0.135,0.028,0.221,0.163,0.193,0.296c-0.004,0.021-0.412,2.033,0.75,3.262
				c0.095,0.103,0.09,0.26-0.012,0.354C17.833,27.643,17.771,27.664,17.708,27.664z"/>
		</g>
		<path d="M17.089,29.437c-0.663,0-1.201-0.521-1.229-1.182c-0.027-0.679,0.502-1.253,1.179-1.281c0.001,0,0.001,0,0.002,0
			c0.714,0,1.253,0.519,1.281,1.18c0.027,0.679-0.502,1.254-1.179,1.282C17.139,29.436,17.093,29.437,17.089,29.437z M17.09,27.473
			c-0.434,0.018-0.748,0.358-0.729,0.763c0.016,0.395,0.337,0.701,0.729,0.701v0.25l0.031-0.251c0.402-0.018,0.716-0.357,0.7-0.763
			C17.805,27.78,17.483,27.473,17.09,27.473z"/>
		<circle cx="17.096" cy="28.25" r="0.425"/>
		<g>
			<path d="M19.787,26.769c-0.052,0-0.104-0.017-0.148-0.05c-1.748-1.312-1.274-3.438-1.255-3.525
				c0.032-0.135,0.167-0.218,0.302-0.187c0.134,0.031,0.218,0.165,0.187,0.301c-0.018,0.077-0.417,1.899,1.065,3.011
				c0.108,0.083,0.133,0.24,0.05,0.351C19.938,26.733,19.862,26.769,19.787,26.769z"/>
			<path d="M21.15,25.822c-0.065,0-0.131-0.024-0.18-0.076c-1.603-1.656-1.185-3.337-1.165-3.408
				c0.033-0.133,0.17-0.213,0.304-0.178c0.133,0.035,0.213,0.171,0.18,0.304c-0.015,0.061-0.355,1.488,1.04,2.935
				c0.096,0.1,0.093,0.258-0.006,0.354C21.275,25.801,21.213,25.822,21.15,25.822z"/>
		</g>
		<path d="M20.766,27.71c-0.662,0-1.201-0.52-1.229-1.182c-0.014-0.328,0.103-0.642,0.324-0.885
			c0.223-0.242,0.526-0.383,0.854-0.397c0.001,0,0.001,0,0.002,0c0.715,0,1.252,0.521,1.28,1.182
			c0.013,0.328-0.102,0.644-0.325,0.886c-0.223,0.242-0.525,0.383-0.854,0.396C20.813,27.708,20.769,27.71,20.766,27.71z
			 M20.768,25.746c-0.228,0.01-0.407,0.094-0.539,0.237c-0.132,0.145-0.201,0.33-0.192,0.525c0.018,0.394,0.336,0.701,0.729,0.701
			v0.25l0.029-0.252c0.196-0.008,0.376-0.091,0.511-0.233c0.132-0.146,0.199-0.331,0.19-0.527
			C21.481,26.055,21.161,25.746,20.768,25.746z"/>
		<circle cx="20.746" cy="26.521" r="0.424"/>
		<g>
			<path d="M23.222,24.523c-0.062,0-0.121-0.021-0.169-0.066c-1.669-1.535-1.201-3.457-1.182-3.538
				c0.034-0.134,0.172-0.213,0.303-0.18c0.136,0.034,0.217,0.169,0.183,0.303c-0.019,0.07-0.408,1.72,1.035,3.046
				c0.102,0.095,0.106,0.252,0.015,0.354C23.355,24.496,23.289,24.523,23.222,24.523z"/>
			<path d="M24.463,23.743c-0.062,0-0.126-0.022-0.174-0.071c-1.13-1.101-1.289-3.118-1.295-3.204
				c-0.01-0.139,0.094-0.258,0.231-0.268c0.125-0.014,0.257,0.093,0.268,0.231c0.001,0.019,0.152,1.916,1.146,2.882
				c0.099,0.096,0.101,0.255,0.005,0.354C24.593,23.717,24.528,23.743,24.463,23.743z"/>
		</g>
		<path d="M24.191,25.752c-0.662,0-1.202-0.52-1.231-1.181c-0.025-0.68,0.502-1.255,1.181-1.283c0,0,0.001,0,0.002,0
			c0.713,0,1.253,0.521,1.279,1.183c0.028,0.678-0.501,1.253-1.18,1.281C24.238,25.75,24.194,25.752,24.191,25.752z M24.191,23.787
			c-0.435,0.02-0.747,0.36-0.731,0.766c0.019,0.392,0.338,0.7,0.731,0.7v0.25l0.03-0.251c0.401-0.018,0.718-0.357,0.699-0.762
			C24.906,24.097,24.584,23.787,24.191,23.787z"/>
		<circle cx="24.184" cy="24.557" r="0.424"/>
		<g>
			<path d="M26.329,22.452c-0.042,0-0.083-0.01-0.122-0.032c-1.924-1.07-2.031-2.726-2.034-2.796
				c-0.007-0.138,0.1-0.254,0.236-0.262c0.134-0.012,0.255,0.098,0.263,0.235c0.003,0.059,0.105,1.454,1.778,2.386
				c0.12,0.067,0.163,0.219,0.097,0.34C26.502,22.405,26.417,22.452,26.329,22.452z"/>
			<path d="M27.269,21.43c-0.054,0-0.104-0.017-0.148-0.051c-1.374-1.023-1.788-2.23-1.806-2.281
				c-0.043-0.131,0.025-0.272,0.158-0.316c0.131-0.042,0.271,0.027,0.314,0.157c0.004,0.011,0.391,1.115,1.629,2.041
				c0.11,0.083,0.133,0.239,0.051,0.35C27.42,21.395,27.345,21.43,27.269,21.43z"/>
		</g>
		<path d="M27.308,23.393c-0.662,0-1.201-0.52-1.229-1.182c-0.015-0.327,0.103-0.643,0.322-0.885
			c0.224-0.243,0.527-0.384,0.854-0.396c0,0,0.001,0,0.002,0c0.716,0,1.254,0.519,1.279,1.181c0.015,0.328-0.102,0.642-0.323,0.884
			c-0.223,0.243-0.525,0.384-0.854,0.397C27.355,23.392,27.312,23.393,27.308,23.393z M27.31,21.429
			c-0.229,0.009-0.407,0.093-0.54,0.236c-0.132,0.145-0.2,0.33-0.19,0.525c0.018,0.395,0.336,0.702,0.729,0.702v0.25l0.029-0.251
			c0.194-0.008,0.376-0.092,0.51-0.236c0.132-0.144,0.198-0.33,0.189-0.525C28.023,21.737,27.703,21.429,27.31,21.429z"/>
		<circle cx="27.32" cy="22.161" r="0.424"/>
		<g>
			<path d="M28.915,19.876c-0.024,0-0.054-0.004-0.08-0.013c-2.373-0.795-2.629-2.179-2.64-2.237
				c-0.021-0.136,0.069-0.265,0.206-0.288c0.133-0.024,0.264,0.068,0.287,0.204c0.012,0.057,0.25,1.159,2.306,1.848
				c0.131,0.044,0.2,0.186,0.157,0.316C29.117,19.81,29.02,19.876,28.915,19.876z"/>
			<path d="M29.593,18.527c-0.018,0-0.034-0.002-0.054-0.006c-1.519-0.333-2.613-1.845-2.659-1.909
				c-0.08-0.112-0.054-0.269,0.06-0.349c0.108-0.082,0.268-0.056,0.35,0.058c0.01,0.014,1.03,1.421,2.358,1.712
				c0.136,0.029,0.221,0.163,0.188,0.298C29.812,18.448,29.708,18.527,29.593,18.527z"/>
		</g>
		<path d="M29.856,20.496c-0.662,0-1.202-0.519-1.229-1.181c-0.025-0.678,0.502-1.253,1.182-1.281c0,0,0.001,0,0.002,0
			c0.712,0,1.252,0.519,1.279,1.179c0.027,0.679-0.503,1.254-1.181,1.282C29.904,20.495,29.86,20.496,29.856,20.496z M29.858,18.533
			c-0.436,0.019-0.748,0.359-0.731,0.762c0.018,0.394,0.337,0.701,0.729,0.701v0.25l0.031-0.251c0.401-0.017,0.718-0.357,0.7-0.761
			C30.572,18.842,30.252,18.533,29.858,18.533z"/>
		<circle cx="29.87" cy="19.263" r="0.424"/>
		<path d="M28.53,32.575c-0.663,0-1.203-0.52-1.229-1.181c-0.026-0.678,0.501-1.254,1.181-1.283c0.001,0,0.001,0,0.002,0
			c0.711,0,1.251,0.521,1.28,1.183c0.026,0.678-0.503,1.252-1.182,1.28C28.578,32.574,28.534,32.575,28.53,32.575z M28.529,30.61
			c-0.432,0.02-0.745,0.36-0.729,0.765c0.018,0.395,0.338,0.7,0.729,0.7v0.25l0.03-0.251c0.401-0.018,0.718-0.357,0.701-0.761
			C29.245,30.92,28.923,30.61,28.529,30.61z"/>
		<circle cx="28.533" cy="31.394" r="0.425"/>
		<path d="M31.942,32.433c-0.663,0-1.203-0.521-1.229-1.181c-0.014-0.327,0.103-0.645,0.324-0.886
			c0.222-0.242,0.526-0.384,0.854-0.396c0.001,0,0.001,0,0.002,0c0.711,0,1.25,0.52,1.277,1.18c0.027,0.679-0.502,1.252-1.18,1.281
			C31.991,32.432,31.945,32.433,31.942,32.433z M31.944,30.47c-0.229,0.009-0.406,0.092-0.539,0.234
			c-0.132,0.146-0.2,0.331-0.191,0.525c0.018,0.394,0.336,0.701,0.729,0.701v0.25l0.031-0.251c0.4-0.019,0.717-0.358,0.699-0.761
			C32.658,30.777,32.337,30.47,31.944,30.47z"/>
		<circle cx="31.944" cy="31.251" r="0.424"/>
		<g>
			<path d="M8.708,33.015c-0.136,0-0.248-0.109-0.25-0.246c-0.002-0.139,0.107-0.252,0.246-0.254c0.003,0,0.167-0.003,0.469-0.021
				c0.151-0.01,0.259,0.098,0.267,0.233c0.009,0.139-0.098,0.256-0.234,0.266c-0.318,0.021-0.491,0.022-0.491,0.022
				C8.711,33.015,8.709,33.015,8.708,33.015z"/>
			<path d="M10.129,32.913c-0.126,0-0.233-0.097-0.248-0.225c-0.014-0.138,0.085-0.26,0.225-0.273
				c0.275-0.027,0.59-0.063,0.936-0.109c0.133-0.027,0.265,0.076,0.281,0.214c0.019,0.138-0.077,0.264-0.214,0.281
				c-0.353,0.047-0.669,0.084-0.951,0.111C10.146,32.913,10.139,32.913,10.129,32.913z M12.013,32.661
				c-0.12,0-0.228-0.087-0.246-0.209c-0.022-0.137,0.068-0.266,0.206-0.287c0.294-0.048,0.604-0.104,0.928-0.166
				c0.131-0.021,0.266,0.062,0.293,0.197c0.026,0.137-0.062,0.269-0.198,0.294c-0.329,0.062-0.643,0.118-0.939,0.168
				C12.04,32.66,12.025,32.661,12.013,32.661z M13.876,32.302c-0.113,0-0.218-0.08-0.244-0.196c-0.028-0.135,0.058-0.269,0.19-0.298
				c0.297-0.064,0.603-0.138,0.917-0.216c0.13-0.033,0.27,0.048,0.303,0.182c0.033,0.135-0.048,0.271-0.182,0.304
				c-0.319,0.08-0.629,0.151-0.931,0.22C13.913,32.301,13.895,32.302,13.876,32.302z M15.718,31.844
				c-0.107,0-0.21-0.072-0.239-0.185c-0.037-0.134,0.041-0.271,0.174-0.309c0.295-0.083,0.597-0.171,0.904-0.266
				c0.131-0.041,0.271,0.032,0.312,0.165c0.041,0.134-0.033,0.271-0.166,0.312c-0.311,0.097-0.616,0.186-0.917,0.27
				C15.764,31.841,15.741,31.844,15.718,31.844z M17.533,31.284c-0.104,0-0.202-0.063-0.237-0.17
				c-0.044-0.132,0.026-0.271,0.157-0.316c0.292-0.1,0.588-0.203,0.888-0.313c0.128-0.047,0.273,0.02,0.321,0.147
				c0.048,0.128-0.018,0.271-0.146,0.32c-0.305,0.111-0.604,0.22-0.9,0.318C17.585,31.28,17.559,31.284,17.533,31.284z
				 M19.312,30.627c-0.101,0-0.192-0.061-0.232-0.156c-0.052-0.128,0.01-0.273,0.139-0.325c0.287-0.116,0.576-0.236,0.868-0.363
				c0.126-0.054,0.274,0.001,0.329,0.129c0.057,0.126-0.002,0.273-0.129,0.329c-0.295,0.129-0.589,0.252-0.881,0.369
				C19.375,30.621,19.342,30.627,19.312,30.627z M21.049,29.867c-0.093,0-0.183-0.054-0.226-0.144
				c-0.059-0.125-0.006-0.273,0.119-0.333c0.28-0.133,0.562-0.271,0.844-0.415c0.124-0.062,0.274-0.015,0.336,0.107
				c0.063,0.123,0.016,0.273-0.107,0.337c-0.287,0.146-0.572,0.286-0.857,0.423C21.122,29.859,21.085,29.867,21.049,29.867z
				 M22.737,29.005c-0.088,0-0.173-0.047-0.219-0.13c-0.067-0.12-0.023-0.271,0.098-0.339c0.272-0.148,0.544-0.307,0.816-0.468
				c0.116-0.07,0.271-0.032,0.342,0.087c0.071,0.119,0.032,0.272-0.087,0.342c-0.276,0.164-0.555,0.321-0.83,0.477
				C22.819,28.994,22.778,29.005,22.737,29.005z M24.368,28.035c-0.082,0-0.163-0.041-0.21-0.114
				c-0.075-0.115-0.041-0.271,0.076-0.346c0.262-0.167,0.521-0.341,0.783-0.52c0.109-0.078,0.269-0.051,0.348,0.062
				c0.078,0.114,0.05,0.271-0.063,0.35c-0.264,0.182-0.528,0.356-0.796,0.526C24.459,28.022,24.414,28.035,24.368,28.035z
				 M25.93,26.961c-0.076,0-0.152-0.034-0.201-0.102c-0.082-0.111-0.061-0.268,0.052-0.35c0.25-0.187,0.499-0.375,0.746-0.571
				c0.105-0.085,0.266-0.068,0.352,0.041c0.086,0.107,0.067,0.265-0.041,0.351c-0.251,0.2-0.504,0.396-0.758,0.582
				C26.034,26.944,25.98,26.961,25.93,26.961z M27.413,25.781c-0.07,0-0.142-0.029-0.188-0.087
				c-0.092-0.104-0.078-0.263,0.025-0.353c0.235-0.202,0.473-0.409,0.703-0.622c0.104-0.095,0.26-0.086,0.354,0.015
				c0.093,0.103,0.086,0.26-0.017,0.354c-0.234,0.218-0.477,0.429-0.716,0.635C27.527,25.763,27.471,25.781,27.413,25.781z
				 M28.809,24.499c-0.063,0-0.129-0.023-0.18-0.072c-0.098-0.101-0.096-0.258,0.002-0.354c0.223-0.218,0.439-0.442,0.656-0.671
				c0.095-0.1,0.252-0.106,0.354-0.01c0.102,0.095,0.104,0.253,0.011,0.353c-0.221,0.234-0.442,0.462-0.668,0.686
				C28.936,24.476,28.873,24.499,28.809,24.499z M30.107,23.12c-0.061,0-0.116-0.021-0.165-0.062
				c-0.104-0.091-0.114-0.249-0.023-0.354c0.204-0.232,0.406-0.472,0.604-0.717c0.087-0.108,0.245-0.125,0.353-0.037
				c0.106,0.087,0.124,0.245,0.037,0.353c-0.203,0.25-0.408,0.493-0.616,0.731C30.247,23.092,30.177,23.12,30.107,23.12z
				 M31.302,21.649c-0.053,0-0.104-0.018-0.148-0.05c-0.109-0.083-0.132-0.24-0.049-0.351c0.188-0.248,0.371-0.501,0.551-0.76
				c0.08-0.114,0.236-0.141,0.349-0.062c0.113,0.078,0.143,0.234,0.062,0.348c-0.186,0.264-0.371,0.521-0.562,0.774
				C31.452,21.615,31.377,21.649,31.302,21.649z M32.386,20.095c-0.046,0-0.093-0.014-0.135-0.04
				c-0.116-0.075-0.148-0.229-0.075-0.346c0.168-0.261,0.333-0.526,0.495-0.798c0.071-0.12,0.227-0.158,0.345-0.087
				c0.117,0.071,0.156,0.225,0.087,0.343c-0.165,0.276-0.333,0.547-0.504,0.812C32.548,20.054,32.468,20.095,32.386,20.095z
				 M33.354,18.467c-0.041,0-0.082-0.011-0.12-0.031c-0.121-0.066-0.166-0.218-0.101-0.339c0.149-0.272,0.297-0.55,0.438-0.832
				c0.062-0.124,0.213-0.171,0.337-0.11c0.122,0.062,0.172,0.213,0.109,0.336c-0.146,0.287-0.294,0.568-0.446,0.845
				C33.528,18.42,33.442,18.467,33.354,18.467z M34.209,16.776c-0.035,0-0.069-0.007-0.104-0.023
				c-0.125-0.058-0.182-0.207-0.122-0.332c0.13-0.28,0.257-0.566,0.381-0.858c0.055-0.127,0.202-0.187,0.328-0.132
				c0.127,0.054,0.188,0.2,0.133,0.328c-0.127,0.296-0.256,0.587-0.388,0.873C34.394,16.722,34.303,16.776,34.209,16.776z"/>
			<path d="M34.954,15.018c-0.03,0-0.062-0.005-0.091-0.018c-0.128-0.05-0.192-0.194-0.143-0.323c0.058-0.149,0.112-0.3,0.17-0.451
				c0.048-0.129,0.19-0.195,0.319-0.149c0.13,0.047,0.195,0.191,0.148,0.321c-0.058,0.155-0.113,0.308-0.173,0.46
				C35.147,14.957,35.054,15.018,34.954,15.018z"/>
		</g>
		<g>
			<g>
				<path d="M3.959,36.599c-0.116,0-0.219-0.082-0.245-0.199l-0.82-3.848c-0.029-0.137,0.057-0.27,0.19-0.298
					c0.137-0.025,0.27,0.059,0.297,0.19l0.822,3.85c0.029,0.137-0.057,0.27-0.19,0.299C3.995,36.597,3.977,36.599,3.959,36.599z"/>
				<path d="M1.705,35.704c-0.079,0-0.157-0.038-0.206-0.106c-0.079-0.113-0.05-0.271,0.063-0.35l3.234-2.238
					c0.113-0.079,0.271-0.052,0.35,0.062s0.05,0.271-0.063,0.35L1.849,35.66C1.804,35.689,1.753,35.704,1.705,35.704z"/>
			</g>
			<g>
				<path d="M6.555,37.212c-0.099,0-0.188-0.058-0.229-0.148l-1.566-3.609c-0.055-0.127,0.005-0.272,0.132-0.329
					c0.128-0.054,0.272,0.004,0.327,0.131l1.566,3.608c0.055,0.127-0.003,0.273-0.13,0.328C6.622,37.205,6.587,37.212,6.555,37.212z
					"/>
				<path d="M4.167,36.782c-0.062,0-0.125-0.021-0.173-0.069c-0.1-0.097-0.103-0.255-0.007-0.354l2.729-2.835
					c0.099-0.098,0.257-0.103,0.354-0.007c0.1,0.096,0.103,0.254,0.007,0.354l-2.729,2.834C4.298,36.756,4.232,36.782,4.167,36.782z
					"/>
			</g>
			<g>
				<path d="M8.923,37.761c-0.096,0-0.188-0.059-0.229-0.15l-1.567-3.607c-0.055-0.126,0.003-0.273,0.13-0.329
					c0.125-0.055,0.274,0.004,0.329,0.131l1.567,3.606c0.055,0.126-0.003,0.273-0.13,0.329C8.991,37.753,8.957,37.761,8.923,37.761z
					"/>
				<path d="M6.536,37.33c-0.062,0-0.125-0.021-0.173-0.067c-0.1-0.099-0.104-0.256-0.007-0.354l2.729-2.836
					c0.099-0.1,0.255-0.101,0.354-0.007c0.1,0.097,0.103,0.254,0.007,0.354l-2.73,2.835C6.667,37.306,6.602,37.33,6.536,37.33z"/>
			</g>
			<g>
				<path d="M11.601,38.09c-0.084,0-0.167-0.043-0.214-0.12l-2.024-3.372c-0.071-0.119-0.033-0.271,0.085-0.344
					c0.12-0.068,0.272-0.031,0.343,0.085l2.024,3.372c0.069,0.118,0.033,0.271-0.085,0.345C11.688,38.078,11.645,38.09,11.601,38.09
					z"/>
				<path d="M9.177,37.976c-0.054,0-0.104-0.018-0.148-0.049c-0.111-0.082-0.135-0.238-0.053-0.352l2.336-3.166
					c0.082-0.109,0.24-0.134,0.35-0.054c0.111,0.082,0.135,0.238,0.053,0.351l-2.336,3.166C9.33,37.94,9.253,37.976,9.177,37.976z"
					/>
			</g>
			<g>
				<path d="M14.197,38.308c-0.084,0-0.167-0.043-0.214-0.123l-2.024-3.374c-0.069-0.118-0.033-0.271,0.086-0.343
					c0.117-0.071,0.272-0.032,0.345,0.086l2.022,3.375c0.071,0.116,0.033,0.271-0.086,0.342
					C14.287,38.295,14.242,38.308,14.197,38.308z"/>
				<path d="M11.773,38.192c-0.052,0-0.104-0.016-0.148-0.049c-0.109-0.082-0.135-0.238-0.053-0.353l2.336-3.166
					c0.083-0.109,0.239-0.133,0.35-0.054c0.111,0.082,0.137,0.238,0.055,0.352l-2.336,3.166
					C11.926,38.157,11.851,38.192,11.773,38.192z"/>
			</g>
		</g>
		<path d="M35.161,28.674c-0.081,0-0.163-0.021-0.238-0.062c-0.21-0.113-0.311-0.359-0.237-0.588l1.424-4.576l-2.462,0.103
			c-0.216,0.009-0.394-0.107-0.478-0.292c-0.084-0.186-0.048-0.402,0.091-0.551l5.88-6.238c0.16-0.173,0.422-0.208,0.623-0.085
			c0.2,0.121,0.291,0.367,0.214,0.591l-1.332,3.851l2.25-0.094c0.208-0.013,0.381,0.101,0.469,0.277
			c0.089,0.176,0.062,0.389-0.062,0.542l-5.754,6.94C35.447,28.61,35.306,28.674,35.161,28.674z M36.796,22.419
			c0.155,0,0.304,0.072,0.396,0.195c0.1,0.129,0.129,0.298,0.081,0.453l-0.884,2.839l3.423-4.129l-1.859,0.078
			c-0.176,0.013-0.324-0.068-0.423-0.201c-0.099-0.132-0.125-0.305-0.071-0.462l0.812-2.342l-3.438,3.649l1.944-0.081
			C36.781,22.419,36.789,22.419,36.796,22.419z"/>
		<path d="M31.667,17.011c-0.662,0-1.202-0.519-1.229-1.181c-0.015-0.329,0.103-0.644,0.325-0.886
			c0.223-0.242,0.525-0.382,0.854-0.396c0.001,0,0.001,0,0.002,0c0.712,0,1.25,0.519,1.277,1.18
			c0.026,0.678-0.501,1.252-1.181,1.281C31.715,17.01,31.67,17.011,31.667,17.011z M31.669,15.05
			c-0.228,0.009-0.408,0.092-0.54,0.235c-0.132,0.145-0.201,0.331-0.19,0.526c0.017,0.393,0.337,0.7,0.729,0.7v0.25l0.031-0.251
			c0.402-0.018,0.717-0.357,0.699-0.761C32.381,15.357,32.062,15.05,31.669,15.05z"/>
		<circle cx="31.669" cy="15.831" r="0.424"/>
		<g>
			<path d="M29.747,16.683c-1.667,0-2.211-0.661-2.238-0.694c-0.086-0.108-0.066-0.266,0.041-0.351
				c0.106-0.085,0.265-0.067,0.351,0.037c0.016,0.017,0.677,0.742,2.867,0.43c0.131-0.017,0.264,0.075,0.281,0.212
				c0.021,0.137-0.074,0.263-0.212,0.283C30.429,16.659,30.066,16.683,29.747,16.683z"/>
			<path d="M30.469,15.373c-1.268,0-2.382-0.774-2.435-0.812c-0.113-0.08-0.141-0.235-0.061-0.349
				c0.079-0.111,0.233-0.14,0.348-0.061c0.014,0.009,1.309,0.903,2.562,0.686c0.133-0.025,0.267,0.067,0.29,0.203
				c0.023,0.137-0.065,0.267-0.201,0.29C30.802,15.36,30.634,15.373,30.469,15.373z"/>
		</g>
	</g>
</g>
<g>
</g>
<g>
</g>
<g>
</g>
<g>
</g>
<g>
</g>
<g>
</g>
<g>
</g>
<g>
</g>
<g>
</g>
<g>
</g>
<g>
</g>
<g>
</g>
<g>
</g>
<g>
</g>
<g>
</g>
</svg>
