<?xml version='1.0' encoding='iso-8859-1'?>
<svg version="1.1" xmlns="http://www.w3.org/2000/svg" viewBox="0 0 309.906 309.906" xmlns:xlink="http://www.w3.org/1999/xlink" enable-background="new 0 0 309.906 309.906">
  <g>
    <g>
      <path d="m152.407,268.573c0-5.523-4.478-10-10-10h-130.732c-5.522,0-10,4.477-10,10 0,5.522 4.478,10 10,10h130.732c5.523,0 10-4.478 10-10z"/>
      <path d="m297.464,289.906h-181.933c-5.522,0-10,4.478-10,10 0,5.523 4.478,10 10,10h181.933c5.523,0 10-4.477 10-10s-4.477-10-10-10z"/>
      <path d="m238.467,278.573c5.522,0 10-4.478 10-10 0-5.523-4.478-10-10-10h-55.003c-5.522,0-10,4.477-10,10 0,5.522 4.478,10 10,10h55.003z"/>
      <path d="m99.123,98.438l23.372,41.048c2.071,3.638 5.825,5.997 10.001,6.286l49.822,3.439c6.98,0.465 12.861-4.795 13.332-11.609 0.475-6.888-4.723-12.856-11.609-13.332l-43.137-2.977-20.056-35.223 18.15,18.483 2.491-11.71c2.142-10.068-4.284-19.966-14.352-22.108l-32.509-6.915c-10.068-2.142-19.966,4.284-22.108,14.352l-14.3,67.223h53.338l-12.435-46.957z"/>
      <circle cx="122.755" cy="27.59" r="27.59"/>
      <path d="m304.091,150.615l-126.388-104.208c-3.762-3.101-9.077-3.462-13.224-0.899-4.146,2.563-6.198,7.481-5.105,12.231l12.233,53.145 13.292,.917c4.051,0.28 7.806,1.515 11.069,3.463l-6.904-29.992 79.042,65.172-62.798,5.397-1.238-5.376c-4.964,7.542-13.599,11.838-22.616,11.217-35.219-2.419-58.007-4.288-58.007-4.288h-81.082c-12.742,0-23.074,10.325-23.083,23.067l-.029,42.724c-0.009,12.747 10.331,23.099 23.083,23.099h117.382c58.567,0 113.193-29.503 145.308-78.479 0.243-0.371 2.242-3.587 2.69-5.028 1.375-4.414-0.058-9.222-3.625-12.162z"/>
    </g>
  </g>
</svg>
