<?xml version="1.0" encoding="iso-8859-1"?>
<!-- Generator: Adobe Illustrator 19.0.0, SVG Export Plug-In . SVG Version: 6.00 Build 0)  -->
<svg version="1.1" id="Layer_1" xmlns="http://www.w3.org/2000/svg" xmlns:xlink="http://www.w3.org/1999/xlink" x="0px" y="0px"
	 viewBox="0 0 367.854 367.854" style="enable-background:new 0 0 367.854 367.854;" xml:space="preserve">
<g id="XMLID_509_">
	<g>
		<path d="M340,163.471c-4.924,12.309-11.837,20.095-20.547,23.142c-0.317,0.111-0.63,0.207-0.941,0.303
			c0.271-2.588,0.415-5.214,0.415-7.873v-30h-30v30c0,19.555-12.541,36.227-30,42.42v-32.42h-30v35h-30v-38.334
			c0-13.785,11.215-25,25-25c41.356,0,75-33.645,75-75h-30c0,15.741-8.13,29.611-20.404,37.655
			c-52.565-19.68-54.112-72.267-54.152-74.552L179.372,49l-15,0.116c0.006,0.819,0.267,20.325,10.038,42.645
			c5.711,13.044,15.438,28.737,31.845,41.878c-21.681,7.379-37.328,27.925-37.328,52.07v13.375
			c-12.544-9.438-28.129-15.041-45-15.041c-4.646,0-9.129-0.708-13.349-2.021c3.188-2.198,6.472-4.777,9.724-7.812
			c26.839-25.037,30.113-60.203,28.134-85.294l-29.907,2.359c2.076,26.308-3.893,46.524-17.738,60.088
			c-5.496,5.384-11.279,8.711-15.534,10.658c-4.015-6.73-6.33-14.588-6.33-22.979v-60h-30v44.543
			c-0.176-0.058-0.35-0.107-0.527-0.17c-8.709-3.047-15.622-10.833-20.546-23.142L0,111.416
			c12.254,30.634,33.605,41.144,50.553,43.15c7.171,33.93,37.341,59.476,73.374,59.476c24.813,0,45,20.186,45,45v4.336
			c-25.114-2.155-49.543-9.678-71.401-22.114c-25.42-14.463-47.01-35.254-62.436-60.126L9.595,196.95
			c12.621,20.35,28.778,38.355,47.518,53.141C49.571,263.228,35.521,264,33.754,264.043l0.173-0.001v30
			c1.458,0,31.704-0.351,48.141-27.07c0.209,0.12,0.413,0.248,0.623,0.367c23.783,13.531,50.149,22.096,77.333,25.281l-6.097,26.422
			h60l-15-65h34.968c7.986,16.394,20.866,28.73,37.769,35.975c14.799,6.343,27.527,6.525,28.93,6.525v-30l0.118,0.001
			c-1.029-0.017-20.386-0.569-33.655-16.167c17.167-5.58,31.641-17.184,40.897-32.318c0.977,0.059,1.983,0.09,3.018,0.09
			c17.596,0,43.044-8.941,56.882-43.534L340,163.471z"/>
	</g>
</g>
<g>
</g>
<g>
</g>
<g>
</g>
<g>
</g>
<g>
</g>
<g>
</g>
<g>
</g>
<g>
</g>
<g>
</g>
<g>
</g>
<g>
</g>
<g>
</g>
<g>
</g>
<g>
</g>
<g>
</g>
</svg>
