<?xml version="1.0" encoding="iso-8859-1"?>
<!-- Generator: Adobe Illustrator 18.0.0, SVG Export Plug-In . SVG Version: 6.00 Build 0)  -->
<!DOCTYPE svg PUBLIC "-//W3C//DTD SVG 1.1//EN" "http://www.w3.org/Graphics/SVG/1.1/DTD/svg11.dtd">
<svg version="1.1" id="Capa_1" xmlns="http://www.w3.org/2000/svg" xmlns:xlink="http://www.w3.org/1999/xlink" x="0px" y="0px"
	 viewBox="0 0 54 54" style="enable-background:new 0 0 54 54;" xml:space="preserve">
<g>
	<path d="M21.629,44.533c-0.213,0.51,0.028,1.096,0.538,1.308c1.39,0.579,2.896,0.869,4.41,0.869c1.415,0,2.835-0.253,4.171-0.762
		c2.856-1.086,5.05-3.173,6.175-5.875c0.212-0.51-0.028-1.096-0.538-1.308c-0.511-0.214-1.096,0.028-1.308,0.538
		c-0.913,2.19-2.703,3.886-5.041,4.775c-2.291,0.871-4.879,0.842-7.1-0.084C22.426,43.78,21.841,44.024,21.629,44.533z"/>
	<path d="M53.707,25.981l-7.999-7.999c-0.001,0-0.001-0.001-0.002-0.002L28.769,1.043c-0.976-0.975-2.563-0.975-3.538,0
		L0.293,25.981c-0.286,0.286-0.372,0.716-0.217,1.09S0.596,27.688,1,27.688h4.148C3.864,28.8,3,30.506,3,32.188
		c0,2.153,1.268,4.089,3.208,4.979C8.704,46.922,17.385,53.688,27.5,53.688c10.115,0,18.796-6.767,21.292-16.521
		C50.731,36.277,52,34.342,52,32.188c0-1.682-0.863-3.388-2.148-4.5H53c0.404,0,0.77-0.243,0.924-0.617
		C54.079,26.697,53.993,26.267,53.707,25.981z M47.015,27.861c0.061,0.342,0.293,0.628,0.616,0.756
		C48.937,29.138,50,30.739,50,32.188c0,1.486-0.956,2.812-2.38,3.296c-0.327,0.111-0.574,0.384-0.652,0.721
		C44.859,45.321,36.854,51.688,27.5,51.688c-9.354,0-17.36-6.367-19.468-15.483c-0.078-0.337-0.324-0.609-0.652-0.721
		C5.957,35,5,33.675,5,32.188c0-1.449,1.063-3.051,2.37-3.57c0.322-0.129,0.555-0.414,0.615-0.755
		c0.01-0.059,0.021-0.117,0.033-0.175h38.964C46.994,27.746,47.005,27.804,47.015,27.861z M47.777,25.688H7.223H3.414l3-3h8.664
		c0.552,0,1-0.447,1-1s-0.448-1-1-1H8.414L26.645,2.457c0.195-0.195,0.515-0.195,0.71,0l15.231,15.231H36c-0.552,0-1,0.447-1,1
		s0.448,1,1,1h8.586l6,6H47.777z"/>
	<path d="M14.553,32.583l8,4c0.144,0.071,0.296,0.105,0.446,0.105c0.367,0,0.72-0.202,0.896-0.553
		c0.247-0.494,0.047-1.095-0.447-1.342l-8-4c-0.495-0.246-1.095-0.047-1.342,0.447S14.059,32.336,14.553,32.583z"/>
	<path d="M33.001,36.688c0.15,0,0.303-0.034,0.446-0.105l8-4c0.494-0.247,0.694-0.848,0.447-1.342s-0.847-0.693-1.342-0.447l-8,4
		c-0.494,0.247-0.694,0.848-0.447,1.342C32.281,36.486,32.634,36.688,33.001,36.688z"/>
</g>
<g>
</g>
<g>
</g>
<g>
</g>
<g>
</g>
<g>
</g>
<g>
</g>
<g>
</g>
<g>
</g>
<g>
</g>
<g>
</g>
<g>
</g>
<g>
</g>
<g>
</g>
<g>
</g>
<g>
</g>
</svg>
