<?xml version="1.0" encoding="iso-8859-1"?>
<!-- Generator: Adobe Illustrator 19.0.0, SVG Export Plug-In . SVG Version: 6.00 Build 0)  -->
<svg version="1.1" id="Layer_1" xmlns="http://www.w3.org/2000/svg" xmlns:xlink="http://www.w3.org/1999/xlink" x="0px" y="0px"
	 viewBox="0 0 320 320" style="enable-background:new 0 0 320 320;" xml:space="preserve">
<g id="XMLID_848_">
	<g>
		<path d="M290,0H30v320h40V180h220l-40-90L290,0z M185.963,111.82c5.857-5.858,15.353-5.857,21.212,0
			c5.857,5.857,5.857,15.355,0,21.213c-2.721,2.721-6.227,4.16-9.788,4.354c-0.193,3.563-1.633,7.068-4.354,9.789
			c-5.858,5.857-15.355,5.857-21.213,0c-5.858-5.858-5.858-15.355-0.001-21.214L150,104.143l-21.819,21.819
			c5.857,5.858,5.857,15.355,0,21.213c-5.857,5.858-15.355,5.858-21.213,0c-2.721-2.72-4.161-6.227-4.354-9.788
			c-3.561-0.193-7.067-1.633-9.788-4.354c-5.857-5.858-5.857-15.356,0-21.213c5.858-5.858,15.354-5.858,21.212,0L135.857,90
			l-21.82-21.82c-5.857,5.858-15.354,5.858-21.212,0c-5.857-5.857-5.857-15.355,0-21.213c2.721-2.721,6.227-4.16,9.788-4.354
			c0.193-3.562,1.634-7.068,4.354-9.788c5.857-5.858,15.355-5.858,21.213,0c5.857,5.858,5.857,15.354,0,21.213L150,75.857
			l21.819-21.819c-5.857-5.858-5.857-15.356,0.001-21.214c5.857-5.857,15.355-5.857,21.213,0c2.721,2.721,4.16,6.227,4.354,9.789
			c3.561,0.193,7.067,1.633,9.788,4.354c5.857,5.857,5.857,15.355,0,21.213c-5.858,5.857-15.355,5.858-21.212,0L164.143,90
			L185.963,111.82z"/>
	</g>
</g>
<g>
</g>
<g>
</g>
<g>
</g>
<g>
</g>
<g>
</g>
<g>
</g>
<g>
</g>
<g>
</g>
<g>
</g>
<g>
</g>
<g>
</g>
<g>
</g>
<g>
</g>
<g>
</g>
<g>
</g>
</svg>
