<?xml version="1.0" encoding="iso-8859-1"?>
<!-- Generator: Adobe Illustrator 19.0.0, SVG Export Plug-In . SVG Version: 6.00 Build 0)  -->
<svg version="1.1" id="Layer_1" xmlns="http://www.w3.org/2000/svg" xmlns:xlink="http://www.w3.org/1999/xlink" x="0px" y="0px"
	 viewBox="0 0 440 440" style="enable-background:new 0 0 440 440;" xml:space="preserve">
<g id="XMLID_71_">
	<g>
		<path d="M440,140c-18.959,0-55.884,71.876-59.677,79.36c-26.76-9.369-68.239-23.358-110.161-35.404
			C270.905,169.953,273.68,130,273.68,130c-30.911,3.934-46.444,25.7-53.597,40.742c-0.045-0.011-0.09-0.021-0.135-0.032L140,120
			l-16.579,41.446C33.491,171.422,0,230,0,230s22.062,38.582,78.442,58.457C97.435,275.926,110,254.408,110,230h20
			c0,25.582-10.729,48.706-27.923,65.107C116.314,298.168,132.239,300,150,300c1.778,0,3.631-0.045,5.547-0.128
			c5.413,7.502,12.684,14.536,22.454,20.128l8.869-23.854c17.626-3.051,37.577-7.695,58.124-13.139
			c9.898,12.95,25.859,26.738,50.033,29.815l-9.066-41.411c36.344-10.866,70.974-22.583,94.362-30.771
			C384.116,248.124,421.041,320,440,320c0,0-20-40-20-90S440,140,440,140z M69.999,230c-5.523,0-10-4.477-10-10s4.477-10,10-10
			s10,4.477,10,10S75.522,230,69.999,230z"/>
	</g>
</g>
<g>
</g>
<g>
</g>
<g>
</g>
<g>
</g>
<g>
</g>
<g>
</g>
<g>
</g>
<g>
</g>
<g>
</g>
<g>
</g>
<g>
</g>
<g>
</g>
<g>
</g>
<g>
</g>
<g>
</g>
</svg>
