<?xml version="1.0" encoding="iso-8859-1"?>
<!-- Generator: Adobe Illustrator 16.0.0, SVG Export Plug-In . SVG Version: 6.00 Build 0)  -->
<!DOCTYPE svg PUBLIC "-//W3C//DTD SVG 1.1//EN" "http://www.w3.org/Graphics/SVG/1.1/DTD/svg11.dtd">
<svg version="1.1" id="Capa_1" xmlns="http://www.w3.org/2000/svg" xmlns:xlink="http://www.w3.org/1999/xlink" x="0px" y="0px"
	 width="202.834px" height="202.834px" viewBox="0 0 202.834 202.834" style="enable-background:new 0 0 202.834 202.834;"
	 xml:space="preserve">
<g>
	<g>
		<path d="M173.514,48.352c-0.131-0.173-0.275-0.328-0.43-0.468c0.039-0.35,0.061-0.703,0.061-1.059
			c0-3.269-4.041-9.544-7.519-14.34c4.825-3.429,7.519-8.48,7.519-14.32C173.145,7.809,164.95,0,154.081,0H48.566
			C37.697,0,29.501,7.809,29.501,18.165c0,5.715,2.58,10.673,7.21,14.097c-0.892,1.01-1.915,2.195-2.945,3.444
			c-5.6,6.794-6.372,9.359-6.372,11.119c0,1.174,0.219,2.315,0.628,3.403c-3.014,4.715-4.6,10.133-4.6,15.797v107.4
			c0,16.216,13.194,29.409,29.411,29.409h97.168c16.216,0,29.41-13.193,29.41-29.409v-107.4
			C179.412,59.59,177.373,53.479,173.514,48.352z M43.44,34.867h100.876c1.865,0,3.375-1.511,3.375-3.375
			c0-1.864-1.51-3.375-3.375-3.375c0,0-99.439,0-101.508,0c-2.069,0-6.558-4.575-6.558-9.952c0-6.508,5.295-11.415,12.315-11.415
			H154.08c7.021,0,12.315,4.907,12.315,11.415c0,5.744-3.914,8.751-7.197,10.262c-1.44,0.663-2.225,2.239-1.885,3.788
			c0.151,0.694,0.51,1.299,1.004,1.755c4.086,5.376,7.793,11.304,8.076,12.926c-0.009,0.371-0.084,0.73-0.228,1.068l0,0
			c-0.46,1.088-1.521,1.79-2.703,1.79c-1.616,0-2.931-1.314-2.931-2.929c0-5.338-4.344-9.681-9.682-9.681
			c-5.339,0-9.682,4.343-9.682,9.681c0,1.615-1.312,2.929-2.927,2.929c-1.616,0-2.933-1.314-2.933-2.929
			c0-5.338-4.343-9.681-9.681-9.681s-9.683,4.343-9.683,9.681c0,1.615-1.314,2.929-2.93,2.929c-1.617,0-2.932-1.314-2.932-2.929
			c0-5.338-4.344-9.681-9.681-9.681c-5.339,0-9.682,4.343-9.682,9.681c0,1.615-1.315,2.929-2.932,2.929
			c-1.616,0-2.931-1.314-2.931-2.929c0-5.338-4.341-9.681-9.677-9.681c-5.341,0-9.687,4.343-9.687,9.681
			c0,1.615-1.313,2.929-2.926,2.929c-1.616,0-2.931-1.314-2.931-2.929c0-5.338-4.344-9.681-9.682-9.681
			c-5.393,0-9.95,4.433-9.95,9.681c0,1.615-1.315,2.929-2.931,2.929c-1.182,0-2.243-0.703-2.703-1.79l0,0
			c-0.133-0.314-0.208-0.647-0.225-0.991C34.638,45.288,38.734,39.969,43.44,34.867z M172.662,173.424
			c0,12.494-10.165,22.659-22.66,22.659H52.834c-12.495,0-22.661-10.165-22.661-22.659v-107.4c0-3.724,0.889-7.309,2.59-10.536
			c1.313,0.653,2.781,1.015,4.313,1.015c5.338,0,9.681-4.342,9.681-9.679c0-1.534,1.525-2.931,3.2-2.931
			c1.617,0,2.932,1.315,2.932,2.931c0,5.337,4.343,9.679,9.681,9.679c5.335,0,9.676-4.342,9.676-9.679
			c0-1.616,1.318-2.931,2.937-2.931c1.614,0,2.927,1.315,2.927,2.931c0,5.337,4.343,9.679,9.681,9.679
			c5.339,0,9.682-4.342,9.682-9.679c0-1.616,1.315-2.931,2.932-2.931s2.931,1.315,2.931,2.931c0,5.337,4.344,9.679,9.682,9.679
			s9.68-4.342,9.68-9.679c0-1.616,1.316-2.931,2.933-2.931s2.931,1.315,2.931,2.931c0,5.337,4.344,9.679,9.683,9.679
			c5.336,0,9.677-4.342,9.677-9.679c0-1.616,1.314-2.931,2.932-2.931c1.615,0,2.932,1.315,2.932,2.931
			c0,5.337,4.343,9.679,9.681,9.679c2.231,0,4.329-0.762,6.003-2.084c2.094,3.496,3.194,7.462,3.194,11.605V173.424L172.662,173.424
			z"/>
		<path d="M159.401,79.239H43.435c-1.864,0-3.375,1.511-3.375,3.375v75.151c0,1.863,1.511,3.375,3.375,3.375h115.966
			c1.863,0,3.375-1.512,3.375-3.375V82.614C162.776,80.75,161.264,79.239,159.401,79.239z M156.026,154.391H46.81V85.989h109.216
			V154.391z"/>
	</g>
</g>
<g>
</g>
<g>
</g>
<g>
</g>
<g>
</g>
<g>
</g>
<g>
</g>
<g>
</g>
<g>
</g>
<g>
</g>
<g>
</g>
<g>
</g>
<g>
</g>
<g>
</g>
<g>
</g>
<g>
</g>
</svg>
