<?xml version="1.0" encoding="iso-8859-1"?>
<!-- Generator: Adobe Illustrator 18.1.1, SVG Export Plug-In . SVG Version: 6.00 Build 0)  -->
<svg version="1.1" id="Capa_1" xmlns="http://www.w3.org/2000/svg" xmlns:xlink="http://www.w3.org/1999/xlink" x="0px" y="0px"
	 viewBox="0 0 19.816 19.816" style="enable-background:new 0 0 19.816 19.816;" xml:space="preserve">
<g>
	<path style="fill:#030104;" d="M19.816,11.753v-0.358c-2.6,0-3.757-2.303-4.128-3.035V7.841c0-0.005-0.008-0.012-0.01-0.017v-1.46
		h-0.021l-0.21-0.913V5.438h-0.042v0.014l-0.104,0.386h-0.273l-0.23-1.009h0.029l-0.009-0.104h-0.145l-0.008,0.104h0.029
		L14.43,5.836h-0.272l-0.091-0.385V5.438h-0.044v0.014l-0.239,0.914h-0.017v0.943H6.07V6.364H6.056L5.814,5.45V5.438H5.772v0.015
		L5.684,5.836H5.409L5.143,4.827H5.17L5.164,4.725H5.02L5.013,4.827h0.029L4.811,5.836H4.535l-0.1-0.386V5.438H4.392v0.015
		L4.18,6.364H4.16v1.46C4.156,7.829,4.152,7.836,4.15,7.841v0.519C3.777,9.094,2.625,11.4,0,11.4v0.298l0.013,0.06
		c0.603,0,1.133-0.119,1.595-0.312v0.888H0.033v0.379h3.569v2.377h3.005v-1.695l3.263-0.77h0.1l3.261,0.77v1.693h3.005v-2.377h3.571
		v-0.38h-1.591v-0.9C18.685,11.628,19.214,11.753,19.816,11.753z M1.912,11.299c0.498-0.257,0.908-0.595,1.252-0.951v1.982H1.912
		V11.299z M4.229,12.33h-0.76v-2.323c0.328-0.399,0.577-0.788,0.76-1.081V12.33z M6.881,12.849V12.45h1.951L6.881,12.849z
		 M12.806,12.849l-1.951-0.399h1.951V12.849z M13.836,12.066H6.001V8.896l0.069-0.23V8.182h7.696v0.483l0.067,0.229L13.836,12.066
		L13.836,12.066z M15.611,12.33V8.925c0.178,0.286,0.419,0.666,0.742,1.055v2.352L15.611,12.33L15.611,12.33z M17.909,12.33H16.66
		v-2.007c0.342,0.355,0.755,0.701,1.249,0.963V12.33z"/>
</g>
<g>
</g>
<g>
</g>
<g>
</g>
<g>
</g>
<g>
</g>
<g>
</g>
<g>
</g>
<g>
</g>
<g>
</g>
<g>
</g>
<g>
</g>
<g>
</g>
<g>
</g>
<g>
</g>
<g>
</g>
</svg>
