<?xml version='1.0' encoding='iso-8859-1'?>
<svg version="1.1" xmlns="http://www.w3.org/2000/svg" viewBox="0 0 314.758 314.758" xmlns:xlink="http://www.w3.org/1999/xlink" enable-background="new 0 0 314.758 314.758">
  <g>
    <g>
      <path d="m213.245,92.995c2.356,0 5.178,0.379 8.182,1.569 3.192-4.855 2.648-11.443-1.627-15.708-4.887-4.875-12.801-4.865-17.678,0.024l-21.239,21.294c0,0-1.277-8.656-1.518-11.562-1.307-15.774-13.632-28.542-29.563-28.542-8.117,0-59.057,0-67.239,0-16.23,0-29.5,13.204-29.581,29.434l-.462,91.832c-0.034,6.903 5.533,12.527 12.438,12.563 0.021,0 0.042,0 0.063,0 6.874,0 12.464-5.555 12.499-12.438l.462-91.832c0.007-1.368 1.119-2.471 2.487-2.468 1.367,0.004 2.473,1.113 2.473,2.48l.005,210.116c0,8.284 6.716,15 15,15s15-6.716 15-15v-116.657c0-1.788 1.45-3.238 3.238-3.238 1.789,0 3.238,1.45 3.238,3.238v116.658c0,8.284 6.716,15 15,15s15-6.716 15-15c0-198.24-0.265-84.95-0.272-209.83 0-1.391 1.085-2.54 2.474-2.62 1.389-0.08 2.6,0.938 2.758,2.32v0.002c0.666,5.865-0.294-1.482 5.02,38.982 0.819,6.236 6.137,10.873 12.392,10.873 3.268,0 6.468-1.282 8.853-3.673l.286-.286c4.034-19.201 12.585-42.531 32.311-42.531z"/>
      <circle cx="116.183" cy="25.907" r="25.907"/>
      <path d="m261.058,190.685c-6.339-7.806-15.008-15.113-23.235-20.609-2.225-37.329-10.836-65.08-24.577-65.08-16.092,0-25.157,38.047-25.157,84.979 0,25.239 7.274,47.906 14,63.469 2.063,4.774 0.601,10.348-3.548,13.483-9.337,7.057-15.658,20.623-15.658,36.208 0,0.036 0,0.073 0,0.109 0.003,1.622 1.091,3.041 2.656,3.466 0.313,0.085 0.63,0.126 0.943,0.126 1.251,0 2.442-0.655 3.102-1.773 5.564-9.427 14.096-15.46 23.663-15.46 9.541,0 18.051,6 23.617,15.382 0.665,1.121 1.862,1.777 3.119,1.777 0.319,0 0.641-0.042 0.96-0.13 1.576-0.432 2.668-1.864 2.668-3.498 0-15.585-6.321-29.151-15.658-36.208-4.156-3.141-5.614-8.701-3.548-13.483 5.941-13.747 12.301-33.04 13.706-54.748 5.939-0.734 12.192-0.449 18.108,0.451 4.707,0.717 7.842-4.763 4.839-8.461zm-47.085-65.556c0-2.071 1.679-3.75 3.75-3.75s3.75,1.679 3.75,3.75-1.679,3.75-3.75,3.75-3.75-1.679-3.75-3.75z"/>
    </g>
  </g>
</svg>
