<?xml version="1.0" encoding="iso-8859-1"?>
<!-- Generator: Adobe Illustrator 16.0.0, SVG Export Plug-In . SVG Version: 6.00 Build 0)  -->
<!DOCTYPE svg PUBLIC "-//W3C//DTD SVG 1.1//EN" "http://www.w3.org/Graphics/SVG/1.1/DTD/svg11.dtd">
<svg version="1.1" id="Capa_1" xmlns="http://www.w3.org/2000/svg" xmlns:xlink="http://www.w3.org/1999/xlink" x="0px" y="0px"
	 width="588.756px" height="588.756px" viewBox="0 0 588.756 588.756" style="enable-background:new 0 0 588.756 588.756;"
	 xml:space="preserve">
<g>
	<path d="M455.518,224.995l-90.064-90.064l14.258-14.259l90.064,90.064L455.518,224.995z M312.773,140.697L173.767,1.689
		l-47.973,47.973L264.801,188.67L312.773,140.697z M449.746,277.685l-47.971,47.97l139.01,139.01l47.971-47.971L449.746,277.685z
		 M368.461,339.4l95.043-95.044L346.096,126.949l-95.042,95.044l41.929,41.929l-11.636,11.635
		c-44.527-34.375-98.291-40.361-127.018-11.635c-15.378,15.38-20.797,37.939-17.257,62.414h16.972
		c-3.37-18.604-0.8-34.492,7.553-42.846c18.485-18.485,66.012-0.931,106.15,39.211c40.141,40.137,57.697,87.666,39.213,106.15
		c-8.857,8.855-26.178,11.219-46.229,6.883v15.221c24.914,3.881,47.938-1.453,63.558-17.068
		c28.182-28.182,22.963-80.463-9.699-124.48l11.936-11.938L368.461,339.4z M28.905,342.15H0c0,65.42,25.476,126.924,71.738,173.18
		c46.256,46.26,107.761,71.736,173.178,71.736v-28.902c-55.339,0-110.682-21.064-152.812-63.197
		C49.968,452.832,28.904,397.492,28.905,342.15z M244.915,520.027v-28.793c-38.191,0.002-76.39-14.537-105.466-43.615
		c-29.079-29.076-43.618-67.275-43.618-105.469H67.043c0,45.57,17.345,91.145,52.039,125.834
		C153.773,502.678,199.342,520.025,244.915,520.027z M188.893,398.174c-15.447-15.445-23.167-35.736-23.167-56.021l-28.789-0.002
		c-0.003,27.666,10.53,55.33,31.591,76.391c21.061,21.059,48.724,31.592,76.389,31.59l-0.001-28.789
		C224.63,421.342,204.342,413.619,188.893,398.174z M220.752,366.318c6.669,6.672,15.418,10.01,24.167,10.01V342.15h-34.181
		C210.737,350.898,214.076,359.645,220.752,366.318z"/>
</g>
<g>
</g>
<g>
</g>
<g>
</g>
<g>
</g>
<g>
</g>
<g>
</g>
<g>
</g>
<g>
</g>
<g>
</g>
<g>
</g>
<g>
</g>
<g>
</g>
<g>
</g>
<g>
</g>
<g>
</g>
</svg>
