<?xml version="1.0" encoding="iso-8859-1"?>
<!-- Generator: Adobe Illustrator 18.0.0, SVG Export Plug-In . SVG Version: 6.00 Build 0)  -->
<!DOCTYPE svg PUBLIC "-//W3C//DTD SVG 1.1//EN" "http://www.w3.org/Graphics/SVG/1.1/DTD/svg11.dtd">
<svg version="1.1" id="Capa_1" xmlns="http://www.w3.org/2000/svg" xmlns:xlink="http://www.w3.org/1999/xlink" x="0px" y="0px"
	 viewBox="0 0 44 44" style="enable-background:new 0 0 44 44;" xml:space="preserve">
<g>
	<path d="M22,0C9.869,0,0,9.869,0,22s9.869,22,22,22s22-9.869,22-22S34.131,0,22,0z M22,42C10.972,42,2,33.028,2,22S10.972,2,22,2
		s20,8.972,20,20S33.028,42,22,42z"/>
	<path d="M18.613,14.714c0-0.529-0.093-1.031-0.226-1.517c-1.318,0.561-2.768,0.872-4.29,0.872c-2.389,0-4.593-0.772-6.394-2.069
		C7.269,12.814,7,13.728,7,14.714c0,3.207,2.6,5.806,5.806,5.806C16.013,20.521,18.613,17.921,18.613,14.714z"/>
	<path d="M37.387,13.399c-1.318,0.561-2.768,0.872-4.29,0.872c-2.389,0-4.593-0.772-6.394-2.069C26.269,13.016,26,13.931,26,14.917
		c0,3.207,2.6,5.806,5.806,5.806c3.207,0,5.807-2.6,5.807-5.806C37.613,14.388,37.52,13.886,37.387,13.399z"/>
	<path d="M29.048,26.2c-0.441-0.33-1.067-0.242-1.399,0.2c-0.332,0.441-0.242,1.068,0.2,1.399l1.51,1.133
		c-2.013,4.262-7.394,6.255-11.974,4.347c-0.507-0.213-1.095,0.028-1.308,0.538s0.028,1.096,0.538,1.308
		c1.429,0.596,2.922,0.876,4.396,0.876c4.119,0,8.076-2.195,9.983-5.842l0.855,0.641c0.18,0.135,0.39,0.2,0.599,0.2
		c0.305,0,0.604-0.138,0.801-0.4c0.332-0.441,0.242-1.068-0.2-1.399L29.048,26.2z"/>
</g>
<g>
</g>
<g>
</g>
<g>
</g>
<g>
</g>
<g>
</g>
<g>
</g>
<g>
</g>
<g>
</g>
<g>
</g>
<g>
</g>
<g>
</g>
<g>
</g>
<g>
</g>
<g>
</g>
<g>
</g>
</svg>
