<?xml version="1.0" encoding="iso-8859-1"?>
<!-- Generator: Adobe Illustrator 18.0.0, SVG Export Plug-In . SVG Version: 6.00 Build 0)  -->
<!DOCTYPE svg PUBLIC "-//W3C//DTD SVG 1.1//EN" "http://www.w3.org/Graphics/SVG/1.1/DTD/svg11.dtd">
<svg version="1.1" id="Capa_1" xmlns="http://www.w3.org/2000/svg" xmlns:xlink="http://www.w3.org/1999/xlink" x="0px" y="0px"
	 viewBox="0 0 494.557 494.557" style="enable-background:new 0 0 494.557 494.557;" xml:space="preserve">
<path d="M494.238,129.481l-19.206-10.984c1.786-3.575,9.405-10.362,14.494-14.646c0.927-0.786,1.336-2.017,1.08-3.198
	c-0.268-1.184-1.167-2.123-2.34-2.438c-36.194-9.709-69.483-1.905-69.483-1.905c4.944-6.743,15.559-14.381,22.783-19.14
	c1.141-0.75,1.688-2.133,1.384-3.459c-0.304-1.325-1.417-2.314-2.767-2.484c-66.499-8.319-121.243,21.577-121.684,21.82
	c-6.946-29.038-2.452-60.31,1.792-79.146c0.858-3.954-0.42-8.094-3.386-10.835c-2.948-2.742-7.153-3.749-11.02-2.597
	c-40.696,12.122-74.804,66.169-95.915,108.253c-12.646,7.243-24.149,16.608-33.909,27.89
	c-57.793,66.835-105.779,73.105-105.779,73.105h-36.69c-18.376,0-33.271,26.684-33.271,59.593c0,32.906,14.896,59.579,33.271,59.579
	h47.776c25.895,55.848,111.486,63.284,156.304,87.689c18.105,9.858,33.13,19.883,45.461,29.321
	c41.289,31.591,91.459,48.659,143.472,48.659c37.35,0,67.634-30.284,67.634-67.633V129.481z M21.926,288.628
	c-4.549,0-8.232-7.442-8.232-16.624c0-9.181,3.683-16.626,8.232-16.626c4.552,0,8.232,7.445,8.232,16.626
	C30.158,281.185,26.478,288.628,21.926,288.628z M166.575,325.104c-1.456,6.125-6.28,10.876-12.429,12.234l-2.648,0.587
	c-10.039,2.22-20.578-0.16-28.698-6.464c-41.448-32.164-29.512-71.569-19.118-91.709c0.927-1.786,2.886-2.781,4.871-2.474
	c1.988,0.304,3.557,1.839,3.901,3.817c4.686,26.764,28.451,51.176,48.5,67.502C165.833,312.577,168.02,318.977,166.575,325.104z
	 M183.473,203.523c-5.673,0-10.272-4.597-10.272-10.27c0-5.67,4.599-10.27,10.272-10.27c5.67,0,10.27,4.599,10.27,10.27
	C193.743,198.925,189.143,203.523,183.473,203.523z"/>
<g>
</g>
<g>
</g>
<g>
</g>
<g>
</g>
<g>
</g>
<g>
</g>
<g>
</g>
<g>
</g>
<g>
</g>
<g>
</g>
<g>
</g>
<g>
</g>
<g>
</g>
<g>
</g>
<g>
</g>
</svg>
