<?xml version="1.0" encoding="iso-8859-1"?>
<!-- Generator: Adobe Illustrator 18.0.0, SVG Export Plug-In . SVG Version: 6.00 Build 0)  -->
<!DOCTYPE svg PUBLIC "-//W3C//DTD SVG 1.1//EN" "http://www.w3.org/Graphics/SVG/1.1/DTD/svg11.dtd">
<svg version="1.1" id="Capa_1" xmlns="http://www.w3.org/2000/svg" xmlns:xlink="http://www.w3.org/1999/xlink" x="0px" y="0px"
	 viewBox="0 0 52 52" style="enable-background:new 0 0 52 52;" xml:space="preserve">
<g>
	<path d="M27.076,8.027C27.552,4.628,30.471,2,34,2c0.552,0,1-0.447,1-1s-0.448-1-1-1c-4.632,0-8.456,3.519-8.945,8.024
		C13.361,8.521,4,18.186,4,30c0,12.131,9.869,22,22,22s22-9.869,22-22C48,18.23,38.709,8.59,27.076,8.027z M26,50
		C14.972,50,6,41.028,6,30s8.972-20,20-20s20,8.972,20,20S37.028,50,26,50z"/>
	<path d="M20,25c0,0.553,0.448,1,1,1s1-0.447,1-1c0-2.757-2.243-5-5-5s-5,2.243-5,5c0,0.553,0.448,1,1,1s1-0.447,1-1
		c0-1.654,1.346-3,3-3S20,23.346,20,25z"/>
	<path d="M35,20c-2.757,0-5,2.243-5,5c0,0.553,0.448,1,1,1s1-0.447,1-1c0-1.654,1.346-3,3-3s3,1.346,3,3c0,0.553,0.448,1,1,1
		s1-0.447,1-1C40,22.243,37.757,20,35,20z"/>
	<path d="M30.348,30.773c-0.386,0.236-0.766,0.495-1.136,0.767c-1.354-0.531-2.807-0.68-4.252-0.382
		c-3.041,0.626-5.461,3.207-5.886,6.277c-0.305,2.201,0.36,4.407,1.823,6.05C22.325,45.089,24.359,46,26.501,46
		c0.055,0,0.109-0.001,0.164-0.002c2.893-0.063,5.539-1.9,6.741-4.685c0.556-1.287,0.697-2.639,0.467-4.022
		c0.363-0.276,0.697-0.567,1.008-0.893c1.283-1.342,1.353-3.306,0.169-4.774C33.867,30.154,31.932,29.804,30.348,30.773z
		 M31.571,40.521c-0.893,2.067-2.835,3.433-4.948,3.478c-1.625,0.031-3.158-0.636-4.232-1.843c-1.073-1.205-1.56-2.825-1.335-4.446
		c0.311-2.245,2.082-4.134,4.308-4.592c0.377-0.078,0.756-0.116,1.132-0.116c0.26,0,0.519,0.019,0.775,0.055
		c-1.033,0.88-1.946,1.758-2.61,2.428c-0.774,0.781-0.962,1.971-0.469,2.958l0.766,1.531c0.315,0.63,0.885,1.107,1.563,1.312
		c0.681,0.202,1.424,0.118,2.037-0.237c1.283-0.742,2.43-1.477,3.43-2.196C31.947,39.417,31.808,39.971,31.571,40.521z
		 M33.436,35.018c-0.92,0.964-2.222,1.642-4.379,2.765c-0.687,0.358-1.468,0.766-2.34,1.236l-0.735-1.471
		c-0.022-0.044-0.012-0.092-0.022-0.138c0.636-0.759,2.945-3.409,5.432-4.928c0.881-0.538,1.684-0.121,2.103,0.398
		C33.913,33.399,34.149,34.271,33.436,35.018z"/>
</g>
<g>
</g>
<g>
</g>
<g>
</g>
<g>
</g>
<g>
</g>
<g>
</g>
<g>
</g>
<g>
</g>
<g>
</g>
<g>
</g>
<g>
</g>
<g>
</g>
<g>
</g>
<g>
</g>
<g>
</g>
</svg>
