<?xml version="1.0" encoding="iso-8859-1"?>
<!-- Generator: Adobe Illustrator 16.0.0, SVG Export Plug-In . SVG Version: 6.00 Build 0)  -->
<!DOCTYPE svg PUBLIC "-//W3C//DTD SVG 1.1//EN" "http://www.w3.org/Graphics/SVG/1.1/DTD/svg11.dtd">
<svg version="1.1" id="Capa_1" xmlns="http://www.w3.org/2000/svg" xmlns:xlink="http://www.w3.org/1999/xlink" x="0px" y="0px"
	 width="37.372px" height="37.372px" viewBox="0 0 37.372 37.372" style="enable-background:new 0 0 37.372 37.372;"
	 xml:space="preserve">
<g>
	<path d="M33.367,9.246c0.281-0.294,0.36-0.728,0.2-1.101c-0.16-0.374-0.528-0.617-0.934-0.617h-7.734l1.176-2.521
		c1.122,0.354,2.327-0.1,2.804-1.119c0.475-1.019,0.048-2.233-0.944-2.866l0.252-0.54c0.079-0.17,0.006-0.371-0.164-0.45
		c-0.17-0.079-0.371-0.006-0.45,0.164l-0.252,0.54c-1.123-0.354-2.327,0.1-2.803,1.119s-0.048,2.233,0.944,2.866l-1.311,2.806H4.737
		c-0.407,0-0.774,0.243-0.934,0.617c-0.16,0.374-0.081,0.808,0.2,1.101l13.755,14.371v11.978h-3.821
		c-0.491,0-0.889,0.398-0.889,0.889c0,0.491,0.397,0.89,0.889,0.89h9.497c0.491,0,0.889-0.398,0.889-0.89
		c0-0.49-0.397-0.889-0.889-0.889h-3.822V23.617L33.367,9.246z M23.203,9.56l-1.315,2.821H11.303l7.383,7.713l7.383-7.713h-3.433
		l1.315-2.821h6.303L18.686,21.646L7.116,9.56H23.203z"/>
</g>
<g>
</g>
<g>
</g>
<g>
</g>
<g>
</g>
<g>
</g>
<g>
</g>
<g>
</g>
<g>
</g>
<g>
</g>
<g>
</g>
<g>
</g>
<g>
</g>
<g>
</g>
<g>
</g>
<g>
</g>
</svg>
