<?xml version="1.0" encoding="iso-8859-1"?>
<!-- Generator: Adobe Illustrator 19.0.0, SVG Export Plug-In . SVG Version: 6.00 Build 0)  -->
<svg version="1.1" id="Layer_1" xmlns="http://www.w3.org/2000/svg" xmlns:xlink="http://www.w3.org/1999/xlink" x="0px" y="0px"
	 viewBox="0 0 491.496 491.496" style="enable-background:new 0 0 491.496 491.496;" xml:space="preserve">
<g id="XMLID_989_">
	<g>
		<g>
			<path d="M8.248,430.002h251.213l68.787-68.787v98.787h-320v30h350v-490h-350V430.002z M268.248,378.789v-38.787h38.787
				L268.248,378.789z M38.248,30.002h290v280h-90v90h-200V30.002z"/>
			<rect x="78.248" y="130.002" width="210" height="30"/>
			<rect x="78.248" y="190.002" width="210" height="30"/>
			<rect x="78.248" y="250.002" width="210" height="30"/>
			<rect x="78.248" y="70.002" width="210" height="30"/>
			<path d="M450.747,30.002l0.004-29.998l-30-0.004l-0.004,30.002h-32.499v373.802l47.5,87.692l47.5-87.692V30.002H450.747z
				 M453.248,396.2l-17.5,32.308l-17.5-32.308V120.002h35V396.2z M453.248,90.002h-35v-30h35V90.002z"/>
		</g>
	</g>
</g>
<g>
</g>
<g>
</g>
<g>
</g>
<g>
</g>
<g>
</g>
<g>
</g>
<g>
</g>
<g>
</g>
<g>
</g>
<g>
</g>
<g>
</g>
<g>
</g>
<g>
</g>
<g>
</g>
<g>
</g>
</svg>
