<?xml version="1.0" encoding="iso-8859-1"?>
<!-- Generator: Adobe Illustrator 18.0.0, SVG Export Plug-In . SVG Version: 6.00 Build 0)  -->
<!DOCTYPE svg PUBLIC "-//W3C//DTD SVG 1.1//EN" "http://www.w3.org/Graphics/SVG/1.1/DTD/svg11.dtd">
<svg version="1.1" id="Capa_1" xmlns="http://www.w3.org/2000/svg" xmlns:xlink="http://www.w3.org/1999/xlink" x="0px" y="0px"
	 viewBox="0 0 60.003 60.003" style="enable-background:new 0 0 60.003 60.003;" xml:space="preserve">
<g>
	<path d="M34.348,36.91c-0.433,0.264-0.857,0.558-1.269,0.866c-1.361-0.54-2.825-0.693-4.28-0.393
		c-3.041,0.626-5.461,3.207-5.886,6.277c-0.305,2.201,0.36,4.407,1.823,6.05c1.428,1.604,3.462,2.515,5.604,2.515
		c0.055,0,0.109-0.001,0.164-0.002c2.893-0.063,5.539-1.9,6.741-4.685c0.553-1.281,0.695-2.623,0.471-3.996
		c0.425-0.311,0.811-0.636,1.166-1.007c1.283-1.343,1.353-3.307,0.168-4.775C37.867,36.289,35.932,35.94,34.348,36.91z
		 M35.409,46.746c-0.893,2.067-2.835,3.433-4.948,3.478c-1.623,0.033-3.158-0.636-4.232-1.843c-1.073-1.205-1.56-2.825-1.335-4.446
		c0.311-2.245,2.082-4.134,4.308-4.592c0.377-0.078,0.756-0.116,1.132-0.116c0.26,0,0.519,0.019,0.775,0.055
		c-1.035,0.882-1.947,1.76-2.609,2.429c-0.775,0.78-0.964,1.969-0.47,2.957l0.766,1.531c0.315,0.63,0.885,1.107,1.563,1.312
		c0.681,0.203,1.423,0.117,2.037-0.237c1.282-0.741,2.43-1.477,3.43-2.196C35.785,45.642,35.646,46.196,35.409,46.746z
		 M37.436,41.154c-0.92,0.964-2.222,1.642-4.379,2.765c-0.731,0.382-1.56,0.813-2.503,1.322l-0.734-1.469
		c-0.008-0.016-0.002-0.033-0.008-0.049c0.282-0.346,2.823-3.422,5.58-5.106c0.88-0.536,1.683-0.122,2.102,0.398
		S38.149,40.408,37.436,41.154z"/>
	<path d="M59.796,26.569c-0.402-1.698-1.365-3.157-2.577-3.903c-0.811-0.5-1.678-0.66-2.507-0.461
		c-0.189,0.045-0.371,0.114-0.549,0.198c-2.336-5.685-5.98-9.364-9.727-11.736l1.36-2.72c0.247-0.494,0.047-1.095-0.447-1.342
		c-0.496-0.246-1.094-0.047-1.342,0.447l-1.303,2.605c-0.617-0.327-1.231-0.626-1.837-0.892l0.983-2.95
		c0.175-0.524-0.108-1.091-0.632-1.265c-0.525-0.175-1.091,0.108-1.265,0.632l-0.948,2.844c-0.693-0.248-1.366-0.461-2.011-0.642
		l0.857-2.57c0.175-0.524-0.108-1.091-0.632-1.265c-0.527-0.176-1.09,0.108-1.265,0.632l-0.908,2.724
		C33.779,6.641,32.7,6.496,31.9,6.418V4.499c0-0.553-0.448-1-1-1s-1,0.447-1,1v1.844c-0.525,0.026-1.441,0.097-2.632,0.284
		l-0.382-2.292c-0.091-0.544-0.604-0.917-1.151-0.822c-0.544,0.091-0.913,0.606-0.822,1.15l0.39,2.34
		c-1.072,0.242-2.257,0.573-3.508,1.02l-0.947-2.841c-0.175-0.523-0.74-0.807-1.265-0.632c-0.524,0.174-0.807,0.74-0.632,1.265
		l0.981,2.944c-0.863,0.378-1.741,0.822-2.621,1.327l-1.517-3.035c-0.247-0.494-0.847-0.693-1.342-0.447
		c-0.494,0.247-0.694,0.848-0.447,1.342l1.601,3.202c-0.881,0.602-1.749,1.288-2.594,2.05l-2.406-2.406
		c-0.391-0.391-1.023-0.391-1.414,0s-0.391,1.023,0,1.414l2.388,2.388c-3.076,3.272-5.646,7.835-6.826,14.213
		c-0.015,0.083-0.025,0.167-0.04,0.25c-0.254-0.07-0.512-0.118-0.776-0.118C1.73,28.939,0,31.322,0,34.363s1.73,5.424,3.939,5.424
		c0.403,0,0.798-0.102,1.177-0.267c0.701,2.671,1.863,5.179,3.459,7.378c3.194,4.404,9.468,9.606,21.27,9.606
		c0.182,0,0.364-0.001,0.548-0.004c0.185,0.003,0.366,0.004,0.548,0.004c11.8-0.001,18.075-5.203,21.269-9.606
		c2.881-3.97,4.346-8.945,4.23-14.076c0.035,0.001,0.07,0.014,0.104,0.014c0.227,0,0.451-0.026,0.671-0.079
		C59.363,32.247,60.497,29.528,59.796,26.569z M4.674,37.489c-0.206,0.166-0.456,0.298-0.734,0.298C3.022,37.787,2,36.38,2,34.363
		s1.022-3.424,1.939-3.424c0.167,0,0.335,0.047,0.504,0.139c-0.049,0.533-0.081,1.066-0.096,1.597c-0.001,0.034,0,0.067-0.001,0.101
		c-0.011,0.445-0.009,0.889,0.004,1.332c0.004,0.136,0.009,0.271,0.015,0.407c0.016,0.36,0.042,0.719,0.074,1.076
		c0.012,0.141,0.021,0.282,0.036,0.422c0.047,0.438,0.106,0.874,0.177,1.307C4.66,37.375,4.664,37.433,4.674,37.489z M50.59,45.724
		c-4.315,5.949-11.096,8.949-20.184,8.776h-0.014h-0.014c-9.091,0.149-15.87-2.828-20.185-8.776
		c-2.062-2.842-3.329-6.255-3.726-9.866c-0.008-0.078-0.01-0.157-0.017-0.235c-0.057-0.57-0.089-1.144-0.102-1.721
		c-0.005-0.252-0.001-0.504,0.002-0.757c0.004-0.406,0.021-0.814,0.047-1.222c0.019-0.294,0.039-0.588,0.069-0.883
		c0.064-0.623,0.138-1.246,0.253-1.869c1.097-5.928,3.438-10.163,6.237-13.199l1.235,1.235c0.195,0.195,0.451,0.293,0.707,0.293
		s0.512-0.098,0.707-0.293c0.391-0.391,0.391-1.023,0-1.414l-1.229-1.229c0.684-0.619,1.384-1.181,2.094-1.683l0.533,1.067
		c0.175,0.351,0.528,0.553,0.896,0.553c0.15,0,0.303-0.034,0.446-0.105c0.494-0.247,0.694-0.848,0.447-1.342l-0.628-1.256
		c0.795-0.464,1.59-0.872,2.372-1.22l0.413,1.24c0.14,0.419,0.53,0.684,0.949,0.684c0.104,0,0.211-0.017,0.316-0.052
		c0.524-0.174,0.807-0.74,0.632-1.265l-0.45-1.349c1.148-0.407,2.235-0.7,3.224-0.917l0.291,1.747
		c0.082,0.489,0.505,0.836,0.985,0.836c0.054,0,0.11-0.004,0.166-0.014c0.544-0.091,0.913-0.606,0.822-1.15l-0.296-1.777
		c1.021-0.146,1.824-0.201,2.31-0.22v2.161c0,0.553,0.448,1,1,1s1-0.447,1-1V8.406c0.669,0.06,1.529,0.168,2.524,0.358l-0.473,1.419
		c-0.175,0.524,0.108,1.091,0.632,1.265c0.105,0.035,0.212,0.052,0.316,0.052c0.419,0,0.809-0.265,0.949-0.684l0.534-1.603
		c0.645,0.173,1.319,0.378,2.016,0.625l-0.448,1.345c-0.175,0.524,0.108,1.091,0.632,1.265c0.105,0.035,0.212,0.052,0.316,0.052
		c0.419,0,0.809-0.265,0.949-0.684l0.412-1.235c0.525,0.234,1.056,0.499,1.589,0.784l-0.844,1.687
		c-0.247,0.494-0.047,1.095,0.447,1.342c0.144,0.071,0.296,0.105,0.446,0.105c0.367,0,0.72-0.202,0.896-0.553l0.781-1.562
		c3.519,2.288,6.922,5.862,9.025,11.46l-0.007,0.009l0.182,0.513c0.261,0.734,0.486,1.47,0.689,2.213
		c0.025,0.092,0.051,0.182,0.076,0.275c0.2,0.759,0.376,1.526,0.522,2.315c0.123,0.667,0.207,1.335,0.271,2.002
		c0.011,0.114,0.026,0.225,0.036,0.34C54.794,36.685,53.466,41.76,50.59,45.724z M56.751,30.812c-0.136,0.032-0.281,0.032-0.436,0
		c-0.004-0.04-0.012-0.076-0.016-0.115c-0.068-0.63-0.153-1.26-0.269-1.89c-0.143-0.77-0.31-1.508-0.491-2.227
		c-0.022-0.085-0.048-0.169-0.07-0.253c-0.179-0.684-0.375-1.343-0.586-1.981c-0.006-0.018-0.01-0.036-0.016-0.054
		c0.101-0.069,0.204-0.116,0.31-0.142c0.38-0.09,0.751,0.068,0.994,0.219c0.758,0.467,1.402,1.486,1.68,2.661
		C58.315,28.994,57.644,30.599,56.751,30.812z"/>
	<path d="M36,16.363c-3.597,0-6.7,2.126-8.139,5.184c-1.251-1.914-3.409-3.184-5.861-3.184c-3.86,0-7,3.141-7,7s3.14,7,7,7
		c2.452,0,4.61-1.27,5.861-3.184c1.44,3.058,4.542,5.184,8.139,5.184c4.962,0,9-4.037,9-9S40.962,16.363,36,16.363z M36,18.363
		c1.68,0,3.222,0.595,4.43,1.585l-11.403,4.887C29.298,21.222,32.318,18.363,36,18.363z M22,20.363c2.605,0,4.727,2.01,4.955,4.556
		l-8.491-3.088C19.37,20.925,20.62,20.363,22,20.363z M22,30.363c-2.757,0-5-2.243-5-5c0-0.639,0.132-1.246,0.351-1.809l9.363,3.405
		C26.044,28.931,24.195,30.363,22,30.363z M36,32.363c-3.316,0-6.095-2.32-6.814-5.421l12.657-5.424
		C42.572,22.622,43,23.943,43,25.363C43,29.222,39.86,32.363,36,32.363z"/>
	<circle cx="23" cy="27.363" r="1"/>
	<circle cx="33.5" cy="27.863" r="1.5"/>
</g>
<g>
</g>
<g>
</g>
<g>
</g>
<g>
</g>
<g>
</g>
<g>
</g>
<g>
</g>
<g>
</g>
<g>
</g>
<g>
</g>
<g>
</g>
<g>
</g>
<g>
</g>
<g>
</g>
<g>
</g>
</svg>
