<?xml version="1.0" encoding="iso-8859-1"?>
<!-- Generator: Adobe Illustrator 18.0.0, SVG Export Plug-In . SVG Version: 6.00 Build 0)  -->
<!DOCTYPE svg PUBLIC "-//W3C//DTD SVG 1.1//EN" "http://www.w3.org/Graphics/SVG/1.1/DTD/svg11.dtd">
<svg version="1.1" id="Capa_1" xmlns="http://www.w3.org/2000/svg" xmlns:xlink="http://www.w3.org/1999/xlink" x="0px" y="0px"
	 viewBox="0 0 480 480" style="enable-background:new 0 0 480 480;" xml:space="preserve">
<g>
	<path d="M205.266,227.489l-25.125-55.374l-14.737-4.601l14.737,61.399c0,0-19.778,2.047-30.019,3.66h0l-14.2-15.206l-9.466-1.375
		l8.683,19.564h0c-5.173,1.381-8.4,2.878-8.4,4.443c0,1.564,3.227,3.062,8.4,4.443l-8.683,19.564l9.466-1.375l14.2-15.206h-0.001
		c10.241,1.612,30.019,3.66,30.019,3.66l-14.737,61.399l14.737-4.601l25.125-55.374c15.617,0,28.276-5.601,28.276-12.511
		C233.543,233.09,220.883,227.489,205.266,227.489z"/>
	<path d="M0,96.13v287.74h480V96.13H0z M460,363.87h-97.316v-37.74h-20v37.74H20V116.13h322.684v30h20v-30H460V363.87z"/>
	<rect x="342.684" y="271.13" width="20" height="40"/>
	<rect x="342.684" y="161.13" width="20" height="40"/>
	<rect x="342.684" y="216.13" width="20" height="40"/>
</g>
<g>
</g>
<g>
</g>
<g>
</g>
<g>
</g>
<g>
</g>
<g>
</g>
<g>
</g>
<g>
</g>
<g>
</g>
<g>
</g>
<g>
</g>
<g>
</g>
<g>
</g>
<g>
</g>
<g>
</g>
</svg>
