<?xml version="1.0" encoding="iso-8859-1"?>
<!-- Generator: Adobe Illustrator 18.1.1, SVG Export Plug-In . SVG Version: 6.00 Build 0)  -->
<svg version="1.1" id="Capa_1" xmlns="http://www.w3.org/2000/svg" xmlns:xlink="http://www.w3.org/1999/xlink" x="0px" y="0px"
	 viewBox="0 0 104.672 104.672" style="enable-background:new 0 0 104.672 104.672;" xml:space="preserve">
<g>
	<path style="fill:#030104;" d="M100.078,97.859V56.731h1.709V45.188h-2.334v-4.081h0.754v-1.616H76.713v-3.325l-9.887,0.001
		c0.066-0.328-0.178-0.999-0.113-1.426c0.104-0.698,0.06-1.157,0.053-1.838c-0.002-0.334,0.852-2.642,1.453-2.073
		c-0.107,0.263-0.721,0.851-0.084,0.819c0.593-0.028,0.896-0.105,1.322-0.503c0.267,0.417,0.671,0.357,0.826,0.954
		c0.17,0.643-0.212,1.273-0.087,1.901c0.089,0.453-0.761,0.744-0.454,1.445c0.352,0.809,0.903,0.038,1.089-0.361
		c0.249-0.533,0.086-1.5,0.109-2.09c0.021-0.506,0.223-1.163,0.165-1.65c-0.026-0.223-0.13-0.527-0.16-0.709
		c-0.08,0.002-0.469-0.155-0.502-0.239c-0.361,0.123-0.143-0.897-0.145-0.95c-0.018-0.875,0.798-1.973-0.067-2.574
		c-0.206-0.143-0.212-0.708-0.351-0.942c-0.696-0.255,0.641-0.979,0.683-1.016c0.192-0.165,1.289-0.633,0.881-1.17
		c-0.372-0.485-0.07-0.961-0.091-1.489c-0.011-0.265,0.248-0.496,0.274-0.766c-0.022-0.203-0.102-0.379-0.24-0.529
		c-0.19-0.6,0.288-0.639,0.459-1.118c-0.877,0.157-1.284-0.723-2.133-0.518c-0.637,0.155-1.33,0.958-1.643,1.502
		c-0.432,0.747-0.666,1.695-0.918,2.51c-0.134,0.431-0.445,1.234-0.752,2.065s-2.597,0.736-3.251,1.662
		c-1.468,2.079,0.15,6.084,0.15,6.084c0.077,0.756-0.309,2.305,0.106,2.986c0.006,0.009,0.008,0.023,0.014,0.032h-2.512l0.374-1.171
		l0.041-2.277c1.299-3.605-0.897-7.541-0.897-7.541c-0.064-0.405-0.2-0.847-0.199-1.263c0.37-0.227,0.889-0.585,0.587-0.982
		c-0.069-0.09-0.109-0.179-0.138-0.269c0.141-0.421,0.111-0.732,0.031-0.944c0.012-0.091,0.019-0.183,0.016-0.276
		c-0.011-0.265,0.248-0.496,0.274-0.766c-0.022-0.203-0.102-0.379-0.24-0.53c-0.19-0.599,0.288-0.639,0.459-1.118
		c-0.877,0.157-1.284-0.723-2.133-0.518c-0.637,0.154-1.33,0.957-1.643,1.502c-0.151,0.261-0.272,0.55-0.385,0.846
		c-0.053-0.26-0.112-0.511-0.222-0.75c-0.231-0.512-0.594-0.776-1.113-0.706c-0.529,0.073-0.657,0.485-0.61,0.981
		c0.021,0.213,0.061,0.513-0.282,0.522c-0.444,0.011-0.749-0.292-1.047-0.568c-0.279-0.259-0.187-0.555-0.028-0.837
		c0.161-0.287,0.352-0.558,0.492-0.854c0.182-0.386,0.066-0.764-0.314-0.897c-0.383-0.134-0.566-0.811-1.11-0.457
		c-0.395,0.257-0.638,0.32-0.786,0.151v-4.729c1.178-0.185,2.066-1.197,2.066-2.398c0-1.236-0.889-2.236-2.066-2.431L51.91,7.887
		V7.784c3.058-0.319,2.683-3.775,2.683-3.775s-1.824,0.464-2.411,1.7c-0.065-0.508-0.326-0.907-0.618-0.909c0,0,0,0-0.001,0
		c0,0,0,0-0.001,0c-0.292,0.001-0.553,0.4-0.618,0.909c-0.586-1.235-2.41-1.7-2.41-1.7s-0.375,3.456,2.682,3.775v0.122
		c-1.147,0.202-2.014,1.189-2.014,2.415c0,1.206,0.887,2.213,2.063,2.397v4.622c-0.008,0.007-0.011,0.016-0.02,0.023
		c-0.896,0.716-1.465,1.767-2.445,2.404c-0.289,0.188-0.392,0.481-0.45,0.87c-0.222,1.473,0.073,2.905,0.216,4.35
		c0.022,0.222,0.06,1.751,0.06,1.751l-1.494-0.933c-0.047-0.09-0.096-0.182-0.128-0.277c0-0.002-0.001-0.004-0.001-0.007
		c-0.009-0.736-0.021-1.416-0.004-1.798c0.039-0.853,0.139-1.824-0.014-2.673c-0.11-0.618-0.491-1.608-1.038-1.969
		c-0.729-0.48-1.411,0.21-2.182-0.235c-0.001,0.509,0.436,0.708,0.053,1.208c-0.181,0.094-0.315,0.234-0.406,0.417
		c-0.066,0.262,0.099,0.567,0,0.813c-0.197,0.489-0.076,1.04-0.589,1.37c-0.566,0.367,0.058,1.229,0.348,1.576
		c0.291,0.348,0.986,0.271,0.986,0.271c-0.058,0.229-0.109,0.457-0.134,0.684c0,0-2.223,2.281-0.31,7.219l0.27,2.406
		c0.185,0.465,0.405,0.911,0.625,1.358h-3.357c0.006-0.01,0.008-0.025,0.014-0.035c0.416-0.681,0.03-2.23,0.107-2.986
		c0,0,1.618-4.005,0.15-6.084c-0.654-0.925-2.944-0.83-3.251-1.662c-0.308-0.832-0.618-1.634-0.752-2.065
		c-0.252-0.815-0.486-1.763-0.917-2.51c-0.314-0.544-1.007-1.347-1.644-1.502c-0.848-0.205-1.256,0.675-2.132,0.518
		c0.171,0.479,0.649,0.519,0.458,1.118c-0.138,0.15-0.218,0.327-0.24,0.529c0.026,0.27,0.285,0.5,0.274,0.766
		c-0.02,0.528,0.281,1.004-0.09,1.489c-0.409,0.537,0.688,1.005,0.88,1.17c0.042,0.036,1.379,0.761,0.682,1.016
		c-0.138,0.234-0.144,0.8-0.35,0.942c-0.865,0.601-0.05,1.7-0.067,2.574c-0.001,0.053,0.217,1.073-0.145,0.95
		c-0.032,0.083-0.421,0.241-0.502,0.239c-0.03,0.182-0.133,0.486-0.16,0.709c-0.057,0.487,0.144,1.144,0.165,1.65
		c0.023,0.59-0.14,1.557,0.109,2.09c0.186,0.398,0.737,1.169,1.089,0.361c0.306-0.701-0.543-0.993-0.455-1.445
		c0.125-0.628-0.256-1.258-0.086-1.901c0.156-0.597,0.559-0.537,0.826-0.954c0.425,0.398,0.729,0.475,1.322,0.503
		c0.637,0.031,0.023-0.557-0.083-0.819c0.602-0.569,1.455,1.738,1.453,2.073c-0.005,0.682-0.051,1.14,0.054,1.838
		c0.064,0.428-0.181,1.103-0.113,1.43l-10.038,0.001v3.325H3.849v1.621h1.483v4.086H2.421v11.539h1.671v41.115H0v2.806h104.672
		v-2.806h-4.594V97.859z M69.875,23.49c0.507,0.32,0.021,0.249,0.038,0.441c-0.002-0.036,0.105,0.616,0.088,0.539
		c0.076,0.337,0.436,0.289,0.053,0.5c-0.104,0.107-0.202,0.118-0.292,0.032C69.688,24.609,69.647,23.838,69.875,23.49z
		 M34.911,25.002c-0.09,0.086-0.188,0.075-0.292-0.032c-0.384-0.211-0.023-0.163,0.052-0.5c-0.017,0.078,0.091-0.575,0.088-0.539
		c0.017-0.193-0.467-0.122,0.04-0.441C35.026,23.838,34.985,24.609,34.911,25.002z M13.324,97.858V57.593H19.5l0.006,40.265H13.324z
		 M35.227,97.858h-6.178V57.593h6.178V97.858z M50.314,10.622c-0.146-0.271-0.146-0.406,0-0.677
		c0.409,0.069,0.647,0.079,1.001,0.033c0.046-0.354,0.036-0.592-0.032-1c0.271-0.146,0.406-0.146,0.677,0
		c-0.069,0.408-0.079,0.647-0.033,1c0.354,0.046,0.592,0.036,1.001-0.033c0.147,0.271,0.147,0.406,0,0.677
		c-0.409-0.068-0.646-0.078-1.001-0.032c-0.046,0.354-0.036,0.592,0.033,1c-0.271,0.146-0.407,0.146-0.677,0
		c0.068-0.408,0.078-0.647,0.032-1C50.961,10.544,50.723,10.553,50.314,10.622z M50.718,19.173c0.127-0.257,0.244-0.687,0.581-0.605
		c0.308,0.073,0.086,0.493,0.171,0.749c-0.066,0.233,0.145,0.542-0.118,0.701c-0.204,0.124-0.438-0.022-0.638-0.138
		C50.313,19.647,50.613,19.382,50.718,19.173z M58.063,97.858H44.776V57.593h13.286L58.063,97.858L58.063,97.858z M74.719,97.858
		h-7.117V57.593h7.117V97.858z M90.818,97.858h-6.551V57.593h6.551V97.858z"/>
</g>
<g>
</g>
<g>
</g>
<g>
</g>
<g>
</g>
<g>
</g>
<g>
</g>
<g>
</g>
<g>
</g>
<g>
</g>
<g>
</g>
<g>
</g>
<g>
</g>
<g>
</g>
<g>
</g>
<g>
</g>
</svg>
