<?xml version="1.0" encoding="iso-8859-1"?>
<!-- Generator: Adobe Illustrator 18.0.0, SVG Export Plug-In . SVG Version: 6.00 Build 0)  -->
<!DOCTYPE svg PUBLIC "-//W3C//DTD SVG 1.1//EN" "http://www.w3.org/Graphics/SVG/1.1/DTD/svg11.dtd">
<svg version="1.1" id="Capa_1" xmlns="http://www.w3.org/2000/svg" xmlns:xlink="http://www.w3.org/1999/xlink" x="0px" y="0px"
	 viewBox="0 0 60.002 60.002" style="enable-background:new 0 0 60.002 60.002;" xml:space="preserve">
<g>
	<path d="M59.795,26.568c-0.401-1.697-1.364-3.156-2.576-3.902c-0.812-0.5-1.679-0.659-2.508-0.461
		c-0.189,0.045-0.371,0.114-0.548,0.198c-2.336-5.685-5.98-9.364-9.727-11.736l1.36-2.719c0.247-0.494,0.047-1.095-0.447-1.342
		c-0.493-0.245-1.095-0.047-1.342,0.447l-1.302,2.605c-0.617-0.327-1.231-0.626-1.838-0.892l0.983-2.949
		c0.175-0.524-0.108-1.091-0.632-1.265c-0.528-0.176-1.09,0.108-1.265,0.632l-0.948,2.844c-0.693-0.248-1.366-0.461-2.012-0.642
		l0.857-2.57c0.175-0.524-0.108-1.091-0.632-1.265c-0.529-0.176-1.091,0.108-1.265,0.632l-0.908,2.724
		C33.779,6.641,32.7,6.496,31.9,6.418V4.5c0-0.553-0.447-1-1-1s-1,0.447-1,1v1.844c-0.525,0.026-1.441,0.097-2.632,0.283
		l-0.382-2.292c-0.09-0.545-0.608-0.92-1.15-0.822c-0.545,0.091-0.913,0.606-0.822,1.15l0.39,2.34
		c-1.072,0.242-2.258,0.573-3.509,1.02l-0.947-2.841c-0.174-0.523-0.735-0.808-1.265-0.632c-0.523,0.174-0.807,0.74-0.632,1.265
		l0.981,2.944c-0.863,0.378-1.742,0.822-2.621,1.327l-1.517-3.034c-0.248-0.494-0.848-0.692-1.342-0.447
		c-0.494,0.247-0.694,0.848-0.447,1.342l1.601,3.201c-0.881,0.602-1.749,1.288-2.594,2.05l-2.405-2.405
		c-0.391-0.391-1.023-0.391-1.414,0s-0.391,1.023,0,1.414l2.388,2.388c-3.075,3.272-5.646,7.835-6.826,14.213
		c-0.015,0.083-0.025,0.167-0.04,0.25c-0.254-0.07-0.512-0.118-0.776-0.118C1.73,28.939,0,31.322,0,34.363s1.73,5.424,3.939,5.424
		c0.404,0,0.798-0.102,1.177-0.267c0.701,2.671,1.863,5.179,3.458,7.378c3.194,4.404,9.468,9.606,21.27,9.606
		c0.182,0,0.363-0.001,0.548-0.004c0.185,0.003,0.365,0.004,0.548,0.004c11.799-0.001,18.074-5.202,21.27-9.606
		c2.879-3.969,4.344-8.941,4.229-14.07c0.035,0.001,0.07,0.007,0.104,0.007c0.227,0,0.451-0.025,0.672-0.078
		C59.363,32.245,60.496,29.526,59.795,26.568z M4.674,37.489c-0.206,0.166-0.456,0.298-0.734,0.298C3.022,37.787,2,36.38,2,34.363
		s1.022-3.424,1.939-3.424c0.167,0,0.335,0.047,0.504,0.139c-0.049,0.531-0.081,1.062-0.096,1.591c-0.001,0.04,0,0.08-0.001,0.12
		c-0.01,0.437-0.009,0.872,0.004,1.306c0.004,0.143,0.009,0.285,0.015,0.428c0.016,0.352,0.041,0.702,0.072,1.052
		c0.013,0.147,0.022,0.294,0.037,0.44c0.047,0.435,0.105,0.867,0.175,1.297C4.659,37.371,4.664,37.43,4.674,37.489z M50.591,45.724
		c-4.316,5.948-11.098,8.901-20.185,8.776h-0.027c-0.186,0.003-0.369,0.004-0.552,0.004c-8.802,0-15.405-2.953-19.633-8.78
		c-2.062-2.842-3.329-6.256-3.726-9.867c-0.008-0.077-0.01-0.155-0.017-0.232C6.395,35.054,6.363,34.479,6.35,33.9
		c-0.005-0.251-0.001-0.504,0.003-0.756c0.004-0.405,0.02-0.811,0.046-1.217c0.02-0.298,0.04-0.596,0.071-0.895
		c0.064-0.62,0.138-1.241,0.252-1.861c1.097-5.928,3.438-10.163,6.237-13.199l1.235,1.235c0.195,0.195,0.451,0.293,0.707,0.293
		s0.512-0.098,0.707-0.293c0.391-0.391,0.391-1.023,0-1.414l-1.229-1.229c0.684-0.619,1.384-1.181,2.094-1.683l0.533,1.067
		c0.176,0.351,0.528,0.553,0.896,0.553c0.15,0,0.303-0.034,0.446-0.105c0.494-0.247,0.694-0.848,0.447-1.342l-0.628-1.256
		c0.795-0.464,1.59-0.872,2.372-1.22l0.413,1.24c0.14,0.419,0.529,0.684,0.948,0.684c0.104,0,0.211-0.017,0.316-0.052
		c0.523-0.174,0.807-0.74,0.632-1.265l-0.45-1.349c1.148-0.407,2.236-0.7,3.224-0.917l0.291,1.747
		c0.081,0.489,0.505,0.836,0.985,0.836c0.055,0,0.109-0.004,0.165-0.014c0.545-0.091,0.913-0.606,0.822-1.15l-0.296-1.777
		c1.021-0.146,1.824-0.201,2.31-0.22V10.5c0,0.553,0.447,1,1,1s1-0.447,1-1v-2.08c0.666,0.065,1.521,0.177,2.516,0.372l-0.464,1.392
		c-0.175,0.524,0.108,1.091,0.632,1.265c0.105,0.035,0.212,0.052,0.316,0.052c0.419,0,0.809-0.265,0.948-0.684l0.521-1.564
		c0.644,0.175,1.318,0.385,2.015,0.634l-0.433,1.298c-0.175,0.524,0.108,1.091,0.632,1.265c0.105,0.035,0.212,0.052,0.316,0.052
		c0.419,0,0.809-0.265,0.948-0.684l0.395-1.185c0.177,0.079,0.354,0.154,0.532,0.238c0.36,0.171,0.707,0.353,1.053,0.537
		l-0.823,1.645c-0.247,0.494-0.047,1.095,0.447,1.342c0.144,0.071,0.296,0.105,0.446,0.105c0.367,0,0.72-0.202,0.896-0.553
		l0.763-1.526c4.174,2.689,7.196,6.516,9.039,11.43l-0.003,0.003l0.182,0.513c0.272,0.766,0.509,1.532,0.719,2.308
		c0.013,0.049,0.026,0.098,0.038,0.147c0.204,0.769,0.381,1.548,0.53,2.348c0.122,0.659,0.204,1.318,0.268,1.976
		c0.012,0.127,0.029,0.252,0.04,0.38C54.791,36.694,53.464,41.764,50.591,45.724z M56.751,30.812c-0.137,0.03-0.283,0.03-0.436,0
		c-0.004-0.036-0.011-0.07-0.015-0.106c-0.068-0.63-0.152-1.261-0.269-1.891c0-0.003-0.001-0.006-0.001-0.009
		c-0.002-0.012-0.006-0.023-0.008-0.035c-0.141-0.76-0.306-1.489-0.485-2.198c-0.019-0.075-0.043-0.149-0.062-0.224
		c-0.181-0.695-0.381-1.365-0.595-2.013c-0.005-0.015-0.008-0.03-0.013-0.045c0.101-0.069,0.204-0.116,0.31-0.142
		c0.38-0.092,0.751,0.069,0.994,0.219c0.758,0.467,1.401,1.486,1.68,2.66C58.314,28.993,57.645,30.599,56.751,30.812z"/>
	<path d="M43.6,37.705c-0.44-0.331-1.067-0.242-1.399,0.2c-0.332,0.441-0.242,1.068,0.2,1.399l1.41,1.058
		c-1.267,1.599-5.325,6.17-10.887,7.009c-3.516,0.524-7.048-0.549-10.504-3.182l1.179-0.885c0.442-0.331,0.532-0.958,0.2-1.399
		c-0.331-0.443-0.959-0.532-1.399-0.2l-4,3c-0.442,0.331-0.532,0.958-0.2,1.399c0.196,0.263,0.496,0.4,0.801,0.4
		c0.209,0,0.419-0.065,0.599-0.2l1.177-0.883c0.034,0.036,0.055,0.08,0.095,0.112c3.345,2.641,6.793,3.971,10.278,3.971
		c0.689,0,1.381-0.052,2.072-0.156c6.352-0.957,10.797-6.001,12.191-7.785l0.988,0.741c0.18,0.135,0.39,0.2,0.599,0.2
		c0.305,0,0.604-0.138,0.801-0.4c0.332-0.441,0.242-1.068-0.2-1.399L43.6,37.705z"/>
	<path d="M41,17.504c-4.085,0-7.537,2.737-8.632,6.472c-0.542-0.295-1.18-0.472-1.868-0.472s-1.326,0.177-1.868,0.472
		c-1.096-3.735-4.548-6.472-8.632-6.472c-4.963,0-9,4.037-9,9s4.037,9,9,9s9-4.037,9-9c0-0.532,0.701-1,1.5-1s1.5,0.468,1.5,1
		c0,4.963,4.037,9,9,9s9-4.037,9-9S45.963,17.504,41,17.504z M20,33.504c-3.859,0-7-3.141-7-7s3.141-7,7-7s7,3.141,7,7
		S23.859,33.504,20,33.504z M41,33.504c-3.859,0-7-3.141-7-7s3.141-7,7-7s7,3.141,7,7S44.859,33.504,41,33.504z"/>
	<path d="M17.707,27.211l4-4c0.391-0.391,0.391-1.023,0-1.414s-1.023-0.391-1.414,0l-4,4c-0.391,0.391-0.391,1.023,0,1.414
		c0.195,0.195,0.451,0.293,0.707,0.293S17.512,27.407,17.707,27.211z"/>
	<path d="M21.293,25.797l-4,4c-0.391,0.391-0.391,1.023,0,1.414c0.195,0.195,0.451,0.293,0.707,0.293s0.512-0.098,0.707-0.293l4-4
		c0.391-0.391,0.391-1.023,0-1.414S21.684,25.407,21.293,25.797z"/>
	<path d="M38.707,27.211l4-4c0.391-0.391,0.391-1.023,0-1.414s-1.023-0.391-1.414,0l-4,4c-0.391,0.391-0.391,1.023,0,1.414
		c0.195,0.195,0.451,0.293,0.707,0.293S38.512,27.407,38.707,27.211z"/>
	<path d="M42.293,25.797l-4,4c-0.391,0.391-0.391,1.023,0,1.414c0.195,0.195,0.451,0.293,0.707,0.293s0.512-0.098,0.707-0.293l4-4
		c0.391-0.391,0.391-1.023,0-1.414S42.684,25.407,42.293,25.797z"/>
</g>
<g>
</g>
<g>
</g>
<g>
</g>
<g>
</g>
<g>
</g>
<g>
</g>
<g>
</g>
<g>
</g>
<g>
</g>
<g>
</g>
<g>
</g>
<g>
</g>
<g>
</g>
<g>
</g>
<g>
</g>
</svg>
