<?xml version="1.0" encoding="iso-8859-1"?>
<!-- Generator: Adobe Illustrator 16.0.0, SVG Export Plug-In . SVG Version: 6.00 Build 0)  -->
<!DOCTYPE svg PUBLIC "-//W3C//DTD SVG 1.1//EN" "http://www.w3.org/Graphics/SVG/1.1/DTD/svg11.dtd">
<svg version="1.1" id="Capa_1" xmlns="http://www.w3.org/2000/svg" xmlns:xlink="http://www.w3.org/1999/xlink" x="0px" y="0px"
	 width="45.818px" height="45.818px" viewBox="0 0 45.818 45.818" style="enable-background:new 0 0 45.818 45.818;"
	 xml:space="preserve">
<g>
	<g>
		<path d="M37.151,15.515L33.6,14.449c-6.942-2.083-14.44-2.083-21.383,0l-3.55,1.066c-2.577,0.773-4.304,3.1-4.304,5.79v5.115
			c0,3.16,2.37,5.749,5.518,6.021l4.42,0.386c2.037,0.178,4.069-0.315,5.793-1.394l2.337-1.46c0.281-0.176,0.656-0.173,0.935,0.005
			l2.289,1.467c1.516,0.973,3.27,1.486,5.072,1.486c0.295,0,0.594-0.014,0.892-0.042l4.371-0.418
			c3.119-0.297,5.467-2.884,5.467-6.018v-5.149C41.456,18.615,39.729,16.288,37.151,15.515z M38.477,26.454
			c0,1.584-1.19,2.893-2.769,3.043l-4.374,0.417c-1.436,0.136-2.863-0.212-4.068-0.985l-2.289-1.467
			c-0.623-0.399-1.344-0.611-2.084-0.611c-0.725,0-1.432,0.203-2.046,0.587l-2.338,1.46c-1.176,0.735-2.562,1.069-3.951,0.95
			l-4.423-0.385c-1.592-0.139-2.793-1.448-2.793-3.045v-5.115c0-1.36,0.877-2.537,2.18-2.928l3.555-1.066
			c6.383-1.915,13.283-1.915,19.666,0l3.557,1.066c1.303,0.392,2.18,1.568,2.18,2.928v5.151H38.477z"/>
		<path d="M14.824,28.793l1.189,0.088c0.292,0.021,0.584,0.017,0.868,0.004v-11.27c-0.709,0.125-1.383,0.273-2.057,0.442V28.793z"/>
		<path d="M9.008,21.893v3.563c0,1.644,1.477,3.016,3.392,3.157l0.58,0.042V18.52l-1.324,0.337
			C10.088,19.259,9.008,20.493,9.008,21.893z"/>
		<path d="M0,22.792v2.315c0,1.615,1.313,2.925,2.908,2.925v-8.164C1.312,19.869,0,21.178,0,22.792z"/>
		<path d="M42.91,19.869v8.164c1.596,0,2.908-1.31,2.908-2.925v-2.314C45.818,21.178,44.506,19.869,42.91,19.869z"/>
	</g>
</g>
<g>
</g>
<g>
</g>
<g>
</g>
<g>
</g>
<g>
</g>
<g>
</g>
<g>
</g>
<g>
</g>
<g>
</g>
<g>
</g>
<g>
</g>
<g>
</g>
<g>
</g>
<g>
</g>
<g>
</g>
</svg>
