<?xml version="1.0" encoding="iso-8859-1"?>
<!-- Generator: Adobe Illustrator 19.0.0, SVG Export Plug-In . SVG Version: 6.00 Build 0)  -->
<svg version="1.1" id="Layer_1" xmlns="http://www.w3.org/2000/svg" xmlns:xlink="http://www.w3.org/1999/xlink" x="0px" y="0px"
	 viewBox="0 0 475 475" style="enable-background:new 0 0 475 475;" xml:space="preserve">
<g id="XMLID_786_">
	<g>
		<g>
			<path d="M202.5,115h30c0-10.697,2.433-15.359,5.799-21.812c4.1-7.857,9.201-17.636,9.201-35.688s-5.102-27.831-9.201-35.688
				C234.933,15.359,232.5,10.697,232.5,0h-30c0,18.053,5.102,27.831,9.201,35.688c3.366,6.452,5.799,11.114,5.799,21.812
				s-2.433,15.359-5.799,21.812C207.602,87.169,202.5,96.947,202.5,115z"/>
			<path d="M131.5,115h30c0-10.697,2.433-15.359,5.799-21.812c4.1-7.857,9.201-17.636,9.201-35.688s-5.102-27.831-9.201-35.688
				C163.933,15.359,161.5,10.697,161.5,0h-30c0,18.053,5.102,27.831,9.201,35.688c3.366,6.452,5.799,11.114,5.799,21.812
				s-2.433,15.359-5.799,21.812C136.602,87.169,131.5,96.947,131.5,115z"/>
			<path d="M317.5,205c-1.668,0-3.335,0.048-5,0.127V145h-260v265c0,35.841,29.159,65,65,65h130c34.203,0,62.3-26.56,64.799-60.135
				c1.732,0.085,3.466,0.135,5.201,0.135c57.897,0,105-47.103,105-105C422.5,252.103,375.397,205,317.5,205z M282.5,410
				c0,19.299-15.701,35-35,35h-130c-19.299,0-35-15.701-35-35V175h200V410z M317.5,385c-1.67,0-3.337-0.062-5-0.172V235.172
				c1.663-0.11,3.33-0.172,5-0.172c41.355,0,75,33.645,75,75C392.5,351.355,358.855,385,317.5,385z"/>
		</g>
	</g>
</g>
<g>
</g>
<g>
</g>
<g>
</g>
<g>
</g>
<g>
</g>
<g>
</g>
<g>
</g>
<g>
</g>
<g>
</g>
<g>
</g>
<g>
</g>
<g>
</g>
<g>
</g>
<g>
</g>
<g>
</g>
</svg>
