<?xml version="1.0" encoding="iso-8859-1"?>
<!-- Generator: Adobe Illustrator 17.1.0, SVG Export Plug-In . SVG Version: 6.00 Build 0)  -->
<!DOCTYPE svg PUBLIC "-//W3C//DTD SVG 1.1//EN" "http://www.w3.org/Graphics/SVG/1.1/DTD/svg11.dtd">
<svg version="1.1" id="Capa_1" xmlns="http://www.w3.org/2000/svg" xmlns:xlink="http://www.w3.org/1999/xlink" x="0px" y="0px"
	 viewBox="0 0 465.168 465.168" style="enable-background:new 0 0 465.168 465.168;" xml:space="preserve">
<g>
	<path d="M457.168,428.573H457V260.156c0-4.418-3.582-8-8-8h-56.25v-15.583h0.274c4.418,0,8-3.582,8-8s-3.582-8-8-8H376.75v-32.399
		h0.274c4.418,0,8-3.582,8-8s-3.582-8-8-8h-0.5C372.504,99.112,313.783,40.39,240.721,36.37v-7.775c0-4.418-3.582-8-8-8
		s-8,3.582-8,8v7.775C151.659,40.39,92.937,99.112,88.917,172.174h-0.5c-4.418,0-8,3.582-8,8s3.582,8,8,8h0.274v32.399H72.417
		c-4.418,0-8,3.582-8,8s3.582,8,8,8v15.583h-56.25c-4.418,0-8,3.582-8,8v168.417H8c-4.418,0-8,3.582-8,8s3.582,8,8,8h8.167h64.25
		H384.75H449h8.168c4.418,0,8-3.582,8-8S461.586,428.573,457.168,428.573z M88.417,428.573v-15.818
		c0-79.494,64.673-144.167,144.167-144.167c79.493,0,144.166,64.673,144.166,144.167v15.818H88.417z M232.721,52.144
		c67.908,0,123.627,53.147,127.772,120.029H104.949C109.093,105.291,164.813,52.144,232.721,52.144z M104.691,188.174H360.75v32.399
		h-24.583v-16.2c0-4.418-3.582-8-8-8s-8,3.582-8,8v16.2h-31.813v-16.2c0-4.418-3.582-8-8-8s-8,3.582-8,8v16.2h-31.813v-16.2
		c0-4.418-3.582-8-8-8s-8,3.582-8,8v16.2h-31.813v-16.2c0-4.418-3.582-8-8-8s-8,3.582-8,8v16.2h-31.813v-16.2c0-4.418-3.582-8-8-8
		s-8,3.582-8,8v16.2h-24.226V188.174z M376.75,236.573v23.583v82.856c-25.973-53.473-80.834-90.424-144.166-90.424
		c-63.333,0-118.194,36.951-144.167,90.424v-82.856v-23.583H376.75z M24.167,268.156h48.25v160.417h-48.25V268.156z M392.75,428.573
		V268.156H441v160.417H392.75z"/>
	<path d="M232.417,324.562c-13.233,0-24,10.766-24,24v55.761c0,4.418,3.582,8,8,8h32c4.418,0,8-3.582,8-8v-55.761
		C256.417,335.328,245.65,324.562,232.417,324.562z M240.417,396.323h-16v-47.761c0-4.411,3.589-8,8-8s8,3.589,8,8V396.323z"/>
	<path d="M160.417,324.562c-13.233,0-24,10.766-24,24v55.761c0,4.418,3.582,8,8,8h32c4.418,0,8-3.582,8-8v-55.761
		C184.417,335.328,173.65,324.562,160.417,324.562z M168.417,396.323h-16v-47.761c0-4.411,3.589-8,8-8s8,3.589,8,8V396.323z"/>
	<path d="M304.917,324.562c-13.233,0-24,10.766-24,24v55.761c0,4.418,3.582,8,8,8h32c4.418,0,8-3.582,8-8v-55.761
		C328.917,335.328,318.15,324.562,304.917,324.562z M312.917,396.323h-16v-47.761c0-4.411,3.589-8,8-8s8,3.589,8,8V396.323z"/>
</g>
<g>
</g>
<g>
</g>
<g>
</g>
<g>
</g>
<g>
</g>
<g>
</g>
<g>
</g>
<g>
</g>
<g>
</g>
<g>
</g>
<g>
</g>
<g>
</g>
<g>
</g>
<g>
</g>
<g>
</g>
</svg>
