<?xml version="1.0" encoding="iso-8859-1"?>
<!-- Generator: Adobe Illustrator 18.0.0, SVG Export Plug-In . SVG Version: 6.00 Build 0)  -->
<!DOCTYPE svg PUBLIC "-//W3C//DTD SVG 1.1//EN" "http://www.w3.org/Graphics/SVG/1.1/DTD/svg11.dtd">
<svg version="1.1" id="Capa_1" xmlns="http://www.w3.org/2000/svg" xmlns:xlink="http://www.w3.org/1999/xlink" x="0px" y="0px"
	 viewBox="0 0 49 49" style="enable-background:new 0 0 49 49;" xml:space="preserve">
<g>
	<path d="M24.5,29c-6.617,0-12,5.383-12,12c0,0.552,0.447,1,1,1s1-0.448,1-1c0-5.514,4.486-10,10-10s10,4.486,10,10
		c0,0.552,0.447,1,1,1s1-0.448,1-1C36.5,34.383,31.117,29,24.5,29z"/>
	<path d="M24.5,5c-1.711,0-3.435,0.221-5.14,0.634C18.349,2.775,16.694,0,14.5,0c-3.806,0-6,8.348-6,11
		c0,0.292,0.028,0.577,0.068,0.857C4.661,15.964,2.5,21.311,2.5,27c0,12.131,9.869,22,22,22s22-9.869,22-22S36.631,5,24.5,5z
		 M14.5,2c1.101,0,2.432,2.538,3.247,5.104c0.002,0.007,0,0.015,0.002,0.022C18.212,8.612,18.5,10.097,18.5,11c0,2.206-1.794,4-4,4
		c-0.256,0-0.505-0.029-0.747-0.076c-0.083-0.016-0.161-0.042-0.242-0.063c-0.156-0.04-0.31-0.085-0.458-0.142
		c-0.092-0.036-0.181-0.079-0.27-0.122c-0.126-0.06-0.247-0.126-0.365-0.199c-0.093-0.058-0.185-0.117-0.273-0.182
		c-0.096-0.071-0.187-0.149-0.276-0.228c-0.094-0.084-0.19-0.167-0.276-0.259c-0.056-0.059-0.103-0.125-0.155-0.188
		c-0.379-0.461-0.669-1.006-0.816-1.621c-0.004-0.018-0.014-0.033-0.019-0.05C10.539,11.589,10.5,11.3,10.5,11
		C10.5,8.175,12.782,2,14.5,2z M24.5,47c-11.028,0-20-8.972-20-20c0-4.824,1.696-9.387,4.807-13.008
		c0.129,0.224,0.273,0.438,0.43,0.642c0.004,0.005,0.008,0.011,0.013,0.017c0.302,0.391,0.648,0.745,1.036,1.052
		c0.048,0.038,0.097,0.073,0.146,0.109c0.141,0.104,0.285,0.203,0.435,0.295c0.06,0.037,0.12,0.075,0.182,0.11
		c0.196,0.112,0.398,0.215,0.607,0.305c0.018,0.008,0.037,0.014,0.055,0.022c0.201,0.083,0.409,0.154,0.621,0.215
		c0.071,0.02,0.142,0.037,0.214,0.055c0.168,0.042,0.338,0.077,0.511,0.104c0.072,0.011,0.143,0.024,0.215,0.033
		C14.01,16.98,14.253,17,14.5,17c3.309,0,6-2.691,6-6c0-0.177-0.011-0.383-0.031-0.606c-0.016-0.196-0.041-0.406-0.07-0.621
		c0-0.003-0.001-0.006-0.001-0.009c-0.092-0.677-0.24-1.431-0.45-2.227C21.46,7.18,22.987,7,24.5,7c11.028,0,20,8.972,20,20
		S35.528,47,24.5,47z"/>
	<path d="M37.5,24c-3.309,0-6-2.691-6-6c0-0.552-0.447-1-1-1s-1,0.448-1,1c0,4.411,3.589,8,8,8c0.553,0,1-0.448,1-1
		S38.053,24,37.5,24z"/>
	<path d="M19.5,18c0-0.552-0.447-1-1-1s-1,0.448-1,1c0,3.309-2.691,6-6,6c-0.553,0-1,0.448-1,1s0.447,1,1,1
		C15.911,26,19.5,22.411,19.5,18z"/>
</g>
<g>
</g>
<g>
</g>
<g>
</g>
<g>
</g>
<g>
</g>
<g>
</g>
<g>
</g>
<g>
</g>
<g>
</g>
<g>
</g>
<g>
</g>
<g>
</g>
<g>
</g>
<g>
</g>
<g>
</g>
</svg>
