<?xml version="1.0" encoding="iso-8859-1"?>
<!-- Generator: Adobe Illustrator 19.0.0, SVG Export Plug-In . SVG Version: 6.00 Build 0)  -->
<svg version="1.1" id="Capa_1" xmlns="http://www.w3.org/2000/svg" xmlns:xlink="http://www.w3.org/1999/xlink" x="0px" y="0px"
	 viewBox="0 0 463 463" style="enable-background:new 0 0 463 463;" xml:space="preserve">
<g>
	<path d="M463,335.5c0-12.958-10.542-23.5-23.5-23.5h-61.369L228.95,192.656c-6.977-5.582-15.74-8.656-24.675-8.656H183.5h-80H79
		v-22.73l23.208-46.416c0.026-0.052,0.044-0.105,0.069-0.158c0.069-0.145,0.134-0.292,0.194-0.442
		c0.037-0.092,0.069-0.185,0.102-0.278c0.047-0.135,0.092-0.27,0.132-0.408c0.033-0.115,0.061-0.229,0.089-0.344
		c0.028-0.117,0.054-0.235,0.076-0.354c0.026-0.138,0.046-0.277,0.064-0.416c0.013-0.101,0.026-0.201,0.034-0.303
		c0.014-0.157,0.02-0.313,0.024-0.47c0.001-0.06,0.009-0.119,0.009-0.18v-32c0-4.142-3.358-7.5-7.5-7.5H63V55.5
		c0-4.142-3.358-7.5-7.5-7.5S48,51.358,48,55.5V72H15.5C11.358,72,8,75.358,8,79.5v32c0,0.061,0.008,0.119,0.009,0.18
		c0.004,0.157,0.01,0.313,0.024,0.47c0.009,0.102,0.022,0.203,0.034,0.303c0.018,0.139,0.038,0.278,0.064,0.416
		c0.022,0.12,0.049,0.237,0.076,0.354c0.027,0.115,0.056,0.23,0.089,0.344c0.04,0.138,0.085,0.274,0.132,0.408
		c0.033,0.093,0.065,0.186,0.102,0.278c0.059,0.15,0.125,0.297,0.194,0.442c0.025,0.052,0.043,0.106,0.069,0.158L32,161.27V184H7.5
		c-4.142,0-7.5,3.358-7.5,7.5v216c0,4.142,3.358,7.5,7.5,7.5h24c4.142,0,7.5-3.358,7.5-7.5v-16c0-0.276,0.224-0.5,0.5-0.5h32
		c0.276,0,0.5,0.224,0.5,0.5v16c0,4.142,3.358,7.5,7.5,7.5h24c4.142,0,7.5-3.358,7.5-7.5v-92.894l61.803-61.803
		c1.407-1.406,2.197-3.314,2.197-5.303V231h8.5c4.142,0,7.5-3.358,7.5-7.5V199h13.275c5.542,0,10.978,1.907,15.305,5.369
		l135.149,108.119C344.051,314.699,336,324.176,336,335.5c0,10.336,6.71,19.128,16,22.266V407.5c0,4.142,3.358,7.5,7.5,7.5
		s7.5-3.358,7.5-7.5V359h65v48.5c0,4.142,3.358,7.5,7.5,7.5s7.5-3.358,7.5-7.5v-49.734C456.29,354.628,463,345.836,463,335.5z
		 M44.135,152l-16.5-33h55.73l-16.5,33H44.135z M23,87h65v17H23V87z M47,167h17v17H47V167z M87,400v-8.5
		c0-8.547-6.953-15.5-15.5-15.5h-32c-8.547,0-15.5,6.953-15.5,15.5v8.5h-9V199h81v24.5v87.998c0,0.001,0,0.003,0,0.005V400H87z
		 M160,244.394l-49,49V231h49V244.394z M176,216h-65v-17h65V216z M439.5,344h-80c-4.687,0-8.5-3.813-8.5-8.5s3.813-8.5,8.5-8.5
		h15.989c0.002,0,0.004,0,0.006,0c0.003,0,0.006,0,0.009,0H439.5c4.687,0,8.5,3.813,8.5,8.5S444.187,344,439.5,344z"/>
	<path d="M79.5,216h-48c-4.142,0-7.5,3.358-7.5,7.5s3.358,7.5,7.5,7.5h48c4.142,0,7.5-3.358,7.5-7.5S83.642,216,79.5,216z"/>
	<path d="M79.5,240h-48c-4.142,0-7.5,3.358-7.5,7.5s3.358,7.5,7.5,7.5h48c4.142,0,7.5-3.358,7.5-7.5S83.642,240,79.5,240z"/>
</g>
<g>
</g>
<g>
</g>
<g>
</g>
<g>
</g>
<g>
</g>
<g>
</g>
<g>
</g>
<g>
</g>
<g>
</g>
<g>
</g>
<g>
</g>
<g>
</g>
<g>
</g>
<g>
</g>
<g>
</g>
</svg>
