<?xml version="1.0" encoding="iso-8859-1"?>
<!-- Generator: Adobe Illustrator 18.1.1, SVG Export Plug-In . SVG Version: 6.00 Build 0)  -->
<svg version="1.1" id="Capa_1" xmlns="http://www.w3.org/2000/svg" xmlns:xlink="http://www.w3.org/1999/xlink" x="0px" y="0px"
	 viewBox="0 0 19.183 19.183" style="enable-background:new 0 0 19.183 19.183;" xml:space="preserve">
<g>
	<g>
		<circle cx="9.59" cy="0.645" r="0.645"/>
		<circle cx="9.59" cy="16.753" r="0.644"/>
		<circle cx="1.537" cy="8.698" r="0.644"/>
		<circle cx="17.645" cy="8.699" r="0.645"/>
		<circle cx="2.217" cy="5.459" r="0.645"/>
		<circle cx="16.964" cy="11.94" r="0.643"/>
		<circle cx="3.886" cy="3.014" r="0.645"/>
		<circle cx="15.297" cy="14.383" r="0.644"/>
		<circle cx="6.399" cy="1.303" r="0.643"/>
		<circle cx="12.782" cy="16.094" r="0.645"/>
		<circle cx="12.863" cy="1.339" r="0.644"/>
		<circle cx="6.32" cy="16.058" r="0.645"/>
		<circle cx="15.212" cy="2.93" r="0.645"/>
		<circle cx="3.972" cy="14.468" r="0.645"/>
		<circle cx="16.95" cy="5.424" r="0.644"/>
		<circle cx="2.235" cy="11.973" r="0.645"/>
		<path d="M11.219,15.398c1.202-0.297,2.307-0.908,3.204-1.806c2.682-2.681,2.682-7.04,0-9.72C13.128,2.575,11.402,1.86,9.565,1.86
			c-1.835,0-3.562,0.715-4.859,2.013c-1.299,1.298-2.015,3.024-2.015,4.86s0.715,3.562,2.015,4.859c0.896,0.897,2,1.507,3.2,1.806
			l-0.584,2.785h-3.05v1h10.618v-1h-3.085L11.219,15.398z M11.048,14.58l-0.123-0.585c0.254-0.063,0.506-0.132,0.746-0.231
			l0.241,0.547C11.635,14.427,11.34,14.505,11.048,14.58z M10.077,8.846c0-0.003,0.001-0.006,0.001-0.01h4.522
			c-0.003,0.138-0.009,0.275-0.021,0.409c-0.002,0.022-0.007,0.044-0.011,0.066c-0.018,0.148-0.037,0.293-0.066,0.437
			c-0.001,0.004-0.002,0.007-0.003,0.01c-0.064,0.316-0.16,0.623-0.283,0.915L10.077,8.846z M14.128,10.857
			c-0.235,0.504-0.549,0.963-0.931,1.359L10.028,9.05L14.128,10.857z M10.079,8.629c0-0.004-0.001-0.007-0.001-0.011l4.138-1.824
			c0.118,0.282,0.21,0.577,0.275,0.883c0.003,0.016,0.008,0.029,0.011,0.044c0.028,0.134,0.046,0.27,0.063,0.407
			c0.004,0.031,0.012,0.063,0.015,0.096c0.013,0.133,0.019,0.27,0.021,0.406h-4.522V8.629z M10.028,8.415l3.169-3.169
			c0.382,0.398,0.695,0.857,0.931,1.361L10.028,8.415z M9.878,8.272l1.81-4.103c0.505,0.236,0.963,0.551,1.361,0.932L9.878,8.272z
			 M13.051,12.365c-0.397,0.38-0.856,0.695-1.361,0.931L9.947,9.345L9.926,9.239L13.051,12.365z M11.503,13.384
			c-0.212,0.089-0.438,0.146-0.664,0.206l-0.684-3.263L11.503,13.384z M12.097,14.221l-0.24-0.546
			c0.541-0.251,1.044-0.593,1.485-1.018l0.422,0.422C13.269,13.56,12.705,13.939,12.097,14.221z M13.91,12.933l-0.423-0.422
			c0.427-0.441,0.767-0.943,1.019-1.487l0.543,0.24C14.773,11.866,14.396,12.432,13.91,12.933z M15.136,11.076l-0.54-0.238
			c0.135-0.324,0.236-0.661,0.308-1.007c0,0,0,0,0-0.001c0.032-0.157,0.055-0.316,0.074-0.475c0.002-0.023,0.007-0.047,0.009-0.069
			c0.016-0.149,0.021-0.3,0.023-0.451h0.593C15.593,9.6,15.436,10.361,15.136,11.076z M15.604,8.629h-0.593
			c-0.003-0.15-0.009-0.3-0.023-0.449c-0.003-0.031-0.009-0.062-0.013-0.092c-0.02-0.151-0.039-0.302-0.069-0.451
			c-0.003-0.01-0.006-0.02-0.008-0.03c-0.07-0.337-0.172-0.666-0.305-0.981l0.543-0.239C15.436,7.105,15.593,7.864,15.604,8.629z
			 M15.049,6.201L14.507,6.44c-0.252-0.542-0.594-1.044-1.02-1.486l0.423-0.422C14.395,5.034,14.773,5.6,15.049,6.201z
			 M13.764,4.386l-0.422,0.422c-0.442-0.426-0.944-0.767-1.487-1.02l0.239-0.546C12.705,3.524,13.269,3.907,13.764,4.386z
			 M9.667,2.689c0.782,0.014,1.541,0.171,2.242,0.466L11.67,3.701c-0.313-0.132-0.64-0.231-0.976-0.301
			c-0.012-0.003-0.022-0.007-0.035-0.009c-0.146-0.03-0.294-0.05-0.444-0.068c-0.033-0.004-0.065-0.012-0.099-0.015
			c-0.15-0.016-0.301-0.022-0.45-0.024L9.667,2.689L9.667,2.689z M9.667,3.698C9.805,3.7,9.94,3.703,10.074,3.719
			c0.034,0.003,0.064,0.011,0.101,0.016c0.135,0.016,0.27,0.034,0.402,0.061c0.012,0.002,0.024,0.007,0.039,0.01
			c0.307,0.065,0.603,0.158,0.885,0.277L9.677,8.22C9.674,8.219,9.67,8.218,9.667,8.218V3.698z M9.667,10.457l0.679,3.233
			c-0.224,0.036-0.447,0.073-0.679,0.077V10.457z M9.667,14.18c0.26-0.004,0.513-0.046,0.764-0.085l0.122,0.584
			c-0.291,0.047-0.585,0.094-0.886,0.098V14.18z M9.46,2.689v0.596C9.311,3.287,9.16,3.293,9.01,3.308
			C8.99,3.311,8.969,3.315,8.948,3.317C8.433,3.375,7.93,3.502,7.46,3.701L7.218,3.156C7.92,2.862,8.677,2.702,9.46,2.689z
			 M9.101,8.415l-4.1-1.807c0.236-0.505,0.552-0.963,0.931-1.361L9.101,8.415z M6.078,5.101C6.476,4.72,6.935,4.405,7.44,4.169
			l1.809,4.1L6.078,5.101z M9.052,8.62C9.051,8.623,9.051,8.627,9.051,8.63h-4.52C4.532,8.493,4.536,8.356,4.55,8.221
			c0.002-0.023,0.008-0.044,0.011-0.067c0.055-0.476,0.173-0.934,0.352-1.36L9.052,8.62z M9.051,8.835
			c0,0.004,0.001,0.007,0.001,0.01l-4.139,1.826c-0.121-0.292-0.216-0.594-0.282-0.909C4.63,9.756,4.628,9.752,4.627,9.747
			C4.598,9.608,4.579,9.469,4.564,9.328c-0.003-0.029-0.01-0.057-0.013-0.086C4.536,9.109,4.532,8.972,4.53,8.835H9.051z
			 M9.101,9.05l-3.169,3.168C5.552,11.822,5.236,11.363,5,10.859L9.101,9.05z M9.198,9.246L9.173,9.365l-1.732,3.931
			c-0.506-0.235-0.963-0.552-1.361-0.931L9.198,9.246z M8.968,10.338l-0.682,3.25c-0.226-0.059-0.451-0.116-0.661-0.204
			L8.968,10.338z M8.694,14.095c0.253,0.04,0.507,0.081,0.766,0.086v0.596c-0.302-0.004-0.596-0.052-0.889-0.099L8.694,14.095z
			 M8.778,13.689l0.682-3.245v3.323C9.228,13.763,9.003,13.725,8.778,13.689z M9.451,8.22L7.626,4.082
			c0.429-0.18,0.887-0.3,1.367-0.354c0.021-0.002,0.041-0.006,0.062-0.009c0.132-0.014,0.27-0.018,0.405-0.021v4.52
			C9.457,8.219,9.454,8.219,9.451,8.22z M7.032,3.245L7.273,3.79C6.73,4.042,6.229,4.382,5.786,4.81L5.365,4.386
			C5.86,3.907,6.423,3.524,7.032,3.245z M5.219,4.533L5.64,4.955C5.214,5.398,4.872,5.898,4.62,6.441l-0.544-0.24
			C4.358,5.59,4.739,5.027,5.219,4.533z M3.989,6.386l0.545,0.24c-0.134,0.321-0.237,0.657-0.308,1c0,0.003-0.001,0.006-0.002,0.009
			C4.192,7.791,4.169,7.948,4.151,8.106C4.149,8.13,4.143,8.154,4.141,8.179C4.125,8.328,4.12,8.477,4.118,8.629H3.521
			C3.533,7.846,3.692,7.088,3.989,6.386z M3.521,8.835h0.596C4.12,8.986,4.124,9.136,4.14,9.285c0.004,0.03,0.01,0.061,0.015,0.092
			c0.016,0.152,0.038,0.301,0.067,0.451c0.003,0.01,0.006,0.02,0.007,0.028c0.072,0.337,0.173,0.667,0.304,0.981l-0.545,0.24
			C3.692,10.375,3.533,9.619,3.521,8.835z M4.077,11.266l0.545-0.241c0.252,0.543,0.592,1.045,1.019,1.487l-0.422,0.422
			C4.739,12.438,4.358,11.875,4.077,11.266z M5.365,13.079l0.421-0.422c0.442,0.425,0.943,0.766,1.486,1.017l-0.24,0.546
			C6.423,13.939,5.86,13.559,5.365,13.079z M7.218,14.309l0.241-0.547c0.238,0.101,0.491,0.167,0.742,0.23l-0.123,0.585
			C7.786,14.504,7.494,14.425,7.218,14.309z M7.835,18.183L8.399,15.5c0.381,0.065,0.771,0.105,1.167,0.105
			c0.394,0,0.781-0.04,1.161-0.104l0.563,2.682C11.289,18.183,7.835,18.183,7.835,18.183z"/>
	</g>
</g>
<g>
</g>
<g>
</g>
<g>
</g>
<g>
</g>
<g>
</g>
<g>
</g>
<g>
</g>
<g>
</g>
<g>
</g>
<g>
</g>
<g>
</g>
<g>
</g>
<g>
</g>
<g>
</g>
<g>
</g>
</svg>
