<?xml version="1.0" encoding="iso-8859-1"?>
<!-- Generator: Adobe Illustrator 18.1.1, SVG Export Plug-In . SVG Version: 6.00 Build 0)  -->
<svg version="1.1" id="Capa_1" xmlns="http://www.w3.org/2000/svg" xmlns:xlink="http://www.w3.org/1999/xlink" x="0px" y="0px"
	 viewBox="0 0 19.938 19.938" style="enable-background:new 0 0 19.938 19.938;" xml:space="preserve">
<g>
	<path d="M19.548,11.995c-0.336-0.883-0.349-1.508-0.263-1.871c0.086-0.361,0.275-0.477,0.275-0.477s-0.013-0.162-0.175-0.162
		c-0.158,0-0.621,0.047-0.621,0.047s0.36-0.699,0.42-1.801c0.058-1.102-0.03-1.754-0.03-1.9s-0.057-0.291-0.232-0.436
		c-0.174-0.145-0.347-0.434-0.261-0.479c0.086-0.043,0.202,0.031,0.232-0.057c0.012-0.035,0.005-0.088,0-0.129
		c-0.005-0.066-0.015-0.117-0.015-0.117c0.021-0.016,0.085-0.006,0.086-0.049c-0.05-0.086-0.13-0.156-0.13-0.156
		s0.013-0.115-0.03-0.201c-0.041-0.088-0.216-0.232-0.404-0.189c-0.189,0.043-0.352,0.033-0.364,0.309
		c-0.009,0.168,0.104,0.17,0.088,0.258s-0.009,0.201-0.058,0.264c-0.06,0.068-0.392-0.309-0.625-0.393
		c-0.23-0.088-0.42-0.088-0.42-0.088l-0.275,0.23c0,0-0.914-0.275-1.407-0.289c-0.493-0.016-0.624,0.059-0.537,0.26
		c0.087,0.203,0.264,0.406,0.16,0.496c-0.101,0.084-0.203,0.201-0.101,0.271c0.101,0.076,0.231,0.119,0.231,0.119
		s-0.448,0.58,0.436,0.521c0.885-0.059,1.103-0.307,1.103-0.307s0.231,0.031,0.305,0.088c0.07,0.057,0.204,0.16,0.246,0.174
		c0.045,0.018,0.133,0.174,0.465,0.188c0.333,0.016,0.421-0.027,0.479,0.074c0.06,0.098,0.306,0.334,0.276,0.508
		s-0.339,0.279-0.471,0.506c-0.299,0.514-0.139,1.152-0.881,1.932c-0.171,0.178-0.418,0.463-0.606,0.725
		c-0.189,0.26-0.261,0.535-0.261,0.535s0.261,0.248,0.636,0.451c0.378,0.203,0.596,0.408,0.596,0.408l-0.029,0.244
		c0,0,0.683,0.188,0.509,0.479c-0.176,0.291-0.696,0.291-0.696,0.291l0.015,0.391l0.551-0.014c0,0-0.015,0.74-1.958,1.057
		c-1.533,0.254-4.273,0.316-5.641,0.33l0.078-4.887l0.007-0.244c0,0,0.392-0.188,0.248-0.436c-0.107-0.178-0.199-0.297-0.24-0.348
		l0.092-5.855l0.167-0.09l-0.263-1.029L9.992,2.17l0.202,0.107l-0.052,3.381L10.087,8.08c0,0-0.057,0.115-0.189,0.176
		C9.771,8.313,9.712,8.239,9.712,8.239s-0.1-0.346-0.452-0.65C8.913,7.28,8.696,7.211,8.696,7.211l0.029-0.188
		c0,0,0.206,0.115,0.261,0.043C9.044,6.993,9.034,6.891,8.99,6.791C8.949,6.69,8.956,6.616,8.943,6.573
		C8.931,6.528,9.044,6.556,9.044,6.498c0-0.057-0.174-0.258-0.174-0.258S8.843,6.037,8.781,5.933
		c-0.06-0.105-0.142-0.129-0.42-0.058C8.087,5.95,7.999,6.067,8.03,6.268C8.058,6.47,8.115,6.556,8.058,6.602
		C7.999,6.645,7.883,6.731,7.956,6.804C8.03,6.877,8.144,6.936,8.144,6.936L8.102,7.181L7.739,7.254c0,0,0.088-0.23-0.016-0.291
		C7.622,6.905,7.568,6.86,7.568,6.86l0.004-4.75l0.165-0.076L7.475,1.006L7.213,2.028l0.168,0.09L7.373,6.909
		c0,0-0.113,0.113-0.067,0.229c0.022,0.064,0.051,0.129,0.071,0.189v0.234C7.323,7.7,7.217,7.907,7.217,7.907
		S7.058,7.371,6.869,7.224c-0.189-0.142-0.436-0.2-0.436-0.2V6.746c0,0,0.145-0.043,0.204-0.115
		c0.059-0.075,0.014-0.174-0.044-0.263C6.535,6.282,6.549,6.136,6.49,5.95C6.433,5.759,6.375,5.804,6.375,5.804
		S6.332,5.63,6.085,5.671C5.838,5.716,5.753,5.832,5.768,6.093c0.013,0.26-0.088,0.26-0.073,0.391
		c0.011,0.132,0.131,0.262,0.187,0.262c0.06,0,0.072,0.115-0.029,0.189c-0.1,0.073-0.642,0.257-0.642,0.257S5.142,7.776,5.172,8.256
		C5.2,8.735,5.301,8.905,5.417,8.979c0.115,0.076,0.174,0.119,0.174,0.119S5.49,9.444,5.462,9.746
		c-0.028,0.306-0.028,0.407-0.028,0.407l-0.262-0.114c0,0-0.073-0.262-0.073-0.391c0-0.135-0.015-0.393-0.028-0.494
		c-0.013-0.1-0.073-0.725-0.013-0.973c0.058-0.245-0.03-0.505-0.016-0.591C5.058,7.5,5.069,7.34,4.953,7.195
		C4.837,7.052,4.795,7.007,4.665,6.946C4.533,6.893,4.418,6.905,4.39,6.776c-0.03-0.131-0.015-0.26-0.015-0.26
		s0.158,0.027,0.203-0.223C4.621,6.05,4.651,5.95,4.49,5.875c0,0,0.062-0.166-0.068-0.34c-0.13-0.176-0.295-0.139-0.295-0.139
		l-0.1-0.029c0,0-0.245,0.029-0.334,0.191c-0.087,0.158-0.04,0.224-0.04,0.328c0,0.1-0.133,0.223-0.019,0.309
		C3.688,6.234,3.606,6.427,3.738,6.47c0.128,0.045,0.128,0.045,0.128,0.045s0.06,0.215-0.029,0.188
		C3.75,6.672,3.561,6.528,3.317,6.556C3.07,6.589,2.867,6.589,2.723,6.657C2.576,6.73,2.663,6.759,2.446,6.759s-0.479,0-0.479,0
		s-0.1-0.102-0.143-0.102c-0.046,0-0.596-0.027-0.596-0.027L1.097,6.69L0.72,6.672L0.531,6.616c0,0-0.074-0.176-0.116-0.176
		c0,0,0.128-1.375,0.564-1.885C1.414,4.048,1.647,4.089,2.11,3.991c0.465-0.103,0.844-0.245,1.045-0.465
		C3.36,3.308,3.447,3.063,3.447,3.063s0.046-0.184-0.039-0.047C3.156,3.412,3.045,3.513,2.885,3.591
		c-0.623,0.303-0.89,0.197-1.411,0.371C0.951,4.134,0.778,4.323,0.531,4.86C0.284,5.396,0.169,6.47,0.169,6.47
		S0.037,6.543,0.037,6.657c0,0.117-0.072,0.32-0.016,0.365C0.08,7.067,0.126,7.034,0.126,7.034s0.027,1.307,0.36,1.943
		c0.257,0.49,0.598,0.639,0.743,0.68c0.071,0.439,0.184,0.905,0.044,1.252c-0.205,0.492-0.35,1.029-0.35,1.029
		s0.639,0.346,0.87,0.436c0.233,0.086,0.305,0.172,0.305,0.172L2.07,12.898c0,0,0.259,0.246,0.595,0.285
		c0.332,0.049,0.565,0.178,0.696,0.264c0.132,0.09,0.102,0.395,0.102,0.395l-3.005-0.246l0.264,1.143l0.942,0.145l0.247,0.613
		c0,0,0.854,0.475,2.045,0.766c1.187,0.291,3.292,0.291,3.292,0.291s-0.351,0.68,0.071,1.102c0.42,0.422,1.016,0.322,1.016,0.322
		v0.91h1.292V18.12c0,0,0.644,0.043,0.79,0.014s0.259-0.146,0.259-0.146v0.9l1.72,0.037l-0.093-1.123l1.122-0.014v1.145h2.017
		c0,0,0.042-0.871-0.103-1.451s-0.464-1.104-0.509-1.115c-0.043-0.016,3.267-0.234,4.397-1.32
		C20.359,13.954,19.879,12.882,19.548,11.995z M1.183,9.125C1.179,9.231,1.188,9.343,1.198,9.461
		c-0.113-0.059-0.35-0.227-0.579-0.727C0.298,8.037,0.387,7.052,0.387,7.052s0.028-0.018,0.131-0.018
		c0.102,0,0.348,0.104,0.348,0.104l1.13,0.42C1.995,7.558,1.213,8.575,1.183,9.125z M5.775,13.345
		c-0.038,0.125-0.047,0.23-0.028,0.281c0.021,0.049,0.028,0.271,0.028,0.271l-0.646-0.066c0,0,0.146-0.059,0.105-0.146
		C5.197,13.599,5.07,13.568,5.07,13.54c0-0.029-0.027-0.184,0.039-0.365c0.066-0.188,0.251-0.533,0.251-0.533l0.396,0.047
		C5.757,12.689,5.815,13.22,5.775,13.345z M7.216,14.001c0,0,0.116-0.096,0.089-0.154c-0.031-0.057-0.241-0.039-0.416-0.074
		c-0.175-0.039-0.28-0.146-0.312-0.281c-0.028-0.135,0.071-0.783,0.071-0.783l0.221,0.01c0,0,0.194-2.164,0.194-2.67
		c0-0.5,0.018-0.754-0.03-0.918c-0.048-0.165-0.086-0.28-0.086-0.28l0.02-0.221c0,0,0.125,0.094,0.262,0.105
		C7.29,8.737,7.34,8.729,7.376,8.718v2.062c-0.003,0.055-0.009,0.104-0.014,0.139c-0.057,0.395,0.04,1.48-0.009,1.738
		c-0.047,0.264-0.029,0.764-0.029,0.764l0.054,0.057v0.523H7.216z M9.99,14.038C9.722,14.04,9.567,14.04,9.567,14.04
		s0.045-0.174-0.058-0.188s-0.406,0.014-0.479-0.146C8.958,13.548,9.046,13.3,9.046,13.3l0.188-0.025l0.204-1.322
		c0,0,0.507-0.07,0.521-0.201c0.016-0.131,0.073-0.666,0.073-0.666L9.99,14.038z"/>
</g>
<g>
</g>
<g>
</g>
<g>
</g>
<g>
</g>
<g>
</g>
<g>
</g>
<g>
</g>
<g>
</g>
<g>
</g>
<g>
</g>
<g>
</g>
<g>
</g>
<g>
</g>
<g>
</g>
<g>
</g>
</svg>
