<?xml version="1.0" encoding="iso-8859-1"?>
<!-- Generator: Adobe Illustrator 19.0.0, SVG Export Plug-In . SVG Version: 6.00 Build 0)  -->
<svg version="1.1" id="Layer_1" xmlns="http://www.w3.org/2000/svg" xmlns:xlink="http://www.w3.org/1999/xlink" x="0px" y="0px"
	 viewBox="0 0 463.501 463.501" style="enable-background:new 0 0 463.501 463.501;" xml:space="preserve">
<g id="XMLID_1002_">
	<g>
		<g>
			<path d="M246.751,30V0h-30v30h-215v30h30v290h90.974l-25.56,106.5l29.172,7.001l12.84-53.5h185.148l12.84,53.5l29.172-7.001
				L340.776,350h90.974V60h30V30H246.751z M146.377,380l7.2-30h156.348l7.2,30H146.377z M401.75,320h-340V60h340V320z"/>
			<polygon points="209.474,188.936 254.029,233.491 359.857,127.663 338.645,106.45 254.029,191.064 209.474,146.51 
				103.644,252.337 124.857,273.55 			"/>
		</g>
	</g>
</g>
<g>
</g>
<g>
</g>
<g>
</g>
<g>
</g>
<g>
</g>
<g>
</g>
<g>
</g>
<g>
</g>
<g>
</g>
<g>
</g>
<g>
</g>
<g>
</g>
<g>
</g>
<g>
</g>
<g>
</g>
</svg>
