<?xml version="1.0" encoding="iso-8859-1"?>
<!-- Generator: Adobe Illustrator 19.0.0, SVG Export Plug-In . SVG Version: 6.00 Build 0)  -->
<svg version="1.1" id="Capa_1" xmlns="http://www.w3.org/2000/svg" xmlns:xlink="http://www.w3.org/1999/xlink" x="0px" y="0px"
	 viewBox="0 0 463 463" style="enable-background:new 0 0 463 463;" xml:space="preserve">
<g>
	<path d="M375.5,0h-288C74.542,0,64,10.542,64,23.5v416c0,12.958,10.542,23.5,23.5,23.5h288c12.958,0,23.5-10.542,23.5-23.5v-416
		C399,10.542,388.458,0,375.5,0z M384,439.5c0,4.687-3.813,8.5-8.5,8.5h-288c-4.687,0-8.5-3.813-8.5-8.5v-416
		c0-4.687,3.813-8.5,8.5-8.5h288c4.687,0,8.5,3.813,8.5,8.5V439.5z"/>
	<path d="M327.5,48h-192C122.542,48,112,58.542,112,71.5v320c0,12.958,10.542,23.5,23.5,23.5h192c12.958,0,23.5-10.542,23.5-23.5
		v-320C351,58.542,340.458,48,327.5,48z M135.5,63h192c4.687,0,8.5,3.813,8.5,8.5V224H127V71.5C127,66.813,130.813,63,135.5,63z
		 M327.5,400h-192c-4.687,0-8.5-3.813-8.5-8.5V239h209v152.5C336,396.187,332.187,400,327.5,400z"/>
	<path d="M231.5,272c-26.191,0-47.5,21.309-47.5,47.5s21.309,47.5,47.5,47.5s47.5-21.309,47.5-47.5S257.691,272,231.5,272z
		 M231.5,352c-17.92,0-32.5-14.58-32.5-32.5s14.58-32.5,32.5-32.5s32.5,14.58,32.5,32.5S249.42,352,231.5,352z"/>
	<path d="M231.5,191c4.142,0,7.5-3.358,7.5-7.5v-80c0-4.142-3.358-7.5-7.5-7.5s-7.5,3.358-7.5,7.5v80
		C224,187.642,227.358,191,231.5,191z"/>
</g>
<g>
</g>
<g>
</g>
<g>
</g>
<g>
</g>
<g>
</g>
<g>
</g>
<g>
</g>
<g>
</g>
<g>
</g>
<g>
</g>
<g>
</g>
<g>
</g>
<g>
</g>
<g>
</g>
<g>
</g>
</svg>
