<?xml version="1.0" encoding="iso-8859-1"?>
<!-- Generator: Adobe Illustrator 18.0.0, SVG Export Plug-In . SVG Version: 6.00 Build 0)  -->
<!DOCTYPE svg PUBLIC "-//W3C//DTD SVG 1.1//EN" "http://www.w3.org/Graphics/SVG/1.1/DTD/svg11.dtd">
<svg version="1.1" id="Capa_1" xmlns="http://www.w3.org/2000/svg" xmlns:xlink="http://www.w3.org/1999/xlink" x="0px" y="0px"
	 viewBox="0 0 60.003 60.003" style="enable-background:new 0 0 60.003 60.003;" xml:space="preserve">
<g>
	<path d="M59.796,26.069c-0.402-1.697-1.366-3.156-2.577-3.902c-0.811-0.499-1.678-0.66-2.507-0.461
		c-0.189,0.045-0.371,0.114-0.549,0.198c-2.336-5.686-5.98-9.364-9.727-11.737l1.36-2.719c0.247-0.494,0.047-1.095-0.447-1.342
		c-0.496-0.246-1.095-0.047-1.342,0.447l-1.302,2.605c-0.617-0.327-1.231-0.626-1.837-0.892l0.983-2.949
		c0.175-0.524-0.108-1.091-0.632-1.265c-0.527-0.177-1.091,0.108-1.265,0.632l-0.948,2.844c-0.693-0.248-1.366-0.461-2.011-0.641
		l0.857-2.57c0.175-0.524-0.108-1.091-0.632-1.265c-0.526-0.177-1.091,0.108-1.265,0.632l-0.908,2.723
		C33.779,6.142,32.7,5.997,31.9,5.92V4.001c0-0.553-0.448-1-1-1s-1,0.447-1,1v1.842c-0.525,0.025-1.444,0.096-2.632,0.282
		l-0.381-2.288c-0.091-0.544-0.602-0.917-1.151-0.822c-0.544,0.091-0.913,0.606-0.822,1.15L25.303,6.5
		c-1.071,0.242-2.259,0.575-3.508,1.022l-0.946-2.838c-0.174-0.523-0.739-0.809-1.265-0.632c-0.524,0.174-0.807,0.74-0.632,1.265
		l0.981,2.943c-0.863,0.379-1.742,0.82-2.622,1.325l-1.516-3.032c-0.247-0.494-0.846-0.693-1.342-0.447
		c-0.494,0.247-0.694,0.848-0.447,1.342l1.601,3.203c-0.881,0.602-1.75,1.286-2.595,2.048l-2.405-2.405
		c-0.391-0.391-1.023-0.391-1.414,0s-0.391,1.023,0,1.414l2.386,2.386c-3.075,3.273-5.645,7.838-6.824,14.215
		c-0.015,0.083-0.025,0.167-0.04,0.25c-0.254-0.07-0.512-0.118-0.776-0.118C1.73,28.44,0,30.823,0,33.864s1.73,5.424,3.939,5.424
		c0.403,0,0.798-0.102,1.177-0.267c0.701,2.671,1.863,5.179,3.459,7.379c3.245,4.473,9.638,9.754,21.804,9.602
		c0.188,0.003,0.376,0.004,0.563,0.004c2.991,0,5.779-0.347,8.326-1.005l0.541,0.541c0.975,0.975,2.255,1.462,3.535,1.462
		c1.281,0,2.561-0.487,3.536-1.462l0.707-0.707c1.298-1.298,1.712-3.134,1.281-4.794c1.247-1.09,2.374-2.306,3.342-3.639
		c2.881-3.971,4.346-8.946,4.23-14.077c0.034,0.001,0.07,0.014,0.104,0.014c0.227,0,0.452-0.026,0.672-0.079
		C59.363,31.746,60.497,29.027,59.796,26.069z M4.674,36.99c-0.206,0.166-0.456,0.298-0.734,0.298C3.022,37.288,2,35.882,2,33.864
		s1.022-3.424,1.939-3.424c0.167,0,0.335,0.047,0.504,0.139c-0.049,0.533-0.081,1.066-0.096,1.597c-0.001,0.034,0,0.067-0.001,0.101
		c-0.011,0.446-0.009,0.89,0.004,1.332c0.004,0.136,0.009,0.271,0.015,0.407c0.016,0.36,0.042,0.719,0.074,1.076
		c0.012,0.14,0.021,0.281,0.036,0.421c0.047,0.438,0.106,0.874,0.177,1.307C4.66,36.877,4.664,36.934,4.674,36.99z M46.173,53.42
		l-0.707,0.707c-1.171,1.17-3.074,1.169-4.243,0l-4.513-4.513c0.821-0.448,1.565-1.008,2.267-1.624c0.02,0,0.038,0.011,0.059,0.009
		c0.504,0.302,1.675,1.371,3.486,3.184l0.116,0.115c0.195,0.195,0.451,0.293,0.707,0.293s0.512-0.098,0.707-0.293
		c0.391-0.391,0.391-1.023,0-1.414l-0.115-0.115c-0.636-0.637-1.598-1.6-2.477-2.381c-0.319-0.284-0.663-0.584-1.013-0.84
		c0.459-0.517,0.924-1.098,1.334-1.763l4.392,4.393c0.136,0.136,0.252,0.283,0.356,0.436c0.103,0.155,0.193,0.321,0.269,0.498
		l0.051,0.12C47.255,51.303,47.033,52.559,46.173,53.42z M50.591,45.226c-0.775,1.067-1.657,2.059-2.631,2.957
		c-0.116-0.147-0.241-0.287-0.373-0.42l-5.146-5.146C42.803,41.475,43,40.261,43,39.001c0-0.553-0.448-1-1-1s-1,0.447-1,1
		c0,5.514-4.486,10-10,10s-10-4.486-10-10c0-0.553-0.448-1-1-1s-1,0.447-1,1c0,6.617,5.383,12,12,12
		c1.286,0,2.522-0.208,3.684-0.584l2.933,2.933c-2.224,0.469-4.648,0.688-7.238,0.652c-9.065,0.166-15.869-2.826-20.185-8.775
		c-2.062-2.843-3.329-6.256-3.726-9.867c-0.008-0.078-0.01-0.157-0.017-0.236c-0.057-0.569-0.089-1.144-0.102-1.721
		c-0.005-0.252-0.001-0.504,0.002-0.757c0.004-0.406,0.021-0.814,0.047-1.222c0.019-0.294,0.039-0.588,0.069-0.883
		c0.064-0.623,0.138-1.246,0.253-1.869c1.097-5.928,3.438-10.163,6.236-13.199l1.235,1.235c0.195,0.195,0.451,0.293,0.707,0.293
		s0.512-0.098,0.707-0.293c0.391-0.391,0.391-1.023,0-1.414l-1.23-1.23c0.684-0.619,1.384-1.181,2.095-1.683l0.534,1.067
		c0.175,0.351,0.528,0.553,0.896,0.553c0.15,0,0.303-0.034,0.446-0.105c0.494-0.247,0.694-0.848,0.447-1.342l-0.628-1.257
		c0.795-0.464,1.59-0.872,2.372-1.22l0.413,1.24c0.14,0.419,0.53,0.684,0.949,0.684c0.104,0,0.211-0.017,0.316-0.052
		c0.524-0.174,0.807-0.74,0.632-1.265l-0.45-1.35c1.148-0.407,2.235-0.7,3.224-0.917l0.291,1.747
		c0.082,0.489,0.505,0.836,0.985,0.836c0.054,0,0.11-0.004,0.166-0.014c0.544-0.091,0.913-0.606,0.822-1.15L27.591,8.06
		c1.021-0.146,1.824-0.201,2.31-0.22v2.161c0,0.553,0.448,1,1,1s1-0.447,1-1V7.904c0.669,0.06,1.531,0.169,2.525,0.359l-0.474,1.422
		c-0.175,0.524,0.108,1.091,0.632,1.265c0.105,0.035,0.212,0.052,0.316,0.052c0.419,0,0.809-0.265,0.949-0.684l0.535-1.605
		c0.644,0.173,1.319,0.383,2.015,0.631l-0.447,1.342c-0.175,0.524,0.108,1.091,0.632,1.265c0.105,0.035,0.212,0.052,0.316,0.052
		c0.419,0,0.809-0.265,0.949-0.684l0.41-1.231c0.526,0.234,1.057,0.495,1.59,0.78l-0.844,1.688
		c-0.247,0.494-0.047,1.095,0.447,1.342c0.144,0.071,0.296,0.105,0.446,0.105c0.367,0,0.72-0.202,0.896-0.553l0.779-1.559
		c3.519,2.289,6.924,5.861,9.027,11.456l-0.007,0.01l0.182,0.513c0.26,0.73,0.483,1.461,0.686,2.201
		c0.026,0.096,0.054,0.19,0.079,0.287c0.2,0.759,0.376,1.526,0.522,2.316c0.124,0.668,0.207,1.337,0.272,2.005
		c0.011,0.113,0.026,0.223,0.035,0.337C54.794,36.186,53.466,41.262,50.591,45.226z M56.751,30.313
		c-0.136,0.032-0.281,0.032-0.436,0c-0.004-0.04-0.012-0.076-0.016-0.115c-0.068-0.63-0.153-1.26-0.269-1.89
		c-0.143-0.771-0.31-1.51-0.492-2.229c-0.021-0.084-0.047-0.167-0.069-0.25c-0.179-0.685-0.375-1.345-0.587-1.984
		c-0.006-0.017-0.01-0.035-0.015-0.052c0.101-0.069,0.204-0.116,0.31-0.142c0.379-0.09,0.751,0.068,0.994,0.219
		c0.758,0.467,1.402,1.486,1.68,2.66C58.315,28.494,57.644,30.101,56.751,30.313z"/>
	<path d="M36.5,17.001c-1.917,0-3.764,0.509-5.341,1.471c-1.022,0.623-2.293,0.624-3.317,0c-1.578-0.962-3.425-1.471-5.341-1.471
		c-5.238,0-9.5,3.813-9.5,8.5s4.262,8.5,9.5,8.5c1.917,0,3.764-0.509,5.341-1.471c1.023-0.623,2.294-0.623,3.317,0
		c1.578,0.962,3.425,1.471,5.341,1.471c5.238,0,9.5-3.813,9.5-8.5S41.738,17.001,36.5,17.001z M36.5,32.001
		c-1.549,0-3.036-0.407-4.3-1.178c-0.833-0.508-1.766-0.762-2.7-0.762s-1.867,0.254-2.7,0.762c-1.264,0.771-2.751,1.178-4.3,1.178
		c-4.136,0-7.5-2.916-7.5-6.5s3.364-6.5,7.5-6.5c1.549,0,3.036,0.407,4.3,1.178c1.665,1.016,3.734,1.016,5.399,0
		c1.264-0.771,2.751-1.178,4.3-1.178c4.136,0,7.5,2.916,7.5,6.5S40.636,32.001,36.5,32.001z"/>
	<circle cx="24" cy="27.001" r="2"/>
	<circle cx="36" cy="26.001" r="3"/>
</g>
<g>
</g>
<g>
</g>
<g>
</g>
<g>
</g>
<g>
</g>
<g>
</g>
<g>
</g>
<g>
</g>
<g>
</g>
<g>
</g>
<g>
</g>
<g>
</g>
<g>
</g>
<g>
</g>
<g>
</g>
</svg>
