<?xml version="1.0" encoding="iso-8859-1"?>
<!-- Generator: Adobe Illustrator 18.0.0, SVG Export Plug-In . SVG Version: 6.00 Build 0)  -->
<!DOCTYPE svg PUBLIC "-//W3C//DTD SVG 1.1//EN" "http://www.w3.org/Graphics/SVG/1.1/DTD/svg11.dtd">
<svg version="1.1" id="Capa_1" xmlns="http://www.w3.org/2000/svg" xmlns:xlink="http://www.w3.org/1999/xlink" x="0px" y="0px"
	 viewBox="0 0 49 49" style="enable-background:new 0 0 49 49;" xml:space="preserve">
<g>
	<circle cx="18" cy="26.662" r="2"/>
	<circle cx="32" cy="26.662" r="2"/>
	<path d="M45.888,19.976c-0.055-0.273-0.133-0.534-0.197-0.802c-0.065-0.271-0.124-0.544-0.199-0.811
		c-0.115-0.412-0.25-0.813-0.387-1.214c-0.066-0.192-0.125-0.388-0.196-0.577c-0.176-0.471-0.373-0.928-0.579-1.38
		c-0.052-0.115-0.098-0.233-0.152-0.347c-0.227-0.477-0.475-0.939-0.734-1.394c-0.053-0.094-0.101-0.191-0.155-0.284
		c-0.227-0.385-0.473-0.755-0.723-1.123c-0.115-0.17-0.222-0.345-0.341-0.512c-0.132-0.183-0.276-0.356-0.414-0.535
		c-4.044-5.306-10.404-8.66-17.47-8.66c-8.3,0-15.628,4.782-19.259,11.978c-0.061,0.119-0.126,0.234-0.184,0.354
		c-0.166,0.344-0.314,0.698-0.462,1.053c-0.106,0.252-0.217,0.501-0.315,0.758c-0.111,0.295-0.206,0.598-0.305,0.899
		c-0.104,0.315-0.21,0.629-0.301,0.951c-0.083,0.295-0.149,0.598-0.22,0.898c-0.059,0.25-0.133,0.493-0.183,0.747
		C1.306,20.955,0,23.084,0,25.163c0,2.153,1.268,4.089,3.208,4.979C5.704,39.896,14.385,46.663,24.5,46.663
		c10.115,0,18.797-6.767,21.292-16.521c1.94-0.89,3.208-2.825,3.208-4.979C49,23.084,47.694,20.955,45.888,19.976z M5.286,19.48
		c0.067-0.27,0.139-0.536,0.216-0.801c0.089-0.306,0.184-0.609,0.287-0.907c0.078-0.228,0.161-0.455,0.246-0.679
		c0.135-0.351,0.278-0.698,0.432-1.037c0.063-0.141,0.128-0.282,0.194-0.422C9.867,8.981,16.603,4.663,24.5,4.663
		c6.128,0,11.561,2.597,15.185,6.87c0.002,0.002,0.004,0.005,0.006,0.007c0.315,0.372,0.611,0.761,0.898,1.158
		c0.125,0.175,0.245,0.353,0.364,0.532c0.169,0.251,0.334,0.506,0.492,0.766c0.162,0.27,0.316,0.545,0.466,0.823
		c0.11,0.203,0.219,0.407,0.322,0.615c0.153,0.308,0.295,0.622,0.432,0.94c0.09,0.209,0.18,0.419,0.263,0.632
		c0.121,0.308,0.231,0.622,0.337,0.938c0.082,0.246,0.162,0.493,0.235,0.744c0.085,0.292,0.162,0.588,0.234,0.886
		c0.037,0.154,0.069,0.309,0.103,0.465c-4.08,1.316-7.131-1.614-9.007-4.408c-0.339-0.505-0.878-0.848-1.479-0.94
		c-0.61-0.092-1.244,0.076-1.734,0.467c-9.308,7.438-22.77,5.46-26.424,4.743C5.225,19.759,5.252,19.617,5.286,19.48z
		 M44.621,28.457c-0.328,0.111-0.575,0.385-0.652,0.722C41.86,38.295,33.855,44.663,24.5,44.663c-9.354,0-17.36-6.367-19.468-15.483
		c-0.078-0.337-0.324-0.609-0.652-0.721C2.957,27.974,2,26.649,2,25.163c0-1.354,0.932-2.83,2.12-3.443
		c1.151,0.264,4.776,1.002,9.406,1.002c5.856,0,13.306-1.183,19.34-6.004c0.074-0.059,0.144-0.058,0.182-0.053
		c0.078,0.012,0.111,0.063,0.123,0.079c3.301,4.916,7.467,6.677,11.779,5.011C46.104,22.389,47,23.834,47,25.163
		C47,26.65,46.044,27.973,44.621,28.457z"/>
	<path d="M24.983,31.25c-4.908-2.038-10.616,0.129-12.888,4.989c-0.112,0.24-0.125,0.516-0.034,0.765
		c0.09,0.25,0.276,0.453,0.517,0.565c1.365,0.638,2.803,0.94,4.219,0.94c3.206,0,6.29-1.56,8.186-4.26
		c1.896,2.701,4.98,4.26,8.187,4.26c1.416,0,2.854-0.303,4.219-0.94c0.24-0.112,0.426-0.315,0.517-0.565
		c0.09-0.249,0.078-0.524-0.034-0.765C35.598,31.377,29.892,29.212,24.983,31.25z M14.424,36.146
		c1.939-3.02,5.693-4.382,9.116-3.309C21.602,35.857,17.846,37.217,14.424,36.146z M26.424,32.837
		c3.424-1.071,7.178,0.289,9.116,3.309C32.118,37.217,28.364,35.858,26.424,32.837z"/>
</g>
<g>
</g>
<g>
</g>
<g>
</g>
<g>
</g>
<g>
</g>
<g>
</g>
<g>
</g>
<g>
</g>
<g>
</g>
<g>
</g>
<g>
</g>
<g>
</g>
<g>
</g>
<g>
</g>
<g>
</g>
</svg>
