<?xml version="1.0" encoding="iso-8859-1"?>
<!-- Generator: Adobe Illustrator 19.0.0, SVG Export Plug-In . SVG Version: 6.00 Build 0)  -->
<svg version="1.1" id="Layer_1" xmlns="http://www.w3.org/2000/svg" xmlns:xlink="http://www.w3.org/1999/xlink" x="0px" y="0px"
	 viewBox="0 0 460 460" style="enable-background:new 0 0 460 460;" xml:space="preserve">
<g id="XMLID_28_">
	<g>
		<path d="M460,159.318c-13.585,0-57.924,40.438-78.859,60.276c-33.905-9.421-81.901-19.577-132.423-25.406L235,139.318
			c-32.665,0-60.437,20.889-70.726,50.032C29.186,190.693,0,239.318,0,239.318s21.535,35.868,113.196,46.843
			C104.835,272.506,100,256.47,100,239.318h20c0,19.165,7.752,36.542,20.275,49.19c9.314,0.522,19.203,0.81,29.725,0.81
			c0.459,0,0.921-0.006,1.38-0.007c0.355,1.352,0.78,2.699,1.279,4.037c8.106,21.734,32.295,32.781,54.029,24.675L215.341,287.6
			c29.259-2.116,58.52-6.018,85.612-10.751c3.341,12.924,15.079,22.47,29.046,22.47v-28.012
			c23.779-4.927,44.894-10.278,61.528-15.257c17.944,11.88,51.25,33.268,58.473,33.268c0,0-20-20-20-50S460,159.318,460,159.318z
			 M60,249.318c-5.523,0-10-4.477-10-10s4.477-10,10-10s10,4.477,10,10S65.523,249.318,60,249.318z"/>
	</g>
</g>
<g>
</g>
<g>
</g>
<g>
</g>
<g>
</g>
<g>
</g>
<g>
</g>
<g>
</g>
<g>
</g>
<g>
</g>
<g>
</g>
<g>
</g>
<g>
</g>
<g>
</g>
<g>
</g>
<g>
</g>
</svg>
