<?xml version="1.0" encoding="iso-8859-1"?>
<!-- Generator: Adobe Illustrator 18.0.0, SVG Export Plug-In . SVG Version: 6.00 Build 0)  -->
<!DOCTYPE svg PUBLIC "-//W3C//DTD SVG 1.1//EN" "http://www.w3.org/Graphics/SVG/1.1/DTD/svg11.dtd">
<svg version="1.1" id="Capa_1" xmlns="http://www.w3.org/2000/svg" xmlns:xlink="http://www.w3.org/1999/xlink" x="0px" y="0px"
	 viewBox="0 0 59.382 59.382" style="enable-background:new 0 0 59.382 59.382;" xml:space="preserve">
<g>
	<g>
		<path style="fill:#231F20;" d="M38.002,53.948c-2.869,0-5.72-0.673-8.356-2.002c-0.341-0.173-0.676-0.354-1.003-0.545H4.095
			c-1.079,0-2.037-0.692-2.375-1.718c-2.835-8.609-2.148-17.808,1.935-25.9C7.737,15.69,14.726,9.671,23.335,6.835
			c7.015-2.31,14.508-1.75,21.103,1.575c6.594,3.326,11.497,9.021,13.808,16.035c3.9,11.846-2.562,24.657-14.407,28.559
			C41.925,53.635,39.959,53.948,38.002,53.948z M34.153,26.104c-0.808,0-1.627,0.126-2.435,0.392
			c-5.434,1.79-8.398,7.667-6.609,13.101c1.137,3.449,3.547,6.25,6.789,7.885c3.243,1.637,6.929,1.91,10.376,0.774
			C51.5,45.216,56.534,35.237,53.495,26.01c-1.892-5.746-5.909-10.411-11.31-13.136c-5.4-2.723-11.539-3.183-17.286-1.29
			C10.317,16.388,2.111,31.746,5.961,46.401H23.06c-1.158-1.57-2.071-3.333-2.7-5.24c-2.651-8.053,1.741-16.762,9.794-19.413
			c3.25-1.071,6.718-0.812,9.77,0.729c3.053,1.54,5.323,4.176,6.393,7.424c0.433,1.312-0.28,2.725-1.592,3.156
			c-1.315,0.436-2.726-0.281-3.156-1.592C40.488,28.187,37.429,26.104,34.153,26.104z"/>
	</g>
</g>
<g>
</g>
<g>
</g>
<g>
</g>
<g>
</g>
<g>
</g>
<g>
</g>
<g>
</g>
<g>
</g>
<g>
</g>
<g>
</g>
<g>
</g>
<g>
</g>
<g>
</g>
<g>
</g>
<g>
</g>
</svg>
