<?xml version="1.0" encoding="iso-8859-1"?>
<!-- Generator: Adobe Illustrator 18.0.0, SVG Export Plug-In . SVG Version: 6.00 Build 0)  -->
<!DOCTYPE svg PUBLIC "-//W3C//DTD SVG 1.1//EN" "http://www.w3.org/Graphics/SVG/1.1/DTD/svg11.dtd">
<svg version="1.1" id="Capa_1" xmlns="http://www.w3.org/2000/svg" xmlns:xlink="http://www.w3.org/1999/xlink" x="0px" y="0px"
	 viewBox="0 0 46 46" style="enable-background:new 0 0 46 46;" xml:space="preserve">
<g>
	<path d="M13,16c1.654,0,3,1.346,3,3c0,0.552,0.447,1,1,1s1-0.448,1-1c0-2.757-2.243-5-5-5s-5,2.243-5,5c0,0.552,0.447,1,1,1
		s1-0.448,1-1C10,17.346,11.346,16,13,16z"/>
	<path d="M31,14c-2.757,0-5,2.243-5,5c0,0.552,0.447,1,1,1s1-0.448,1-1c0-1.654,1.346-3,3-3s3,1.346,3,3c0,0.552,0.447,1,1,1
		s1-0.448,1-1C36,16.243,33.757,14,31,14z"/>
	<path d="M33,26H11c-0.553,0-1,0.448-1,1c0,6.617,5.383,12,12,12s12-5.383,12-12C34,26.448,33.553,26,33,26z M31.141,31.029
		C31.093,31.021,31.05,31,31,31h-2v-3h2.95C31.844,29.069,31.559,30.085,31.141,31.029z M25,31v-3h2v3H25z M27,33v2.647
		c-0.628,0.364-1.296,0.663-2,0.885V33H27z M17,31v-3h2v3H17z M19,33v3.532c-0.704-0.222-1.372-0.521-2-0.885V33H19z M21,28h2v3h-2
		V28z M15,28v3h-2c-0.05,0-0.093,0.021-0.141,0.029c-0.418-0.944-0.702-1.959-0.809-3.029H15z M14.009,33H15v1.121
		C14.644,33.771,14.31,33.4,14.009,33z M21,36.948V33h2v3.948C22.671,36.981,22.338,37,22,37S21.329,36.981,21,36.948z M29,34.121
		V33h0.991C29.69,33.4,29.356,33.771,29,34.121z"/>
	<path d="M46,11c0-2.652-2.194-11-6-11c-2.347,0-4.079,3.176-5.063,6.232C31.189,3.501,26.655,2,22,2C9.869,2,0,11.869,0,24
		s9.869,22,22,22s22-9.869,22-22c0-2.625-0.482-5.175-1.383-7.609C44.616,15.416,46,13.369,46,11z M42,24c0,11.028-8.972,20-20,20
		S2,35.028,2,24S10.972,4,22,4c4.483,0,8.851,1.52,12.368,4.292C34.13,9.348,34,10.293,34,11c0,3.309,2.691,6,6,6
		c0.245,0,0.485-0.019,0.722-0.048C41.571,19.201,42,21.568,42,24z M41.091,14.83c-0.009,0.002-0.018,0-0.027,0.003
		c-0.176,0.05-0.334,0.082-0.489,0.11C40.386,14.969,40.197,15,40,15c-2.206,0-4-1.794-4-4c0-0.671,0.167-1.705,0.457-2.837
		c0.005-0.02,0.003-0.04,0.007-0.06C37.218,5.241,38.755,2,40,2c1.718,0,4,6.175,4,9C44,12.825,42.765,14.351,41.091,14.83z"/>
</g>
<g>
</g>
<g>
</g>
<g>
</g>
<g>
</g>
<g>
</g>
<g>
</g>
<g>
</g>
<g>
</g>
<g>
</g>
<g>
</g>
<g>
</g>
<g>
</g>
<g>
</g>
<g>
</g>
<g>
</g>
</svg>
