<?xml version="1.0" encoding="iso-8859-1"?>
<!-- Generator: Adobe Illustrator 16.0.0, SVG Export Plug-In . SVG Version: 6.00 Build 0)  -->
<!DOCTYPE svg PUBLIC "-//W3C//DTD SVG 1.1//EN" "http://www.w3.org/Graphics/SVG/1.1/DTD/svg11.dtd">
<svg version="1.1" id="Capa_1" xmlns="http://www.w3.org/2000/svg" xmlns:xlink="http://www.w3.org/1999/xlink" x="0px" y="0px"
	 width="45.793px" height="45.793px" viewBox="0 0 45.793 45.793" style="enable-background:new 0 0 45.793 45.793;"
	 xml:space="preserve">
<g>
	<g>
		<circle cx="22.899" cy="12.692" r="2.524"/>
		<path d="M22.899,26.661c-2.893,0-5.245,2.354-5.245,5.245c0,2.893,2.353,5.244,5.245,5.244s5.246-2.353,5.246-5.244
			C28.145,29.016,25.791,26.661,22.899,26.661z"/>
		<path d="M30.701,0H15.093c-4.647,0-8.415,3.768-8.415,8.414v28.965c0,4.646,3.768,8.414,8.415,8.414H30.7
			c4.647,0,8.415-3.768,8.415-8.414V8.414C39.116,3.768,35.348,0,30.701,0z M22.899,7.182c3.042,0,5.511,2.467,5.511,5.511
			c0,3.043-2.469,5.511-5.511,5.511c-3.044,0-5.511-2.468-5.511-5.511C17.388,9.648,19.855,7.182,22.899,7.182z M22.899,42.13
			c-5.646,0-10.223-4.577-10.223-10.224s4.576-10.223,10.223-10.223c5.646,0,10.223,4.577,10.223,10.223S28.544,42.13,22.899,42.13z
			"/>
	</g>
</g>
<g>
</g>
<g>
</g>
<g>
</g>
<g>
</g>
<g>
</g>
<g>
</g>
<g>
</g>
<g>
</g>
<g>
</g>
<g>
</g>
<g>
</g>
<g>
</g>
<g>
</g>
<g>
</g>
<g>
</g>
</svg>
