<?xml version="1.0" encoding="iso-8859-1"?>
<!-- Generator: Adobe Illustrator 18.0.0, SVG Export Plug-In . SVG Version: 6.00 Build 0)  -->
<!DOCTYPE svg PUBLIC "-//W3C//DTD SVG 1.1//EN" "http://www.w3.org/Graphics/SVG/1.1/DTD/svg11.dtd">
<svg version="1.1" id="Capa_1" xmlns="http://www.w3.org/2000/svg" xmlns:xlink="http://www.w3.org/1999/xlink" x="0px" y="0px"
	 viewBox="0 0 295.996 295.996" style="enable-background:new 0 0 295.996 295.996;" xml:space="preserve">
<g>
	<path d="M147.998,0C66.392,0,0,66.392,0,147.998s66.392,147.998,147.998,147.998s147.998-66.392,147.998-147.998
		S229.605,0,147.998,0z M147.998,279.996c-36.256,0-69.143-14.696-93.022-38.44c-9.536-9.482-17.631-20.41-23.934-32.42
		C21.442,190.847,16,170.048,16,147.998C16,75.214,75.214,16,147.998,16c34.523,0,65.987,13.328,89.533,35.102
		c12.208,11.288,22.289,24.844,29.558,39.996c8.27,17.239,12.907,36.538,12.907,56.9
		C279.996,220.782,220.782,279.996,147.998,279.996z"/>
	<polygon points="107.009,147.86 107.102,147.953 136.355,118.698 107.101,89.445 95.788,100.76 113.729,118.698 99.747,132.679 
		95.787,136.639 	"/>
	<polygon points="196.247,132.679 182.266,118.698 200.206,100.76 188.894,89.445 159.639,118.698 188.893,147.953 188.985,147.86 
		200.207,136.639 	"/>
	<path d="M213.664,189.333v-0.339c0-2.946-0.347-5.786-1.288-8.43c-3.212-9.034-11.342-15.756-21.22-16.492
		c-0.596-0.045-1.113-0.075-1.72-0.075h-82.877c-0.607,0-1.208,0.03-1.804,0.075c-9.879,0.736-18.258,7.458-21.47,16.492
		c-0.94,2.643-1.621,5.483-1.621,8.43v0.339c0,13.621,11.273,24.664,24.895,24.664h82.877
		C203.057,213.997,213.664,202.954,213.664,189.333z M97.664,189.333v-0.339c0-4.777,4.117-8.997,8.895-8.997h82.438h0.438
		c4.777,0,8.229,4.22,8.229,8.997v0.339c0,4.777-3.451,8.664-8.229,8.664h-82.877C101.781,197.997,97.664,194.11,97.664,189.333z"/>
</g>
<g>
</g>
<g>
</g>
<g>
</g>
<g>
</g>
<g>
</g>
<g>
</g>
<g>
</g>
<g>
</g>
<g>
</g>
<g>
</g>
<g>
</g>
<g>
</g>
<g>
</g>
<g>
</g>
<g>
</g>
</svg>
