<?xml version="1.0" encoding="iso-8859-1"?>
<!-- Generator: Adobe Illustrator 16.0.0, SVG Export Plug-In . SVG Version: 6.00 Build 0)  -->
<!DOCTYPE svg PUBLIC "-//W3C//DTD SVG 1.1//EN" "http://www.w3.org/Graphics/SVG/1.1/DTD/svg11.dtd">
<svg version="1.1" id="Capa_1" xmlns="http://www.w3.org/2000/svg" xmlns:xlink="http://www.w3.org/1999/xlink" x="0px" y="0px"
	 width="305.328px" height="305.328px" viewBox="0 0 305.328 305.328" style="enable-background:new 0 0 305.328 305.328;"
	 xml:space="preserve">
<g>
	<g>
		<path d="M263.797,236.573c5.505-6.198,6.033-16.658,1.171-23.374l-23.043-31.805c-4.867-6.711-13.95-12.158-20.288-12.158h-11.484
			c2.516,1.735,4.784,3.666,6.612,5.743l16.057,18.3c6.711,7.643,11.765,21.074,11.765,31.244v33.668L263.797,236.573z"/>
		<path d="M127.121,241.233l9.536-12.464v76.559h102.565v-79.976c0-8.285-4.433-20.061-9.9-26.29l-16.047-18.294
			c-5.468-6.234-16.622-11.278-24.912-11.278H151.67c-5.698,0-10.586,3.205-13.137,7.876c-0.621,0.575-1.232,1.187-1.766,1.88
			l-31.196,40.752l-50.536-10.264c-8.161-1.636-16.052,3.604-17.702,11.724c-1.646,8.13,3.602,16.047,11.731,17.699l54.228,11.009
			C111.41,251.812,122.085,247.82,127.121,241.233z M203.865,205.665c3.47,0,6.287,2.816,6.287,6.286
			c0,3.464-2.812,6.281-6.287,6.281c-3.469,0-6.281-2.817-6.281-6.281C197.584,208.481,200.401,205.665,203.865,205.665z
			 M203.865,231.131c3.47,0,6.287,2.812,6.287,6.281c0,3.464-2.812,6.281-6.287,6.281c-3.469,0-6.281-2.817-6.281-6.281
			C197.584,233.938,200.401,231.131,203.865,231.131z M163.693,205.665c3.47,0,6.287,2.816,6.287,6.286
			c0,3.464-2.812,6.281-6.287,6.281c-3.469,0-6.286-2.817-6.286-6.281C157.407,208.481,160.229,205.665,163.693,205.665z
			 M163.693,231.131c3.47,0,6.287,2.812,6.287,6.281c0,3.464-2.812,6.281-6.287,6.281c-3.469,0-6.286-2.817-6.286-6.281
			C157.407,233.938,160.229,231.131,163.693,231.131z"/>
		<path d="M136.172,117.158c0,25.557,20.723,46.279,46.282,46.279c25.564,0,46.287-20.723,46.287-46.279
			c0-10.843-3.759-20.796-10.004-28.687V39.033c8.135-2.54,14.084-10.043,14.084-19.02C232.821,8.958,223.863,0,212.813,0
			c-6.214,0-11.697,2.893-15.369,7.335c-3.65-3.855-8.787-6.294-14.504-6.294c-6.224,0-11.697,2.89-15.368,7.332
			c-3.65-3.854-8.779-6.294-14.507-6.294c-11.05,0-20.016,8.961-20.016,20.011c0,8.622,5.488,15.907,13.139,18.725v47.651
			C139.931,96.362,136.172,106.315,136.172,117.158z"/>
	</g>
</g>
<g>
</g>
<g>
</g>
<g>
</g>
<g>
</g>
<g>
</g>
<g>
</g>
<g>
</g>
<g>
</g>
<g>
</g>
<g>
</g>
<g>
</g>
<g>
</g>
<g>
</g>
<g>
</g>
<g>
</g>
</svg>
