<?xml version="1.0" encoding="iso-8859-1"?>
<!-- Generator: Adobe Illustrator 19.0.0, SVG Export Plug-In . SVG Version: 6.00 Build 0)  -->
<svg version="1.1" id="Layer_1" xmlns="http://www.w3.org/2000/svg" xmlns:xlink="http://www.w3.org/1999/xlink" x="0px" y="0px"
	 viewBox="0 0 340 340" style="enable-background:new 0 0 340 340;" xml:space="preserve">
<g id="XMLID_501_">
	<g>
		<g>
			<path d="M170,25C76.111,25,0,88.873,0,180c11.779,14.724,23.943,28.864,36.19,42.092C44.978,156.088,101.632,105,170,105
				s125.022,51.088,133.81,117.092C316.057,208.864,328.221,194.724,340,180C340,88.873,263.889,25,170,25z"/>
			<path d="M170,125c-63.411,0-115,51.589-115,115c0,0.548,0.014,1.093,0.021,1.639c10.312,10.266,20.571,19.751,30.6,28.266
				C90.632,227.779,126.549,195,170,195s79.368,32.779,84.38,74.904c10.028-8.514,20.288-18,30.599-28.265
				c0.007-0.546,0.021-1.091,0.021-1.639C285,176.589,233.411,125,170,125z"/>
			<path d="M170,215c-35.841,0-65,29.159-65,65c0,1.861,0.098,3.699,0.251,5.522C130.24,303.991,152.872,315,170,315
				s39.76-11.009,64.749-29.478C234.902,283.7,235,281.862,235,280C235,244.159,205.841,215,170,215z"/>
		</g>
	</g>
</g>
<g>
</g>
<g>
</g>
<g>
</g>
<g>
</g>
<g>
</g>
<g>
</g>
<g>
</g>
<g>
</g>
<g>
</g>
<g>
</g>
<g>
</g>
<g>
</g>
<g>
</g>
<g>
</g>
<g>
</g>
</svg>
