<?xml version="1.0" encoding="iso-8859-1"?>
<!-- Generator: Adobe Illustrator 18.1.1, SVG Export Plug-In . SVG Version: 6.00 Build 0)  -->
<svg version="1.1" id="Capa_1" xmlns="http://www.w3.org/2000/svg" xmlns:xlink="http://www.w3.org/1999/xlink" x="0px" y="0px"
	 viewBox="0 0 48.302 48.302" style="enable-background:new 0 0 48.302 48.302;" xml:space="preserve">
<g>
	<g>
		<path style="fill:#030104;" d="M36.751,15.748c-1.462,0-2.857,0.108-4.143,0.304c-1.088,0.166-1.947-0.329-1.947-1.207v-1.59
			c0-2.506-5.172-4.537-11.551-4.537S7.56,10.748,7.56,13.255v6.022c0,0.924-0.887,1.79-1.95,2.041C2.251,22.11,0,23.552,0,25.205
			v9.841c0,2.509,5.171,4.539,11.55,4.539s11.55-2.03,11.55-4.537v-6.023c0-0.924,0.477-1.74,1.057-1.852s1.043,0.485,1.043,1.363
			v1.59c0,2.506,5.172,4.537,11.55,4.537c6.379,0,11.552-2.031,11.552-4.537v-9.841C48.302,17.78,43.13,15.748,36.751,15.748z
			 M11.55,29.274c-4.896,0-8.866-1.56-8.866-3.483s3.969-3.483,8.866-3.483s8.866,1.559,8.866,3.483S16.446,29.274,11.55,29.274z
			 M19.111,17.325c-4.897,0-8.866-1.559-8.866-3.483c-0.001-1.924,3.969-3.483,8.866-3.483s8.867,1.559,8.867,3.483
			C27.977,15.766,24.008,17.325,19.111,17.325z M36.752,24.355c-4.896,0-8.866-1.559-8.866-3.483s3.969-3.483,8.866-3.483
			s8.867,1.559,8.867,3.483S41.649,24.355,36.752,24.355z"/>
		<path style="fill:#030104;" d="M16.472,24.339c-0.688-0.281-1.502-0.083-1.91,0.436c-0.103,0.055-0.275,0.117-0.513,0.178
			c-0.041-0.125-0.103-0.246-0.184-0.361c-0.488-0.687-1.615-1.069-3.351-1.133c-0.957-0.038-4.183-0.044-5.011,1.378
			c-0.286,0.49-0.258,1.042,0.077,1.513c0.759,1.067,2.892,1.364,4.548,1.426c0.102,0.004,0.338,0.011,0.667,0.011
			c1.612,0,5.435-0.173,6.366-1.769C17.524,25.393,17.217,24.643,16.472,24.339z"/>
		<ellipse style="fill:#030104;" cx="18.718" cy="13.538" rx="4.905" ry="1.651"/>
		<ellipse style="fill:#030104;" cx="36.789" cy="20.677" rx="4.905" ry="1.651"/>
	</g>
</g>
<g>
</g>
<g>
</g>
<g>
</g>
<g>
</g>
<g>
</g>
<g>
</g>
<g>
</g>
<g>
</g>
<g>
</g>
<g>
</g>
<g>
</g>
<g>
</g>
<g>
</g>
<g>
</g>
<g>
</g>
</svg>
