<?xml version="1.0" encoding="iso-8859-1"?>
<!-- Generator: Adobe Illustrator 16.0.0, SVG Export Plug-In . SVG Version: 6.00 Build 0)  -->
<!DOCTYPE svg PUBLIC "-//W3C//DTD SVG 1.1//EN" "http://www.w3.org/Graphics/SVG/1.1/DTD/svg11.dtd">
<svg version="1.1" id="Capa_1" xmlns="http://www.w3.org/2000/svg" xmlns:xlink="http://www.w3.org/1999/xlink" x="0px" y="0px"
	 width="486.208px" height="486.208px" viewBox="0 0 486.208 486.208" style="enable-background:new 0 0 486.208 486.208;"
	 xml:space="preserve">
<g>
	<path d="M478.996,219.227l-186.039-54l33.976-41.794h20.909c-1.057,4.382,0.97,9.078,5.155,11.229
		c1.464,0.751,3.023,1.107,4.562,1.107c3.629,0,7.131-1.982,8.902-5.433L367.66,128c3.096-6.024,3.14-12.313,0.122-17.254
		c-2.839-4.648-7.896-7.314-13.881-7.314h-70.334c-9.332,0-19.438,6.49-24.031,15.432c-2.521,4.913-0.586,10.941,4.327,13.464
		c4.912,2.523,10.94,0.585,13.464-4.327c1.249-2.433,4.773-4.568,6.24-4.568h17.59l-29.163,35.874
		c-10.458-2.757-20.439-5.074-28.518-6.897c-3.374-0.762-13.447-2.201-27.428-2.201c-22.11,0-55.843,3.574-90.966,20.605
		c-47.539,23.053-81.532,72.511-93.938,92.705l-1.235,2.008c-9.854,16.021-20.043,32.589-26.492,51.212
		c-9.362,27.034,0.787,49.428,27.151,59.903c10.391,4.127,22.286,6.133,36.365,6.133c0.886,0,1.769-0.008,2.65-0.022
		c25.103-0.407,45.408-1.243,63.906-2.631c24.284-1.819,45.493-5.592,64.835-11.528c63.577-19.513,123.852-40.978,196.038-67.013
		c18.592-6.705,37.459-13.596,55.704-20.259c8.702-3.178,26.347-9.606,26.466-9.646c8.448-2.771,9.691-9.125,9.67-12.71
		l0.005-30.134C486.209,224.381,483.269,220.467,478.996,219.227z M466.204,254.143c-7.666,2.794-15.331,5.593-22.996,8.394
		c-18.228,6.655-37.073,13.539-55.629,20.229c-71.93,25.942-131.972,47.325-195.121,66.707
		c-17.901,5.495-37.681,8.997-60.462,10.704c-9.59,0.719-19.705,1.285-30.762,1.721c13.622-16.564,17.65-30.611,12.3-42.622
		c-6.312-14.161-24.358-22.08-55.173-24.212c-8.126-0.562-15.976-0.628-22.547-0.501l9.587-15.297l12.016,2.114
		c0.012,0.002,30.817,5.72,56.973,0.023c17.027-3.708,29.321-15.854,36.742-22.787c0.555-0.518,59.173-54.847,58.674-68.417
		c-0.146-3.929-1.743-7.445-4.665-9.894c-3.492-2.928-9.56-5.814-26.588-6.409c14.399-2.848,27.31-3.688,37.497-3.688
		c12.823,0,21.424,1.349,23.023,1.71c10.567,2.386,24.461,5.632,38.183,9.577l165.853,48.14l-189.004-4.362
		c-0.06-0.004-0.116-0.006-0.174-0.006c-43.828,0-79.896,50.9-81.411,53.066c-0.571,0.819-0.603,1.899-0.076,2.748
		c0.46,0.744,1.269,1.186,2.125,1.186c0.122,0,0.245-0.01,0.369-0.027l291.27-37.103L466.204,254.143z"/>
</g>
<g>
</g>
<g>
</g>
<g>
</g>
<g>
</g>
<g>
</g>
<g>
</g>
<g>
</g>
<g>
</g>
<g>
</g>
<g>
</g>
<g>
</g>
<g>
</g>
<g>
</g>
<g>
</g>
<g>
</g>
</svg>
