<?xml version="1.0" encoding="iso-8859-1"?>
<!-- Generator: Adobe Illustrator 18.0.0, SVG Export Plug-In . SVG Version: 6.00 Build 0)  -->
<!DOCTYPE svg PUBLIC "-//W3C//DTD SVG 1.1//EN" "http://www.w3.org/Graphics/SVG/1.1/DTD/svg11.dtd">
<svg version="1.1" id="Capa_1" xmlns="http://www.w3.org/2000/svg" xmlns:xlink="http://www.w3.org/1999/xlink" x="0px" y="0px"
	 viewBox="0 0 60.002 60.002" style="enable-background:new 0 0 60.002 60.002;" xml:space="preserve">
<g>
	<path d="M59.795,28.066c-0.401-1.697-1.364-3.156-2.576-3.902c-0.811-0.499-1.678-0.659-2.508-0.461
		c-0.187,0.044-0.368,0.113-0.544,0.196c-0.566-1.38-1.231-2.679-1.982-3.901H56c1.93,0,3.5-1.57,3.5-3.5s-1.57-3.5-3.5-3.5h-4.143
		c0.085-0.324,0.143-0.656,0.143-1v-6c0-2.206-1.794-4-4-4s-4,1.794-4,4v5.286l-0.739,0.133C36.875,7.829,30.673,7.815,30.4,7.826
		c-0.464-0.011-12.198,0.015-19.913,9.494l-1.875,0.338c-2.43,0.338-3.442,1.685-3.863,2.755c-0.843,2.14,0.05,4.718,0.919,5.787
		c0.035,0.042,0.068,0.067,0.103,0.105c-0.417,1.319-0.763,2.634-1.016,4c-0.015,0.083-0.025,0.167-0.04,0.25
		c-0.254-0.07-0.512-0.118-0.776-0.118C1.73,30.438,0,32.82,0,35.861s1.73,5.424,3.939,5.424c0.404,0,0.798-0.102,1.177-0.267
		c0.701,2.671,1.863,5.179,3.458,7.379c3.194,4.403,9.467,9.604,21.239,9.604c0.187,0,0.375-0.001,0.564-0.004
		c12.176,0.207,18.585-5.128,21.831-9.601c2.879-3.97,4.345-8.942,4.23-14.071c0.035,0.001,0.07,0.007,0.104,0.007
		c0.227,0,0.451-0.025,0.672-0.078C59.363,33.743,60.496,31.024,59.795,28.066z M30.397,9.826c0.001,0,0.003,0,0.003,0
		c0.062,0.019,4.512-0.005,9.57,2.184l-26.255,4.728C20.723,9.896,30.175,9.826,30.397,9.826z M57.5,16.498
		c0,0.827-0.673,1.5-1.5,1.5h-4.092c0.001-0.004,0.001-0.009,0.002-0.014c0.006-0.022,0.006-0.047,0.012-0.07
		c0.042-0.177,0.064-0.365,0.07-0.561c0.002-0.067-0.001-0.137-0.003-0.206c-0.005-0.166-0.021-0.338-0.05-0.516
		c-0.012-0.073-0.021-0.145-0.037-0.22c-0.052-0.25-0.119-0.507-0.216-0.778l-0.228-0.636H56C56.827,14.998,57.5,15.671,57.5,16.498
		z M46,5.998c0-1.103,0.897-2,2-2s2,0.897,2,2v6c0,0.096-0.007,0.19-0.021,0.284c-0.036-0.038-0.08-0.064-0.117-0.101
		c-0.111-0.108-0.228-0.204-0.347-0.299c-0.119-0.095-0.237-0.191-0.363-0.272c-0.108-0.07-0.223-0.126-0.337-0.185
		c-0.147-0.077-0.293-0.155-0.449-0.214c-0.113-0.043-0.234-0.071-0.351-0.105c-0.165-0.048-0.327-0.099-0.5-0.128
		c-0.139-0.024-0.286-0.028-0.43-0.04c-0.139-0.011-0.271-0.038-0.415-0.038c-0.029,0-0.06,0.005-0.089,0.005
		c-0.047,0.001-0.095,0.007-0.143,0.008c-0.145,0.006-0.289,0.008-0.439,0.026V5.998z M6.499,21.5
		c0.254-1.063,1.035-1.673,2.428-1.867L44.04,13.31l0,0l1.887-0.34c0.231-0.042,0.45-0.059,0.661-0.063
		c0.08-0.001,0.158,0.001,0.236,0.005c0.076,0.004,0.153,0.007,0.226,0.017c0.089,0.011,0.174,0.03,0.259,0.049
		c0.06,0.013,0.122,0.025,0.18,0.043c0.1,0.031,0.195,0.07,0.288,0.112c0.037,0.017,0.075,0.03,0.111,0.049
		c0.121,0.063,0.236,0.135,0.346,0.219c0.005,0.004,0.011,0.007,0.016,0.011c0.358,0.278,0.658,0.67,0.903,1.177
		c0.083,0.169,0.161,0.344,0.228,0.534l0.424,1.184c0.244,0.688,0.226,1.113,0.135,1.268c-0.023,0.04-0.074,0.065-0.124,0.091
		l-0.113,0.04c-0.041,0.015-0.083,0.032-0.133,0.042c-0.002,0-0.005,0.001-0.007,0.002l-3.482,0.588l0.01,0.005L7.234,24.963
		C6.842,24.509,6.167,22.896,6.499,21.5z M4.674,38.987c-0.206,0.166-0.456,0.298-0.734,0.298C3.022,39.285,2,37.879,2,35.861
		s1.022-3.424,1.939-3.424c0.167,0,0.335,0.047,0.504,0.139c-0.049,0.531-0.081,1.062-0.096,1.591
		c-0.001,0.04-0.001,0.08-0.002,0.12c-0.01,0.437-0.009,0.872,0.004,1.306c0.004,0.143,0.009,0.285,0.015,0.428
		c0.016,0.352,0.041,0.703,0.072,1.052c0.013,0.147,0.022,0.294,0.037,0.44c0.047,0.435,0.105,0.868,0.175,1.297
		C4.659,38.869,4.664,38.929,4.674,38.987z M50.591,47.224c-4.317,5.948-11.14,8.938-20.212,8.774
		c-9.094,0.154-15.869-2.826-20.185-8.774c-2.062-2.844-3.329-6.259-3.726-9.87c-0.008-0.071-0.009-0.143-0.016-0.214
		c-0.058-0.577-0.09-1.158-0.103-1.743c-0.005-0.25-0.001-0.5,0.003-0.751c0.004-0.406,0.021-0.814,0.047-1.222
		c0.019-0.297,0.039-0.594,0.07-0.893c0.064-0.62,0.138-1.241,0.252-1.862c0.237-1.279,0.544-2.513,0.934-3.749l41.763-7.118
		c0.109,0.036,0.216,0.084,0.327,0.109c1.223,1.752,2.223,3.715,2.999,5.866l0.031,0.089c0.266,0.749,0.497,1.5,0.703,2.258
		c0.024,0.09,0.047,0.181,0.071,0.271c0.195,0.746,0.369,1.499,0.513,2.274c0.122,0.659,0.204,1.319,0.268,1.978
		c0.012,0.126,0.029,0.25,0.039,0.378C54.791,38.192,53.463,43.262,50.591,47.224z M56.751,32.311c-0.136,0.031-0.282,0.03-0.436,0
		c-0.004-0.036-0.011-0.07-0.015-0.106c-0.068-0.63-0.153-1.261-0.269-1.891c-0.001-0.003-0.001-0.006-0.001-0.009
		c-0.001-0.007-0.003-0.014-0.005-0.021c-0.134-0.719-0.293-1.418-0.465-2.107c-0.033-0.132-0.07-0.265-0.105-0.396
		c-0.17-0.647-0.358-1.281-0.562-1.901c-0.01-0.029-0.016-0.059-0.026-0.089c0.101-0.069,0.204-0.116,0.31-0.142
		c0.379-0.094,0.751,0.069,0.994,0.219c0.758,0.467,1.401,1.486,1.68,2.66C58.314,30.491,57.645,32.098,56.751,32.311z"/>
	<path d="M47.85,40.02c-0.207-0.861-0.627-1.425-1.249-1.675c-1.181-0.473-2.47,0.364-4.261,1.517
		c-1.707,1.1-3.831,2.468-6.336,3.067c-2.504,0.601-5.017,0.343-7.037,0.135c-2.122-0.217-3.651-0.374-4.485,0.577
		c-0.441,0.505-0.561,1.197-0.354,2.06c0.804,3.354,5.943,7.299,11.549,7.299c0.882,0,1.776-0.098,2.666-0.311
		C44.889,51.121,48.778,43.901,47.85,40.02L47.85,40.02z M37.876,50.743c-1.675,0.402-3.34,0.302-4.874-0.096
		c0.242-1.015,1.928-2.339,4.36-2.921c2.291-0.548,4.276-0.204,5.065,0.502C41.196,49.382,39.669,50.314,37.876,50.743z
		 M43.777,46.73c-1.377-1.224-3.98-1.639-6.88-0.949c-3.034,0.727-5.223,2.391-5.783,4.203c-2.69-1.206-4.68-3.24-5.041-4.75
		c-0.032-0.133-0.042-0.223-0.044-0.278c0.428-0.141,1.751-0.003,2.734,0.097c2.055,0.212,4.871,0.501,7.707-0.179
		c2.835-0.679,5.216-2.212,6.953-3.331c0.831-0.536,1.95-1.256,2.395-1.325c0.023,0.051,0.056,0.136,0.087,0.269v-0.001
		C46.252,41.937,45.48,44.498,43.777,46.73z"/>
	<path d="M43.78,33.777c0.26,0,0.52-0.109,0.71-0.289c0.18-0.19,0.29-0.45,0.29-0.711c0-0.26-0.11-0.52-0.301-0.71
		c-0.37-0.369-1.029-0.369-1.41,0c-0.189,0.19-0.289,0.45-0.289,0.71c0,0.261,0.1,0.521,0.289,0.711
		C43.26,33.678,43.51,33.777,43.78,33.777z"/>
	<path d="M37.192,30.716c0.267,0,0.533-0.106,0.73-0.316l4.585-4.897c0.377-0.403,0.356-1.036-0.047-1.414
		c-0.404-0.376-1.036-0.356-1.414,0.047l-4.585,4.897c-0.377,0.403-0.356,1.036,0.047,1.414
		C36.702,30.626,36.947,30.716,37.192,30.716z"/>
	<path d="M24.069,35.328c-0.189,0.189-0.289,0.449-0.289,0.71c0,0.27,0.1,0.52,0.289,0.71c0.19,0.189,0.44,0.29,0.711,0.29
		c0.26,0,0.52-0.101,0.699-0.29c0.19-0.181,0.301-0.44,0.301-0.71c0-0.261-0.11-0.521-0.301-0.71
		C25.109,34.958,24.45,34.958,24.069,35.328z"/>
	<path d="M28.64,34.24L28.64,34.24c-0.196-0.626-0.592-1.136-1.106-1.542c0.049,0.007,0.098,0.018,0.147,0.018
		c0.355,0,0.7-0.19,0.881-0.525c0.263-0.486,0.081-1.093-0.405-1.354l-5.904-3.184c-0.487-0.265-1.092-0.081-1.354,0.405
		s-0.081,1.093,0.405,1.354l4.675,2.521c-1.106-0.304-2.425-0.294-3.781,0.126c-2.944,0.919-4.728,3.315-4.059,5.457
		c0.496,1.591,2.186,2.528,4.229,2.528c0.706,0,1.456-0.112,2.212-0.348C27.524,38.778,29.307,36.381,28.64,34.24z M20.048,36.921
		c-0.282-0.903,0.776-2.338,2.745-2.951c0.566-0.177,1.109-0.255,1.603-0.255c1.22,0,2.133,0.478,2.334,1.121
		c0.282,0.903-0.776,2.337-2.745,2.951C22.019,38.402,20.329,37.824,20.048,36.921z"/>
	<path d="M37.719,30.847c-0.848,1.047-1.14,2.267-0.804,3.345c0.337,1.078,1.271,1.914,2.563,2.294
		c0.524,0.154,1.091,0.23,1.678,0.23c0.719,0,1.467-0.115,2.201-0.345c2.944-0.92,4.727-3.316,4.059-5.457
		c-0.337-1.078-1.271-1.914-2.563-2.294c-1.167-0.341-2.544-0.303-3.879,0.114C39.64,29.151,38.483,29.901,37.719,30.847z
		 M43.18,30.391c0.396,0,0.772,0.05,1.109,0.148c0.376,0.11,1.034,0.384,1.217,0.971h0.001c0.281,0.903-0.776,2.338-2.745,2.952
		c-0.947,0.296-1.939,0.333-2.72,0.104c-0.376-0.11-1.034-0.384-1.218-0.971c-0.184-0.588,0.203-1.187,0.449-1.491
		c0.512-0.633,1.349-1.165,2.296-1.461C42.107,30.476,42.659,30.391,43.18,30.391z"/>
</g>
<g>
</g>
<g>
</g>
<g>
</g>
<g>
</g>
<g>
</g>
<g>
</g>
<g>
</g>
<g>
</g>
<g>
</g>
<g>
</g>
<g>
</g>
<g>
</g>
<g>
</g>
<g>
</g>
<g>
</g>
</svg>
