<?xml version="1.0" encoding="iso-8859-1"?>
<!-- Generator: Adobe Illustrator 18.0.0, SVG Export Plug-In . SVG Version: 6.00 Build 0)  -->
<!DOCTYPE svg PUBLIC "-//W3C//DTD SVG 1.1//EN" "http://www.w3.org/Graphics/SVG/1.1/DTD/svg11.dtd">
<svg version="1.1" id="Capa_1" xmlns="http://www.w3.org/2000/svg" xmlns:xlink="http://www.w3.org/1999/xlink" x="0px" y="0px"
	 viewBox="0 0 295.996 295.996" style="enable-background:new 0 0 295.996 295.996;" xml:space="preserve">
<g>
	<path d="M147.998,0C66.392,0,0,66.392,0,147.998s66.392,147.998,147.998,147.998s147.998-66.392,147.998-147.998
		S229.605,0,147.998,0z M147.998,279.996c-36.256,0-69.143-14.696-93.022-38.44c-9.536-9.482-17.631-20.41-23.934-32.42
		C21.442,190.847,16,170.048,16,147.998C16,75.214,75.214,16,147.998,16c34.523,0,65.987,13.328,89.533,35.102
		c12.208,11.288,22.289,24.844,29.558,39.997c8.27,17.238,12.907,36.537,12.907,56.899
		C279.996,220.782,220.782,279.996,147.998,279.996z"/>
	<path d="M109.565,125.534c3.034-2.912,4.932-6.999,4.932-11.536c0-8.836-7.164-16-16-16s-16,7.164-16,16
		c0,4.537,1.897,8.625,4.933,11.536c2.874,2.76,6.769,4.464,11.067,4.464S106.69,128.294,109.565,125.534z"/>
	<path d="M208.566,125.534c3.034-2.912,4.932-6.999,4.932-11.536c0-8.836-7.164-16-16-16c-8.836,0-16,7.164-16,16
		c0,4.537,1.898,8.625,4.933,11.536c2.874,2.76,6.769,4.464,11.067,4.464S205.691,128.294,208.566,125.534z"/>
	<path d="M190.664,188.997v-8h-86v8c0,23.594,19.406,42.788,43,42.788C171.258,231.785,190.664,212.591,190.664,188.997z
		 M173.444,196.997c-3.41,10.876-13.582,18.788-25.568,18.788c-11.986,0-22.158-7.912-25.568-18.788H173.444z"/>
</g>
<g>
</g>
<g>
</g>
<g>
</g>
<g>
</g>
<g>
</g>
<g>
</g>
<g>
</g>
<g>
</g>
<g>
</g>
<g>
</g>
<g>
</g>
<g>
</g>
<g>
</g>
<g>
</g>
<g>
</g>
</svg>
