<?xml version="1.0" encoding="iso-8859-1"?>
<!-- Generator: Adobe Illustrator 16.0.0, SVG Export Plug-In . SVG Version: 6.00 Build 0)  -->
<!DOCTYPE svg PUBLIC "-//W3C//DTD SVG 1.1//EN" "http://www.w3.org/Graphics/SVG/1.1/DTD/svg11.dtd">
<svg version="1.1" id="Layer_1" xmlns="http://www.w3.org/2000/svg" xmlns:xlink="http://www.w3.org/1999/xlink" x="0px" y="0px"
	 width="32px" height="28.517px" viewBox="0 0 32 28.517" style="enable-background:new 0 0 32 28.517;" preserveAspectRatio="fit">
<g>
	<path d="M31.957,23.537c-0.094-0.677-0.307-1.334-0.624-1.936c0.007-0.042,0.016-0.078,0.021-0.122
		c0.019-0.119,0.036-0.249,0.052-0.385c0.004-0.068,0.022-0.142,0.006-0.208c-0.018-0.066-0.059-0.127-0.074-0.196
		c-0.167-0.544-0.406-1.174-0.782-1.808c-0.374-0.63-0.904-1.271-1.606-1.729l-0.269-0.163l-0.302-0.152l-0.245-0.103
		c-0.133-0.052-0.191-0.066-0.29-0.101c-0.354-0.125-0.717-0.221-1.072-0.29c-0.354-0.07-0.705-0.116-1.04-0.131
		c-0.27-0.019-0.524-0.011-0.77,0.004l0.036-0.047c0.09-0.128,0.161-0.252,0.242-0.378l0.237-0.377l0.131-0.251
		c0.036-0.073,0.075-0.145,0.108-0.218c0.537-1.176,0.833-2.437,0.819-3.751c-0.013-0.655-0.109-1.335-0.402-1.995
		c-0.271-0.658-0.83-1.289-1.549-1.599c-0.72-0.304-1.471-0.295-2.13-0.183c-0.666,0.117-1.281,0.332-1.854,0.598
		c-0.58,0.257-1.117,0.568-1.646,0.887L18.399,9.27c-0.145-1.229-0.398-2.45-0.801-3.638c-0.27-0.779-0.604-1.542-1.023-2.27
		c-0.422-0.724-0.922-1.419-1.562-2.018c-0.638-0.588-1.416-1.112-2.382-1.294c-0.479-0.084-0.993-0.067-1.477,0.073
		c-0.49,0.135-0.916,0.415-1.271,0.728c-0.713,0.641-1.13,1.463-1.42,2.268C8.177,3.911,8.029,4.788,7.981,5.611
		c-0.085,1.666,0.132,3.279,0.4,4.863c0.142,0.793,0.371,1.563,0.598,2.329c0.235,0.765,0.479,1.522,0.747,2.271
		c0.234,0.67,0.483,1.332,0.742,1.99c-0.875-1.396-1.706-2.816-2.467-4.27C7.15,11.152,6.375,9.466,5.82,7.732L5.623,7.081
		L5.456,6.426C5.36,5.988,5.274,5.551,5.228,5.115c-0.05-0.437-0.068-0.869-0.044-1.29c-0.002-0.214,0.053-0.41,0.073-0.617
		c0.03-0.186,0.09-0.358,0.136-0.536l0.101-0.16c0.043-0.064,0.075-0.144,0.128-0.188L5.762,2.17C5.81,2.118,5.874,2.107,5.92,2.063
		s0.09-0.086,0.139-0.122C6.106,1.902,6.153,1.85,6.217,1.828c0.061-0.023,0.116-0.074,0.19-0.086
		c0.07-0.015,0.143-0.043,0.221-0.053l0.246-0.021l0.262,0.014c0.18,0.019,0.364,0.05,0.55,0.101c0.185,0.05,0.37,0.113,0.558,0.183
		c0.185,0.073,0.372,0.153,0.55,0.251C8.546,1.892,8.26,1.582,7.919,1.324c-0.17-0.133-0.355-0.25-0.554-0.359
		C7.264,0.916,7.158,0.866,7.051,0.821L6.705,0.719C6.586,0.69,6.457,0.682,6.329,0.666C6.201,0.645,6.066,0.67,5.931,0.676
		C5.793,0.679,5.662,0.721,5.527,0.762c-0.137,0.037-0.272,0.082-0.379,0.17C5.04,1.012,4.926,1.099,4.837,1.193L4.579,1.482
		C4.484,1.578,4.435,1.684,4.366,1.786L4.177,2.097l-0.024,0.04L4.141,2.181C4.072,2.44,3.983,2.7,3.939,2.962
		c-0.031,0.259-0.093,0.524-0.093,0.78C3.815,4.26,3.839,4.769,3.896,5.266C3.95,5.764,4.046,6.249,4.15,6.729L4.332,7.44
		l0.211,0.697c0.592,1.848,1.396,3.588,2.271,5.278c0.884,1.688,1.849,3.322,2.868,4.919l0.309,0.473L9.79,18.512
		c-0.073-0.029-0.147-0.055-0.228-0.071c-0.344-0.07-0.683-0.017-0.977,0.125c-1.234-2.036-5.455-4.616-6.688-4.536
		c-0.457,0.029-0.795,0.183-1.004,0.455c-0.357,0.465-0.22,1.152-0.175,1.379c0.039,0.195,0.149,0.358,0.318,0.47
		c0.315,0.21,0.782,0.21,1.114,0.141c0.474-0.099,0.752-0.282,0.677-0.889c-0.024-0.194-0.127-0.349-0.296-0.446
		c-0.261-0.151-0.645-0.129-0.872-0.033l0.132,0.309c0.132-0.057,0.402-0.083,0.573,0.015c0.077,0.045,0.119,0.107,0.13,0.198
		c0.045,0.355-0.021,0.438-0.412,0.519c-0.254,0.054-0.631,0.062-0.861-0.092c-0.096-0.063-0.153-0.146-0.174-0.256
		c-0.038-0.188-0.153-0.766,0.111-1.11c0.147-0.191,0.403-0.301,0.76-0.324c1.117-0.072,5.246,2.51,6.383,4.379
		c-0.024,0.02-0.048,0.037-0.07,0.057c-2.023-0.827-6.75-1.674-7.749-0.727c-0.333,0.315-0.494,0.648-0.481,0.992
		c0.021,0.524,0.438,0.92,0.748,1.172c0.093,0.075,0.197,0.125,0.309,0.147c0.076,0.016,0.155,0.02,0.236,0.011
		c0.377-0.042,0.736-0.34,0.946-0.605c0.302-0.378,0.398-0.698-0.048-1.115c-0.143-0.135-0.321-0.188-0.512-0.154
		c-0.298,0.051-0.579,0.313-0.692,0.531l0.298,0.153c0.065-0.127,0.26-0.322,0.451-0.355c0.088-0.016,0.159,0.007,0.227,0.069
		c0.261,0.244,0.263,0.35,0.015,0.664c-0.161,0.201-0.446,0.449-0.721,0.479c-0.114,0.012-0.212-0.017-0.298-0.086
		c-0.15-0.122-0.606-0.49-0.623-0.925c-0.01-0.242,0.116-0.489,0.375-0.735c0.787-0.746,5.18-0.071,7.277,0.747
		c-0.119,0.168-0.208,0.362-0.252,0.578c-0.173,0.836,0.364,1.652,1.199,1.825c0.393,0.081,0.778,0.001,1.098-0.188l-0.009,0.009
		c0,0,1.367,1.853,2.875,3.896s6.853,3.806,7.506,3.22c0.116-0.105-0.423-1.051-2.07-2.298c0.249,0.084,0.497,0.167,0.746,0.254
		c0.803,0.255,1.605,0.515,2.415,0.757c0.818,0.221,1.617,0.477,2.457,0.668c0.836,0.181,1.695,0.42,2.519,0.517l0.623,0.095
		l0.312,0.043l0.156,0.021l0.04,0.006l0.019,0.002l0.055,0.005l0.091,0.003c0.479,0.022,0.975-0.046,1.455-0.188
		c0.479-0.148,0.95-0.382,1.343-0.716c0.396-0.33,0.714-0.743,0.941-1.189C31.964,25.482,32.074,24.48,31.957,23.537z
		 M25.659,17.552c0.271,0.011,0.56,0.05,0.854,0.109c0.295,0.056,0.599,0.136,0.9,0.242l0.205,0.069l0.241,0.102l0.171,0.087
		l0.185,0.113c0.44,0.287,0.807,0.701,1.096,1.152c-0.187-0.116-0.379-0.227-0.582-0.323c-0.391-0.188-0.864-0.363-1.332-0.447
		c-0.468-0.103-0.934-0.117-1.393-0.121c-0.915,0.021-1.795,0.181-2.644,0.404c-0.47,0.125-0.929,0.272-1.383,0.433
		c0.054-0.047,0.108-0.094,0.162-0.141c0.449-0.407,0.894-0.821,1.32-1.262c0.164-0.157,0.318-0.329,0.473-0.501
		c0.081,0.018,0.169,0.038,0.257,0.06c-0.104-0.022-0.241-0.051,0.378,0.091c0.102-0.036,0.213-0.051,0.33-0.058
		C25.132,17.543,25.388,17.532,25.659,17.552z M9.73,10.22C9.586,9.465,9.445,8.705,9.383,7.945C9.314,7.188,9.278,6.43,9.319,5.688
		c0.048-0.749,0.163-1.44,0.412-2.132c0.238-0.67,0.577-1.29,1.046-1.707c0.459-0.426,1.024-0.584,1.618-0.479
		c0.598,0.107,1.191,0.479,1.702,0.953c0.515,0.479,0.948,1.076,1.317,1.71c0.368,0.639,0.671,1.324,0.916,2.033
		c0.482,1.424,0.741,2.933,0.839,4.454l0.077,1.205l0.99-0.707l0.706-0.503l0.72-0.473c0.488-0.294,0.981-0.58,1.489-0.803
		c0.504-0.237,1.023-0.411,1.527-0.5c0.503-0.087,0.99-0.07,1.373,0.092c0.374,0.171,0.671,0.475,0.856,0.913
		c0.193,0.429,0.279,0.949,0.286,1.479c0.016,1.063-0.24,2.175-0.692,3.155c-0.027,0.063-0.061,0.121-0.09,0.182l-0.046,0.09
		l-0.022,0.045l-0.013,0.023l-0.003,0.008l-0.226,0.357c-0.08,0.123-0.157,0.258-0.238,0.371l-0.249,0.315l-0.245,0.316
		l-0.285,0.318c-0.191,0.211-0.374,0.428-0.585,0.628c-0.4,0.414-0.825,0.809-1.256,1.201c-0.439,0.383-0.876,0.77-1.334,1.136
		c-0.905,0.744-1.842,1.455-2.797,2.143c-0.541,0.39-1.09,0.771-1.643,1.146c-0.351,0.224-0.701,0.457-1.051,0.697
		c-0.003-0.004-0.012-0.011-0.012-0.011s-1.134-0.854-1.115-0.874c0,0-0.147-0.103-0.337-0.232c-0.226-0.841-0.452-1.74-0.681-2.239
		c-0.086-0.183-0.163-0.371-0.254-0.55l-0.045-0.138c-0.472-1.501-0.906-3.011-1.292-4.526c-0.195-0.757-0.364-1.52-0.524-2.281
		L9.73,10.22z M10.569,20.745c0.087-0.146,0.157-0.304,0.193-0.479c0.017-0.077,0.019-0.154,0.021-0.23
		c0.019,0.03,0.036,0.061,0.056,0.09c0.15,0.185,0.331,0.348,0.495,0.521c0.226,0.23,0.454,0.594,0.686,0.997
		c-0.7-0.477-1.436-0.914-1.436-0.914L10.569,20.745z M30.314,25.768c-0.306,0.604-0.824,1.051-1.477,1.224
		c-0.325,0.087-0.671,0.128-1.031,0.114l-1.211-0.069c-0.854-0.019-1.634-0.169-2.453-0.263c-0.813-0.104-1.638-0.282-2.459-0.42
		c-0.819-0.163-1.637-0.343-2.456-0.519l-1.926-0.459c-0.337-0.232-1.066-0.735-1.712-1.187c0.202-0.134,0.406-0.268,0.606-0.403
		c0.273-0.174,0.549-0.347,0.825-0.515c0.707-0.426,1.427-0.831,2.157-1.209c1.461-0.754,2.974-1.414,4.524-1.828
		c0.773-0.204,1.558-0.343,2.321-0.36c0.378,0.007,0.758,0.017,1.111,0.097c0.358,0.064,0.68,0.182,1.045,0.355
		c0.625,0.302,1.228,0.789,1.645,1.377c0.433,0.586,0.702,1.29,0.803,2.007C30.718,24.427,30.623,25.164,30.314,25.768z"/>
	<path d="M19.981,15.395c-1.318-2.42-3.707,0.408-3.707,0.408s-0.446-4.466-2.828-3.796c-2.383,0.67,1.19,9.864,1.19,9.864
		S21.3,17.813,19.981,15.395z"/>
	<path d="M23.141,22.058c-2.439-0.671-6.159,2.121-6.159,2.121s4.058,1.675,5.808,1.415C24.538,25.333,25.58,22.727,23.141,22.058z"
		/>
</g>
<g>
</g>
<g>
</g>
<g>
</g>
<g>
</g>
<g>
</g>
<g>
</g>
<g>
</g>
<g>
</g>
<g>
</g>
<g>
</g>
<g>
</g>
<g>
</g>
<g>
</g>
<g>
</g>
<g>
</g>
</svg>
