<?xml version="1.0" encoding="iso-8859-1"?>
<!-- Generator: Adobe Illustrator 16.0.0, SVG Export Plug-In . SVG Version: 6.00 Build 0)  -->
<!DOCTYPE svg PUBLIC "-//W3C//DTD SVG 1.1//EN" "http://www.w3.org/Graphics/SVG/1.1/DTD/svg11.dtd">
<svg version="1.1" id="Capa_1" xmlns="http://www.w3.org/2000/svg" xmlns:xlink="http://www.w3.org/1999/xlink" x="0px" y="0px"
	 width="456.184px" height="456.184px" viewBox="0 0 456.184 456.184" style="enable-background:new 0 0 456.184 456.184;"
	 xml:space="preserve">
<g>
	<path d="M456.184,170.215c0-15.49-12.602-28.092-28.092-28.092c-14.284,0-26.104,10.719-27.858,24.535l-103.038,48.316
		l-44.647-65.189c10.042-7.482,16.56-19.445,16.56-32.904c0-22.615-18.398-41.014-41.015-41.014s-41.014,18.398-41.014,41.014
		c0,13.459,6.517,25.422,16.559,32.904l-44.648,65.189L55.95,166.658c-1.754-13.816-13.574-24.535-27.858-24.535
		C12.602,142.124,0,154.725,0,170.215c0,11.85,7.379,22.002,17.779,26.123l37.047,168.279c2.019,9.168,10.144,15.699,19.532,15.699
		h307.467c9.389,0,17.514-6.531,19.531-15.699l37.048-168.279C448.805,192.217,456.184,182.065,456.184,170.215z"/>
</g>
<g>
</g>
<g>
</g>
<g>
</g>
<g>
</g>
<g>
</g>
<g>
</g>
<g>
</g>
<g>
</g>
<g>
</g>
<g>
</g>
<g>
</g>
<g>
</g>
<g>
</g>
<g>
</g>
<g>
</g>
</svg>
