<?xml version="1.0" encoding="iso-8859-1"?>
<!-- Generator: Adobe Illustrator 16.0.0, SVG Export Plug-In . SVG Version: 6.00 Build 0)  -->
<!DOCTYPE svg PUBLIC "-//W3C//DTD SVG 1.1//EN" "http://www.w3.org/Graphics/SVG/1.1/DTD/svg11.dtd">
<svg version="1.1" id="Capa_1" xmlns="http://www.w3.org/2000/svg" xmlns:xlink="http://www.w3.org/1999/xlink" x="0px" y="0px"
	 width="327.512px" height="327.512px" viewBox="0 0 327.512 327.512" style="enable-background:new 0 0 327.512 327.512;"
	 xml:space="preserve">
<g>
	<path d="M163.758,0C73.463,0,0,73.461,0,163.756s73.463,163.755,163.758,163.755c90.294,0,163.754-73.461,163.754-163.755
		S254.052,0,163.758,0z M183.346,212.618c-0.016,0-0.039,0.007-0.055,0.007h-47.75l-28.207-48.869l28.207-48.87h8.621h47.811
		l28.209,48.87l-28.203,48.862H183.346z M27.793,201.501c-3.348-12.021-5.172-24.668-5.172-37.746
		c0-17.175,3.093-33.633,8.732-48.87h78.068l-7.27,12.592L27.793,201.501z M225.234,200.253l74.494-74.234
		c3.341,12.023,5.162,24.664,5.162,37.736c0,17.175-3.09,33.632-8.729,48.869l-78.066-0.007L225.234,200.253z M291.016,102.758
		l-50.735,50.559l-7.036-12.188V40.983C258.23,55.181,278.504,76.752,291.016,102.758z M210.623,30.65v71.297l-2.326-4.026
		c-0.076-0.138-0.197-0.237-0.287-0.37c-0.354-0.563-0.756-1.088-1.221-1.591c-0.188-0.204-0.365-0.409-0.57-0.602
		c-0.121-0.11-0.207-0.243-0.336-0.354l-78.487-67.613c11.608-3.098,23.793-4.771,36.362-4.771
		C180.182,22.621,195.949,25.469,210.623,30.65z M103.113,36.338l64.922,55.928h-23.873h-15.146H42.139
		C56.408,68.088,77.654,48.5,103.113,36.338z M36.496,224.751l50.756-50.524l7.013,12.145v100.151
		C69.281,272.324,49.008,250.751,36.496,224.751z M116.886,296.855v-71.303l2.331,4.037c0.076,0.14,0.199,0.237,0.288,0.371
		c0.353,0.562,0.763,1.088,1.22,1.59c0.189,0.205,0.369,0.408,0.57,0.603c0.122,0.11,0.209,0.244,0.336,0.354l78.488,67.613
		c-11.611,3.1-23.793,4.771-36.361,4.771C147.326,304.89,131.562,302.041,116.886,296.855z M224.402,291.171l-64.929-55.926h39.023
		c0.014,0,0.022-0.007,0.039-0.007l86.839,0.007C271.109,259.423,249.859,279.011,224.402,291.171z"/>
</g>
<g>
</g>
<g>
</g>
<g>
</g>
<g>
</g>
<g>
</g>
<g>
</g>
<g>
</g>
<g>
</g>
<g>
</g>
<g>
</g>
<g>
</g>
<g>
</g>
<g>
</g>
<g>
</g>
<g>
</g>
</svg>
