<?xml version="1.0" encoding="iso-8859-1"?>
<!-- Generator: Adobe Illustrator 19.0.0, SVG Export Plug-In . SVG Version: 6.00 Build 0)  -->
<svg version="1.1" id="Capa_1" xmlns="http://www.w3.org/2000/svg" xmlns:xlink="http://www.w3.org/1999/xlink" x="0px" y="0px"
	 viewBox="0 0 463 463" style="enable-background:new 0 0 463 463;" xml:space="preserve">
<path d="M455.5,320H383v-17h56.5c8.547,0,15.5-6.953,15.5-15.5v-96c0-8.547-6.953-15.5-15.5-15.5h-160
	c-0.169,0-0.333,0.02-0.5,0.025V167h8.5c4.143,0,7.5-3.357,7.5-7.5s-3.357-7.5-7.5-7.5H287v-0.5c0-23.639-17.36-43.295-40-46.902
	V103.5c0-4.143-3.357-7.5-7.5-7.5s-7.5,3.357-7.5,7.5v1.098c-22.64,3.607-40,23.263-40,46.902v0.5h-0.5c-4.143,0-7.5,3.357-7.5,7.5
	s3.357,7.5,7.5,7.5h8.5v23.937c0,6.83,2.945,13.23,8,17.659v11.533l-25.153,7.187C169.395,231.159,160,243.614,160,257.604V320h-17
	v-48.5c0-4.143-3.357-7.5-7.5-7.5H119v-10.234c9.29-3.138,16-11.93,16-22.266c0-12.958-10.542-23.5-23.5-23.5S88,218.542,88,231.5
	c0,10.336,6.71,19.128,16,22.266V264H55v-10.234c9.29-3.138,16-11.93,16-22.266c0-12.958-10.542-23.5-23.5-23.5S24,218.542,24,231.5
	c0,10.336,6.71,19.128,16,22.266V264H23.5c-4.143,0-7.5,3.357-7.5,7.5V320H7.5c-4.143,0-7.5,3.357-7.5,7.5v32
	c0,4.143,3.357,7.5,7.5,7.5h448c4.143,0,7.5-3.357,7.5-7.5v-32C463,323.357,459.643,320,455.5,320z M111.5,223
	c4.687,0,8.5,3.813,8.5,8.5s-3.813,8.5-8.5,8.5s-8.5-3.813-8.5-8.5S106.813,223,111.5,223z M47.5,223c4.687,0,8.5,3.813,8.5,8.5
	s-3.813,8.5-8.5,8.5s-8.5-3.813-8.5-8.5S42.813,223,47.5,223z M319,320v-17h17v17H319z M287,320v-17h17v17H287z M207,320v-48.5
	c0-0.275,0.225-0.5,0.5-0.5H264v16.5c0,5.827,3.235,10.908,8,13.555V320H207z M223.312,219.054c3.872,2.582,8.38,3.946,13.035,3.946
	h6.312c4.653,0,9.161-1.364,13.037-3.947L256,218.85v9.153c-1.425,1.289-6.962,3.997-16.5,3.997s-15.075-2.708-16.5-3.997v-9.157
	L223.312,219.054z M215,240.785c5.588,3.898,14.175,6.215,24.5,6.215s18.912-2.317,24.5-6.215V256h-49V240.785z M351,255.5
	c0-0.275,0.225-0.5,0.5-0.5h16c0.275,0,0.5,0.225,0.5,0.5V320h-17V255.5z M279.5,191h160c0.275,0,0.5,0.225,0.5,0.5v96
	c0,0.275-0.225,0.5-0.5,0.5H383v-32.5c0-8.547-6.953-15.5-15.5-15.5h-16c-8.547,0-15.5,6.953-15.5,15.5V288h-56.5
	c-0.275,0-0.5-0.225-0.5-0.5v-96C279,191.225,279.225,191,279.5,191z M272,151.5v0.5h-25v-32.117
	C261.315,123.279,272,136.161,272,151.5z M207,151.5c0-15.339,10.685-28.221,25-31.617V152h-25V151.5z M264,167v23.938
	c0,2.849-1.415,5.492-3.784,7.072h-0.001l-12.84,8.562c-1.402,0.935-3.033,1.429-4.717,1.429h-6.312
	c-1.685,0-3.314-0.493-4.715-1.427l-12.846-8.563c-2.371-1.581-3.786-4.225-3.786-7.073V167H264z M175,257.604
	c0-7.328,4.922-13.853,11.968-15.866L200,238.014v19.931c-4.765,2.647-8,7.728-8,13.555V320h-17V257.604z M31,279h97v41H31V279z
	 M448,352H15v-17h433V352z"/>
<g>
</g>
<g>
</g>
<g>
</g>
<g>
</g>
<g>
</g>
<g>
</g>
<g>
</g>
<g>
</g>
<g>
</g>
<g>
</g>
<g>
</g>
<g>
</g>
<g>
</g>
<g>
</g>
<g>
</g>
</svg>
