<?xml version="1.0" encoding="iso-8859-1"?>
<!-- Generator: Adobe Illustrator 16.0.0, SVG Export Plug-In . SVG Version: 6.00 Build 0)  -->
<!DOCTYPE svg PUBLIC "-//W3C//DTD SVG 1.1//EN" "http://www.w3.org/Graphics/SVG/1.1/DTD/svg11.dtd">
<svg version="1.1" id="Capa_1" xmlns="http://www.w3.org/2000/svg" xmlns:xlink="http://www.w3.org/1999/xlink" x="0px" y="0px"
	 width="359.443px" height="359.444px" viewBox="0 0 359.443 359.444" style="enable-background:new 0 0 359.443 359.444;"
	 xml:space="preserve">
<g>
	<path d="M98.363,201.441c-24.345,16.344-54.167,33.99-70.54,59.114c-36.261,55.637,31.618,92.896,80.733,97.621
		c65.577,6.309,144.386-10.485,190.725-60.423c46.819-50.442,49.115-137.874,34.934-202.857c4.164-0.95,7.275-4.652,7.275-9.103
		V9.353c0-5.17-4.188-9.353-9.353-9.353H143.143c-5.161,0-9.353,4.183-9.353,9.353v76.434c0,5.167,4.192,9.353,9.353,9.353h9.691
		c-0.037,0.371-0.106,0.728-0.106,1.126C152.791,143.369,137.9,174.887,98.363,201.441z M103.755,334.928
		c-0.362-0.049-0.749-0.079-1.102-0.134c-33.405-4.902-82.039-29.472-52.227-66.811c5.063-6.345,10.942-12.068,17.226-17.439
		c0.012,0,0.024,0.012,0.037,0.012C100.482,263.417,107.308,303.033,103.755,334.928z M278.023,287.652
		c-9.03,9.719-20.039,17.841-32.278,24.527c1.284-40.762,24.776-74.775,65.172-85.432
		C304.414,249.521,293.867,270.566,278.023,287.652z M152.496,18.706h170.29v57.083c-1.188-0.436-2.479-0.746-3.977-0.746H162.722
		c-2.131,0-3.891,0.561-5.392,1.397h-4.835V18.706z M175.187,97.521H311.77c7.551,33.003,10.102,70.975,4.201,106.588
		c-0.219,0.023-0.42,0-0.645,0.036c-58.377,9.207-93.92,60.63-90.674,117.697c-31.597,12.124-67.998,16.605-99.996,15.059
		c3.878-38.429-5.355-79.792-38.691-100.386c10.763-7.502,21.93-14.449,32.355-21.446
		C159.903,187.132,174.986,145.93,175.187,97.521z"/>
</g>
<g>
</g>
<g>
</g>
<g>
</g>
<g>
</g>
<g>
</g>
<g>
</g>
<g>
</g>
<g>
</g>
<g>
</g>
<g>
</g>
<g>
</g>
<g>
</g>
<g>
</g>
<g>
</g>
<g>
</g>
</svg>
