<?xml version='1.0' encoding='iso-8859-1'?>
<svg version="1.1" xmlns="http://www.w3.org/2000/svg" viewBox="0 0 292.762 292.762" xmlns:xlink="http://www.w3.org/1999/xlink" enable-background="new 0 0 292.762 292.762">
  <g>
    <g>
      <path d="M74.341,49.133c2.28-8.982,10.41-15.655,20.091-15.655h16.166c0.731-2.395,1.127-4.937,1.127-7.571    C111.725,11.599,100.126,0,85.818,0S59.912,11.599,59.912,25.907C59.912,36.092,65.792,44.9,74.341,49.133z"/>
      <path d="m177.899,33.478c0.602-3.969-0.716-8.157-3.892-11.081-5.078-4.678-12.987-4.349-17.662,0.73l-9.529,10.35c12.902,0.001 19.829,0.001 31.083,0.001z"/>
      <path d="m258.183,44.978h-6.857v-4.5c0-3.313-2.686-6-6-6-3.313,0-6,2.687-6,6v4.5h-52.394v0.026c0.796,0.728 1.554,1.505 2.257,2.343 4.211,5.02 6.131,11.379 5.652,17.631h63.342c5.522,0 10-4.478 10-10s-4.478-10-10-10z"/>
      <path d="m85.682,54.228v13.707l39.371,1.228 28.239-23.685h-58.86c-4.832,7.10543e-15-8.75,3.917-8.75,8.75z"/>
      <path d="m178.733,53.778c-4.671-4.181-11.654-4.195-16.342-0.269-0.002,0.002-0.004,0.003-0.007,0.005l-33.128,27.786c-10.448-3.079-55.574-15.809-55.574-15.809v-5.921h-3.604c-9.665,0-17.501,7.835-17.501,17.501v89.604l-1.87,44.708-24.993,60.661c-3.155,7.659 0.495,16.427 8.155,19.583 7.653,3.155 16.425-0.492 19.583-8.155l26-63.105c0.666-1.617 1.045-3.339 1.118-5.087 1.261-30.127 1.733-41.293 1.906-45.52 0.066-1.618 1.397-2.898 3.017-2.898h0.002c1.291,0 2.445,0.806 2.889,2.018l14.835,40.447-13.834,65.324c-1.716,8.104 3.463,16.065 11.567,17.782 8.107,1.715 16.065-3.465 17.782-11.567l14.728-69.546c0.584-2.758 0.379-5.625-0.592-8.272l-14.083-38.398v-49.263c-8.317-4.729-32.374-18.407-40.524-23.041l50.36,14.829c4.025,1.185 8.405,0.236 11.564-2.414l38.264-32.093c5.741-4.814 6.068-13.715 0.282-18.89z"/>
    </g>
  </g>
</svg>
