<?xml version="1.0" encoding="iso-8859-1"?>
<!-- Generator: Adobe Illustrator 18.1.1, SVG Export Plug-In . SVG Version: 6.00 Build 0)  -->
<svg version="1.1" id="Capa_1" xmlns="http://www.w3.org/2000/svg" xmlns:xlink="http://www.w3.org/1999/xlink" x="0px" y="0px"
	 viewBox="0 0 25.856 25.856" style="enable-background:new 0 0 25.856 25.856;" xml:space="preserve">
<g>
	<path style="fill:#030104;" d="M16.568,16.921c0.393,2.793,0.946,4.991,1.286,6.26c0.206,0.772,0.387,0.736,0.567,0.736
		s0.519,0,0.663,0c0.343,0,0.271-1.067,0.271-1.067s-0.416-3.793-0.295-6.738C18.471,16.627,17.234,16.921,16.568,16.921z"/>
	<path style="fill:#030104;" d="M13.56,17.48c0.142,2.57,0.497,4.592,0.724,5.76c0.137,0.711,0.32,0.677,0.5,0.677
		c0.182,0,0.52,0,0.664,0c0.342,0,0.367-0.982,0.367-0.982s-0.075-3.489,0.311-6.198C15.49,17.211,14.226,17.48,13.56,17.48z"/>
	<path style="fill:#030104;" d="M5.499,15.979c0.393,2.974,1.326,5.803,1.666,7.153c0.206,0.823,0.387,0.784,0.567,0.784
		s0.643,0,0.787,0c0.197,0,0.132-0.964,0.132-0.964s-0.693-2.685-0.572-5.82C7.266,17.066,6.093,16.621,5.499,15.979z"/>
	<path style="fill:#030104;" d="M2.948,14.9c0.306,2.438,0.476,6.466,0.802,8.08c0.196,0.982,0.415,0.937,0.632,0.937
		c0.218,0,0.338,0,0.511,0c0.411,0,0.396-1.358,0.396-1.358s0.085-3.299,0.616-7.057C5.09,15.041,3.728,14.755,2.948,14.9z"/>
	<g>
		<path style="fill:#030104;" d="M9.911,3.876c0.722,0,1.481,0.341,2.025,1.002c0.281-0.598,1.084-0.944,1.91-0.944
			c1.139,0,2.32,0.66,2.232,2.232c0.392-0.229,0.803-0.328,1.207-0.328c1.561,0,3.006,1.483,2.699,2.733
			c-1.453,1,0.266,3.156-0.546,4.512c0.486,1.792-0.848,2.817-2.164,2.817c-0.605,0-1.207-0.217-1.627-0.675
			c0.199,1.074-0.914,1.786-2.124,1.786c-1.015,0-2.098-0.501-2.528-1.709c-0.794,1.077-1.678,1.48-2.472,1.48
			c-1.345,0-2.429-1.155-2.377-2.138c-0.275,0.139-0.588,0.203-0.907,0.203c-1.518,0-3.182-1.451-1.629-3.232
			c-0.891-0.176-1.672-0.749-1.672-1.812c0-0.62,0.537-1.692,1.796-1.692c0.204,0,0.428,0.029,0.671,0.092
			C3.686,6.714,4.987,5.427,6.439,5.427c0.463,0,0.941,0.13,1.375,0.427C8.004,4.517,8.922,3.876,9.911,3.876 M9.911,1.939
			c-1.318,0-2.448,0.583-3.18,1.56c-0.098-0.006-0.194-0.01-0.292-0.01c-1.48,0-2.864,0.741-3.613,1.933
			C2.629,5.735,2.484,6.067,2.39,6.409C0.886,6.967,0,8.429,0,9.804c0,1.047,0.399,1.965,1.097,2.639
			c-0.115,0.675-0.031,1.355,0.261,1.997c0.592,1.301,1.973,2.205,3.511,2.332C5,16.965,5.148,17.15,5.314,17.325
			c0.842,0.887,2.011,1.396,3.209,1.396c0.784,0,1.545-0.215,2.245-0.623c0.765,0.547,1.712,0.852,2.755,0.852
			c1.2,0,2.325-0.43,3.085-1.162c0.218,0.033,0.44,0.051,0.666,0.051c1.353,0,2.626-0.608,3.404-1.626
			c0.631-0.824,0.896-1.841,0.77-2.918c0.294-0.978,0.115-1.938-0.021-2.681c-0.036-0.192-0.085-0.454-0.104-0.639
			c0.266-0.254,0.455-0.58,0.544-0.941c0.266-1.084-0.024-2.27-0.796-3.253c-0.872-1.111-2.241-1.819-3.609-1.875
			C17.308,3.65,17.139,3.44,16.979,3.27c-0.766-0.809-1.907-1.273-3.133-1.273c-0.703,0-1.369,0.149-1.947,0.418
			C11.283,2.105,10.605,1.939,9.911,1.939L9.911,1.939z"/>
	</g>
	<path style="fill:#030104;" d="M25.563,12.52c0.338-1.403-1.542-5.805-6.707-4.251c-2.634-1.208-3.843,0.927-3.857,1.464
		c-0.017,0.585,2.03,0.634,2.721,0.559c-0.178,0.248-0.012,0.051-0.123,0.816c-0.138,0.958,0.149,1.75,0.771,2.589
		C19.52,15.247,27.467,15.64,25.563,12.52z M22.604,11.801c-0.279-0.04-0.474-0.302-0.436-0.584c0.039-0.283,0.298-0.48,0.576-0.441
		c0.278,0.041,0.473,0.302,0.434,0.584C23.139,11.643,22.881,11.84,22.604,11.801z"/>
</g>
<g>
</g>
<g>
</g>
<g>
</g>
<g>
</g>
<g>
</g>
<g>
</g>
<g>
</g>
<g>
</g>
<g>
</g>
<g>
</g>
<g>
</g>
<g>
</g>
<g>
</g>
<g>
</g>
<g>
</g>
</svg>
