<?xml version="1.0" encoding="iso-8859-1"?>
<!-- Generator: Adobe Illustrator 19.0.0, SVG Export Plug-In . SVG Version: 6.00 Build 0)  -->
<svg version="1.1" id="Layer_1" xmlns="http://www.w3.org/2000/svg" xmlns:xlink="http://www.w3.org/1999/xlink" x="0px" y="0px"
	 viewBox="0 0 325.954 325.954" style="enable-background:new 0 0 325.954 325.954;" xml:space="preserve">
<g id="XMLID_467_">
	<g>
		<path d="M325.954,126.386l-112.613-16.363L162.977,7.977l-50.364,102.046L0,126.386l81.489,79.432L62.252,317.977l100.725-52.953
			l100.725,52.953l-19.237-112.159L325.954,126.386z M162.977,72.977c5.523,0,10,4.478,10,10c0,5.522-4.477,10-10,10
			c-5.523,0-10-4.478-10-10C152.977,77.455,157.454,72.977,162.977,72.977z M162.977,120.477c5.523,0,10,4.478,10,10
			c0,5.522-4.477,10-10,10c-5.523,0-10-4.478-10-10C152.977,124.955,157.454,120.477,162.977,120.477z M82.052,151.417
			c-1.736,5.243-7.394,8.086-12.637,6.349c-5.243-1.737-8.086-7.395-6.349-12.638c1.737-5.244,7.396-8.085,12.638-6.348
			C80.947,140.517,83.79,146.174,82.052,151.417z M115.131,260.608c-3.299,4.431-9.563,5.35-13.994,2.052
			c-4.431-3.298-5.349-9.563-2.051-13.993c3.298-4.429,9.562-5.35,13.992-2.052C117.509,249.913,118.428,256.177,115.131,260.608z
			 M114.505,172.704c-5.243-1.736-8.086-7.395-6.349-12.638s7.396-8.084,12.638-6.348c5.242,1.737,8.085,7.395,6.348,12.637
			C125.406,171.599,119.748,174.441,114.505,172.704z M142.49,222.502c-3.297,4.432-9.561,5.351-13.992,2.053
			c-4.432-3.298-5.348-9.563-2.052-13.993c3.298-4.43,9.562-5.35,13.992-2.051C144.87,211.808,145.789,218.073,142.49,222.502z
			 M162.977,192.977c-8.285,0-15-6.716-15-15s6.715-15,15-15c8.285,0,15,6.716,15,15S171.262,192.977,162.977,192.977z
			 M197.457,224.555c-4.431,3.298-10.695,2.379-13.992-2.053c-3.299-4.43-2.38-10.694,2.052-13.991
			c4.431-3.299,10.694-2.379,13.992,2.051C202.804,214.992,201.888,221.257,197.457,224.555z M198.812,166.355
			c-1.737-5.242,1.105-10.899,6.348-12.637c5.242-1.736,10.9,1.105,12.638,6.348c1.737,5.243-1.105,10.901-6.349,12.638
			C206.207,174.441,200.548,171.599,198.812,166.355z M224.817,262.66c-4.431,3.298-10.695,2.379-13.994-2.052
			c-3.297-4.431-2.378-10.695,2.053-13.993c4.431-3.298,10.694-2.377,13.992,2.052C230.166,253.097,229.248,259.362,224.817,262.66z
			 M250.25,138.781c5.242-1.737,10.9,1.104,12.638,6.348c1.737,5.242-1.105,10.9-6.349,12.638c-5.242,1.737-10.9-1.105-12.637-6.349
			C242.165,146.174,245.007,140.517,250.25,138.781z"/>
	</g>
</g>
<g>
</g>
<g>
</g>
<g>
</g>
<g>
</g>
<g>
</g>
<g>
</g>
<g>
</g>
<g>
</g>
<g>
</g>
<g>
</g>
<g>
</g>
<g>
</g>
<g>
</g>
<g>
</g>
<g>
</g>
</svg>
