<?xml version="1.0" encoding="iso-8859-1"?>
<!-- Generator: Adobe Illustrator 19.0.0, SVG Export Plug-In . SVG Version: 6.00 Build 0)  -->
<svg version="1.1" id="Layer_1" xmlns="http://www.w3.org/2000/svg" xmlns:xlink="http://www.w3.org/1999/xlink" x="0px" y="0px"
	 viewBox="0 0 490 490" style="enable-background:new 0 0 490 490;" xml:space="preserve">
<g id="XMLID_105_">
	<g>
		<path d="M298.323,90h-45V60h-30V0h-90v60h-30v200h60v30h30v-30h60v-60h45c24.813,0,45,20.187,45,45v75h-240v30h100v30H77.927
			l-41.25,110h416.645V245C453.323,159.533,383.791,90,298.323,90z M163.323,30h30v30h-30V30z M223.323,230h-90V90h90V230z
			 M233.323,350h110v30h-110V350z M423.323,460H79.969l18.75-50h274.605v-26.035c7.507,3.849,16,6.035,25,6.035
			s17.493-2.187,25-6.035V460z M398.323,360c-13.785,0-25-11.215-25-25c0-13.785,11.215-25,25-25c13.785,0,25,11.215,25,25
			C423.323,348.785,412.109,360,398.323,360z M423.323,286.035c-7.507-3.849-16-6.035-25-6.035s-17.493,2.187-25,6.035V245
			c0-41.355-33.646-75-75-75h-45v-50h45c68.925,0,125,56.075,125,125V286.035z"/>
	</g>
</g>
<g>
</g>
<g>
</g>
<g>
</g>
<g>
</g>
<g>
</g>
<g>
</g>
<g>
</g>
<g>
</g>
<g>
</g>
<g>
</g>
<g>
</g>
<g>
</g>
<g>
</g>
<g>
</g>
<g>
</g>
</svg>
