<?xml version="1.0" encoding="iso-8859-1"?>
<!-- Generator: Adobe Illustrator 16.0.0, SVG Export Plug-In . SVG Version: 6.00 Build 0)  -->
<!DOCTYPE svg PUBLIC "-//W3C//DTD SVG 1.1//EN" "http://www.w3.org/Graphics/SVG/1.1/DTD/svg11.dtd">
<svg version="1.1" id="Capa_1" xmlns="http://www.w3.org/2000/svg" xmlns:xlink="http://www.w3.org/1999/xlink" x="0px" y="0px"
	 width="480px" height="480px" viewBox="0 0 480 480" style="enable-background:new 0 0 480 480;" xml:space="preserve">
<g>
	<polygon points="304.9,432.6 175.1,341.9 175.1,480 304.9,480 	"/>
	<path d="M276.601,33.9c0-18.7-15.201-33.9-33.9-33.9h-5.4c-18.7,0-33.9,15.2-33.9,33.9l-4.4,66.7h82L276.601,33.9z"/>
	<path d="M23.1,145.4h28.1L38,116.2l-2.1-4.6H23.1c-9.3,0-16.9,7.6-16.9,16.9C6.2,137.8,13.8,145.4,23.1,145.4z"/>
	<path d="M456.9,145.4c9.3,0,16.899-7.6,16.899-16.9c0-9.3-7.6-16.9-16.899-16.9H444.1l-2.1,4.6l-13.3,29.2H456.9z"/>
	<polygon points="95.8,216.3 152,216.3 166.8,322.5 175.1,328.4 304.9,419.1 314.3,425.7 331.1,216.3 384.2,216.3 416.5,145.4 
		431.9,111.6 269.899,111.6 210.1,111.6 48.1,111.6 63.5,145.4 	"/>
</g>
<g>
</g>
<g>
</g>
<g>
</g>
<g>
</g>
<g>
</g>
<g>
</g>
<g>
</g>
<g>
</g>
<g>
</g>
<g>
</g>
<g>
</g>
<g>
</g>
<g>
</g>
<g>
</g>
<g>
</g>
</svg>
