<?xml version="1.0" encoding="iso-8859-1"?>
<!-- Generator: Adobe Illustrator 19.0.0, SVG Export Plug-In . SVG Version: 6.00 Build 0)  -->
<svg version="1.1" id="Capa_1" xmlns="http://www.w3.org/2000/svg" xmlns:xlink="http://www.w3.org/1999/xlink" x="0px" y="0px"
	 viewBox="0 0 463 463" style="enable-background:new 0 0 463 463;" xml:space="preserve">
<path d="M461.576,367.883c0.073-0.101,0.146-0.203,0.214-0.308c0.058-0.089,0.111-0.18,0.165-0.272
	c0.071-0.12,0.14-0.24,0.204-0.364c0.044-0.085,0.084-0.172,0.125-0.259c0.062-0.132,0.122-0.264,0.177-0.4
	c0.036-0.091,0.068-0.183,0.101-0.275c0.047-0.133,0.094-0.267,0.134-0.403c0.032-0.108,0.057-0.218,0.084-0.328
	c0.03-0.121,0.06-0.242,0.083-0.365c0.027-0.139,0.045-0.279,0.064-0.419c0.013-0.099,0.029-0.196,0.038-0.296
	c0.016-0.17,0.022-0.342,0.026-0.514c0.001-0.061,0.009-0.12,0.009-0.181c0-0.016-0.002-0.032-0.002-0.049
	c-0.001-0.169-0.013-0.339-0.026-0.509c-0.006-0.086-0.009-0.174-0.018-0.26c-0.014-0.129-0.038-0.257-0.059-0.386
	c-0.02-0.126-0.038-0.254-0.065-0.378c-0.019-0.087-0.045-0.173-0.067-0.259c-0.041-0.162-0.083-0.324-0.134-0.483
	c-0.005-0.016-0.008-0.033-0.014-0.049l-4.829-14.486c3.023-0.967,5.213-3.797,5.213-7.142v-128c0-4.143-3.358-7.5-7.5-7.5H455
	v-16.5c0-4.143-3.358-7.5-7.5-7.5h-32c-4.142,0-7.5,3.357-7.5,7.5v16.5h-16.5c-4.142,0-7.5,3.357-7.5,7.5v104.5h-17v-176.5
	c0-8.547-6.953-15.5-15.5-15.5H351v-8.5c0-12.958-10.542-23.5-23.5-23.5h-40c-12.958,0-23.5,10.542-23.5,23.5v40.5h-8.5
	c-4.142,0-7.5,3.357-7.5,7.5v22.359c-4.899,4.31-8,10.619-8,17.641v112.5h-17v-112.5c0-7.023-3.101-13.332-8-17.641v-22.359
	c0-4.143-3.358-7.5-7.5-7.5H199v-8.5c0-12.958-10.542-23.5-23.5-23.5h-56c-12.958,0-23.5,10.542-23.5,23.5v32.5H79.5
	c-4.142,0-7.5,3.357-7.5,7.5v16.5H7.5c-4.142,0-7.5,3.357-7.5,7.5v128c0,4.143,3.358,7.5,7.5,7.5h5.594l-3,9H7.5
	c-4.142,0-7.5,3.357-7.5,7.5s3.358,7.5,7.5,7.5h447.974c0.008,0,0.016,0.002,0.025,0.002c0.021,0,0.043-0.005,0.064-0.005
	c0.338-0.003,0.668-0.034,0.994-0.08c0.076-0.011,0.152-0.021,0.228-0.035c0.36-0.063,0.712-0.147,1.053-0.259
	c0.011-0.004,0.023-0.004,0.034-0.008c0.058-0.02,0.112-0.045,0.17-0.066c0.162-0.058,0.322-0.118,0.479-0.187
	c0.091-0.04,0.178-0.085,0.267-0.129c0.128-0.063,0.256-0.125,0.38-0.194c0.109-0.061,0.213-0.127,0.317-0.193
	c0.097-0.061,0.194-0.121,0.288-0.186c0.116-0.08,0.226-0.166,0.336-0.252c0.078-0.061,0.157-0.121,0.233-0.186
	c0.11-0.093,0.215-0.191,0.319-0.29c0.071-0.068,0.143-0.135,0.212-0.205c0.095-0.098,0.186-0.2,0.275-0.303
	c0.072-0.082,0.143-0.164,0.211-0.25C461.434,368.08,461.506,367.982,461.576,367.883z M442.094,346.999l3,9h-35.188l3-9H442.094z
	 M423,194.999h17v9h-17V194.999z M399,218.999h49v113h-49V218.999z M384,330.999v8.5c0,4.143,3.358,7.5,7.5,7.5h5.594l-3,9h-29.188
	l-4.056-12.167c3.728-2.833,6.15-7.3,6.15-12.333v-0.5H384z M340.906,346.999h5.188l3,9h-11.188L340.906,346.999z M352,139.499v192
	c0,0.275-0.224,0.5-0.5,0.5h-16c-0.276,0-0.5-0.225-0.5-0.5v-192c0-0.275,0.224-0.5,0.5-0.5h16
	C351.776,138.999,352,139.224,352,139.499z M279,115.499c0-4.687,3.813-8.5,8.5-8.5h40c4.687,0,8.5,3.813,8.5,8.5v8.5h-0.5
	c-8.547,0-15.5,6.953-15.5,15.5v192c0,5.033,2.422,9.5,6.15,12.333l-4.056,12.167h-21.188l-5.176-15.529
	c4.475-4.281,7.27-10.304,7.27-16.971v-120c0-7.023-3.101-13.332-8-17.641v-22.359c0-4.143-3.358-7.5-7.5-7.5H279V115.499z
	 M220.906,355.999l-5.176-15.529c2.715-2.597,4.808-5.835,6.036-9.471h19.469c1.228,3.636,3.321,6.874,6.036,9.471l-5.176,15.529
	H220.906z M208,203.499v120c0,4.687-3.813,8.5-8.5,8.5h-16c-4.687,0-8.5-3.813-8.5-8.5v-120c0-4.687,3.813-8.5,8.5-8.5h16
	C204.187,194.999,208,198.813,208,203.499z M183.5,346.999h16c0.861,0,1.71-0.05,2.547-0.14l3.047,9.14h-27.188l3.047-9.14
	C181.79,346.949,182.639,346.999,183.5,346.999z M288,203.499v120c0,4.687-3.813,8.5-8.5,8.5h-16c-4.687,0-8.5-3.813-8.5-8.5v-120
	c0-4.687,3.813-8.5,8.5-8.5h16C284.187,194.999,288,198.813,288,203.499z M260.953,346.859c0.837,0.091,1.686,0.14,2.547,0.14h16
	c0.861,0,1.71-0.05,2.547-0.14l3.047,9.14h-27.188L260.953,346.859z M263,179.999v-9h17v9h-0.5h-16H263z M200,179.999h-0.5h-16H183
	v-9h17V179.999z M111,147.499c0-4.687,3.813-8.5,8.5-8.5h56c4.687,0,8.5,3.813,8.5,8.5v8.5h-8.5c-4.142,0-7.5,3.357-7.5,7.5v22.359
	c-4.899,4.31-8,10.619-8,17.641v120c0,6.667,2.795,12.69,7.27,16.971l-5.176,15.529h-29.188l-3-9h5.594c4.142,0,7.5-3.357,7.5-7.5
	v-128c0-4.143-3.358-7.5-7.5-7.5H127v-16.5c0-4.143-3.358-7.5-7.5-7.5H111V147.499z M87,194.999h25v9H87V194.999z M15,218.999h113
	v113H15V218.999z M28.906,346.999h85.188l3,9H25.906L28.906,346.999z"/>
<g>
</g>
<g>
</g>
<g>
</g>
<g>
</g>
<g>
</g>
<g>
</g>
<g>
</g>
<g>
</g>
<g>
</g>
<g>
</g>
<g>
</g>
<g>
</g>
<g>
</g>
<g>
</g>
<g>
</g>
</svg>
