<?xml version="1.0" encoding="iso-8859-1"?>
<!-- Generator: Adobe Illustrator 18.0.0, SVG Export Plug-In . SVG Version: 6.00 Build 0)  -->
<!DOCTYPE svg PUBLIC "-//W3C//DTD SVG 1.1//EN" "http://www.w3.org/Graphics/SVG/1.1/DTD/svg11.dtd">
<svg version="1.1" id="Capa_1" xmlns="http://www.w3.org/2000/svg" xmlns:xlink="http://www.w3.org/1999/xlink" x="0px" y="0px"
	 viewBox="0 0 58.854 58.854" style="enable-background:new 0 0 58.854 58.854;" xml:space="preserve">
<path d="M2.001,24.11c-0.045-0.044-0.07-0.076-0.057-0.083C1.936,23.994,1.961,24.037,2.001,24.11z M56.902,24.027
	c0.008-0.032-0.017,0.01-0.057,0.083C56.89,24.066,56.916,24.034,56.902,24.027z M58.082,22.488
	c-0.791-0.598-1.868-0.553-2.576,0.139c-0.665,0.535-4.693,2.737-8.287,2.455c-5.247-0.404-8.399-6.074-13.505-6.074
	c-1.606,0-3.086,0.573-4.29,1.625c-1.205-1.052-2.684-1.625-4.29-1.625c-5.183,0-8.261,5.659-13.506,6.074
	c-3.573,0.282-7.625-1.922-8.228-2.4c-0.708-0.692-1.817-0.764-2.606-0.166c-0.79,0.598-1.023,1.684-0.549,2.553l0.105,0.198
	c3.461,6.587,7.034,9.709,9.453,11.173c2.94,2.167,6.836,3.407,10.705,3.407c1.324,0,4.524-0.174,6.307-1.743
	c0.97-0.643,1.851-1.489,2.608-2.494c0.757,1.005,1.639,1.851,2.608,2.494c1.782,1.569,4.981,1.743,6.306,1.743
	c3.869,0,7.765-1.241,10.705-3.407c3.44-2.082,6.709-5.944,9.456-11.179l0.104-0.194C59.075,24.197,58.871,23.085,58.082,22.488z"/>
<g>
</g>
<g>
</g>
<g>
</g>
<g>
</g>
<g>
</g>
<g>
</g>
<g>
</g>
<g>
</g>
<g>
</g>
<g>
</g>
<g>
</g>
<g>
</g>
<g>
</g>
<g>
</g>
<g>
</g>
</svg>
