<?xml version='1.0' encoding='iso-8859-1'?>
<svg version="1.1" xmlns="http://www.w3.org/2000/svg" viewBox="0 0 301.091 301.091" xmlns:xlink="http://www.w3.org/1999/xlink" enable-background="new 0 0 301.091 301.091">
  <g>
    <g>
      <path d="m282.908,40.25v7.153l-24.222-1.94v-5.213h-23.553c-0.711-4.182-4.342-7.37-8.727-7.37h-18.386v-5.048c0-1.055-0.855-1.91-1.91-1.91h-10.932c-1.055,0-1.91,0.855-1.91,1.91v5.048h-3.138c-4.894,0-8.862,3.968-8.862,8.861v19.951l6.129-8.945c7.805-11.389 23.365-14.295 34.754-6.491 11.39,7.805 14.296,23.365 6.491,34.755l-4.281,6.248h2.045c4.443,0 8.112-3.274 8.752-7.538h23.527v-5.213l24.222-1.94v7.153h18.184v-39.471h-18.183z"/>
      <circle cx="142.128" cy="53.519" r="27.59"/>
      <path d="m215.088,56.568c-5.692-3.901-13.475-2.449-17.378,3.245l-24.442,35.669-38.343-.546-26.184-9.97c-9.616-3.672-20.388,1.147-24.06,10.763 0,0-23.387,61.807-32.01,83.835-1.1,2.81-1.877,6.012-1.421,8.982 2.173,14.156 8.693,56.623 8.693,56.623h-44.943c-8.284,0-15,6.716-15,15s6.716,15 15,15h62.421c4.376,0 8.533-1.911 11.383-5.231 2.85-3.32 4.107-7.72 3.443-12.045l-8.579-55.878 38.456,9.685-10.657,45.01c-1.908,8.062 3.079,16.144 11.141,18.053 1.162,0.275 2.324,0.407 3.469,0.406 6.794,0 12.95-4.647 14.584-11.547l14.064-59.399c1.89-7.98-2.98-15.999-10.933-18.002l-16.591-4.178 21.936-57.451-16.751-4.689 47.227,.672c0.06,0.001 0.119,0.001 0.178,0.001 4.119,0 7.979-2.03 10.311-5.434l28.23-41.196c3.903-5.695 2.45-13.475-3.244-17.378z"/>
    </g>
  </g>
</svg>
