<?xml version="1.0" encoding="iso-8859-1"?>
<!-- Generator: Adobe Illustrator 19.0.0, SVG Export Plug-In . SVG Version: 6.00 Build 0)  -->
<svg version="1.1" id="Capa_1" xmlns="http://www.w3.org/2000/svg" xmlns:xlink="http://www.w3.org/1999/xlink" x="0px" y="0px"
	 viewBox="0 0 461.737 461.737" style="enable-background:new 0 0 461.737 461.737;" xml:space="preserve">
<g>
	<path d="M270.368,339.334V122.403c19.843-13.194,32-35.618,32-59.534c0-25.385-13.695-49.087-35.74-61.858
		c-2.32-1.343-5.181-1.347-7.505-0.008c-2.323,1.339-3.755,3.816-3.755,6.498v48.563l-24.5,14.145l-24.5-14.145V7.5
		c0-2.682-1.432-5.159-3.755-6.498c-2.324-1.339-5.185-1.336-7.505,0.008c-22.045,12.771-35.74,36.473-35.74,61.858
		c0,23.916,12.157,46.34,32,59.534v216.932c-19.843,13.194-32,35.618-32,59.534c0,25.385,13.695,49.087,35.74,61.858
		c2.321,1.344,5.183,1.348,7.505,0.008c2.323-1.339,3.755-3.816,3.755-6.498v-48.563l24.5-14.145l24.5,14.145v48.563
		c0,2.682,1.432,5.159,3.755,6.498c1.159,0.668,2.452,1.002,3.745,1.002c1.299,0,2.597-0.337,3.76-1.01
		c22.045-12.771,35.74-36.473,35.74-61.858C302.368,374.952,290.211,352.529,270.368,339.334z M270.368,439.176v-37.833
		c0-2.68-1.43-5.155-3.75-6.495l-32-18.475c-1.16-0.67-2.455-1.005-3.75-1.005s-2.59,0.335-3.75,1.005l-32,18.475
		c-2.32,1.34-3.75,3.815-3.75,6.495v37.833c-10.709-10.51-17-25.025-17-40.308c0-20.052,10.828-38.781,28.26-48.878
		c2.314-1.341,3.74-3.814,3.74-6.49V118.237c0-2.676-1.426-5.148-3.74-6.49c-17.432-10.098-28.26-28.827-28.26-48.878
		c0-15.282,6.291-29.798,17-40.308v37.833c0,2.68,1.43,5.155,3.75,6.495l32,18.475c2.32,1.34,5.18,1.34,7.5,0l32-18.475
		c2.32-1.34,3.75-3.815,3.75-6.495V22.561c10.709,10.51,17,25.025,17,40.308c0,20.052-10.828,38.781-28.26,48.878
		c-2.314,1.341-3.74,3.814-3.74,6.49V343.5c0,2.676,1.426,5.148,3.74,6.49c17.432,10.098,28.26,28.827,28.26,48.878
		C287.368,414.151,281.077,428.666,270.368,439.176z"/>
	<path d="M230.868,111.368c-4.143,0-7.5,3.358-7.5,7.5v224c0,4.142,3.357,7.5,7.5,7.5s7.5-3.358,7.5-7.5v-224
		C238.368,114.726,235.011,111.368,230.868,111.368z"/>
</g>
<g>
</g>
<g>
</g>
<g>
</g>
<g>
</g>
<g>
</g>
<g>
</g>
<g>
</g>
<g>
</g>
<g>
</g>
<g>
</g>
<g>
</g>
<g>
</g>
<g>
</g>
<g>
</g>
<g>
</g>
</svg>
