<?xml version="1.0" encoding="iso-8859-1"?>
<!-- Generator: Adobe Illustrator 18.1.1, SVG Export Plug-In . SVG Version: 6.00 Build 0)  -->
<svg version="1.1" id="Capa_1" xmlns="http://www.w3.org/2000/svg" xmlns:xlink="http://www.w3.org/1999/xlink" x="0px" y="0px"
	 viewBox="0 0 612.002 612.002" style="enable-background:new 0 0 612.002 612.002;" xml:space="preserve">
<g>
	<path d="M503.142,259.725c-1.85,0-3.678,0.096-5.488,0.252L337.095,102.698l22.709-23.877c5.979-6.287,5.732-16.229-0.552-22.212
		L304.323,4.331c-3.018-2.873-7.044-4.431-11.224-4.327c-4.167,0.105-8.121,1.86-10.994,4.879l-21.694,22.807
		c-11.915-10.516-30.093-9.998-41.339,1.485c-11.457,11.696-11.404,30.35-0.03,42.011l-5.577,5.864
		c-17.854-7.337-37.19-11.178-56.57-11.178c-41.032,0-79.204,16.362-107.481,46.072c-2.873,3.019-4.429,7.055-4.327,11.223
		c0.103,4.166,1.858,8.121,4.876,10.994l192.24,182.965c2.925,2.784,6.805,4.332,10.833,4.332c0.129,0,0.259-0.002,0.388-0.005
		c4.166-0.105,8.121-1.858,10.994-4.876c22.482-23.623,36.294-53.197,39.946-85.525c3.084-27.301-1.589-55.302-13.204-80.052
		l4.491-4.721l150.919,147.837c-4.592,8.802-7.205,18.796-7.205,29.393c0,11.193,2.906,21.714,7.991,30.868L266.894,539.108h-54.526
		c-1.86-12.557-12.649-22.202-25.724-22.202h-1.931c-13.074,0-23.866,9.645-25.725,22.202h-12.545
		c-20.128,0-36.447,16.317-36.447,36.447s16.319,36.447,36.447,36.447h211.046c20.13,0,36.447-16.317,36.447-36.447
		s-16.317-36.447-36.447-36.447h-6.53l148.425-151.939c1.244,0.073,2.495,0.119,3.758,0.119c35.168,0,63.778-28.612,63.778-63.781
		S538.31,259.725,503.142,259.725z M503.142,350.841c-15.073,0-27.336-12.263-27.336-27.334c0-15.071,12.265-27.334,27.336-27.334
		s27.334,12.263,27.334,27.334C530.476,338.578,518.213,350.841,503.142,350.841z"/>
</g>
<g>
</g>
<g>
</g>
<g>
</g>
<g>
</g>
<g>
</g>
<g>
</g>
<g>
</g>
<g>
</g>
<g>
</g>
<g>
</g>
<g>
</g>
<g>
</g>
<g>
</g>
<g>
</g>
<g>
</g>
</svg>
