<?xml version="1.0" encoding="iso-8859-1"?>
<!-- Generator: Adobe Illustrator 18.0.0, SVG Export Plug-In . SVG Version: 6.00 Build 0)  -->
<!DOCTYPE svg PUBLIC "-//W3C//DTD SVG 1.1//EN" "http://www.w3.org/Graphics/SVG/1.1/DTD/svg11.dtd">
<svg version="1.1" id="Capa_1" xmlns="http://www.w3.org/2000/svg" xmlns:xlink="http://www.w3.org/1999/xlink" x="0px" y="0px"
	 viewBox="0 0 44 44" style="enable-background:new 0 0 44 44;" xml:space="preserve">
<g>
	<circle cx="13" cy="16" r="3"/>
	<path d="M20,16c0-3.859-3.14-7-7-7s-7,3.141-7,7s3.14,7,7,7S20,19.859,20,16z M8,16c0-2.757,2.243-5,5-5s5,2.243,5,5s-2.243,5-5,5
		S8,18.757,8,16z"/>
	<circle cx="31" cy="16" r="3"/>
	<path d="M31,23c3.86,0,7-3.141,7-7s-3.14-7-7-7s-7,3.141-7,7S27.14,23,31,23z M31,11c2.757,0,5,2.243,5,5s-2.243,5-5,5
		s-5-2.243-5-5S28.243,11,31,11z"/>
	<path d="M44,22C44,9.869,34.131,0,22,0S0,9.869,0,22s9.869,22,22,22c3.413,0,6.682-0.774,9.731-2.283
		c0.523,0.178,1.066,0.286,1.614,0.286c1.281,0,2.561-0.487,3.536-1.462l0.707-0.707c1.086-1.085,1.544-2.549,1.421-3.97
		C42.222,31.929,44,27.029,44,22z M22,42C10.972,42,2,33.028,2,22S10.972,2,22,2s20,8.972,20,20c0,4.143-1.321,8.198-3.748,11.587
		c-0.004-0.006-0.009-0.01-0.013-0.016c-0.152-0.234-0.337-0.451-0.533-0.661c-0.041-0.045-0.071-0.098-0.114-0.141l-4.896-4.981
		c0.073-0.158,0.158-0.309,0.225-0.47c0.212-0.51-0.028-1.096-0.538-1.308c-0.443-0.186-0.926-0.014-1.189,0.362l-0.016-0.016
		l-0.045,0.107c-0.017,0.031-0.044,0.052-0.057,0.085c-0.312,0.749-0.699,1.455-1.152,2.113l-2.943,2.944
		c-0.863,0.609-1.809,1.128-2.843,1.521c-3.147,1.196-6.702,1.155-9.753-0.116c-0.511-0.213-1.096,0.029-1.308,0.538
		c-0.213,0.51,0.028,1.096,0.538,1.308c1.819,0.758,3.791,1.138,5.771,1.138c1.699,0,3.401-0.293,5.021-0.853l2.597,2.597
		l2.712,2.713C27.273,41.479,24.685,42,22,42z M36.173,38.42l-0.707,0.707c-0.897,0.896-2.222,1.1-3.32,0.621
		c-0.016-0.009-0.029-0.022-0.046-0.03c-0.172-0.078-0.329-0.166-0.472-0.262c-0.108-0.076-0.211-0.162-0.311-0.254
		c-0.03-0.027-0.065-0.049-0.093-0.077l-4.513-4.513c0.732-0.4,1.4-0.892,2.037-1.424c0.901,0.529,2.849,2.067,3.891,3.109
		c0.195,0.195,0.451,0.293,0.707,0.293s0.512-0.098,0.707-0.293c0.391-0.391,0.391-1.023,0-1.414
		c-0.666-0.666-1.847-1.672-2.873-2.445c-0.325-0.245-0.633-0.469-0.93-0.669c0.522-0.567,1.063-1.224,1.532-1.986l4.392,4.393
		c0.129,0.129,0.239,0.27,0.339,0.415c0.036,0.052,0.068,0.107,0.101,0.161c0.057,0.095,0.107,0.192,0.153,0.291
		c0.032,0.07,0.065,0.14,0.091,0.212c0.03,0.082,0.051,0.166,0.074,0.25c0.021,0.079,0.047,0.156,0.062,0.237
		c0.001,0.006,0.005,0.011,0.006,0.017C37.168,36.697,36.895,37.698,36.173,38.42z"/>
</g>
<g>
</g>
<g>
</g>
<g>
</g>
<g>
</g>
<g>
</g>
<g>
</g>
<g>
</g>
<g>
</g>
<g>
</g>
<g>
</g>
<g>
</g>
<g>
</g>
<g>
</g>
<g>
</g>
<g>
</g>
</svg>
