<?xml version="1.0" encoding="iso-8859-1"?>
<!-- Generator: Adobe Illustrator 19.0.0, SVG Export Plug-In . SVG Version: 6.00 Build 0)  -->
<svg version="1.1" id="Capa_1" xmlns="http://www.w3.org/2000/svg" xmlns:xlink="http://www.w3.org/1999/xlink" x="0px" y="0px"
	 viewBox="0 0 463 463" style="enable-background:new 0 0 463 463;" xml:space="preserve">
<g>
	<path d="M436.675,200.432c-6.565-43.506-27.166-84.373-58.449-115.656c-10.71-10.71-22.549-20.158-35.226-28.231V15.5
		C343,6.953,336.047,0,327.5,0h-192C126.953,0,120,6.953,120,15.5v41.045c-12.675,8.072-24.512,17.519-35.22,28.226
		c-31.286,31.284-51.889,72.153-58.455,115.661C11.41,202.909,0,215.894,0,231.5s11.41,28.591,26.325,31.068
		c6.565,43.507,27.167,84.374,58.451,115.658c7.972,7.972,16.57,15.244,25.671,21.774H95.5c-8.547,0-15.5,6.953-15.5,15.5v32
		c0,8.547,6.953,15.5,15.5,15.5h272c8.547,0,15.5-6.953,15.5-15.5v-32c0-8.547-6.953-15.5-15.5-15.5h-14.948
		c9.101-6.53,17.7-13.803,25.672-21.774c31.284-31.284,51.886-72.151,58.451-115.658C451.59,260.091,463,247.106,463,231.5
		C463,215.894,451.59,202.909,436.675,200.432z M367.619,95.383c28.384,28.384,47.294,65.264,53.809,104.617H387.89
		c-5.671-28.4-18.842-54.382-38.429-75.854l6.137-6.137c2.929-2.929,2.929-7.678,0-10.606c-2.929-2.929-7.678-2.929-10.606,0
		l-6.137,6.137C317.382,93.952,291.4,80.781,263,75.11V41.572C302.354,48.087,339.235,66.998,367.619,95.383z M164.584,175.19
		c-6.187,7.341-11.191,15.709-14.715,24.81H90.466c5.389-24.337,16.899-46.623,33.705-65.223L164.584,175.19z M134.777,124.17
		c18.6-16.805,40.886-28.316,65.223-33.705v59.403c-9.101,3.524-17.469,8.528-24.81,14.715L134.777,124.17z M164.584,287.81
		l-40.413,40.413c-16.806-18.6-28.316-40.886-33.705-65.223h59.403C153.393,272.101,158.397,280.469,164.584,287.81z
		 M175.19,298.416c7.341,6.187,15.709,11.191,24.81,14.715v59.403c-24.337-5.389-46.623-16.899-65.223-33.705L175.19,298.416z
		 M159,231.5c0-39.977,32.523-72.5,72.5-72.5s72.5,32.523,72.5,72.5S271.477,304,231.5,304S159,271.477,159,231.5z M263,149.869
		V90.466c24.337,5.389,46.623,16.899,65.223,33.705l-40.414,40.414C280.469,158.397,272.101,153.393,263,149.869z M263,313.131
		c9.101-3.524,17.469-8.528,24.81-14.715l40.414,40.414c-18.6,16.805-40.886,28.316-65.223,33.705V313.131z M298.416,287.81
		c6.187-7.341,11.191-15.709,14.715-24.81h59.403c-5.389,24.337-16.899,46.623-33.705,65.223L298.416,287.81z M298.416,175.19
		l40.414-40.414c16.806,18.6,28.316,40.886,33.705,65.223h-59.403C309.607,190.899,304.603,182.531,298.416,175.19z M327.5,15
		c0.276,0,0.5,0.224,0.5,0.5v32.344c-20.409-10.731-42.554-18.066-65.432-21.519c-0.68-4.094-2.148-7.923-4.249-11.325H327.5z
		 M215,31.5c0-9.098,7.402-16.5,16.5-16.5S248,22.402,248,31.5v114.067c-5.346-1.024-10.86-1.567-16.5-1.567
		s-11.154,0.543-16.5,1.567V31.5z M135,15.5c0-0.276,0.224-0.5,0.5-0.5h69.181c-2.101,3.402-3.569,7.231-4.249,11.325
		C177.554,29.778,155.408,37.113,135,47.844V15.5z M95.386,95.378C123.769,66.996,160.649,48.087,200,41.572V75.11
		c-28.4,5.671-54.382,18.842-75.854,38.429l-6.137-6.137c-2.929-2.929-7.678-2.929-10.606,0c-2.929,2.929-2.929,7.678,0,10.606
		l6.137,6.137C93.953,145.618,80.782,171.6,75.111,200H41.572C48.087,160.645,67,123.763,95.386,95.378z M15,231.5
		c0-9.098,7.402-16.5,16.5-16.5h114.067c-1.024,5.346-1.567,10.86-1.567,16.5s0.543,11.154,1.567,16.5H31.5
		C22.402,248,15,240.598,15,231.5z M95.383,367.619C66.998,339.235,48.087,302.354,41.572,263h33.538
		c5.671,28.4,18.842,54.382,38.429,75.854l-6.137,6.137c-2.929,2.929-2.929,7.678,0,10.606c1.464,1.464,3.384,2.197,5.303,2.197
		s3.839-0.732,5.303-2.197l6.137-6.137C145.618,369.048,171.6,382.218,200,387.89v33.538
		C160.647,414.913,123.767,396.003,95.383,367.619z M95.5,448c-0.276,0-0.5-0.224-0.5-0.5v-32c0-0.276,0.224-0.5,0.5-0.5h39.203
		c20.49,10.816,42.74,18.206,65.729,21.675c0.68,4.094,2.148,7.923,4.249,11.325H95.5z M248,431.5c0,9.098-7.402,16.5-16.5,16.5
		s-16.5-7.402-16.5-16.5V317.433c5.346,1.024,10.86,1.567,16.5,1.567s11.154-0.543,16.5-1.567V431.5z M367.5,415
		c0.276,0,0.5,0.224,0.5,0.5v32c0,0.276-0.224,0.5-0.5,0.5H258.319c2.101-3.402,3.569-7.231,4.249-11.325
		c22.99-3.469,45.239-10.859,65.729-21.675H367.5z M367.617,367.619c-28.384,28.384-65.264,47.294-104.617,53.809V387.89
		c28.4-5.671,54.382-18.842,75.854-38.429l6.137,6.137c1.464,1.464,3.384,2.197,5.303,2.197s3.839-0.732,5.303-2.197
		c2.929-2.929,2.929-7.678,0-10.606l-6.137-6.137C369.048,317.382,382.218,291.4,387.89,263h33.538
		C414.913,302.354,396.002,339.235,367.617,367.619z M431.5,248H317.433c1.024-5.346,1.567-10.86,1.567-16.5
		s-0.543-11.154-1.567-16.5H431.5c9.098,0,16.5,7.402,16.5,16.5S440.598,248,431.5,248z"/>
	<path d="M231.5,176c-30.603,0-55.5,24.897-55.5,55.5s24.897,55.5,55.5,55.5s55.5-24.897,55.5-55.5S262.103,176,231.5,176z
		 M231.5,272c-22.332,0-40.5-18.168-40.5-40.5s18.168-40.5,40.5-40.5s40.5,18.168,40.5,40.5S253.832,272,231.5,272z"/>
	<path d="M231.5,200c-17.369,0-31.5,14.131-31.5,31.5s14.131,31.5,31.5,31.5s31.5-14.131,31.5-31.5S248.869,200,231.5,200z
		 M231.5,248c-9.098,0-16.5-7.402-16.5-16.5s7.402-16.5,16.5-16.5s16.5,7.402,16.5,16.5S240.598,248,231.5,248z"/>
</g>
<g>
</g>
<g>
</g>
<g>
</g>
<g>
</g>
<g>
</g>
<g>
</g>
<g>
</g>
<g>
</g>
<g>
</g>
<g>
</g>
<g>
</g>
<g>
</g>
<g>
</g>
<g>
</g>
<g>
</g>
</svg>
