<?xml version="1.0" encoding="iso-8859-1"?>
<!-- Generator: Adobe Illustrator 19.0.0, SVG Export Plug-In . SVG Version: 6.00 Build 0)  -->
<svg version="1.1" id="Layer_1" xmlns="http://www.w3.org/2000/svg" xmlns:xlink="http://www.w3.org/1999/xlink" x="0px" y="0px"
	 viewBox="0 0 330 330" style="enable-background:new 0 0 330 330;" xml:space="preserve">
<g id="XMLID_832_">
	<g>
		<g>
			<path d="M202.091,54.977C203.961,50.35,205,45.297,205,40c0-22.092-17.909-40-40-40s-40,17.908-40,40
				c0,5.297,1.039,10.35,2.909,14.977C68.592,71.234,25,125.521,25,190c0,77.32,62.68,140,140,140s140-62.68,140-140
				C305,125.521,261.408,71.234,202.091,54.977z M165,30c5.522,0,10,4.477,10,10s-4.478,10-10,10c-5.523,0-10-4.477-10-10
				S159.477,30,165,30z M165,300c-60.752,0-110-49.248-110-110S104.248,80,165,80s110,49.248,110,110S225.751,300,165,300z"/>
			<path d="M165,100c-49.706,0-90,40.294-90,90s40.294,90,90,90s90-40.294,90-90S214.706,100,165,100z M181.47,206.471L165,260
				l-16.471-53.529L95,190l53.529-16.471L165,120l16.47,53.529L235,190L181.47,206.471z"/>
		</g>
	</g>
</g>
<g>
</g>
<g>
</g>
<g>
</g>
<g>
</g>
<g>
</g>
<g>
</g>
<g>
</g>
<g>
</g>
<g>
</g>
<g>
</g>
<g>
</g>
<g>
</g>
<g>
</g>
<g>
</g>
<g>
</g>
</svg>
