<?xml version="1.0" encoding="iso-8859-1"?>
<!-- Generator: Adobe Illustrator 18.0.0, SVG Export Plug-In . SVG Version: 6.00 Build 0)  -->
<!DOCTYPE svg PUBLIC "-//W3C//DTD SVG 1.1//EN" "http://www.w3.org/Graphics/SVG/1.1/DTD/svg11.dtd">
<svg version="1.1" id="Capa_1" xmlns="http://www.w3.org/2000/svg" xmlns:xlink="http://www.w3.org/1999/xlink" x="0px" y="0px"
	 viewBox="0 0 95.929 76.305" style="enable-background:new 0 0 95.929 76.305;" xml:space="preserve">
<g>
	<path d="M1.736,29.994c1.875,9.062,4.576,16.763,4.69,17.086l0.54,1.532h11.785l-8.131,9.073l0.625,1.367
		c0.079,0.174,1.988,4.306,5.47,8.473c2.085,2.495,4.311,4.494,6.618,5.942c2.999,1.883,6.135,2.838,9.32,2.838
		c5.713,0,10.575-2.671,14.061-7.724c0.471-0.683,0.886-1.366,1.25-2.026c0.364,0.66,0.779,1.343,1.25,2.026
		c3.486,5.053,8.348,7.724,14.061,7.724c3.186,0,6.321-0.955,9.32-2.838c2.306-1.448,4.533-3.447,6.618-5.942
		c3.482-4.167,5.391-8.299,5.47-8.473l0.625-1.367l-8.131-9.073h11.786l0.54-1.532c0.114-0.324,2.815-8.025,4.689-17.088
		c1.112-5.379,1.695-10.116,1.733-14.078c0.05-5.334-0.855-9.24-2.767-11.942C91.32,1.374,88.55,0,85.147,0
		c-1.938,0-4.141,0.444-6.547,1.321c-6.304,2.295-11.955,5.6-16.798,9.82c-2.505,2.183-4.795,4.613-6.847,7.257v-1.133
		c0-1.49-0.472-2.872-1.272-4.006c0.096-1.397,0.674-4.602,3.892-5.794c1.189-0.44,1.796-1.761,1.355-2.949
		c-0.44-1.189-1.76-1.796-2.949-1.355c-3.046,1.128-5.209,3.415-6.255,6.615c-0.077,0.235-0.144,0.466-0.204,0.693
		c-0.495-0.112-1.01-0.173-1.538-0.173h-0.095c-0.658,0-1.294,0.094-1.897,0.265c-0.066-0.255-0.141-0.517-0.228-0.784
		c-1.046-3.2-3.209-5.487-6.255-6.615c-1.189-0.44-2.509,0.167-2.949,1.355c-0.44,1.189,0.167,2.509,1.355,2.949
		c1.694,0.627,2.82,1.809,3.444,3.613c0.436,1.262,0.466,2.42,0.464,2.76c-0.574,1.013-0.904,2.182-0.904,3.427v1.056
		c-2.037-2.615-4.308-5.019-6.788-7.181c-4.843-4.221-10.495-7.525-16.798-9.82C14.926,0.444,12.723,0,10.784,0
		C7.38,0,4.608,1.374,2.769,3.974c-1.912,2.703-2.817,6.609-2.767,11.943C0.04,19.878,0.623,24.615,1.736,29.994z M45.509,17.266
		c0-1.312,1.068-2.38,2.38-2.38h0.095c0.645,0,1.23,0.258,1.66,0.676c0.04,0.046,0.082,0.09,0.126,0.132
		c0.37,0.42,0.595,0.97,0.595,1.571v8.119c-0.979,1.779-1.768,3.452-2.398,4.946c-0.642-1.524-1.451-3.233-2.457-5.052V17.266z
		 M6.516,6.624C7.499,5.237,8.855,4.59,10.784,4.59c1.401,0,3.075,0.351,4.977,1.043c5.732,2.087,10.867,5.078,15.263,8.889
		c3.523,3.054,6.588,6.644,9.11,10.67c0.274,0.437,0.535,0.87,0.784,1.297c2.824,4.838,4.128,8.992,4.59,10.704
		c0.142,0.527,0.205,0.823,0.208,0.835l2.25,11.114l2.25-11.114c0.002-0.011,0.047-0.228,0.148-0.619
		c0.397-1.538,1.661-5.777,4.59-10.819c0.237-0.409,0.486-0.823,0.745-1.241c2.519-4.055,5.587-7.672,9.118-10.75
		c4.416-3.849,9.582-6.866,15.353-8.968c1.901-0.692,3.576-1.043,4.977-1.043c1.928,0,3.284,0.646,4.266,2.033
		c2.455,3.468,2.56,11.42,0.296,22.392c-1.331,6.453-3.144,12.325-4.019,15.006H66.902l12.936,14.435
		c-0.767,1.411-2.176,3.769-4.145,6.125c-1.776,2.125-3.638,3.806-5.536,4.998c-2.256,1.417-4.571,2.135-6.88,2.135
		c-4.154,0-7.589-1.895-10.208-5.632c-0.563-0.804-1.031-1.614-1.414-2.369c-1.038-2.046-1.455-3.69-1.459-3.708l-0.221-0.911
		l-2.009-8.279l-2.025,8.343l-0.206,0.847c-0.005,0.022-0.429,1.683-1.474,3.737c-0.363,0.714-0.801,1.476-1.324,2.233
		c-2.628,3.809-6.088,5.74-10.283,5.74c-8.527,0-14.603-9.679-16.559-13.26l12.933-14.432H10.241
		c-0.875-2.68-2.688-8.553-4.02-15.005C3.956,18.045,4.061,10.093,6.516,6.624z"/>
</g>
<g>
</g>
<g>
</g>
<g>
</g>
<g>
</g>
<g>
</g>
<g>
</g>
<g>
</g>
<g>
</g>
<g>
</g>
<g>
</g>
<g>
</g>
<g>
</g>
<g>
</g>
<g>
</g>
<g>
</g>
</svg>
