<?xml version="1.0" encoding="iso-8859-1"?>
<!-- Generator: Adobe Illustrator 16.0.0, SVG Export Plug-In . SVG Version: 6.00 Build 0)  -->
<!DOCTYPE svg PUBLIC "-//W3C//DTD SVG 1.1//EN" "http://www.w3.org/Graphics/SVG/1.1/DTD/svg11.dtd">
<svg version="1.1" id="Capa_1" xmlns="http://www.w3.org/2000/svg" xmlns:xlink="http://www.w3.org/1999/xlink" x="0px" y="0px"
	 width="473.814px" height="473.814px" viewBox="0 0 473.814 473.814" style="enable-background:new 0 0 473.814 473.814;"
	 xml:space="preserve">
<g>
	<g id="_x34_7_61_">
		<g>
			<path d="M111.504,46.114c-30.813,4.572-42.701,11.188-67.183,37.404C16.89,112.896-0.756,159.803,0.025,204.471
				c0,48.467,15.333,91.836,39.48,120.885v90.875c0,7.281,5.902,13.184,13.183,13.184h106.803c7.281,0,13.183-5.901,13.183-13.184
				v-93.779c25.04-34.869,39.548-81.973,38.251-97.186c-1.661-19.449-21.825-49.605-46.266-42.328
				c-19.966,5.947-31.873,33.705-44.296,32.238c-10.518-1.242-6.654-20.568,4.674-39.375c18.365-30.484,91.549,12.553,98.438-45.033
				C230.366,73.184,181.145,35.778,111.504,46.114z M146.309,332.577v70.473H65.871v-70.473H146.309z"/>
			<path d="M429.493,83.52c-24.479-26.219-36.368-32.832-67.182-37.406c-69.643-10.336-118.861,27.07-111.972,84.656
				c6.889,57.584,80.072,14.549,98.438,45.031c11.327,18.809,15.19,38.133,4.675,39.375c-12.424,1.469-24.332-26.289-44.296-32.236
				c-24.442-7.279-44.605,22.877-46.267,42.326c-1.298,15.225,13.231,62.383,38.304,97.26v93.705c0,7.252,5.879,13.131,13.13,13.131
				h106.804c7.251,0,13.13-5.879,13.13-13.131v-90.811c24.176-29.05,39.531-72.447,39.531-120.95
				C474.572,159.803,456.924,112.896,429.493,83.52z M407.998,403.103h-80.542v-69.807h80.542V403.103z"/>
		</g>
	</g>
</g>
<g>
</g>
<g>
</g>
<g>
</g>
<g>
</g>
<g>
</g>
<g>
</g>
<g>
</g>
<g>
</g>
<g>
</g>
<g>
</g>
<g>
</g>
<g>
</g>
<g>
</g>
<g>
</g>
<g>
</g>
</svg>
