<?xml version="1.0" encoding="iso-8859-1"?>
<!-- Generator: Adobe Illustrator 19.0.0, SVG Export Plug-In . SVG Version: 6.00 Build 0)  -->
<svg version="1.1" id="Layer_1" xmlns="http://www.w3.org/2000/svg" xmlns:xlink="http://www.w3.org/1999/xlink" x="0px" y="0px"
	 viewBox="0 0 512 512" style="enable-background:new 0 0 512 512;" xml:space="preserve">
<g>
	<g>
		<path d="M503.467,494.933H187.733v-17.067H307.2c4.71,0,8.533-3.814,8.533-8.533c0-4.71-3.823-8.533-8.533-8.533H187.733v-17.067
			h123.733c4.71,0,8.533-3.814,8.533-8.533c0-4.71-3.823-8.533-8.533-8.533H187.733V409.6h128c4.71,0,8.533-3.814,8.533-8.533
			c0-4.71-3.823-8.533-8.533-8.533h-128v-17.067h132.446c4.71,0,8.533-3.814,8.533-8.533c0-4.71-3.823-8.533-8.533-8.533H187.733
			v-17.067h132.446c4.71,0,8.533-3.814,8.533-8.533c0-4.71-3.823-8.533-8.533-8.533H187.733V307.2h128
			c4.71,0,8.533-3.814,8.533-8.533c0-4.71-3.823-8.533-8.533-8.533h-128v-17.067h123.554c4.71,0,8.533-3.814,8.533-8.533
			c0-4.71-3.823-8.533-8.533-8.533H187.733v-17.067h106.308c4.719,0,8.533-3.814,8.533-8.533c0-4.71-3.814-8.533-8.533-8.533
			H187.733V204.8h89.779c4.71,0,8.533-3.814,8.533-8.533c0-4.71-3.823-8.533-8.533-8.533h-89.779v-17.067h99.379
			c29.986,46.558,54.221,104.559,54.221,170.667c0,90.641-16.299,132.966-16.461,133.367c-1.749,4.378,0.384,9.344,4.753,11.093
			c1.041,0.418,2.116,0.614,3.174,0.614c3.379,0,6.588-2.031,7.927-5.367c0.717-1.801,17.673-45.278,17.673-139.708
			c0-65.971-22.118-123.657-50.569-170.667h20.497c9.805,14.839,47.138,77.389,47.138,170.667
			c0,90.283-16.171,132.634-16.461,133.376c-1.741,4.378,0.384,9.335,4.753,11.085c1.041,0.418,2.116,0.614,3.174,0.614
			c3.379,0,6.588-2.031,7.927-5.367c0.717-1.801,17.672-45.278,17.672-139.708c0-85.018-28.971-145.118-44.058-170.667H384
			c4.71,0,8.533-3.814,8.533-8.533c0-4.71-3.823-8.533-8.533-8.533h-87.014C254.08,89.822,202.078,48.939,187.733,38.323V8.533
			c0-4.71-3.823-8.533-8.533-8.533s-8.533,3.823-8.533,8.533V153.6h-25.6c-4.71,0-8.533,3.823-8.533,8.533
			c0,4.719,3.823,8.533,8.533,8.533h25.6v324.267H8.533c-4.71,0-8.533,3.823-8.533,8.533C0,508.186,3.823,512,8.533,512h494.933
			c4.71,0,8.533-3.814,8.533-8.533C512,498.756,508.177,494.933,503.467,494.933z M187.733,60.075
			c19.055,15.548,55.262,48.009,87.799,93.525h-87.799V60.075z"/>
	</g>
</g>
<g>
</g>
<g>
</g>
<g>
</g>
<g>
</g>
<g>
</g>
<g>
</g>
<g>
</g>
<g>
</g>
<g>
</g>
<g>
</g>
<g>
</g>
<g>
</g>
<g>
</g>
<g>
</g>
<g>
</g>
</svg>
