<?xml version="1.0" encoding="iso-8859-1"?>
<!-- Generator: Adobe Illustrator 16.0.0, SVG Export Plug-In . SVG Version: 6.00 Build 0)  -->
<!DOCTYPE svg PUBLIC "-//W3C//DTD SVG 1.1//EN" "http://www.w3.org/Graphics/SVG/1.1/DTD/svg11.dtd">
<svg version="1.1" id="Capa_1" xmlns="http://www.w3.org/2000/svg" xmlns:xlink="http://www.w3.org/1999/xlink" x="0px" y="0px"
	 width="24.049px" height="24.05px" viewBox="0 0 24.049 24.05" style="enable-background:new 0 0 24.049 24.05;"
	 xml:space="preserve">
<g>
	<path d="M6.674,21.5c0,1.38-1.12,2.5-2.5,2.5s-2.5-1.12-2.5-2.5s1.119-2.5,2.5-2.5S6.674,20.119,6.674,21.5z M15.174,5
		c1.381,0,2.5-1.119,2.5-2.5S16.555,0,15.174,0s-2.5,1.119-2.5,2.5S13.794,5,15.174,5z M22.214,11.356l-2.199-3.4
		c-0.092-0.141-0.219-0.257-0.364-0.337l-2.345-1.262c-1.075-0.688-4.46-1.449-5.833-1.057c-0.018,0.004-0.033,0.014-0.053,0.019
		c-0.141,0.021-0.279,0.067-0.406,0.152l-3.7,2.5C7.273,8,7.233,8.031,7.195,8.065l-2.6,2.4c-0.406,0.375-0.431,1.007-0.057,1.413
		C4.736,12.092,5.005,12.2,5.275,12.2c0.242,0,0.485-0.088,0.678-0.265l2.544-2.349l2.167-1.465L8.1,14.199l-1.04,2.031
		c-0.314,0.614-0.071,1.367,0.543,1.684c0.182,0.094,0.376,0.137,0.568,0.137c0.454,0,0.893-0.246,1.114-0.68l0.161-0.314
		L9.473,17.1l2.1-3l-0.866,3.563L9,22.374c-0.235,0.647,0.1,1.365,0.749,1.601c0.14,0.053,0.284,0.075,0.426,0.075
		c0.511,0,0.991-0.315,1.174-0.823l3.301-9.101c0.025-0.073,0.021-0.146,0.031-0.222L16.575,8.4c0,0,0.023-0.052,0.062-0.13
		l1.838,0.989l2.062,3.185c0.19,0.296,0.514,0.457,0.842,0.457c0.188,0,0.375-0.053,0.543-0.161
		C22.382,12.439,22.514,11.82,22.214,11.356z"/>
</g>
<g>
</g>
<g>
</g>
<g>
</g>
<g>
</g>
<g>
</g>
<g>
</g>
<g>
</g>
<g>
</g>
<g>
</g>
<g>
</g>
<g>
</g>
<g>
</g>
<g>
</g>
<g>
</g>
<g>
</g>
</svg>
