<?xml version="1.0" encoding="iso-8859-1"?>
<!-- Generator: Adobe Illustrator 18.0.0, SVG Export Plug-In . SVG Version: 6.00 Build 0)  -->
<!DOCTYPE svg PUBLIC "-//W3C//DTD SVG 1.1//EN" "http://www.w3.org/Graphics/SVG/1.1/DTD/svg11.dtd">
<svg version="1.1" id="Capa_1" xmlns="http://www.w3.org/2000/svg" xmlns:xlink="http://www.w3.org/1999/xlink" x="0px" y="0px"
	 viewBox="0 0 460 460" style="enable-background:new 0 0 460 460;" xml:space="preserve">
<path d="M420.787,418.923L241.618,116.566l50.542-85.293l-17.206-10.196l-44.96,75.873l-44.96-75.873l-17.206,10.196l50.542,85.293
	L39.201,418.923H0v20h460v-20H420.787z M229.994,136.183l167.545,282.74h-99.158c2.169-24.33,3.912-80.961-22.259-111.376
	c-11.643-13.531-27.16-20.391-46.123-20.391s-34.479,6.86-46.121,20.391c-26.168,30.414-24.421,87.045-22.25,111.376h-99.18
	L229.994,136.183z M181.68,418.923c-2.494-25.447-2.712-75.003,17.36-98.332c7.778-9.041,17.905-13.435,30.96-13.435
	c13.047,0,23.17,4.389,30.947,13.418c21.748,25.248,19.267,77.784,17.322,98.349H181.68z"/>
<g>
</g>
<g>
</g>
<g>
</g>
<g>
</g>
<g>
</g>
<g>
</g>
<g>
</g>
<g>
</g>
<g>
</g>
<g>
</g>
<g>
</g>
<g>
</g>
<g>
</g>
<g>
</g>
<g>
</g>
</svg>
