<?xml version="1.0" encoding="iso-8859-1"?>
<!-- Generator: Adobe Illustrator 18.1.1, SVG Export Plug-In . SVG Version: 6.00 Build 0)  -->
<svg version="1.1" id="Capa_1" xmlns="http://www.w3.org/2000/svg" xmlns:xlink="http://www.w3.org/1999/xlink" x="0px" y="0px"
	 viewBox="0 0 19.676 19.676" style="enable-background:new 0 0 19.676 19.676;" xml:space="preserve">
<g>
	<path d="M18.54,11.62l1.136-1.184c0,0-0.839-0.473-2.111-0.229c-1.272,0.235-1.879,1.103-1.879,1.103l-0.791-0.543l1.022-1.915
		c0,0-0.987-0.209-2.245-0.164c-1.256,0.045-2.529,0.941-2.529,0.941S10.77,8.582,9.062,7.161C7.358,5.739,5.307,5.485,5.307,5.485
		c0.404,0.701,1.174,3.473,1.174,3.473S5.927,8.275,4.963,7.803C4.19,7.423,3.047,7.325,3.047,7.325l0.581,2.318
		c0,0-0.396-0.648-1.481-1.002C1.372,8.387,0.174,8.627,0.174,8.627l1.271,2.63L0,11.715v0.021l0.234,0.15v0.629H0v1.676h19.229
		v-1.807l-0.66-0.363L18.54,11.62z M1.879,11.694L0.397,8.797L0.95,8.773l1.5,2.972L1.879,11.694z M4.325,12.207
		c0,0-0.183-1.009-0.416-2.119C3.676,8.977,3.212,7.502,3.212,7.502l0.232,0.053c0,0,0.523,0.826,0.866,2.229
		c0.311,1.269,0.362,2.247,0.362,2.247L4.325,12.207z M7.338,12.245c0,0-0.275-1.666-0.638-3.218
		c-0.363-1.551-1.033-3.23-1.033-3.23l0.441,0.104c0,0,0.785,1.299,1.199,3.055c0.413,1.76,0.482,3.669,0.482,3.669L7.338,12.245z
		 M13.475,12.243l1.844-3.33l0.396,0.021l-1.754,3.314L13.475,12.243z M14.092,12.293l0.432-0.783l0.291,0.828L14.092,12.293z
		 M17.189,12.817l-0.455-0.065c0,0,0.873-0.884,1.433-1.423c0.562-0.536,1.06-0.938,1.06-0.938l0.332,0.071
		c0,0-0.854,0.825-1.305,1.254C17.805,12.141,17.189,12.817,17.189,12.817z"/>
</g>
<g>
</g>
<g>
</g>
<g>
</g>
<g>
</g>
<g>
</g>
<g>
</g>
<g>
</g>
<g>
</g>
<g>
</g>
<g>
</g>
<g>
</g>
<g>
</g>
<g>
</g>
<g>
</g>
<g>
</g>
</svg>
