<?xml version="1.0" encoding="iso-8859-1"?>
<!-- Generator: Adobe Illustrator 19.0.0, SVG Export Plug-In . SVG Version: 6.00 Build 0)  -->
<svg version="1.1" id="Capa_1" xmlns="http://www.w3.org/2000/svg" xmlns:xlink="http://www.w3.org/1999/xlink" x="0px" y="0px"
	 viewBox="0 0 463 463" style="enable-background:new 0 0 463 463;" xml:space="preserve">
<path d="M455.5,252H335v-0.5c0-4.142-3.358-7.5-7.5-7.5s-7.5,3.358-7.5,7.5v0.5h-33v-49h0.5c8.547,0,15.5-6.953,15.5-15.5v-16
	c0-8.547-6.953-15.5-15.5-15.5H263v-17h72.5c12.958,0,23.5-10.542,23.5-23.5S348.458,92,335.5,92H239v-8.5
	c0-4.142-3.358-7.5-7.5-7.5s-7.5,3.358-7.5,7.5V92h-96.5c-12.958,0-23.5,10.542-23.5,23.5s10.542,23.5,23.5,23.5H200v17h-24.5
	c-8.547,0-15.5,6.953-15.5,15.5v16c0,8.547,6.953,15.5,15.5,15.5h0.5v49h-33v-0.5c0-4.142-3.358-7.5-7.5-7.5s-7.5,3.358-7.5,7.5v0.5
	H7.5c-4.142,0-7.5,3.358-7.5,7.5v80c0,4.142,3.358,7.5,7.5,7.5H128v0.5c0,4.142,3.358,7.5,7.5,7.5s7.5-3.358,7.5-7.5V347h50.351
	l4.222,21.108c2.189,10.946,11.88,18.892,23.043,18.892h21.767c11.163,0,20.854-7.945,23.043-18.892L269.649,347H320v0.5
	c0,4.142,3.358,7.5,7.5,7.5s7.5-3.358,7.5-7.5V347h120.5c4.142,0,7.5-3.358,7.5-7.5v-80C463,255.358,459.642,252,455.5,252z
	 M119,115.5c0-4.687,3.813-8.5,8.5-8.5h208c4.687,0,8.5,3.813,8.5,8.5s-3.813,8.5-8.5,8.5h-208C122.813,124,119,120.187,119,115.5z
	 M215,139h33v17h-33V139z M175,187.5v-16c0-0.276,0.224-0.5,0.5-0.5h112c0.276,0,0.5,0.224,0.5,0.5v16c0,0.276-0.224,0.5-0.5,0.5h-8
	h-96h-8C175.224,188,175,187.776,175,187.5z M191,203h81v49h-81V203z M15,332v-65h113v65H15z M250.718,365.167
	c-0.792,3.959-4.297,6.833-8.334,6.833h-21.767c-4.038,0-7.543-2.874-8.334-6.833L208.648,347h45.703L250.718,365.167z M143,332v-65
	h177v65H143z M448,332H335v-65h113V332z"/>
<g>
</g>
<g>
</g>
<g>
</g>
<g>
</g>
<g>
</g>
<g>
</g>
<g>
</g>
<g>
</g>
<g>
</g>
<g>
</g>
<g>
</g>
<g>
</g>
<g>
</g>
<g>
</g>
<g>
</g>
</svg>
