<?xml version="1.0" encoding="iso-8859-1"?>
<!-- Generator: Adobe Illustrator 17.1.0, SVG Export Plug-In . SVG Version: 6.00 Build 0)  -->
<!DOCTYPE svg PUBLIC "-//W3C//DTD SVG 1.1//EN" "http://www.w3.org/Graphics/SVG/1.1/DTD/svg11.dtd">
<svg version="1.1" id="Capa_1" xmlns="http://www.w3.org/2000/svg" xmlns:xlink="http://www.w3.org/1999/xlink" x="0px" y="0px"
	 viewBox="0 0 243.248 243.248" style="enable-background:new 0 0 243.248 243.248;" xml:space="preserve">
<g>
	<path style="fill:#000002;" d="M179.37,0H63.878c-12.407,0-22.5,10.093-22.5,22.5v198.248c0,12.407,10.093,22.5,22.5,22.5H179.37
		c12.407,0,22.5-10.093,22.5-22.5V22.5C201.87,10.093,191.777,0,179.37,0z M63.878,15H179.37c4.136,0,7.5,3.365,7.5,7.5v155.933
		H56.378V22.5C56.378,18.365,59.742,15,63.878,15z M179.37,228.248H63.878c-4.136,0-7.5-3.365-7.5-7.5v-27.315H186.87v27.315
		C186.87,224.883,183.506,228.248,179.37,228.248z"/>
	<path style="fill:#000002;" d="M129.874,203.515h-16.5c-4.142,0-7.5,3.358-7.5,7.5c0,4.142,3.358,7.5,7.5,7.5h16.5
		c4.142,0,7.5-3.358,7.5-7.5C137.374,206.873,134.016,203.515,129.874,203.515z"/>
	<path style="fill:#000002;" d="M121.475,105.785c-5.798,0-10.516,4.717-10.516,10.516s4.717,10.516,10.516,10.516
		c5.798,0,10.516-4.717,10.516-10.516S127.273,105.785,121.475,105.785z"/>
	<path style="fill:#000002;" d="M88.388,89.063c9.508-7.546,20.949-11.535,33.087-11.535c12.267,0,23.802,4.062,33.358,11.747
		c1.016,0.817,2.233,1.214,3.443,1.214c1.608,0,3.203-0.702,4.29-2.053c1.903-2.367,1.528-5.829-0.839-7.733
		c-11.366-9.141-25.661-14.175-40.251-14.175c-14.646,0-28.452,4.813-39.925,13.918c-2.379,1.888-2.777,5.348-0.889,7.727
		C82.549,90.553,86.01,90.949,88.388,89.063z"/>
	<path style="fill:#000002;" d="M147.585,96.099c-7.357-5.917-16.61-9.175-26.053-9.175c-9.479,0-18.415,3.115-25.842,9.009
		c-2.379,1.888-2.777,5.348-0.889,7.727c1.889,2.379,5.348,2.777,7.727,0.889c5.461-4.334,12.033-6.625,19.004-6.625
		c7.045,0,13.671,2.333,19.16,6.747c1.016,0.817,2.233,1.214,3.443,1.214c1.608,0,3.203-0.702,4.29-2.053
		C150.328,101.464,149.953,98.003,147.585,96.099z"/>
</g>
<g>
</g>
<g>
</g>
<g>
</g>
<g>
</g>
<g>
</g>
<g>
</g>
<g>
</g>
<g>
</g>
<g>
</g>
<g>
</g>
<g>
</g>
<g>
</g>
<g>
</g>
<g>
</g>
<g>
</g>
</svg>
