<?xml version="1.0" encoding="iso-8859-1"?>
<!-- Generator: Adobe Illustrator 18.0.0, SVG Export Plug-In . SVG Version: 6.00 Build 0)  -->
<!DOCTYPE svg PUBLIC "-//W3C//DTD SVG 1.1//EN" "http://www.w3.org/Graphics/SVG/1.1/DTD/svg11.dtd">
<svg version="1.1" id="Capa_1" xmlns="http://www.w3.org/2000/svg" xmlns:xlink="http://www.w3.org/1999/xlink" x="0px" y="0px"
	 viewBox="0 0 59 59" style="enable-background:new 0 0 59 59;" xml:space="preserve">
<g>
	<path d="M19.191,35.535l4.565-3.934c1.05-0.919,1.771-2.084,2.085-3.368c0.209-0.854,0.161-1.426,0.13-1.636
		c-0.238-2.416-2.104-4.233-4.353-4.233c-1.172,0-2.268,0.469-3.07,1.264c-0.785-0.802-1.851-1.264-3.014-1.264
		c-2.249,0-4.115,1.818-4.353,4.234c-0.031,0.208-0.078,0.779,0.13,1.633c0.314,1.286,1.035,2.451,2.085,3.369l4.482,3.929
		c0.188,0.165,0.424,0.248,0.659,0.248C18.771,35.777,19.004,35.696,19.191,35.535z M14.715,30.096
		c-0.739-0.646-1.243-1.455-1.459-2.339c-0.131-0.534-0.099-0.839-0.1-0.839c0.006-0.033,0.011-0.067,0.015-0.102
		c0.111-1.219,0.96-2.452,2.364-2.452c0.92,0,1.7,0.529,2.088,1.416c0.159,0.364,0.519,0.6,0.916,0.6s0.757-0.235,0.916-0.6
		c0.376-0.86,1.226-1.416,2.164-1.416c1.404,0,2.253,1.233,2.375,2.528c0,0.003,0.04,0.311-0.096,0.865
		c-0.216,0.884-0.72,1.692-1.452,2.333l-3.901,3.361L14.715,30.096z"/>
	<path d="M42.465,22.364c-1.172,0-2.269,0.469-3.07,1.264c-0.785-0.802-1.851-1.264-3.014-1.264c-2.249,0-4.114,1.817-4.353,4.233
		c-0.031,0.21-0.079,0.781,0.13,1.634c0.314,1.285,1.035,2.451,2.084,3.369l4.482,3.929c0.188,0.165,0.424,0.248,0.659,0.248
		c0.232,0,0.465-0.081,0.652-0.242l4.565-3.934c1.051-0.918,1.771-2.083,2.086-3.37c0.208-0.854,0.161-1.425,0.13-1.633
		C46.58,24.183,44.714,22.364,42.465,22.364z M44.744,27.758c-0.216,0.884-0.72,1.692-1.453,2.333l-3.901,3.361l-3.83-3.356
		c-0.738-0.646-1.242-1.455-1.458-2.34c-0.131-0.532-0.099-0.836-0.101-0.836c0.007-0.034,0.012-0.069,0.016-0.104
		c0.111-1.219,0.96-2.452,2.364-2.452c0.919,0,1.699,0.529,2.087,1.416c0.159,0.364,0.519,0.6,0.916,0.6s0.757-0.235,0.916-0.6
		c0.376-0.86,1.226-1.416,2.165-1.416c1.404,0,2.253,1.233,2.374,2.527C44.84,26.895,44.88,27.202,44.744,27.758z"/>
	<path d="M41,40H19c-0.553,0-1,0.447-1,1c0,6.617,5.383,12,12,12s12-5.383,12-12C42,40.447,41.553,40,41,40z M30,51
		c-5.177,0-9.447-3.954-9.95-9h19.9C39.447,47.046,35.177,51,30,51z"/>
	<path d="M29.5,0C14.888,0,3,11.888,3,26.5v10.979c0,0,0,0.002,0,0.004s0,0.004,0,0.006c0,0.004,0,0.008,0,0.012V51
		c0,2.757,2.243,5,5,5h6.55c0.046,0.022,0.096,0.04,0.142,0.061c3.51,1.654,7.728,2.643,12.543,2.878
		c0.107,0.005,0.214,0.011,0.321,0.016C28.195,58.982,28.84,59,29.5,59s1.305-0.018,1.945-0.045c0.107-0.005,0.214-0.01,0.321-0.016
		c4.814-0.235,9.033-1.224,12.543-2.878c0.046-0.022,0.096-0.04,0.142-0.061H51c2.757,0,5-2.243,5-5V26.5C56,11.888,44.112,0,29.5,0
		z M43.992,54l-0.207,0.101c-2.828,1.374-6.204,2.271-9.916,2.666c-0.271,0.027-0.542,0.056-0.819,0.078
		c-0.392,0.033-0.787,0.062-1.186,0.084C31.09,56.969,30.309,57,29.5,57s-1.59-0.031-2.364-0.072
		c-0.399-0.022-0.794-0.051-1.186-0.084c-0.276-0.022-0.547-0.05-0.818-0.078c-3.712-0.395-7.089-1.292-9.916-2.666L15.008,54
		h-0.089C8.548,50.783,5,45.095,5,37.5c0-0.004,0-0.007,0-0.011c0-0.002,0-0.004,0-0.006c0-0.001,0-0.002,0-0.004
		C5.012,24.628,15.796,13.647,29,13l0.951-0.001C43.212,13.647,54,24.639,54,37.5c0,7.595-3.548,13.283-9.919,16.5H43.992z M8,54
		c-1.654,0-3-1.346-3-3v-4.226c1.384,2.876,3.459,5.308,6.148,7.226H8z M54,51c0,1.654-1.346,3-3,3h-3.148
		c2.689-1.917,4.764-4.349,6.148-7.226V51z M30,11l-1.049,0.001C18.165,11.529,8.911,18.42,5,27.736V26.5C5,12.99,15.99,2,29.5,2
		S54,12.99,54,26.5v1.198C50.079,18.398,40.811,11.528,30,11z"/>
</g>
<g>
</g>
<g>
</g>
<g>
</g>
<g>
</g>
<g>
</g>
<g>
</g>
<g>
</g>
<g>
</g>
<g>
</g>
<g>
</g>
<g>
</g>
<g>
</g>
<g>
</g>
<g>
</g>
<g>
</g>
</svg>
