<?xml version="1.0" encoding="iso-8859-1"?>
<!-- Generator: Adobe Illustrator 16.0.0, SVG Export Plug-In . SVG Version: 6.00 Build 0)  -->
<!DOCTYPE svg PUBLIC "-//W3C//DTD SVG 1.1//EN" "http://www.w3.org/Graphics/SVG/1.1/DTD/svg11.dtd">
<svg version="1.1" id="Capa_1" xmlns="http://www.w3.org/2000/svg" xmlns:xlink="http://www.w3.org/1999/xlink" x="0px" y="0px"
	 width="416.096px" height="416.096px" viewBox="0 0 416.096 416.096" style="enable-background:new 0 0 416.096 416.096;"
	 xml:space="preserve">
<g>
	<g>
		<path d="M413.822,148.446c-4.412,17.67-36.224,28.274-36.224,28.274c19.452-19.366,18.899-54.828,16.615-75.3
			c-0.974-8.72-1.988-8.45-4.248,0.046c-6.207,23.369-27.086,40.463-40.707,49.474c-0.032-4.412-0.061-8.306-0.093-11.609
			c-0.06-6.406-0.545-3.857-6.432,2.659c-5.698,6.298-16.454,12.782-36.784,15.725c-30.48,4.412-64.199,22.973-83.267,34.839
			c-7.461,4.643-19.155,4.643-26.615,0c-19.077-11.874-52.796-30.427-83.268-34.839c-20.344-2.943-31.096-9.427-36.78-15.725
			c-5.887-6.516-6.374-9.836-6.42-4.388c-0.036,2.81-0.058,6.117-0.088,9.878c-13.378-8.426-36.764-26.247-43.396-51.211
			c-2.254-8.484-3.266-8.768-4.24-0.046c-2.285,20.464-2.826,55.934,16.61,75.296c0,0-31.809-10.6-36.213-28.271
			c-4.308-17.2-11.028,64.377,70.106,95.619c10.165,39.457,47.702,57.314,72.895,57.314c16.667,0,35.902,11.024,49.333,20.474
			c7.175,5.046,13.597,9.646,14.781,9.646c1.18,0,7.6-4.593,14.778-9.646c13.429-9.449,32.664-20.474,49.331-20.474
			c24.157,0,59.654-16.446,71.496-52.586C424.818,212.034,418.094,131.331,413.822,148.446z M94.24,206.74
			c0,0,73.542,3.984,83.483,68.904C177.723,275.644,109.48,283.599,94.24,206.74z M237.351,275.644
			c9.943-64.929,83.487-68.904,83.487-68.904C305.598,283.599,237.351,275.644,237.351,275.644z"/>
	</g>
</g>
<g>
</g>
<g>
</g>
<g>
</g>
<g>
</g>
<g>
</g>
<g>
</g>
<g>
</g>
<g>
</g>
<g>
</g>
<g>
</g>
<g>
</g>
<g>
</g>
<g>
</g>
<g>
</g>
<g>
</g>
</svg>
