<?xml version="1.0" encoding="iso-8859-1"?>
<!-- Generator: Adobe Illustrator 18.0.0, SVG Export Plug-In . SVG Version: 6.00 Build 0)  -->
<!DOCTYPE svg PUBLIC "-//W3C//DTD SVG 1.1//EN" "http://www.w3.org/Graphics/SVG/1.1/DTD/svg11.dtd">
<svg version="1.1" id="Capa_1" xmlns="http://www.w3.org/2000/svg" xmlns:xlink="http://www.w3.org/1999/xlink" x="0px" y="0px"
	 viewBox="0 0 285 285" style="enable-background:new 0 0 285 285;" xml:space="preserve">
<path d="M272.5,155c6.903,0,12.5-5.596,12.5-12.5s-5.597-12.5-12.5-12.5h-25V98.396h25c6.903,0,12.5-5.596,12.5-12.5
	s-5.597-12.5-12.5-12.5h-25V57.5c0-11.046-8.954-20-20-20h-15.896v-25c0-6.903-5.596-12.5-12.5-12.5s-12.5,5.597-12.5,12.5v25H155
	v-25C155,5.597,149.404,0,142.5,0S130,5.597,130,12.5v25H98.396v-25c0-6.903-5.596-12.5-12.5-12.5s-12.5,5.597-12.5,12.5v25H57.5
	c-11.046,0-20,8.954-20,20v15.896h-25c-6.903,0-12.5,5.596-12.5,12.5s5.597,12.5,12.5,12.5h25V130h-25C5.597,130,0,135.596,0,142.5
	S5.597,155,12.5,155h25v31.604h-25c-6.903,0-12.5,5.596-12.5,12.5s5.597,12.5,12.5,12.5h25V227.5c0,11.046,8.954,20,20,20h15.896v25
	c0,6.903,5.596,12.5,12.5,12.5s12.5-5.597,12.5-12.5v-25H130v25c0,6.903,5.596,12.5,12.5,12.5s12.5-5.597,12.5-12.5v-25h31.604v25
	c0,6.903,5.596,12.5,12.5,12.5s12.5-5.597,12.5-12.5v-25H227.5c11.046,0,20-8.954,20-20v-15.896h25c6.903,0,12.5-5.596,12.5-12.5
	s-5.597-12.5-12.5-12.5h-25V155H272.5z M200.5,189.452c0,6.102-4.946,11.048-11.048,11.048H95.548
	c-6.102,0-11.048-4.946-11.048-11.048V95.548c0-6.102,4.946-11.048,11.048-11.048h93.904c6.102,0,11.048,4.946,11.048,11.048
	V189.452z"/>
<g>
</g>
<g>
</g>
<g>
</g>
<g>
</g>
<g>
</g>
<g>
</g>
<g>
</g>
<g>
</g>
<g>
</g>
<g>
</g>
<g>
</g>
<g>
</g>
<g>
</g>
<g>
</g>
<g>
</g>
</svg>
