<?xml version="1.0" encoding="iso-8859-1"?>
<!-- Generator: Adobe Illustrator 18.0.0, SVG Export Plug-In . SVG Version: 6.00 Build 0)  -->
<!DOCTYPE svg PUBLIC "-//W3C//DTD SVG 1.1//EN" "http://www.w3.org/Graphics/SVG/1.1/DTD/svg11.dtd">
<svg version="1.1" id="Capa_1" xmlns="http://www.w3.org/2000/svg" xmlns:xlink="http://www.w3.org/1999/xlink" x="0px" y="0px"
	 viewBox="0 0 57.003 57.003" style="enable-background:new 0 0 57.003 57.003;" xml:space="preserve">
<g>
	<path d="M55.502,23.003h-2.141L50.74,5.849c-0.192-1.229-0.744-2.393-1.596-3.366c-1.906-2.177-5.294-3.031-8.43-2.125
		L29.927,3.476c-1.264,0.366-2.651,0.35-3.905-0.045l-9.297-2.93c-2.251-0.71-4.809-0.476-6.842,0.623
		c-1.675,0.906-2.854,2.319-3.32,3.979C6.494,5.347,6.44,5.596,6.402,5.845L3.649,23.003H1.502c-0.552,0-1,0.447-1,1s0.448,1,1,1h3
		h2v23c0,2.757,2.243,5,5,5h2.723v1.694c0,1.271,1.034,2.306,2.305,2.306h23.389c1.271,0,2.306-1.034,2.306-2.306v-1.694h3.277
		c2.757,0,5-2.243,5-5v-23h2h3c0.552,0,1-0.447,1-1S56.054,23.003,55.502,23.003z M50.42,17.003H6.637l0.321-2h43.157L50.42,17.003z
		 M8.377,6.156C8.404,5.981,8.442,5.81,8.488,5.643C8.806,4.51,9.64,3.53,10.835,2.883c1.566-0.846,3.543-1.025,5.289-0.474
		l9.297,2.93c1.625,0.51,3.423,0.532,5.062,0.059L41.269,2.28c2.366-0.686,4.987-0.059,6.37,1.521
		c0.603,0.687,0.991,1.502,1.124,2.354l1.046,6.849H7.279L8.377,6.156z M11.721,27.783c0.195,0.195,0.451,0.293,0.707,0.293
		s0.512-0.098,0.707-0.293l2.78-2.78h3.318l-3.415,3.414c-0.391,0.391-0.391,1.023,0,1.414c0.195,0.195,0.451,0.293,0.707,0.293
		s0.512-0.098,0.707-0.293l4.829-4.828h5.604c-0.577,4.494-4.965,8.243-9.92,8.243c-4.759,0-8.69-3.615-9.19-8.243h4.532
		l-1.366,1.366C11.331,26.76,11.331,27.393,11.721,27.783z M33.234,27.783c0.195,0.195,0.451,0.293,0.707,0.293
		s0.512-0.098,0.707-0.293l2.78-2.78h3.318l-3.414,3.414c-0.391,0.391-0.391,1.023,0,1.414c0.195,0.195,0.451,0.293,0.707,0.293
		s0.512-0.098,0.707-0.293l4.829-4.828h4.874c-0.5,4.628-4.431,8.243-9.19,8.243s-8.69-3.615-9.19-8.243H34.6l-1.366,1.366
		C32.843,26.76,32.843,27.393,33.234,27.783z M40.225,54.698c0,0.169-0.137,0.306-0.306,0.306H16.53
		c-0.168,0-0.305-0.137-0.305-0.306v-1.694h24V54.698z M45.502,51.003h-3.277h-28h-2.723c-1.654,0-3-1.346-3-3V30.388
		c2.031,2.931,5.415,4.858,9.244,4.858c4.844,0,9.231-3.028,11.068-7.104c1.653,4.155,5.707,7.104,10.444,7.104
		c3.829,0,7.212-1.927,9.244-4.858v17.615C48.502,49.657,47.156,51.003,45.502,51.003z M49.502,23.003H29.014H28.73H7.502H5.675
		l0.642-4h44.409l0.611,4H49.502z"/>
	<path d="M43.212,45.713c0.18-0.19,0.29-0.45,0.29-0.71s-0.11-0.521-0.29-0.71c-0.37-0.37-1.05-0.37-1.42,0
		c-0.18,0.189-0.29,0.45-0.29,0.71s0.11,0.52,0.29,0.71c0.19,0.18,0.45,0.29,0.71,0.29C42.761,46.003,43.022,45.893,43.212,45.713z"
		/>
	<path d="M42.502,43.003c0.26,0,0.52-0.101,0.71-0.29c0.18-0.19,0.29-0.44,0.29-0.71c0-0.26-0.11-0.521-0.29-0.71
		c-0.38-0.37-1.04-0.37-1.42,0c-0.19,0.189-0.29,0.439-0.29,0.71c0,0.27,0.11,0.52,0.29,0.71
		C41.982,42.903,42.241,43.003,42.502,43.003z"/>
	<path d="M44.792,41.293c-0.19,0.189-0.29,0.439-0.29,0.71c0,0.27,0.11,0.52,0.29,0.71c0.19,0.189,0.45,0.29,0.71,0.29
		c0.26,0,0.52-0.101,0.71-0.29c0.18-0.19,0.29-0.44,0.29-0.71c0-0.271-0.1-0.521-0.29-0.71
		C45.831,40.923,45.172,40.923,44.792,41.293z"/>
	<path d="M44.801,44.293c-0.19,0.189-0.3,0.439-0.3,0.71c0,0.27,0.11,0.52,0.29,0.71c0.19,0.18,0.45,0.29,0.71,0.29
		c0.26,0,0.52-0.11,0.71-0.29c0.18-0.19,0.29-0.45,0.29-0.71s-0.11-0.521-0.29-0.71C45.841,43.923,45.161,43.923,44.801,44.293z"/>
	<path d="M42.792,47.293c-0.18,0.189-0.29,0.45-0.29,0.71s0.11,0.52,0.29,0.71c0.19,0.189,0.45,0.29,0.71,0.29
		c0.26,0,0.52-0.11,0.7-0.29c0.19-0.19,0.3-0.44,0.3-0.71c0-0.271-0.1-0.521-0.29-0.71C43.841,46.923,43.172,46.923,42.792,47.293z"
		/>
	<path d="M39.792,47.293c-0.18,0.189-0.29,0.45-0.29,0.71s0.11,0.52,0.29,0.71c0.19,0.18,0.45,0.29,0.71,0.29
		c0.26,0,0.52-0.11,0.71-0.29c0.18-0.19,0.29-0.45,0.29-0.71s-0.11-0.521-0.29-0.71C40.841,46.923,40.161,46.923,39.792,47.293z"/>
	<path d="M40.212,45.713c0.18-0.19,0.29-0.45,0.29-0.71s-0.11-0.521-0.29-0.71c-0.37-0.37-1.05-0.37-1.42,0
		c-0.18,0.189-0.29,0.45-0.29,0.71s0.11,0.52,0.29,0.71c0.19,0.18,0.45,0.29,0.71,0.29C39.761,46.003,40.022,45.893,40.212,45.713z"
		/>
	<path d="M36.801,47.293c-0.2,0.189-0.3,0.439-0.3,0.71c0,0.27,0.11,0.52,0.29,0.71c0.19,0.18,0.45,0.29,0.71,0.29
		c0.26,0,0.52-0.101,0.71-0.29c0.18-0.19,0.29-0.45,0.29-0.71s-0.11-0.521-0.29-0.71C37.831,46.923,37.161,46.933,36.801,47.293z"/>
	<path d="M33.792,47.293c-0.18,0.189-0.29,0.45-0.29,0.71s0.11,0.52,0.29,0.71c0.19,0.189,0.45,0.29,0.71,0.29
		c0.26,0,0.52-0.11,0.71-0.29c0.18-0.19,0.29-0.45,0.29-0.71s-0.11-0.521-0.29-0.71C34.841,46.923,34.161,46.923,33.792,47.293z"/>
	<path d="M30.792,47.293c-0.18,0.189-0.29,0.45-0.29,0.71s0.11,0.52,0.29,0.71c0.19,0.18,0.45,0.29,0.71,0.29
		c0.26,0,0.52-0.11,0.71-0.29c0.18-0.19,0.29-0.45,0.29-0.71s-0.11-0.521-0.29-0.71C31.841,46.923,31.161,46.923,30.792,47.293z"/>
	<path d="M14.212,44.293c-0.38-0.38-1.04-0.37-1.42,0c-0.18,0.189-0.29,0.45-0.29,0.71s0.11,0.52,0.29,0.71
		c0.19,0.18,0.45,0.29,0.71,0.29c0.26,0,0.52-0.11,0.71-0.29c0.18-0.19,0.29-0.45,0.29-0.71S14.391,44.483,14.212,44.293z"/>
	<path d="M13.502,43.003c0.26,0,0.52-0.11,0.71-0.29c0.18-0.19,0.29-0.45,0.29-0.71s-0.11-0.521-0.29-0.71
		c-0.37-0.37-1.05-0.37-1.42,0c-0.18,0.189-0.29,0.45-0.29,0.71s0.11,0.52,0.29,0.71C12.982,42.893,13.241,43.003,13.502,43.003z"/>
	<path d="M10.502,43.003c0.26,0,0.52-0.11,0.71-0.29c0.18-0.19,0.29-0.45,0.29-0.71s-0.11-0.521-0.29-0.71
		c-0.37-0.37-1.05-0.37-1.42,0c-0.18,0.189-0.29,0.45-0.29,0.71s0.11,0.52,0.29,0.71C9.982,42.893,10.241,43.003,10.502,43.003z"/>
	<path d="M11.212,44.293c-0.37-0.37-1.05-0.37-1.42,0c-0.18,0.189-0.29,0.45-0.29,0.71s0.11,0.52,0.29,0.71
		c0.19,0.18,0.45,0.29,0.71,0.29c0.26,0,0.52-0.11,0.71-0.29c0.18-0.19,0.29-0.45,0.29-0.71S11.391,44.483,11.212,44.293z"/>
	<path d="M11.801,47.293c-0.2,0.189-0.3,0.439-0.3,0.71c0,0.27,0.11,0.52,0.29,0.71c0.19,0.18,0.45,0.29,0.71,0.29
		c0.26,0,0.52-0.101,0.71-0.29c0.18-0.19,0.29-0.45,0.29-0.71s-0.11-0.521-0.29-0.71C12.831,46.923,12.161,46.933,11.801,47.293z"/>
	<path d="M14.792,47.293c-0.18,0.189-0.29,0.45-0.29,0.71s0.11,0.52,0.29,0.71c0.19,0.189,0.45,0.29,0.71,0.29
		c0.26,0,0.52-0.11,0.71-0.29c0.18-0.19,0.29-0.45,0.29-0.71s-0.11-0.521-0.29-0.71C15.841,46.923,15.161,46.923,14.792,47.293z"/>
	<path d="M17.212,44.293c-0.37-0.37-1.05-0.37-1.42,0c-0.18,0.189-0.29,0.45-0.29,0.71s0.11,0.52,0.29,0.71
		c0.19,0.18,0.45,0.29,0.71,0.29c0.26,0,0.52-0.11,0.7-0.29c0.19-0.19,0.3-0.44,0.3-0.71C17.502,44.733,17.391,44.483,17.212,44.293
		z"/>
	<path d="M17.792,47.293c-0.18,0.189-0.29,0.45-0.29,0.71s0.11,0.52,0.29,0.71c0.19,0.189,0.45,0.29,0.71,0.29
		c0.26,0,0.52-0.11,0.7-0.29c0.19-0.19,0.3-0.44,0.3-0.71c0-0.271-0.1-0.521-0.29-0.71C18.841,46.923,18.172,46.923,17.792,47.293z"
		/>
	<path d="M21.801,47.293c-0.2,0.189-0.3,0.439-0.3,0.71c0,0.27,0.11,0.52,0.29,0.71c0.19,0.18,0.45,0.29,0.71,0.29
		c0.26,0,0.52-0.101,0.71-0.29c0.18-0.19,0.29-0.45,0.29-0.71s-0.11-0.521-0.29-0.71C22.831,46.923,22.161,46.933,21.801,47.293z"/>
	<path d="M24.792,47.293c-0.18,0.189-0.29,0.45-0.29,0.71s0.11,0.52,0.29,0.71c0.19,0.18,0.45,0.29,0.71,0.29
		c0.26,0,0.52-0.11,0.71-0.29c0.18-0.19,0.29-0.45,0.29-0.71s-0.11-0.521-0.29-0.71C25.841,46.923,25.161,46.923,24.792,47.293z"/>
	<path d="M27.792,47.293c-0.18,0.189-0.29,0.45-0.29,0.71s0.11,0.52,0.29,0.71c0.19,0.189,0.45,0.29,0.71,0.29
		c0.26,0,0.52-0.11,0.7-0.29c0.19-0.19,0.3-0.44,0.3-0.71c0-0.271-0.1-0.521-0.29-0.71C28.841,46.923,28.172,46.923,27.792,47.293z"
		/>
	<path d="M35.041,36.16c-0.287-0.183-0.649-0.207-0.958-0.065l-13,6c-0.427,0.197-0.659,0.664-0.558,1.123
		c0.101,0.458,0.507,0.785,0.977,0.785h13c0.552,0,1-0.447,1-1v-6C35.502,36.662,35.328,36.345,35.041,36.16z M33.502,42.003h-7.447
		l7.447-3.438V42.003z"/>
</g>
<g>
</g>
<g>
</g>
<g>
</g>
<g>
</g>
<g>
</g>
<g>
</g>
<g>
</g>
<g>
</g>
<g>
</g>
<g>
</g>
<g>
</g>
<g>
</g>
<g>
</g>
<g>
</g>
<g>
</g>
</svg>
