<?xml version="1.0" encoding="iso-8859-1"?>
<!-- Generator: Adobe Illustrator 16.0.0, SVG Export Plug-In . SVG Version: 6.00 Build 0)  -->
<!DOCTYPE svg PUBLIC "-//W3C//DTD SVG 1.1//EN" "http://www.w3.org/Graphics/SVG/1.1/DTD/svg11.dtd">
<svg version="1.1" id="Capa_1" xmlns="http://www.w3.org/2000/svg" xmlns:xlink="http://www.w3.org/1999/xlink" x="0px" y="0px"
	 width="165.993px" height="165.992px" viewBox="0 0 165.993 165.992" style="enable-background:new 0 0 165.993 165.992;"
	 xml:space="preserve">
<g>
	<g>
		<path d="M60.644,165.992c18.884,0,37.47-8.886,49.098-25.508c12.487-17.877,15.915-39.371,11.359-59.11
			c0.137-0.551,0.152-1.142-0.09-1.703c-7.726-18.186,0.364-39.084,18.03-46.58c1.371-0.583,2.014-2.17,1.429-3.541
			c-0.564-1.371-2.157-1.999-3.522-1.432c-13.69,5.811-22.392,18.565-23.968,32.653c-5.189-8.941-12.261-16.954-21.252-23.29
			c3.696-4.385,7.614-10.125,0.284-18.613C88.859,15.219,83.238,14.288,80.361,0c0,0-6.972,5.79-7.341,15.894
			c-6.75-5.363-13.191-2.998-17.402-10.916c0,0-8.337,15.641,7.214,23.907c-10.017,2.431-14.289,10.687-14.289,10.687
			c14.579-0.258,16.696,5.034,20.936,7.322c10.589,5.735,15.298-0.501,18.868-5.255c0.026,0.016,0.037,0.051,0.063,0.071
			c26.046,18.226,35.496,51.355,25.055,79.885c0.227-11.011-3.935-21.853-12.066-29.721c1.54-5.469,2.188-15.646-14.85-14.993
			C83.206,77,75.916,77.604,69.113,74.002c0,0,11.436,36.308,29.249,22.491c11.67,11.981,13.184,31.335,2.727,45.7
			c-0.18,0.253-0.296,0.548-0.369,0.833c-18.151,19.712-48.6,23.53-71.179,7.757c-1.21-0.849-2.895-0.559-3.747,0.659
			c-0.854,1.234-0.562,2.911,0.667,3.766C36.863,162.506,48.807,165.992,60.644,165.992z"/>
	</g>
</g>
<g>
</g>
<g>
</g>
<g>
</g>
<g>
</g>
<g>
</g>
<g>
</g>
<g>
</g>
<g>
</g>
<g>
</g>
<g>
</g>
<g>
</g>
<g>
</g>
<g>
</g>
<g>
</g>
<g>
</g>
</svg>
