<?xml version="1.0" encoding="iso-8859-1"?>
<!-- Generator: Adobe Illustrator 18.0.0, SVG Export Plug-In . SVG Version: 6.00 Build 0)  -->
<!DOCTYPE svg PUBLIC "-//W3C//DTD SVG 1.1//EN" "http://www.w3.org/Graphics/SVG/1.1/DTD/svg11.dtd">
<svg version="1.1" id="Capa_1" xmlns="http://www.w3.org/2000/svg" xmlns:xlink="http://www.w3.org/1999/xlink" x="0px" y="0px"
	 viewBox="0 0 44 44" style="enable-background:new 0 0 44 44;" xml:space="preserve">
<g>
	<path d="M22,0C9.869,0,0,9.869,0,22s9.869,22,22,22s22-9.869,22-22S34.131,0,22,0z M22,42C10.972,42,2,33.028,2,22S10.972,2,22,2
		s20,8.972,20,20S33.028,42,22,42z"/>
	<path d="M22,23c-6.617,0-12,5.383-12,12c0,0.552,0.447,1,1,1s1-0.448,1-1c0-5.514,4.486-10,10-10s10,4.486,10,10
		c0,0.552,0.447,1,1,1s1-0.448,1-1C34,28.383,28.617,23,22,23z"/>
	<path d="M17.219,15.625C17.417,15.872,17.707,16,18.001,16c0.219,0,0.439-0.072,0.624-0.219c0.431-0.345,0.501-0.974,0.156-1.405
		l-4-5c-0.347-0.43-0.974-0.502-1.406-0.156c-0.431,0.345-0.501,0.974-0.156,1.405L17.219,15.625z"/>
	<path d="M25.999,16c0.294,0,0.584-0.128,0.782-0.375l4-5c0.345-0.431,0.274-1.061-0.156-1.405c-0.432-0.345-1.06-0.274-1.406,0.156
		l-4,5c-0.345,0.431-0.274,1.061,0.156,1.405C25.56,15.928,25.78,16,25.999,16z"/>
</g>
<g>
</g>
<g>
</g>
<g>
</g>
<g>
</g>
<g>
</g>
<g>
</g>
<g>
</g>
<g>
</g>
<g>
</g>
<g>
</g>
<g>
</g>
<g>
</g>
<g>
</g>
<g>
</g>
<g>
</g>
</svg>
