<?xml version='1.0' encoding='iso-8859-1'?>
<svg version="1.1" xmlns="http://www.w3.org/2000/svg" viewBox="0 0 315.896 315.896" xmlns:xlink="http://www.w3.org/1999/xlink" enable-background="new 0 0 315.896 315.896">
  <g>
    <g>
      <path d="m207.71,177.484l-43.135-2.255v29.802c36.901,0 7.056,0 20.528,0l-23.283,50.542c-3.42,7.546-0.076,16.434 7.469,19.855 7.572,3.429 16.446,0.053 19.855-7.469l31.417-69.305c2.045-4.512 1.73-9.742-0.839-13.977-2.571-4.233-7.066-6.926-12.012-7.193z"/>
      <path d="m100.47,175.134v7.849l-55.753,104.519c-3.9,7.31-1.135,16.395 6.175,20.294 7.3,3.897 16.392,1.141 20.294-6.175l49.389-92.59c0-14.08 0-19.876 0-33.802-19.908,2.84217e-14-18.671,0.035-20.105-0.095z"/>
      <path d="m60.426,104.282l40.044,5.419v21.622c1.515-0.138-3.295-0.095 66.21-0.095v-20.158l48.067-38.78c1.189-0.959 2.192-2.128 2.96-3.449l24.342-41.898c3.468-5.969 1.44-13.619-4.529-17.088-5.968-3.467-13.619-1.44-17.088,4.529l-23.181,39.899-40.295,32.51h-39.432c-0.079-0.012-0.154-0.033-0.233-0.043l-44.723-6.053-9.553-46.645c-1.386-6.765-7.994-11.124-14.754-9.738-6.763,1.387-11.122,7.993-9.737,14.756l11.333,55.334c1.066,5.205 5.305,9.167 10.569,9.878z"/>
      <circle cx="133.575" cy="51.075" r="25.907"/>
      <path d="m277.374,8.89c-0.615-5.489-5.55-9.44-11.05-8.827-5.488,0.614-9.44,5.561-8.827,11.05 0.085,0.758 6.543,69.121-79.072,122.4 6.218,3.086 10.776,9.026 11.952,16.097 43.896-27.735 65.217-59.212 75.55-82.72 14.133-32.151 11.563-56.959 11.447-58z"/>
      <path d="m178.68,153.229c0-5.523-4.478-10-10-10h-26.104-40.106c-5.523,0-10,4.477-10,10 0,5.522 4.477,10 10,10h30.105v142.667c0,5.522 4.478,10 10,10s10-4.478 10-10v-142.667h16.104c5.523,0 10.001-4.478 10.001-10z"/>
    </g>
  </g>
</svg>
