<?xml version="1.0" encoding="iso-8859-1"?>
<!-- Generator: Adobe Illustrator 16.0.0, SVG Export Plug-In . SVG Version: 6.00 Build 0)  -->
<!DOCTYPE svg PUBLIC "-//W3C//DTD SVG 1.1//EN" "http://www.w3.org/Graphics/SVG/1.1/DTD/svg11.dtd">
<svg version="1.1" id="Capa_1" xmlns="http://www.w3.org/2000/svg" xmlns:xlink="http://www.w3.org/1999/xlink" x="0px" y="0px"
	 width="378.767px" height="378.767px" viewBox="0 0 378.767 378.767" style="enable-background:new 0 0 378.767 378.767;"
	 xml:space="preserve">
<g>
	<g>
		<path d="M81.921,93.373c0.021,17.812,20.417,50.541,21.528,52.327c1.438,2.638,3.529,3.339,4.488,3.585
			c25.165,6.443,58.05,13.644,79.34,13.644c24.707,0,57.044-7.268,82.686-13.429c1.135-0.273,2.396-0.64,3.076-1.828
			c0.223-0.388,23.799-36.526,23.812-54.298c0.007-8.875-8.259-30.163-10.921-40.885c-4.898-19.728-2.19-44.714-2.19-44.714
			C284.203,3.499,281.062,0,276.761,0H254.49c-4.303,0-9.856,2.872-12.344,6.382c0,0-44.153,57.94-54.869,57.94
			c-14.704,0-54.87-57.94-54.87-57.94C129.92,2.872,124.366,0,120.064,0H98.577c-4.302,0-7.442,3.499-6.979,7.775
			c0,0,6.357,26.211,1.458,45.939C89.973,66.136,81.91,84.498,81.921,93.373z"/>
		<path d="M341.482,349.429l-58.525-177.126c-2.021-3.763-5.84-2.739-6.871-2.475c-26.773,6.879-61.374,14.264-88.81,14.264
			c-23.191,0-57.289-7.335-83.444-13.988c-1.881-0.479-5.359,0.521-6.802,5.57L37.284,349.428c-0.55,2.585,0.254,4.883,1.925,6.326
			c9.231,12.971,72.943,23.013,150.174,23.013c77.229,0,140.943-10.042,150.173-23.013
			C341.229,354.312,342.033,352.014,341.482,349.429z"/>
	</g>
</g>
<g>
</g>
<g>
</g>
<g>
</g>
<g>
</g>
<g>
</g>
<g>
</g>
<g>
</g>
<g>
</g>
<g>
</g>
<g>
</g>
<g>
</g>
<g>
</g>
<g>
</g>
<g>
</g>
<g>
</g>
</svg>
