<?xml version="1.0" encoding="iso-8859-1"?>
<!-- Generator: Adobe Illustrator 19.0.0, SVG Export Plug-In . SVG Version: 6.00 Build 0)  -->
<svg version="1.1" id="Capa_1" xmlns="http://www.w3.org/2000/svg" xmlns:xlink="http://www.w3.org/1999/xlink" x="0px" y="0px"
	 viewBox="0 0 463 463" style="enable-background:new 0 0 463 463;" xml:space="preserve">
<g>
	<path d="M439.5,72h-46.783L375,66.094V63.5c0-8.547-6.953-15.5-15.5-15.5h-16c-8.547,0-15.5,6.953-15.5,15.5V72h-17V55.5
		c0-4.142-3.358-7.5-7.5-7.5h-104C182.131,48,168,62.131,168,79.5c0,13.023,7.944,24.226,19.241,29.017l42.701,90.146L111,192.385
		V63h0.5c8.547,0,15.5-6.953,15.5-15.5v-16c0-8.547-6.953-15.5-15.5-15.5H31V7.5C31,3.358,27.642,0,23.5,0S16,3.358,16,7.5v64
		c0,4.142,3.358,7.5,7.5,7.5s7.5-3.358,7.5-7.5V63h17v337H31v-8.5c0-4.142-3.358-7.5-7.5-7.5s-7.5,3.358-7.5,7.5v64
		c0,4.142,3.358,7.5,7.5,7.5s7.5-3.358,7.5-7.5V447h80.5c8.547,0,15.5-6.953,15.5-15.5v-16c0-8.547-6.953-15.5-15.5-15.5H111
		V270.615l137.215-7.235c6.534,4.786,14.583,7.62,23.285,7.62c21.78,0,39.5-17.72,39.5-39.5c0-19.164-13.72-35.178-31.852-38.75
		L240.424,111H303.5c4.142,0,7.5-3.358,7.5-7.5V87h17v8.5c0,8.547,6.953,15.5,15.5,15.5h16c8.547,0,15.5-6.953,15.5-15.5v-2.594
		L392.717,87H439.5c4.142,0,7.5-3.358,7.5-7.5S443.642,72,439.5,72z M228.484,96c-0.083,0.001-0.166-0.004-0.25,0h-1.915
		C229.284,91.198,231,85.546,231,79.5s-1.716-11.698-4.681-16.5H264v33H228.484z M199.5,63c9.098,0,16.5,7.402,16.5,16.5
		S208.598,96,199.5,96S183,88.598,183,79.5S190.402,63,199.5,63z M112,31.5v16c0,0.276-0.224,0.5-0.5,0.5h-8H87V31h24.5
		C111.776,31,112,31.224,112,31.5z M31,31h41v17H55.5H31V31z M31,415h24.5H72v17H31V415z M112,415.5v16c0,0.276-0.224,0.5-0.5,0.5
		H87v-17h16.5h8C111.776,415,112,415.224,112,415.5z M63,400V63h33v337H63z M111,207.406l125.097,6.602
		C233.479,219.285,232,225.222,232,231.5c0,6.281,1.481,12.22,4.1,17.498L111,255.594V207.406z M296,231.5
		c0,13.509-10.991,24.5-24.5,24.5S247,245.009,247,231.5s10.991-24.5,24.5-24.5S296,217.991,296,231.5z M262.672,193.007
		c-5.315,1.219-10.224,3.507-14.486,6.634c-0.096-0.009-0.19-0.025-0.288-0.03l-0.934-0.049L205.015,111h18.812L262.672,193.007z
		 M296,96h-17V63h17V96z M359.5,96h-16c-0.276,0-0.5-0.224-0.5-0.5v-32c0-0.276,0.224-0.5,0.5-0.5h16c0.276,0,0.5,0.224,0.5,0.5
		v7.844c0,0.008,0,0.016,0,0.024v16.265c0,0.008,0,0.016,0,0.024V95.5C360,95.776,359.776,96,359.5,96z"/>
	<path d="M264,231.5c0,4.142,3.358,7.5,7.5,7.5h0.08c4.142,0,7.46-3.358,7.46-7.5s-3.398-7.5-7.54-7.5S264,227.358,264,231.5z"/>
</g>
<g>
</g>
<g>
</g>
<g>
</g>
<g>
</g>
<g>
</g>
<g>
</g>
<g>
</g>
<g>
</g>
<g>
</g>
<g>
</g>
<g>
</g>
<g>
</g>
<g>
</g>
<g>
</g>
<g>
</g>
</svg>
