<?xml version="1.0" encoding="iso-8859-1"?>
<!-- Generator: Adobe Illustrator 18.1.1, SVG Export Plug-In . SVG Version: 6.00 Build 0)  -->
<svg version="1.1" id="Capa_1" xmlns="http://www.w3.org/2000/svg" xmlns:xlink="http://www.w3.org/1999/xlink" x="0px" y="0px"
	 viewBox="0 0 55.193 55.193" style="enable-background:new 0 0 55.193 55.193;" xml:space="preserve">
<g>
	<path style="fill:#030104;" d="M52.59,0.016c-0.091,0.015-8.775,1.777-6.857,13.441c0.697,4.25,0.333,7.447-0.327,9.738
		c-0.153,0.529-0.474,0.533-0.7,0.031C41.145,15.372,33.239,9.894,24.07,9.894c-12.488,0-22.649,10.16-22.649,22.647
		c0,5.537,2,10.611,5.311,14.551c3.359,3.988,8.047,6.8,13.371,7.744c0.543,0.097,0.999,0.166,1.014,0.183
		c0.014,0.014,0.035,0.019,0.048,0.006c0.013-0.015,0.467,0.037,1.017,0.084c0.623,0.056,1.253,0.084,1.89,0.084
		c12.489,0,22.649-10.162,22.649-22.649c0-1.566-0.162-3.095-0.467-4.572c-0.111-0.541-0.004-1.365,0.229-1.865
		c1.188-2.562,2.243-6.771,1.224-12.973c-1.592-9.684,4.975-11.098,5.249-11.15c0.543-0.102,0.9-0.625,0.8-1.168
		C53.654,0.274,53.14-0.082,52.59,0.016z M33.746,13.964c0.852,0.445,1.667,0.943,2.443,1.496c0.449,0.32,0.49,0.922,0.097,1.309
		c-0.396,0.389-0.797,0.768-1.204,1.137c-0.408,0.371-0.988,0.283-1.217-0.219c-0.346-0.756-0.695-1.799-0.9-3.17
		C32.883,13.97,33.258,13.71,33.746,13.964z M27.723,12.922c0.083-0.545,0.632-0.901,1.169-0.774c0.32,0.076,0.637,0.16,0.95,0.25
		c0.53,0.154,0.969,0.75,1.016,1.299c0.209,2.43,0.828,4.154,1.415,5.289c0.254,0.49,0.153,1.139-0.286,1.471
		c-0.449,0.338-0.9,0.664-1.355,0.981c-0.453,0.316-1.076,0.189-1.343-0.295C28.345,19.436,27.176,16.473,27.723,12.922z
		 M22.186,12.655c0.048-0.551,0.504-1.031,0.994-1.059c0.294-0.016,0.59-0.025,0.888-0.025c0.312,0,0.622,0.01,0.929,0.025
		c0.515,0.029,0.825,0.505,0.741,1.05c-0.643,4.18,0.742,7.613,1.855,9.576c0.272,0.481,0.139,1.086-0.339,1.365
		c-0.483,0.281-0.97,0.555-1.455,0.818c-0.485,0.262-1.127,0.092-1.392-0.395C23.307,21.992,21.724,18.047,22.186,12.655z
		 M17.976,12.497c0.426-0.131,0.857-0.25,1.295-0.353c0.537-0.129,0.929,0.238,0.891,0.789c-0.39,5.629,1.227,9.746,2.442,11.973
		c0.265,0.486,0.101,1.057-0.403,1.283c-0.533,0.24-1.063,0.469-1.591,0.688c-0.51,0.212-1.122-0.026-1.338-0.536l0,0
		c-0.963-2.266-2.424-6.709-2.284-12.529C17.002,13.261,17.448,12.66,17.976,12.497z M12.365,15.179
		c0.559-0.379,1.138-0.73,1.734-1.055c0.485-0.264,0.877-0.01,0.877,0.543c0.008,5.695,1.42,10.033,2.42,12.389
		c0.216,0.508-0.01,1.065-0.532,1.244c-0.554,0.191-1.1,0.371-1.637,0.541c-0.526,0.166-1.221-0.067-1.488-0.552
		c-0.939-1.693-2.278-5.226-2.21-11.531C11.535,16.205,11.907,15.488,12.365,15.179z M7.357,19.9
		c0.459-0.602,0.95-1.178,1.471-1.729c0.379-0.4,0.704-0.261,0.721,0.292c0.154,5.195,1.251,8.475,2.215,10.377
		c0.249,0.492,0.055,0.988-0.482,1.123c-0.548,0.137-1.079,0.264-1.59,0.379c-0.538,0.123-1.249-0.146-1.476-0.649
		c-0.982-2.184-1.305-6.137-1.404-7.984C6.783,21.158,7.022,20.34,7.357,19.9z M4.69,24.589c0.21-0.512,0.415-0.467,0.458,0.084
		c0.176,2.293,0.668,4.087,1.148,5.356c0.195,0.517-0.055,1.004-0.601,1.093c-0.589,0.096-1.108,0.17-1.551,0.229
		c-0.547,0.071-0.971-0.326-0.918-0.877C3.429,28.41,3.93,26.435,4.69,24.589z M3.664,37.301c-0.213-0.916-0.363-1.856-0.45-2.813
		c-0.05-0.551,0.378-1.041,0.925-1.106c5.164-0.627,21.761-3.496,33.653-15.285c0.394-0.389,0.606-0.805,0.489-0.918
		c-0.118-0.113,0.121,0.092,0.514,0.479c0.618,0.609,1.198,1.256,1.736,1.938c0.343,0.433,0.332,1.157-0.014,1.587
		C29.634,34.734,10.822,37.607,4.908,38.185C4.359,38.238,3.788,37.84,3.664,37.301z M6.722,44.275
		c-0.669-0.983-1.258-2.026-1.754-3.121c-0.228-0.502,0.056-0.955,0.605-1.01c6.594-0.654,24.837-3.668,36.073-17.188
		c0.354-0.424,0.854-0.391,1.105,0.1c0.377,0.734,0.715,1.492,1.006,2.273c0.19,0.518,0.071,1.316-0.25,1.766
		C36.633,36.644,26.531,41.131,18.65,43.24c-0.533,0.142-1.049,0.25-1.148,0.25c-0.101,0-0.182,0.021-0.181,0.043
		c0.001,0.025-0.434,0.15-0.973,0.271c-3.505,0.786-6.38,1.1-8.047,1.223C7.75,45.068,7.032,44.732,6.722,44.275z M13.037,50.362
		c-1.236-0.771-2.384-1.668-3.431-2.67c-0.399-0.382-0.259-0.745,0.29-0.804c0.482-0.05,1.012-0.111,1.584-0.189
		c0.548-0.071,1.057,0.304,1.178,0.843c0.21,0.928,0.49,1.735,0.797,2.432C13.68,50.477,13.506,50.653,13.037,50.362z
		 M18.761,52.823c-0.387-0.104-0.768-0.219-1.145-0.346c-0.523-0.173-1.208-0.696-1.479-1.18c-0.458-0.812-1.107-2.198-1.514-4.086
		c-0.116-0.539,0.261-1.063,0.802-1.174c0.336-0.067,0.68-0.141,1.028-0.217c0.539-0.119,1.017,0.223,1.097,0.77
		c0.341,2.345,1.025,4.209,1.709,5.586C19.505,52.67,19.294,52.967,18.761,52.823z M25.493,53.46
		c-0.471,0.035-0.945,0.057-1.425,0.057c-0.282,0-0.562-0.01-0.842-0.025c-0.463-0.029-1.121-0.408-1.42-0.873
		c-0.767-1.185-1.883-3.373-2.307-6.523c-0.074-0.549,0.324-1.111,0.854-1.266c0.669-0.193,1.351-0.404,2.042-0.634
		c0.525-0.172,1.023,0.119,1.131,0.662c0.738,3.72,1.667,6.123,2.464,7.64C26.247,52.984,26.044,53.419,25.493,53.46z
		 M31.623,52.092c-0.643,0.25-1.301,0.467-1.974,0.652c-0.532,0.147-1.252-0.106-1.538-0.58c-0.744-1.232-1.843-3.65-2.68-8.017
		c-0.104-0.541,0.237-1.146,0.748-1.354c0.686-0.283,1.375-0.584,2.066-0.904c0.502-0.232,0.944,0.016,1.012,0.564
		c0.542,4.375,1.689,6.973,2.688,8.459C32.254,51.37,32.138,51.892,31.623,52.092z M37.388,48.702
		c-0.672,0.557-1.379,1.073-2.116,1.545c-0.466,0.297-1.181,0.202-1.503-0.244c-0.875-1.217-2.123-3.732-2.613-8.535
		c-0.057-0.549,0.307-1.209,0.785-1.483c0.484-0.276,0.969-0.563,1.449-0.862c0.471-0.291,0.853-0.091,0.901,0.461
		c0.332,3.643,1.921,6.217,3.181,7.723C37.827,47.727,37.814,48.35,37.388,48.702z M41.792,43.713
		c-0.479,0.754-1.007,1.476-1.575,2.16c-0.353,0.424-0.972,0.437-1.318,0.006c-1.176-1.455-2.672-4.028-2.674-7.696
		c0-0.552,0.395-1.267,0.83-1.606c0.51-0.396,1.017-0.807,1.519-1.234c0.421-0.356,0.769-0.209,0.821,0.343
		c0.306,3.144,1.393,5.209,2.273,6.401C41.996,42.532,42.088,43.247,41.792,43.713z M43.663,39.995
		c-0.196,0.516-0.651,0.567-0.925,0.088c-0.727-1.273-1.464-3.316-1.432-6.324c0.006-0.553,0.353-1.318,0.729-1.723
		c0.6-0.646,1.186-1.314,1.753-2.017c0.349-0.429,0.688-0.854,0.771-0.94c0.082-0.089,0.227,0.28,0.3,0.827
		c0.114,0.863,0.183,1.742,0.183,2.638C45.041,35.169,44.551,37.676,43.663,39.995z"/>
</g>
<g>
</g>
<g>
</g>
<g>
</g>
<g>
</g>
<g>
</g>
<g>
</g>
<g>
</g>
<g>
</g>
<g>
</g>
<g>
</g>
<g>
</g>
<g>
</g>
<g>
</g>
<g>
</g>
<g>
</g>
</svg>
