<?xml version="1.0" encoding="iso-8859-1"?>
<!-- Generator: Adobe Illustrator 19.0.0, SVG Export Plug-In . SVG Version: 6.00 Build 0)  -->
<svg version="1.1" id="Capa_1" xmlns="http://www.w3.org/2000/svg" xmlns:xlink="http://www.w3.org/1999/xlink" x="0px" y="0px"
	 viewBox="0 0 48 48" style="enable-background:new 0 0 48 48;" xml:space="preserve">
<g>
	<g>
		<path d="M40.4,5.5H35.6c-1.434,0-2.6,1.166-2.6,2.6V12.9c0,1.434,1.166,2.6,2.6,2.6H40.4c1.434,0,2.6-1.166,2.6-2.6V8.1
			C43,6.666,41.834,5.5,40.4,5.5z M41,12.9c0,0.331-0.269,0.6-0.6,0.6H35.6c-0.331,0-0.6-0.269-0.6-0.6V8.1
			c0-0.331,0.269-0.6,0.6-0.6H40.4c0.331,0,0.6,0.269,0.6,0.6V12.9z"/>
		<path d="M37.8,0.5H10.2C4.576,0.5,0,5.089,0,10.731V17.5v2v17.77C0,42.911,4.576,47.5,10.2,47.5h27.6
			c5.624,0,10.2-4.589,10.2-10.23V19.5v-2v-6.769C48,5.089,43.424,0.5,37.8,0.5z M46,37.27c0,4.538-3.679,8.23-8.2,8.23H10.2
			c-4.522,0-8.2-3.692-8.2-8.23V19.5h12.221C11.62,22.043,10,25.584,10,29.5c0,7.72,6.28,14,14,14s14-6.28,14-14
			c0-3.916-1.62-7.457-4.221-10H46V37.27z M36,29.5c0,6.617-5.383,12-12,12s-12-5.383-12-12s5.383-12,12-12S36,22.883,36,29.5z
			 M31.174,17.5c-2.101-1.261-4.55-2-7.174-2s-5.073,0.739-7.174,2H2v-6.769C2,6.192,5.679,2.5,10.2,2.5h27.6
			c4.521,0,8.2,3.692,8.2,8.231V17.5H31.174z"/>
		<path d="M15,29.5c0,4.962,4.037,9,9,9s9-4.038,9-9s-4.037-9-9-9S15,24.538,15,29.5z M31,29.5c0,3.86-3.141,7-7,7s-7-3.14-7-7
			s3.141-7,7-7S31,25.64,31,29.5z"/>
	</g>
</g>
<g>
</g>
<g>
</g>
<g>
</g>
<g>
</g>
<g>
</g>
<g>
</g>
<g>
</g>
<g>
</g>
<g>
</g>
<g>
</g>
<g>
</g>
<g>
</g>
<g>
</g>
<g>
</g>
<g>
</g>
</svg>
