<?xml version="1.0" encoding="iso-8859-1"?>
<!-- Generator: Adobe Illustrator 19.0.0, SVG Export Plug-In . SVG Version: 6.00 Build 0)  -->
<svg version="1.1" id="Layer_1" xmlns="http://www.w3.org/2000/svg" xmlns:xlink="http://www.w3.org/1999/xlink" x="0px" y="0px"
	 viewBox="0 0 512 512" style="enable-background:new 0 0 512 512;" xml:space="preserve">
<g>
	<g>
		<g>
			<path d="M179.2,238.933h153.6c4.719,0,8.533-3.823,8.533-8.533s-3.814-8.533-8.533-8.533h-11.793L307.2,194.253v-6.519
				c0-4.71-3.814-8.533-8.533-8.533s-8.533,3.823-8.533,8.533v8.533c0,1.323,0.307,2.637,0.896,3.814l10.897,21.786h-91.853
				l10.897-21.786c0.589-1.178,0.896-2.492,0.896-3.814v-8.533c0-4.71-3.814-8.533-8.533-8.533c-4.719,0-8.533,3.823-8.533,8.533
				v6.519l-13.807,27.614H179.2c-4.719,0-8.533,3.823-8.533,8.533S174.481,238.933,179.2,238.933z"/>
			<path d="M179.2,170.667h153.6c4.719,0,8.533-3.823,8.533-8.533c0-4.71-3.814-8.533-8.533-8.533h-11.793L307.2,125.986v-6.519
				c0-4.71-3.814-8.533-8.533-8.533s-8.533,3.823-8.533,8.533V128c0,1.323,0.307,2.637,0.896,3.814l10.897,21.786h-91.853
				l10.897-21.786c0.589-1.178,0.896-2.492,0.896-3.814v-8.533c0-4.71-3.814-8.533-8.533-8.533c-4.719,0-8.533,3.823-8.533,8.533
				v6.519L190.993,153.6H179.2c-4.719,0-8.533,3.823-8.533,8.533C170.667,166.844,174.481,170.667,179.2,170.667z"/>
			<path d="M247.467,196.267v8.533c0,4.71,3.814,8.533,8.533,8.533s8.533-3.823,8.533-8.533v-8.533c0-4.71-3.814-8.533-8.533-8.533
				S247.467,191.556,247.467,196.267z"/>
			<path d="M247.467,128v8.533c0,4.71,3.814,8.533,8.533,8.533s8.533-3.823,8.533-8.533V128c0-4.71-3.814-8.533-8.533-8.533
				S247.467,123.29,247.467,128z"/>
			<path d="M179.2,102.4h153.6c4.719,0,8.533-3.823,8.533-8.533c0-4.71-3.814-8.533-8.533-8.533h-29.739l-38.528-53.931V8.533
				C264.533,3.823,260.719,0,256,0s-8.533,3.823-8.533,8.533v22.869l-38.528,53.931H179.2c-4.719,0-8.533,3.823-8.533,8.533
				C170.667,98.577,174.481,102.4,179.2,102.4z M256,48.819l26.086,36.514h-52.173L256,48.819z"/>
			<path d="M179.2,307.2h153.6c4.719,0,8.533-3.823,8.533-8.533s-3.814-8.533-8.533-8.533h-11.793L307.2,262.519V256
				c0-4.71-3.814-8.533-8.533-8.533s-8.533,3.823-8.533,8.533v8.533c0,1.323,0.307,2.637,0.896,3.814l10.897,21.786h-91.853
				l10.897-21.786c0.589-1.178,0.896-2.492,0.896-3.814V256c0-4.71-3.814-8.533-8.533-8.533c-4.719,0-8.533,3.823-8.533,8.533v6.519
				l-13.807,27.614H179.2c-4.719,0-8.533,3.823-8.533,8.533S174.481,307.2,179.2,307.2z"/>
			<path d="M179.2,375.467h153.6c4.719,0,8.533-3.823,8.533-8.533s-3.814-8.533-8.533-8.533h-11.793L307.2,330.786v-6.519
				c0-4.71-3.814-8.533-8.533-8.533s-8.533,3.823-8.533,8.533v8.533c0,1.323,0.307,2.637,0.896,3.814l10.897,21.786h-91.853
				l10.897-21.786c0.589-1.178,0.896-2.492,0.896-3.814v-8.533c0-4.71-3.814-8.533-8.533-8.533c-4.719,0-8.533,3.823-8.533,8.533
				v6.519L190.993,358.4H179.2c-4.719,0-8.533,3.823-8.533,8.533S174.481,375.467,179.2,375.467z"/>
			<path d="M247.467,401.067v8.533c0,4.71,3.814,8.533,8.533,8.533s8.533-3.823,8.533-8.533v-8.533c0-4.71-3.814-8.533-8.533-8.533
				S247.467,396.356,247.467,401.067z"/>
			<path d="M247.467,332.8v8.533c0,4.71,3.814,8.533,8.533,8.533s8.533-3.823,8.533-8.533V332.8c0-4.71-3.814-8.533-8.533-8.533
				S247.467,328.09,247.467,332.8z"/>
			<path d="M503.467,494.933H358.4v-51.2h8.533c4.719,0,8.533-3.823,8.533-8.533s-3.814-8.533-8.533-8.533h-45.926L307.2,399.053
				v-6.519c0-4.71-3.814-8.533-8.533-8.533s-8.533,3.823-8.533,8.533v8.533c0,1.323,0.307,2.637,0.896,3.814l10.897,21.786h-91.853
				l10.897-21.786c0.589-1.178,0.896-2.492,0.896-3.814v-8.533c0-4.71-3.814-8.533-8.533-8.533c-4.719,0-8.533,3.823-8.533,8.533
				v6.519l-13.807,27.614h-45.926c-4.719,0-8.533,3.823-8.533,8.533s3.814,8.533,8.533,8.533h8.533v51.2H8.533
				c-4.719,0-8.533,3.823-8.533,8.533S3.814,512,8.533,512h494.933c4.719,0,8.533-3.823,8.533-8.533
				S508.186,494.933,503.467,494.933z M341.333,494.933H307.2v-17.067c0-4.71-3.814-8.533-8.533-8.533s-8.533,3.823-8.533,8.533
				v17.067h-25.6v-25.6c0-4.71-3.814-8.533-8.533-8.533s-8.533,3.823-8.533,8.533v25.6h-25.6v-17.067
				c0-4.71-3.814-8.533-8.533-8.533c-4.719,0-8.533,3.823-8.533,8.533v17.067h-34.133v-51.2h170.667V494.933z"/>
			<path d="M247.467,264.533v8.533c0,4.71,3.814,8.533,8.533,8.533s8.533-3.823,8.533-8.533v-8.533c0-4.71-3.814-8.533-8.533-8.533
				S247.467,259.823,247.467,264.533z"/>
		</g>
	</g>
</g>
<g>
</g>
<g>
</g>
<g>
</g>
<g>
</g>
<g>
</g>
<g>
</g>
<g>
</g>
<g>
</g>
<g>
</g>
<g>
</g>
<g>
</g>
<g>
</g>
<g>
</g>
<g>
</g>
<g>
</g>
</svg>
