<?xml version="1.0" encoding="iso-8859-1"?>
<!-- Generator: Adobe Illustrator 16.0.0, SVG Export Plug-In . SVG Version: 6.00 Build 0)  -->
<!DOCTYPE svg PUBLIC "-//W3C//DTD SVG 1.1//EN" "http://www.w3.org/Graphics/SVG/1.1/DTD/svg11.dtd">
<svg version="1.1" id="Capa_1" xmlns="http://www.w3.org/2000/svg" xmlns:xlink="http://www.w3.org/1999/xlink" x="0px" y="0px"
	 width="367.264px" height="367.264px" viewBox="0 0 367.264 367.264" style="enable-background:new 0 0 367.264 367.264;"
	 xml:space="preserve">
<g>
	<g>
		<g>
			<path d="M125.652,121.915c-2.417-6.508-8.949-10.185-15.59-10.185c-3.315,0-3.621,0.085-5.595,0.085H50.761
				c-1.975,0-3.73,0-5.598,0c-7.584,0-13.17,3.591-15.587,10.1L0.9,209.121c-2.732,7.358,0.96,15.561,8.245,18.32
				c7.286,2.76,15.407-0.969,18.14-8.326l7.624-20.527c0,0,0.544-2.07,0.544,6.967v121.039c0,10.582,8.494,19.16,18.973,19.16
				s18.973-8.578,18.973-19.16v-79.075c0,0-0.092-0.699,0.644-0.699c1.78,0,5.343,0,7.124,0c0.703,0,0.664,0.699,0.664,0.699v79.075
				c0,10.582,8.494,19.16,18.973,19.16s18.973-8.578,18.973-19.16V205.555c0-9.182,0.797-6.289,0.797-6.289l7.372,19.851
				c2.731,7.358,10.854,11.086,18.14,8.326c7.285-2.761,10.978-10.962,8.245-18.319L125.652,121.915z"/>
			<ellipse cx="77.991" cy="61.825" rx="40.736" ry="40.317"/>
		</g>
		<g>
			<circle cx="285.821" cy="61.599" r="40.736"/>
			<path d="M365.921,207.192l-34.758-84.667c-1.988-4.272-3.747-9.997-11.914-9.997c-3.017,0-6.008,0-9.463,0H267.25
				c-3.521,0-5.351,0-9.688,0c-8.146,0-12.396,5.308-14.727,10.089l-36.103,84.027c-3.438,7.055-0.566,15.578,6.411,19.039
				c6.982,3.46,15.43,0.547,18.868-6.51l2.717-5.571c0,0,0.844-1.503,0.527,0.159c-1.965,10.348-7.391,41.475-7.391,41.475
				c-1.318,6.477,3.009,11.777,9.619,11.777c0,0,11.792,0,15.722,0c1.125,0,0.925,0.848,0.925,0.848v62.566
				c0,10.479,6.526,15.973,14.58,15.973c8.051,0,14.581-5.494,14.581-15.973v-62.816c0,0-0.033-0.62,0.623-0.598
				c0.847,0.027,2.991,0.004,3.952,0.004c0.548,0,0.479,0.66,0.479,0.66v62.75c0,10.479,6.53,15.973,14.584,15.973
				c8.051,0,14.58-5.494,14.58-15.973v-62.399c0,0-0.096-1.015,1.112-1.015c4.229,0,16.912,0,16.912,0
				c6.609,0,11.043-5.32,9.851-11.822c0,0-5.438-33.385-6.887-42.48c-0.415-2.607,3.916,6.65,3.916,6.65
				c3.312,7.115,9.708,10.086,16.749,6.753C366.209,222.78,369.233,214.31,365.921,207.192z"/>
		</g>
		<g>
			<g>
				<g>
					<path d="M190.443,338.754c0,3.85-3.149,7-7,7h-3c-3.85,0-7-3.15-7-7V32.113c0-3.85,3.15-7,7-7h3c3.85,0,7,3.15,7,7V338.754z"/>
				</g>
			</g>
		</g>
	</g>
</g>
<g>
</g>
<g>
</g>
<g>
</g>
<g>
</g>
<g>
</g>
<g>
</g>
<g>
</g>
<g>
</g>
<g>
</g>
<g>
</g>
<g>
</g>
<g>
</g>
<g>
</g>
<g>
</g>
<g>
</g>
</svg>
