<?xml version="1.0" encoding="iso-8859-1"?>
<!-- Generator: Adobe Illustrator 18.0.0, SVG Export Plug-In . SVG Version: 6.00 Build 0)  -->
<!DOCTYPE svg PUBLIC "-//W3C//DTD SVG 1.1//EN" "http://www.w3.org/Graphics/SVG/1.1/DTD/svg11.dtd">
<svg version="1.1" id="Capa_1" xmlns="http://www.w3.org/2000/svg" xmlns:xlink="http://www.w3.org/1999/xlink" x="0px" y="0px"
	 viewBox="0 0 105.82 88.61" style="enable-background:new 0 0 105.82 88.61;" xml:space="preserve">
<g>
	<path d="M78.74,40.869c-3.873-0.145-7.929,0.248-11.588,1.575c-3.712,1.346-8.598,4.92-6.775,9.539
		c0.818,2.071,2.935,3.41,5.393,3.41c0.887,0,1.766-0.17,2.613-0.504c3.272-1.292,5.004-4.697,3.861-7.591
		c-0.27-0.683-0.681-1.285-1.198-1.787c1.991-0.501,4.479-0.81,7.547-0.695c1.086,0.037,2.006-0.81,2.047-1.9
		S79.83,40.91,78.74,40.869z M66.518,50.166c-0.247,0.098-0.506,0.149-0.748,0.149c-0.425,0-0.645-0.153-0.67-0.197
		c-0.028-0.113,0.217-0.692,1.003-1.002c0.247-0.098,0.506-0.149,0.748-0.149c0.424,0,0.645,0.153,0.67,0.198
		C67.549,49.277,67.304,49.855,66.518,50.166z"/>
	<path d="M38.661,42.444c-3.66-1.327-7.715-1.721-11.588-1.575c-1.09,0.041-1.941,0.957-1.9,2.047s0.961,1.936,2.047,1.9
		c3.068-0.116,5.556,0.194,7.547,0.695c-0.517,0.502-0.929,1.104-1.198,1.787c-1.143,2.894,0.59,6.3,3.861,7.591
		c0.847,0.335,1.726,0.504,2.613,0.504c2.458,0,4.575-1.339,5.393-3.41C47.26,47.364,42.373,43.79,38.661,42.444z M40.713,50.118
		c-0.025,0.045-0.245,0.197-0.67,0.197c-0.242,0-0.501-0.052-0.748-0.149c-0.786-0.311-1.031-0.889-1.003-1.002
		c0.025-0.045,0.245-0.198,0.67-0.198c0.242,0,0.501,0.052,0.748,0.149C40.496,49.426,40.741,50.004,40.713,50.118z"/>
	<path d="M39.468,22.063c0,0,2.145-7.109-3.24-10.833c-0.555-0.384-8.617,8.906-7.94,17.547
		C28.288,28.778,35.067,23.587,39.468,22.063z"/>
	<path d="M77.525,28.778c0.677-8.641-7.385-17.931-7.94-17.547c-5.385,3.724-3.24,10.833-3.24,10.833
		C70.746,23.587,77.525,28.778,77.525,28.778z"/>
	<path d="M105.82,39.425l-2.314-0.287c-0.087-0.011-8.778-1.21-14.536-8.058c-0.6-0.714-1.242-1.417-1.915-2.098
		C86.979,23.14,85.05,8.455,68.56,0.653L67.181,0l-1.224,0.912c-0.304,0.227-6.946,5.294-7.919,15.565H47.779
		C46.817,5.995,40.119,1.099,39.813,0.88l-1.213-0.865l-1.347,0.637C20.764,8.455,18.834,23.14,18.758,28.982
		c-0.673,0.681-1.315,1.384-1.916,2.098c-5.758,6.848-14.448,8.047-14.529,8.057L0,39.424l0.089,2.33
		c0.482,12.59,4.68,22.973,12.475,30.875c-0.641,0.263-1.277,0.54-1.905,0.833c-0.988,0.462-1.415,1.637-0.953,2.625
		c0.335,0.718,1.047,1.139,1.791,1.139c0.28,0,0.564-0.06,0.835-0.186c1.134-0.53,2.301-1.004,3.482-1.43
		c5.455,4.524,12.205,7.965,20.122,10.253c5.384,1.822,11.094,2.746,16.971,2.746s11.587-0.924,16.971-2.746
		C77.796,83.576,84.546,80.134,90,75.611c1.181,0.426,2.348,0.9,3.482,1.43c0.271,0.126,0.555,0.186,0.835,0.186
		c0.743,0,1.455-0.422,1.791-1.139c0.462-0.988,0.035-2.163-0.953-2.625c-0.628-0.293-1.264-0.57-1.905-0.833
		c7.795-7.902,11.993-18.286,12.475-30.875L105.82,39.425z M68.415,81.001l-0.114,0.036c-4.874,1.656-10.053,2.496-15.395,2.496
		c-5.341,0-10.521-0.84-15.394-2.496l-0.114-0.036c-5.939-1.711-11.136-4.11-15.528-7.162c6.3-1.47,12.182-1.821,14.979-1.901
		c1.692,3.479,5.325,5.89,9.526,5.89c1.48,0,2.908-0.293,4.248-0.871c0.638-0.164,1.331-0.546,2.262-1.134
		c0.005-0.003,0.01-0.006,0.015-0.009c0.005,0.003,0.01,0.006,0.014,0.009c0.932,0.588,1.624,0.97,2.263,1.134
		c1.34,0.578,2.768,0.871,4.248,0.871c4.201,0,7.835-2.412,9.527-5.891c2.791,0.078,8.678,0.425,14.993,1.9
		C79.553,76.89,74.355,79.29,68.415,81.001z M89.338,69.364c-0.482,0.478-0.979,0.945-1.49,1.4
		c-7.157-2.058-14.158-2.61-17.896-2.753c0.007-0.156,0.011-0.312,0.011-0.47c0-0.59-0.053-1.174-0.153-1.746
		c3.508-0.859,10.671-2.218,17.095-0.969c1.07,0.207,2.107-0.491,2.315-1.562s-0.491-2.107-1.562-2.315
		c-7.547-1.467-15.671,0.196-19.303,1.133c-0.091-0.142-0.185-0.283-0.284-0.421c-1.197-1.674-2.856-2.952-4.798-3.696l-0.888,2.319
		l-0.888,2.318c2.126,0.814,3.5,2.754,3.5,4.941c0,2.934-2.5,5.32-5.573,5.32c-0.864,0-1.692-0.183-2.46-0.545l-0.676-0.318
		l-0.086,0.012c-0.463-0.265-1.219-0.749-1.883-1.212l-0.051-0.035l3.082-3.082c1.063-1.063,0.31-2.882-1.194-2.882h-6.515
		c-1.504,0-2.257,1.818-1.194,2.882l3.082,3.082l-0.05,0.035c-0.665,0.463-1.421,0.948-1.884,1.213l-0.086-0.012l-0.676,0.318
		c-0.768,0.362-1.595,0.545-2.46,0.545c-3.073,0-5.573-2.387-5.573-5.32c0-2.187,1.374-4.126,3.5-4.941l-0.888-2.318l-0.888-2.319
		c-1.942,0.744-3.601,2.022-4.798,3.696c-0.098,0.137-0.191,0.277-0.282,0.418c-3.637-0.937-11.752-2.595-19.292-1.13
		c-1.071,0.208-1.77,1.245-1.562,2.315c0.208,1.071,1.245,1.77,2.315,1.562c6.417-1.247,13.57,0.107,17.083,0.966
		c-0.1,0.574-0.153,1.158-0.153,1.749c0,0.158,0.004,0.314,0.011,0.47c-3.741,0.143-10.734,0.697-17.883,2.752
		c-0.511-0.456-1.008-0.922-1.49-1.4C9.855,62.801,6.097,54.178,5.287,43.709c3.534-0.881,10.327-3.277,15.442-9.361
		c0.712-0.847,1.495-1.678,2.326-2.469l0.819-0.78l-0.032-1.131c-0.062-2.168,0.137-6.513,2.154-11.253
		c2.318-5.444,6.329-9.717,11.937-12.721c0.547,0.565,1.239,1.375,1.924,2.434c1.963,3.034,2.958,6.596,2.958,10.588v2.539h20.182
		v-2.539c0-3.91,1-7.451,2.973-10.524c0.688-1.072,1.384-1.901,1.935-2.484c5.594,3.003,9.598,7.272,11.912,12.708
		c2.018,4.739,2.216,9.084,2.154,11.253l-0.032,1.131l0.819,0.78c0.831,0.791,1.613,1.622,2.326,2.469
		c5.115,6.084,11.908,8.48,15.442,9.361C99.716,54.178,95.958,62.801,89.338,69.364z"/>
</g>
<g>
</g>
<g>
</g>
<g>
</g>
<g>
</g>
<g>
</g>
<g>
</g>
<g>
</g>
<g>
</g>
<g>
</g>
<g>
</g>
<g>
</g>
<g>
</g>
<g>
</g>
<g>
</g>
<g>
</g>
</svg>
