<?xml version="1.0" encoding="iso-8859-1"?>
<!-- Generator: Adobe Illustrator 19.0.0, SVG Export Plug-In . SVG Version: 6.00 Build 0)  -->
<svg version="1.1" id="Layer_1" xmlns="http://www.w3.org/2000/svg" xmlns:xlink="http://www.w3.org/1999/xlink" x="0px" y="0px"
	 viewBox="0 0 512 512" style="enable-background:new 0 0 512 512;" xml:space="preserve">
<g>
	<g>
		<g>
			<path d="M426.923,341.333h-0.085c-4.71,0-8.491,3.823-8.491,8.533s3.866,8.533,8.576,8.533c4.71,0,8.533-3.823,8.533-8.533
				S431.633,341.333,426.923,341.333z"/>
			<path d="M461.056,341.333h-0.085c-4.71,0-8.491,3.823-8.491,8.533s3.866,8.533,8.576,8.533s8.533-3.823,8.533-8.533
				S465.766,341.333,461.056,341.333z"/>
			<path d="M460.8,375.467c-4.719,0-8.533,3.823-8.533,8.533v17.067c0,4.71,3.814,8.533,8.533,8.533
				c4.719,0,8.533-3.823,8.533-8.533V384C469.333,379.29,465.519,375.467,460.8,375.467z"/>
			<path d="M204.8,409.6c4.719,0,8.533-3.823,8.533-8.533v-51.2c0-4.71-3.814-8.533-8.533-8.533s-8.533,3.823-8.533,8.533v51.2
				C196.267,405.777,200.081,409.6,204.8,409.6z"/>
			<path d="M503.467,307.2H409.6v-17.067h34.133c0,4.71,3.814,8.533,8.533,8.533c4.719,0,8.533-3.823,8.533-8.533V281.6
				c0-4.71-3.814-8.533-8.533-8.533h-51.2c-4.719,0-8.533,3.823-8.533,8.533v25.6H170.667v-85.333h25.6h93.867
				c4.719,0,8.533-3.823,8.533-8.533c0-4.71-3.814-8.533-8.533-8.533H281.6v-17.067h25.6v25.6c0,4.71,3.814,8.533,8.533,8.533h25.6
				v68.267c0,4.71,3.814,8.533,8.533,8.533s8.533-3.823,8.533-8.533v-76.8c0-4.71-3.814-8.533-8.533-8.533h-25.6v-51.2
				c0-28.587-17.681-53.086-42.667-63.241V59.733c0-4.71-3.814-8.533-8.533-8.533h-8.533V8.533C264.533,3.823,260.719,0,256,0
				s-8.533,3.823-8.533,8.533V51.2h-8.533c-4.719,0-8.533,3.823-8.533,8.533v30.626c-24.986,10.155-42.667,34.654-42.667,63.241
				v51.2h-25.6c-4.719,0-8.533,3.823-8.533,8.533V307.2H68.267v-17.067H102.4c0,4.71,3.814,8.533,8.533,8.533
				s8.533-3.823,8.533-8.533V281.6c0-4.71-3.814-8.533-8.533-8.533h-51.2c-4.719,0-8.533,3.823-8.533,8.533v25.6H8.533
				C3.814,307.2,0,311.023,0,315.733v153.6c0,4.71,3.814,8.533,8.533,8.533s8.533-3.823,8.533-8.533V324.267H153.6v102.4H51.2
				c-4.719,0-8.533,3.823-8.533,8.533s3.814,8.533,8.533,8.533h102.4V460.8H34.133c-4.719,0-8.533,3.823-8.533,8.533
				s3.814,8.533,8.533,8.533h128c4.719,0,8.533-3.823,8.533-8.533v-25.6h25.6v25.6c0,4.71,3.814,8.533,8.533,8.533
				s8.533-3.823,8.533-8.533v-25.6H230.4v25.6c0,4.71,3.814,8.533,8.533,8.533s8.533-3.823,8.533-8.533v-25.6h17.067v25.6
				c0,4.71,3.814,8.533,8.533,8.533s8.533-3.823,8.533-8.533v-25.6h17.067v25.6c0,4.71,3.814,8.533,8.533,8.533
				s8.533-3.823,8.533-8.533v-25.6h25.6v25.6c0,4.71,3.814,8.533,8.533,8.533h128c4.719,0,8.533-3.823,8.533-8.533
				s-3.814-8.533-8.533-8.533H358.4v-17.067h102.4c4.719,0,8.533-3.823,8.533-8.533s-3.814-8.533-8.533-8.533H358.4v-102.4h136.533
				v145.067c0,4.71,3.814,8.533,8.533,8.533c4.719,0,8.533-3.823,8.533-8.533v-153.6C512,311.023,508.186,307.2,503.467,307.2z
				 M264.533,204.8h-17.067v-17.067h17.067V204.8z M247.467,68.267h17.067v17.655c-2.799-0.35-5.632-0.589-8.533-0.589
				c-2.901,0-5.734,0.239-8.533,0.589V68.267z M204.8,153.6c0-28.237,22.963-51.2,51.2-51.2s51.2,22.963,51.2,51.2v17.067h-85.333
				c-4.719,0-8.533,3.823-8.533,8.533s3.814,8.533,8.533,8.533h8.533V204.8h-25.6V153.6z M341.333,426.667H170.667v-102.4h170.667
				V426.667z"/>
			<path d="M238.933,409.6c4.719,0,8.533-3.823,8.533-8.533v-51.2c0-4.71-3.814-8.533-8.533-8.533s-8.533,3.823-8.533,8.533v51.2
				C230.4,405.777,234.214,409.6,238.933,409.6z"/>
			<path d="M503.467,494.933H8.533c-4.719,0-8.533,3.823-8.533,8.533S3.814,512,8.533,512h494.933c4.719,0,8.533-3.823,8.533-8.533
				S508.186,494.933,503.467,494.933z"/>
			<path d="M307.2,409.6c4.719,0,8.533-3.823,8.533-8.533v-51.2c0-4.71-3.814-8.533-8.533-8.533s-8.533,3.823-8.533,8.533v51.2
				C298.667,405.777,302.481,409.6,307.2,409.6z"/>
			<path d="M273.067,409.6c4.719,0,8.533-3.823,8.533-8.533v-51.2c0-4.71-3.814-8.533-8.533-8.533s-8.533,3.823-8.533,8.533v51.2
				C264.533,405.777,268.348,409.6,273.067,409.6z"/>
			<path d="M264.533,247.467V281.6c0,4.71,3.814,8.533,8.533,8.533s8.533-3.823,8.533-8.533v-34.133c0-4.71-3.814-8.533-8.533-8.533
				S264.533,242.756,264.533,247.467z"/>
			<path d="M119.723,358.4c4.71,0,8.533-3.823,8.533-8.533s-3.823-8.533-8.533-8.533h-0.085c-4.71,0-8.491,3.823-8.491,8.533
				S115.012,358.4,119.723,358.4z"/>
			<path d="M426.667,375.467c-4.719,0-8.533,3.823-8.533,8.533v17.067c0,4.71,3.814,8.533,8.533,8.533s8.533-3.823,8.533-8.533V384
				C435.2,379.29,431.386,375.467,426.667,375.467z"/>
			<path d="M110.933,401.067c0,4.71,3.814,8.533,8.533,8.533s8.533-3.823,8.533-8.533V384c0-4.71-3.814-8.533-8.533-8.533
				s-8.533,3.823-8.533,8.533V401.067z"/>
			<path d="M298.667,247.467V281.6c0,4.71,3.814,8.533,8.533,8.533s8.533-3.823,8.533-8.533v-34.133c0-4.71-3.814-8.533-8.533-8.533
				S298.667,242.756,298.667,247.467z"/>
			<path d="M230.4,247.467V281.6c0,4.71,3.814,8.533,8.533,8.533s8.533-3.823,8.533-8.533v-34.133c0-4.71-3.814-8.533-8.533-8.533
				S230.4,242.756,230.4,247.467z"/>
			<path d="M196.267,247.467V281.6c0,4.71,3.814,8.533,8.533,8.533s8.533-3.823,8.533-8.533v-34.133c0-4.71-3.814-8.533-8.533-8.533
				S196.267,242.756,196.267,247.467z"/>
			<path d="M85.589,358.4c4.71,0,8.533-3.823,8.533-8.533s-3.823-8.533-8.533-8.533h-0.085c-4.71,0-8.491,3.823-8.491,8.533
				S80.879,358.4,85.589,358.4z"/>
			<path d="M392.789,341.333h-0.085c-4.71,0-8.491,3.823-8.491,8.533s3.866,8.533,8.576,8.533s8.533-3.823,8.533-8.533
				S397.5,341.333,392.789,341.333z"/>
			<path d="M76.8,401.067c0,4.71,3.814,8.533,8.533,8.533s8.533-3.823,8.533-8.533V384c0-4.71-3.814-8.533-8.533-8.533
				S76.8,379.29,76.8,384V401.067z"/>
			<path d="M392.533,375.467c-4.719,0-8.533,3.823-8.533,8.533v17.067c0,4.71,3.814,8.533,8.533,8.533
				c4.719,0,8.533-3.823,8.533-8.533V384C401.067,379.29,397.252,375.467,392.533,375.467z"/>
			<path d="M51.456,358.4c4.71,0,8.533-3.823,8.533-8.533s-3.823-8.533-8.533-8.533h-0.085c-4.71,0-8.491,3.823-8.491,8.533
				S46.746,358.4,51.456,358.4z"/>
			<path d="M42.667,401.067c0,4.71,3.814,8.533,8.533,8.533s8.533-3.823,8.533-8.533V384c0-4.71-3.814-8.533-8.533-8.533
				s-8.533,3.823-8.533,8.533V401.067z"/>
		</g>
	</g>
</g>
<g>
</g>
<g>
</g>
<g>
</g>
<g>
</g>
<g>
</g>
<g>
</g>
<g>
</g>
<g>
</g>
<g>
</g>
<g>
</g>
<g>
</g>
<g>
</g>
<g>
</g>
<g>
</g>
<g>
</g>
</svg>
