<?xml version="1.0" encoding="iso-8859-1"?>
<!-- Generator: Adobe Illustrator 17.1.0, SVG Export Plug-In . SVG Version: 6.00 Build 0)  -->
<!DOCTYPE svg PUBLIC "-//W3C//DTD SVG 1.1//EN" "http://www.w3.org/Graphics/SVG/1.1/DTD/svg11.dtd">
<svg version="1.1" id="Capa_1" xmlns="http://www.w3.org/2000/svg" xmlns:xlink="http://www.w3.org/1999/xlink" x="0px" y="0px"
	 viewBox="0 0 184.268 184.268" style="enable-background:new 0 0 184.268 184.268;" xml:space="preserve">
<path style="fill:#000002;" d="M165.254,169.134H19.015c-1.381,0-2.5-1.119-2.5-2.5v-50.851C6.697,112.62,0,103.549,0,93.072
	c0-13.175,10.719-23.894,23.894-23.894c0.123,0,0.246,0.001,0.369,0.003v-9.259c0-24.697,20.093-44.789,44.79-44.789h46.163
	c24.697,0,44.79,20.092,44.79,44.789v9.259c0.123-0.002,0.246-0.003,0.369-0.003c13.175,0,23.893,10.719,23.893,23.894
	c0,10.477-6.696,19.548-16.514,22.711v50.851C167.754,168.015,166.635,169.134,165.254,169.134z M141.482,164.134h21.271v-50.25
	c0-1.161,0.8-2.17,1.932-2.435c8.586-2.006,14.582-9.563,14.582-18.377c0-10.418-8.476-18.894-18.893-18.894
	s-18.893,8.476-18.893,18.894V164.134z M47.786,164.134h88.696v-33.282H47.786V164.134z M21.515,164.134h21.271V93.072
	c0-10.418-8.476-18.894-18.893-18.894C13.476,74.179,5,82.654,5,93.072c0,8.814,5.997,16.371,14.583,18.377
	c1.132,0.265,1.932,1.272,1.932,2.435V164.134z M47.786,125.852h88.696v-10.773c0-6.617-5.383-12-12-12h-12.667
	c-0.041-0.001-0.079-0.001-0.116,0H71.858c-0.038,0-0.076,0-0.116,0H59.786c-6.617,0-12,5.383-12,12V125.852z M115.191,98.078h9.291
	c4.68,0,8.923,1.9,12,4.97v-9.976c0-11.329,7.926-20.843,18.523-23.285v-9.864c0-21.939-17.85-39.789-39.79-39.789H69.053
	c-21.94,0-39.79,17.85-39.79,39.789v9.864c10.598,2.442,18.523,11.956,18.523,23.285v9.976c3.077-3.069,7.32-4.97,12-4.97h8.58
	L54.034,53.681c-0.425-1.313,0.297-2.723,1.611-3.146c1.311-0.427,2.723,0.296,3.146,1.611l14.829,45.933h15.657V40.903
	c0-1.381,1.119-2.5,2.5-2.5s2.5,1.119,2.5,2.5v57.175h15.658l14.829-45.933c0.424-1.315,1.834-2.04,3.146-1.611
	c1.314,0.424,2.036,1.833,1.611,3.146L115.191,98.078z"/>
<g>
</g>
<g>
</g>
<g>
</g>
<g>
</g>
<g>
</g>
<g>
</g>
<g>
</g>
<g>
</g>
<g>
</g>
<g>
</g>
<g>
</g>
<g>
</g>
<g>
</g>
<g>
</g>
<g>
</g>
</svg>
