<?xml version="1.0" encoding="iso-8859-1"?>
<!-- Generator: Adobe Illustrator 16.0.0, SVG Export Plug-In . SVG Version: 6.00 Build 0)  -->
<!DOCTYPE svg PUBLIC "-//W3C//DTD SVG 1.1//EN" "http://www.w3.org/Graphics/SVG/1.1/DTD/svg11.dtd">
<svg version="1.1" id="Capa_1" xmlns="http://www.w3.org/2000/svg" xmlns:xlink="http://www.w3.org/1999/xlink" x="0px" y="0px"
	 width="45.948px" height="45.947px" viewBox="0 0 45.948 45.947" style="enable-background:new 0 0 45.948 45.947;"
	 xml:space="preserve">
<g>
	<path d="M43.241,8.526c-0.54-3.952-3.736-7.162-7.687-7.713c-5.223-0.729-9.756,3.02-10.314,7.956h-4.716l-1.421-7.113
		C18.911,0.693,18.065,0,17.083,0H4.813C3.732,0,2.744,0.774,2.631,1.85c-0.129,1.239,0.84,2.295,2.054,2.295h10.699l0.927,4.625
		h-1.999c-1.408,0-2.523,1.188-2.436,2.592l1.946,31.146c0.122,1.933,1.726,3.439,3.664,3.439h12.475
		c1.938,0,3.542-1.507,3.663-3.441l1.479-23.678C40.118,18.36,43.96,13.797,43.241,8.526z M16.965,26.607l-0.854-13.694h1.023
		l2.724,13.694H16.965z M35.28,3.91c0.901,0.154,1.694,0.501,2.397,0.996L35.28,7.302V3.91z M33.178,3.91v3.393l-2.397-2.397
		C31.483,4.411,32.335,4.064,33.178,3.91z M29.366,6.372l2.397,2.397H28.37C28.524,7.868,28.87,7.075,29.366,6.372z M30.483,26.607
		h-6.411l-2.724-13.694h9.987L30.483,26.607z M35.302,15.676l0.197-3.169l2.178,2.178C36.979,15.176,36.193,15.521,35.302,15.676z
		 M39.145,13.207l-2.396-2.396h3.392C39.987,11.712,39.64,12.504,39.145,13.207z M36.748,8.77l2.397-2.397
		c0.494,0.703,0.841,1.496,0.995,2.397H36.748z"/>
</g>
<g>
</g>
<g>
</g>
<g>
</g>
<g>
</g>
<g>
</g>
<g>
</g>
<g>
</g>
<g>
</g>
<g>
</g>
<g>
</g>
<g>
</g>
<g>
</g>
<g>
</g>
<g>
</g>
<g>
</g>
</svg>
