<?xml version="1.0" encoding="iso-8859-1"?>
<!-- Generator: Adobe Illustrator 19.0.0, SVG Export Plug-In . SVG Version: 6.00 Build 0)  -->
<svg version="1.1" id="Capa_1" xmlns="http://www.w3.org/2000/svg" xmlns:xlink="http://www.w3.org/1999/xlink" x="0px" y="0px"
	 viewBox="0 0 463 463" style="enable-background:new 0 0 463 463;" xml:space="preserve">
<g>
	<path d="M391.5,352H383v-24.5c0-4.142-3.357-7.5-7.5-7.5h-32c-4.143,0-7.5,3.358-7.5,7.5V352h-17v-24.5c0-4.142-3.357-7.5-7.5-7.5
		h-32c-4.143,0-7.5,3.358-7.5,7.5V352h-17v-24.5c0-4.142-3.357-7.5-7.5-7.5h-32c-4.143,0-7.5,3.358-7.5,7.5V352h-17v-24.5
		c0-4.142-3.357-7.5-7.5-7.5h-32c-4.143,0-7.5,3.358-7.5,7.5V352h-17v-24.5c0-4.142-3.357-7.5-7.5-7.5h-32
		c-4.143,0-7.5,3.358-7.5,7.5V352h-8.5C40.897,352,16,376.897,16,407.5S40.897,463,71.5,463h320c30.603,0,55.5-24.897,55.5-55.5
		S422.103,352,391.5,352z M351,335h17v17h-17V335z M287,335h17v17h-17V335z M223,335h17v17h-17V335z M159,335h17v17h-17V335z
		 M95,335h17v17H95V335z M391.5,448h-320C49.168,448,31,429.832,31,407.5S49.168,367,71.5,367h320c22.332,0,40.5,18.168,40.5,40.5
		S413.832,448,391.5,448z"/>
	<path d="M135.5,384c-12.958,0-23.5,10.542-23.5,23.5s10.542,23.5,23.5,23.5s23.5-10.542,23.5-23.5S148.458,384,135.5,384z
		 M135.5,416c-4.687,0-8.5-3.813-8.5-8.5s3.813-8.5,8.5-8.5s8.5,3.813,8.5,8.5S140.187,416,135.5,416z"/>
	<path d="M71.5,384C58.542,384,48,394.542,48,407.5S58.542,431,71.5,431S95,420.458,95,407.5S84.458,384,71.5,384z M71.5,416
		c-4.687,0-8.5-3.813-8.5-8.5s3.813-8.5,8.5-8.5s8.5,3.813,8.5,8.5S76.187,416,71.5,416z"/>
	<path d="M199.5,384c-12.958,0-23.5,10.542-23.5,23.5s10.542,23.5,23.5,23.5s23.5-10.542,23.5-23.5S212.458,384,199.5,384z
		 M199.5,416c-4.687,0-8.5-3.813-8.5-8.5s3.813-8.5,8.5-8.5s8.5,3.813,8.5,8.5S204.187,416,199.5,416z"/>
	<path d="M263.5,384c-12.958,0-23.5,10.542-23.5,23.5s10.542,23.5,23.5,23.5s23.5-10.542,23.5-23.5S276.458,384,263.5,384z
		 M263.5,416c-4.687,0-8.5-3.813-8.5-8.5s3.813-8.5,8.5-8.5s8.5,3.813,8.5,8.5S268.187,416,263.5,416z"/>
	<path d="M327.5,384c-12.958,0-23.5,10.542-23.5,23.5s10.542,23.5,23.5,23.5s23.5-10.542,23.5-23.5S340.458,384,327.5,384z
		 M327.5,416c-4.687,0-8.5-3.813-8.5-8.5s3.813-8.5,8.5-8.5s8.5,3.813,8.5,8.5S332.187,416,327.5,416z"/>
	<path d="M391.5,384c-12.958,0-23.5,10.542-23.5,23.5s10.542,23.5,23.5,23.5s23.5-10.542,23.5-23.5S404.458,384,391.5,384z
		 M391.5,416c-4.687,0-8.5-3.813-8.5-8.5s3.813-8.5,8.5-8.5s8.5,3.813,8.5,8.5S396.187,416,391.5,416z"/>
	<path d="M81.286,166.858C70.86,173.977,64,185.951,64,199.5c0,21.78,17.72,39.5,39.5,39.5h88c4.143,0,7.5-3.358,7.5-7.5V223h73
		v24.5c0,8.547,6.953,15.5,15.5,15.5h0.5v32.5c0,4.142,3.357,7.5,7.5,7.5s7.5-3.358,7.5-7.5V263h0.5c8.547,0,15.5-6.953,15.5-15.5
		v-27.054c4.971-5.571,8-12.91,8-20.946c0-17.369-14.131-31.5-31.5-31.5c-8.036,0-15.375,3.029-20.946,8H199v-8.5
		c0-4.142-3.357-7.5-7.5-7.5h-40.889l38.265-94.127c4.697-5.226,8.018-11.708,9.401-18.873H214c4.963,0,9-4.037,9-9V15h24.5
		c4.143,0,7.5-3.358,7.5-7.5S251.643,0,247.5,0h-176C67.357,0,64,3.358,64,7.5s3.357,7.5,7.5,7.5H96v23c0,4.963,4.037,9,9,9h15.723
		c0.745,3.859,2.053,7.519,3.835,10.892L81.286,166.858z M79,199.5c0-13.509,10.99-24.5,24.5-24.5s24.5,10.991,24.5,24.5
		S117.01,224,103.5,224S79,213.009,79,199.5z M303.5,248h-16c-0.275,0-0.5-0.225-0.5-0.5v-17.675c2.706,0.76,5.555,1.175,8.5,1.175
		s5.794-0.415,8.5-1.175V247.5C304,247.775,303.775,248,303.5,248z M295.5,183c9.098,0,16.5,7.402,16.5,16.5s-7.402,16.5-16.5,16.5
		s-16.5-7.402-16.5-16.5S286.402,183,295.5,183z M265.175,191c-0.76,2.706-1.175,5.555-1.175,8.5s0.415,5.794,1.175,8.5H199v-17
		H265.175z M184,224h-49.551c5.346-6.739,8.551-15.25,8.551-24.5s-3.205-17.761-8.551-24.5H184V224z M103.5,160
		c-1.151,0-2.287,0.06-3.413,0.157l35.456-89.281C142.193,75.966,150.497,79,159.5,79c2.81,0,5.551-0.3,8.196-0.861L134.418,160
		H103.5z M111,15h97v17h-97V15z M182.821,47c-3.176,9.852-12.427,17-23.321,17s-20.146-7.148-23.321-17H182.821z"/>
</g>
<g>
</g>
<g>
</g>
<g>
</g>
<g>
</g>
<g>
</g>
<g>
</g>
<g>
</g>
<g>
</g>
<g>
</g>
<g>
</g>
<g>
</g>
<g>
</g>
<g>
</g>
<g>
</g>
<g>
</g>
</svg>
