<?xml version="1.0" encoding="iso-8859-1"?>
<!-- Generator: Adobe Illustrator 18.0.0, SVG Export Plug-In . SVG Version: 6.00 Build 0)  -->
<!DOCTYPE svg PUBLIC "-//W3C//DTD SVG 1.1//EN" "http://www.w3.org/Graphics/SVG/1.1/DTD/svg11.dtd">
<svg version="1.1" id="Capa_1" xmlns="http://www.w3.org/2000/svg" xmlns:xlink="http://www.w3.org/1999/xlink" x="0px" y="0px"
	 viewBox="0 0 60.002 60.002" style="enable-background:new 0 0 60.002 60.002;" xml:space="preserve">
<g>
	<path d="M8.71,37.209C8.89,37.019,9,36.759,9,36.5s-0.11-0.521-0.29-0.71c-0.37-0.37-1.05-0.37-1.42,0C7.109,35.979,7,36.24,7,36.5
		s0.109,0.52,0.29,0.71C7.479,37.389,7.74,37.5,8,37.5S8.52,37.389,8.71,37.209z"/>
	<path d="M12,38.5c0.26,0,0.52-0.11,0.71-0.29c0.18-0.19,0.29-0.45,0.29-0.71c0-0.271-0.11-0.521-0.29-0.71
		c-0.38-0.37-1.05-0.37-1.42,0C11.109,36.979,11,37.24,11,37.5s0.109,0.52,0.29,0.71C11.479,38.389,11.74,38.5,12,38.5z"/>
	<path d="M9.71,39.79c-0.37-0.37-1.04-0.37-1.42,0C8.109,39.979,8,40.24,8,40.5s0.109,0.52,0.29,0.71C8.479,41.389,8.74,41.5,9,41.5
		s0.52-0.11,0.71-0.29c0.18-0.19,0.29-0.45,0.29-0.71S9.89,39.979,9.71,39.79z"/>
	<path d="M13.71,40.79c-0.38-0.37-1.05-0.37-1.41,0c-0.19,0.18-0.3,0.439-0.3,0.71c0,0.27,0.109,0.52,0.29,0.71
		c0.189,0.18,0.45,0.29,0.71,0.29s0.52-0.11,0.71-0.29c0.18-0.19,0.29-0.45,0.29-0.71S13.89,40.979,13.71,40.79z"/>
	<path d="M10.29,43.79C10.109,43.979,10,44.24,10,44.5s0.109,0.52,0.29,0.71c0.189,0.18,0.45,0.29,0.71,0.29s0.52-0.11,0.71-0.29
		c0.18-0.19,0.29-0.45,0.29-0.71s-0.11-0.521-0.29-0.71C11.34,43.419,10.66,43.419,10.29,43.79z"/>
	<path d="M15.71,44.79c-0.37-0.37-1.05-0.37-1.41,0c-0.19,0.18-0.3,0.439-0.3,0.71c0,0.27,0.1,0.52,0.29,0.71
		c0.189,0.18,0.45,0.29,0.71,0.29s0.52-0.11,0.71-0.29c0.18-0.19,0.29-0.45,0.29-0.71S15.89,44.979,15.71,44.79z"/>
	<path d="M19.71,46.209c0.18-0.19,0.29-0.45,0.29-0.71s-0.11-0.521-0.29-0.71c-0.37-0.37-1.05-0.37-1.42,0
		C18.109,44.979,18,45.24,18,45.5s0.1,0.52,0.29,0.71c0.189,0.18,0.45,0.29,0.71,0.29S19.52,46.389,19.71,46.209z"/>
	<path d="M20.3,47.79c-0.19,0.18-0.3,0.439-0.3,0.71c0,0.27,0.109,0.529,0.29,0.7c0.189,0.189,0.45,0.3,0.71,0.3
		s0.52-0.11,0.71-0.29c0.18-0.19,0.29-0.45,0.29-0.71c0-0.271-0.11-0.521-0.29-0.71C21.33,47.419,20.66,47.419,20.3,47.79z"/>
	<path d="M39.71,47.79c-0.37-0.37-1.05-0.37-1.42,0C38.109,47.979,38,48.24,38,48.5s0.109,0.52,0.29,0.71
		c0.189,0.18,0.45,0.29,0.71,0.29s0.52-0.11,0.71-0.29c0.18-0.19,0.29-0.45,0.29-0.71C40,48.229,39.89,47.979,39.71,47.79z"/>
	<path d="M35.189,50.29c-0.18,0.189-0.29,0.439-0.29,0.71c0,0.26,0.11,0.52,0.29,0.71c0.19,0.18,0.45,0.29,0.71,0.29
		c0.261,0,0.521-0.11,0.71-0.29c0.181-0.19,0.29-0.45,0.29-0.71s-0.109-0.521-0.29-0.71C36.24,49.919,35.56,49.919,35.189,50.29z"/>
	<path d="M31.35,52.229c-0.18,0.19-0.29,0.44-0.29,0.71c0,0.261,0.11,0.521,0.29,0.7c0.19,0.19,0.45,0.3,0.71,0.3
		s0.521-0.109,0.71-0.3c0.19-0.18,0.29-0.439,0.29-0.7c0-0.27-0.1-0.52-0.29-0.71C32.399,51.859,31.72,51.859,31.35,52.229z"/>
	<path d="M23.229,50.589c-0.189,0.18-0.29,0.439-0.29,0.71c0,0.26,0.101,0.52,0.29,0.7c0.19,0.189,0.45,0.3,0.71,0.3
		c0.261,0,0.521-0.11,0.71-0.3c0.181-0.181,0.29-0.44,0.29-0.7c0-0.271-0.109-0.521-0.29-0.71
		C24.27,50.219,23.6,50.219,23.229,50.589z"/>
	<path d="M27.939,49.299c0-0.271-0.109-0.53-0.29-0.71c-0.38-0.37-1.04-0.37-1.42,0c-0.18,0.18-0.29,0.439-0.29,0.71
		c0,0.27,0.101,0.52,0.29,0.7c0.19,0.189,0.45,0.3,0.71,0.3c0.261,0,0.521-0.11,0.71-0.3C27.83,49.819,27.939,49.559,27.939,49.299z
		"/>
	<path d="M31.939,49.299c0-0.271-0.109-0.53-0.29-0.71c-0.38-0.37-1.04-0.37-1.42,0c-0.18,0.189-0.29,0.439-0.29,0.71
		c0,0.26,0.11,0.52,0.29,0.7c0.19,0.189,0.45,0.3,0.71,0.3c0.261,0,0.521-0.11,0.71-0.3C31.83,49.819,31.939,49.559,31.939,49.299z"
		/>
	<path d="M35.64,49.009c0.19-0.19,0.3-0.45,0.3-0.71c0-0.271-0.109-0.53-0.29-0.71c-0.38-0.37-1.04-0.37-1.42,0
		c-0.18,0.18-0.29,0.439-0.29,0.71c0,0.26,0.11,0.52,0.29,0.7c0.19,0.189,0.45,0.3,0.71,0.3C35.2,49.299,35.46,49.189,35.64,49.009z
		"/>
	<path d="M27.31,51.929c-0.18,0.19-0.29,0.44-0.29,0.71c0,0.26,0.11,0.521,0.3,0.71c0.19,0.19,0.44,0.29,0.7,0.29
		c0.271,0,0.53-0.11,0.71-0.29c0.19-0.189,0.29-0.45,0.29-0.71s-0.1-0.52-0.29-0.71C28.359,51.559,27.7,51.549,27.31,51.929z"/>
	<path d="M19.3,50.79c-0.19,0.18-0.3,0.439-0.3,0.71c0,0.27,0.109,0.52,0.29,0.71c0.189,0.18,0.45,0.29,0.71,0.29
		s0.52-0.11,0.71-0.29c0.18-0.19,0.29-0.45,0.29-0.71s-0.11-0.521-0.29-0.71C20.33,50.419,19.67,50.419,19.3,50.79z"/>
	<path d="M40.29,50.79C40.109,50.979,40,51.229,40,51.5c0,0.26,0.109,0.52,0.29,0.71c0.189,0.18,0.45,0.29,0.71,0.29
		s0.52-0.11,0.71-0.29c0.18-0.19,0.29-0.45,0.29-0.71c0-0.271-0.11-0.521-0.29-0.71C41.33,50.419,40.67,50.419,40.29,50.79z"/>
	<path d="M16.29,47.79C16.1,47.979,16,48.24,16,48.5s0.109,0.52,0.29,0.71c0.189,0.18,0.45,0.29,0.71,0.29s0.52-0.11,0.71-0.29
		c0.18-0.19,0.29-0.45,0.29-0.71s-0.11-0.521-0.29-0.71C17.33,47.419,16.66,47.419,16.29,47.79z"/>
	<path d="M52.29,35.79C52.109,35.979,52,36.24,52,36.5s0.109,0.52,0.29,0.71c0.189,0.18,0.45,0.29,0.71,0.29s0.52-0.11,0.71-0.29
		c0.18-0.19,0.29-0.45,0.29-0.71s-0.11-0.521-0.29-0.71C53.34,35.419,52.66,35.419,52.29,35.79z"/>
	<path d="M49,38.5c0.26,0,0.52-0.11,0.71-0.29c0.18-0.19,0.29-0.45,0.29-0.71c0-0.271-0.11-0.521-0.29-0.71
		c-0.37-0.37-1.05-0.37-1.42,0C48.109,36.979,48,37.229,48,37.5c0,0.26,0.109,0.52,0.29,0.71C48.479,38.389,48.74,38.5,49,38.5z"/>
	<path d="M42,25.669c0.26,0,0.52-0.11,0.71-0.3c0.18-0.181,0.29-0.44,0.29-0.7c0-0.271-0.11-0.53-0.29-0.71
		c-0.37-0.37-1.05-0.37-1.41,0c-0.19,0.18-0.3,0.439-0.3,0.71c0,0.26,0.109,0.52,0.29,0.7C41.479,25.559,41.74,25.669,42,25.669z"/>
	<path d="M51.29,39.79C51.109,39.979,51,40.24,51,40.5s0.109,0.52,0.29,0.71c0.189,0.18,0.45,0.29,0.71,0.29s0.52-0.11,0.71-0.29
		c0.18-0.19,0.29-0.45,0.29-0.71s-0.11-0.521-0.29-0.71C52.33,39.419,51.67,39.419,51.29,39.79z"/>
	<path d="M48.71,40.79c-0.37-0.37-1.05-0.37-1.42,0C47.109,40.979,47,41.24,47,41.5s0.109,0.52,0.29,0.71
		c0.189,0.18,0.45,0.29,0.71,0.29s0.52-0.11,0.71-0.29c0.18-0.19,0.29-0.45,0.29-0.71S48.89,40.979,48.71,40.79z"/>
	<path d="M43.29,41.79C43.109,41.979,43,42.229,43,42.5c0,0.26,0.109,0.52,0.29,0.71c0.189,0.189,0.45,0.29,0.71,0.29
		s0.52-0.11,0.71-0.29c0.18-0.19,0.29-0.45,0.29-0.71s-0.11-0.521-0.29-0.71C44.34,41.419,43.68,41.419,43.29,41.79z"/>
	<path d="M49.29,43.79C49.109,43.979,49,44.229,49,44.5c0,0.26,0.109,0.52,0.29,0.71c0.189,0.189,0.45,0.29,0.71,0.29
		s0.52-0.11,0.71-0.29c0.18-0.19,0.29-0.45,0.29-0.71s-0.11-0.521-0.29-0.71C50.34,43.419,49.68,43.419,49.29,43.79z"/>
	<path d="M45.29,44.79C45.109,44.979,45,45.24,45,45.5s0.109,0.52,0.29,0.71c0.189,0.18,0.45,0.29,0.71,0.29s0.52-0.11,0.71-0.29
		c0.18-0.19,0.29-0.45,0.29-0.71s-0.11-0.521-0.29-0.71C46.34,44.419,45.67,44.419,45.29,44.79z"/>
	<path d="M42.71,44.79c-0.38-0.37-1.05-0.37-1.42,0C41.109,44.979,41,45.24,41,45.5s0.109,0.52,0.29,0.71
		c0.189,0.18,0.45,0.29,0.71,0.29s0.52-0.11,0.71-0.29c0.189-0.19,0.29-0.45,0.29-0.71S42.89,44.979,42.71,44.79z"/>
	<path d="M43.29,47.79C43.109,47.979,43,48.229,43,48.5c0,0.26,0.109,0.52,0.29,0.71c0.189,0.18,0.45,0.29,0.71,0.29
		s0.52-0.11,0.71-0.29c0.18-0.19,0.29-0.45,0.29-0.71s-0.11-0.521-0.29-0.71C44.34,47.419,43.68,47.419,43.29,47.79z"/>
	<path d="M17.294,21.5c0.011,0,0.021,0,0.03,0l6.705-0.197c0.552-0.017,0.986-0.478,0.971-1.029
		c-0.017-0.542-0.461-0.971-0.999-0.971c-0.011,0-0.021,0-0.03,0L17.266,19.5c-0.552,0.017-0.986,0.478-0.971,1.029
		C16.312,21.071,16.756,21.5,17.294,21.5z"/>
	<path d="M33.416,20.5c0.267,0,0.533-0.106,0.73-0.316l4.584-4.897c0.377-0.403,0.356-1.036-0.047-1.414
		c-0.404-0.376-1.035-0.356-1.414,0.047l-4.584,4.897c-0.377,0.403-0.356,1.036,0.047,1.414C32.926,20.41,33.171,20.5,33.416,20.5z"
		/>
	<path d="M59.795,26.568c-0.401-1.697-1.364-3.155-2.575-3.902c-0.813-0.499-1.68-0.657-2.509-0.462
		c-0.189,0.045-0.371,0.115-0.548,0.198c-2.336-5.685-5.98-9.363-9.727-11.736l1.359-2.719c0.247-0.494,0.047-1.095-0.447-1.342
		c-0.493-0.246-1.095-0.047-1.342,0.447l-1.302,2.604c-0.617-0.328-1.231-0.626-1.838-0.892l0.983-2.948
		c0.175-0.524-0.108-1.091-0.632-1.265c-0.528-0.177-1.09,0.108-1.265,0.632l-0.948,2.844c-0.693-0.248-1.366-0.461-2.012-0.642
		l0.856-2.569c0.175-0.524-0.108-1.091-0.632-1.265c-0.529-0.175-1.091,0.108-1.265,0.632l-0.908,2.723
		C33.779,6.64,32.7,6.495,31.9,6.417V4.5c0-0.553-0.447-1-1-1s-1,0.447-1,1v1.843c-0.525,0.026-1.441,0.097-2.632,0.284
		l-0.382-2.291c-0.09-0.545-0.608-0.916-1.15-0.822c-0.545,0.091-0.913,0.606-0.822,1.15l0.39,2.339
		c-1.072,0.242-2.258,0.573-3.509,1.02l-0.947-2.84c-0.174-0.523-0.735-0.809-1.265-0.632c-0.523,0.174-0.807,0.74-0.632,1.265
		l0.981,2.943c-0.863,0.378-1.742,0.822-2.621,1.327l-1.517-3.034c-0.248-0.494-0.848-0.693-1.342-0.447
		c-0.494,0.247-0.694,0.848-0.447,1.342l1.6,3.201c-0.881,0.602-1.749,1.288-2.594,2.05l-2.405-2.405
		c-0.391-0.391-1.023-0.391-1.414,0s-0.391,1.023,0,1.414l2.387,2.387c-3.075,3.273-5.646,7.835-6.826,14.213
		c-0.015,0.083-0.025,0.166-0.04,0.249c-0.254-0.07-0.512-0.118-0.776-0.118C1.73,28.938,0,31.321,0,34.363
		c0,3.041,1.73,5.424,3.939,5.424c0.404,0,0.798-0.103,1.177-0.267c0.701,2.671,1.863,5.178,3.458,7.378
		c3.194,4.404,9.466,9.605,21.267,9.605c0.182,0,0.366-0.001,0.551-0.004c0.186,0.003,0.368,0.004,0.551,0.004
		c11.798,0,18.071-5.202,21.267-9.605c2.879-3.969,4.344-8.942,4.229-14.07c0.035,0.001,0.07,0.007,0.104,0.007
		c0.227,0,0.451-0.025,0.672-0.078C59.363,32.245,60.496,29.526,59.795,26.568z M4.674,37.489c-0.206,0.166-0.456,0.298-0.734,0.298
		C3.022,37.787,2,36.38,2,34.363c0-2.019,1.022-3.425,1.939-3.425c0.167,0,0.335,0.047,0.504,0.14
		c-0.049,0.531-0.081,1.062-0.096,1.591c-0.001,0.04,0,0.08-0.001,0.12c-0.01,0.437-0.009,0.872,0.004,1.306
		c0.004,0.143,0.009,0.286,0.015,0.429c0.016,0.351,0.041,0.699,0.072,1.048c0.013,0.148,0.022,0.297,0.038,0.445
		c0.047,0.434,0.105,0.865,0.175,1.293C4.659,37.369,4.664,37.429,4.674,37.489z M50.591,45.724
		c-0.562,0.774-1.168,1.496-1.814,2.168c-0.024-0.033-0.038-0.073-0.066-0.103c-0.37-0.37-1.04-0.37-1.42,0
		C47.109,47.979,47,48.24,47,48.5s0.109,0.52,0.29,0.71c0.013,0.013,0.032,0.018,0.046,0.03c-4.21,3.587-9.887,5.36-16.93,5.26
		h-0.027c-7.008,0.09-12.644-1.65-16.839-5.18c0.057-0.037,0.121-0.063,0.17-0.11c0.18-0.19,0.29-0.45,0.29-0.71
		s-0.11-0.521-0.29-0.71c-0.38-0.37-1.05-0.37-1.42,0c-0.064,0.067-0.106,0.151-0.151,0.233c-0.694-0.71-1.346-1.472-1.945-2.298
		c-2.062-2.843-3.329-6.257-3.726-9.868c-0.008-0.076-0.009-0.153-0.017-0.229c-0.057-0.572-0.089-1.149-0.102-1.728
		c-0.005-0.251-0.001-0.504,0.003-0.756c0.004-0.405,0.021-0.81,0.046-1.216c0.02-0.299,0.04-0.597,0.071-0.896
		c0.064-0.62,0.137-1.24,0.252-1.86c1.097-5.928,3.438-10.163,6.236-13.199l1.235,1.235c0.195,0.195,0.451,0.293,0.707,0.293
		s0.512-0.098,0.707-0.293c0.391-0.391,0.391-1.023,0-1.414l-1.23-1.23c0.684-0.619,1.384-1.181,2.095-1.683l0.534,1.067
		c0.176,0.351,0.528,0.553,0.896,0.553c0.15,0,0.303-0.034,0.446-0.105c0.494-0.247,0.694-0.848,0.447-1.342l-0.629-1.257
		c0.795-0.464,1.59-0.872,2.372-1.22l0.414,1.241c0.14,0.419,0.529,0.684,0.948,0.684c0.104,0,0.211-0.017,0.316-0.052
		c0.523-0.174,0.807-0.74,0.632-1.265l-0.45-1.35c1.148-0.407,2.236-0.7,3.224-0.917l0.291,1.748
		c0.081,0.489,0.505,0.836,0.985,0.836c0.055,0,0.109-0.004,0.165-0.014c0.545-0.091,0.913-0.606,0.822-1.15L27.59,8.558
		c1.021-0.146,1.824-0.201,2.31-0.22V10.5c0,0.553,0.447,1,1,1s1-0.447,1-1V8.425c0.666,0.065,1.52,0.176,2.514,0.37l-0.463,1.388
		c-0.175,0.524,0.108,1.091,0.632,1.265c0.105,0.035,0.212,0.052,0.316,0.052c0.419,0,0.809-0.265,0.948-0.684l0.521-1.563
		c0.644,0.175,1.319,0.384,2.015,0.632l-0.433,1.298c-0.175,0.524,0.108,1.091,0.632,1.265c0.105,0.035,0.212,0.052,0.316,0.052
		c0.419,0,0.809-0.265,0.948-0.684l0.395-1.186c0.177,0.079,0.353,0.154,0.532,0.238c0.36,0.171,0.707,0.353,1.053,0.538
		l-0.823,1.646c-0.247,0.494-0.047,1.095,0.447,1.342c0.144,0.071,0.296,0.105,0.446,0.105c0.367,0,0.72-0.202,0.896-0.553
		l0.763-1.527c4.174,2.69,7.196,6.517,9.039,11.431l-0.003,0.004l0.182,0.512c0.272,0.766,0.509,1.532,0.719,2.308
		c0.013,0.049,0.026,0.098,0.038,0.147c0.204,0.769,0.381,1.548,0.53,2.348c0.122,0.658,0.203,1.317,0.268,1.975
		c0.012,0.128,0.029,0.253,0.04,0.382C54.791,36.693,53.464,41.763,50.591,45.724z M56.751,30.812c-0.137,0.031-0.283,0.03-0.436,0
		c-0.004-0.036-0.011-0.069-0.015-0.105c-0.068-0.631-0.153-1.262-0.269-1.892c0-0.003-0.001-0.006-0.001-0.009
		c-0.002-0.012-0.006-0.023-0.008-0.035c-0.141-0.759-0.306-1.487-0.485-2.195c-0.02-0.079-0.045-0.157-0.066-0.237
		c-0.181-0.692-0.379-1.359-0.593-2.004c-0.005-0.014-0.008-0.029-0.013-0.043c0.101-0.07,0.204-0.117,0.309-0.143
		c0.383-0.091,0.752,0.069,0.995,0.22c0.758,0.467,1.401,1.486,1.68,2.66C58.314,28.993,57.645,30.599,56.751,30.812z"/>
	<path d="M35.4,41.7c-0.017,0.013-0.025,0.032-0.041,0.046c-0.021,0.018-0.049,0.024-0.069,0.044
		c-0.034,0.035-0.051,0.083-0.079,0.123c-0.037,0.05-0.072,0.098-0.099,0.153c-0.026,0.053-0.041,0.107-0.057,0.164
		c-0.02,0.068-0.036,0.133-0.041,0.204C35.012,42.455,35,42.477,35,42.5c0,0.038,0.018,0.074,0.023,0.112
		c0.008,0.069,0.018,0.135,0.041,0.202c0.021,0.063,0.052,0.119,0.085,0.177c0.02,0.035,0.027,0.075,0.052,0.109
		c0.011,0.015,0.028,0.019,0.04,0.033c0.019,0.024,0.029,0.055,0.05,0.077c0.056,0.053,0.128,0.086,0.194,0.125
		c0.038,0.023,0.069,0.053,0.109,0.071C35.723,43.463,35.86,43.5,36,43.5h0c0,0,0,0,0,0c0.117,0,0.232-0.026,0.344-0.067
		c0.045-0.016,0.083-0.043,0.126-0.066c0.043-0.023,0.089-0.037,0.129-0.068l4-3c0.442-0.331,0.532-0.958,0.2-1.399
		c-0.332-0.443-0.958-0.533-1.399-0.2l-1.205,0.904c-5.374-3.603-11.331,0.053-14.312,3.06L22.6,41.7
		c-0.441-0.331-1.067-0.242-1.399,0.2c-0.332,0.441-0.242,1.068,0.2,1.399l4,3c0.18,0.135,0.39,0.2,0.599,0.2
		c0.305,0,0.604-0.138,0.801-0.4c0.332-0.441,0.242-1.068-0.2-1.399l-1.083-0.812c1.801-1.695,6.499-5.413,10.973-3.005L35.4,41.7z"
		/>
	<path d="M35,24c0,3.032,2.468,5.5,5.5,5.5S46,27.032,46,24s-2.468-5.5-5.5-5.5S35,20.967,35,24z M40.5,20.5
		c1.93,0,3.5,1.57,3.5,3.5s-1.57,3.5-3.5,3.5S37,25.929,37,24S38.57,20.5,40.5,20.5z"/>
	<path d="M23,29.669c0.26,0,0.51-0.11,0.71-0.3c0.18-0.181,0.29-0.44,0.29-0.7c0-0.271-0.11-0.53-0.29-0.72
		c-0.391-0.37-1.04-0.37-1.42,0.01C22.1,28.149,22,28.399,22,28.669c0,0.26,0.1,0.52,0.29,0.7C22.479,29.559,22.74,29.669,23,29.669
		z"/>
	<path d="M21.5,33.5c3.032,0,5.5-2.468,5.5-5.5s-2.468-5.5-5.5-5.5S16,24.967,16,28S18.468,33.5,21.5,33.5z M21.5,24.5
		c1.93,0,3.5,1.57,3.5,3.5s-1.57,3.5-3.5,3.5S18,29.929,18,28S19.57,24.5,21.5,24.5z"/>
</g>
<g>
</g>
<g>
</g>
<g>
</g>
<g>
</g>
<g>
</g>
<g>
</g>
<g>
</g>
<g>
</g>
<g>
</g>
<g>
</g>
<g>
</g>
<g>
</g>
<g>
</g>
<g>
</g>
<g>
</g>
</svg>
