<?xml version="1.0" encoding="iso-8859-1"?>
<!-- Generator: Adobe Illustrator 17.1.0, SVG Export Plug-In . SVG Version: 6.00 Build 0)  -->
<!DOCTYPE svg PUBLIC "-//W3C//DTD SVG 1.1//EN" "http://www.w3.org/Graphics/SVG/1.1/DTD/svg11.dtd">
<svg version="1.1" id="Capa_1" xmlns="http://www.w3.org/2000/svg" xmlns:xlink="http://www.w3.org/1999/xlink" x="0px" y="0px"
	 viewBox="0 0 219.336 219.336" style="enable-background:new 0 0 219.336 219.336;" xml:space="preserve">
<path d="M109.726,200.293c-9.838,0-19.118-2.434-27.271-6.73c-4.746-2.213-9.912-6.109-14.396-10.629
	c-4.465-4.503-8.306-9.68-10.484-14.429c-4.175-8.062-6.534-17.209-6.534-26.896v-38.776c0-0.012,0-0.023,0-0.035V71.819
	l-14.389,18.59c-2.145,2.771-5.384,4.415-8.888,4.51c-3.48,0.083-6.828-1.373-9.118-4.025L2.816,72.571
	c-3.97-4.593-3.714-11.552,0.583-15.842l34.396-34.338c2.163-2.159,5.037-3.348,8.095-3.348h21.774
	c6.317,0,11.457,5.139,11.457,11.457c0,3.561,2.896,6.457,6.456,6.457h48.18c3.354,0,6.119-2.572,6.428-5.847
	c0.001-0.101,0.008-0.201,0.021-0.299c0.005-0.103,0.008-0.207,0.008-0.311c0-6.317,5.14-11.457,11.457-11.457h21.774
	c3.058,0,5.932,1.189,8.095,3.349l34.396,34.338c4.297,4.289,4.553,11.248,0.584,15.842l-15.831,18.322
	c-2.292,2.652-5.632,4.102-9.118,4.025c-3.504-0.095-6.743-1.738-8.889-4.51L168.41,71.968v69.641
	c0,9.767-2.398,18.983-6.637,27.093c-2.192,4.697-5.985,9.796-10.387,14.238c-4.677,4.721-9.728,8.413-14.235,10.542
	C128.961,197.829,119.626,200.293,109.726,200.293z M95.175,193.29c4.629,1.305,9.51,2.003,14.551,2.003
	c5.039,0,9.92-0.698,14.547-2.002c-4.743-5.488,1.739-17.403,10.795-26.544c7.543-7.615,16.062-12.551,21.7-12.574
	c0.015,0,0.028,0,0.042,0c2.306,0,3.802,0.793,4.714,1.568c1.229-4.504,1.887-9.243,1.887-14.132V65.257
	c-0.306-0.97,0.003-2.07,0.854-2.729c0.474-0.366,1.074-0.531,1.589-0.522c1.073-0.014,1.993,0.627,2.372,1.556l18.411,23.787
	c1.224,1.581,3.071,2.518,5.069,2.572c1.998,0.067,3.893-0.783,5.2-2.295l15.831-18.322c2.264-2.62,2.117-6.588-0.334-9.035
	L178.007,25.93c-1.219-1.217-2.838-1.887-4.562-1.887h-21.774c-3.561,0-6.457,2.896-6.457,6.457c0,0.204-0.005,0.406-0.016,0.607
	c0.562,6.597-10.296,21.132-19.911,31.727c-5.539,6.104-11.863,12.288-18.613,17.979c-0.024,0.026-0.05,0.052-0.075,0.077
	c-0.123,0.121-0.255,0.226-0.394,0.316c-3.975,3.328-8.093,6.481-12.285,9.345c0.488,0.52,0.996,1.049,1.523,1.586
	c3.372,3.439,8.16,6.939,12.046,9.546c0.346-4.857,4.408-8.703,9.352-8.703c5.169,0,9.375,4.206,9.375,9.375
	s-4.206,9.375-9.375,9.375c-1.78,0-3.447-0.499-4.866-1.365c-0.117-0.045-0.231-0.1-0.344-0.165
	c-0.515-0.297-12.701-7.366-19.758-14.563c-0.772-0.788-1.505-1.558-2.198-2.304c-11.325,7.106-22.997,11.856-33.634,12.031v36.246
	c0,4.887,0.656,9.625,1.886,14.128c1.871-1.595,5.408-2.67,11.923,0.32c4.659,2.14,9.82,5.936,14.534,10.688
	C93.451,175.89,99.94,187.809,95.175,193.29z M84.678,189.084c3.449,1.577,5.886,1.763,6.657,0.996
	c1.565-1.552-0.723-9.953-10.502-19.814c-4.301-4.337-8.942-7.77-13.07-9.665c-3.618-1.661-5.951-1.701-6.654-1.001
	c-0.777,0.771-0.605,3.226,0.96,6.71C67.111,176.002,75.027,183.971,84.678,189.084z M156.811,159.172c-0.007,0-0.015,0-0.021,0
	c-3.473,0.014-10.64,3.492-18.169,11.093c-9.775,9.868-12.062,18.275-10.496,19.829c0.354,0.351,1.019,0.406,1.541,0.42
	c1.259-0.005,3.003-0.465,5.073-1.412c9.61-5.082,17.502-12.996,22.556-22.623c1.636-3.578,1.826-6.104,1.036-6.888
	C157.981,159.246,157.316,159.172,156.811,159.172z M116.841,97.979c-2.412,0-4.375,1.962-4.375,4.375s1.963,4.375,4.375,4.375
	s4.375-1.962,4.375-4.375S119.253,97.979,116.841,97.979z M56.041,64.532v35.833c9.484-0.153,19.987-4.378,30.313-10.774
	c-1.768-2.085-3.111-3.83-4.014-5.056c-0.901,0.295-1.935,0.057-2.618-0.69l-6.911-7.552c-4.684-5.119-4.33-13.094,0.789-17.778
	c5.119-4.686,13.095-4.331,17.778,0.788l0,0l6.91,7.552c0.649,0.71,0.813,1.693,0.506,2.54L105,75.701
	c5.979-5.177,11.601-10.736,16.585-16.229c5.668-6.245,9.948-11.755,12.969-16.227c-0.613,0.123-1.273,0.018-1.84-0.346
	c-0.38-0.243-0.671-0.571-0.866-0.943h-46.27c-6.316,0-11.456-5.14-11.456-11.457c0-3.56-2.896-6.457-6.457-6.457H45.891
	c-1.724,0-3.343,0.67-4.562,1.887L6.933,60.268c-2.451,2.446-2.597,6.415-0.333,9.034l15.83,18.323
	c1.308,1.512,3.206,2.359,5.2,2.295c1.998-0.054,3.846-0.991,5.068-2.572l18.85-24.353c0.03-0.04,0.061-0.078,0.093-0.115
	c0.226-0.264,0.495-0.47,0.789-0.616c0.304-0.151,0.644-0.242,1.002-0.257c0.307-0.018,0.62,0.029,0.918,0.131
	c0.001,0,0.001,0,0.001,0c0.003,0.001,0.008,0.002,0.008,0.002c0.004,0.001,0.006,0.002,0.008,0.003c0.001,0,0.001,0,0.002,0
	c0.292,0.102,0.559,0.257,0.789,0.453c0.272,0.23,0.484,0.508,0.632,0.812c0.145,0.295,0.231,0.623,0.249,0.97
	C56.04,64.43,56.042,64.48,56.041,64.532z M86.187,81.319c0.901,1.233,2.383,3.171,4.401,5.524
	c3.585-2.432,7.125-5.096,10.575-7.913l-5.859-5.955L86.187,81.319z M82.092,60.219c-1.829,0-3.663,0.656-5.116,1.985
	c-3.085,2.823-3.298,7.629-0.475,10.714l5.223,5.707l11.188-10.239l-5.223-5.707C86.196,61.047,84.148,60.219,82.092,60.219z"/>
<g>
</g>
<g>
</g>
<g>
</g>
<g>
</g>
<g>
</g>
<g>
</g>
<g>
</g>
<g>
</g>
<g>
</g>
<g>
</g>
<g>
</g>
<g>
</g>
<g>
</g>
<g>
</g>
<g>
</g>
</svg>
