<?xml version="1.0" encoding="iso-8859-1"?>
<!-- Generator: Adobe Illustrator 19.0.0, SVG Export Plug-In . SVG Version: 6.00 Build 0)  -->
<svg version="1.1" id="Layer_1" xmlns="http://www.w3.org/2000/svg" xmlns:xlink="http://www.w3.org/1999/xlink" x="0px" y="0px"
	 viewBox="0 0 512.005 512.005" style="enable-background:new 0 0 512.005 512.005;" xml:space="preserve">
<g>
	<g>
		<g>
			<path d="M8.533,221.707v34.295c0,4.71,3.823,8.533,8.533,8.533s8.533-3.823,8.533-8.533v-43.793l8.533-5.683l8.533,5.683v43.793
				c0,4.71,3.823,8.533,8.533,8.533s8.533-3.823,8.533-8.533v-34.133c2.756,0,5.453-1.34,7.1-3.797
				c2.611-3.925,1.553-9.225-2.364-11.836l-21.803-14.532v-12.501c0-4.71-3.823-8.533-8.533-8.533c-4.71,0-8.533,3.823-8.533,8.533
				v12.501L3.797,206.236c-3.917,2.611-4.975,7.91-2.364,11.836C3.072,220.529,5.777,221.698,8.533,221.707z"/>
			<path d="M179.2,238.936h153.6c2.27,0,4.437-0.896,6.033-2.5c1.843-1.843,11.034-12.433,11.034-40.166
				c0-29.892-36.309-64.751-85.333-82.79V59.736c0-4.71-3.823-8.533-8.533-8.533s-8.533,3.823-8.533,8.533v53.743
				c-49.024,18.039-85.333,52.898-85.333,82.79c0,27.733,9.19,38.323,11.034,40.166C174.763,238.04,176.939,238.936,179.2,238.936z
				 M256,128.489c47.514,16.623,76.8,47.855,76.8,67.78c0,13.935-2.756,21.854-4.608,25.6H183.808
				c-1.852-3.746-4.608-11.665-4.608-25.6C179.2,176.344,208.486,145.112,256,128.489z"/>
			<path d="M452.267,221.707v34.295c0,4.71,3.814,8.533,8.533,8.533c4.719,0,8.533-3.823,8.533-8.533v-43.793l8.533-5.683
				l8.533,5.683v43.793c0,4.71,3.814,8.533,8.533,8.533s8.533-3.823,8.533-8.533v-34.133c2.756,0,5.461-1.34,7.1-3.797
				c2.62-3.925,1.562-9.225-2.364-11.836L486.4,191.704v-12.501c0-4.71-3.814-8.533-8.533-8.533s-8.533,3.823-8.533,8.533v12.501
				l-21.803,14.532c-3.925,2.611-4.983,7.91-2.364,11.836C446.805,220.529,449.51,221.707,452.267,221.707z"/>
			<path d="M512,366.936c0-4.71-3.814-8.533-8.533-8.533h-51.2c-4.719,0-8.533,3.823-8.533,8.533s3.814,8.533,8.533,8.533v68.267
				H435.2v-179.2c0-4.71-3.814-8.533-8.533-8.533s-8.533,3.823-8.533,8.533v8.533H406.75c-8.098-17.698-23.006-27.17-31.283-31.215
				v-28.518c0-4.71-3.814-8.533-8.533-8.533s-8.533,3.823-8.533,8.533v34.133c0,3.678,2.347,6.929,5.837,8.098
				c0.171,0.06,13.833,4.779,22.955,17.502h-62.925v-17.067c0-4.71-3.814-8.533-8.533-8.533s-8.533,3.823-8.533,8.533v25.6
				c0,4.71,3.814,8.533,8.533,8.533h85.308h0.026h0.026h17.041v153.6H409.6v-34.133c0-4.71-3.814-8.533-8.533-8.533
				c-4.719,0-8.533,3.823-8.533,8.533v34.133h-17.067v-25.6c0-12.809-16.674-22.144-21.786-24.704c-2.398-1.195-5.231-1.195-7.629,0
				c-5.112,2.56-21.786,11.896-21.786,24.704v25.6H307.2v-128c0-21.197-36.77-37.547-48.026-42.061
				c-2.048-0.802-4.301-0.802-6.349,0c-11.264,4.514-48.026,20.864-48.026,42.061v128h-17.067v-25.6
				c0-12.809-16.674-22.144-21.786-24.704c-2.398-1.195-5.231-1.195-7.629,0c-5.111,2.56-21.786,11.896-21.786,24.704v25.6h-17.067
				v-34.133c0-4.71-3.823-8.533-8.533-8.533s-8.533,3.823-8.533,8.533v34.133h-8.533v-153.6h17.041h0.026h0.026h85.308
				c4.71,0,8.533-3.823,8.533-8.533v-25.6c0-4.71-3.823-8.533-8.533-8.533s-8.533,3.823-8.533,8.533v17.067h-62.891
				c9.122-12.595,22.776-17.451,22.921-17.502c3.49-1.169,5.837-4.42,5.837-8.098v-34.133c0-4.71-3.823-8.533-8.533-8.533
				c-4.71,0-8.533,3.823-8.533,8.533v28.518c-8.269,4.045-23.177,13.517-31.292,31.215H93.867v-8.533
				c0-4.71-3.823-8.533-8.533-8.533c-4.71,0-8.533,3.823-8.533,8.533v179.2H59.733v-68.267c4.71,0,8.533-3.823,8.533-8.533
				s-3.823-8.533-8.533-8.533h-51.2c-4.71,0-8.533,3.823-8.533,8.533s3.823,8.533,8.533,8.533v68.267
				c-4.71,0-8.533,3.823-8.533,8.533s3.823,8.533,8.533,8.533h494.933c4.719,0,8.533-3.823,8.533-8.533s-3.814-8.533-8.533-8.533
				v-68.267C508.186,375.469,512,371.646,512,366.936z M42.667,443.736H25.6v-68.267h17.067V443.736z M170.667,443.736h-17.075
				l-0.034-25.225c0.503-1.638,4.301-4.924,8.576-7.637c4.284,2.697,8.055,5.905,8.533,7.262V443.736z M290.133,443.736h-68.267
				v-128c0-5.564,15.898-17.041,34.133-24.892c18.236,7.851,34.133,19.328,34.133,24.892V443.736z M358.4,443.736h-17.075
				l-0.034-25.225c0.512-1.638,4.292-4.924,8.576-7.637c4.284,2.697,8.055,5.905,8.533,7.262V443.736z M486.4,443.736h-17.067
				v-68.267H486.4V443.736z"/>
			<path d="M8.533,290.136v51.2c0,4.71,3.823,8.533,8.533,8.533s8.533-3.823,8.533-8.533v-51.2h17.067v51.2
				c0,4.71,3.823,8.533,8.533,8.533s8.533-3.823,8.533-8.533v-51.2c4.71,0,8.533-3.823,8.533-8.533s-3.823-8.533-8.533-8.533h-51.2
				c-4.71,0-8.533,3.823-8.533,8.533S3.823,290.136,8.533,290.136z"/>
			<path d="M102.4,324.269v42.667c0,4.71,3.823,8.533,8.533,8.533s8.533-3.823,8.533-8.533v-42.667c0-4.71-3.823-8.533-8.533-8.533
				S102.4,319.559,102.4,324.269z"/>
			<path d="M179.2,375.469c4.71,0,8.533-3.823,8.533-8.533v-34.133c0-12.809-16.674-22.144-21.786-24.704
				c-2.398-1.195-5.231-1.195-7.629,0c-5.111,2.56-21.786,11.895-21.786,24.704v34.133c0,4.71,3.823,8.533,8.533,8.533
				c4.71,0,8.533-3.823,8.533-8.533l-0.043-33.758c0.503-1.638,4.301-4.924,8.576-7.637c4.284,2.697,8.055,5.905,8.533,7.262v34.133
				C170.667,371.646,174.49,375.469,179.2,375.469z"/>
			<path d="M366.933,375.469c4.719,0,8.533-3.823,8.533-8.533v-34.133c0-12.809-16.674-22.144-21.786-24.704
				c-2.398-1.195-5.231-1.195-7.629,0c-5.112,2.56-21.786,11.895-21.786,24.704v34.133c0,4.71,3.814,8.533,8.533,8.533
				c4.719,0,8.533-3.823,8.533-8.533l-0.043-33.758c0.512-1.638,4.292-4.924,8.576-7.637c4.284,2.697,8.055,5.905,8.533,7.262
				v34.133C358.4,371.646,362.214,375.469,366.933,375.469z"/>
			<path d="M401.067,375.469c4.719,0,8.533-3.823,8.533-8.533v-42.667c0-4.71-3.814-8.533-8.533-8.533
				c-4.719,0-8.533,3.823-8.533,8.533v42.667C392.533,371.646,396.348,375.469,401.067,375.469z"/>
			<path d="M503.467,273.069h-51.2c-4.719,0-8.533,3.823-8.533,8.533s3.814,8.533,8.533,8.533v51.2c0,4.71,3.814,8.533,8.533,8.533
				c4.719,0,8.533-3.823,8.533-8.533v-51.2H486.4v51.2c0,4.71,3.814,8.533,8.533,8.533s8.533-3.823,8.533-8.533v-51.2
				c4.719,0,8.533-3.823,8.533-8.533S508.186,273.069,503.467,273.069z"/>
		</g>
	</g>
</g>
<g>
</g>
<g>
</g>
<g>
</g>
<g>
</g>
<g>
</g>
<g>
</g>
<g>
</g>
<g>
</g>
<g>
</g>
<g>
</g>
<g>
</g>
<g>
</g>
<g>
</g>
<g>
</g>
<g>
</g>
</svg>
