<?xml version="1.0" encoding="iso-8859-1"?>
<!-- Generator: Adobe Illustrator 19.0.0, SVG Export Plug-In . SVG Version: 6.00 Build 0)  -->
<svg version="1.1" id="Capa_1" xmlns="http://www.w3.org/2000/svg" xmlns:xlink="http://www.w3.org/1999/xlink" x="0px" y="0px"
	 viewBox="0 0 463 463" style="enable-background:new 0 0 463 463;" xml:space="preserve">
<g>
	<path d="M383.5,88H375V31.5c0-4.142-3.358-7.5-7.5-7.5s-7.5,3.358-7.5,7.5V88h-8.5c-8.547,0-15.5,6.953-15.5,15.5v16
		c0,5.827,3.235,10.908,8,13.555V175.5c0,10.336,6.71,19.128,16,22.266V423.5c0,13.509-10.991,24.5-24.5,24.5h-112
		c-10.894,0-20.145-7.149-23.321-17h2.205c11.163,0,20.854-7.945,23.043-18.892L229.649,391H287.5c17.369,0,31.5-14.131,31.5-31.5
		v-304c0-17.369-14.131-31.5-31.5-31.5H263v-0.5C263,10.542,252.458,0,239.5,0h-16C210.542,0,200,10.542,200,23.5V24h-17v-0.5
		C183,10.542,172.458,0,159.5,0h-16C130.542,0,120,10.542,120,23.5V24H95.5C78.131,24,64,38.131,64,55.5v304
		c0,17.369,14.131,31.5,31.5,31.5h57.851l4.222,21.108c2.189,10.946,11.88,18.892,23.043,18.892h4.107
		c3.515,18.205,19.561,32,38.777,32h112c21.78,0,39.5-17.72,39.5-39.5V197.766c9.29-3.138,16-11.93,16-22.266v-42.445
		c4.765-2.647,8-7.728,8-13.555v-16C399,94.953,392.047,88,383.5,88z M215,23.5c0-4.687,3.813-8.5,8.5-8.5h16
		c4.687,0,8.5,3.813,8.5,8.5V24h-33V23.5z M135,23.5c0-4.687,3.813-8.5,8.5-8.5h16c4.687,0,8.5,3.813,8.5,8.5V24h-33V23.5z
		 M79,359.5v-304C79,46.402,86.402,39,95.5,39h192c9.098,0,16.5,7.402,16.5,16.5v304c0,9.098-7.402,16.5-16.5,16.5h-192
		C86.402,376,79,368.598,79,359.5z M172.282,409.167L168.648,391h45.703l-3.634,18.167c-0.792,3.959-4.297,6.833-8.334,6.833
		h-21.767C176.579,416,173.074,413.126,172.282,409.167z M351,103.5c0-0.276,0.224-0.5,0.5-0.5h32c0.276,0,0.5,0.224,0.5,0.5v16
		c0,0.276-0.224,0.5-0.5,0.5h-32c-0.276,0-0.5-0.224-0.5-0.5V103.5z M376,175.5c0,4.687-3.813,8.5-8.5,8.5s-8.5-3.813-8.5-8.5V135
		h17V175.5z"/>
	<path d="M183,311.5c0-14.785-10.241-27.216-24-30.591V271.5c0-4.142-3.358-7.5-7.5-7.5s-7.5,3.358-7.5,7.5v9.409
		c-13.759,3.374-24,15.806-24,30.591c0,17.369,14.131,31.5,31.5,31.5S183,328.869,183,311.5z M151.5,328
		c-9.098,0-16.5-7.402-16.5-16.5c0-6.396,3.666-11.942,9-14.678V311.5c0,4.142,3.358,7.5,7.5,7.5s7.5-3.358,7.5-7.5v-14.678
		c5.334,2.737,9,8.282,9,14.678C168,320.598,160.598,328,151.5,328z"/>
	<path d="M231.5,280c-17.369,0-31.5,14.131-31.5,31.5c0,14.785,10.241,27.216,24,30.591v9.409c0,4.142,3.358,7.5,7.5,7.5
		s7.5-3.358,7.5-7.5v-9.409c13.759-3.374,24-15.806,24-30.591C263,294.131,248.869,280,231.5,280z M239,326.178V311.5
		c0-4.142-3.358-7.5-7.5-7.5s-7.5,3.358-7.5,7.5v14.678c-5.334-2.737-9-8.282-9-14.678c0-9.098,7.402-16.5,16.5-16.5
		s16.5,7.402,16.5,16.5C248,317.896,244.334,323.442,239,326.178z"/>
	<path d="M191.5,239c48.248,0,87.5-39.252,87.5-87.5S239.748,64,191.5,64S104,103.252,104,151.5S143.252,239,191.5,239z
		 M145.842,207.764l6.161-6.161c2.929-2.929,2.929-7.678,0-10.606c-2.929-2.929-7.678-2.929-10.606,0l-6.161,6.161
		c-8.657-10.647-14.364-23.783-15.849-38.157h8.113c4.142,0,7.5-3.358,7.5-7.5s-3.358-7.5-7.5-7.5h-8.113
		c1.484-14.375,7.192-27.51,15.849-38.157l6.161,6.161c1.464,1.464,3.384,2.197,5.303,2.197s3.839-0.732,5.303-2.197
		c2.929-2.929,2.929-7.678,0-10.606l-6.161-6.161C156.49,86.579,169.626,80.872,184,79.387V87.5c0,4.142,3.358,7.5,7.5,7.5
		s7.5-3.358,7.5-7.5v-8.113c14.374,1.484,27.51,7.192,38.158,15.849l-6.161,6.161c-2.929,2.929-2.929,7.678,0,10.606
		c1.464,1.464,3.384,2.197,5.303,2.197s3.839-0.732,5.303-2.197l6.161-6.161c8.657,10.647,14.364,23.783,15.849,38.157H255.5
		c-4.142,0-7.5,3.358-7.5,7.5s3.358,7.5,7.5,7.5h8.113c-1.484,14.375-7.192,27.51-15.849,38.157l-6.161-6.161
		c-2.929-2.929-7.678-2.929-10.606,0c-2.929,2.929-2.929,7.678,0,10.606l6.161,6.161C224.683,217.906,208.792,224,191.5,224
		S158.317,217.906,145.842,207.764z"/>
	<path d="M214.147,94.881c-3.848-1.541-8.21,0.332-9.749,4.178l-11.591,28.979c-0.433-0.024-0.868-0.038-1.307-0.038
		c-12.958,0-23.5,10.542-23.5,23.5s10.542,23.5,23.5,23.5s23.5-10.542,23.5-23.5c0-7.152-3.215-13.563-8.272-17.877l11.597-28.993
		C219.864,100.784,217.993,96.419,214.147,94.881z M191.5,160c-4.687,0-8.5-3.813-8.5-8.5s3.813-8.5,8.5-8.5s8.5,3.813,8.5,8.5
		S196.187,160,191.5,160z"/>
</g>
<g>
</g>
<g>
</g>
<g>
</g>
<g>
</g>
<g>
</g>
<g>
</g>
<g>
</g>
<g>
</g>
<g>
</g>
<g>
</g>
<g>
</g>
<g>
</g>
<g>
</g>
<g>
</g>
<g>
</g>
</svg>
