<?xml version='1.0' encoding='iso-8859-1'?>
<svg version="1.1" xmlns="http://www.w3.org/2000/svg" viewBox="0 0 322.721 322.721" xmlns:xlink="http://www.w3.org/1999/xlink" enable-background="new 0 0 322.721 322.721">
  <g>
    <g>
      <circle cx="78.323" cy="37.175" r="27.59"/>
      <path d="m140.568,133.24l-43.164-2.547-20.406-35.022 18.333,18.301 2.374-11.735c2.041-10.089-4.483-19.922-14.572-21.964l-32.542-6.584c-10.097-2.043-19.946,4.502-21.97,14.606l-12.918,64.473c-2.125,10.607 0.618,21.608 7.475,29.975 5.398,6.587 12.9,10.982 21.125,12.559h-29.303c-8.284,0-15,6.716-15,15s6.716,15 15,15h36.988v72.833c0,8.284 6.716,15 15,15s15-6.716 15-15v-72.833h6.062c8.284,0 15-6.716 15-15 0-6.975-4.768-12.821-11.218-14.5 8.547,0 15.099,0 23.823,0 0,6.235 0,62.112 0,68 0,8.284 6.716,15 15,15s15-6.716 15-15c0-8.489 0-72.457 0-83 0-3.924-1.519-7.484-3.985-10.157-1.088,0.079-2.193,0.095-3.312,0.029l-49.854-2.943c-5.407-0.319-7.866-0.197-11.428-1.929-4.238-2.061-7.435-5.877-8.7-10.442l-12.977-47.099 23.778,40.808c2.108,3.617 5.886,5.939 10.065,6.186l49.854,2.942c6.908,0.403 12.808-4.863 13.215-11.742 0.406-6.892-4.851-12.808-11.743-13.215z"/>
      <path d="m286.621,200.303c18.653,0 18.014-0.066 20,0.197v-120.686l.381-.17c5.045-2.247 7.315-8.157 5.068-13.203-2.247-5.044-8.156-7.313-13.203-5.068-5.251,2.338-135.899,60.506-144.223,64.211 5.52,4.069 9.273,10.334 10.038,17.424l121.939-54.29v111.585z"/>
      <path d="m303.721,212.303h-86.36-0.001c-5.523,0-10,4.477-10,10 0,5.522 4.477,10 10,10h0.001 86.359c5.522,0 10-4.478 10-10 0.001-5.522-4.477-10-9.999-10z"/>
      <path d="m261.883,254.22c0-5.106-3.83-9.31-8.772-9.917-0.403-0.05-0.811-0.083-1.228-0.083-10.256,0-61.1,0-71.333,0-5.523,0-10,4.478-10,10 0,5.523 4.477,10 10,10h71.333c5.522,0 10-4.477 10-10z"/>
      <path d="m312.721,275.471h-71.333c-5.522,0-10,4.478-10,10s4.478,10 10,10h71.333c5.522,0 10-4.478 10-10s-4.478-10-10-10z"/>
    </g>
  </g>
</svg>
