<?xml version="1.0" encoding="iso-8859-1"?>
<!-- Generator: Adobe Illustrator 16.0.0, SVG Export Plug-In . SVG Version: 6.00 Build 0)  -->
<!DOCTYPE svg PUBLIC "-//W3C//DTD SVG 1.1//EN" "http://www.w3.org/Graphics/SVG/1.1/DTD/svg11.dtd">
<svg version="1.1" id="Capa_1" xmlns="http://www.w3.org/2000/svg" xmlns:xlink="http://www.w3.org/1999/xlink" x="0px" y="0px"
	 width="550.847px" height="550.848px" viewBox="0 0 550.847 550.848" style="enable-background:new 0 0 550.847 550.848;"
	 xml:space="preserve">
<g>
	<path d="M351.787,187.617c0,5.403,20.406,29.108,45.01-10.088c25.207-44.294-30.609-85.336-63.017-72.742
		c-32.407,12.604-45.011,37.811-42.313,64.814c-5.403,24.309,71.116,128.73,57.613,185.446
		c-1.797-18.007-36.012-82.821-63.017-150.342c-27.004-67.521-1.349-88.224-1.349-88.224s42.764-6.751,29.262-48.167
		C300.474,26.93,326.58,4.869,318.031,0.364c-8.549-4.504-45.919,34.215-45.919,34.215c-22.061-10.355-40.966,0-40.966,0
		c-29.71-29.71-44.112-34.205-44.112-34.205c-9.907,5.403,17.557,30.16,9.907,70.218c-7.65,40.058,12.154,40.058,26.106,46.809
		c9.907,21.602,12.603,62.118-53.11,196.251c-65.713,134.134,33.708,219.44,48.616,230.456c17.595,12.996,34.128-0.554,34.128-0.554
		c8.999,12.603,32.493,5.049,32.493,5.049C393.202,499.088,386,368.56,374.296,321.741
		c-11.705-46.809-72.321-142.835-60.015-174.946c12.308-32.11,56.113-27.004,63.619,1.798
		C385.398,177.414,351.787,182.215,351.787,187.617z"/>
</g>
<g>
</g>
<g>
</g>
<g>
</g>
<g>
</g>
<g>
</g>
<g>
</g>
<g>
</g>
<g>
</g>
<g>
</g>
<g>
</g>
<g>
</g>
<g>
</g>
<g>
</g>
<g>
</g>
<g>
</g>
</svg>
