<?xml version="1.0" encoding="iso-8859-1"?>
<!-- Generator: Adobe Illustrator 18.0.0, SVG Export Plug-In . SVG Version: 6.00 Build 0)  -->
<!DOCTYPE svg PUBLIC "-//W3C//DTD SVG 1.1//EN" "http://www.w3.org/Graphics/SVG/1.1/DTD/svg11.dtd">
<svg version="1.1" id="Capa_1" xmlns="http://www.w3.org/2000/svg" xmlns:xlink="http://www.w3.org/1999/xlink" x="0px" y="0px"
	 viewBox="0 0 485.41 485.41" style="enable-background:new 0 0 485.41 485.41;" xml:space="preserve">
<path d="M484.58,293.275c-1.356-2.488-4.148-3.853-6.94-3.394c-7.495,1.241-15.73,1.61-24.362,0.86
	c-21.204-1.855-39.08-9.72-48.564-19.902c30.169-15.283,49.953-31.205,58.504-38.8c2.857-2.548,3.285-6.881,0.963-9.933
	c-17.273-22.76-91.686-109.958-217.405-109.958c-46.2,0-123.577,32.1-144.909,75.199c-9.261-2.857-19.5-4.577-30.436-4.577
	C31.983,182.77,0,203.529,0,229.143c0,25.617,31.983,46.366,71.43,46.366c21.109,0,39.887-6.06,52.952-15.502
	c9.025,7.818,19.583,14.916,31.019,21.11c-7.146,26.129,22.248,61.236,68.163,80.201c36.179,14.934,72.2,15.548,92.383,3.615
	c3.202-1.901,4.872-5.626,4.147-9.294c-0.725-3.668-3.692-6.479-7.398-7.005c-9.895-1.404-20.388-4.197-30.929-8.551
	c-20.161-8.324-36.4-20.436-46.355-33.184c3.946,0.38,7.763,0.608,11.363,0.608c41.244,0,76.935-6.682,107.037-16.1
	c10.274,14.199,33.734,25.522,62.088,27.988c29.63,2.581,55.886-5.181,67.801-18.427
	C485.591,298.851,485.957,295.767,484.58,293.275z"/>
<g>
</g>
<g>
</g>
<g>
</g>
<g>
</g>
<g>
</g>
<g>
</g>
<g>
</g>
<g>
</g>
<g>
</g>
<g>
</g>
<g>
</g>
<g>
</g>
<g>
</g>
<g>
</g>
<g>
</g>
</svg>
