<?xml version='1.0' encoding='iso-8859-1'?>
<svg version="1.1" xmlns="http://www.w3.org/2000/svg" viewBox="0 0 304.355 304.355" xmlns:xlink="http://www.w3.org/1999/xlink" enable-background="new 0 0 304.355 304.355">
  <g>
    <g>
      <path d="m117.614,227.174c3.314-11.111 6.529-21.887 9.828-32.947-12.962-4.976-24.337-9.342-39.172-15.037l-10.967,21.545c-4.648-1.341-9.551-2.075-14.625-2.075-29.141,0-52.848,23.707-52.848,52.848 0,29.14 23.707,52.847 52.847,52.847 25.123,0 46.193-17.626 51.529-41.158-5.053-10.503-1.721-18.828-0.159-24.065-2.843-11.798-9.65-22.06-18.933-29.301l8.436-16.572 14.064,33.915zm-54.937,57.181c-18.112,0-32.847-14.736-32.847-32.847 0-18.112 14.735-32.848 32.847-32.848 1.798,0 3.561,0.151 5.281,0.43l-14.193,27.881c-3.379,6.638 1.449,14.536 8.912,14.536h31.286c-4.241,13.237-16.66,22.848-31.286,22.848zm31.286-42.847h-14.975l6.785-13.329c3.716,3.678 6.558,8.235 8.19,13.329z"/>
      <path d="m228.018,141.052l7.028-1.462c5.407-1.125 8.878-6.42 7.753-11.827-1.124-5.406-6.421-8.884-11.827-7.753l-15.102,3.142c6.564,3.815 11.026,10.447 12.148,17.9z"/>
      <path d="m165.84,163.978c-15.546-5.968-11.384-4.7-20.699-6.823-8.672-1.976-13.196-7.845-13.912-14.62l-5.06-48.597 16.749,44.164c1.484,3.914 4.829,6.825 8.91,7.755l48.692,11.097c6.736,1.534 13.431-2.683 14.965-9.41 1.534-6.73-2.679-13.431-9.41-14.965l-42.158-9.607-14.374-37.899 15.077,21.066 4.271-11.185c3.672-9.616-1.147-20.388-10.764-24.06l-31.05-11.856c-9.616-3.672-20.388,1.147-24.06,10.763l-22.625,59.254c-2.64,6.915-2.872,14.655-0.375,21.926-1.68,0-5.753-0.36-9.065,3.39-1.557,1.763-2.51,4.073-2.51,6.61 0,5.614 4.599,10 10,10h21.491l42.185,16.025-17.962,60.213c-2.368,7.939 2.147,16.294 10.086,18.662 7.939,2.368 16.294-2.148 18.662-10.086l21.934-73.526c2.241-7.511-1.68-15.482-8.998-18.291z"/>
      <circle cx="160.464" cy="27.59" r="27.59"/>
      <path d="m241.677,198.66c-2.328,0-4.617,0.168-6.866,0.461l-12.618-37.982c-5.924,6.826-15.236,10.103-24.45,8.003l-13.051-2.974c2.367,4.853 3.299,10.404 2.45,15.94l20.023-2.287 .434,1.23-26.432,21.986-10.322,34.6 43.631-36.292 1.359,4.09c-16.101,9.068-27.005,26.316-27.005,46.073 0,29.14 23.707,52.847 52.847,52.847 29.141,0 52.848-23.707 52.848-52.847-0.001-29.141-23.708-52.848-52.848-52.848zm0,85.695c-18.111,0-32.847-14.735-32.847-32.847 0-10.882 5.323-20.54 13.498-26.521l9.858,29.673c1.743,5.246 7.407,8.078 12.643,6.338 5.241-1.741 8.079-7.401 6.338-12.643l-9.862-29.686c0.124-0.001 0.247-0.01 0.372-0.01 18.112,0 32.848,14.735 32.848,32.848-0.001,18.112-14.736,32.848-32.848,32.848z"/>
    </g>
  </g>
</svg>
