<?xml version="1.0" encoding="iso-8859-1"?>
<!-- Generator: Adobe Illustrator 18.0.0, SVG Export Plug-In . SVG Version: 6.00 Build 0)  -->
<!DOCTYPE svg PUBLIC "-//W3C//DTD SVG 1.1//EN" "http://www.w3.org/Graphics/SVG/1.1/DTD/svg11.dtd">
<svg version="1.1" id="Capa_1" xmlns="http://www.w3.org/2000/svg" xmlns:xlink="http://www.w3.org/1999/xlink" x="0px" y="0px"
	 viewBox="0 0 49 49" style="enable-background:new 0 0 49 49;" xml:space="preserve">
<g>
	<path d="M32,32.662c-0.553,0-1,0.447-1,1c0,3.309-2.691,6-6,6s-6-2.691-6-6c0-0.553-0.447-1-1-1s-1,0.447-1,1c0,4.411,3.589,8,8,8
		s8-3.589,8-8C33,33.109,32.553,32.662,32,32.662z"/>
	<circle cx="18" cy="26.662" r="2"/>
	<circle cx="32" cy="26.662" r="2"/>
	<path d="M45.888,19.976c-0.055-0.273-0.133-0.535-0.197-0.804c-0.065-0.27-0.124-0.542-0.198-0.808
		c-0.115-0.415-0.251-0.818-0.389-1.22c-0.065-0.19-0.123-0.383-0.194-0.571c-0.177-0.474-0.375-0.933-0.582-1.388
		c-0.051-0.112-0.096-0.228-0.149-0.339c-0.228-0.48-0.478-0.946-0.739-1.403c-0.051-0.091-0.097-0.185-0.15-0.274
		c-0.23-0.39-0.479-0.764-0.731-1.136c-0.111-0.165-0.216-0.336-0.331-0.498c-0.136-0.189-0.284-0.367-0.426-0.551
		c-4.045-5.298-10.399-8.646-17.459-8.646c-8.297,0-15.623,4.778-19.254,11.969c-0.062,0.122-0.129,0.24-0.19,0.364
		c-0.164,0.341-0.311,0.693-0.458,1.044c-0.108,0.255-0.22,0.506-0.318,0.766c-0.11,0.293-0.204,0.594-0.303,0.893
		c-0.105,0.317-0.212,0.633-0.303,0.957c-0.082,0.294-0.149,0.595-0.22,0.895c-0.059,0.251-0.133,0.495-0.184,0.749
		C1.306,20.954,0,23.084,0,25.162c0,2.153,1.269,4.089,3.208,4.979C5.704,39.896,14.386,46.662,24.5,46.662
		c10.115,0,18.797-6.767,21.292-16.521c1.94-0.89,3.208-2.825,3.208-4.979C49,23.084,47.694,20.954,45.888,19.976z M5.286,19.48
		c0.067-0.27,0.14-0.538,0.217-0.803c0.089-0.305,0.184-0.606,0.286-0.903c0.079-0.23,0.162-0.458,0.248-0.684
		c0.134-0.348,0.276-0.691,0.428-1.028c0.065-0.145,0.131-0.29,0.2-0.433C9.87,8.978,16.605,4.662,24.5,4.662
		c6.126,0,11.556,2.596,15.181,6.865c0.007,0.008,0.013,0.016,0.02,0.025c0.31,0.367,0.602,0.751,0.885,1.141
		c0.128,0.178,0.25,0.361,0.372,0.543c0.167,0.248,0.33,0.499,0.485,0.755c0.164,0.272,0.319,0.55,0.471,0.83
		c0.109,0.201,0.217,0.402,0.319,0.608c0.153,0.309,0.296,0.625,0.434,0.944c0.09,0.208,0.179,0.416,0.262,0.628
		c0.121,0.309,0.232,0.623,0.338,0.94c0.082,0.245,0.162,0.492,0.235,0.742c0.086,0.292,0.162,0.589,0.235,0.886
		c0.037,0.154,0.069,0.309,0.103,0.464c-4.086,1.32-7.132-1.615-9.008-4.408c-0.34-0.506-0.879-0.849-1.479-0.94
		c-0.614-0.091-1.245,0.078-1.733,0.468c-9.306,7.435-22.769,5.458-26.424,4.742C5.224,19.758,5.252,19.617,5.286,19.48z
		 M44.62,28.458c-0.327,0.111-0.574,0.384-0.652,0.721C41.86,38.295,33.855,44.662,24.5,44.662c-9.354,0-17.359-6.367-19.468-15.483
		c-0.078-0.337-0.325-0.609-0.652-0.721C2.956,27.974,2,26.648,2,25.162c0-1.354,0.932-2.83,2.119-3.444
		c1.15,0.264,4.777,1.002,9.407,1.002c5.855,0,13.306-1.183,19.34-6.003c0.073-0.06,0.148-0.058,0.181-0.054
		c0.078,0.013,0.112,0.063,0.123,0.079c3.301,4.917,7.47,6.674,11.78,5.011c1.154,0.635,2.05,2.08,2.05,3.408
		C47,26.648,46.044,27.974,44.62,28.458z"/>
</g>
<g>
</g>
<g>
</g>
<g>
</g>
<g>
</g>
<g>
</g>
<g>
</g>
<g>
</g>
<g>
</g>
<g>
</g>
<g>
</g>
<g>
</g>
<g>
</g>
<g>
</g>
<g>
</g>
<g>
</g>
</svg>
