<?xml version="1.0" encoding="iso-8859-1"?>
<!-- Generator: Adobe Illustrator 16.0.0, SVG Export Plug-In . SVG Version: 6.00 Build 0)  -->
<!DOCTYPE svg PUBLIC "-//W3C//DTD SVG 1.1//EN" "http://www.w3.org/Graphics/SVG/1.1/DTD/svg11.dtd">
<svg version="1.1" id="Capa_1" xmlns="http://www.w3.org/2000/svg" xmlns:xlink="http://www.w3.org/1999/xlink" x="0px" y="0px"
	 width="77.333px" height="77.332px" viewBox="0 0 77.333 77.332" style="enable-background:new 0 0 77.333 77.332;"
	 xml:space="preserve">
<g>
	<path d="M38.665,18.225c-16.899,0-30.647,13.75-30.647,30.65c0,12.326,7.332,23.401,18.679,28.221l0.56,0.236h22.818l0.561-0.236
		c11.347-4.818,18.679-15.895,18.679-28.221C69.312,31.975,55.564,18.225,38.665,18.225z M48.842,71.363H28.488
		c-8.828-3.998-14.501-12.761-14.501-22.488c0-13.607,11.07-24.678,24.678-24.678c0.288,0,0.573,0.012,0.859,0.021
		c1.574,4.85,3.255,9.691,4.112,14.717c0.616,3.617,0.548,7.226,0.041,10.787c-0.386,0.293-0.763,0.617-1.121,0.99
		c-6.373,6.6-24.982,0-24.982,0c0,8.727,5.299,16.213,12.854,19.422H46.9c7.556-3.209,12.854-10.695,12.854-19.422
		c0,0-7.889-4.805-14.161-2.105c0.331-3.098,0.331-6.229-0.113-9.397c-0.714-5.072-2.411-9.971-4.021-14.851
		c12.295,1.394,21.884,11.853,21.884,24.517C63.343,58.602,57.67,67.365,48.842,71.363z M34.884,8.176V3.498h-1.592V1.707h11.701
		v13.035h2.627v2.688H29.709v-2.688h3.583V8.176H34.884z M17.58,8.938c-0.016-0.069-0.002-0.145,0.037-0.203
		c0.038-0.061,0.1-0.104,0.169-0.116l1-0.218c0.146-0.032,0.29,0.063,0.319,0.207l0.107,0.502c0.017,0.068,0.004,0.144-0.035,0.201
		c-0.039,0.059-0.1,0.104-0.171,0.117l-1,0.215c-0.093,0.021-0.184-0.008-0.246-0.069c-0.036-0.037-0.063-0.082-0.073-0.136
		L17.58,8.938z M23.73,2.867c-0.03-0.064-0.035-0.138-0.013-0.205l0.162-0.486c0.047-0.141,0.2-0.217,0.341-0.17l1.658,0.555
		c0.067,0.023,0.124,0.074,0.155,0.136c0.032,0.063,0.037,0.141,0.015,0.206l-0.163,0.486c-0.046,0.139-0.199,0.215-0.341,0.168
		l-1.658-0.555c-0.039-0.014-0.075-0.035-0.105-0.066C23.763,2.916,23.744,2.893,23.73,2.867z M19.858,15.567
		c-0.044-0.057-0.063-0.129-0.053-0.198c0.011-0.07,0.049-0.136,0.106-0.179l0.816-0.61c0.119-0.09,0.285-0.074,0.377,0.053
		l0.309,0.408c0.043,0.057,0.061,0.129,0.051,0.199c-0.01,0.067-0.048,0.135-0.105,0.178l-0.817,0.613
		c-0.058,0.043-0.129,0.061-0.199,0.053c-0.058-0.01-0.111-0.035-0.152-0.076c-0.01-0.01-0.018-0.02-0.025-0.029L19.858,15.567z
		 M17.834,0.944c-0.07-0.069-0.098-0.176-0.063-0.274l0.162-0.486c0.022-0.065,0.071-0.123,0.134-0.156
		c0.065-0.03,0.139-0.036,0.206-0.014l0.971,0.324c0.14,0.051,0.217,0.201,0.17,0.342l-0.162,0.484
		c-0.022,0.069-0.072,0.125-0.135,0.155c-0.065,0.033-0.14,0.039-0.207,0.017L17.94,1.01C17.898,0.996,17.862,0.975,17.834,0.944z
		 M25.848,7.955l-1.709,0.369c-0.093,0.02-0.186-0.011-0.247-0.072c-0.035-0.035-0.063-0.08-0.073-0.135l-0.107-0.5
		c-0.015-0.07-0.001-0.144,0.038-0.203c0.037-0.06,0.1-0.103,0.168-0.117l1.711-0.367c0.146-0.033,0.289,0.062,0.318,0.205
		l0.108,0.5C26.086,7.781,25.994,7.926,25.848,7.955z M20.29,8.354c-0.016-0.069-0.002-0.143,0.037-0.201
		c0.039-0.058,0.1-0.104,0.17-0.116l1.71-0.37c0.146-0.031,0.287,0.063,0.319,0.207l0.107,0.5c0.031,0.145-0.061,0.289-0.207,0.317
		l-1.708,0.371c-0.094,0.021-0.187-0.012-0.248-0.073c-0.035-0.035-0.062-0.08-0.072-0.134L20.29,8.354z M20.464,1.826
		c-0.069-0.068-0.098-0.177-0.064-0.275l0.162-0.486c0.021-0.065,0.071-0.123,0.135-0.155c0.063-0.031,0.139-0.035,0.205-0.015
		l1.659,0.556c0.141,0.049,0.218,0.2,0.17,0.34l-0.163,0.487c-0.046,0.14-0.198,0.218-0.339,0.171l-1.66-0.558
		C20.528,1.879,20.493,1.854,20.464,1.826z M27.049,3.977c-0.032-0.063-0.036-0.139-0.013-0.205l0.161-0.483
		c0.047-0.142,0.2-0.217,0.342-0.17l1.658,0.557c0.14,0.047,0.216,0.199,0.169,0.34l-0.162,0.484
		c-0.022,0.067-0.07,0.123-0.135,0.153c-0.065,0.031-0.139,0.039-0.205,0.017l-1.659-0.558c-0.04-0.012-0.076-0.034-0.104-0.063
		C27.079,4.024,27.062,4.004,27.049,3.977z M30.417,5.16c-0.068-0.07-0.098-0.177-0.064-0.275l0.163-0.486
		c0.021-0.065,0.07-0.125,0.134-0.155c0.064-0.031,0.139-0.037,0.205-0.017l0.972,0.326c0.068,0.023,0.124,0.07,0.155,0.135
		c0.032,0.064,0.038,0.14,0.015,0.207l-0.162,0.484c-0.048,0.141-0.2,0.217-0.341,0.17l-0.971-0.324
		C30.481,5.211,30.446,5.188,30.417,5.16z M22.128,13.528l1.401-1.053c0.057-0.041,0.128-0.061,0.199-0.051
		c0.07,0.01,0.133,0.047,0.178,0.107l0.307,0.407c0.088,0.117,0.064,0.287-0.054,0.377l-1.4,1.052
		c-0.056,0.041-0.129,0.061-0.199,0.049c-0.057-0.008-0.11-0.033-0.152-0.074c-0.008-0.01-0.018-0.02-0.023-0.031l-0.308-0.408
		C21.987,13.785,22.009,13.615,22.128,13.528z M32.077,5.813l0.109,0.5c0.014,0.068,0,0.144-0.038,0.203
		c-0.037,0.06-0.1,0.103-0.169,0.117l-0.245,0.053l0.292,0.39c0.09,0.118,0.066,0.289-0.053,0.377l-0.817,0.614
		c-0.057,0.043-0.129,0.062-0.199,0.052c-0.058-0.009-0.112-0.035-0.152-0.076c-0.009-0.01-0.017-0.019-0.024-0.029l-0.308-0.41
		c-0.09-0.119-0.065-0.287,0.054-0.377l0.524-0.393l-0.07,0.016c-0.096,0.021-0.187-0.01-0.249-0.074
		c-0.035-0.034-0.062-0.079-0.072-0.131l-0.107-0.504C30.538,6.073,30.551,6,30.589,5.939c0.039-0.059,0.1-0.102,0.17-0.116l1-0.216
		C31.905,5.574,32.047,5.67,32.077,5.813z M29.326,8.229c0.069,0.008,0.133,0.043,0.177,0.105l0.307,0.408
		c0.09,0.116,0.065,0.286-0.054,0.377l-1.397,1.049c-0.109,0.08-0.26,0.065-0.351-0.025c-0.011-0.008-0.018-0.018-0.026-0.026
		l-0.309-0.41c-0.043-0.058-0.061-0.129-0.051-0.199c0.01-0.072,0.048-0.135,0.103-0.18l1.402-1.05
		C29.183,8.235,29.256,8.217,29.326,8.229z M29.367,6.397l0.108,0.5c0.031,0.146-0.061,0.289-0.207,0.32l-1.709,0.367
		c-0.093,0.021-0.185-0.01-0.247-0.072c-0.036-0.037-0.062-0.082-0.072-0.135l-0.107-0.5c-0.017-0.068-0.004-0.144,0.035-0.203
		c0.039-0.059,0.1-0.1,0.169-0.115l1.711-0.369C29.194,6.16,29.337,6.252,29.367,6.397z M24.928,11.428l1.399-1.049
		c0.058-0.043,0.129-0.063,0.201-0.051c0.069,0.01,0.134,0.047,0.177,0.104l0.307,0.408c0.089,0.119,0.064,0.287-0.054,0.377
		l-1.4,1.051c-0.057,0.041-0.128,0.062-0.2,0.049c-0.057-0.008-0.109-0.032-0.151-0.075c-0.009-0.009-0.017-0.019-0.025-0.029
		l-0.307-0.41C24.786,11.684,24.81,11.516,24.928,11.428z"/>
</g>
<g>
</g>
<g>
</g>
<g>
</g>
<g>
</g>
<g>
</g>
<g>
</g>
<g>
</g>
<g>
</g>
<g>
</g>
<g>
</g>
<g>
</g>
<g>
</g>
<g>
</g>
<g>
</g>
<g>
</g>
</svg>
