<?xml version="1.0" encoding="iso-8859-1"?>
<!-- Generator: Adobe Illustrator 18.0.0, SVG Export Plug-In . SVG Version: 6.00 Build 0)  -->
<!DOCTYPE svg PUBLIC "-//W3C//DTD SVG 1.1//EN" "http://www.w3.org/Graphics/SVG/1.1/DTD/svg11.dtd">
<svg version="1.1" id="Capa_1" xmlns="http://www.w3.org/2000/svg" xmlns:xlink="http://www.w3.org/1999/xlink" x="0px" y="0px"
	 viewBox="0 0 480 480" style="enable-background:new 0 0 480 480;" xml:space="preserve">
<g>
	<path d="M216.89,345.148c95.158,0,172.574-77.416,172.574-172.573c0-17.01-2.486-33.447-7.092-48.982
		c0.006-0.031,0.014-0.059,0.02-0.09l-0.05-0.01C361.146,52.17,295.001,0,216.89,0C121.733,0,44.317,77.417,44.317,172.575
		C44.317,267.732,121.733,345.148,216.89,345.148z M341.873,259.98c-2.627-0.833-4.978-2.382-6.932-4.614
		c-4.524-5.169-3.519-9.473,0.507-20.452c1.959-5.343,4.18-11.399,4.861-18.012c1.062-10.308-0.619-18.325-5.138-24.51
		c-5.328-7.293-13.339-10.251-19.777-12.627c-1.242-0.458-2.48-0.914-3.684-1.4c-5.264-2.124-10.314-5.15-15.662-8.356
		c-2.917-1.748-5.932-3.555-7.42-5.558c-1.065-2.323,0.884-11.968,5.806-20.702c3.391-6.018,10.044-12.51,17.62-11.003
		c4.069,0.809,7.767,2.179,11.681,3.63c7.329,2.716,15.641,5.793,26.635,4.948c2.063-0.159,4.125-0.185,6.121-0.21
		c2.762-0.035,6.136-0.081,9.543-0.739c2.24,10.385,3.43,21.155,3.43,32.2C369.464,205.064,359.249,235.208,341.873,259.98z
		 M283.699,47.771c2.738-2.686,5.519-5.419,8.062-8.095c10.57,5.979,20.358,13.181,29.175,21.415
		c-0.605,1.151-1.132,1.675-1.299,1.762c0,0-0.055,0.013-0.2,0.007c-1.718-0.062-3.997-0.809-6.41-1.601
		c-4.016-1.316-9.012-2.959-14.705-2.498c-5.553,0.446-10.299,2.783-14.113,4.661c-2.378,1.172-5.629,2.781-6.785,2.489
		c-1.272-0.317-3.809-3.576-4.893-4.968c-0.241-0.31-0.444-0.577-0.614-0.808C274.625,56.67,279.237,52.147,283.699,47.771z
		 M238.074,21.478c-0.97,4.163-2.592,8.724-3.98,10.441c-1.522,1.882-4.198,2.661-5.48,2.076c-1.728-0.788-3.348-4.039-4.032-8.09
		c-0.346-2.05-0.873-3.962-1.484-5.768C228.157,20.34,233.152,20.791,238.074,21.478z M170.034,27.37
		c2.781,8.674,6.013,16.844,9.176,24.598c2.539,6.223,5.417,13.276,4.808,19.256c-0.387,3.807-1.227,4.758-1.225,4.758
		c-0.71,0.515-3.96,0.786-5.902,0.948c-5.026,0.419-11.909,0.994-18.174,5.393c-1.26,0.885-2.403,1.778-3.509,2.642
		c-2.079,1.624-4.043,3.158-5.524,3.573c-1.463,0.409-3.906,0.131-6.494-0.164c-1.702-0.194-3.631-0.414-5.64-0.479
		c-5.846-0.196-21.063,2.457-28.053,11.586c-3.534,4.615-4.55,10.198-2.862,15.72c1.246,4.078,3.799,6.815,6.134,8.956
		c9.96,9.133,23.618,15.6,37.471,17.742c1.947,0.301,3.811,0.529,5.614,0.75c9.788,1.197,13.194,2.021,16.078,7.217
		c0.814,1.468,1.518,3.33,2.261,5.3c0.893,2.366,1.906,5.048,3.36,7.716c4.58,8.399,12.424,13.331,20.475,12.866
		c5.991-0.346,10.354-3.429,13.539-5.68c1.218-0.861,2.479-1.751,3.319-2.102c2.093-0.871,5.923,0.214,9.754,2.768
		c2.885,1.923,6.6,5.055,7.921,9.06c0.81,2.455,0.35,5.398-1.063,6.593l-20.774,17.745c-5.18,4.425-14.822,12.661-15.115,24.873
		c-0.084,3.529,0.61,6.765,1.224,9.62c0.204,0.951,0.473,2.203,0.626,3.202c-0.336,0.086-0.677,0.17-0.965,0.241
		c-1.926,0.471-4.322,1.058-6.781,2.299c-11.938,6.028-13.035,20.082-13.691,28.479c-0.332,4.246-1.514,7.152-2.33,8.293
		c-0.719-0.672-1.757-2.173-2.244-4.075c-0.51-1.995-0.764-4.343-1.032-6.829c-0.421-3.901-0.898-8.324-2.518-12.814
		c-2.086-5.783-5.598-10.392-8.696-14.458c-2.841-3.73-5.295-6.951-6.042-10.107c-0.561-2.37-0.31-5.534-0.043-8.884
		c0.382-4.807,0.815-10.255-0.769-16.02c-2.254-8.199-7.625-13.834-12.363-18.806c-2.81-2.948-5.463-5.732-6.931-8.532
		c-1.54-2.938-1.434-6.055-1.134-10.897c0.289-4.66,0.617-9.941-1.317-15.606c-2.049-6.001-6.804-9.405-9.99-11.686
		c-8.806-6.305-17.052-13.482-24.51-21.335c-3.804-4.004-7.512-8.341-8.872-12.912c-0.394-1.323-0.666-2.321-0.879-3.103
		c-0.841-3.079-1.49-4.753-2.816-6.553C102.181,65.078,133.036,39.338,170.034,27.37z M72.434,123.445
		c2.641,4.25,5.891,7.969,9.167,11.418c8.328,8.768,17.536,16.783,27.409,23.852c0.913,0.654,2.254,1.614,2.76,2.163
		c0.541,1.901,0.376,4.554,0.188,7.6c-0.37,5.963-0.83,13.384,3.381,21.419c2.77,5.285,6.7,9.409,10.168,13.047
		c3.561,3.736,6.636,6.962,7.556,10.307c0.654,2.379,0.393,5.661,0.117,9.134c-0.359,4.521-0.767,9.646,0.517,15.073
		c1.725,7.292,5.907,12.781,9.596,17.624c2.442,3.205,4.748,6.231,5.792,9.125c0.806,2.234,1.117,5.118,1.447,8.172
		c0.316,2.935,0.675,6.26,1.542,9.644c2.535,9.901,10.702,19.406,21.688,19.406c0.581,0,1.169-0.027,1.765-0.081
		c11.387-1.04,19.217-11.365,20.435-26.945c0.24-3.071,0.876-11.228,2.765-12.182c0.419-0.211,1.636-0.509,2.524-0.727
		c3.048-0.746,7.653-1.874,11.376-5.687c6.847-7.012,4.915-16.007,3.761-21.382c-0.399-1.857-0.812-3.778-0.784-4.941
		c0.079-3.285,5.504-7.918,8.11-10.145l20.737-17.712c7.657-6.476,10.512-17.768,7.104-28.098
		c-2.459-7.455-7.931-14.176-15.821-19.436c-9.667-6.443-20.069-8.115-28.539-4.588c-2.884,1.202-5.261,2.881-7.17,4.23
		c-0.913,0.645-2.223,1.57-2.969,1.933c-0.463-0.327-1.257-1.101-1.943-2.36c-0.792-1.453-1.48-3.275-2.208-5.205
		c-0.919-2.437-1.962-5.198-3.485-7.941c-8.07-14.543-20.86-16.107-31.137-17.365c-1.724-0.211-3.352-0.41-4.986-0.663
		c-9.429-1.458-19.039-5.842-25.994-11.816c2.71-1.342,7.235-2.513,9.592-2.434c1.203,0.04,2.577,0.196,4.032,0.362
		c3.975,0.453,8.921,1.017,14.155-0.45c5.284-1.48,9.251-4.58,12.439-7.069c0.95-0.742,1.847-1.443,2.69-2.035
		c1.833-1.287,4.851-1.539,8.345-1.831c8.091-0.675,23.153-1.933,25.36-23.611c1.114-10.942-2.934-20.864-6.187-28.836
		c-2.851-6.989-5.757-14.317-8.258-21.94c4.037-0.736,8.129-1.312,12.269-1.722c0.057,0.127,0.117,0.262,0.173,0.387
		c1.357,3.011,2.528,5.611,2.947,8.095c1.876,11.118,7.366,19.272,15.459,22.961c2.95,1.344,6.13,1.988,9.333,1.988
		c7.42,0,14.958-3.459,19.995-9.69c3.414-4.224,6.38-11.683,7.982-18.96c5.127,1.422,10.148,3.098,15.044,5.028
		c-0.986,0.976-1.985,1.957-2.979,2.932c-5.01,4.914-10.191,9.995-13.722,14.566c-1.439,1.862-3.847,4.978-4.542,9.373
		c-1.176,7.454,3.209,13.088,5.317,15.796c2.941,3.778,7.863,10.102,15.837,12.09c1.753,0.437,3.451,0.625,5.089,0.625
		c6.074,0,11.312-2.579,15.368-4.577c2.524-1.243,5.133-2.528,6.878-2.668c1.685-0.132,4.204,0.691,6.875,1.567
		c3.458,1.134,7.376,2.418,11.916,2.583c6.426,0.231,11.959-2.237,16.147-6.922c10.943,13.332,19.67,28.546,25.625,45.073
		c-1.326,0.081-2.919,0.101-4.244,0.118c-2.204,0.028-4.701,0.059-7.404,0.267c-6.629,0.511-11.713-1.375-18.151-3.76
		c-4.267-1.582-9.104-3.374-14.732-4.493c-14.865-2.953-30.156,5.209-38.942,20.801c-2.573,4.565-14.886,28.056-4.611,42.209
		c3.872,5.333,9.138,8.489,13.368,11.024c5.773,3.46,11.742,7.039,18.46,9.749c1.433,0.579,2.86,1.105,4.24,1.615
		c4.519,1.668,8.787,3.244,10.555,5.664c1.449,1.982,1.917,5.569,1.393,10.661c-0.425,4.126-2.038,8.522-3.744,13.177
		c-4.017,10.953-9.517,25.954,3.22,40.509c2.658,3.037,5.711,5.538,9.05,7.472c-27.895,30.195-67.8,49.138-112.052,49.138
		c-84.128,0-152.572-68.444-152.572-152.573C64.317,155.394,67.175,138.868,72.434,123.445z"/>
	<path d="M371.597,327.284c41.326-41.324,64.085-96.267,64.085-154.709c0-55.096-20.234-107.078-57.174-147.475l8.026-8.026
		L372.393,2.931l-29.865,29.865l14.143,14.143l7.687-7.687c33.173,36.608,51.326,83.57,51.326,133.322
		c0,53.1-20.679,103.021-58.228,140.568c-75.11,75.113-195.872,77.433-273.811,6.963l7.61-7.61l-14.143-14.142L47.246,328.22
		l14.143,14.143l8.101-8.101c37.934,34.655,86.07,54.58,137.4,56.874V460h-44.096v20h108.197v-20H226.89v-68.865
		C281.576,388.691,332.64,366.243,371.597,327.284z"/>
</g>
<g>
</g>
<g>
</g>
<g>
</g>
<g>
</g>
<g>
</g>
<g>
</g>
<g>
</g>
<g>
</g>
<g>
</g>
<g>
</g>
<g>
</g>
<g>
</g>
<g>
</g>
<g>
</g>
<g>
</g>
</svg>
