<?xml version="1.0" encoding="iso-8859-1"?>
<!-- Generator: Adobe Illustrator 18.0.0, SVG Export Plug-In . SVG Version: 6.00 Build 0)  -->
<!DOCTYPE svg PUBLIC "-//W3C//DTD SVG 1.1//EN" "http://www.w3.org/Graphics/SVG/1.1/DTD/svg11.dtd">
<svg version="1.1" id="Capa_1" xmlns="http://www.w3.org/2000/svg" xmlns:xlink="http://www.w3.org/1999/xlink" x="0px" y="0px"
	 viewBox="0 0 46.9 46.9" style="enable-background:new 0 0 46.9 46.9;" xml:space="preserve">
<g>
	<path d="M15.45,12c-2.757,0-5,2.243-5,5c0,0.552,0.448,1,1,1s1-0.448,1-1c0-1.654,1.346-3,3-3s3,1.346,3,3c0,0.552,0.448,1,1,1
		s1-0.448,1-1C20.45,14.243,18.207,12,15.45,12z"/>
	<circle cx="31.45" cy="16" r="3"/>
	<path d="M31.45,9c-3.86,0-7,3.14-7,7s3.14,7,7,7s7-3.14,7-7S35.31,9,31.45,9z M31.45,21c-2.757,0-5-2.243-5-5s2.243-5,5-5
		s5,2.243,5,5S34.207,21,31.45,21z"/>
	<path d="M45.45,22c0-12.131-9.869-22-22-22s-22,9.869-22,22c0,10.333,7.236,19.262,17.275,21.462
		c0.66,1.989,2.517,3.438,4.725,3.438h1c2.215,0,4.076-1.457,4.731-3.456C38.788,41.285,45.45,32.57,45.45,22z M22.777,30
		c0.336,1.769,0.673,7.347,0.673,9c0,0.552,0.448,1,1,1s1-0.448,1-1c0-0.923-0.122-3.491-0.296-5.701
		c-0.115-1.456-0.22-2.52-0.345-3.299h2.599c0.015,0.012,0.026,0.03,0.042,0.042v8.965v0.001v2.34c0,1.825-1.484,3.309-3.309,3.309
		h-0.382c-1.825,0-3.309-1.484-3.309-3.309V30H22.777z M29.45,30h3.963c-0.238,3.204-1.646,5.763-3.963,7.307V30z M18.45,37.647
		c-2.791-1.603-4.634-4.426-4.951-7.647h4.951V37.647z M29.45,41.326V39.63c3.768-1.906,6-5.826,6-10.63c0-0.552-0.448-1-1-1h-22
		c-0.552,0-1,0.448-1,1c0,4.739,2.727,8.939,7,10.893v1.449c-8.758-2.254-15-10.192-15-19.342c0-11.028,8.972-20,20-20
		s20,8.972,20,20C43.45,31.51,37.874,39.109,29.45,41.326z"/>
</g>
<g>
</g>
<g>
</g>
<g>
</g>
<g>
</g>
<g>
</g>
<g>
</g>
<g>
</g>
<g>
</g>
<g>
</g>
<g>
</g>
<g>
</g>
<g>
</g>
<g>
</g>
<g>
</g>
<g>
</g>
</svg>
