<?xml version="1.0" encoding="iso-8859-1"?>
<!-- Generator: Adobe Illustrator 18.0.0, SVG Export Plug-In . SVG Version: 6.00 Build 0)  -->
<!DOCTYPE svg PUBLIC "-//W3C//DTD SVG 1.1//EN" "http://www.w3.org/Graphics/SVG/1.1/DTD/svg11.dtd">
<svg version="1.1" id="Capa_1" xmlns="http://www.w3.org/2000/svg" xmlns:xlink="http://www.w3.org/1999/xlink" x="0px" y="0px"
	 viewBox="0 0 49 49" style="enable-background:new 0 0 49 49;" xml:space="preserve">
<g>
	<path d="M25,31.663c-4.411,0-8,3.589-8,8c0,0.553,0.447,1,1,1s1-0.447,1-1c0-3.309,2.691-6,6-6s6,2.691,6,6c0,0.553,0.447,1,1,1
		s1-0.447,1-1C33,35.251,29.411,31.663,25,31.663z"/>
	<circle cx="18" cy="26.662" r="2"/>
	<circle cx="32" cy="26.662" r="2"/>
	<path d="M45.889,19.976c-0.057-0.286-0.139-0.561-0.207-0.843c-0.061-0.253-0.117-0.509-0.186-0.759
		c-0.119-0.428-0.259-0.845-0.402-1.261c-0.061-0.177-0.115-0.358-0.181-0.533c-0.181-0.485-0.383-0.955-0.596-1.42
		c-0.047-0.102-0.087-0.207-0.135-0.308c-0.233-0.49-0.487-0.964-0.754-1.431c-0.047-0.082-0.088-0.167-0.135-0.248
		c-0.234-0.396-0.486-0.777-0.743-1.155c-0.108-0.16-0.208-0.324-0.32-0.481c-0.139-0.192-0.289-0.374-0.434-0.561
		C37.75,5.682,31.398,2.337,24.342,2.337c-8.289,0-15.608,4.77-19.244,11.95c-0.067,0.131-0.139,0.258-0.204,0.391
		c-0.159,0.331-0.301,0.671-0.444,1.012c-0.113,0.266-0.23,0.529-0.332,0.801c-0.105,0.28-0.195,0.567-0.289,0.852
		c-0.11,0.332-0.222,0.661-0.317,1.001c-0.078,0.278-0.14,0.562-0.207,0.844c-0.063,0.264-0.14,0.52-0.193,0.788
		C1.306,20.955,0,23.084,0,25.163c0,2.153,1.269,4.089,3.208,4.979C5.704,39.896,14.386,46.663,24.5,46.663
		c10.115,0,18.797-6.767,21.292-16.521c1.94-0.89,3.208-2.825,3.208-4.979C49,23.084,47.694,20.955,45.889,19.976z M5.286,19.48
		c0.067-0.27,0.139-0.537,0.217-0.802c0.089-0.306,0.184-0.608,0.287-0.906c0.078-0.229,0.161-0.456,0.247-0.68
		c0.135-0.35,0.277-0.695,0.43-1.034c0.064-0.143,0.129-0.285,0.197-0.426C9.868,8.98,16.603,4.663,24.5,4.663
		c6.128,0,11.561,2.598,15.185,6.87c0.001,0.002,0.003,0.003,0.004,0.005c0.316,0.373,0.612,0.763,0.899,1.161
		c0.124,0.174,0.243,0.351,0.362,0.529c0.17,0.252,0.336,0.508,0.494,0.769c0.162,0.269,0.315,0.543,0.465,0.82
		c0.11,0.204,0.22,0.408,0.324,0.617c0.152,0.307,0.294,0.621,0.431,0.937c0.091,0.21,0.18,0.42,0.264,0.635
		c0.121,0.308,0.231,0.621,0.336,0.936c0.082,0.246,0.163,0.494,0.236,0.745c0.085,0.292,0.162,0.588,0.234,0.885
		c0.037,0.154,0.069,0.31,0.103,0.465c-4.087,1.322-7.131-1.615-9.008-4.408c-0.34-0.505-0.879-0.848-1.479-0.94
		c-0.613-0.09-1.244,0.075-1.734,0.467c-9.308,7.436-22.771,5.459-26.424,4.743C5.224,19.759,5.252,19.618,5.286,19.48z
		 M44.621,28.457c-0.328,0.111-0.575,0.385-0.653,0.722C41.86,38.295,33.854,44.663,24.5,44.663
		c-9.354,0-17.359-6.367-19.468-15.483c-0.078-0.337-0.325-0.609-0.652-0.721C2.956,27.974,2,26.649,2,25.163
		c0-1.354,0.932-2.83,2.119-3.444c1.15,0.264,4.776,1.002,9.407,1.002c5.855,0,13.305-1.183,19.339-6.004
		c0.072-0.059,0.143-0.059,0.182-0.053c0.078,0.012,0.112,0.063,0.123,0.079c3.3,4.917,7.47,6.678,11.781,5.011
		C46.104,22.39,47,23.835,47,25.163C47,26.65,46.044,27.973,44.621,28.457z"/>
</g>
<g>
</g>
<g>
</g>
<g>
</g>
<g>
</g>
<g>
</g>
<g>
</g>
<g>
</g>
<g>
</g>
<g>
</g>
<g>
</g>
<g>
</g>
<g>
</g>
<g>
</g>
<g>
</g>
<g>
</g>
</svg>
