<?xml version="1.0" encoding="iso-8859-1"?>
<!-- Generator: Adobe Illustrator 19.0.0, SVG Export Plug-In . SVG Version: 6.00 Build 0)  -->
<svg version="1.1" id="Layer_1" xmlns="http://www.w3.org/2000/svg" xmlns:xlink="http://www.w3.org/1999/xlink" x="0px" y="0px"
	 viewBox="0 0 512.008 512.008" style="enable-background:new 0 0 512.008 512.008;" xml:space="preserve">
<g>
	<g>
		<g>
			<path d="M7.828,51.172c1.033,0.085,104.414,8.568,248.175,8.568s247.142-8.482,248.175-8.568
				c4.693-0.393,8.192-4.514,7.799-9.216c-0.393-4.693-4.489-8.183-9.216-7.791c-1.024,0.085-103.697,8.508-246.758,8.508
				c-143.002,0-245.734-8.422-246.758-8.508c-4.702-0.384-8.823,3.098-9.216,7.791C-0.355,46.658,3.135,50.779,7.828,51.172z"/>
			<path d="M453.328,127.938c4.676-0.589,7.996-4.847,7.407-9.532c-0.58-4.668-4.821-8.013-9.523-7.407
				c-0.683,0.085-69.47,8.474-203.742,8.474c-133.879,0-185.822-8.337-186.334-8.422c-4.642-0.802-9.037,2.372-9.813,7.023
				c-0.777,4.642,2.364,9.037,7.006,9.813c1.237,0.205,19.319,3.123,61.141,5.513v45.807H76.803c-4.71,0-8.533,3.814-8.533,8.533
				c0,4.71,3.823,8.533,8.533,8.533h42.667v25.6c0,4.71,3.823,8.533,8.533,8.533s8.533-3.823,8.533-8.533v-25.6h17.067v25.6
				c0,4.71,3.823,8.533,8.533,8.533c4.71,0,8.533-3.823,8.533-8.533v-25.6h170.667v25.6c0,4.71,3.823,8.533,8.533,8.533
				s8.533-3.823,8.533-8.533v-25.6h17.067v25.6c0,4.71,3.823,8.533,8.533,8.533s8.533-3.823,8.533-8.533v-25.6h42.667
				c4.71,0,8.533-3.823,8.533-8.533c0-4.719-3.823-8.533-8.533-8.533h-42.667v-46.447
				C432.404,130.472,452.961,127.981,453.328,127.938z M153.603,179.206h-17.067v-44.928c5.367,0.247,11.068,0.478,17.067,0.7
				V179.206z M221.87,179.206h-51.2v-43.682c15.266,0.435,32.29,0.751,51.2,0.905V179.206z M273.07,179.206h-34.133v-42.684
				c2.825,0.009,5.632,0.017,8.533,0.017c8.823,0,17.34-0.043,25.6-0.111V179.206z M341.337,179.206h-51.2v-42.982
				c18.654-0.256,35.712-0.666,51.2-1.178V179.206z M375.47,179.206h-17.067v-44.792c5.973-0.239,11.657-0.495,17.067-0.751V179.206
				z"/>
			<path d="M511.995,76.448c-0.196-4.71-4.19-8.448-8.875-8.175l-204.8,8.533c-4.574,0.188-8.183,3.951-8.183,8.533H221.87
				c0-4.582-3.61-8.346-8.175-8.533l-204.8-8.533c-4.924-0.265-8.687,3.465-8.883,8.175c-0.196,4.71,3.465,8.687,8.175,8.883
				l196.617,8.183v0.358c0,4.71,3.823,8.533,8.533,8.533h85.333c4.71,0,8.533-3.823,8.533-8.533l196.625-8.542
				C508.53,85.135,512.191,81.158,511.995,76.448z"/>
			<path d="M503.47,460.806H400.541c-1.766-28.058-7.526-124.885-7.979-196.267h8.508c4.71,0,8.533-3.823,8.533-8.533
				c0-4.719-3.823-8.533-8.533-8.533h-68.267c-4.71,0-8.533,3.814-8.533,8.533c0,4.71,3.823,8.533,8.533,8.533h8.508
				c-0.452,71.381-6.212,168.209-7.979,196.267H178.674c-1.766-28.058-7.526-124.885-7.979-196.267h8.508
				c4.71,0,8.533-3.823,8.533-8.533c0-4.719-3.823-8.533-8.533-8.533h-68.267c-4.71,0-8.533,3.814-8.533,8.533
				c0,4.71,3.823,8.533,8.533,8.533h8.508c-0.452,71.381-6.212,168.209-7.979,196.267H8.537c-4.71,0-8.533,3.814-8.533,8.533
				c0,4.71,3.823,8.533,8.533,8.533H503.47c4.71,0,8.533-3.823,8.533-8.533C512.003,464.621,508.18,460.806,503.47,460.806z
				 M128.567,460.806c1.852-29.611,7.501-125.372,7.945-196.267h17.118c0.444,70.895,6.093,166.656,7.945,196.267H128.567z
				 M350.433,460.806c1.852-29.611,7.501-125.372,7.945-196.267h17.118c0.444,70.895,6.093,166.656,7.945,196.267H350.433z"/>
		</g>
	</g>
</g>
<g>
</g>
<g>
</g>
<g>
</g>
<g>
</g>
<g>
</g>
<g>
</g>
<g>
</g>
<g>
</g>
<g>
</g>
<g>
</g>
<g>
</g>
<g>
</g>
<g>
</g>
<g>
</g>
<g>
</g>
</svg>
