<?xml version="1.0" encoding="iso-8859-1"?>
<!-- Generator: Adobe Illustrator 18.0.0, SVG Export Plug-In . SVG Version: 6.00 Build 0)  -->
<!DOCTYPE svg PUBLIC "-//W3C//DTD SVG 1.1//EN" "http://www.w3.org/Graphics/SVG/1.1/DTD/svg11.dtd">
<svg version="1.1" id="Capa_1" xmlns="http://www.w3.org/2000/svg" xmlns:xlink="http://www.w3.org/1999/xlink" x="0px" y="0px"
	 viewBox="0 0 491.85 491.85" style="enable-background:new 0 0 491.85 491.85;" xml:space="preserve">
<g>
	<path d="M264.574,340.433v-59.918c-5.261,1.46-10.716,2.454-16.436,2.454c-6.526,0-12.754-1.174-18.665-3.056v60.511
		c-18.54-43.119-41.973-75.961-63.598-100.116c-2.978,0.508-5.992,0.86-9.063,0.86c-3.903,0-7.783-0.423-11.573-1.26
		c-2.284,7.164-6.134,13.585-10.971,19.119c36.572,41.588,82.989,113.643,94.104,220.083c0.756,7.228,6.852,12.739,14.122,12.739
		h9.052c7.293,0,13.374-5.495,14.121-12.747c8.594-82.739,38.067-144.32,67.865-187.238c-12.992-0.365-25.242-5.417-34.699-13.895
		C286.675,295.876,274.857,316.519,264.574,340.433z"/>
	<path d="M476.376,212.125c-5.437-3.141-16.987-7.526-29.598-10.94c12.61-3.422,24.153-7.8,29.592-10.941
		c14.135-8.168,18.98-26.241,10.818-40.378c-5.471-9.477-15.407-14.778-25.616-14.778c-5.018,0-10.104,1.276-14.762,3.968
		c-5.438,3.132-15.005,10.932-24.249,20.121c3.341-12.609,5.301-24.797,5.301-31.069c0-16.329-13.213-29.559-29.543-29.559
		c-4.033,0-7.872,0.82-11.374,2.281c-3.29,11.028-9.365,20.776-17.774,28.322c14.579,13.124,21.649,32.341,19.995,51.419
		c2.798-1.243,5.878-1.965,9.137-1.965c12.474,0,22.587,10.114,22.587,22.579c0,12.458-10.113,22.578-22.587,22.578
		c-8.938,0-16.596-5.246-20.254-12.783c-11.529,16.13-30.255,26.012-50.317,26.012c-6.48,0-12.932-1.036-19.077-3.034
		c-0.643,3.029-1.604,5.934-2.674,8.782c0.576,3.345,1.639,6.659,3.436,9.771c5.47,9.479,15.408,14.779,25.617,14.779
		c5.018,0,10.104-1.276,14.753-3.967c5.455-3.141,15.038-10.964,24.299-20.17c-3.35,12.619-5.324,24.829-5.324,31.117
		c0,16.322,13.227,29.551,29.558,29.551c16.33,0,29.543-13.229,29.543-29.551c0-6.28-1.96-18.481-5.31-31.1
		c9.253,9.205,18.828,17.012,24.258,20.153c4.658,2.691,9.744,3.967,14.756,3.967c10.224,0,20.151-5.3,25.632-14.779
		C495.358,238.365,490.513,220.294,476.376,212.125z"/>
	<path d="M108.739,99.183c-3.969-14.778-2.141-30.082,4.67-43.632c-5.251-4.793-12.175-7.791-19.851-7.791
		c-16.322,0-29.552,13.229-29.552,29.551c0,6.288,1.977,18.481,5.317,31.1c-9.261-9.205-18.844-17.018-24.282-20.161
		c-4.649-2.69-9.735-3.958-14.745-3.968c-10.217,0-20.153,5.302-25.633,14.788c-8.167,14.137-3.325,32.21,10.821,40.37
		c5.444,3.142,16.987,7.535,29.598,10.949c-12.618,3.413-24.161,7.799-29.607,10.939c-14.137,8.177-18.988,26.249-10.818,40.387
		c5.47,9.479,15.413,14.786,25.632,14.786c5.012,0,10.095-1.276,14.747-3.967c5.444-3.148,15.027-10.964,24.297-20.178
		c-3.35,12.626-5.326,24.828-5.326,31.117c0,16.321,13.229,29.559,29.552,29.559c16.328,0,29.549-13.237,29.549-29.559
		c0-1.858-0.222-4.347-0.551-7.099c-2.849-3.163-5.479-6.549-7.648-10.308c-6.51-11.267-8.84-23.73-7.857-35.816
		c-3.851,2.627-8.498,4.17-13.509,4.17c-13.262,0-24.009-10.772-24.009-24.024c0-13.261,10.747-24.034,24.009-24.034
		c10.505,0,19.34,6.795,22.604,16.189c3.019-4.87,6.563-9.459,10.938-13.4C118.248,121.231,111.88,110.91,108.739,99.183z"/>
	<path d="M136.272,193.724c6.893,11.928,19.391,18.602,32.243,18.602c6.314,0,12.714-1.614,18.57-4.996
		c6.844-3.952,18.908-13.792,30.564-25.383c-4.208,15.896-6.699,31.246-6.699,39.158c0,20.532,16.65,37.188,37.188,37.188
		c20.549,0,37.183-16.656,37.183-37.188c0-7.904-2.475-23.246-6.684-39.133c11.646,11.583,23.697,21.406,30.531,25.357
		c5.855,3.382,12.258,4.987,18.563,4.987c12.859,0,25.358-6.665,32.241-18.593c10.273-17.792,4.178-40.532-13.615-50.813
		c-6.843-3.951-21.373-9.462-37.228-13.759c15.855-4.313,30.376-9.824,37.22-13.776c17.784-10.274,23.889-33.022,13.615-50.804
		c-6.884-11.928-19.381-18.595-32.233-18.595c-6.305,0-12.708,1.606-18.57,4.987c-6.836,3.944-18.877,13.76-30.515,25.327
		c4.2-15.872,6.675-31.205,6.675-39.094C285.321,16.651,268.687,0,248.138,0C227.6,0,210.95,16.651,210.95,37.196
		c0,7.897,2.491,23.247,6.69,39.125c-11.646-11.582-23.703-21.414-30.547-25.366c-5.856-3.38-12.257-4.988-18.563-4.988
		c-12.86,0-25.357,6.668-32.249,18.603c-10.273,17.782-4.169,40.53,13.623,50.796c6.844,3.952,21.374,9.471,37.237,13.775
		c-15.872,4.297-30.402,9.816-37.245,13.767C132.105,153.2,126,175.939,136.272,193.724z M248.125,91.326
		c20.883,0,37.807,16.948,37.807,37.825c0,20.868-16.924,37.808-37.807,37.808c-20.878,0-37.802-16.939-37.802-37.808
		C210.323,108.274,227.247,91.326,248.125,91.326z"/>
</g>
<g>
</g>
<g>
</g>
<g>
</g>
<g>
</g>
<g>
</g>
<g>
</g>
<g>
</g>
<g>
</g>
<g>
</g>
<g>
</g>
<g>
</g>
<g>
</g>
<g>
</g>
<g>
</g>
<g>
</g>
</svg>
