<?xml version="1.0" encoding="utf-8"?>
<!-- Generator: Adobe Illustrator 17.0.0, SVG Export Plug-In . SVG Version: 6.00 Build 0)  -->
<!DOCTYPE svg PUBLIC "-//W3C//DTD SVG 1.1//EN" "http://www.w3.org/Graphics/SVG/1.1/DTD/svg11.dtd">
<svg version="1.1" id="Capa_1" xmlns="http://www.w3.org/2000/svg" xmlns:xlink="http://www.w3.org/1999/xlink" x="0px" y="0px"
	 width="23.212px" height="30.511px" viewBox="0 0 23.212 30.511" enable-background="new 0 0 23.212 30.511" preserveAspectRatio="fit">
<path d="M9.578,22.843c0-0.695-0.563-1.258-1.257-1.258c-0.695,0-1.259,0.562-1.259,1.258c0,0.694,0.564,1.258,1.259,1.258
	C9.015,24.101,9.578,23.537,9.578,22.843z M8.579,23.645c-0.357,0-0.646-0.29-0.646-0.646c0-0.356,0.289-0.646,0.646-0.646
	c0.355,0,0.645,0.29,0.645,0.646C9.224,23.354,8.934,23.645,8.579,23.645z M13.53,22.843c0,0.694,0.562,1.258,1.256,1.258
	c0.695,0,1.259-0.563,1.259-1.258s-0.564-1.258-1.259-1.258C14.092,21.585,13.53,22.147,13.53,22.843z M15.173,22.999
	c0,0.355-0.29,0.646-0.644,0.646c-0.358,0-0.646-0.29-0.646-0.646c0-0.356,0.288-0.646,0.646-0.646
	C14.883,22.353,15.173,22.643,15.173,22.999z M14.209,26.031H8.772C11.577,28.92,14.209,26.031,14.209,26.031z M6.189,3.313
	c0.625,0,1.131,0.455,1.131,1.016S6.814,5.345,6.189,5.345S5.058,4.89,5.058,4.329S5.564,3.313,6.189,3.313z M11.351,0
	c1.07,0,1.937,0.78,1.937,1.743s-0.867,1.743-1.937,1.743s-1.937-0.78-1.937-1.743S10.281,0,11.351,0z M16.941,5.403
	c0.626,0,1.13-0.456,1.13-1.015c0-0.562-0.504-1.02-1.13-1.02c-0.624,0-1.129,0.457-1.129,1.02
	C15.812,4.947,16.318,5.403,16.941,5.403z M21.277,2.267c1.07,0,1.937,0.78,1.937,1.743s-0.867,1.743-1.937,1.743
	S19.34,4.973,19.34,4.01S20.207,2.267,21.277,2.267z M3.875,4.074c0-0.966-0.866-1.744-1.94-1.744C0.869,2.33,0,3.108,0,4.074
	c0,0.961,0.869,1.742,1.935,1.742C3.009,5.816,3.875,5.035,3.875,4.074z M20.647,6.774c0,0-0.178-0.818-0.971-0.818
	c-0.166,0-0.357,0.035-0.582,0.121l-2.652,2.386l0.224-2.433c0,0-0.185-0.277-0.462-0.277c-0.113,0-0.242,0.046-0.379,0.173
	l-1.606,2.053l-2.094-3.296c0,0-0.257-0.262-0.716-0.262c-0.229,0-0.509,0.067-0.834,0.262L8.532,7.899L7.149,5.926
	c0,0-0.151-0.239-0.38-0.239c-0.121,0-0.264,0.069-0.419,0.274l0.146,2.652L3.88,6.077c0,0-0.167-0.067-0.386-0.067
	c-0.263,0-0.597,0.098-0.809,0.525l1.235,6.799c-1.297,1.557-2.072,3.643-2.072,6.201c0,6.051,4.325,10.976,9.641,10.976
	c5.318,0,9.646-4.925,9.646-10.976c0-2.608-0.805-4.727-2.148-6.291C18.987,13.244,20.647,6.774,20.647,6.774z M6.496,10.59
	c0.276,0,0.556-0.06,0.819-0.178c0.3-0.139,0.554-0.344,0.747-0.596c0.152,0.036,0.309,0.057,0.47,0.057c0.015,0,0.03,0,0.046,0
	c0.659-0.016,1.267-0.359,1.621-0.918l1.15-1.809l1.202,1.892c0.345,0.542,0.93,0.882,1.57,0.914c0.033,0,0.065,0.002,0.098,0.002
	c0.266,0,0.527-0.054,0.768-0.156c0.16,0.174,0.352,0.319,0.569,0.43c0.281,0.143,0.584,0.211,0.886,0.211
	c0.476,0,0.95-0.174,1.32-0.508L17.81,9.89l-0.481,1.872c-1.622-1.107-3.646-1.688-5.839-1.688c-2.196,0-4.222,0.584-5.846,1.695
	l-0.28-1.535C5.699,10.468,6.096,10.59,6.496,10.59z M11.489,29.021c-4.6,0-8.331-4.247-8.331-9.485h2.876l3.776-2.807L8.3,19.561
	c0,0,7.476,1.556,11.525-0.025C19.825,24.773,16.093,29.021,11.489,29.021z"/>
</svg>
