<?xml version="1.0" encoding="iso-8859-1"?>
<!-- Generator: Adobe Illustrator 17.1.0, SVG Export Plug-In . SVG Version: 6.00 Build 0)  -->
<!DOCTYPE svg PUBLIC "-//W3C//DTD SVG 1.1//EN" "http://www.w3.org/Graphics/SVG/1.1/DTD/svg11.dtd">
<svg version="1.1" id="Capa_1" xmlns="http://www.w3.org/2000/svg" xmlns:xlink="http://www.w3.org/1999/xlink" x="0px" y="0px"
	 viewBox="0 0 490 490" style="enable-background:new 0 0 490 490;" xml:space="preserve">
<g>
	<g>
		<path d="M393.431,156.565c-19.231-15.092-42.151-30.319-50.002-30.319c-8.107,0-22.676,13.354-33.607,25.854
			c-15.032,17.188-26.865,36.429-32.463,52.789c-0.181,0.53-0.213,1.101-0.091,1.648c1.284,5.788,2.577,11.489,3.828,17.003
			c2.815,12.406,5.473,24.124,7.525,34.645c0.094,0.483,0.304,0.936,0.612,1.32c6.656,8.324,14.661,16.573,22.402,24.549
			c18.496,19.061,35.966,37.063,27.031,48.232c-1.794,2.243-4.014,3.334-6.786,3.334c-8.341,0.001-20.91-9.23-35.392-25.994
			c-0.818-0.946-2.132-1.298-3.314-0.885c-1.181,0.413-1.991,1.506-2.042,2.756c-0.728,17.982-2.131,39.66-3.617,62.609
			c-0.771,11.909-1.568,24.225-2.316,36.703c-2.938,23.657,1.766,42.671,13.982,56.507C316.604,487.053,343.457,490,357.914,490
			c21.548,0,40.294-5.03,51.139-15.536c11.736-11.712,18.238-28.408,21.892-52.506c3.248-21.424,3.45-47.076,3.663-74.233
			c0.079-10.01,0.161-20.361,0.391-30.967c0.028-1.326-0.803-2.518-2.056-2.95c-1.253-0.432-2.643-0.004-3.436,1.058
			c-10.417,13.938-15.073,18.829-20.475,19.496c-1.454,0.18-3.314,0.159-5.443-1.303c-1.578-1.084-2.478-2.941-2.888-4.721
			c-2.029-8.791,9.681-27.608,18.665-40.998c6.359-9.477,13.596-20.55,19.045-30.807c0.157-0.295,0.264-0.613,0.317-0.943
			c1.033-6.4,1.03-6.4,7.088-43.816c0.107-0.661-0.007-1.34-0.324-1.931C435.074,190.454,405.614,166.125,393.431,156.565z"/>
		<path d="M441.782,85.05c-6.979-22.465-17.547-41.279-31.409-55.919C392.068,9.799,371.095-0.29,345.932,0.006
			c-10.04,0.118-43.972,3.388-62.514,28.182c-7.682,10.271-13.49,22.841-16.689,37.797c-5.204,24.325-4.416,54.386,2.48,94.602
			c0.19,1.107,1.086,1.96,2.203,2.093c1.12,0.136,2.189-0.481,2.635-1.515c17.067-39.474,46.787-64.565,61.656-73.169
			c0.874-0.506,1.366-1.48,1.253-2.483l-2.514-22.377c-0.288-2.563,1.564-4.885,4.128-5.172c0.176-0.02,0.355-0.03,0.531-0.03
			c2.379,0,4.374,1.788,4.64,4.158l2.498,22.233c0.105,0.939,0.721,1.74,1.601,2.084c31.459,12.3,73.984,41.971,98.07,80.527
			c0.472,0.756,1.294,1.195,2.155,1.195c0.21,0,0.423-0.026,0.634-0.08c1.073-0.276,1.844-1.217,1.904-2.323
			C452.216,136.226,449.248,109.082,441.782,85.05z"/>
	</g>
	<g>
		<path d="M96.568,156.565c19.232-15.092,42.151-30.319,50.003-30.319c8.107,0,22.676,13.354,33.607,25.854
			c15.032,17.188,26.865,36.429,32.463,52.789c0.182,0.53,0.213,1.101,0.091,1.648c-1.284,5.788-2.577,11.489-3.828,17.003
			c-2.814,12.406-5.473,24.124-7.525,34.645c-0.094,0.483-0.304,0.936-0.612,1.32c-6.656,8.324-14.661,16.573-22.402,24.549
			c-18.496,19.061-35.966,37.063-27.031,48.232c1.794,2.243,4.014,3.334,6.786,3.334c8.341,0.001,20.91-9.23,35.392-25.994
			c0.818-0.946,2.132-1.298,3.313-0.885c1.181,0.413,1.991,1.506,2.042,2.756c0.728,17.982,2.131,39.66,3.617,62.609
			c0.771,11.909,1.568,24.225,2.316,36.703c2.938,23.657-1.766,42.671-13.981,56.507C173.396,487.053,146.543,490,132.086,490
			c-21.548,0-40.293-5.03-51.138-15.536c-11.737-11.712-18.239-28.408-21.892-52.506c-3.248-21.424-3.449-47.076-3.663-74.233
			c-0.079-10.01-0.16-20.361-0.391-30.967c-0.028-1.326,0.803-2.518,2.056-2.95c1.254-0.432,2.643-0.004,3.437,1.058
			c10.417,13.938,15.073,18.829,20.475,19.496c1.455,0.18,3.314,0.159,5.443-1.303c1.578-1.084,2.477-2.941,2.888-4.721
			c2.029-8.791-9.681-27.608-18.665-40.998c-6.359-9.477-13.596-20.55-19.045-30.807c-0.157-0.295-0.264-0.613-0.317-0.943
			c-1.033-6.4-1.03-6.4-7.088-43.816c-0.107-0.661,0.007-1.34,0.324-1.931C54.925,190.454,84.385,166.125,96.568,156.565z"/>
		<path d="M48.218,85.05c6.979-22.465,17.546-41.279,31.409-55.919C97.932,9.799,118.904-0.29,144.067,0.006
			c10.04,0.118,43.972,3.388,62.514,28.182c7.682,10.271,13.49,22.841,16.689,37.797c5.203,24.325,4.415,54.386-2.48,94.602
			c-0.19,1.107-1.085,1.96-2.202,2.093c-1.12,0.136-2.189-0.481-2.636-1.515c-17.066-39.474-46.786-64.565-61.656-73.169
			c-0.873-0.506-1.366-1.48-1.253-2.483l2.514-22.377c0.288-2.563-1.564-4.885-4.128-5.172c-0.176-0.02-0.355-0.03-0.531-0.03
			c-2.379,0-4.374,1.788-4.64,4.158l-2.498,22.233c-0.105,0.939-0.721,1.74-1.6,2.084c-31.459,12.3-73.984,41.971-98.07,80.527
			c-0.472,0.756-1.294,1.195-2.155,1.195c-0.21,0-0.423-0.026-0.634-0.08c-1.073-0.276-1.844-1.217-1.904-2.323
			C37.783,136.226,40.752,109.082,48.218,85.05z"/>
	</g>
</g>
<g>
</g>
<g>
</g>
<g>
</g>
<g>
</g>
<g>
</g>
<g>
</g>
<g>
</g>
<g>
</g>
<g>
</g>
<g>
</g>
<g>
</g>
<g>
</g>
<g>
</g>
<g>
</g>
<g>
</g>
</svg>
