<?xml version="1.0" encoding="iso-8859-1"?>
<!-- Generator: Adobe Illustrator 17.1.0, SVG Export Plug-In . SVG Version: 6.00 Build 0)  -->
<!DOCTYPE svg PUBLIC "-//W3C//DTD SVG 1.1//EN" "http://www.w3.org/Graphics/SVG/1.1/DTD/svg11.dtd">
<svg version="1.1" id="Capa_1" xmlns="http://www.w3.org/2000/svg" xmlns:xlink="http://www.w3.org/1999/xlink" x="0px" y="0px"
	 viewBox="0 0 490 490" style="enable-background:new 0 0 490 490;" xml:space="preserve">
<path d="M489.548,205.165c-2.215-11.294-12.115-19.44-23.623-19.44H299.443L268.489,47.77
	c-2.467-10.991-12.225-18.804-23.488-18.804c-11.266,0-21.023,7.813-23.49,18.804l-30.953,137.955H24.075
	c-11.508,0-21.408,8.146-23.623,19.44c-2.215,11.294,3.875,22.576,14.531,26.923l140.773,57.42L92.87,426.945
	c-4.762,10.406-1.539,22.727,7.707,29.469c4.246,3.094,9.221,4.62,14.178,4.62c5.846,0,11.664-2.121,16.236-6.295l114.01-104.097
	l114.008,104.097c4.572,4.174,10.391,6.295,16.236,6.295c4.957,0,9.932-1.526,14.178-4.62c9.246-6.742,12.469-19.063,7.707-29.469
	l-62.887-137.438l140.773-57.42C485.673,227.741,491.763,216.459,489.548,205.165z M150.591,403.474
	c-2.682,3.692-7.848,4.512-11.539,1.832c-3.691-2.681-4.51-7.846-1.83-11.538c2.682-3.69,7.846-4.511,11.537-1.829
	C152.45,394.618,153.271,399.783,150.591,403.474z M341.237,391.939c3.691-2.682,8.857-1.861,11.539,1.829
	c2.68,3.692,1.859,8.857-1.832,11.538c-3.691,2.68-8.855,1.86-11.537-1.832C336.728,399.783,337.548,394.618,341.237,391.939z
	 M278.962,230.301c8.102-1.283,15.709,4.244,16.992,12.346c1.283,8.101-4.244,15.709-12.346,16.992
	c-8.102,1.283-15.709-4.244-16.992-12.346C265.333,239.193,270.861,231.584,278.962,230.301z M244.999,72.882
	c4.561,0,8.26,3.697,8.26,8.26s-3.699,8.26-8.26,8.26c-4.563,0-8.262-3.697-8.262-8.26S240.437,72.882,244.999,72.882z
	 M244.999,115.534c5.775,0,10.457,4.682,10.457,10.457c0,5.775-4.682,10.457-10.457,10.457c-5.775,0-10.459-4.682-10.459-10.457
	C234.54,120.216,239.224,115.534,244.999,115.534z M244.999,158.187c6.988,0,12.654,5.664,12.654,12.654
	c0,6.988-5.666,12.654-12.654,12.654c-6.99,0-12.654-5.666-12.654-12.654C232.345,163.851,238.009,158.187,244.999,158.187z
	 M194.046,242.647c1.281-8.102,8.889-13.629,16.992-12.346c8.1,1.283,13.627,8.892,12.344,16.992
	c-1.281,8.102-8.889,13.629-16.992,12.346C198.288,258.356,192.761,250.747,194.046,242.647z M83.982,225.214
	c-0.715,4.506-4.945,7.58-9.451,6.866c-4.506-0.714-7.58-4.945-6.865-9.45c0.711-4.506,4.943-7.58,9.449-6.866
	C81.62,216.477,84.694,220.708,83.982,225.214z M130.448,232.573c-0.904,5.705-6.26,9.597-11.965,8.693
	c-5.705-0.904-9.596-6.261-8.691-11.965c0.902-5.704,6.26-9.596,11.963-8.692C127.46,221.513,131.351,226.869,130.448,232.573z
	 M151.919,235.974c1.092-6.902,7.574-11.612,14.477-10.518c6.904,1.093,11.613,7.575,10.52,14.479
	c-1.094,6.902-7.574,11.612-14.479,10.52C155.534,249.36,150.825,242.876,151.919,235.974z M178.722,368.477
	c-3.395,4.674-9.934,5.711-14.607,2.318c-4.674-3.394-5.711-9.933-2.316-14.606c3.393-4.674,9.932-5.711,14.606-2.316
	C181.075,357.265,182.114,363.804,178.722,368.477z M206.851,333.48c-4.105,5.654-12.02,6.91-17.676,2.804
	c-5.654-4.106-6.91-12.02-2.803-17.675c4.107-5.655,12.018-6.91,17.674-2.804C209.702,319.911,210.956,327.824,206.851,333.48z
	 M234.982,298.482c-4.818,6.638-14.107,8.11-20.744,3.291c-6.637-4.819-8.111-14.107-3.291-20.744
	c4.82-6.637,14.105-8.11,20.744-3.291C238.327,282.558,239.802,291.845,234.982,298.482z M244.999,230.542
	c-8.203,0-14.852-6.65-14.852-14.853c0-8.202,6.648-14.85,14.852-14.85c8.201,0,14.852,6.648,14.852,14.85
	C259.851,223.892,253.2,230.542,244.999,230.542z M275.761,301.773c-6.637,4.819-15.926,3.347-20.746-3.291
	c-4.818-6.637-3.344-15.924,3.293-20.744c6.637-4.819,15.924-3.346,20.742,3.291C283.87,287.666,282.398,296.953,275.761,301.773z
	 M300.822,336.283c-5.654,4.106-13.568,2.851-17.676-2.804c-4.105-5.655-2.85-13.568,2.805-17.675
	c5.656-4.107,13.568-2.852,17.676,2.804C307.732,324.264,306.478,332.177,300.822,336.283z M325.882,370.795
	c-4.672,3.393-11.211,2.355-14.605-2.318c-3.392-4.673-2.355-11.212,2.318-14.605c4.674-3.395,11.211-2.357,14.605,2.316
	C331.593,360.862,330.558,367.402,325.882,370.795z M327.562,250.453c-6.902,1.093-13.385-3.617-14.477-10.52
	c-1.094-6.903,3.615-13.386,10.518-14.479c6.904-1.094,13.385,3.616,14.479,10.518C339.175,242.876,334.466,249.36,327.562,250.453z
	 M371.517,241.267c-5.705,0.903-11.063-2.988-11.965-8.693c-0.904-5.704,2.988-11.061,8.691-11.964
	c5.705-0.903,11.063,2.988,11.965,8.692C381.112,235.006,377.22,240.362,371.517,241.267z M415.47,232.08
	c-4.506,0.714-8.738-2.36-9.451-6.866c-0.713-4.506,2.359-8.737,6.865-9.45c4.508-0.714,8.738,2.36,9.451,6.866
	C423.05,227.135,419.976,231.366,415.47,232.08z"/>
<g>
</g>
<g>
</g>
<g>
</g>
<g>
</g>
<g>
</g>
<g>
</g>
<g>
</g>
<g>
</g>
<g>
</g>
<g>
</g>
<g>
</g>
<g>
</g>
<g>
</g>
<g>
</g>
<g>
</g>
</svg>
