<?xml version="1.0" encoding="iso-8859-1"?>
<!-- Generator: Adobe Illustrator 18.0.0, SVG Export Plug-In . SVG Version: 6.00 Build 0)  -->
<!DOCTYPE svg PUBLIC "-//W3C//DTD SVG 1.1//EN" "http://www.w3.org/Graphics/SVG/1.1/DTD/svg11.dtd">
<svg version="1.1" id="Capa_1" xmlns="http://www.w3.org/2000/svg" xmlns:xlink="http://www.w3.org/1999/xlink" x="0px" y="0px"
	 viewBox="0 0 60.003 60.003" style="enable-background:new 0 0 60.003 60.003;" xml:space="preserve">
<g>
	<path d="M42.299,45.051c-0.527-0.173-1.09,0.113-1.263,0.638s0.112,1.09,0.637,1.263c0.072,0.024,0.137,0.06,0.204,0.091
		c-5.012,4.424-12.483,4.533-17.606,0.375c0.089,0.016,0.179,0.031,0.267,0.061c0.525,0.173,1.089-0.113,1.263-0.638
		c0.173-0.524-0.112-1.09-0.637-1.263c-0.998-0.328-2.063-0.251-3,0.224c-0.937,0.473-1.633,1.282-1.961,2.28
		c-0.173,0.524,0.112,1.09,0.637,1.263c0.104,0.034,0.209,0.05,0.313,0.05c0.42,0,0.812-0.267,0.95-0.688
		c0.045-0.136,0.107-0.263,0.178-0.384c2.981,2.744,6.774,4.14,10.581,4.14c3.609,0,7.213-1.254,10.129-3.738
		c0.007,0.219-0.016,0.442-0.089,0.663c-0.173,0.524,0.112,1.09,0.637,1.263c0.104,0.034,0.209,0.05,0.313,0.05
		c0.42,0,0.812-0.267,0.95-0.688C45.479,47.954,44.356,45.729,42.299,45.051z"/>
	<path d="M41,31.001c0.27,0,0.52-0.11,0.7-0.29c0.19-0.19,0.3-0.45,0.3-0.71s-0.11-0.521-0.29-0.71c-0.38-0.37-1.05-0.37-1.42,0
		c-0.18,0.189-0.29,0.45-0.29,0.71s0.11,0.52,0.29,0.71C40.48,30.89,40.74,31.001,41,31.001z"/>
	<path d="M40.5,33.168c3.033,0,5.5-2.468,5.5-5.5s-2.467-5.5-5.5-5.5s-5.5,2.468-5.5,5.5S37.467,33.168,40.5,33.168z M40.5,24.168
		c1.93,0,3.5,1.57,3.5,3.5s-1.57,3.5-3.5,3.5s-3.5-1.57-3.5-3.5S38.57,24.168,40.5,24.168z"/>
	<path d="M22.38,31.541c0.19-0.19,0.29-0.44,0.29-0.71c0-0.261-0.1-0.521-0.29-0.71c-0.38-0.37-1.03-0.37-1.41,0.01
		c-0.19,0.18-0.29,0.439-0.29,0.7c0,0.27,0.1,0.52,0.29,0.71c0.18,0.189,0.44,0.29,0.7,0.29C21.94,31.831,22.2,31.73,22.38,31.541z"
		/>
	<path d="M26.675,28.501c0-3.032-2.467-5.5-5.5-5.5s-5.5,2.468-5.5,5.5s2.467,5.5,5.5,5.5S26.675,31.533,26.675,28.501z
		 M17.675,28.501c0-1.93,1.57-3.5,3.5-3.5s3.5,1.57,3.5,3.5s-1.57,3.5-3.5,3.5S17.675,30.43,17.675,28.501z"/>
	<path d="M35.391,42.641c-2.026,0.34-4.355-0.231-5.43-1.352c-0.01-0.013-0.071-0.086-0.081-0.098
		c-0.361-0.405-0.954-0.419-1.369-0.068s-0.448,0.999-0.106,1.422c0.042,0.052,0.084,0.103,0.128,0.147
		c1.236,1.287,3.41,2.049,5.63,2.049c0.521,0,1.046-0.042,1.561-0.129c1.938-0.328,3.345-1.251,3.962-2.597
		c0.806-1.76,0.84-3.444,0.099-5.006c-1.221-2.575-4.297-4.183-6.769-4.828c-1.165-0.305-3.146-0.219-4.077,0.178
		c-0.508,0.216-0.745,0.804-0.528,1.312c0.216,0.509,0.801,0.745,1.312,0.528c0.477-0.204,2.027-0.281,2.788-0.082
		c2.096,0.547,4.599,1.919,5.467,3.749c0.482,1.018,0.446,2.102-0.11,3.315C37.541,41.898,36.638,42.429,35.391,42.641z"/>
	<path d="M59.796,27.065c-0.402-1.698-1.366-3.157-2.578-3.903c-0.811-0.499-1.678-0.661-2.507-0.461
		c-0.187,0.044-0.368,0.113-0.544,0.196c-1.187-2.882-2.709-5.248-4.404-7.185l0.042-0.031l-0.787-0.822
		c-4.328-4.522-9.57-6.521-13.579-7.399c0.625-0.735,0.82-1.749,0.508-2.682c-0.311-0.931-1.061-1.579-2.005-1.736
		c-0.16-0.026-0.324-0.04-0.49-0.04c-0.022,0-0.048,0.006-0.07,0.006c-0.072,0.001-0.143,0.012-0.216,0.019
		c-0.118,0.011-0.236,0.023-0.363,0.046c-0.067,0.013-0.133,0.029-0.201,0.046c-1.315,0.302-2.925,1.221-3.129,2.591l-0.111,0.207
		L28.829,6.91c-0.14,0.013-0.292,0.029-0.454,0.048c-3.548,0.386-10.481,1.853-16.107,7.392l-0.781,0.77l0.045,0.038
		c-3.075,3.294-5.646,7.884-6.805,14.303c-0.006,0.031-0.007,0.062-0.013,0.093c-0.254-0.07-0.511-0.118-0.775-0.118
		C1.73,29.435,0,31.818,0,34.859s1.73,5.424,3.939,5.424c0.401,0,0.793-0.102,1.17-0.264c0.627,2.378,1.609,4.634,2.976,6.673
		c3.215,4.798,9.675,10.504,22.293,10.305c0.19,0.003,0.377,0.004,0.565,0.004c11.799,0,18.072-5.202,21.266-9.605
		c2.881-3.971,4.346-8.946,4.23-14.077c0.035,0.001,0.071,0.014,0.106,0.014c0.227,0,0.451-0.025,0.67-0.078
		C59.363,32.742,60.497,30.023,59.796,27.065z M29.521,8.861l0.551-0.038l1.269-2.359c0.509-0.906,1.352-1.412,1.997-1.459
		C33.432,5,33.526,4.999,33.613,5.013h0.002c0.265,0.044,0.384,0.241,0.436,0.398c0.073,0.219,0.069,0.539-0.164,0.783l-0.642,0.676
		l-0.127,0.134l0,0.001c-0.023,0.024-0.036,0.054-0.057,0.079c-0.054,0.067-0.11,0.133-0.149,0.207
		c-0.014,0.027-0.019,0.057-0.031,0.084c-0.035,0.079-0.07,0.157-0.089,0.24c-0.051,0.225-0.042,0.464,0.033,0.692
		c0.15,0.455,0.537,0.789,1.012,0.874c3.585,0.628,8.63,2.22,12.89,6.219c-3.71,2.269-9.487,3.601-15.772,3.601
		c-6.669,0-12.817-1.521-16.436-4.016C20.105,10.022,26.806,9.048,29.521,8.861z M3.939,38.283C3.022,38.283,2,36.877,2,34.859
		s1.022-3.424,1.939-3.424c0.167,0,0.335,0.047,0.503,0.138c-0.04,0.409-0.052,0.814-0.071,1.22c-0.009,0.19-0.02,0.38-0.024,0.57
		c-0.012,0.473-0.011,0.944,0.004,1.413c0.001,0.038,0.004,0.075,0.006,0.113c0.038,1.048,0.14,2.083,0.312,3.099
		C4.464,38.153,4.215,38.283,3.939,38.283z M50.59,46.221c-4.315,5.949-11.104,8.924-20.212,8.775
		c-9.447,0.145-16.356-3.039-20.632-9.418c-1.414-2.109-2.385-4.474-2.927-6.977l0.003-0.004l-0.09-0.469
		c-0.215-1.118-0.343-2.256-0.384-3.406l0-0.003c-0.018-0.51-0.012-1.024,0.005-1.539c0.005-0.139,0.011-0.279,0.018-0.418
		c0.022-0.444,0.057-0.889,0.105-1.334c0.06-0.537,0.12-1.074,0.218-1.614c1.094-6.055,3.484-10.358,6.349-13.427
		c3.922,2.861,10.661,4.612,17.908,4.612c6.853,0,13.195-1.539,17.211-4.146c1.745,1.975,3.286,4.432,4.436,7.489l-0.006,0.007
		l0.182,0.513c0.559,1.571,0.979,3.143,1.287,4.804c0.123,0.667,0.207,1.335,0.271,2.002c0.011,0.114,0.026,0.225,0.036,0.34
		C54.794,37.181,53.466,42.257,50.59,46.221z M56.751,31.309c-0.137,0.031-0.281,0.032-0.436-0.001
		c-0.004-0.04-0.012-0.076-0.016-0.115c-0.068-0.63-0.153-1.26-0.269-1.89c-0.137-0.742-0.299-1.451-0.473-2.144
		c-0.02-0.079-0.039-0.16-0.06-0.24c-0.19-0.737-0.4-1.449-0.628-2.133c0.1-0.069,0.203-0.115,0.307-0.141
		c0.38-0.092,0.75,0.067,0.994,0.219c0.758,0.467,1.402,1.486,1.68,2.661C58.315,29.49,57.644,31.096,56.751,31.309z"/>
	<circle cx="46" cy="39.001" r="1"/>
	<circle cx="42" cy="36.001" r="1"/>
	<circle cx="47" cy="35.001" r="1"/>
	<circle cx="15.394" cy="33.246" r="1"/>
	<circle cx="19.796" cy="35.617" r="1"/>
	<circle cx="15" cy="37.351" r="1"/>
</g>
<g>
</g>
<g>
</g>
<g>
</g>
<g>
</g>
<g>
</g>
<g>
</g>
<g>
</g>
<g>
</g>
<g>
</g>
<g>
</g>
<g>
</g>
<g>
</g>
<g>
</g>
<g>
</g>
<g>
</g>
</svg>
