<?xml version="1.0" encoding="iso-8859-1"?>
<!-- Generator: Adobe Illustrator 18.0.0, SVG Export Plug-In . SVG Version: 6.00 Build 0)  -->
<!DOCTYPE svg PUBLIC "-//W3C//DTD SVG 1.1//EN" "http://www.w3.org/Graphics/SVG/1.1/DTD/svg11.dtd">
<svg version="1.1" id="Capa_1" xmlns="http://www.w3.org/2000/svg" xmlns:xlink="http://www.w3.org/1999/xlink" x="0px" y="0px"
	 viewBox="0 0 480.004 480.004" style="enable-background:new 0 0 480.004 480.004;" xml:space="preserve">
<path d="M409.705,70.297C364.375,24.965,304.106,0,240.002,0S115.629,24.965,70.298,70.297
	C24.968,115.628,0.004,175.897,0.004,240.002s24.964,124.374,70.294,169.705c45.331,45.332,105.599,70.297,169.704,70.297
	s124.373-24.965,169.703-70.297C455.035,364.376,480,304.106,480,240.002S455.035,115.628,409.705,70.297z M459.769,230.002h-94.925
	c-0.96-36.208-7.135-70.185-18.425-101.116c-9.906-27.139-23.729-51.994-41.087-73.877c-10.697-13.485-21.385-24.142-30.755-32.309
	c45.627,7.161,87.702,28.453,120.987,61.739C434.75,123.627,457.324,174.994,459.769,230.002z M230.002,28.566v201.436h-94.834
	c0.941-33.588,6.626-65.04,16.969-93.609c9.066-25.043,21.708-47.976,37.577-68.159C204.524,49.394,219.453,36.458,230.002,28.566z
	 M230.002,250.002v201.477c-10.363-7.744-24.977-20.399-39.661-38.91c-16.024-20.201-28.799-43.182-37.969-68.305
	c-10.492-28.746-16.257-60.417-17.205-94.262H230.002z M250.002,451.438V250.002h94.834c-0.941,33.59-6.626,65.042-16.969,93.612
	c-9.065,25.043-21.708,47.976-37.576,68.159C275.481,430.611,260.554,443.544,250.002,451.438z M250.002,230.002V28.526
	c10.363,7.745,24.977,20.4,39.66,38.912c16.024,20.201,28.799,43.183,37.969,68.305c10.493,28.746,16.257,60.415,17.205,94.259
	H250.002z M84.441,84.438c33.285-33.286,75.36-54.577,120.986-61.739c-9.37,8.167-20.058,18.824-30.755,32.309
	c-17.358,21.883-31.182,46.738-41.087,73.877c-11.29,30.932-17.465,64.908-18.425,101.116H20.235
	C22.68,174.994,45.254,123.627,84.441,84.438z M20.235,250.002h94.925c0.96,36.21,7.135,70.187,18.425,101.119
	c9.906,27.139,23.729,51.994,41.087,73.877c10.696,13.483,21.383,24.139,30.752,32.306c-45.625-7.162-87.7-28.453-120.984-61.738
	C45.254,356.377,22.68,305.01,20.235,250.002z M395.563,395.565c-33.284,33.285-75.359,54.577-120.985,61.738
	c9.369-8.167,20.057-18.822,30.752-32.306c17.358-21.883,31.182-46.738,41.088-73.877c11.29-30.932,17.465-64.909,18.425-101.119
	h94.925C457.324,305.01,434.75,356.377,395.563,395.565z"/>
<g>
</g>
<g>
</g>
<g>
</g>
<g>
</g>
<g>
</g>
<g>
</g>
<g>
</g>
<g>
</g>
<g>
</g>
<g>
</g>
<g>
</g>
<g>
</g>
<g>
</g>
<g>
</g>
<g>
</g>
</svg>
