<?xml version="1.0" encoding="iso-8859-1"?>
<!-- Generator: Adobe Illustrator 18.0.0, SVG Export Plug-In . SVG Version: 6.00 Build 0)  -->
<!DOCTYPE svg PUBLIC "-//W3C//DTD SVG 1.1//EN" "http://www.w3.org/Graphics/SVG/1.1/DTD/svg11.dtd">
<svg version="1.1" id="Capa_1" xmlns="http://www.w3.org/2000/svg" xmlns:xlink="http://www.w3.org/1999/xlink" x="0px" y="0px"
	 viewBox="0 0 295.996 295.996" style="enable-background:new 0 0 295.996 295.996;" xml:space="preserve">
<g>
	<path d="M147.998,0C66.392,0,0,66.392,0,147.998s66.392,147.998,147.998,147.998c81.606,0,147.998-66.392,147.998-147.998
		S229.604,0,147.998,0z M147.998,279.996c-36.257,0-69.143-14.696-93.022-38.44c-9.536-9.482-17.631-20.41-23.934-32.42
		C21.442,190.847,16,170.048,16,147.998C16,75.214,75.214,16,147.998,16c34.523,0,65.987,13.328,89.533,35.102
		c12.208,11.288,22.289,24.844,29.558,39.997c8.27,17.238,12.907,36.537,12.907,56.899
		C279.996,220.782,220.782,279.996,147.998,279.996z"/>
	<circle cx="98.497" cy="114.998" r="16"/>
	<circle cx="197.497" cy="114.998" r="16"/>
	<path d="M206.908,206.536c0-32.483-26.428-58.911-58.912-58.911c-32.483,0-58.91,26.428-58.91,58.911
		c0,27.951,19.572,51.401,45.727,57.406c4.241,0.975,8.65,1.506,13.183,1.506c12.918,0,24.87-4.19,34.591-11.268
		C197.312,243.461,206.908,226.103,206.908,206.536z M147.996,249.448c-23.661,0-42.91-19.25-42.91-42.912
		c0-23.661,19.249-42.911,42.91-42.911c23.662,0,42.912,19.25,42.912,42.911C190.908,230.198,171.658,249.448,147.996,249.448z"/>
	
		<rect x="197.472" y="68.288" transform="matrix(0.8057 0.5923 -0.5923 0.8057 87.8995 -115.3827)" width="44.694" height="15.999"/>
	<polygon points="55.25,85.552 62.908,95.97 98.918,69.496 89.441,56.605 64.075,75.254 53.432,83.079 	"/>
</g>
<g>
</g>
<g>
</g>
<g>
</g>
<g>
</g>
<g>
</g>
<g>
</g>
<g>
</g>
<g>
</g>
<g>
</g>
<g>
</g>
<g>
</g>
<g>
</g>
<g>
</g>
<g>
</g>
<g>
</g>
</svg>
