<?xml version="1.0" encoding="iso-8859-1"?>
<!-- Generator: Adobe Illustrator 16.0.0, SVG Export Plug-In . SVG Version: 6.00 Build 0)  -->
<!DOCTYPE svg PUBLIC "-//W3C//DTD SVG 1.1//EN" "http://www.w3.org/Graphics/SVG/1.1/DTD/svg11.dtd">
<svg version="1.1" id="Capa_1" xmlns="http://www.w3.org/2000/svg" xmlns:xlink="http://www.w3.org/1999/xlink" x="0px" y="0px"
	 width="47.871px" height="47.871px" viewBox="0 0 47.871 47.871" style="enable-background:new 0 0 47.871 47.871;"
	 xml:space="preserve">
<g>
	<g id="Wine_Glass">
		<g>
			<path d="M33.381,12.165c0,5.321-4.115,9.179-9.194,9.179c-5.07,0-9.188-3.896-9.188-9.179c0,0,3.467,2.225,9.226,0
				C30.274,9.827,33.381,12.165,33.381,12.165z"/>
			<path d="M24.187,22.343c-5.713,0-10.188-4.471-10.188-10.179c0-0.366,0.199-0.702,0.521-0.877
				c0.319-0.176,0.711-0.163,1.02,0.036c0.007,0.004,1.367,0.831,3.734,0.831l0,0c1.464,0,3.008-0.31,4.591-0.921
				c1.899-0.734,3.725-1.106,5.424-1.106c2.961,0,4.525,1.113,4.694,1.24c0.251,0.189,0.398,0.485,0.398,0.799
				C34.381,17.872,29.904,22.343,24.187,22.343z M16.139,13.715c0.706,3.82,3.988,6.628,8.048,6.628
				c4.479,0,7.901-3.231,8.177-7.607c-0.531-0.248-1.563-0.61-3.076-0.61c-1.451,0-3.033,0.327-4.703,0.972
				c-1.813,0.701-3.601,1.056-5.312,1.056l0,0C17.988,14.153,16.932,13.95,16.139,13.715z"/>
		</g>
		<g>
			<path d="M23.921,6.356c-2.717,0-11.581-0.229-11.581-3.178C12.341,0.229,21.205,0,23.921,0C26.638,0,35.5,0.229,35.5,3.178
				C35.5,6.127,26.638,6.356,23.921,6.356z M14.703,3.178c1.15,0.506,4.314,1.178,9.22,1.178c4.903,0,8.067-0.672,9.217-1.178
				C31.99,2.672,28.826,2,23.921,2C19.016,2,15.853,2.672,14.703,3.178z"/>
			<path d="M21.477,43.707c-0.393,0-0.765-0.232-0.925-0.619c-0.158-0.384-0.06-0.811,0.217-1.087
				c0.651-1.778,0.708-15.086,0.396-16.696c-0.165-0.527,0.136-1.062,0.663-1.228c0.528-0.162,1.095,0.153,1.26,0.682
				c0.245,0.787,0.271,6.442,0.229,9.296c-0.13,9.028-0.774,9.295-1.457,9.576C21.733,43.682,21.604,43.707,21.477,43.707z"/>
			<path d="M26.435,43.707c-0.127,0-0.257-0.023-0.381-0.076c-0.685-0.281-1.328-0.547-1.458-9.576
				c-0.041-2.854-0.016-8.509,0.229-9.296c0.166-0.528,0.729-0.82,1.254-0.657c0.515,0.162,0.807,0.698,0.668,1.215
				C26.436,26.98,26.492,40.227,27.143,42c0.275,0.277,0.375,0.704,0.217,1.088C27.201,43.473,26.828,43.706,26.435,43.707z"/>
			<path d="M26.065,25.998c-0.483,0-0.909-0.352-0.987-0.846c-0.084-0.545,0.287-1.058,0.834-1.143
				c6.025-0.947,10.234-5.922,10.234-12.097c0-1.128-0.443-3.517-2.561-8.489c-0.217-0.508,0.021-1.096,0.529-1.312
				c0.506-0.216,1.096,0.021,1.312,0.529c1.83,4.301,2.72,7.334,2.72,9.272c0,7.182-4.902,12.969-11.925,14.071
				C26.168,25.994,26.117,25.998,26.065,25.998z"/>
			<path d="M21.806,25.998c-0.052,0-0.104-0.004-0.156-0.012c-7.022-1.104-11.925-6.892-11.925-14.073
				c0-1.938,0.89-4.971,2.72-9.272c0.216-0.508,0.804-0.745,1.312-0.529c0.507,0.216,0.744,0.804,0.528,1.312
				c-2.116,4.972-2.56,7.361-2.56,8.489c0,6.175,4.209,11.149,10.235,12.097c0.546,0.085,0.918,0.598,0.833,1.143
				C22.715,25.646,22.29,25.998,21.806,25.998z"/>
			<path d="M23.949,47.871c-8.96,0-9.414-2.336-9.414-2.805c0-1.887,3.977-3.09,6.665-3.31c0.542-0.045,1.033,0.365,1.078,0.915
				c0.045,0.551-0.365,1.033-0.916,1.078c-2.012,0.165-3.647,0.783-4.429,1.232c1.076,0.404,3.609,0.888,7.016,0.888
				c3.405,0,5.938-0.481,7.017-0.888c-0.775-0.447-2.388-1.061-4.363-1.228c-0.551-0.047-0.959-0.53-0.912-1.081
				c0.046-0.55,0.538-0.956,1.08-0.912c2.66,0.227,6.595,1.432,6.595,3.303C33.365,45.535,32.91,47.871,23.949,47.871z"/>
		</g>
	</g>
	<g>
	</g>
	<g>
	</g>
	<g>
	</g>
	<g>
	</g>
	<g>
	</g>
	<g>
	</g>
	<g>
	</g>
	<g>
	</g>
	<g>
	</g>
	<g>
	</g>
	<g>
	</g>
	<g>
	</g>
	<g>
	</g>
	<g>
	</g>
	<g>
	</g>
</g>
<g>
</g>
<g>
</g>
<g>
</g>
<g>
</g>
<g>
</g>
<g>
</g>
<g>
</g>
<g>
</g>
<g>
</g>
<g>
</g>
<g>
</g>
<g>
</g>
<g>
</g>
<g>
</g>
<g>
</g>
</svg>
