<?xml version="1.0" encoding="iso-8859-1"?>
<!-- Generator: Adobe Illustrator 18.0.0, SVG Export Plug-In . SVG Version: 6.00 Build 0)  -->
<!DOCTYPE svg PUBLIC "-//W3C//DTD SVG 1.1//EN" "http://www.w3.org/Graphics/SVG/1.1/DTD/svg11.dtd">
<svg version="1.1" id="Capa_1" xmlns="http://www.w3.org/2000/svg" xmlns:xlink="http://www.w3.org/1999/xlink" x="0px" y="0px"
	 viewBox="0 0 492.391 492.391" style="enable-background:new 0 0 492.391 492.391;" xml:space="preserve">
<path d="M492.041,292.281c-1.331-4.818-6.359-7.645-11.192-6.307c-2.545,0.713-4.454,2.456-5.57,4.634l-18.573,5.211l12.313-12.673
	c2.435,0.064,4.864-0.801,6.707-2.68c3.506-3.61,3.412-9.365-0.19-12.842c-3.59-3.504-9.352-3.433-12.843,0.164
	c-1.838,1.889-2.625,4.36-2.495,6.802l-13.256,13.655l5.04-20.292c2.132-1.176,3.813-3.152,4.436-5.705
	c1.201-4.868-1.743-9.792-6.612-11.009c-4.865-1.208-9.78,1.755-11.015,6.621c-0.622,2.554-0.065,5.085,1.266,7.119l-6.66,26.758
	c-0.055,0.001-13.52,0.195-14.895,0.215c-0.082-0.141-0.159-0.272-0.252-0.43c-0.293-0.488-32.188-52.294-32.485-52.778
	l-0.192,0.162c-2.256-15.37-7.587-29.139-15.495-39.404c-40.426-52.431-22.85-106.755-22.85-106.755l-0.015,0.008l3.059-8.388
	c4.26-11.682-0.018-24.769-10.361-31.686l-55.279-37.009c-7.847-5.25-17.85-6.017-26.42-2.04
	c-8.564,3.988-14.408,12.153-15.448,21.532l-7.254,66.147c-1.358,12.362,5.908,24.058,17.597,28.316c0,0,21.258,6.215,27.504,10.029
	c11.286,6.892,34.535,36.863,18.511,72.925c-5.601,0.218-56.918,2.185-56.933,2.185c0.01,0.001-0.026,0.004-0.084,0.007
	c-0.273-1.793-0.582-3.814-0.75-4.92l10.856-31.437c2.547-0.985,4.706-2.935,5.665-5.723c1.73-5.044-0.943-10.527-5.972-12.255
	c-5.009-1.746-10.533,0.928-12.279,5.962c-0.959,2.802-0.466,5.667,0.963,8.03l-7.078,20.419l-3.826-19.5
	c1.712-2.146,2.592-4.915,2.034-7.811c-1.026-5.236-6.117-8.629-11.32-7.606c-5.234,1.017-8.658,6.1-7.636,11.327
	c0.573,2.89,2.45,5.114,4.852,6.446l4.113,20.969l-15.4-17.522c0.414-2.712-0.226-5.56-2.179-7.784
	c-3.524-3.997-9.608-4.396-13.607-0.892c-4.002,3.524-4.391,9.6-0.883,13.618c1.954,2.217,4.691,3.21,7.429,3.156l20.364,23.189
	c-3.062,31.509,15.676,32.036,50.047,41.323c-19.467,18.804-47.628,38.007-85.494,44.57c3.015-20.341,6.018-27.967-3.982-41.41
	c-1.013-0.807-3.851-3.751-7.366-5.941c-8.731-4.876-12.648-3.818-33.304-2.83l-13.605-26.428c1.039-2.521,1.102-5.42-0.243-8.045
	c-2.447-4.738-8.276-6.577-12.998-4.135c-4.707,2.415-6.597,8.256-4.163,12.999c1.358,2.633,3.811,4.249,6.498,4.844l9.913,19.235
	l-16.798-10.703c-0.366-2.722-1.759-5.27-4.24-6.863c-4.482-2.87-10.454-1.536-13.304,2.948c-2.881,4.481-1.554,10.479,2.913,13.335
	c2.516,1.586,5.412,1.763,8.035,0.944l17.711,11.295l-0.018,0.175l-22.989-0.919c-5.685-7.336-16.813-3.31-17.18,5.435
	c-0.225,5.323,3.923,9.799,9.238,10.04c2.96,0.105,5.555-1.186,7.41-3.202l32.506,1.314l0.014-0.368
	c1,0.263,19.916,5.282,21.117,5.592c-2.248,4.647-13.399,27.565-13.399,27.565C79.536,302.912-0.368,282.233,18.827,158.013
	c0.631-3.979-5.12-5.458-6.47-1.633c-18.152,51.496-35.523,156.54,97.695,205.618c0,0,31.412,9.549,69.452,14.72
	c1.04,1.155,2.063,2.283,3.25,3.604c0.79,0.874,22.44,24.825,23.231,25.698c-1,0.889-11.343,10.073-14.764,13.135l-0.141-0.31
	l-29.782,13c-2.447-1.202-5.347-1.457-8.051-0.282c-4.884,2.139-7.109,7.83-4.964,12.694c2.096,4.853,7.813,7.126,12.695,4.999
	c2.703-1.186,4.468-3.509,5.251-6.149l19.819-8.647l-11.75,16.044c-2.723,0.184-5.36,1.418-7.106,3.793
	c-3.171,4.299-2.211,10.345,2.062,13.468c4.31,3.161,10.359,2.246,13.512-2.052c1.732-2.393,2.101-5.274,1.456-7.932l12.62-17.22
	l-2.453,23.181c-2.272,1.548-3.938,3.942-4.239,6.886c-0.546,5.302,3.281,10.031,8.564,10.598
	c5.303,0.562,10.041-3.275,10.617-8.579c0.303-2.948-0.818-5.624-2.707-7.6l3.22-30.491c0,0,6.755-2.952,16.198-7.075
	c2.521-1.171,5.449-3.188,7.703-5.661c2.291-1.407,6.066-9.741,5.955-9.517c4.915-13.454-1.026-22.754-5.666-31.325
	c84.019,2.698,128.624-37.473,145.149-82.533c3.887,3.503,17.033,15.435,17.033,15.435c15.684,10.779,19.43,7.027,52.69-3.195
	l0.014,0.083l29.701-8.326c2.081,1.265,4.626,1.745,7.156,1.042C490.598,302.12,493.418,297.09,492.041,292.281z"/>
<g>
</g>
<g>
</g>
<g>
</g>
<g>
</g>
<g>
</g>
<g>
</g>
<g>
</g>
<g>
</g>
<g>
</g>
<g>
</g>
<g>
</g>
<g>
</g>
<g>
</g>
<g>
</g>
<g>
</g>
</svg>
