<?xml version="1.0" encoding="iso-8859-1"?>
<!-- Generator: Adobe Illustrator 19.0.0, SVG Export Plug-In . SVG Version: 6.00 Build 0)  -->
<svg version="1.1" id="Layer_1" xmlns="http://www.w3.org/2000/svg" xmlns:xlink="http://www.w3.org/1999/xlink" x="0px" y="0px"
	 viewBox="0 0 490 490" style="enable-background:new 0 0 490 490;" xml:space="preserve">
<g id="XMLID_860_">
	<g>
		<g>
			<path d="M418.241,71.759C371.967,25.484,310.442,0,245,0S118.033,25.484,71.759,71.759C25.485,118.034,0,179.558,0,245
				s25.484,126.967,71.759,173.241C118.034,464.515,179.558,490,245,490s126.967-25.484,173.241-71.759
				C464.515,371.966,490,310.442,490,245S464.516,118.033,418.241,71.759z M245,460c-118.551,0-215-96.449-215-215
				S126.449,30,245,30s215,96.449,215,215S363.551,460,245,460z"/>
			<path d="M245,60C142.991,60,60,142.991,60,245s82.991,185,185,185s185-82.991,185-185S347.009,60,245,60z M260,399.272V370h-30
				v29.272C156.482,392.179,97.821,333.518,90.728,260H120v-30H90.728C97.821,156.482,156.482,97.821,230,90.728V120h30V90.728
				C333.518,97.821,392.179,156.482,399.272,230H370v30h29.272C392.179,333.518,333.518,392.179,260,399.272z"/>
			<polygon points="205.729,230 284.271,230 245,151.459 			"/>
			<polygon points="245,338.541 284.271,260 205.729,260 			"/>
		</g>
	</g>
</g>
<g>
</g>
<g>
</g>
<g>
</g>
<g>
</g>
<g>
</g>
<g>
</g>
<g>
</g>
<g>
</g>
<g>
</g>
<g>
</g>
<g>
</g>
<g>
</g>
<g>
</g>
<g>
</g>
<g>
</g>
</svg>
