<?xml version="1.0" encoding="iso-8859-1"?>
<!-- Generator: Adobe Illustrator 18.0.0, SVG Export Plug-In . SVG Version: 6.00 Build 0)  -->
<!DOCTYPE svg PUBLIC "-//W3C//DTD SVG 1.1//EN" "http://www.w3.org/Graphics/SVG/1.1/DTD/svg11.dtd">
<svg version="1.1" id="Capa_1" xmlns="http://www.w3.org/2000/svg" xmlns:xlink="http://www.w3.org/1999/xlink" x="0px" y="0px"
	 viewBox="0 0 486.738 486.738" style="enable-background:new 0 0 486.738 486.738;" xml:space="preserve">
<path d="M481.365,173.595c-19.75-48.936-85.671-76.643-98.691-81.698c-0.741-0.284-1.467-0.57-2.195-0.849
	c3.195-7.63,5.448-17.089,2.01-26.957c-9.445-27.042-50.522-38.269-103.235-50.142c-7.589-1.706-13.764-3.048-17.189-4.128
	c-12.482-3.941-25.784,3.003-29.72,15.486c-0.524,1.61-0.833,3.24-1,4.853c-41.435-13.464-89.44-26.794-130.544-18.539
	c-34.845,6.981-58.901,30.074-67.76,65c-10.767,42.559,2.654,98.419,25.153,140.396c-6.17,3.705-11.913,7.777-17.127,12.237
	c-54.039,46.261-51.108,144.734-12.376,201.88c20.768,30.623,66.416,46.887,103.262,46.887c3.843,0,7.594-0.178,11.203-0.533
	c32.681-3.218,44.458-20.058,48.575-29.813c4.971-11.772,4.447-24.642-1.481-38.431c10.494,12.602,42.051,46.008,74.454,39.318
	c9.754-1.997,27.172-9.42,34.347-36.626c5.973-22.596,0.834-48.968-3.684-72.229c-1.437-7.346-2.813-14.398-3.676-20.593
	c5.99-0.471,12.702-1.166,19.908-2.123c8.286,15.611,15.708,32.453,23.236,49.572l6.867,15.486
	c2.609,5.792,7.422,10.307,13.381,12.514c5.972,2.205,12.561,1.943,18.313-0.764c24.214-11.356,40.015-31.563,45.722-58.442
	c3.35-15.742,2.962-32.5,0.124-48.987c26.696-13.331,49.442-31.502,60.783-55.974C488.496,212.081,488.958,192.444,481.365,173.595z
	 M78.994,88.262c4.416-17.435,14.011-26.733,31.125-30.166c5.633-1.134,11.68-1.635,17.991-1.635
	c28.146,0,61.986,10.061,92.063,19.922c-11.08,3.563-21.526,8.347-31.372,14.334c-32.945,20.068-62.061,53.267-86.549,98.671
	c-0.771,1.435-1.622,2.962-2.547,4.584C83.145,162.625,71.157,119.188,78.994,88.262z M118.744,429.56
	c-22.156-3.294-43.052-13.587-50.813-25.02c-22.557-33.301-28.19-91.128-7.978-124.915c-0.092,0.72-0.186,1.428-0.247,2.138
	c-4.645,45.846,29.966,81.729,57.772,110.563c8.088,8.379,15.708,16.294,21.421,23.423c4.997,6.271,7.143,10.476,8.052,12.87
	C142.553,430.184,132.896,431.668,118.744,429.56z M151.597,359.422c-22.112-22.923-47.172-48.901-44.735-72.882
	c0.277-2.833,1.331-6.441,2.887-10.532c18.595,13.163,38.407,23.231,60.118,30.39c-10.261,30.115-6.281,55.837,3.535,76.684
	C166.891,375.283,159.438,367.553,151.597,359.422z M192.656,263.834c-19.639-5.563-37.185-13.856-53.572-25.167
	c25.427-4.175,52.616-4.336,75.332-0.88C205.958,246.73,198.752,255.411,192.656,263.834z M253.224,399.849
	c-0.106,0.446-0.23,0.848-0.353,1.21c-6.514-2.861-18.212-11.827-27.837-24.171c-10.216-13.092-19.723-31.934-8.52-59.901
	c8.841,1.203,17.978,2.042,27.467,2.545c0.957,9.237,2.857,18.973,4.844,29.226C252.377,367.035,256.419,387.744,253.224,399.849z
	 M290.241,141.947c-1.573,2.084-3.147,4.181-4.72,6.281c-0.277,0.069-0.573,0.14-0.85,0.207
	c-14.117,3.635-32.386,14.845-40.134,47.498c-6.232-1.82-12.747-3.319-19.595-4.468c-13.752-2.3-28.825-3.509-44.41-3.509
	c-7.532,0-15.17,0.284-22.839,0.854c16.973-25.869,35.982-45.56,55.767-57.608c24.66-15.03,56.354-18.997,94.711-11.95
	c-2.591,3.3-5.183,6.564-7.713,9.735C296.848,133.508,293.388,137.858,290.241,141.947z M335.36,265.008
	c-11.803-17.106-25.765-32.814-42.99-45.483c5.218-7.036,10.278-14.088,15.276-21.069c0.216-0.318,0.432-0.634,0.678-0.949
	c8.692,4.281,20.587,12.875,32.47,26.578c7.59,8.764,14.875,20.871,20.675,34.187C352.937,260.856,344.157,263.102,335.36,265.008z
	 M372.766,325.511c-0.462,2.091-0.987,4.059-1.652,5.909c-3.517-7.815-7.206-15.77-11.125-23.7
	c4.566-1.157,9.168-2.424,13.765-3.782C374.401,311.638,374.154,318.96,372.766,325.511z M437.004,210.484
	c-5.263,11.386-16.774,21.378-31.804,29.833c-8.392-19.348-18.886-36.076-28.578-47.264c-6.17-7.137-20.909-22.814-39.565-33.939
	c0.154-0.194,0.309-0.385,0.463-0.58c6.465-8.116,13.363-16.756,19.63-25.599c2.746,1.004,5.541,2.052,8.361,3.14
	c29.226,11.365,63.313,33.987,71.876,55.251C440.138,198.091,440.014,203.992,437.004,210.484z"/>
<g>
</g>
<g>
</g>
<g>
</g>
<g>
</g>
<g>
</g>
<g>
</g>
<g>
</g>
<g>
</g>
<g>
</g>
<g>
</g>
<g>
</g>
<g>
</g>
<g>
</g>
<g>
</g>
<g>
</g>
</svg>
