<?xml version="1.0" encoding="iso-8859-1"?>
<!-- Generator: Adobe Illustrator 18.0.0, SVG Export Plug-In . SVG Version: 6.00 Build 0)  -->
<!DOCTYPE svg PUBLIC "-//W3C//DTD SVG 1.1//EN" "http://www.w3.org/Graphics/SVG/1.1/DTD/svg11.dtd">
<svg version="1.1" id="Capa_1" xmlns="http://www.w3.org/2000/svg" xmlns:xlink="http://www.w3.org/1999/xlink" x="0px" y="0px"
	 viewBox="0 0 59 59" style="enable-background:new 0 0 59 59;" xml:space="preserve">
<g>
	<path d="M29.5,0C14.888,0,3,11.888,3,26.5v10.979c0,0,0,0.002,0,0.003c0,0.003,0,0.005,0,0.007c0,0.004,0,0.008,0,0.012V51
		c0,2.757,2.243,5,5,5h6.55c0.046,0.022,0.096,0.04,0.142,0.062c3.51,1.654,7.728,2.643,12.542,2.878
		c0.107,0.005,0.214,0.011,0.322,0.016C28.195,58.982,28.84,59,29.5,59s1.305-0.018,1.945-0.045c0.108-0.005,0.215-0.01,0.322-0.016
		c4.814-0.235,9.032-1.224,12.542-2.878c0.046-0.022,0.096-0.04,0.142-0.062H51c2.757,0,5-2.243,5-5V26.5C56,11.888,44.112,0,29.5,0
		z M43.993,54l-0.207,0.101c-2.828,1.374-6.204,2.271-9.917,2.666c-0.271,0.027-0.542,0.056-0.818,0.078
		c-0.392,0.033-0.787,0.062-1.187,0.084C31.09,56.969,30.309,57,29.5,57s-1.59-0.031-2.364-0.072
		c-0.399-0.022-0.794-0.051-1.187-0.084c-0.276-0.022-0.547-0.05-0.818-0.078c-3.712-0.394-7.089-1.292-9.917-2.666L15.007,54
		h-0.089C8.547,50.783,5,45.095,5,37.5c0-0.004,0-0.007,0-0.011c0-0.002,0-0.004,0-0.006c0-0.001,0-0.002,0-0.004
		C5.012,24.628,15.795,13.647,29,13l0.951-0.001C43.212,13.647,54,24.639,54,37.5c0,7.595-3.547,13.283-9.918,16.5H43.993z M8,54
		c-1.654,0-3-1.346-3-3v-4.226c1.384,2.876,3.459,5.308,6.148,7.226H8z M54,51c0,1.654-1.346,3-3,3h-3.148
		c2.689-1.917,4.764-4.349,6.148-7.226V51z M30,11l-1.049,0.001C18.165,11.529,8.911,18.42,5,27.735V26.5C5,12.99,15.991,2,29.5,2
		S54,12.99,54,26.5v1.198C50.079,18.398,40.811,11.528,30,11z"/>
	<path d="M26.861,33.316C28.3,36.374,31.403,38.5,35,38.5c4.962,0,9-4.037,9-9s-4.038-9-9-9c-3.597,0-6.7,2.126-8.139,5.184
		C25.61,23.77,23.452,22.5,21,22.5c-3.86,0-7,3.141-7,7s3.14,7,7,7C23.452,36.5,25.61,35.23,26.861,33.316z M35,36.5
		c-3.316,0-6.095-2.32-6.814-5.421l12.657-5.424C41.572,26.76,42,28.08,42,29.5C42,33.359,38.86,36.5,35,36.5z M35,22.5
		c1.68,0,3.222,0.595,4.43,1.585l-11.403,4.887C28.298,25.359,31.318,22.5,35,22.5z M21,24.5c2.605,0,4.727,2.01,4.955,4.556
		l-8.491-3.088C18.37,25.062,19.62,24.5,21,24.5z M16,29.5c0-0.639,0.132-1.246,0.351-1.809l9.363,3.405
		C25.044,33.068,23.195,34.5,21,34.5C18.243,34.5,16,32.257,16,29.5z"/>
	<path d="M44,37.5c-0.552,0-1,0.447-1,1s0.448,1,1,1c0.307,0,0.597,0.06,0.876,0.146c-2.369,4.31-6.226,7.496-10.927,8.975
		c-4.438,1.396-9.129,1.11-13.352-0.757C21.018,47.639,21.491,47.5,22,47.5c0.552,0,1-0.447,1-1s-0.448-1-1-1c-2.757,0-5,2.243-5,5
		c0,0.553,0.448,1,1,1s1-0.447,1-1c0-0.375,0.077-0.732,0.204-1.063c2.86,1.368,5.93,2.069,9.025,2.069
		c2.117,0,4.245-0.324,6.321-0.978c5.112-1.608,9.315-5.045,11.944-9.692C46.813,41.313,47,41.885,47,42.5c0,0.553,0.448,1,1,1
		s1-0.447,1-1C49,39.743,46.757,37.5,44,37.5z"/>
	<circle cx="22" cy="31.5" r="1"/>
	<circle cx="32.5" cy="32" r="1.5"/>
</g>
<g>
</g>
<g>
</g>
<g>
</g>
<g>
</g>
<g>
</g>
<g>
</g>
<g>
</g>
<g>
</g>
<g>
</g>
<g>
</g>
<g>
</g>
<g>
</g>
<g>
</g>
<g>
</g>
<g>
</g>
</svg>
