<?xml version="1.0" encoding="iso-8859-1"?>
<!-- Generator: Adobe Illustrator 16.0.0, SVG Export Plug-In . SVG Version: 6.00 Build 0)  -->
<!DOCTYPE svg PUBLIC "-//W3C//DTD SVG 1.1//EN" "http://www.w3.org/Graphics/SVG/1.1/DTD/svg11.dtd">
<svg version="1.1" id="Capa_1" xmlns="http://www.w3.org/2000/svg" xmlns:xlink="http://www.w3.org/1999/xlink" x="0px" y="0px"
	 width="940.017px" height="940.017px" viewBox="0 0 940.017 940.017" style="enable-background:new 0 0 940.017 940.017;"
	 xml:space="preserve">
<g>
	<g>
		<path d="M630.009,667.5c-0.6,0-1.2,0-1.8,0l-39.601-1.5l-29.399,26.6c-9.2,8.301-21.101,12.9-33.5,12.9
			c-6.5,0-12.9-1.199-18.9-3.699l-36.7-15l-36.699,15c-6,2.5-12.4,3.699-18.9,3.699c-12.4,0-24.3-4.6-33.5-12.9l-29.4-26.6
			l-39.6,1.5c-0.6,0-1.2,0-1.8,0c-18.601,0-35.5-10.199-44.2-26.699l-18.5-35.102l-1.5-0.5V914.9c0,18.6,19.601,30.699,36.2,22.299
			l176.8-88.799c7.1-3.5,15.4-3.5,22.5,0l176.5,88.9c16.6,8.398,36.2-3.701,36.2-22.301V605.301l-1.5,0.5l-18.5,35.1
			C665.608,657.301,648.608,667.5,630.009,667.5z"/>
		<path d="M811.209,353.6c5.1-8.1,5.1-18.4,0-26.6l-21.101-33.6c-3.5-5.5-4.6-12.2-3.3-18.5l8.4-38.8c2-9.4-1.5-19.1-9.101-25
			l-31.3-24.3c-5.1-4-8.5-9.8-9.399-16.3l-5.5-39.3c-1.301-9.5-8-17.4-17.101-20.4l-37.7-12.2c-6.199-2-11.399-6.4-14.399-12.1
			l-18.5-35.1c-4.3-8.2-12.9-13.3-22.101-13.3c-0.3,0-0.6,0-0.899,0l-39.601,1.5c-0.3,0-0.6,0-0.899,0c-6.2,0-12.2-2.3-16.8-6.5
			l-29.4-26.6c-4.7-4.2-10.7-6.5-16.8-6.5c-3.2,0-6.4,0.6-9.4,1.9l-36.7,15c-3,1.2-6.199,1.9-9.399,1.9s-6.4-0.6-9.4-1.9l-36.7-15
			c-3.1-1.2-6.3-1.9-9.399-1.9c-6.101,0-12.101,2.2-16.8,6.5l-29.4,26.6c-4.6,4.2-10.6,6.5-16.8,6.5c-0.3,0-0.601,0-0.9,0l-39.6-1.5
			c-0.3,0-0.601,0-0.9,0c-9.2,0-17.8,5.1-22.1,13.3l-18.5,35.1c-3,5.8-8.2,10.1-14.399,12.1l-37.7,12.2
			c-9.101,2.9-15.8,10.9-17.101,20.4l-5.5,39.3c-0.899,6.5-4.3,12.3-9.399,16.3l-31.7,24.3c-7.601,5.9-11.101,15.6-9.101,25
			l8.4,38.8c1.4,6.4,0.2,13-3.3,18.5L128.809,327c-5.1,8.1-5.1,18.4,0,26.6l21.101,33.6c3.5,5.5,4.6,12.2,3.3,18.5l-8.4,38.801
			c-2,9.399,1.5,19.1,9.101,25l31.3,24.3c5.1,4,8.5,9.799,9.4,16.299l5.5,39.301c1.3,9.5,8,17.4,17.1,20.4l28.6,9.199l9.2,3
			c6.2,2,11.4,6.4,14.4,12.1l18.5,35.1c4.3,8.201,12.899,13.301,22.1,13.301c0.3,0,0.6,0,0.9,0l39.6-1.5c0.3,0,0.6,0,0.9,0
			c6.199,0,12.199,2.301,16.8,6.5l29.399,26.6c4.7,4.201,10.7,6.5,16.801,6.5c3.199,0,6.399-0.6,9.399-1.9l36.7-15
			c3-1.199,6.2-1.898,9.4-1.898c3.199,0,6.399,0.6,9.399,1.898l36.7,15c3.1,1.201,6.3,1.9,9.4,1.9c6.1,0,12.1-2.199,16.8-6.5
			l29.399-26.6c4.601-4.199,10.601-6.5,16.801-6.5c0.3,0,0.6,0,0.899,0l39.601,1.5c0.3,0,0.6,0,0.899,0
			c9.2,0,17.8-5.1,22.101-13.301l18.5-35.1c3-5.799,8.199-10.1,14.399-12.1l9.2-3l28.6-9.199c9.101-2.9,15.801-10.9,17.101-20.4
			l5.5-39.301c0.899-6.5,4.3-12.299,9.399-16.299l31.301-24.3c7.6-5.9,11.1-15.601,9.1-25l-8.4-38.801
			c-1.399-6.399-0.199-13,3.301-18.5L811.209,353.6z M711.909,442.5c-5.101,11.899-10.9,23.399-17.601,34.4
			c-10.8,17.699-23.7,34.199-38.6,49c-24.101,24.1-52.2,43-83.4,56.199c-32.399,13.701-66.8,20.6-102.2,20.6
			c-35.399,0-69.8-6.898-102.199-20.6c-31.301-13.199-59.301-32.1-83.4-56.199c-14.899-14.9-27.8-31.301-38.6-49
			c-6.7-11-12.601-22.4-17.601-34.4c-13.699-32.4-20.6-66.801-20.6-102.2c0-35.4,6.9-69.8,20.6-102.2
			c13.2-31.3,32.101-59.3,56.2-83.4s52.2-43,83.4-56.2c32.399-13.7,66.8-20.6,102.199-20.6c35.4,0,69.801,6.9,102.2,20.6
			c31.3,13.2,59.3,32.1,83.4,56.2c24.1,24.1,43,52.2,56.2,83.4c13.699,32.4,20.6,66.8,20.6,102.2
			C732.509,375.7,725.608,410.1,711.909,442.5z"/>
		<path d="M470.009,107.8c-128.4,0-232.5,104.1-232.5,232.5c0,21.3,2.9,42,8.3,61.6c27,98.5,117.2,170.901,224.2,170.901
			s197.2-72.4,224.2-170.901c5.399-19.6,8.3-40.3,8.3-61.6C702.509,211.9,598.409,107.8,470.009,107.8z M573.509,448
			c4.5,21.1-18,37.599-36.8,26.9l-66.7-37.8l-66.8,37.8c-18.7,10.6-41.3-5.9-36.8-26.9l16-75.4l-52.2-47.1l-5.8-5.3
			c-15.9-14.4-7.5-40.8,13.699-43.4l76-9.3l33.101-70.9c9-19.2,36.3-19.2,45.3,0l33.1,70.9l76,9.3c21.301,2.6,29.601,29,13.7,43.4
			l-5.8,5.3l-52.2,47.1L573.509,448z"/>
	</g>
</g>
<g>
</g>
<g>
</g>
<g>
</g>
<g>
</g>
<g>
</g>
<g>
</g>
<g>
</g>
<g>
</g>
<g>
</g>
<g>
</g>
<g>
</g>
<g>
</g>
<g>
</g>
<g>
</g>
<g>
</g>
</svg>
