<?xml version="1.0" encoding="iso-8859-1"?>
<!-- Generator: Adobe Illustrator 19.0.0, SVG Export Plug-In . SVG Version: 6.00 Build 0)  -->
<svg version="1.1" id="Layer_1" xmlns="http://www.w3.org/2000/svg" xmlns:xlink="http://www.w3.org/1999/xlink" x="0px" y="0px"
	 viewBox="0 0 512 512" style="enable-background:new 0 0 512 512;" xml:space="preserve">
<g>
	<g>
		<g>
			<path d="M503.467,494.933h-179.2v-204.8c0-4.71-3.814-8.533-8.533-8.533s-8.533,3.823-8.533,8.533v204.8h-25.6v-76.8
				c0-4.71-3.814-8.533-8.533-8.533s-8.533,3.823-8.533,8.533v76.8h-17.067v-76.8c0-4.71-3.814-8.533-8.533-8.533
				s-8.533,3.823-8.533,8.533v76.8h-25.6v-102.4h85.333c4.719,0,8.533-3.823,8.533-8.533s-3.814-8.533-8.533-8.533H281.6v-76.8
				c0-4.71-3.814-8.533-8.533-8.533s-8.533,3.823-8.533,8.533v76.8h-17.067v-76.8c0-4.71-3.814-8.533-8.533-8.533
				s-8.533,3.823-8.533,8.533v76.8h-25.6v-102.4h128c4.719,0,8.533-3.823,8.533-8.533V93.867c0-4.71-3.814-8.533-8.533-8.533
				c-4.719,0-8.533,3.823-8.533,8.533V256H187.733V119.467H307.2c4.719,0,8.533-3.823,8.533-8.533s-3.814-8.533-8.533-8.533h-3.26
				l-14.703-29.414c-1.451-2.893-4.403-4.719-7.637-4.719h-17.067V8.533C264.533,3.823,260.719,0,256,0s-8.533,3.823-8.533,8.533
				v59.733H230.4c-3.234,0-6.187,1.826-7.637,4.719L208.06,102.4h-20.326v-8.533c0-4.71-3.814-8.533-8.533-8.533
				s-8.533,3.823-8.533,8.533v170.667c0,4.71,3.814,8.533,8.533,8.533h8.533v221.867H8.533c-4.719,0-8.533,3.823-8.533,8.533
				S3.814,512,8.533,512h494.933c4.719,0,8.533-3.823,8.533-8.533S508.186,494.933,503.467,494.933z M235.674,85.333h40.653
				l8.533,17.067H227.14L235.674,85.333z"/>
			<path d="M247.467,170.667v17.067c0,2.261,0.896,4.437,2.5,6.033l8.533,8.533c1.664,1.664,3.849,2.5,6.033,2.5
				c2.185,0,4.369-0.836,6.033-2.5c3.337-3.337,3.337-8.73,0-12.066l-6.033-6.033v-13.534c0-4.71-3.814-8.533-8.533-8.533
				S247.467,165.956,247.467,170.667z"/>
			<path d="M204.8,187.733c0,28.237,22.963,51.2,51.2,51.2s51.2-22.963,51.2-51.2s-22.963-51.2-51.2-51.2
				S204.8,159.497,204.8,187.733z M290.133,187.733c0,18.825-15.309,34.133-34.133,34.133c-18.825,0-34.133-15.309-34.133-34.133
				S237.175,153.6,256,153.6C274.825,153.6,290.133,168.909,290.133,187.733z"/>
		</g>
	</g>
</g>
<g>
</g>
<g>
</g>
<g>
</g>
<g>
</g>
<g>
</g>
<g>
</g>
<g>
</g>
<g>
</g>
<g>
</g>
<g>
</g>
<g>
</g>
<g>
</g>
<g>
</g>
<g>
</g>
<g>
</g>
</svg>
