<?xml version="1.0" encoding="iso-8859-1"?>
<!-- Generator: Adobe Illustrator 19.0.0, SVG Export Plug-In . SVG Version: 6.00 Build 0)  -->
<svg version="1.1" id="Capa_1" xmlns="http://www.w3.org/2000/svg" xmlns:xlink="http://www.w3.org/1999/xlink" x="0px" y="0px"
	 viewBox="0 0 56 56" style="enable-background:new 0 0 56 56;" xml:space="preserve">
<g>
	<g>
		<path d="M53.281,0.497C53.102,0.19,52.773,0,52.417,0H40.739c-0.36,0-0.692,0.193-0.87,0.506L19.921,35.646
			c-0.179,0.314-0.173,0.702,0.015,1.012l11.431,18.86C31.548,55.817,31.872,56,32.221,56H44.14c0.357,0,0.687-0.19,0.866-0.5
			c0.179-0.309,0.179-0.69,0-1L34.015,35.441L53.287,1.494C53.463,1.185,53.461,0.805,53.281,0.497z M31.993,34.951
			c-0.175,0.309-0.174,0.687,0.003,0.994L42.409,54h-9.625L21.95,36.123L41.321,2h9.378L31.993,34.951z"/>
		<path d="M23.208,25.761L17.58,12.606C17.422,12.238,17.061,12,16.66,12H6.066c-0.336,0-0.649,0.169-0.834,0.449
			s-0.217,0.635-0.085,0.944l5.188,12.126l-7.63,14.002c-0.169,0.31-0.162,0.686,0.018,0.989C2.903,40.815,3.23,41,3.583,41h10.595
			c0.355,0,0.684-0.188,0.863-0.494l8.111-13.846C23.312,26.386,23.333,26.053,23.208,25.761z M13.604,39H5.266l7.057-12.949
			c0.146-0.269,0.162-0.59,0.042-0.872L7.581,14h8.419l5.17,12.084L13.604,39z"/>
	</g>
</g>
<g>
</g>
<g>
</g>
<g>
</g>
<g>
</g>
<g>
</g>
<g>
</g>
<g>
</g>
<g>
</g>
<g>
</g>
<g>
</g>
<g>
</g>
<g>
</g>
<g>
</g>
<g>
</g>
<g>
</g>
</svg>
