<?xml version="1.0" encoding="iso-8859-1"?>
<!-- Generator: Adobe Illustrator 19.0.0, SVG Export Plug-In . SVG Version: 6.00 Build 0)  -->
<svg version="1.1" id="Capa_1" xmlns="http://www.w3.org/2000/svg" xmlns:xlink="http://www.w3.org/1999/xlink" x="0px" y="0px"
	 viewBox="0 0 463 463" style="enable-background:new 0 0 463 463;" xml:space="preserve">
<path d="M455.5,292H455v-43.246c0-10.55-4.108-20.469-11.567-27.93l-5.255-5.254l-26.492-92.725
	C407.842,109.395,395.388,100,381.397,100H15.5C6.953,100,0,106.953,0,115.5v176c0,8.547,6.953,15.5,15.5,15.5h28.125
	c-1.31,2.836-2.294,5.851-2.902,9H23.5c-4.143,0-7.5,3.357-7.5,7.5s3.357,7.5,7.5,7.5h17.223c3.515,18.205,19.561,32,38.777,32
	s35.262-13.795,38.777-32h113.749c0.261,4.453,3.957,8,8.475,8h78c4.518,0,8.214-3.547,8.475-8h17.749
	c3.515,18.205,19.561,32,38.777,32s35.262-13.795,38.777-32H455.5c4.143,0,7.5-3.357,7.5-7.5v-24C463,295.357,459.643,292,455.5,292
	z M367,163.5c0-0.275,0.225-0.5,0.5-0.5h40c0.019,0,0.038-0.003,0.057-0.003l14,49.002L367.501,212c-0.276,0-0.501-0.225-0.501-0.5
	V163.5z M15.5,115h365.897c7.328,0,13.852,4.921,15.865,11.967L403.272,148H367.5H15v-32.5C15,115.225,15.225,115,15.5,115z
	 M320,163.5v48c0,0.275-0.225,0.5-0.5,0.5h-24c-0.275,0-0.5-0.225-0.5-0.5v-48c0-0.275,0.225-0.5,0.5-0.5h24
	C319.775,163,320,163.225,320,163.5z M15,291.5V243h222.393l-11.196,11.196c-2.929,2.93-2.929,7.678,0,10.607
	c1.465,1.464,3.385,2.196,5.304,2.196s3.839-0.732,5.304-2.196l24-24c0.028-0.028,0.052-0.059,0.079-0.088
	c0.144-0.148,0.285-0.3,0.416-0.46c0.077-0.094,0.144-0.192,0.216-0.289c0.074-0.1,0.152-0.197,0.221-0.301
	c0.074-0.111,0.139-0.226,0.207-0.34c0.057-0.096,0.118-0.19,0.171-0.289c0.062-0.115,0.114-0.234,0.169-0.351
	c0.049-0.104,0.101-0.207,0.146-0.314c0.048-0.115,0.086-0.232,0.128-0.349c0.041-0.114,0.085-0.227,0.12-0.343
	c0.036-0.118,0.062-0.238,0.092-0.358c0.029-0.118,0.063-0.234,0.086-0.353c0.028-0.141,0.045-0.283,0.065-0.425
	c0.014-0.1,0.033-0.199,0.043-0.3c0.049-0.494,0.049-0.991,0-1.485c-0.01-0.102-0.029-0.2-0.043-0.3
	c-0.02-0.142-0.037-0.284-0.065-0.425c-0.024-0.12-0.057-0.236-0.086-0.353c-0.03-0.12-0.056-0.24-0.092-0.358
	c-0.036-0.117-0.079-0.23-0.12-0.344c-0.042-0.116-0.08-0.234-0.127-0.348c-0.044-0.107-0.097-0.21-0.146-0.315
	c-0.055-0.117-0.107-0.235-0.169-0.35c-0.053-0.099-0.114-0.193-0.171-0.289c-0.068-0.114-0.132-0.229-0.207-0.34
	c-0.069-0.104-0.147-0.201-0.221-0.301c-0.072-0.096-0.139-0.195-0.216-0.289c-0.131-0.16-0.272-0.312-0.416-0.46
	c-0.028-0.029-0.051-0.06-0.079-0.088l-24-24c-2.93-2.928-7.678-2.928-10.607,0c-2.929,2.93-2.929,7.678,0,10.607L237.393,228H15
	v-65h265.025c-0.005,0.167-0.025,0.331-0.025,0.5v48c0,8.547,6.953,15.5,15.5,15.5h24c8.547,0,15.5-6.953,15.5-15.5v-48
	c0-0.169-0.02-0.333-0.025-0.5h17.051c-0.005,0.167-0.025,0.331-0.025,0.5v48c0,8.547,6.954,15.5,15.501,15.5l60.892-0.001
	l4.432,4.432c4.627,4.628,7.175,10.779,7.175,17.323V268h-8.5c-4.143,0-7.5,3.357-7.5,7.5s3.357,7.5,7.5,7.5h8.5v9h-32.5
	c-0.063,0-0.125,0.008-0.188,0.01c-6.626-5.023-14.875-8.01-23.812-8.01s-17.186,2.987-23.812,8.01
	c-0.063-0.002-0.125-0.01-0.188-0.01h-41h-78H103.3c-6.624-5.017-14.869-8-23.8-8s-17.176,2.983-23.8,8H15.5
	C15.225,292,15,291.775,15,291.5z M344.723,316H327v-9h20.625C346.315,309.836,345.331,312.851,344.723,316z M232,316H118.277
	c-0.608-3.149-1.592-6.164-2.902-9H232V316z M79.5,348C65.99,348,55,337.01,55,323.5S65.99,299,79.5,299s24.5,10.99,24.5,24.5
	S93.01,348,79.5,348z M247,324v-17h65v16.461c0,0.013-0.002,0.026-0.002,0.039s0.002,0.026,0.002,0.039V324H247z M383.5,348
	c-13.51,0-24.5-10.99-24.5-24.5s10.99-24.5,24.5-24.5s24.5,10.99,24.5,24.5S397.01,348,383.5,348z M448,316h-25.723
	c-0.608-3.149-1.592-6.164-2.902-9H448V316z"/>
<g>
</g>
<g>
</g>
<g>
</g>
<g>
</g>
<g>
</g>
<g>
</g>
<g>
</g>
<g>
</g>
<g>
</g>
<g>
</g>
<g>
</g>
<g>
</g>
<g>
</g>
<g>
</g>
<g>
</g>
</svg>
