<?xml version="1.0" encoding="iso-8859-1"?>
<!-- Generator: Adobe Illustrator 18.0.0, SVG Export Plug-In . SVG Version: 6.00 Build 0)  -->
<!DOCTYPE svg PUBLIC "-//W3C//DTD SVG 1.1//EN" "http://www.w3.org/Graphics/SVG/1.1/DTD/svg11.dtd">
<svg version="1.1" id="Capa_1" xmlns="http://www.w3.org/2000/svg" xmlns:xlink="http://www.w3.org/1999/xlink" x="0px" y="0px"
	 viewBox="0 0 59 59" style="enable-background:new 0 0 59 59;" xml:space="preserve">
<g>
	<path d="M29.5,0C14.888,0,3,11.888,3,26.5V51c0,2.757,2.243,5,5,5h6.55c0.046,0.022,0.096,0.04,0.142,0.061
		c3.51,1.654,7.728,2.643,12.543,2.878c0.107,0.005,0.214,0.011,0.321,0.016C28.195,58.982,28.84,59,29.5,59
		s1.305-0.018,1.945-0.045c0.107-0.005,0.214-0.01,0.321-0.016c4.814-0.235,9.033-1.224,12.543-2.878
		c0.046-0.022,0.096-0.04,0.142-0.061H51c2.757,0,5-2.243,5-5V26.5C56,11.888,44.112,0,29.5,0z M5,26.5C5,12.99,15.99,2,29.5,2
		S54,12.99,54,26.5v3.4c-0.722,0.067-1.379,0.1-2,0.1c-10.406,0-19.571-7.335-22.808-18.252l-0.224-0.753l-0.784,0.038
		C17.638,11.55,8.8,18.165,5,27.375V26.5z M43.992,54l-0.207,0.101c-2.828,1.374-6.204,2.271-9.916,2.666
		c-0.271,0.027-0.542,0.056-0.819,0.078c-0.392,0.033-0.787,0.062-1.186,0.084C31.09,56.969,30.309,57,29.5,57
		s-1.59-0.031-2.364-0.072c-0.399-0.022-0.794-0.051-1.186-0.084c-0.276-0.022-0.547-0.05-0.818-0.078
		c-3.712-0.395-7.089-1.292-9.916-2.666L15.008,54h-0.089C8.548,50.783,5,45.095,5,37.5c0-12.823,9.827-23.404,22.512-24.419
		C31.198,24.431,40.947,32,52,32c0.438,0,0.891-0.015,1.365-0.044C53.787,33.775,54,35.636,54,37.5c0,7.595-3.548,13.283-9.919,16.5
		H43.992z M8,54c-1.654,0-3-1.346-3-3v-4.226c1.384,2.876,3.459,5.308,6.148,7.226H8z M54,51c0,1.654-1.346,3-3,3h-3.148
		c2.689-1.917,4.764-4.349,6.148-7.226V51z"/>
	<path d="M21,36c3.859,0,7-3.813,7-8.5S24.859,19,21,19s-7,3.813-7,8.5S17.141,36,21,36z M21,21c2.757,0,5,2.916,5,6.5
		S23.757,34,21,34s-5-2.916-5-6.5S18.243,21,21,21z"/>
	<ellipse cx="21" cy="27.5" rx="3" ry="4.5"/>
	<path d="M41.989,40H16c-0.553,0-1,0.479-1,1.031c0,4.239,2.396,8.147,6.104,9.957c2.395,1.169,5.12,1.786,7.881,1.786
		c2.759,0,5.485-0.616,7.886-1.782c3.729-1.813,6.13-5.735,6.118-9.995C42.987,40.446,42.54,40,41.989,40z M35.996,49.193
		c-4.256,2.069-9.769,2.068-14.015-0.002c-0.318-0.155-0.621-0.334-0.915-0.526c0.47-1.297,3.656-2.208,7.93-2.208
		c4.27,0,7.455,0.908,7.934,2.201C36.631,48.854,36.321,49.035,35.996,49.193z M38.488,47.341c-1.214-1.83-4.569-2.883-9.492-2.883
		c-4.926,0-8.28,1.055-9.49,2.89c-1.355-1.435-2.242-3.314-2.456-5.348h23.888C40.725,44.032,39.841,45.907,38.488,47.341z"/>
</g>
<g>
</g>
<g>
</g>
<g>
</g>
<g>
</g>
<g>
</g>
<g>
</g>
<g>
</g>
<g>
</g>
<g>
</g>
<g>
</g>
<g>
</g>
<g>
</g>
<g>
</g>
<g>
</g>
<g>
</g>
</svg>
