<?xml version="1.0" encoding="iso-8859-1"?>
<!-- Generator: Adobe Illustrator 16.0.0, SVG Export Plug-In . SVG Version: 6.00 Build 0)  -->
<!DOCTYPE svg PUBLIC "-//W3C//DTD SVG 1.1//EN" "http://www.w3.org/Graphics/SVG/1.1/DTD/svg11.dtd">
<svg version="1.1" id="Capa_1" xmlns="http://www.w3.org/2000/svg" xmlns:xlink="http://www.w3.org/1999/xlink" x="0px" y="0px"
	 width="945.438px" height="945.438px" viewBox="0 0 945.438 945.438" style="enable-background:new 0 0 945.438 945.438;"
	 xml:space="preserve">
<g>
	<g>
		<path d="M42.648,564.037c16.9,0,31.7-12.199,34.5-29.399l20.2-124.2l41.7-31.4v87.4l-83.9,226.9c-2.9,7.8,2.9,16.199,11.3,16.199
			h72.6v188c0,26,21.1,47,47,47c25.9,0,47-21.1,47-47v-188.1h17.1h5.6v188c0,26,21.1,47,47,47c25.899,0,47-21.1,47-47v-188h42.399
			c-1.2-13.2-1.7-26.6-1.3-40.1c0.6-22.7,3.5-45.7,8.6-68.5l-49.6-134.4v-69.3l46.2,44c6.7,6.399,15.399,9.7,24.2,9.7
			c6.1,0,12.199-1.601,17.6-4.801l69.6-40.699c16.101-16.2,33.5-31,51.9-44c1.6-8.1,0.4-16.8-4.1-24.4
			c-9.801-16.7-31.2-22.3-47.9-12.6l-82,47.9l-104.8-100c-19.2-20-46.2-32.4-76.1-32.4c-49.9,0-87.4,37.8-124.8,66
			c-25.2,19-50.4,38-75.6,57.1c-7.2,5.4-12,13.4-13.5,22.3l-22.5,138c-3.1,19.2,9.8,37.2,28.9,40.3
			C38.849,563.838,40.749,564.037,42.648,564.037z"/>
		<path d="M280.949,218.438c0,0,80,39,91-16c0,0-32-12-32-48c0-22.4,3.5-72.9-19-108c-2.899,5.9-7,12.2-12.8,19
			c-4.1,4.8-8.8,9.6-14.1,14.3c-3.101,2.7-6.3,5.4-9.601,8c-11.2,8.7-24.1,16.8-38.1,23.8c-6.1,3-12.2,5.8-18.3,8.2
			c-20,8.1-39.7,12.8-57.1,13.7c-1.9,0.1-3.9,0.2-5.8,0.2c-5.9,0-11.4-0.5-16.5-1.5c0,8.8,0.2,16.5,0.2,22.3c0,36-32,48-32,48
			c11,55,88,16,88,16c-12.5-7.3-18.9-21.8-22-36.4c13.1,21.7,35.8,36,61.5,36c23.8,0,47.5-17,60.9-36
			C301.849,194.337,290.448,211.038,280.949,218.438z"/>
		<path d="M132.749,101.138c2.9,5.7,8.7,9.6,16.6,11.7c4.6,1.2,10,1.8,15.9,1.8c2.9,0,5.9-0.2,9.1-0.5c18.4-1.7,40.9-8.3,63.5-19.6
			c15.8-7.9,29.7-17.1,40.8-26.6c15.2-12.9,25.3-26.4,28.3-38c1.5-5.8,1.301-11.1-1-15.6c-4.6-9.1-16.5-13.5-32.5-13.5
			c-14.1,0-31.4,3.4-49.6,10.2c-5,1.8-10,3.9-15.1,6.2l-1.2-2.1l-3.4-6.2l-2-3.7c-1-1.8-2.4-3.1-4-4c-2.9-1.6-6.5-1.7-9.6,0
			c-2.9,1.6-4.7,4.4-5.1,7.5c-0.3,2,0.1,4.1,1.1,6l1.8,3.2l3.3,6l1.3,2.3c-5,2.8-9.7,5.7-14.2,8.7
			C143.349,57.438,124.449,84.538,132.749,101.138z"/>
		<path d="M759.148,652.638c0-104,145.9-102.101,145.9-209.7c0-107.6-95.601-121.7-149.601-121.7
			c-175.3,0-322.399,156.9-338.8,326.4c-2,20.5-2,41.2,0,61.899c1.3,12.9,3.4,25.7,6.3,38.4c27.7,120,129,182.1,245,194.7
			c16.2,1.8,33.7,2.8,51.7,2.8c80.9,0,172.8-21.4,209-96.5c5.9-12.4,9.2-25.7,9.2-39.4
			C937.948,689.138,759.148,756.537,759.148,652.638z M726.049,373.338c30.7,0,55.5,24.899,55.5,55.5c0,30.699-24.9,55.5-55.5,55.5
			c-30.7,0-55.5-24.9-55.5-55.5C670.448,398.237,695.349,373.338,726.049,373.338z M581.148,466.537c28.5,0,51.7,23.101,51.7,51.7
			c0,28.5-23.1,51.7-51.7,51.7c-28.5,0-51.7-23.1-51.7-51.7C529.448,489.737,552.549,466.537,581.148,466.537z M471.448,664.537
			c0-24.899,20.2-45.1,45.101-45.1c24.899,0,45.1,20.2,45.1,45.1c0,24.9-20.2,45.101-45.1,45.101
			C491.549,709.638,471.448,689.438,471.448,664.537z M563.049,845.537c-22.8,0-41.2-18.5-41.2-41.199c0-22.801,18.5-41.2,41.2-41.2
			s41.2,18.5,41.2,41.2C604.249,827.037,585.749,845.537,563.049,845.537z M612.349,686.838c8-28.5,37.6-53.801,67.5-53.801
			c40.7,0,43.9,73.7,34.4,100.4c-7.101,19.8-26.5,27.1-46.301,24.3C633.948,752.838,602.148,723.237,612.349,686.838z
			 M693.749,896.737c-20.601,0-37.4-16.7-37.4-37.399c0-20.7,16.7-37.4,37.4-37.4c20.699,0,37.399,16.7,37.399,37.4
			C731.148,880.037,714.349,896.737,693.749,896.737z"/>
	</g>
</g>
<g>
</g>
<g>
</g>
<g>
</g>
<g>
</g>
<g>
</g>
<g>
</g>
<g>
</g>
<g>
</g>
<g>
</g>
<g>
</g>
<g>
</g>
<g>
</g>
<g>
</g>
<g>
</g>
<g>
</g>
</svg>
