<?xml version="1.0" encoding="iso-8859-1"?>
<!-- Generator: Adobe Illustrator 17.1.0, SVG Export Plug-In . SVG Version: 6.00 Build 0)  -->
<!DOCTYPE svg PUBLIC "-//W3C//DTD SVG 1.1//EN" "http://www.w3.org/Graphics/SVG/1.1/DTD/svg11.dtd">
<svg version="1.1" id="Capa_1" xmlns="http://www.w3.org/2000/svg" xmlns:xlink="http://www.w3.org/1999/xlink" x="0px" y="0px"
	 viewBox="0 0 490 490" style="enable-background:new 0 0 490 490;" xml:space="preserve">
<g>
	<g>
		<path d="M460.124,26.747c-1.066-0.762-2.434-0.967-3.669-0.547L333.743,67.674c-1.656,0.557-2.762,2.106-2.762,3.848v16.711
			c0,1.74,1.105,3.292,2.762,3.849l122.712,41.473c0.42,0.146,0.858,0.214,1.298,0.214c0.836,0,1.673-0.259,2.371-0.76
			c1.061-0.762,1.691-1.991,1.691-3.303V30.05C461.815,28.737,461.185,27.508,460.124,26.747z"/>
		<path d="M156.255,67.674L33.546,26.2c-1.238-0.42-2.607-0.215-3.669,0.547c-1.063,0.762-1.692,1.991-1.692,3.304v99.655
			c0,1.313,0.63,2.541,1.692,3.303c0.703,0.5,1.528,0.76,2.37,0.76c0.439,0,0.873-0.068,1.299-0.214l122.709-41.473
			c1.651-0.557,2.766-2.108,2.766-3.849V71.521C159.021,69.78,157.906,68.23,156.255,67.674z"/>
	</g>
	<g>
		<path d="M179.911,490H310.09c1.35,0,2.653-0.565,3.565-1.556c0.91-0.992,1.377-2.329,1.275-3.676l-3.854-49.982
			c-0.19-2.511-2.325-4.478-4.844-4.478H183.767c-2.52,0-4.647,1.967-4.841,4.478l-3.855,49.979
			c-0.107,1.345,0.358,2.683,1.274,3.68C177.263,489.435,178.56,490,179.911,490z"/>
		<g>
			<path d="M185.959,411.83h118.079c1.344,0,2.649-0.566,3.569-1.554c0.916-0.991,1.382-2.335,1.278-3.678l-3.86-49.973
				c-0.196-2.514-2.315-4.484-4.844-4.484H189.814c-2.522,0-4.647,1.97-4.842,4.484l-3.856,49.973
				c-0.105,1.344,0.357,2.687,1.276,3.678C183.31,411.264,184.609,411.83,185.959,411.83z"/>
			<g>
				<path d="M191.023,278.443l-3.856,49.989c-0.102,1.346,0.364,2.688,1.28,3.675c0.917,0.989,2.213,1.557,3.562,1.557h105.982
					c1.353,0,2.65-0.568,3.559-1.557c0.92-0.989,1.387-2.333,1.283-3.675l-3.857-49.989c-0.193-2.514-2.321-4.482-4.84-4.482
					h-98.268C193.345,273.961,191.217,275.929,191.023,278.443z"/>
				<g>
					<path d="M291.942,255.359c1.347,0,2.646-0.567,3.564-1.557c0.91-0.988,1.377-2.328,1.274-3.675l-3.854-49.976
						c-0.197-2.515-2.324-4.483-4.842-4.483h-86.169c-2.522,0-4.648,1.968-4.841,4.483l-3.857,49.977
						c-0.106,1.349,0.361,2.687,1.278,3.674c0.919,0.99,2.215,1.557,3.563,1.557H291.942z"/>
					<g>
						<path d="M192.36,177.191h105.274c3.016,0,5.467-2.454,5.467-5.477V135.9c0-3.017-2.451-5.468-5.467-5.468H192.36
							c-3.014,0-5.465,2.452-5.465,5.468v35.824C186.896,174.737,189.347,177.191,192.36,177.191z M197.829,166.257v-24.893h10.123
							v24.893H197.829z M218.881,166.257v-24.893h10.12v24.893H218.881z M239.936,166.257v-24.893h10.124v24.893H239.936z
							 M260.987,166.257v-24.893h10.131v24.893H260.987z M282.042,166.257v-24.893h10.127v24.893H282.042z"/>
						<path d="M314.297,57.509c-17.082-13.706-66.898-56.557-66.898-56.557C246.709,0.364,245.859,0,244.999,0
							c-0.859,0-1.702,0.364-2.401,0.952c0,0-49.811,42.852-66.894,56.557c-0.956,0.771-1.603,1.916-1.603,3.237
							c0,2.244,1.818,4.063,4.064,4.063c0.001,0,0.003,0,0.006,0h18.904v43.084c0,2.243,1.815,4.063,4.061,4.063h43.862h43.864
							c2.24,0,4.064-1.82,4.064-4.063V64.809h18.903c0.004,0,0.006,0,0.008,0c2.236,0,4.059-1.819,4.059-4.063
							C315.897,59.424,315.253,58.279,314.297,57.509z M244.999,95.005c-8.355,0-15.129-6.771-15.129-15.128
							c0-8.357,6.773-15.127,15.129-15.127c8.352,0,15.13,6.77,15.13,15.127C260.129,88.233,253.351,95.005,244.999,95.005z"/>
					</g>
				</g>
			</g>
		</g>
	</g>
</g>
<g>
</g>
<g>
</g>
<g>
</g>
<g>
</g>
<g>
</g>
<g>
</g>
<g>
</g>
<g>
</g>
<g>
</g>
<g>
</g>
<g>
</g>
<g>
</g>
<g>
</g>
<g>
</g>
<g>
</g>
</svg>
