<?xml version='1.0' encoding='iso-8859-1'?>
<svg version="1.1" xmlns="http://www.w3.org/2000/svg" viewBox="0 0 322.259 322.259" xmlns:xlink="http://www.w3.org/1999/xlink" enable-background="new 0 0 322.259 322.259">
  <g>
    <g>
      <circle cx="117.563" cy="77.993" r="27.59"/>
      <path d="m319.524,225.448c-8.911-9.421-20.471-15.9-32.967-18.743l-49.02-155.315c-1.023-3.239-3.618-5.737-6.895-6.635l-128.999-35.334c-3.88-1.064-8.021,0.304-10.508,3.47l-89.001,113.388c-2.025,2.579-2.656,5.987-1.691,9.12l22.925,74.388c-5.923,2.381-11.502,5.627-16.515,9.664-4.302,3.465-4.979,9.76-1.516,14.061 3.465,4.303 9.762,4.978 14.061,1.516 36.736-29.59 89.811,4.269 78.288,49.739h124.704c-12.145-47.916 47.199-81.658 82.04-46.142 5.121,5.231 11.17,4.298 14.7,0.959 4.013-3.794 4.189-10.123 0.394-14.136zm-114.371-13.409c1.181-1.213 0.921-0.97 7.567-12.306l20.269,12.367-27.836-.061zm54.708-6.971l-37.026-22.592 6.459-11.019c2.793-4.765 1.194-10.892-3.569-13.684-4.768-2.794-10.892-1.194-13.685,3.569l-3.082,5.257c2.629,3.828 4.23,8.427 4.373,13.415 0.371,12.892-9.208,25.275-25.305,25.738 0.161,2.317 1.132,4.544 2.787,6.256l-13.344-.029c-0.922-2.258-2.378-4.245-4.222-5.801l-34.108,.98c-2.022,0.058-3.219,0.092-5.232,0.15-7.225,0.208-13.502-4.299-15.902-10.711l-17.054-45.786 27.261,38.571c2.327,3.292 6.194,5.387 10.567,5.28l49.921-1.435c6.9-0.198 12.334-5.953 12.136-12.855-0.195-6.778-5.751-12.141-12.488-12.141-0.121,0-0.244,0.002-0.366,0.005l-43.222,1.242-23.392-33.098 19.864,16.623 1.337-11.898c1.15-10.229-6.21-19.453-16.439-20.603l-33.029-3.713c-10.229-1.15-19.453,6.21-20.603,16.439l-8.036,71.838h-16.78c-1.599,0-3.193,0.071-4.781,0.189l-21.804-70.747 81.669-104.043 117.338,32.14 44.964,142.464-5.207-.001z"/>
      <path d="m83.558,261.986c-0.566-1.742-1.267-3.422-2.089-5.032l.003-.003c2.857-2.857 2.857-7.489 0-10.346l-4.884-4.884c-2.857-2.857-7.489-2.857-10.346,0l-.003,.003c-1.61-0.821-3.29-1.522-5.032-2.089 0-4.041-3.276-7.316-7.316-7.316h-6.907c-4.041,0-7.316,3.276-7.316,7.316-1.742,0.566-3.422,1.267-5.032,2.089-2.859-2.859-7.494-2.859-10.353,0l-4.878,4.878c-2.859,2.859-2.859,7.494 0,10.353-0.821,1.61-1.522,3.29-2.088,5.032-4.041,0-7.316,3.276-7.316,7.316v6.907c0,4.041 3.275,7.316 7.316,7.316 0.566,1.742 1.267,3.422 2.089,5.032l-.003,.003c-2.857,2.857-2.857,7.489 0,10.347l4.884,4.884c2.857,2.857 7.489,2.857 10.346,0l.003-.003c1.61,0.821 3.29,1.522 5.032,2.089 0,4.04 3.276,7.316 7.316,7.316h6.907c4.041,0 7.316-3.276 7.316-7.316 1.742-0.566 3.422-1.267 5.032-2.089l.003,.003c2.857,2.857 7.49,2.857 10.346,0l4.884-4.884c2.857-2.857 2.857-7.489 0-10.347l-.003-.003c0.821-1.61 1.522-3.29 2.089-5.032 4.04,0 7.316-3.276 7.316-7.316v-6.907c-1.42109e-14-4.041-3.276-7.317-7.316-7.317zm-33.121,24.02c-7.318,0-13.25-5.932-13.25-13.25s5.932-13.25 13.25-13.25 13.25,5.932 13.25,13.25c0,7.317-5.932,13.25-13.25,13.25z"/>
      <path d="m302.761,261.986c-0.566-1.742-1.267-3.422-2.089-5.032l.003-.003c2.857-2.857 2.857-7.489 0-10.346l-4.884-4.884c-2.857-2.857-7.49-2.857-10.347,0l-.003,.003c-1.609-0.821-3.29-1.522-5.032-2.089 0-4.041-3.275-7.316-7.316-7.316h-6.907c-4.04,0-7.316,3.276-7.316,7.316-1.742,0.566-3.422,1.267-5.032,2.089-2.859-2.859-7.494-2.859-10.353,0l-4.878,4.878c-2.859,2.859-2.859,7.494 0,10.353-0.821,1.61-1.522,3.29-2.089,5.032-4.04,0-7.316,3.276-7.316,7.316v6.907c0,4.041 3.275,7.316 7.316,7.316 0.566,1.742 1.268,3.422 2.089,5.032l-.003,.003c-2.857,2.857-2.857,7.489 0,10.347l4.884,4.884c2.857,2.857 7.489,2.857 10.346,0l.003-.003c1.61,0.821 3.29,1.522 5.032,2.089 0,4.04 3.276,7.316 7.316,7.316h6.907c4.041,0 7.316-3.276 7.316-7.316 1.742-0.566 3.422-1.267 5.032-2.089l.003,.003c2.857,2.857 7.49,2.857 10.347,0l4.884-4.884c2.857-2.857 2.857-7.489 0-10.347l-.003-.003c0.821-1.61 1.522-3.29 2.089-5.032 4.041,0 7.316-3.276 7.316-7.316v-6.907c0.001-4.041-3.274-7.317-7.315-7.317zm-33.12,24.02c-7.318,0-13.25-5.932-13.25-13.25s5.932-13.25 13.25-13.25 13.25,5.932 13.25,13.25c0,7.317-5.932,13.25-13.25,13.25z"/>
    </g>
  </g>
</svg>
