<?xml version="1.0" encoding="utf-8"?>
<!-- Generator: Adobe Illustrator 17.1.0, SVG Export Plug-In . SVG Version: 6.00 Build 0)  -->
<!DOCTYPE svg PUBLIC "-//W3C//DTD SVG 1.1//EN" "http://www.w3.org/Graphics/SVG/1.1/DTD/svg11.dtd">
<svg version="1.1" id="Capa_1" xmlns="http://www.w3.org/2000/svg" xmlns:xlink="http://www.w3.org/1999/xlink" x="0px" y="0px"
	 width="500px" height="500px" viewBox="0 0 500 500" enable-background="new 0 0 500 500" xml:space="preserve">
<path d="M487.2,234.6c0-33.8-27.5-61.4-61.4-61.4c-3.3,0-6.5,0.3-9.6,0.8c-12.3-86.8-81-153.2-163.9-153.2
	c-82.9,0-151.6,66.4-163.9,153.2c-3-0.5-6.1-0.7-9.2-0.7c-33.8,0-61.4,27.5-61.4,61.4c0,33,26.2,60.1,59,61.3
	c-2.4,10.2-3.7,20.6-3.7,31.2c0,21.2,4.9,41.8,14.7,61.1c9.3,18.4,22.4,34.8,39.1,48.8c33.6,28.2,78.2,43.8,125.3,43.8
	S344,465.3,377.7,437c16.7-14,29.9-30.4,39.1-48.8c9.7-19.3,14.7-39.9,14.7-61.1c0-10.6-1.2-21-3.7-31.2
	C460.7,294.9,487.2,267.8,487.2,234.6z M410.5,327.1c0,4.4-0.3,8.7-0.8,13h-50.4H145.3H94.9c-0.5-4.3-0.8-8.6-0.8-13
	c0-12,1.9-23.6,5.4-34.6c1.2-3.6,2.5-7.1,4-10.6c8-18.5,20.8-35.1,37-48.7c1.8-1.5,3.7-3,5.6-4.5c-2.8-4.6-5.4-9.4-7.7-14.4
	c-19.3-43.1-8.1-85.1,25-93.8c4.1-1.1,8.4-1.6,12.7-1.6c27.3,0,57.8,20.7,76.1,51.8c18.3-31.2,48.8-51.8,76.1-51.8
	c4.3,0,8.6,0.5,12.7,1.6c33.1,8.7,44.3,50.7,25,93.8c-2.3,5-4.8,9.9-7.7,14.4c2,1.6,4,3.2,6,4.8c16.1,13.6,28.7,30,36.7,48.4
	c1.5,3.4,2.8,6.9,3.9,10.5C408.6,303.5,410.5,315.1,410.5,327.1z M173.3,361.1h158.1h73.9c-17.9,56.8-79.6,98.7-153,98.7
	s-135.1-41.9-153-98.7H173.3z M79.2,275c-22.3,0-40.4-18.1-40.4-40.4s18.1-40.4,40.4-40.4c2.5,0,5,0.2,7.4,0.7
	c-0.1,2.3-0.1,4.6-0.1,7c0,6,0.3,11.8,0.8,17.6c-4.3-2.9-9.4-5.2-15.3-6.6c-5.6-1.3-11.3,2.2-12.6,7.8c-1.3,5.6,2.2,11.3,7.8,12.6
	c17.3,4.1,23,24.1,23.1,24.5c0.2,0.8,0.5,1.5,0.8,2.2c-0.5,0.8-0.9,1.6-1.4,2.4c-2.2,4.1-4.2,8.2-5.9,12.3
	C82.3,274.9,80.8,275,79.2,275z M425.8,275c-1.7,0-3.3-0.1-5-0.3c-1.8-4.1-3.7-8.2-5.9-12.3c-0.7-1.3-1.5-2.6-2.2-4
	c0.1-0.2,0.1-0.4,0.2-0.6c0.1-0.2,5.7-20.5,23.1-24.5c5.6-1.3,9.1-7,7.8-12.6c-1.3-5.6-7-9.1-12.6-7.8c-5.2,1.2-9.8,3.2-13.8,5.6
	c0.5-5.5,0.7-11,0.7-16.6c0-2.3-0.1-4.6-0.1-6.9c2.5-0.5,5.1-0.8,7.8-0.8c22.3,0,40.4,18.1,40.4,40.4S448.1,275,425.8,275z"/>
<path d="M232.3,279.5c-4.7-5.5-13-6.1-18.5-1.4c-5.5,4.7-6.1,13-1.4,18.5l12.1,14.1c2.6,3,6.3,4.6,10,4.6c3,0,6-1,8.5-3.1
	c5.5-4.7,6.1-13,1.4-18.5L232.3,279.5z"/>
<path d="M290.8,278c-5.5-4.7-13.8-4.1-18.5,1.4l-12.1,14.1c-4.7,5.5-4.1,13.8,1.4,18.5c2.5,2.1,5.5,3.1,8.5,3.1
	c3.7,0,7.4-1.6,10-4.6l12.1-14.1C297,291,296.3,282.7,290.8,278z"/>
<circle cx="209" cy="215.4" r="21.3"/>
<circle cx="295.6" cy="215.4" r="21.3"/>
</svg>
