<?xml version="1.0" encoding="iso-8859-1"?>
<!-- Generator: Adobe Illustrator 18.1.1, SVG Export Plug-In . SVG Version: 6.00 Build 0)  -->
<svg version="1.1" id="Capa_1" xmlns="http://www.w3.org/2000/svg" xmlns:xlink="http://www.w3.org/1999/xlink" x="0px" y="0px"
	 viewBox="0 0 63.585 63.585" style="enable-background:new 0 0 63.585 63.585;" xml:space="preserve">
<g>
	<g>
		<path style="fill:#010002;" d="M33.153,13.638c-2.499-3.902,7.885-9.273,1.316-13.412c-1.508-0.944-3.168,1.32-1.572,2.322
			c3.627,2.279-5.914,6.629-1.999,12.745C31.897,16.846,34.15,15.197,33.153,13.638z"/>
		<path style="fill:#010002;" d="M40.464,13.638c-2.507-3.914,7.894-9.268,1.314-13.412c-0.802-0.504-1.909-0.041-2.162,0.841
			c-0.652,2.274,3.575,0.756-0.135,5.835c-1.995,2.729-3.094,5.551-1.275,8.392C39.219,16.855,41.448,15.178,40.464,13.638z"/>
		<path style="fill:#010002;" d="M25.802,13.638c-2.508-3.917,7.904-9.264,1.315-13.412c-1.503-0.946-3.17,1.319-1.572,2.322
			c3.601,2.263-5.892,6.665-1.999,12.745C24.549,16.846,26.796,15.2,25.802,13.638z"/>
		<path style="fill:#010002;" d="M31.279,33.679c15.729,0,24.001-4.011,24.001-7.331c0-3.832-10.432-7.489-23.49-7.322
			c-13.082-0.168-23.489,3.5-23.489,7.322C8.301,29.889,17.534,33.679,31.279,33.679z M31.586,20.992c0.048,0,0.096,0,0.145,0.002
			v0.001c0.02,0,0.04-0.001,0.06-0.001c0.021,0,0.04,0.001,0.06,0.001v-0.001c0.049-0.001,0.097-0.002,0.145-0.002
			c9.891,0,19.903,1.744,19.903,5.075c0,4.3-15.53,5.176-20.048,5.074V31.14c0,0-0.118,0-0.119,0v0.001
			c-4.641,0.106-20.046-0.805-20.046-5.074C11.685,22.735,21.695,20.992,31.586,20.992z"/>
		<path style="fill:#010002;" d="M17.352,28.531l0.08-4.949c-2.973,0.763-4.62,1.697-4.62,2.484
			C12.812,26.847,14.43,27.772,17.352,28.531z"/>
		<path style="fill:#010002;" d="M24.207,22.463c-1.673,0.164-3.178,0.376-4.511,0.625l-0.094,5.941
			c1.332,0.251,2.84,0.468,4.516,0.634L24.207,22.463z"/>
		<path style="fill:#010002;" d="M30.974,22.127c-1.595,0.012-3.098,0.067-4.51,0.157l-0.094,7.561
			c1.41,0.092,2.914,0.148,4.509,0.162L30.974,22.127z"/>
		<path style="fill:#010002;" d="M55.822,28.463c-0.004-0.068-0.022-0.134-0.03-0.202c-3.37,5.298-17.273,6.637-23.942,6.539v-0.002
			c0,0-0.117,0-0.119,0V34.8c-8.507,0.125-20.9-1.76-23.941-6.539c-0.009,0.068-0.027,0.134-0.03,0.202
			c-2.588,0.566-3.726,1.76-3.654,3.796c0.061,1.724,2.262,3.215,5.128,4.063c1.798,4.475,5.129,8.107,9.418,10.506l-6.173,14.399
			c-0.369,0.857,0.029,1.854,0.889,2.221c0.216,0.092,0.442,0.137,0.665,0.137c0.656,0,1.28-0.384,1.555-1.024l6.126-14.29
			c5.895,2.286,13.754,2.481,20.156,0l6.126,14.29c0.274,0.641,0.898,1.024,1.555,1.024c0.223,0,0.449-0.045,0.665-0.137
			c0.86-0.367,1.259-1.363,0.89-2.221l-6.174-14.399c4.289-2.398,7.619-6.031,9.419-10.506c2.865-0.848,5.065-2.339,5.128-4.063
			C59.547,30.223,58.41,29.029,55.822,28.463z M6.935,32.578c-0.049-0.926,0.094-1.466,0.917-1.815
			c0.115,1.139,0.338,2.233,0.625,3.297C7.551,33.7,6.966,33.208,6.935,32.578z M55.104,34.06c0.288-1.064,0.511-2.159,0.626-3.297
			c0.821,0.349,0.965,0.889,0.916,1.815C56.614,33.208,56.029,33.7,55.104,34.06z"/>
		<path style="fill:#010002;" d="M50.77,26.066c0-0.787-1.647-1.722-4.62-2.484l0.079,4.949
			C49.151,27.772,50.77,26.847,50.77,26.066z"/>
		<path style="fill:#010002;" d="M43.978,29.028l-0.093-5.941c-1.334-0.248-2.839-0.461-4.511-0.625l0.089,7.199
			C41.139,29.496,42.646,29.28,43.978,29.028z"/>
		<path style="fill:#010002;" d="M37.212,29.845l-0.095-7.561c-1.412-0.09-2.915-0.145-4.51-0.157l0.096,7.879
			C34.298,29.993,35.801,29.937,37.212,29.845z"/>
	</g>
</g>
<g>
</g>
<g>
</g>
<g>
</g>
<g>
</g>
<g>
</g>
<g>
</g>
<g>
</g>
<g>
</g>
<g>
</g>
<g>
</g>
<g>
</g>
<g>
</g>
<g>
</g>
<g>
</g>
<g>
</g>
</svg>
