<?xml version="1.0" encoding="iso-8859-1"?>
<!-- Generator: Adobe Illustrator 19.0.0, SVG Export Plug-In . SVG Version: 6.00 Build 0)  -->
<svg version="1.1" id="Layer_1" xmlns="http://www.w3.org/2000/svg" xmlns:xlink="http://www.w3.org/1999/xlink" x="0px" y="0px"
	 viewBox="0 0 490 490" style="enable-background:new 0 0 490 490;" xml:space="preserve">
<g id="XMLID_504_">
	<g>
		<g>
			<path d="M315,144.134V30h30V0H145v30h30v114.134C108.78,172.087,65,237.438,65,310c0,99.252,80.748,180,180,180
				s180-80.748,180-180C425,237.438,381.22,172.087,315,144.134z M245,460c-82.71,0-150-67.29-150-150
				c0-63.466,40.187-120.313,99.999-141.455L205,165.01V30h80v135.01l10.001,3.535C354.813,189.688,395,246.534,395,310
				C395,392.71,327.71,460,245,460z"/>
			<path d="M348.934,249.989l-4.333-7.489h-8.651c-17.027,0-26.426,8.267-32.645,13.736c-5.037,4.43-7.121,6.264-12.833,6.264
				c-5.711,0-7.796-1.833-12.832-6.263c-6.219-5.471-15.618-13.737-32.646-13.737c-17.026,0-26.424,8.267-32.643,13.737
				c-5.035,4.43-7.119,6.263-12.828,6.263c-5.71,0-7.794-1.833-12.829-6.263c-6.219-5.471-15.617-13.737-32.644-13.737h-8.651
				l-4.332,7.488C130.556,268.158,125,288.91,125,310c0,66.168,53.832,120,120,120s120-53.832,120-120
				C365,288.91,359.444,268.158,348.934,249.989z M245,400c-49.626,0-90-40.374-90-90c0-12.127,2.444-24.096,7.131-35.153
				c1.399,0.97,2.868,2.262,4.749,3.916c6.219,5.471,15.617,13.737,32.644,13.737s26.424-8.267,32.643-13.737
				c5.035-4.43,7.119-6.263,12.828-6.263c5.712,0,7.796,1.834,12.833,6.264c6.219,5.47,15.617,13.736,32.645,13.736
				c17.028,0,26.427-8.267,32.646-13.737c1.882-1.654,3.352-2.947,4.752-3.917C332.556,285.903,335,297.873,335,310
				C335,359.626,294.626,400,245,400z"/>
		</g>
	</g>
</g>
<g>
</g>
<g>
</g>
<g>
</g>
<g>
</g>
<g>
</g>
<g>
</g>
<g>
</g>
<g>
</g>
<g>
</g>
<g>
</g>
<g>
</g>
<g>
</g>
<g>
</g>
<g>
</g>
<g>
</g>
</svg>
