<?xml version="1.0" encoding="iso-8859-1"?>
<!-- Generator: Adobe Illustrator 18.0.0, SVG Export Plug-In . SVG Version: 6.00 Build 0)  -->
<!DOCTYPE svg PUBLIC "-//W3C//DTD SVG 1.1//EN" "http://www.w3.org/Graphics/SVG/1.1/DTD/svg11.dtd">
<svg version="1.1" id="Capa_1" xmlns="http://www.w3.org/2000/svg" xmlns:xlink="http://www.w3.org/1999/xlink" x="0px" y="0px"
	 viewBox="0 0 480 480" style="enable-background:new 0 0 480 480;" xml:space="preserve">
<path d="M286.86,175.679h95.701l66.81-67.467l-66.81-67.467H286.86V0h-93.722v40.744H91.609v134.935h101.529v37.467h-95.7
	l-66.81,67.467l66.81,67.467h95.7V480h93.722V348.08h101.53V213.146H286.86V175.679z M213.139,20h53.722v20.744h-53.722V20z
	 M111.609,60.744h262.61l47.005,47.467l-47.005,47.467h-262.61V60.744z M213.139,175.679h53.722v37.467h-53.722V175.679z
	 M266.86,460h-53.722V348.08h53.722V460z M368.391,328.08H105.78l-47.005-47.467l47.005-47.467h262.61V328.08z"/>
<g>
</g>
<g>
</g>
<g>
</g>
<g>
</g>
<g>
</g>
<g>
</g>
<g>
</g>
<g>
</g>
<g>
</g>
<g>
</g>
<g>
</g>
<g>
</g>
<g>
</g>
<g>
</g>
<g>
</g>
</svg>
