<?xml version="1.0" encoding="iso-8859-1"?>
<!-- Generator: Adobe Illustrator 19.0.0, SVG Export Plug-In . SVG Version: 6.00 Build 0)  -->
<svg version="1.1" id="Capa_1" xmlns="http://www.w3.org/2000/svg" xmlns:xlink="http://www.w3.org/1999/xlink" x="0px" y="0px"
	 viewBox="0 0 463 463" style="enable-background:new 0 0 463 463;" xml:space="preserve">
<g>
	<path d="M455.5,392H447V183.5c0-4.143-3.358-7.5-7.5-7.5H431v-73h0.5c4.142,0,7.5-3.357,7.5-7.5v-32c0-4.143-3.358-7.5-7.5-7.5h-80
		c-4.142,0-7.5,3.357-7.5,7.5v32c0,4.143,3.358,7.5,7.5,7.5h0.5v73h-33v-73h0.5c4.142,0,7.5-3.357,7.5-7.5v-32
		c0-4.143-3.358-7.5-7.5-7.5h-80c-4.142,0-7.5,3.357-7.5,7.5v32c0,4.143,3.358,7.5,7.5,7.5h0.5v73h-17v-16.5
		c0-12.958-10.542-23.5-23.5-23.5H191v-8.5c0-12.958-10.542-23.5-23.5-23.5H159v-8.5c0-4.143-3.358-7.5-7.5-7.5h-128
		c-4.142,0-7.5,3.357-7.5,7.5V392H7.5c-4.142,0-7.5,3.357-7.5,7.5s3.358,7.5,7.5,7.5h448c4.142,0,7.5-3.357,7.5-7.5
		S459.642,392,455.5,392z M432,264H31v-73h401V264z M159,151h17v25h-17V151z M359,71h65v17h-0.5h-64H359V71z M367,103h49v73h-49V103
		z M247,71h65v17h-0.5h-64H247V71z M255,103h49v73h-49V103z M199.5,151c4.687,0,8.5,3.813,8.5,8.5V176h-17v-25H199.5z M167.5,119
		c4.687,0,8.5,3.813,8.5,8.5v8.5h-17v-17H167.5z M31,103h113v73H31V103z M31,279h401v113H31V279z"/>
	<path d="M407.5,296h-352c-4.142,0-7.5,3.357-7.5,7.5v64c0,4.143,3.358,7.5,7.5,7.5h352c4.142,0,7.5-3.357,7.5-7.5v-64
		C415,299.357,411.642,296,407.5,296z M127,311h17v49h-17V311z M112,360H95v-49h17V360z M159,311h17v49h-17V311z M191,311h17v49h-17
		V311z M223,311h17v49h-17V311z M255,311h17v49h-17V311z M287,311h17v49h-17V311z M319,311h17v49h-17V311z M351,311h17v49h-17V311z
		 M63,311h17v49H63V311z M400,360h-17v-49h17V360z"/>
	<path d="M55.5,208c-4.142,0-7.5,3.357-7.5,7.5v24c0,4.143,3.358,7.5,7.5,7.5s7.5-3.357,7.5-7.5v-24C63,211.357,59.642,208,55.5,208
		z"/>
	<path d="M87.5,208c-4.142,0-7.5,3.357-7.5,7.5v24c0,4.143,3.358,7.5,7.5,7.5s7.5-3.357,7.5-7.5v-24C95,211.357,91.642,208,87.5,208
		z"/>
	<path d="M119.5,208c-4.142,0-7.5,3.357-7.5,7.5v24c0,4.143,3.358,7.5,7.5,7.5s7.5-3.357,7.5-7.5v-24
		C127,211.357,123.642,208,119.5,208z"/>
	<path d="M55.5,120c-4.142,0-7.5,3.357-7.5,7.5v24c0,4.143,3.358,7.5,7.5,7.5s7.5-3.357,7.5-7.5v-24C63,123.357,59.642,120,55.5,120
		z"/>
	<path d="M87.5,120c-4.142,0-7.5,3.357-7.5,7.5v24c0,4.143,3.358,7.5,7.5,7.5s7.5-3.357,7.5-7.5v-24C95,123.357,91.642,120,87.5,120
		z"/>
	<path d="M119.5,120c-4.142,0-7.5,3.357-7.5,7.5v24c0,4.143,3.358,7.5,7.5,7.5s7.5-3.357,7.5-7.5v-24
		C127,123.357,123.642,120,119.5,120z"/>
	<path d="M151.5,208c-4.142,0-7.5,3.357-7.5,7.5v24c0,4.143,3.358,7.5,7.5,7.5s7.5-3.357,7.5-7.5v-24
		C159,211.357,155.642,208,151.5,208z"/>
	<path d="M183.5,208c-4.142,0-7.5,3.357-7.5,7.5v24c0,4.143,3.358,7.5,7.5,7.5s7.5-3.357,7.5-7.5v-24
		C191,211.357,187.642,208,183.5,208z"/>
	<path d="M215.5,208c-4.142,0-7.5,3.357-7.5,7.5v24c0,4.143,3.358,7.5,7.5,7.5s7.5-3.357,7.5-7.5v-24
		C223,211.357,219.642,208,215.5,208z"/>
	<path d="M247.5,208c-4.142,0-7.5,3.357-7.5,7.5v24c0,4.143,3.358,7.5,7.5,7.5s7.5-3.357,7.5-7.5v-24
		C255,211.357,251.642,208,247.5,208z"/>
	<path d="M279.5,208c-4.142,0-7.5,3.357-7.5,7.5v24c0,4.143,3.358,7.5,7.5,7.5s7.5-3.357,7.5-7.5v-24
		C287,211.357,283.642,208,279.5,208z"/>
	<path d="M311.5,208c-4.142,0-7.5,3.357-7.5,7.5v24c0,4.143,3.358,7.5,7.5,7.5s7.5-3.357,7.5-7.5v-24
		C319,211.357,315.642,208,311.5,208z"/>
	<path d="M343.5,208c-4.142,0-7.5,3.357-7.5,7.5v24c0,4.143,3.358,7.5,7.5,7.5s7.5-3.357,7.5-7.5v-24
		C351,211.357,347.642,208,343.5,208z"/>
	<path d="M375.5,208c-4.142,0-7.5,3.357-7.5,7.5v24c0,4.143,3.358,7.5,7.5,7.5s7.5-3.357,7.5-7.5v-24
		C383,211.357,379.642,208,375.5,208z"/>
	<path d="M407.5,208c-4.142,0-7.5,3.357-7.5,7.5v24c0,4.143,3.358,7.5,7.5,7.5s7.5-3.357,7.5-7.5v-24
		C415,211.357,411.642,208,407.5,208z"/>
</g>
<g>
</g>
<g>
</g>
<g>
</g>
<g>
</g>
<g>
</g>
<g>
</g>
<g>
</g>
<g>
</g>
<g>
</g>
<g>
</g>
<g>
</g>
<g>
</g>
<g>
</g>
<g>
</g>
<g>
</g>
</svg>
