<?xml version="1.0" encoding="iso-8859-1"?>
<!-- Generator: Adobe Illustrator 18.0.0, SVG Export Plug-In . SVG Version: 6.00 Build 0)  -->
<!DOCTYPE svg PUBLIC "-//W3C//DTD SVG 1.1//EN" "http://www.w3.org/Graphics/SVG/1.1/DTD/svg11.dtd">
<svg version="1.1" id="Capa_1" xmlns="http://www.w3.org/2000/svg" xmlns:xlink="http://www.w3.org/1999/xlink" x="0px" y="0px"
	 viewBox="0 0 480.048 480.048" style="enable-background:new 0 0 480.048 480.048;" xml:space="preserve">
<g>
	<path d="M228.973,370.455c-9.766-37.631-20.835-80.283-18.167-143.398c0.634-15.007-1.17-40.179-8.136-65.816
		c-8.184-30.12-21.565-53.579-38.695-67.841c-18.981-15.801-42.105-20.731-68.722-14.652c-19.361,4.421-46.514,15.25-65.916,41.732
		C10.161,146.653,3.468,181.471,9.445,223.97c4.559,32.371,24.036,88.277,48.466,139.115c12.909,26.863,26.465,50.738,39.204,69.042
		c15.143,21.76,29.294,35.949,42.061,42.173c7.943,3.873,17,5.748,26.348,5.748c16.327,0,33.534-5.725,47.195-16.525
		c20.392-16.121,28.745-40.259,22.917-66.226C233.688,388.621,231.398,379.796,228.973,370.455z M200.316,447.834
		c-15.426,12.195-37.453,15.763-52.375,8.489c-18.837-9.184-45.754-47.277-72.003-101.9c-23.626-49.165-42.388-102.71-46.688-133.24
		c-5.226-37.156,0.232-67.061,16.221-88.882c15.759-21.509,38.191-30.391,54.235-34.055c5.888-1.345,11.473-2.02,16.779-2.02
		c13.171,0,24.62,4.158,34.693,12.544c32.56,27.107,40.771,90.83,39.646,117.442c-2.794,66.096,9.174,112.211,18.791,149.267
		c2.381,9.177,4.631,17.846,6.506,26.199C221.704,426.552,208.615,441.273,200.316,447.834z"/>
	<path d="M116.836,168.665v-25.148h-20v26.62c-34.883,45.201-32.419,83.806-24.214,141.336l19.8-2.823
		c-7.742-54.294-8.713-85.535,16.246-120.871c34.742,28.958,43.685,59.238,49.61,112.514l19.877-2.211
		C171.628,239.402,160.172,202.736,116.836,168.665z"/>
	<path d="M450.711,44.252C431.308,17.77,404.156,6.942,384.796,2.52c-26.622-6.079-49.742-1.15-68.722,14.652
		c-17.13,14.262-30.511,37.721-38.695,67.841c-6.966,25.638-8.771,50.809-8.136,65.816c2.668,63.111-8.399,105.762-18.165,143.392
		c-2.425,9.344-4.715,18.17-6.663,26.85c-5.828,25.965,2.523,50.103,22.914,66.223c13.664,10.803,30.867,16.528,47.197,16.527
		c9.344,0,18.406-1.876,26.347-5.748c12.767-6.225,26.918-20.414,42.061-42.174c12.738-18.305,26.295-42.179,39.204-69.042
		c24.431-50.838,43.908-106.745,48.466-139.117C476.58,105.244,469.887,70.425,450.711,44.252z M450.799,144.954
		c-4.3,30.531-23.062,84.077-46.688,133.242c-26.249,54.623-53.166,92.717-72.003,101.901c-14.923,7.276-36.95,3.705-52.375-8.49
		c-8.299-6.561-21.386-21.281-15.803-46.155c1.875-8.356,4.125-17.026,6.507-26.206c9.615-37.054,21.582-83.168,18.788-149.26
		c-1.125-26.612,7.085-90.334,39.646-117.442c10.074-8.387,21.521-12.544,34.693-12.544c5.305,0,10.893,0.675,16.78,2.02
		c16.043,3.664,38.476,12.545,54.235,34.054C450.567,77.895,456.024,107.8,450.799,144.954z"/>
	<path d="M383.213,67.29h-20v25.141c-20.405,16-33.824,32.349-43.178,52.495c-8.834,19.028-14.26,42.034-18.141,76.928l19.877,2.211
		c5.925-53.276,14.868-83.556,49.61-112.514c24.959,35.336,23.989,66.577,16.246,120.87l19.8,2.823
		c8.204-57.53,10.668-96.134-24.214-141.335V67.29z"/>
</g>
<g>
</g>
<g>
</g>
<g>
</g>
<g>
</g>
<g>
</g>
<g>
</g>
<g>
</g>
<g>
</g>
<g>
</g>
<g>
</g>
<g>
</g>
<g>
</g>
<g>
</g>
<g>
</g>
<g>
</g>
</svg>
