<?xml version="1.0" encoding="iso-8859-1"?>
<!-- Generator: Adobe Illustrator 16.0.0, SVG Export Plug-In . SVG Version: 6.00 Build 0)  -->
<!DOCTYPE svg PUBLIC "-//W3C//DTD SVG 1.1//EN" "http://www.w3.org/Graphics/SVG/1.1/DTD/svg11.dtd">
<svg version="1.1" id="Capa_1" xmlns="http://www.w3.org/2000/svg" xmlns:xlink="http://www.w3.org/1999/xlink" x="0px" y="0px"
	 width="554.66px" height="554.659px" viewBox="0 0 554.66 554.659" style="enable-background:new 0 0 554.66 554.659;"
	 xml:space="preserve">
<g>
	<g id="Layer_2_40_">
		<path d="M67.753,172.718c0,0,66.708-12.46,133.875-19.613V78.231C144.75,86.78,101.174,102.376,82.25,109.998
			C69.082,143.619,67.753,172.718,67.753,172.718z"/>
		<path d="M352.275,10.863c1.436,4.275,2.354,8.673,2.354,13.043v34.836c47.65,6.799,86.301,18.494,110.418,27.234
			C432.103,31.814,372.74,15.138,352.275,10.863z"/>
		<path d="M354.628,153.249c66.869,7.43,133.08,20.473,133.08,20.473c0-24.164-3.977-44.762-10.508-62.424
			c-16.707-6.98-62.004-24.088-122.562-33.144v75.094H354.628z"/>
		<path d="M201.628,23.906c0-4.217,0.87-8.463,2.219-12.613c-57.261,7.66-90.471,39.99-109.72,73.746
			c24.279-8.587,61.707-19.603,107.501-26.191V23.906z"/>
		<path d="M67.753,427.922c0,132.278,143.438,126.703,143.438,126.703s56.581,0,155.391,0
			c121.922,0,121.922-124.312,121.922-124.312V204.398c0,0-47.611-18.159-139.393-25.063c-6.676,12.154-19.307,21.478-37.514,21.478
			h-66.345c-16.486,0-29.768-9.295-37.179-21.449c-93.416,7.344-141.917,27.425-141.917,27.425S67.753,295.644,67.753,427.922z
			 M335.484,506.812c-20.922,0-124.293,0-124.293,0s-9.266,0-19.125-18.828c0,0,17.079-38.547,38.25-38.547
			c13.148,0,38.47,19.718,48.032,19.718c9.562,0,33.547-19.718,47.297-19.718c11.953,0,34.664,22.204,38.844,38.547
			C364.488,487.984,356.398,506.812,335.484,506.812z M373.753,469.155c-9.562-15.529-30.781-38.843-48.109-38.843
			s-35.592,18.828-47.545,18.828s-22.682-17.93-47.784-17.93s-47.516,37.657-47.516,37.657s-9.715,0.297-9.715-19.125
			c0-18.828,31.527-47.812,57.222-47.812c25.695,0,37.017,19.125,47.774,19.125c10.757,0,27.828-19.125,48.148-19.125
			s57.375,28.984,57.375,47.517C383.613,469.155,373.753,469.155,373.753,469.155z M402.593,247.458
			c26.574,0,47.965,13.483,47.965,30.161c0,16.667-21.391,28.687-47.965,28.687s-47.965-12.029-47.965-28.696
			C354.628,260.941,376.019,247.458,402.593,247.458z M249.44,297.03c8.778-11.925,9.859-20.158,28.984-20.158
			c17.931,0,24.261,11.561,28.688,19.259c4.637,8.07,28.688,38.843,37.656,48.108c9.553,9.869,7.133,29.28-8.664,29.28
			c-20.32,0-14.859-19.259-23.83-19.259c-8.969,0-8.988,18.638-33.793,18.638c-24.805,0-23.687-18.857-33.249-18.857
			s-10.442,19.173-25.379,19.173s-18.226-19.105-8.664-28.965C220.16,335.003,240.633,308.993,249.44,297.03z M163.531,247.458
			c26.574,0,47.966,13.483,47.966,30.161c0,16.667-21.392,28.687-47.966,28.687s-47.965-12.029-47.965-28.696
			C115.565,260.941,136.957,247.458,163.531,247.458z"/>
		<path d="M245.252,181.688h66.345c5.623,0,10.068-1.521,13.627-3.825c7.027-4.571,10.279-12.469,10.279-19.488v-7.086V75.64V56.361
			V23.906c0-4.724-1.367-9.955-4.121-14.344C327.978,4.131,322.402,0,314.14,0h-69.481c-8.338,0-14.726,4.208-18.819,9.715
			c-3.242,4.361-5.087,9.524-5.087,14.191v32.541v19.278v75.505v6.55c0,7.086,4.379,15.338,11.724,20.053
			C236.082,180.158,240.337,181.688,245.252,181.688z"/>
	</g>
</g>
<g>
</g>
<g>
</g>
<g>
</g>
<g>
</g>
<g>
</g>
<g>
</g>
<g>
</g>
<g>
</g>
<g>
</g>
<g>
</g>
<g>
</g>
<g>
</g>
<g>
</g>
<g>
</g>
<g>
</g>
</svg>
