<?xml version="1.0" encoding="iso-8859-1"?>
<!-- Generator: Adobe Illustrator 18.0.0, SVG Export Plug-In . SVG Version: 6.00 Build 0)  -->
<!DOCTYPE svg PUBLIC "-//W3C//DTD SVG 1.1//EN" "http://www.w3.org/Graphics/SVG/1.1/DTD/svg11.dtd">
<svg version="1.1" id="Capa_1" xmlns="http://www.w3.org/2000/svg" xmlns:xlink="http://www.w3.org/1999/xlink" x="0px" y="0px"
	 viewBox="0 0 52 52" style="enable-background:new 0 0 52 52;" xml:space="preserve">
<g>
	<circle cx="19" cy="31.5" r="2"/>
	<circle cx="34" cy="31.5" r="2"/>
	<path d="M34.223,35.909c-2.371-0.859-4.923-0.785-7.24,0.177c-2.317-0.964-4.87-1.037-7.241-0.177
		c-2.51,0.91-4.516,2.746-5.647,5.167c-0.234,0.501-0.018,1.096,0.482,1.33c1.349,0.63,2.789,0.947,4.233,0.947
		c1.149,0,2.302-0.2,3.414-0.604c1.951-0.708,3.591-1.98,4.759-3.647c1.168,1.666,2.808,2.938,4.759,3.647
		c1.112,0.403,2.264,0.604,3.414,0.604c1.445,0,2.885-0.317,4.233-0.947c0.5-0.234,0.716-0.829,0.482-1.33
		C38.739,38.655,36.733,36.819,34.223,35.909z M21.541,40.869c-1.668,0.606-3.451,0.641-5.118,0.114
		c0.942-1.473,2.332-2.589,4.001-3.194c1.668-0.605,3.45-0.641,5.118-0.113C24.6,39.147,23.209,40.264,21.541,40.869z
		 M32.424,40.869c-1.668-0.605-3.059-1.722-4.001-3.193c1.667-0.526,3.45-0.491,5.118,0.113c1.669,0.605,3.059,1.722,4.001,3.194
		C35.875,41.51,34.093,41.476,32.424,40.869z"/>
	<path d="M51,22.122h-4.13l-2.218-15.91C44.208,2.955,41.394,0.5,38.108,0.5H14.892c-3.286,0-6.1,2.455-6.543,5.709L6.13,22.122H1
		c-0.552,0-1,0.447-1,1s0.448,1,1,1h4.338c-0.076,0.211-0.15,0.434-0.212,0.684C3.312,25.781,2,27.916,2,30
		c0,2.153,1.268,4.089,3.208,4.979C7.704,44.733,16.385,51.5,26.5,51.5s18.796-6.767,21.292-16.521C49.732,34.089,51,32.153,51,30
		c0-2.084-1.313-4.219-3.126-5.194c-0.063-0.25-0.136-0.473-0.212-0.684H51c0.552,0,1-0.447,1-1S51.552,22.122,51,22.122z
		 M44.293,18.122H8.707l0.279-2h35.029L44.293,18.122z M8.428,20.122h36.144l0.279,2H8.149L8.428,20.122z M10.33,6.481
		c0.31-2.27,2.271-3.981,4.563-3.981h23.216c2.291,0,4.252,1.712,4.563,3.984l1.065,7.638H9.264L10.33,6.481z M49,30
		c0,1.486-0.957,2.812-2.38,3.296c-0.328,0.111-0.574,0.384-0.652,0.721C43.86,43.133,35.854,49.5,26.5,49.5
		S9.14,43.133,7.032,34.017c-0.078-0.337-0.324-0.609-0.652-0.721C4.957,32.812,4,31.486,4,30c0-1.449,1.063-3.051,2.37-3.57
		c0.322-0.129,0.555-0.414,0.615-0.756c0.127-0.719,0.366-1.241,0.542-1.552h37.946c0.178,0.313,0.416,0.835,0.542,1.552
		c0.061,0.342,0.293,0.627,0.615,0.756C47.937,26.949,49,28.551,49,30z"/>
</g>
<g>
</g>
<g>
</g>
<g>
</g>
<g>
</g>
<g>
</g>
<g>
</g>
<g>
</g>
<g>
</g>
<g>
</g>
<g>
</g>
<g>
</g>
<g>
</g>
<g>
</g>
<g>
</g>
<g>
</g>
</svg>
