<?xml version="1.0" encoding="iso-8859-1"?>
<!-- Generator: Adobe Illustrator 18.1.1, SVG Export Plug-In . SVG Version: 6.00 Build 0)  -->
<svg version="1.1" id="Capa_1" xmlns="http://www.w3.org/2000/svg" xmlns:xlink="http://www.w3.org/1999/xlink" x="0px" y="0px"
	 viewBox="0 0 57.263 57.263" style="enable-background:new 0 0 57.263 57.263;" xml:space="preserve">
<g>
	<path style="fill:#010002;" d="M46.245,8.505c-0.85-0.63-1.442-0.651-1.731-0.134C44.286,8.776,44.48,9.25,44.84,9.835
		c1.74,2.839,2.752,6.151,2.763,6.187c0.909,2.778,1.575,5.828,0.302,9.307c-1.596,4.35-5.197,7.388-8.77,7.388
		c-0.698,0-1.383-0.121-2.03-0.358c-1.927-0.706-3.372-2.376-4.073-4.701c-0.704-2.339-0.568-5.053,0.38-7.643
		c0.898-2.444,2.441-4.528,4.347-5.866c0.629-0.444,1.016-1.048,1.084-1.698c0.064-0.604-0.146-1.187-0.606-1.684l-0.562-0.606
		c-0.52-0.559-1.326-0.894-2.16-0.894c-0.653,0-1.246,0.206-1.672,0.581c-0.416,0.368-0.816,0.762-1.198,1.178
		c0.21-0.735,0.479-1.438,0.801-2.092c0.544-1.103,0.601-2.802-0.345-3.913l-2.694-3.176c-0.446-0.525-1.092-0.826-1.772-0.826
		s-1.325,0.301-1.771,0.826L24.169,5.02c-0.942,1.11-0.887,2.809-0.345,3.913c0.32,0.649,0.589,1.351,0.801,2.091
		c-0.382-0.417-0.783-0.811-1.198-1.177c-0.425-0.374-1.018-0.58-1.672-0.58c-0.833,0-1.641,0.334-2.159,0.892l-0.563,0.606
		c-0.46,0.495-0.67,1.077-0.606,1.683c0.068,0.65,0.453,1.254,1.085,1.699c1.906,1.339,3.449,3.423,4.346,5.866
		c0.949,2.59,1.084,5.304,0.38,7.643c-0.701,2.325-2.147,3.995-4.073,4.701c-0.649,0.236-1.335,0.357-2.041,0.357
		c-3.561,0-7.162-3.037-8.759-7.387c-1.274-3.478-0.608-6.533,0.307-9.325c0.108-0.348,1.107-3.474,2.758-6.169
		c0.359-0.585,0.552-1.059,0.325-1.463c-0.291-0.521-0.885-0.494-1.73,0.133C3.913,13.766,0,21.115,0,29.2
		c0,14.913,12.633,27.045,28.161,27.045h0.94c15.527,0,28.162-12.132,28.162-27.045C57.261,21.115,53.349,13.766,46.245,8.505z
		 M29.099,54.995H28.16c-14.839,0-26.911-11.571-26.911-25.795c0-7.247,3.35-13.925,9.448-18.868
		c-1.362,2.538-2.139,5.012-2.227,5.302c-0.932,2.849-1.695,6.279-0.285,10.125c1.773,4.832,5.857,8.208,9.934,8.208
		c0.851,0,1.682-0.146,2.469-0.436c4.642-1.702,6.633-7.959,4.438-13.947c-0.983-2.681-2.688-4.975-4.799-6.46
		c-0.333-0.233-0.533-0.52-0.563-0.806c-0.025-0.239,0.069-0.476,0.28-0.703l0.564-0.606c0.304-0.328,0.764-0.523,1.231-0.523
		c0.236,0,0.576,0.052,0.856,0.299c0.493,0.435,0.971,0.918,1.419,1.437c0.424,0.493,0.853,0.754,1.237,0.754
		c0.244,0,0.456-0.106,0.615-0.307c0.234-0.298,0.271-0.736,0.115-1.381c-0.249-1.034-0.6-2.012-1.039-2.907
		c-0.41-0.832-0.333-1.953,0.175-2.552l2.696-3.176c0.216-0.255,0.507-0.395,0.817-0.395c0.311,0,0.602,0.141,0.817,0.395
		l2.696,3.177c0.509,0.598,0.586,1.719,0.176,2.552c-0.442,0.9-0.794,1.879-1.041,2.907c-0.155,0.643-0.118,1.081,0.116,1.38
		c0.158,0.201,0.371,0.307,0.615,0.307c0.385,0,0.812-0.261,1.238-0.754c0.44-0.513,0.918-0.996,1.418-1.437
		c0.28-0.248,0.62-0.3,0.855-0.3c0.467,0,0.927,0.196,1.232,0.524l0.562,0.606c0.211,0.229,0.306,0.465,0.28,0.703
		c-0.03,0.286-0.229,0.572-0.562,0.806c-2.11,1.484-3.815,3.778-4.8,6.46c-2.191,5.988-0.201,12.245,4.442,13.947
		c0.787,0.288,1.614,0.436,2.469,0.436c4.076,0,8.16-3.375,9.934-8.208c1.41-3.847,0.648-7.271-0.283-10.111
		c-0.035-0.116-0.826-2.696-2.229-5.315c6.099,4.945,9.448,11.622,9.448,18.868C56.011,43.424,43.94,54.995,29.099,54.995z"/>
</g>
<g>
</g>
<g>
</g>
<g>
</g>
<g>
</g>
<g>
</g>
<g>
</g>
<g>
</g>
<g>
</g>
<g>
</g>
<g>
</g>
<g>
</g>
<g>
</g>
<g>
</g>
<g>
</g>
<g>
</g>
</svg>
