<?xml version="1.0" encoding="iso-8859-1"?>
<!-- Generator: Adobe Illustrator 17.1.0, SVG Export Plug-In . SVG Version: 6.00 Build 0)  -->
<!DOCTYPE svg PUBLIC "-//W3C//DTD SVG 1.1//EN" "http://www.w3.org/Graphics/SVG/1.1/DTD/svg11.dtd">
<svg version="1.1" id="Capa_1" xmlns="http://www.w3.org/2000/svg" xmlns:xlink="http://www.w3.org/1999/xlink" x="0px" y="0px"
	 viewBox="0 0 216.07 216.07" style="enable-background:new 0 0 216.07 216.07;" xml:space="preserve">
<path d="M193.118,192.427c-0.101,0-0.146,0-0.247,0c-1.419,0-10.244-0.258-16.586-6.45c-4.225-4.125-6.366-9.875-6.366-17.09
	c0-16.46,11.158-33.472,17.297-41.584l-15.682-0.1c-1.155,0.632-3.665,1.805-7.568,2.618c-1.996,0.416-4.486,0.551-7.932,0.738
	c-5.817,0.315-14.608,0.792-28.82,2.988c-7.466,1.154-12.261,2.537-16.898,3.876c-9.28,2.678-18.046,5.207-45.416,5.207
	c-17.478,0-29.645-4.511-37.923-9.85l-23.725,7.471c-1.32,0.411-2.721-0.316-3.136-1.634c-0.415-1.317,0.317-2.721,1.634-3.136
	l20.234-6.371c-7.762-6.49-10.602-12.986-10.829-13.527c-0.303-0.724-0.25-1.547,0.145-2.225s1.084-1.131,1.863-1.225
	c0.052-0.006,5.296-0.632,15.902-1.652l0,0c4.426-0.426,26.524-3.468,26.957-21.645c0.229-9.621-1.827-12.348-5.922-17.781
	c-2.808-3.726-6.303-8.362-10.292-16.673c-10.114-21.071-6.959-28.573-6.567-29.359c0.313-0.624,0.872-1.09,1.542-1.284
	c0.672-0.193,1.393-0.098,1.99,0.265l62.835,38.082c3.861,2.34,6.227,6.6,6.175,11.117c-0.052,4.387-0.113,12.098-0.113,23.924
	c0,20.743,6.579,23.014,20.544,23.014c8.14,0,13.184-3.818,18.062-7.512c3.983-3.015,7.745-5.862,12.596-5.862
	c8.442,0,12.549,5.007,14.001,7.334l17.598,4.426l-4.201-12.457c-0.257-0.763-0.132-1.603,0.338-2.257s1.226-1.042,2.031-1.042
	h12.712c0.805,0,1.561,0.388,2.031,1.042s0.595,1.494,0.338,2.257l-4.909,14.555l7.377,1.855c1.227,0.309,2.03,1.485,1.87,2.74
	c-0.159,1.249-1.222,2.185-2.48,2.185c-0.005,0-0.01,0-0.016,0l-4.733-0.03c6.15,8.143,17.241,25.102,17.241,41.512
	c0,7.215-2.142,12.965-6.366,17.09C203.363,192.169,194.538,192.427,193.118,192.427z M192.996,128.04
	c-4.963,6.239-18.077,24.294-18.077,40.848c0,5.817,1.635,10.363,4.859,13.512c5.277,5.153,13.08,5.016,13.157,5.028
	c0.04-0.002,0.079-0.002,0.119,0c0.069,0.009,7.956,0.081,13.187-5.058c3.205-3.147,4.829-7.684,4.829-13.482
	C211.07,152.31,197.961,134.275,192.996,128.04z M29.289,128.324c7.57,4.98,18.944,9.308,35.61,9.308
	c26.663,0,35.099-2.435,44.03-5.012c4.788-1.381,9.739-2.81,17.521-4.013c14.457-2.233,23.397-2.719,29.313-3.04
	c3.227-0.175,5.558-0.302,7.183-0.64c4.314-0.899,6.524-2.304,6.545-2.317c0.409-0.265,0.893-0.376,1.387-0.41l11.992,0.075
	l-14.264-3.587c-0.748-0.188-1.366-0.711-1.677-1.416c-0.096-0.205-2.637-5.504-10.058-5.504c-3.172,0-5.999,2.14-9.578,4.85
	c-5.018,3.798-11.261,8.524-21.08,8.524c-16.942,0-25.544-4.333-25.544-28.014c0-11.851,0.062-19.583,0.113-23.982
	c0.032-2.756-1.411-5.355-3.767-6.783l-59.548-36.09c0.102,3.539,1.295,10.383,6.847,21.947c3.774,7.862,7.103,12.278,9.777,15.827
	c4.335,5.751,7.199,9.55,6.929,20.91c-0.414,17.368-17.215,25.132-31.478,26.502l0,0c-5.449,0.524-9.469,0.943-12.089,1.227
	c1.799,2.78,5.184,7.037,10.873,10.987C28.692,127.812,29.023,128.034,29.289,128.324z M190.12,107.772l2.875,8.522l2.875-8.522
	H190.12z M159.569,119.01h-0.667c-1.381,0-2.5-1.119-2.5-2.5s1.119-2.5,2.5-2.5h0.667c1.381,0,2.5,1.119,2.5,2.5
	S160.95,119.01,159.569,119.01z"/>
<g>
</g>
<g>
</g>
<g>
</g>
<g>
</g>
<g>
</g>
<g>
</g>
<g>
</g>
<g>
</g>
<g>
</g>
<g>
</g>
<g>
</g>
<g>
</g>
<g>
</g>
<g>
</g>
<g>
</g>
</svg>
