<?xml version="1.0" encoding="iso-8859-1"?>
<!-- Generator: Adobe Illustrator 18.0.0, SVG Export Plug-In . SVG Version: 6.00 Build 0)  -->
<!DOCTYPE svg PUBLIC "-//W3C//DTD SVG 1.1//EN" "http://www.w3.org/Graphics/SVG/1.1/DTD/svg11.dtd">
<svg version="1.1" id="Capa_1" xmlns="http://www.w3.org/2000/svg" xmlns:xlink="http://www.w3.org/1999/xlink" x="0px" y="0px"
	 viewBox="0 0 60 60" style="enable-background:new 0 0 60 60;" xml:space="preserve">
<g>
	<path d="M12.804,33.07c0.256,0,0.512-0.098,0.707-0.293l3.146-3.146c0.391-0.391,0.391-1.023,0-1.414s-1.023-0.391-1.414,0
		l-3.146,3.146c-0.391,0.391-0.391,1.023,0,1.414C12.292,32.973,12.548,33.07,12.804,33.07z"/>
	<path d="M16.29,34.874c0.195,0.195,0.451,0.293,0.707,0.293s0.512-0.098,0.707-0.293l5.242-5.242c0.391-0.391,0.391-1.023,0-1.414
		s-1.023-0.391-1.414,0L16.29,33.46C15.899,33.851,15.899,34.483,16.29,34.874z"/>
	<path d="M35.869,33.07c0.256,0,0.512-0.098,0.707-0.293l3.146-3.146c0.391-0.391,0.391-1.023,0-1.414s-1.023-0.391-1.414,0
		l-3.146,3.146c-0.391,0.391-0.391,1.023,0,1.414C35.357,32.973,35.613,33.07,35.869,33.07z"/>
	<path d="M39.355,34.874c0.195,0.195,0.451,0.293,0.707,0.293s0.512-0.098,0.707-0.293l5.242-5.242c0.391-0.391,0.391-1.023,0-1.414
		s-1.023-0.391-1.414,0l-5.242,5.242C38.965,33.851,38.965,34.483,39.355,34.874z"/>
	<path d="M40.4,45.101l-0.675,0.507c-2.956-2.307-6.024-3.242-9.127-2.776c-4.488,0.676-7.693,4.091-8.89,5.565l-0.509-0.381
		c-0.441-0.33-1.068-0.242-1.399,0.2c-0.332,0.441-0.242,1.068,0.2,1.399l2.915,2.186c0.18,0.135,0.39,0.2,0.599,0.2
		c0.305,0,0.604-0.138,0.801-0.4c0.332-0.441,0.242-1.068-0.2-1.399l-0.803-0.602c1.061-1.287,3.847-4.226,7.584-4.79
		c2.394-0.363,4.795,0.338,7.157,2.053l-0.566,0.425c-0.442,0.331-0.532,0.958-0.2,1.399c0.196,0.263,0.496,0.4,0.801,0.4
		c0.209,0,0.419-0.065,0.599-0.2L41.6,46.7c0.442-0.331,0.532-0.958,0.2-1.399C41.469,44.857,40.841,44.77,40.4,45.101z"/>
	<path d="M53.97,16.133C53.353,7.019,43.047,0,30,0S6.647,7.019,6.03,16.133C4.294,16.569,3,18.13,3,20c0,2.206,1.794,4,4,4h1v3.934
		v0.852V51c0,2.757,2.243,5,5,5h3v1.694C16,58.966,17.034,60,18.306,60h23.389C42.966,60,44,58.966,44,57.694V56h3
		c2.757,0,5-2.243,5-5V28.784v-0.58V24h1c2.206,0,4-1.794,4-4C57,18.13,55.706,16.569,53.97,16.133z M50,27.148
		c-6.163-2.889-13.456-2.638-19.416,0.768l-0.015,0.009h-1.527l-0.015-0.009C22.871,24.399,16.028,24.05,10,26.877V24h40V27.148z
		 M49.996,29.372c-0.052,3.221-0.621,6.503-4.795,6.955c-5.167,0.56-8.862-0.126-10.987-2.034c-1.299-1.165-2.01-2.82-2.119-4.926
		C37.668,26.408,44.423,26.411,49.996,29.372z M27.516,29.365c-0.109,2.106-0.82,3.762-2.119,4.928
		c-2.126,1.908-5.826,2.593-10.987,2.034c-3.976-0.431-4.395-3.501-4.409-7.223C15.467,26.198,21.786,26.294,27.516,29.365z M14,18
		v4h-4v-4H14z M20,18v4h-4v-4H20z M26,18v4h-4v-4H26z M32,18v4h-4v-4H32z M38,18v4h-4v-4H38z M44,18v4h-4v-4H44z M50,22h-4v-4h4V22z
		 M30,2c11.844,0,21.223,6.072,21.954,14H8.046C8.777,8.072,18.156,2,30,2z M5,20c0-1.103,0.897-2,2-2h1v4H7C5.897,22,5,21.103,5,20
		z M42,57.694C42,57.863,41.863,58,41.694,58H18.306C18.137,58,18,57.863,18,57.694V56h24V57.694z M50,51c0,1.654-1.346,3-3,3h-3H16
		h-3c-1.654,0-3-1.346-3-3V36.424c0.916,0.971,2.25,1.681,4.194,1.892c1.216,0.132,2.362,0.197,3.439,0.197
		c4.022,0,7.075-0.915,9.099-2.731c1.612-1.448,2.532-3.415,2.747-5.856h0.652c0.215,2.442,1.135,4.41,2.747,5.856
		c2.023,1.817,5.075,2.731,9.098,2.731c1.078,0,2.225-0.065,3.44-0.197c2.165-0.234,3.609-1.066,4.584-2.162V51z M53,22h-1v-4h1
		c1.103,0,2,0.897,2,2S54.103,22,53,22z"/>
</g>
<g>
</g>
<g>
</g>
<g>
</g>
<g>
</g>
<g>
</g>
<g>
</g>
<g>
</g>
<g>
</g>
<g>
</g>
<g>
</g>
<g>
</g>
<g>
</g>
<g>
</g>
<g>
</g>
<g>
</g>
</svg>
