<?xml version="1.0" encoding="iso-8859-1"?>
<!-- Generator: Adobe Illustrator 18.0.0, SVG Export Plug-In . SVG Version: 6.00 Build 0)  -->
<!DOCTYPE svg PUBLIC "-//W3C//DTD SVG 1.1//EN" "http://www.w3.org/Graphics/SVG/1.1/DTD/svg11.dtd">
<svg version="1.1" id="Capa_1" xmlns="http://www.w3.org/2000/svg" xmlns:xlink="http://www.w3.org/1999/xlink" x="0px" y="0px"
	 viewBox="0 0 493.289 493.289" style="enable-background:new 0 0 493.289 493.289;" xml:space="preserve">
<path d="M463.66,257.014c-0.715-4.293-4.616-7.275-8.874-6.963c-28.38,0-35.983,22.481-40.632,36.89
	c-5.594,13.698-22.762,15.621-30.447,3.063c-11.171-18.253-3.31-59.387-24.361-78.883c-5.353-4.719,0.484-0.323-45.794-33.895
	c11.369-35.588,18.212-72.063,18.212-91.918c0-47.007-38.144-85.229-85.118-85.307c-46.975,0.078-85.118,38.299-85.118,85.307
	c0,19.855,6.843,56.33,18.212,91.918c-46.278,33.572-40.441,29.176-45.794,33.895c-21.051,19.496-13.19,60.63-24.361,78.883
	c-7.685,12.558-24.852,10.635-30.447-3.063c-4.65-14.408-12.252-36.89-40.632-36.89c-4.259-0.313-8.159,2.67-8.874,6.963
	c-0.749,4.542,2.33,8.842,6.872,9.602c16.841,0,20.112,15.749,20.384,16.954c1.938,8.395,2.858,14.49,7.756,21.591
	c17.32,23.963,50.944,23.069,67.756-1.207c3.106-5.105,3.848-7.435,5.128-10.815c9.595-32.684,13.275-51.078,17.412-55.63
	c2.779-3.058,10.524-8.243,18.164-12.411c1.164-0.635,2.602-0.463,3.584,0.427c0.982,0.891,1.292,2.305,0.774,3.525
	c-11.643,27.442-11.512,35.11-33.627,104.02c-3.275,10.206-7.478,27.101-31.086,36.746c-37.36,15.264-53.816,17.202-70.056,42.397
	c-2.297,3.573-1.545,8.412,1.867,11.091c3.621,2.85,8.868,2.216,11.718-1.416c20.505-26.941,68.765-23.619,90.583-44.279
	c12.176-11.53,22.276-26.255,54.238-104.326c0.322-0.787,1.181-1.209,2-0.985c0.82,0.225,1.342,1.026,1.219,1.867
	c-26.454,180.634-36.987,177.679-41.568,181.105c-9.568,7.155-26.03,15.099-39.953,22.281c-3.885,2.044-5.569,6.81-3.724,10.856
	c1.908,4.193,6.86,6.042,11.054,4.128c31.775-14.508,31.92-12.753,44.529-22.134c6.683-4.972,20.725-14.93,27.2-47.636
	c7.055-32.121,27.268-124.314,33.463-152.582c4.176,1.999,7.816,3.048,11.327,3.076c3.511-0.028,7.151-1.077,11.327-3.076
	c6.195,28.268,26.409,120.461,33.463,152.582c6.475,32.707,20.517,42.664,27.2,47.636c12.609,9.381,12.753,7.626,44.529,22.134
	c4.193,1.915,9.146,0.065,11.054-4.128c1.845-4.046,0.161-8.812-3.724-10.856c-13.923-7.182-30.385-15.126-39.953-22.281
	c-4.582-3.426-15.115-0.47-41.568-181.105c-0.123-0.841,0.4-1.641,1.219-1.865c0.819-0.224,1.678,0.197,2,0.983
	c31.963,78.071,42.063,92.796,54.238,104.326c21.817,20.66,70.078,17.337,90.582,44.279c2.851,3.632,8.097,4.267,11.718,1.416
	c3.412-2.679,4.164-7.518,1.867-11.091c-16.24-25.195-32.696-27.133-70.056-42.397c-23.608-9.646-27.811-26.54-31.086-36.746
	c-22.115-68.91-21.985-76.577-33.627-104.02c-0.518-1.22-0.207-2.633,0.775-3.524c0.981-0.89,2.42-1.064,3.583-0.429
	c7.641,4.167,15.385,9.352,18.164,12.411c4.137,4.552,7.817,22.946,17.412,55.63c1.28,3.38,2.022,5.71,5.128,10.815
	c16.811,24.277,50.436,25.17,67.756,1.207c4.897-7.102,5.818-13.197,7.756-21.591c0.272-1.205,3.543-16.954,20.384-16.954
	C461.33,265.856,464.408,261.556,463.66,257.014z"/>
<g>
</g>
<g>
</g>
<g>
</g>
<g>
</g>
<g>
</g>
<g>
</g>
<g>
</g>
<g>
</g>
<g>
</g>
<g>
</g>
<g>
</g>
<g>
</g>
<g>
</g>
<g>
</g>
<g>
</g>
</svg>
