<?xml version="1.0" encoding="iso-8859-1"?>
<!-- Generator: Adobe Illustrator 18.0.0, SVG Export Plug-In . SVG Version: 6.00 Build 0)  -->
<!DOCTYPE svg PUBLIC "-//W3C//DTD SVG 1.1//EN" "http://www.w3.org/Graphics/SVG/1.1/DTD/svg11.dtd">
<svg version="1.1" id="Capa_1" xmlns="http://www.w3.org/2000/svg" xmlns:xlink="http://www.w3.org/1999/xlink" x="0px" y="0px"
	 viewBox="0 0 59.001 59.001" style="enable-background:new 0 0 59.001 59.001;" xml:space="preserve">
<g>
	<path d="M39.334,43.051c-0.507-0.212-1.095,0.028-1.308,0.538c-1.876,4.503-7.438,6.652-12.141,4.691
		c-0.507-0.211-1.095,0.028-1.308,0.538s0.028,1.096,0.538,1.308c1.429,0.596,2.922,0.876,4.396,0.876
		c4.413,0,8.642-2.518,10.36-6.644C40.084,43.849,39.843,43.263,39.334,43.051z"/>
	<path d="M58.189,26.276L31.351,0.768c-1.021-1.021-2.683-1.021-3.683-0.018L0.812,26.276c-0.297,0.281-0.392,0.716-0.24,1.096
		s0.52,0.629,0.929,0.629h2v23c0,2.757,2.243,5,5,5h6.55c0.046,0.022,0.096,0.04,0.142,0.062c3.509,1.654,7.728,2.643,12.541,2.878
		c0.107,0.005,0.215,0.011,0.323,0.016c0.639,0.027,1.285,0.045,1.944,0.045c0.66,0,1.305-0.018,1.945-0.045
		c0.107-0.005,0.214-0.01,0.321-0.016c4.814-0.235,9.033-1.224,12.543-2.878c0.046-0.022,0.096-0.04,0.142-0.061h6.55
		c2.757,0,5-2.243,5-5v-23h1c0.409,0,0.777-0.249,0.929-0.629S58.486,26.558,58.189,26.276z M29.064,2.182
		c0.24-0.239,0.632-0.239,0.892,0.018l25.041,23.802h-1.265H6.27H4.004L29.064,2.182z M44.493,54.001l-0.207,0.101
		c-2.828,1.374-6.204,2.271-9.916,2.666c-0.271,0.027-0.542,0.056-0.819,0.078c-0.392,0.033-0.787,0.062-1.186,0.084
		c-0.774,0.04-1.556,0.072-2.364,0.072c-0.809,0-1.591-0.031-2.365-0.072c-0.398-0.022-0.793-0.051-1.184-0.084
		c-0.278-0.022-0.55-0.051-0.822-0.078c-3.712-0.395-7.087-1.292-9.914-2.666l-0.207-0.101h-0.09
		C9.048,50.784,5.5,45.097,5.5,37.504c0.006-0.422,0.382-3.867,0.683-5.605l0.205-0.723c0.308-1.084,0.694-2.148,1.151-3.175h44.922
		c1.354,3.028,2.039,6.222,2.039,9.5c0,7.595-3.548,13.283-9.918,16.5H44.493z M8.5,54.001c-1.654,0-3-1.346-3-3v-4.226
		c1.384,2.876,3.459,5.308,6.148,7.226H8.5z M54.5,51.001c0,1.654-1.346,3-3,3h-3.148c2.689-1.917,4.764-4.349,6.148-7.226V51.001z"
		/>
	<path d="M25.333,37.556c0.307-0.46,0.183-1.08-0.277-1.387l-9-6c-0.462-0.306-1.081-0.183-1.387,0.277
		c-0.307,0.46-0.183,1.08,0.277,1.387l9,6c0.171,0.113,0.363,0.168,0.554,0.168C24.823,38.001,25.14,37.845,25.333,37.556z"/>
	<path d="M43.946,30.169l-9,6c-0.46,0.307-0.584,0.927-0.277,1.387c0.192,0.289,0.51,0.445,0.833,0.445
		c0.19,0,0.383-0.055,0.554-0.168l9-6c0.46-0.307,0.584-0.927,0.277-1.387S44.407,29.863,43.946,30.169z"/>
</g>
<g>
</g>
<g>
</g>
<g>
</g>
<g>
</g>
<g>
</g>
<g>
</g>
<g>
</g>
<g>
</g>
<g>
</g>
<g>
</g>
<g>
</g>
<g>
</g>
<g>
</g>
<g>
</g>
<g>
</g>
</svg>
