<?xml version="1.0" encoding="iso-8859-1"?>
<!-- Generator: Adobe Illustrator 19.0.0, SVG Export Plug-In . SVG Version: 6.00 Build 0)  -->
<svg version="1.1" id="Layer_1" xmlns="http://www.w3.org/2000/svg" xmlns:xlink="http://www.w3.org/1999/xlink" x="0px" y="0px"
	 viewBox="0 0 497.028 497.028" style="enable-background:new 0 0 497.028 497.028;" xml:space="preserve">
<g id="XMLID_348_">
	<g>
		<path d="M432.917,80.007V0H64.111v80.007L3.514,134.836V427.81h169.61l75.39,69.218l75.39-69.218h169.61V134.836h0L432.917,80.007
			z M361.181,30l-86.632,49.251h-52.072L135.846,30H361.181z M402.916,40.782v39.226l-70.909,64.16l-31.716-45.042L402.916,40.782z
			 M293.059,140.962l-23.317,33.114h-42.456l-23.317-33.114l22.329-31.711h44.432L293.059,140.962z M94.11,40.782h0.001
			l102.625,58.344l-31.717,45.042L94.11,80.008V40.782z M166.439,397.808H33.514v-249.66l45.597-41.256l90.919,82.268l15.593-22.145
			l18.001,25.563L166.439,397.808z M248.514,456.301l-53.315-48.95l36.831-203.274H265l36.831,203.274L248.514,456.301z
			 M330.589,397.81l-37.185-205.23l18.001-25.563l15.593,22.145l90.919-82.268l45.597,41.256v249.66H330.589z"/>
	</g>
</g>
<g>
</g>
<g>
</g>
<g>
</g>
<g>
</g>
<g>
</g>
<g>
</g>
<g>
</g>
<g>
</g>
<g>
</g>
<g>
</g>
<g>
</g>
<g>
</g>
<g>
</g>
<g>
</g>
<g>
</g>
</svg>
