<?xml version="1.0" encoding="iso-8859-1"?>
<!-- Generator: Adobe Illustrator 19.0.0, SVG Export Plug-In . SVG Version: 6.00 Build 0)  -->
<svg version="1.1" id="Capa_1" xmlns="http://www.w3.org/2000/svg" xmlns:xlink="http://www.w3.org/1999/xlink" x="0px" y="0px"
	 viewBox="0 0 463 463" style="enable-background:new 0 0 463 463;" xml:space="preserve">
<path d="M455.5,240H447v-12.5c0-10.752-8.748-19.5-19.5-19.5c-6.75,0-12.707,3.45-16.209,8.676l-163.107-88.645
	c4.21-4.249,6.816-10.091,6.816-16.531c0-8.662-4.741-16.595-12.373-20.702c-2.203-1.186-3.627-3.924-3.627-6.976V61.766
	c9.29-3.138,16-11.93,16-22.266c0-12.958-10.542-23.5-23.5-23.5S208,26.542,208,39.5c0,10.336,6.71,19.128,16,22.266v22.056
	c0,8.626,4.414,16.36,11.518,20.185c2.765,1.488,4.482,4.359,4.482,7.494c0,4.687-3.813,8.5-8.5,8.5s-8.5-3.813-8.5-8.5
	c0-4.142-3.358-7.5-7.5-7.5s-7.5,3.358-7.5,7.5c0,6.346,2.532,12.108,6.634,16.34l-165.11,86.144
	C45.975,210.303,41.005,208,35.5,208c-10.752,0-19.5,8.748-19.5,19.5V240H7.5c-4.142,0-7.5,3.358-7.5,7.5v192
	c0,4.142,3.358,7.5,7.5,7.5h448c4.142,0,7.5-3.358,7.5-7.5v-192C463,243.358,459.642,240,455.5,240z M231.5,31
	c4.687,0,8.5,3.813,8.5,8.5s-3.813,8.5-8.5,8.5s-8.5-3.813-8.5-8.5S226.813,31,231.5,31z M427.5,223c2.481,0,4.5,2.019,4.5,4.5V240
	h-9v-12.463c0-0.015,0.001-0.029,0.001-0.044C423.004,225.015,425.021,223,427.5,223z M55,240v-11.954l176.428-92.049L408,231.96
	V240H55z M31,227.5c0-2.481,2.019-4.5,4.5-4.5s4.5,2.019,4.5,4.5V240h-9V227.5z M448,255v145h-17V279.5c0-4.142-3.358-7.5-7.5-7.5
	s-7.5,3.358-7.5,7.5V400h-17V279.5c0-4.142-3.358-7.5-7.5-7.5s-7.5,3.358-7.5,7.5V400h-17V279.5c0-4.142-3.358-7.5-7.5-7.5
	s-7.5,3.358-7.5,7.5V400h-17V279.5c0-4.142-3.358-7.5-7.5-7.5s-7.5,3.358-7.5,7.5V400h-17V279.5c0-4.142-3.358-7.5-7.5-7.5
	s-7.5,3.358-7.5,7.5V400h-17V279.5c0-4.142-3.358-7.5-7.5-7.5s-7.5,3.358-7.5,7.5V400h-17V279.5c0-4.142-3.358-7.5-7.5-7.5
	s-7.5,3.358-7.5,7.5V400h-17V279.5c0-4.142-3.358-7.5-7.5-7.5s-7.5,3.358-7.5,7.5V400h-17V279.5c0-4.142-3.358-7.5-7.5-7.5
	s-7.5,3.358-7.5,7.5V400h-17V279.5c0-4.142-3.358-7.5-7.5-7.5s-7.5,3.358-7.5,7.5V400h-17V279.5c0-4.142-3.358-7.5-7.5-7.5
	s-7.5,3.358-7.5,7.5V400H79V279.5c0-4.142-3.358-7.5-7.5-7.5s-7.5,3.358-7.5,7.5V400H47V279.5c0-4.142-3.358-7.5-7.5-7.5
	s-7.5,3.358-7.5,7.5V400H15V255H448z M15,432v-17h433v17H15z"/>
<g>
</g>
<g>
</g>
<g>
</g>
<g>
</g>
<g>
</g>
<g>
</g>
<g>
</g>
<g>
</g>
<g>
</g>
<g>
</g>
<g>
</g>
<g>
</g>
<g>
</g>
<g>
</g>
<g>
</g>
</svg>
