<?xml version="1.0" encoding="iso-8859-1"?>
<!-- Generator: Adobe Illustrator 18.0.0, SVG Export Plug-In . SVG Version: 6.00 Build 0)  -->
<!DOCTYPE svg PUBLIC "-//W3C//DTD SVG 1.1//EN" "http://www.w3.org/Graphics/SVG/1.1/DTD/svg11.dtd">
<svg version="1.1" id="Capa_1" xmlns="http://www.w3.org/2000/svg" xmlns:xlink="http://www.w3.org/1999/xlink" x="0px" y="0px"
	 viewBox="0 0 295.996 295.996" style="enable-background:new 0 0 295.996 295.996;" xml:space="preserve">
<g>
	<path d="M147.998,0C66.392,0,0,66.392,0,147.998c0,81.606,66.392,147.998,147.998,147.998c81.606,0,147.998-66.392,147.998-147.998
		C295.996,66.392,229.605,0,147.998,0z M147.998,279.996c-36.257,0-69.143-14.696-93.023-38.44
		c-9.536-9.482-17.631-20.41-23.934-32.42C21.442,190.847,16,170.048,16,147.998C16,75.214,75.214,16,147.998,16
		c34.523,0,65.987,13.328,89.533,35.102c12.208,11.288,22.289,24.844,29.558,39.997c8.27,17.238,12.907,36.537,12.907,56.899
		C279.996,220.782,220.782,279.996,147.998,279.996z"/>
	<path d="M210.037,176.017c-5.507-1.471-10.363-4.529-14.05-8.658c-12.984,12.067-30.165,18.909-47.991,18.909
		c-17.825,0-35.006-6.842-47.989-18.909c-3.687,4.129-8.543,7.188-14.05,8.659c16.237,16.712,38.695,26.25,62.039,26.25
		C171.34,202.268,193.8,192.73,210.037,176.017z"/>
	<path d="M98.497,129.998c0.766,0,1.512-0.072,2.249-0.177c7.768-1.096,13.751-7.752,13.751-15.823c0-8.836-7.164-16-16-16
		c-8.836,0-16,7.164-16,16c0,2.045,0.398,3.993,1.098,5.79C85.917,125.759,91.706,129.998,98.497,129.998z"/>
	<path d="M212.399,119.788c0.699-1.797,1.098-3.745,1.098-5.79c0-8.836-7.164-16-16-16c-8.836,0-16,7.164-16,16
		c0,8.071,5.983,14.728,13.752,15.823c0.736,0.105,1.482,0.177,2.248,0.177C204.288,129.998,210.077,125.759,212.399,119.788z"/>
</g>
<g>
</g>
<g>
</g>
<g>
</g>
<g>
</g>
<g>
</g>
<g>
</g>
<g>
</g>
<g>
</g>
<g>
</g>
<g>
</g>
<g>
</g>
<g>
</g>
<g>
</g>
<g>
</g>
<g>
</g>
</svg>
