<?xml version="1.0" encoding="iso-8859-1"?>
<!-- Generator: Adobe Illustrator 19.0.0, SVG Export Plug-In . SVG Version: 6.00 Build 0)  -->
<svg version="1.1" id="Layer_1" xmlns="http://www.w3.org/2000/svg" xmlns:xlink="http://www.w3.org/1999/xlink" x="0px" y="0px"
	 viewBox="0 0 400 400" style="enable-background:new 0 0 400 400;" xml:space="preserve">
<g id="XMLID_443_">
	<g>
		<g>
			<circle cx="100" cy="199.75" r="10"/>
			<path d="M368.572,150.25c-7.857,0-23.572,7.857-23.572,15.715c0-7.857-15.715-15.715-23.572-15.715c-15.714,0-31.428,0-31.428,0
				c0,19.638,16.367,39.262,40,45.27v9.73c0,19.33-15.67,35-35,35c-19.33,0-35-15.67-35-35v-74c0-28.166-22.834-51-51-51H51
				c-28.167,0-51,22.834-51,51v98c0,28.166,22.833,51,51,51h89.013c0.269,21.86,18.064,39.5,39.987,39.5v-39.5h129
				c28.167,0,51-22.834,51-51v-33.73c23.633-6.008,40-25.632,40-45.27C400,150.25,384.286,150.25,368.572,150.25z M100,229.749
				c-27.614,0-50-15.669-50-35c0-19.33,22.386-34.999,50-34.999s50,15.669,50,34.999C150,214.079,127.614,229.749,100,229.749z"/>
		</g>
	</g>
</g>
<g>
</g>
<g>
</g>
<g>
</g>
<g>
</g>
<g>
</g>
<g>
</g>
<g>
</g>
<g>
</g>
<g>
</g>
<g>
</g>
<g>
</g>
<g>
</g>
<g>
</g>
<g>
</g>
<g>
</g>
</svg>
