<?xml version="1.0" encoding="iso-8859-1"?>
<!-- Generator: Adobe Illustrator 18.0.0, SVG Export Plug-In . SVG Version: 6.00 Build 0)  -->
<!DOCTYPE svg PUBLIC "-//W3C//DTD SVG 1.1//EN" "http://www.w3.org/Graphics/SVG/1.1/DTD/svg11.dtd">
<svg version="1.1" id="Capa_1" xmlns="http://www.w3.org/2000/svg" xmlns:xlink="http://www.w3.org/1999/xlink" x="0px" y="0px"
	 viewBox="0 0 62.283 101.126" style="enable-background:new 0 0 62.283 101.126;" preserveAspectRatio="fit">
<g>
	<path d="M56.551,92.071c2.155,0,3.842-0.377,3.913-0.393l1.819-0.412V48.853c0-7.645-2.977-14.832-8.382-20.237
		c-1.601-1.601-3.36-2.988-5.239-4.148c1.61-2.421,2.846-5.267,3.423-7.907c1.209-5.539-0.486-9.946-4.65-12.092
		c-1.358-0.7-2.77-1.054-4.198-1.054c-0.324,0-0.646,0.019-0.966,0.055c-1.537-1.959-3.664-3.15-6.245-3.417
		c-2.865-0.296-5.487,0.648-7.509,2.699c-1.43,1.45-2.551,3.413-3.333,5.834c-0.149,0.462-0.283,0.939-0.404,1.426
		c-0.892,1.161-1.602,2.614-2.115,4.335c-0.594,1.991-0.912,4.334-0.93,6.716c-5.011,1.232-9.609,3.81-13.351,7.552
		C2.977,34.022,0,41.209,0,48.853v42.412l1.819,0.412c0.071,0.016,1.759,0.393,3.914,0.393c1.087,0,2.105-0.091,3.047-0.271
		c-0.467,0.729-0.491,1.529-0.301,2.148c0.664,2.158,3.436,2.158,4.48,2.158c2.504,0,5.372-0.583,7.749-1.566
		c-0.582,2.613-0.014,3.916,0.53,4.706c0.86,1.248,2.285,1.881,4.238,1.881c1.049,0,2.15-0.169,3.216-0.332
		c0.877-0.134,1.784-0.273,2.449-0.273c0.665,0,1.572,0.139,2.449,0.273c1.066,0.163,2.168,0.332,3.216,0.332h0.001
		c1.952,0,3.378-0.633,4.238-1.881c0.544-0.79,1.111-2.093,0.53-4.706c2.378,0.983,5.245,1.566,7.749,1.566
		c1.044,0,3.816,0,4.48-2.158c0.19-0.619,0.166-1.419-0.301-2.148C54.445,91.98,55.462,92.071,56.551,92.071L56.551,92.071z
		 M44.299,18.887c0.75-3.013,0.918-6.39,0.46-9.266c-0.073-0.46-0.163-0.903-0.267-1.334c0.265,0.085,0.532,0.196,0.802,0.335
		c0.702,0.362,2.841,1.464,2.459,5.477c-0.213,2.237-1.174,4.879-2.638,7.247c-0.222,0.359-0.44,0.687-0.654,0.987
		c-1.176,1.655-2.182,2.44-2.546,2.575c-0.344,0.019-0.696,0.059-1.055,0.118c1.054-0.687,1.84-1.859,2.423-3.143
		C43.733,20.894,44.062,19.838,44.299,18.887z M34.985,4.67c0.181,0,0.369,0.01,0.559,0.03c0.386,0.04,1.16,0.121,1.979,0.652
		c0.539,0.35,1.098,0.894,1.578,1.753c0.274,0.491,0.523,1.083,0.728,1.801c0.043,0.151,0.083,0.306,0.121,0.463
		c0.476,1.984,0.523,4.434,0.128,6.857c-0.128-0.651-0.279-1.281-0.458-1.877c-0.374-1.254-0.854-2.366-1.431-3.326
		c-0.412-0.685-0.873-1.295-1.384-1.822c-0.021-0.021-0.042-0.041-0.063-0.062c-0.568-0.575-1.194-1.049-1.869-1.417
		c-1.111-0.605-2.351-0.922-3.673-0.932C32.231,5.382,33.499,4.67,34.985,4.67z M26.567,18.505c0.198-1.618,0.572-3.084,1.101-4.254
		c0.305-0.673,0.738-1.47,1.409-2.04c0.525-0.446,1.195-0.753,2.064-0.753c0.347,0,0.662,0.05,0.949,0.137
		c0.829,0.252,1.423,0.822,1.861,1.455c0.276,0.397,0.49,0.819,0.663,1.201c0.214,0.473,0.402,0.996,0.564,1.557
		c0.384,1.327,0.617,2.871,0.682,4.509c0.026,0.647,0.026,1.308-0.003,1.977c-0.006,0.139-0.013,0.275-0.021,0.41
		c-0.038,0.633-0.099,1.206-0.173,1.721c-0.029,0.186-0.062,0.371-0.1,0.556c-0.108,0.53-0.255,1.052-0.46,1.556
		c-0.308,0.756-0.812,1.304-1.349,1.839c-0.344,0.343-0.701,0.68-1.03,1.064c-0.053,0.062-0.111,0.133-0.172,0.21
		c-0.557,0.702-1.375,1.923-1.411,1.982c-0.111-0.18-0.227-0.361-0.346-0.541c-0.882-1.332-1.977-2.636-3.264-3.508
		c-0.207-0.279-0.563-1.156-0.82-2.6c-0.062-0.351-0.119-0.734-0.166-1.151c-0.053-0.47-0.094-0.982-0.118-1.536
		c-0.029-0.669-0.029-1.33-0.004-1.977C26.447,19.698,26.495,19.091,26.567,18.505z M36.807,96.455
		c-0.693,0-1.616-0.141-2.509-0.278c-0.379-0.058-0.763-0.116-1.146-0.168c-0.679-0.091-1.358-0.159-2.01-0.159
		c-0.652,0-1.331,0.068-2.01,0.159c-0.384,0.051-0.767,0.11-1.146,0.168c-0.893,0.137-1.816,0.278-2.509,0.278
		c-0.144,0-0.258-0.006-0.347-0.014c0.01-0.372,0.122-1.168,0.691-2.659c0.025-0.066,0.049-0.133,0.074-0.199
		c0.825-2.221,1.435-4.844,1.885-7.537c0.358-2.138,0.615-4.318,0.8-6.376c0.308,0.301,0.611,0.602,0.91,0.902l1.652,1.651
		l1.652-1.652c0.299-0.299,0.603-0.6,0.91-0.902c0.185,2.057,0.442,4.238,0.8,6.376c0.451,2.692,1.061,5.315,1.886,7.536
		c0.025,0.066,0.049,0.133,0.074,0.199c0.569,1.491,0.681,2.286,0.691,2.659C37.065,96.449,36.951,96.455,36.807,96.455
		L36.807,96.455z M35.605,71.811c-0.804,0.604-1.561,1.221-2.282,1.845c-0.763,0.66-1.486,1.326-2.181,1.992
		c-0.695-0.666-1.419-1.332-2.181-1.992c-0.721-0.623-1.478-1.24-2.282-1.845c-0.728-0.547-1.494-1.084-2.308-1.605
		c-0.814-0.522-1.674-1.029-2.59-1.515c-1.126-0.597-1.774-1.354-1.69-1.975c0.051-0.382,0.372-0.723,0.763-0.811
		c0.18-0.04,0.351-0.078,0.513-0.114c2.899-0.638,4.037-1.132,6.426-4.553c1.295-1.856,2.898-2.012,3.237-2.024l0.011,0.018
		l0.195-0.018c0.291,0.007,1.934,0.129,3.257,2.025c2.389,3.421,3.527,3.915,6.426,4.553c0.162,0.036,0.333,0.073,0.513,0.114
		c0.391,0.088,0.712,0.429,0.763,0.811c0.083,0.621-0.565,1.378-1.691,1.975c-0.916,0.486-1.775,0.993-2.589,1.515
		C37.1,70.726,36.333,71.263,35.605,71.811z M50.944,85.054l-4.025-7.304l-0.355,8.332c-0.017,0.406-0.078,2.86,0.821,5.209
		c-1.319-0.181-2.843-0.546-4.27-1.171c-1.803-0.79-3.032-1.798-3.67-3.005c-0.757-3.75-1.143-7.936-1.338-11.336
		c1.368-1.052,2.875-2.055,4.583-2.961c2.942-1.56,4.487-4.073,4.132-6.722c-0.311-2.322-2.066-4.231-4.368-4.748
		c-0.188-0.042-0.365-0.081-0.534-0.118c-1.021-0.225-1.486-0.333-1.812-0.55c-0.407-0.271-0.942-0.903-1.788-2.115
		c-2.673-3.828-6.396-4.022-7.115-4.022c-0.024,0-0.046,0-0.066,0c-0.02,0-0.041,0-0.066,0c-0.719,0-4.442,0.194-7.115,4.022
		c-0.846,1.212-1.381,1.845-1.788,2.115c-0.326,0.217-0.791,0.325-1.812,0.55c-0.169,0.037-0.347,0.076-0.534,0.118
		c-2.301,0.518-4.056,2.426-4.367,4.748c-0.355,2.649,1.19,5.162,4.132,6.722c1.709,0.906,3.217,1.91,4.585,2.963
		c-0.034,0.595-0.074,1.214-0.122,1.851c-0.267,3.609-0.682,6.808-1.225,9.495c-0.64,1.202-1.866,2.207-3.664,2.994
		c-1.427,0.625-2.951,0.991-4.27,1.171c0.899-2.349,0.838-4.804,0.821-5.209l-0.354-8.332l-4.025,7.304
		c-1.068,1.938-3.638,2.345-5.606,2.345c-0.377,0-0.734-0.015-1.062-0.038V48.853c0-6.397,2.491-12.411,7.014-16.934
		c2.944-2.944,6.521-5.027,10.423-6.122c0.394,2.238,1.185,4.592,2.764,5.626c1.91,1.252,3.622,5.073,4.071,6.313l2.19,6.086
		c0,0,2.199-6.073,2.204-6.087c0.72-1.988,1.82-3.937,3.363-5.44c1.703-1.659,4.073-2.474,6.329-3.055
		c1.046-0.269,1.779-0.541,2.564-1.164c1.807,1.042,3.489,2.327,5.003,3.841c4.523,4.523,7.014,10.537,7.014,16.934v38.508
		c-0.327,0.023-0.685,0.038-1.061,0.038h0C54.582,87.399,52.012,86.992,50.944,85.054z"/>
	<path d="M12.836,44.932c-3.12,0-5.658,2.538-5.658,5.658c0,3.12,2.538,5.658,5.658,5.658c3.12,0,5.658-2.538,5.658-5.658
		C18.494,47.471,15.956,44.932,12.836,44.932z M12.836,51.576c-0.544,0-0.986-0.443-0.986-0.986c0-0.544,0.442-0.986,0.986-0.986
		c0.544,0,0.986,0.442,0.986,0.986C13.823,51.134,13.38,51.576,12.836,51.576z"/>
	<path d="M49.447,44.932c-3.12,0-5.658,2.538-5.658,5.658c0,3.12,2.538,5.658,5.658,5.658c3.12,0,5.658-2.538,5.658-5.658
		C55.104,47.471,52.566,44.932,49.447,44.932z M49.447,51.576c-0.544,0-0.986-0.443-0.986-0.986c0-0.544,0.442-0.986,0.986-0.986
		s0.986,0.442,0.986,0.986C50.433,51.134,49.99,51.576,49.447,51.576z"/>
	<path d="M27.499,65.962L27.499,65.962c0,0,2.112,0.024,2.408-1.258c0.088-0.381,0.016-0.876-0.32-1.522
		C29.586,63.182,26.638,64.053,27.499,65.962z"/>
	<path d="M32.697,63.182c-0.336,0.646-0.408,1.141-0.32,1.522c0.295,1.282,2.408,1.258,2.408,1.258l0,0
		C35.645,64.053,32.697,63.182,32.697,63.182z"/>
</g>
<g>
</g>
<g>
</g>
<g>
</g>
<g>
</g>
<g>
</g>
<g>
</g>
<g>
</g>
<g>
</g>
<g>
</g>
<g>
</g>
<g>
</g>
<g>
</g>
<g>
</g>
<g>
</g>
<g>
</g>
</svg>
