<?xml version="1.0" encoding="iso-8859-1"?>
<!-- Generator: Adobe Illustrator 18.0.0, SVG Export Plug-In . SVG Version: 6.00 Build 0)  -->
<!DOCTYPE svg PUBLIC "-//W3C//DTD SVG 1.1//EN" "http://www.w3.org/Graphics/SVG/1.1/DTD/svg11.dtd">
<svg version="1.1" id="Capa_1" xmlns="http://www.w3.org/2000/svg" xmlns:xlink="http://www.w3.org/1999/xlink" x="0px" y="0px"
	 viewBox="0 0 44 44" style="enable-background:new 0 0 44 44;" xml:space="preserve">
<g>
	<path d="M22,0C9.869,0,0,9.869,0,22s9.869,22,22,22s22-9.869,22-22S34.131,0,22,0z M22,42C10.972,42,2,33.028,2,22S10.972,2,22,2
		s20,8.972,20,20S33.028,42,22,42z"/>
	<circle cx="13.5" cy="14.5" r="3.5"/>
	<circle cx="29.5" cy="14.5" r="3.5"/>
	<path d="M33,24c-0.552,0-1,0.448-1,1c0,5.514-4.486,10-10,10s-10-4.486-10-10c0-0.552-0.448-1-1-1s-1,0.448-1,1
		c0,6.617,5.383,12,12,12s12-5.383,12-12C34,24.448,33.552,24,33,24z"/>
</g>
<g>
</g>
<g>
</g>
<g>
</g>
<g>
</g>
<g>
</g>
<g>
</g>
<g>
</g>
<g>
</g>
<g>
</g>
<g>
</g>
<g>
</g>
<g>
</g>
<g>
</g>
<g>
</g>
<g>
</g>
</svg>
