<?xml version="1.0" encoding="iso-8859-1"?>
<!-- Generator: Adobe Illustrator 16.0.0, SVG Export Plug-In . SVG Version: 6.00 Build 0)  -->
<!DOCTYPE svg PUBLIC "-//W3C//DTD SVG 1.1//EN" "http://www.w3.org/Graphics/SVG/1.1/DTD/svg11.dtd">
<svg version="1.1" id="Capa_1" xmlns="http://www.w3.org/2000/svg" xmlns:xlink="http://www.w3.org/1999/xlink" x="0px" y="0px"
	 width="949.267px" height="949.267px" viewBox="0 0 949.267 949.267" style="enable-background:new 0 0 949.267 949.267;"
	 xml:space="preserve">
<g>
	<g>
		<path d="M232.783,9.766c-11.6,26.6-32.3,91.1-10.6,177.3c20.1-18.8,42.6-35.2,67.399-49.2c27.601-15.6,57.5-27.9,89.2-36.7
			c-11.8-16.4-56.8-74-125.6-100.1C245.184-2.034,236.184,1.866,232.783,9.766z"/>
		<path d="M572.083,101.666c31,8.8,60.2,20.8,87.4,36.1c25.5,14.4,48.6,31.4,69.1,50.8c22.4-86.9,1.5-152.1-10.1-178.9
			c-3.5-7.8-12.5-11.7-20.5-8.6C628.483,27.466,583.184,86.066,572.083,101.666z"/>
		<path d="M796.583,499.366c1.801,1.3,3.9,1.9,5.9,1.9c5.3,0,10.3-4.301,10.1-10.4c-9.1-303.3-228.899-357.5-309.1-367.201
			c13.5,7.9,23.5,22.2,24.2,42.8c0.399,11.2-1.601,24-6.8,38.5c-29.5,81.8-16.601,219.3,32.5,280.4
			c49.1,61.1,31.899,171.3-78.301,171.3c-110.199,0-127.3-110.2-78.199-171.3c49.1-61.1,62.1-198.601,32.6-280.4
			c-5.2-14.5-7.2-27.3-6.8-38.5c0.6-20.8,10.7-35.1,24.5-43c-78.9,9.2-301.4,62-310.5,367.4c-0.2,6.1,4.8,10.4,10.1,10.4
			c2,0,4-0.601,5.9-1.9c14.1-10.2,32.9-25.401,37.4-37.1c0,0-12.6,82.4-7.3,151.1c0.5,5.9,5.3,9.3,10.1,9.3c3.3,0,6.7-1.6,8.7-5.1
			c11.6-20.4,28.1-46.101,42.1-54.601c0,0-24.6,78.2,35.4,147.801c47.2,54.8,83.8,126.8,99.3,171.199c1.6,4.5,5.5,6.7,9.5,6.7
			c3.899,0,7.699-2.1,9.399-6.5l19.9-51.5c0,0,4.5,67.9,21.399,112.2c1.601,4.3,5.5,6.4,9.4,6.4c3.6,0,7.2-1.9,9.1-5.7l17.4-35.9
			l17.5,35.9c1.9,3.8,5.5,5.7,9.1,5.7c3.9,0,7.801-2.2,9.4-6.4c16.9-44.3,21.6-112.3,21.6-112.3l19.9,51.5c1.7,4.3,5.5,6.5,9.4,6.5
			c4,0,7.899-2.3,9.5-6.7c15.5-44.4,52.1-116.4,99.3-171.2c60-69.6,35.399-147.8,35.399-147.8c14,8.5,30.5,34.2,42.101,54.6
			c2,3.5,5.399,5.101,8.7,5.101c4.899,0,9.699-3.4,10.1-9.3c5.3-68.7-7.3-151.101-7.3-151.101
			C763.783,473.965,782.483,489.166,796.583,499.366z M311.083,338.966c0-20,16.2-36.2,36.2-36.2s36.2,16.2,36.2,36.2
			s-16.2,36.2-36.2,36.2S311.083,358.966,311.083,338.966z M602.184,375.166c-20,0-36.2-16.2-36.2-36.2s16.2-36.2,36.2-36.2
			s36.2,16.2,36.2,36.2S622.184,375.166,602.184,375.166z"/>
		<ellipse cx="474.583" cy="573.266" rx="58.301" ry="41.8"/>
	</g>
</g>
<g>
</g>
<g>
</g>
<g>
</g>
<g>
</g>
<g>
</g>
<g>
</g>
<g>
</g>
<g>
</g>
<g>
</g>
<g>
</g>
<g>
</g>
<g>
</g>
<g>
</g>
<g>
</g>
<g>
</g>
</svg>
