<?xml version="1.0" encoding="iso-8859-1"?>
<!-- Generator: Adobe Illustrator 18.0.0, SVG Export Plug-In . SVG Version: 6.00 Build 0)  -->
<!DOCTYPE svg PUBLIC "-//W3C//DTD SVG 1.1//EN" "http://www.w3.org/Graphics/SVG/1.1/DTD/svg11.dtd">
<svg version="1.1" id="Capa_1" xmlns="http://www.w3.org/2000/svg" xmlns:xlink="http://www.w3.org/1999/xlink" x="0px" y="0px"
	 viewBox="0 0 295.996 295.996" style="enable-background:new 0 0 295.996 295.996;" xml:space="preserve">
<g>
	<path d="M147.998,0C66.392,0,0,66.392,0,147.998s66.392,147.998,147.998,147.998s147.998-66.392,147.998-147.998
		S229.605,0,147.998,0z M147.998,279.996c-36.256,0-69.143-14.696-93.022-38.44c-9.536-9.482-17.631-20.41-23.934-32.42
		C21.442,190.847,16,170.047,16,147.998C16,75.214,75.214,16,147.998,16c34.523,0,65.987,13.328,89.533,35.102
		c12.208,11.288,22.289,24.844,29.558,39.996c8.27,17.239,12.907,36.538,12.907,56.9
		C279.996,220.782,220.782,279.996,147.998,279.996z"/>
	<path d="M198.584,161.594c17.423,0,31.597-14.597,31.597-31.597h-16c0,9-6.997,15.597-15.597,15.597s-15.597-6.597-15.597-15.597
		h-16C166.987,146.997,181.161,161.594,198.584,161.594z"/>
	<path d="M129.007,129.997h-16c0,9-6.997,15.597-15.597,15.597s-15.597-6.597-15.597-15.597h-16c0,17,14.174,31.597,31.597,31.597
		C114.833,161.594,129.007,146.997,129.007,129.997z"/>
	<rect x="97.664" y="198.997" width="100" height="16"/>
	<rect x="179.118" y="82.405" transform="matrix(0.9176 0.3974 -0.3974 0.9176 52.9523 -74.7088)" width="55.22" height="16"/>
	<rect x="80.601" y="62.795" transform="matrix(0.3975 0.9176 -0.9176 0.3975 136.3425 -26.8292)" width="16" height="55.22"/>
</g>
<g>
</g>
<g>
</g>
<g>
</g>
<g>
</g>
<g>
</g>
<g>
</g>
<g>
</g>
<g>
</g>
<g>
</g>
<g>
</g>
<g>
</g>
<g>
</g>
<g>
</g>
<g>
</g>
<g>
</g>
</svg>
