<?xml version="1.0" encoding="iso-8859-1"?>
<!-- Generator: Adobe Illustrator 19.0.0, SVG Export Plug-In . SVG Version: 6.00 Build 0)  -->
<svg version="1.1" id="Layer_1" xmlns="http://www.w3.org/2000/svg" xmlns:xlink="http://www.w3.org/1999/xlink" x="0px" y="0px"
	 viewBox="0 0 512 512" style="enable-background:new 0 0 512 512;" xml:space="preserve">
<g>
	<g>
		<g>
			<path d="M273.067,102.4h8.533c4.719,0,8.533-3.823,8.533-8.533c0-4.71-3.814-8.533-8.533-8.533h-8.533
				c-4.719,0-8.533,3.823-8.533,8.533C264.533,98.577,268.348,102.4,273.067,102.4z"/>
			<path d="M238.933,145.067c0,4.71,3.814,8.533,8.533,8.533h17.067c4.719,0,8.533-3.823,8.533-8.533s-3.814-8.533-8.533-8.533
				h-17.067C242.748,136.533,238.933,140.356,238.933,145.067z"/>
			<path d="M309.7,207.3c-3.336,3.328-3.336,8.73,0,12.066L420.634,330.3c6.033,6.033,6.033,11.708,6.033,19.567v42.667
				c0,4.71,3.814,8.533,8.533,8.533s8.533-3.823,8.533-8.533v-42.667c0-9.182,0-20.599-11.034-31.633L321.766,207.3
				C318.43,203.964,313.037,203.964,309.7,207.3z"/>
			<path d="M230.4,102.4h8.533c4.719,0,8.533-3.823,8.533-8.533c0-4.71-3.814-8.533-8.533-8.533H230.4
				c-4.719,0-8.533,3.823-8.533,8.533C221.867,98.577,225.681,102.4,230.4,102.4z"/>
			<path d="M104.909,202.3l34.125,34.133c1.664,1.664,3.849,2.5,6.033,2.5c2.185,0,4.369-0.836,6.033-2.5
				c3.337-3.337,3.337-8.738,0-12.066L131.533,204.8h39.134c4.719,0,8.533-3.823,8.533-8.533s-3.814-8.533-8.533-8.533h-55.765
				c-1.843-2.893-3.081-8.064,1.203-17.067h46.029c4.719,0,8.533-3.823,8.533-8.533c0-4.71-3.814-8.533-8.533-8.533h-33.869
				l13.124-17.067h20.745c4.719,0,8.533-3.823,8.533-8.533c0-4.71-3.814-8.533-8.533-8.533h-7.62l33.22-43.179v68.779
				c0,27.896,31.607,54.238,59.733,58.923v17.877c0,4.71,3.814,8.533,8.533,8.533s8.533-3.823,8.533-8.533v-17.877
				c28.126-4.685,59.733-31.027,59.733-58.923V76.288l33.212,43.179h-7.612c-4.719,0-8.533,3.823-8.533,8.533
				c0,4.71,3.814,8.533,8.533,8.533h20.745l13.124,17.067h-33.869c-4.719,0-8.533,3.823-8.533,8.533c0,4.71,3.814,8.533,8.533,8.533
				h46.029c4.284,9.003,3.046,14.174,1.203,17.067h-55.765c-4.719,0-8.533,3.823-8.533,8.533s3.814,8.533,8.533,8.533h39.134
				L360.9,224.367c-3.336,3.328-3.336,8.73,0,12.066c1.664,1.664,3.849,2.5,6.033,2.5c2.185,0,4.369-0.836,6.033-2.5l34.125-34.133
				c0.008,0,0.008-0.009,0.017-0.009c6.511-6.511,15.317-20.949,1.289-44.518c-0.171-0.299-0.367-0.572-0.563-0.845l-24.388-31.71
				c-0.597-1.681-1.698-3.029-3.115-4.045L322.517,46.02c-0.205-0.273-0.495-0.521-0.708-0.794l-0.077-0.085
				c-12.16-15.224-33.835-25.566-57.199-27.631V8.533C264.533,3.823,260.719,0,256,0s-8.533,3.823-8.533,8.533v8.806
				c-33.135,1.98-47.94,15.462-57.967,28.655l-57.83,75.179c-1.417,1.015-2.517,2.364-3.115,4.045l-24.388,31.71
				c-0.196,0.273-0.393,0.546-0.563,0.845c-14.029,23.569-5.222,38.007,1.289,44.518C104.9,202.291,104.9,202.3,104.909,202.3z
				 M204.8,54.144c7.305-9.062,17.929-18.031,42.667-19.703v8.226c0,4.71,3.814,8.533,8.533,8.533s8.533-3.823,8.533-8.533V34.62
				c17.34,1.869,33.459,9.327,42.667,19.823v90.624c0,20.599-30.046,42.667-51.2,42.667c-21.154,0-51.2-22.067-51.2-42.667V54.144z"
				/>
			<path d="M503.467,494.933h-8.533v-51.2c0-18.825-15.309-34.133-34.133-34.133H341.333c-18.825,0-34.133,15.309-34.133,34.133
				v51.2h-42.667V435.2c0-4.71-3.814-8.533-8.533-8.533s-8.533,3.823-8.533,8.533v59.733H204.8v-51.2
				c0-18.825-15.309-34.133-34.133-34.133H51.2c-18.825,0-34.133,15.309-34.133,34.133v51.2H8.533c-4.719,0-8.533,3.823-8.533,8.533
				C0,508.177,3.814,512,8.533,512h494.933c4.719,0,8.533-3.823,8.533-8.533C512,498.756,508.186,494.933,503.467,494.933z
				 M187.733,494.933h-25.6v-42.667c0-4.71-3.814-8.533-8.533-8.533c-4.719,0-8.533,3.823-8.533,8.533v42.667h-25.6v-42.667
				c0-4.71-3.814-8.533-8.533-8.533s-8.533,3.823-8.533,8.533v42.667H76.8v-42.667c0-4.71-3.814-8.533-8.533-8.533
				s-8.533,3.823-8.533,8.533v42.667h-25.6v-51.2c0-9.412,7.654-17.067,17.067-17.067h119.467c9.412,0,17.067,7.654,17.067,17.067
				V494.933z M477.867,494.933h-25.6v-42.667c0-4.71-3.814-8.533-8.533-8.533c-4.719,0-8.533,3.823-8.533,8.533v42.667h-25.6
				v-42.667c0-4.71-3.814-8.533-8.533-8.533c-4.719,0-8.533,3.823-8.533,8.533v42.667h-25.6v-42.667c0-4.71-3.814-8.533-8.533-8.533
				s-8.533,3.823-8.533,8.533v42.667h-25.6v-51.2c0-9.412,7.654-17.067,17.067-17.067H460.8c9.412,0,17.067,7.654,17.067,17.067
				V494.933z"/>
			<path d="M76.8,401.067c4.719,0,8.533-3.823,8.533-8.533V358.4h315.733c4.719,0,8.533-3.823,8.533-8.533s-3.814-8.533-8.533-8.533
				H85.743c0.572-3.917,2.005-7.415,5.623-11.034L202.3,219.366c3.337-3.337,3.337-8.738,0-12.066c-3.337-3.337-8.73-3.337-12.066,0
				L79.3,318.234c-11.034,11.034-11.034,22.451-11.034,31.633v42.667C68.267,397.244,72.081,401.067,76.8,401.067z"/>
		</g>
	</g>
</g>
<g>
</g>
<g>
</g>
<g>
</g>
<g>
</g>
<g>
</g>
<g>
</g>
<g>
</g>
<g>
</g>
<g>
</g>
<g>
</g>
<g>
</g>
<g>
</g>
<g>
</g>
<g>
</g>
<g>
</g>
</svg>
