<?xml version="1.0" encoding="iso-8859-1"?>
<!-- Generator: Adobe Illustrator 18.1.1, SVG Export Plug-In . SVG Version: 6.00 Build 0)  -->
<svg version="1.1" id="Capa_1" xmlns="http://www.w3.org/2000/svg" xmlns:xlink="http://www.w3.org/1999/xlink" x="0px" y="0px"
	 viewBox="0 0 19.501 19.501" style="enable-background:new 0 0 19.501 19.501;" xml:space="preserve">
<g>
	<path style="fill:#030104;" d="M16.9,12.884v-0.778h0.15v-1.06h0.268c-0.166-0.239-0.469-0.691-0.623-1.041
		c-0.22-0.498-0.458-1.15-0.458-1.15V8.193c0.131,0.009,0.324,0.027,0.546,0.065c0.384,0.067,0.676-0.299,0.676-0.299
		s-0.477,0.15-0.741-0.1c-0.157-0.146-0.346-0.177-0.479-0.181V7.655h-0.146v0.027c-0.006,0-0.021,0.003-0.021,0.003l0.009,0.499
		l0.013,0.001v0.687h-0.006c0,0-0.227,0.637-0.451,1.134c-0.15,0.349-0.453,0.801-0.621,1.041h0.267v1.06h0.15v0.778l-1.65,0.023
		V9.38h0.188l0.199-0.359V8.048h-0.63V6.241h0.088l0.153-0.268V5.242h-0.363V3.82h0.574c-0.137-0.199-1.213-2.026-1.271-2.299
		c0.071-0.035,0.12-0.099,0.12-0.175c0-0.095-0.07-0.172-0.17-0.195v-0.42c0.142,0.007,0.477,0.029,0.857,0.094
		c0.5,0.088,0.882-0.392,0.882-0.392s-0.621,0.196-0.97-0.131c-0.265-0.247-0.614-0.251-0.771-0.239V0h-0.157v1.151
		c-0.1,0.023-0.17,0.1-0.17,0.195c0,0.076,0.048,0.14,0.115,0.175c-0.053,0.273-1.125,2.1-1.264,2.299h0.57v1.421h-0.352v0.731
		l0.147,0.269h0.09v1.807h-0.631v0.973l0.2,0.359h0.194v1.002l-0.943-1.395v-1.07h-0.53V8.31C9.834,8.094,9.72,7.842,9.649,7.624
		C9.492,7.148,9.353,6.536,9.353,6.536H9.317V6.298c0.12,0.007,0.332,0.025,0.581,0.068c0.368,0.065,0.65-0.29,0.65-0.29
		s-0.459,0.145-0.717-0.097C9.575,5.738,9.204,5.81,9.204,5.81l0.002,0.117v0.609H9.185c0,0-0.135,0.612-0.292,1.088
		C8.784,7.959,8.564,8.396,8.447,8.628h0.222v3.135H8.031c-0.124-0.252-0.285-0.6-0.378-0.881c-0.167-0.51-0.312-1.166-0.312-1.166
		H7.326V8.681H7.173v1.036H7.158c0,0-0.146,0.654-0.314,1.166c-0.117,0.357-0.347,0.828-0.477,1.072h0.239v2.555h-1.01v-1.234h0.23
		v-1.852h0.401c-0.253-0.252-0.709-0.735-0.942-1.104c-0.331-0.528-0.68-1.203-0.68-1.203H4.596v-0.9
		c0.119,0.01,0.271,0.027,0.438,0.056c0.369,0.065,0.651-0.289,0.651-0.289s-0.46,0.144-0.716-0.097
		c-0.255-0.242-0.625-0.17-0.625-0.17l0.007,0.482L4.371,8.2v0.916H4.365c0,0-0.347,0.674-0.683,1.203
		c-0.229,0.369-0.688,0.853-0.941,1.104h0.398v1.852h0.232v1.362H1.698v4.854h6.755v-2.019c0,0,0.069-1.585,1.628-1.585
		c1.556,0,1.614,1.585,1.614,1.585v2.019h3.17v0.01h2.938v-6.617H16.9L16.9,12.884z M12.912,7.524H12.24V6.548
		c0,0,0.046-0.271,0.33-0.271c0.282,0,0.342,0.271,0.342,0.271V7.524z"/>
</g>
<g>
</g>
<g>
</g>
<g>
</g>
<g>
</g>
<g>
</g>
<g>
</g>
<g>
</g>
<g>
</g>
<g>
</g>
<g>
</g>
<g>
</g>
<g>
</g>
<g>
</g>
<g>
</g>
<g>
</g>
</svg>
