<?xml version="1.0" encoding="iso-8859-1"?>
<!-- Generator: Adobe Illustrator 18.1.1, SVG Export Plug-In . SVG Version: 6.00 Build 0)  -->
<svg version="1.1" id="Capa_1" xmlns="http://www.w3.org/2000/svg" xmlns:xlink="http://www.w3.org/1999/xlink" x="0px" y="0px"
	 viewBox="0 0 376.754 376.754" style="enable-background:new 0 0 376.754 376.754;" xml:space="preserve">
<g>
	<g>
		<path style="fill:#010002;" d="M366.628,272.146V165.882l-2.47-3.282c2.22-1.665,3.682-4.29,3.682-7.274
			c0-5.036-4.087-9.117-9.117-9.117c-5.042,0-9.117,4.081-9.117,9.117c0,2.983,1.456,5.609,3.664,7.274l-2.458,3.282v90.625
			c-18.491-15.824-42.013-28.856-69.001-38.051v-98.077l-2.458-3.282c2.208-1.671,3.67-4.29,3.67-7.274
			c0-5.03-4.081-9.117-9.117-9.117s-9.123,4.081-9.123,9.117c0,2.983,1.45,5.609,3.664,7.274l-2.458,3.282v93.214
			c-21.439-5.824-44.662-9.273-68.995-9.947v-92.397l-2.464-3.282c2.22-1.665,3.682-4.29,3.682-7.268
			c0-5.03-4.087-9.123-9.129-9.123c-5.036,0-9.117,4.087-9.117,9.123c0,2.983,1.456,5.609,3.67,7.268l-2.458,3.282v92.361
			c-24.428,0.573-47.777,3.908-69.323,9.678v-92.91l-2.458-3.282c2.214-1.665,3.67-4.29,3.67-7.274c0-5.03-4.081-9.117-9.111-9.117
			c-5.036,0-9.123,4.081-9.123,9.117c0,2.983,1.456,5.609,3.67,7.274l-2.458,3.282v97.707
			c-26.923,9.034-50.426,21.881-69.001,37.496v-89.7l-2.47-3.282c2.208-1.659,3.664-4.29,3.664-7.274
			c0-5.036-4.081-9.117-9.117-9.117c-5.03,0-9.123,4.081-9.123,9.117c0,2.983,1.456,5.603,3.67,7.274l-2.458,3.282v105.017
			c-4.099,4.6-7.912,9.344-11.2,14.279h47.377c30.843-27.281,83.095-45.629,141.003-45.629c57.914,0,110.148,18.348,140.997,45.629
			h47.377C373.753,280.685,370.304,276.365,366.628,272.146z"/>
		<path style="fill:#010002;" d="M90.004,186.408c-20.926,6.349-40.109,14.655-56.966,24.542v13.694
			c16.51-10.382,35.736-19.118,56.966-25.789V186.408z"/>
		<path style="fill:#010002;" d="M174.823,172.499c-19.768,0.752-38.85,3.109-56.966,6.85v12.208
			c18.044-3.831,37.15-6.247,56.966-7.017C174.823,184.54,174.823,172.499,174.823,172.499z"/>
		<path style="fill:#010002;" d="M174.823,139.604c-19.697,0.656-38.773,2.715-56.966,5.991v12.143
			c18.139-3.33,37.221-5.412,56.966-6.092C174.823,151.645,174.823,139.604,174.823,139.604z"/>
		<path style="fill:#010002;" d="M90.004,151.758c-20.627,5.412-39.781,12.447-56.966,20.872v13.085
			c16.94-8.741,36.117-16.069,56.966-21.684C90.004,164.032,90.004,151.758,90.004,151.758z"/>
		<path style="fill:#010002;" d="M344.79,210.95c-16.856-9.887-36.028-18.187-56.966-24.542v12.447
			c21.236,6.671,40.449,15.412,56.966,25.789V210.95z"/>
		<path style="fill:#010002;" d="M259.965,179.349c-18.109-3.741-37.197-6.098-56.96-6.85v12.041
			c19.816,0.77,38.91,3.186,56.96,7.017C259.965,191.557,259.965,179.349,259.965,179.349z"/>
		<path style="fill:#010002;" d="M259.965,145.595c-18.199-3.276-37.269-5.328-56.96-5.991v12.047
			c19.75,0.674,38.838,2.757,56.96,6.092C259.965,157.743,259.965,145.595,259.965,145.595z"/>
		<path style="fill:#010002;" d="M344.79,172.63c-17.185-8.425-36.35-15.46-56.966-20.878v12.274
			c20.848,5.615,40.032,12.942,56.966,21.684V172.63z"/>
	</g>
</g>
<g>
</g>
<g>
</g>
<g>
</g>
<g>
</g>
<g>
</g>
<g>
</g>
<g>
</g>
<g>
</g>
<g>
</g>
<g>
</g>
<g>
</g>
<g>
</g>
<g>
</g>
<g>
</g>
<g>
</g>
</svg>
