<?xml version="1.0" encoding="iso-8859-1"?>
<!-- Generator: Adobe Illustrator 19.0.0, SVG Export Plug-In . SVG Version: 6.00 Build 0)  -->
<svg version="1.1" id="Layer_1" xmlns="http://www.w3.org/2000/svg" xmlns:xlink="http://www.w3.org/1999/xlink" x="0px" y="0px"
	 viewBox="0 0 490 490" style="enable-background:new 0 0 490 490;" xml:space="preserve">
<g id="XMLID_801_">
	<g>
		<g>
			<path d="M418.241,71.759C371.967,25.484,310.441,0,245,0C179.558,0,118.033,25.484,71.759,71.759C25.485,118.034,0,179.559,0,245
				s25.484,126.967,71.759,173.241C118.034,464.515,179.558,490,245,490c65.441,0,126.967-25.484,173.241-71.759
				C464.515,371.966,490,310.441,490,245S464.516,118.033,418.241,71.759z M245,460c-118.551,0-215-96.448-215-215
				S126.449,30,245,30c118.552,0,215,96.448,215,215S363.552,460,245,460z"/>
			<path d="M245,60C142.991,60,60,142.99,60,245s82.991,185,185,185c102.01,0,185-82.99,185-185S347.01,60,245,60z M364.646,343.433
				l-20.65-20.65l-21.213,21.213l20.65,20.65C320.274,383.732,291.5,396.232,260,399.272V370h-30v29.272
				c-31.5-3.039-60.274-15.539-83.433-34.626l20.651-20.651l-21.213-21.213l-20.651,20.651C106.268,320.274,93.767,291.5,90.728,260
				H120v-30H90.728c3.039-31.5,15.54-60.274,34.626-83.433l20.651,20.651l21.213-21.213l-20.651-20.651
				C169.726,106.268,198.5,93.767,230,90.728V120h30V90.728c31.5,3.039,60.274,15.54,83.433,34.626l-20.65,20.65l21.213,21.213
				l20.65-20.65c19.087,23.158,31.587,51.933,34.626,83.433H270.964c-2.634-4.542-6.422-8.33-10.964-10.964V150h-30v69.036
				c-8.958,5.195-15,14.884-15,25.964c0,16.542,13.458,30,30,30c11.08,0,20.769-6.042,25.964-15h128.308
				C396.233,291.5,383.732,320.274,364.646,343.433z"/>
		</g>
	</g>
</g>
<g>
</g>
<g>
</g>
<g>
</g>
<g>
</g>
<g>
</g>
<g>
</g>
<g>
</g>
<g>
</g>
<g>
</g>
<g>
</g>
<g>
</g>
<g>
</g>
<g>
</g>
<g>
</g>
<g>
</g>
</svg>
