<?xml version="1.0" encoding="iso-8859-1"?>
<!-- Generator: Adobe Illustrator 18.0.0, SVG Export Plug-In . SVG Version: 6.00 Build 0)  -->
<!DOCTYPE svg PUBLIC "-//W3C//DTD SVG 1.1//EN" "http://www.w3.org/Graphics/SVG/1.1/DTD/svg11.dtd">
<svg version="1.1" id="Capa_1" xmlns="http://www.w3.org/2000/svg" xmlns:xlink="http://www.w3.org/1999/xlink" x="0px" y="0px"
	 viewBox="0 0 54.222 54.222" style="enable-background:new 0 0 54.222 54.222;" xml:space="preserve">
<g>
	<path d="M27.406,29.475l-0.227,0.13h-0.952L26,29.475c-4.991-2.852-11.191-2.852-16.183,0l-0.504,0.288v0.58
		c0,2.076,0,6.939,5.232,7.504c0.935,0.102,1.817,0.151,2.647,0.151c3.129,0,5.51-0.717,7.098-2.143
		c1.192-1.07,1.899-2.5,2.125-4.251h0.573c0.227,1.751,0.933,3.181,2.125,4.251c1.588,1.426,3.968,2.143,7.098,2.143
		c0.83,0,1.713-0.05,2.647-0.151c5.232-0.564,5.232-5.428,5.232-7.504v-0.58l-0.504-0.288
		C38.598,26.623,32.396,26.623,27.406,29.475z M22.955,34.367c-1.568,1.407-4.327,1.911-8.195,1.491
		c-2.688-0.29-3.365-2.09-3.44-4.926c2.888-1.495,6.182-1.918,9.315-1.314c-0.231,0.017-0.459,0.102-0.636,0.279l-3.998,3.997
		c-0.391,0.391-0.391,1.023,0,1.414c0.195,0.195,0.451,0.293,0.707,0.293s0.512-0.098,0.707-0.293l3.998-3.997
		c0.391-0.391,0.391-1.023,0-1.414c-0.085-0.085-0.186-0.144-0.289-0.192c1.156,0.265,2.287,0.667,3.359,1.221
		C24.383,32.408,23.88,33.538,22.955,34.367z M38.645,35.858c-3.869,0.421-6.625-0.083-8.194-1.491
		c-0.924-0.829-1.427-1.959-1.529-3.44c2.883-1.49,6.172-1.91,9.3-1.308c-0.23,0.017-0.457,0.102-0.633,0.279l-3.998,3.997
		c-0.391,0.391-0.391,1.023,0,1.414c0.195,0.195,0.451,0.293,0.707,0.293s0.512-0.098,0.707-0.293l3.998-3.997
		c0.391-0.391,0.391-1.023,0-1.414c-0.085-0.084-0.184-0.142-0.286-0.19c1.16,0.266,2.293,0.668,3.369,1.225
		C42.01,33.769,41.333,35.568,38.645,35.858z"/>
	<path d="M16.617,29.897c-0.391-0.391-1.023-0.391-1.414,0l-2.398,2.398c-0.391,0.391-0.391,1.023,0,1.414
		c0.195,0.195,0.451,0.293,0.707,0.293s0.512-0.098,0.707-0.293l2.398-2.398C17.007,30.921,17.007,30.288,16.617,29.897z"/>
	<path d="M34.205,29.897c-0.391-0.391-1.023-0.391-1.414,0l-2.398,2.398c-0.391,0.391-0.391,1.023,0,1.414
		c0.195,0.195,0.451,0.293,0.707,0.293s0.512-0.098,0.707-0.293l2.398-2.398C34.596,30.921,34.596,30.288,34.205,29.897z"/>
	<path d="M34.514,41.2c-0.442-0.331-1.068-0.242-1.4,0.2c-0.332,0.441-0.242,1.068,0.2,1.399l0.511,0.383
		c-0.943,1.106-3.151,3.314-6.028,3.743c-1.849,0.28-3.717-0.238-5.559-1.519l0.276-0.207c0.442-0.331,0.531-0.958,0.2-1.399
		c-0.33-0.442-0.956-0.531-1.4-0.2l-2.4,1.8c-0.442,0.331-0.531,0.958-0.2,1.399c0.196,0.263,0.497,0.4,0.801,0.4
		c0.208,0,0.419-0.065,0.599-0.2l0.451-0.338c2.025,1.551,4.115,2.339,6.235,2.339c0.435,0,0.87-0.033,1.307-0.099
		c3.625-0.547,6.245-3.222,7.323-4.516l0.284,0.213c0.18,0.135,0.391,0.2,0.599,0.2c0.304,0,0.604-0.138,0.801-0.4
		c0.332-0.441,0.242-1.068-0.2-1.399L34.514,41.2z"/>
	<path d="M49.445,25.245c3.711-1.964,4.119-3.874,3.807-5.13c-0.495-1.996-3.03-3.229-6.268-3.983C42.98,8.531,37.608,0,31.231,0
		h-7.389C17.559,0,11.637,8.609,7.689,16.047c-3.455,0.75-6.201,2.011-6.72,4.104c-0.31,1.25,0.091,3.149,3.767,5.094l1.016,0.538
		c-0.12,0.55-0.223,1.104-0.321,1.675L5.417,27.54c-1.802,0.98-3.104,3.106-3.104,5.182c0,2.154,1.268,4.09,3.208,4.979
		c2.496,9.754,11.177,16.521,21.292,16.521s18.796-6.767,21.292-16.521c1.94-0.89,3.208-2.825,3.208-4.979
		c0-2.075-1.302-4.201-3.104-5.182l-0.008-0.045c-0.097-0.56-0.191-1.105-0.308-1.647l1.442-0.553
		C49.373,25.28,49.41,25.264,49.445,25.245z M23.842,2h7.389c5.319,0,10.618,8.817,13.222,13.625C41.812,15.21,38.534,15,34.67,15
		h-0.356h-13.91h-0.356c-2.82,0-6.48,0.122-9.845,0.603C15.076,6.811,19.885,2,23.842,2z M49.313,32.722
		c0,1.487-0.957,2.813-2.38,3.297c-0.328,0.111-0.574,0.384-0.652,0.721c-2.108,9.116-10.114,15.482-19.468,15.482
		S9.453,45.855,7.345,36.739c-0.078-0.337-0.324-0.609-0.652-0.721c-1.423-0.484-2.38-1.81-2.38-3.297
		c0-1.449,1.063-3.051,2.37-3.57c0.322-0.129,0.555-0.414,0.615-0.756l0.104-0.599c0.131-0.763,0.248-1.445,0.418-2.109
		c1.853-0.22,6.065-0.492,12.309-0.618c0.095-0.002,0.189-0.004,0.285-0.006c0.408-0.008,0.827-0.015,1.252-0.021
		c0.207-0.003,0.416-0.006,0.627-0.009c0.36-0.005,0.724-0.01,1.095-0.013c0.338-0.004,0.685-0.006,1.033-0.009
		c0.282-0.002,0.561-0.005,0.849-0.006C25.937,25.002,26.614,25,27.313,25c2.156,0,4.435,0.005,6.65,0.021c0.011,0,0.021,0,0.032,0
		c0.323,0.002,0.643,0.005,0.962,0.008c0.212,0.002,0.423,0.004,0.636,0.006c0.185,0.002,0.369,0.004,0.553,0.006
		c0.341,0.004,0.683,0.008,1.023,0.013c0.1,0.001,0.2,0.003,0.299,0.004c0.387,0.006,0.771,0.012,1.152,0.019
		c0.086,0.002,0.173,0.003,0.258,0.005c0.321,0.006,0.634,0.013,0.947,0.021c2.479,0.058,4.578,0.146,5.894,0.281
		c0.222,0.772,0.358,1.563,0.511,2.45l0.098,0.561c0.061,0.342,0.293,0.627,0.615,0.756C48.25,29.671,49.313,31.272,49.313,32.722z
		 M47.758,23.758c-0.242-0.093-0.58-0.177-1.049-0.252c-0.029-0.007-0.056-0.021-0.087-0.025c-0.497-0.073-1.17-0.136-2.014-0.192
		c-0.057-0.004-0.117-0.008-0.175-0.011c-0.084-0.005-0.162-0.011-0.249-0.016c-2.717-0.164-7.23-0.247-14.759-0.26
		c-0.054,0-0.109,0-0.163,0C28.631,23.001,27.987,23,27.313,23c-0.681,0-1.349,0.002-2.007,0.005
		c-0.198,0.001-0.393,0.003-0.59,0.004c-0.472,0.003-0.94,0.007-1.399,0.012c-0.211,0.002-0.418,0.005-0.628,0.008
		c-0.437,0.005-0.87,0.011-1.294,0.018c-0.226,0.004-0.449,0.008-0.672,0.012c-0.398,0.007-0.79,0.015-1.176,0.023
		c-0.232,0.005-0.463,0.01-0.692,0.016c-0.385,0.009-0.76,0.019-1.131,0.03c-0.208,0.006-0.419,0.011-0.625,0.017
		c-0.551,0.017-1.088,0.034-1.604,0.053c-0.122,0.004-0.238,0.01-0.359,0.014c-0.422,0.016-0.833,0.032-1.229,0.05
		c-0.163,0.007-0.321,0.015-0.482,0.022c-0.368,0.017-0.724,0.034-1.067,0.052c-0.082,0.004-0.171,0.008-0.251,0.012
		c-0.076,0.004-0.139,0.008-0.213,0.012c-0.157,0.009-0.31,0.018-0.462,0.027c-2.811,0.163-4.246,0.314-4.993,0.497l-0.77-0.407
		c-1.89-1-2.948-2.09-2.761-2.845c0.181-0.731,1.623-1.84,5.314-2.64c0.104,0.009,0.21,0.006,0.316-0.019
		c2.316-0.54,5.905-0.879,10.028-0.956c0.076-0.001,0.154-0.002,0.23-0.003C19.326,17.006,19.86,17,20.403,17h13.91
		c12.739,0,16.689,2.353,16.998,3.597c0.188,0.756-0.864,1.847-2.749,2.853L47.758,23.758z"/>
</g>
<g>
</g>
<g>
</g>
<g>
</g>
<g>
</g>
<g>
</g>
<g>
</g>
<g>
</g>
<g>
</g>
<g>
</g>
<g>
</g>
<g>
</g>
<g>
</g>
<g>
</g>
<g>
</g>
<g>
</g>
</svg>
