<?xml version="1.0" encoding="iso-8859-1"?>
<!-- Generator: Adobe Illustrator 18.0.0, SVG Export Plug-In . SVG Version: 6.00 Build 0)  -->
<!DOCTYPE svg PUBLIC "-//W3C//DTD SVG 1.1//EN" "http://www.w3.org/Graphics/SVG/1.1/DTD/svg11.dtd">
<svg version="1.1" id="Capa_1" xmlns="http://www.w3.org/2000/svg" xmlns:xlink="http://www.w3.org/1999/xlink" x="0px" y="0px"
	 viewBox="0 0 480 480" style="enable-background:new 0 0 480 480;" xml:space="preserve">
<path d="M409.706,70.294C364.375,24.964,304.106,0,240,0S115.625,24.964,70.294,70.294S0,175.894,0,240
	s24.964,124.376,70.294,169.706S175.894,480,240,480s124.375-24.964,169.706-70.294S480,304.106,480,240
	S455.036,115.624,409.706,70.294z M449.573,172.766h-101.89c-10.243-16.347-24.101-30.205-40.448-40.448V30.427
	c32.958,10.533,63.159,28.839,88.329,54.009C420.734,109.607,439.04,139.808,449.573,172.766z M460,240
	c0,16.079-1.725,31.891-5.065,47.234h-97.061c5.875-14.609,9.116-30.549,9.116-47.234s-3.241-32.626-9.116-47.234h97.061
	C458.275,208.109,460,223.921,460,240z M240,346.99c-58.995,0-106.991-47.995-106.991-106.99S181.005,133.01,240,133.01
	c58.995,0,106.99,47.995,106.99,106.99S298.995,346.99,240,346.99z M20,240c0-16.079,1.725-31.891,5.065-47.234h97.06
	c-5.875,14.609-9.116,30.549-9.116,47.234s3.241,32.626,9.116,47.234h-97.06C21.725,271.891,20,256.079,20,240z M287.234,25.065
	v97.061c-14.609-5.875-30.549-9.116-47.234-9.116s-32.626,3.241-47.234,9.116V25.065C208.109,21.725,223.921,20,240,20
	S271.891,21.725,287.234,25.065z M84.437,84.437c25.171-25.17,55.371-43.476,88.329-54.009v101.89
	c-16.347,10.244-30.205,24.101-40.449,40.448H30.427C40.96,139.808,59.266,109.607,84.437,84.437z M30.427,307.234h101.89
	c10.244,16.347,24.102,30.205,40.449,40.448v101.89c-32.958-10.533-63.159-28.839-88.329-54.009
	C59.266,370.393,40.96,340.192,30.427,307.234z M192.766,454.935v-97.061c14.609,5.875,30.549,9.116,47.234,9.116
	s32.626-3.241,47.234-9.116v97.061C271.891,458.275,256.079,460,240,460S208.109,458.275,192.766,454.935z M395.563,395.563
	c-25.171,25.17-55.371,43.476-88.329,54.009v-101.89c16.347-10.244,30.205-24.101,40.448-40.448h101.89
	C439.04,340.192,420.734,370.393,395.563,395.563z"/>
<g>
</g>
<g>
</g>
<g>
</g>
<g>
</g>
<g>
</g>
<g>
</g>
<g>
</g>
<g>
</g>
<g>
</g>
<g>
</g>
<g>
</g>
<g>
</g>
<g>
</g>
<g>
</g>
<g>
</g>
</svg>
