<?xml version="1.0" encoding="iso-8859-1"?>
<!-- Generator: Adobe Illustrator 16.0.0, SVG Export Plug-In . SVG Version: 6.00 Build 0)  -->
<!DOCTYPE svg PUBLIC "-//W3C//DTD SVG 1.1//EN" "http://www.w3.org/Graphics/SVG/1.1/DTD/svg11.dtd">
<svg version="1.1" id="Capa_1" xmlns="http://www.w3.org/2000/svg" xmlns:xlink="http://www.w3.org/1999/xlink" x="0px" y="0px"
	 width="235.511px" height="235.512px" viewBox="0 0 235.511 235.512" style="enable-background:new 0 0 235.511 235.512;"
	 xml:space="preserve">
<g>
	<path d="M233.979,44.462l-34.408-22.039c-1.37-0.846-3.174-0.627-4.248,0.599l-61.79,69.507l3.082-29.086
		c0.107-0.928-0.192-1.863-0.814-2.553c-0.625-0.697-1.53-1.096-2.468-1.096h-11.926l22.69-22.704c1.307-1.289,1.307-3.386,0-4.672
		c-1.286-1.289-3.37-1.289-4.661,0L117.748,54.11l-21.69-21.692c-1.284-1.289-3.374-1.289-4.663,0c-1.287,1.286-1.294,3.384,0,4.672
		l22.696,22.704h-11.94c-0.934,0-1.832,0.399-2.449,1.096c-0.621,0.689-0.928,1.625-0.823,2.553l3.074,29.07L40.171,23.006
		c-1.084-1.21-2.881-1.453-4.246-0.583L1.514,44.454c-1.303,0.832-1.844,2.457-1.311,3.931l21.558,58.266
		c0.307,0.815,0.912,1.475,1.713,1.835l35.161,16.344l-21.878,21.913c-0.621,0.612-0.982,1.462-0.966,2.344
		c0,0.874,0.353,1.715,0.979,2.336l31.651,31.206c0.629,0.605,1.461,0.934,2.329,0.934c0.21,0,0.437-0.016,0.651-0.06
		c1.08-0.217,1.978-0.966,2.393-1.988l29.863-72.987l10.826,102.122c0.172,1.69,1.593,2.957,3.28,2.957
		c1.688,0,3.11-1.267,3.29-2.957l10.816-102.122l29.859,72.987c0.429,1.022,1.318,1.771,2.408,1.988
		c0.2,0.044,0.437,0.06,0.653,0.06c0.85,0,1.691-0.328,2.32-0.934l31.646-31.206c0.629-0.621,0.982-1.462,0.982-2.336
		c0-0.882-0.354-1.731-0.966-2.344l-21.873-21.913l35.165-16.344c0.798-0.369,1.398-1.028,1.703-1.835l21.561-58.266
		C235.826,46.933,235.281,45.308,233.979,44.462z M198.376,29.526l26.818,17.166l-79.64,42.272L198.376,29.526z M37.094,29.526
		L89.92,88.948L10.284,46.666L37.094,29.526z M9.138,53.535l81.517,43.288l-63.884,4.358L9.138,53.535z M36.196,107.138
		l51.612-3.508l-23.253,16.692L36.196,107.138z M69.522,174.487l-25.77-25.423l20.953-20.943c0.188-0.092,0.405-0.064,0.585-0.192
		l32.951-23.64L69.522,174.487z M117.741,178.963L105.815,66.417h23.854L117.741,178.963z M191.72,149.056l-25.771,25.407
		l-28.722-70.188l32.953,23.638c0.177,0.144,0.397,0.116,0.598,0.184L191.72,149.056z M170.914,120.322L147.67,103.63l51.608,3.508
		L170.914,120.322z M208.724,101.181l-63.898-4.358l81.515-43.288L208.724,101.181z"/>
</g>
<g>
</g>
<g>
</g>
<g>
</g>
<g>
</g>
<g>
</g>
<g>
</g>
<g>
</g>
<g>
</g>
<g>
</g>
<g>
</g>
<g>
</g>
<g>
</g>
<g>
</g>
<g>
</g>
<g>
</g>
</svg>
