<?xml version="1.0" encoding="iso-8859-1"?>
<!-- Generator: Adobe Illustrator 19.0.0, SVG Export Plug-In . SVG Version: 6.00 Build 0)  -->
<svg version="1.1" id="Capa_1" xmlns="http://www.w3.org/2000/svg" xmlns:xlink="http://www.w3.org/1999/xlink" x="0px" y="0px"
	 viewBox="0 0 463 463" style="enable-background:new 0 0 463 463;" xml:space="preserve">
<path d="M303.5,448h-16.788L271.3,55h0.2c4.143,0,7.5-3.357,7.5-7.5v-40c0-4.143-3.357-7.5-7.5-7.5h-80c-4.143,0-7.5,3.357-7.5,7.5
	v40c0,4.143,3.357,7.5,7.5,7.5h0.2l-15.412,393H159.5c-4.143,0-7.5,3.357-7.5,7.5s3.357,7.5,7.5,7.5h144c4.143,0,7.5-3.357,7.5-7.5
	S307.643,448,303.5,448z M204.202,119h54.596l0.667,17h-55.929L204.202,119z M258.21,104H204.79l0.667-17h52.086L258.21,104z
	 M202.947,151h57.106l10.392,265h-77.891L202.947,151z M199,15h65v25h-0.5h-64H199V15z M256.288,55l0.667,17h-50.91l0.667-17
	H256.288z M191.3,448l0.667-17h79.067l0.667,17H191.3z"/>
<g>
</g>
<g>
</g>
<g>
</g>
<g>
</g>
<g>
</g>
<g>
</g>
<g>
</g>
<g>
</g>
<g>
</g>
<g>
</g>
<g>
</g>
<g>
</g>
<g>
</g>
<g>
</g>
<g>
</g>
</svg>
