<?xml version="1.0" encoding="iso-8859-1"?>
<!-- Generator: Adobe Illustrator 18.0.0, SVG Export Plug-In . SVG Version: 6.00 Build 0)  -->
<!DOCTYPE svg PUBLIC "-//W3C//DTD SVG 1.1//EN" "http://www.w3.org/Graphics/SVG/1.1/DTD/svg11.dtd">
<svg version="1.1" id="Capa_1" xmlns="http://www.w3.org/2000/svg" xmlns:xlink="http://www.w3.org/1999/xlink" x="0px" y="0px"
	 viewBox="0 0 49 49" style="enable-background:new 0 0 49 49;" xml:space="preserve">
<g>
	<path d="M45.888,19.976c-0.055-0.273-0.133-0.534-0.197-0.802c-0.065-0.271-0.124-0.544-0.199-0.81
		c-0.115-0.412-0.25-0.814-0.387-1.214c-0.066-0.192-0.125-0.388-0.196-0.577c-0.176-0.471-0.373-0.928-0.579-1.38
		c-0.052-0.115-0.098-0.233-0.152-0.347c-0.227-0.478-0.476-0.94-0.735-1.396c-0.053-0.093-0.1-0.189-0.154-0.281
		c-0.228-0.386-0.474-0.757-0.725-1.126c-0.114-0.169-0.22-0.343-0.339-0.509c-0.133-0.184-0.277-0.358-0.415-0.537
		C37.766,5.69,31.407,2.337,24.342,2.337c-8.298,0-15.624,4.78-19.256,11.973c-0.062,0.121-0.128,0.238-0.188,0.361
		c-0.165,0.342-0.311,0.694-0.459,1.046c-0.107,0.254-0.219,0.505-0.318,0.765c-0.11,0.293-0.204,0.594-0.303,0.893
		c-0.105,0.317-0.212,0.633-0.303,0.957c-0.082,0.294-0.149,0.595-0.22,0.895c-0.059,0.251-0.133,0.495-0.184,0.749
		C1.306,20.955,0,23.084,0,25.163c0,2.153,1.269,4.089,3.208,4.979C5.704,39.896,14.386,46.663,24.5,46.663
		c10.115,0,18.797-6.767,21.292-16.521c1.94-0.89,3.208-2.825,3.208-4.979C49,23.084,47.694,20.955,45.888,19.976z M5.286,19.48
		c0.067-0.27,0.139-0.537,0.217-0.802c0.089-0.306,0.184-0.608,0.287-0.906c0.078-0.229,0.161-0.456,0.247-0.68
		c0.135-0.35,0.277-0.695,0.431-1.034c0.064-0.143,0.129-0.285,0.197-0.426C9.868,8.98,16.604,4.663,24.5,4.663
		c6.128,0,11.561,2.598,15.185,6.87c0.001,0.002,0.003,0.003,0.004,0.005c0.316,0.373,0.612,0.763,0.9,1.161
		c0.124,0.174,0.243,0.351,0.362,0.529c0.17,0.252,0.336,0.508,0.494,0.769c0.162,0.269,0.315,0.543,0.465,0.82
		c0.11,0.204,0.22,0.408,0.324,0.617c0.152,0.307,0.294,0.621,0.431,0.937c0.091,0.21,0.18,0.42,0.264,0.635
		c0.121,0.308,0.231,0.621,0.336,0.936c0.082,0.246,0.162,0.494,0.236,0.745c0.085,0.292,0.162,0.588,0.234,0.885
		c0.037,0.154,0.069,0.31,0.103,0.465c-4.087,1.322-7.131-1.614-9.008-4.408c-0.34-0.506-0.879-0.849-1.479-0.94
		c-0.613-0.091-1.245,0.077-1.733,0.468c-9.307,7.435-22.77,5.458-26.424,4.742C5.224,19.759,5.252,19.618,5.286,19.48z
		 M44.62,28.458c-0.327,0.111-0.574,0.384-0.652,0.721C41.86,38.295,33.855,44.663,24.5,44.663c-9.354,0-17.359-6.367-19.468-15.483
		c-0.078-0.337-0.325-0.609-0.652-0.721C2.956,27.974,2,26.649,2,25.163c0-1.354,0.932-2.83,2.119-3.444
		c1.15,0.264,4.777,1.002,9.407,1.002c5.855,0,13.306-1.183,19.34-6.003c0.073-0.06,0.147-0.058,0.181-0.054
		c0.078,0.013,0.112,0.063,0.123,0.079c3.302,4.917,7.469,6.674,11.78,5.011c1.154,0.635,2.05,2.08,2.05,3.408
		C47,26.649,46.044,27.974,44.62,28.458z"/>
	<path d="M24.804,31.602c-5.076,0-9.196,4.353-9.196,7.192c0,0.865,0.373,1.318,0.687,1.546c0.853,0.62,1.982,0.249,3.544-0.26
		c1.388-0.452,3.115-1.015,4.966-1.015s3.578,0.563,4.966,1.015c0.98,0.319,1.79,0.583,2.468,0.583c0.402,0,0.759-0.094,1.076-0.323
		C33.627,40.113,34,39.66,34,38.794C34,35.955,29.88,31.602,24.804,31.602z M27.64,34.192c-0.482,0.245-1.519,0.537-2.987,0.537
		c-1.33,0-2.312-0.24-2.843-0.467c0.915-0.402,1.927-0.66,2.994-0.66C25.809,33.602,26.767,33.83,27.64,34.192z M30.389,38.179
		c-1.442-0.47-3.417-1.113-5.585-1.113s-4.143,0.644-5.585,1.113c-0.525,0.171-1.201,0.391-1.604,0.462
		c0.091-0.918,0.973-2.215,2.323-3.264c0.88,0.924,2.802,1.352,4.716,1.352c2.005,0,4.018-0.469,4.833-1.488
		c1.452,1.071,2.411,2.442,2.506,3.4C31.59,38.57,30.914,38.35,30.389,38.179z"/>
	<circle cx="18" cy="26.663" r="2"/>
	<circle cx="32" cy="26.663" r="2"/>
</g>
<g>
</g>
<g>
</g>
<g>
</g>
<g>
</g>
<g>
</g>
<g>
</g>
<g>
</g>
<g>
</g>
<g>
</g>
<g>
</g>
<g>
</g>
<g>
</g>
<g>
</g>
<g>
</g>
<g>
</g>
</svg>
