<?xml version="1.0" encoding="iso-8859-1"?>
<!-- Generator: Adobe Illustrator 16.0.0, SVG Export Plug-In . SVG Version: 6.00 Build 0)  -->
<!DOCTYPE svg PUBLIC "-//W3C//DTD SVG 1.1//EN" "http://www.w3.org/Graphics/SVG/1.1/DTD/svg11.dtd">
<svg version="1.1" id="Capa_1" xmlns="http://www.w3.org/2000/svg" xmlns:xlink="http://www.w3.org/1999/xlink" x="0px" y="0px"
	 width="84.062px" height="84.062px" viewBox="0 0 84.062 84.062" style="enable-background:new 0 0 84.062 84.062;"
	 xml:space="preserve">
<g>
	<g>
		<path d="M75.297,42.406v-7.5c0-0.553-0.447-1-1-1h-10v-18.25c0-0.553-0.447-1-1-1H53.172c-0.553,0-1,0.447-1,1v32.25h-5.875
			c-0.553,0-1,0.447-1,1v8.25c0,0.553,0.447,1,1,1h11c0.553,0,1-0.447,1-1v-13.75h16C74.849,43.406,75.297,42.958,75.297,42.406z
			 M73.297,41.406h-16c-0.553,0-1,0.447-1,1v13.75h-9v-6.25h5.875c0.553,0,1-0.447,1-1v-32.25h8.125v18.25c0,0.553,0.447,1,1,1h10
			V41.406z"/>
		<path d="M31.936,47.781h12.376c0.556,0,1-0.447,1-1v-15.25c0-0.553-0.444-1-1-1H34.25v-5.25c0-0.553-0.447-1-1-1H22.186
			c-0.553,0-1,0.447-1,1v11.75c0,0.553,0.447,1,1,1h8.75v8.75C30.936,47.333,31.385,47.781,31.936,47.781z M23.186,36.031v-9.75
			h9.063v5.25c0,0.553,0.447,1,1,1h10.063v13.25H32.936v-8.75c0-0.553-0.446-1-1-1H23.186z"/>
		<path d="M83.062,45.531h-17c-0.553,0-1,0.447-1,1v14.75c0,0.553,0.447,1,1,1h5v16.75c0,0.553,0.447,1,1,1h11c0.554,0,1-0.447,1-1
			v-32.5C84.062,45.978,83.615,45.531,83.062,45.531z M82.062,78.031h-9v-16.75c0-0.553-0.446-1-1-1h-5v-12.75h15V78.031z"/>
		<path d="M51,80.031c0.555,0,1-0.447,1-1v-17.75c0-0.553-0.445-1-1-1h-6H35v-7.25c0-0.553-0.447-1-1-1h-4.5v-8.75
			c0-0.553-0.447-1-1-1h-8.75v-18.75h10.061c0.554,0,1-0.447,1-1v-11.75c0-0.553-0.446-1-1-1H18.75c-0.553,0-1,0.447-1,1v8H1
			c-0.553,0-1,0.447-1,1v23.5v18v17.75c0,0.553,0.447,1,1,1h44H51z M50,78.031h-4v-15.75h4V78.031z M2,44.281h15.75v16H2V44.281z
			 M19.75,62.281H33v6.875H19.75V62.281z M28.5,54.031H33v6.25H19.75v-16h7.75v8.75C27.5,53.583,27.948,54.031,28.5,54.031z
			 M19.75,11.781h9.062v9.75H19.75v-1.75V11.781z M2,20.781h15.75v1.75v19.75H2V20.781z M2,62.281h15.75v7.875c0,0.553,0.447,1,1,1
			H34c0.553,0,1-0.447,1-1v-7.875h9v15.75H2V62.281z"/>
		<path d="M66.062,28.281h11c0.554,0,1-0.447,1-1V8.031c0-0.553-0.446-1-1-1h-11c-0.553,0-1,0.447-1,1v19.25
			C65.062,27.833,65.511,28.281,66.062,28.281z M67.062,9.031h9v17.25h-9V9.031z"/>
		<path d="M49.406,5.031c0-0.553-0.447-1-1-1H37.344c-0.553,0-1,0.447-1,1v11.75c0,0.553,0.447,1,1,1h11.062c0.554,0,1-0.447,1-1
			V5.031L49.406,5.031z M47.406,15.781h-9.063v-9.75h9.063V15.781z"/>
		<path d="M49.406,26.781v-6.25c0-0.553-0.447-1-1-1H37.344c-0.553,0-1,0.447-1,1v6.25c0,0.553,0.447,1,1,1h11.062
			C48.959,27.781,49.406,27.333,49.406,26.781z M47.406,25.781h-9.063v-4.25h9.063V25.781z"/>
	</g>
</g>
<g>
</g>
<g>
</g>
<g>
</g>
<g>
</g>
<g>
</g>
<g>
</g>
<g>
</g>
<g>
</g>
<g>
</g>
<g>
</g>
<g>
</g>
<g>
</g>
<g>
</g>
<g>
</g>
<g>
</g>
</svg>
