<?xml version="1.0" encoding="iso-8859-1"?>
<!-- Generator: Adobe Illustrator 18.0.0, SVG Export Plug-In . SVG Version: 6.00 Build 0)  -->
<!DOCTYPE svg PUBLIC "-//W3C//DTD SVG 1.1//EN" "http://www.w3.org/Graphics/SVG/1.1/DTD/svg11.dtd">
<svg version="1.1" id="Capa_1" xmlns="http://www.w3.org/2000/svg" xmlns:xlink="http://www.w3.org/1999/xlink" x="0px" y="0px"
	 viewBox="0 0 497.548 497.548" style="enable-background:new 0 0 497.548 497.548;" xml:space="preserve">
<path d="M325.074,371.534c-37.452-10.775-74.885,22.913-58.489,58.617c3.765,8.197,18.441,25.014,39.709,18.975
	c8.563-2.431,14.865-8.481,14.865-8.481c1.198-1.187,1.457-3.088,0.517-4.575c-1.067-1.715-3.347-2.232-5.059-1.147
	c0,0-24.542,17.525-39.684-9.525c-10.368-18.522,11.291-57.836,50.389-38.875c13.817,6.701,23.368,22.82,22.298,43.675
	c-1.797,35.004-68.796,62.306-97.75,31.729c-20.494-21.643-35.43-65.056,5.968-119.524c76.404-100.533,7.581-130.408-26.846-177.026
	c-22.59-30.604-16.979-53.922-10.476-66.379c3.216,8.166,9.262,14.967,17.316,18.733c9.332,4.367,20.118,4.294,29.304-0.186
	l23.898-11.674l9.702,5.285c4.641,2.54,10.156,2.823,15.022,0.809c4.836-2.021,8.474-6.145,9.862-11.196
	c0-0.025,0.019-0.041,0.019-0.073c2.135-7.894-0.615-16.365-7.019-21.57l-58.729-47.584c-0.245-0.193-0.536-0.28-0.776-0.47
	c1.405-2.302,2.44-4.859,2.44-7.762c0-8.381-6.794-15.181-15.185-15.181c-3.35,0-6.273,1.3-8.778,3.128
	C234.405,4.648,227.791,0,219.966,0c-10.85,0-19.663,8.811-19.663,19.672c0,1.691,0.564,3.202,0.969,4.761
	c-2.296-0.656-4.655-1.125-7.147-1.125c-14.293,0-25.872,11.572-25.872,25.857c0,6.04,2.15,11.514,5.627,15.914
	c-9.655,3.639-16.558,12.879-16.558,23.795c0,9.521,5.288,17.731,13.032,22.102c-10.865,2.936-18.871,12.745-18.871,24.517
	c0,7.445,3.234,14.074,8.327,18.74c-11.688,4.302-20.065,15.444-20.065,28.614c0,10.6,5.4,19.939,13.581,25.428
	c-3.121,4.593-4.964,10.129-4.964,16.106c0,9.135,4.354,17.173,11.014,22.412c-5.565,5.831-9.024,13.681-9.024,22.371
	c0,4.09,0.841,7.966,2.217,11.561c-11.917,6.389-20.102,18.809-20.102,33.273c0,12.919,6.503,24.313,16.38,31.142
	c-2.714,4.094-4.316,8.985-4.316,14.263c0,11.354,7.391,20.875,17.594,24.321c-8.699,130.31,127.348,122.493,162.516,102.471
	c4.69-2.67,38.267-16.961,40.343-55.676C367.239,388.417,330.806,373.183,325.074,371.534z"/>
<g>
</g>
<g>
</g>
<g>
</g>
<g>
</g>
<g>
</g>
<g>
</g>
<g>
</g>
<g>
</g>
<g>
</g>
<g>
</g>
<g>
</g>
<g>
</g>
<g>
</g>
<g>
</g>
<g>
</g>
</svg>
