<?xml version="1.0" encoding="iso-8859-1"?>
<!-- Generator: Adobe Illustrator 16.0.0, SVG Export Plug-In . SVG Version: 6.00 Build 0)  -->
<!DOCTYPE svg PUBLIC "-//W3C//DTD SVG 1.1//EN" "http://www.w3.org/Graphics/SVG/1.1/DTD/svg11.dtd">
<svg version="1.1" id="Capa_1" xmlns="http://www.w3.org/2000/svg" xmlns:xlink="http://www.w3.org/1999/xlink" x="0px" y="0px"
	 width="327.336px" height="327.336px" viewBox="0 0 327.336 327.336" style="enable-background:new 0 0 327.336 327.336;"
	 xml:space="preserve">
<g>
	<g>
		<g id="Layer_5_29_">
			<g>
				<path d="M326.979,33.2c1.264-3.908-0.936-6.182-4.883-5.053c0,0-87.959,27.812-156.725,27.812
					c-65.222,0-160.19-27.934-160.19-27.934c-3.966-1.062-6.12,1.246-4.785,5.129l9.925,28.875c0.457,1.076-1.077,1.135-1.607,1.125
					c-2.95-0.055-5.669,1.897-6.473,4.877c-0.948,3.512,1.131,7.127,4.645,8.076c3.928,1.059,87.681,25.963,158.577,25.963
					c74.756,0,152.33-24.805,155.994-25.861c3.496-1.008,5.516-4.657,4.506-8.155c-1.008-3.496-3.879-5.687-7.377-4.677
					c-0.041,0.013-1.494,0.291-1.006-1.088L326.979,33.2z"/>
				<path d="M270.315,108.055c-0.338-2.729-2.824-4.563-5.531-4.072l-28.41,4.705c-2.719,0.42-4.814,3.008-4.658,5.754l3.244,57.175
					c0.154,2.745-1.967,4.991-4.717,4.991h-45.775c-2.75,0-5-2.25-5-5v-52.37c0-2.75-2.249-4.934-4.998-4.854
					c0,0-4.677,0.139-9.457,0.139c-5.6,0-12.147-0.246-12.147-0.246c-2.748-0.102-4.997,2.063-4.997,4.813v52.517c0,2.75-2.25,5-5,5
					H97.09c-2.75,0-4.873-2.246-4.717-4.991l3.275-57.737c0.156-2.746-1.939-5.344-4.656-5.771l-28.349-4.746
					c-2.706-0.49-5.195,1.344-5.53,4.072l-7.899,64.211c-0.335,2.73-2.86,4.963-5.61,4.963H31.162c-2.75,0-5,2.25-5,5v21.6
					c0,2.75,2.25,5,5,5h8.555c2.75,0,4.725,2.232,4.39,4.963l-10.018,81.436c-0.335,2.73,1.64,4.963,4.39,4.963h41.636
					c2.75,0,5.127-2.246,5.283-4.991l4.616-81.377c0.156-2.746,2.533-4.991,5.283-4.991h136.738c2.75,0,5.127,2.245,5.283,4.991
					l4.615,81.377c0.154,2.745,2.533,4.991,5.283,4.991h41.637c2.75,0,4.727-2.23,4.391-4.963l-10.01-81.436
					c-0.338-2.729,1.641-4.964,4.391-4.964h8.545c2.75,0,5-2.25,5-5v-21.599c0-2.75-2.25-5-5-5h-12.43
					c-2.75,0-5.273-2.23-5.609-4.963L270.315,108.055z"/>
			</g>
		</g>
	</g>
</g>
<g>
</g>
<g>
</g>
<g>
</g>
<g>
</g>
<g>
</g>
<g>
</g>
<g>
</g>
<g>
</g>
<g>
</g>
<g>
</g>
<g>
</g>
<g>
</g>
<g>
</g>
<g>
</g>
<g>
</g>
</svg>
