<?xml version="1.0" encoding="iso-8859-1"?>
<!-- Generator: Adobe Illustrator 16.0.0, SVG Export Plug-In . SVG Version: 6.00 Build 0)  -->
<!DOCTYPE svg PUBLIC "-//W3C//DTD SVG 1.1//EN" "http://www.w3.org/Graphics/SVG/1.1/DTD/svg11.dtd">
<svg version="1.1" id="Capa_1" xmlns="http://www.w3.org/2000/svg" xmlns:xlink="http://www.w3.org/1999/xlink" x="0px" y="0px"
	 width="505.821px" height="505.82px" viewBox="0 0 505.821 505.82" style="enable-background:new 0 0 505.821 505.82;"
	 xml:space="preserve">
<g>
	<path d="M440.636,467.323c0,21.226-17.26,38.497-38.491,38.497H103.687c-21.246,0-38.503-17.271-38.503-38.497
		c0-2.058,0.381-4.103,1.114-6.023l103.379-270.926c0.036-0.429,0.098-0.86,0.151-1.283V33.848h-12.215
		c-9.351,0-16.917-7.578-16.917-16.925C140.697,7.578,148.263,0,157.614,0h29.131c9.351,0,16.931,7.578,16.931,16.923v173.475
		c0,0.976-0.085,1.939-0.248,2.899c0,2.066-0.497,4.844-1.241,6.762l-62.27,163.182h224.529l-64.332-163.001
		c-0.697-1.756-1.088-3.611-1.171-5.488l-0.142-1.022c-0.07-0.668-0.106-1.333-0.106-1.998V16.923C298.695,7.578,306.26,0,315.612,0
		h29.896c9.351,0,16.916,7.578,16.916,16.923c0,9.348-7.565,16.925-16.916,16.925h-12.986v156.357L439.448,461.11
		C440.234,463.097,440.636,465.195,440.636,467.323z M220.126,325.535c0-6.998,5.683-12.69,12.688-12.69
		c7.001,0,12.696,5.687,12.696,12.69c0,6.992-5.695,12.69-12.696,12.69C225.809,338.226,220.126,332.527,220.126,325.535z
		 M228.576,325.535c0,2.329,1.9,4.227,4.232,4.227c2.329,0,4.229-1.897,4.229-4.227c0-2.334-1.9-4.231-4.229-4.231
		C230.476,321.304,228.576,323.201,228.576,325.535z M285.691,312.845c0-6.998,5.692-12.696,12.696-12.696
		c6.999,0,12.685,5.692,12.685,12.696c0,6.987-5.686,12.69-12.685,12.69C291.383,325.535,285.691,319.844,285.691,312.845z
		 M294.15,312.845c0,2.329,1.897,4.221,4.231,4.221c2.329,0,4.227-1.892,4.227-4.221c0-2.341-1.897-4.231-4.227-4.231
		C296.047,308.613,294.15,310.516,294.15,312.845z M250.425,270.542c0-9.724,7.912-17.632,17.64-17.632
		c9.712,0,17.626,7.908,17.626,17.632c0,9.711-7.914,17.632-17.626,17.632C258.331,288.174,250.425,280.265,250.425,270.542z
		 M258.886,270.542c0,5.054,4.116,9.167,9.179,9.167c5.048,0,9.174-4.113,9.174-9.167c0-5.06-4.126-9.18-9.174-9.18
		C263.002,261.362,258.886,265.482,258.886,270.542z"/>
</g>
<g>
</g>
<g>
</g>
<g>
</g>
<g>
</g>
<g>
</g>
<g>
</g>
<g>
</g>
<g>
</g>
<g>
</g>
<g>
</g>
<g>
</g>
<g>
</g>
<g>
</g>
<g>
</g>
<g>
</g>
</svg>
