<?xml version="1.0" encoding="iso-8859-1"?>
<!-- Generator: Adobe Illustrator 19.0.0, SVG Export Plug-In . SVG Version: 6.00 Build 0)  -->
<svg version="1.1" id="Layer_1" xmlns="http://www.w3.org/2000/svg" xmlns:xlink="http://www.w3.org/1999/xlink" x="0px" y="0px"
	 viewBox="0 0 490 490" style="enable-background:new 0 0 490 490;" xml:space="preserve">
<g id="XMLID_1031_">
	<g>
		<g>
			<path d="M90,430h170V300H90V430z M120,330h110v70H120V330z"/>
			<path d="M455.812,90H400V0H90v90H34.188L0,192.566V195c0,24.484,11.796,46.262,30,59.959V490h430V254.959
				c18.204-13.697,30-35.475,30-59.959v-2.434L455.812,90z M434.188,120l20,60h-82.914l-8.889-60H434.188z M120,30h250v60H120V30z
				 M344.085,210l-0.198,0.538C337.398,228.16,320.432,240,301.667,240s-35.732-11.84-42.221-29.462L259.248,210H344.085z M260,180
				v-60h72.059l8.889,60H260z M230.752,210l-0.198,0.538C224.065,228.16,207.098,240,188.333,240s-35.732-11.84-42.221-29.462
				L145.915,210H230.752z M149.053,180l8.889-60H230v60H149.053z M55.811,120h71.803l-8.889,60H35.811L55.811,120z M32.572,210
				h84.847l-0.198,0.538C110.732,228.16,93.765,240,75,240C55.445,240,38.764,227.46,32.572,210z M370,460h-50V330h50V460z M430,460
				h-30V300H290v160H60V268.491c4.848,0.988,9.864,1.509,15,1.509c22.079,0,42.665-9.831,56.667-25.942
				C145.669,260.169,166.254,270,188.333,270s42.665-9.831,56.667-25.942C259.002,260.169,279.588,270,301.667,270
				s42.664-9.831,56.666-25.942C372.335,260.169,392.921,270,415,270c5.136,0,10.152-0.521,15-1.509V460z M415,240
				c-18.765,0-35.732-11.84-42.221-29.462L372.581,210h84.847C451.236,227.46,434.555,240,415,240z"/>
		</g>
	</g>
</g>
<g>
</g>
<g>
</g>
<g>
</g>
<g>
</g>
<g>
</g>
<g>
</g>
<g>
</g>
<g>
</g>
<g>
</g>
<g>
</g>
<g>
</g>
<g>
</g>
<g>
</g>
<g>
</g>
<g>
</g>
</svg>
