<?xml version="1.0" encoding="iso-8859-1"?>
<!-- Generator: Adobe Illustrator 16.0.0, SVG Export Plug-In . SVG Version: 6.00 Build 0)  -->
<!DOCTYPE svg PUBLIC "-//W3C//DTD SVG 1.1//EN" "http://www.w3.org/Graphics/SVG/1.1/DTD/svg11.dtd">
<svg version="1.1" id="Capa_1" xmlns="http://www.w3.org/2000/svg" xmlns:xlink="http://www.w3.org/1999/xlink" x="0px" y="0px"
	 width="966.301px" height="966.301px" viewBox="0 0 966.301 966.301" style="enable-background:new 0 0 966.301 966.301;"
	 xml:space="preserve">
<g>
	<g>
		<path d="M638.699,199.012c-126.5,0-236.299,71.8-290.899,176.8c18,4,35.6,9.7,52.8,16.899c36.899,15.601,70.1,38,98.5,66.4
			c28.5,28.5,50.801,61.599,66.4,98.5c16.199,38.2,24.4,78.8,24.4,120.7c0,41.899-8.201,82.399-24.4,120.7
			c-6.1,14.399-13.199,28.199-21.301,41.399c29.9,9,61.602,13.9,94.5,13.9c180.9,0,327.602-146.7,327.602-327.601
			C966.301,345.712,819.699,199.012,638.699,199.012z"/>
		<path d="M394.8,20.812c0.8,52.6,26.8,104,74.199,135c47.401,31,104.801,34.4,153.401,14.1c-0.801-52.6-26.801-104-74.201-135
			C500.801,3.812,443.3,0.412,394.8,20.812z"/>
		<path d="M656.801,170.812c31.299,13.1,68.199,10.9,98.699-9c30.5-20,47.199-53,47.699-86.9c-31.299-13.1-68.199-10.9-98.699,9
			C674,103.912,657.301,137.012,656.801,170.812z"/>
		<path d="M322.7,703.812l104.7,124.899c9.9-9.699,18.7-20.3,26.4-31.6c16.3-23.9,27.6-51,33-79.6
			c-54.701-4.601-93.701-7.801-121.401-10.101C346.3,705.711,332.5,704.611,322.7,703.812z"/>
		<path d="M69.8,680.012c0.2,54.199,21.3,95.1,37.8,118.8l124.1-104.101L69.8,680.012z"/>
		<path d="M278.1,468.512c-42.9,0.699-85.9,14.699-120.1,39l105.6,125.899L278.1,468.512z"/>
		<path d="M326.4,665.512l16.3,1.399l147.601,12.9c-0.4-45.601-13-86.4-37.5-121.4c-37.9,32-85.2,72.101-115.101,97.4
			C333.6,659.512,329.8,662.711,326.4,665.512z"/>
		<path d="M280,958.312c98.7,0,185.4-51.101,235.301-128.2c28.299-43.7,44.699-95.8,44.699-151.8c0-135.8-96.7-249-225-274.6
			c-17.8-3.5-36.199-5.399-55-5.399c-154.6,0-280,125.399-280,280C0,832.911,125.3,958.312,280,958.312z M280,435.412
			c14.7,0,29,1.3,43,3.8C436.6,459.512,522.9,558.812,522.9,678.312c0,50.3-15.301,97-41.401,135.7
			C437.9,878.711,363.9,921.211,280,921.211c-134.1,0-242.9-108.699-242.9-242.899S145.8,435.412,280,435.412z"/>
		<path d="M241.4,885.411l14.2-161.5l-123.8,103.8C161.8,857.512,200.1,877.711,241.4,885.411z"/>
		<path d="M129.4,531.911c-29.6,30.5-49.3,69.2-56.5,110.8l161.8,14.801L129.4,531.911z"/>
		<path d="M398.3,852.711l-105.2-125.6l-14.2,161.8c0.1,0,0.1,0,0.2,0C333.9,889.012,374.9,868.411,398.3,852.711z"/>
		<path d="M428.6,529.611c-30.8-30.6-70.2-51-112.8-58.299c-0.101,0-0.2,0-0.2,0l-0.3,3.2l-4.101,46.699l-10.1,115.2
			c6.399-5.3,14.1-11.8,22.7-19C355.1,591.211,397.7,555.411,428.6,529.611z"/>
	</g>
</g>
<g>
</g>
<g>
</g>
<g>
</g>
<g>
</g>
<g>
</g>
<g>
</g>
<g>
</g>
<g>
</g>
<g>
</g>
<g>
</g>
<g>
</g>
<g>
</g>
<g>
</g>
<g>
</g>
<g>
</g>
</svg>
