<?xml version="1.0" encoding="iso-8859-1"?>
<!-- Generator: Adobe Illustrator 17.0.0, SVG Export Plug-In . SVG Version: 6.00 Build 0)  -->
<!DOCTYPE svg PUBLIC "-//W3C//DTD SVG 1.1//EN" "http://www.w3.org/Graphics/SVG/1.1/DTD/svg11.dtd">
<svg version="1.1" id="Capa_1" xmlns="http://www.w3.org/2000/svg" xmlns:xlink="http://www.w3.org/1999/xlink" x="0px" y="0px"
	 width="64px" height="64px" viewBox="0 0 64 64" style="enable-background:new 0 0 64 64;" xml:space="preserve">
<g>
	<path d="M52.06,23.126H29.389l2.553,6.344l0.258-0.004c0.722-0.012,1.457-0.018,2.202-0.018c7.107,0,14.345,0.568,21.512,1.689
		l0.548,0.086L55.167,25.6C54.854,24.235,53.461,23.126,52.06,23.126z"/>
	<path d="M24.558,17.81l0.359-0.05l-0.615-5.789c-0.152-1.424-1.418-2.628-2.858-2.628c-0.001,0-0.002,0-0.003,0
		c-5.892,0.234-10.751,3.524-13.122,5.465c-0.992,0.811-1.8,2.617-1.8,4.027v5.141l0.572-0.356
		C9.709,21.998,15.461,19.087,24.558,17.81z"/>
	<path d="M6.519,30.313c0,0.493-0.076,1.101-0.213,1.708L6.17,32.616l0.592-0.148c0.617-0.154,2.046-0.482,2.047-0.482l0.317-0.072
		L9.099,31.59c-0.219-2.66,0.027-4.818,0.355-4.904c0.361,0.188,0.704,2.317,0.733,4.556l0.006,0.446l2.473-0.467l-0.042-0.349
		c-0.153-1.279-0.387-4.807,0.359-5.748c0.106-0.134,0.196-0.158,0.287-0.166c0.049,0,0.125,0.012,0.224,0.115
		c0.684,0.712,0.83,3.707,0.761,5.429l-0.018,0.451l3.148-0.458l-0.024-0.347c-0.245-3.573,0.094-6.752,0.737-6.804
		c0.631,0,1.476,3.023,1.807,6.469l0.036,0.373l2.8-0.271L22.69,29.53c-0.319-2.436-0.536-6.651,0.242-7.6
		c0.096-0.117,0.175-0.135,0.242-0.139c0.818,0,1.934,3.182,2.654,7.565l0.055,0.333l0.337-0.019c1.051-0.06,2.124-0.113,3.237-0.15
		l0.568-0.02l-5.014-11.003l-0.278,0.039c-9.981,1.4-15.947,4.83-18.048,6.239l-0.166,0.111V30.313z"/>
	<path d="M5.839,33.476l-0.076,0.148c-0.041,0.079-0.082,0.16-0.121,0.224c-0.556,0.889-0.991,2.615-0.991,3.932v4.938l0.463-0.111
		c0.66-0.158,2.375-0.532,2.376-0.532l0.315-0.068l-0.021-0.322c-0.15-2.311,0.053-4.578,0.365-4.764
		c0.295,0.184,0.633,1.895,0.687,4.439l0.01,0.442l0.435-0.082c0.568-0.107,1.637-0.298,1.637-0.298l0.35-0.062l-0.044-0.353
		c-0.215-1.734-0.325-4.778,0.297-5.566c0.09-0.114,0.164-0.135,0.237-0.142c0.043,0,0.102,0.011,0.186,0.098
		c0.65,0.676,0.794,3.6,0.732,5.284l-0.017,0.449l3.057-0.44l-0.026-0.35c-0.255-3.386,0.033-6.511,0.613-6.558
		c0.572,0,1.372,2.979,1.677,6.25l0.035,0.376l2.958-0.302l-0.042-0.377c-0.242-2.177-0.396-5.906,0.224-6.646
		c0.021-0.026,0.053-0.058,0.085-0.06c0.588,0,1.626,3.058,2.221,6.543l0.057,0.332l2.695-0.171l-0.04-0.389
		c-0.15-1.442-0.311-5.437,0.723-6.583c0.17-0.188,0.352-0.275,0.575-0.275c1.163,0,2.79,3.97,3.573,6.788l0.078,0.278l0.289-0.004
		c0,0,1.773-0.024,2.719-0.025l0.589-0.001l-4.35-9.278l-0.246,0.007C17.757,30.592,9.134,32.59,6,33.433L5.839,33.476z"/>
	<path d="M34.859,40.257c-15.2-0.061-25.99,2.185-29.922,3.156l-0.285,0.07v4.561c0,1.441,1.173,2.614,2.614,2.614h0.816
		l-0.03-0.402c-0.201-2.739,0.077-4.372,0.298-4.504c0.339,0.212,0.661,2.331,0.689,4.536l0.005,0.37h2.363l-0.05-0.42
		c-0.192-1.604-0.269-4.438,0.342-5.208c0.099-0.124,0.182-0.147,0.235-0.152c0.054-0.005,0.109,0,0.19,0.075
		c0.67,0.621,0.818,3.591,0.755,5.316l-0.015,0.389h2.982l-0.028-0.4c-0.218-3.174,0.105-6.106,0.677-6.151
		c0.004-0.001,0.008-0.001,0.012-0.001c0.504,0,1.288,2.479,1.665,6.216l0.034,0.337h2.962l-0.044-0.415
		c-0.242-2.247-0.391-6.092,0.312-6.896c0.003,0,0.006,0,0.009,0c0.509,0,1.51,2.795,2.2,6.997l0.052,0.315h2.965l-0.048-0.418
		c-0.208-1.794-0.507-6.72,0.589-7.95c0.141-0.158,0.29-0.232,0.468-0.232c1.162,0,3.001,4.797,3.934,8.203l0.362-0.1l1.761,0.1
		c0.011,0.041,0.018,0.076,0.029,0.117l0.726-0.189c-0.743-2.862-1.312-6.198-1.031-6.834c0.741,0.345,3.114,3.89,4.97,7.115
		l0.108,0.188h2.612l-6.069-10.401L34.859,40.257z"/>
	<path d="M49.835,33.364c0.941,0,2.454,3.626,3.401,7.037l0.067,0.241l0.249,0.03c1.731,0.21,3.269,0.417,4.702,0.635L58.8,41.39
		l-2.158-9.379l-0.249-0.04c-7.341-1.181-14.741-1.779-21.994-1.779c-0.544,0-1.081,0.003-1.613,0.01l-0.548,0.007l3.749,9.315
		l0.25,0.003c0.654,0.007,1.32,0.021,1.989,0.036l0.493,0.012l-0.121-0.478c-0.63-2.493-0.967-5.421-0.301-6.343
		c0.125-0.173,0.276-0.26,0.531-0.276c1.451,0,2.703,4.243,3.151,6.918l0.049,0.297l0.3,0.016c0,0,1.295,0.07,2.005,0.114
		l0.519,0.032l-0.133-0.502c-0.641-2.422-1.086-5.39-0.549-6.182c0.081-0.118,0.157-0.143,0.256-0.152
		c0.95,0,2.464,3.516,3.407,6.822l0.071,0.249l2.351,0.207l-0.14-0.519c-0.525-1.948-1.137-5.369-0.538-6.257
		C49.66,33.398,49.738,33.374,49.835,33.364z"/>
	<path d="M58.979,42.174l-0.251-0.039c-7.211-1.121-14.479-1.747-21.604-1.861l-0.676-0.011l6.255,10.396h2.018l-0.121-0.469
		c-0.759-2.95-1.212-6.361-0.514-7.334c0.109-0.151,0.233-0.225,0.446-0.239c1.29,0,2.595,4.009,3.263,7.733l0.055,0.309h2.779
		l-0.116-0.465c-0.705-2.844-1.162-6.08-0.594-6.903c0.071-0.102,0.134-0.123,0.216-0.132c0.819,0,2.237,3.038,3.373,7.224
		l0.075,0.276h2.156l-0.1-0.455c-0.583-2.675-0.914-5.736-0.337-6.549c0.083-0.117,0.16-0.141,0.251-0.149
		c0.816,0,2.19,2.711,3.34,6.593l0.141,0.477l0.419-0.267c0.751-0.477,1.084-1.354,0.869-2.291L58.979,42.174z"/>
</g>
</svg>
