<?xml version="1.0" encoding="iso-8859-1"?>
<!-- Generator: Adobe Illustrator 18.1.1, SVG Export Plug-In . SVG Version: 6.00 Build 0)  -->
<svg version="1.1" id="Capa_1" xmlns="http://www.w3.org/2000/svg" xmlns:xlink="http://www.w3.org/1999/xlink" x="0px" y="0px"
	 viewBox="0 0 25.126 25.126" style="enable-background:new 0 0 25.126 25.126;" xml:space="preserve">
<g>
	<path style="fill:#010002;" d="M20.578,12.791c-1.662,1.147-2.8,1.285-2.8,1.285s0.043-5.14-2.932-6.333
		C11.872,6.551,6.098,4.072,5.922,1.87c0,0-1.268,2.708,0.219,4.589C6.751,7.23,7.374,7.769,7.9,8.137
		c0.312,0.177,0.703,0.291,1.019,0.35c4.389,0.799,3.978,3.295,3.978,3.295s0.058-1.051-1.517-2.187
		c-0.401-0.288-1.034-0.61-2.21-0.746C8.368,8.752,6.828,9.095,4.916,8.753c-2.057-0.367-4.332-1.79-4.332-1.79
		S0.234,9.349,2.99,11.14c2.757,1.789,2.514,1.251,5.082,4.599c0.403,0.525,2.198,1.583,2.198,1.583s-5.354,1.252-7.28,1.572
		c-1.925,0.322-4.243,1.148-2.188,2.708c2.057,1.561,2.275,1.836,4.244,1.561s3.588-2.569,4.987-2.616c0,0,5.645,0.459,7.438,0.047
		c1.794-0.413,3.894-1.056,4.419-4.772c0,0,0.219-1.515,1.662-1.652c1.42-0.135,1.57-0.447,1.574-0.458
		c-0.006,0-0.082-0.031-0.786-0.46C23.51,12.745,22.24,11.643,20.578,12.791z"/>
</g>
<g>
</g>
<g>
</g>
<g>
</g>
<g>
</g>
<g>
</g>
<g>
</g>
<g>
</g>
<g>
</g>
<g>
</g>
<g>
</g>
<g>
</g>
<g>
</g>
<g>
</g>
<g>
</g>
<g>
</g>
</svg>
