<?xml version="1.0" encoding="iso-8859-1"?>
<!-- Generator: Adobe Illustrator 18.0.0, SVG Export Plug-In . SVG Version: 6.00 Build 0)  -->
<!DOCTYPE svg PUBLIC "-//W3C//DTD SVG 1.1//EN" "http://www.w3.org/Graphics/SVG/1.1/DTD/svg11.dtd">
<svg version="1.1" id="Capa_1" xmlns="http://www.w3.org/2000/svg" xmlns:xlink="http://www.w3.org/1999/xlink" x="0px" y="0px"
	 viewBox="0 0 59 59" style="enable-background:new 0 0 59 59;" xml:space="preserve">
<g>
	<path d="M37.25,38.5c0-0.334-0.167-0.646-0.445-0.832l-4.25-2.833c-0.46-0.306-1.08-0.183-1.387,0.277
		c-0.306,0.46-0.182,1.08,0.277,1.387l3.002,2.001l-3.002,2.001C31.167,40.687,31,40.999,31,41.333s0.167,0.646,0.445,0.832
		l3.002,2.002l-3.002,2.001c-0.459,0.307-0.583,0.927-0.277,1.387C31.361,47.844,31.678,48,32.001,48
		c0.19,0,0.383-0.055,0.554-0.168l4.25-2.833c0.278-0.186,0.445-0.498,0.445-0.832s-0.167-0.646-0.445-0.832l-3.002-2.002
		l3.002-2.001C37.083,39.146,37.25,38.834,37.25,38.5z"/>
	<path d="M50.862,45.512c0.181-0.739,0.144-1.235,0.112-1.44c-0.212-2.116-1.853-3.707-3.829-3.707c-0.978,0-1.896,0.371-2.59,1.006
		c-0.679-0.64-1.574-1.006-2.546-1.006c-1.977,0-3.617,1.591-3.829,3.708c-0.031,0.204-0.068,0.699,0.113,1.438
		c0.273,1.118,0.899,2.129,1.808,2.924l3.785,3.317C44.074,51.917,44.31,52,44.545,52c0.232,0,0.465-0.081,0.653-0.242l3.855-3.321
		C49.964,47.64,50.589,46.628,50.862,45.512z M48.919,45.036c-0.175,0.715-0.584,1.37-1.177,1.89l-3.191,2.749l-3.132-2.745
		c-0.599-0.523-1.008-1.178-1.183-1.895c-0.1-0.405-0.08-0.641-0.082-0.641c0,0,0,0,0,0.001c0.007-0.034,0.012-0.068,0.015-0.103
		c0.088-0.959,0.749-1.929,1.841-1.929c0.712,0,1.318,0.412,1.62,1.103c0.159,0.364,0.519,0.6,0.917,0.6s0.757-0.235,0.917-0.6
		c0.292-0.67,0.954-1.103,1.684-1.103c1.093,0,1.753,0.97,1.851,2C48.996,44.367,49.024,44.604,48.919,45.036z"/>
	<path d="M29.5,0C14.888,0,3,11.888,3,26.5V51c0,2.757,2.243,5,5,5h6.55c0.046,0.022,0.096,0.04,0.142,0.062
		c3.51,1.654,7.728,2.643,12.542,2.878c0.107,0.005,0.214,0.011,0.322,0.016C28.195,58.982,28.84,59,29.5,59
		s1.305-0.018,1.945-0.045c0.108-0.005,0.215-0.01,0.322-0.016c4.814-0.235,9.032-1.224,12.542-2.878
		c0.046-0.022,0.096-0.04,0.142-0.062H51c2.757,0,5-2.243,5-5V26.5C56,11.888,44.112,0,29.5,0z M5,26.5C5,12.99,15.991,2,29.5,2
		S54,12.99,54,26.5v3.4c-0.722,0.067-1.379,0.1-2,0.1c-10.405,0-19.571-7.335-22.809-18.252l-0.223-0.753l-0.784,0.038
		C17.638,11.55,8.8,18.165,5,27.375V26.5z M43.993,54l-0.207,0.101c-2.828,1.374-6.204,2.271-9.917,2.666
		c-0.271,0.027-0.542,0.056-0.818,0.078c-0.392,0.033-0.787,0.062-1.187,0.084C31.09,56.969,30.309,57,29.5,57
		s-1.59-0.031-2.364-0.072c-0.399-0.022-0.794-0.051-1.187-0.084c-0.276-0.022-0.547-0.05-0.818-0.078
		c-3.712-0.394-7.089-1.292-9.917-2.666L15.007,54h-0.089C8.547,50.783,5,45.095,5,37.5c0-12.823,9.827-23.404,22.512-24.419
		C31.199,24.431,40.948,32,52,32c0.438,0,0.891-0.015,1.365-0.044C53.787,33.775,54,35.636,54,37.5c0,7.595-3.547,13.283-9.918,16.5
		H43.993z M8,54c-1.654,0-3-1.346-3-3v-4.226c1.384,2.876,3.459,5.308,6.148,7.226H8z M54,51c0,1.654-1.346,3-3,3h-3.148
		c2.689-1.917,4.764-4.349,6.148-7.226V51z"/>
	<path d="M14.808,29.293c-0.391,0.391-0.391,1.023,0,1.414s1.023,0.391,1.414,0c1.949-1.949,5.122-1.949,7.071,0
		C23.488,30.902,23.744,31,24,31s0.512-0.098,0.707-0.293c0.391-0.391,0.391-1.023,0-1.414
		C21.978,26.564,17.537,26.564,14.808,29.293z"/>
</g>
<g>
</g>
<g>
</g>
<g>
</g>
<g>
</g>
<g>
</g>
<g>
</g>
<g>
</g>
<g>
</g>
<g>
</g>
<g>
</g>
<g>
</g>
<g>
</g>
<g>
</g>
<g>
</g>
<g>
</g>
</svg>
