<?xml version="1.0" encoding="iso-8859-1"?>
<!-- Generator: Adobe Illustrator 16.0.0, SVG Export Plug-In . SVG Version: 6.00 Build 0)  -->
<!DOCTYPE svg PUBLIC "-//W3C//DTD SVG 1.1//EN" "http://www.w3.org/Graphics/SVG/1.1/DTD/svg11.dtd">
<svg version="1.1" id="Capa_1" xmlns="http://www.w3.org/2000/svg" xmlns:xlink="http://www.w3.org/1999/xlink" x="0px" y="0px"
	 width="426.867px" height="426.867px" viewBox="0 0 426.867 426.867" style="enable-background:new 0 0 426.867 426.867;"
	 xml:space="preserve">
<g>
	<g>
		<path d="M403.941,149.373c-2.344-2.344-5.521-3.661-8.838-3.661h-169.17V79.772c0-6.904-5.597-12.5-12.5-12.5
			s-12.5,5.596-12.5,12.5v65.939H31.765c-3.315,0-6.495,1.317-8.839,3.661L3.661,168.638C1.317,170.981,0,174.162,0,177.477v150.353
			c0,3.315,1.317,6.496,3.661,8.84l19.265,19.265c2.344,2.344,5.523,3.661,8.839,3.661h363.338c3.314,0,6.494-1.317,8.838-3.661
			l19.266-19.265c2.344-2.344,3.66-5.524,3.66-8.84V177.477c0-3.315-1.316-6.495-3.66-8.839L403.941,149.373z M401.867,322.651
			l-11.941,11.943H36.943l-11.942-11.943V182.655l11.942-11.943h352.983l11.941,11.943V322.651L401.867,322.651z"/>
		<path d="M143.394,236.272h-26.46v-26.459c0-6.904-5.597-12.5-12.5-12.5s-12.5,5.596-12.5,12.5v26.459h-26.46
			c-6.903,0-12.5,5.598-12.5,12.5c0,6.903,5.597,12.5,12.5,12.5h26.46v26.459c0,6.904,5.597,12.5,12.5,12.5s12.5-5.596,12.5-12.5
			v-26.459h26.46c6.903,0,12.5-5.597,12.5-12.5C155.894,241.87,150.297,236.272,143.394,236.272z"/>
		<path d="M302.797,205.479H280.26c-3.312,0-6,2.687-6,6v22.537c0,3.312,2.688,6,6,6h22.537c3.312,0,6-2.688,6-6v-22.537
			C308.797,208.166,306.111,205.479,302.797,205.479z"/>
		<path d="M371.035,205.479h-22.537c-3.312,0-6,2.687-6,6v22.537c0,3.312,2.688,6,6,6h22.537c3.312,0,6-2.688,6-6v-22.537
			C377.035,208.166,374.348,205.479,371.035,205.479z"/>
		<path d="M275.172,265.085h-22.537c-3.313,0-6,2.687-6,6v22.537c0,3.312,2.687,6,6,6h22.537c3.312,0,6-2.688,6-6v-22.537
			C281.172,267.771,278.484,265.085,275.172,265.085z"/>
		<path d="M343.408,265.085h-22.537c-3.312,0-6,2.687-6,6v22.537c0,3.312,2.688,6,6,6h22.537c3.312,0,6-2.688,6-6v-22.537
			C349.408,267.771,346.721,265.085,343.408,265.085z"/>
	</g>
</g>
<g>
</g>
<g>
</g>
<g>
</g>
<g>
</g>
<g>
</g>
<g>
</g>
<g>
</g>
<g>
</g>
<g>
</g>
<g>
</g>
<g>
</g>
<g>
</g>
<g>
</g>
<g>
</g>
<g>
</g>
</svg>
