<?xml version="1.0" encoding="iso-8859-1"?>
<!-- Generator: Adobe Illustrator 18.0.0, SVG Export Plug-In . SVG Version: 6.00 Build 0)  -->
<!DOCTYPE svg PUBLIC "-//W3C//DTD SVG 1.1//EN" "http://www.w3.org/Graphics/SVG/1.1/DTD/svg11.dtd">
<svg version="1.1" id="Capa_1" xmlns="http://www.w3.org/2000/svg" xmlns:xlink="http://www.w3.org/1999/xlink" x="0px" y="0px"
	 viewBox="0 0 295.996 295.996" style="enable-background:new 0 0 295.996 295.996;" xml:space="preserve">
<g>
	<path d="M147.998,0C66.392,0,0,66.392,0,147.998s66.392,147.998,147.998,147.998c81.606,0,147.998-66.392,147.998-147.998
		S229.604,0,147.998,0z M147.998,279.996c-36.257,0-69.143-14.696-93.022-38.44c-9.536-9.482-17.631-20.41-23.934-32.42
		C21.442,190.847,16,170.048,16,147.998C16,75.214,75.214,16,147.998,16c34.523,0,65.987,13.328,89.533,35.102
		c12.208,11.288,22.289,24.844,29.558,39.997c8.27,17.238,12.907,36.537,12.907,56.899
		C279.996,220.782,220.782,279.996,147.998,279.996z"/>
	<polygon points="107.102,147.953 136.355,118.698 107.101,89.445 95.788,100.76 113.729,118.698 95.787,136.639 	"/>
	<polygon points="200.207,136.639 182.266,118.698 200.206,100.76 188.894,89.445 159.639,118.698 188.893,147.953 	"/>
	<path d="M230.279,164.997H65.715c0,29.515,15.549,55.387,38.893,69.907c1.959,11.849,8.575,22.118,17.88,28.829
		c7.202,5.194,16.005,8.264,25.51,8.264c14.541,0,27.451-7.164,35.467-18.174c3.994-5.487,6.767-11.929,7.923-18.919
		C214.73,220.384,230.279,194.512,230.279,164.997z M147.664,255.997c-15.701,0-28-12.487-28-28.429v-13.571h56v13.571
		C175.664,243.51,163.365,255.997,147.664,255.997z M211.997,180.997h0.165c-3.26,13.104-10.498,24.668-20.498,33.399v-16.399h-88
		v16.547c-9-8.748-16.719-20.369-19.997-33.547H211.997z"/>
</g>
<g>
</g>
<g>
</g>
<g>
</g>
<g>
</g>
<g>
</g>
<g>
</g>
<g>
</g>
<g>
</g>
<g>
</g>
<g>
</g>
<g>
</g>
<g>
</g>
<g>
</g>
<g>
</g>
<g>
</g>
</svg>
