<?xml version="1.0" encoding="iso-8859-1"?>
<!-- Generator: Adobe Illustrator 18.0.0, SVG Export Plug-In . SVG Version: 6.00 Build 0)  -->
<!DOCTYPE svg PUBLIC "-//W3C//DTD SVG 1.1//EN" "http://www.w3.org/Graphics/SVG/1.1/DTD/svg11.dtd">
<svg version="1.1" id="Capa_1" xmlns="http://www.w3.org/2000/svg" xmlns:xlink="http://www.w3.org/1999/xlink" x="0px" y="0px"
	 viewBox="0 0 60.002 60.002" style="enable-background:new 0 0 60.002 60.002;" xml:space="preserve">
<g>
	<path d="M21,34.5c4.962,0,9-4.037,9-9s-4.038-9-9-9s-9,4.037-9,9S16.038,34.5,21,34.5z M21,18.5c3.165,0,5.842,2.113,6.705,5
		h-13.41C15.158,20.612,17.835,18.5,21,18.5z M28,25.5c0,3.859-3.14,7-7,7s-7-3.141-7-7H28z"/>
	<path d="M8.71,37.21C8.89,37.019,9,36.76,9,36.5c0-0.271-0.11-0.521-0.29-0.71c-0.37-0.37-1.05-0.37-1.42,0
		C7.11,35.979,7,36.229,7,36.5c0,0.26,0.11,0.52,0.29,0.71C7.48,37.39,7.74,37.5,8,37.5C8.26,37.5,8.52,37.39,8.71,37.21z"/>
	<path d="M12,38.5c0.26,0,0.52-0.11,0.71-0.29c0.18-0.19,0.29-0.45,0.29-0.71s-0.11-0.521-0.29-0.71c-0.38-0.37-1.05-0.37-1.41,0
		c-0.19,0.189-0.3,0.439-0.3,0.71c0,0.27,0.11,0.52,0.29,0.71C11.48,38.39,11.74,38.5,12,38.5z"/>
	<path d="M9.71,39.79c-0.37-0.37-1.06-0.37-1.42,0C8.11,39.97,8,40.229,8,40.5c0,0.27,0.11,0.52,0.29,0.7
		C8.48,41.39,8.73,41.5,9,41.5s0.52-0.11,0.71-0.29c0.18-0.19,0.29-0.44,0.29-0.71C10,40.229,9.89,39.97,9.71,39.79z"/>
	<path d="M13.71,40.79c-0.37-0.37-1.04-0.37-1.42,0C12.11,40.979,12,41.24,12,41.5s0.11,0.52,0.29,0.71
		c0.19,0.18,0.45,0.29,0.71,0.29c0.26,0,0.52-0.11,0.7-0.29c0.19-0.19,0.3-0.44,0.3-0.71C14,41.229,13.89,40.979,13.71,40.79z"/>
	<path d="M10.29,43.79C10.11,43.979,10,44.229,10,44.5c0,0.26,0.11,0.52,0.29,0.71c0.19,0.18,0.45,0.29,0.71,0.29
		c0.26,0,0.52-0.11,0.71-0.29c0.18-0.19,0.29-0.45,0.29-0.71s-0.11-0.521-0.29-0.71C11.33,43.42,10.67,43.42,10.29,43.79z"/>
	<path d="M15.71,44.79c-0.38-0.37-1.05-0.37-1.42,0C14.1,44.979,14,45.229,14,45.5c0,0.27,0.11,0.52,0.29,0.7
		c0.19,0.189,0.44,0.3,0.71,0.3c0.26,0,0.52-0.11,0.71-0.29c0.18-0.19,0.29-0.45,0.29-0.71S15.89,44.979,15.71,44.79z"/>
	<path d="M19.71,46.21c0.18-0.19,0.29-0.44,0.29-0.71c0-0.271-0.1-0.521-0.29-0.71c-0.37-0.37-1.04-0.37-1.42,0
		C18.11,44.979,18,45.24,18,45.5s0.11,0.52,0.29,0.71c0.19,0.18,0.45,0.29,0.71,0.29C19.27,46.5,19.52,46.39,19.71,46.21z"/>
	<path d="M20.29,47.79C20.1,47.979,20,48.229,20,48.5c0,0.27,0.11,0.52,0.29,0.7c0.19,0.189,0.44,0.3,0.71,0.3
		c0.26,0,0.52-0.11,0.71-0.29c0.18-0.19,0.29-0.45,0.29-0.71s-0.11-0.521-0.29-0.71C21.33,47.42,20.66,47.42,20.29,47.79z"/>
	<path d="M39.71,47.79c-0.38-0.37-1.05-0.37-1.42,0C38.11,47.979,38,48.229,38,48.5c0,0.27,0.11,0.52,0.29,0.7
		c0.19,0.189,0.44,0.3,0.71,0.3c0.26,0,0.52-0.11,0.71-0.29c0.18-0.19,0.29-0.45,0.29-0.71S39.9,47.979,39.71,47.79z"/>
	<path d="M35.19,50.29c-0.18,0.189-0.29,0.45-0.29,0.71s0.11,0.52,0.29,0.71C35.38,51.89,35.64,52,35.9,52
		c0.26,0,0.52-0.11,0.71-0.29c0.18-0.19,0.29-0.45,0.29-0.71s-0.11-0.521-0.29-0.71C36.23,49.92,35.56,49.92,35.19,50.29z"/>
	<path d="M31.35,52.229c-0.18,0.19-0.29,0.45-0.29,0.71c0,0.261,0.11,0.521,0.29,0.7c0.19,0.19,0.45,0.3,0.71,0.3
		c0.27,0,0.52-0.109,0.71-0.3c0.19-0.18,0.29-0.439,0.29-0.7c0-0.26-0.1-0.52-0.29-0.71C32.39,51.859,31.73,51.859,31.35,52.229z"/>
	<path d="M23.23,50.59c-0.19,0.189-0.29,0.439-0.29,0.71c0,0.26,0.11,0.52,0.29,0.7c0.19,0.189,0.44,0.3,0.71,0.3
		c0.26,0,0.52-0.11,0.71-0.3c0.18-0.181,0.29-0.44,0.29-0.7c0-0.271-0.11-0.521-0.29-0.71C24.27,50.22,23.6,50.22,23.23,50.59z"/>
	<path d="M27.94,49.3c0-0.26-0.11-0.521-0.29-0.71c-0.38-0.38-1.05-0.37-1.42,0c-0.18,0.189-0.29,0.45-0.29,0.71s0.11,0.52,0.29,0.7
		c0.18,0.189,0.44,0.3,0.71,0.3s0.52-0.11,0.71-0.3C27.83,49.819,27.94,49.559,27.94,49.3z"/>
	<path d="M31.94,49.3c0-0.26-0.11-0.521-0.29-0.71c-0.38-0.38-1.04-0.38-1.42,0c-0.18,0.189-0.29,0.45-0.29,0.71s0.11,0.52,0.29,0.7
		c0.19,0.189,0.44,0.3,0.71,0.3s0.52-0.11,0.71-0.3C31.83,49.819,31.94,49.559,31.94,49.3z"/>
	<path d="M35.65,49c0.18-0.181,0.29-0.44,0.29-0.7c0-0.271-0.11-0.53-0.29-0.71c-0.38-0.37-1.05-0.37-1.42,0
		c-0.18,0.18-0.29,0.439-0.29,0.71c0,0.26,0.11,0.52,0.29,0.7c0.18,0.189,0.44,0.3,0.71,0.3S35.46,49.189,35.65,49z"/>
	<path d="M27.31,51.93c-0.18,0.19-0.29,0.45-0.29,0.71s0.11,0.521,0.29,0.71c0.19,0.18,0.45,0.29,0.71,0.29
		c0.27,0,0.52-0.11,0.71-0.29c0.19-0.189,0.29-0.45,0.29-0.71s-0.1-0.52-0.29-0.71C28.35,51.559,27.69,51.559,27.31,51.93z"/>
	<path d="M19.29,50.79C19.11,50.979,19,51.229,19,51.5c0,0.27,0.11,0.52,0.29,0.71c0.19,0.18,0.45,0.29,0.71,0.29
		c0.26,0,0.52-0.11,0.7-0.29c0.19-0.19,0.3-0.45,0.3-0.71s-0.11-0.521-0.29-0.71C20.34,50.42,19.66,50.42,19.29,50.79z"/>
	<path d="M40.29,50.79C40.11,50.979,40,51.24,40,51.5s0.11,0.52,0.29,0.71c0.19,0.18,0.45,0.29,0.71,0.29
		c0.27,0,0.52-0.11,0.71-0.29c0.18-0.19,0.29-0.45,0.29-0.71s-0.11-0.521-0.29-0.71C41.34,50.42,40.67,50.42,40.29,50.79z"/>
	<path d="M16.29,47.79C16.1,47.979,16,48.229,16,48.5c0,0.27,0.11,0.52,0.29,0.7c0.19,0.189,0.44,0.3,0.71,0.3
		c0.26,0,0.52-0.11,0.71-0.29c0.18-0.19,0.29-0.45,0.29-0.71s-0.11-0.521-0.29-0.71C17.33,47.42,16.66,47.42,16.29,47.79z"/>
	<path d="M52.29,35.79C52.109,35.979,52,36.24,52,36.5s0.1,0.52,0.29,0.71c0.189,0.18,0.45,0.29,0.71,0.29s0.52-0.11,0.71-0.29
		c0.18-0.19,0.29-0.45,0.29-0.71s-0.11-0.521-0.29-0.71C53.33,35.42,52.67,35.42,52.29,35.79z"/>
	<path d="M48.29,36.79C48.109,36.979,48,37.229,48,37.5c0,0.27,0.109,0.52,0.29,0.71c0.189,0.18,0.439,0.29,0.71,0.29
		c0.27,0,0.52-0.11,0.71-0.29c0.18-0.19,0.29-0.45,0.29-0.71c0-0.271-0.11-0.521-0.29-0.71C49.34,36.42,48.66,36.42,48.29,36.79z"/>
	<path d="M51.29,39.79C51.109,39.97,51,40.229,51,40.5c0,0.27,0.109,0.529,0.29,0.7c0.18,0.189,0.439,0.3,0.71,0.3
		c0.27,0,0.52-0.11,0.7-0.29c0.189-0.19,0.3-0.44,0.3-0.71c0-0.271-0.11-0.521-0.29-0.71C52.34,39.42,51.649,39.43,51.29,39.79z"/>
	<path d="M48.71,40.79c-0.38-0.37-1.04-0.37-1.42,0C47.109,40.979,47,41.229,47,41.5c0,0.27,0.109,0.52,0.29,0.71
		c0.189,0.18,0.45,0.29,0.71,0.29s0.52-0.11,0.71-0.29c0.18-0.19,0.29-0.45,0.29-0.71S48.89,40.979,48.71,40.79z"/>
	<path d="M43.3,41.79c-0.19,0.18-0.3,0.439-0.3,0.71c0,0.27,0.11,0.52,0.29,0.71c0.19,0.18,0.45,0.29,0.71,0.29
		c0.26,0,0.52-0.11,0.71-0.29c0.18-0.19,0.29-0.45,0.29-0.71s-0.11-0.521-0.29-0.71C44.33,41.42,43.66,41.42,43.3,41.79z"/>
	<path d="M49.29,43.79C49.109,43.979,49,44.229,49,44.5c0,0.26,0.109,0.52,0.29,0.71c0.189,0.18,0.45,0.29,0.71,0.29
		s0.52-0.11,0.7-0.29c0.189-0.19,0.3-0.44,0.3-0.71c0-0.271-0.11-0.53-0.29-0.71C50.33,43.42,49.67,43.42,49.29,43.79z"/>
	<path d="M45.29,44.79C45.11,44.979,45,45.24,45,45.5s0.11,0.52,0.29,0.7c0.19,0.189,0.44,0.3,0.71,0.3s0.52-0.11,0.71-0.29
		c0.18-0.19,0.29-0.45,0.29-0.71s-0.11-0.521-0.29-0.71C46.33,44.42,45.66,44.42,45.29,44.79z"/>
	<path d="M42.71,44.79c-0.38-0.37-1.04-0.37-1.42,0C41.1,44.979,41,45.24,41,45.5s0.11,0.52,0.29,0.71
		c0.19,0.18,0.45,0.29,0.71,0.29c0.26,0,0.52-0.11,0.71-0.29c0.18-0.19,0.29-0.45,0.29-0.71S42.9,44.979,42.71,44.79z"/>
	<path d="M43.29,47.79C43.11,47.979,43,48.24,43,48.5s0.11,0.52,0.29,0.71c0.19,0.18,0.45,0.29,0.71,0.29
		c0.27,0,0.52-0.11,0.71-0.29c0.18-0.19,0.29-0.45,0.29-0.71s-0.11-0.521-0.29-0.71C44.34,47.42,43.67,47.42,43.29,47.79z"/>
	<path d="M59.795,26.568c-0.401-1.697-1.364-3.156-2.576-3.902c-0.812-0.5-1.679-0.659-2.508-0.461
		c-0.189,0.045-0.371,0.114-0.548,0.198c-2.336-5.685-5.981-9.362-9.728-11.735l1.36-2.721c0.247-0.494,0.047-1.095-0.447-1.342
		c-0.495-0.246-1.095-0.047-1.342,0.447l-1.302,2.605c-0.617-0.328-1.232-0.622-1.839-0.888l0.984-2.953
		c0.175-0.524-0.108-1.091-0.632-1.265c-0.525-0.175-1.09,0.108-1.265,0.632L39.003,8.03c-0.693-0.248-1.366-0.461-2.011-0.642
		l0.857-2.572c0.175-0.524-0.108-1.091-0.632-1.265c-0.526-0.176-1.091,0.108-1.265,0.632L35.043,6.91
		c-1.261-0.265-2.344-0.413-3.143-0.49V4.5c0-0.553-0.448-1-1-1s-1,0.447-1,1v1.838c-0.526,0.022-1.444,0.092-2.634,0.277
		l-0.38-2.279c-0.091-0.545-0.604-0.923-1.151-0.822c-0.544,0.091-0.913,0.606-0.822,1.15l0.387,2.324
		c-1.072,0.241-2.26,0.574-3.51,1.021l-0.942-2.826c-0.174-0.523-0.74-0.807-1.265-0.632c-0.524,0.174-0.807,0.74-0.632,1.265
		l0.977,2.932c-0.864,0.379-1.743,0.821-2.623,1.327l-1.511-3.022c-0.247-0.494-0.846-0.693-1.342-0.447
		c-0.494,0.247-0.694,0.848-0.447,1.342l1.597,3.193c-0.881,0.603-1.75,1.289-2.596,2.052l-2.399-2.399
		c-0.391-0.391-1.023-0.391-1.414,0s-0.391,1.023,0,1.414l2.381,2.381c-3.072,3.275-5.64,7.841-6.82,14.219
		c-0.015,0.083-0.025,0.167-0.04,0.25c-0.254-0.07-0.512-0.118-0.776-0.118C1.73,28.939,0,31.322,0,34.363s1.73,5.424,3.939,5.424
		c0.403,0,0.798-0.102,1.177-0.267c0.701,2.671,1.863,5.179,3.459,7.378c3.194,4.404,9.468,9.606,21.27,9.606
		c0.182,0,0.364-0.001,0.548-0.004c12.143,0.167,18.573-5.13,21.817-9.603c2.879-3.969,4.345-8.941,4.23-14.07
		c0.035,0.001,0.07,0.007,0.104,0.007c0.227,0,0.451-0.025,0.672-0.078C59.363,32.245,60.496,29.526,59.795,26.568z M4.674,37.489
		c-0.206,0.166-0.456,0.298-0.734,0.298C3.022,37.787,2,36.381,2,34.363s1.022-3.424,1.939-3.424c0.167,0,0.335,0.047,0.504,0.139
		c-0.049,0.533-0.081,1.066-0.096,1.597c-0.001,0.034,0,0.067-0.001,0.101c-0.011,0.445-0.009,0.889,0.004,1.332
		c0.004,0.136,0.009,0.271,0.015,0.407c0.016,0.36,0.042,0.719,0.074,1.076c0.012,0.141,0.021,0.282,0.036,0.422
		c0.047,0.438,0.106,0.874,0.177,1.307C4.66,37.376,4.664,37.433,4.674,37.489z M50.591,45.725c-0.562,0.774-1.168,1.496-1.813,2.17
		c-0.025-0.033-0.039-0.074-0.068-0.105c-0.37-0.37-1.04-0.38-1.42,0C47.1,47.979,47,48.24,47,48.5s0.1,0.52,0.29,0.7
		c0.016,0.016,0.039,0.023,0.056,0.038c-4.204,3.599-9.874,5.39-16.94,5.263h-0.027c-7.022,0.109-12.652-1.643-16.842-5.179
		c0.058-0.037,0.123-0.064,0.173-0.112c0.18-0.19,0.29-0.45,0.29-0.71s-0.11-0.521-0.29-0.71c-0.38-0.37-1.05-0.37-1.42,0
		c-0.068,0.067-0.11,0.15-0.154,0.231c-0.693-0.71-1.343-1.472-1.942-2.297c-2.062-2.842-3.329-6.255-3.726-9.866
		c-0.008-0.078-0.01-0.157-0.017-0.235c-0.057-0.57-0.089-1.144-0.102-1.721c-0.005-0.252-0.001-0.504,0.002-0.757
		c0.004-0.406,0.021-0.814,0.047-1.222c0.019-0.294,0.039-0.588,0.069-0.883c0.064-0.623,0.138-1.246,0.253-1.869
		c1.097-5.928,3.438-10.163,6.237-13.199l1.235,1.235c0.195,0.195,0.451,0.293,0.707,0.293s0.512-0.098,0.707-0.293
		c0.391-0.391,0.391-1.023,0-1.414l-1.229-1.229c0.684-0.619,1.384-1.181,2.094-1.683l0.533,1.067
		c0.175,0.351,0.528,0.553,0.896,0.553c0.15,0,0.303-0.034,0.446-0.105c0.494-0.247,0.694-0.848,0.447-1.342l-0.628-1.256
		c0.795-0.464,1.59-0.872,2.372-1.22l0.413,1.24c0.14,0.419,0.53,0.684,0.949,0.684c0.104,0,0.211-0.017,0.316-0.052
		c0.524-0.174,0.807-0.74,0.632-1.265l-0.45-1.349c1.148-0.407,2.235-0.7,3.224-0.917l0.291,1.747
		c0.082,0.489,0.505,0.836,0.985,0.836c0.054,0,0.11-0.004,0.166-0.014c0.544-0.091,0.913-0.606,0.822-1.15l-0.296-1.777
		c1.021-0.146,1.824-0.201,2.31-0.22V10.5c0,0.553,0.448,1,1,1s1-0.447,1-1V8.412c0.667,0.065,1.522,0.179,2.517,0.375l-0.465,1.396
		c-0.175,0.524,0.108,1.091,0.632,1.265c0.105,0.035,0.212,0.052,0.316,0.052c0.419,0,0.809-0.265,0.949-0.684l0.522-1.566
		c0.644,0.176,1.318,0.386,2.013,0.635l-0.433,1.299c-0.175,0.524,0.108,1.091,0.632,1.265c0.105,0.035,0.212,0.052,0.316,0.052
		c0.419,0,0.809-0.265,0.949-0.684l0.395-1.184c0.177,0.079,0.353,0.154,0.531,0.238c0.36,0.171,0.707,0.353,1.053,0.538
		l-0.823,1.645c-0.247,0.494-0.047,1.095,0.447,1.342c0.144,0.071,0.296,0.105,0.446,0.105c0.367,0,0.72-0.202,0.896-0.553
		l0.763-1.526c4.174,2.689,7.196,6.516,9.039,11.43l-0.003,0.003l0.182,0.513c0.272,0.766,0.509,1.532,0.719,2.308
		c0.013,0.049,0.026,0.098,0.038,0.147c0.204,0.769,0.382,1.548,0.53,2.348c0.122,0.659,0.204,1.318,0.268,1.976
		c0.012,0.127,0.029,0.252,0.04,0.38C54.791,36.694,53.464,41.764,50.591,45.725z M56.751,30.812c-0.136,0.03-0.283,0.03-0.436,0
		c-0.004-0.036-0.011-0.07-0.015-0.106c-0.068-0.63-0.153-1.261-0.269-1.891c-0.001-0.003-0.001-0.006-0.001-0.009
		c-0.002-0.012-0.006-0.024-0.008-0.036c-0.142-0.761-0.307-1.492-0.486-2.203c-0.018-0.069-0.039-0.137-0.057-0.206
		c-0.182-0.702-0.384-1.377-0.601-2.03c-0.004-0.013-0.007-0.026-0.012-0.039c0.101-0.069,0.204-0.116,0.31-0.142
		c0.38-0.092,0.751,0.069,0.994,0.219c0.758,0.467,1.401,1.486,1.68,2.66C58.314,28.993,57.645,30.6,56.751,30.812z"/>
	<path d="M41.5,32.5c4.136,0,7.5-3.364,7.5-7.5s-3.364-7.5-7.5-7.5S34,20.864,34,25S37.364,32.5,41.5,32.5z M41.5,30.5
		c-2.864,0-5.221-2.201-5.475-5h10.949C46.721,28.298,44.364,30.5,41.5,30.5z M41.5,19.5c2.512,0,4.632,1.695,5.287,4H36.213
		C36.868,21.195,38.988,19.5,41.5,19.5z"/>
	<path d="M40.79,26.79c-0.18,0.18-0.29,0.439-0.29,0.71c0,0.27,0.1,0.52,0.29,0.71c0.19,0.18,0.45,0.29,0.71,0.29
		c0.26,0,0.52-0.11,0.71-0.29c0.19-0.2,0.29-0.45,0.29-0.71c0-0.271-0.11-0.521-0.29-0.71C41.83,26.42,41.15,26.43,40.79,26.79z"/>
	<path d="M40,41.1c0-0.136-0.027-0.268-0.04-0.402C39.974,40.631,40,40.57,40,40.5c0-0.192-0.069-0.362-0.163-0.514
		c-0.197-0.742-0.573-1.431-1.135-1.993c-0.391-0.391-1.024-0.391-1.414,0c-0.391,0.391-0.391,1.023,0,1.414
		c0.029,0.029,0.05,0.063,0.078,0.094H23.169c0.027-0.03,0.048-0.065,0.078-0.094c0.391-0.391,0.391-1.023,0-1.414
		s-1.023-0.391-1.414,0c-0.837,0.837-1.298,1.94-1.298,3.107s0.461,2.271,1.298,3.107c0.195,0.195,0.451,0.293,0.707,0.293
		s0.512-0.098,0.707-0.293c0.391-0.391,0.391-1.023,0-1.414c-0.361-0.361-0.589-0.81-0.672-1.293H37.96
		c-0.084,0.483-0.311,0.932-0.672,1.293c-0.391,0.391-0.391,1.023,0,1.414c0.195,0.195,0.451,0.293,0.707,0.293
		s0.512-0.098,0.707-0.293C39.539,43.37,40,42.266,40,41.1z"/>
	<path d="M21,28.67c0.27,0,0.52-0.11,0.71-0.3c0.18-0.181,0.29-0.44,0.29-0.7c0-0.271-0.11-0.521-0.29-0.71
		c-0.37-0.37-1.04-0.38-1.42,0C20.11,27.149,20,27.399,20,27.67c0,0.26,0.11,0.52,0.29,0.7C20.48,28.559,20.74,28.67,21,28.67z"/>
</g>
<g>
</g>
<g>
</g>
<g>
</g>
<g>
</g>
<g>
</g>
<g>
</g>
<g>
</g>
<g>
</g>
<g>
</g>
<g>
</g>
<g>
</g>
<g>
</g>
<g>
</g>
<g>
</g>
<g>
</g>
</svg>
