<?xml version="1.0" encoding="iso-8859-1"?>
<!-- Generator: Adobe Illustrator 17.1.0, SVG Export Plug-In . SVG Version: 6.00 Build 0)  -->
<!DOCTYPE svg PUBLIC "-//W3C//DTD SVG 1.1//EN" "http://www.w3.org/Graphics/SVG/1.1/DTD/svg11.dtd">
<svg version="1.1" id="Capa_1" xmlns="http://www.w3.org/2000/svg" xmlns:xlink="http://www.w3.org/1999/xlink" x="0px" y="0px"
	 viewBox="0 0 490 490" style="enable-background:new 0 0 490 490;" xml:space="preserve">
<g>
	<g>
		<path d="M488.844,88.73c-1.123-1.754-2.929-2.957-4.979-3.318c-31.817-5.61-44.411-13.189-56.591-20.519
			c-10.27-6.179-29.813-16.004-43.097-18.292c-15.733-2.709-34.991,0.155-46.754,2.45c-13.951,2.721-28.378,5.535-60.195-0.075
			c-2.051-0.361-4.536,0.037-6.192,1.3c-1.655,1.264-2.624,3.149-2.518,5.352c0.076,1.596,15.499,239.858,9.843,262.925
			c-5.657,23.067-13.057,46.003-15.04,61.774c-3.826,30.394,19.329,57.538,50.479,63.03c0.136,0.024,0.678,0.12,0.814,0.143
			c31.15,5.493,62.192-12.094,68.994-41.963c3.528-15.499,4.421-39.582,6.994-63.193c2.573-23.61,97.172-234.319,99.174-243.702
			C490.26,92.612,489.967,90.484,488.844,88.73z M361.182,367.945l-4.336,24.595c-3.271,18.543-20.953,30.926-39.496,27.656
			c-18.544-3.27-30.926-20.954-27.655-39.497l4.336-24.595c3.271-18.543,20.953-30.926,39.497-27.656
			C352.071,331.718,364.452,349.402,361.182,367.945z"/>
	</g>
	<g>
		<path d="M0.225,94.641c2.002,9.383,96.6,220.092,99.174,243.702c2.573,23.611,3.466,47.695,6.994,63.193
			c6.802,29.869,37.844,47.456,68.994,41.963c0.136-0.023,0.678-0.119,0.813-0.143c31.151-5.492,54.307-32.637,50.48-63.03
			c-1.983-15.771-9.383-38.707-15.04-61.774c-5.657-23.067,9.767-261.329,9.843-262.925c0.105-2.202-0.863-4.088-2.519-5.352
			c-1.656-1.263-4.142-1.662-6.192-1.3c-31.817,5.61-46.244,2.796-60.196,0.075c-11.762-2.295-31.02-5.16-46.753-2.45
			c-13.284,2.288-32.827,12.114-43.097,18.292c-12.18,7.33-24.773,14.908-56.591,20.519c-2.051,0.361-3.856,1.565-4.98,3.318
			C0.033,90.484-0.26,92.612,0.225,94.641z M156.472,328.448c18.544-3.27,36.227,9.112,39.497,27.656l4.336,24.595
			c3.27,18.542-9.111,36.227-27.655,39.497c-18.543,3.27-36.227-9.113-39.496-27.656l-4.336-24.595
			C125.548,349.402,137.929,331.718,156.472,328.448z"/>
	</g>
</g>
<g>
</g>
<g>
</g>
<g>
</g>
<g>
</g>
<g>
</g>
<g>
</g>
<g>
</g>
<g>
</g>
<g>
</g>
<g>
</g>
<g>
</g>
<g>
</g>
<g>
</g>
<g>
</g>
<g>
</g>
</svg>
