<?xml version="1.0" encoding="iso-8859-1"?>
<!-- Generator: Adobe Illustrator 18.0.0, SVG Export Plug-In . SVG Version: 6.00 Build 0)  -->
<!DOCTYPE svg PUBLIC "-//W3C//DTD SVG 1.1//EN" "http://www.w3.org/Graphics/SVG/1.1/DTD/svg11.dtd">
<svg version="1.1" id="Capa_1" xmlns="http://www.w3.org/2000/svg" xmlns:xlink="http://www.w3.org/1999/xlink" x="0px" y="0px"
	 viewBox="0 0 30.046 30.046" style="enable-background:new 0 0 30.046 30.046;" xml:space="preserve">
<g>
	<path d="M28.55,0.938c-0.428-0.35-1.059-0.287-1.409,0.141l-8.426,10.296c0.231,0.19,0.446,0.398,0.651,0.615l9.269-9.581
		c0.019-0.02,0.038-0.041,0.055-0.062C29.041,1.919,28.978,1.288,28.55,0.938z"/>
	<path d="M24.456,1.575c0.015-0.022,0.031-0.046,0.045-0.07c0.278-0.478,0.117-1.09-0.361-1.369c-0.477-0.279-1.09-0.117-1.369,0.36
		l-5.743,9.851c0.327,0.141,0.638,0.311,0.937,0.497L24.456,1.575z"/>
	<path d="M10.891,7.372c1.834,0,3.424,0.999,4.3,2.47c0.44,0.06,0.868,0.158,1.278,0.295c-0.895-2.205-3.057-3.766-5.579-3.766
		c-2.522,0-4.685,1.561-5.58,3.766C5.723,10,6.15,9.902,6.59,9.842C7.466,8.37,9.057,7.372,10.891,7.372z"/>
	<path d="M10.891,8.382c-1.212,0-2.287,0.551-3.023,1.403c0.434,0.019,0.859,0.075,1.27,0.17c0.495-0.357,1.098-0.573,1.753-0.573
		c0.656,0,1.258,0.216,1.753,0.573c0.411-0.095,0.835-0.15,1.27-0.17C13.177,8.933,12.103,8.382,10.891,8.382z"/>
	<path d="M1.366,17.992c-0.151,0.682-0.237,1.388-0.237,2.116c0,3.479,1.825,6.524,4.565,8.253v0.462
		c0,0.676,0.548,1.224,1.224,1.224h8.089c0.453,0,1.081-0.484,1.081-1.224v-0.462c2.739-1.729,4.565-4.774,4.565-8.253
		c0-0.727-0.085-1.434-0.236-2.116H1.366z"/>
	<path d="M19.752,16.848h0.558c0-3.352-2.727-6.079-6.078-6.079c-0.839,0-1.639,0.171-2.367,0.48
		c0.338,0.261,0.651,0.552,0.937,0.869c0.456-0.139,0.93-0.235,1.431-0.235c2.737,0,4.964,2.228,4.964,4.965H19.752z"/>
	<path d="M17.187,16.848h1.009H18.3c0-2.244-1.825-4.069-4.068-4.069c-0.286,0-0.564,0.031-0.834,0.087
		c0.226,0.331,0.42,0.684,0.587,1.051c0.083-0.007,0.162-0.025,0.247-0.025C15.861,13.893,17.187,15.218,17.187,16.848z"/>
	<path d="M14.573,16.003c0.334,0.136,0.573,0.462,0.573,0.844h1.113c0-1.083-0.856-1.963-1.927-2.016
		C14.444,15.21,14.524,15.602,14.573,16.003z"/>
	<path d="M2.585,16.848c0-2.737,2.228-4.965,4.965-4.965c2.738,0,4.964,2.228,4.964,4.965h0.557h0.247h0.31
		c0-3.352-2.726-6.079-6.078-6.079c-3.352,0-6.079,2.727-6.079,6.079h0.557H2.585z"/>
	<path d="M10.505,16.848h0.772h0.238h0.104c0-2.244-1.825-4.069-4.068-4.069c-2.244,0-4.069,1.825-4.069,4.069h0.104h1.01
		c0-1.629,1.326-2.955,2.956-2.955S10.505,15.218,10.505,16.848z"/>
	<path d="M5.523,16.848h1.114c0-0.503,0.41-0.913,0.914-0.913c0.504,0,0.914,0.41,0.914,0.913H8.71h0.557h0.311
		c0-1.118-0.91-2.026-2.027-2.026S5.523,15.73,5.523,16.848z"/>
</g>
<g>
</g>
<g>
</g>
<g>
</g>
<g>
</g>
<g>
</g>
<g>
</g>
<g>
</g>
<g>
</g>
<g>
</g>
<g>
</g>
<g>
</g>
<g>
</g>
<g>
</g>
<g>
</g>
<g>
</g>
</svg>
