<?xml version='1.0' encoding='iso-8859-1'?>
<svg version="1.1" xmlns="http://www.w3.org/2000/svg" viewBox="0 0 463 463" xmlns:xlink="http://www.w3.org/1999/xlink" enable-background="new 0 0 463 463">
  <path d="m320.083,198.978c4.13-0.322 7.217-3.931 6.895-8.06-0.322-4.13-3.945-7.212-8.06-6.895-27.716,2.16-56.74,15.627-75.522,30.656 11.877-19.719 42.732-45.476 68.745-47.706 4.127-0.354 7.186-3.986 6.832-8.113-0.354-4.126-3.975-7.182-8.113-6.832-26.86,2.302-55.017,22.737-71.86,43.268v-18.09c7.411-13.831 43.876-39.329 81.083-42.228 4.13-0.322 7.217-3.931 6.895-8.06-0.322-4.13-3.945-7.214-8.06-6.895-27.716,2.16-56.74,15.627-75.522,30.656 11.877-19.719 42.732-45.476 68.745-47.706 4.127-0.354 7.186-3.986 6.832-8.113-0.354-4.126-3.975-7.177-8.113-6.832-26.86,2.302-55.017,22.737-71.86,43.268v-18.381c6.305-15.115 36.997-39.261 65.211-41.948 4.124-0.393 7.148-4.054 6.755-8.177-0.393-4.124-4.059-7.151-8.177-6.755-21.064,2.006-43.002,13.503-58.526,27.017 3.85-7.08 9.369-14.743 15.724-21.561 12.266-13.161 25.502-21.373 36.313-22.531 4.119-0.441 7.1-4.138 6.659-8.256-0.442-4.119-4.14-7.095-8.256-6.659-13.76,1.474-27.909,10.109-39.928,21.42 7.329-14.441 14.335-21.78 18.298-22.629 4.05-0.868 6.63-4.855 5.762-8.905-0.868-4.05-4.857-6.63-8.905-5.762-13.241,2.837-24.085,20.74-30.852,35.259-0.026,0.056-0.051,0.114-0.077,0.17v-36.098c0-4.142-3.358-7.5-7.5-7.5s-7.501,3.358-7.501,7.5v36.096c-0.026-0.056-0.051-0.114-0.077-0.17-6.766-14.519-17.611-32.422-30.852-35.259-4.052-0.87-8.037,1.712-8.905,5.762-0.868,4.05 1.712,8.037 5.762,8.905 3.963,0.849 10.97,8.188 18.298,22.629-12.019-11.312-26.168-19.946-39.928-21.42-4.114-0.431-7.814,2.54-8.256,6.659-0.441,4.118 2.54,7.815 6.659,8.256 19.194,2.056 41.843,25.083 52.148,44.19-15.531-13.555-37.524-25.103-58.639-27.113-4.113-0.387-7.784,2.631-8.177,6.755-0.393,4.124 2.632,7.785 6.755,8.177 28.214,2.687 58.906,26.833 65.211,41.948v18.381c-16.843-20.531-45-40.966-71.859-43.268-4.127-0.346-7.76,2.706-8.113,6.832-0.354,4.127 2.705,7.759 6.832,8.113 26.013,2.23 56.868,27.987 68.745,47.706-18.782-15.029-47.806-28.496-75.522-30.656-4.117-0.31-7.738,2.766-8.06,6.895-0.322,4.129 2.765,7.738 6.895,8.06 37.207,2.899 73.672,28.397 81.083,42.228v18.09c-16.843-20.531-45-40.966-71.859-43.268-4.127-0.35-7.76,2.706-8.113,6.832-0.354,4.127 2.705,7.759 6.832,8.113 26.013,2.23 56.868,27.987 68.745,47.706-18.782-15.029-47.806-28.496-75.522-30.656-4.117-0.316-7.738,2.766-8.06,6.895-0.322,4.129 2.765,7.738 6.895,8.06 37.207,2.899 73.672,28.397 81.083,42.228v18.09c-16.843-20.531-45-40.966-71.859-43.268-4.127-0.345-7.76,2.706-8.113,6.832-0.354,4.127 2.705,7.759 6.832,8.113 26.013,2.23 56.868,27.987 68.745,47.706-18.782-15.029-47.806-28.496-75.522-30.656-4.117-0.313-7.738,2.765-8.06,6.895-0.322,4.129 2.765,7.738 6.895,8.06 37.207,2.899 73.672,28.397 81.083,42.228v18.09c-16.843-20.531-45-40.966-71.859-43.268-4.127-0.35-7.76,2.706-8.113,6.832-0.354,4.127 2.705,7.759 6.832,8.113 26.013,2.23 56.868,27.987 68.745,47.706-18.782-15.029-47.806-28.496-75.522-30.656-4.117-0.309-7.738,2.766-8.06,6.895-0.322,4.129 2.765,7.738 6.895,8.06 37.207,2.899 73.672,28.397 81.083,42.228v18.09c-16.843-20.531-45-40.966-71.859-43.268-4.127-0.345-7.76,2.706-8.113,6.832-0.354,4.127 2.705,7.759 6.832,8.113 23.108,1.981 50.036,22.528 64.09,40.916-15.191-12.109-35.337-22.007-54.738-23.855-4.113-0.388-7.784,2.631-8.177,6.755-0.393,4.124 2.632,7.785 6.755,8.177 28.214,2.687 58.906,26.833 65.211,41.948v22.586c0,4.142 3.358,7.5 7.5,7.5s7.5-3.358 7.5-7.5v-22.586c6.305-15.115 36.997-39.261 65.211-41.948 4.124-0.393 7.148-4.054 6.755-8.177-0.393-4.124-4.059-7.153-8.177-6.755-19.401,1.848-39.547,11.745-54.738,23.855 14.054-18.388 40.982-38.935 64.09-40.916 4.127-0.354 7.186-3.986 6.832-8.113-0.354-4.126-3.975-7.176-8.113-6.832-26.864,2.302-55.021,22.737-71.864,43.268v-18.09c7.411-13.831 43.876-39.329 81.083-42.228 4.13-0.322 7.217-3.931 6.895-8.06-0.322-4.13-3.945-7.21-8.06-6.895-27.716,2.16-56.74,15.627-75.522,30.656 11.877-19.719 42.732-45.476 68.745-47.706 4.127-0.354 7.186-3.986 6.832-8.113-0.354-4.126-3.975-7.181-8.113-6.832-26.86,2.302-55.017,22.737-71.86,43.268v-18.09c7.411-13.831 43.876-39.329 81.083-42.228 4.13-0.322 7.217-3.931 6.895-8.06-0.322-4.13-3.945-7.211-8.06-6.895-27.716,2.16-56.74,15.627-75.522,30.656 11.877-19.719 42.732-45.476 68.745-47.706 4.127-0.354 7.186-3.986 6.832-8.113-0.354-4.126-3.975-7.177-8.113-6.832-26.86,2.302-55.017,22.737-71.86,43.268v-18.09c7.411-13.831 43.876-39.329 81.083-42.228z"/>
</svg>
