<?xml version="1.0" encoding="iso-8859-1"?>
<!-- Generator: Adobe Illustrator 16.0.0, SVG Export Plug-In . SVG Version: 6.00 Build 0)  -->
<!DOCTYPE svg PUBLIC "-//W3C//DTD SVG 1.1//EN" "http://www.w3.org/Graphics/SVG/1.1/DTD/svg11.dtd">
<svg version="1.1" id="Capa_1" xmlns="http://www.w3.org/2000/svg" xmlns:xlink="http://www.w3.org/1999/xlink" x="0px" y="0px"
	 width="729.847px" height="729.848px" viewBox="0 0 729.847 729.848" style="enable-background:new 0 0 729.847 729.848;"
	 xml:space="preserve">
<g>
	<g>
		<path d="M649.348,363.352v-31.95c1.885-65.093-2.771-136.624-70.596-185.749c-6.4-4.63-13.352-9.068-20.933-13.275
			c-3.783-2.104-20.149-13.532-24.254-15.52C530.064,104.559,528.744,0,528.744,0s-60.848,82.434-236.99,93.311
			c0,0-157.236,8.26-188.121,75.417c-17.969,39.056-23.959,76.034-22.625,123.657l0.116,4.361
			c0.282,10.633,0.577,21.625,0.577,33.246l0.859,29.038c-19.214,19.984-33.22,58.128-15.481,130.89
			c7.927,31.861,28.654,59.334,53.626,72.508c0.603,1.846,1.244,3.795,1.911,5.848c12.313,37.799,35.22,108.176,71.736,152.209
			l7.773,9.363H528.91l7.761-9.326c31.129-37.35,53.151-103.404,69.223-151.631c0.269-0.807,0.538-1.615,0.795-2.41
			c25.742-14.969,45.931-42.66,54.023-75.072c3.617-14.48,9.671-38.734,10.171-63.143
			C671.588,395.033,661.328,375.191,649.348,363.352z M145.048,514.957V366.598h439.784v148.359H420.965l-12.134-52.549h-87.783
			l-12.133,52.549H145.048L145.048,514.957z M564.452,285.921h32.501c0.987,13.557,1.077,28.282,0.603,44.34v13.557h-142.96
			C474.271,320.41,512.146,285.921,564.452,285.921z M443.5,284.625l-3.181,59.192H133.928l-0.423-14.237
			c-0.013-12.159-0.308-23.369-0.59-34.22C294.55,350.603,443.5,284.625,443.5,284.625z M556.768,552.486
			c-12.62,37.863-31.077,93.246-52.92,125.529H227.072c-26.371-37.26-44.866-94.092-55.191-125.811
			c-1.783-5.49-3.386-10.402-4.784-14.48h159.942l12.134-52.537h51.549l12.134,52.537h158.864l-0.705,2.104
			C559.655,543.803,558.244,548.035,556.768,552.486z"/>
		<g>
			<rect x="161.132" y="391.377" width="138.15" height="98.262"/>
			<path d="M545.777,414.336v52.33h-92.208v-52.33H545.777 M568.735,391.377H430.597v98.262h138.138V391.377L568.735,391.377z"/>
		</g>
	</g>
</g>
<g>
</g>
<g>
</g>
<g>
</g>
<g>
</g>
<g>
</g>
<g>
</g>
<g>
</g>
<g>
</g>
<g>
</g>
<g>
</g>
<g>
</g>
<g>
</g>
<g>
</g>
<g>
</g>
<g>
</g>
</svg>
