<?xml version="1.0" encoding="iso-8859-1"?>
<!-- Generator: Adobe Illustrator 17.1.0, SVG Export Plug-In . SVG Version: 6.00 Build 0)  -->
<!DOCTYPE svg PUBLIC "-//W3C//DTD SVG 1.1//EN" "http://www.w3.org/Graphics/SVG/1.1/DTD/svg11.dtd">
<svg version="1.1" id="Capa_1" xmlns="http://www.w3.org/2000/svg" xmlns:xlink="http://www.w3.org/1999/xlink" x="0px" y="0px"
	 viewBox="0 0 210.517 210.517" style="enable-background:new 0 0 210.517 210.517;" xml:space="preserve">
<path d="M113.668,24.071c0,10.098-8.216,18.314-18.313,18.314c-10.098,0-18.313-8.216-18.313-18.314
	c0-10.099,8.216-18.314,18.313-18.314C105.452,5.757,113.668,13.973,113.668,24.071z M205.951,117.805
	c-9.686,25.053-33.299,41.884-58.759,41.884c-1.767,0-3.536-0.087-5.296-0.253l-12.627,32.586c-0.768,1.981-2.659,3.194-4.663,3.194
	c-0.601,0-1.212-0.108-1.806-0.339l-9.055-3.509c-0.018,1.925-1.149,3.75-3.033,4.554l-19.778,8.437
	c-0.64,0.273-1.306,0.402-1.96,0.402c-1.942,0-3.79-1.139-4.601-3.039l-13.731-32.191c-0.216,0.027-0.434,0.036-0.65,0.06
	c-0.47,0.053-0.941,0.089-1.412,0.131c-0.596,0.052-1.191,0.113-1.789,0.146c-0.663,0.038-1.327,0.047-1.991,0.061
	c-0.415,0.009-0.829,0.038-1.243,0.038c-2.289,0-4.573-0.141-6.843-0.407c-0.091-0.01-0.181-0.024-0.271-0.035
	c-0.622-0.076-1.242-0.159-1.862-0.255c-0.254-0.039-0.507-0.083-0.76-0.126c-0.44-0.074-0.88-0.149-1.318-0.232
	c-0.392-0.074-0.782-0.155-1.172-0.237c-0.284-0.06-0.567-0.119-0.851-0.183c-0.516-0.116-1.03-0.24-1.542-0.37
	c-0.141-0.036-0.281-0.071-0.422-0.108c-0.633-0.165-1.264-0.34-1.891-0.525c-0.004-0.001-0.007-0.002-0.01-0.003
	c-17.956-5.299-33.231-18.809-41.162-37.363C-8.443,97.617,5.142,60.527,35.737,47.448c7.154-3.058,14.73-4.608,22.517-4.608
	c15.987,0,31.085,6.409,42.603,17.36c11.828-17.077,30.97-27.815,51.295-27.815c7.083,0,14.027,1.296,20.64,3.854
	C203.827,48.238,218.702,84.829,205.951,117.805z M104.529,168.682l8.012-20.674c-0.079-0.06-0.154-0.124-0.232-0.185
	c-0.011-0.009-0.022-0.018-0.034-0.027c-0.672-0.516-1.332-1.046-1.98-1.59c-0.033-0.028-0.065-0.057-0.098-0.085
	c-2.986,4.105-6.517,7.84-10.558,11.096L104.529,168.682z M102.19,188.685l-13.294-31.166c-0.929-2.177-0.204-4.706,1.735-6.061
	c7.663-5.354,13.569-12.854,17.185-21.67L45.23,156.442c5.891,2.322,12.095,3.526,18.326,3.526c3.087,0,6.178-0.301,9.186-0.895
	c0.324-0.064,0.649-0.095,0.97-0.095c1.971,0,3.8,1.169,4.597,3.038l13.302,31.182L102.19,188.685z M166.903,145.512l-47.458-18.423
	c-1.025,3.57-2.362,7.027-3.996,10.334c1.841,1.665,3.804,3.198,5.897,4.564c1.979,1.291,2.784,3.791,1.931,5.994l-12.25,31.609
	l10.726,4.156l12.243-31.594c0.855-2.207,3.145-3.513,5.474-3.127c2.526,0.416,5.111,0.626,7.684,0.626
	C153.915,149.651,160.607,148.237,166.903,145.512z"/>
<g>
</g>
<g>
</g>
<g>
</g>
<g>
</g>
<g>
</g>
<g>
</g>
<g>
</g>
<g>
</g>
<g>
</g>
<g>
</g>
<g>
</g>
<g>
</g>
<g>
</g>
<g>
</g>
<g>
</g>
</svg>
