<?xml version="1.0" encoding="iso-8859-1"?>
<!-- Generator: Adobe Illustrator 18.0.0, SVG Export Plug-In . SVG Version: 6.00 Build 0)  -->
<!DOCTYPE svg PUBLIC "-//W3C//DTD SVG 1.1//EN" "http://www.w3.org/Graphics/SVG/1.1/DTD/svg11.dtd">
<svg version="1.1" id="Capa_1" xmlns="http://www.w3.org/2000/svg" xmlns:xlink="http://www.w3.org/1999/xlink" x="0px" y="0px"
	 viewBox="0 0 59 59" style="enable-background:new 0 0 59 59;" xml:space="preserve">
<g>
	<path d="M31.455,36.773c-0.386,0.236-0.766,0.495-1.136,0.767c-1.354-0.53-2.807-0.679-4.252-0.382
		c-3.041,0.626-5.461,3.207-5.886,6.277c-0.305,2.201,0.36,4.407,1.823,6.05C23.431,51.089,25.465,52,27.607,52
		c0.055,0,0.109-0.001,0.164-0.002c2.893-0.063,5.539-1.9,6.741-4.685c0.556-1.289,0.697-2.64,0.467-4.021
		c0.363-0.276,0.697-0.567,1.008-0.893c1.283-1.342,1.353-3.306,0.169-4.775C34.972,36.155,33.039,35.804,31.455,36.773z
		 M32.677,46.521c-0.893,2.067-2.835,3.433-4.948,3.478c-1.63,0.047-3.158-0.636-4.232-1.843c-1.073-1.205-1.56-2.825-1.335-4.446
		c0.311-2.245,2.082-4.134,4.308-4.592c0.377-0.078,0.756-0.116,1.132-0.116c0.26,0,0.519,0.019,0.775,0.055
		c-1.033,0.88-1.946,1.758-2.61,2.428c-0.773,0.781-0.962,1.97-0.469,2.958l0.766,1.531h0c0.315,0.631,0.885,1.108,1.563,1.312
		c0.681,0.204,1.423,0.118,2.036-0.237c1.282-0.741,2.43-1.477,3.43-2.196C33.053,45.417,32.914,45.971,32.677,46.521z
		 M34.542,41.018c-0.92,0.964-2.222,1.642-4.379,2.765c-0.687,0.358-1.469,0.767-2.341,1.236l-0.735-1.47
		c-0.022-0.044-0.012-0.093-0.022-0.139c0.636-0.759,2.945-3.408,5.433-4.928c0.88-0.537,1.683-0.121,2.102,0.398
		C35.019,39.399,35.255,40.271,34.542,41.018z"/>
	<path d="M29.5,0C14.888,0,3,11.888,3,26.5v10.979c0,0,0,0.002,0,0.003c0,0.003,0,0.005,0,0.007c0,0.004,0,0.008,0,0.012V51
		c0,2.757,2.243,5,5,5h6.55c0.046,0.022,0.096,0.04,0.142,0.062c3.51,1.654,7.728,2.643,12.542,2.878
		c0.107,0.005,0.214,0.011,0.322,0.016C28.195,58.982,28.84,59,29.5,59s1.305-0.018,1.945-0.045c0.108-0.005,0.215-0.01,0.322-0.016
		c4.814-0.235,9.032-1.224,12.542-2.878c0.046-0.022,0.096-0.04,0.142-0.062H51c2.757,0,5-2.243,5-5V26.5C56,11.888,44.112,0,29.5,0
		z M43.993,54l-0.207,0.101c-2.828,1.374-6.204,2.271-9.917,2.666c-0.271,0.027-0.542,0.056-0.818,0.078
		c-0.392,0.033-0.787,0.062-1.187,0.084C31.09,56.969,30.309,57,29.5,57s-1.59-0.031-2.364-0.072
		c-0.399-0.022-0.794-0.051-1.187-0.084c-0.276-0.022-0.547-0.05-0.818-0.078c-3.712-0.394-7.089-1.292-9.917-2.666L15.007,54
		h-0.089C8.547,50.783,5,45.095,5,37.5c0-0.004,0-0.007,0-0.011c0-0.002,0-0.004,0-0.006c0-0.001,0-0.002,0-0.004
		C5.012,24.628,15.795,13.647,29,13l0.951-0.001C43.212,13.647,54,24.639,54,37.5c0,7.595-3.547,13.283-9.918,16.5H43.993z M8,54
		c-1.654,0-3-1.346-3-3v-4.226c1.384,2.876,3.459,5.308,6.148,7.226H8z M54,51c0,1.654-1.346,3-3,3h-3.148
		c2.689-1.917,4.764-4.349,6.148-7.226V51z M30,11l-1.049,0.001C18.165,11.529,8.911,18.42,5,27.735V26.5C5,12.99,15.991,2,29.5,2
		S54,12.99,54,26.5v1.198C50.079,18.398,40.811,11.528,30,11z"/>
	<path d="M25,28.5c0-3.584-2.916-6.5-6.5-6.5S12,24.916,12,28.5s2.916,6.5,6.5,6.5S25,32.084,25,28.5z M14,28.5
		c0-2.481,2.019-4.5,4.5-4.5c1.08,0,2.058,0.398,2.834,1.034C21.223,25.023,21.115,25,21,25c-1.933,0-3.5,1.567-3.5,3.5
		S19.067,32,21,32c0.115,0,0.223-0.023,0.334-0.034C20.558,32.602,19.58,33,18.5,33C16.019,33,14,30.981,14,28.5z"/>
	<path d="M39.5,22c-3.584,0-6.5,2.916-6.5,6.5s2.916,6.5,6.5,6.5s6.5-2.916,6.5-6.5S43.084,22,39.5,22z M35,28.5
		c0-2.481,2.019-4.5,4.5-4.5c1.08,0,2.058,0.398,2.834,1.034C42.223,25.023,42.115,25,42,25c-1.933,0-3.5,1.567-3.5,3.5
		S40.067,32,42,32c0.115,0,0.223-0.023,0.334-0.034C41.558,32.602,40.58,33,39.5,33C37.019,33,35,30.981,35,28.5z"/>
</g>
<g>
</g>
<g>
</g>
<g>
</g>
<g>
</g>
<g>
</g>
<g>
</g>
<g>
</g>
<g>
</g>
<g>
</g>
<g>
</g>
<g>
</g>
<g>
</g>
<g>
</g>
<g>
</g>
<g>
</g>
</svg>
