<?xml version="1.0" encoding="iso-8859-1"?>
<!-- Generator: Adobe Illustrator 18.0.0, SVG Export Plug-In . SVG Version: 6.00 Build 0)  -->
<!DOCTYPE svg PUBLIC "-//W3C//DTD SVG 1.1//EN" "http://www.w3.org/Graphics/SVG/1.1/DTD/svg11.dtd">
<svg version="1.1" id="Capa_1" xmlns="http://www.w3.org/2000/svg" xmlns:xlink="http://www.w3.org/1999/xlink" x="0px" y="0px"
	 viewBox="0 0 60.003 60.003" style="enable-background:new 0 0 60.003 60.003;" xml:space="preserve">
<g>
	<path d="M59.796,26.569c-0.402-1.698-1.366-3.157-2.578-3.903c-0.811-0.5-1.677-0.66-2.507-0.461
		c-0.189,0.045-0.372,0.115-0.549,0.198c-2.336-5.685-5.98-9.364-9.727-11.737l1.36-2.72c0.247-0.494,0.047-1.095-0.447-1.342
		c-0.496-0.245-1.095-0.046-1.342,0.447l-1.303,2.605c-0.617-0.327-1.231-0.626-1.837-0.892l0.983-2.95
		c0.175-0.524-0.108-1.091-0.632-1.265c-0.527-0.176-1.09,0.108-1.265,0.632l-0.948,2.844c-0.693-0.248-1.366-0.461-2.011-0.642
		l0.857-2.57c0.175-0.524-0.108-1.091-0.632-1.265c-0.526-0.177-1.091,0.108-1.265,0.632l-0.908,2.724
		C33.779,6.641,32.7,6.495,31.9,6.418V4.499c0-0.553-0.448-1-1-1s-1,0.447-1,1v1.848c-0.525,0.027-1.443,0.1-2.631,0.286
		l-0.383-2.298c-0.091-0.545-0.602-0.921-1.151-0.822c-0.544,0.091-0.913,0.606-0.822,1.15l0.391,2.345
		c-1.071,0.241-2.258,0.574-3.507,1.02l-0.948-2.845c-0.175-0.523-0.74-0.808-1.265-0.632c-0.524,0.174-0.807,0.74-0.632,1.265
		l0.983,2.949c-0.863,0.378-1.742,0.818-2.622,1.323l-1.518-3.036c-0.247-0.493-0.847-0.692-1.342-0.447
		c-0.494,0.247-0.694,0.848-0.447,1.342l1.602,3.205c-0.881,0.602-1.75,1.285-2.595,2.047l-2.406-2.406
		c-0.391-0.391-1.023-0.391-1.414,0s-0.391,1.023,0,1.414l2.386,2.386c-3.075,3.271-5.644,7.835-6.825,14.215
		c-0.015,0.083-0.025,0.166-0.04,0.249c-0.254-0.07-0.512-0.118-0.776-0.118C1.73,28.939,0,31.322,0,34.363s1.73,5.424,3.939,5.424
		c0.403,0,0.798-0.102,1.177-0.267c0.701,2.671,1.863,5.179,3.459,7.379c3.245,4.472,9.655,9.793,21.817,9.602
		c0.186,0.003,0.368,0.004,0.551,0.004c11.797,0,18.071-5.202,21.266-9.605c2.881-3.971,4.346-8.947,4.23-14.077
		c0.035,0.001,0.071,0.014,0.106,0.014c0.227,0,0.451-0.025,0.67-0.078C59.363,32.245,60.497,29.527,59.796,26.569z M4.674,37.489
		c-0.206,0.166-0.456,0.298-0.734,0.298C3.022,37.787,2,36.38,2,34.363s1.022-3.424,1.939-3.424c0.167,0,0.336,0.047,0.504,0.139
		c-0.049,0.533-0.081,1.065-0.096,1.596c-0.001,0.035,0,0.071-0.001,0.106c-0.011,0.442-0.009,0.883,0.004,1.323
		c0.004,0.139,0.009,0.278,0.015,0.417c0.016,0.355,0.041,0.708,0.073,1.06c0.013,0.145,0.022,0.291,0.037,0.435
		c0.047,0.438,0.106,0.872,0.177,1.304C4.66,37.376,4.664,37.433,4.674,37.489z M50.59,45.725
		c-4.316,5.949-11.084,8.93-20.184,8.775h-0.014h-0.014c-9.091,0.162-15.868-2.826-20.185-8.775
		c-2.062-2.843-3.329-6.257-3.726-9.868c-0.008-0.075-0.009-0.152-0.017-0.227c-0.057-0.573-0.089-1.151-0.102-1.732
		c-0.005-0.249-0.001-0.498,0.002-0.748c0.004-0.409,0.021-0.82,0.047-1.231c0.019-0.293,0.039-0.585,0.069-0.879
		c0.064-0.623,0.138-1.246,0.253-1.869c1.097-5.929,3.438-10.164,6.237-13.2l1.235,1.235c0.195,0.195,0.451,0.293,0.707,0.293
		s0.512-0.098,0.707-0.293c0.391-0.391,0.391-1.023,0-1.414l-1.229-1.229c0.684-0.619,1.384-1.181,2.094-1.683l0.533,1.067
		c0.175,0.351,0.528,0.553,0.896,0.553c0.15,0,0.303-0.034,0.446-0.105c0.494-0.247,0.694-0.848,0.447-1.342l-0.628-1.256
		c0.795-0.464,1.59-0.872,2.372-1.22l0.413,1.24c0.14,0.419,0.53,0.684,0.949,0.684c0.104,0,0.211-0.017,0.316-0.052
		c0.524-0.174,0.807-0.74,0.632-1.265l-0.45-1.349c1.148-0.407,2.235-0.7,3.224-0.917l0.291,1.747
		c0.082,0.489,0.505,0.836,0.985,0.836c0.054,0,0.11-0.004,0.166-0.014c0.544-0.091,0.913-0.606,0.822-1.15l-0.296-1.777
		c1.021-0.146,1.824-0.201,2.31-0.22v2.161c0,0.553,0.448,1,1,1s1-0.447,1-1V8.416c0.666,0.065,1.521,0.178,2.516,0.374
		l-0.464,1.393c-0.175,0.524,0.108,1.091,0.632,1.265c0.105,0.035,0.212,0.052,0.316,0.052c0.419,0,0.809-0.265,0.949-0.684
		l0.522-1.565c0.644,0.176,1.318,0.385,2.014,0.634l-0.433,1.298c-0.175,0.524,0.108,1.091,0.632,1.265
		c0.105,0.035,0.212,0.052,0.316,0.052c0.419,0,0.809-0.265,0.949-0.684l0.395-1.184c0.177,0.079,0.353,0.153,0.531,0.238
		c0.36,0.171,0.707,0.353,1.053,0.538l-0.822,1.645c-0.247,0.494-0.047,1.095,0.447,1.342c0.144,0.071,0.296,0.105,0.446,0.105
		c0.367,0,0.72-0.202,0.896-0.553l0.763-1.526c4.174,2.689,7.196,6.516,9.039,11.43l-0.003,0.003l0.182,0.513
		c0.271,0.762,0.506,1.524,0.715,2.296c0.016,0.059,0.031,0.118,0.046,0.177c0.201,0.76,0.376,1.528,0.523,2.319
		c0.001,0.005,0.002,0.009,0.003,0.014c0.124,0.668,0.207,1.336,0.272,2.004c0.011,0.113,0.026,0.223,0.035,0.337
		C54.794,36.684,53.466,41.76,50.59,45.725z M56.751,30.813c-0.137,0.031-0.281,0.031-0.436-0.001
		c-0.004-0.041-0.012-0.078-0.017-0.118c-0.068-0.626-0.152-1.252-0.268-1.878c-0.001-0.003-0.001-0.006-0.001-0.009
		c-0.002-0.012-0.006-0.024-0.008-0.037c-0.141-0.755-0.304-1.48-0.482-2.186c-0.023-0.091-0.051-0.18-0.075-0.271
		c-0.177-0.677-0.371-1.33-0.581-1.962c-0.007-0.02-0.011-0.04-0.018-0.06c0.101-0.069,0.204-0.116,0.31-0.142
		c0.379-0.094,0.75,0.067,0.994,0.219c0.758,0.467,1.402,1.486,1.68,2.661C58.315,28.994,57.644,30.6,56.751,30.813z"/>
	<path d="M44,38.73H18.011c-0.552,0-1,0.479-1,1.031c0,4.239,2.396,8.147,6.104,9.957c2.394,1.169,5.119,1.786,7.88,1.786
		c2.759,0,5.486-0.616,7.886-1.782c3.729-1.812,6.13-5.735,6.118-9.995C44.999,39.176,44.551,38.73,44,38.73z M38.008,47.923
		c-4.258,2.068-9.771,2.068-14.015-0.002c-0.318-0.155-0.622-0.334-0.915-0.526c0.47-1.297,3.656-2.208,7.93-2.208
		c4.27,0,7.455,0.908,7.934,2.201C38.643,47.585,38.333,47.766,38.008,47.923z M40.499,46.071c-1.214-1.83-4.568-2.883-9.492-2.883
		c-4.926,0-8.28,1.055-9.49,2.89c-1.355-1.436-2.242-3.314-2.456-5.348h23.887C42.736,42.762,41.852,44.637,40.499,46.071z"/>
	<path d="M17.293,34.211c0.195,0.195,0.451,0.293,0.707,0.293s0.512-0.098,0.707-0.293l6.999-6.999
		c0.093-0.093,0.166-0.203,0.217-0.326c0.101-0.244,0.101-0.52,0-0.764c-0.051-0.123-0.124-0.233-0.217-0.326l-6.999-6.999
		c-0.391-0.391-1.023-0.391-1.414,0s-0.391,1.023,0,1.414l5.293,5.293H18c-0.552,0-1,0.447-1,1s0.448,1,1,1h4.586l-5.293,5.293
		C16.902,33.188,16.902,33.821,17.293,34.211z"/>
	<path d="M44.707,18.797c-0.391-0.391-1.023-0.391-1.414,0l-6.999,6.999c-0.093,0.093-0.166,0.203-0.217,0.326
		c-0.101,0.244-0.101,0.52,0,0.764c0.051,0.123,0.124,0.233,0.217,0.326l6.999,6.999c0.195,0.195,0.451,0.293,0.707,0.293
		s0.512-0.098,0.707-0.293c0.391-0.391,0.391-1.023,0-1.414l-5.293-5.293H44c0.552,0,1-0.447,1-1s-0.448-1-1-1h-4.586l5.293-5.293
		C45.098,19.821,45.098,19.188,44.707,18.797z"/>
</g>
<g>
</g>
<g>
</g>
<g>
</g>
<g>
</g>
<g>
</g>
<g>
</g>
<g>
</g>
<g>
</g>
<g>
</g>
<g>
</g>
<g>
</g>
<g>
</g>
<g>
</g>
<g>
</g>
<g>
</g>
</svg>
