<?xml version="1.0" encoding="iso-8859-1"?>
<!-- Generator: Adobe Illustrator 16.0.0, SVG Export Plug-In . SVG Version: 6.00 Build 0)  -->
<!DOCTYPE svg PUBLIC "-//W3C//DTD SVG 1.1//EN" "http://www.w3.org/Graphics/SVG/1.1/DTD/svg11.dtd">
<svg version="1.1" id="Capa_1" xmlns="http://www.w3.org/2000/svg" xmlns:xlink="http://www.w3.org/1999/xlink" x="0px" y="0px"
	 width="44.999px" height="44.999px" viewBox="0 0 44.999 44.999" style="enable-background:new 0 0 44.999 44.999;"
	 xml:space="preserve">
<g>
	<g>
		<g>
			<path d="M41.611,4.93C37.418,1.707,32.397,0,27.097,0C13.966,0,3.28,10.684,3.28,23.818c0,2.972,0.544,5.875,1.616,8.631
				c0.087,0.229,0.265,0.187,0.358,0.156c0.233-0.073,9.577-3.727,9.577-3.727c0.141-0.054,0.214-0.214,0.157-0.357
				c-0.58-1.494-0.876-3.078-0.877-4.705c0-7.16,5.825-12.984,12.985-12.984c2.893,0,5.626,0.927,7.907,2.684
				c0.062,0.045,0.134,0.066,0.207,0.057c0.072-0.011,0.141-0.047,0.186-0.106l6.265-8.146c0.045-0.056,0.064-0.132,0.057-0.204
				C41.708,5.041,41.668,4.975,41.611,4.93z"/>
			<path d="M24.682,12.367c-0.066-0.061-0.159-0.084-0.247-0.064c-2.575,0.596-4.908,2.065-6.569,4.138
				c-0.061,0.077-0.075,0.176-0.045,0.266c0.034,0.09,0.109,0.161,0.203,0.178c0.833,0.183,1.668,0.557,2.485,1.112
				c0.05,0.034,0.103,0.048,0.156,0.048c0.065,0,0.13-0.022,0.184-0.067c1.148-0.995,2.45-1.778,3.875-2.324
				c0.126-0.047,0.197-0.178,0.174-0.31c-0.184-0.979-0.225-1.9-0.125-2.737C24.784,12.518,24.749,12.428,24.682,12.367z"/>
			<path d="M29.688,15.901c-6.447,0-11.694,4.732-11.694,10.552c0,2.589,0.573,5.127,1.575,6.967
				c0.947,1.743-0.862,3.663-2.313,5.203c-0.993,1.054-1.778,1.887-1.617,2.574c0.069,0.301,0.306,0.528,0.703,0.68
				c0.499,0.188,1.101,0.289,1.739,0.289c1.806,0,3.591-0.785,4.778-2.1c1.446-1.601,2.056-3.968,1.759-6.848
				c-0.074-0.736,0.075-1.368,0.409-1.738c0.2-0.224,0.46-0.343,0.749-0.343c1.223,0,3.229,2.138,3.755,8.032
				c0.347,3.869,3.854,5.829,10.425,5.829c0,0,0.528,0,0.629-0.309c0.145-0.443-0.395-0.936-1.777-2.11
				c-1.319-1.122-3.313-2.817-3.209-3.806c0.023-0.236,0.181-0.432,0.479-0.593c1.021-0.56,1.601-1.188,1.709-1.885
				c0.082-0.545-0.129-1.104-0.617-1.619c-0.306-0.319-1-0.783-1.877-1.373c-1.283-0.858-3.586-2.405-3.727-3.176h9.542
				c0.073,0,0.142-0.027,0.196-0.079c0.051-0.054,0.079-0.124,0.079-0.196l-0.002-3.426C41.37,20.624,36.122,15.901,29.688,15.901z
				 M24.979,28.792c-0.791,0-1.438-0.644-1.438-1.435s0.646-1.435,1.438-1.435s1.434,0.644,1.434,1.435S25.77,28.792,24.979,28.792z
				 M37.807,28.506h-8.45c-0.665,0-1.207-0.514-1.207-1.147s0.542-1.147,1.207-1.147h8.45c0.665,0,1.204,0.515,1.204,1.147
				C39.011,27.992,38.472,28.506,37.807,28.506z"/>
		</g>
	</g>
</g>
<g>
</g>
<g>
</g>
<g>
</g>
<g>
</g>
<g>
</g>
<g>
</g>
<g>
</g>
<g>
</g>
<g>
</g>
<g>
</g>
<g>
</g>
<g>
</g>
<g>
</g>
<g>
</g>
<g>
</g>
</svg>
