<?xml version="1.0" encoding="iso-8859-1"?>
<!-- Generator: Adobe Illustrator 18.0.0, SVG Export Plug-In . SVG Version: 6.00 Build 0)  -->
<!DOCTYPE svg PUBLIC "-//W3C//DTD SVG 1.1//EN" "http://www.w3.org/Graphics/SVG/1.1/DTD/svg11.dtd">
<svg version="1.1" id="Capa_1" xmlns="http://www.w3.org/2000/svg" xmlns:xlink="http://www.w3.org/1999/xlink" x="0px" y="0px"
	 viewBox="0 0 59 59" style="enable-background:new 0 0 59 59;" xml:space="preserve">
<g>
	<path d="M29.5,0C14.888,0,3,11.888,3,26.5V51c0,2.757,2.243,5,5,5h6.55c0.046,0.022,0.096,0.04,0.142,0.061
		c3.51,1.654,7.728,2.643,12.543,2.878c0.107,0.005,0.214,0.011,0.321,0.016C28.195,58.982,28.84,59,29.5,59
		s1.305-0.018,1.945-0.045c0.107-0.005,0.214-0.01,0.321-0.016c4.814-0.235,9.033-1.224,12.543-2.878
		c0.046-0.022,0.096-0.04,0.142-0.061H51c2.757,0,5-2.243,5-5V26.5C56,11.888,44.112,0,29.5,0z M5,26.5C5,12.99,15.99,2,29.5,2
		S54,12.99,54,26.5v3.4c-0.722,0.067-1.379,0.1-2,0.1c-10.406,0-19.571-7.335-22.808-18.252l-0.224-0.753l-0.784,0.038
		C17.638,11.55,8.8,18.165,5,27.375V26.5z M43.992,54l-0.207,0.101c-2.828,1.374-6.204,2.271-9.916,2.666
		c-0.271,0.027-0.542,0.056-0.819,0.078c-0.392,0.033-0.787,0.062-1.186,0.084C31.09,56.969,30.309,57,29.5,57
		s-1.59-0.031-2.364-0.072c-0.399-0.022-0.794-0.051-1.186-0.084c-0.276-0.022-0.547-0.05-0.818-0.078
		c-3.712-0.395-7.089-1.292-9.916-2.666L15.008,54h-0.089C8.548,50.783,5,45.095,5,37.5c0-12.823,9.827-23.404,22.512-24.419
		C31.198,24.431,40.947,32,52,32c0.438,0,0.891-0.015,1.365-0.044C53.787,33.775,54,35.636,54,37.5c0,7.595-3.548,13.283-9.919,16.5
		H43.992z M8,54c-1.654,0-3-1.346-3-3v-4.226c1.384,2.876,3.459,5.308,6.148,7.226H8z M54,51c0,1.654-1.346,3-3,3h-3.148
		c2.689-1.917,4.764-4.349,6.148-7.226V51z"/>
	<path d="M46.422,36.075c-1.305-0.947-3.287-0.302-6.289,0.676c-2.896,0.943-6.502,2.118-10.437,2.118s-7.54-1.175-10.437-2.118
		c-3.004-0.978-4.986-1.623-6.289-0.676C12.326,36.543,12,37.32,12,38.385C12,43.762,19.928,52,29.696,52
		s17.696-8.238,17.696-13.615C47.393,37.32,47.066,36.543,46.422,36.075z M22.09,48.044C22.62,46.524,25.715,45,30,45
		c4.033,0,7.013,1.35,7.792,2.777C35.393,49.109,32.612,50,29.696,50C26.978,50,24.374,49.228,22.09,48.044z M39.484,46.734
		C38.173,44.543,34.478,43,30,43c-4.675,0-8.495,1.682-9.64,4.027c-3.803-2.5-6.36-6.064-6.36-8.642c0-0.462,0.092-0.651,0.146-0.69
		c0.087-0.063,0.231-0.092,0.419-0.092c0.853,0,2.61,0.573,4.075,1.05c2.872,0.936,6.805,2.217,11.057,2.217
		s8.185-1.281,11.057-2.217c1.787-0.581,4.012-1.309,4.494-0.958c0.054,0.039,0.146,0.229,0.146,0.69
		C45.393,40.862,43.04,44.254,39.484,46.734z"/>
	<path d="M16.5,30h7c2.481,0,4.5-2.019,4.5-4.5S25.981,21,23.5,21h-7c-2.481,0-4.5,2.019-4.5,4.5S14.019,30,16.5,30z M16.5,23h4.556
		C20.406,23.635,20,24.519,20,25.5s0.406,1.865,1.056,2.5H16.5c-1.379,0-2.5-1.121-2.5-2.5S15.121,23,16.5,23z"/>
</g>
<g>
</g>
<g>
</g>
<g>
</g>
<g>
</g>
<g>
</g>
<g>
</g>
<g>
</g>
<g>
</g>
<g>
</g>
<g>
</g>
<g>
</g>
<g>
</g>
<g>
</g>
<g>
</g>
<g>
</g>
</svg>
