<?xml version='1.0' encoding='iso-8859-1'?>
<svg version="1.1" xmlns="http://www.w3.org/2000/svg" viewBox="0 0 307.652 307.652" xmlns:xlink="http://www.w3.org/1999/xlink" enable-background="new 0 0 307.652 307.652">
  <g>
    <g>
      <circle cx="147.001" cy="38.408" r="25.906"/>
      <path d="m260.914,214.783c-4.413-3.32-10.682-2.439-14.005,1.972-9.089,12.069-22.273,20.107-37.149,22.675l24.226-53.442c4.356-9.611-2.329-20.602-12.851-21.171l-41.03-2.223v-63.781l36.103-1.248c2.153-0.074 4.25-0.703 6.088-1.827l40.449-24.725c5.89-3.601 7.746-11.294 4.146-17.185-3.601-5.891-11.295-7.745-17.185-4.146l-37.645,23.011c-51.671,1.787-25.273,1.434-98.166,1.434v0.343l-27.513-15.916 13.665-42.201c2.126-6.567-1.473-13.616-8.042-15.743-6.566-2.123-13.616,1.474-15.742,8.042l-16.777,51.812c-1.816,5.607 0.531,11.72 5.632,14.671l48.779,28.219v63.607l-35.433,29.992c-4.89,4.14-6.611,10.928-4.284,16.897l17.555,45.035c-13.143,0.936-26.174-2.532-37.21-9.989-4.577-3.091-10.792-1.889-13.885,2.688-3.092,4.576-1.889,10.793 2.687,13.885 13.196,8.916 28.52,13.568 44.18,13.568 0.14,0 0.28-0.008 0.421-0.009-1.439,3.465-1.975,7.354-1.311,11.328 1.884,11.279 12.555,18.895 23.834,17.01 11.279-1.884 18.895-12.555 17.01-23.834-0.593-3.55-2.059-6.735-4.139-9.378l62.34-10.415c1.488,0.332 2.777,0.406 4.079,0.332-0.835,2.884-1.075,5.987-0.547,9.147 1.884,11.279 12.555,18.895 23.834,17.01 11.279-1.884 18.895-12.555 17.01-23.834-0.665-3.979-2.439-7.486-4.932-10.297 14.976-5.058 28.111-14.475 37.779-27.31 3.323-4.411 2.44-10.681-1.971-14.004zm-130.593-22.419c53.698,0 38.89-0.317 67.283,1.222-24.319,53.645-22.709,49.849-23.205,51.76l-52.336,8.743-16.043-41.155 24.301-20.57z"/>
    </g>
  </g>
</svg>
