<?xml version="1.0" encoding="iso-8859-1"?>
<!-- Generator: Adobe Illustrator 18.1.1, SVG Export Plug-In . SVG Version: 6.00 Build 0)  -->
<svg version="1.1" id="Capa_1" xmlns="http://www.w3.org/2000/svg" xmlns:xlink="http://www.w3.org/1999/xlink" x="0px" y="0px"
	 viewBox="0 0 19.674 19.674" style="enable-background:new 0 0 19.674 19.674;" xml:space="preserve">
<g>
	<path d="M18.2,18.373v-2.947h0.097c0,0,0.027-0.395-0.055-0.579c-0.082-0.183-0.328-0.171-0.328-0.171s-0.029-0.196-0.207-0.42
		c-0.07-0.086-0.183-0.129-0.285-0.155v-1.158h0.229v-0.49h-0.125c0.144-0.131,0.567-0.584,0.458-1.197
		c-0.139-0.791-1.25-1.164-1.525-1.963c-0.108-0.314-0.175-0.572-0.213-0.773V7.25H16.5V7.166h-0.254v-0.24h-0.092v0.24h-0.257
		v0.082h0.257v1.061c-0.033,0.209-0.1,0.541-0.253,0.982c-0.274,0.799-1.39,1.172-1.524,1.963c-0.109,0.613,0.312,1.065,0.457,1.197
		h-0.125v0.489h0.174v1.16c-0.397,0.061-0.428,0.551-0.428,0.551s-0.117-0.012-0.262,0.067v-1.125H14.2c0,0,0.5-0.422,0.397-1.028
		c-0.098-0.59-0.818-0.902-1.121-1.443c0.006-0.033,0.023-0.127,0.037-0.297c0.022-0.221-0.164-0.426-0.164-0.426
		s-0.02-0.167,0.041-0.387c0.062-0.223-0.186-0.441-0.165-0.516c0.021-0.072-0.185-0.422-0.165-0.535
		c0.017-0.086-0.028-0.391-0.049-0.535h0.111V8.26h-0.465l-1.102-4.078v-0.4h0.076V3h0.062V2.732
		c0.097-0.107,0.306-0.396,0.172-0.723c-0.104-0.258-0.678-0.811-0.753-0.988c-0.05-0.123-0.065-0.221-0.069-0.27V0.254h0.2V0.191
		h-0.2V0H10.97v0.191h-0.2v0.062h0.2v0.529c-0.006,0.054-0.026,0.138-0.068,0.239c-0.072,0.178-0.648,0.731-0.753,0.989
		c-0.133,0.326,0.078,0.615,0.173,0.722V3h0.053v0.781h0.084v0.4L9.358,8.26H8.822v0.166h0.217C8.961,8.574,9.057,8.904,8.987,9.018
		C8.904,9.145,8.944,9.496,8.822,9.664C8.699,9.828,8.76,10.232,8.76,10.232s-0.082,0.055-0.123,0.166
		c-0.037,0.103,0.045,0.394-0.02,0.623c-0.388-0.336-0.897-0.635-1.073-1.082C7.412,9.602,7.341,9.332,7.306,9.145H7.304V8.248
		h0.247V8.174H7.304V7.949H7.222v0.225h-0.22v0.074h0.22v0.904C7.186,9.34,7.117,9.605,6.986,9.939
		c-0.169,0.432-0.648,0.723-1.028,1.042c-0.427-0.364-0.957-0.7-1.146-1.194C4.656,9.379,4.578,9.059,4.538,8.842V7.775h0.234V7.701
		H4.538V7.48H4.456v0.221H4.222v0.074h0.234v1.066C4.415,9.059,4.337,9.379,4.181,9.787c-0.314,0.823-1.576,1.207-1.733,2.019
		c-0.125,0.641,0.377,1.11,0.528,1.239v4.205c-0.175-0.146-0.344-0.297-0.417-0.492c-0.079-0.209-0.122-0.375-0.145-0.495v-0.408
		h0.179v-0.058H2.415v-0.17H2.352v0.17H2.174v0.058h0.178v0.44c-0.025,0.117-0.065,0.271-0.137,0.463
		c-0.173,0.457-0.863,0.673-0.949,1.121c-0.075,0.386,0.252,0.66,0.305,0.703v1.092H18.42v-1.301
		C18.42,18.373,18.2,18.373,18.2,18.373z"/>
</g>
<g>
</g>
<g>
</g>
<g>
</g>
<g>
</g>
<g>
</g>
<g>
</g>
<g>
</g>
<g>
</g>
<g>
</g>
<g>
</g>
<g>
</g>
<g>
</g>
<g>
</g>
<g>
</g>
<g>
</g>
</svg>
