<?xml version="1.0" encoding="iso-8859-1"?>
<!-- Generator: Adobe Illustrator 18.1.1, SVG Export Plug-In . SVG Version: 6.00 Build 0)  -->
<svg version="1.1" id="Capa_1" xmlns="http://www.w3.org/2000/svg" xmlns:xlink="http://www.w3.org/1999/xlink" x="0px" y="0px"
	 viewBox="0 0 26.525 26.525" style="enable-background:new 0 0 26.525 26.525;" xml:space="preserve">
<g>
	<path style="fill:#010002;" d="M20.007,5.211v5.314c0.912,0.572,1.521,1.578,1.521,2.735c0,1.156-0.608,2.164-1.521,2.735v5.318
		c3.724-0.791,6.518-4.094,6.518-8.052C26.525,9.304,23.731,6,20.007,5.211z M21.868,13.954c0.136-0.351,0.062-0.693,0.062-0.693
		l3.834-1.035c0,0,0.617,1.371-0.246,3.516L21.868,13.954z M20.99,13.261c0,0.836-0.387,1.572-0.982,2.067v-4.133
		C20.602,11.69,20.99,12.428,20.99,13.261z M0,22.875h19.225V3.65H0V22.875z M5.217,16.82c0.479-0.116,0.941-0.093,1.333,0.042
		V7.901l7.451-1.207v10.102c0,0.835-0.623,1.502-1.597,1.747c-1.067,0.266-2.098-0.182-2.304-1
		c-0.203-0.822,0.495-1.699,1.563-1.966c0.481-0.121,0.956-0.098,1.354,0.045V9.538l-5.458,0.999l-0.025,7.569H7.532
		c-0.006,0.716-0.652,1.418-1.581,1.649c-1.055,0.268-2.162-0.237-2.278-0.988C3.469,17.956,4.161,17.086,5.217,16.82z"/>
</g>
<g>
</g>
<g>
</g>
<g>
</g>
<g>
</g>
<g>
</g>
<g>
</g>
<g>
</g>
<g>
</g>
<g>
</g>
<g>
</g>
<g>
</g>
<g>
</g>
<g>
</g>
<g>
</g>
<g>
</g>
</svg>
