<?xml version="1.0" encoding="iso-8859-1"?>
<!-- Generator: Adobe Illustrator 17.1.0, SVG Export Plug-In . SVG Version: 6.00 Build 0)  -->
<!DOCTYPE svg PUBLIC "-//W3C//DTD SVG 1.1//EN" "http://www.w3.org/Graphics/SVG/1.1/DTD/svg11.dtd">
<svg version="1.1" id="Layer_1" xmlns="http://www.w3.org/2000/svg" xmlns:xlink="http://www.w3.org/1999/xlink" x="0px" y="0px"
	 viewBox="0 0 800 800" style="enable-background:new 0 0 800 800;" xml:space="preserve">
<path d="M787.611,465.137L521.968,419.58c-11.335-49.378-51.804-87.505-102.384-95.469l-12.17-90.633
	c-0.492-3.665-3.62-6.4-7.318-6.4h-0.192c-3.698,0-6.825,2.736-7.317,6.4l-12.171,90.633c-50.58,7.963-91.048,46.091-102.384,95.469
	L12.389,465.137C5.27,466.196,0,472.309,0,479.507v0.273c0,8.024,6.504,14.528,14.528,14.528h57.534
	c-0.661,3.45-1.036,7.002-1.036,10.644c0,31.106,25.216,56.322,56.322,56.322c31.106,0,56.322-25.216,56.322-56.322
	c0-3.643-0.376-7.194-1.036-10.644h101.187c18.506,46.056,63.505,78.614,116.179,78.614c52.675,0,97.674-32.558,116.18-78.614
	h101.186c-0.661,3.45-1.036,7.002-1.036,10.644c0,31.106,25.216,56.322,56.322,56.322c31.106,0,56.322-25.216,56.322-56.322
	c0-3.643-0.376-7.194-1.036-10.644h57.534c8.024,0,14.528-6.504,14.528-14.528v-0.273C800,472.309,794.73,466.196,787.611,465.137z
	 M334.031,420.939l15.543-32.209h100.851l15.543,32.209H334.031z"/>
</svg>
