<?xml version="1.0" encoding="iso-8859-1"?>
<!-- Generator: Adobe Illustrator 18.0.0, SVG Export Plug-In . SVG Version: 6.00 Build 0)  -->
<!DOCTYPE svg PUBLIC "-//W3C//DTD SVG 1.1//EN" "http://www.w3.org/Graphics/SVG/1.1/DTD/svg11.dtd">
<svg version="1.1" id="Capa_1" xmlns="http://www.w3.org/2000/svg" xmlns:xlink="http://www.w3.org/1999/xlink" x="0px" y="0px"
	 viewBox="0 0 480 480" style="enable-background:new 0 0 480 480;" xml:space="preserve">
<g>
	<path d="M316.666,68.251L163.334,7.755L0,72.196V476.19l163.334-64.441l153.332,60.496L480,407.804V3.81L316.666,68.251z
		 M173.334,251.32l11.387,10.723c7.879-8.368,13.064-18.238,18.078-27.783c3.773-7.182,7.336-13.965,11.597-19.088l-15.376-12.79
		c-5.61,6.744-9.838,14.793-13.927,22.577c-3.578,6.811-7.27,13.79-11.76,19.6V33.201l133.332,52.605v202.022l-10.476,9.867
		c3.272,3.474,6.771,6.289,10.476,8.447v140.657l-133.332-52.605V251.32z M20,85.806l133.334-52.605V258.52
		c-3.83,1.031-8.043,1.554-12.74,1.554c-9.335,0-12.675-3.777-14.895-7.858l-17.57,9.554c6.604,12.146,17.527,18.305,32.465,18.305
		c4.497,0,8.727-0.364,12.74-1.074v115.195L20,446.799V85.806z M460,394.194l-133.334,52.605V311.382
		c9.709-0.196,19.255-6.781,29.998-20.711l-15.838-12.214c-8.262,10.713-12.792,12.56-14.16,12.877V85.806L460,33.201V394.194z"/>
	<path d="M234.466,185.61c-7.704,0-14.738,1.612-20.908,4.79l9.157,17.78c3.357-1.729,7.201-2.569,11.751-2.57
		c5.58,0,13.101,1.734,21.799,15.257l16.82-10.819C262.509,193.604,249.876,185.61,234.466,185.61z"/>
	<path d="M63.746,133.84v20c17.371,0,26.376,6.454,31.083,22.277l19.17-5.703C106.779,146.145,89.872,133.84,63.746,133.84z"/>
	<path d="M289.917,244.924c-2.856-6.875-5.81-13.984-9.009-20.641l-18.026,8.663c2.965,6.168,5.812,13.022,8.566,19.651
		c4.445,10.698,9.041,21.761,14.594,31.209l17.242-10.134C298.429,265.413,294.294,255.46,289.917,244.924z"/>
	<path d="M119.367,212.689c-0.435-8.602-0.885-17.497-2.033-26.059l-19.822,2.657c1.038,7.741,1.466,16.216,1.88,24.412
		c0.535,10.573,1.088,21.505,2.977,31.077l19.621-3.873C120.382,232.751,119.889,223.006,119.367,212.689z"/>
	<path d="M385.202,243.965c2.917-5.333,5.672-10.372,8.093-14.55l-17.307-10.024c-2.543,4.391-5.355,9.533-8.333,14.977
		c-5.683,10.391-12.125,22.168-18.738,32.473l16.831,10.803C372.741,266.749,379.361,254.645,385.202,243.965z"/>
	<polygon points="372.42,211.969 390.247,194.142 408.074,211.969 422.215,197.826 404.389,180 422.215,162.174 408.074,148.032 
		390.247,165.858 372.42,148.032 358.279,162.174 376.105,180 358.279,197.826 	"/>
</g>
<g>
</g>
<g>
</g>
<g>
</g>
<g>
</g>
<g>
</g>
<g>
</g>
<g>
</g>
<g>
</g>
<g>
</g>
<g>
</g>
<g>
</g>
<g>
</g>
<g>
</g>
<g>
</g>
<g>
</g>
</svg>
