<?xml version="1.0" encoding="iso-8859-1"?>
<!-- Generator: Adobe Illustrator 16.0.0, SVG Export Plug-In . SVG Version: 6.00 Build 0)  -->
<!DOCTYPE svg PUBLIC "-//W3C//DTD SVG 1.1//EN" "http://www.w3.org/Graphics/SVG/1.1/DTD/svg11.dtd">
<svg version="1.1" id="Capa_1" xmlns="http://www.w3.org/2000/svg" xmlns:xlink="http://www.w3.org/1999/xlink" x="0px" y="0px"
	 width="305.934px" height="305.934px" viewBox="0 0 305.934 305.934" style="enable-background:new 0 0 305.934 305.934;"
	 xml:space="preserve">
<g>
	<g>
		<path d="M34.989,160.926c0,20.143,5.059,39.105,13.963,55.686l93.405-53.925l-94.801-54.735
			C39.54,123.884,34.989,141.865,34.989,160.926z M64.561,190.063c-2.97,1.403-6.113,2.304-9.29,3.102
			c-1.411,0.357-5.217,1.005-5.784-1.108c-0.557-2.082,3.047-3.5,4.453-3.853c2.296-0.58,4.469-1.181,6.618-2.195
			c1.711-0.813,5.217-1.527,6.765,0.047C68.973,187.728,65.674,189.535,64.561,190.063z M105.062,153.511
			c4.427,0,8.016,3.583,8.016,8.011s-3.588,8.011-8.016,8.011c-4.422,0-8.013-3.583-8.013-8.011
			C97.043,157.094,100.634,153.511,105.062,153.511z M82.946,165.545c0,6.659-5.393,12.044-12.047,12.044
			c-6.651,0-12.05-5.396-12.05-12.044s5.394-12.042,12.05-12.042C77.553,153.503,82.946,158.891,82.946,165.545z M58.849,123.975
			c4.43,0,8.019,3.583,8.019,8.014c0,4.427-3.588,8.01-8.019,8.01c-4.422,0-8.01-3.583-8.01-8.01
			C50.839,127.566,54.422,123.975,58.849,123.975z M43.887,158.71c-6.876,0,0.917-4.981,4.205-4.981
			C54.968,153.729,47.175,158.71,43.887,158.71z"/>
		<path d="M147.665,37.117v-21.21C97.727,17.709,54.153,44.843,29.427,84.833l18.377,10.61
			C68.84,61.783,105.559,38.898,147.665,37.117z"/>
		<path d="M268.74,79.542l18.377-10.61C262.396,28.936,218.817,1.802,168.879,0v21.21C210.983,22.991,247.701,45.876,268.74,79.542z
			"/>
		<path d="M275.238,239.002l-18.382-10.615c-21.221,32.575-57.317,54.598-98.587,56.338v21.209
			C207.374,304.163,250.31,277.895,275.238,239.002z"/>
		<path d="M263.359,104.681c8.643,16.891,13.552,35.996,13.552,56.245c0,21.086-5.308,40.949-14.634,58.348l18.383,10.615
			c11.128-20.526,17.455-44.025,17.455-68.963c0-24.104-5.935-46.833-16.378-66.862L263.359,104.681z"/>
		<path d="M43.66,219.273c-9.321-17.409-14.631-37.272-14.631-58.348c0-20.249,4.911-39.354,13.554-56.252L24.2,94.059
			c-10.441,20.028-16.381,42.758-16.381,66.857c0,24.942,6.328,48.436,17.458,68.962L43.66,219.273z"/>
		<path d="M147.665,305.934v-21.209c-41.267-1.745-77.361-23.763-98.586-56.338l-18.377,10.615
			C55.626,277.895,98.565,304.163,147.665,305.934z"/>
		<path d="M147.665,43.082c-40.097,1.771-74.979,23.558-94.923,55.616l94.923,54.805V43.082z M89.18,101.98
			c-6.648,0-12.042-5.393-12.042-12.042c0-6.654,5.393-12.047,12.042-12.047c6.654,0,12.047,5.393,12.047,12.047
			C101.232,96.593,95.834,101.98,89.18,101.98z M125.119,123.975c-4.422,0-8.011-3.583-8.011-8.01s3.588-8.013,8.011-8.013
			c4.427,0,8.018,3.586,8.018,8.013C133.132,120.392,129.546,123.975,125.119,123.975z M124.8,94.154
			c-1.524-1.888-3.254-2.864-5.571-3.495c-2.322-0.635-2.783-3.102-1.29-4.798c1.755-1.988,4.751-2.625,7.244-1.939
			c3.602,0.984,6.659,2.874,9.007,5.784C137.412,93.683,127.643,97.67,124.8,94.154z M128.837,75.13
			c-4.422,0-8.013-3.583-8.013-8.014c0-4.427,3.591-8.01,8.013-8.01c4.427,0,8.018,3.583,8.018,8.01
			C136.855,71.546,133.264,75.13,128.837,75.13z"/>
		<path d="M270.945,160.926c0-19.061-4.541-37.042-12.567-52.975l-94.801,54.735l93.408,53.936
			C265.886,200.031,270.945,181.068,270.945,160.926z M254.929,126.737c6.856,0-1.248,4.619-4.298,4.619
			C243.786,131.351,251.884,126.737,254.929,126.737z M204.909,170.299c-4.422,0-8.011-3.584-8.011-8.016
			c0-4.423,3.589-8.011,8.011-8.011c4.433,0,8.016,3.588,8.016,8.011C212.924,166.715,209.341,170.299,204.909,170.299z
			 M226.942,154.153c5.007,0-4.541,4.132-6.654,4.132C215.286,158.285,224.834,154.153,226.942,154.153z M222.328,180.499
			c-6.928,0-0.145-6.136,3.899-6.136C233.161,174.357,226.367,180.499,222.328,180.499z M243.444,200.59
			c-4.432,0-8.016-3.583-8.016-8.016c0-4.422,3.594-8.005,8.016-8.005c4.428,0,8.016,3.583,8.016,8.005
			C251.459,197.007,247.872,200.59,243.444,200.59z M247.478,168.921c-6.648,0-12.039-5.391-12.039-12.039
			c0-6.654,5.391-12.047,12.039-12.047c6.653,0,12.05,5.393,12.05,12.047C259.517,163.535,254.126,168.921,247.478,168.921z"/>
		<path d="M147.665,278.77V171.873l-93.273,53.852C74.583,256.369,108.655,277.04,147.665,278.77z M130.755,270.226
			c-6.902,0,0.611-5.317,4.117-5.317C141.774,264.908,134.261,270.226,130.755,270.226z M128.837,200.59
			c4.427,0,8.018,3.584,8.018,8.011c0,4.428-3.591,8.011-8.018,8.011c-4.422,0-8.013-3.583-8.013-8.011
			C120.824,204.174,124.415,200.59,128.837,200.59z M108.225,219.335c6.937,0,0.319,6.328-3.847,6.328
			C97.447,225.663,104.06,219.335,108.225,219.335z M113.072,229.889c6.656,0,12.047,5.39,12.047,12.044
			c0,6.653-5.391,12.044-12.047,12.044c-6.649,0-12.042-5.396-12.042-12.044C101.03,235.278,106.423,229.889,113.072,229.889z
			 M78.91,220.65c4.427,0,8.018,3.583,8.018,8.011c0,4.427-3.591,8.011-8.018,8.011c-4.422,0-8.011-3.584-8.011-8.011
			C70.899,224.238,74.487,220.65,78.91,220.65z"/>
		<path d="M251.542,225.725l-93.273-53.852V278.77C197.287,277.04,231.359,256.369,251.542,225.725z M175.502,261.987
			c-4.423,0-8.011-3.589-8.011-8.011c0-4.433,3.588-8.016,8.011-8.016c4.427,0,8.021,3.583,8.021,8.016
			C183.523,258.398,179.929,261.987,175.502,261.987z M180.923,228.666c-6.648,0-12.049-5.396-12.049-12.044
			c0-6.649,5.39-12.045,12.049-12.045c6.654,0,12.045,5.396,12.045,12.045C192.968,223.271,187.578,228.666,180.923,228.666z
			 M193.108,246.411c-4.986,0,4.582-4.08,6.669-4.08C204.753,242.331,195.195,246.411,193.108,246.411z M223.384,237.894
			c-4.428,0-8.016-3.583-8.016-8.005c0-4.433,3.594-8.017,8.016-8.017c4.427,0,8.016,3.584,8.016,8.017
			C231.4,234.311,227.811,237.894,223.384,237.894z"/>
		<path d="M168.875,27.175v110.421l94.925-54.805C243.859,50.733,208.979,28.946,168.875,27.175z M199.596,43.082
			c4.433,0,8.016,3.583,8.016,8.011s-3.583,8.013-8.016,8.013c-4.422,0-8.011-3.586-8.011-8.013
			C191.581,46.666,195.168,43.082,199.596,43.082z M182.415,35.584c6.934,0,0.611,6.639-3.759,6.639
			C171.722,42.223,178.044,35.584,182.415,35.584z M187.551,110.338c-6.648,0-12.049-5.393-12.049-12.042
			c0-6.649,5.391-12.042,12.049-12.042c6.654,0,12.045,5.393,12.045,12.042C199.596,104.945,194.206,110.338,187.551,110.338z
			 M199.896,74.594c-2.02,1.598-5.183,2.032-7.373,0.531c-2.263-1.553-5.101-1.937-7.741-2.455c-2.217-0.44-4.293-2.18-3.216-4.65
			c1.025-2.335,4.204-3.708,6.648-3.226c4.251,0.844,8.503,1.678,12.138,4.174C202.516,70.449,201.636,73.222,199.896,74.594z
			 M206.514,93.349c-6.929,0-0.771-6.814,3.718-6.814C217.161,86.529,211.003,93.349,206.514,93.349z M223.384,82.213
			c-4.428,0-8.016-3.583-8.016-8.011s3.594-8.013,8.016-8.013c4.427,0,8.016,3.586,8.016,8.013S227.811,82.213,223.384,82.213z
			 M237.515,78.729c-4.986,0,4.583-4.086,6.67-4.086C249.171,74.638,239.602,78.729,237.515,78.729z"/>
	</g>
</g>
<g>
</g>
<g>
</g>
<g>
</g>
<g>
</g>
<g>
</g>
<g>
</g>
<g>
</g>
<g>
</g>
<g>
</g>
<g>
</g>
<g>
</g>
<g>
</g>
<g>
</g>
<g>
</g>
<g>
</g>
</svg>
