<?xml version="1.0" encoding="utf-8"?>
<!-- Generator: Adobe Illustrator 17.0.0, SVG Export Plug-In . SVG Version: 6.00 Build 0)  -->
<!DOCTYPE svg PUBLIC "-//W3C//DTD SVG 1.1//EN" "http://www.w3.org/Graphics/SVG/1.1/DTD/svg11.dtd">
<svg version="1.1" id="Capa_1" xmlns="http://www.w3.org/2000/svg" xmlns:xlink="http://www.w3.org/1999/xlink" x="0px" y="0px"
	 width="64px" height="64px" viewBox="0 0 64 64" enable-background="new 0 0 64 64" xml:space="preserve">
<g>
	<path d="M51.689,52H7.66c-1.104,0-2,0.896-2,2s0.896,2,2,2h44.029c1.104,0,2-0.896,2-2S52.794,52,51.689,52z"/>
	<path d="M58.35,31.238c-0.209-0.508-0.617-0.906-1.129-1.104L52.99,28.5c-1.546-0.597-2.766-1.212-2.724-1.375
		c0.042-0.164,0.116-1.497-0.804-2.417c-0.543-0.543-1.293-0.879-2.121-0.879H12.008c-0.828,0-1.578,0.336-2.121,0.879
		c-0.92,0.92-0.487,3.406-0.004,4.99l4.25,13.933c0.483,1.584,0.834,4.07,1.754,4.99c0.543,0.543,1.293,0.879,2.121,0.879h24.334
		c0.828,0,1.578-0.336,2.121-0.879c0.92-0.92,0.969-2.473,1.078-2.906c0.11-0.435,1.543-0.826,3.199-0.876l3.009-0.09
		c0.767-0.022,1.453-0.482,1.766-1.182l4.811-10.75C58.55,32.316,58.559,31.745,58.35,31.238z M52.588,35.845l-0.986,2.205
		c-0.677,1.513-2.033,2.763-3.03,2.792c-0.997,0.03-1.474-1.247-1.065-2.853l0.954-3.757c0.408-1.605,1.772-2.509,3.046-2.017
		C52.78,32.708,53.265,34.332,52.588,35.845z"/>
</g>
<path fill="none" stroke="#000000" stroke-width="3" stroke-linecap="round" stroke-linejoin="round" stroke-miterlimit="10" d="
	M23.623,19.954c0,0-1.75-1.842,0-4.421s2.445-8.079-0.777-9.829"/>
<path fill="none" stroke="#000000" stroke-width="3" stroke-linecap="round" stroke-linejoin="round" stroke-miterlimit="10" d="
	M33.091,19.954c0,0-1.75-1.842,0-4.421c1.75-2.579,2.445-8.079-0.777-9.829"/>
</svg>
