<?xml version="1.0" encoding="iso-8859-1"?>
<!-- Generator: Adobe Illustrator 16.0.0, SVG Export Plug-In . SVG Version: 6.00 Build 0)  -->
<!DOCTYPE svg PUBLIC "-//W3C//DTD SVG 1.1//EN" "http://www.w3.org/Graphics/SVG/1.1/DTD/svg11.dtd">
<svg version="1.1" id="Capa_1" xmlns="http://www.w3.org/2000/svg" xmlns:xlink="http://www.w3.org/1999/xlink" x="0px" y="0px"
	 width="488.525px" height="488.526px" viewBox="0 0 488.525 488.526" style="enable-background:new 0 0 488.525 488.526;"
	 xml:space="preserve">
<g>
	<g id="Layer_8_1_">
		<path d="M461.56,181.557c6.296,0,11.88-4.077,13.798-10.087c1.925-6.013-0.28-12.577-5.432-16.225L254.602,2.667
			c-4.978-3.528-11.63-3.559-16.636-0.073L18.701,154.841c-5.2,3.608-7.447,10.175-5.562,16.221
			c1.887,6.044,7.48,10.16,13.816,10.16l63.589,0.049c-1.69,3.349-2.658,7.115-2.658,11.112v64.804
			c-4.506,4.841-7.264,11.345-7.264,18.475v123.902c-9.539,0.627-17.756,6.205-22.085,14.182H44.507
			c-15.905,0-28.838,12.939-28.838,28.838v17.104c0,15.898,12.934,28.838,28.838,28.838h399.492
			c15.904,0,28.844-12.939,28.844-28.838v-17.104c0-15.904-12.939-28.838-28.844-28.838h-9.512
			c-3.77-6.954-10.492-12.081-18.463-13.713V275.662c0-7.13-2.752-13.634-7.27-18.468v-64.811c0-3.906-0.926-7.584-2.533-10.869
			l55.313,0.043C461.548,181.557,461.548,181.557,461.56,181.557z M340.13,181.462c-1.62,3.301-2.558,7.003-2.558,10.921v64.804
			c-0.877,0.944-1.675,1.955-2.399,3.015c-12.872-34.939-46.46-59.881-85.866-59.881c-40.155,0-74.251,25.888-86.56,61.872
			c-1.042-1.809-2.25-3.501-3.666-5.012v-64.798c0-3.979-0.959-7.727-2.625-11.061L340.13,181.462z M209.368,313.555h15.509
			c1.172,13.322,7.624,20.971,19.349,22.943V291.81c-21.58-4.305-32.376-14.845-32.376-31.572c0-9.444,2.919-17.025,8.756-22.785
			c5.836-5.764,13.704-9.091,23.62-10.005v-12.312h8.562v12.312c18.974,1.438,29.392,11.113,31.262,29.027h-15.595
			c-0.858-9.913-6.089-15.546-15.667-16.873v40.213c13.207,2.722,22.194,6.667,26.932,11.867c4.75,5.188,7.118,12.275,7.118,21.221
			c0,9.329-3.008,17.445-9.029,24.345c-6.022,6.899-14.365,10.644-25.021,11.234v12.392h-8.562v-12.239
			C222.481,346.253,210.86,334.55,209.368,313.555z M166.345,399.497v-69.111c14.559,31.249,46.217,52.902,82.961,52.902
			c35.181,0,65.687-19.875,80.995-48.981v65.179H166.345V399.497z M252.787,336.499v-42.771c7.301,1.925,12.202,4.366,14.692,7.356
			c2.503,2.983,3.77,7.258,3.77,12.799C271.249,327.414,265.093,334.952,252.787,336.499z M244.226,278.055
			c-5.008-1.279-9.073-3.264-12.19-5.992c-3.118-2.728-4.677-7.057-4.677-13.031c0-11.082,5.617-17.615,16.867-19.585V278.055z"/>
	</g>
</g>
<g>
</g>
<g>
</g>
<g>
</g>
<g>
</g>
<g>
</g>
<g>
</g>
<g>
</g>
<g>
</g>
<g>
</g>
<g>
</g>
<g>
</g>
<g>
</g>
<g>
</g>
<g>
</g>
<g>
</g>
</svg>
