<?xml version="1.0" encoding="iso-8859-1"?>
<!-- Generator: Adobe Illustrator 19.0.0, SVG Export Plug-In . SVG Version: 6.00 Build 0)  -->
<svg version="1.1" id="Layer_1" xmlns="http://www.w3.org/2000/svg" xmlns:xlink="http://www.w3.org/1999/xlink" x="0px" y="0px"
	 viewBox="0 0 497.416 497.416" style="enable-background:new 0 0 497.416 497.416;" xml:space="preserve">
<g id="XMLID_16_">
	<g>
		<g>
			<path d="M490.734,157.244c-22.07-29.611-63.146-54.063-116.167-69.274l-30.704-76.762h-190.31L122.848,87.97
				c-53.02,15.212-94.096,39.663-116.167,69.274L0,166.208l6.681,8.964c21.535,28.892,61.17,52.869,112.331,68.147v158.143h30
				V246.969h199.391v69.746h30v-73.396c51.162-15.278,90.797-39.255,112.331-68.147l6.682-8.964L490.734,157.244z M173.864,41.208
				h149.689l17.695,44.239h-185.08L173.864,41.208z M136.016,115.447h225.383c32.035,8.695,59.638,21.136,80.021,35.761H55.996
				C76.379,136.583,103.981,124.143,136.016,115.447z M361.425,216.969H135.991c-32.026-8.695-59.62-21.139-79.999-35.761h385.433
				C421.046,195.83,393.452,208.273,361.425,216.969z"/>
			<rect x="196.708" y="266.715" width="30" height="50"/>
			<rect x="196.708" y="351.462" width="30" height="50"/>
			<rect x="196.708" y="436.208" width="30" height="50"/>
			<rect x="270.708" y="266.715" width="30" height="50"/>
			<rect x="270.708" y="351.462" width="30" height="50"/>
			<rect x="270.708" y="436.208" width="30" height="50"/>
			<rect x="119.012" y="436.208" width="30" height="50"/>
			<rect x="348.403" y="351.462" width="30" height="134.746"/>
		</g>
	</g>
</g>
<g>
</g>
<g>
</g>
<g>
</g>
<g>
</g>
<g>
</g>
<g>
</g>
<g>
</g>
<g>
</g>
<g>
</g>
<g>
</g>
<g>
</g>
<g>
</g>
<g>
</g>
<g>
</g>
<g>
</g>
</svg>
