<?xml version="1.0" encoding="iso-8859-1"?>
<!-- Generator: Adobe Illustrator 18.0.0, SVG Export Plug-In . SVG Version: 6.00 Build 0)  -->
<!DOCTYPE svg PUBLIC "-//W3C//DTD SVG 1.1//EN" "http://www.w3.org/Graphics/SVG/1.1/DTD/svg11.dtd">
<svg version="1.1" id="Capa_1" xmlns="http://www.w3.org/2000/svg" xmlns:xlink="http://www.w3.org/1999/xlink" x="0px" y="0px"
	 viewBox="0 0 60.003 60.003" style="enable-background:new 0 0 60.003 60.003;" xml:space="preserve">
<g>
	<path d="M41,38.499H19c-0.552,0-1,0.447-1,1c0,6.617,5.383,12,12,12s12-5.383,12-12C42,38.946,41.552,38.499,41,38.499z
		 M39.145,43.528c-0.049-0.008-0.094-0.029-0.145-0.029h-4v-3h4.949C39.843,41.568,39.562,42.585,39.145,43.528z M20.855,43.528
		c-0.417-0.944-0.698-1.96-0.804-3.029H25v3h-4C20.949,43.499,20.904,43.521,20.855,43.528z M27,40.499h6v3h-6V40.499z
		 M22.019,45.499H25v2.647C23.837,47.471,22.825,46.568,22.019,45.499z M27,49.038v-3.539h6v3.539c-0.948,0.299-1.955,0.461-3,0.461
		S27.948,49.336,27,49.038z M35,48.146v-2.647h2.981C37.175,46.568,36.163,47.471,35,48.146z"/>
	<path d="M17.219,22.001c-0.391-0.391-1.023-0.391-1.414,0l-3.22,3.219c-0.391,0.391-0.391,1.023,0,1.414
		c0.195,0.195,0.451,0.293,0.707,0.293s0.512-0.098,0.707-0.293l3.22-3.219C17.61,23.024,17.61,22.392,17.219,22.001z"/>
	<path d="M16.878,28.78c0.195,0.195,0.451,0.293,0.707,0.293s0.512-0.098,0.707-0.293l5.366-5.365c0.391-0.391,0.391-1.023,0-1.414
		s-1.023-0.391-1.414,0l-5.366,5.365C16.488,27.757,16.488,28.39,16.878,28.78z"/>
	<path d="M36.902,26.927c0.256,0,0.512-0.098,0.707-0.293l3.22-3.219c0.391-0.391,0.391-1.023,0-1.414s-1.023-0.391-1.414,0
		l-3.22,3.219c-0.391,0.391-0.391,1.023,0,1.414C36.391,26.829,36.646,26.927,36.902,26.927z"/>
	<path d="M40.488,28.78c0.195,0.195,0.451,0.293,0.707,0.293s0.512-0.098,0.707-0.293l5.366-5.365c0.391-0.391,0.391-1.023,0-1.414
		s-1.023-0.391-1.414,0l-5.366,5.365C40.098,27.757,40.098,28.39,40.488,28.78z"/>
	<path d="M59.796,26.567c-0.402-1.697-1.366-3.156-2.577-3.902c-0.811-0.499-1.678-0.66-2.507-0.461
		c-0.189,0.045-0.371,0.114-0.549,0.198c-0.054-0.131-0.108-0.261-0.163-0.389v-0.237l-0.13-0.074
		c-2.34-5.292-5.839-8.766-9.43-11.046l1.355-2.71c0.247-0.494,0.047-1.095-0.447-1.342c-0.496-0.246-1.094-0.047-1.342,0.447
		l-1.295,2.591c-0.618-0.329-1.232-0.624-1.84-0.892l0.979-2.936c0.175-0.524-0.108-1.091-0.632-1.265
		c-0.525-0.177-1.091,0.108-1.265,0.632L39.009,8.01c-0.693-0.249-1.365-0.462-2.011-0.643l0.85-2.551
		c0.175-0.524-0.108-1.091-0.632-1.265c-0.527-0.177-1.09,0.108-1.265,0.632L35.05,6.887c-1.264-0.265-2.35-0.412-3.15-0.486V4.499
		c0-0.553-0.448-1-1-1s-1,0.447-1,1v1.843c-0.525,0.025-1.444,0.097-2.632,0.284l-0.382-2.29c-0.091-0.544-0.604-0.917-1.151-0.822
		c-0.544,0.091-0.913,0.606-0.822,1.15l0.39,2.338c-1.071,0.242-2.258,0.576-3.507,1.023l-0.947-2.842
		c-0.175-0.523-0.74-0.809-1.265-0.632c-0.524,0.174-0.807,0.74-0.632,1.265l0.983,2.948c-0.863,0.379-1.741,0.82-2.621,1.325
		l-1.518-3.036c-0.247-0.494-0.847-0.693-1.342-0.447c-0.494,0.247-0.694,0.848-0.447,1.342l1.603,3.207
		c-0.881,0.602-1.749,1.285-2.594,2.047l-2.408-2.408c-0.391-0.391-1.023-0.391-1.414,0s-0.391,1.023,0,1.414l2.388,2.388
		c-3.076,3.273-5.647,7.837-6.827,14.212c-0.015,0.083-0.025,0.167-0.04,0.25c-0.254-0.07-0.512-0.118-0.776-0.118
		C1.73,28.938,0,31.321,0,34.362s1.73,5.424,3.939,5.424c0.403,0,0.798-0.102,1.177-0.267c0.701,2.671,1.863,5.179,3.459,7.378
		c3.243,4.473,9.679,9.792,21.817,9.603c0.185,0.003,0.366,0.004,0.548,0.004c11.8-0.001,18.075-5.202,21.269-9.606
		c2.881-3.97,4.346-8.945,4.23-14.076c0.034,0.001,0.07,0.014,0.104,0.014c0.227,0,0.452-0.026,0.672-0.079
		C59.363,32.244,60.497,29.525,59.796,26.567z M14.193,17.206c0.195,0.195,0.451,0.293,0.707,0.293s0.512-0.098,0.707-0.293
		c0.391-0.391,0.391-1.023,0-1.414l-1.233-1.233c0.684-0.62,1.385-1.182,2.095-1.685l0.536,1.072
		c0.175,0.351,0.528,0.553,0.896,0.553c0.15,0,0.303-0.034,0.446-0.105c0.494-0.247,0.694-0.848,0.447-1.342l-0.633-1.266
		c0.795-0.465,1.59-0.872,2.373-1.221l0.417,1.251c0.14,0.419,0.53,0.684,0.949,0.684c0.104,0,0.211-0.017,0.316-0.052
		c0.524-0.174,0.807-0.74,0.632-1.265l-0.453-1.36c1.148-0.407,2.237-0.705,3.225-0.922l0.294,1.762
		c0.082,0.489,0.505,0.836,0.985,0.836c0.054,0,0.11-0.004,0.166-0.014c0.544-0.091,0.913-0.606,0.822-1.15l-0.299-1.793
		c1.03-0.146,1.826-0.196,2.313-0.211v2.168c0,0.553,0.448,1,1,1s1-0.447,1-1V8.39c0.671,0.058,1.534,0.165,2.53,0.355l-0.479,1.438
		c-0.175,0.524,0.108,1.091,0.632,1.265c0.105,0.035,0.212,0.052,0.316,0.052c0.419,0,0.809-0.265,0.949-0.684l0.541-1.623
		c0.644,0.173,1.32,0.383,2.015,0.63l-0.453,1.36c-0.175,0.524,0.108,1.091,0.632,1.265c0.105,0.035,0.212,0.052,0.316,0.052
		c0.419,0,0.809-0.265,0.949-0.684l0.416-1.249c0.526,0.235,1.058,0.496,1.592,0.783l-0.851,1.702
		c-0.247,0.494-0.047,1.095,0.447,1.342c0.144,0.071,0.296,0.105,0.446,0.105c0.367,0,0.72-0.202,0.896-0.553l0.786-1.572
		c2.692,1.755,5.311,4.271,7.337,7.864c-6.068-2.456-13.045-2.04-18.804,1.25l-0.384,0.22h-1.459l-0.384-0.22
		c-6.283-3.589-14.014-3.751-20.434-0.501c1.018-1.962,2.21-3.619,3.5-5.021L14.193,17.206z M51.996,22.944
		c-0.051,3.313-0.631,6.692-4.929,7.157c-5.293,0.573-9.084-0.13-11.265-2.088c-1.337-1.2-2.068-2.905-2.177-5.074
		C39.342,19.9,46.278,19.901,51.996,22.944z M28.375,22.939c-0.109,2.169-0.84,3.874-2.177,5.074
		c-2.18,1.958-5.968,2.664-11.265,2.088c-4.297-0.465-4.877-3.845-4.929-7.157C15.722,19.901,22.658,19.9,28.375,22.939z
		 M4.674,37.488c-0.206,0.166-0.456,0.298-0.734,0.298C3.022,37.786,2,36.38,2,34.362s1.022-3.424,1.939-3.424
		c0.167,0,0.335,0.047,0.504,0.139c-0.049,0.533-0.081,1.066-0.096,1.597c-0.001,0.034,0,0.067-0.001,0.101
		c-0.011,0.445-0.009,0.889,0.004,1.332c0.004,0.136,0.009,0.271,0.015,0.407c0.016,0.36,0.042,0.719,0.074,1.076
		c0.012,0.141,0.021,0.282,0.036,0.422c0.047,0.438,0.106,0.874,0.177,1.307C4.66,37.375,4.664,37.432,4.674,37.488z M50.59,45.724
		c-4.315,5.949-11.096,8.938-20.184,8.776h-0.014h-0.014c-9.091,0.111-15.87-2.829-20.185-8.776
		c-2.062-2.842-3.329-6.255-3.726-9.866c-0.008-0.078-0.01-0.157-0.017-0.235c-0.057-0.57-0.089-1.144-0.102-1.721
		c-0.005-0.252-0.001-0.504,0.002-0.757c0.004-0.406,0.021-0.814,0.047-1.222c0.019-0.294,0.039-0.588,0.069-0.883
		c0.064-0.623,0.138-1.246,0.253-1.869c0.333-1.799,0.786-3.434,1.326-4.936c0.198,3.027,1.236,7.268,6.671,7.856
		c1.243,0.135,2.417,0.201,3.519,0.201c4.111,0,7.23-0.934,9.297-2.789c1.604-1.44,2.53-3.388,2.78-5.794h1.372
		c0.25,2.406,1.176,4.354,2.78,5.794c2.067,1.855,5.186,2.789,9.297,2.789c1.102,0,2.275-0.066,3.519-0.201
		c3.978-0.43,5.592-2.818,6.254-5.254c0.001,0.005,0.003,0.01,0.004,0.015c0.2,0.76,0.377,1.528,0.523,2.319
		c0.124,0.668,0.207,1.337,0.272,2.005c0.011,0.113,0.026,0.223,0.035,0.337C54.794,36.684,53.466,41.76,50.59,45.724z
		 M56.751,30.811c-0.136,0.032-0.281,0.032-0.436,0c-0.004-0.04-0.012-0.076-0.016-0.115c-0.068-0.63-0.153-1.26-0.269-1.89
		c-0.143-0.772-0.31-1.513-0.493-2.233c-0.021-0.081-0.046-0.161-0.067-0.242c-0.18-0.688-0.377-1.351-0.589-1.992
		c-0.005-0.016-0.009-0.032-0.014-0.049c0.101-0.069,0.204-0.116,0.31-0.142c0.38-0.09,0.751,0.068,0.994,0.219
		c0.758,0.467,1.402,1.486,1.68,2.66C58.315,28.992,57.644,30.599,56.751,30.811z"/>
</g>
<g>
</g>
<g>
</g>
<g>
</g>
<g>
</g>
<g>
</g>
<g>
</g>
<g>
</g>
<g>
</g>
<g>
</g>
<g>
</g>
<g>
</g>
<g>
</g>
<g>
</g>
<g>
</g>
<g>
</g>
</svg>
