<?xml version="1.0" encoding="iso-8859-1"?>
<!-- Generator: Adobe Illustrator 18.0.0, SVG Export Plug-In . SVG Version: 6.00 Build 0)  -->
<!DOCTYPE svg PUBLIC "-//W3C//DTD SVG 1.1//EN" "http://www.w3.org/Graphics/SVG/1.1/DTD/svg11.dtd">
<svg version="1.1" id="Capa_1" xmlns="http://www.w3.org/2000/svg" xmlns:xlink="http://www.w3.org/1999/xlink" x="0px" y="0px"
	 viewBox="0 0 59.979 59.979" style="enable-background:new 0 0 59.979 59.979;" xml:space="preserve">
<g>
	<path d="M21.67,35.636c0.232,0,0.465-0.081,0.653-0.242l3.855-3.321c0.911-0.797,1.536-1.809,1.809-2.925
		c0.181-0.74,0.144-1.236,0.113-1.44C27.887,25.591,26.248,24,24.271,24c-0.978,0-1.896,0.371-2.59,1.006
		C21.001,24.366,20.107,24,19.135,24c-1.977,0-3.617,1.592-3.829,3.708c-0.031,0.204-0.068,0.699,0.113,1.438
		c0.273,1.117,0.898,2.129,1.808,2.924l3.785,3.317C21.199,35.553,21.435,35.636,21.67,35.636z M17.361,28.672
		c-0.099-0.406-0.08-0.642-0.082-0.642l0,0.001c0.007-0.034,0.012-0.068,0.015-0.103C17.382,26.97,18.042,26,19.135,26
		c0.712,0,1.318,0.412,1.619,1.103c0.159,0.364,0.519,0.6,0.917,0.6s0.757-0.235,0.917-0.6C22.879,26.433,23.541,26,24.271,26
		c1.092,0,1.753,0.971,1.851,1.999c0,0,0.028,0.241-0.078,0.673c-0.174,0.715-0.583,1.37-1.177,1.89l-3.191,2.749l-3.132-2.745
		C17.945,30.042,17.535,29.388,17.361,28.672z"/>
	<path d="M42.271,24c-0.978,0-1.896,0.371-2.59,1.006C39.001,24.366,38.107,24,37.135,24c-1.977,0-3.617,1.592-3.829,3.708
		c-0.031,0.204-0.068,0.699,0.113,1.438c0.273,1.117,0.898,2.129,1.808,2.924l3.785,3.317c0.188,0.165,0.424,0.248,0.659,0.248
		c0.232,0,0.465-0.081,0.653-0.242l3.855-3.321c0.911-0.797,1.536-1.809,1.809-2.925c0.181-0.74,0.144-1.236,0.113-1.44
		C45.887,25.591,44.248,24,42.271,24z M44.044,28.672c-0.174,0.715-0.583,1.37-1.177,1.89l-3.191,2.749l-3.132-2.745
		c-0.599-0.523-1.008-1.178-1.183-1.894c-0.099-0.406-0.08-0.642-0.082-0.642l0,0.001c0.007-0.034,0.012-0.068,0.015-0.103
		C35.382,26.97,36.042,26,37.135,26c0.712,0,1.318,0.412,1.619,1.103c0.159,0.364,0.519,0.6,0.917,0.6s0.757-0.235,0.917-0.6
		C40.879,26.433,41.541,26,42.271,26c1.092,0,1.753,0.971,1.851,1.999C44.122,27.999,44.15,28.24,44.044,28.672z"/>
	<path d="M40.28,39h-19c-0.552,0-1,0.447-1,1c0,5.79,4.71,10.5,10.5,10.5s10.5-4.71,10.5-10.5C41.28,39.447,40.832,39,40.28,39z
		 M30.78,48.5c-4.349,0-7.945-3.282-8.441-7.5h16.883C38.725,45.218,35.129,48.5,30.78,48.5z"/>
	<path d="M56.271,18.843c-0.564-4.081-2.323-7.605-4.826-9.668c-0.644-0.531-1.116-1.365-1.403-2.479
		c-0.826-3.208-3.846-5.451-7.694-5.715c-2.136-0.144-3.993,0.517-6.028,1.331c-0.07,0.028-0.154,0.028-0.276-0.05
		c-0.417-1.106-1.361-1.867-2.658-2.142c-3.007-0.641-7.635,1.31-11.354,4.691c0.006-0.89,0.192-1.687,0.696-1.938l1.686-0.843
		L22.77,1.107c-1.737-0.977-5.923-2.037-9.334,0.945c-1.238,1.084-2.137,2.598-2.599,4.377c-0.094,0.364-0.19,0.755-0.277,1.14
		c-0.038,0.166-0.174,0.217-0.231,0.23c-0.109,0.024-0.197-0.001-0.298-0.122C9.496,7.025,8.681,6.706,7.86,6.82
		C7.064,6.933,6.399,7.441,6.08,8.182C4.112,12.75,0.43,24.374,8.28,34.321v16.658c0,2.757,2.243,5,5,5h3v1.695
		c0,1.271,1.034,2.305,2.305,2.305h23.39c1.271,0,2.305-1.034,2.305-2.305v-1.695h3c2.757,0,5-2.243,5-5V34.374
		C53.452,33.054,57.503,27.762,56.271,18.843z M7.917,8.973c0.016-0.037,0.064-0.149,0.222-0.172
		c0.048-0.008,0.215-0.015,0.394,0.203c0.555,0.66,1.427,0.944,2.269,0.739c0.862-0.209,1.517-0.874,1.71-1.735
		c0.082-0.362,0.173-0.731,0.262-1.076c0.36-1.389,1.045-2.556,1.979-3.373c2.097-1.834,4.417-1.595,5.801-1.195
		c-0.5,0.948-0.648,2.279-0.419,3.911c0.075,0.539,0.442,0.98,0.958,1.15c0.524,0.174,1.09,0.036,1.478-0.357
		c3.808-3.866,8.199-5.454,10.4-4.99c0.941,0.199,1.137,0.72,1.201,0.891c0.198,0.524,0.596,0.941,1.122,1.174
		c0.557,0.244,1.201,0.255,1.77,0.028c1.868-0.747,3.436-1.315,5.149-1.192c2.366,0.161,5.157,1.354,5.894,4.217
		c0.395,1.533,1.09,2.718,2.067,3.523c1.003,0.827,3.412,3.301,4.117,8.398c0.768,5.555-0.699,9.517-2.009,11.811V18.979v-1.747
		l-1.507,0.885c-2.457,1.443-4.605,1.885-6.385,1.314c-0.276-0.089-0.533-0.2-0.771-0.325c-0.092-0.048-0.168-0.107-0.254-0.16
		c-0.138-0.084-0.281-0.164-0.404-0.256c-0.091-0.068-0.166-0.141-0.25-0.212c-0.1-0.084-0.208-0.166-0.297-0.253
		c-0.088-0.084-0.159-0.168-0.236-0.252c-0.068-0.074-0.144-0.148-0.205-0.22c-0.081-0.096-0.144-0.185-0.212-0.276
		c-0.041-0.054-0.09-0.113-0.126-0.164c-0.073-0.104-0.128-0.193-0.182-0.281c-0.017-0.028-0.041-0.063-0.057-0.088
		c-0.126-0.212-0.191-0.352-0.197-0.366c0,0-0.001-0.001-0.001-0.001l-0.217-0.503l-0.547-0.084
		c-9.588-1.477-14.262,2.538-15.57,3.94c-6.965-0.755-9.986-2.757-10.013-2.774l-0.74-0.513l-0.587,0.683
		c-1.559,1.812-3.355,2.734-4.588,3.188L8.28,20.757v0.697v9.368C3.378,22.634,5.843,13.785,7.917,8.973z M42.28,57.675
		c0,0.168-0.137,0.305-0.305,0.305h-23.39c-0.168,0-0.305-0.137-0.305-0.305v-1.695h24V57.675z M50.28,50.979c0,1.654-1.346,3-3,3
		h-3h-28h-3c-1.654,0-3-1.346-3-3V36.791V22.13c1.231-0.532,2.767-1.422,4.196-2.885c1.408,0.73,4.807,2.158,10.708,2.729
		l0.565,0.055l0.336-0.457c0.038-0.051,3.792-4.996,13.546-3.676c0.516,0.89,1.797,2.672,4.113,3.429
		c1.951,0.639,4.143,0.404,6.535-0.693V36.35V50.979z"/>
</g>
<g>
</g>
<g>
</g>
<g>
</g>
<g>
</g>
<g>
</g>
<g>
</g>
<g>
</g>
<g>
</g>
<g>
</g>
<g>
</g>
<g>
</g>
<g>
</g>
<g>
</g>
<g>
</g>
<g>
</g>
</svg>
