<?xml version="1.0" encoding="iso-8859-1"?>
<!-- Generator: Adobe Illustrator 16.0.0, SVG Export Plug-In . SVG Version: 6.00 Build 0)  -->
<!DOCTYPE svg PUBLIC "-//W3C//DTD SVG 1.1//EN" "http://www.w3.org/Graphics/SVG/1.1/DTD/svg11.dtd">
<svg version="1.1" id="Capa_1" xmlns="http://www.w3.org/2000/svg" xmlns:xlink="http://www.w3.org/1999/xlink" x="0px" y="0px"
	 width="46.047px" height="46.048px" viewBox="0 0 46.047 46.048" style="enable-background:new 0 0 46.047 46.048;"
	 xml:space="preserve">
<g>
	<path d="M37.771,24.781c2.103,0,3.806-1.692,3.806-3.794s-1.703-3.794-3.806-3.794h-6.995c-0.314,0-0.602-0.185-0.732-0.473
		c-0.129-0.288-0.078-0.625,0.131-0.862c1.49-1.685,2.395-3.89,2.395-6.315C32.569,4.271,28.295,0,23.024,0
		c-5.271,0-9.545,4.271-9.545,9.542c0,2.425,0.905,4.631,2.395,6.316c0.209,0.237,0.26,0.574,0.13,0.862
		c-0.13,0.288-0.417,0.473-0.732,0.473H8.277c-2.102,0-3.806,1.692-3.806,3.794s1.704,3.794,3.806,3.794h6.196
		c0.716,0,1.296,0.58,1.296,1.296v3.942c0,0.789-0.313,1.547-0.871,2.104l-7.424,7.427c-1.486,1.486-1.485,3.896,0.001,5.383
		c0.713,0.713,1.682,1.114,2.691,1.114c1.009,0,1.978-0.401,2.691-1.114l5.678-5.679c1.19-1.19,2.805-1.858,4.488-1.858
		c1.683,0,3.298,0.668,4.488,1.858l5.678,5.679c1.486,1.485,3.896,1.485,5.382,0c1.487-1.486,1.485-3.896-0.001-5.383l-7.44-7.439
		c-0.56-0.559-0.873-1.315-0.873-2.104v-3.929c0-0.717,0.58-1.296,1.297-1.296L37.771,24.781L37.771,24.781z M25.709,6.921
		c0.676,0,1.224,0.547,1.224,1.224c0,0.676-0.548,1.223-1.224,1.223s-1.224-0.547-1.224-1.223
		C24.486,7.469,25.034,6.921,25.709,6.921z M20.338,6.921c0.676,0,1.224,0.547,1.224,1.224c0,0.676-0.548,1.223-1.224,1.223
		c-0.676,0-1.224-0.547-1.224-1.223C19.114,7.469,19.662,6.921,20.338,6.921z M23.024,30.087c-0.676,0-1.224-0.547-1.224-1.223
		c0-0.677,0.548-1.224,1.224-1.224s1.225,0.547,1.225,1.224C24.247,29.54,23.7,30.087,23.024,30.087z M23.024,24.926
		c-0.676,0-1.224-0.548-1.224-1.224c0-0.676,0.548-1.224,1.224-1.224s1.225,0.548,1.225,1.224
		C24.247,24.378,23.7,24.926,23.024,24.926z M23.205,14.261c-0.063,0-0.298,0-0.362,0c-4.928,0-5.705-4.321-5.712-4.365
		c-0.047-0.286,0.145-0.555,0.431-0.604c0.289-0.045,0.558,0.146,0.607,0.431c0.025,0.143,0.654,3.49,4.674,3.49
		c0.064,0,0.299,0,0.362,0c4.045,0,4.65-3.346,4.674-3.488c0.047-0.287,0.318-0.489,0.604-0.436
		c0.287,0.047,0.481,0.319,0.433,0.605C28.911,9.939,28.133,14.261,23.205,14.261z"/>
</g>
<g>
</g>
<g>
</g>
<g>
</g>
<g>
</g>
<g>
</g>
<g>
</g>
<g>
</g>
<g>
</g>
<g>
</g>
<g>
</g>
<g>
</g>
<g>
</g>
<g>
</g>
<g>
</g>
<g>
</g>
</svg>
