<?xml version="1.0" encoding="iso-8859-1"?>
<!-- Generator: Adobe Illustrator 19.0.0, SVG Export Plug-In . SVG Version: 6.00 Build 0)  -->
<svg version="1.1" id="Layer_1" xmlns="http://www.w3.org/2000/svg" xmlns:xlink="http://www.w3.org/1999/xlink" x="0px" y="0px"
	 viewBox="0 0 320 320" style="enable-background:new 0 0 320 320;" xml:space="preserve">
<g id="XMLID_341_">
	<g>
		<path d="M270,222.622c0-9.511,0-27.269,0-47.622c0-30.376-29.624-55-60-55h-70V95c0-30.376-24.624-55-55-55
			c-24.327,0-44.952,15.802-52.206,37.696C16.923,83.507,0,92.608,0,105.001c0,11.666,15,20.416,30,26.249V175
			c0,30.376,24.624,55,55,55h25c0,22.092,17.908,40,40,40v-40h62.109C192.502,241.298,180,260.643,180,280c0,0,20,0,40,0
			c10,0,30-10,30-20c0,10,20,20,30,20c20,0,40,0,40,0C320,255.26,299.588,230.537,270,222.622z M80,110c-5.523,0-10-4.477-10-10
			s4.477-10,10-10s10,4.477,10,10S85.523,110,80,110z"/>
	</g>
</g>
<g>
</g>
<g>
</g>
<g>
</g>
<g>
</g>
<g>
</g>
<g>
</g>
<g>
</g>
<g>
</g>
<g>
</g>
<g>
</g>
<g>
</g>
<g>
</g>
<g>
</g>
<g>
</g>
<g>
</g>
</svg>
