<?xml version="1.0" encoding="iso-8859-1"?>
<!-- Generator: Adobe Illustrator 19.0.0, SVG Export Plug-In . SVG Version: 6.00 Build 0)  -->
<svg version="1.1" id="Layer_1" xmlns="http://www.w3.org/2000/svg" xmlns:xlink="http://www.w3.org/1999/xlink" x="0px" y="0px"
	 viewBox="0 0 300 300" style="enable-background:new 0 0 300 300;" xml:space="preserve">
<g id="XMLID_448_">
	<g>
		<g>
			<circle cx="120" cy="90" r="10"/>
			<circle cx="180" cy="90" r="10"/>
			<path d="M266.568,163.431c-4.795-4.795-10.506-8.111-16.568-9.962V100C250,44.771,205.229,0,150,0S50,44.771,50,100v53.469
				c-6.063,1.851-11.773,5.167-16.568,9.962c-15.621,15.622-15.621,40.947,0,56.569L50,203.432V210
				c0,27.833,11.378,53,29.728,71.128C76.714,286.75,75,293.174,75,300h150c0-6.826-1.714-13.25-4.729-18.872
				C238.622,263.001,250,237.833,250,210v-6.568L266.568,220C282.19,204.378,282.19,179.053,266.568,163.431z M210,250
				c0,5.895-0.863,11.584-2.448,16.964C201.131,262.573,193.367,260,185,260c-15.064,0-28.178,8.331-35,20.634
				C143.178,268.331,130.064,260,115,260c-8.367,0-16.13,2.573-22.552,6.965C90.863,261.585,90,255.895,90,250V85
				c0-19.33,15.67-35,35-35c9.796,0,18.647,4.029,25,10.515C156.352,54.029,165.204,50,175,50c19.33,0,35,15.67,35,35V250z"/>
			<polygon points="120,130 150,160 180,130 150,110 			"/>
		</g>
	</g>
</g>
<g>
</g>
<g>
</g>
<g>
</g>
<g>
</g>
<g>
</g>
<g>
</g>
<g>
</g>
<g>
</g>
<g>
</g>
<g>
</g>
<g>
</g>
<g>
</g>
<g>
</g>
<g>
</g>
<g>
</g>
</svg>
