<?xml version="1.0" encoding="iso-8859-1"?>
<!-- Generator: Adobe Illustrator 17.1.0, SVG Export Plug-In . SVG Version: 6.00 Build 0)  -->
<!DOCTYPE svg PUBLIC "-//W3C//DTD SVG 1.1//EN" "http://www.w3.org/Graphics/SVG/1.1/DTD/svg11.dtd">
<svg version="1.1" id="Capa_1" xmlns="http://www.w3.org/2000/svg" xmlns:xlink="http://www.w3.org/1999/xlink" x="0px" y="0px"
	 viewBox="0 0 213.232 213.232" style="enable-background:new 0 0 213.232 213.232;" xml:space="preserve">
<path d="M172.157,107.387c-12.211-3.778-24.839-7.684-27.152-14.195c-1.177-3.314,0.224-7.991,4.164-13.902
	c3.145-4.717,8.136-8.024,12.963-11.222c8.747-5.794,19.633-13.006,15.385-29.468C168.519,3.735,130.924-4.763,97.654,2.282
	C67.78,8.608,39.783,28.52,44.076,54.337c1.286,7.731,5.63,11.25,8.803,13.819c4.007,3.246,6.655,5.39,4.259,17.639
	c-0.922,4.709-2.617,9.266-5.04,13.543l-15.889,28.06l-2.756-1.465c-1.172-0.623-2.541-0.754-3.81-0.366
	c-1.268,0.388-2.33,1.263-2.953,2.434L3.607,171.424c-3.232,6.081-0.915,13.658,5.165,16.89c1.8,0.958,3.826,1.463,5.856,1.463
	c4.633,0,8.86-2.54,11.034-6.628l23.084-43.423c1.296-2.438,0.37-5.466-2.068-6.762l-1.637-0.87L60.8,104.265
	c2.953-5.215,5.023-10.783,6.152-16.55c3.284-16.787-1.58-22.309-7.779-27.33c-2.751-2.229-4.569-3.701-5.232-7.689
	c-3.228-19.41,21.181-35.421,45.785-40.631c28.608-6.058,60.763,0.57,68.108,29.034c2.362,9.155-1.978,12.506-11.225,18.632
	c-5.389,3.57-11.498,7.617-15.761,14.011c-5.867,8.801-7.59,16.257-5.267,22.796c3.992,11.235,18.383,15.687,33.62,20.401
	c19.861,6.144,32.806,11.052,31.824,22.828c-0.635,7.623-3.521,13.104-8.578,16.29c-8.394,5.291-21.913,3.952-31.586,0.276
	c-7.355-2.793-12.389-5.744-16.83-8.347c-7.848-4.601-14.626-8.574-28.608-8.804c-16.37-0.239-27.096,10.423-32.139,16.99
	l-2.349-1.944c-1.021-0.846-2.341-1.25-3.658-1.126c-1.32,0.125-2.537,0.769-3.382,1.79L42.543,192.78
	c-2.127,2.57-3.125,5.814-2.813,9.136c0.313,3.322,1.901,6.322,4.471,8.449c2.235,1.849,5.061,2.868,7.959,2.868
	c3.737,0,7.245-1.65,9.625-4.526L93.14,170.82c0.845-1.022,1.25-2.337,1.126-3.658s-0.769-2.537-1.79-3.382l-1.486-1.229
	c3.727-4.952,12.002-13.588,24.269-13.368c11.355,0.186,16.272,3.068,23.715,7.432c4.78,2.802,10.197,5.978,18.336,9.069
	c5.805,2.205,13.286,3.866,20.831,3.866c6.905,0,13.864-1.392,19.638-5.03c5.401-3.404,12.078-10.317,13.211-23.92
	C212.713,119.933,190.226,112.977,172.157,107.387z"/>
<g>
</g>
<g>
</g>
<g>
</g>
<g>
</g>
<g>
</g>
<g>
</g>
<g>
</g>
<g>
</g>
<g>
</g>
<g>
</g>
<g>
</g>
<g>
</g>
<g>
</g>
<g>
</g>
<g>
</g>
</svg>
