<?xml version="1.0" encoding="iso-8859-1"?>
<!-- Generator: Adobe Illustrator 19.0.0, SVG Export Plug-In . SVG Version: 6.00 Build 0)  -->
<svg version="1.1" id="Capa_1" xmlns="http://www.w3.org/2000/svg" xmlns:xlink="http://www.w3.org/1999/xlink" x="0px" y="0px"
	 viewBox="0 0 463 463" style="enable-background:new 0 0 463 463;" xml:space="preserve">
<path d="M455.5,400h-9.495l-36.714-257H423.5c1.989,0,3.897-0.79,5.303-2.196l32-32c2.145-2.146,2.787-5.371,1.626-8.174
	c-1.161-2.803-3.896-4.63-6.929-4.63h-48c-0.169,0-0.334,0.014-0.5,0.025V55.5c0-4.143-3.358-7.5-7.5-7.5s-7.5,3.357-7.5,7.5V64h-25
	v-8.5c0-4.143-3.358-7.5-7.5-7.5s-7.5,3.357-7.5,7.5V96H111V55.5c0-4.143-3.358-7.5-7.5-7.5S96,51.358,96,55.5V64H71v-8.5
	c0-4.143-3.358-7.5-7.5-7.5S56,51.358,56,55.5v40.525C55.834,96.014,55.669,96,55.5,96h-48c-3.034,0-5.768,1.827-6.929,4.63
	c-1.161,2.803-0.519,6.028,1.626,8.174l32,32C35.603,142.21,37.511,143,39.5,143H53.71L16.995,400H7.5c-4.142,0-7.5,3.357-7.5,7.5
	s3.358,7.5,7.5,7.5h40c0.242,0,0.48-0.014,0.717-0.036c0.086-0.008,0.17-0.023,0.255-0.034c0.148-0.019,0.295-0.039,0.441-0.067
	c0.101-0.019,0.2-0.043,0.299-0.067c0.126-0.03,0.251-0.061,0.375-0.097c0.104-0.03,0.206-0.063,0.308-0.097
	c0.116-0.039,0.231-0.081,0.344-0.126c0.101-0.04,0.201-0.08,0.3-0.124c0.113-0.05,0.222-0.104,0.332-0.16
	c0.094-0.047,0.188-0.093,0.279-0.144c0.12-0.067,0.235-0.14,0.351-0.213c0.075-0.047,0.152-0.091,0.225-0.141
	c0.184-0.126,0.363-0.259,0.535-0.4c0.035-0.029,0.067-0.061,0.102-0.091c0.139-0.118,0.275-0.24,0.405-0.368
	c0.055-0.054,0.106-0.112,0.159-0.168c0.104-0.109,0.206-0.219,0.304-0.334c0.056-0.067,0.109-0.136,0.163-0.205
	c0.086-0.11,0.171-0.221,0.251-0.335c0.055-0.078,0.107-0.157,0.158-0.237c0.071-0.11,0.139-0.222,0.205-0.337
	c0.051-0.088,0.1-0.177,0.147-0.268c0.057-0.111,0.11-0.224,0.163-0.338c0.045-0.099,0.091-0.197,0.132-0.297
	c0.044-0.11,0.083-0.222,0.123-0.335c0.038-0.108,0.078-0.215,0.111-0.326c0.035-0.117,0.062-0.237,0.091-0.356
	c0.027-0.108,0.058-0.214,0.08-0.324c0-0.002,0.001-0.005,0.002-0.007L108.049,143H160v48.5c0,9.766,5.99,18.157,14.487,21.7
	L153.534,304H151.5c-4.142,0-7.5,3.357-7.5,7.5v48c0,4.143,3.358,7.5,7.5,7.5h64c4.142,0,7.5-3.357,7.5-7.5v-48
	c0-4.143-3.358-7.5-7.5-7.5h-2.033l-20.954-90.8c8.498-3.542,14.487-11.934,14.487-21.7V143h73v48.5c0,8.547,6.953,15.5,15.5,15.5
	h32c8.547,0,15.5-6.953,15.5-15.5V143h11.951l53.194,265.971c0,0.002,0.001,0.005,0.002,0.007c0.022,0.11,0.053,0.216,0.08,0.324
	c0.029,0.119,0.057,0.239,0.091,0.356c0.033,0.11,0.073,0.218,0.111,0.326c0.039,0.113,0.078,0.225,0.123,0.335
	c0.041,0.101,0.086,0.199,0.132,0.297c0.052,0.114,0.105,0.227,0.163,0.338c0.047,0.091,0.097,0.179,0.147,0.268
	c0.065,0.114,0.134,0.227,0.205,0.337c0.052,0.08,0.104,0.159,0.158,0.237c0.08,0.115,0.165,0.226,0.251,0.335
	c0.054,0.069,0.107,0.138,0.163,0.205c0.097,0.115,0.2,0.225,0.304,0.334c0.053,0.056,0.104,0.114,0.159,0.168
	c0.13,0.128,0.266,0.25,0.405,0.368c0.035,0.03,0.067,0.062,0.102,0.091c0.172,0.141,0.351,0.274,0.535,0.4
	c0.073,0.05,0.15,0.094,0.225,0.141c0.116,0.073,0.231,0.146,0.351,0.213c0.091,0.051,0.185,0.097,0.279,0.144
	c0.11,0.055,0.219,0.11,0.332,0.16c0.099,0.044,0.199,0.084,0.3,0.124c0.114,0.045,0.228,0.087,0.344,0.126
	c0.102,0.034,0.204,0.067,0.308,0.097c0.124,0.036,0.249,0.067,0.375,0.097c0.099,0.023,0.198,0.047,0.299,0.067
	c0.145,0.028,0.293,0.048,0.441,0.067c0.085,0.011,0.169,0.026,0.255,0.034c0.237,0.022,0.475,0.036,0.717,0.036h40
	c4.142,0,7.5-3.357,7.5-7.5S459.642,400,455.5,400z M407.5,111h29.894l-17,17H407.5c-0.118,0-0.233,0.012-0.35,0.018l-0.15-1.052
	v-15.991C407.166,110.986,407.331,111,407.5,111z M392,79v41h-25V79H392z M352,111v16.5c0,0.133,0.013,0.263,0.02,0.394
	c0.002,0.035,0.001,0.07,0.003,0.106H110.977c0.002-0.035,0.001-0.07,0.003-0.106c0.007-0.131,0.02-0.261,0.02-0.394V111H352z
	 M96,79v41H71V79H96z M55.5,128H42.607l-17-17H55.5c0.169,0,0.334-0.014,0.5-0.025v15.991l-0.15,1.052
	C55.733,128.012,55.618,128,55.5,128z M41.352,400h-9.204l37.857-265h24.347L41.352,400z M183.5,200c-4.687,0-8.5-3.813-8.5-8.5
	s3.813-8.5,8.5-8.5s8.5,3.813,8.5,8.5S188.187,200,183.5,200z M208,352h-49v-33h0.473c0.011,0,0.023,0.002,0.034,0.002
	c0.008,0,0.015-0.002,0.023-0.002h47.941c0.008,0,0.015,0.002,0.023,0.002c0.011,0,0.023-0.002,0.034-0.002H208V352z M168.928,304
	l14.572-63.145L198.072,304H168.928z M192,169.598c-2.638-1.027-5.503-1.597-8.5-1.597s-5.862,0.57-8.5,1.597V143h17V169.598z
	 M327.5,192h-32c-0.276,0-0.5-0.225-0.5-0.5V167h33v24.5C328,191.776,327.776,192,327.5,192z M328,152h-33v-9h33V152z M421.649,400
	l-53-265h24.347l37.857,265H421.649z"/>
<g>
</g>
<g>
</g>
<g>
</g>
<g>
</g>
<g>
</g>
<g>
</g>
<g>
</g>
<g>
</g>
<g>
</g>
<g>
</g>
<g>
</g>
<g>
</g>
<g>
</g>
<g>
</g>
<g>
</g>
</svg>
