<?xml version="1.0" encoding="iso-8859-1"?>
<!-- Generator: Adobe Illustrator 18.0.0, SVG Export Plug-In . SVG Version: 6.00 Build 0)  -->
<!DOCTYPE svg PUBLIC "-//W3C//DTD SVG 1.1//EN" "http://www.w3.org/Graphics/SVG/1.1/DTD/svg11.dtd">
<svg version="1.1" id="Capa_1" xmlns="http://www.w3.org/2000/svg" xmlns:xlink="http://www.w3.org/1999/xlink" x="0px" y="0px"
	 viewBox="0 0 59.978 59.978" style="enable-background:new 0 0 59.978 59.978;" xml:space="preserve">
<g>
	<path d="M43.825,38.999c-0.894,0-1.734,0.33-2.381,0.896c-0.632-0.571-1.452-0.896-2.342-0.896c-1.858,0-3.4,1.494-3.601,3.48
		c-0.029,0.196-0.063,0.662,0.105,1.351c0.255,1.043,0.839,1.987,1.688,2.73l3.479,3.049c0.188,0.165,0.424,0.248,0.659,0.248
		c0.232,0,0.465-0.081,0.652-0.242l3.547-3.055c0.849-0.743,1.433-1.688,1.688-2.729c0.168-0.689,0.135-1.156,0.105-1.353
		C47.226,40.492,45.684,38.999,43.825,38.999z M45.377,43.356c-0.156,0.641-0.523,1.229-1.056,1.694l-2.882,2.482l-2.826-2.477
		c-0.539-0.472-0.906-1.06-1.063-1.702c-0.085-0.349-0.072-0.552-0.075-0.554c0.006-0.033,0.011-0.067,0.015-0.102
		c0.078-0.845,0.656-1.7,1.612-1.7c0.622,0,1.15,0.36,1.415,0.965c0.159,0.364,0.519,0.6,0.916,0.6s0.757-0.235,0.916-0.599
		c0.257-0.587,0.836-0.966,1.476-0.966c0.956,0,1.534,0.855,1.621,1.768C45.447,42.768,45.47,42.977,45.377,43.356z"/>
	<path d="M25.762,33.7c0.383-0.131,0.649-0.479,0.675-0.883c0.244-3.846-3.036-7.571-6.882-7.816
		c-0.542-0.03-1.026,0.384-1.062,0.935s0.383,1.026,0.935,1.062c1.982,0.126,3.802,1.599,4.598,3.44
		c-2.468-1.21-5.531-0.897-7.717,1.027c-0.414,0.365-0.454,0.997-0.09,1.412c0.366,0.415,0.997,0.453,1.412,0.09
		c1.003-0.884,2.298-1.327,3.621-1.239c1.333,0.085,2.553,0.684,3.436,1.688c0.193,0.219,0.469,0.339,0.751,0.339
		C25.547,33.754,25.656,33.736,25.762,33.7z"/>
	<path d="M30.04,39.999c-1.021,0-1.979,0.451-2.63,1.239c-0.353,0.425-0.292,1.056,0.134,1.407c0.427,0.353,1.057,0.291,1.407-0.134
		c0.27-0.325,0.667-0.513,1.089-0.513c0.777,0,1.409,0.632,1.409,1.409s-0.632,1.41-1.409,1.41c-0.332,0-0.643-0.111-0.896-0.321
		c-0.426-0.354-1.056-0.294-1.407,0.132c-0.353,0.425-0.294,1.056,0.132,1.407c0.376,0.312,0.817,0.525,1.284,0.651
		c0.09,0.07,0.177,0.145,0.247,0.235c0.478,0.613,0.367,1.501-0.245,1.979c-0.613,0.478-1.502,0.366-1.979-0.245
		c-0.204-0.262-0.307-0.575-0.297-0.905c0.016-0.553-0.419-1.013-0.971-1.029c-0.01,0-0.02,0-0.03,0
		c-0.538,0-0.983,0.429-0.999,0.971c-0.022,0.79,0.232,1.568,0.719,2.193c0.672,0.86,1.678,1.312,2.693,1.312
		c0.733,0,1.471-0.234,2.093-0.718c1.227-0.958,1.605-2.59,1.049-3.966c1.186-0.535,2.016-1.722,2.016-3.105
		C33.449,41.528,31.92,39.999,30.04,39.999z"/>
	<path d="M56.27,18.842c-0.563-4.082-2.323-7.606-4.825-9.668c-0.644-0.53-1.115-1.365-1.402-2.479
		c-0.826-3.208-3.847-5.451-7.694-5.715c-2.14-0.148-3.994,0.518-6.028,1.331c-0.07,0.028-0.155,0.028-0.277-0.05
		c-0.416-1.106-1.36-1.867-2.658-2.143c-3.002-0.634-7.635,1.311-11.353,4.692c0.006-0.89,0.191-1.687,0.695-1.938l1.685-0.843
		L22.77,1.106c-1.739-0.977-5.926-2.037-9.334,0.945c-1.237,1.083-2.137,2.596-2.599,4.377c-0.095,0.364-0.191,0.755-0.277,1.139
		c-0.038,0.167-0.175,0.218-0.231,0.231c-0.106,0.024-0.196,0-0.298-0.122c-0.535-0.651-1.34-0.974-2.171-0.857
		C7.064,6.932,6.399,7.44,6.079,8.181c-1.968,4.568-5.648,16.194,2.2,26.139v16.658c0,2.757,2.243,5,5,5h3v1.695
		c0,1.271,1.034,2.305,2.306,2.305h23.389c1.271,0,2.306-1.034,2.306-2.305v-1.695h3c2.757,0,5-2.243,5-5V34.373
		C53.451,33.055,57.503,27.762,56.27,18.842z M7.915,8.973C7.932,8.935,7.98,8.822,8.138,8.8c0.05-0.006,0.216-0.014,0.394,0.202
		c0.554,0.662,1.424,0.943,2.268,0.74c0.862-0.209,1.519-0.874,1.712-1.735c0.082-0.362,0.173-0.731,0.262-1.076
		c0.361-1.39,1.046-2.557,1.979-3.373c2.095-1.835,4.415-1.597,5.801-1.195c-0.5,0.948-0.648,2.28-0.419,3.913
		c0.076,0.538,0.443,0.979,0.959,1.149c0.521,0.169,1.089,0.035,1.478-0.358c3.809-3.866,8.201-5.457,10.399-4.99
		c0.94,0.199,1.137,0.72,1.201,0.891c0.198,0.525,0.597,0.942,1.123,1.174c0.557,0.244,1.203,0.253,1.768,0.028
		c1.867-0.747,3.436-1.309,5.149-1.192c2.366,0.161,5.156,1.354,5.894,4.217c0.396,1.532,1.091,2.718,2.067,3.523
		c1.003,0.827,3.412,3.3,4.117,8.398c0.768,5.555-0.699,9.517-2.01,11.811V18.978v-1.747l-1.507,0.885
		c-2.456,1.443-4.603,1.889-6.385,1.314c-0.277-0.089-0.535-0.2-0.774-0.326c-0.06-0.031-0.107-0.071-0.164-0.104
		c-0.172-0.1-0.344-0.201-0.495-0.313c-0.053-0.039-0.094-0.082-0.145-0.123c-0.141-0.113-0.283-0.226-0.404-0.343
		c-0.054-0.052-0.094-0.103-0.144-0.154c-0.103-0.108-0.21-0.216-0.298-0.321c-0.051-0.062-0.088-0.116-0.134-0.175
		c-0.07-0.09-0.146-0.184-0.204-0.267c-0.042-0.061-0.07-0.108-0.106-0.164c-0.045-0.07-0.098-0.147-0.133-0.206
		c-0.021-0.035-0.03-0.054-0.047-0.085c-0.087-0.154-0.141-0.264-0.143-0.267l-0.22-0.508l-0.546-0.084
		c-9.596-1.476-14.262,2.538-15.57,3.94c-6.965-0.755-9.986-2.757-10.013-2.774l-0.74-0.513l-0.587,0.683
		c-0.389,0.453-0.794,0.85-1.201,1.198c-1.221,1.045-2.463,1.649-3.388,1.99l-0.653,0.241v0.697v9.368
		C3.378,22.634,5.843,13.785,7.915,8.973z M42.279,57.674c0,0.168-0.137,0.305-0.306,0.305H18.585c-0.169,0-0.306-0.137-0.306-0.305
		v-1.695h24V57.674z M50.279,50.978c0,1.654-1.346,3-3,3h-3h-28h-3c-1.654,0-3-1.346-3-3V36.79V22.129
		c1.231-0.532,2.768-1.422,4.196-2.885c1.407,0.73,4.807,2.158,10.707,2.729l0.562,0.05l0.337-0.448
		c0.156-0.207,3.893-4.992,13.55-3.68c0.516,0.89,1.798,2.673,4.113,3.429c1.952,0.639,4.144,0.404,6.535-0.693v15.718V50.978z"/>
	<path d="M45.449,29.999c0-3.859-3.141-7-7-7s-7,3.141-7,7s3.141,7,7,7S45.449,33.858,45.449,29.999z M33.449,29.999
		c0-2.757,2.243-5,5-5s5,2.243,5,5s-2.243,5-5,5S33.449,32.756,33.449,29.999z"/>
	<circle cx="38.449" cy="29.999" r="2"/>
</g>
<g>
</g>
<g>
</g>
<g>
</g>
<g>
</g>
<g>
</g>
<g>
</g>
<g>
</g>
<g>
</g>
<g>
</g>
<g>
</g>
<g>
</g>
<g>
</g>
<g>
</g>
<g>
</g>
<g>
</g>
</svg>
