<?xml version="1.0" encoding="iso-8859-1"?>
<!-- Generator: Adobe Illustrator 18.1.1, SVG Export Plug-In . SVG Version: 6.00 Build 0)  -->
<svg version="1.1" id="Capa_1" xmlns="http://www.w3.org/2000/svg" xmlns:xlink="http://www.w3.org/1999/xlink" x="0px" y="0px"
	 viewBox="0 0 280.002 280.002" style="enable-background:new 0 0 280.002 280.002;" xml:space="preserve">
<g>
	<g>
		<path style="fill:#030104;" d="M183.255,98.807c8.986-28.332,3.26-50.848-9.545-66.221c-2.379-5.635-2.802-10.562-1.756-14.947
			c1.828-2.376,4.832-3.667,8.395-4.447c-2.25-0.429-4.457-0.62-6.582-0.353c2.547-4.863,6.984-9.037,12.438-12.839
			c-11.791,2.475-22.043,7.299-27.397,19.649C137.952,6.58,110.007,5.378,89.859,18.657C84.393,7.041,74.379,2.404,62.911,0.001
			c5.446,3.8,9.877,7.97,12.424,12.823c-2.079-0.242-4.243-0.047-6.444,0.369c3.443,0.752,6.364,1.984,8.206,4.209
			c1.162,4.608,0.698,9.807-1.965,15.811c-9.959,14.668-14.391,36.376-8.596,65.951c-22.123,92.29,20.481,114.446,61.513,132.6
			c-1.054,4.916-3.736,7.779-7.996,8.643c-13.521-5.423-28.479,6.781-21.061,21.801c2.694-12.213,7.925-15.994,14.745-14.496
			c-2.595,5.15-2.4,10.66,0.123,16.477c2.687-7.592,6.848-12.645,14.492-11.644c-2.49,5.776-1.72,12.39,0.246,19.323
			c10.615-24.438,23.82-22.383,38.892-1.238c3.545-10.217,2.699-18.566-9.287-22.172l0.035-2.373
			c10.469,5.975,19.355,13.055,25,22.891c12.761,14.112,21.596,15.618,24.771-0.991v-0.001
			C228.607,197.58,222.276,139.563,183.255,98.807z M126.287,109.074c-42.255-3.484-57.022-22.135-50.536-54.625
			c10.454-33.17,34.827-29.883,49.793-3.718c14.405-28.814,35.89-24.457,48.06-3.964C187.42,77.837,168.329,107.448,126.287,109.074
			z M135.548,235.068l13.123,6.013C142.08,248.406,133.493,248.268,135.548,235.068z M197.508,255.834
			c-6.438-50.953-66.64-86.289-54.499-135.755l5.268-0.495c-12.141,49.466,48.06,84.802,54.499,135.755L197.508,255.834z"/>
		<path style="fill:#030104;" d="M120.166,84.808c-0.281,8.138,2.379,14.322,6.071,19.82c3.5-4.974,5.621-11.458,5.822-20.068
			C130.931,75.997,121.463,75.198,120.166,84.808z"/>
		<path style="fill:#030104;" d="M136.477,71.5c9.585,12.926,19.29,11.029,29.095-2.995C154.46,57.007,144.647,56.978,136.477,71.5z
			"/>
		<path style="fill:#030104;" d="M85.114,66.731c5.486,15.127,15.328,16.086,28.736,5.449
			C106.492,57.988,97.096,55.149,85.114,66.731z"/>
	</g>
</g>
<g>
</g>
<g>
</g>
<g>
</g>
<g>
</g>
<g>
</g>
<g>
</g>
<g>
</g>
<g>
</g>
<g>
</g>
<g>
</g>
<g>
</g>
<g>
</g>
<g>
</g>
<g>
</g>
<g>
</g>
</svg>
