<?xml version="1.0" encoding="iso-8859-1"?>
<!-- Generator: Adobe Illustrator 16.0.0, SVG Export Plug-In . SVG Version: 6.00 Build 0)  -->
<!DOCTYPE svg PUBLIC "-//W3C//DTD SVG 1.1//EN" "http://www.w3.org/Graphics/SVG/1.1/DTD/svg11.dtd">
<svg version="1.1" id="Capa_1" xmlns="http://www.w3.org/2000/svg" xmlns:xlink="http://www.w3.org/1999/xlink" x="0px" y="0px"
	 width="380.721px" height="380.722px" viewBox="0 0 380.721 380.722" style="enable-background:new 0 0 380.721 380.722;"
	 xml:space="preserve">
<g>
	<g>
		<path d="M129.194,195.246c0.25-4.072,0.5-8.15,1.034-12.269c0.987-9.766,3.108-19.572,5.275-29.111
			c1.319-4.758,2.748-9.458,4.247-14.053c1.917-4.485,3.793-8.946,5.664-13.303c4.235-8.505,8.97-16.452,14.622-23.104
			c1.342-1.714,2.672-3.375,3.974-5.042c1.487-1.487,2.975-2.928,4.409-4.369c3.027-2.736,5.652-5.699,8.674-7.872
			c6.023-4.461,11.352-8.702,16.777-11.328c5.229-2.917,9.713-5.449,13.756-6.878c7.924-3.189,12.421-4.792,12.421-4.792
			s-3.835,3.044-10.538,7.982c-3.463,2.26-7.134,5.827-11.503,9.481c-4.555,3.485-8.679,8.481-13.582,13.269
			c-2.452,2.446-4.356,5.519-6.675,8.348c-1.127,1.441-2.283,2.893-3.475,4.369c-0.964,1.627-1.963,3.259-2.974,4.926
			c-4.328,6.414-7.563,13.943-10.934,21.582c-1.383,3.997-2.782,8.052-4.212,12.147c-0.976,4.258-2.056,8.562-3.235,12.85
			c-1.772,8.812-3.509,17.8-4.259,27.042c-0.522,3.352-0.772,6.733-1.086,10.137c73.436,0.012,130.274,0.058,209.805,0.058
			c0.267-3.486,0.418-7.018,0.418-10.567c0-66.981-48.811-122.147-111.621-129.455c4.055-3.793,6.623-9.173,6.623-15.157
			c0.023-11.502-9.295-20.809-20.774-20.809c-11.491,0-20.82,9.307-20.82,20.809c0,5.996,2.556,11.363,6.622,15.157
			c-62.805,7.308-111.603,62.474-111.603,129.455c0,3.538,0.127,7.023,0.389,10.498
			C114.369,195.246,121.857,195.246,129.194,195.246z"/>
		<rect x="83.329" y="202.995" width="297.392" height="26.236"/>
		<path d="M258.631,247.855c-15.115,7.343-67.818,26.351-67.818,26.351l-62.299-3.903c0,0,35.635-9.911,49.449-13.013
			c13.838-3.091,7.819-18.694,0.168-18.694c-7.65,0-74.324,2.753-74.324,2.753L59.534,257.29l11.717,74.162
			c0,0,9.115-15.604,18.207-15.604c9.126,0,88.174,2.103,98.904,0c10.736-2.127,76.126-46.859,83.957-52.076
			C280.115,258.579,273.805,240.501,258.631,247.855z"/>
		<polygon points="0,265.261 0,361.394 67.83,348.694 50.861,256.313 		"/>
	</g>
</g>
<g>
</g>
<g>
</g>
<g>
</g>
<g>
</g>
<g>
</g>
<g>
</g>
<g>
</g>
<g>
</g>
<g>
</g>
<g>
</g>
<g>
</g>
<g>
</g>
<g>
</g>
<g>
</g>
<g>
</g>
</svg>
