<?xml version="1.0" encoding="iso-8859-1"?>
<!-- Generator: Adobe Illustrator 19.0.0, SVG Export Plug-In . SVG Version: 6.00 Build 0)  -->
<svg version="1.1" id="Capa_1" xmlns="http://www.w3.org/2000/svg" xmlns:xlink="http://www.w3.org/1999/xlink" x="0px" y="0px"
	 viewBox="0 0 463 463" style="enable-background:new 0 0 463 463;" xml:space="preserve">
<g>
	<path d="M455.5,200h-27.034c-2.161-13.662-5.705-26.98-10.574-39.741l23.348-13.479c1.723-0.995,2.979-2.632,3.495-4.554
		c0.515-1.921,0.245-3.969-0.75-5.691l-24-41.569c-0.995-1.723-2.633-2.979-4.554-3.495c-1.92-0.513-3.969-0.245-5.691,0.75
		l-23.405,13.513c-8.668-10.659-18.409-20.4-29.068-29.068L370.78,53.26c0.995-1.723,1.264-3.77,0.75-5.691
		c-0.515-1.921-1.772-3.559-3.495-4.554l-41.569-24c-1.723-0.996-3.771-1.264-5.691-0.75c-1.921,0.515-3.559,1.772-4.554,3.495
		l-13.479,23.348c-12.76-4.87-26.079-8.414-39.741-10.574V7.5c0-4.142-3.358-7.5-7.5-7.5h-48c-4.142,0-7.5,3.358-7.5,7.5v27.034
		c-13.662,2.161-26.98,5.705-39.741,10.574L146.78,21.76c-0.995-1.723-2.632-2.979-4.554-3.495c-1.921-0.513-3.969-0.245-5.691,0.75
		l-41.569,24c-1.723,0.995-2.979,2.633-3.495,4.554c-0.515,1.921-0.245,3.969,0.75,5.691l13.513,23.405
		c-10.659,8.668-20.4,18.409-29.068,29.068L53.26,92.22c-1.723-0.995-3.77-1.264-5.691-0.75c-1.921,0.515-3.559,1.772-4.554,3.495
		l-24,41.569c-0.995,1.723-1.264,3.77-0.75,5.691c0.515,1.921,1.772,3.559,3.495,4.554l23.348,13.479
		c-4.87,12.76-8.414,26.079-10.574,39.741H7.5c-4.142,0-7.5,3.358-7.5,7.5v48c0,4.142,3.358,7.5,7.5,7.5h27.034
		c2.161,13.662,5.705,26.98,10.574,39.741L21.76,316.22c-1.723,0.995-2.979,2.632-3.495,4.554c-0.515,1.921-0.245,3.969,0.75,5.691
		l24,41.569c0.995,1.723,2.633,2.979,4.554,3.495c1.921,0.514,3.969,0.245,5.691-0.75l23.405-13.513
		c8.668,10.659,18.409,20.4,29.068,29.068L92.22,409.74c-0.995,1.723-1.264,3.77-0.75,5.691c0.515,1.921,1.772,3.559,3.495,4.554
		l41.569,24c1.723,0.995,3.769,1.263,5.691,0.75c1.921-0.515,3.559-1.772,4.554-3.495l13.479-23.348
		c12.76,4.87,26.079,8.414,39.741,10.574V455.5c0,4.142,3.358,7.5,7.5,7.5h48c4.142,0,7.5-3.358,7.5-7.5v-27.034
		c13.662-2.161,26.98-5.705,39.741-10.574l13.479,23.348c0.995,1.723,2.632,2.979,4.554,3.495c1.922,0.515,3.969,0.246,5.691-0.75
		l41.569-24c1.723-0.995,2.979-2.633,3.495-4.554c0.515-1.921,0.245-3.969-0.75-5.691l-13.513-23.405
		c10.659-8.668,20.4-18.409,29.068-29.068l23.405,13.513c1.723,0.994,3.77,1.264,5.691,0.75c1.921-0.515,3.559-1.772,4.554-3.495
		l24-41.569c0.995-1.723,1.264-3.77,0.75-5.691c-0.515-1.921-1.772-3.559-3.495-4.554l-23.348-13.479
		c4.87-12.76,8.414-26.079,10.574-39.741H455.5c4.142,0,7.5-3.358,7.5-7.5v-48C463,203.358,459.642,200,455.5,200z M448,248h-26.046
		c-3.783,0-6.974,2.817-7.442,6.571c-2.1,16.831-6.445,33.149-12.913,48.501c-1.468,3.484-0.113,7.517,3.162,9.407l22.484,12.981
		l-16.5,28.579l-22.539-13.013c-3.272-1.889-7.437-1.05-9.722,1.958c-10.17,13.386-22.114,25.33-35.5,35.5
		c-3.008,2.285-3.847,6.45-1.958,9.722l13.013,22.539l-28.579,16.5l-12.981-22.484c-1.891-3.275-5.924-4.629-9.407-3.162
		c-15.352,6.468-31.67,10.813-48.501,12.913c-3.754,0.469-6.571,3.659-6.571,7.442V448h-33v-26.046c0-3.783-2.817-6.974-6.571-7.442
		c-16.831-2.1-33.149-6.445-48.501-12.913c-3.482-1.465-7.516-0.113-9.407,3.162l-12.981,22.484l-28.579-16.5l13.013-22.539
		c1.889-3.271,1.05-7.437-1.958-9.722c-13.386-10.17-25.33-22.114-35.5-35.5c-2.284-3.008-6.451-3.846-9.722-1.958L52.255,354.04
		l-16.5-28.579l22.484-12.981c3.274-1.89,4.629-5.923,3.162-9.407c-6.468-15.352-10.813-31.67-12.913-48.501
		C48.02,250.817,44.83,248,41.046,248H15v-33h26.046c3.783,0,6.974-2.817,7.442-6.571c2.1-16.831,6.445-33.149,12.913-48.501
		c1.468-3.484,0.113-7.517-3.162-9.407L35.755,137.54l16.5-28.579l22.539,13.013c3.271,1.89,7.438,1.05,9.722-1.958
		c10.17-13.386,22.114-25.33,35.5-35.5c3.008-2.285,3.847-6.45,1.958-9.722L108.96,52.255l28.579-16.5l12.981,22.484
		c1.89,3.274,5.921,4.629,9.407,3.162c15.352-6.468,31.67-10.813,48.501-12.913C212.183,48.02,215,44.83,215,41.046V15h33v26.046
		c0,3.783,2.817,6.974,6.571,7.442c16.831,2.1,33.149,6.445,48.501,12.913c3.483,1.467,7.517,0.114,9.407-3.162l12.981-22.484
		l28.579,16.5l-13.013,22.539c-1.889,3.271-1.05,7.437,1.958,9.722c13.386,10.17,25.33,22.114,35.5,35.5
		c2.285,3.008,6.449,3.846,9.722,1.958l22.539-13.013l16.5,28.579l-22.484,12.981c-3.274,1.89-4.629,5.923-3.162,9.407
		c6.468,15.352,10.813,31.67,12.913,48.501c0.469,3.754,3.659,6.571,7.442,6.571H448V248z"/>
	<path d="M231.5,71.5c-88.224,0-160,71.776-160,160s71.776,160,160,160s160-71.776,160-160S319.724,71.5,231.5,71.5z
		 M353.113,152.626l-77.772,44.902c-2.865-3.688-6.181-7.005-9.869-9.869l44.902-77.772
		C327.429,120.986,342.014,135.571,353.113,152.626z M376.308,224h-89.828c-0.639-4.71-1.868-9.234-3.615-13.495l77.777-44.905
		C369.702,183.285,375.236,203.063,376.308,224z M360.641,297.399l-77.777-44.905c1.748-4.261,2.976-8.784,3.615-13.495h89.828
		C375.236,259.937,369.702,279.715,360.641,297.399z M224,286.479v89.828c-20.937-1.072-40.715-6.606-58.399-15.667l44.905-77.777
		C214.766,284.612,219.29,285.84,224,286.479z M239,286.479c4.71-0.639,9.234-1.868,13.495-3.615l44.905,77.777
		c-17.685,9.061-37.463,14.595-58.399,15.667V286.479z M231.5,272c-22.332,0-40.5-18.168-40.5-40.5s18.168-40.5,40.5-40.5
		s40.5,18.168,40.5,40.5S253.832,272,231.5,272z M86.692,239h89.828c0.639,4.71,1.868,9.234,3.615,13.495l-77.777,44.905
		C93.298,279.715,87.764,259.937,86.692,239z M102.359,165.601l77.777,44.905c-1.748,4.261-2.976,8.784-3.615,13.495H86.692
		C87.764,203.063,93.298,183.285,102.359,165.601z M239,176.521V86.692c20.937,1.072,40.715,6.606,58.399,15.667l-44.905,77.777
		C248.234,178.388,243.71,177.16,239,176.521z M224,176.521c-4.71,0.639-9.234,1.868-13.495,3.615l-44.905-77.777
		c17.685-9.061,37.463-14.595,58.399-15.667V176.521z M152.626,109.887l44.902,77.772c-3.688,2.865-7.005,6.181-9.869,9.869
		l-77.772-44.902C120.986,135.571,135.571,120.986,152.626,109.887z M109.887,310.374l77.772-44.902
		c2.865,3.688,6.181,7.005,9.869,9.869l-44.902,77.772C135.571,342.014,120.986,327.429,109.887,310.374z M310.374,353.113
		l-44.902-77.772c3.688-2.865,7.005-6.181,9.869-9.869l77.772,44.902C342.014,327.429,327.429,342.014,310.374,353.113z"/>
	<path d="M231.5,208c-12.958,0-23.5,10.542-23.5,23.5s10.542,23.5,23.5,23.5s23.5-10.542,23.5-23.5S244.458,208,231.5,208z
		 M231.5,240c-4.687,0-8.5-3.813-8.5-8.5s3.813-8.5,8.5-8.5s8.5,3.813,8.5,8.5S236.187,240,231.5,240z"/>
</g>
<g>
</g>
<g>
</g>
<g>
</g>
<g>
</g>
<g>
</g>
<g>
</g>
<g>
</g>
<g>
</g>
<g>
</g>
<g>
</g>
<g>
</g>
<g>
</g>
<g>
</g>
<g>
</g>
<g>
</g>
</svg>
