<?xml version="1.0" encoding="iso-8859-1"?>
<!-- Generator: Adobe Illustrator 18.0.0, SVG Export Plug-In . SVG Version: 6.00 Build 0)  -->
<!DOCTYPE svg PUBLIC "-//W3C//DTD SVG 1.1//EN" "http://www.w3.org/Graphics/SVG/1.1/DTD/svg11.dtd">
<svg version="1.1" id="Capa_1" xmlns="http://www.w3.org/2000/svg" xmlns:xlink="http://www.w3.org/1999/xlink" x="0px" y="0px"
	 viewBox="0 0 59 59" style="enable-background:new 0 0 59 59;" xml:space="preserve">
<g>
	<path d="M38,19c-3.86,0-7,3.813-7,8.5s3.14,8.5,7,8.5s7-3.813,7-8.5S41.86,19,38,19z M38,34c-2.757,0-5-2.916-5-6.5
		s2.243-6.5,5-6.5s5,2.916,5,6.5S40.757,34,38,34z"/>
	<ellipse cx="38" cy="27.5" rx="3" ry="4.5"/>
	<path d="M29.5,0C14.888,0,3,11.888,3,26.5v10.979c0,0,0,0.002,0,0.003c0,0.003,0,0.005,0,0.007c0,0.004,0,0.008,0,0.012V51
		c0,2.757,2.243,5,5,5h6.55c0.046,0.022,0.096,0.04,0.142,0.062c3.51,1.654,7.728,2.643,12.542,2.878
		c0.107,0.005,0.214,0.011,0.322,0.016C28.195,58.982,28.84,59,29.5,59s1.305-0.018,1.945-0.045c0.108-0.005,0.215-0.01,0.322-0.016
		c4.814-0.235,9.032-1.224,12.542-2.878c0.046-0.022,0.096-0.04,0.142-0.062H51c2.757,0,5-2.243,5-5V26.5C56,11.888,44.112,0,29.5,0
		z M43.993,54l-0.207,0.101c-2.828,1.374-6.204,2.271-9.917,2.666c-0.271,0.027-0.542,0.056-0.818,0.078
		c-0.392,0.033-0.787,0.062-1.187,0.084C31.09,56.969,30.309,57,29.5,57s-1.59-0.031-2.364-0.072
		c-0.399-0.022-0.794-0.051-1.187-0.084c-0.276-0.022-0.547-0.05-0.818-0.078c-3.712-0.394-7.089-1.292-9.917-2.666L15.007,54
		h-0.089C8.547,50.783,5,45.095,5,37.5c0-0.004,0-0.007,0-0.011c0-0.002,0-0.004,0-0.006c0-0.001,0-0.002,0-0.004
		C5.012,24.628,15.795,13.647,29,13l0.951-0.001C43.212,13.647,54,24.639,54,37.5c0,7.595-3.547,13.283-9.918,16.5H43.993z M8,54
		c-1.654,0-3-1.346-3-3v-4.226c1.384,2.876,3.459,5.308,6.148,7.226H8z M54,51c0,1.654-1.346,3-3,3h-3.148
		c2.689-1.917,4.764-4.349,6.148-7.226V51z M30,11l-1.049,0.001C18.165,11.529,8.911,18.42,5,27.735V26.5C5,12.99,15.991,2,29.5,2
		S54,12.99,54,26.5v1.198C50.079,18.398,40.811,11.528,30,11z"/>
	<path d="M16.727,22.002c-0.542-0.016-1.026,0.384-1.062,0.935s0.383,1.026,0.935,1.062c1.982,0.126,3.802,1.599,4.598,3.44
		c-2.467-1.208-5.53-0.898-7.716,1.027c-0.415,0.365-0.455,0.997-0.09,1.412c0.364,0.414,0.997,0.454,1.411,0.09
		c2.069-1.824,5.235-1.622,7.057,0.448c0.193,0.219,0.468,0.339,0.75,0.339c0.108,0,0.217-0.018,0.323-0.054
		c0.383-0.131,0.649-0.479,0.675-0.883C23.853,25.973,20.573,22.247,16.727,22.002z"/>
	<path d="M32.478,40.715c-1.24,0-2.404,0.549-3.195,1.506c-0.352,0.426-0.292,1.056,0.134,1.407
		c0.427,0.354,1.057,0.293,1.408-0.134c0.409-0.495,1.012-0.779,1.653-0.779c1.182,0,2.143,0.961,2.143,2.143
		c0,0.741-0.379,1.396-0.953,1.781c-0.07-0.11-0.128-0.226-0.209-0.33c-0.253-0.323-0.55-0.606-0.883-0.841
		c-0.452-0.317-1.076-0.21-1.394,0.241c-0.16,0.226-0.212,0.496-0.167,0.749c-0.42-0.273-0.982-0.209-1.31,0.187
		c-0.352,0.425-0.292,1.056,0.134,1.407c0.7,0.579,1.577,0.901,2.482,0.936c-0.003,0.045,0.002,0.089-0.003,0.134
		c-0.07,0.567-0.358,1.074-0.81,1.426c-0.452,0.353-1.013,0.511-1.581,0.437c-0.568-0.07-1.074-0.357-1.426-0.809
		c-0.31-0.398-0.466-0.875-0.452-1.377c0.016-0.553-0.418-1.013-0.97-1.029c-0.577,0.004-1.013,0.419-1.029,0.971
		c-0.028,0.96,0.282,1.906,0.874,2.664c0.68,0.873,1.659,1.429,2.757,1.565c0.173,0.021,0.346,0.032,0.519,0.032
		c0.917,0,1.803-0.304,2.538-0.876c0.873-0.68,1.429-1.659,1.565-2.758c0.034-0.275,0.041-0.55,0.021-0.82
		c1.355-0.682,2.296-2.071,2.296-3.689C36.621,42.573,34.762,40.715,32.478,40.715z"/>
</g>
<g>
</g>
<g>
</g>
<g>
</g>
<g>
</g>
<g>
</g>
<g>
</g>
<g>
</g>
<g>
</g>
<g>
</g>
<g>
</g>
<g>
</g>
<g>
</g>
<g>
</g>
<g>
</g>
<g>
</g>
</svg>
