<?xml version="1.0" encoding="iso-8859-1"?>
<!-- Generator: Adobe Illustrator 18.0.0, SVG Export Plug-In . SVG Version: 6.00 Build 0)  -->
<!DOCTYPE svg PUBLIC "-//W3C//DTD SVG 1.1//EN" "http://www.w3.org/Graphics/SVG/1.1/DTD/svg11.dtd">
<svg version="1.1" id="Capa_1" xmlns="http://www.w3.org/2000/svg" xmlns:xlink="http://www.w3.org/1999/xlink" x="0px" y="0px"
	 viewBox="0 0 60 60" style="enable-background:new 0 0 60 60;" xml:space="preserve">
<g>
	<path d="M37,40H25c-1.93,0-3.5,1.57-3.5,3.5S23.07,47,25,47h12c1.93,0,3.5-1.57,3.5-3.5S38.93,40,37,40z M37,45H25
		c-0.827,0-1.5-0.673-1.5-1.5S24.173,42,25,42h12c0.827,0,1.5,0.673,1.5,1.5S37.827,45,37,45z"/>
	<path d="M51.527,31.712c0-0.232,0.001-0.464,0.001-0.692L57.9,35.8c0.18,0.135,0.391,0.2,0.599,0.2c0.304,0,0.604-0.138,0.801-0.4
		c0.332-0.441,0.242-1.068-0.2-1.399l-7.57-5.677c0.001-0.549,0.001-1.07,0.002-1.557l5.387,3.848
		C57.095,30.939,57.298,31,57.499,31c0.312,0,0.62-0.146,0.815-0.419c0.321-0.449,0.217-1.074-0.233-1.395l-5.866-4.19
		c1.076-0.017,1.986-0.25,2.719-0.809c1.054-0.805,1.567-2.15,1.567-4.115c0-8.307-9.099-17.815-21.505-19.723
		c-0.062-0.01-0.122-0.02-0.184-0.03c-0.639-0.094-1.287-0.167-1.943-0.22c-0.118-0.009-0.236-0.016-0.354-0.024
		C31.849,0.031,31.179,0,30.5,0c-0.679,0-1.348,0.031-2.013,0.076c-0.111,0.008-0.222,0.014-0.333,0.023
		c-0.668,0.053-1.329,0.127-1.98,0.224c-0.026,0.004-0.053,0.009-0.079,0.013C13.643,2.21,4.5,11.745,4.5,20.072
		c0,1.965,0.513,3.311,1.567,4.115c0.732,0.558,1.64,0.793,2.717,0.81l-5.865,4.189c-0.45,0.32-0.554,0.945-0.233,1.395
		C2.881,30.854,3.189,31,3.501,31c0.201,0,0.404-0.061,0.58-0.187l5.41-3.864C9.49,27.44,9.49,27.965,9.489,28.52l-8.603,6.691
		C0.45,35.55,0.372,36.178,0.71,36.614C0.908,36.867,1.203,37,1.5,37c0.215,0,0.431-0.068,0.613-0.211l7.372-5.734
		c0,0.21-0.001,0.426-0.001,0.641L1.691,42.412c-0.325,0.446-0.226,1.072,0.22,1.396C2.089,43.938,2.295,44,2.499,44
		c0.309,0,0.614-0.143,0.81-0.412l4.364-6.001l-5.126,16.11c-0.167,0.525,0.124,1.088,0.65,1.256C3.298,54.985,3.4,55,3.5,55
		c0.423,0,0.817-0.271,0.953-0.697L9.478,38.51C9.471,44.971,9.466,51,9.466,51c0,2.757,2.243,5,5,5H16.5v1.694
		c0,1.271,1.034,2.306,2.305,2.306h23.39c1.271,0,2.305-1.034,2.305-2.306V56h2c2.757,0,5-2.243,5-4.998
		c0,0,0.009-6.038,0.018-12.504l5.029,15.804C56.683,54.729,57.076,55,57.499,55c0.101,0,0.203-0.015,0.304-0.047
		c0.526-0.168,0.817-0.73,0.65-1.256l-5.126-16.11l4.364,6.001c0.196,0.27,0.5,0.412,0.81,0.412c0.204,0,0.41-0.063,0.587-0.191
		c0.446-0.324,0.545-0.95,0.22-1.396L51.527,31.712z M31.983,27.816L31.679,28h-1.342l-0.342-0.195
		c-5.68-3.246-12.625-3.494-18.505-0.759c0.001-0.907,0.002-1.705,0.003-2.34c0.309-0.06,0.631-0.131,0.958-0.206
		c0.077-0.017,0.154-0.035,0.232-0.053c0.313-0.074,0.632-0.151,0.961-0.235c0.101-0.026,0.207-0.054,0.309-0.081
		c0.234-0.061,0.471-0.123,0.713-0.188c0.484-0.129,0.98-0.264,1.498-0.406c0.575-0.157,1.17-0.319,1.78-0.481
		c3.675-0.979,7.996-1.983,12.554-1.983c4.525,0,8.814,0.989,12.472,1.962c0.638,0.169,1.262,0.339,1.862,0.504
		c0.633,0.173,1.232,0.334,1.814,0.489c0.136,0.036,0.274,0.073,0.408,0.107c0.182,0.047,0.361,0.092,0.538,0.137
		c0.21,0.053,0.416,0.103,0.619,0.151c0.131,0.031,0.262,0.062,0.39,0.091c0.265,0.06,0.523,0.115,0.776,0.166
		c0.05,0.01,0.105,0.023,0.155,0.033c0,0.015,0,0.033,0,0.048c-0.038,0.153-0.034,0.308,0,0.458c0,0.526-0.001,1.133-0.001,1.803
		C43.949,24.311,37.369,24.57,31.983,27.816z M49.495,29.245c-0.071,3.688-0.89,6.193-4.251,6.578
		c-4.524,0.519-7.789-0.089-9.704-1.797c-1.242-1.109-1.922-2.717-2.026-4.786C38.492,26.468,44.517,26.469,49.495,29.245z
		 M28.484,29.256c-0.108,1.981-0.781,3.54-2.004,4.638c-2.017,1.811-5.53,2.457-10.444,1.929c-3.594-0.389-4.456-2.788-4.53-6.562
		C16.794,26.464,23.195,26.462,28.484,29.256z M32.498,2.081c0.055,0.004,0.111,0.007,0.166,0.011
		c0.027,0.002,0.052,0.006,0.079,0.008c0.655,0.056,1.309,0.133,1.959,0.237c0.021,0.003,0.041,0.007,0.062,0.01
		c2.763,0.447,5.453,1.32,7.934,2.557c0.034,0.017,0.068,0.033,0.102,0.05c0.564,0.284,1.114,0.591,1.654,0.913
		c0.081,0.048,0.163,0.095,0.243,0.144c0.514,0.313,1.014,0.645,1.503,0.991c0.043,0.031,0.087,0.061,0.13,0.092
		c-4.617-1.25-10.18-2.631-16.176-2.631c-5.52,0-10.674,1.172-15.061,2.334c3.865-2.654,8.532-4.318,13.282-4.706
		c0.067-0.005,0.134-0.009,0.2-0.014C29.216,2.029,29.858,2,30.5,2C31.167,2,31.833,2.031,32.498,2.081z M8.703,13.274
		c0.147-0.234,0.303-0.467,0.464-0.698c0.074-0.106,0.144-0.214,0.22-0.319c0.199-0.274,0.411-0.546,0.628-0.816
		c0.147-0.182,0.299-0.361,0.454-0.541c0.082-0.095,0.166-0.19,0.251-0.285c0.228-0.255,0.466-0.507,0.71-0.756
		c0.592-0.158,1.196-0.322,1.827-0.494c4.731-1.293,10.62-2.902,16.896-2.902c6.277,0,12.164,1.607,16.895,2.899
		c0.968,0.265,1.885,0.513,2.761,0.739c0.632,0.663,1.208,1.349,1.724,2.049c0.03,0.041,0.063,0.082,0.092,0.123
		c0.132,0.182,0.256,0.367,0.38,0.551c0.109,0.162,0.214,0.325,0.316,0.488c0.064,0.102,0.128,0.203,0.189,0.305
		c-1.449-0.302-3.108-0.755-4.935-1.254c-4.847-1.324-10.88-2.973-17.422-2.973c-6.542,0-12.577,1.649-17.425,2.975
		c-1.508,0.412-2.885,0.789-4.128,1.077C8.634,13.385,8.668,13.33,8.703,13.274z M7.28,22.598c-0.525-0.4-0.78-1.227-0.78-2.525
		c0-1.421,0.329-2.893,0.932-4.355c1.699-0.305,3.619-0.821,5.823-1.423C17.988,13,23.878,11.39,30.152,11.39
		c6.273,0,12.163,1.609,16.895,2.902c2.512,0.687,4.697,1.271,6.567,1.538c0.573,1.425,0.886,2.858,0.886,4.242
		c0,1.299-0.255,2.125-0.78,2.525c-0.611,0.468-1.716,0.487-3.126,0.266c-0.189-0.029-0.392-0.071-0.591-0.108
		c-0.2-0.038-0.394-0.071-0.604-0.116c-0.115-0.025-0.24-0.056-0.359-0.083c-1.121-0.255-2.355-0.588-3.659-0.945
		c-0.612-0.167-1.252-0.341-1.906-0.514c-0.044-0.012-0.083-0.023-0.127-0.034c-0.002,0-0.004,0-0.006,0
		c-3.743-0.991-8.132-1.991-12.842-1.991c-4.775,0-9.223,1.027-13,2.032c-0.002,0-0.003,0-0.005,0
		c-0.033,0.009-0.063,0.017-0.096,0.026c-0.611,0.163-1.208,0.325-1.781,0.482c-1.309,0.357-2.548,0.693-3.672,0.948
		c-0.111,0.025-0.23,0.055-0.338,0.078c-0.207,0.045-0.398,0.077-0.596,0.114c-0.2,0.038-0.406,0.08-0.596,0.109
		C9.002,23.085,7.894,23.067,7.28,22.598z M42.5,57.694c0,0.169-0.137,0.306-0.305,0.306h-23.39c-0.168,0-0.305-0.137-0.305-0.306
		V56h24V57.694z M46.5,54h-2h-28h-2.034c-1.654,0-3-1.346-3-2.999c0,0,0.007-7.819,0.015-15.191
		c0.936,1.016,2.308,1.781,4.341,2.001c1.161,0.125,2.255,0.188,3.285,0.188c3.849,0,6.771-0.877,8.71-2.617
		c1.494-1.341,2.361-3.151,2.605-5.382h1.154c0.24,2.309,1.118,4.165,2.634,5.519c1.849,1.65,4.578,2.48,8.137,2.48
		c0.979,0,2.021-0.063,3.125-0.189c1.872-0.214,3.161-0.933,4.051-1.897c-0.01,7.341-0.022,15.086-0.022,15.086
		C49.5,52.654,48.154,54,46.5,54z"/>
	<path d="M18.207,28.293c-0.391-0.391-1.023-0.391-1.414,0l-3,3c-0.391,0.391-0.391,1.023,0,1.414C13.988,32.902,14.244,33,14.5,33
		s0.512-0.098,0.707-0.293l3-3C18.598,29.316,18.598,28.684,18.207,28.293z"/>
	<path d="M17.793,34.707C17.988,34.902,18.244,35,18.5,35s0.512-0.098,0.707-0.293l5-5c0.391-0.391,0.391-1.023,0-1.414
		s-1.023-0.391-1.414,0l-5,5C17.402,33.684,17.402,34.316,17.793,34.707z"/>
	<path d="M35.793,32.707C35.988,32.902,36.244,33,36.5,33s0.512-0.098,0.707-0.293l3-3c0.391-0.391,0.391-1.023,0-1.414
		s-1.023-0.391-1.414,0l-3,3C35.402,31.684,35.402,32.316,35.793,32.707z"/>
	<path d="M39.793,34.707C39.988,34.902,40.244,35,40.5,35s0.512-0.098,0.707-0.293l5-5c0.391-0.391,0.391-1.023,0-1.414
		s-1.023-0.391-1.414,0l-5,5C39.402,33.684,39.402,34.316,39.793,34.707z"/>
	<path d="M46.21,47.71c0.18-0.19,0.29-0.45,0.29-0.71s-0.11-0.521-0.29-0.71c-0.38-0.37-1.04-0.37-1.42,0
		c-0.18,0.189-0.29,0.45-0.29,0.71s0.11,0.52,0.29,0.71C44.98,47.89,45.23,48,45.5,48S46.02,47.89,46.21,47.71z"/>
	<path d="M45.5,45c0.27,0,0.53-0.11,0.71-0.29c0.18-0.19,0.29-0.45,0.29-0.71c0-0.271-0.11-0.521-0.29-0.7
		c-0.37-0.38-1.04-0.38-1.42-0.01c-0.18,0.189-0.29,0.439-0.29,0.71c0,0.26,0.11,0.52,0.29,0.71C44.98,44.89,45.23,45,45.5,45z"/>
	<path d="M48.5,45c0.27,0,0.52-0.11,0.71-0.29c0.18-0.19,0.29-0.45,0.29-0.71c0-0.271-0.11-0.521-0.29-0.71
		c-0.37-0.37-1.05-0.37-1.42,0c-0.18,0.18-0.29,0.439-0.29,0.71c0,0.26,0.11,0.52,0.29,0.71C47.98,44.89,48.23,45,48.5,45z"/>
	<path d="M47.79,46.29c-0.18,0.189-0.29,0.45-0.29,0.71s0.11,0.52,0.29,0.71C47.98,47.89,48.23,48,48.5,48s0.52-0.11,0.71-0.29
		c0.18-0.19,0.29-0.44,0.29-0.71c0-0.26-0.11-0.521-0.29-0.71C48.84,45.92,48.17,45.92,47.79,46.29z"/>
	<path d="M45.79,49.29c-0.18,0.189-0.29,0.45-0.29,0.71c0,0.27,0.11,0.52,0.29,0.71C45.98,50.89,46.24,51,46.5,51
		c0.26,0,0.52-0.11,0.71-0.29c0.18-0.19,0.29-0.44,0.29-0.71c0-0.26-0.11-0.521-0.29-0.71C46.84,48.92,46.17,48.92,45.79,49.29z"/>
	<path d="M42.79,49.29c-0.18,0.189-0.29,0.45-0.29,0.71c0,0.27,0.11,0.52,0.29,0.71C42.98,50.89,43.24,51,43.5,51
		c0.26,0,0.52-0.11,0.71-0.29c0.18-0.19,0.29-0.45,0.29-0.71s-0.11-0.521-0.29-0.71C43.83,48.92,43.16,48.92,42.79,49.29z"/>
	<path d="M43.21,47.71c0.18-0.19,0.29-0.45,0.29-0.71s-0.11-0.521-0.29-0.71c-0.38-0.37-1.05-0.37-1.42,0
		c-0.18,0.189-0.29,0.45-0.29,0.71s0.11,0.52,0.29,0.71C41.97,47.89,42.23,48,42.5,48S43.02,47.89,43.21,47.71z"/>
	<path d="M39.79,49.29c-0.18,0.189-0.29,0.45-0.29,0.71s0.11,0.52,0.29,0.71C39.98,50.89,40.24,51,40.5,51
		c0.26,0,0.52-0.11,0.71-0.29c0.18-0.19,0.29-0.45,0.29-0.71s-0.11-0.521-0.29-0.71C40.83,48.92,40.16,48.92,39.79,49.29z"/>
	<path d="M36.79,49.29c-0.18,0.189-0.29,0.45-0.29,0.71s0.11,0.52,0.29,0.71C36.98,50.89,37.24,51,37.5,51
		c0.27,0,0.52-0.11,0.71-0.29c0.18-0.19,0.29-0.45,0.29-0.71s-0.11-0.521-0.29-0.71C37.84,48.92,37.17,48.92,36.79,49.29z"/>
	<path d="M33.79,49.29c-0.18,0.189-0.29,0.45-0.29,0.71s0.11,0.52,0.29,0.71C33.98,50.89,34.24,51,34.5,51
		c0.26,0,0.52-0.11,0.71-0.29c0.18-0.19,0.29-0.44,0.29-0.71c0-0.26-0.11-0.521-0.29-0.71C34.84,48.92,34.17,48.92,33.79,49.29z"/>
	<path d="M17.21,46.29c-0.38-0.37-1.04-0.37-1.42,0c-0.18,0.189-0.29,0.45-0.29,0.71s0.11,0.52,0.29,0.71
		C15.98,47.89,16.23,48,16.5,48s0.52-0.11,0.71-0.29c0.18-0.19,0.29-0.45,0.29-0.71S17.39,46.479,17.21,46.29z"/>
	<path d="M16.5,45c0.27,0,0.52-0.11,0.71-0.29c0.18-0.19,0.29-0.45,0.29-0.71c0-0.271-0.11-0.521-0.29-0.71
		c-0.38-0.37-1.06-0.36-1.41,0c-0.19,0.189-0.3,0.439-0.3,0.71c0,0.26,0.11,0.52,0.29,0.71C15.97,44.89,16.23,45,16.5,45z"/>
	<path d="M13.5,45c0.27,0,0.52-0.11,0.71-0.29c0.18-0.19,0.29-0.45,0.29-0.71c0-0.271-0.11-0.53-0.29-0.71
		c-0.38-0.37-1.05-0.37-1.42,0c-0.18,0.18-0.29,0.439-0.29,0.71c0,0.27,0.11,0.52,0.29,0.71C12.98,44.89,13.23,45,13.5,45z"/>
	<path d="M14.21,46.29c-0.38-0.37-1.04-0.37-1.42,0c-0.18,0.189-0.29,0.45-0.29,0.71c0,0.27,0.11,0.52,0.29,0.71
		C12.98,47.89,13.24,48,13.5,48c0.27,0,0.52-0.11,0.71-0.29c0.18-0.19,0.29-0.45,0.29-0.71S14.39,46.479,14.21,46.29z"/>
	<path d="M14.79,49.29c-0.18,0.189-0.29,0.45-0.29,0.71s0.11,0.52,0.29,0.71C14.98,50.89,15.24,51,15.5,51
		c0.26,0,0.52-0.11,0.71-0.29c0.18-0.19,0.29-0.45,0.29-0.71s-0.11-0.521-0.29-0.71C15.84,48.92,15.16,48.92,14.79,49.29z"/>
	<path d="M17.79,49.29c-0.18,0.189-0.29,0.45-0.29,0.71s0.11,0.52,0.29,0.71C17.98,50.89,18.24,51,18.5,51
		c0.26,0,0.52-0.11,0.71-0.29c0.18-0.19,0.29-0.45,0.29-0.71s-0.11-0.521-0.29-0.71C18.84,48.92,18.17,48.92,17.79,49.29z"/>
	<path d="M20.21,46.29c-0.38-0.37-1.04-0.37-1.42,0c-0.18,0.189-0.29,0.45-0.29,0.71c0,0.27,0.11,0.52,0.29,0.71
		C18.98,47.89,19.23,48,19.5,48s0.52-0.11,0.71-0.29c0.18-0.19,0.29-0.45,0.29-0.71S20.39,46.479,20.21,46.29z"/>
	<path d="M20.79,49.29c-0.18,0.189-0.29,0.45-0.29,0.71s0.11,0.52,0.29,0.7c0.19,0.189,0.44,0.3,0.71,0.3s0.52-0.11,0.71-0.29
		c0.18-0.19,0.29-0.45,0.29-0.71s-0.11-0.521-0.29-0.71C21.84,48.92,21.16,48.92,20.79,49.29z"/>
	<path d="M24.79,49.29c-0.18,0.189-0.29,0.45-0.29,0.71s0.11,0.52,0.29,0.7c0.19,0.189,0.44,0.3,0.71,0.3s0.52-0.11,0.71-0.29
		c0.18-0.19,0.29-0.45,0.29-0.71s-0.11-0.521-0.29-0.71C25.84,48.92,25.16,48.92,24.79,49.29z"/>
	<path d="M27.79,49.29c-0.18,0.189-0.29,0.45-0.29,0.71s0.11,0.52,0.29,0.71C27.98,50.89,28.24,51,28.5,51
		c0.26,0,0.52-0.11,0.71-0.29c0.18-0.19,0.29-0.45,0.29-0.71s-0.11-0.521-0.29-0.71C28.83,48.92,28.16,48.92,27.79,49.29z"/>
	<path d="M30.79,49.29c-0.18,0.189-0.29,0.45-0.29,0.71c0,0.27,0.11,0.52,0.29,0.71C30.98,50.89,31.24,51,31.5,51
		c0.26,0,0.52-0.11,0.71-0.29c0.18-0.19,0.29-0.45,0.29-0.71s-0.11-0.521-0.29-0.71C31.84,48.92,31.17,48.92,30.79,49.29z"/>
</g>
<g>
</g>
<g>
</g>
<g>
</g>
<g>
</g>
<g>
</g>
<g>
</g>
<g>
</g>
<g>
</g>
<g>
</g>
<g>
</g>
<g>
</g>
<g>
</g>
<g>
</g>
<g>
</g>
<g>
</g>
</svg>
