<?xml version="1.0" encoding="iso-8859-1"?>
<!-- Generator: Adobe Illustrator 16.0.0, SVG Export Plug-In . SVG Version: 6.00 Build 0)  -->
<!DOCTYPE svg PUBLIC "-//W3C//DTD SVG 1.1//EN" "http://www.w3.org/Graphics/SVG/1.1/DTD/svg11.dtd">
<svg version="1.1" id="Capa_1" xmlns="http://www.w3.org/2000/svg" xmlns:xlink="http://www.w3.org/1999/xlink" x="0px" y="0px"
	 width="421.422px" height="421.421px" viewBox="0 0 421.422 421.421" style="enable-background:new 0 0 421.422 421.421;"
	 xml:space="preserve">
<g>
	<g>
		<path d="M366.017,15.701c0-8.67-7.021-15.701-15.701-15.701H31.886c-3.25,0-6.273,0.99-8.778,2.689
			C21.437,3.819,20,5.256,18.87,6.927c-1.695,2.503-2.685,5.528-2.685,8.774v21.087v51.311c0,3.25,0.99,6.276,2.685,8.778
			c1.13,1.671,2.567,3.108,4.238,4.24c2.505,1.693,5.528,2.683,8.778,2.683h318.43c8.681,0,15.701-7.027,15.701-15.701V63.67h15.665
			v52.151L194.13,150.062c-5.6,1.02-9.656,5.897-9.656,11.59v50.445h-11.968c-8.674,0-15.701,7.025-15.701,15.701V405.72
			c0,8.672,7.027,15.701,15.701,15.701h47.488c8.672,0,15.701-7.029,15.701-15.701V227.798c0-8.668-7.029-15.701-15.701-15.701
			h-11.962v-40.619l187.548-34.242c5.603-1.024,9.657-5.895,9.657-11.587V51.902c0-6.502-5.273-11.776-11.773-11.776h-27.431V15.978
			v-0.276H366.017z M223.148,50.293c15.184,0,15.184,23.549,0,23.549C207.952,73.843,207.952,50.293,223.148,50.293z
			 M344.781,14.689c-1.486,4.133-4.961,7.61-10.427,8.127c-4.685,0.415-9.245,1.334-13.737,2.487
			c-1.379,10.982-4.537,21.678-4.585,32.841c-0.028,10.958-16.943,17.08-21.94,5.941c-11.485-25.605-21.572-31.314-48.281-31.024
			c-16.438,0.173-31.13-2.599-46.092-8.267c-6.847,0.882-13.737,1.563-20.293,1.356c-4.727,16.038,2.707,29.425-3.801,45.588
			c-3.57,8.871-16.07,12.54-21.524,2.81c-6.973-12.435-7.388-24.249-11.305-31.539c-0.724,5.194-4.46,9.896-11.243,9.896
			c-9.716,0-13.19-9.632-10.463-16.579c-2.354,0.376-4.877,0.871-7.754,1.591c-14.194,3.55-26.193-0.008-38.045-3.124v21.969
			c0,6.42-5.356,11.776-11.776,11.776c-6.422,0-11.776-5.356-11.776-11.776V31.977c0-0.202,0.054-0.398,0.061-0.605
			c-6.749,0.345-13.838,2.222-21.596,6.847c-0.689,0.409-1.453,0.724-2.242,0.966V15.701c0-2.166,1.757-3.925,3.925-3.925h318.43
			c1.964,0,3.511,1.461,3.812,3.34C351.021,14.95,347.911,14.793,344.781,14.689z"/>
	</g>
</g>
<g>
</g>
<g>
</g>
<g>
</g>
<g>
</g>
<g>
</g>
<g>
</g>
<g>
</g>
<g>
</g>
<g>
</g>
<g>
</g>
<g>
</g>
<g>
</g>
<g>
</g>
<g>
</g>
<g>
</g>
</svg>
