<?xml version="1.0" encoding="iso-8859-1"?>
<!-- Generator: Adobe Illustrator 19.0.0, SVG Export Plug-In . SVG Version: 6.00 Build 0)  -->
<svg version="1.1" id="Capa_1" xmlns="http://www.w3.org/2000/svg" xmlns:xlink="http://www.w3.org/1999/xlink" x="0px" y="0px"
	 viewBox="0 0 55.551 55.551" style="enable-background:new 0 0 55.551 55.551;" xml:space="preserve">
<g>
	<path d="M55.258,20.214L42.181,7.136c-0.375-0.375-1.039-0.375-1.414,0L27.773,20.129L14.785,7.141
		c-0.391-0.391-1.023-0.391-1.414,0L0.293,20.218C0.105,20.405,0,20.659,0,20.925s0.105,0.519,0.293,0.707L27.071,48.41
		c0.188,0.188,0.441,0.293,0.707,0.293s0.52-0.105,0.707-0.293l13.077-13.078c0.026-0.026,0.051-0.054,0.073-0.082l13.622-13.622
		C55.648,21.237,55.648,20.604,55.258,20.214z M40.144,33.914c-0.026,0.026-0.051,0.054-0.073,0.082L27.778,46.289L2.414,20.925
		L14.078,9.262L27.066,22.25c0.391,0.391,1.023,0.391,1.414,0L41.474,9.257l11.663,11.664L40.144,33.914z"/>
</g>
<g>
</g>
<g>
</g>
<g>
</g>
<g>
</g>
<g>
</g>
<g>
</g>
<g>
</g>
<g>
</g>
<g>
</g>
<g>
</g>
<g>
</g>
<g>
</g>
<g>
</g>
<g>
</g>
<g>
</g>
</svg>
