<?xml version="1.0" encoding="iso-8859-1"?>
<!-- Generator: Adobe Illustrator 18.0.0, SVG Export Plug-In . SVG Version: 6.00 Build 0)  -->
<!DOCTYPE svg PUBLIC "-//W3C//DTD SVG 1.1//EN" "http://www.w3.org/Graphics/SVG/1.1/DTD/svg11.dtd">
<svg version="1.1" id="Capa_1" xmlns="http://www.w3.org/2000/svg" xmlns:xlink="http://www.w3.org/1999/xlink" x="0px" y="0px"
	 viewBox="0 0 477.071 477.071" style="enable-background:new 0 0 477.071 477.071;" xml:space="preserve">
<g>
	<path d="M363.699,253.351v-33.608H64.615v199.862c0,31.687,25.779,57.466,57.466,57.466h184.151
		c31.688,0,57.467-25.779,57.467-57.466v-8.952c27.137-1.501,48.756-24.047,48.756-51.552v-54.198
		C412.455,277.398,390.837,254.852,363.699,253.351z M343.699,419.605c0,20.659-16.808,37.466-37.467,37.466H122.081
		c-20.659,0-37.466-16.807-37.466-37.466l0.001-179.862h259.083V419.605z M392.455,359.101c0,16.473-12.657,30.038-28.756,31.5
		V273.403c16.099,1.462,28.756,15.028,28.756,31.5V359.101z"/>
	<path d="M149.334,175.206l14.143,14.142c15.352-15.352,22.56-30.059,22.038-44.961c-0.463-13.205-6.927-24.297-12.629-34.084
		c-10.69-18.346-18.414-31.602,7.21-57.227l-14.143-14.142c-36.521,36.521-21.394,62.482-10.348,81.438
		C166.371,138.848,173.485,151.055,149.334,175.206z"/>
	<path d="M261.81,100.159c7.605,10.027,14.788,19.499,15.349,30.197c0.651,12.457-7.647,27.127-25.37,44.849l14.143,14.143
		c22.264-22.264,32.178-41.341,31.2-60.037c-0.882-16.84-10.713-29.802-19.386-41.238c-16.119-21.253-27.766-36.609,9.557-73.932
		L273.159,0c-21.938,21.939-31.679,40.775-30.651,59.278C243.433,75.93,253.197,88.802,261.81,100.159z"/>
</g>
<g>
</g>
<g>
</g>
<g>
</g>
<g>
</g>
<g>
</g>
<g>
</g>
<g>
</g>
<g>
</g>
<g>
</g>
<g>
</g>
<g>
</g>
<g>
</g>
<g>
</g>
<g>
</g>
<g>
</g>
</svg>
