<?xml version="1.0" encoding="iso-8859-1"?>
<!-- Generator: Adobe Illustrator 17.1.0, SVG Export Plug-In . SVG Version: 6.00 Build 0)  -->
<!DOCTYPE svg PUBLIC "-//W3C//DTD SVG 1.1//EN" "http://www.w3.org/Graphics/SVG/1.1/DTD/svg11.dtd">
<svg version="1.1" id="Capa_1" xmlns="http://www.w3.org/2000/svg" xmlns:xlink="http://www.w3.org/1999/xlink" x="0px" y="0px"
	 viewBox="0 0 203.545 203.545" style="enable-background:new 0 0 203.545 203.545;" xml:space="preserve">
<path d="M37.604,95.43c-1.313,2.217-4.095,3.073-6.429,1.978L6.392,85.759c-1.286-0.604-2.254-1.728-2.662-3.088
	c-0.408-1.361-0.218-2.832,0.523-4.044L41.44,17.784c4.654-7.615,12.782-12.886,22.3-14.462l19.662-3.255
	c2.081-0.343,4.155,0.655,5.183,2.497l11.312,20.277l-37.47,59.682l-5.985-18.899L37.604,95.43z M199.292,78.627l-37.187-60.843
	c-4.655-7.615-12.783-12.886-22.301-14.461L125.45,0.946L72.567,85.177h17.06c1.951-4.441,6.656-7.583,12.145-7.583
	s10.194,3.142,12.145,7.583h26.871l6.427-21.364L165.94,95.43c1.314,2.217,4.097,3.074,6.429,1.978l24.783-11.648
	c1.286-0.604,2.254-1.728,2.662-3.088C200.223,81.309,200.033,79.839,199.292,78.627z M147.146,127.938h0.364
	c0.006,0,0.012-0.001,0.02,0c2.761,0,5-2.239,5-5c0-0.83-0.202-1.612-0.56-2.3l-10.451-25.46h-28.045
	c-0.335,0.614-0.724,1.196-1.163,1.746l11.473,32.94c0.908,2.608-0.469,5.458-3.077,6.366c-0.544,0.189-1.099,0.28-1.645,0.28
	c-2.068,0-4.003-1.293-4.722-3.357l-10.932-31.387c-0.538,0.062-1.081,0.105-1.637,0.105c-0.548,0-1.084-0.041-1.615-0.102
	l-9.742,28.284c-0.713,2.071-2.653,3.373-4.727,3.373c-0.541,0-1.089-0.088-1.629-0.274c-2.611-0.899-3.999-3.745-3.099-6.356
	l10.285-29.859c-0.443-0.553-0.837-1.141-1.175-1.76H66.289L54.34,114.209l-2.9,6.756c-0.663,1.545-0.505,3.32,0.42,4.724
	c0.925,1.404,2.494,2.249,4.175,2.249h0.945l-15.977,61.344c-0.348,1.335-0.128,2.754,0.606,3.922
	c0.735,1.168,1.919,1.98,3.273,2.245l40.927,8.001c2.587,0.504,5.123-1.083,5.794-3.632l10.461-39.668l10.461,39.668
	c0.588,2.23,2.603,3.726,4.83,3.726c0.318,0,0.641-0.031,0.964-0.094l40.927-8.001c1.354-0.265,2.538-1.077,3.273-2.245
	c0.734-1.168,0.954-2.587,0.606-3.922L147.146,127.938z"/>
<g>
</g>
<g>
</g>
<g>
</g>
<g>
</g>
<g>
</g>
<g>
</g>
<g>
</g>
<g>
</g>
<g>
</g>
<g>
</g>
<g>
</g>
<g>
</g>
<g>
</g>
<g>
</g>
<g>
</g>
</svg>
