<?xml version="1.0" encoding="iso-8859-1"?>
<!-- Generator: Adobe Illustrator 16.0.0, SVG Export Plug-In . SVG Version: 6.00 Build 0)  -->
<!DOCTYPE svg PUBLIC "-//W3C//DTD SVG 1.1//EN" "http://www.w3.org/Graphics/SVG/1.1/DTD/svg11.dtd">
<svg version="1.1" id="Capa_1" xmlns="http://www.w3.org/2000/svg" xmlns:xlink="http://www.w3.org/1999/xlink" x="0px" y="0px"
	 width="447.837px" height="447.837px" viewBox="0 0 447.837 447.837" style="enable-background:new 0 0 447.837 447.837;"
	 xml:space="preserve">
<g>
	<g id="Layer_2_48_">
		<g>
			<path d="M171.316,163.677c-0.583,2.724-0.898,5.532-0.898,8.406c0,24.444,22.057,44.332,49.167,44.332
				c27.11,0,49.167-19.888,49.167-44.332c0-8.328-2.564-16.125-7.014-22.789c-16.711,8.631-36.981,10.463-55.349,10.611
				C194.121,160.004,182.692,160.479,171.316,163.677z"/>
			<path d="M425.357,323.49c-6.866,5.488-16.452,10.988-28.48,16.166c-15.318-23.038-28.617-47.656-38.512-73.521
				c-7.414-19.381-14.482-41.393-12.394-62.438c1.213-12.216,9.638-28.925,24.753-25.913c6.121,1.221,10.799,6.35,15.85,9.643
				c7.951,5.186,16.989,6.68,26.344,5.418c18.333-43.334,2-92-25.138-117.416l-6.862-32.085
				c-21.503,0.441-45.491,3.805-61.826,19.161c-11.356,10.678-16.715,25.421-22,39.689c-5.277,14.246-11.283,28.506-22.943,38.714
				c6.08,9.066,9.604,19.746,9.604,31.176c0,32.716-28.785,59.332-64.167,59.332s-64.167-26.616-64.167-59.332
				c0-2.448,0.18-4.856,0.493-7.228c-54.46-24.887-101.52,19.46-105.482,22.621l28.979,30.4
				c21.845-23.957,47.587-28.393,49.185-28.507C83.114,231.514,56.061,307.14,46.538,337.687
				c-9.973-4.594-18.056-9.399-24.059-14.199L0,351.607c22.991,18.381,52.256,28.643,80.374,36.065
				c38.226,10.091,77.861,14.797,117.311,16.3c42.131,1.604,84.584-0.415,126.229-7.159c33.312-5.394,67.048-13.603,97.413-28.692
				c9.327-4.637,18.362-9.999,26.51-16.514L425.357,323.49z M215.747,368.42c-44.562-0.551-89.708-5.214-132.664-17.502
				c30.525-46.772,80.773-81.464,138.411-77.983c53.059,3.205,99.79,37.223,129.785,79.596c0.392,0.555,0.779,1.109,1.166,1.668
				C307.903,365.25,261.544,368.985,215.747,368.42z"/>
		</g>
	</g>
</g>
<g>
</g>
<g>
</g>
<g>
</g>
<g>
</g>
<g>
</g>
<g>
</g>
<g>
</g>
<g>
</g>
<g>
</g>
<g>
</g>
<g>
</g>
<g>
</g>
<g>
</g>
<g>
</g>
<g>
</g>
</svg>
