<?xml version="1.0" encoding="iso-8859-1"?>
<!-- Generator: Adobe Illustrator 19.0.0, SVG Export Plug-In . SVG Version: 6.00 Build 0)  -->
<svg version="1.1" id="Layer_1" xmlns="http://www.w3.org/2000/svg" xmlns:xlink="http://www.w3.org/1999/xlink" x="0px" y="0px"
	 viewBox="0 0 430.333 430.333" style="enable-background:new 0 0 430.333 430.333;" xml:space="preserve">
<g id="XMLID_197_">
	<g>
		<path d="M322.256,172.333l-38.298,19.149c7.366-46.86,10.501-116.877-13.702-149.149C240.256,2.333,216.589,0,170.589,0
			c0.667,17.333-2.667,26.667-2.667,26.667S155.256,22,143.923,20c6.425,17.989,2.298,58.747-11.372,66.853
			c-13.67,8.105-40.474,25.061-40.474,25.061l15.793,25.507c0,0,31.804-19.636,32.053-19.753c15.443-7.315,14.5-2.167,35,1.833
			c21.131,4.123,43.333-9.166,43.333-9.166s-60,50-60,110s48.265,84.703,65.667,107c21.333,27.333,16.666,69.333-23.334,69.333
			c-22.201-1.783-31.751-16.767-32.264-32.489c0.317-3.659,1.32-7.263,3.012-10.647c3.701-7.402,11.18-11.996,19.432-11.94l0.092-20
			c-0.066,0-0.13-0.001-0.197-0.001c-12.9,0-24.729,5.815-32.517,15.617c-13.988,16.373-18.961,52.297,2.442,73.458
			c11.669,11.538,27.659,19.667,47.667,19.667c50,0,80-40,80-80c0-32.135-12.896-70.721-12.787-105.394l46.787,23.394
			c0,0,16-13.175,16-48S322.256,172.333,322.256,172.333z M168.256,90.333c-5.523,0-10-4.477-10-10s4.477-10,10-10
			c5.523,0,10,4.477,10,10S173.779,90.333,168.256,90.333z"/>
	</g>
</g>
<g>
</g>
<g>
</g>
<g>
</g>
<g>
</g>
<g>
</g>
<g>
</g>
<g>
</g>
<g>
</g>
<g>
</g>
<g>
</g>
<g>
</g>
<g>
</g>
<g>
</g>
<g>
</g>
<g>
</g>
</svg>
