<?xml version="1.0" encoding="iso-8859-1"?>
<!-- Generator: Adobe Illustrator 18.0.0, SVG Export Plug-In . SVG Version: 6.00 Build 0)  -->
<!DOCTYPE svg PUBLIC "-//W3C//DTD SVG 1.1//EN" "http://www.w3.org/Graphics/SVG/1.1/DTD/svg11.dtd">
<svg version="1.1" id="Capa_1" xmlns="http://www.w3.org/2000/svg" xmlns:xlink="http://www.w3.org/1999/xlink" x="0px" y="0px"
	 viewBox="0 0 53 53" style="enable-background:new 0 0 53 53;" xml:space="preserve">
<g>
	<path d="M18.075,17.293c-0.391-0.391-1.023-0.391-1.414,0l-5.146,5.146c-0.391,0.391-0.391,1.023,0,1.414
		c0.195,0.195,0.451,0.293,0.707,0.293s0.512-0.098,0.707-0.293l5.146-5.146C18.466,18.316,18.466,17.684,18.075,17.293z"/>
	<path d="M19.221,21.147c-0.391-0.391-1.023-0.391-1.414,0l-3.146,3.146c-0.391,0.391-0.391,1.023,0,1.414
		C14.856,25.902,15.112,26,15.368,26s0.512-0.098,0.707-0.293l3.146-3.146C19.611,22.171,19.611,21.538,19.221,21.147z"/>
	<path d="M18.807,25.147l-1.146,1.146c-0.391,0.391-0.391,1.023,0,1.414C17.856,27.902,18.112,28,18.368,28s0.512-0.098,0.707-0.293
		l1.146-1.146c0.391-0.391,0.391-1.023,0-1.414S19.197,24.757,18.807,25.147z"/>
	<path d="M43.5,6h-9V2.306C34.5,1.034,33.466,0,32.195,0h-11.39C19.534,0,18.5,1.034,18.5,2.306V6h-9c-2.757,0-5,2.243-5,5v33
		c0,2.757,2.243,5,5,5h3v1.694c0,1.271,1.034,2.306,2.305,2.306h23.39c1.271,0,2.305-1.034,2.305-2.306V49h3c2.757,0,5-2.243,5-5V11
		C48.5,8.243,46.257,6,43.5,6z M20.5,2.306C20.5,2.137,20.637,2,20.805,2h11.39C32.363,2,32.5,2.137,32.5,2.306V6h-12V2.306z
		 M38.5,50.694c0,0.169-0.137,0.306-0.305,0.306h-23.39c-0.168,0-0.305-0.137-0.305-0.306V49h24V50.694z M46.5,44
		c0,1.654-1.346,3-3,3h-3h-28h-3c-1.654,0-3-1.346-3-3V11c0-1.654,1.346-3,3-3h9h16h9c1.654,0,3,1.346,3,3V44z"/>
	<path d="M28.5,39h-4c-0.552,0-1,0.447-1,1s0.448,1,1,1h4c0.552,0,1-0.447,1-1S29.052,39,28.5,39z"/>
	<path d="M22.715,17.028c-2.286-3.883-7.303-5.185-11.187-2.898c-3.883,2.285-5.183,7.304-2.897,11.188
		c1.769,3.006,7.805,8.572,12.167,8.572c0.742,0,1.437-0.161,2.052-0.524C27.085,30.871,24.785,20.544,22.715,17.028z
		 M21.834,31.642c-2.647,1.568-9.543-4.047-11.48-7.338c-1.726-2.934-0.744-6.724,2.188-8.45c2.934-1.723,6.724-0.744,8.449,2.188
		c0.837,1.422,1.842,4.488,2.144,7.601C23.437,28.742,22.95,30.985,21.834,31.642z"/>
	<path d="M36.339,17.293c-0.391-0.391-1.023-0.391-1.414,0s-0.391,1.023,0,1.414l5.146,5.146c0.195,0.195,0.451,0.293,0.707,0.293
		s0.512-0.098,0.707-0.293c0.391-0.391,0.391-1.023,0-1.414L36.339,17.293z"/>
	<path d="M35.193,21.147c-0.391-0.391-1.023-0.391-1.414,0s-0.391,1.023,0,1.414l3.146,3.146C37.12,25.902,37.376,26,37.632,26
		s0.512-0.098,0.707-0.293c0.391-0.391,0.391-1.023,0-1.414L35.193,21.147z"/>
	<path d="M34.193,25.147c-0.391-0.391-1.023-0.391-1.414,0s-0.391,1.023,0,1.414l1.146,1.146C34.12,27.902,34.376,28,34.632,28
		s0.512-0.098,0.707-0.293c0.391-0.391,0.391-1.023,0-1.414L34.193,25.147z"/>
	<path d="M41.472,14.131c-3.883-2.287-8.902-0.986-11.187,2.897c-2.07,3.516-4.37,13.843-0.134,16.338
		c0.616,0.362,1.31,0.523,2.052,0.523c4.362,0,10.398-5.567,12.167-8.572C46.655,21.434,45.355,16.415,41.472,14.131z
		 M42.646,24.304c-0.836,1.421-3.03,3.789-5.604,5.563c-2.563,1.768-4.761,2.429-5.876,1.775c-2.649-1.561-1.094-10.31,0.843-13.601
		c1.149-1.952,3.212-3.039,5.329-3.039c1.063,0,2.14,0.274,3.12,0.852C43.39,17.58,44.372,21.37,42.646,24.304z"/>
</g>
<g>
</g>
<g>
</g>
<g>
</g>
<g>
</g>
<g>
</g>
<g>
</g>
<g>
</g>
<g>
</g>
<g>
</g>
<g>
</g>
<g>
</g>
<g>
</g>
<g>
</g>
<g>
</g>
<g>
</g>
</svg>
