<?xml version="1.0" encoding="iso-8859-1"?>
<!-- Generator: Adobe Illustrator 17.1.0, SVG Export Plug-In . SVG Version: 6.00 Build 0)  -->
<!DOCTYPE svg PUBLIC "-//W3C//DTD SVG 1.1//EN" "http://www.w3.org/Graphics/SVG/1.1/DTD/svg11.dtd">
<svg version="1.1" id="Capa_1" xmlns="http://www.w3.org/2000/svg" xmlns:xlink="http://www.w3.org/1999/xlink" x="0px" y="0px"
	 viewBox="0 0 490 490" style="enable-background:new 0 0 490 490;" xml:space="preserve">
<path d="M489.74,236.593c-0.598-2.599-2.224-4.79-4.388-6.167c1.443-2.205,1.991-4.962,1.37-7.662
	c-1.048-4.556-5.063-7.624-9.983-7.624c-0.583,0-1.169,0.04-1.742,0.13c-9.145,1.417-17.581,2.131-25.065,2.131
	c-0.003,0-0.003,0-0.011,0c-46.107,0-58.102-25.923-76.245-65.15c-3.691-7.987-7.513-16.245-11.928-24.923
	c-6.835-13.442-18.333-26.04-34.174-37.465c-14.499-10.446-32.324-19.704-52.977-27.522
	c-38.663-14.614-84.532-22.994-125.847-22.994c-22.096,0-41.445,2.354-57.508,6.995c-17.406,5.028-30.144,12.459-37.57,22.29
	c-28.913,38.282,17.728,63.82,20.137,110.887c-25.084-21.348-53.681-33.895-71.617-29.439c-0.841,0.212-1.56,0.737-1.9,1.533
	c-0.336,0.795-0.256,1.706,0.218,2.436c29.385,44.974,29.377,103.303-0.021,148.579c-0.473,0.729-0.717,1.747-0.197,2.455
	c1.398,1.877,5.674,1.984,7.633,1.984c18.801,0,53.578-13.819,65.997-31.547C78.69,349.54-54.847,431.114,205.355,390.808
	c-16.312,24.998-49.641,42.931-44.317,54.573c6.676,14.598,118.288,1.484,145.363-72.533
	c85.339-26.355,90.321-122.105,172.843-122.105C490.882,250.508,490.345,239.234,489.74,236.593z M357.158,225.832
	c-6.878,0-12.451-5.568-12.451-12.448c0-6.872,5.573-12.45,12.451-12.45c6.872,0,12.451,5.578,12.451,12.45
	C369.609,220.264,364.03,225.832,357.158,225.832z"/>
<g>
</g>
<g>
</g>
<g>
</g>
<g>
</g>
<g>
</g>
<g>
</g>
<g>
</g>
<g>
</g>
<g>
</g>
<g>
</g>
<g>
</g>
<g>
</g>
<g>
</g>
<g>
</g>
<g>
</g>
</svg>
