<?xml version="1.0" encoding="iso-8859-1"?>
<!-- Generator: Adobe Illustrator 18.0.0, SVG Export Plug-In . SVG Version: 6.00 Build 0)  -->
<!DOCTYPE svg PUBLIC "-//W3C//DTD SVG 1.1//EN" "http://www.w3.org/Graphics/SVG/1.1/DTD/svg11.dtd">
<svg version="1.1" id="Capa_1" xmlns="http://www.w3.org/2000/svg" xmlns:xlink="http://www.w3.org/1999/xlink" x="0px" y="0px"
	 viewBox="0 0 49.227 49.227" style="enable-background:new 0 0 49.227 49.227;" xml:space="preserve">
<g>
	<path d="M30.271,35.857c-0.442-0.331-1.069-0.242-1.4,0.199c-0.332,0.442-0.242,1.069,0.2,1.4l0.262,0.196
		c-0.806,0.917-2.492,2.517-4.677,2.846c-1.398,0.215-2.81-0.149-4.209-1.065l0.021-0.016c0.442-0.331,0.531-0.958,0.2-1.4
		c-0.33-0.44-0.958-0.53-1.4-0.199l-1.96,1.471c-0.442,0.331-0.531,0.958-0.2,1.4c0.196,0.262,0.497,0.399,0.801,0.399
		c0.208,0,0.419-0.065,0.599-0.2l0.259-0.195c1.652,1.236,3.358,1.865,5.091,1.865c0.364,0,0.73-0.027,1.097-0.082
		c2.898-0.437,5.023-2.503,5.983-3.621l0.095,0.071c0.18,0.135,0.391,0.2,0.599,0.2c0.304,0,0.604-0.138,0.801-0.399
		c0.332-0.442,0.242-1.069-0.2-1.4L30.271,35.857z"/>
	<path d="M24.249,5.787c-0.116-0.239-0.323-0.421-0.573-0.507c-0.253-0.089-0.526-0.069-0.764,0.047l-3.071,1.5
		c-0.019,0.008-0.04,0.006-0.059,0.015c-0.019,0.009-0.03,0.026-0.048,0.037L8.788,12.228c-0.496,0.242-0.702,0.841-0.459,1.337
		l1.725,3.531c0.173,0.355,0.529,0.562,0.899,0.562c0.147,0,0.297-0.032,0.438-0.102c0.496-0.242,0.702-0.841,0.459-1.337
		l-1.286-2.633l1.734-0.847l1.286,2.632c0.173,0.355,0.529,0.562,0.899,0.562c0.147,0,0.297-0.032,0.438-0.102
		c0.496-0.242,0.702-0.841,0.459-1.337l-1.286-2.633l2.274-1.111l1.438,2.944c0.173,0.355,0.529,0.562,0.899,0.562
		c0.147,0,0.297-0.032,0.438-0.102c0.496-0.242,0.702-0.841,0.459-1.337l-1.439-2.945l1.602-0.783l1.281,2.621
		c0.173,0.354,0.529,0.561,0.899,0.561c0.147,0,0.297-0.032,0.438-0.102c0.496-0.242,0.702-0.841,0.459-1.338l-1.28-2.62
		l1.327-0.648l1.286,2.632c0.242,0.496,0.84,0.705,1.337,0.46c0.496-0.242,0.702-0.841,0.459-1.337L24.249,5.787z"/>
	<path d="M49.227,21.299c0-10.83-11.042-19.642-24.613-19.642S0,10.469,0,21.299c0,5.009,3.806,11.592,7.393,14.944
		c2.795,6.783,9.679,11.326,17.22,11.326c6.465,0,13.026-4.12,16.396-10.269C45.553,33.502,49.227,26.372,49.227,21.299z
		 M9.227,22.962c0-0.94-0.001-1.732-0.001-2.305h30.003c0.001,0.754,0.002,1.904,0.002,3.274c-4.369-1.892-9.455-1.655-13.64,0.726
		h-2.365v0.082l-0.122-0.07c-4.257-2.432-9.453-2.641-13.877-0.642C9.227,23.66,9.227,23.295,9.227,22.962z M28.34,28.724
		c0.195,0.195,0.451,0.293,0.707,0.293s0.512-0.098,0.707-0.293l2.236-2.235c0.391-0.391,0.391-1.023,0-1.414
		c-0.175-0.175-0.4-0.26-0.629-0.278c1.327-0.179,2.672-0.147,3.994,0.074c-0.11,0.049-0.216,0.113-0.307,0.204l-3.727,3.727
		c-0.391,0.391-0.391,1.023,0,1.414c0.195,0.195,0.451,0.293,0.707,0.293s0.512-0.098,0.707-0.293l3.727-3.727
		c0.384-0.384,0.386-0.998,0.016-1.39c0.941,0.243,1.862,0.578,2.741,1.03c-0.075,2.583-0.701,4.221-3.145,4.484
		c-3.586,0.39-6.14-0.074-7.587-1.373c-0.838-0.753-1.299-1.776-1.4-3.118c1.198-0.614,2.474-1.01,3.774-1.236
		c-0.102,0.048-0.201,0.105-0.285,0.189L28.34,27.31C27.949,27.7,27.949,28.333,28.34,28.724z M10.722,28.724
		c0.195,0.195,0.451,0.293,0.707,0.293s0.512-0.098,0.707-0.293l2.236-2.235c0.391-0.391,0.391-1.023,0-1.414
		c-0.175-0.176-0.402-0.261-0.631-0.278c1.327-0.179,2.673-0.147,3.995,0.075c-0.11,0.049-0.216,0.113-0.306,0.203l-3.727,3.727
		c-0.391,0.391-0.391,1.023,0,1.414c0.195,0.195,0.451,0.293,0.707,0.293s0.512-0.098,0.707-0.293l3.727-3.727
		c0.383-0.383,0.385-0.997,0.017-1.389c0.936,0.241,1.853,0.574,2.727,1.022c-0.101,1.342-0.562,2.365-1.4,3.118
		c-1.447,1.299-3.999,1.76-7.586,1.373c-2.444-0.264-3.07-1.901-3.145-4.484c1.201-0.618,2.482-1.017,3.788-1.244
		c-0.102,0.048-0.202,0.105-0.286,0.19l-2.236,2.235C10.331,27.7,10.331,28.333,10.722,28.724z M24.613,45.569
		c-6.75,0-12.907-4.062-15.387-10.121c0.001-1.286,0.002-2.725,0.002-4.201c0.722,0.686,1.728,1.199,3.157,1.354
		c0.873,0.095,1.697,0.142,2.473,0.142c2.936,0,5.171-0.675,6.665-2.015c1.139-1.022,1.807-2.392,2.011-4.07h1.604
		c0.204,1.679,0.873,3.048,2.011,4.07c1.493,1.34,3.729,2.015,6.665,2.015c0.775,0,1.601-0.047,2.473-0.142
		c1.291-0.139,2.239-0.571,2.943-1.158c-0.001,1.729-0.002,3.432-0.004,4.946C36.192,41.887,30.351,45.569,24.613,45.569z
		 M41.223,19.568c-0.046-0.516-0.479-0.911-0.996-0.911h-32c-0.522,0-0.956,0.401-0.997,0.921c-0.004,0.054-0.004,0.054-0.002,3.385
		c0.001,2.737,0.002,6.726,0.001,10.195C4.476,29.87,2,24.959,2,21.299C2,11.571,12.144,3.657,24.613,3.657
		s22.613,7.914,22.613,17.642c0,3.841-2.657,9.442-5.998,13.038C41.232,29.344,41.234,19.703,41.223,19.568z"/>
</g>
<g>
</g>
<g>
</g>
<g>
</g>
<g>
</g>
<g>
</g>
<g>
</g>
<g>
</g>
<g>
</g>
<g>
</g>
<g>
</g>
<g>
</g>
<g>
</g>
<g>
</g>
<g>
</g>
<g>
</g>
</svg>
