<?xml version="1.0" encoding="iso-8859-1"?>
<!-- Generator: Adobe Illustrator 18.1.1, SVG Export Plug-In . SVG Version: 6.00 Build 0)  -->
<svg version="1.1" id="Capa_1" xmlns="http://www.w3.org/2000/svg" xmlns:xlink="http://www.w3.org/1999/xlink" x="0px" y="0px"
	 viewBox="0 0 284.998 284.998" style="enable-background:new 0 0 284.998 284.998;" xml:space="preserve">
<g>
	<path d="M272.048,174.89h-0.655c0.42-2.097,0.655-4.262,0.655-6.482c0-13.272-8.01-24.652-19.439-29.656V84.2
		c0-17.881-14.497-32.384-32.378-32.384H64.768c-17.881,0-32.378,14.503-32.378,32.384v54.551
		c-11.43,5.004-19.439,16.384-19.439,29.656c0,2.221,0.235,4.386,0.655,6.482h-0.655C5.802,174.889,0,180.684,0,187.84
		c0,7.149,5.802,12.957,12.951,12.957h6.481v19.433c0,7.15,5.796,12.951,12.958,12.951c7.149,0,12.951-5.801,12.951-12.951v-19.433
		h194.316v19.433c0,7.15,5.802,12.951,12.951,12.951c7.162,0,12.958-5.801,12.958-12.951v-19.433h6.481
		c7.149,0,12.951-5.808,12.951-12.957C284.999,180.685,279.197,174.89,272.048,174.89z M160.312,97.263h64.769
		c7.162,0,12.963,5.802,12.963,12.951v25.804h-90.683v-25.804C147.36,103.064,153.162,97.263,160.312,97.263z M59.918,97.263h64.769
		c7.149,0,12.951,5.802,12.951,12.951v25.804H46.955v-25.804C46.955,103.064,52.756,97.263,59.918,97.263z"/>
</g>
<g>
</g>
<g>
</g>
<g>
</g>
<g>
</g>
<g>
</g>
<g>
</g>
<g>
</g>
<g>
</g>
<g>
</g>
<g>
</g>
<g>
</g>
<g>
</g>
<g>
</g>
<g>
</g>
<g>
</g>
</svg>
