<?xml version="1.0" encoding="iso-8859-1"?>
<!-- Generator: Adobe Illustrator 19.0.0, SVG Export Plug-In . SVG Version: 6.00 Build 0)  -->
<svg version="1.1" id="Capa_1" xmlns="http://www.w3.org/2000/svg" xmlns:xlink="http://www.w3.org/1999/xlink" x="0px" y="0px"
	 viewBox="0 0 463 463" style="enable-background:new 0 0 463 463;" xml:space="preserve">
<g>
	<path d="M455.5,372H447V206.133l3.655,3.093c1.409,1.192,3.129,1.774,4.841,1.774c2.13,0,4.246-0.902,5.729-2.655
		c2.675-3.162,2.281-7.895-0.881-10.57l-104-88c-0.847-0.716-1.841-1.235-2.912-1.521l-120-32c-1.267-0.338-2.599-0.338-3.865,0
		l-120,32c-1.071,0.286-2.065,0.805-2.912,1.521l-104,88c-3.162,2.676-3.556,7.408-0.881,10.57c2.676,3.162,7.408,3.558,10.57,0.881
		L16,206.133V372H7.5c-4.142,0-7.5,3.358-7.5,7.5s3.358,7.5,7.5,7.5h448c4.142,0,7.5-3.358,7.5-7.5S459.642,372,455.5,372z
		 M30.759,193.644l84.3-71.331L231.5,91.262l116.441,31.051l84.3,71.331c-0.152,0.595-0.241,1.214-0.241,1.856V372h-41V219.5
		c0-4.142-3.358-7.5-7.5-7.5h-304c-4.142,0-7.5,3.358-7.5,7.5V372H31V195.5C31,194.858,30.911,194.239,30.759,193.644z M376,276H87
		v-17h289V276z M87,291h289v17H87V291z M376,244H87v-17h289V244z M87,323h289v17H87V323z M87,372v-17h289v17H87z"/>
	<path d="M215.5,187h32c4.142,0,7.5-3.358,7.5-7.5v-32c0-4.142-3.358-7.5-7.5-7.5h-32c-4.142,0-7.5,3.358-7.5,7.5v32
		C208,183.642,211.358,187,215.5,187z M223,155h17v17h-17V155z"/>
	<path d="M151.5,187h32c4.142,0,7.5-3.358,7.5-7.5v-32c0-4.142-3.358-7.5-7.5-7.5h-32c-4.142,0-7.5,3.358-7.5,7.5v32
		C144,183.642,147.358,187,151.5,187z M159,155h17v17h-17V155z"/>
	<path d="M279.5,187h32c4.142,0,7.5-3.358,7.5-7.5v-32c0-4.142-3.358-7.5-7.5-7.5h-32c-4.142,0-7.5,3.358-7.5,7.5v32
		C272,183.642,275.358,187,279.5,187z M287,155h17v17h-17V155z"/>
</g>
<g>
</g>
<g>
</g>
<g>
</g>
<g>
</g>
<g>
</g>
<g>
</g>
<g>
</g>
<g>
</g>
<g>
</g>
<g>
</g>
<g>
</g>
<g>
</g>
<g>
</g>
<g>
</g>
<g>
</g>
</svg>
