<?xml version="1.0" encoding="iso-8859-1"?>
<!-- Generator: Adobe Illustrator 19.0.0, SVG Export Plug-In . SVG Version: 6.00 Build 0)  -->
<svg version="1.1" id="Layer_1" xmlns="http://www.w3.org/2000/svg" xmlns:xlink="http://www.w3.org/1999/xlink" x="0px" y="0px"
	 viewBox="0 0 490 490" style="enable-background:new 0 0 490 490;" xml:space="preserve">
<g id="XMLID_491_">
	<g>
		<g>
			<path d="M90,0v490h310V0H90z M370,460H120v-90h250V460z M370,340H120V90h250V340z M370,60H120V30h250V60z"/>
			<path d="M315,175h-25v-15c0-24.813-20.187-45-45-45s-45,20.187-45,45v15h-25v140h140V175z M230,160c0-8.271,6.729-15,15-15
				s15,6.729,15,15v15h-30V160z M285,285h-80v-80h80V285z"/>
			<rect x="210" y="400" width="70" height="30"/>
		</g>
	</g>
</g>
<g>
</g>
<g>
</g>
<g>
</g>
<g>
</g>
<g>
</g>
<g>
</g>
<g>
</g>
<g>
</g>
<g>
</g>
<g>
</g>
<g>
</g>
<g>
</g>
<g>
</g>
<g>
</g>
<g>
</g>
</svg>
