<?xml version="1.0" encoding="iso-8859-1"?>
<!-- Generator: Adobe Illustrator 16.0.0, SVG Export Plug-In . SVG Version: 6.00 Build 0)  -->
<!DOCTYPE svg PUBLIC "-//W3C//DTD SVG 1.1//EN" "http://www.w3.org/Graphics/SVG/1.1/DTD/svg11.dtd">
<svg version="1.1" id="Capa_1" xmlns="http://www.w3.org/2000/svg" xmlns:xlink="http://www.w3.org/1999/xlink" x="0px" y="0px"
	 width="31.076px" height="31.076px" viewBox="0 0 31.076 31.076" style="enable-background:new 0 0 31.076 31.076;"
	 xml:space="preserve">
<g>
	<g>
		<path d="M21.549,20.227v-3.947c0-8.806-3.725-14.125-5.283-15.964C16.098,0.116,15.851,0.002,15.591,0
			c-0.261-0.001-0.508,0.112-0.679,0.31c-1.584,1.835-5.384,7.156-5.384,15.97v3.948l-0.729,0.491
			c-1.405,0.948-2.248,2.533-2.248,4.229v4.711c0,0.279,0.154,0.537,0.4,0.67c0.247,0.132,0.546,0.117,0.778-0.039l2.368-1.577
			c0.665-0.442,1.445-0.679,2.244-0.679h1.741v2.283c0,0.42,0.34,0.76,0.759,0.76h1.394c0.419,0,0.759-0.34,0.759-0.76v-2.283h1.74
			c0.799,0,1.58,0.235,2.246,0.68l2.366,1.576c0.232,0.156,0.531,0.171,0.778,0.039c0.246-0.133,0.4-0.391,0.4-0.67v-4.711
			c0-1.694-0.844-3.279-2.248-4.229L21.549,20.227z M15.539,14.043c-1.446,0-2.62-1.173-2.62-2.619c0-1.447,1.174-2.619,2.62-2.619
			c1.445,0,2.619,1.172,2.619,2.619C18.158,12.87,16.984,14.043,15.539,14.043z"/>
	</g>
</g>
<g>
</g>
<g>
</g>
<g>
</g>
<g>
</g>
<g>
</g>
<g>
</g>
<g>
</g>
<g>
</g>
<g>
</g>
<g>
</g>
<g>
</g>
<g>
</g>
<g>
</g>
<g>
</g>
<g>
</g>
</svg>
