<?xml version="1.0" encoding="iso-8859-1"?>
<!-- Generator: Adobe Illustrator 18.0.0, SVG Export Plug-In . SVG Version: 6.00 Build 0)  -->
<!DOCTYPE svg PUBLIC "-//W3C//DTD SVG 1.1//EN" "http://www.w3.org/Graphics/SVG/1.1/DTD/svg11.dtd">
<svg version="1.1" id="Capa_1" xmlns="http://www.w3.org/2000/svg" xmlns:xlink="http://www.w3.org/1999/xlink" x="0px" y="0px"
	 viewBox="0 0 44 44" style="enable-background:new 0 0 44 44;" xml:space="preserve">
<g>
	<path d="M22,0C9.869,0,0,9.869,0,22s9.869,22,22,22s22-9.869,22-22S34.131,0,22,0z M22,42C10.972,42,2,33.028,2,22S10.972,2,22,2
		s20,8.972,20,20S33.028,42,22,42z"/>
	<path d="M33,24c-0.552,0-1,0.448-1,1c0,5.514-4.486,10-10,10s-10-4.486-10-10c0-0.552-0.448-1-1-1s-1,0.448-1,1
		c0,6.617,5.383,12,12,12s12-5.383,12-12C34,24.448,33.552,24,33,24z"/>
	<path d="M13,14c1.654,0,3,1.346,3,3c0,0.552,0.448,1,1,1s1-0.448,1-1c0-2.757-2.243-5-5-5s-5,2.243-5,5c0,0.552,0.448,1,1,1
		s1-0.448,1-1C10,15.346,11.346,14,13,14z"/>
	<path d="M31,12c-2.757,0-5,2.243-5,5c0,0.552,0.448,1,1,1s1-0.448,1-1c0-1.654,1.346-3,3-3s3,1.346,3,3c0,0.552,0.448,1,1,1
		s1-0.448,1-1C36,14.243,33.757,12,31,12z"/>
</g>
<g>
</g>
<g>
</g>
<g>
</g>
<g>
</g>
<g>
</g>
<g>
</g>
<g>
</g>
<g>
</g>
<g>
</g>
<g>
</g>
<g>
</g>
<g>
</g>
<g>
</g>
<g>
</g>
<g>
</g>
</svg>
