<?xml version="1.0" encoding="iso-8859-1"?>
<!-- Generator: Adobe Illustrator 19.0.0, SVG Export Plug-In . SVG Version: 6.00 Build 0)  -->
<svg version="1.1" id="Layer_1" xmlns="http://www.w3.org/2000/svg" xmlns:xlink="http://www.w3.org/1999/xlink" x="0px" y="0px"
	 viewBox="0 0 512 512" style="enable-background:new 0 0 512 512;" xml:space="preserve">
<g>
	<g>
		<g>
			<path d="M42.667,59.733H51.2v34.133c0,4.71,3.814,8.533,8.533,8.533c4.71,0,8.533-3.823,8.533-8.533V59.733H76.8v25.6
				c0,4.71,3.814,8.533,8.533,8.533c4.71,0,8.533-3.823,8.533-8.533v-25.6h51.2v25.6c0,4.71,3.814,8.533,8.533,8.533
				c4.71,0,8.533-3.823,8.533-8.533v-25.6h51.2v25.6c0,4.71,3.814,8.533,8.533,8.533c4.71,0,8.533-3.823,8.533-8.533v-25.6h51.2
				v25.6c0,4.71,3.814,8.533,8.533,8.533c4.71,0,8.533-3.823,8.533-8.533v-25.6h51.2v25.6c0,4.71,3.814,8.533,8.533,8.533
				c4.71,0,8.533-3.823,8.533-8.533v-25.6h51.2v25.6c0,4.71,3.814,8.533,8.533,8.533c4.71,0,8.533-3.823,8.533-8.533v-25.6h8.533
				v34.133c0,4.71,3.814,8.533,8.533,8.533c4.71,0,8.533-3.823,8.533-8.533V59.733h8.533c4.71,0,8.533-3.823,8.533-8.533
				c0-4.71-3.823-8.533-8.533-8.533H42.667c-4.719,0-8.533,3.823-8.533,8.533C34.133,55.91,37.948,59.733,42.667,59.733z"/>
			<path d="M187.895,76.8c-4.702,0-8.482,3.823-8.482,8.533s3.857,8.533,8.576,8.533c4.71,0,8.533-3.823,8.533-8.533
				S192.7,76.8,187.989,76.8H187.895z"/>
			<path d="M256.162,76.8c-4.702,0-8.482,3.823-8.482,8.533s3.857,8.533,8.576,8.533c4.71,0,8.533-3.823,8.533-8.533
				s-3.823-8.533-8.533-8.533H256.162z"/>
			<path d="M392.695,76.8c-4.702,0-8.482,3.823-8.482,8.533s3.857,8.533,8.576,8.533c4.71,0,8.533-3.823,8.533-8.533
				S397.5,76.8,392.789,76.8H392.695z"/>
			<path d="M324.429,76.8c-4.71,0-8.482,3.823-8.482,8.533s3.857,8.533,8.576,8.533c4.71,0,8.533-3.823,8.533-8.533
				s-3.823-8.533-8.533-8.533H324.429z"/>
			<path d="M119.629,76.8c-4.71,0-8.482,3.823-8.482,8.533s3.857,8.533,8.576,8.533c4.71,0,8.533-3.823,8.533-8.533
				s-3.823-8.533-8.533-8.533H119.629z"/>
			<path d="M349.867,196.267c-4.719,0-8.533,3.823-8.533,8.533v34.133c0,4.71,3.814,8.533,8.533,8.533h68.267
				c4.71,0,8.533-3.823,8.533-8.533V204.8c0-4.71-3.823-8.533-8.533-8.533H349.867z M409.6,230.4h-51.2v-17.067h51.2V230.4z"/>
			<path d="M51.2,174.199v73.267c0,4.71,3.814,8.533,8.533,8.533c4.71,0,8.533-3.823,8.533-8.533V179.2h375.467v68.267
				c0,4.71,3.814,8.533,8.533,8.533c4.71,0,8.533-3.823,8.533-8.533v-73.267l14.566-14.566c1.596-1.596,2.5-3.772,2.5-6.033v-34.133
				c0-4.71-3.823-8.533-8.533-8.533H42.667c-4.719,0-8.533,3.823-8.533,8.533V153.6c0,2.261,0.896,4.437,2.5,6.033L51.2,174.199z
				 M51.2,128h409.6v22.067l-12.066,12.066H63.266L51.2,150.067V128z"/>
			<path d="M349.867,418.133h68.267c4.71,0,8.533-3.823,8.533-8.533v-85.333c0-4.71-3.823-8.533-8.533-8.533h-68.267
				c-4.719,0-8.533,3.823-8.533,8.533V409.6C341.333,414.31,345.148,418.133,349.867,418.133z M358.4,332.8h51.2v68.267h-51.2V332.8
				z"/>
			<path d="M503.467,452.267H460.8V281.6h8.533c4.71,0,8.533-3.823,8.533-8.533s-3.823-8.533-8.533-8.533H323.669
				C319.445,230.912,290.748,204.8,256,204.8c-34.756,0-63.454,26.112-67.678,59.733H42.667c-4.719,0-8.533,3.823-8.533,8.533
				s3.814,8.533,8.533,8.533H51.2v170.667H8.533C3.814,452.267,0,456.09,0,460.8s3.814,8.533,8.533,8.533h494.933
				c4.71,0,8.533-3.823,8.533-8.533S508.177,452.267,503.467,452.267z M187.733,452.267H68.267V281.6h119.467V452.267z
				 M307.2,452.267H204.8V281.6h8.533c4.71,0,8.533-3.823,8.533-8.533s-3.823-8.533-8.533-8.533h-7.765
				c4.079-24.175,25.114-42.667,50.432-42.667c25.318,0,46.345,18.492,50.432,42.667h-7.765c-4.719,0-8.533,3.823-8.533,8.533
				s3.814,8.533,8.533,8.533h8.533V452.267z M443.733,452.267H324.267V281.6h119.467V452.267z"/>
			<path d="M93.867,196.267c-4.719,0-8.533,3.823-8.533,8.533v34.133c0,4.71,3.814,8.533,8.533,8.533h68.267
				c4.71,0,8.533-3.823,8.533-8.533V204.8c0-4.71-3.823-8.533-8.533-8.533H93.867z M153.6,230.4h-51.2v-17.067h51.2V230.4z"/>
			<path d="M93.867,418.133h68.267c4.71,0,8.533-3.823,8.533-8.533v-85.333c0-4.71-3.823-8.533-8.533-8.533H93.867
				c-4.719,0-8.533,3.823-8.533,8.533V409.6C85.333,414.31,89.148,418.133,93.867,418.133z M102.4,332.8h51.2v68.267h-51.2V332.8z"
				/>
		</g>
	</g>
</g>
<g>
</g>
<g>
</g>
<g>
</g>
<g>
</g>
<g>
</g>
<g>
</g>
<g>
</g>
<g>
</g>
<g>
</g>
<g>
</g>
<g>
</g>
<g>
</g>
<g>
</g>
<g>
</g>
<g>
</g>
</svg>
