<?xml version="1.0" encoding="iso-8859-1"?>
<!-- Generator: Adobe Illustrator 17.1.0, SVG Export Plug-In . SVG Version: 6.00 Build 0)  -->
<!DOCTYPE svg PUBLIC "-//W3C//DTD SVG 1.1//EN" "http://www.w3.org/Graphics/SVG/1.1/DTD/svg11.dtd">
<svg version="1.1" id="Layer_1" xmlns="http://www.w3.org/2000/svg" xmlns:xlink="http://www.w3.org/1999/xlink" x="0px" y="0px"
	 viewBox="0 0 800 800" style="enable-background:new 0 0 800 800;" xml:space="preserve">
<path d="M28.07,493.494V153.121c0-18.914,15.333-34.247,34.247-34.247h340.196c18.914,0,34.247,15.333,34.247,34.247v340.373
	c0,6.304-5.111,11.416-11.416,11.416H39.486C33.181,504.909,28.07,499.798,28.07,493.494z M302.789,610.096
	c0,39.229-31.802,71.03-71.03,71.03s-71.03-31.801-71.03-71.03s31.802-71.03,71.03-71.03S302.789,570.866,302.789,610.096z
	 M267.273,610.096c0-19.614-15.901-35.515-35.515-35.515s-35.516,15.901-35.516,35.515s15.901,35.516,35.516,35.516
	S267.273,629.71,267.273,610.096z M170.581,539.065H11.416C5.111,539.065,0,544.176,0,550.481v34.634
	c0,6.305,5.111,11.416,11.416,11.416h127.579C142.326,573.676,153.861,553.488,170.581,539.065z M674.429,610.096
	c0,39.229-31.802,71.03-71.03,71.03c-39.228,0-71.03-31.801-71.03-71.03s31.802-71.03,71.03-71.03
	C642.627,539.065,674.429,570.866,674.429,610.096z M638.914,610.096c0-19.614-15.901-35.515-35.516-35.515
	s-35.515,15.901-35.515,35.515s15.901,35.516,35.515,35.516S638.914,629.71,638.914,610.096z M800,550.481v34.634
	c0,6.305-5.111,11.416-11.416,11.416H696.16c-6.61-45.336-45.629-80.296-92.759-80.296c-47.14,0-86.16,34.961-92.77,80.296H324.524
	c-3.332-22.854-14.867-43.042-31.587-57.465H469.4V212.541c0-12.609,10.222-22.831,22.831-22.831h107.771
	c30.345,0,58.708,15.073,75.688,40.222l69.477,102.903c10.191,15.094,15.636,32.89,15.636,51.103v155.127h27.782
	C794.889,539.065,800,544.176,800,550.481z M684.194,335.471l-55.557-78.945c-2.138-3.038-5.621-4.846-9.336-4.846H532.64
	c-6.304,0-11.416,5.111-11.416,11.416v78.945c0,6.305,5.111,11.416,11.416,11.416h142.219
	C684.107,353.456,689.517,343.034,684.194,335.471z"/>
</svg>
