<?xml version="1.0" encoding="iso-8859-1"?>
<!-- Generator: Adobe Illustrator 19.0.0, SVG Export Plug-In . SVG Version: 6.00 Build 0)  -->
<svg version="1.1" id="Layer_1" xmlns="http://www.w3.org/2000/svg" xmlns:xlink="http://www.w3.org/1999/xlink" x="0px" y="0px"
	 viewBox="0 0 496.213 496.213" style="enable-background:new 0 0 496.213 496.213;" xml:space="preserve">
<g id="XMLID_898_">
	<g>
		<g>
			<path d="M195,60c-74.439,0-135,60.561-135,135s60.561,135,135,135s135-60.561,135-135S269.439,60,195,60z M195,300
				c-57.897,0-105-47.103-105-105c0-57.897,47.103-105,105-105c57.897,0,105,47.103,105,105C300,252.897,252.897,300,195,300z"/>
			<path d="M248.033,141.967c-14.147-14.147-32.981-21.939-53.033-21.939s-38.885,7.792-53.033,21.939l21.213,21.213
				c17.546-17.545,46.094-17.545,63.64,0c17.545,17.545,17.545,46.094,0,63.64l21.213,21.213
				c14.147-14.147,21.939-32.981,21.939-53.033S262.18,156.115,248.033,141.967z"/>
			<path d="M360.954,297.314C379.996,266.576,390,231.463,390,195C390,87.477,302.523,0,195,0S0,87.477,0,195s87.477,195,195,195
				c36.463,0,71.576-10.004,102.314-29.046l135.259,135.259l63.64-63.64L360.954,297.314z M300.871,322.084l-10.337,7.368
				C262.497,349.437,229.461,360,195,360c-90.981,0-165-74.019-165-165S104.019,30,195,30s165,74.019,165,165
				c0,34.461-10.563,67.497-30.548,95.534l-7.368,10.337l131.703,131.703l-21.213,21.213L300.871,322.084z"/>
		</g>
	</g>
</g>
<g>
</g>
<g>
</g>
<g>
</g>
<g>
</g>
<g>
</g>
<g>
</g>
<g>
</g>
<g>
</g>
<g>
</g>
<g>
</g>
<g>
</g>
<g>
</g>
<g>
</g>
<g>
</g>
<g>
</g>
</svg>
