<?xml version="1.0" encoding="iso-8859-1"?>
<!-- Generator: Adobe Illustrator 19.0.0, SVG Export Plug-In . SVG Version: 6.00 Build 0)  -->
<svg version="1.1" id="Capa_1" xmlns="http://www.w3.org/2000/svg" xmlns:xlink="http://www.w3.org/1999/xlink" x="0px" y="0px"
	 viewBox="0 0 463.001 463.001" style="enable-background:new 0 0 463.001 463.001;" xml:space="preserve">
<path d="M451.34,337.26L429.229,352h-39.463c-3.138-9.29-11.93-16-22.266-16c-4.507,0-8.72,1.278-12.301,3.487l-13.794-11.495
	c1.025-2.636,1.594-5.498,1.594-8.492s-0.569-5.856-1.594-8.492l13.794-11.495c3.581,2.209,7.794,3.487,12.301,3.487
	c10.336,0,19.128-6.71,22.266-16h39.463l22.111,14.74c1.279,0.853,2.724,1.261,4.153,1.261c2.423,0,4.802-1.173,6.247-3.341
	c2.298-3.446,1.367-8.103-2.08-10.4l-24-16c-1.232-0.821-2.68-1.26-4.16-1.26h-41.734c-3.138-9.29-11.93-16-22.266-16
	c-12.958,0-23.5,10.542-23.5,23.5c0,2.994,0.569,5.856,1.594,8.492l-13.794,11.495C328.22,297.278,324.007,296,319.5,296H263v-0.5
	c0-4.142-3.358-7.5-7.5-7.5H223v-0.5c0-4.142-3.358-7.5-7.5-7.5h-57.223c-1.165-6.037-3.705-11.587-7.286-16.312
	c0.002-0.063,0.01-0.125,0.01-0.188v-95.772c13.985-6.849,25.554-18.216,32.658-32.728H207.5c4.142,0,7.5-3.358,7.5-7.5V95h16.5
	c4.142,0,7.5-3.358,7.5-7.5s-3.358-7.5-7.5-7.5H7.5C3.358,80,0,83.358,0,87.5S3.358,95,7.5,95H24v32.5c0,4.142,3.358,7.5,7.5,7.5
	h23.842c7.104,14.512,18.673,25.878,32.658,32.728V263.5c0,0.063,0.008,0.125,0.01,0.188c-3.733,4.925-6.333,10.75-7.425,17.086
	C66.532,283.936,56,296.507,56,311.5v16C56,344.87,70.131,359,87.5,359h128c4.142,0,7.5-3.358,7.5-7.5V351h32.5
	c4.142,0,7.5-3.358,7.5-7.5V343h56.5c4.507,0,8.72-1.278,12.301-3.487l13.794,11.495c-1.025,2.636-1.594,5.498-1.594,8.492
	c0,12.958,10.542,23.5,23.5,23.5c10.336,0,19.128-6.71,22.266-16H431.5c1.48,0,2.928-0.438,4.16-1.26l24-16
	c3.447-2.298,4.378-6.954,2.08-10.4S454.786,334.963,451.34,337.26z M311,319.5c0-4.687,3.813-8.5,8.5-8.5s8.5,3.813,8.5,8.5
	s-3.813,8.5-8.5,8.5S311,324.187,311,319.5z M367.5,271c4.687,0,8.5,3.813,8.5,8.5s-3.813,8.5-8.5,8.5s-8.5-3.813-8.5-8.5
	S362.813,271,367.5,271z M119.5,263c13.509,0,24.5,10.991,24.5,24.5S133.009,312,119.5,312S95,301.01,95,287.5
	S105.991,263,119.5,263z M39,95h161v25H39V95z M72.617,135h93.767c-10.343,15.473-27.73,25-46.883,25S82.96,150.473,72.617,135z
	 M119.5,175c5.65,0,11.177-0.661,16.5-1.913v78.538c-5.025-2.32-10.612-3.625-16.5-3.625s-11.475,1.305-16.5,3.625v-78.538
	C108.323,174.339,113.85,175,119.5,175z M208,344H87.5c-9.098,0-16.5-7.402-16.5-16.5v-16c0-6.794,4.129-12.639,10.009-15.165
	C85.033,313.874,100.758,327,119.5,327c19.216,0,35.262-13.795,38.777-32H208v0.5v48V344z M248,336h-25v-33h25V336z M263,311h34.597
	c-1.027,2.638-1.597,5.503-1.597,8.5s0.57,5.862,1.597,8.5H263V311z M367.5,368c-4.687,0-8.5-3.813-8.5-8.5s3.813-8.5,8.5-8.5
	s8.5,3.813,8.5,8.5S372.187,368,367.5,368z"/>
<g>
</g>
<g>
</g>
<g>
</g>
<g>
</g>
<g>
</g>
<g>
</g>
<g>
</g>
<g>
</g>
<g>
</g>
<g>
</g>
<g>
</g>
<g>
</g>
<g>
</g>
<g>
</g>
<g>
</g>
</svg>
