<?xml version='1.0' encoding='iso-8859-1'?>
<svg version="1.1" xmlns="http://www.w3.org/2000/svg" viewBox="0 0 303.19 303.19" xmlns:xlink="http://www.w3.org/1999/xlink" enable-background="new 0 0 303.19 303.19">
  <g>
    <g>
      <path d="m206.72,28.982l1.287-.669c7.35-3.821 10.211-12.878 6.391-20.229-3.82-7.35-12.876-10.21-20.229-6.391l-60.315,31.355-16.172,1.683 34.167,7.764c33.103-8.698 54.871-13.513 54.871-13.513z"/>
      <path d="m76.3,68.4l72.677,16.514c2.29,0.519 4.733,0.509 7.122-0.117l54.666-14.309c8.014-2.098 12.81-10.295 10.712-18.31-2.097-8.009-10.29-12.811-18.31-10.713l-51.117,13.382-69.103-15.702c-6.72-1.527-13.405,1.719-16.524,7.508l-.01-.023-10.127,20.677-9.666,19.736-19.966,40.768c-3.478,7.101-1.669,15.491 3.887,20.586 0.055,0.056 0.092,0.089 0.126,0.118l17.335,49.538v0.001l-11.683,49.796c-1.578,6.724 2.596,13.449 9.315,15.026 6.744,1.576 13.458-2.631 15.025-9.314l12.515-53.342c0.561-2.394 0.387-4.816-0.371-6.984l-18.624-53.226c4.073,6.628 24.779,40.322 28.847,46.943 2.031,3.304 3.302,9.73 1.83,16.008l-12.516,53.343c-0.866,3.688-2.587,7.092-4.953,9.965 1.567,2.284 3.896,4.066 6.76,4.911 6.624,1.954 13.574-1.831 15.527-8.449l13.252-44.896c0.701-2.373 0.682-4.9-0.056-7.262l-16.741-53.665 32.598-66.56 .771-1.573-43.198-20.375z"/>
      <path d="m10.736,176.987c-6.293,12.85-0.978,28.368 11.871,34.661 2.998,1.468 6.142,2.295 9.28,2.551l3.963-16.89-3.774-34.762c-8.862,0.669-17.148,5.88-21.34,14.44z"/>
      <path d="m292.458,16.051c-1.561-0.433-3.218,0.229-4.052,1.617l-23.565,39.239c-2.043,3.401-3.679,7.031-4.875,10.814l-7.345,23.225c-2.741,8.668-7.762,16.438-14.538,22.499l-12.396,11.087c-2.471,2.21-4.719,4.657-6.713,7.307l-24.185,32.145c-6.61,8.786-10.185,19.483-10.185,30.478v21c0,13.086-5.061,25.666-14.123,35.107l-14.351,14.95c-4.857,5.059-8.611,11.071-11.025,17.655l-5.563,15.172c-0.405,1.105-0.245,2.339 0.429,3.304s1.777,1.54 2.955,1.54h135.507c9.205,0 16.667-7.462 16.667-16.667v-266.999c-0.001-1.62-1.081-3.04-2.642-3.473z"/>
    </g>
  </g>
</svg>
