<?xml version="1.0" encoding="iso-8859-1"?>
<!-- Generator: Adobe Illustrator 18.1.1, SVG Export Plug-In . SVG Version: 6.00 Build 0)  -->
<svg version="1.1" id="Capa_1" xmlns="http://www.w3.org/2000/svg" xmlns:xlink="http://www.w3.org/1999/xlink" x="0px" y="0px"
	 viewBox="0 0 19.441 19.441" style="enable-background:new 0 0 19.441 19.441;" xml:space="preserve">
<g>
	<path d="M15.133,8.098V6.562h-0.231V5.201h-0.25V3.855h-0.233V2.807h-0.164V2.215h-0.202V1.758h-0.141V1.396h-0.083
		c-0.006-0.041-0.034-0.1-0.075-0.136V0H13.62v1.263c-0.04,0.034-0.067,0.094-0.073,0.135h-0.082v0.36h-0.144v0.457h-0.2v0.593
		h-0.166v1.049h-0.23v1.346h-0.25v1.361h-0.234v1.535H12.01v1.836H7.432V8.098H7.199V6.562H6.965V5.201H6.718V3.855H6.485V2.807
		H6.319V2.215h-0.2V1.758H5.978V1.396H5.894C5.89,1.355,5.861,1.296,5.82,1.26V0H5.687v1.263C5.646,1.297,5.618,1.355,5.611,1.396
		h-0.08v0.36H5.388v0.457H5.189v0.593H5.023v1.049H4.79v1.346H4.541v1.361H4.308v1.535H4.075v11.344h11.291V8.098H15.133z
		 M12.01,11.052v1.757l-1.893-1.757H12.01z M7.432,11.052h1.843L7.432,12.87C7.432,12.87,7.432,11.052,7.432,11.052z M7.432,13.506
		l2.265-2.299l2.312,2.271v4.19H7.432V13.506z M7.42,19.158v-0.826h1.061v0.826H7.42z M9.137,19.158v-0.826h1.195v0.826H9.137z
		 M10.971,19.158v-0.826h1.06v0.826H10.971z"/>
</g>
<g>
</g>
<g>
</g>
<g>
</g>
<g>
</g>
<g>
</g>
<g>
</g>
<g>
</g>
<g>
</g>
<g>
</g>
<g>
</g>
<g>
</g>
<g>
</g>
<g>
</g>
<g>
</g>
<g>
</g>
</svg>
