<?xml version="1.0" encoding="iso-8859-1"?>
<!-- Generator: Adobe Illustrator 18.0.0, SVG Export Plug-In . SVG Version: 6.00 Build 0)  -->
<!DOCTYPE svg PUBLIC "-//W3C//DTD SVG 1.1//EN" "http://www.w3.org/Graphics/SVG/1.1/DTD/svg11.dtd">
<svg version="1.1" id="Capa_1" xmlns="http://www.w3.org/2000/svg" xmlns:xlink="http://www.w3.org/1999/xlink" x="0px" y="0px"
	 viewBox="0 0 505.087 505.087" style="enable-background:new 0 0 505.087 505.087;" xml:space="preserve">
<path d="M488.909,418.392c-34.84-27.219-3.266-93.632-3.266-93.632c63.147-161.134-46.108-242.307-64.788-252.887
	c-38.033-21.541-128.497-42.648-174.166,15.319c-12.916,16.394-8.599,36.754-2.654,50.984
	c15.302,36.618,56.436,69.544,91.693,73.388c10.054,1.123,17.377-1.182,22.336-6.958c15.761-18.347,7.451-66.618,2.909-83.672
	c-1.233-4.644,1.531-9.416,6.184-10.658c1.341-0.356,2.664-0.3,3.938-0.041c3.142,0.637,5.842,2.909,6.72,6.225
	c1.905,7.179,17.956,70.998-6.532,99.501c-5.401,6.286-15.004,13.286-30.97,13.286c-2.05,0-4.21-0.119-6.473-0.366
	c-41.593-4.542-88.095-41.432-105.88-83.995c-4.475-10.708-6.707-21.065-6.948-30.835c-99.728,0-213.575,55.596-220.991,155.597
	c-0.238,3.208,1.735,6.167,4.789,7.179c3.054,1.021,6.413-0.169,8.14-2.882c6.124-9.616,13.75-20.027,21.325-26.585
	c1.087,15.749,5.871,30.796,14.136,44.532c16.552,27.508,25.39,59.098,25.39,91.198l0.158,59.253
	c0.843,7.261,17.995,13.065,39.181,13.065c21.194,0,38.346-5.804,39.19-13.065l0.158-38.455c0-10.096,4.21-19.742,11.61-26.616
	c7.4-6.873,17.316-9.628,27.413-9.628c6.263,0,19.079,0.009,19.828,0c9.688-0.101,19.019,4.337,25.899,11.159
	c6.89,6.822,10.761,16.11,10.761,25.799l0.158,37.74c0.843,7.261,17.994,13.065,39.181,13.065c21.194,0,38.346-5.804,39.19-13.065
	l0.158-33.215c0-98.599,72.254-142.598,80.839-147.814c42.606-25.886,23.68,52.557,23.68,52.557
	c-28.307,88.188,37.017,128.472,37.017,128.472l0.293-0.339c0.204,0.208,0.262,0.544,0.498,0.722
	c4.184,3.155,11.799,0.128,16.995-6.779c4.792-6.34,5.668-13.564,2.569-17.171L488.909,418.392z"/>
<g>
</g>
<g>
</g>
<g>
</g>
<g>
</g>
<g>
</g>
<g>
</g>
<g>
</g>
<g>
</g>
<g>
</g>
<g>
</g>
<g>
</g>
<g>
</g>
<g>
</g>
<g>
</g>
<g>
</g>
</svg>
