<?xml version="1.0" encoding="iso-8859-1"?>
<!-- Generator: Adobe Illustrator 16.0.0, SVG Export Plug-In . SVG Version: 6.00 Build 0)  -->
<!DOCTYPE svg PUBLIC "-//W3C//DTD SVG 1.1//EN" "http://www.w3.org/Graphics/SVG/1.1/DTD/svg11.dtd">
<svg version="1.1" id="Capa_1" xmlns="http://www.w3.org/2000/svg" xmlns:xlink="http://www.w3.org/1999/xlink" x="0px" y="0px"
	 width="937.816px" height="937.815px" viewBox="0 0 937.816 937.815" style="enable-background:new 0 0 937.816 937.815;"
	 xml:space="preserve">
<g>
	<g>
		<path d="M518.516,422.608h99c83-45.601,114.101-127.9,125-170.2c3.7-14.5-5.899-28.9-20.7-31c-128.699-18.5-193.5,17.4-239,89.6
			c3.2,7.601,6.301,15.3,9.301,23.101c6.899,18.3,11.399,40,13.6,60.6c62.3-35.4,116.1-80.1,135.4-92.9
			C627.016,317.208,588.117,364.808,518.516,422.608z"/>
		<path d="M0.417,135.908c11.1,59.7,55.3,219.2,217.5,286.7h194.3c-61.4-111.9-172.4-166.9-222-197.3c37.8,6.9,154.7,47,261.3,158.1
			c8.2,8.6,24.9,26.7,25.4,26.5c-12.101-175-174.3-316.9-345.801-316.9c-34.899,0-72.199,4.5-112,14.1
			C6.216,110.208-1.984,122.908,0.417,135.908z"/>
		<path d="M937.816,477.608c0-13.801-11.199-25-25-25h-770.7c-13.8,0-25,11.199-25,25v3c0,201.199,163.101,364.199,364.2,364.199
			h92.2c201.2,0,364.2-163.1,364.2-364.199v-3H937.816z"/>
	</g>
</g>
<g>
</g>
<g>
</g>
<g>
</g>
<g>
</g>
<g>
</g>
<g>
</g>
<g>
</g>
<g>
</g>
<g>
</g>
<g>
</g>
<g>
</g>
<g>
</g>
<g>
</g>
<g>
</g>
<g>
</g>
</svg>
