<?xml version="1.0" encoding="iso-8859-1"?>
<!-- Generator: Adobe Illustrator 18.0.0, SVG Export Plug-In . SVG Version: 6.00 Build 0)  -->
<!DOCTYPE svg PUBLIC "-//W3C//DTD SVG 1.1//EN" "http://www.w3.org/Graphics/SVG/1.1/DTD/svg11.dtd">
<svg version="1.1" id="Capa_1" xmlns="http://www.w3.org/2000/svg" xmlns:xlink="http://www.w3.org/1999/xlink" x="0px" y="0px"
	 viewBox="0 0 460 460" style="enable-background:new 0 0 460 460;" xml:space="preserve">
<g>
	<path d="M230,79.801c-82.821,0-150.201,67.38-150.201,150.2c0,82.821,67.38,150.201,150.201,150.201s150.2-67.38,150.2-150.201
		C380.2,147.181,312.821,79.801,230,79.801z M230,279.635c-27.368,0-49.634-22.266-49.634-49.634
		c0-27.367,22.266-49.633,49.634-49.633c27.368,0,49.633,22.266,49.633,49.633C279.633,257.369,257.368,279.635,230,279.635z
		 M271.637,174.221c-9.091-6.803-19.897-11.428-31.637-13.124v-60.916c28.394,2.167,54.267,13.486,74.677,31L271.637,174.221z
		 M220,161.097c-11.74,1.696-22.546,6.32-31.637,13.124l-43.04-43.04c20.41-17.514,46.283-28.833,74.678-31V161.097z
		 M174.22,188.362c-6.804,9.091-11.429,19.898-13.125,31.639H100.18c2.167-28.395,13.486-54.268,31.001-74.678L174.22,188.362z
		 M161.095,240.001c1.696,11.74,6.321,22.546,13.124,31.638l-43.039,43.04c-17.514-20.41-28.833-46.283-31-74.678H161.095z
		 M188.361,285.781c9.091,6.804,19.898,11.429,31.639,13.125v60.916c-28.395-2.167-54.268-13.486-74.678-31L188.361,285.781z
		 M240,298.906c11.741-1.696,22.547-6.321,31.638-13.125l43.039,43.04c-20.41,17.514-46.283,28.834-74.678,31V298.906z
		 M285.781,271.638c6.803-9.091,11.427-19.897,13.124-31.637h60.916c-2.167,28.395-13.486,54.268-31,74.677L285.781,271.638z
		 M298.904,220.001c-1.696-11.741-6.321-22.547-13.125-31.638l43.04-43.04c17.514,20.41,28.834,46.283,31.001,74.678H298.904z"/>
	<path d="M230,212.465c-9.67,0-17.537,7.867-17.537,17.537s7.867,17.536,17.537,17.536s17.537-7.866,17.537-17.536
		S239.67,212.465,230,212.465z"/>
	<path d="M460,240.001v-20h-41.352c-2.336-44.568-20.193-85.088-48.251-116.257l29.306-29.306l-14.142-14.143l-29.307,29.306
		C325.087,61.546,284.567,43.689,240,41.354V0.001h-20v41.353c-44.567,2.336-85.087,20.193-116.256,48.249L74.437,60.295
		L60.295,74.438l29.307,29.308c-28.057,31.168-45.914,71.688-48.25,116.256H0v20h41.352c2.336,44.567,20.193,85.088,48.25,116.256
		l-29.306,29.305l14.142,14.143l29.307-29.306c31.169,28.057,71.689,45.914,116.257,48.25L220,459.999h20l0.001-41.35
		c44.567-2.336,85.088-20.193,116.256-48.25l29.306,29.307l14.143-14.143l-29.306-29.307
		c28.056-31.168,45.913-71.688,48.248-116.255H460z M230,398.914c-93.139,0-168.913-75.774-168.913-168.913
		S136.861,61.089,230,61.089c93.139,0,168.913,75.773,168.913,168.912S323.139,398.914,230,398.914z"/>
</g>
<g>
</g>
<g>
</g>
<g>
</g>
<g>
</g>
<g>
</g>
<g>
</g>
<g>
</g>
<g>
</g>
<g>
</g>
<g>
</g>
<g>
</g>
<g>
</g>
<g>
</g>
<g>
</g>
<g>
</g>
</svg>
