<?xml version="1.0" encoding="iso-8859-1"?>
<!-- Generator: Adobe Illustrator 19.0.0, SVG Export Plug-In . SVG Version: 6.00 Build 0)  -->
<svg version="1.1" id="Capa_1" xmlns="http://www.w3.org/2000/svg" xmlns:xlink="http://www.w3.org/1999/xlink" x="0px" y="0px"
	 viewBox="0 0 463 463" style="enable-background:new 0 0 463 463;" xml:space="preserve">
<g>
	<path d="M398.901,317.619c-0.115-0.028-0.232-0.055-0.349-0.078l-29.584-5.914c-0.058-0.012-0.116-0.016-0.175-0.026L319,283.147
		v-19.171c15.016-11.921,24-30.15,24-49.72v-16.491c9.29-3.138,16-11.93,16-22.266c0-10.061-6.357-18.663-15.265-22.007
		c7.583-3.604,14.391-7.606,20.252-11.983c2.589-1.934,3.649-5.308,2.63-8.374S362.731,128,359.5,128h-0.728
		C356.819,94.941,342.054,64.709,319,42.857V39.5c0-4.143-3.358-7.5-7.5-7.5c-1.476,0-2.849,0.433-4.009,1.169
		c-13.18-9.836-28.37-17.214-44.954-21.362C260.873,5.04,254.772,0,247.5,0h-32c-7.272,0-13.373,5.041-15.037,11.807
		c-16.584,4.149-31.774,11.526-44.954,21.362C154.349,32.433,152.976,32,151.5,32c-4.142,0-7.5,3.357-7.5,7.5v3.357
		C120.946,64.709,106.181,94.941,104.228,128H103.5c-3.231,0-6.099,2.069-7.118,5.136s0.042,6.44,2.63,8.374
		c5.861,4.377,12.669,8.38,20.252,11.983C110.357,156.837,104,165.439,104,175.5c0,10.336,6.71,19.128,16,22.266v16.491
		c0,19.57,8.984,37.799,24,49.72v19.171l-49.793,28.453c-0.058,0.01-0.117,0.014-0.175,0.026l-29.584,5.914
		c-0.117,0.023-0.233,0.05-0.349,0.078C35.779,324.699,16,350.032,16,379.224V439.5c0,12.958,10.542,23.5,23.5,23.5h384
		c12.958,0,23.5-10.542,23.5-23.5v-60.276C447,350.032,427.221,324.699,398.901,317.619z M265.906,448l49.816-149.449L360,323.853
		v15.433c0,7.011-5.704,12.715-12.715,12.715H335.5c-2.411,0-4.675,1.159-6.084,3.114c-1.41,1.956-1.793,4.471-1.031,6.758
		l12.874,38.62c1.25,3.749,0.709,7.785-1.483,11.074L315.486,448H265.906z M212.906,448l-20.6-61.8
		c11.676,3.153,24.995,4.8,39.194,4.8c14.198,0,27.517-1.646,39.194-4.799L250.094,448H212.906z M147.514,448l-24.289-36.434
		c-2.192-3.289-2.733-7.325-1.483-11.074l12.874-38.62c0.762-2.287,0.379-4.802-1.031-6.758c-1.41-1.955-3.674-3.114-6.084-3.114
		h-11.785c-7.011,0-12.715-5.704-12.715-12.715v-15.433l44.278-25.302L197.094,448H147.514z M31,399h75.643
		c-1.182,5.761-0.5,11.677,1.94,17H31V399z M197.868,294.426c10.283,5.609,21.91,8.574,33.632,8.574c0.001,0,0.002,0,0.003,0
		s0.002,0,0.003,0c11.715,0,23.342-2.965,33.625-8.574L304,273.225v13.057l-14.4,43.2C276.716,338.717,255.693,344,231.5,344
		c-24.196,0-45.216-5.282-58.1-14.518L159,286.282v-13.057L197.868,294.426z M276.603,368.474
		C264.304,373.397,248.712,376,231.5,376c-17.214,0-32.805-2.604-45.103-7.527l-6.1-18.3C194.406,355.925,211.942,359,231.5,359
		c19.556,0,37.093-3.074,51.203-8.826L276.603,368.474z M356.357,399H432v17h-77.582C356.858,410.677,357.54,404.761,356.357,399z
		 M432,379.224V384h-80.427l-5.667-17h1.379C362.567,367,375,354.567,375,339.285V328.13l20.431,4.084
		C416.972,337.679,432,356.985,432,379.224z M335.5,184h-9.277c0.501-2.76,0.777-5.598,0.777-8.5c0-2.879-0.268-5.715-0.772-8.5
		h9.272c4.687,0,8.5,3.813,8.5,8.5S340.187,184,335.5,184z M159,49.56c11.773-9.977,25.654-17.613,41-22.081V128h-41V49.56z
		 M330.331,143c-26.157,10.737-61.515,17-98.831,17s-72.674-6.263-98.831-17H330.331z M263,27.479
		c15.346,4.468,29.227,12.104,41,22.081V128h-41V27.479z M152.591,165.432c19.076,5.05,40.609,8.233,63.388,9.229
		c0.007,0.28,0.021,0.559,0.021,0.839c0,17.921-14.58,32.5-32.5,32.5S151,193.421,151,175.5
		C151,172.038,151.537,168.664,152.591,165.432z M230.987,174.996c0.171,0,0.341,0.004,0.513,0.004s0.341-0.003,0.513-0.004
		c-0.002,0.168-0.013,0.336-0.013,0.504c0,5.8,1.049,11.358,2.96,16.5h-6.92c1.911-5.142,2.96-10.7,2.96-16.5
		C231,175.332,230.989,175.164,230.987,174.996z M247,175.5c0-0.28,0.014-0.559,0.021-0.839c22.779-0.996,44.312-4.179,63.388-9.229
		c1.054,3.232,1.591,6.605,1.591,10.068c0,17.921-14.58,32.5-32.5,32.5S247,193.421,247,175.5z M343.722,128H319V64.922
		C333.208,82.554,342.143,104.444,343.722,128z M215.5,15h32c0.276,0,0.5,0.225,0.5,0.5V128h-33V15.5
		C215,15.225,215.224,15,215.5,15z M144,64.922V128h-24.722C120.857,104.444,129.792,82.554,144,64.922z M127.5,167h9.272
		c-0.503,2.785-0.772,5.621-0.772,8.5c0,2.902,0.276,5.74,0.777,8.5H127.5c-4.687,0-8.5-3.813-8.5-8.5S122.813,167,127.5,167z
		 M135,214.257V199h7.247c8.19,14.321,23.608,24,41.253,24c14.114,0,26.803-6.195,35.511-16h24.979c8.708,9.805,21.396,16,35.511,16
		c17.646,0,33.063-9.679,41.253-24H328v15.257c0,17.759-9.685,34.073-25.275,42.578l-44.775,24.423
		c-8.086,4.411-17.23,6.742-26.449,6.742c-0.001,0-0.002,0-0.003,0s-0.002,0-0.003,0c-9.212,0-18.356-2.331-26.442-6.742
		l-44.775-24.423C144.685,248.33,135,232.016,135,214.257z M67.569,332.214L88,328.13v11.156C88,354.567,100.433,367,115.715,367
		h1.379l-5.667,17H31v-4.776C31,356.985,46.028,337.679,67.569,332.214z M31,439.5V431h87.153l11.333,17H39.5
		C34.813,448,31,444.187,31,439.5z M423.5,448h-89.986l11.333-17H432v8.5C432,444.187,428.187,448,423.5,448z"/>
	<path d="M195.281,245.48c8.89,6.05,22.091,9.52,36.219,9.52s27.33-3.47,36.219-9.52c3.425-2.33,4.312-6.995,1.981-10.42
		c-2.33-3.424-6.996-4.311-10.42-1.98c-6.368,4.333-16.753,6.92-27.781,6.92s-21.413-2.587-27.781-6.92
		c-3.424-2.33-8.089-1.444-10.42,1.98C190.969,238.485,191.856,243.15,195.281,245.48z"/>
</g>
<g>
</g>
<g>
</g>
<g>
</g>
<g>
</g>
<g>
</g>
<g>
</g>
<g>
</g>
<g>
</g>
<g>
</g>
<g>
</g>
<g>
</g>
<g>
</g>
<g>
</g>
<g>
</g>
<g>
</g>
</svg>
