<?xml version="1.0" encoding="iso-8859-1"?>
<!-- Generator: Adobe Illustrator 18.1.1, SVG Export Plug-In . SVG Version: 6.00 Build 0)  -->
<svg version="1.1" id="Capa_1" xmlns="http://www.w3.org/2000/svg" xmlns:xlink="http://www.w3.org/1999/xlink" x="0px" y="0px"
	 viewBox="0 0 492 492" style="enable-background:new 0 0 492 492;" xml:space="preserve">
<g>
	<g>
		<path style="fill:#010002;" d="M191,125h-75V51h21V10H0v41h21v114c0,15.333,5.333,28.167,16,38.5S60.333,219,75,219h116v20h41V105
			h-41V125z"/>
		<path style="fill:#010002;" d="M471,293V179c0-15.334-5.333-28.167-16-38.5S431.667,125,417,125H301v-20h-41v134h41v-20h75v74h-21
			v40h137v-40H471z"/>
		<path style="fill:#010002;" d="M461,445c0-6-3.167-15.5-9.5-28.5s-12.667-24.5-19-34.5l-9.5-15c-24.667,38-37,64-37,78
			c0,10,3.667,18.667,11,26c7.335,7.333,16.168,11,26.5,11c10.333,0,19.167-3.667,26.5-11S461,455,461,445z"/>
	</g>
</g>
<g>
</g>
<g>
</g>
<g>
</g>
<g>
</g>
<g>
</g>
<g>
</g>
<g>
</g>
<g>
</g>
<g>
</g>
<g>
</g>
<g>
</g>
<g>
</g>
<g>
</g>
<g>
</g>
<g>
</g>
</svg>
