<?xml version="1.0" encoding="iso-8859-1"?>
<!-- Generator: Adobe Illustrator 19.0.0, SVG Export Plug-In . SVG Version: 6.00 Build 0)  -->
<svg version="1.1" id="Capa_1" xmlns="http://www.w3.org/2000/svg" xmlns:xlink="http://www.w3.org/1999/xlink" x="0px" y="0px"
	 viewBox="0 0 45.29 45.29" style="enable-background:new 0 0 45.29 45.29;" xml:space="preserve">
<g>
	<g>
		<path d="M32.834,9.639c0.778,0.341,1.641,0.514,2.527,0.514c0.612,0,1.235-0.082,1.85-0.247c1.509-0.403,2.808-1.263,3.659-2.419
			c0.9-1.225,1.2-2.632,0.843-3.963c-0.356-1.331-1.319-2.4-2.711-3.01c-1.315-0.578-2.87-0.671-4.377-0.267
			c-1.509,0.403-2.808,1.263-3.659,2.419c-0.9,1.225-1.2,2.632-0.843,3.963C30.479,7.96,31.442,9.03,32.834,9.639z M32.576,3.852
			c0.583-0.792,1.494-1.386,2.565-1.673c0.447-0.12,0.897-0.18,1.334-0.18c0.611,0,1.199,0.116,1.724,0.347
			c0.824,0.36,1.386,0.963,1.582,1.695s0.011,1.535-0.522,2.26c-0.583,0.792-1.494,1.386-2.565,1.673c0,0,0,0,0,0
			c-1.072,0.287-2.157,0.227-3.058-0.167c-0.824-0.36-1.386-0.963-1.582-1.695S32.043,4.577,32.576,3.852z"/>
		<path d="M9.834,9.639c0.778,0.341,1.641,0.514,2.527,0.514c0.612,0,1.235-0.082,1.85-0.247c1.509-0.403,2.808-1.263,3.659-2.419
			c0.9-1.225,1.2-2.632,0.843-3.963c-0.356-1.331-1.319-2.4-2.711-3.01c-1.315-0.578-2.87-0.671-4.377-0.267
			C10.115,0.651,8.816,1.51,7.965,2.666c-0.9,1.225-1.2,2.632-0.843,3.963C7.479,7.96,8.442,9.03,9.834,9.639z M9.576,3.852
			c0.583-0.792,1.494-1.386,2.565-1.673c0.447-0.12,0.897-0.18,1.335-0.18c0.611,0,1.199,0.116,1.724,0.347
			c0.824,0.36,1.386,0.963,1.582,1.695c0.196,0.732,0.011,1.535-0.522,2.26c-0.583,0.792-1.494,1.386-2.565,1.673c0,0,0,0,0,0
			c-1.073,0.287-2.158,0.227-3.058-0.167C9.812,7.447,9.25,6.844,9.054,6.112S9.043,4.577,9.576,3.852z"/>
		<path d="M42.196,20.45c-0.189-0.236-0.476-0.373-0.779-0.373c-33.651,0-36.525,0.476-36.743,0.53
			c-0.341,0.085-0.612,0.343-0.714,0.68C3.908,21.46-1.157,38.7,11.019,43.994c1.992,0.866,4.129,1.296,6.336,1.296
			c2.972,0,6.07-0.781,9.1-2.33c7.778-3.977,13.886-12.28,15.94-21.669C42.459,20.995,42.386,20.685,42.196,20.45z M25.544,41.179
			c-4.736,2.421-9.612,2.771-13.727,0.98C7.442,40.257,5.1,36.322,4.856,30.46c-0.144-3.472,0.523-6.643,0.849-7.956
			c1.82-0.124,8.83-0.418,34.445-0.428C37.982,30.392,32.468,37.638,25.544,41.179z"/>
	</g>
</g>
<g>
</g>
<g>
</g>
<g>
</g>
<g>
</g>
<g>
</g>
<g>
</g>
<g>
</g>
<g>
</g>
<g>
</g>
<g>
</g>
<g>
</g>
<g>
</g>
<g>
</g>
<g>
</g>
<g>
</g>
</svg>
