<?xml version="1.0" encoding="iso-8859-1"?>
<!-- Generator: Adobe Illustrator 16.0.0, SVG Export Plug-In . SVG Version: 6.00 Build 0)  -->
<!DOCTYPE svg PUBLIC "-//W3C//DTD SVG 1.1//EN" "http://www.w3.org/Graphics/SVG/1.1/DTD/svg11.dtd">
<svg version="1.1" id="Capa_1" xmlns="http://www.w3.org/2000/svg" xmlns:xlink="http://www.w3.org/1999/xlink" x="0px" y="0px"
	 width="29.904px" height="29.904px" viewBox="0 0 29.904 29.904" style="enable-background:new 0 0 29.904 29.904;"
	 xml:space="preserve">
<g>
	<g>
		<path d="M28.405,14.7c-0.479,0-0.897,0.228-1.172,0.576c-1.56-1.127-4.992-2.994-7.975-0.271c0,0-3.021-4.168-0.982-7.569
			c0.246,0.178,0.547,0.286,0.875,0.286c0.827,0,1.5-0.671,1.5-1.5s-0.673-1.5-1.5-1.5c-0.828,0-1.502,0.671-1.502,1.5
			c0,0.168,0.032,0.327,0.084,0.478c-2.141,0.819-5.836,2.858-6.39,7.307c0,0-3.429-4.541-8.573-1.594
			c-0.265-0.425-0.732-0.711-1.27-0.711c-0.829,0-1.501,0.672-1.501,1.5s0.672,1.5,1.501,1.5c0.828,0,1.499-0.672,1.499-1.5
			c0-0.047-0.01-0.091-0.014-0.137c1.794,0.14,4.67,1.726,5.461,10.151l0.09,0.688c0,0.707,2.858,1.279,6.382,1.279
			c3.526,0,6.383-0.574,6.383-1.279c0,0,0.229-5.78,5.611-7.623c0.041,0.791,0.688,1.423,1.491,1.423c0.83,0,1.5-0.673,1.5-1.5
			C29.907,15.371,29.235,14.7,28.405,14.7z"/>
	</g>
</g>
<g>
</g>
<g>
</g>
<g>
</g>
<g>
</g>
<g>
</g>
<g>
</g>
<g>
</g>
<g>
</g>
<g>
</g>
<g>
</g>
<g>
</g>
<g>
</g>
<g>
</g>
<g>
</g>
<g>
</g>
</svg>
