<?xml version="1.0" encoding="iso-8859-1"?>
<!-- Generator: Adobe Illustrator 18.0.0, SVG Export Plug-In . SVG Version: 6.00 Build 0)  -->
<!DOCTYPE svg PUBLIC "-//W3C//DTD SVG 1.1//EN" "http://www.w3.org/Graphics/SVG/1.1/DTD/svg11.dtd">
<svg version="1.1" id="Capa_1" xmlns="http://www.w3.org/2000/svg" xmlns:xlink="http://www.w3.org/1999/xlink" x="0px" y="0px"
	 viewBox="0 0 49.336 49.336" style="enable-background:new 0 0 49.336 49.336;" xml:space="preserve">
<g>
	<path d="M35.333,29.668h-22c-0.553,0-1,0.447-1,1c0,6.617,5.383,12,12,12s12-5.383,12-12
		C36.333,30.115,35.886,29.668,35.333,29.668z M14.719,31.668h5.615v2.636C17.572,33.779,15.527,32.754,14.719,31.668z
		 M22.333,31.668h4v2.911c-0.643,0.057-1.31,0.089-2,0.089s-1.357-0.032-2-0.089V31.668z M28.333,31.668h5.615
		c-0.809,1.086-2.854,2.111-5.615,2.636V31.668z M24.333,40.668c-4.116,0-7.657-2.501-9.189-6.062
		c2.166,1.276,5.419,2.062,9.189,2.062c3.77,0,7.022-0.786,9.189-2.062C31.99,38.167,28.449,40.668,24.333,40.668z"/>
	<path d="M48.454,25.317c-0.402-0.657-1.22-1.628-2.248-2.625C45.197,11.434,35.674,2.668,24.333,2.668
		c-11.717,0-21.261,9.079-21.923,20.738c-0.641,0.679-1.181,1.342-1.529,1.911C0.046,26.68-0.206,28.29,0.17,29.852
		c0.375,1.562,1.332,2.882,2.694,3.715c0.543,0.333,1.119,0.558,1.706,0.702c3.673,7.545,11.367,12.399,19.763,12.399
		c8.342,0,15.997-4.798,19.695-12.266c0.856-0.097,1.688-0.373,2.443-0.835C49.291,31.841,50.182,28.139,48.454,25.317z
		 M2.114,29.385c-0.251-1.043-0.083-2.116,0.472-3.022c0.286-0.468,0.824-1.123,1.513-1.827c0.294-0.3,0.596-0.586,0.901-0.862
		c0.042-0.038,0.085-0.077,0.128-0.115c0.969-0.862,1.962-1.586,2.85-2.093c0.005-0.003,0.01-0.006,0.015-0.008
		c0.281-0.16,0.549-0.294,0.804-0.409c0.065-0.029,0.124-0.05,0.187-0.075c0.149-0.062,0.289-0.109,0.426-0.153
		c0.133-0.041,0.257-0.073,0.373-0.096c0.111-0.022,0.218-0.039,0.316-0.044c0.043-0.003,0.09-0.01,0.13-0.01
		c0.029,0,0.05,0.006,0.077,0.008c0.148,0.012,0.286,0.035,0.389,0.098c0.183,0.112,0.323,0.311,0.426,0.578
		c0.716,1.87-0.423,7.078-1.713,9.186c-0.129,0.211-0.279,0.399-0.438,0.576c-0.048,0.054-0.1,0.104-0.15,0.154
		c-0.125,0.125-0.257,0.24-0.395,0.346c-0.052,0.04-0.102,0.082-0.156,0.119c-0.193,0.133-0.394,0.253-0.605,0.349
		c-0.013,0.006-0.028,0.01-0.041,0.016c-0.2,0.089-0.408,0.158-0.619,0.213c-0.06,0.016-0.121,0.028-0.182,0.04
		c-0.173,0.036-0.348,0.06-0.524,0.074c-0.066,0.005-0.132,0.012-0.198,0.014c-0.212,0.006-0.426-0.005-0.638-0.033
		c-0.022-0.003-0.044-0.002-0.067-0.005c-0.001,0-0.002,0-0.003,0c-0.511-0.078-1.015-0.255-1.482-0.541
		C3.002,31.306,2.364,30.428,2.114,29.385z M24.333,44.668c-7.26,0-13.953-3.989-17.462-10.284c0.177-0.026,0.351-0.065,0.523-0.106
		c0.032-0.008,0.065-0.011,0.097-0.02c0.232-0.06,0.46-0.134,0.682-0.22c0.052-0.02,0.101-0.046,0.152-0.067
		c0.166-0.07,0.33-0.144,0.489-0.229c0.075-0.04,0.146-0.084,0.219-0.127c0.131-0.077,0.26-0.157,0.385-0.244
		c0.078-0.054,0.154-0.111,0.229-0.169c0.116-0.089,0.228-0.182,0.337-0.28c0.072-0.064,0.143-0.128,0.212-0.195
		c0.113-0.11,0.219-0.228,0.323-0.348c0.055-0.064,0.113-0.124,0.166-0.191c0.153-0.192,0.297-0.392,0.427-0.604
		c1.072-1.751,2.794-7.093,2.015-10.341c0.119-0.165,0.203-0.356,0.203-0.575c0-1.654,1.346-3,3-3s3,1.346,3,3c0,0.553,0.447,1,1,1
		s1-0.447,1-1c0-2.757-2.243-5-5-5c-2.175,0-4.011,1.404-4.697,3.347c-0.087-0.048-0.174-0.094-0.264-0.131
		c-0.053-0.022-0.107-0.037-0.161-0.055c-0.072-0.024-0.145-0.05-0.219-0.068c-0.073-0.018-0.146-0.031-0.22-0.043
		c-0.055-0.009-0.11-0.019-0.165-0.025c-0.089-0.01-0.179-0.016-0.27-0.019c-0.038-0.001-0.075-0.002-0.113-0.001
		c-0.107,0-0.214,0.004-0.323,0.013c-0.013,0.001-0.027,0.003-0.041,0.004c-0.644,0.062-1.317,0.274-1.984,0.579
		c-0.014,0.006-0.029,0.013-0.043,0.019c-0.106,0.049-0.212,0.1-0.317,0.154C7.461,19.471,7.405,19.5,7.35,19.529
		c-0.071,0.038-0.143,0.075-0.214,0.114c-0.129,0.071-0.257,0.144-0.384,0.219l0,0c-0.422,0.25-0.827,0.519-1.201,0.789
		c-0.309,0.222-0.617,0.462-0.922,0.709c1.571-9.541,9.787-16.692,19.704-16.692c9.588,0,17.757,6.888,19.592,16.084
		c-0.725-0.533-1.477-1.003-2.225-1.365c-0.063-0.031-0.126-0.062-0.189-0.091c-0.12-0.055-0.239-0.11-0.358-0.158
		c-0.186-0.077-0.372-0.143-0.558-0.203c-0.069-0.022-0.139-0.045-0.208-0.064c-0.214-0.062-0.426-0.108-0.636-0.142
		c-0.041-0.007-0.082-0.013-0.123-0.018c-0.221-0.03-0.439-0.042-0.653-0.035c-0.029,0.001-0.057,0.004-0.086,0.005
		c-0.216,0.013-0.428,0.044-0.632,0.102c-0.021,0.006-0.04,0.014-0.061,0.021c-0.07,0.022-0.141,0.043-0.21,0.071
		c-0.724-1.871-2.53-3.207-4.654-3.207c-2.757,0-5,2.243-5,5c0,0.553,0.447,1,1,1s1-0.447,1-1c0-1.654,1.346-3,3-3s3,1.346,3,3
		c0,0.021,0.011,0.039,0.012,0.059c-1.119,3.168,0.745,9.011,1.876,10.857c0.82,1.341,2.115,2.283,3.645,2.67
		C38.376,40.623,31.64,44.668,24.333,44.668z M45.426,31.862c-0.608,0.373-1.295,0.555-1.995,0.568
		c-0.013,0-0.026-0.005-0.039-0.004c-0.165,0.003-0.33-0.006-0.492-0.023c-0.032-0.004-0.064-0.009-0.096-0.013
		c-0.254-0.033-0.502-0.094-0.743-0.175c-0.078-0.026-0.158-0.05-0.234-0.081c-0.116-0.047-0.229-0.1-0.34-0.157
		c-0.098-0.051-0.192-0.108-0.285-0.166c-0.125-0.078-0.245-0.161-0.36-0.253c-0.122-0.097-0.24-0.199-0.35-0.31
		c-0.055-0.055-0.108-0.113-0.159-0.171c-0.147-0.168-0.288-0.344-0.407-0.538c-1.382-2.258-2.592-8.075-1.531-9.533
		c0.071-0.097,0.151-0.174,0.242-0.23c0.474-0.294,1.586-0.006,3.01,0.856c0.049,0.03,0.099,0.062,0.148,0.093
		c0.197,0.122,0.401,0.261,0.608,0.405c0.13,0.091,0.261,0.184,0.391,0.281c0.214,0.158,0.43,0.322,0.651,0.502
		c0.057,0.046,0.114,0.09,0.17,0.137c0.314,0.26,0.634,0.538,0.959,0.841c0.007,0.007,0.016,0.01,0.023,0.016
		c0.917,0.849,1.704,1.729,2.15,2.458C47.901,28.243,47.307,30.711,45.426,31.862z"/>
</g>
<g>
</g>
<g>
</g>
<g>
</g>
<g>
</g>
<g>
</g>
<g>
</g>
<g>
</g>
<g>
</g>
<g>
</g>
<g>
</g>
<g>
</g>
<g>
</g>
<g>
</g>
<g>
</g>
<g>
</g>
</svg>
