<?xml version="1.0" encoding="iso-8859-1"?>
<!-- Generator: Adobe Illustrator 19.0.0, SVG Export Plug-In . SVG Version: 6.00 Build 0)  -->
<svg version="1.1" id="Capa_1" xmlns="http://www.w3.org/2000/svg" xmlns:xlink="http://www.w3.org/1999/xlink" x="0px" y="0px"
	 viewBox="0 0 53 53" style="enable-background:new 0 0 53 53;" xml:space="preserve">
<g>
	<g>
		<path d="M43,0H10C4.486,0,0,4.486,0,10v33c0,5.514,4.486,10,10,10h33c5.514,0,10-4.486,10-10V10C53,4.486,48.514,0,43,0z M51,43
			c0,4.411-3.589,8-8,8H10c-4.411,0-8-3.589-8-8V10c0-4.412,3.589-8,8-8h33c4.411,0,8,3.589,8,8V43z"/>
		<path d="M41.993,5H40H13h-1.993C7.694,5,5,7.695,5,11.007v30.986C5,45.306,7.694,48,11.007,48h30.986
			C45.306,48,48,45.306,48,41.993V11.007C48,7.695,45.306,5,41.993,5z M39,7v38.461l-12.094-5.375C26.776,40.028,26.639,40,26.5,40
			s-0.276,0.028-0.406,0.086L14,45.461V7H39z M35.287,46H17.713l8.787-3.905L35.287,46z M7,41.993V11.007C7,8.797,8.798,7,11.007,7
			H12v39h-0.993C8.798,46,7,44.202,7,41.993z M46,41.993C46,44.202,44.202,46,41.993,46H41V7h0.993C44.202,7,46,8.797,46,11.007
			V41.993z"/>
		<path d="M21.859,22.008l-0.753,4.391c-0.065,0.375,0.09,0.754,0.397,0.978c0.31,0.225,0.719,0.255,1.053,0.076L26.5,25.38
			l3.943,2.072c0.146,0.077,0.306,0.115,0.465,0.115c0.207,0,0.414-0.065,0.588-0.191c0.308-0.224,0.462-0.603,0.397-0.978
			l-0.753-4.391l3.19-3.109c0.272-0.266,0.37-0.663,0.253-1.025c-0.118-0.362-0.431-0.626-0.808-0.681l-4.408-0.641l-1.972-3.995
			c-0.336-0.683-1.457-0.683-1.793,0l-1.972,3.995l-4.408,0.641c-0.377,0.055-0.69,0.319-0.808,0.681
			c-0.117,0.362-0.02,0.759,0.253,1.025L21.859,22.008z M24.44,18.456c0.326-0.047,0.607-0.252,0.753-0.547L26.5,15.26l1.308,2.649
			c0.146,0.295,0.427,0.5,0.753,0.547l2.923,0.425l-2.115,2.062c-0.235,0.23-0.343,0.561-0.287,0.885l0.499,2.912l-2.615-1.375
			c-0.146-0.077-0.305-0.115-0.465-0.115s-0.319,0.038-0.465,0.115l-2.615,1.375l0.499-2.912c0.056-0.324-0.052-0.655-0.287-0.885
			l-2.115-2.062L24.44,18.456z"/>
	</g>
</g>
<g>
</g>
<g>
</g>
<g>
</g>
<g>
</g>
<g>
</g>
<g>
</g>
<g>
</g>
<g>
</g>
<g>
</g>
<g>
</g>
<g>
</g>
<g>
</g>
<g>
</g>
<g>
</g>
<g>
</g>
</svg>
