<?xml version="1.0" encoding="iso-8859-1"?>
<!-- Generator: Adobe Illustrator 18.1.1, SVG Export Plug-In . SVG Version: 6.00 Build 0)  -->
<svg version="1.1" id="Capa_1" xmlns="http://www.w3.org/2000/svg" xmlns:xlink="http://www.w3.org/1999/xlink" x="0px" y="0px"
	 viewBox="0 0 35.761 35.761" style="enable-background:new 0 0 35.761 35.761;" xml:space="preserve">
<g>
	<g>
		<g>
			<path style="fill:#010002;" d="M35.666,5.539c-0.211-0.544-0.736-0.903-1.318-0.903H17.882c-0.416,0-0.812,0.183-1.081,0.501
				l-2.672,3.162l-5.7-6.722C8.398,1.54,8.356,1.518,8.322,1.484C8.267,1.433,8.214,1.381,8.15,1.338
				C8.09,1.295,8.025,1.264,7.96,1.232C7.914,1.21,7.878,1.179,7.83,1.161C7.81,1.154,7.789,1.155,7.769,1.149
				C7.697,1.127,7.625,1.117,7.551,1.106c-0.07-0.011-0.138-0.023-0.208-0.023c-0.068,0-0.132,0.013-0.2,0.023
				C7.067,1.118,6.994,1.127,6.92,1.151C6.901,1.157,6.88,1.155,6.861,1.163C6.816,1.18,6.779,1.212,6.735,1.233
				C6.667,1.266,6.601,1.298,6.54,1.342C6.477,1.386,6.425,1.438,6.371,1.49C6.336,1.524,6.293,1.548,6.262,1.586l-5.934,7.12
				c-0.351,0.422-0.427,1.009-0.194,1.505c0.233,0.498,0.732,0.816,1.281,0.816h4.519v7.486c0,0.021,0.008,0.04,0.009,0.06
				c0.003,0.071,0.003,0.141,0.017,0.21c0.007,0.035,0.022,0.065,0.032,0.1c0.011,0.038,0.021,0.075,0.035,0.112
				c0.035,0.097,0.08,0.189,0.136,0.274c0.014,0.022,0.023,0.045,0.038,0.066c0.074,0.102,0.162,0.194,0.261,0.274
				c0.025,0.02,0.053,0.036,0.08,0.054c0.048,0.034,0.094,0.072,0.147,0.101l8.047,4.235l4.84,9.887
				c0.241,0.493,0.739,0.793,1.269,0.793c0.106,0,0.213-0.013,0.319-0.037c0.642-0.148,1.095-0.719,1.095-1.378V18.985l13.038-11.89
				C35.731,6.703,35.877,6.084,35.666,5.539z M11.284,11.667l-2.519,2.979V9.611V6.346l3.514,4.144L11.284,11.667z M4.437,8.196
				l1.499-1.8v1.8H4.437z M19.434,27.156l-1.884-3.848l1.884-1.662V27.156z M15.586,21.247l-6.019-3.168l5.645-6.677V11.4
				l3.327-3.935h12.159L15.586,21.247z"/>
		</g>
	</g>
</g>
<g>
</g>
<g>
</g>
<g>
</g>
<g>
</g>
<g>
</g>
<g>
</g>
<g>
</g>
<g>
</g>
<g>
</g>
<g>
</g>
<g>
</g>
<g>
</g>
<g>
</g>
<g>
</g>
<g>
</g>
</svg>
