<?xml version="1.0" encoding="iso-8859-1"?>
<!-- Generator: Adobe Illustrator 18.0.0, SVG Export Plug-In . SVG Version: 6.00 Build 0)  -->
<!DOCTYPE svg PUBLIC "-//W3C//DTD SVG 1.1//EN" "http://www.w3.org/Graphics/SVG/1.1/DTD/svg11.dtd">
<svg version="1.1" id="Capa_1" xmlns="http://www.w3.org/2000/svg" xmlns:xlink="http://www.w3.org/1999/xlink" x="0px" y="0px"
	 viewBox="0 0 58.632 58.632" style="enable-background:new 0 0 58.632 58.632;" xml:space="preserve">
<g>
	<path d="M31,37.816c-0.552,0-1,0.447-1,1c0,3.309-2.691,6-6,6s-6-2.691-6-6c0-0.553-0.448-1-1-1s-1,0.447-1,1c0,4.411,3.589,8,8,8
		s8-3.589,8-8C32,38.263,31.552,37.816,31,37.816z"/>
	<circle cx="17" cy="31.816" r="2"/>
	<circle cx="31" cy="31.816" r="2"/>
	<path d="M58.048,12.033C58.047,12.033,58.047,12.033,58.048,12.033c-0.475-0.643-1.173-1.063-1.967-1.183
		c-0.795-0.12-1.585,0.076-2.229,0.55l-8.258,6.091c-2.681-6.269-8.907-10.675-16.146-10.675h-9.896C9.874,6.816,2,14.69,2,24.368
		v1.569c-1.205,1.113-2,2.76-2,4.379c0,2.153,1.268,4.089,3.208,4.979C5.704,45.049,14.385,51.816,24.5,51.816
		s18.796-6.767,21.292-16.521c1.94-0.89,3.208-2.825,3.208-4.979c0-1.619-0.795-3.265-2-4.378v-1.571
		c0-0.149-0.019-0.293-0.022-0.441l10.436-7.698C58.745,15.246,59.029,13.365,58.048,12.033z M4,24.368
		c0-8.575,6.977-15.552,15.552-15.552h9.896C38.023,8.816,45,15.792,45,24.368v0.448h-0.308c-0.453-0.021-1.069-0.022-1.942-0.022
		c-1.426,0.005-3.432,0.004-5.801,0.009c-2.987,0.006-6.542,0.014-10.193,0.014h-3.513c-2.943-0.003-5.853-0.011-8.483-0.016
		c-2.856-0.006-5.384-0.011-7.271-0.011c-1.411,0.001-2.37-0.001-3.022,0.026H4V24.368z M44.62,33.612
		c-0.328,0.111-0.574,0.384-0.652,0.721C41.86,43.449,33.854,49.816,24.5,49.816S7.14,43.449,5.032,34.332
		c-0.078-0.337-0.324-0.609-0.652-0.721C2.957,33.127,2,31.802,2,30.316c0-1.39,0.979-2.918,2.212-3.5h40.576
		c1.233,0.58,2.212,2.109,2.212,3.5C47,31.802,46.043,33.127,44.62,33.612z M56.227,14.619L47,21.424v-2.485l8.04-5.93
		c0.213-0.157,0.477-0.22,0.743-0.182c0.266,0.04,0.498,0.18,0.655,0.393C56.765,13.664,56.67,14.291,56.227,14.619z"/>
	<path d="M19,21.816h11c1.654,0,3-1.346,3-3s-1.346-3-3-3H19c-1.654,0-3,1.346-3,3S17.346,21.816,19,21.816z M19,17.816h11
		c0.551,0,1,0.448,1,1s-0.449,1-1,1H19c-0.551,0-1-0.448-1-1S18.449,17.816,19,17.816z"/>
</g>
<g>
</g>
<g>
</g>
<g>
</g>
<g>
</g>
<g>
</g>
<g>
</g>
<g>
</g>
<g>
</g>
<g>
</g>
<g>
</g>
<g>
</g>
<g>
</g>
<g>
</g>
<g>
</g>
<g>
</g>
</svg>
