<?xml version="1.0" encoding="iso-8859-1"?>
<!-- Generator: Adobe Illustrator 19.0.0, SVG Export Plug-In . SVG Version: 6.00 Build 0)  -->
<svg version="1.1" id="Layer_1" xmlns="http://www.w3.org/2000/svg" xmlns:xlink="http://www.w3.org/1999/xlink" x="0px" y="0px"
	 viewBox="0 0 490 490" style="enable-background:new 0 0 490 490;" xml:space="preserve">
<g id="XMLID_10_">
	<g>
		<path d="M490,247.027v-190H346.667v20H178.333v-40h35v-30h-100v30h35v40h-35v20H0v110h113.333v20h75.739
			c-5.123,8.833-8.072,19.075-8.072,30c0,27.906,19.151,51.424,45,58.102v21.898h-34.474l-63.318,133.055l27.09,12.891
			l55.176-115.945H226v115h30v-115h15.526l55.176,115.945l27.09-12.891l-63.318-133.055H256v-21.898
			c25.849-6.678,45-30.195,45-58.102c0-10.925-2.949-21.167-8.072-30h53.739v20H490z M376.667,87.027H460v130h-83.333V87.027z
			 M113.333,177.027H30v-50h83.333V177.027z M241,287.027c-16.542,0-30-13.458-30-30s13.458-30,30-30s30,13.458,30,30
			S257.542,287.027,241,287.027z M143.333,197.027v-90h203.334v90H143.333z"/>
	</g>
</g>
<g>
</g>
<g>
</g>
<g>
</g>
<g>
</g>
<g>
</g>
<g>
</g>
<g>
</g>
<g>
</g>
<g>
</g>
<g>
</g>
<g>
</g>
<g>
</g>
<g>
</g>
<g>
</g>
<g>
</g>
</svg>
