<?xml version="1.0" encoding="iso-8859-1"?>
<!-- Generator: Adobe Illustrator 19.0.0, SVG Export Plug-In . SVG Version: 6.00 Build 0)  -->
<svg version="1.1" id="Layer_1" xmlns="http://www.w3.org/2000/svg" xmlns:xlink="http://www.w3.org/1999/xlink" x="0px" y="0px"
	 viewBox="0 0 320 320" style="enable-background:new 0 0 320 320;" xml:space="preserve">
<g id="XMLID_489_">
	<g>
		<g>
			<path d="M160,110c-41.116,0-76.511,24.945-91.858,60.495c4.866,10.476,10.438,21.311,16.391,32.147
				c18.348-21.1,45.376-34.461,75.468-34.461c30.092,0,57.12,13.361,75.468,34.461c5.953-10.837,11.524-21.672,16.391-32.147
				C236.512,134.945,201.117,110,160,110z"/>
			<path d="M160,188.182c-26.648,0-50.277,13.108-64.824,33.202C125.526,273.222,160,320,160,320s34.475-46.778,64.824-98.616
				C210.277,201.29,186.648,188.182,160,188.182z"/>
			<path d="M160,0C99.248,0,50,49.249,50,110c0,10.117,3.063,22.695,8.147,36.623C79.362,112.652,117.083,90,160,90
				s80.638,22.652,101.853,56.623C266.938,132.695,270,120.117,270,110C270,49.249,220.751,0,160,0z"/>
		</g>
	</g>
</g>
<g>
</g>
<g>
</g>
<g>
</g>
<g>
</g>
<g>
</g>
<g>
</g>
<g>
</g>
<g>
</g>
<g>
</g>
<g>
</g>
<g>
</g>
<g>
</g>
<g>
</g>
<g>
</g>
<g>
</g>
</svg>
