<?xml version="1.0" encoding="iso-8859-1"?>
<!-- Generator: Adobe Illustrator 18.0.0, SVG Export Plug-In . SVG Version: 6.00 Build 0)  -->
<!DOCTYPE svg PUBLIC "-//W3C//DTD SVG 1.1//EN" "http://www.w3.org/Graphics/SVG/1.1/DTD/svg11.dtd">
<svg version="1.1" id="Capa_1" xmlns="http://www.w3.org/2000/svg" xmlns:xlink="http://www.w3.org/1999/xlink" x="0px" y="0px"
	 viewBox="0 0 60.002 60.002" style="enable-background:new 0 0 60.002 60.002;" xml:space="preserve">
<g>
	<path d="M59.795,26.568c-0.401-1.697-1.364-3.156-2.576-3.902c-0.811-0.499-1.678-0.659-2.508-0.461
		c-0.185,0.044-0.363,0.111-0.537,0.192c-2.336-5.686-5.99-9.356-9.739-11.73l1.36-2.719c0.247-0.494,0.047-1.095-0.447-1.342
		c-0.494-0.246-1.094-0.047-1.342,0.447l-1.303,2.605c-0.617-0.327-1.231-0.626-1.838-0.892l0.983-2.949
		c0.175-0.524-0.108-1.091-0.632-1.265c-0.527-0.177-1.09,0.108-1.265,0.632l-0.948,2.844c-0.693-0.248-1.366-0.461-2.012-0.642
		l0.857-2.57c0.175-0.524-0.108-1.091-0.632-1.265c-0.528-0.177-1.09,0.108-1.265,0.632l-0.908,2.724
		C33.779,6.641,32.7,6.496,31.9,6.419V4.5c0-0.553-0.447-1-1-1s-1,0.447-1,1v1.844c-0.525,0.026-1.441,0.097-2.632,0.283
		l-0.382-2.292c-0.09-0.545-0.607-0.921-1.15-0.822c-0.545,0.091-0.913,0.606-0.822,1.15l0.39,2.34
		c-1.072,0.242-2.258,0.573-3.509,1.02l-0.947-2.841c-0.174-0.523-0.737-0.809-1.265-0.632c-0.523,0.174-0.807,0.74-0.632,1.265
		l0.981,2.944c-0.863,0.378-1.742,0.822-2.621,1.327l-1.517-3.034c-0.248-0.494-0.847-0.693-1.342-0.447
		c-0.494,0.247-0.694,0.848-0.447,1.342l1.601,3.201c-0.881,0.602-1.749,1.288-2.594,2.05l-2.405-2.405
		c-0.391-0.391-1.023-0.391-1.414,0s-0.391,1.023,0,1.414l2.388,2.388c-3.076,3.272-5.646,7.835-6.826,14.213
		c-0.015,0.083-0.025,0.167-0.04,0.25c-0.254-0.07-0.512-0.118-0.776-0.118C1.73,28.939,0,31.322,0,34.363s1.73,5.424,3.939,5.424
		c0.404,0,0.798-0.102,1.177-0.267c0.701,2.671,1.863,5.179,3.458,7.378c3.194,4.404,9.468,9.606,21.27,9.606
		c0.182,0,0.363-0.001,0.548-0.004c12.102,0.163,18.572-5.131,21.817-9.603c2.879-3.969,4.345-8.941,4.23-14.07
		c0.035,0.001,0.07,0.007,0.104,0.007c0.227,0,0.451-0.025,0.672-0.078C59.363,32.245,60.496,29.526,59.795,26.568z M3.939,37.787
		C3.022,37.787,2,36.381,2,34.363s1.022-3.424,1.939-3.424c0.167,0,0.335,0.047,0.504,0.139c-0.049,0.531-0.081,1.062-0.096,1.591
		c-0.001,0.04-0.001,0.08-0.002,0.12c-0.01,0.437-0.009,0.872,0.004,1.306c0.004,0.143,0.009,0.285,0.015,0.428
		c0.016,0.352,0.041,0.702,0.072,1.052c0.013,0.147,0.022,0.294,0.037,0.44c0.047,0.435,0.105,0.867,0.175,1.297
		c0.009,0.059,0.014,0.118,0.024,0.177C4.468,37.655,4.218,37.787,3.939,37.787z M50.591,45.724
		c-4.316,5.949-11.114,8.893-20.185,8.776h-0.027c-9.113,0.113-15.87-2.828-20.185-8.776c-2.062-2.842-3.329-6.256-3.726-9.867
		c-0.008-0.077-0.01-0.155-0.017-0.232C6.395,35.054,6.363,34.479,6.35,33.9c-0.005-0.251-0.001-0.504,0.003-0.756
		c0.004-0.405,0.02-0.811,0.046-1.217c0.02-0.298,0.04-0.596,0.071-0.895c0.064-0.62,0.138-1.241,0.252-1.861
		c1.097-5.928,3.438-10.163,6.237-13.199l1.235,1.235c0.195,0.195,0.451,0.293,0.707,0.293s0.512-0.098,0.707-0.293
		c0.391-0.391,0.391-1.023,0-1.414l-1.229-1.229c0.684-0.619,1.384-1.181,2.095-1.683l0.533,1.067
		c0.176,0.351,0.528,0.553,0.896,0.553c0.15,0,0.303-0.034,0.446-0.105c0.494-0.247,0.694-0.848,0.447-1.342l-0.628-1.256
		c0.795-0.464,1.59-0.872,2.372-1.22l0.413,1.24c0.14,0.419,0.529,0.684,0.948,0.684c0.104,0,0.211-0.017,0.316-0.052
		c0.523-0.174,0.807-0.74,0.632-1.265l-0.45-1.349c1.148-0.407,2.236-0.7,3.224-0.917l0.291,1.747
		c0.081,0.489,0.505,0.836,0.985,0.836c0.055,0,0.109-0.004,0.165-0.014c0.545-0.091,0.913-0.606,0.822-1.15l-0.296-1.777
		c1.021-0.146,1.824-0.201,2.31-0.22V10.5c0,0.553,0.447,1,1,1s1-0.447,1-1V8.426c0.666,0.065,1.52,0.177,2.514,0.371l-0.462,1.386
		c-0.175,0.524,0.108,1.091,0.632,1.265c0.105,0.035,0.212,0.052,0.316,0.052c0.419,0,0.809-0.265,0.948-0.684l0.52-1.562
		c0.645,0.175,1.319,0.384,2.015,0.632l-0.432,1.297c-0.175,0.524,0.108,1.091,0.632,1.265c0.105,0.035,0.212,0.052,0.316,0.052
		c0.419,0,0.809-0.265,0.948-0.684l0.395-1.185c0.177,0.079,0.354,0.154,0.532,0.238c0.36,0.171,0.707,0.353,1.053,0.537
		l-0.823,1.645c-0.247,0.494-0.047,1.095,0.447,1.342c0.144,0.071,0.296,0.105,0.446,0.105c0.367,0,0.72-0.202,0.896-0.553
		l0.763-1.526c4.174,2.689,7.2,6.511,9.045,11.423l-0.008,0.011l0.167,0.472c0.019,0.054,0.035,0.112,0.054,0.167
		c0.254,0.723,0.481,1.448,0.679,2.181c0.214,0.809,0.409,1.637,0.568,2.496c0.122,0.659,0.204,1.318,0.268,1.976
		c0.012,0.127,0.029,0.252,0.04,0.38C54.791,36.694,53.464,41.764,50.591,45.724z M56.751,30.812c-0.136,0.03-0.282,0.03-0.436,0
		c-0.004-0.036-0.011-0.07-0.015-0.106c-0.068-0.63-0.153-1.261-0.269-1.891c-0.001-0.003-0.001-0.006-0.001-0.009
		c-0.001-0.007-0.003-0.013-0.004-0.02c-0.137-0.737-0.298-1.442-0.471-2.131c-0.027-0.105-0.056-0.211-0.083-0.316
		c-0.184-0.707-0.385-1.391-0.604-2.048c0.1-0.069,0.203-0.115,0.308-0.141c0.379-0.094,0.751,0.068,0.994,0.219
		c0.758,0.467,1.401,1.486,1.68,2.66C58.314,28.993,57.645,30.599,56.751,30.812z"/>
	<path d="M21,33.5c3.859,0,7-3.813,7-8.5s-3.141-8.5-7-8.5s-7,3.813-7,8.5S17.141,33.5,21,33.5z M21,18.5c2.757,0,5,2.916,5,6.5
		s-2.243,6.5-5,6.5s-5-2.916-5-6.5S18.243,18.5,21,18.5z"/>
	<ellipse cx="21" cy="25" rx="3" ry="4.5"/>
	<path d="M39,16.5c-3.859,0-7,3.813-7,8.5s3.141,8.5,7,8.5s7-3.813,7-8.5S42.859,16.5,39,16.5z M39,31.5c-2.757,0-5-2.916-5-6.5
		s2.243-6.5,5-6.5s5,2.916,5,6.5S41.757,31.5,39,31.5z"/>
	<ellipse cx="39" cy="25" rx="3" ry="4.5"/>
	<path d="M42.989,38.5H17c-0.553,0-1,0.479-1,1.031c0,4.239,2.396,8.147,6.104,9.957c2.395,1.169,5.12,1.786,7.881,1.786
		c2.759,0,5.485-0.616,7.886-1.782c3.729-1.813,6.13-5.735,6.118-9.995C43.987,38.946,43.54,38.5,42.989,38.5z M36.996,47.693
		c-4.256,2.069-9.769,2.068-14.015-0.002c-0.318-0.155-0.621-0.334-0.915-0.525c0.47-1.297,3.656-2.208,7.93-2.208
		c4.27,0,7.455,0.908,7.934,2.201C37.631,47.354,37.321,47.535,36.996,47.693z M39.488,45.84c-1.214-1.83-4.569-2.883-9.492-2.883
		c-4.926,0-8.28,1.055-9.49,2.89c-1.355-1.435-2.242-3.314-2.456-5.348h23.888C41.725,42.532,40.841,44.407,39.488,45.84z"/>
</g>
<g>
</g>
<g>
</g>
<g>
</g>
<g>
</g>
<g>
</g>
<g>
</g>
<g>
</g>
<g>
</g>
<g>
</g>
<g>
</g>
<g>
</g>
<g>
</g>
<g>
</g>
<g>
</g>
<g>
</g>
</svg>
