<?xml version="1.0" encoding="iso-8859-1"?>
<!-- Generator: Adobe Illustrator 18.0.0, SVG Export Plug-In . SVG Version: 6.00 Build 0)  -->
<!DOCTYPE svg PUBLIC "-//W3C//DTD SVG 1.1//EN" "http://www.w3.org/Graphics/SVG/1.1/DTD/svg11.dtd">
<svg version="1.1" id="Capa_1" xmlns="http://www.w3.org/2000/svg" xmlns:xlink="http://www.w3.org/1999/xlink" x="0px" y="0px"
	 viewBox="0 0 495.654 495.654" style="enable-background:new 0 0 495.654 495.654;" xml:space="preserve">
<path d="M388.376,323.098c74.293-48.257,83.975-104.876,84.023-130.237c0-2.371-1.337-4.546-3.439-5.621
	c-2.12-1.084-4.402-0.441-6.578,0.502c-27.769,12.042-74.928-49.043-165.898-73.077c-42.74-11.292-73.007-76.291-73.007-76.291
	l-0.018,0.007C212.073,16.792,192.516,0,163.261,0C112.249,0,51.172,51.019,51.172,89.629c0,1.553,0.177,3.074,0.305,4.603
	l-26.247,24.878c-1.877,1.775-2.483,4.513-1.528,6.913c0.958,2.396,3.282,3.972,5.862,3.972h38.635
	c0.256,0.272,0.526,0.527,0.781,0.796l0,0c-31.647,158.709,63.689,209.33,134.432,225.343l2.977,18.604l-28.824,52.992
	c-0.208,0.391-0.208,0.822-0.382,1.227l-26.453-8.337c-4.252-1.319-8.887,1.037-10.225,5.327c-1.357,4.301,1.02,8.879,5.319,10.235
	l15.799,4.976l-18.03,12.653c-3.693,2.589-4.589,7.669-1.991,11.357c1.594,2.26,4.111,3.469,6.673,3.469
	c1.626,0,3.265-0.477,4.686-1.481l29.431-20.664h36.807c4.505,0,8.153-3.644,8.153-8.154c0-4.505-3.648-8.154-8.153-8.154h-15.118
	l27.888-51.248l22.743-15.816c11.1,0.549,17.947,0.247,17.947,0.247l0.018-0.086c6.479-0.097,12.738-0.553,18.838-1.252
	l18.696,21.818l-3.899,68.482h-31.675c-4.51,0-8.154,3.648-8.154,8.154c0,4.51,3.645,8.154,8.154,8.154h27.31l-2.645,17.657
	c-0.667,4.459,2.407,8.607,6.85,9.277c0.415,0.054,0.814,0.085,1.226,0.085c3.969,0,7.441-2.898,8.043-6.944l3.282-21.882
	l31.611-9.349c4.315-1.273,6.784-5.811,5.511-10.127c-1.275-4.323-5.829-6.823-10.127-5.51l-14.526,4.291l3.441-60.296
	L388.376,323.098z"/>
<g>
</g>
<g>
</g>
<g>
</g>
<g>
</g>
<g>
</g>
<g>
</g>
<g>
</g>
<g>
</g>
<g>
</g>
<g>
</g>
<g>
</g>
<g>
</g>
<g>
</g>
<g>
</g>
<g>
</g>
</svg>
