<?xml version="1.0" encoding="utf-8"?>
<!-- Generator: Adobe Illustrator 16.0.4, SVG Export Plug-In . SVG Version: 6.00 Build 0)  -->
<!DOCTYPE svg PUBLIC "-//W3C//DTD SVG 1.1//EN" "http://www.w3.org/Graphics/SVG/1.1/DTD/svg11.dtd">
<svg version="1.1" id="Capa_1" xmlns="http://www.w3.org/2000/svg" xmlns:xlink="http://www.w3.org/1999/xlink" x="0px" y="0px"
	 width="32px" height="32px" viewBox="0 0 32 32" enable-background="new 0 0 32 32" xml:space="preserve">
<path fill="#333333" d="M31.414,9.677l-5.08-5.081C25.959,4.221,25.449,4.01,24.92,4.01H7.081c-0.53,0-1.039,0.211-1.414,0.586
	l-5.08,5.081C0.194,10.069-0.002,10.586,0,11.104c0.003,0.47,0.171,0.939,0.506,1.316l13.999,14.908C14.885,27.756,15.429,28,16,28
	c0.57,0,1.115-0.244,1.494-0.672l14-14.908c0.342-0.385,0.51-0.867,0.506-1.348C31.996,10.566,31.799,10.062,31.414,9.677z
	 M24.219,6.01l-1.916,1.597L20.707,6.01H24.219z M24.293,11.01h-4.514l2.463-2.051L24.293,11.01z M21.532,8.25L19,10.359
	L16.782,8.51l2.731-2.278L21.532,8.25z M18.219,11.01H13.78L16,9.161L18.219,11.01z M18.218,6.01L16,7.86l-2.22-1.85H18.218z
	 M15.219,8.51L13,10.359L10.468,8.25l2.018-2.018L15.219,8.51z M12.22,11.01H7.707l2.051-2.051L12.22,11.01z M11.293,6.01
	L9.696,7.607L7.78,6.01H11.293z M6.686,6.4l2.301,1.917L6.293,11.01H2.006L6.686,6.4z M2.864,12.01h3.554l6.286,10.479L2.864,12.01z
	 M7.583,12.01h4.907l2.453,12.27L7.583,12.01z M13.51,12.01h4.98L16,24.463L13.51,12.01z M17.057,24.279l2.453-12.27h4.906
	L17.057,24.279z M19.295,22.49l6.287-10.48h3.555L19.295,22.49z M25.707,11.01l-2.693-2.693l2.297-1.915l4.607,4.608H25.707z"/>
</svg>
