<?xml version="1.0" encoding="iso-8859-1"?>
<!-- Generator: Adobe Illustrator 17.1.0, SVG Export Plug-In . SVG Version: 6.00 Build 0)  -->
<!DOCTYPE svg PUBLIC "-//W3C//DTD SVG 1.1//EN" "http://www.w3.org/Graphics/SVG/1.1/DTD/svg11.dtd">
<svg version="1.1" id="Capa_1" xmlns="http://www.w3.org/2000/svg" xmlns:xlink="http://www.w3.org/1999/xlink" x="0px" y="0px"
	 viewBox="0 0 490 490" style="enable-background:new 0 0 490 490;" xml:space="preserve">
<g>
	<path d="M376.577,78.33c-3.041,0-6.075,0.369-9.017,1.098c-0.971,0.24-1.704,1.037-1.864,2.023
		c-0.16,0.986,0.286,1.975,1.132,2.508c9.49,5.988,15.156,16.252,15.156,27.455c0,14.953-10.124,27.9-24.621,31.488
		c-0.971,0.238-1.704,1.035-1.864,2.023c-0.159,0.986,0.286,1.975,1.132,2.508c5.966,3.764,12.863,5.754,19.945,5.754
		c20.638,0,37.428-16.791,37.428-37.428C414.005,95.121,397.214,78.33,376.577,78.33z"/>
	<g>
		<path d="M111.525,171.018l-7.695-0.844l-4.874-6.014c-0.363-0.449-0.935-0.676-1.505-0.604c-0.572,0.074-1.065,0.441-1.303,0.967
			l-3.181,7.057l-7.226,2.777c-0.539,0.207-0.932,0.68-1.038,1.246c-0.106,0.568,0.089,1.15,0.516,1.537l5.729,5.207l0.409,7.73
			c0.031,0.576,0.358,1.096,0.864,1.373c0.248,0.135,0.522,0.203,0.797,0.203c0.285,0,0.569-0.074,0.825-0.221l6.722-3.84
			l7.478,2.002c0.559,0.148,1.153-0.002,1.572-0.398c0.42-0.396,0.604-0.982,0.486-1.547l-1.574-7.58l4.213-6.494
			c0.315-0.484,0.355-1.096,0.108-1.617C112.599,171.438,112.099,171.082,111.525,171.018z"/>
		<g>
			<path d="M156.626,123.135c-0.248-0.521-0.748-0.877-1.321-0.939l-7.695-0.844l-4.874-6.016c-0.364-0.447-0.935-0.674-1.506-0.601
				c-0.572,0.074-1.066,0.439-1.303,0.967l-3.181,7.057l-7.226,2.777c-0.539,0.207-0.932,0.678-1.038,1.246
				c-0.106,0.566,0.089,1.148,0.516,1.537l5.729,5.207l0.408,7.73c0.031,0.576,0.358,1.096,0.864,1.371
				c0.249,0.137,0.523,0.203,0.796,0.203c0.285,0,0.57-0.072,0.825-0.219l6.722-3.84l7.478,2.002
				c0.559,0.148,1.153-0.002,1.572-0.398c0.419-0.396,0.604-0.982,0.486-1.547l-1.575-7.58l4.213-6.494
				C156.832,124.27,156.873,123.657,156.626,123.135z"/>
			<path d="M67.747,122.196l-7.695-0.844l-4.874-6.014c-0.364-0.449-0.933-0.678-1.506-0.604c-0.572,0.074-1.066,0.439-1.303,0.967
				l-3.181,7.057l-7.226,2.777c-0.539,0.207-0.932,0.678-1.039,1.246c-0.106,0.566,0.089,1.148,0.517,1.537l5.729,5.207l0.408,7.73
				c0.031,0.576,0.358,1.096,0.865,1.371c0.248,0.137,0.522,0.203,0.796,0.203c0.285,0,0.569-0.072,0.825-0.219l6.722-3.84
				l7.478,2.002c0.559,0.148,1.153-0.002,1.572-0.398c0.42-0.396,0.604-0.982,0.486-1.547l-1.575-7.58l4.214-6.494
				c0.314-0.484,0.355-1.096,0.107-1.619C68.82,122.616,68.32,122.258,67.747,122.196z"/>
		</g>
	</g>
	<path d="M480.021,391.715h-40.498L253.866,130.729l27.736-42.088c2.021-3.066,1.173-7.193-1.895-9.215
		c-3.067-2.021-7.193-1.174-9.215,1.895L245,120.004l-25.493-38.684c-2.021-3.068-6.148-3.916-9.215-1.895
		c-3.068,2.021-3.916,6.148-1.894,9.215l27.736,42.088L50.477,391.715H9.979c-5.511,0-9.979,4.467-9.979,9.979
		c0,5.512,4.468,9.978,9.979,9.978h470.043c5.511,0,9.979-4.467,9.979-9.978C490,396.182,485.532,391.715,480.021,391.715z
		 M245,261.166l51.694,130.549H193.307L245,261.166z"/>
</g>
<g>
</g>
<g>
</g>
<g>
</g>
<g>
</g>
<g>
</g>
<g>
</g>
<g>
</g>
<g>
</g>
<g>
</g>
<g>
</g>
<g>
</g>
<g>
</g>
<g>
</g>
<g>
</g>
<g>
</g>
</svg>
