<?xml version="1.0" encoding="iso-8859-1"?>
<!-- Generator: Adobe Illustrator 16.0.0, SVG Export Plug-In . SVG Version: 6.00 Build 0)  -->
<!DOCTYPE svg PUBLIC "-//W3C//DTD SVG 1.1//EN" "http://www.w3.org/Graphics/SVG/1.1/DTD/svg11.dtd">
<svg version="1.1" id="Capa_1" xmlns="http://www.w3.org/2000/svg" xmlns:xlink="http://www.w3.org/1999/xlink" x="0px" y="0px"
	 width="32px" height="32px" viewBox="0 0 32 32" style="enable-background:new 0 0 32 32;" xml:space="preserve">
<g>
	<path d="M17.634,24.156h4.35l0.404-9.652c0.272,0.228,0.623,0.365,1.008,0.365c0.867,0,1.568-0.703,1.568-1.57
		c0-0.867-0.703-1.57-1.568-1.57c-0.737,0-1.354,0.509-1.523,1.194h-5.858H15.99h-5.861c-0.169-0.685-0.786-1.194-1.522-1.194
		c-0.868,0-1.571,0.703-1.571,1.57c0,0.867,0.703,1.57,1.571,1.57c0.383,0,0.733-0.138,1.006-0.365l0.406,9.652h4.349v2.342H8.604
		V32h7.385h0.024h7.386v-5.502h-5.767v-2.342H17.634z M13.842,18.027l0.01-0.258c-0.267-0.056-0.519-0.166-0.737-0.33l-0.182,0.168
		c-0.038,0.037-0.1,0.035-0.136-0.004l-0.313-0.334c-0.035-0.037-0.032-0.102,0.005-0.137l0.176-0.164
		c-0.151-0.229-0.25-0.49-0.289-0.763l-0.232-0.009c-0.054-0.002-0.095-0.047-0.094-0.1l0.017-0.457
		c0.002-0.054,0.046-0.095,0.1-0.094l0.231,0.008c0.057-0.271,0.175-0.526,0.344-0.746l-0.159-0.171
		c-0.018-0.019-0.027-0.043-0.026-0.069s0.013-0.05,0.031-0.067l0.334-0.313c0.039-0.036,0.101-0.034,0.136,0.005l0.165,0.176
		c0.229-0.146,0.486-0.239,0.754-0.274l0.007-0.235c0.002-0.054,0.046-0.095,0.1-0.093l0.458,0.016
		c0.053,0.002,0.094,0.046,0.093,0.1l-0.008,0.243c0.262,0.059,0.508,0.174,0.721,0.337l0.188-0.176
		c0.019-0.018,0.044-0.027,0.07-0.026c0.024,0,0.049,0.012,0.066,0.03l0.122,0.131l0.19,0.204c0.036,0.039,0.034,0.1-0.004,0.136
		l-0.186,0.175l-0.006,0.005c0.002,0.003,0.003,0.007,0.006,0.011c0.139,0.221,0.231,0.469,0.269,0.727l0.271,0.01
		c0.054,0.002,0.095,0.046,0.093,0.099l-0.016,0.458c-0.002,0.053-0.046,0.095-0.1,0.092l-0.271-0.008
		c-0.045,0.212-0.13,0.415-0.246,0.6c-0.023,0.037-0.048,0.075-0.075,0.112l0.075,0.08l0.11,0.118
		c0.036,0.039,0.034,0.1-0.005,0.136l-0.105,0.099l-0.229,0.213c-0.02,0.02-0.043,0.027-0.07,0.026
		c-0.025-0.001-0.049-0.012-0.066-0.03l-0.179-0.19c-0.225,0.149-0.479,0.249-0.748,0.29l-0.01,0.265
		c-0.001,0.054-0.047,0.095-0.1,0.093l-0.458-0.015C13.881,18.126,13.84,18.081,13.842,18.027z M14.301,20.846l0.018-0.546
		c0.002-0.063,0.055-0.112,0.119-0.11l0.274,0.011c0.068-0.322,0.208-0.626,0.41-0.888l-0.19-0.203
		c-0.021-0.021-0.031-0.053-0.03-0.084c0.001-0.028,0.015-0.059,0.037-0.08l0.397-0.37c0.046-0.043,0.119-0.04,0.162,0.006
		l0.196,0.21c0.032-0.021,0.064-0.037,0.099-0.057c0.247-0.139,0.518-0.233,0.797-0.271l0.011-0.278
		c0.001-0.062,0.055-0.113,0.118-0.11l0.543,0.019c0.063,0.002,0.113,0.055,0.111,0.119l-0.01,0.287
		c0.311,0.07,0.604,0.207,0.857,0.4l0.225-0.209c0.021-0.021,0.051-0.032,0.082-0.031c0.029,0.001,0.059,0.014,0.08,0.037
		l0.372,0.397c0.043,0.046,0.041,0.117-0.007,0.161l-0.229,0.214c0.17,0.265,0.281,0.565,0.326,0.878l0.322,0.012
		c0.062,0.002,0.113,0.056,0.109,0.119l-0.019,0.545c-0.002,0.062-0.056,0.111-0.118,0.108l-0.322-0.011
		c-0.063,0.305-0.195,0.595-0.381,0.849l0.221,0.233c0.041,0.047,0.039,0.119-0.006,0.162l-0.397,0.373
		c-0.022,0.021-0.054,0.031-0.082,0.029c-0.031-0.002-0.06-0.015-0.08-0.037l-0.214-0.229c-0.27,0.178-0.571,0.296-0.891,0.346
		l-0.011,0.316c-0.002,0.062-0.056,0.113-0.118,0.109l-0.544-0.019c-0.062-0.002-0.113-0.056-0.111-0.119l0.012-0.308
		c-0.229-0.046-0.446-0.129-0.648-0.244c-0.079-0.045-0.156-0.093-0.229-0.146l-0.214,0.201c-0.048,0.043-0.12,0.041-0.162-0.007
		l-0.372-0.397c-0.042-0.043-0.039-0.12,0.006-0.161l0.209-0.196c-0.181-0.273-0.298-0.583-0.344-0.906l-0.273-0.01
		C14.348,20.961,14.298,20.908,14.301,20.846z M22.69,27.206v4.086h-6.678h-0.024H9.312v-4.086h6.677h0.024H22.69z M15.254,15.991
		c0.02-0.561-0.42-1.031-0.979-1.051c-0.562-0.019-1.031,0.42-1.052,0.981c-0.019,0.562,0.421,1.031,0.981,1.05
		C14.764,16.991,15.234,16.552,15.254,15.991z M14.225,16.341c-0.214-0.007-0.381-0.185-0.372-0.398
		c0.007-0.213,0.186-0.38,0.397-0.373c0.212,0.007,0.379,0.186,0.372,0.398C14.616,16.182,14.438,16.35,14.225,16.341z
		 M16.861,21.884c0.667,0.023,1.226-0.499,1.249-1.167c0.021-0.667-0.5-1.227-1.166-1.25c-0.513-0.017-0.958,0.286-1.15,0.729
		c-0.059,0.137-0.094,0.283-0.1,0.438c-0.006,0.185,0.031,0.36,0.1,0.521C15.973,21.57,16.379,21.867,16.861,21.884z M16.919,20.218
		c0.252,0.009,0.451,0.222,0.442,0.474c-0.009,0.254-0.222,0.453-0.476,0.443c-0.253-0.01-0.45-0.222-0.441-0.474
		C16.452,20.407,16.666,20.209,16.919,20.218z M13.286,5.818h0.943v0.884h-0.943V5.818z M8.653,20.797l-2.526-0.383l0.127-0.836
		l2.526,0.383L8.653,20.797z M8.479,21.941l-2.526-0.381l0.127-0.838l2.526,0.383L8.479,21.941z M8.303,23.102l-2.525-0.385
		l0.127-0.836l2.525,0.385L8.303,23.102z M9.347,16.221l-2.526-0.383l0.127-0.837l2.526,0.383L9.347,16.221z M9.173,17.365
		L6.647,16.98l0.127-0.836L9.3,16.529L9.173,17.365z M8.998,18.523l-2.525-0.383l0.126-0.836l2.526,0.381L8.998,18.523z
		 M8.823,19.67l-2.526-0.384l0.127-0.837l2.526,0.385L8.823,19.67z M4.958,23.193l3.644,0.474l-0.263,2.021l-0.956-0.125
		l0.136-1.043l-1.732-0.226l-0.135,1.043l-0.957-0.125L4.958,23.193z M16.013,11.125h5.085V3.606h-0.895v-1.68h0.895V0h-1.926v1.926
		h0.568v1.68h-3.729h-0.024h-3.71v-1.68h0.569V0h-1.924v1.926h0.894v1.68h-0.915v7.519h5.085H16.013z M17.602,5.228h2.2v2.044h-2.2
		V5.228z M12.298,5.228H14.5v2.044h-2.202V5.228z M13.045,9.237h2.943h0.024h2.944v0.649h-2.944h-0.024h-2.943V9.237z M17.853,5.818
		h0.941v0.884h-0.941V5.818z M23.22,19.96l2.526-0.384l0.128,0.836l-2.527,0.385L23.22,19.96z M23.396,21.105l2.525-0.383
		l0.127,0.836l-2.525,0.385L23.396,21.105z M23.57,22.264l2.526-0.384l0.127,0.837L23.697,23.1L23.57,22.264z M22.527,15.383
		L25.054,15l0.127,0.836l-2.525,0.383L22.527,15.383z M22.698,16.53l2.527-0.384l0.127,0.836l-2.527,0.385L22.698,16.53z
		 M22.878,17.688l2.525-0.383l0.126,0.836l-2.524,0.383L22.878,17.688z M23.052,18.832l2.525-0.384l0.127,0.837l-2.525,0.383
		L23.052,18.832z M27.306,25.212l-0.953,0.125l-0.137-1.043l-1.731,0.226l0.135,1.043l-0.954,0.125l-0.263-2.021l3.644-0.474
		L27.306,25.212z M12.868,29.286c0,0.478-0.388,0.864-0.865,0.864s-0.865-0.387-0.865-0.864s0.388-0.865,0.865-0.865
		S12.868,28.809,12.868,29.286z M15.463,29.277c0,0.479-0.387,0.865-0.865,0.865s-0.864-0.388-0.864-0.865s0.387-0.864,0.864-0.864
		C15.076,28.413,15.463,28.801,15.463,29.277z M19.134,29.286c0-0.478,0.388-0.865,0.865-0.865c0.477,0,0.864,0.388,0.864,0.865
		s-0.388,0.864-0.864,0.864C19.521,30.15,19.134,29.764,19.134,29.286z M16.537,29.277c0-0.478,0.388-0.864,0.865-0.864
		s0.865,0.388,0.865,0.864c0,0.479-0.388,0.865-0.865,0.865S16.537,29.756,16.537,29.277z"/>
</g>
<g>
</g>
<g>
</g>
<g>
</g>
<g>
</g>
<g>
</g>
<g>
</g>
<g>
</g>
<g>
</g>
<g>
</g>
<g>
</g>
<g>
</g>
<g>
</g>
<g>
</g>
<g>
</g>
<g>
</g>
</svg>
