<?xml version="1.0" encoding="iso-8859-1"?>
<!-- Generator: Adobe Illustrator 18.0.0, SVG Export Plug-In . SVG Version: 6.00 Build 0)  -->
<!DOCTYPE svg PUBLIC "-//W3C//DTD SVG 1.1//EN" "http://www.w3.org/Graphics/SVG/1.1/DTD/svg11.dtd">
<svg version="1.1" id="Capa_1" xmlns="http://www.w3.org/2000/svg" xmlns:xlink="http://www.w3.org/1999/xlink" x="0px" y="0px"
	 viewBox="0 0 496.171 496.171" style="enable-background:new 0 0 496.171 496.171;" xml:space="preserve">
<path d="M373.112,13.981C363.244,2.859,339.695-5.155,323.57,3.954c-35.843,20.248-23.981,49.684-18.605,58.006
	c12.909,19.985,24.078,37.211,48.604,83.407c8.326,15.681,3.626,49.461-17.97,57.145c-5.873-40.51-43.224-65.071-80.378-58.71
	c-84.465,14.463-127.654,82.332-146.333,123.093c-1.853,4.051-0.878,8.84,2.421,11.844c3.299,3.004,8.17,3.529,12.027,1.295
	c12.61-7.307,24.82-12.477,36.48-15.966c24.374-7.307,52.061-2.311,76.266,10.16l-39.98,71.794c-1.14,2.058-1.349,4.511-0.551,6.731
	c0.792,2.212,2.501,3.986,4.699,4.846l59.22,23.417v91.135c0,13.247,10.775,24.021,24.021,24.021h12.779
	c4.518,0,8.178-3.659,8.178-8.177c0-4.522-3.659-8.178-8.178-8.178h-12.779c-4.223,0-7.666-3.443-7.666-7.667v-84.461
	c4.339,2.253,7.156,6.58,7.156,11.548v9.023c0,4.522,3.659,8.181,8.177,8.181c4.522,0,8.177-3.659,8.177-8.181v-9.023
	c0-12.17-7.314-22.935-18.646-27.414l-4.864-1.924v-88.389c26.915-4.781,50.477-25.278,57.645-49.872
	c49.755-11.67,48.9-62.362,44.023-78.144c-1.818-5.883-5.12-12.455-7.857-17.225c-7.23-12.005-42.998-71.283-47.29-80.465
	c-3.56-9.434,1.641-20.561,10.757-24.251c13.471-5.453,32.168,4.819,37.195,11.814c4.903,6.822,8.274,15.038,9.926,31.987
	c0.398,3.864,6.056,3.863,6.454,0c1.116-11.188,1.391-11.633,1.493-16.074C388.574,41.769,386.18,28.71,373.112,13.981z
	 M259.47,363.429l-44.535-17.61l36.71-65.922c2.572,0.589,5.173,0.968,7.825,1.262V363.429z"/>
<g>
</g>
<g>
</g>
<g>
</g>
<g>
</g>
<g>
</g>
<g>
</g>
<g>
</g>
<g>
</g>
<g>
</g>
<g>
</g>
<g>
</g>
<g>
</g>
<g>
</g>
<g>
</g>
<g>
</g>
</svg>
