<?xml version="1.0" encoding="iso-8859-1"?>
<!-- Generator: Adobe Illustrator 18.0.0, SVG Export Plug-In . SVG Version: 6.00 Build 0)  -->
<!DOCTYPE svg PUBLIC "-//W3C//DTD SVG 1.1//EN" "http://www.w3.org/Graphics/SVG/1.1/DTD/svg11.dtd">
<svg version="1.1" id="Capa_1" xmlns="http://www.w3.org/2000/svg" xmlns:xlink="http://www.w3.org/1999/xlink" x="0px" y="0px"
	 viewBox="0 0 59 59" style="enable-background:new 0 0 59 59;" xml:space="preserve">
<g>
	<path d="M41,40H19c-0.552,0-1,0.447-1,1c0,6.617,5.383,12,12,12s12-5.383,12-12C42,40.447,41.552,40,41,40z M39.145,45.029
		C39.096,45.022,39.051,45,39,45h-4v-3h4.949C39.843,43.069,39.562,44.086,39.145,45.029z M20.855,45.029
		c-0.417-0.944-0.698-1.96-0.804-3.029H25v3h-4C20.949,45,20.904,45.022,20.855,45.029z M27,42h6v3h-6V42z M22.019,47H25v2.647
		C23.837,48.972,22.825,48.069,22.019,47z M27,50.539V47h6v3.539C32.052,50.837,31.045,51,30,51S27.948,50.837,27,50.539z
		 M35,49.647V47h2.981C37.175,48.069,36.163,48.972,35,49.647z"/>
	<path d="M29.5,0C14.888,0,3,11.888,3,26.5V51c0,2.757,2.243,5,5,5h6.55c0.046,0.022,0.096,0.04,0.142,0.062
		c3.51,1.654,7.728,2.643,12.542,2.878c0.107,0.005,0.214,0.011,0.322,0.016C28.195,58.982,28.84,59,29.5,59
		s1.305-0.018,1.945-0.045c0.108-0.005,0.215-0.01,0.322-0.016c4.814-0.235,9.032-1.224,12.542-2.878
		c0.046-0.022,0.096-0.04,0.142-0.062H51c2.757,0,5-2.243,5-5V26.5C56,11.888,44.112,0,29.5,0z M5,26.5C5,12.99,15.991,2,29.5,2
		S54,12.99,54,26.5v3.4c-0.722,0.067-1.379,0.1-2,0.1c-10.405,0-19.571-7.335-22.809-18.252l-0.223-0.753l-0.784,0.038
		C17.638,11.55,8.8,18.165,5,27.375V26.5z M43.993,54l-0.207,0.101c-2.828,1.374-6.204,2.271-9.917,2.666
		c-0.271,0.027-0.542,0.056-0.818,0.078c-0.392,0.033-0.787,0.062-1.187,0.084C31.09,56.969,30.309,57,29.5,57
		s-1.59-0.031-2.364-0.072c-0.399-0.022-0.794-0.051-1.187-0.084c-0.276-0.022-0.547-0.05-0.818-0.078
		c-3.712-0.394-7.089-1.292-9.917-2.666L15.007,54h-0.089C8.547,50.783,5,45.095,5,37.5c0-12.823,9.827-23.404,22.512-24.419
		C31.199,24.431,40.948,32,52,32c0.439,0,0.891-0.015,1.366-0.044C53.787,33.773,54,35.635,54,37.5c0,7.595-3.547,13.283-9.918,16.5
		H43.993z M8,54c-1.654,0-3-1.346-3-3v-4.226c1.384,2.876,3.459,5.308,6.148,7.226H8z M54,51c0,1.654-1.346,3-3,3h-3.148
		c2.689-1.917,4.764-4.349,6.148-7.226V51z"/>
	<path d="M23.293,30.707C23.488,30.902,23.744,31,24,31s0.512-0.098,0.707-0.293c0.391-0.391,0.391-1.023,0-1.414
		c-2.729-2.729-7.17-2.729-9.899,0c-0.391,0.391-0.391,1.023,0,1.414s1.023,0.391,1.414,0
		C18.171,28.758,21.344,28.758,23.293,30.707z"/>
</g>
<g>
</g>
<g>
</g>
<g>
</g>
<g>
</g>
<g>
</g>
<g>
</g>
<g>
</g>
<g>
</g>
<g>
</g>
<g>
</g>
<g>
</g>
<g>
</g>
<g>
</g>
<g>
</g>
<g>
</g>
</svg>
