<?xml version="1.0" encoding="iso-8859-1"?>
<!-- Generator: Adobe Illustrator 16.0.0, SVG Export Plug-In . SVG Version: 6.00 Build 0)  -->
<!DOCTYPE svg PUBLIC "-//W3C//DTD SVG 1.1//EN" "http://www.w3.org/Graphics/SVG/1.1/DTD/svg11.dtd">
<svg version="1.1" id="Capa_1" xmlns="http://www.w3.org/2000/svg" xmlns:xlink="http://www.w3.org/1999/xlink" x="0px" y="0px"
	 width="485.211px" height="485.21px" viewBox="0 0 485.211 485.21" style="enable-background:new 0 0 485.211 485.21;"
	 xml:space="preserve">
<g>
	<path d="M212.282,30.326C95.036,30.326,0,125.361,0,242.605c0,117.249,95.036,212.28,212.282,212.28
		c117.244,0,212.279-95.031,212.279-212.28C424.562,125.361,329.526,30.326,212.282,30.326z M307.727,134.971
		c21.767-12.571,49.55-5.108,62.137,16.657c12.555,21.739,5.12,49.579-16.647,62.133c-21.795,12.587-49.606,5.108-62.16-16.629
		C278.501,175.35,285.931,147.558,307.727,134.971z M116.861,350.23c-21.798,12.578-49.604,5.12-62.161-16.646
		c-12.587-21.768-5.126-49.574,16.671-62.129c21.77-12.587,49.546-5.124,62.133,16.639
		C146.061,309.833,138.598,337.667,116.861,350.23z M133.504,197.118c-12.557,21.751-40.396,29.213-62.133,16.643
		c-21.797-12.571-29.23-40.379-16.671-62.133c12.585-21.781,40.363-29.216,62.161-16.645
		C138.598,147.558,146.061,175.334,133.504,197.118z M212.282,424.558c-25.114,0-45.488-20.344-45.488-45.485
		s20.374-45.489,45.488-45.489c25.141,0,45.487,20.348,45.487,45.489S237.423,424.558,212.282,424.558z M212.282,151.627
		c-25.114,0-45.488-20.344-45.488-45.487c0-25.144,20.374-45.49,45.488-45.49c25.141,0,45.487,20.346,45.487,45.49
		C257.77,131.284,237.423,151.627,212.282,151.627z M369.863,333.583c-12.559,21.738-40.37,29.225-62.137,16.646
		c-21.796-12.563-29.226-40.397-16.671-62.137c12.587-21.763,40.365-29.226,62.16-16.639
		C374.983,284.009,382.418,311.816,369.863,333.583z M485.211,394.236v60.649H329.47c27.746-15.401,52.15-36.072,71.901-60.649
		H485.211z"/>
</g>
<g>
</g>
<g>
</g>
<g>
</g>
<g>
</g>
<g>
</g>
<g>
</g>
<g>
</g>
<g>
</g>
<g>
</g>
<g>
</g>
<g>
</g>
<g>
</g>
<g>
</g>
<g>
</g>
<g>
</g>
</svg>
