<?xml version='1.0' encoding='iso-8859-1'?>
<svg version="1.1" xmlns="http://www.w3.org/2000/svg" viewBox="0 0 247.946 247.946" xmlns:xlink="http://www.w3.org/1999/xlink" enable-background="new 0 0 247.946 247.946">
  <g>
    <g>
      <circle cx="82.23" cy="47.572" r="27.59"/>
      <path d="m144.475,143.637l-43.163-2.548-20.404-35.018 18.331,18.299 2.374-11.735c2.041-10.089-4.483-19.922-14.572-21.964l-32.541-6.584c-10.097-2.043-19.946,4.502-21.971,14.606l-12.918,64.473c-2.125,10.607 0.618,21.608 7.475,29.975 1.453,1.773 3.065,3.377 4.796,4.822h-16.882c-8.284,0-15,6.716-15,15s6.716,15 15,15h99.163c13.047,0 23.662-10.615 23.662-23.663v-12.174c0-4.169-1.088-8.087-2.988-11.492-7.475-0.441-42.357-2.5-47.65-2.812-7.215-0.426-13.074-5.465-14.903-12.062l-12.978-47.106 23.779,40.811c2.107,3.617 5.886,5.939 10.064,6.186l49.854,2.943c0.251,0.015 0.5,0.021 0.748,0.021 6.566,0 12.074-5.123 12.467-11.764 0.406-6.89-4.851-12.806-11.743-13.214z"/>
      <path d="m228.503,158.016c-22.261-18.57-16.983-34.792-13.392-41.256 0.748-1.346-0.37-2.977-1.896-2.77-7.346,0.998-22.861,6.134-26.46,31.489-0.007,0.052-0.008,0.106-0.014,0.158-4.572-4.016-11.101-4.759-16.193-4.58-1.939,0.068-2.509,2.714-0.767,3.567 20.632,10.105-5.699,30.077-10.52,47.091-6.249,22.051 8.164,31.564 16.201,35.047 1.558,0.675 3.177-0.915 2.483-2.465-5.242-11.723-0.757-28.021 7.287-36.15 8.134-8.22 9.239-14.844 8.448-23.823-0.142-1.608 1.697-2.665 2.987-1.695 8.201,6.166 11.473,20.31 8.121,31.12-0.425,1.37 0.789,2.699 2.189,2.389 2.978-0.659 7.26-2.435 9.466-7.214 0.406-0.881 1.391-1.371 2.307-1.053 11.032,3.832 16.695,22.238 12.097,37.685-0.438,1.47 1.02,2.817 2.459,2.287 14.791-5.442 25.65-44.422-4.803-69.827z"/>
    </g>
  </g>
</svg>
