<?xml version='1.0' encoding='iso-8859-1'?>
<svg version="1.1" xmlns="http://www.w3.org/2000/svg" viewBox="0 0 313.388 313.388" xmlns:xlink="http://www.w3.org/1999/xlink" enable-background="new 0 0 313.388 313.388">
  <g>
    <g>
      <path d="m225.231,234.492l-35.433-29.992v-10.243h-66.21v10.243l-35.432,29.992c-4.89,4.14-6.611,10.928-4.284,16.896l20.442,52.443c3.015,7.737 11.727,11.532 19.423,8.528 7.719-3.009 11.537-11.705 8.528-19.424l-16.553-42.465 24.3-20.569h33.361l24.3,20.569-16.554,42.465c-3.009,7.719 0.81,16.415 8.527,19.424 7.712,3.008 16.414-0.805 19.424-8.527l20.443-52.443c2.329-5.969 0.607-12.757-4.282-16.897z"/>
      <path d="m92.847,44h13.922l-15.936,27.414c-2.355,4.052-2.246,9.081 0.282,13.027l32.472,50.667v47.148h66.21v-47.149l32.473-50.666c2.528-3.946 2.638-8.976 0.282-13.027l-15.935-27.414h13.923c5.522,0 10-4.478 10-10s-4.478-10-10-10h-25.549l-.164-.282c-4.888-8.41-17.104-8.233-21.758,0.282h-6.376v-14c0-5.523-4.478-10-10-10-5.523,0-10,4.477-10,10v14h-6.376c-4.647-8.503-16.86-8.706-21.758-0.282l-.164,.282h-25.548c-5.522,0-10,4.478-10,10s4.477,10 10,10zm84.852,0l19.403,33.379-21.976,34.287h-36.869l-21.975-34.287 19.404-33.379h42.013z"/>
      <circle cx="156.693" cy="75.947" r="25.907"/>
    </g>
  </g>
</svg>
