<?xml version="1.0" encoding="iso-8859-1"?>
<!-- Generator: Adobe Illustrator 18.1.1, SVG Export Plug-In . SVG Version: 6.00 Build 0)  -->
<svg version="1.1" id="Capa_1" xmlns="http://www.w3.org/2000/svg" xmlns:xlink="http://www.w3.org/1999/xlink" x="0px" y="0px"
	 viewBox="0 0 612 612" style="enable-background:new 0 0 612 612;" xml:space="preserve">
<g>
	<g>
		<path d="M428.242,289.955c-9.722-30.11-9.894-45.693-9.894-70.597c0-62.046-50.3-112.345-112.347-112.345
			s-112.347,50.299-112.347,112.345c0,24.903-0.172,40.487-9.894,70.597c-9.725,30.11-53.368,82.565-53.368,146.437
			c0,96.986,78.623,175.607,175.609,175.607s175.606-78.622,175.606-175.607C481.607,372.52,437.965,320.067,428.242,289.955z"/>
		<path d="M391.54,6.438c-0.058-3.524-2.91-6.369-6.434-6.435L384.671,0c-4.472,0-44.401,0.726-69.546,25.867
			c-13.132,13.134-19.607,30.168-22.791,44.149c-2.729-8.448-7.218-17.552-14.634-24.97c-18.299-18.301-47.225-18.829-50.464-18.829
			l-0.342,0.002c-3.52,0.069-6.374,2.912-6.432,6.434c-0.022,1.284-0.308,31.668,18.829,50.802
			c18.304,18.303,47.226,18.831,50.463,18.831l0.338-0.002l5.609-0.003l0.431,0.003c0,0,0,0,0.002,0
			c4.473,0,44.395-0.727,69.549-25.869C391.962,50.122,391.571,8.208,391.54,6.438z"/>
	</g>
</g>
<g>
</g>
<g>
</g>
<g>
</g>
<g>
</g>
<g>
</g>
<g>
</g>
<g>
</g>
<g>
</g>
<g>
</g>
<g>
</g>
<g>
</g>
<g>
</g>
<g>
</g>
<g>
</g>
<g>
</g>
</svg>
