<?xml version="1.0" encoding="iso-8859-1"?>
<!-- Generator: Adobe Illustrator 19.0.0, SVG Export Plug-In . SVG Version: 6.00 Build 0)  -->
<svg version="1.1" id="Layer_1" xmlns="http://www.w3.org/2000/svg" xmlns:xlink="http://www.w3.org/1999/xlink" x="0px" y="0px"
	 viewBox="0 0 490 490" style="enable-background:new 0 0 490 490;" xml:space="preserve">
<g id="XMLID_470_">
	<g>
		<g>
			<path d="M245,90c-52.383,0-95,42.617-95,95s42.617,95,95,95s95-42.617,95-95S297.383,90,245,90z M245,250
				c-35.841,0-65-29.159-65-65s29.159-65,65-65s65,29.159,65,65S280.841,250,245,250z"/>
			<path d="M0,25v320h490V25H0z M30,55h58.491C82.51,84.344,59.344,107.511,30,113.491V55z M30,315v-58.491
				c29.344,5.98,52.51,29.147,58.491,58.491H30z M460,315h-58.491c5.98-29.344,29.147-52.511,58.491-58.491V315z M460,226.076
				c-45.916,6.597-82.327,43.008-88.924,88.924H118.924c-6.597-45.916-43.008-82.327-88.924-88.924v-82.152
				c45.916-6.597,82.327-43.008,88.924-88.924h252.152c6.597,45.916,43.008,82.327,88.924,88.924V226.076z M460,113.491
				c-29.344-5.98-52.51-29.147-58.491-58.491H460V113.491z"/>
			<rect y="375" width="490" height="30"/>
			<rect y="435" width="490" height="30"/>
		</g>
	</g>
</g>
<g>
</g>
<g>
</g>
<g>
</g>
<g>
</g>
<g>
</g>
<g>
</g>
<g>
</g>
<g>
</g>
<g>
</g>
<g>
</g>
<g>
</g>
<g>
</g>
<g>
</g>
<g>
</g>
<g>
</g>
</svg>
