<?xml version="1.0" encoding="iso-8859-1"?>
<!-- Generator: Adobe Illustrator 18.0.0, SVG Export Plug-In . SVG Version: 6.00 Build 0)  -->
<!DOCTYPE svg PUBLIC "-//W3C//DTD SVG 1.1//EN" "http://www.w3.org/Graphics/SVG/1.1/DTD/svg11.dtd">
<svg version="1.1" id="Capa_1" xmlns="http://www.w3.org/2000/svg" xmlns:xlink="http://www.w3.org/1999/xlink" x="0px" y="0px"
	 viewBox="0 0 478.841 478.841" style="enable-background:new 0 0 478.841 478.841;" xml:space="preserve">
<path d="M344.054,39.975C317.268,14.196,280.109,0,239.42,0s-77.848,14.196-104.634,39.975
	c-26.698,25.694-41.401,61.138-41.401,99.801c0,35.884,12.651,84.441,33.842,129.892c9.511,20.399,19.783,37.979,29.708,50.841
	c12.229,15.848,23.147,23.551,33.38,23.551h6.048v22.502h-25.1v67.244c0,24.833,20.203,45.036,45.036,45.036h46.242
	c24.833,0,45.036-20.203,45.036-45.036v-67.244h-25.1v-22.502h6.048c10.232,0,21.15-7.703,33.38-23.551
	c9.925-12.861,20.197-30.441,29.708-50.841c21.19-45.45,33.842-94.008,33.842-129.892
	C385.456,101.112,370.752,65.669,344.054,39.975z M246.841,324.059V27.596c28.112,23.144,46.018,64.541,49.753,116.217
	c4.259,58.941-10.892,124.227-41.659,180.246H246.841z M218.747,324.059c-30.855-56.178-45.995-121.628-41.625-180.695
	c3.81-51.503,21.691-92.712,49.72-115.78v296.475H218.747z M172.769,308.289c-8.909-11.545-18.646-28.263-27.416-47.073
	c-20.017-42.935-31.968-88.333-31.968-121.44c0-33.176,12.525-63.501,35.271-85.39c14.268-13.732,32.065-23.638,51.975-29.195
	c-24.451,27.432-39.862,68.116-43.456,116.697c-4.398,59.47,9.72,124.889,38.947,182.171h-5.807
	C190.261,324.059,184.607,323.63,172.769,308.289z M262.542,458.841h-46.242c-13.805,0-25.036-11.231-25.036-25.036v-13.249h96.314
	v13.249C287.578,447.609,276.346,458.841,262.542,458.841z M287.578,400.556h-96.314v-13.995h96.314V400.556z M262.478,366.561
	h-46.115v-22.502h46.115V366.561z M333.488,261.216c-8.771,18.811-18.507,35.528-27.416,47.073
	c-11.838,15.341-17.492,15.77-17.546,15.77H277.56c29.139-57.115,43.27-122.358,38.982-181.688
	c-3.597-49.779-19.607-91.338-45.039-118.874c22.624,5.092,42.83,15.632,58.683,30.888c22.745,21.889,35.271,52.214,35.271,85.39
	C365.456,172.883,353.504,218.281,333.488,261.216z"/>
<g>
</g>
<g>
</g>
<g>
</g>
<g>
</g>
<g>
</g>
<g>
</g>
<g>
</g>
<g>
</g>
<g>
</g>
<g>
</g>
<g>
</g>
<g>
</g>
<g>
</g>
<g>
</g>
<g>
</g>
</svg>
