<?xml version="1.0" encoding="iso-8859-1"?>
<!-- Generator: Adobe Illustrator 19.0.0, SVG Export Plug-In . SVG Version: 6.00 Build 0)  -->
<svg version="1.1" id="Layer_1" xmlns="http://www.w3.org/2000/svg" xmlns:xlink="http://www.w3.org/1999/xlink" x="0px" y="0px"
	 viewBox="0 0 495.191 495.191" style="enable-background:new 0 0 495.191 495.191;" xml:space="preserve">
<g id="XMLID_845_">
	<g>
		<g>
			<path d="M207.096,265.191h30c0-25.127-16.943-46.356-40-52.904v-17.096h-30v17.096c-23.057,6.547-40,27.777-40,52.904
				c0,25.216,13.713,43.232,38.613,50.73l1.387,0.418v48.838c-6.068-4.566-10-11.825-10-19.986h-30
				c0,25.127,16.943,46.356,40,52.904v17.096h30v-17.096c23.057-6.547,40-27.777,40-52.904c0-25.216-13.713-43.232-38.613-50.731
				l-1.387-0.418v-48.838C203.165,249.77,207.096,257.03,207.096,265.191z M167.096,284.209c-7.001-3.911-10-9.803-10-19.018
				c0-8.161,3.932-15.421,10-19.986V284.209z M207.096,345.191c0,8.161-3.932,15.421-10,19.986v-39.005
				C204.097,330.083,207.096,335.975,207.096,345.191z"/>
			<path d="M303.096,45.191v105.236c-13.117-11.896-27.945-21.775-44.101-29.332L281.013,0l-98.918,24.729L83.178,0l22.018,121.095
				c-28.558,13.358-52.971,33.971-71.111,60.162c-20.928,30.216-31.99,65.81-31.99,102.934v211h491v-450H303.096z M333.096,75.191
				h130v40h-130V75.191z M182.094,55.652l61.084-15.271l-13.602,74.809h-94.963l-13.602-74.809L182.094,55.652z M32.096,465.191
				v-181c0-61.809,36.395-116.063,92.932-139h114.135c56.537,22.938,92.932,77.191,92.932,139v181H32.096z M333.096,145.191h130v40
				h-130V145.191z M463.096,465.191h-101v-40h101V465.191z M463.096,395.191h-101v-40h101V395.191z M463.096,325.191h-101v-40h101
				V325.191z M463.097,255.191H359.804c-2.2-13.777-5.971-27.181-11.243-40h114.536V255.191z"/>
		</g>
	</g>
</g>
<g>
</g>
<g>
</g>
<g>
</g>
<g>
</g>
<g>
</g>
<g>
</g>
<g>
</g>
<g>
</g>
<g>
</g>
<g>
</g>
<g>
</g>
<g>
</g>
<g>
</g>
<g>
</g>
<g>
</g>
</svg>
