<?xml version="1.0" encoding="iso-8859-1"?>
<!-- Generator: Adobe Illustrator 16.0.0, SVG Export Plug-In . SVG Version: 6.00 Build 0)  -->
<!DOCTYPE svg PUBLIC "-//W3C//DTD SVG 1.1//EN" "http://www.w3.org/Graphics/SVG/1.1/DTD/svg11.dtd">
<svg version="1.1" id="Capa_1" xmlns="http://www.w3.org/2000/svg" xmlns:xlink="http://www.w3.org/1999/xlink" x="0px" y="0px"
	 width="45.916px" height="45.916px" viewBox="0 0 45.916 45.916" style="enable-background:new 0 0 45.916 45.916;"
	 xml:space="preserve">
<g>
	<g>
		<path d="M5.626,25.3l10.182,6.565c0.33,0.212,0.698,0.312,1.063,0.312c0.645,0,1.277-0.316,1.653-0.898
			c0.588-0.912,0.326-2.128-0.586-2.715L7.755,22c-0.912-0.588-2.128-0.325-2.715,0.586C4.452,23.498,4.714,24.713,5.626,25.3z"/>
		<path d="M41.618,38.045H35.58c1.944-2.814,3.085-6.248,3.085-9.935c0-7.535-4.762-13.975-11.434-16.477l2.834-4.394
			c0.674-1.046,0.906-2.317,0.644-3.534c-0.263-1.217-0.999-2.28-2.045-2.955c-2.181-1.406-5.086-0.778-6.491,1.401l-12.3,19.076
			l7.893,5.09l5.592-8.672c4.816,1.05,8.434,5.34,8.434,10.466c0,4.494-2.779,8.383-6.71,9.935H4.298
			c-2.169,0-3.928,1.767-3.928,3.936s1.759,3.935,3.928,3.935h37.32c2.169,0,3.928-1.765,3.928-3.935S43.787,38.045,41.618,38.045z"
			/>
	</g>
</g>
<g>
</g>
<g>
</g>
<g>
</g>
<g>
</g>
<g>
</g>
<g>
</g>
<g>
</g>
<g>
</g>
<g>
</g>
<g>
</g>
<g>
</g>
<g>
</g>
<g>
</g>
<g>
</g>
<g>
</g>
</svg>
