<?xml version="1.0" encoding="iso-8859-1"?>
<!-- Generator: Adobe Illustrator 16.0.0, SVG Export Plug-In . SVG Version: 6.00 Build 0)  -->
<!DOCTYPE svg PUBLIC "-//W3C//DTD SVG 1.1//EN" "http://www.w3.org/Graphics/SVG/1.1/DTD/svg11.dtd">
<svg version="1.1" id="Capa_1" xmlns="http://www.w3.org/2000/svg" xmlns:xlink="http://www.w3.org/1999/xlink" x="0px" y="0px"
	 width="425.497px" height="425.497px" viewBox="0 0 425.497 425.497" style="enable-background:new 0 0 425.497 425.497;"
	 xml:space="preserve">
<g>
	<g>
		<path d="M219.142,349.132c-0.36-0.358-0.75-0.678-1.156-0.967c10.345-31.012,75.403-227.623,75.403-267.524
			C293.389,36.176,257.213,0,212.749,0c-44.465,0-80.641,36.175-80.641,80.641c0,39.901,65.059,236.512,75.405,267.524
			c-0.406,0.289-0.796,0.607-1.156,0.967l-30.467,30.467c-3.524,3.525-3.524,9.261,0,12.783l30.467,30.467
			c1.708,1.707,3.977,2.648,6.392,2.648c2.416,0,4.684-0.941,6.393-2.648l30.468-30.467c3.521-3.522,3.521-9.258,0-12.783
			L219.142,349.132z M212.749,8.35c39.863,0,72.292,32.43,72.292,72.292c0,35.577-56.641,209.422-72.292,256.78
			c-15.651-47.357-72.292-221.203-72.292-256.78C140.457,40.779,172.887,8.35,212.749,8.35z M243.702,386.479l-30.466,30.467
			c-0.167,0.168-0.357,0.201-0.488,0.201s-0.321-0.033-0.488-0.201l-30.467-30.467c-0.269-0.271-0.269-0.707,0-0.978l30.467-30.467
			c0.167-0.168,0.357-0.203,0.488-0.203s0.321,0.035,0.488,0.203l30.466,30.467C243.971,385.772,243.971,386.21,243.702,386.479z"/>
		<path d="M217.297,367.265c-1.215-1.215-2.829-1.883-4.548-1.883c-1.719,0-3.335,0.668-4.552,1.887l-14.171,14.171
			c-2.51,2.51-2.51,6.594,0,9.104l14.171,14.172c1.216,1.215,2.833,1.885,4.552,1.885c1.718,0,3.335-0.67,4.55-1.885l14.172-14.172
			c2.512-2.51,2.512-6.594,0-9.104L217.297,367.265z M212.749,397.458l-11.468-11.469l11.468-11.467l11.466,11.467L212.749,397.458z
			"/>
	</g>
</g>
<g>
</g>
<g>
</g>
<g>
</g>
<g>
</g>
<g>
</g>
<g>
</g>
<g>
</g>
<g>
</g>
<g>
</g>
<g>
</g>
<g>
</g>
<g>
</g>
<g>
</g>
<g>
</g>
<g>
</g>
</svg>
