<?xml version="1.0" encoding="iso-8859-1"?>
<!-- Generator: Adobe Illustrator 18.0.0, SVG Export Plug-In . SVG Version: 6.00 Build 0)  -->
<!DOCTYPE svg PUBLIC "-//W3C//DTD SVG 1.1//EN" "http://www.w3.org/Graphics/SVG/1.1/DTD/svg11.dtd">
<svg version="1.1" id="Capa_1" xmlns="http://www.w3.org/2000/svg" xmlns:xlink="http://www.w3.org/1999/xlink" x="0px" y="0px"
	 viewBox="0 0 71.268 71.268" style="enable-background:new 0 0 71.268 71.268;" xml:space="preserve">
<path style="fill:#231F20;" d="M57.152,57.868c-2.239-6.136-4.854-16.531-4.854-25.639c0-4.99,1.029-8.563,2.221-12.698
	c0.35-1.215,0.705-2.451,1.043-3.752c0.17-0.656,0.066-1.353-0.286-1.931c-0.354-0.579-0.927-0.989-1.588-1.137
	c-2.612-0.585-4.898-2.251-6.478-4.691V2.5c0-1.381-1.119-2.5-2.5-2.5s-2.5,1.119-2.5,2.5v6.769
	c-1.477,4.173-3.999,6.818-6.576,6.818c-2.581,0-5.1-2.646-6.576-6.822V2.5c0-1.381-1.119-2.5-2.5-2.5s-2.5,1.119-2.5,2.5v5.413
	c-1.582,2.5-3.894,4.206-6.546,4.799c-0.661,0.147-1.234,0.558-1.588,1.136c-0.353,0.579-0.456,1.275-0.286,1.932
	c0.338,1.301,0.693,2.537,1.043,3.752c1.191,4.136,2.221,7.708,2.221,12.698c0,8.984-2.474,19.043-4.789,25.461
	c-0.312,0.863-0.125,1.828,0.486,2.514c0.611,0.685,1.548,0.978,2.441,0.768c4.477-1.064,9.252,1.84,13.762,8.262l0.164,0.433
	c0.372,0.965,1.299,1.602,2.333,1.602h5.598c0.916,0,1.759-0.501,2.196-1.306c3.651-6.714,8.358-9.929,13.136-8.804
	c0.892,0.213,1.832-0.085,2.443-0.772C57.283,59.699,57.467,58.732,57.152,57.868z M37.446,66.268h-2.617
	c-5.564-7.881-10.954-10.119-14.821-10.463c2.047-6.662,3.895-15.5,3.895-23.575c0-5.696-1.174-9.77-2.416-14.083
	c-0.129-0.446-0.258-0.896-0.388-1.352c1.653-0.695,3.174-1.688,4.509-2.941c2.384,4.548,6.008,7.233,10.027,7.233
	c4.003,0,7.619-2.669,10.004-7.19c1.324,1.232,2.83,2.211,4.464,2.897c-0.13,0.456-0.259,0.906-0.388,1.353
	c-1.242,4.313-2.416,8.387-2.416,14.083c0,8.171,1.871,17.063,3.945,23.749C46.019,56.417,41.188,60.02,37.446,66.268z"/>
<g>
</g>
<g>
</g>
<g>
</g>
<g>
</g>
<g>
</g>
<g>
</g>
<g>
</g>
<g>
</g>
<g>
</g>
<g>
</g>
<g>
</g>
<g>
</g>
<g>
</g>
<g>
</g>
<g>
</g>
</svg>
