<?xml version="1.0" encoding="iso-8859-1"?>
<!-- Generator: Adobe Illustrator 19.0.0, SVG Export Plug-In . SVG Version: 6.00 Build 0)  -->
<svg version="1.1" id="Capa_1" xmlns="http://www.w3.org/2000/svg" xmlns:xlink="http://www.w3.org/1999/xlink" x="0px" y="0px"
	 viewBox="0 0 463 463" style="enable-background:new 0 0 463 463;" xml:space="preserve">
<g>
	<path d="M399.5,400H399v-16.5c0-8.547-6.953-15.5-15.5-15.5H383V215.5C383,131.962,315.037,64,231.5,64S80,131.962,80,215.5V368
		h-0.5c-8.547,0-15.5,6.953-15.5,15.5V400h-0.5C50.542,400,40,410.542,40,423.5v16c0,12.958,10.542,23.5,23.5,23.5h336
		c12.958,0,23.5-10.542,23.5-23.5v-16C423,410.542,412.458,400,399.5,400z M95,215.5C95,140.234,156.234,79,231.501,79
		C306.767,79,368,140.234,368,215.5V368H255v-93.527c23.411-9.363,40-32.26,40-58.973c0-35.014-28.486-63.5-63.5-63.5
		S168,180.486,168,215.5c0,26.714,16.589,49.611,40,58.973V368H95V215.5z M223,368v-89.585c2.783,0.374,5.616,0.585,8.5,0.585
		s5.717-0.211,8.5-0.585V368H223z M239,263.418v-17.327c13.759-3.374,24-15.806,24-30.591c0-17.369-14.131-31.5-31.5-31.5
		S200,198.131,200,215.5c0,14.785,10.241,27.216,24,30.591v17.327c-23.194-3.616-41-23.725-41-47.918
		c0-26.743,21.757-48.5,48.5-48.5s48.5,21.757,48.5,48.5C280,239.693,262.194,259.802,239,263.418z M231.5,232
		c-9.098,0-16.5-7.402-16.5-16.5s7.402-16.5,16.5-16.5s16.5,7.402,16.5,16.5S240.598,232,231.5,232z M79,383.5
		c0-0.276,0.225-0.5,0.5-0.5h304c0.275,0,0.5,0.224,0.5,0.5V400H79V383.5z M408,439.5c0,4.687-3.813,8.5-8.5,8.5h-336
		c-4.687,0-8.5-3.813-8.5-8.5v-16c0-4.687,3.813-8.5,8.5-8.5h8h320h8c4.687,0,8.5,3.813,8.5,8.5V439.5z"/>
	<path d="M63,215.5c0-4.142-3.357-7.5-7.5-7.5h-32c-4.143,0-7.5,3.358-7.5,7.5s3.357,7.5,7.5,7.5h32C59.643,223,63,219.642,63,215.5
		z"/>
	<path d="M439.5,208h-32c-4.143,0-7.5,3.358-7.5,7.5s3.357,7.5,7.5,7.5h32c4.143,0,7.5-3.358,7.5-7.5S443.643,208,439.5,208z"/>
	<path d="M231.5,47c4.143,0,7.5-3.358,7.5-7.5v-32c0-4.142-3.357-7.5-7.5-7.5S224,3.358,224,7.5v32C224,43.642,227.357,47,231.5,47z
		"/>
	<path d="M355.951,98.549c1.919,0,3.839-0.732,5.304-2.197l22.628-22.627c2.929-2.929,2.929-7.678,0-10.606
		c-2.929-2.929-7.677-2.929-10.607,0l-22.628,22.627c-2.929,2.929-2.929,7.678,0,10.606
		C352.112,97.817,354.031,98.549,355.951,98.549z"/>
	<path d="M101.746,96.353c1.465,1.464,3.385,2.197,5.304,2.197s3.839-0.732,5.304-2.197c2.929-2.929,2.929-7.678,0-10.606
		L89.726,63.119c-2.93-2.929-7.678-2.929-10.607,0c-2.929,2.929-2.929,7.678,0,10.606L101.746,96.353z"/>
</g>
<g>
</g>
<g>
</g>
<g>
</g>
<g>
</g>
<g>
</g>
<g>
</g>
<g>
</g>
<g>
</g>
<g>
</g>
<g>
</g>
<g>
</g>
<g>
</g>
<g>
</g>
<g>
</g>
<g>
</g>
</svg>
