<?xml version="1.0" encoding="iso-8859-1"?>
<!-- Generator: Adobe Illustrator 16.0.0, SVG Export Plug-In . SVG Version: 6.00 Build 0)  -->
<!DOCTYPE svg PUBLIC "-//W3C//DTD SVG 1.1//EN" "http://www.w3.org/Graphics/SVG/1.1/DTD/svg11.dtd">
<svg version="1.1" id="Capa_1" xmlns="http://www.w3.org/2000/svg" xmlns:xlink="http://www.w3.org/1999/xlink" x="0px" y="0px"
	 width="312.728px" height="312.728px" viewBox="0 0 312.728 312.728" style="enable-background:new 0 0 312.728 312.728;"
	 xml:space="preserve">
<g>
	<g>
		<path d="M188.173,223.772H9.522c-2.04,2.47-3.319,5.593-3.319,9.046c0,3.63,1.401,6.913,3.638,9.43h179.812h0.363
			c2.236-2.517,3.635-5.8,3.635-9.43c0-3.453-1.273-6.581-3.314-9.046H188.173z"/>
		<path d="M99.93,306.136c41.956,0,77.855-1.988,92.665-27.186c4.671-7.942,7.26-18.164,7.26-31.399h-7.736h-2.04h-2.532H12.318
			H7.736H0C0,302.744,44.741,306.136,99.93,306.136z"/>
		<path d="M11.606,218.47h176.137h0.508h4.344h7.271c0-20.329-6.11-39.208-16.534-54.991c-17.88-27.063-48.54-44.938-83.401-44.938
			C44.736,118.54,0,163.281,0,218.47h7.27H11.606z M160.097,167.621c4.691,4.521,1.45,11.537-2.959,13.825
			c-4.412,2.289-11.798,0.694-13.007-5.535l-0.049-19.548L160.097,167.621z M93.302,176.952l9.108-17.306l8.883,17.461
			c2.025,6.183-4.122,10.869-9.09,10.822C97.234,187.889,91.456,183.021,93.302,176.952z M43.506,164.504l16.41-10.623
			l-0.795,19.565c-1.261,6.385-8.912,7.462-13.223,4.997C41.588,175.968,38.929,168.895,43.506,164.504z"/>
		<path d="M312.728,66.482h-64.142c0.315-32.77-23.628-59.717-57.053-59.89c-7.27-0.039-7.27,11.234,0,11.272
			c27.424,0.143,45.992,21.994,45.78,48.618h-69.035v17.613h8.679l5.566,69.376c14.131,17.919,22.634,40.465,22.634,64.998v5.303
			h-5.303h-3.221c1.43,2.719,2.32,5.769,2.32,9.046c0,3.434-0.964,6.623-2.527,9.43h3.438h5.302v5.303
			c0,17.657-4.474,30.405-11.904,39.653l0.389,4.806h95.122l15.296-207.915h8.658V66.482L312.728,66.482z"/>
	</g>
</g>
<g>
</g>
<g>
</g>
<g>
</g>
<g>
</g>
<g>
</g>
<g>
</g>
<g>
</g>
<g>
</g>
<g>
</g>
<g>
</g>
<g>
</g>
<g>
</g>
<g>
</g>
<g>
</g>
<g>
</g>
</svg>
