<?xml version="1.0" encoding="iso-8859-1"?>
<!-- Generator: Adobe Illustrator 18.0.0, SVG Export Plug-In . SVG Version: 6.00 Build 0)  -->
<!DOCTYPE svg PUBLIC "-//W3C//DTD SVG 1.1//EN" "http://www.w3.org/Graphics/SVG/1.1/DTD/svg11.dtd">
<svg version="1.1" id="Capa_1" xmlns="http://www.w3.org/2000/svg" xmlns:xlink="http://www.w3.org/1999/xlink" x="0px" y="0px"
	 viewBox="0 0 295.996 295.996" style="enable-background:new 0 0 295.996 295.996;" xml:space="preserve">
<g>
	<path d="M147.998,0C66.392,0,0,66.392,0,147.998s66.392,147.998,147.998,147.998s147.998-66.392,147.998-147.998
		S229.605,0,147.998,0z M147.998,279.996c-36.256,0-69.143-14.696-93.022-38.44c-9.536-9.482-17.631-20.41-23.934-32.42
		C21.442,190.847,16,170.048,16,147.998C16,75.214,75.214,16,147.998,16c34.523,0,65.987,13.328,89.533,35.102
		c12.208,11.288,22.289,24.844,29.558,39.997c8.27,17.238,12.907,36.537,12.907,56.899
		C279.996,220.782,220.782,279.996,147.998,279.996z"/>
	<polygon points="107.102,148.953 136.355,119.698 107.101,90.445 95.788,101.76 113.729,119.698 95.787,137.639 	"/>
	<polygon points="200.207,137.639 182.266,119.698 200.206,101.76 188.894,90.445 159.639,119.698 188.893,148.953 	"/>
	<path d="M230.279,164.997H65.715c0,45.443,36.839,82.283,82.283,82.283C193.441,247.28,230.279,210.441,230.279,164.997z
		 M211.997,180.997h0.165c-7.176,28.846-33.213,50.283-64.246,50.283c-31.035,0-57.073-21.438-64.249-50.283H211.997z"/>
</g>
<g>
</g>
<g>
</g>
<g>
</g>
<g>
</g>
<g>
</g>
<g>
</g>
<g>
</g>
<g>
</g>
<g>
</g>
<g>
</g>
<g>
</g>
<g>
</g>
<g>
</g>
<g>
</g>
<g>
</g>
</svg>
