<?xml version="1.0" encoding="iso-8859-1"?>
<!-- Generator: Adobe Illustrator 19.0.0, SVG Export Plug-In . SVG Version: 6.00 Build 0)  -->
<svg version="1.1" id="Capa_1" xmlns="http://www.w3.org/2000/svg" xmlns:xlink="http://www.w3.org/1999/xlink" x="0px" y="0px"
	 viewBox="0 0 463 463" style="enable-background:new 0 0 463 463;" xml:space="preserve">
<path d="M455.5,32h-408c-4.142,0-7.5,3.357-7.5,7.5V72h-8.5c-4.142,0-7.5,3.357-7.5,7.5v263.624L16.712,416H7.5
	c-4.142,0-7.5,3.357-7.5,7.5s3.358,7.5,7.5,7.5h112c4.142,0,7.5-3.357,7.5-7.5s-3.358-7.5-7.5-7.5h-9.212L103,343.124V191h16.5
	c2.759,0,5.295-1.515,6.604-3.944L179.98,87h71.834l3.252,19.513c-4.247,2.768-7.065,7.551-7.065,12.987v16
	c0,8.547,6.953,15.5,15.5,15.5h8.5v34.234c-9.29,3.138-16,11.93-16,22.266c0,7.853,3.875,14.813,9.81,19.083l-47.613,47.614
	c-0.01,0.01-0.018,0.021-0.028,0.031c-0.164,0.166-0.321,0.338-0.469,0.519c-0.071,0.087-0.133,0.178-0.2,0.268
	c-0.08,0.107-0.163,0.211-0.237,0.322c-0.071,0.107-0.133,0.217-0.199,0.327c-0.06,0.1-0.123,0.199-0.178,0.302
	c-0.06,0.112-0.111,0.227-0.165,0.342c-0.051,0.107-0.104,0.213-0.15,0.323c-0.046,0.112-0.083,0.226-0.124,0.339
	c-0.042,0.117-0.087,0.233-0.124,0.353c-0.035,0.115-0.06,0.231-0.089,0.347c-0.03,0.121-0.064,0.241-0.089,0.364
	c-0.027,0.135-0.043,0.272-0.062,0.409c-0.015,0.106-0.035,0.21-0.046,0.317c-0.024,0.247-0.037,0.495-0.037,0.744V359.5
	c0,4.143,3.358,7.5,7.5,7.5h112c4.142,0,7.5-3.357,7.5-7.5v-79.997c0-0.248-0.013-0.496-0.037-0.744
	c-0.01-0.107-0.031-0.211-0.046-0.317c-0.019-0.136-0.036-0.273-0.062-0.409c-0.024-0.123-0.058-0.243-0.089-0.364
	c-0.029-0.116-0.055-0.232-0.089-0.347c-0.036-0.119-0.081-0.234-0.123-0.351c-0.041-0.114-0.078-0.229-0.125-0.342
	c-0.045-0.109-0.099-0.214-0.149-0.321c-0.054-0.115-0.105-0.231-0.165-0.343c-0.055-0.103-0.118-0.202-0.178-0.302
	c-0.065-0.109-0.127-0.22-0.199-0.327c-0.074-0.111-0.157-0.216-0.237-0.322c-0.067-0.089-0.129-0.181-0.2-0.268
	c-0.148-0.18-0.305-0.353-0.469-0.519c-0.01-0.01-0.018-0.021-0.028-0.031l-47.613-47.614c5.935-4.27,9.81-11.23,9.81-19.083
	c0-10.336-6.71-19.128-16-22.266V151h8.5c8.547,0,15.5-6.953,15.5-15.5v-16c0-5.436-2.819-10.219-7.065-12.987L307.187,87H455.5
	c4.142,0,7.5-3.357,7.5-7.5v-40C463,35.357,459.642,32,455.5,32z M279.5,234.107L317.393,272h-75.786L279.5,234.107z M328,352h-97
	v-65h97V352z M279.5,216c-4.687,0-8.5-3.813-8.5-8.5s3.813-8.5,8.5-8.5s8.5,3.813,8.5,8.5S284.187,216,279.5,216z M55,47h17v25H55
	V47z M47.5,87H88v89H39V87H47.5z M31.788,416l6.5-65h50.425l6.5,65H31.788z M88,336H39V191h49V336z M115.021,176H103V87h59.943
	L115.021,176z M264.354,71h30.293l-5.5,33h-19.293L264.354,71z M296,135.5c0,0.275-0.224,0.5-0.5,0.5h-32
	c-0.276,0-0.5-0.225-0.5-0.5v-16c0-0.275,0.224-0.5,0.5-0.5h32c0.276,0,0.5,0.225,0.5,0.5V135.5z M448,72H309.687l1.211-7.267
	c0.362-2.175-0.25-4.399-1.675-6.081C307.798,56.97,305.705,56,303.5,56h-48c-2.205,0-4.298,0.97-5.723,2.652
	c-1.425,1.682-2.038,3.906-1.675,6.081L249.313,72H95.5H87V47h361V72z"/>
<g>
</g>
<g>
</g>
<g>
</g>
<g>
</g>
<g>
</g>
<g>
</g>
<g>
</g>
<g>
</g>
<g>
</g>
<g>
</g>
<g>
</g>
<g>
</g>
<g>
</g>
<g>
</g>
<g>
</g>
</svg>
