<?xml version="1.0" encoding="iso-8859-1"?>
<!-- Generator: Adobe Illustrator 16.0.0, SVG Export Plug-In . SVG Version: 6.00 Build 0)  -->
<!DOCTYPE svg PUBLIC "-//W3C//DTD SVG 1.1//EN" "http://www.w3.org/Graphics/SVG/1.1/DTD/svg11.dtd">
<svg version="1.1" id="Capa_1" xmlns="http://www.w3.org/2000/svg" xmlns:xlink="http://www.w3.org/1999/xlink" x="0px" y="0px"
	 width="24px" height="24px" viewBox="0 0 24 24" style="enable-background:new 0 0 24 24;" xml:space="preserve">
<g>
	<path d="M15,8c0,0.552-0.446,1-1,1c-0.553,0-1-0.448-1-1s0.447-1,1-1C14.554,7,15,7.448,15,8z M11,8c0-0.552-0.448-1-1-1
		S9,7.448,9,8s0.448,1,1,1S11,8.552,11,8z M10,10.093C10.592,11.639,12,12,12,12s1.408-0.361,2-1.907c-1.148-0.332-2-0.953-2-0.953
		S11.149,9.761,10,10.093z M18.051,21.039H19c0.529,0,0.961,0.432,0.961,0.961S19.529,22.961,19,22.961h-0.008
		C18.992,22.975,19,22.986,19,23c0,0.553-0.446,1-1,1c-2.598,0-4.471-0.186-5.566-0.552c-0.163-0.054-0.305-0.113-0.434-0.175
		c-0.128,0.062-0.271,0.121-0.434,0.175C10.469,23.814,8.596,24,6,24c-0.552,0-1-0.447-1-1c0-0.014,0.007-0.025,0.008-0.039H5
		c-0.531,0-0.961-0.432-0.961-0.961S4.469,21.039,5,21.039h0.949c-1.363-1.172-2.258-2.828-2.744-4.857
		c-0.302,0.187-1.899,1.076-3.203,0.135c-0.073-0.955,1.895-2.414,2.86-4.979c0,0.003,0.001,0.005,0.001,0.008
		c0.254-0.979,0.863-2.612,0.922-3.094C3.785,2.567,8.299,0,12,0s8.215,2.567,8.215,8.252c0.06,0.482,0.668,2.116,0.923,3.096
		c0.002-0.003,0.002-0.006,0.002-0.01c0.965,2.564,2.932,4.023,2.858,4.979c-1.305,0.941-2.901,0.051-3.203-0.135
		C20.312,18.211,19.414,19.867,18.051,21.039z M18.478,13.751c0-2.454-0.927-3.631-0.927-3.631s1.774-6.657-3.237-6.657
		c-1.068,0-1.895,1.186-2.312,1.186s-1.066-1.186-2.313-1.186c-5.012,0-3.238,6.657-3.238,6.657s-0.925,1.177-0.925,3.631
		c0,5.106,3.559,6.489,6.476,6.489S18.478,18.857,18.478,13.751z"/>
</g>
<g>
</g>
<g>
</g>
<g>
</g>
<g>
</g>
<g>
</g>
<g>
</g>
<g>
</g>
<g>
</g>
<g>
</g>
<g>
</g>
<g>
</g>
<g>
</g>
<g>
</g>
<g>
</g>
<g>
</g>
</svg>
