<?xml version="1.0" encoding="iso-8859-1"?>
<!-- Generator: Adobe Illustrator 16.0.0, SVG Export Plug-In . SVG Version: 6.00 Build 0)  -->
<!DOCTYPE svg PUBLIC "-//W3C//DTD SVG 1.1//EN" "http://www.w3.org/Graphics/SVG/1.1/DTD/svg11.dtd">
<svg version="1.1" id="Capa_1" xmlns="http://www.w3.org/2000/svg" xmlns:xlink="http://www.w3.org/1999/xlink" x="0px" y="0px"
	 width="549.877px" height="549.877px" viewBox="0 0 549.877 549.877" style="enable-background:new 0 0 549.877 549.877;"
	 xml:space="preserve">
<g>
	<g>
		<path d="M90.198,422.875l-16.438,9.803c-0.43,0.248-3.089,0.143-7.287-2.545c-5.499-3.52-11.198-9.781-15.625-17.203
			l-33.077-55.414c-2.697-4.543-8.578-6.016-13.11-3.309s-6.015,8.568-3.309,13.109l33.077,55.416
			c5.986,10.021,13.703,18.369,21.735,23.504c5.891,3.777,11.686,5.67,17.002,5.67c3.739,0,7.248-0.936,10.404-2.82l16.428-9.801
			c4.533-2.707,6.015-8.568,3.309-13.111C100.611,421.643,94.74,420.17,90.198,422.875z"/>
		<path d="M376.346,445.223c-5.288,0-9.562,4.275-9.562,9.562v19.125c0,2.381-10.174,9.562-28.688,9.562h-64.547
			c-5.288,0-9.562,4.275-9.562,9.562c0,5.289,4.275,9.562,9.562,9.562h64.547c27.263,0,47.812-12.336,47.812-28.688v-19.125
			C385.908,449.506,381.634,445.223,376.346,445.223z"/>
		<path d="M374.596,279.418l-43.289-16.792l100.999-51.819c13.264-8.654,16.247-25.915,6.675-38.527l-28.286-33.201
			c-3.921-7.841-11.943-13.283-21.314-13.283h-229.5c-13.206,0-23.906,10.701-23.906,23.906c0,13.206,10.701,23.906,23.906,23.906
			h159.684L212.961,225.61c-0.163,0.077-0.334,0.172-0.507,0.239l-0.755,0.373l0.048,0.029c-0.125,0.057-0.229,0.144-0.344,0.2
			c-0.765,0.393-1.511,0.804-2.238,1.263c-0.812,0.517-1.587,1.062-2.352,1.664c-0.708,0.555-1.377,1.109-2.037,1.73
			c-0.698,0.66-1.358,1.367-1.989,2.094c-0.593,0.688-1.167,1.396-1.712,2.161c-0.564,0.794-1.061,1.636-1.549,2.496
			c-0.277,0.488-0.622,0.899-0.88,1.396l-26.785,54.363L65.89,341.967c-14.42,6.58-20.77,23.6-14.19,38.012
			c4.819,10.557,15.233,16.791,26.115,16.791c3.978,0,8.032-0.842,11.886-2.592l115.276-52.594
			c6.024-2.744,10.901-7.486,13.827-13.416l19.699-39.971l90.528,35.113l-31.556,104.031c-4.59,15.166,3.969,31.182,19.125,35.781
			c2.782,0.842,5.584,1.244,8.338,1.244c12.308,0,23.687-7.984,27.445-20.369l39.272-129.484
			C396.025,300.131,388.586,284.85,374.596,279.418z"/>
		<path d="M421.777,103.545c0,25.456,20.703,46.168,46.178,46.168c25.465,0,46.101-20.712,46.101-46.168
			c0-25.474-20.636-46.12-46.101-46.12C442.48,57.425,421.777,78.071,421.777,103.545z"/>
		<path d="M360.874,56.842c0-5.288-4.274-9.562-9.562-9.562H205.483c-5.288,0-9.562,4.274-9.562,9.562s4.274,9.562,9.562,9.562
			h145.828C356.59,66.404,360.874,62.13,360.874,56.842z"/>
		<path d="M145.718,80.844c-5.288,0-9.562,4.274-9.562,9.562s4.274,9.562,9.562,9.562h145.828c5.288,0,9.562-4.274,9.562-9.562
			s-4.274-9.562-9.562-9.562H145.718z"/>
		<path d="M540.314,231.262h-91.542c-5.288,0-9.562,4.274-9.562,9.562s4.274,9.562,9.562,9.562h91.542
			c5.288,0,9.562-4.274,9.562-9.562C549.877,235.545,545.603,231.262,540.314,231.262z"/>
		<path d="M502.801,264.827h-91.542c-5.288,0-9.562,4.274-9.562,9.562c0,5.289,4.274,9.562,9.562,9.562h91.542
			c5.288,0,9.562-4.273,9.562-9.562C512.363,269.101,508.089,264.827,502.801,264.827z"/>
	</g>
</g>
<g>
</g>
<g>
</g>
<g>
</g>
<g>
</g>
<g>
</g>
<g>
</g>
<g>
</g>
<g>
</g>
<g>
</g>
<g>
</g>
<g>
</g>
<g>
</g>
<g>
</g>
<g>
</g>
<g>
</g>
</svg>
