<?xml version="1.0" encoding="iso-8859-1"?>
<!-- Generator: Adobe Illustrator 19.0.0, SVG Export Plug-In . SVG Version: 6.00 Build 0)  -->
<svg version="1.1" id="Layer_1" xmlns="http://www.w3.org/2000/svg" xmlns:xlink="http://www.w3.org/1999/xlink" x="0px" y="0px"
	 viewBox="0 0 340 340" style="enable-background:new 0 0 340 340;" xml:space="preserve">
<g id="XMLID_494_">
	<g>
		<g>
			<path d="M340,193.094c0-33.018-9.423-63.83-25.712-89.914L190.893,316.906h59.374c0-11.309-3.495-21.797-9.455-30.459
				L340,193.094z"/>
			<path d="M301.491,85.344c-17.011-20.734-38.833-37.367-63.757-48.207l-46.509,239.195L301.491,85.344z"/>
			<path d="M0,193.094l99.188,93.353c-5.96,8.662-9.455,19.15-9.455,30.459h59.374L25.712,103.18C9.423,129.264,0,160.076,0,193.094
				z"/>
			<path d="M170,23.094c-16.931,0-33.278,2.486-48.711,7.095L170,280.701l48.711-250.512C203.278,25.581,186.931,23.094,170,23.094z
				"/>
			<path d="M102.265,37.137C77.341,47.977,55.52,64.609,38.509,85.344l110.266,190.988L102.265,37.137z"/>
		</g>
	</g>
</g>
<g>
</g>
<g>
</g>
<g>
</g>
<g>
</g>
<g>
</g>
<g>
</g>
<g>
</g>
<g>
</g>
<g>
</g>
<g>
</g>
<g>
</g>
<g>
</g>
<g>
</g>
<g>
</g>
<g>
</g>
</svg>
