<?xml version="1.0" encoding="utf-8"?>
<!-- Generator: Adobe Illustrator 17.1.0, SVG Export Plug-In . SVG Version: 6.00 Build 0)  -->
<!DOCTYPE svg PUBLIC "-//W3C//DTD SVG 1.1//EN" "http://www.w3.org/Graphics/SVG/1.1/DTD/svg11.dtd">
<svg version="1.1" id="Layer_1" xmlns="http://www.w3.org/2000/svg" xmlns:xlink="http://www.w3.org/1999/xlink" x="0px" y="0px"
	 width="1000px" height="1000px" viewBox="0 0 1000 1000" enable-background="new 0 0 1000 1000" xml:space="preserve">
<g>
	<circle cx="240.8" cy="745.6" r="92.5"/>
	<circle cx="756.9" cy="745.6" r="92.5"/>
	<rect x="323.2" y="316.5" width="27.8" height="61"/>
	<rect x="396" y="422.5" width="27.5" height="61"/>
	<path d="M957.5,694.8V521.4c0-12.6-4.7-24.7-13.3-33.9l-105.3-114c-9.4-10.2-22.7-16-36.6-16.1l-89.1-0.3V219.9
		c0-27.6-22.4-50-50-50H92.3c-27.6,0-50,22.4-50,50v474.9c0,27.6,22.4,50,50,50h20.1c0.4-70.6,57.8-127.7,128.4-127.7
		s128,57.1,128.4,127.7h259.2c0.4-70.6,57.8-127.7,128.4-127.7s128,57.1,128.4,127.7h22.1C935.1,744.8,957.5,722.4,957.5,694.8z
		 M468.6,506c0,12.4-10.1,22.5-22.5,22.5h-50v31.3c0,12.4-10.1,22.5-22.5,22.5S351,572.2,351,559.8v-31.3h-41.7
		c-12.4,0-22.5-10.1-22.5-22.5s10.1-22.5,22.5-22.5H351v-61h-50.3c-12.4,0-22.5-10.1-22.5-22.5V294c0-12.4,10.1-22.5,22.5-22.5H351
		v-31.3c0-12.4,10.1-22.5,22.5-22.5s22.5,10.1,22.5,22.5v31.3h37.7c12.4,0,22.5,10.1,22.5,22.5s-10.1,22.5-22.5,22.5H396v61h50
		c12.4,0,22.5,10.1,22.5,22.5V506z M841.7,500H743c-13.8,0-25-11.2-25-25v-54c0-13.8,11.2-25,25-25h49.9c7.1,0,13.8,3,18.5,8.2
		l48.8,54C874.8,474.3,863.4,500,841.7,500z"/>
</g>
</svg>
