<?xml version="1.0" encoding="iso-8859-1"?>
<!-- Generator: Adobe Illustrator 19.0.0, SVG Export Plug-In . SVG Version: 6.00 Build 0)  -->
<svg version="1.1" id="Capa_1" xmlns="http://www.w3.org/2000/svg" xmlns:xlink="http://www.w3.org/1999/xlink" x="0px" y="0px"
	 viewBox="0 0 463 463" style="enable-background:new 0 0 463 463;" xml:space="preserve">
<g>
	<path d="M431.5,32h-400C14.131,32,0,46.131,0,63.5v336C0,416.869,14.131,431,31.5,431h400c17.369,0,31.5-14.131,31.5-31.5v-336
		C463,46.131,448.869,32,431.5,32z M448,399.5c0,9.098-7.402,16.5-16.5,16.5h-400c-9.098,0-16.5-7.402-16.5-16.5v-336
		C15,54.402,22.402,47,31.5,47h400c9.098,0,16.5,7.402,16.5,16.5V399.5z"/>
	<path d="M391.5,80h-16c-8.547,0-15.5,6.953-15.5,15.5V96H103v-0.5c0-8.547-6.953-15.5-15.5-15.5h-16C62.953,80,56,86.953,56,95.5
		v264c0,4.142,3.358,7.5,7.5,7.5h32c4.142,0,7.5-3.358,7.5-7.5V191h257v168.5c0,4.142,3.358,7.5,7.5,7.5h32
		c4.142,0,7.5-3.358,7.5-7.5v-264C407,86.953,400.047,80,391.5,80z M88,352H71V95.5c0-0.276,0.224-0.5,0.5-0.5h16
		c0.276,0,0.5,0.224,0.5,0.5v8V352z M103,176v-65h257v65H103z M392,352h-17V103.5v-8c0-0.276,0.224-0.5,0.5-0.5h16
		c0.276,0,0.5,0.224,0.5,0.5V352z"/>
	<path d="M35.5,56C29.159,56,24,61.159,24,67.5S29.159,79,35.5,79S47,73.841,47,67.5S41.841,56,35.5,56z"/>
	<path d="M427.5,56c-6.341,0-11.5,5.159-11.5,11.5S421.159,79,427.5,79S439,73.841,439,67.5S433.841,56,427.5,56z"/>
	<path d="M35.5,384c-6.341,0-11.5,5.159-11.5,11.5S29.159,407,35.5,407S47,401.841,47,395.5S41.841,384,35.5,384z"/>
	<path d="M427.5,384c-6.341,0-11.5,5.159-11.5,11.5s5.159,11.5,11.5,11.5s11.5-5.159,11.5-11.5S433.841,384,427.5,384z"/>
</g>
<g>
</g>
<g>
</g>
<g>
</g>
<g>
</g>
<g>
</g>
<g>
</g>
<g>
</g>
<g>
</g>
<g>
</g>
<g>
</g>
<g>
</g>
<g>
</g>
<g>
</g>
<g>
</g>
<g>
</g>
</svg>
