<?xml version="1.0" encoding="iso-8859-1"?>
<!-- Generator: Adobe Illustrator 16.0.0, SVG Export Plug-In . SVG Version: 6.00 Build 0)  -->
<!DOCTYPE svg PUBLIC "-//W3C//DTD SVG 1.1//EN" "http://www.w3.org/Graphics/SVG/1.1/DTD/svg11.dtd">
<svg version="1.1" id="Capa_1" xmlns="http://www.w3.org/2000/svg" xmlns:xlink="http://www.w3.org/1999/xlink" x="0px" y="0px"
	 width="45.104px" height="45.104px" viewBox="0 0 45.104 45.104" style="enable-background:new 0 0 45.104 45.104;"
	 xml:space="preserve">
<g>
	<g>
		<path d="M39.514,13.342c-1.007-0.208-2.093,0.265-2.54,1.188l-4.976,10.309c-0.448,0.931-0.093,2.097,0.696,2.752l3.351,2.396
			c0.579,0.414,1.313,0.55,2.001,0.37c0.689-0.182,1.262-0.657,1.565-1.303l5.265-11.207c0.295-0.629,0.304-1.355,0.021-1.991
			c-0.281-0.637-0.825-1.118-1.49-1.321L39.514,13.342z"/>
		<path d="M41.572,39.639c-7.382-5.236-11.409-3.625-16.506-1.582c-3.33,1.331-7.104,2.844-13.042,2.988
			c-2.692,0.069-6.167-0.296-7.422-2.396c-0.674-1.13-0.657-2.636-0.366-4.064c1.329,0.332,2.755-0.264,3.43-1.515l7.724-14.303
			l10.893,5.259c1.32,0.639,2.91,0.083,3.548-1.237l4.369-9.051c0.258-0.535,0.294-1.151,0.098-1.713
			c-0.196-0.562-0.606-1.022-1.142-1.279L13.935,1.467c-3.138-1.515-6.91-0.2-8.427,2.939L4.497,6.501
			C3.769,8.009,3.67,9.744,4.222,11.325c0.453,1.298,1.315,2.404,2.445,3.162l-6.42,15.002c-0.572,1.336-0.118,2.86,1.024,3.684
			c-0.565,2.194-0.763,4.879,0.564,7.112c1.572,2.644,4.8,3.98,9.601,3.98c0.219,0,0.44-0.002,0.666-0.008
			c6.516-0.161,10.752-1.857,14.156-3.221c4.837-1.937,7.501-3.002,13.453,1.223c0.724,0.513,1.727,0.343,2.24-0.382
			C42.465,41.154,42.295,40.153,41.572,39.639z M8.558,7.336c0.865-1.792,3.021-2.545,4.815-1.679
			c1.792,0.868,2.544,3.021,1.679,4.815c-0.866,1.793-3.021,2.544-4.813,1.68C8.444,11.288,7.691,9.131,8.558,7.336z"/>
	</g>
</g>
<g>
</g>
<g>
</g>
<g>
</g>
<g>
</g>
<g>
</g>
<g>
</g>
<g>
</g>
<g>
</g>
<g>
</g>
<g>
</g>
<g>
</g>
<g>
</g>
<g>
</g>
<g>
</g>
<g>
</g>
</svg>
