<?xml version="1.0" encoding="iso-8859-1"?>
<!-- Generator: Adobe Illustrator 16.0.0, SVG Export Plug-In . SVG Version: 6.00 Build 0)  -->
<!DOCTYPE svg PUBLIC "-//W3C//DTD SVG 1.1//EN" "http://www.w3.org/Graphics/SVG/1.1/DTD/svg11.dtd">
<svg version="1.1" id="Capa_1" xmlns="http://www.w3.org/2000/svg" xmlns:xlink="http://www.w3.org/1999/xlink" x="0px" y="0px"
	 width="371.589px" height="371.589px" viewBox="0 0 371.589 371.589" style="enable-background:new 0 0 371.589 371.589;"
	 xml:space="preserve">
<g>
	<g>
		<path d="M10.512,156.385l231.164,35.647c-1.779-3.578-2.869-7.554-2.869-11.817c0-14.766,11.962-26.728,26.733-26.728
			c14.768,0,26.733,11.962,26.733,26.728c0,7.173-2.861,13.657-7.466,18.466l75.392,11.622c8.752,1.351,12.632-3.979,8.66-11.906
			l-35.401-70.833c-4.172,2.687-9.125,4.29-14.459,4.29c-14.768,0-26.726-11.968-26.726-26.733c0-11.491,7.29-21.213,17.473-24.98
			l-17.429-34.825c-3.955-7.92-13.781-11.547-21.94-8.093L232.122,53.41c5.122,7.019,8.175,15.631,8.175,24.98
			c0,23.463-19.015,42.477-42.49,42.477c-20.977,0-38.365-15.222-41.804-35.223L9.43,147.683
			C1.28,151.141,1.759,155.032,10.512,156.385z M125.661,123.215c4.883,0,8.838,3.95,8.838,8.833c0,4.883-3.955,8.833-8.838,8.833
			c-4.873,0-8.833-3.949-8.833-8.833C116.829,127.165,120.788,123.215,125.661,123.215z"/>
		<path d="M30.294,218.466c17.012,0,30.799,13.793,30.799,30.805c0,16.996-13.788,30.797-30.799,30.797
			c-6.444,0-12.419-1.987-17.364-5.374l3.048,26.361c1.02,8.812,9.011,16.362,17.859,16.875l189.024,11.157
			c-0.068-0.754-0.229-1.476-0.229-2.24c0-14.644,11.857-26.497,26.493-26.497c14.643,0,26.497,11.854,26.497,26.497
			c0,1.815-0.192,3.595-0.529,5.313l59.086,3.486c8.844,0.514,17.34-6.115,18.979-14.827l18.431-98.29L0,162.851l7.598,65.657
			C13.229,222.353,21.297,218.466,30.294,218.466z M135.451,219.127c10.283,0,18.612,8.331,18.612,18.622
			c0,10.287-8.337,18.619-18.612,18.619c-10.293,0-18.623-8.332-18.623-18.619C116.829,227.458,125.158,219.127,135.451,219.127z
			 M98.206,271.243c4.885,0,8.844,3.947,8.844,8.829c0,4.885-3.959,8.832-8.844,8.832c-4.871,0-8.831-3.947-8.831-8.832
			C89.375,275.19,93.335,271.243,98.206,271.243z"/>
	</g>
</g>
<g>
</g>
<g>
</g>
<g>
</g>
<g>
</g>
<g>
</g>
<g>
</g>
<g>
</g>
<g>
</g>
<g>
</g>
<g>
</g>
<g>
</g>
<g>
</g>
<g>
</g>
<g>
</g>
<g>
</g>
</svg>
