<?xml version="1.0" encoding="iso-8859-1"?>
<!-- Generator: Adobe Illustrator 18.0.0, SVG Export Plug-In . SVG Version: 6.00 Build 0)  -->
<!DOCTYPE svg PUBLIC "-//W3C//DTD SVG 1.1//EN" "http://www.w3.org/Graphics/SVG/1.1/DTD/svg11.dtd">
<svg version="1.1" id="Capa_1" xmlns="http://www.w3.org/2000/svg" xmlns:xlink="http://www.w3.org/1999/xlink" x="0px" y="0px"
	 viewBox="0 0 295.996 295.996" style="enable-background:new 0 0 295.996 295.996;" xml:space="preserve">
<g>
	<path d="M147.998,0C66.392,0,0,66.392,0,147.998c0,81.606,66.392,147.998,147.998,147.998c81.606,0,147.998-66.392,147.998-147.998
		C295.996,66.392,229.604,0,147.998,0z M147.998,246.997c-20.805,0-37.668-15-37.668-33c12.915,0,75.334,0,75.334,0
		C185.664,231.997,168.8,246.997,147.998,246.997z M263.214,170.109c-12.222,12.052-29.004,19.534-47.53,19.534
		c-24.992,0-46.809-13.646-58.533-33.646h-18.309c-11.724,20-33.539,33.646-58.532,33.646c-22.162,0-41.825-10.707-54.172-27.138
		c-4.313-5.739-7.729-12.173-10.048-19.099c0.435-12.667,2.663-24.885,6.438-36.41h26.137v16.835
		c0,22.653,18.393,41.083,41.001,41.083c22.607,0,40.999-18.354,40.999-40.916v-17.002h34v16.835
		c0,22.653,18.393,41.083,41.001,41.083c22.607,0,40.999-18.354,40.999-40.916v-17.002h26.805
		c3.774,11.521,6.002,23.736,6.439,36.399C276.5,153.579,270.722,162.707,263.214,170.109z M267.042,90.997H28.954
		C50.265,46.671,95.616,16,147.998,16c34.523,0,65.987,13.328,89.533,35.102C249.712,62.365,259.776,75.885,267.042,90.997z
		 M180.664,106.997h50v17.002c0,13.738-11.215,24.916-24.999,24.916c-13.785,0-25.001-11.252-25.001-25.083V106.997z
		 M64.664,106.997h50v17.002c0,13.738-11.215,24.916-24.999,24.916c-13.785,0-25.001-11.252-25.001-25.083V106.997z"/>
	<circle cx="89.497" cy="126.998" r="16"/>
	<circle cx="206.497" cy="126.998" r="16"/>
</g>
<g>
</g>
<g>
</g>
<g>
</g>
<g>
</g>
<g>
</g>
<g>
</g>
<g>
</g>
<g>
</g>
<g>
</g>
<g>
</g>
<g>
</g>
<g>
</g>
<g>
</g>
<g>
</g>
<g>
</g>
</svg>
