<?xml version="1.0" encoding="iso-8859-1"?>
<!-- Generator: Adobe Illustrator 16.0.0, SVG Export Plug-In . SVG Version: 6.00 Build 0)  -->
<!DOCTYPE svg PUBLIC "-//W3C//DTD SVG 1.1//EN" "http://www.w3.org/Graphics/SVG/1.1/DTD/svg11.dtd">
<svg version="1.1" id="Capa_1" xmlns="http://www.w3.org/2000/svg" xmlns:xlink="http://www.w3.org/1999/xlink" x="0px" y="0px"
	 width="40.503px" height="40.503px" viewBox="0 0 40.503 40.503" style="enable-background:new 0 0 40.503 40.503;"
	 xml:space="preserve">
<g>
	<path d="M39.376,2.319c-0.784-0.182-1.567,0.307-1.75,1.09l-2.931,12.62c-0.094,0.042-0.182,0.089-0.271,0.142v-1.7
		c0-2.521-2.045-4.574-4.563-4.589c0.007-0.061,0.02-0.122,0.02-0.185c0-0.913-0.738-1.653-1.652-1.653H6.195
		c-0.913,0-1.652,0.74-1.652,1.653c0,0.063,0.012,0.124,0.02,0.185C2.043,9.897,0,11.949,0,14.471v4.407
		c0,2.533,2.06,4.59,4.591,4.59h7.527c2.531,0,4.592-2.059,4.592-4.59v-1.652h1.01v1.652c0,2.533,2.059,4.59,4.59,4.59h7.527
		c0.829,0,1.604-0.224,2.275-0.609l-1.635,7.037c-0.559,2.406-2.971,3.909-5.377,3.353c-2.246-0.521-3.703-2.659-3.434-4.898
		l0.762,0.178c0.959,0.224,1.916-0.375,2.139-1.332c0.224-0.959-0.375-1.916-1.332-2.139l-5.888-1.367
		c-0.957-0.223-1.914,0.375-2.138,1.332c-0.224,0.959,0.374,1.916,1.332,2.139l0.381,0.089c-0.866,4.854,2.224,9.604,7.08,10.729
		c5.017,1.166,10.043-1.968,11.207-6.981L38.042,18.8c0.181-0.773-0.034-1.544-0.508-2.109L40.465,4.07
		C40.646,3.284,40.16,2.501,39.376,2.319z M29.836,21.632h-7.527c-1.52,0-2.753-1.235-2.753-2.754v-2.57
		c0-0.507-0.412-0.918-0.918-0.918h-2.848c-0.507,0-0.918,0.411-0.918,0.918v2.57c0,1.519-1.234,2.754-2.755,2.754H4.589
		c-1.521,0-2.755-1.235-2.755-2.754v-4.407c0-1.519,1.234-2.754,2.755-2.754h25.247c1.52,0,2.755,1.235,2.755,2.754v4.407
		C32.591,20.397,31.355,21.632,29.836,21.632z"/>
</g>
<g>
</g>
<g>
</g>
<g>
</g>
<g>
</g>
<g>
</g>
<g>
</g>
<g>
</g>
<g>
</g>
<g>
</g>
<g>
</g>
<g>
</g>
<g>
</g>
<g>
</g>
<g>
</g>
<g>
</g>
</svg>
