<?xml version="1.0" encoding="iso-8859-1"?>
<!-- Generator: Adobe Illustrator 18.0.0, SVG Export Plug-In . SVG Version: 6.00 Build 0)  -->
<!DOCTYPE svg PUBLIC "-//W3C//DTD SVG 1.1//EN" "http://www.w3.org/Graphics/SVG/1.1/DTD/svg11.dtd">
<svg version="1.1" id="Capa_1" xmlns="http://www.w3.org/2000/svg" xmlns:xlink="http://www.w3.org/1999/xlink" x="0px" y="0px"
	 viewBox="0 0 59.977 59.977" style="enable-background:new 0 0 59.977 59.977;" xml:space="preserve">
<g>
	<path d="M44.571,46.29c-1.18,1.178-3.406,1.178-4.586,0c-1.939-1.939-5.475-1.939-7.414,0c-1.18,1.178-3.406,1.178-4.586,0
		c-1.939-1.939-5.475-1.939-7.414,0c-1.223,1.223-3.452,1.307-4.586,0.173c-0.391-0.391-1.023-0.391-1.414,0s-0.391,1.023,0,1.414
		c0.885,0.885,2.16,1.383,3.526,1.383c0.072,0,0.146-0.002,0.22-0.005c1.399-0.054,2.736-0.619,3.668-1.551
		c1.18-1.178,3.406-1.178,4.586,0c0.932,0.932,2.282,1.466,3.707,1.466s2.775-0.534,3.707-1.466c1.18-1.178,3.406-1.178,4.586,0
		c0.932,0.932,2.282,1.466,3.707,1.466s2.775-0.534,3.707-1.466c0.391-0.391,0.391-1.023,0-1.414S44.962,45.899,44.571,46.29z"/>
	<path d="M39.278,25.997c-3.859,0-7,3.141-7,7s3.141,7,7,7s7-3.141,7-7S43.138,25.997,39.278,25.997z M39.278,37.997
		c-2.757,0-5-2.243-5-5s2.243-5,5-5s5,2.243,5,5S42.035,37.997,39.278,37.997z"/>
	<circle cx="39.278" cy="32.997" r="2"/>
	<path d="M21.278,39.997c3.859,0,7-3.141,7-7s-3.141-7-7-7s-7,3.141-7,7S17.419,39.997,21.278,39.997z M21.278,27.997
		c2.757,0,5,2.243,5,5s-2.243,5-5,5s-5-2.243-5-5S18.522,27.997,21.278,27.997z"/>
	<circle cx="21.278" cy="32.997" r="2"/>
	<path d="M56.269,18.84c-0.563-4.082-2.323-7.606-4.825-9.668c-0.644-0.53-1.115-1.365-1.402-2.479
		c-0.826-3.208-3.847-5.451-7.694-5.715c-2.143-0.146-3.994,0.517-6.028,1.331c-0.07,0.028-0.155,0.028-0.277-0.05
		c-0.416-1.106-1.36-1.867-2.658-2.143C30.384-0.51,25.748,1.427,22.03,4.81c0.006-0.89,0.191-1.687,0.695-1.938l1.685-0.843
		l-1.642-0.924c-1.738-0.976-5.925-2.037-9.334,0.945c-1.237,1.083-2.137,2.596-2.599,4.377c-0.095,0.364-0.191,0.755-0.277,1.139
		c-0.038,0.167-0.175,0.218-0.231,0.231c-0.105,0.024-0.196,0-0.298-0.122C9.494,7.023,8.69,6.697,7.859,6.817
		C7.063,6.93,6.398,7.438,6.078,8.179c-1.968,4.568-5.648,16.194,2.2,26.139v16.658c0,2.757,2.243,5,5,5h3v1.695
		c0,1.271,1.034,2.305,2.306,2.305h23.389c1.271,0,2.306-1.034,2.306-2.305v-1.695h3c2.757,0,5-2.243,5-5V34.371
		C53.45,33.053,57.502,27.76,56.269,18.84z M7.914,8.971c0.017-0.037,0.064-0.15,0.223-0.173C8.186,8.794,8.352,8.783,8.53,9
		c0.554,0.661,1.424,0.942,2.268,0.74c0.862-0.209,1.519-0.874,1.712-1.735c0.082-0.362,0.173-0.731,0.262-1.076
		c0.361-1.39,1.046-2.557,1.979-3.373c2.095-1.835,4.415-1.596,5.801-1.195c-0.5,0.948-0.648,2.28-0.419,3.913
		c0.076,0.538,0.443,0.979,0.959,1.149c0.521,0.17,1.089,0.034,1.478-0.358c3.809-3.866,8.204-5.457,10.399-4.99
		c0.94,0.199,1.137,0.72,1.201,0.891c0.198,0.525,0.597,0.942,1.123,1.174c0.557,0.244,1.203,0.254,1.768,0.028
		c1.867-0.747,3.432-1.316,5.149-1.192c2.366,0.161,5.156,1.354,5.894,4.217c0.396,1.532,1.091,2.718,2.067,3.523
		c1.003,0.827,3.412,3.3,4.117,8.398c0.768,5.555-0.699,9.517-2.01,11.811V18.977v-1.747l-1.507,0.885
		c-2.456,1.444-4.603,1.888-6.385,1.314c-0.277-0.089-0.535-0.2-0.774-0.326c-0.059-0.031-0.107-0.071-0.164-0.104
		c-0.172-0.1-0.344-0.201-0.495-0.313c-0.053-0.039-0.094-0.082-0.145-0.123c-0.141-0.113-0.283-0.226-0.404-0.343
		c-0.054-0.052-0.094-0.103-0.144-0.154c-0.104-0.108-0.21-0.216-0.298-0.321c-0.051-0.062-0.088-0.116-0.134-0.175
		c-0.07-0.09-0.146-0.184-0.204-0.267c-0.042-0.061-0.07-0.108-0.106-0.164c-0.045-0.07-0.098-0.147-0.133-0.206
		c-0.021-0.035-0.03-0.054-0.047-0.085c-0.087-0.154-0.141-0.264-0.143-0.267l-0.22-0.508l-0.546-0.084
		c-9.596-1.474-14.262,2.538-15.57,3.94c-6.965-0.755-9.986-2.757-10.013-2.774l-0.74-0.513l-0.587,0.683
		c-0.389,0.453-0.794,0.85-1.201,1.198c-1.221,1.045-2.463,1.649-3.388,1.99l-0.653,0.241v0.697v9.368
		C3.377,22.632,5.842,13.783,7.914,8.971z M42.278,57.672c0,0.168-0.137,0.305-0.306,0.305H18.584c-0.169,0-0.306-0.137-0.306-0.305
		v-1.695h24V57.672z M50.278,50.977c0,1.654-1.346,3-3,3h-3h-28h-3c-1.654,0-3-1.346-3-3V36.788V22.127
		c1.231-0.532,2.768-1.422,4.196-2.885c1.407,0.73,4.807,2.158,10.707,2.729l0.562,0.05l0.337-0.448
		c0.156-0.208,3.893-4.991,13.55-3.68c0.516,0.89,1.798,2.673,4.113,3.429c1.952,0.638,4.144,0.405,6.535-0.693v15.718V50.977z"/>
</g>
<g>
</g>
<g>
</g>
<g>
</g>
<g>
</g>
<g>
</g>
<g>
</g>
<g>
</g>
<g>
</g>
<g>
</g>
<g>
</g>
<g>
</g>
<g>
</g>
<g>
</g>
<g>
</g>
<g>
</g>
</svg>
