<?xml version="1.0" encoding="iso-8859-1"?>
<!-- Generator: Adobe Illustrator 17.1.0, SVG Export Plug-In . SVG Version: 6.00 Build 0)  -->
<!DOCTYPE svg PUBLIC "-//W3C//DTD SVG 1.1//EN" "http://www.w3.org/Graphics/SVG/1.1/DTD/svg11.dtd">
<svg version="1.1" id="Capa_1" xmlns="http://www.w3.org/2000/svg" xmlns:xlink="http://www.w3.org/1999/xlink" x="0px" y="0px"
	 viewBox="0 0 220.721 220.721" style="enable-background:new 0 0 220.721 220.721;" xml:space="preserve">
<path d="M183.298,114.321c-0.006-0.285-0.031-0.569-0.086-0.851c-0.004-0.02-0.005-0.04-0.009-0.059
	c-0.057-0.275-0.147-0.545-0.251-0.81c-0.03-0.075-0.06-0.148-0.093-0.221c-0.027-0.059-0.046-0.12-0.075-0.179L162.017,70.52
	V50.054c0-2.761-2.239-5-5-5h-18.265l0.025-6.303c0.024-6.382,3.776-12.253,9.557-14.958l30.489-14.264
	c2.501-1.17,3.581-4.146,2.41-6.647c-1.169-2.501-4.146-3.579-6.647-2.41l-30.489,14.264c-9.267,4.335-15.28,13.747-15.319,23.977
	l-0.025,6.342H63.704c-2.761,0-5,2.239-5,5v20.465l-20.768,41.682c-0.029,0.059-0.049,0.121-0.076,0.18
	c-0.033,0.072-0.063,0.145-0.092,0.219c-0.105,0.266-0.194,0.536-0.252,0.811c-0.004,0.019-0.005,0.039-0.008,0.059
	c-0.055,0.281-0.08,0.566-0.086,0.851c-0.001,0.038-0.011,0.073-0.011,0.11v101.289c0,2.761,2.239,5,5,5h42.584h93.313
	c2.761,0,5-2.239,5-5V114.431C183.309,114.394,183.299,114.359,183.298,114.321z M159.911,166.554h-51.215c-2.761,0-5-2.239-5-5
	s2.239-5,5-5h51.215c2.761,0,5,2.239,5,5S162.672,166.554,159.911,166.554z M159.911,141.856h-51.215c-2.761,0-5-2.239-5-5
	s2.239-5,5-5h51.215c2.761,0,5,2.239,5,5S162.672,141.856,159.911,141.856z M88.091,109.431l-16.31-32.736h56.847l-0.072,18.393
	c-0.011,2.761,2.219,5.009,4.98,5.02c0.007,0,0.013,0,0.02,0c2.752,0,4.989-2.226,5-4.98l0.072-18.432h15.294l16.31,32.736H88.091z"
	/>
<g>
</g>
<g>
</g>
<g>
</g>
<g>
</g>
<g>
</g>
<g>
</g>
<g>
</g>
<g>
</g>
<g>
</g>
<g>
</g>
<g>
</g>
<g>
</g>
<g>
</g>
<g>
</g>
<g>
</g>
</svg>
