<?xml version="1.0" encoding="iso-8859-1"?>
<!-- Generator: Adobe Illustrator 18.0.0, SVG Export Plug-In . SVG Version: 6.00 Build 0)  -->
<!DOCTYPE svg PUBLIC "-//W3C//DTD SVG 1.1//EN" "http://www.w3.org/Graphics/SVG/1.1/DTD/svg11.dtd">
<svg version="1.1" id="Capa_1" xmlns="http://www.w3.org/2000/svg" xmlns:xlink="http://www.w3.org/1999/xlink" x="0px" y="0px"
	 viewBox="0 0 60.002 60.002" style="enable-background:new 0 0 60.002 60.002;" xml:space="preserve">
<g>
	<path d="M17.219,20.864c-0.391-0.391-1.023-0.391-1.414,0l-3.22,3.22c-0.391,0.391-0.391,1.023,0,1.414
		c0.195,0.195,0.451,0.293,0.707,0.293s0.512-0.098,0.707-0.293l3.22-3.22C17.61,21.888,17.61,21.255,17.219,20.864z"/>
	<path d="M16.878,27.645c0.195,0.195,0.451,0.293,0.707,0.293s0.512-0.098,0.707-0.293l5.366-5.366c0.391-0.391,0.391-1.023,0-1.414
		s-1.023-0.391-1.414,0l-5.366,5.366C16.488,26.621,16.488,27.254,16.878,27.645z"/>
	<path d="M36.902,25.791c0.256,0,0.512-0.098,0.707-0.293l3.22-3.22c0.391-0.391,0.391-1.023,0-1.414s-1.023-0.391-1.414,0
		l-3.22,3.22c-0.391,0.391-0.391,1.023,0,1.414C36.391,25.693,36.646,25.791,36.902,25.791z"/>
	<path d="M40.488,27.645c0.195,0.195,0.451,0.293,0.707,0.293s0.512-0.098,0.707-0.293l5.366-5.366c0.39-0.391,0.39-1.023,0-1.414
		c-0.391-0.391-1.024-0.391-1.415,0l-5.366,5.366C40.098,26.621,40.098,27.254,40.488,27.645z"/>
	<path d="M59.795,26.568c-0.401-1.697-1.364-3.155-2.575-3.902c-0.813-0.499-1.679-0.657-2.509-0.462
		c-0.189,0.045-0.371,0.115-0.548,0.198c-2.336-5.685-5.98-9.363-9.727-11.736l1.359-2.719c0.247-0.494,0.047-1.095-0.447-1.342
		c-0.495-0.247-1.095-0.047-1.342,0.447l-1.302,2.604c-0.617-0.328-1.231-0.626-1.837-0.892l0.983-2.949
		c0.175-0.524-0.108-1.091-0.632-1.265c-0.525-0.177-1.09,0.108-1.265,0.632l-0.948,2.844c-0.693-0.248-1.366-0.461-2.011-0.642
		l0.856-2.569c0.175-0.524-0.108-1.091-0.632-1.265c-0.526-0.175-1.091,0.108-1.265,0.632l-0.908,2.723
		C33.779,6.64,32.7,6.495,31.9,6.418V4.5c0-0.553-0.448-1-1-1s-1,0.447-1,1v1.843c-0.525,0.026-1.441,0.097-2.632,0.284
		l-0.382-2.291c-0.091-0.544-0.604-0.92-1.151-0.822c-0.544,0.091-0.913,0.606-0.822,1.15l0.39,2.34
		c-1.072,0.242-2.258,0.573-3.508,1.02l-0.947-2.84c-0.174-0.523-0.74-0.809-1.265-0.632c-0.524,0.174-0.807,0.74-0.632,1.265
		l0.981,2.944c-0.863,0.378-1.741,0.822-2.621,1.327l-1.517-3.034c-0.247-0.494-0.846-0.694-1.342-0.447
		c-0.494,0.247-0.694,0.848-0.447,1.342l1.601,3.201c-0.881,0.602-1.749,1.288-2.594,2.05l-2.405-2.405
		c-0.391-0.391-1.023-0.391-1.414,0s-0.391,1.023,0,1.414l2.388,2.388c-3.075,3.272-5.646,7.835-6.826,14.213
		c-0.015,0.083-0.025,0.166-0.04,0.249c-0.254-0.07-0.512-0.118-0.776-0.118C1.73,28.938,0,31.321,0,34.363
		c0,3.041,1.73,5.424,3.939,5.424c0.403,0,0.798-0.102,1.177-0.267c0.701,2.671,1.863,5.178,3.459,7.378
		c3.194,4.404,9.466,9.605,21.266,9.605c0.182,0,0.366-0.001,0.551-0.004c0.186,0.003,0.368,0.004,0.551,0.004
		c11.797,0,18.071-5.202,21.266-9.605c2.879-3.969,4.344-8.942,4.23-14.07c0.035,0.001,0.07,0.007,0.104,0.007
		c0.227,0,0.451-0.025,0.672-0.078C59.363,32.245,60.496,29.526,59.795,26.568z M14.193,17.207c0.195,0.195,0.451,0.293,0.707,0.293
		s0.512-0.098,0.707-0.293c0.391-0.391,0.391-1.023,0-1.414l-1.23-1.23c0.684-0.619,1.384-1.181,2.095-1.683l0.534,1.067
		c0.175,0.351,0.528,0.553,0.896,0.553c0.15,0,0.303-0.034,0.446-0.105c0.494-0.247,0.694-0.848,0.447-1.342l-0.629-1.257
		c0.795-0.464,1.59-0.872,2.372-1.22l0.414,1.24c0.14,0.419,0.53,0.684,0.949,0.684c0.104,0,0.211-0.017,0.316-0.052
		c0.524-0.174,0.807-0.74,0.632-1.265l-0.45-1.35c1.148-0.407,2.235-0.7,3.224-0.917l0.291,1.748
		c0.082,0.489,0.505,0.836,0.985,0.836c0.054,0,0.11-0.004,0.166-0.014c0.544-0.091,0.913-0.606,0.822-1.15L27.59,8.558
		c1.021-0.146,1.824-0.201,2.31-0.22V10.5c0,0.553,0.448,1,1,1s1-0.447,1-1V8.425c0.666,0.065,1.52,0.177,2.514,0.371l-0.463,1.388
		c-0.175,0.524,0.108,1.091,0.632,1.265c0.105,0.035,0.212,0.052,0.316,0.052c0.419,0,0.809-0.265,0.949-0.684l0.521-1.562
		c0.644,0.175,1.319,0.384,2.014,0.632l-0.433,1.298c-0.175,0.524,0.108,1.091,0.632,1.265c0.105,0.035,0.212,0.052,0.316,0.052
		c0.419,0,0.809-0.265,0.949-0.684l0.395-1.185c0.177,0.079,0.353,0.153,0.531,0.238c0.36,0.171,0.708,0.354,1.054,0.538
		l-0.823,1.646c-0.247,0.494-0.047,1.095,0.447,1.342c0.144,0.071,0.296,0.105,0.446,0.105c0.367,0,0.72-0.202,0.896-0.553
		l0.763-1.527c2.798,1.803,5.082,4.115,6.838,6.925c-6.089-2.496-13.106-2.093-18.892,1.213l-0.022,0.013h-1.573l-0.022-0.013
		c-6.054-3.458-13.45-3.733-19.724-0.842c0.848-1.419,1.793-2.657,2.796-3.745L14.193,17.207z M51.387,22.015
		c-0.052,3.313-0.632,6.692-4.93,7.157c-5.294,0.575-9.084-0.13-11.265-2.088c-1.337-1.2-2.068-2.905-2.177-5.074
		C38.732,18.972,45.667,18.973,51.387,22.015z M28.375,22.01c-0.109,2.169-0.84,3.874-2.177,5.074
		c-2.18,1.958-5.968,2.663-11.265,2.088c-4.297-0.465-4.877-3.845-4.929-7.157C15.722,18.971,22.658,18.972,28.375,22.01z
		 M4.674,37.488c-0.206,0.167-0.456,0.299-0.734,0.299C3.022,37.787,2,36.381,2,34.363c0-2.019,1.022-3.425,1.939-3.425
		c0.167,0,0.335,0.047,0.504,0.14c-0.049,0.533-0.081,1.066-0.096,1.597c-0.001,0.033,0,0.067-0.001,0.1
		c-0.011,0.446-0.009,0.889,0.004,1.332c0.004,0.136,0.009,0.272,0.015,0.408c0.016,0.359,0.042,0.717,0.073,1.074
		c0.012,0.141,0.021,0.283,0.036,0.423c0.047,0.438,0.106,0.874,0.177,1.307C4.66,37.375,4.664,37.432,4.674,37.488z M50.591,45.725
		c-4.316,5.948-11.094,8.912-20.185,8.775h-0.027c-9.103,0.118-15.869-2.826-20.185-8.775c-2.062-2.843-3.329-6.257-3.726-9.867
		c-0.008-0.077-0.009-0.155-0.017-0.231c-0.057-0.571-0.089-1.146-0.102-1.725c-0.005-0.252-0.001-0.504,0.002-0.757
		c0.004-0.406,0.021-0.813,0.047-1.221c0.019-0.294,0.039-0.589,0.069-0.884c0.064-0.623,0.138-1.246,0.253-1.868
		c0.347-1.875,0.82-3.578,1.391-5.131c0.325,2.937,1.599,6.579,6.606,7.12c1.243,0.135,2.417,0.201,3.519,0.201
		c4.111,0,7.23-0.934,9.297-2.789c1.65-1.481,2.591-3.497,2.807-6.001h0.709c0.216,2.504,1.156,4.52,2.806,6.001
		c2.068,1.855,5.186,2.789,9.298,2.789c1.102,0,2.275-0.066,3.519-0.201c4.299-0.465,5.843-3.216,6.4-5.844
		c0.145,0.452,0.3,0.902,0.423,1.359c0.013,0.049,0.026,0.098,0.038,0.147c0.204,0.769,0.382,1.548,0.53,2.348
		c0.122,0.658,0.203,1.317,0.268,1.975c0.013,0.128,0.029,0.253,0.04,0.382C54.791,36.694,53.464,41.764,50.591,45.725z
		 M56.751,30.812c-0.136,0.031-0.283,0.03-0.436,0c-0.004-0.036-0.011-0.069-0.015-0.105c-0.068-0.631-0.153-1.262-0.269-1.892
		c-0.001-0.003-0.001-0.006-0.001-0.009c-0.002-0.012-0.006-0.023-0.008-0.035c-0.141-0.759-0.306-1.487-0.485-2.195
		c-0.02-0.079-0.045-0.157-0.066-0.237c-0.18-0.692-0.379-1.359-0.593-2.004c-0.005-0.014-0.008-0.029-0.013-0.043
		c0.101-0.07,0.204-0.117,0.309-0.143c0.384-0.091,0.752,0.069,0.995,0.22c0.758,0.467,1.401,1.486,1.68,2.66
		C58.314,28.993,57.645,30.6,56.751,30.812z"/>
	<path d="M43,34.5c-0.552,0-1,0.447-1,1s0.448,1,1,1c0.307,0,0.597,0.06,0.876,0.146c-2.369,4.31-6.226,7.495-10.926,8.975
		c-4.438,1.397-9.129,1.11-13.352-0.756C20.018,44.639,20.491,44.5,21,44.5c0.552,0,1-0.447,1-1s-0.448-1-1-1c-2.757,0-5,2.243-5,5
		c0,0.553,0.448,1,1,1s1-0.447,1-1c0-0.376,0.077-0.732,0.204-1.064c2.9,1.385,5.971,2.053,9.005,2.053
		c7.348,0,14.453-3.873,18.289-10.644C45.814,38.321,46,38.889,46,39.5c0,0.553,0.448,1,1,1c0.553,0,1-0.447,1-1
		C48,36.743,45.757,34.5,43,34.5z"/>
</g>
<g>
</g>
<g>
</g>
<g>
</g>
<g>
</g>
<g>
</g>
<g>
</g>
<g>
</g>
<g>
</g>
<g>
</g>
<g>
</g>
<g>
</g>
<g>
</g>
<g>
</g>
<g>
</g>
<g>
</g>
</svg>
