<?xml version="1.0" encoding="iso-8859-1"?>
<!-- Generator: Adobe Illustrator 19.0.0, SVG Export Plug-In . SVG Version: 6.00 Build 0)  -->
<svg version="1.1" id="Capa_1" xmlns="http://www.w3.org/2000/svg" xmlns:xlink="http://www.w3.org/1999/xlink" x="0px" y="0px"
	 viewBox="0 0 463 463" style="enable-background:new 0 0 463 463;" xml:space="preserve">
<g>
	<path d="M455.5,412H447V211.5c0-2.702-1.454-5.195-3.805-6.526c-2.352-1.331-5.237-1.296-7.554,0.095L367,246.254V211.5
		c0-2.702-1.454-5.195-3.805-6.526c-2.352-1.331-5.237-1.296-7.554,0.095L287,246.254V211.5c0-2.702-1.454-5.195-3.805-6.526
		c-2.352-1.331-5.237-1.296-7.554,0.095L207,246.254V211.5c0-2.702-1.454-5.195-3.805-6.526c-2.352-1.331-5.237-1.296-7.554,0.095
		L117.422,252h-6.695l-7.444-201h0.217c4.142,0,7.5-3.357,7.5-7.5s-3.358-7.5-7.5-7.5h-64c-4.142,0-7.5,3.357-7.5,7.5
		s3.358,7.5,7.5,7.5h0.217l-7.444,201H23.5c-4.142,0-7.5,3.357-7.5,7.5V412H7.5c-4.142,0-7.5,3.357-7.5,7.5s3.358,7.5,7.5,7.5h448
		c4.142,0,7.5-3.357,7.5-7.5S459.642,412,455.5,412z M287,380v-17h65v17H287z M207,380v-17h65v17H207z M167,380v-17h25v17H167z
		 M367,363h65v17h-65V363z M287,316v-17h65v17H287z M207,316v-17h65v17H207z M167,316v-17h25v17H167z M367,299h65v17h-65V299z
		 M195.805,266.026c2.352,1.331,5.237,1.296,7.554-0.095L272,224.746V259.5c0,2.702,1.454,5.195,3.805,6.526
		c2.352,1.331,5.237,1.296,7.554-0.095L352,224.746V259.5c0,2.702,1.454,5.195,3.805,6.526c2.352,1.331,5.237,1.296,7.554-0.095
		L432,224.746V284H159.5c-4.142,0-7.5,3.357-7.5,7.5v32c0,4.143,3.358,7.5,7.5,7.5H432v17H159.5c-4.142,0-7.5,3.357-7.5,7.5v32
		c0,4.143,3.358,7.5,7.5,7.5H432v17H127V263.747l65-39.001V259.5C192,262.202,193.454,264.695,195.805,266.026z M49.098,203h44.805
		l0.63,17H48.468L49.098,203z M88.272,51l5.074,137H49.653l5.074-137H88.272z M47.912,235h47.175l0.63,17H47.283L47.912,235z
		 M31,412V267h81v145H31z"/>
	<path d="M95.5,284h-48c-4.142,0-7.5,3.357-7.5,7.5v32c0,4.143,3.358,7.5,7.5,7.5h48c4.142,0,7.5-3.357,7.5-7.5v-32
		C103,287.357,99.642,284,95.5,284z M88,316H55v-17h33V316z"/>
	<path d="M95.5,348h-48c-4.142,0-7.5,3.357-7.5,7.5v32c0,4.143,3.358,7.5,7.5,7.5h48c4.142,0,7.5-3.357,7.5-7.5v-32
		C103,351.357,99.642,348,95.5,348z M88,380H55v-17h33V380z"/>
</g>
<g>
</g>
<g>
</g>
<g>
</g>
<g>
</g>
<g>
</g>
<g>
</g>
<g>
</g>
<g>
</g>
<g>
</g>
<g>
</g>
<g>
</g>
<g>
</g>
<g>
</g>
<g>
</g>
<g>
</g>
</svg>
