<?xml version="1.0" encoding="iso-8859-1"?>
<!-- Generator: Adobe Illustrator 18.0.0, SVG Export Plug-In . SVG Version: 6.00 Build 0)  -->
<!DOCTYPE svg PUBLIC "-//W3C//DTD SVG 1.1//EN" "http://www.w3.org/Graphics/SVG/1.1/DTD/svg11.dtd">
<svg version="1.1" id="Capa_1" xmlns="http://www.w3.org/2000/svg" xmlns:xlink="http://www.w3.org/1999/xlink" x="0px" y="0px"
	 viewBox="0 0 55.324 55.324" style="enable-background:new 0 0 55.324 55.324;" xml:space="preserve">
<g>
	<circle cx="21.162" cy="35.325" r="2"/>
	<path d="M16.722,46.024c-0.234,0.501-0.018,1.096,0.482,1.33c1.175,0.549,2.429,0.825,3.688,0.825c1.001,0,2.005-0.175,2.974-0.526
		c1.633-0.592,3.02-1.635,4.029-3.003c1.009,1.368,2.396,2.41,4.029,3.003c0.969,0.352,1.973,0.526,2.974,0.526
		c1.258,0,2.513-0.276,3.688-0.825c0.5-0.234,0.716-0.829,0.482-1.33c-1.971-4.216-6.909-6.105-11.173-4.368
		C23.631,39.919,18.694,41.808,16.722,46.024z M23.184,45.773c-1.339,0.486-2.765,0.534-4.11,0.151
		c1.619-2.37,4.598-3.451,7.361-2.671C25.647,44.41,24.522,45.288,23.184,45.773z M36.716,45.925
		c-1.346,0.381-2.771,0.334-4.11-0.151c-1.338-0.485-2.463-1.363-3.25-2.52C32.119,42.476,35.098,43.557,36.716,45.925z"/>
	<path d="M49.048,28.637c-0.043-0.205-0.097-0.422-0.149-0.637h0.264c1.654,0,3-1.346,3-3s-1.346-3-3-3h-1.333l-0.444-1.064
		c-2.621-6.29-2.376-13.394,0.671-19.488c0.155-0.31,0.138-0.678-0.044-0.973S47.509,0,47.162,0h-39C7.815,0,7.494,0.18,7.312,0.475
		S7.113,1.138,7.268,1.447c3.048,6.095,3.292,13.198,0.671,19.488L7.495,22H7.162c-1.654,0-3,1.346-3,3
		c0,1.407,0.977,2.582,2.286,2.905c-0.062,0.249-0.122,0.496-0.172,0.732c-1.808,0.979-3.114,3.109-3.114,5.188
		c0,2.154,1.268,4.09,3.208,4.979c2.496,9.754,11.177,16.521,21.292,16.521c8.229,0,15.507-4.479,19.28-11.4
		c0.078-0.101,0.133-0.213,0.168-0.339c0.781-1.493,1.411-3.089,1.844-4.781c1.94-0.89,3.208-2.825,3.208-4.979
		C52.162,31.746,50.855,29.615,49.048,28.637z M9.725,2H45.6c-1.353,3.191-2.025,6.593-2.015,10H11.739
		C11.749,8.593,11.078,5.191,9.725,2z M9.785,21.705c1.035-2.483,1.652-5.083,1.867-7.705h32.021
		c0.215,2.622,0.832,5.222,1.867,7.705L45.662,22h-36L9.785,21.705z M7.162,24h1h39h2c0.551,0,1,0.448,1,1s-0.449,1-1,1h-1.57H7.732
		h-0.57c-0.551,0-1-0.448-1-1S6.611,24,7.162,24z M47.782,37.121c-0.328,0.111-0.574,0.384-0.652,0.721
		c-0.364,1.573-0.914,3.058-1.606,4.449c-3.695-0.344-5.362-3.667-5.362-6.966c0-2.757-2.243-5-5-5s-5,2.243-5,5s2.243,5,5,5
		c1.387,0,2.643-0.57,3.55-1.485c0.937,2.801,3.017,4.755,5.768,5.318c-3.585,5.606-9.823,9.166-16.817,9.166
		c-9.354,0-17.36-6.366-19.468-15.482c-0.078-0.337-0.324-0.609-0.652-0.721c-1.423-0.484-2.38-1.81-2.38-3.297
		c0-1.448,1.063-3.051,2.37-3.571c0.322-0.128,0.554-0.413,0.615-0.755C8.23,29.027,8.34,28.54,8.486,28h38.352
		c0.146,0.54,0.256,1.027,0.339,1.498c0.061,0.342,0.293,0.627,0.615,0.755c1.307,0.521,2.37,2.123,2.37,3.571
		C50.162,35.312,49.206,36.637,47.782,37.121z M38.162,35.325c0,1.654-1.346,3-3,3s-3-1.346-3-3s1.346-3,3-3
		S38.162,33.671,38.162,35.325z"/>
</g>
<g>
</g>
<g>
</g>
<g>
</g>
<g>
</g>
<g>
</g>
<g>
</g>
<g>
</g>
<g>
</g>
<g>
</g>
<g>
</g>
<g>
</g>
<g>
</g>
<g>
</g>
<g>
</g>
<g>
</g>
</svg>
