<?xml version="1.0" encoding="iso-8859-1"?>
<!-- Generator: Adobe Illustrator 16.0.0, SVG Export Plug-In . SVG Version: 6.00 Build 0)  -->
<!DOCTYPE svg PUBLIC "-//W3C//DTD SVG 1.1//EN" "http://www.w3.org/Graphics/SVG/1.1/DTD/svg11.dtd">
<svg version="1.1" id="Capa_1" xmlns="http://www.w3.org/2000/svg" xmlns:xlink="http://www.w3.org/1999/xlink" x="0px" y="0px"
	 width="477.164px" height="477.164px" viewBox="0 0 477.164 477.164" style="enable-background:new 0 0 477.164 477.164;"
	 xml:space="preserve">
<g>
	<g>
		<path d="M117.254,424.695v13.115l63.574,39.354h57.755h57.755l63.578-39.354v-13.115c0,0,66.596-28.257,66.596-98.896
			c0,0,7.842-19.168-93.958-53.479c-101.805-34.308,0.067-146.325,0.067-146.325v-10.089c0,0,2.785-15.843-64.547-19.446
			c9.81-58.691,89.173-47.809,63.581-73.39c-27.246-27.25-93.072-22.8-93.072-22.8s-65.824-4.442-93.074,22.8
			c-25.573,25.574,53.784,14.699,63.59,73.39c-67.335,3.603-64.556,19.446-64.556,19.446v10.089c0,0,101.875,112.01,0.07,146.325
			c-101.803,34.304-93.96,53.479-93.96,53.479C50.652,396.438,117.254,424.695,117.254,424.695z"/>
	</g>
</g>
<g>
</g>
<g>
</g>
<g>
</g>
<g>
</g>
<g>
</g>
<g>
</g>
<g>
</g>
<g>
</g>
<g>
</g>
<g>
</g>
<g>
</g>
<g>
</g>
<g>
</g>
<g>
</g>
<g>
</g>
</svg>
