<?xml version="1.0" encoding="iso-8859-1"?>
<!-- Generator: Adobe Illustrator 18.0.0, SVG Export Plug-In . SVG Version: 6.00 Build 0)  -->
<!DOCTYPE svg PUBLIC "-//W3C//DTD SVG 1.1//EN" "http://www.w3.org/Graphics/SVG/1.1/DTD/svg11.dtd">
<svg version="1.1" id="Capa_1" xmlns="http://www.w3.org/2000/svg" xmlns:xlink="http://www.w3.org/1999/xlink" x="0px" y="0px"
	 viewBox="0 0 295.996 295.996" style="enable-background:new 0 0 295.996 295.996;" xml:space="preserve">
<g>
	<path d="M147.998,0C66.392,0,0,66.392,0,147.998c0,81.606,66.392,147.998,147.998,147.998c81.606,0,147.998-66.392,147.998-147.998
		C295.996,66.392,229.605,0,147.998,0z M147.998,279.996c-36.257,0-69.143-14.696-93.023-38.44
		c-9.536-9.482-17.631-20.41-23.934-32.42C21.442,190.847,16,170.048,16,147.998c0-13.939,2.179-27.378,6.202-40.001h10.462v23.098
		c0,25.286,19.285,46.185,43.843,49.074c-0.679,2.738-2.034,5.314-4.156,7.436c-3.866,3.864-9.191,5.477-14.318,4.317l-3.516,15.604
		c2.284,0.519,4.597,0.771,6.883,0.771c4.824,0,9.573-1.138,13.901-3.296c17.439,22.37,44.664,35.615,72.974,35.615
		c3.443,0,6.904-0.195,10.364-0.595c26.959-3.109,51.886-18.63,66.677-41.519l-13.437-8.684
		c-12.225,18.915-32.812,31.74-55.073,34.308c-26.645,3.081-53.265-8.444-69.381-29.605c3.169-4.533,4.909-9.735,5.402-15.125
		c22.267-4.801,38.836-24.535,38.836-48.093v-23.308h31v23.098c0,27.255,22.206,49.428,49.501,49.428
		c27.294,0,49.499-22.079,49.499-49.218v-23.308h12.13c4.023,12.623,6.202,26.062,6.202,40.001
		C279.996,220.782,220.782,279.996,147.998,279.996z M178.664,107.997h67v23.308c0,18.316-15.027,33.218-33.499,33.218
		c-18.473,0-33.501-14.996-33.501-33.428V107.997z M28.486,91.997C49.593,47.135,95.225,16,147.998,16
		c34.523,0,65.987,13.328,89.533,35.102c12.208,11.288,22.289,24.844,29.558,39.997c0.144,0.297,0.279,0.6,0.421,0.898h-0.198
		H28.486z M82.165,164.523c-18.473,0-33.501-14.996-33.501-33.428v-23.098h67v23.308
		C115.664,149.621,100.637,164.523,82.165,164.523z"/>
	<circle cx="82.497" cy="133.998" r="16"/>
	<circle cx="212.497" cy="133.998" r="16"/>
</g>
<g>
</g>
<g>
</g>
<g>
</g>
<g>
</g>
<g>
</g>
<g>
</g>
<g>
</g>
<g>
</g>
<g>
</g>
<g>
</g>
<g>
</g>
<g>
</g>
<g>
</g>
<g>
</g>
<g>
</g>
</svg>
