<?xml version="1.0" encoding="iso-8859-1"?>
<!-- Generator: Adobe Illustrator 18.0.0, SVG Export Plug-In . SVG Version: 6.00 Build 0)  -->
<!DOCTYPE svg PUBLIC "-//W3C//DTD SVG 1.1//EN" "http://www.w3.org/Graphics/SVG/1.1/DTD/svg11.dtd">
<svg version="1.1" id="Capa_1" xmlns="http://www.w3.org/2000/svg" xmlns:xlink="http://www.w3.org/1999/xlink" x="0px" y="0px"
	 viewBox="0 0 58.53 58.53" style="enable-background:new 0 0 58.53 58.53;" xml:space="preserve">
<path d="M52.551,23.053c-0.939-9.311-7.074-20.351-18.323-22.59C32.686,0.156,31.089,0,29.484,0C21.411,0,13.691,3.871,9.336,10.102
	c-0.11,0.157-0.217,0.315-0.323,0.476c-4.832,7.321-4.076,17.498,1.721,23.168c0.432,0.422,0.891,0.824,1.349,1.225
	c1.089,0.952,2.118,1.852,2.788,3.027c1.099,1.926,1.111,4.601,0.032,7.157c-1.001,2.37-2.714,4.381-4.371,6.327
	c-0.13,0.153-0.156,0.369-0.066,0.548c0.09,0.18,0.283,0.287,0.479,0.275c3.791-0.238,7.421-2.294,9.959-5.641
	c2.537-3.347,3.537-7.397,2.743-11.112c-0.041-0.193-0.191-0.343-0.385-0.384c-0.188-0.043-0.391,0.033-0.508,0.193
	c-0.534,0.728-1.33,0.881-1.903,0.881c-0.914,0-1.919-0.398-2.56-1.014c-3.168-3.041-3.391-7.813-3.242-10.387
	c0.18-3.116,1.245-5.5,2.373-8.024c0.034-0.077,0.069-0.154,0.104-0.232c0.525,2.546,2.638,4.906,4.753,6.427
	c0.544,0.392,1.108,0.773,1.676,1.157c2.388,1.612,4.857,3.28,5.848,5.854c1.474,3.828-0.786,8.026-3.447,11.993
	c-0.104,0.154-0.098,0.351-0.011,0.514s0.272,0.265,0.457,0.265c1.226,0,2.449-0.458,3.396-1.239
	c-0.075,4.447-4.737,7.962-8.365,10.278l-8.626,5.507c-0.177,0.113-0.265,0.323-0.22,0.528c0.044,0.205,0.211,0.359,0.419,0.389
	c1.288,0.181,2.61,0.273,3.929,0.273c9.545,0,19.716-4.817,27.907-13.217C50.583,39.833,53.384,31.303,52.551,23.053z"/>
<g>
</g>
<g>
</g>
<g>
</g>
<g>
</g>
<g>
</g>
<g>
</g>
<g>
</g>
<g>
</g>
<g>
</g>
<g>
</g>
<g>
</g>
<g>
</g>
<g>
</g>
<g>
</g>
<g>
</g>
</svg>
