<?xml version="1.0" encoding="iso-8859-1"?>
<!-- Generator: Adobe Illustrator 18.0.0, SVG Export Plug-In . SVG Version: 6.00 Build 0)  -->
<!DOCTYPE svg PUBLIC "-//W3C//DTD SVG 1.1//EN" "http://www.w3.org/Graphics/SVG/1.1/DTD/svg11.dtd">
<svg version="1.1" id="Capa_1" xmlns="http://www.w3.org/2000/svg" xmlns:xlink="http://www.w3.org/1999/xlink" x="0px" y="0px"
	 viewBox="0 0 50.999 50.999" style="enable-background:new 0 0 50.999 50.999;" xml:space="preserve">
<g>
	<path d="M42.493,15.043c0.001-0.015,0.006-0.029,0.006-0.044v-14c0-0.503-0.373-0.927-0.872-0.992
		c-0.492-0.057-0.967,0.251-1.095,0.737c-1.528,5.806-5.479,8.354-5.557,8.403C32.104,7.771,28.89,6.999,25.5,6.999
		c-3.152,0-6.149,0.671-8.862,1.871c-1.045-0.803-3.92-3.372-5.17-8.125c-0.128-0.486-0.604-0.796-1.096-0.737
		C9.873,0.073,9.5,0.496,9.5,0.999v12.924c-3.716,3.941-6,9.245-6,15.076c0,12.131,9.869,22,22,22s22-9.869,22-22
		C47.5,23.706,45.62,18.843,42.493,15.043z M40.5,5.972v6.893l-3.394-2.828C38.006,9.27,39.324,7.944,40.5,5.972z M27.521,9.102
		c0.221,0.022,0.435,0.068,0.654,0.098c0.439,0.059,0.88,0.113,1.31,0.201c0.255,0.052,0.5,0.128,0.751,0.189
		c0.384,0.094,0.771,0.18,1.147,0.296c0.261,0.08,0.511,0.184,0.767,0.275c0.353,0.125,0.71,0.242,1.054,0.386
		c0.256,0.108,0.501,0.237,0.752,0.354c0.33,0.155,0.663,0.302,0.982,0.474c0.247,0.133,0.482,0.286,0.723,0.429
		c0.307,0.182,0.618,0.358,0.915,0.556c0.236,0.157,0.457,0.333,0.686,0.5c0.284,0.208,0.573,0.41,0.845,0.632
		c0.222,0.181,0.429,0.377,0.643,0.567c0.26,0.231,0.524,0.458,0.772,0.702c0.205,0.202,0.395,0.418,0.591,0.629
		c0.236,0.253,0.475,0.503,0.698,0.768c0.187,0.222,0.358,0.457,0.535,0.688c0.209,0.272,0.422,0.542,0.618,0.825
		c0.167,0.242,0.318,0.495,0.474,0.744c0.182,0.289,0.366,0.577,0.533,0.876c0.145,0.26,0.274,0.53,0.407,0.797
		c0.153,0.305,0.307,0.608,0.445,0.922c0.121,0.276,0.225,0.561,0.334,0.843c0.122,0.319,0.247,0.636,0.353,0.963
		c0.095,0.292,0.173,0.59,0.255,0.887c0.091,0.33,0.183,0.659,0.257,0.996c0.067,0.306,0.118,0.618,0.171,0.929
		c0.058,0.339,0.116,0.677,0.156,1.021c0.038,0.319,0.058,0.643,0.081,0.966c0.016,0.235,0.028,0.472,0.036,0.709l-17.912,6.823
		c-1.324,0.504-2.783,0.504-4.107,0L5.534,28.323c0.008-0.237,0.02-0.474,0.036-0.709c0.022-0.323,0.043-0.647,0.081-0.966
		c0.041-0.344,0.098-0.683,0.156-1.021c0.053-0.311,0.104-0.623,0.171-0.929c0.074-0.336,0.166-0.666,0.257-0.996
		c0.082-0.297,0.16-0.596,0.255-0.887c0.106-0.326,0.23-0.644,0.353-0.963c0.109-0.283,0.213-0.567,0.334-0.843
		c0.137-0.313,0.292-0.617,0.445-0.922c0.134-0.267,0.262-0.537,0.407-0.797c0.167-0.299,0.351-0.587,0.533-0.876
		c0.156-0.249,0.307-0.502,0.474-0.744c0.195-0.283,0.408-0.553,0.618-0.825c0.177-0.23,0.348-0.465,0.535-0.688
		c0.223-0.265,0.462-0.515,0.698-0.768c0.196-0.21,0.386-0.427,0.591-0.629c0.248-0.244,0.512-0.471,0.772-0.702
		c0.038-0.033,0.075-0.067,0.113-0.1l4.342-2.895c0.112-0.055,0.225-0.11,0.338-0.163c0.251-0.118,0.495-0.247,0.752-0.354
		c0.344-0.144,0.701-0.261,1.054-0.386c0.256-0.091,0.506-0.195,0.767-0.275c0.375-0.116,0.762-0.202,1.147-0.296
		c0.251-0.061,0.496-0.138,0.751-0.189c0.43-0.087,0.871-0.141,1.31-0.201c0.219-0.03,0.433-0.076,0.654-0.098
		c0.665-0.067,1.339-0.102,2.021-0.102S26.856,9.035,27.521,9.102z M14.687,9.851c-1.127,0.639-2.195,1.37-3.187,2.19V5.972
		C12.591,7.802,13.798,9.065,14.687,9.851z M25.5,48.999c-10.528,0-19.163-8.183-19.925-18.52l17.159,6.537
		c0.892,0.34,1.829,0.509,2.766,0.509s1.874-0.17,2.766-0.509l17.159-6.537C44.662,40.817,36.028,48.999,25.5,48.999z"/>
	<path d="M21.742,23.03l-12-3c-0.449-0.115-0.912,0.096-1.127,0.503s-0.124,0.908,0.22,1.214l9,8
		c0.185,0.164,0.421,0.253,0.665,0.253c0.051,0,0.102-0.004,0.152-0.012c0.294-0.045,0.553-0.22,0.706-0.476l2.998-4.996
		c0.164-0.271,0.189-0.604,0.068-0.897C22.303,23.324,22.05,23.106,21.742,23.03z M18.261,27.449l-5.054-4.492l6.737,1.684
		L18.261,27.449z"/>
	<path d="M31.644,29.517c0.154,0.254,0.413,0.427,0.707,0.471c0.05,0.008,0.1,0.012,0.149,0.012c0.243,0,0.48-0.089,0.665-0.253l9-8
		c0.345-0.306,0.436-0.807,0.221-1.214c-0.216-0.407-0.68-0.618-1.127-0.503l-12,3c-0.306,0.076-0.559,0.293-0.68,0.585
		c-0.122,0.291-0.098,0.623,0.063,0.895L31.644,29.517z M37.792,22.957l-5.059,4.496l-1.689-2.81L37.792,22.957z"/>
	<path d="M30.5,41.999h-10c-0.552,0-1,0.447-1,1s0.448,1,1,1h10c0.552,0,1-0.447,1-1S31.052,41.999,30.5,41.999z"/>
</g>
<g>
</g>
<g>
</g>
<g>
</g>
<g>
</g>
<g>
</g>
<g>
</g>
<g>
</g>
<g>
</g>
<g>
</g>
<g>
</g>
<g>
</g>
<g>
</g>
<g>
</g>
<g>
</g>
<g>
</g>
</svg>
