<?xml version="1.0" encoding="iso-8859-1"?>
<!-- Generator: Adobe Illustrator 18.0.0, SVG Export Plug-In . SVG Version: 6.00 Build 0)  -->
<!DOCTYPE svg PUBLIC "-//W3C//DTD SVG 1.1//EN" "http://www.w3.org/Graphics/SVG/1.1/DTD/svg11.dtd">
<svg version="1.1" id="Capa_1" xmlns="http://www.w3.org/2000/svg" xmlns:xlink="http://www.w3.org/1999/xlink" x="0px" y="0px"
	 viewBox="0 0 60.002 60.002" style="enable-background:new 0 0 60.002 60.002;" xml:space="preserve">
<g>
	<path d="M59.795,26.568c-0.401-1.697-1.364-3.156-2.576-3.902c-0.812-0.499-1.679-0.66-2.508-0.461
		c-0.189,0.045-0.371,0.114-0.548,0.198c-2.336-5.685-5.98-9.364-9.727-11.736l1.36-2.719c0.247-0.494,0.047-1.095-0.447-1.342
		c-0.495-0.247-1.095-0.047-1.342,0.447l-1.303,2.605c-0.617-0.327-1.231-0.626-1.837-0.892l0.983-2.949
		c0.175-0.524-0.108-1.091-0.632-1.265c-0.525-0.176-1.09,0.108-1.265,0.632l-0.948,2.844c-0.693-0.248-1.366-0.461-2.011-0.642
		l0.857-2.57c0.175-0.524-0.108-1.091-0.632-1.265c-0.526-0.176-1.091,0.108-1.265,0.632l-0.908,2.724
		C33.779,6.64,32.7,6.495,31.9,6.418V4.499c0-0.553-0.448-1-1-1s-1,0.447-1,1v1.85c-0.525,0.028-1.442,0.101-2.63,0.287
		l-0.383-2.301c-0.091-0.544-0.604-0.918-1.151-0.822c-0.544,0.091-0.913,0.606-0.822,1.15l0.391,2.348
		c-1.071,0.241-2.258,0.573-3.507,1.019l-0.949-2.847c-0.174-0.523-0.74-0.808-1.265-0.632c-0.524,0.174-0.807,0.74-0.632,1.265
		l0.984,2.951c-0.863,0.377-1.742,0.818-2.622,1.322l-1.518-3.037c-0.247-0.494-0.846-0.694-1.342-0.447
		c-0.494,0.247-0.694,0.848-0.447,1.342l1.602,3.205c-0.881,0.601-1.75,1.285-2.595,2.046l-2.405-2.406
		c-0.391-0.391-1.023-0.391-1.414,0s-0.391,1.023,0,1.414l2.386,2.386c-3.074,3.27-5.644,7.833-6.824,14.215
		c-0.015,0.083-0.025,0.167-0.04,0.25c-0.254-0.07-0.512-0.118-0.776-0.118C1.73,28.939,0,31.322,0,34.363s1.73,5.424,3.939,5.424
		c0.403,0,0.798-0.102,1.177-0.267c0.701,2.671,1.863,5.179,3.459,7.378c3.194,4.404,9.468,9.606,21.27,9.606
		c0.182,0,0.364-0.001,0.548-0.004c12.143,0.161,18.573-5.13,21.817-9.603c2.879-3.969,4.345-8.941,4.23-14.07
		c0.035,0.001,0.07,0.007,0.104,0.007c0.227,0,0.451-0.025,0.672-0.078C59.363,32.244,60.496,29.526,59.795,26.568z M4.674,37.489
		c-0.206,0.166-0.456,0.298-0.734,0.298C3.022,37.786,2,36.38,2,34.363s1.022-3.424,1.939-3.424c0.167,0,0.335,0.047,0.504,0.139
		c-0.049,0.533-0.081,1.066-0.096,1.597c-0.001,0.034,0,0.067-0.001,0.101c-0.011,0.445-0.009,0.889,0.004,1.332
		c0.004,0.136,0.009,0.271,0.015,0.407c0.016,0.36,0.042,0.719,0.074,1.076c0.012,0.141,0.021,0.282,0.036,0.422
		c0.047,0.438,0.106,0.874,0.177,1.307C4.66,37.375,4.664,37.432,4.674,37.489z M50.591,45.724
		c-4.316,5.949-11.102,8.909-20.185,8.776h-0.027c-9.098,0.138-15.87-2.828-20.185-8.776c-2.062-2.842-3.329-6.255-3.726-9.866
		c-0.008-0.078-0.01-0.157-0.017-0.235c-0.057-0.57-0.089-1.144-0.102-1.721c-0.005-0.252-0.001-0.504,0.002-0.757
		c0.004-0.406,0.021-0.814,0.047-1.222c0.019-0.294,0.039-0.588,0.069-0.883c0.064-0.623,0.138-1.246,0.253-1.869
		c1.097-5.928,3.438-10.163,6.237-13.199l1.235,1.235c0.195,0.195,0.451,0.293,0.707,0.293s0.512-0.098,0.707-0.293
		c0.391-0.391,0.391-1.023,0-1.414l-1.229-1.229c0.684-0.619,1.384-1.181,2.094-1.683l0.533,1.067
		c0.175,0.351,0.528,0.553,0.896,0.553c0.15,0,0.303-0.034,0.446-0.105c0.494-0.247,0.694-0.848,0.447-1.342l-0.628-1.256
		c0.795-0.464,1.59-0.872,2.372-1.22l0.413,1.24c0.14,0.419,0.53,0.684,0.949,0.684c0.104,0,0.211-0.017,0.316-0.052
		c0.524-0.174,0.807-0.74,0.632-1.265l-0.45-1.349c1.148-0.407,2.235-0.7,3.224-0.917l0.291,1.747
		c0.082,0.489,0.505,0.836,0.985,0.836c0.054,0,0.11-0.004,0.166-0.014c0.544-0.091,0.913-0.606,0.822-1.15l-0.296-1.777
		c1.021-0.146,1.824-0.201,2.31-0.22v2.161c0,0.553,0.448,1,1,1s1-0.447,1-1V8.408c0.667,0.065,1.522,0.179,2.517,0.377
		l-0.466,1.398c-0.175,0.524,0.108,1.091,0.632,1.265c0.105,0.035,0.212,0.052,0.316,0.052c0.419,0,0.809-0.265,0.949-0.684
		l0.523-1.567c0.644,0.176,1.318,0.386,2.013,0.635l-0.433,1.299c-0.175,0.524,0.108,1.091,0.632,1.265
		c0.105,0.035,0.212,0.052,0.316,0.052c0.419,0,0.809-0.265,0.949-0.684l0.395-1.184c0.177,0.079,0.353,0.154,0.531,0.238
		c0.36,0.171,0.707,0.353,1.053,0.538l-0.823,1.645c-0.247,0.494-0.047,1.095,0.447,1.342c0.144,0.071,0.296,0.105,0.446,0.105
		c0.367,0,0.72-0.202,0.896-0.553l0.763-1.526c4.174,2.689,7.196,6.516,9.039,11.43l-0.003,0.003l0.182,0.513
		c0.272,0.766,0.509,1.532,0.719,2.308c0.013,0.049,0.026,0.098,0.038,0.147c0.204,0.769,0.382,1.548,0.53,2.348
		c0.122,0.659,0.204,1.318,0.268,1.976c0.012,0.127,0.029,0.252,0.04,0.38C54.791,36.694,53.464,41.764,50.591,45.724z
		 M56.751,30.812c-0.136,0.031-0.283,0.03-0.436,0c-0.004-0.036-0.011-0.07-0.015-0.106c-0.068-0.63-0.153-1.261-0.269-1.891
		c0,0-0.001-0.006-0.001-0.009c-0.002-0.012-0.006-0.023-0.008-0.035c-0.141-0.76-0.306-1.489-0.485-2.198
		c-0.019-0.075-0.043-0.149-0.062-0.224c-0.181-0.695-0.381-1.365-0.595-2.013c-0.005-0.015-0.008-0.03-0.013-0.045
		c0.101-0.069,0.204-0.116,0.31-0.142c0.38-0.093,0.751,0.068,0.994,0.219c0.758,0.467,1.401,1.486,1.68,2.66
		C58.314,28.992,57.645,30.599,56.751,30.812z"/>
	<path d="M23,32.363c2.452,0,4.61-1.27,5.861-3.184c1.44,3.058,4.542,5.184,8.139,5.184c4.962,0,9-4.037,9-9s-4.038-9-9-9
		c-3.597,0-6.7,2.126-8.139,5.184c-1.251-1.914-3.409-3.184-5.861-3.184c-3.86,0-7,3.141-7,7S19.14,32.363,23,32.363z M37,32.363
		c-3.86,0-7-3.141-7-7h14C44,29.222,40.86,32.363,37,32.363z M37,18.363c3.165,0,5.842,2.113,6.705,5h-13.41
		C31.158,20.475,33.835,18.363,37,18.363z M23,20.363c2.045,0,3.802,1.237,4.576,3h-9.152C19.198,21.6,20.955,20.363,23,20.363z
		 M28,25.363c0,2.757-2.243,5-5,5s-5-2.243-5-5H28z"/>
	<circle cx="24" cy="27.363" r="1"/>
	<circle cx="39.5" cy="27.863" r="1.5"/>
	<path d="M51.41,38.572c-0.493-0.221-1.072-0.012-1.309,0.473c-0.577,1.183-2.037,2.266-3.595,1.931
		c-1.624-0.343-3.252-1.125-4.839-2.324c-1.904-1.438-3.895-2.011-5.911-1.706c-2.389,0.362-4.214,1.886-5.198,2.907
		c-0.984-1.021-2.809-2.545-5.198-2.907c-2.018-0.305-4.007,0.268-5.911,1.706c-1.587,1.199-3.216,1.981-4.841,2.324
		c-1.631,0.345-2.998-0.637-3.548-1.82c-0.015-0.035-0.03-0.071-0.044-0.107l-0.029-0.059c-0.014-0.03-0.03-0.06-0.047-0.087
		c-0.259-0.43-0.802-0.604-1.266-0.396c-0.493,0.222-0.721,0.795-0.514,1.295c0.027,0.064,0.055,0.129,0.085,0.193
		c1.555,3.697,3.998,6.207,7.262,7.461c5.799,2.226,12.316-0.233,14.05-0.976c1.217,0.521,4.789,1.887,8.815,1.886
		c1.712,0,3.506-0.247,5.235-0.91c3.302-1.268,5.763-3.822,7.316-7.591C52.13,39.366,51.902,38.794,51.41,38.572z M43.901,45.585
		c-5.8,2.231-12.841-1.069-12.911-1.103c-0.136-0.064-0.284-0.098-0.431-0.098s-0.295,0.033-0.431,0.098
		c-0.07,0.034-7.111,3.337-12.911,1.103c-1.435-0.552-2.684-1.405-3.744-2.559c0.494,0.046,1.014,0.02,1.551-0.094
		c1.914-0.404,3.809-1.308,5.633-2.686c1.453-1.098,2.933-1.544,4.393-1.326c2.757,0.411,4.68,3.022,4.697,3.047
		c0.376,0.523,1.249,0.523,1.625,0c0.019-0.026,1.913-2.624,4.685-3.045c1.466-0.223,2.948,0.224,4.405,1.324
		c1.824,1.378,3.719,2.281,5.632,2.686c0.54,0.114,1.068,0.133,1.576,0.071C46.607,44.165,45.348,45.029,43.901,45.585z"/>
</g>
<g>
</g>
<g>
</g>
<g>
</g>
<g>
</g>
<g>
</g>
<g>
</g>
<g>
</g>
<g>
</g>
<g>
</g>
<g>
</g>
<g>
</g>
<g>
</g>
<g>
</g>
<g>
</g>
<g>
</g>
</svg>
