<?xml version="1.0" encoding="iso-8859-1"?>
<!-- Generator: Adobe Illustrator 16.0.0, SVG Export Plug-In . SVG Version: 6.00 Build 0)  -->
<!DOCTYPE svg PUBLIC "-//W3C//DTD SVG 1.1//EN" "http://www.w3.org/Graphics/SVG/1.1/DTD/svg11.dtd">
<svg version="1.1" id="Capa_1" xmlns="http://www.w3.org/2000/svg" xmlns:xlink="http://www.w3.org/1999/xlink" x="0px" y="0px"
	 width="112px" height="112px" viewBox="0 0 112 112" style="enable-background:new 0 0 112 112;" xml:space="preserve">
<g>
	<path d="M95.667,50.167c0-1.979-1.566-3.5-3.5-3.5h-10.5V33.714c6.2-5.443,14-13.879,14-16.214c0-1.979-1.566-3.5-3.5-3.5h-10.5
		v-1.573c0-1.708-1.271-3.094-2.834-3.094h-2.254c-0.84,0-1.594-0.448-2.123-1.153C70.763,3.304,63.909,0,56,0
		S41.239,3.304,37.543,8.181c-0.531,0.705-1.283,1.153-2.124,1.153h-2.254c-1.563,0-2.833,1.386-2.833,3.094V14H19.833
		c-1.933,0-3.5,1.521-3.5,3.5c0,2.334,7.799,10.771,13.999,16.214v12.953H19.833c-1.933,0-3.5,1.521-3.5,3.5
		c0,2.334,7.799,10.771,13.999,16.214v12.953H19.833c-1.933,0-3.5,1.52-3.5,3.5c0,2.334,7.799,10.771,13.999,16.213v9.863
		c0,1.703,1.27,3.09,2.833,3.09h45.664c1.566,0,2.838-1.389,2.838-3.094v-9.859c6.2-5.441,14-13.879,14-16.213
		c0-1.98-1.566-3.5-3.5-3.5h-10.5V66.381C87.867,60.938,95.667,52.502,95.667,50.167z M56,102.667
		c-6.445,0-11.667-5.222-11.667-11.667S49.555,79.334,56,79.334c6.442,0,11.667,5.221,11.667,11.666S62.442,102.667,56,102.667z
		 M56,70c-6.445,0-11.667-5.223-11.667-11.666c0-6.445,5.222-11.667,11.667-11.667c6.442,0,11.667,5.222,11.667,11.667
		C67.667,64.777,62.442,70,56,70z M56,37.333c-6.443,0-11.667-5.222-11.667-11.667C44.333,19.222,49.555,14,56,14
		c6.442,0,11.667,5.222,11.667,11.667C67.667,32.111,62.442,37.333,56,37.333z"/>
</g>
<g>
</g>
<g>
</g>
<g>
</g>
<g>
</g>
<g>
</g>
<g>
</g>
<g>
</g>
<g>
</g>
<g>
</g>
<g>
</g>
<g>
</g>
<g>
</g>
<g>
</g>
<g>
</g>
<g>
</g>
</svg>
