<?xml version="1.0" encoding="iso-8859-1"?>
<!-- Generator: Adobe Illustrator 16.0.0, SVG Export Plug-In . SVG Version: 6.00 Build 0)  -->
<!DOCTYPE svg PUBLIC "-//W3C//DTD SVG 1.1//EN" "http://www.w3.org/Graphics/SVG/1.1/DTD/svg11.dtd">
<svg version="1.1" id="Capa_1" xmlns="http://www.w3.org/2000/svg" xmlns:xlink="http://www.w3.org/1999/xlink" x="0px" y="0px"
	 width="32px" height="32px" viewBox="0 0 32 32" style="enable-background:new 0 0 32 32;" xml:space="preserve">
<g>
	<g>
		<rect x="13.262" y="5.405" width="0.896" height="0.84"/>
		<path d="M25.458,19.341c0.022-1.147-0.063-4.707-1.877-6.73c-0.789-0.879-1.788-1.367-2.974-1.454
			c-0.045-0.006-0.092-0.01-0.139-0.01h-2.654V9.802h1.234c0.619,0,1.121-0.501,1.121-1.121V8.258
			c0.782-0.154,1.375-0.858,1.375-1.705c0-0.847-0.593-1.551-1.375-1.705V4.201c0-0.619-0.502-1.121-1.121-1.121h-2.773V1.574
			c0.279-0.134,0.473-0.416,0.473-0.746C16.75,0.371,16.379,0,15.922,0c-0.458,0-0.828,0.371-0.828,0.828
			c0,0.33,0.194,0.612,0.473,0.746V3.08h-2.772c-0.619,0-1.121,0.502-1.121,1.121v0.648C10.893,5.002,10.3,5.707,10.3,6.553
			c0,0.846,0.593,1.551,1.375,1.705v0.424c0,0.619,0.501,1.121,1.121,1.121h1.234v1.344h-2.467c-0.012,0-0.023,0.002-0.035,0.002
			v-0.002c-1.246,0.057-2.294,0.55-3.113,1.464c-1.813,2.023-1.9,5.583-1.876,6.73c-0.993,0.31-1.708,1.156-1.708,2.152
			c0,0.019,0.003,0.037,0.004,0.056h1.347c-0.002-0.019-0.005-0.037-0.005-0.056c0-0.515,0.531-0.935,1.186-0.935
			c0.653,0,1.186,0.418,1.186,0.935c0,0.019-0.004,0.037-0.005,0.056H9.89c0.001-0.019,0.003-0.037,0.003-0.056
			c0-0.907-0.593-1.688-1.446-2.056c-0.047-1.194,0.113-4.136,1.39-5.558c0.185-0.205,0.387-0.371,0.607-0.5v7.542
			c0,0.618,0.501,1.12,1.121,1.12h0.352v1.177h2.415v-1.177h3.397v1.177h2.414v-1.177h0.328c0.619,0,1.121-0.501,1.121-1.12v-7.58
			c0.19,0.128,0.362,0.305,0.571,0.538c1.276,1.422,1.438,4.363,1.39,5.558c-0.854,0.367-1.445,1.148-1.445,2.056
			c0,0.019,0.002,0.037,0.004,0.056h1.346c-0.002-0.019-0.005-0.037-0.005-0.056c0-0.515,0.532-0.935,1.185-0.935
			c0.654,0,1.188,0.418,1.188,0.935c0,0.019-0.004,0.037-0.006,0.056h1.347c0.001-0.019,0.004-0.037,0.004-0.056
			C27.166,20.496,26.451,19.65,25.458,19.341z M17.231,7.926v0.7h-1.309h-1.308v-0.7h1.308H17.231z M17.108,4.845h2.091v1.941
			h-2.091V4.845z M12.646,6.787V4.845h2.091v1.941L12.646,6.787L12.646,6.787z M19.059,12.713l1.082,1.081
			c-0.121,0.078-0.266,0.125-0.422,0.125c-0.433,0-0.783-0.351-0.783-0.784C18.934,12.979,18.981,12.836,19.059,12.713z
			 M19.059,14.983l1.082,1.082c-0.121,0.078-0.266,0.125-0.422,0.125c-0.433,0-0.783-0.352-0.783-0.786
			C18.934,15.25,18.981,15.105,19.059,14.983z M19.059,17.361l1.082,1.082c-0.121,0.078-0.266,0.125-0.422,0.125
			c-0.433,0-0.783-0.352-0.783-0.785C18.934,17.628,18.981,17.484,19.059,17.361z M13.922,17.011l-0.008,0.234
			c-0.001,0.047-0.041,0.083-0.088,0.082l-0.402-0.015c-0.047,0-0.083-0.041-0.082-0.086l0.008-0.229
			c-0.168-0.034-0.329-0.096-0.479-0.18c-0.058-0.033-0.115-0.068-0.169-0.109l-0.158,0.146c-0.034,0.033-0.088,0.031-0.12-0.004
			l-0.275-0.293c-0.03-0.033-0.028-0.089,0.004-0.119l0.155-0.146c-0.134-0.202-0.22-0.431-0.254-0.669l-0.203-0.007
			c-0.047-0.001-0.083-0.041-0.082-0.087l0.013-0.402c0.001-0.046,0.042-0.083,0.088-0.082l0.204,0.007
			c0.05-0.238,0.154-0.462,0.302-0.656l-0.14-0.15c-0.015-0.017-0.023-0.038-0.022-0.061c0-0.022,0.01-0.043,0.027-0.059
			l0.294-0.275c0.034-0.032,0.087-0.03,0.12,0.004l0.145,0.156c0.024-0.015,0.048-0.028,0.073-0.041
			c0.183-0.104,0.382-0.173,0.589-0.201l0.007-0.206c0.001-0.047,0.04-0.083,0.087-0.082l0.402,0.014
			c0.047,0.001,0.084,0.041,0.082,0.087l-0.007,0.213c0.23,0.051,0.446,0.153,0.634,0.296l0.163-0.154
			c0.016-0.015,0.038-0.023,0.06-0.022c0.023,0.001,0.044,0.01,0.06,0.027l0.274,0.294c0.032,0.034,0.03,0.088-0.004,0.12
			l-0.168,0.158c0.126,0.196,0.208,0.418,0.241,0.648l0.238,0.008c0.047,0.001,0.084,0.041,0.082,0.087l-0.013,0.402
			c-0.002,0.047-0.041,0.083-0.088,0.082l-0.238-0.007c-0.048,0.226-0.144,0.439-0.281,0.625l0.162,0.173
			c0.032,0.034,0.031,0.088-0.004,0.118l-0.294,0.275c-0.016,0.016-0.038,0.023-0.06,0.022c-0.023-0.001-0.044-0.011-0.06-0.027
			l-0.157-0.168C14.381,16.887,14.157,16.975,13.922,17.011z M18.529,18.835c-0.003,0.047-0.042,0.083-0.089,0.082l-0.237-0.008
			c-0.048,0.226-0.144,0.438-0.282,0.626l0.162,0.173c0.032,0.034,0.03,0.088-0.004,0.12l-0.294,0.275
			c-0.017,0.015-0.039,0.022-0.062,0.022c-0.021-0.002-0.043-0.011-0.059-0.026l-0.158-0.168c-0.197,0.131-0.422,0.217-0.656,0.254
			l-0.008,0.234c-0.003,0.047-0.042,0.084-0.089,0.082l-0.401-0.013c-0.047-0.003-0.084-0.042-0.083-0.089l0.008-0.228
			c-0.168-0.034-0.33-0.096-0.479-0.181c-0.058-0.032-0.116-0.068-0.17-0.109l-0.158,0.149c-0.034,0.032-0.087,0.03-0.119-0.005
			l-0.275-0.295c-0.03-0.031-0.029-0.088,0.004-0.118l0.155-0.146c-0.134-0.201-0.221-0.431-0.255-0.67l-0.2-0.007
			c-0.047-0.002-0.083-0.041-0.082-0.088l0.014-0.402c0.001-0.047,0.041-0.083,0.088-0.082l0.203,0.007
			c0.05-0.237,0.154-0.461,0.303-0.656l-0.14-0.148c-0.015-0.017-0.024-0.039-0.022-0.061c0-0.022,0.01-0.045,0.026-0.06
			l0.294-0.274c0.034-0.031,0.088-0.03,0.12,0.004l0.146,0.154c0.023-0.015,0.048-0.026,0.072-0.041
			c0.182-0.103,0.382-0.172,0.589-0.201l0.007-0.205c0.002-0.047,0.041-0.083,0.088-0.082l0.403,0.014
			c0.045,0.001,0.082,0.041,0.08,0.087l-0.007,0.213c0.229,0.052,0.446,0.153,0.634,0.296l0.166-0.156
			c0.018-0.015,0.039-0.022,0.062-0.021s0.044,0.012,0.059,0.027l0.274,0.294c0.031,0.034,0.029,0.087-0.004,0.12l-0.168,0.158
			c0.125,0.196,0.207,0.418,0.24,0.647l0.238,0.008c0.047,0.001,0.083,0.041,0.082,0.089L18.529,18.835z M19.719,20.837
			c-0.434,0-0.785-0.351-0.785-0.784c0-0.154,0.047-0.3,0.125-0.421l1.082,1.081C20.018,20.791,19.875,20.837,19.719,20.837z
			 M20.377,20.477l-1.081-1.082c0.122-0.078,0.267-0.125,0.423-0.125c0.432,0,0.783,0.351,0.783,0.783
			C20.502,20.209,20.456,20.354,20.377,20.477z M20.377,18.205l-1.081-1.081c0.122-0.078,0.267-0.125,0.423-0.125
			c0.432,0,0.783,0.353,0.783,0.784C20.502,17.939,20.456,18.083,20.377,18.205z M20.377,15.827l-1.081-1.082
			c0.122-0.078,0.267-0.125,0.423-0.125c0.432,0,0.783,0.351,0.783,0.784C20.502,15.561,20.456,15.705,20.377,15.827z
			 M20.377,13.557l-1.081-1.081c0.122-0.078,0.267-0.125,0.423-0.125c0.432,0,0.783,0.351,0.783,0.784
			C20.502,13.291,20.456,13.435,20.377,13.557z"/>
		<path d="M13.722,14.513c-0.377-0.013-0.708,0.211-0.85,0.538c-0.042,0.1-0.069,0.209-0.074,0.324
			c-0.004,0.137,0.023,0.267,0.074,0.384c0.133,0.308,0.432,0.526,0.789,0.539c0.493,0.017,0.906-0.369,0.923-0.862
			S14.213,14.53,13.722,14.513z M13.68,15.744c-0.187-0.006-0.333-0.163-0.327-0.35c0.007-0.187,0.164-0.333,0.351-0.327
			c0.187,0.006,0.333,0.164,0.327,0.35C14.023,15.604,13.867,15.75,13.68,15.744z"/>
		<path d="M16.65,17.688c-0.378-0.014-0.708,0.211-0.85,0.539c-0.043,0.1-0.07,0.209-0.073,0.323
			c-0.004,0.138,0.022,0.267,0.073,0.384c0.132,0.308,0.433,0.526,0.789,0.539c0.493,0.018,0.906-0.369,0.923-0.861
			C17.529,18.117,17.143,17.704,16.65,17.688z M16.607,18.918c-0.187-0.007-0.333-0.163-0.326-0.352
			c0.005-0.187,0.163-0.332,0.35-0.325c0.187,0.005,0.333,0.163,0.327,0.349C16.953,18.777,16.794,18.924,16.607,18.918z"/>
		<path d="M13.104,23.506c-0.238,0-0.458,0.071-0.643,0.189l1.648,1.648c0.119-0.186,0.19-0.406,0.19-0.644
			C14.3,24.041,13.765,23.506,13.104,23.506z"/>
		<path d="M11.91,24.701c0,0.66,0.535,1.195,1.195,1.195c0.237,0,0.457-0.07,0.642-0.189L12.1,24.061
			C11.98,24.244,11.91,24.464,11.91,24.701z"/>
		<rect x="11.915" y="26.328" width="2.415" height="1.512"/>
		<path d="M14.33,29.479v-1.107h-2.415v1.107c-0.939,0.451-1.59,1.41-1.59,2.521c4.181,0,2.751,0,5.595,0
			C15.919,30.889,15.269,29.93,14.33,29.479z"/>
		<path d="M18.917,23.506c-0.238,0-0.457,0.071-0.643,0.189l1.647,1.648c0.119-0.186,0.188-0.406,0.188-0.644
			C20.112,24.041,19.577,23.506,18.917,23.506z"/>
		<path d="M17.721,24.701c0,0.66,0.534,1.195,1.195,1.195c0.237,0,0.457-0.07,0.643-0.189l-1.646-1.646
			C17.792,24.244,17.721,24.464,17.721,24.701z"/>
		<rect x="17.727" y="26.328" width="2.414" height="1.512"/>
		<path d="M20.141,29.479v-1.107h-2.414v1.107c-0.939,0.451-1.589,1.41-1.589,2.521c4.181,0,2.75,0,5.595,0
			C21.731,30.889,21.081,29.93,20.141,29.479z"/>
		<rect x="17.686" y="5.405" width="0.896" height="0.84"/>
	</g>
</g>
<g>
</g>
<g>
</g>
<g>
</g>
<g>
</g>
<g>
</g>
<g>
</g>
<g>
</g>
<g>
</g>
<g>
</g>
<g>
</g>
<g>
</g>
<g>
</g>
<g>
</g>
<g>
</g>
<g>
</g>
</svg>
