<?xml version="1.0" encoding="iso-8859-1"?>
<!-- Generator: Adobe Illustrator 18.0.0, SVG Export Plug-In . SVG Version: 6.00 Build 0)  -->
<!DOCTYPE svg PUBLIC "-//W3C//DTD SVG 1.1//EN" "http://www.w3.org/Graphics/SVG/1.1/DTD/svg11.dtd">
<svg version="1.1" id="Capa_1" xmlns="http://www.w3.org/2000/svg" xmlns:xlink="http://www.w3.org/1999/xlink" x="0px" y="0px"
	 viewBox="0 0 295.996 295.996" style="enable-background:new 0 0 295.996 295.996;" xml:space="preserve">
<g>
	<path d="M147.998,0C66.392,0,0,66.392,0,147.998c0,81.606,66.392,147.998,147.998,147.998c81.606,0,147.998-66.392,147.998-147.998
		C295.996,66.392,229.604,0,147.998,0z M25.219,99.527C33.78,82.493,50.734,70.415,70.66,68.717
		c1.595-0.136,3.205-0.221,4.836-0.221c31.066,0,56.25,25.184,56.25,56.25s-25.184,56.25-56.25,56.25
		c-20.649,0-38.689-11.134-48.472-27.718c-4.935-8.366-7.778-18.115-7.778-28.532c0-2.956,0.23-5.856,0.67-8.689
		C21.328,110.396,23.101,104.875,25.219,99.527z M276.065,115.998c0.445,2.851,0.681,5.772,0.681,8.748
		c0,11.511-3.464,22.21-9.397,31.124c-10.079,15.143-27.297,25.126-46.853,25.126c-31.066,0-56.25-25.184-56.25-56.25
		s25.184-56.25,56.25-56.25c19.879,0,37.335,10.32,47.34,25.886c1.073,1.67,2.061,3.398,2.957,5.184
		C272.897,104.883,274.659,110.371,276.065,115.998z"/>
	<circle cx="82.497" cy="123.998" r="16"/>
	<circle cx="214.497" cy="123.998" r="16"/>
</g>
<g>
</g>
<g>
</g>
<g>
</g>
<g>
</g>
<g>
</g>
<g>
</g>
<g>
</g>
<g>
</g>
<g>
</g>
<g>
</g>
<g>
</g>
<g>
</g>
<g>
</g>
<g>
</g>
<g>
</g>
</svg>
