<?xml version="1.0" encoding="iso-8859-1"?>
<!-- Generator: Adobe Illustrator 18.0.0, SVG Export Plug-In . SVG Version: 6.00 Build 0)  -->
<!DOCTYPE svg PUBLIC "-//W3C//DTD SVG 1.1//EN" "http://www.w3.org/Graphics/SVG/1.1/DTD/svg11.dtd">
<svg version="1.1" id="Capa_1" xmlns="http://www.w3.org/2000/svg" xmlns:xlink="http://www.w3.org/1999/xlink" x="0px" y="0px"
	 viewBox="0 0 59 59" style="enable-background:new 0 0 59 59;" xml:space="preserve">
<g>
	<path d="M26.997,29.868c0.208-0.854,0.16-1.426,0.129-1.635C26.888,25.817,25.022,24,22.774,24c-1.172,0-2.269,0.469-3.07,1.264
		C18.919,24.462,17.854,24,16.69,24c-2.249,0-4.114,1.817-4.353,4.233c-0.031,0.209-0.079,0.78,0.129,1.635
		c0.315,1.285,1.036,2.45,2.085,3.368l4.482,3.929c0.188,0.165,0.424,0.248,0.659,0.248c0.232,0,0.465-0.081,0.652-0.242
		l4.565-3.934C25.962,32.317,26.683,31.152,26.997,29.868z M19.699,35.088l-3.83-3.356c-0.738-0.646-1.243-1.455-1.459-2.339
		c-0.13-0.532-0.098-0.837-0.1-0.837c0.007-0.034,0.012-0.069,0.016-0.104C14.438,27.233,15.286,26,16.69,26
		c0.919,0,1.699,0.529,2.087,1.416c0.159,0.364,0.519,0.6,0.916,0.6s0.757-0.235,0.916-0.6C20.985,26.556,21.835,26,22.774,26
		c1.403,0,2.252,1.233,2.374,2.528c0,0.003,0.041,0.312-0.095,0.865c-0.216,0.883-0.72,1.691-1.453,2.333L19.699,35.088z"/>
	<path d="M43.619,24c-1.172,0-2.268,0.469-3.07,1.264C39.764,24.462,38.698,24,37.535,24c-2.249,0-4.115,1.818-4.353,4.234
		c-0.031,0.208-0.078,0.779,0.13,1.633c0.314,1.286,1.035,2.451,2.085,3.369l4.482,3.929c0.188,0.165,0.424,0.248,0.659,0.248
		c0.232,0,0.465-0.081,0.652-0.242l4.565-3.934c1.05-0.919,1.771-2.084,2.085-3.368c0.209-0.854,0.161-1.426,0.13-1.636
		C47.733,25.817,45.868,24,43.619,24z M45.898,29.394c-0.216,0.884-0.72,1.692-1.452,2.333l-3.901,3.361l-3.83-3.356
		c-0.739-0.646-1.243-1.455-1.459-2.339c-0.131-0.534-0.099-0.839-0.1-0.839c0.006-0.033,0.011-0.067,0.015-0.102
		C35.282,27.233,36.131,26,37.535,26c0.92,0,1.7,0.529,2.088,1.416c0.159,0.364,0.519,0.6,0.916,0.6s0.757-0.235,0.916-0.6
		C41.831,26.556,42.681,26,43.619,26c1.404,0,2.253,1.233,2.375,2.528C45.994,28.531,46.034,28.839,45.898,29.394z"/>
	<path d="M29.5,0C14.888,0,3,11.888,3,26.5v10.979c0,0,0,0.002,0,0.004s0,0.004,0,0.006c0,0.004,0,0.008,0,0.012V51
		c0,2.757,2.243,5,5,5h6.55c0.046,0.022,0.096,0.04,0.142,0.061c3.51,1.654,7.728,2.643,12.543,2.878
		c0.107,0.005,0.214,0.011,0.321,0.016C28.195,58.982,28.84,59,29.5,59s1.305-0.018,1.945-0.045c0.107-0.005,0.214-0.01,0.321-0.016
		c4.814-0.235,9.033-1.224,12.543-2.878c0.046-0.022,0.096-0.04,0.142-0.061H51c2.757,0,5-2.243,5-5V26.5C56,11.888,44.112,0,29.5,0
		z M43.992,54l-0.207,0.101c-2.828,1.374-6.204,2.271-9.916,2.666c-0.271,0.027-0.542,0.056-0.819,0.078
		c-0.392,0.033-0.787,0.062-1.186,0.084C31.09,56.969,30.309,57,29.5,57s-1.59-0.031-2.364-0.072
		c-0.399-0.022-0.794-0.051-1.186-0.084c-0.276-0.022-0.547-0.05-0.818-0.078c-3.712-0.395-7.089-1.292-9.916-2.666L15.008,54
		h-0.089C8.548,50.783,5,45.095,5,37.5c0-0.004,0-0.007,0-0.011c0-0.002,0-0.004,0-0.006c0-0.001,0-0.002,0-0.004
		C5.012,24.628,15.796,13.647,29,13l0.951-0.001C43.212,13.647,54,24.639,54,37.5c0,7.595-3.548,13.283-9.918,16.5H43.992z M8,54
		c-1.654,0-3-1.346-3-3v-4.226c1.384,2.876,3.459,5.308,6.148,7.226H8z M54,51c0,1.654-1.346,3-3,3h-3.148
		c2.689-1.917,4.764-4.349,6.148-7.226V51z M30,11l-1.049,0.001C18.165,11.529,8.911,18.42,5,27.736V26.5C5,12.99,15.99,2,29.5,2
		S54,12.99,54,26.5v1.198C50.079,18.398,40.811,11.528,30,11z"/>
	<path d="M35.6,39.2c-0.441-0.33-1.068-0.242-1.399,0.2c-0.332,0.441-0.242,1.068,0.2,1.399l1.51,1.133
		c-2.013,4.262-7.394,6.257-11.974,4.347c-0.507-0.212-1.095,0.028-1.308,0.538s0.028,1.096,0.538,1.308
		c1.39,0.579,2.896,0.869,4.41,0.869c1.414,0,2.835-0.253,4.171-0.762c2.567-0.976,4.59-2.765,5.793-5.077L38.4,43.8
		c0.18,0.135,0.39,0.2,0.599,0.2c0.305,0,0.604-0.138,0.801-0.4c0.332-0.441,0.242-1.068-0.2-1.399L35.6,39.2z"/>
</g>
<g>
</g>
<g>
</g>
<g>
</g>
<g>
</g>
<g>
</g>
<g>
</g>
<g>
</g>
<g>
</g>
<g>
</g>
<g>
</g>
<g>
</g>
<g>
</g>
<g>
</g>
<g>
</g>
<g>
</g>
</svg>
