<?xml version='1.0' encoding='iso-8859-1'?>
<svg version="1.1" xmlns="http://www.w3.org/2000/svg" viewBox="0 0 308.456 308.456" xmlns:xlink="http://www.w3.org/1999/xlink" enable-background="new 0 0 308.456 308.456">
  <g>
    <g>
      <path d="m120.993,293.456c0,8.284 6.716,15 15,15s15-6.716 15-15v-102.094h-30c0,0 0,102.094 0,102.094z"/>
      <path d="M157.47,293.456c0,8.284,6.716,15,15,15s15-6.716,15-15V191.362h-30V293.456z"/>
      <path d="m199.177,169.61c-11.871,6.725-26.791,2.41-33.393-9.24-2.859-5.046-3.721-10.686-2.85-16.008h-17.411c0.871,5.322 0.008,10.963-2.851,16.009-6.609,11.661-21.533,15.956-33.393,9.238l-31.554-17.876c-2.037,2.861-3.247,6.35-3.247,10.13 0,9.665 7.835,17.5 17.5,17.5h124.5c9.665,0 17.5-7.835 17.5-17.5 0-3.779-1.21-7.269-3.247-10.13l-31.554,17.877z"/>
      <path d="m236.862,119.915c-0.73-1.243-11.616-19.915-22.066-37.599-4.996-8.468-12.44-21.065-27.229-22.16v-0.085c-12.709,0-65.449,0-66.21,0v0.049c-15.104,0.859-22.648,13.639-27.697,22.196-10.819,18.307-20.986,35.76-22.066,37.599-1.684,2.888-2.143,6.33-1.272,9.558 0.87,3.227 2.998,5.972 5.906,7.62l38.966,22.076c6.004,3.401 13.633,1.294 17.038-4.714 3.403-6.007 1.292-13.635-4.714-17.038l-27.942-15.83c17.416-29.746 19.393-33.278 21.779-35.57l-.369,33.908 12.447,7.052c2.547,1.443 4.735,3.278 6.535,5.386h28.518c1.8-2.108 3.989-3.943 6.536-5.386l12.174-6.897 .368-33.582c3.151,3.45 15.368,24.935 21.313,35.09l-27.941,15.83c-6.006,3.403-8.117,11.031-4.714,17.038 3.405,6.008 11.034,8.115 17.038,4.714l38.966-22.076c2.908-1.649 5.036-4.393 5.906-7.62 0.873-3.229 0.414-6.672-1.27-9.559z"/>
      <path d="M154.597,51.813c14.303,0,25.906-11.595,25.906-25.906C180.503,11.599,168.905,0,154.597,0S128.69,11.599,128.69,25.907    C128.69,40.282,140.365,51.813,154.597,51.813z"/>
    </g>
  </g>
</svg>
