<?xml version="1.0" encoding="iso-8859-1"?>
<!-- Generator: Adobe Illustrator 18.0.0, SVG Export Plug-In . SVG Version: 6.00 Build 0)  -->
<!DOCTYPE svg PUBLIC "-//W3C//DTD SVG 1.1//EN" "http://www.w3.org/Graphics/SVG/1.1/DTD/svg11.dtd">
<svg version="1.1" id="Capa_1" xmlns="http://www.w3.org/2000/svg" xmlns:xlink="http://www.w3.org/1999/xlink" x="0px" y="0px"
	 viewBox="0 0 56.24 56.24" style="enable-background:new 0 0 56.24 56.24;" xml:space="preserve">
<path style="fill:#231F20;" d="M44.347,38.333c-2.098-13.543-13.467-24.277-27.29-25.366c-5.512-0.432-10.895,0.599-15.791,3.028
	c-0.34,0.169-0.556,0.516-0.556,0.896s0.215,0.727,0.555,0.896c4.251,2.112,7.941,5.298,10.671,9.21
	c0.202,0.29,0.541,0.454,0.894,0.425l7.232-0.53l-4.809,4.829c-0.28,0.282-0.368,0.702-0.222,1.071
	c0.745,1.898,0.326,3.685-1.262,5.422C5.526,38.696,0,39.583,0,40.597c0,1.531,12.59,2.773,28.12,2.773s28.12-1.241,28.12-2.773
	C56.24,39.662,51.54,38.835,44.347,38.333z"/>
<g>
</g>
<g>
</g>
<g>
</g>
<g>
</g>
<g>
</g>
<g>
</g>
<g>
</g>
<g>
</g>
<g>
</g>
<g>
</g>
<g>
</g>
<g>
</g>
<g>
</g>
<g>
</g>
<g>
</g>
</svg>
