<?xml version="1.0" encoding="iso-8859-1"?>
<!-- Generator: Adobe Illustrator 18.0.0, SVG Export Plug-In . SVG Version: 6.00 Build 0)  -->
<!DOCTYPE svg PUBLIC "-//W3C//DTD SVG 1.1//EN" "http://www.w3.org/Graphics/SVG/1.1/DTD/svg11.dtd">
<svg version="1.1" id="Capa_1" xmlns="http://www.w3.org/2000/svg" xmlns:xlink="http://www.w3.org/1999/xlink" x="0px" y="0px"
	 viewBox="0 0 60.002 60.002" style="enable-background:new 0 0 60.002 60.002;" xml:space="preserve">
<g>
	<path d="M34.454,37.544c-0.433,0.264-0.857,0.558-1.269,0.866c-1.362-0.54-2.826-0.693-4.28-0.393
		c-3.042,0.626-5.463,3.207-5.887,6.277c-0.305,2.201,0.359,4.407,1.822,6.05c1.428,1.604,3.463,2.515,5.605,2.515
		c0.055,0,0.109-0.001,0.164-0.002c2.894-0.063,5.539-1.901,6.74-4.684c0.553-1.28,0.696-2.623,0.472-3.997
		c0.425-0.31,0.81-0.635,1.165-1.006c1.284-1.343,1.354-3.307,0.17-4.776C37.973,36.924,36.039,36.575,34.454,37.544z M35.515,47.38
		c-0.892,2.067-2.834,3.433-4.947,3.478c-1.599,0.037-3.159-0.636-4.232-1.843c-1.073-1.205-1.56-2.825-1.336-4.446
		c0.311-2.245,2.082-4.134,4.31-4.592c0.377-0.078,0.756-0.116,1.132-0.116c0.26,0,0.519,0.019,0.775,0.055
		c-1.033,0.88-1.946,1.758-2.61,2.428c-0.775,0.781-0.963,1.971-0.469,2.958l0.766,1.531c0.315,0.63,0.885,1.107,1.563,1.311
		c0.681,0.206,1.423,0.119,2.037-0.237c1.282-0.741,2.43-1.476,3.43-2.195C35.891,46.276,35.752,46.83,35.515,47.38z M37.542,41.788
		c-0.921,0.964-2.223,1.642-4.378,2.765c-0.732,0.381-1.561,0.813-2.504,1.322l-0.734-1.47c-0.008-0.015-0.001-0.032-0.008-0.047
		c0.281-0.346,2.828-3.426,5.579-5.107c0.879-0.538,1.684-0.123,2.103,0.398C38.019,40.17,38.255,41.042,37.542,41.788z"/>
	<path d="M59.795,28.064c-0.401-1.697-1.364-3.156-2.576-3.902c-0.812-0.499-1.678-0.659-2.508-0.461
		c-0.189,0.045-0.371,0.114-0.548,0.198C48.347,9.746,34.384,8.05,31.103,7.852C31.56,5.628,33.547,4.001,36,4.001
		c0.553,0,1-0.447,1-1s-0.447-1-1-1c-3.597,0-6.473,2.526-6.926,5.898c-4.735,0.42-20.776,3.257-24.319,22.405
		c-0.015,0.083-0.025,0.167-0.04,0.25c-0.254-0.07-0.512-0.118-0.776-0.118C1.73,30.436,0,32.818,0,35.859s1.73,5.424,3.939,5.424
		c0.404,0,0.798-0.102,1.177-0.267c0.701,2.671,1.863,5.179,3.458,7.378c3.194,4.404,9.468,9.606,21.27,9.606
		c0.182,0,0.363-0.001,0.548-0.004c12.114,0.172,18.573-5.13,21.817-9.603c2.879-3.969,4.344-8.941,4.229-14.07
		c0.035,0.001,0.07,0.007,0.104,0.007c0.227,0,0.451-0.025,0.672-0.078C59.363,33.741,60.496,31.022,59.795,28.064z M4.674,38.985
		c-0.206,0.166-0.456,0.298-0.734,0.298C3.022,39.283,2,37.877,2,35.859s1.022-3.424,1.939-3.424c0.167,0,0.335,0.047,0.504,0.139
		c-0.049,0.531-0.081,1.062-0.096,1.591c-0.001,0.04,0,0.08-0.001,0.12c-0.01,0.437-0.009,0.872,0.004,1.306
		c0.004,0.143,0.009,0.285,0.015,0.428c0.016,0.352,0.041,0.702,0.072,1.052c0.013,0.147,0.022,0.294,0.037,0.44
		c0.047,0.435,0.105,0.867,0.175,1.297C4.659,38.867,4.664,38.927,4.674,38.985z M50.591,47.221
		c-4.316,5.949-11.13,8.895-20.185,8.776h-0.027c-0.186,0.003-0.369,0.004-0.552,0.004c-8.802,0-15.405-2.953-19.633-8.78
		c-2.062-2.842-3.329-6.256-3.726-9.867c-0.008-0.077-0.01-0.155-0.017-0.232c-0.057-0.571-0.089-1.146-0.102-1.725
		c-0.005-0.251-0.001-0.504,0.003-0.756c0.004-0.405,0.02-0.811,0.046-1.217c0.02-0.298,0.04-0.596,0.071-0.895
		c0.064-0.62,0.138-1.241,0.252-1.861C10.305,11.302,27.121,9.925,30.001,9.832c0.001,0,0.002,0,0.003,0
		c0.001,0,0.003-0.001,0.004-0.001c0.165-0.005,0.292-0.007,0.358-0.007c0.014,0,0.026,0,0.035,0
		c0.035-0.008,4.979-0.018,10.374,2.542c5.636,2.674,9.591,7.033,11.822,12.981l-0.003,0.003l0.182,0.513
		c0.272,0.766,0.509,1.532,0.719,2.308c0.013,0.049,0.026,0.098,0.038,0.147c0.204,0.769,0.381,1.548,0.53,2.348
		c0.122,0.659,0.204,1.318,0.268,1.976c0.012,0.127,0.029,0.252,0.04,0.38C54.791,38.191,53.464,43.26,50.591,47.221z
		 M56.751,32.309c-0.137,0.031-0.283,0.03-0.436,0c-0.004-0.036-0.011-0.07-0.015-0.106c-0.068-0.63-0.152-1.261-0.269-1.891
		c0-0.003-0.001-0.006-0.001-0.009c-0.002-0.012-0.006-0.023-0.008-0.035c-0.141-0.76-0.306-1.489-0.485-2.198
		c-0.019-0.075-0.043-0.149-0.062-0.224c-0.181-0.695-0.381-1.365-0.595-2.013c-0.005-0.015-0.008-0.03-0.013-0.045
		c0.101-0.069,0.204-0.116,0.31-0.142c0.378-0.093,0.752,0.069,0.994,0.219c0.758,0.467,1.401,1.486,1.68,2.66
		C58.314,30.489,57.645,32.096,56.751,32.309z"/>
	<path d="M28,26.359c0-4.687-3.141-8.5-7-8.5s-7,3.813-7,8.5s3.141,8.5,7,8.5S28,31.046,28,26.359z M21,32.859
		c-2.757,0-5-2.916-5-6.5s2.243-6.5,5-6.5s5,2.916,5,6.5S23.757,32.859,21,32.859z"/>
	<ellipse cx="21" cy="26.359" rx="3" ry="4.5"/>
	<path d="M39,17.859c-3.859,0-7,3.813-7,8.5s3.141,8.5,7,8.5s7-3.813,7-8.5S42.859,17.859,39,17.859z M39,32.859
		c-2.757,0-5-2.916-5-6.5s2.243-6.5,5-6.5s5,2.916,5,6.5S41.757,32.859,39,32.859z"/>
	<ellipse cx="39" cy="26.359" rx="3" ry="4.5"/>
</g>
<g>
</g>
<g>
</g>
<g>
</g>
<g>
</g>
<g>
</g>
<g>
</g>
<g>
</g>
<g>
</g>
<g>
</g>
<g>
</g>
<g>
</g>
<g>
</g>
<g>
</g>
<g>
</g>
<g>
</g>
</svg>
