<?xml version="1.0" encoding="iso-8859-1"?>
<!-- Generator: Adobe Illustrator 19.0.0, SVG Export Plug-In . SVG Version: 6.00 Build 0)  -->
<svg version="1.1" id="Layer_1" xmlns="http://www.w3.org/2000/svg" xmlns:xlink="http://www.w3.org/1999/xlink" x="0px" y="0px"
	 viewBox="0 0 340 340" style="enable-background:new 0 0 340 340;" xml:space="preserve">
<g id="XMLID_852_">
	<g>
		<path d="M170,45C76.111,45,0,107.656,0,165c0,28.735,19.115,43.73,50,51.541V245c0,30,70,50,120,50s120-20,120-50v-28.459
			c30.885-7.811,50-22.806,50-51.541C340,107.656,263.889,45,170,45z M140,85h60v40c0,16.568-30,30-30,30s-30-13.432-30-30V85z
			 M290,205H50v-20h240V205z"/>
	</g>
</g>
<g>
</g>
<g>
</g>
<g>
</g>
<g>
</g>
<g>
</g>
<g>
</g>
<g>
</g>
<g>
</g>
<g>
</g>
<g>
</g>
<g>
</g>
<g>
</g>
<g>
</g>
<g>
</g>
<g>
</g>
</svg>
