<?xml version="1.0" encoding="iso-8859-1"?>
<!-- Generator: Adobe Illustrator 18.0.0, SVG Export Plug-In . SVG Version: 6.00 Build 0)  -->
<!DOCTYPE svg PUBLIC "-//W3C//DTD SVG 1.1//EN" "http://www.w3.org/Graphics/SVG/1.1/DTD/svg11.dtd">
<svg version="1.1" id="Capa_1" xmlns="http://www.w3.org/2000/svg" xmlns:xlink="http://www.w3.org/1999/xlink" x="0px" y="0px"
	 viewBox="0 0 490.901 490.901" style="enable-background:new 0 0 490.901 490.901;" xml:space="preserve">
<g>
	<path d="M287.888,141.208c2.237,0.834,4.749-0.055,5.965-2.109c1.215-2.054,0.785-4.685-1.023-6.244
		C197.399,50.557,148.923,24.099,131.106,16.198c-1.832-0.817-3.962-0.633-5.652,0.489c-1.688,1.114-2.675,3.016-2.642,5.03
		c0.463,21.971,4.456,45.057,10.411,67.952C173.396,101.022,224.197,117.461,287.888,141.208z"/>
	<path d="M488.453,148.817l-38.178-13.829c-5.776-22.291-22.926-44.103-68.938-44.103c-22.465,0-39.466,15.683-48.987,34.04
		l-0.018-0.006c0,0-11.86,23.888-30.375,39.039c-191.15-72.8-271.473-82.196-295.881-82.96c-0.061,0-0.124,0-0.189,0
		c-1.913,0-3.727,0.939-4.841,2.533c-1.13,1.643-1.367,3.751-0.603,5.596c30.17,73.73,101.497,145.106,151.918,189.152
		C90.874,333.629,47.394,400.817,24.388,441.405c-4.11,7.245-3.885,16.152,0.542,23.2c4.425,7.043,12.354,11.096,20.662,10.554
		l163.83-10.779c2.004-0.127,3.852-1.099,5.095-2.65c1.274-1.561,1.814-3.572,1.515-5.549
		c-12.739-85.527,33.434-117.329,34.435-118.016c13.598,6.384,50.148,11.243,72.982,8.83
		c39.404-4.164,109.602-25.107,101.848-101.117c-3.457-28.489,4.888-57.067,22.908-79.293l38.485-10.318
		c2.084-0.564,3.708-2.005,4.12-3.655C491.208,150.98,490.272,149.47,488.453,148.817z"/>
</g>
<g>
</g>
<g>
</g>
<g>
</g>
<g>
</g>
<g>
</g>
<g>
</g>
<g>
</g>
<g>
</g>
<g>
</g>
<g>
</g>
<g>
</g>
<g>
</g>
<g>
</g>
<g>
</g>
<g>
</g>
</svg>
