<?xml version="1.0" encoding="iso-8859-1"?>
<!-- Generator: Adobe Illustrator 18.0.0, SVG Export Plug-In . SVG Version: 6.00 Build 0)  -->
<!DOCTYPE svg PUBLIC "-//W3C//DTD SVG 1.1//EN" "http://www.w3.org/Graphics/SVG/1.1/DTD/svg11.dtd">
<svg version="1.1" id="Capa_1" xmlns="http://www.w3.org/2000/svg" xmlns:xlink="http://www.w3.org/1999/xlink" x="0px" y="0px"
	 viewBox="0 0 82.221 99.329" style="enable-background:new 0 0 82.221 99.329;" xml:space="preserve">
<g>
	<path d="M81.674,73.92c-0.044-0.135-4.423-13.825-4.423-43.751c0-4.048-0.891-7.973-2.649-11.666
		c-1.688-3.546-4.099-6.944-7.166-9.669C61.183,3.278,52.887,0,44.075,0h-5.971c-8.811,0-17.108,3.278-23.361,8.834
		c-3.067,2.725-5.478,6.014-7.166,9.56c-1.758,3.693-2.649,7.673-2.649,11.721c0,14.874-1.208,26.022-2.221,32.732
		c-1.098,7.269-2.21,11.085-2.22,11.121L0,75.609l1.428,0.936c0.438,0.286,2.162,1.221,5.936,1.221c1.457,0,3.055-0.141,4.773-0.421
		c0.009,1.674-0.163,4.188-0.94,7.296l-1.104,4.413l4.2-1.747c0.17-0.071,3.695-1.545,7.908-3.894
		c0.594,0.73,1.235,1.432,1.923,2.099c3.477,3.369,7.83,5.576,12.558,6.423c0.446,0.742,0.857,1.433,1.229,2.057
		c0.488,0.819,0.909,1.526,1.275,2.127l1.953,3.21l1.953-3.21c0.366-0.602,0.788-1.309,1.275-2.128
		c0.375-0.63,0.79-1.327,1.241-2.077c4.684-0.862,8.995-3.061,12.444-6.402c0.689-0.667,1.33-1.369,1.923-2.099
		c4.213,2.348,7.739,3.823,7.908,3.894l4.2,1.747l-1.104-4.413c-0.777-3.108-0.949-5.621-0.94-7.295
		c1.718,0.28,3.316,0.422,4.773,0.422h0c3.774,0,5.498-0.934,5.936-1.22l1.469-0.96L81.674,73.92z M26.183,81.027
		c-1.003-1.154-1.866-2.426-2.561-3.791c-0.938-1.839-1.573-3.847-1.842-5.963c1.276,1.304,2.601,2.809,3.971,4.512
		c0.432,0.537,0.868,1.091,1.309,1.667c0.496,0.648,0.986,1.306,1.468,1.969c1.616,2.221,3.142,4.497,4.527,6.653
		C30.389,84.904,28.044,83.168,26.183,81.027z M58.557,77.237c-0.696,1.365-1.558,2.636-2.561,3.791
		c-1.827,2.102-4.122,3.813-6.728,4.983c1.364-2.122,2.864-4.356,4.45-6.54c0.493-0.679,0.995-1.354,1.503-2.018
		c0.428-0.559,0.852-1.098,1.271-1.621c1.342-1.67,2.64-3.152,3.891-4.44C60.107,73.465,59.478,75.432,58.557,77.237z
		 M60.175,65.324c-2.296,1.941-4.693,4.468-7.215,7.604c-0.453,0.563-0.909,1.144-1.37,1.746c-0.481,0.628-0.955,1.264-1.422,1.904
		c-2.799,3.835-5.326,7.806-7.338,11.1c-0.509,0.834-0.986,1.625-1.426,2.359c-0.089,0.149-0.178,0.297-0.264,0.441
		c-0.086-0.144-0.174-0.291-0.263-0.44c-0.438-0.731-0.914-1.52-1.421-2.351c-2.023-3.312-4.567-7.31-7.385-11.166
		c-0.453-0.62-0.913-1.237-1.38-1.847c-0.476-0.622-0.947-1.222-1.414-1.802c-2.538-3.149-4.949-5.683-7.258-7.622
		c-0.671-0.563-1.333-1.076-1.987-1.539c-0.681-0.482-1.352-0.911-2.016-1.286c-0.495-0.28-0.985-0.531-1.471-0.752
		c0.561-1.018,1.598-2.584,3.143-4.408c0.815-0.962,1.587-1.776,2.285-2.441c1.335-1.272,2.398-1.997,2.966-2.163
		c2.7-0.79,4.453-2.495,5.999-3.999c0.568-0.552,1.107-1.074,1.681-1.551c0.041-0.034,0.081-0.07,0.122-0.103
		c0.6-0.488,1.219-1.042,1.873-1.629c1.921-1.722,4.551-4.082,6.446-4.082l0.082,0.001l0.082-0.001c1.895,0,4.526,2.359,6.447,4.082
		c0.654,0.587,1.273,1.141,1.873,1.629c0.067,0.055,0.132,0.112,0.198,0.168c0.545,0.46,1.063,0.959,1.605,1.487
		c1.546,1.504,3.298,3.209,5.999,3.999c0.51,0.149,1.417,0.748,2.562,1.787c0.799,0.725,1.713,1.665,2.688,2.816
		c1.545,1.824,2.582,3.39,3.143,4.408c-0.515,0.234-1.034,0.502-1.559,0.801c-0.664,0.379-1.335,0.812-2.016,1.298
		C61.508,64.24,60.846,64.757,60.175,65.324z M74.816,73.194c-1.827,0-3.964-0.275-6.354-0.817l-2.291-0.52l-0.457,2.305
		c-0.028,0.143-0.533,2.789-0.007,7.095c-0.967-0.48-2.057-1.043-3.2-1.673c1.707-3.245,2.611-6.86,2.611-10.611
		c0-0.554-0.021-1.105-0.06-1.652c1.349-0.937,2.627-1.596,3.831-1.971c1.17-0.366,1.919-1.435,1.908-2.726
		c-0.021-2.323-2.795-6.009-4.448-7.999c-1.676-2.02-4.909-5.531-7.721-6.354c-1.61-0.471-2.761-1.591-4.094-2.888
		c-0.653-0.635-1.329-1.293-2.108-1.926c-0.513-0.417-1.091-0.797-1.703-1.346C48.114,39.773,44.868,37,41.222,37
		c-0.027,0-0.055,0-0.082,0s-0.055,0-0.082,0c-3.645,0-6.891,2.773-9.5,5.112c-0.612,0.549-1.19,0.998-1.704,1.415
		c-0.779,0.633-1.455,1.256-2.108,1.891c-1.333,1.297-2.484,2.399-4.094,2.871c-2.813,0.823-6.045,4.326-7.721,6.346
		c-1.652,1.99-4.427,5.672-4.448,7.995c-0.012,1.29,0.737,2.358,1.908,2.723c1.174,0.367,2.42,1.003,3.733,1.904
		c-0.042,0.569-0.064,1.142-0.064,1.718c0,3.751,0.904,7.366,2.611,10.611c-1.144,0.63-2.233,1.193-3.2,1.673
		c0.526-4.306,0.022-6.952-0.007-7.095l-0.457-2.305l-2.291,0.52c-2.39,0.542-4.527,0.817-6.354,0.817
		c-0.782,0-1.418-0.051-1.924-0.122c0.45-1.905,1.109-5.035,1.768-9.372c1.047-6.888,2.294-18.302,2.294-33.536
		C9.501,16.292,22.332,5,38.104,5h5.971c15.772,0,28.603,11.292,28.603,25.164c0,24.049,2.746,37.817,4.021,42.911
		C76.2,73.143,75.577,73.194,74.816,73.194z"/>
	<polygon points="47.894,49.89 45.773,50.745 45.769,50.746 43.653,51.599 46.546,58.774 48.666,57.919 50.787,57.064 
		48.605,51.654 	"/>
	<polygon points="36.476,50.731 34.39,49.89 33.698,51.605 31.497,57.064 33.617,57.919 35.738,58.774 38.63,51.599 36.51,50.745 	
		"/>
	<path d="M67.085,27.922c-8.058-0.303-12.525,2.293-14.59,4.031c-0.389,0.294-0.74,0.63-1.043,1c-0.242,0.27-0.37,0.448-0.397,0.487
		l0.028,0.019c-0.063,0.097-0.124,0.195-0.181,0.295c-0.749,1.324-0.878,2.846-0.353,4.176C51.285,39.795,53.191,41,55.405,41h0
		c0.798,0,1.59-0.153,2.353-0.454c2.946-1.163,4.506-4.23,3.477-6.836c-0.243-0.615-0.613-1.158-1.08-1.61
		c2.434-0.607,4.899-0.696,6.797-0.625c0.98,0.036,1.807-0.729,1.844-1.711C68.832,28.784,68.066,27.958,67.085,27.922z
		 M56.078,36.293c-0.223,0.088-0.456,0.134-0.673,0.134h0c-0.382,0-0.581-0.138-0.603-0.178c-0.025-0.102,0.195-0.623,0.903-0.903
		c0.223-0.088,0.456-0.134,0.674-0.134c0.383,0,0.58,0.138,0.603,0.178C57.007,35.492,56.786,36.013,56.078,36.293z"/>
	<path d="M31.199,32.913l0.028-0.019c-0.037-0.053-0.173-0.241-0.422-0.518c-0.277-0.334-0.592-0.639-0.94-0.91
		c-0.586-0.503-1.377-1.083-2.404-1.646c-3.288-1.802-7.414-2.625-12.264-2.443c-0.982,0.037-1.747,0.862-1.711,1.843
		c0.037,0.982,0.864,1.745,1.844,1.711c2.79-0.105,5.033,0.184,6.796,0.626c-0.466,0.452-0.836,0.994-1.079,1.609
		c-1.029,2.606,0.531,5.673,3.477,6.836c0.763,0.301,1.555,0.454,2.353,0.454c2.213,0,4.12-1.206,4.856-3.071
		c0.525-1.33,0.396-2.852-0.353-4.176C31.323,33.108,31.262,33.01,31.199,32.913z M26.877,35.882c-0.218,0-0.451-0.047-0.674-0.135
		c-0.708-0.279-0.928-0.8-0.903-0.904c0.022-0.039,0.219-0.177,0.602-0.177c0.218,0,0.451,0.047,0.674,0.135
		c0.708,0.28,0.928,0.801,0.903,0.904C27.457,35.745,27.259,35.882,26.877,35.882z"/>
</g>
<g>
</g>
<g>
</g>
<g>
</g>
<g>
</g>
<g>
</g>
<g>
</g>
<g>
</g>
<g>
</g>
<g>
</g>
<g>
</g>
<g>
</g>
<g>
</g>
<g>
</g>
<g>
</g>
<g>
</g>
</svg>
