<?xml version="1.0" encoding="iso-8859-1"?>
<!-- Generator: Adobe Illustrator 16.0.0, SVG Export Plug-In . SVG Version: 6.00 Build 0)  -->
<!DOCTYPE svg PUBLIC "-//W3C//DTD SVG 1.1//EN" "http://www.w3.org/Graphics/SVG/1.1/DTD/svg11.dtd">
<svg version="1.1" id="Capa_1" xmlns="http://www.w3.org/2000/svg" xmlns:xlink="http://www.w3.org/1999/xlink" x="0px" y="0px"
	 width="68.677px" height="68.677px" viewBox="0 0 68.677 68.677" style="enable-background:new 0 0 68.677 68.677;"
	 xml:space="preserve">
<g>
	<path d="M67.684,30.15L35.889,5.67c-0.914-0.704-2.188-0.704-3.104,0L0.992,30.15c-1.113,0.856-1.321,2.454-0.463,3.566
		c0.857,1.112,2.454,1.319,3.567,0.464l2.793-2.151v28.963c0,1.402,1.139,2.543,2.543,2.543h49.493c1.404,0,2.545-1.141,2.545-2.543
		V31.785l3.109,2.396c0.463,0.355,1.01,0.528,1.551,0.528c0.762,0,1.518-0.342,2.019-0.992
		C69.005,32.604,68.798,31.008,67.684,30.15z M56.382,58.449H33.227c-0.224-1.088-0.431-2.416-0.496-3.838
		c0.512,0.238,1.338,0.523,2.365,0.523c1.633,0,4.037-0.729,6.213-4.205c0.363-0.58,0.203-1.344-0.363-1.729
		c-0.139-0.094-1.396-0.912-3.147-0.912c-1.351,0-3.169,0.492-4.841,2.557c0.302-1.646,0.917-3.24,2.019-4.569
		c1.447-0.309,9.402-2.371,10.783-10.645c0.058-0.342-0.026-0.689-0.231-0.968c-0.205-0.277-0.517-0.459-0.855-0.504
		c-0.051-0.006-0.5-0.062-1.205-0.062c-1.752,0-5.447,0.366-7.937,3.17c-1.278-3.779-4.402-8.168-10.727-8.729
		c-0.591-0.054-1.143,0.313-1.324,0.882c-0.074,0.23-1.779,5.734,1.04,10.602c1.552,2.68,4.138,4.604,7.697,5.738
		c-2.572,4.039-2.23,9.264-1.586,12.688H11.976V28.113l22.362-17.219l22.043,16.975L56.382,58.449L56.382,58.449z"/>
</g>
<g>
</g>
<g>
</g>
<g>
</g>
<g>
</g>
<g>
</g>
<g>
</g>
<g>
</g>
<g>
</g>
<g>
</g>
<g>
</g>
<g>
</g>
<g>
</g>
<g>
</g>
<g>
</g>
<g>
</g>
</svg>
