<?xml version="1.0" encoding="iso-8859-1"?>
<!-- Generator: Adobe Illustrator 16.0.0, SVG Export Plug-In . SVG Version: 6.00 Build 0)  -->
<!DOCTYPE svg PUBLIC "-//W3C//DTD SVG 1.1//EN" "http://www.w3.org/Graphics/SVG/1.1/DTD/svg11.dtd">
<svg version="1.1" id="Capa_1" xmlns="http://www.w3.org/2000/svg" xmlns:xlink="http://www.w3.org/1999/xlink" x="0px" y="0px"
	 width="884.18px" height="884.18px" viewBox="0 0 884.18 884.18" style="enable-background:new 0 0 884.18 884.18;"
	 xml:space="preserve">
<g>
	<g>
		<path d="M202.9,870.979c17.6,17.6,46.1,17.6,63.6,0l155.2-155.101l-76.9-76.899c-11.699-11.7-11.699-30.7,0-42.4l3.5-3.5
			c11.7-11.7,30.7-11.7,42.4,0l76.9,76.9l52.199-52.2l-76.899-76.9c-11.7-11.7-11.7-30.7,0-42.399l3.5-3.5
			c11.7-11.7,30.7-11.7,42.399,0l76.9,76.899l86.6-86.6l-92.899-92.9l-67.5-67.5l-92.9-92.9L13.2,617.579
			c-17.6,17.6-17.6,46.1,0,63.6L202.9,870.979z"/>
		<path d="M798.5,222.479c-0.6-8-0.8-16.399-0.399-25.1c1.699-37.2,21.6-70.9,52.199-92.2c3.9-2.7,7.801-5.899,11.301-9.5
			c25.699-25.7,30.1-62.8,9.899-83s-57.399-15.8-83,9.9c-3.6,3.6-6.7,7.399-9.5,11.3c-21.3,30.6-54.899,50.5-92.2,52.2
			c-8.699,0.399-17.1,0.2-25.1-0.4c-42.6-3.3-84.7,7.2-119.9,29.8l226.9,226.9C791.3,307.179,801.9,264.979,798.5,222.479z"/>
		<path d="M420.2,210.579l75.4,75.399l102.6,102.601l75.4,75.4l0.699,0.699c8.4,8.4,19.4,12.601,30.5,12.601
			c11,0,22.101-4.2,30.5-12.601l26.2-26.199c16.8-16.801,16.8-44.101,0-60.9l-11.1-11.1l-232.7-232.7l-11.1-11.101
			c-8.4-8.399-19.4-12.6-30.5-12.6c-11.101,0-22.101,4.2-30.5,12.6l-26.2,26.2c-16.8,16.8-16.8,44.1,0,60.9L420.2,210.579z"/>
	</g>
</g>
<g>
</g>
<g>
</g>
<g>
</g>
<g>
</g>
<g>
</g>
<g>
</g>
<g>
</g>
<g>
</g>
<g>
</g>
<g>
</g>
<g>
</g>
<g>
</g>
<g>
</g>
<g>
</g>
<g>
</g>
</svg>
