<?xml version="1.0" encoding="iso-8859-1"?>
<!-- Generator: Adobe Illustrator 19.0.0, SVG Export Plug-In . SVG Version: 6.00 Build 0)  -->
<svg version="1.1" id="Layer_1" xmlns="http://www.w3.org/2000/svg" xmlns:xlink="http://www.w3.org/1999/xlink" x="0px" y="0px"
	 viewBox="0 0 495.049 495.049" style="enable-background:new 0 0 495.049 495.049;" xml:space="preserve">
<g id="XMLID_968_">
	<g>
		<g>
			<path d="M213.869,435.471l15.994,25.381c18.91-11.916,35.204-28.21,47.119-47.12l-25.381-15.993
				C242.06,412.882,229.012,425.929,213.869,435.471z"/>
			<path d="M123.319,450.891l-6.639,29.256c10.885,2.47,22.095,3.723,33.319,3.723s22.435-1.252,33.319-3.723l-6.639-29.256
				C159.261,454.844,140.739,454.844,123.319,450.891z"/>
			<path d="M48.398,397.739l-25.381,15.993c11.915,18.91,28.209,35.204,47.119,47.12l15.994-25.381
				C70.988,425.929,57.94,412.882,48.398,397.739z"/>
			<path d="M30,333.869c0-8.994,1.002-17.97,2.979-26.681L3.723,300.55C1.252,311.436,0,322.646,0,333.869
				c0,11.223,1.252,22.434,3.723,33.319l29.256-6.639C31.002,351.84,30,342.863,30,333.869z"/>
			<path d="M23.018,254.007L48.398,270c9.542-15.143,22.59-28.191,37.732-37.732l-15.992-25.382
				C51.228,218.802,34.934,235.095,23.018,254.007z"/>
			<path d="M142.899,214.083l43.176,39.566l-38.308,132.912L495.049,198.87L147.767,11.179l38.308,132.912l-43.624,39.977
				c-8.69,0.434-17.329,1.608-25.771,3.525l6.641,29.256C129.735,215.393,136.295,214.47,142.899,214.083z M196.39,326.179
				l18.536-64.314l155.812-29.914L196.39,326.179z M370.739,165.786l-155.813-29.913L196.39,71.559L370.739,165.786z
				 M207.637,165.022l176.304,33.847l-176.304,33.848l-36.935-33.848L207.637,165.022z"/>
		</g>
	</g>
</g>
<g>
</g>
<g>
</g>
<g>
</g>
<g>
</g>
<g>
</g>
<g>
</g>
<g>
</g>
<g>
</g>
<g>
</g>
<g>
</g>
<g>
</g>
<g>
</g>
<g>
</g>
<g>
</g>
<g>
</g>
</svg>
