<?xml version="1.0" encoding="iso-8859-1"?>
<!-- Generator: Adobe Illustrator 16.0.0, SVG Export Plug-In . SVG Version: 6.00 Build 0)  -->
<!DOCTYPE svg PUBLIC "-//W3C//DTD SVG 1.1//EN" "http://www.w3.org/Graphics/SVG/1.1/DTD/svg11.dtd">
<svg version="1.1" id="Capa_1" xmlns="http://www.w3.org/2000/svg" xmlns:xlink="http://www.w3.org/1999/xlink" x="0px" y="0px"
	 width="30.002px" height="30.002px" viewBox="0 0 30.002 30.002" style="enable-background:new 0 0 30.002 30.002;"
	 xml:space="preserve">
<g>
	<g>
		<g>
			<path d="M29.659,23.311c-0.097-0.088-0.239-0.102-0.352-0.034c-1.412,0.825-4.526,2.061-7.757-0.539l-0.002,0.002
				c-0.765-0.758-1.814-1.229-2.979-1.229c-1.506,0-2.82,0.792-3.57,1.978c-0.751-1.186-2.063-1.978-3.569-1.978
				c-1.162,0-2.215,0.472-2.979,1.229l-0.001-0.002c-3.229,2.599-6.344,1.364-7.756,0.539c-0.112-0.066-0.255-0.054-0.352,0.034
				c-0.099,0.087-0.128,0.227-0.074,0.346c3.261,7.372,11.507,6.29,11.507,6.29c1.354-0.111,2.53-0.854,3.225-1.936
				c0.694,1.081,1.869,1.822,3.227,1.936c0,0,8.245,1.082,11.507-6.29C29.786,23.536,29.757,23.396,29.659,23.311z"/>
			<path d="M22.908,9.421c0,0,0-7.538,0-7.566c0-1.024-3.54-1.855-7.906-1.855c-4.365,0-7.905,0.831-7.905,1.855
				c0,0.028,0,7.566,0,7.566c1.005,0.802,4.161,1.389,7.905,1.389C18.746,10.81,21.902,10.223,22.908,9.421z"/>
			<path d="M15.002,18.303c6.802,0,12.313-1.313,12.313-2.938c0-0.904-1.715-1.712-4.406-2.25V12.55
				c-1.006,0.802-4.162,1.388-7.906,1.388c-3.744,0-6.9-0.586-7.905-1.388v0.565c-2.692,0.539-4.406,1.347-4.406,2.25
				C2.689,16.986,8.201,18.303,15.002,18.303z"/>
		</g>
	</g>
</g>
<g>
</g>
<g>
</g>
<g>
</g>
<g>
</g>
<g>
</g>
<g>
</g>
<g>
</g>
<g>
</g>
<g>
</g>
<g>
</g>
<g>
</g>
<g>
</g>
<g>
</g>
<g>
</g>
<g>
</g>
</svg>
