<?xml version="1.0" encoding="iso-8859-1"?>
<!-- Generator: Adobe Illustrator 18.0.0, SVG Export Plug-In . SVG Version: 6.00 Build 0)  -->
<!DOCTYPE svg PUBLIC "-//W3C//DTD SVG 1.1//EN" "http://www.w3.org/Graphics/SVG/1.1/DTD/svg11.dtd">
<svg version="1.1" id="Capa_1" xmlns="http://www.w3.org/2000/svg" xmlns:xlink="http://www.w3.org/1999/xlink" x="0px" y="0px"
	 viewBox="0 0 44 44" style="enable-background:new 0 0 44 44;" xml:space="preserve">
<g>
	<circle cx="13" cy="16" r="3"/>
	<circle cx="31" cy="16" r="3"/>
	<path d="M22,0C9.869,0,0,9.869,0,22s9.869,22,22,22s22-9.869,22-22S34.131,0,22,0z M22,2c7.988,0,14.878,4.719,18.08,11.506
		L39,14.586V14c0-2.757-2.243-5-5-5h-6c-2.757,0-5,2.243-5,5v1h-2v-1c0-2.757-2.243-5-5-5h-6c-2.757,0-5,2.243-5,5v0.586l-1.08-1.08
		C7.122,6.719,14.012,2,22,2z M37,14v4c0,1.654-1.346,3-3,3h-6c-1.654,0-3-1.346-3-3v-4c0-1.654,1.346-3,3-3h6
		C35.654,11,37,12.346,37,14z M19,14v4c0,1.654-1.346,3-3,3h-6c-1.654,0-3-1.346-3-3v-4c0-1.654,1.346-3,3-3h6
		C17.654,11,19,12.346,19,14z M22,42C10.972,42,2,33.028,2,22c0-2.272,0.399-4.448,1.1-6.486l1.9,1.9V18c0,2.757,2.243,5,5,5h6
		c2.757,0,5-2.243,5-5v-1h2v1c0,2.757,2.243,5,5,5h6c2.757,0,5-2.243,5-5v-0.586l1.9-1.9C41.601,17.552,42,19.728,42,22
		C42,33.028,33.028,42,22,42z"/>
	<path d="M32.385,26.01c-0.511-0.213-1.096,0.029-1.308,0.538c-1.257,3.018-3.722,5.354-6.939,6.578
		c-3.147,1.197-6.702,1.155-9.753-0.116c-0.513-0.214-1.096,0.029-1.308,0.538c-0.213,0.51,0.028,1.096,0.538,1.308
		c1.819,0.758,3.791,1.138,5.771,1.138c1.853,0,3.713-0.332,5.463-0.998c3.735-1.421,6.603-4.148,8.073-7.678
		C33.135,26.808,32.895,26.222,32.385,26.01z"/>
</g>
<g>
</g>
<g>
</g>
<g>
</g>
<g>
</g>
<g>
</g>
<g>
</g>
<g>
</g>
<g>
</g>
<g>
</g>
<g>
</g>
<g>
</g>
<g>
</g>
<g>
</g>
<g>
</g>
<g>
</g>
</svg>
