<?xml version="1.0" encoding="iso-8859-1"?>
<!-- Generator: Adobe Illustrator 16.0.0, SVG Export Plug-In . SVG Version: 6.00 Build 0)  -->
<!DOCTYPE svg PUBLIC "-//W3C//DTD SVG 1.1//EN" "http://www.w3.org/Graphics/SVG/1.1/DTD/svg11.dtd">
<svg version="1.1" id="Capa_1" xmlns="http://www.w3.org/2000/svg" xmlns:xlink="http://www.w3.org/1999/xlink" x="0px" y="0px"
	 width="120.64px" height="120.64px" viewBox="0 0 120.64 120.64" style="enable-background:new 0 0 120.64 120.64;"
	 xml:space="preserve">
<g>
	<g>
		<path id="path4130" d="M77.917,58.409H42.572c-3.144,0-4.829,2.4-3.759,5.358l19.754,54.657c1.07,2.961,2.785,2.953,3.833-0.014
			L81.72,63.779C82.767,60.816,81.065,58.409,77.917,58.409"/>
		<path id="path4132" d="M39.789,55.56c9.815,0,29.8,0,39.61,0c3.146,0,8.543-0.608,10.142-3.315
			c2.528-4.284,0.758-11.145-3.209-14.288c-2.468-1.953-4.204-3.999-3.808-7.119c0.681-5.364-1.597-8.51-4.056-10.297
			c-2.543-1.845-4.064-4.546-4.017-7.689C74.566,4.935,67.386,0,60.7,0c-2.051,0-3.558,0.238-4.669,0.591
			c-2.483,0.796-1.661,2.71-0.13,3.359c0.812,0.346,1.474,1.041,1.474,2.401c0,3.51-4.065,3.336-8.131,7.402
			c-0.699,0.699-1,2.804,3.178,4.42c3.901,1.451,7.333,4.125,11.534,4.684c3.12,0.413,3.314,0.866,0.171,0.919
			c-5.227,0.091-8.31-4.325-15.995-4.61c-1.086,0-6.475-1.012-8.173,7.042c-0.647,3.077,2.046,5.919,5.028,6.917
			c6.089,2.028,10.783,5.552,18.897,5.971c3.139,0.156,3.246,0.747,0.101,0.773c-13.852,0.101-28.848-14.429-33.332,1.567
			c-0.853,3.03-1.136,7.968,0.14,10.422C32.07,54.314,36.646,55.56,39.789,55.56"/>
	</g>
</g>
<g>
</g>
<g>
</g>
<g>
</g>
<g>
</g>
<g>
</g>
<g>
</g>
<g>
</g>
<g>
</g>
<g>
</g>
<g>
</g>
<g>
</g>
<g>
</g>
<g>
</g>
<g>
</g>
<g>
</g>
</svg>
