<?xml version="1.0" encoding="iso-8859-1"?>
<!-- Generator: Adobe Illustrator 18.0.0, SVG Export Plug-In . SVG Version: 6.00 Build 0)  -->
<!DOCTYPE svg PUBLIC "-//W3C//DTD SVG 1.1//EN" "http://www.w3.org/Graphics/SVG/1.1/DTD/svg11.dtd">
<svg version="1.1" id="Capa_1" xmlns="http://www.w3.org/2000/svg" xmlns:xlink="http://www.w3.org/1999/xlink" x="0px" y="0px"
	 viewBox="0 0 60 60" style="enable-background:new 0 0 60 60;" xml:space="preserve">
<g>
	<circle cx="39.323" cy="34" r="2"/>
	<circle cx="21.323" cy="34" r="2"/>
	<path d="M36.17,45.432c-0.025,0.036-2.574,3.653-6.272,4.204c-1.973,0.292-3.963-0.342-5.92-1.887
		c-0.433-0.341-1.062-0.268-1.404,0.165c-0.342,0.434-0.269,1.063,0.165,1.405c2.012,1.588,4.093,2.389,6.203,2.389
		c0.421,0,0.843-0.032,1.266-0.096c4.562-0.688,7.487-4.867,7.609-5.045c0.313-0.454,0.198-1.075-0.255-1.39
		C37.106,44.865,36.484,44.978,36.17,45.432z"/>
	<path d="M59.401,44.656C59.4,44.656,59.4,44.656,59.401,44.656c-2.1-4.708-2.759-13.612-2.965-18.502
		c-0.195-4.619-1.572-8.96-3.984-12.555c-4.31-6.421-9.091-9.038-12.312-10.447c-5.822-2.547-12.315-2.841-18.361-0.856
		l-0.804-0.804c-1.089-1.09-2.418-1.626-3.639-1.463c-1.05,0.138-1.957,0.78-2.554,1.812c-0.054,0.093-0.092,0.192-0.114,0.297
		l-0.879,4.221c-2.329,1.7-4.25,3.728-5.839,6.212c-0.087,0.135-0.165,0.275-0.245,0.414l-5.052,0.899
		c-0.094,0.017-0.186,0.047-0.272,0.09c-1.121,0.56-1.835,1.473-2.014,2.57c-0.205,1.264,0.318,2.63,1.435,3.746l2.651,2.652
		c-0.078,0.754-0.131,1.46-0.144,2.115c-0.103,5.27-0.595,14.846-2.726,19.777c-0.677,1.568,0.037,3.406,1.594,4.097
		c0.894,0.395,2.605,0.63,4.749,0.897c0.14,0.018,0.266,0.034,0.397,0.05V51c0,2.663,2.343,5,5.015,5h2.509v1.694
		c0,1.271,1.034,2.306,2.305,2.306h23.39c1.271,0,2.305-1.034,2.305-2.306V56h3.293c2.713,0,5.184-2.383,5.184-5v-1.159
		c0.54-0.089,1.099-0.173,1.657-0.25c1.45-0.204,2.82-0.396,3.706-0.74c0.805-0.313,1.428-0.923,1.755-1.718
		C59.77,46.332,59.756,45.453,59.401,44.656z M17.596,2.011c0.593-0.071,1.328,0.256,1.965,0.895l1.237,1.237
		c0.001,0.001,0.001,0.001,0.002,0.002l3.365,3.365c0.647,0.646,0.974,1.398,0.875,2.012c-0.069,0.425-0.344,0.774-0.818,1.04
		l-5.841,1.077l-0.149-0.149l1.632-0.544c0.524-0.174,0.808-0.74,0.633-1.265c-0.174-0.523-0.742-0.808-1.265-0.632l-1.696,0.565
		l0.739-1.232c0.284-0.474,0.131-1.088-0.343-1.372c-0.475-0.285-1.088-0.132-1.372,0.343l-0.925,1.541l-0.274-0.274l1.23-5.905
		C16.865,2.3,17.202,2.063,17.596,2.011z M13.69,16.571l-3.378-3.379l3.378-3.378l3.378,3.378L13.69,16.571z M2.341,16.863
		c0.069-0.424,0.343-0.773,0.815-1.039l5.658-1.006l0.219-0.039l0.358,0.358L7.85,16.062c-0.474,0.284-0.627,0.898-0.343,1.372
		c0.188,0.313,0.519,0.485,0.858,0.485c0.175,0,0.353-0.046,0.514-0.143l1.232-0.739l-0.565,1.695
		c-0.175,0.524,0.108,1.091,0.632,1.265c0.105,0.035,0.212,0.052,0.316,0.052c0.419,0,0.809-0.265,0.949-0.684l0.544-1.633
		l0.066,0.066l-1.239,5.829c-0.291,0.458-0.648,0.713-1.062,0.758c0,0-0.001,0-0.001,0c-0.573,0.062-1.301-0.275-1.932-0.906
		L6.2,21.86c0,0-0.001,0-0.001-0.001l-2.984-2.984C2.568,18.227,2.241,17.475,2.341,16.863z M41.846,57.695
		c0,0.169-0.137,0.306-0.305,0.306h-23.39c-0.168,0-0.305-0.137-0.305-0.306V56h24V57.695z M50.323,51c0,1.514-1.577,3-3.184,3
		h-3.293h-28h-2.509c-1.55,0-3.015-1.458-3.015-3v-2V28.944c0.252-0.017,0.549-0.04,0.885-0.068c0.168-0.014,0.346-0.03,0.533-0.047
		c1.498-0.138,3.586-0.381,5.947-0.799c-2.013,1.231-3.364,3.443-3.364,5.97c0,3.859,3.14,7,7,7s7-3.141,7-7
		c0-3.561-2.675-6.504-6.121-6.939c5.185-1.322,10.696-3.528,13.94-7.2c1.051,1.949,3.176,5.418,6.014,7.743
		C41.289,27.219,40.332,27,39.323,27c-3.86,0-7,3.141-7,7s3.14,7,7,7s7-3.141,7-7c0-1.972-0.823-3.753-2.14-5.027
		c0.493,0.262,1.001,0.487,1.524,0.652c1.563,0.493,3.11,0.475,4.616-0.056V49V51z M21.323,29c2.757,0,5,2.243,5,5s-2.243,5-5,5
		s-5-2.243-5-5S18.566,29,21.323,29z M44.323,34c0,2.757-2.243,5-5,5s-5-2.243-5-5s2.243-5,5-5S44.323,31.244,44.323,34z
		 M57.591,46.373c-0.117,0.284-0.341,0.502-0.63,0.614c-0.669,0.26-1.986,0.444-3.259,0.623c-0.458,0.064-0.923,0.13-1.379,0.201V28
		c0-0.359-0.192-0.69-0.504-0.868c-0.312-0.178-0.694-0.176-1.004,0.007c-1.484,0.877-2.957,1.068-4.503,0.58
		c-5.15-1.621-9.04-10.048-9.078-10.133c-0.15-0.33-0.467-0.553-0.828-0.582c-0.361-0.031-0.71,0.137-0.912,0.438
		c-5.791,8.608-26.008,9.551-26.212,9.56C8.746,27.024,8.323,27.464,8.323,28v19.86c-0.05-0.006-0.1-0.013-0.15-0.019
		C6.782,47.668,4.68,47.407,3.986,47.1c-0.566-0.251-0.815-0.899-0.567-1.475c2.266-5.246,2.783-15.115,2.89-20.531
		c0.001-0.096,0.004-0.192,0.008-0.29l0.089,0.089c0.223,0.223,0.458,0.417,0.698,0.593c0.03,0.022,0.059,0.046,0.089,0.067
		c0.225,0.158,0.457,0.291,0.691,0.405c0.049,0.024,0.097,0.048,0.146,0.07c0.226,0.101,0.454,0.181,0.684,0.24
		c0.056,0.014,0.111,0.026,0.167,0.037c0.231,0.049,0.462,0.079,0.691,0.083c0.014,0,0.029,0.005,0.044,0.005
		c0.12,0,0.238-0.007,0.356-0.02c0.281-0.031,0.608-0.106,0.95-0.257c0.523-0.231,1.078-0.645,1.551-1.371
		c0.01-0.016,0.022-0.029,0.032-0.045c0.087-0.138,0.162-0.292,0.22-0.459c0.014-0.041,0.026-0.082,0.035-0.124l1.096-5.166
		c0.203-0.035,0.396-0.113,0.543-0.26l4.792-4.793c0.117-0.117,0.188-0.263,0.235-0.417l5.31-0.98
		c0.092-0.017,0.182-0.047,0.266-0.089c1.121-0.561,1.835-1.473,2.014-2.57c0.051-0.316,0.057-0.638,0.019-0.962
		c-0.004-0.038-0.015-0.077-0.021-0.115c-0.138-0.932-0.628-1.866-1.433-2.67l-2.201-2.201c5.251-1.467,10.981-1.089,15.961,1.09
		c2.992,1.31,7.435,3.743,11.453,9.73c2.206,3.288,3.467,7.272,3.646,11.523c0.259,6.146,1.013,14.473,3.136,19.232
		C57.704,45.762,57.71,46.083,57.591,46.373z"/>
</g>
<g>
</g>
<g>
</g>
<g>
</g>
<g>
</g>
<g>
</g>
<g>
</g>
<g>
</g>
<g>
</g>
<g>
</g>
<g>
</g>
<g>
</g>
<g>
</g>
<g>
</g>
<g>
</g>
<g>
</g>
</svg>
