<?xml version="1.0" encoding="iso-8859-1"?>
<!-- Generator: Adobe Illustrator 19.0.0, SVG Export Plug-In . SVG Version: 6.00 Build 0)  -->
<svg version="1.1" id="Capa_1" xmlns="http://www.w3.org/2000/svg" xmlns:xlink="http://www.w3.org/1999/xlink" x="0px" y="0px"
	 viewBox="0 0 463 463" style="enable-background:new 0 0 463 463;" xml:space="preserve">
<g>
	<path d="M455.5,384H447V175.5c0-4.143-3.358-7.5-7.5-7.5H383v-57h0.5c4.142,0,7.5-3.357,7.5-7.5s-3.358-7.5-7.5-7.5h-48
		c-4.142,0-7.5,3.357-7.5,7.5s3.358,7.5,7.5,7.5h0.5v57h-33v-57h0.5c4.142,0,7.5-3.357,7.5-7.5s-3.358-7.5-7.5-7.5h-48
		c-4.142,0-7.5,3.357-7.5,7.5s3.358,7.5,7.5,7.5h0.5v57h-25V79h0.5c4.142,0,7.5-3.357,7.5-7.5s-3.358-7.5-7.5-7.5h-48
		c-4.142,0-7.5,3.357-7.5,7.5s3.358,7.5,7.5,7.5h0.5v180.622l-73.275-34.893c-2.04-0.971-4.409-0.971-6.449,0l-84,40
		C17.664,265.973,16,268.607,16,271.5V384H7.5c-4.142,0-7.5,3.357-7.5,7.5s3.358,7.5,7.5,7.5h448c4.142,0,7.5-3.357,7.5-7.5
		S459.642,384,455.5,384z M368,111v17h-17v-17H368z M351,143h17v25h-17V143z M288,111v17h-17v-17H288z M271,143h17v25h-17V143z
		 M216,79v17h-17V79H216z M31,276.235l76.5-36.429l76.5,36.429V384h-17v-88.5c0-4.143-3.358-7.5-7.5-7.5h-104
		c-4.142,0-7.5,3.357-7.5,7.5V384H31V276.235z M152,320H63v-17h89V320z M63,335h89v17H63V335z M63,384v-17h89v17H63z M199,384V271.5
		V111h17v64.5c0,4.143,3.358,7.5,7.5,7.5H432v201H199z"/>
	<path d="M263.5,264h-40c-4.142,0-7.5,3.357-7.5,7.5v80c0,4.143,3.358,7.5,7.5,7.5h40c4.142,0,7.5-3.357,7.5-7.5v-80
		C271,267.357,267.642,264,263.5,264z M256,279v17h-25v-17H256z M231,344v-33h25v33H231z"/>
	<path d="M335.5,264h-40c-4.142,0-7.5,3.357-7.5,7.5v80c0,4.143,3.358,7.5,7.5,7.5h40c4.142,0,7.5-3.357,7.5-7.5v-80
		C343,267.357,339.642,264,335.5,264z M328,279v17h-25v-17H328z M303,344v-33h25v33H303z"/>
	<path d="M407.5,264h-40c-4.142,0-7.5,3.357-7.5,7.5v80c0,4.143,3.358,7.5,7.5,7.5h40c4.142,0,7.5-3.357,7.5-7.5v-80
		C415,267.357,411.642,264,407.5,264z M400,279v17h-25v-17H400z M375,344v-33h25v33H375z"/>
	<path d="M263.5,200h-40c-4.142,0-7.5,3.357-7.5,7.5v32c0,4.143,3.358,7.5,7.5,7.5h40c4.142,0,7.5-3.357,7.5-7.5v-32
		C271,203.357,267.642,200,263.5,200z M256,232h-25v-17h25V232z"/>
	<path d="M335.5,200h-40c-4.142,0-7.5,3.357-7.5,7.5v32c0,4.143,3.358,7.5,7.5,7.5h40c4.142,0,7.5-3.357,7.5-7.5v-32
		C343,203.357,339.642,200,335.5,200z M328,232h-25v-17h25V232z"/>
	<path d="M407.5,200h-40c-4.142,0-7.5,3.357-7.5,7.5v32c0,4.143,3.358,7.5,7.5,7.5h40c4.142,0,7.5-3.357,7.5-7.5v-32
		C415,203.357,411.642,200,407.5,200z M400,232h-25v-17h25V232z"/>
</g>
<g>
</g>
<g>
</g>
<g>
</g>
<g>
</g>
<g>
</g>
<g>
</g>
<g>
</g>
<g>
</g>
<g>
</g>
<g>
</g>
<g>
</g>
<g>
</g>
<g>
</g>
<g>
</g>
<g>
</g>
</svg>
