<?xml version="1.0" encoding="iso-8859-1"?>
<!-- Generator: Adobe Illustrator 19.0.0, SVG Export Plug-In . SVG Version: 6.00 Build 0)  -->
<svg version="1.1" id="Layer_1" xmlns="http://www.w3.org/2000/svg" xmlns:xlink="http://www.w3.org/1999/xlink" x="0px" y="0px"
	 viewBox="0 0 498.418 498.418" style="enable-background:new 0 0 498.418 498.418;" xml:space="preserve">
<g id="XMLID_458_">
	<g>
		<path d="M294.209,194.209v-30h152.209l52-65l-52-65H294.209v-30h-90v110H52l-52,65l52,65h152.209v250h90v-170h152.209l52-65
			l-52-65H294.209z M294.209,64.209H432l28,35l-28,35H294.209V64.209z M204.209,214.209H66.418l-28-35l28-35h137.791V214.209z
			 M264.209,464.209h-30v-430h30V464.209z M432,294.209H294.209v-70H432l28,35L432,294.209z"/>
	</g>
</g>
<g>
</g>
<g>
</g>
<g>
</g>
<g>
</g>
<g>
</g>
<g>
</g>
<g>
</g>
<g>
</g>
<g>
</g>
<g>
</g>
<g>
</g>
<g>
</g>
<g>
</g>
<g>
</g>
<g>
</g>
</svg>
