<?xml version="1.0" encoding="iso-8859-1"?>
<!-- Generator: Adobe Illustrator 16.0.0, SVG Export Plug-In . SVG Version: 6.00 Build 0)  -->
<!DOCTYPE svg PUBLIC "-//W3C//DTD SVG 1.1//EN" "http://www.w3.org/Graphics/SVG/1.1/DTD/svg11.dtd">
<svg version="1.1" id="Capa_1" xmlns="http://www.w3.org/2000/svg" xmlns:xlink="http://www.w3.org/1999/xlink" x="0px" y="0px"
	 width="45.352px" height="45.352px" viewBox="0 0 45.352 45.352" style="enable-background:new 0 0 45.352 45.352;"
	 xml:space="preserve">
<g>
	<g>
		<path d="M32.459,0c-2.737,0-5.019,2.117-5.213,4.847l-1.396,19.492c-0.062,0.85,0.231,1.692,0.813,2.315
			c0.58,0.623,1.393,0.984,2.244,0.984h0.082L28.512,42.9c-0.021,0.653,0.225,1.268,0.68,1.735c0.454,0.47,1.079,0.715,1.732,0.715
			h2.002c1.332,0,2.443-1.049,2.443-2.383V2.894C35.369,1.296,34.058,0,32.459,0z"/>
		<path d="M20.945,0.032h-0.204c-0.487,0-0.861,0.365-0.861,0.854v8.59c0,0.762-0.639,1.385-1.4,1.385h-0.205
			c-0.761,0-1.406-0.623-1.406-1.385v-8.59c0-0.488-0.367-0.854-0.855-0.854h-0.207c-0.488,0-0.876,0.365-0.876,0.854v8.59
			c0,0.762-0.624,1.385-1.386,1.385h-0.204c-0.761,0-1.351-0.623-1.351-1.385v-8.59c0-0.488-0.423-0.854-0.911-0.854h-0.205
			c-0.487,0-0.892,0.365-0.892,0.854v12.993c0,1.598,1.303,2.862,2.901,2.862h0.386l-0.816,26.153
			c-0.021,0.653,0.224,1.271,0.679,1.74c0.454,0.469,1.08,0.718,1.734,0.718h1.924c0.652,0,1.278-0.249,1.733-0.718
			c0.455-0.47,0.699-1.095,0.68-1.748L18.387,16.74h0.55c1.599,0,2.88-1.265,2.88-2.862V0.885
			C21.815,0.396,21.435,0.032,20.945,0.032z"/>
	</g>
</g>
<g>
</g>
<g>
</g>
<g>
</g>
<g>
</g>
<g>
</g>
<g>
</g>
<g>
</g>
<g>
</g>
<g>
</g>
<g>
</g>
<g>
</g>
<g>
</g>
<g>
</g>
<g>
</g>
<g>
</g>
</svg>
