<?xml version="1.0" encoding="iso-8859-1"?>
<!-- Generator: Adobe Illustrator 19.0.0, SVG Export Plug-In . SVG Version: 6.00 Build 0)  -->
<svg version="1.1" id="Layer_1" xmlns="http://www.w3.org/2000/svg" xmlns:xlink="http://www.w3.org/1999/xlink" x="0px" y="0px"
	 viewBox="0 0 410 410" style="enable-background:new 0 0 410 410;" xml:space="preserve">
<g id="XMLID_105_">
	<g>
		<path d="M410,150c-50,0-49.435,19.383-85.851,30c-7.255,0-14.42-0.802-21.758-2.137c-1.44-15.595-20.589-29.9-52.44-37.863
			c-40-10-40-40-60-40c-14.828,0-35.148,32.974-44.669,50.032C143.538,150.013,141.781,150,140,150C30,150,0,210,0,210
			s17.904,35.777,76.716,52.076C90.997,249.251,100,230.66,100,210h20c0,21.608-7.656,41.46-20.396,56.99
			C111.689,268.893,125.105,270,140,270c9.46,0,18.368-0.278,26.791-0.778c6.193,12.438,21.623,33.835,56.334,40.778
			c0,0,24.523-24.526,14.439-51.402c8.825-2.133,16.98-4.368,24.674-6.521C267.986,257.189,283.988,270,300,270
			c0,0,3.574-14.306,2.172-27.946c7.318-1.286,14.554-2.054,21.978-2.054c36.415,10.617,35.85,30,85.85,30c0-30-20-40-20-60
			S410,180,410,150z M60,210c-5.523,0-10-4.477-10-10s4.477-10,10-10c5.522,0,10,4.477,10,10S65.522,210,60,210z"/>
	</g>
</g>
<g>
</g>
<g>
</g>
<g>
</g>
<g>
</g>
<g>
</g>
<g>
</g>
<g>
</g>
<g>
</g>
<g>
</g>
<g>
</g>
<g>
</g>
<g>
</g>
<g>
</g>
<g>
</g>
<g>
</g>
</svg>
