<?xml version="1.0" encoding="iso-8859-1"?>
<!-- Generator: Adobe Illustrator 18.0.0, SVG Export Plug-In . SVG Version: 6.00 Build 0)  -->
<!DOCTYPE svg PUBLIC "-//W3C//DTD SVG 1.1//EN" "http://www.w3.org/Graphics/SVG/1.1/DTD/svg11.dtd">
<svg version="1.1" id="Capa_1" xmlns="http://www.w3.org/2000/svg" xmlns:xlink="http://www.w3.org/1999/xlink" x="0px" y="0px"
	 viewBox="0 0 480 480" style="enable-background:new 0 0 480 480;" xml:space="preserve">
<g>
	<path d="M460,335.658v38.471h-57.104c14.389-13.49,23.405-32.648,23.405-53.883v-112.58c0-42.165-16.514-83.609-46.499-116.7
		c-27.668-30.532-62.648-48.761-93.573-48.761H73.869C33.138,42.205,0,75.343,0,116.074v204.172
		c0,19.805,7.055,38.269,19.866,51.992c13.176,14.115,31.264,21.889,50.931,21.889H97.88c4.7,24.828,26.544,43.668,52.717,43.668
		c26.174,0,48.018-18.84,52.718-43.668l130.225,0.002v0H480v-58.471H460z M97.88,374.127H70.797
		C41.838,374.127,20,350.963,20,320.246V116.074c0-29.703,24.166-53.869,53.869-53.869h212.359c24.994,0,55.17,16.167,78.753,42.19
		c26.646,29.405,41.319,66.08,41.319,103.271v112.58c0,26.441-19.146,48.48-44.295,53.013V133.494H250v240.634
		c-19.365,0-36.674,0-46.683-0.001c-4.699-24.835-26.544-43.68-52.719-43.68C124.424,330.447,102.579,349.292,97.88,374.127z
		 M150.598,417.795c-18.563,0-33.666-15.104-33.666-33.668c0-18.571,15.103-33.68,33.666-33.68c18.564,0,33.667,15.108,33.667,33.68
		C184.265,402.691,169.162,417.795,150.598,417.795z M270,374.129V153.494h72.006v220.635h-8.465
		C317.568,374.129,293.592,374.129,270,374.129z"/>
	<path d="M218.789,133.494H82.406V230h136.383V133.494z M198.789,210h-96.383v-56.506h96.383V210z"/>
</g>
<g>
</g>
<g>
</g>
<g>
</g>
<g>
</g>
<g>
</g>
<g>
</g>
<g>
</g>
<g>
</g>
<g>
</g>
<g>
</g>
<g>
</g>
<g>
</g>
<g>
</g>
<g>
</g>
<g>
</g>
</svg>
