<?xml version="1.0" encoding="iso-8859-1"?>
<!-- Generator: Adobe Illustrator 19.0.0, SVG Export Plug-In . SVG Version: 6.00 Build 0)  -->
<svg version="1.1" id="Capa_1" xmlns="http://www.w3.org/2000/svg" xmlns:xlink="http://www.w3.org/1999/xlink" x="0px" y="0px"
	 viewBox="0 0 50.023 50.023" style="enable-background:new 0 0 50.023 50.023;" xml:space="preserve">
<g>
	<g>
		<path d="M22.754,9.773c-0.28-0.299-0.712-0.395-1.095-0.248c-0.43,0.168-10.586,4.221-15.984,12.903
			c-5.524,8.884,0.217,20.023,0.464,20.494c0.173,0.329,0.515,0.534,0.885,0.534c0.007,0,0.015,0,0.023,0
			c0.379-0.009,0.721-0.231,0.882-0.575l15-32C23.104,10.51,23.034,10.071,22.754,9.773z M7.057,40.032
			C5.741,36.608,3.73,29.346,7.374,23.484c3.488-5.609,9.291-9.229,12.568-10.94L7.057,40.032z"/>
		<path d="M46.193,4.461c-0.094-1.16-0.168-2.077-0.168-2.504c0-1.35-0.856-1.765-1.225-1.881
			c-3.165-1.002-12.872,8.132-18.595,16.308C19.262,26.302,8.766,44.272,8.661,44.453c-0.263,0.451-0.135,1.029,0.295,1.326
			c0.088,0.062,6.267,4.244,14.343,4.244c3.589,0,7.555-0.827,11.525-3.209c5.586-3.352,9.769-10.906,11.189-20.206
			C47.303,18.157,46.553,8.906,46.193,4.461z M44.036,26.305c-1.331,8.719-5.159,15.745-10.241,18.794
			c-10.028,6.016-20.072,1.149-22.912-0.481c2.161-3.674,10.924-18.464,16.961-27.088C34.533,7.975,42.296,2.243,44.025,1.989
			c0.003,0.514,0.076,1.407,0.175,2.634C44.554,8.993,45.291,18.086,44.036,26.305z"/>
	</g>
</g>
<g>
</g>
<g>
</g>
<g>
</g>
<g>
</g>
<g>
</g>
<g>
</g>
<g>
</g>
<g>
</g>
<g>
</g>
<g>
</g>
<g>
</g>
<g>
</g>
<g>
</g>
<g>
</g>
<g>
</g>
</svg>
