<?xml version="1.0" encoding="iso-8859-1"?>
<!-- Generator: Adobe Illustrator 18.1.1, SVG Export Plug-In . SVG Version: 6.00 Build 0)  -->
<svg version="1.1" id="Capa_1" xmlns="http://www.w3.org/2000/svg" xmlns:xlink="http://www.w3.org/1999/xlink" x="0px" y="0px"
	 viewBox="0 0 20.114 20.114" style="enable-background:new 0 0 20.114 20.114;" xml:space="preserve">
<g>
	<g>
		<path style="fill:#010002;" d="M6.845,15.069c-0.043,0.002-0.086,0.005-0.128,0.005c-1.08,0-1.953-0.365-1.953-0.816
			c0-0.418,0.755-0.017,1.726,0.042C5.561,11.977,5.412,8.73,5.862,6.195C2.556,5.674,0,2.482,0,6.215
			c0,4.049,3.007,11.024,6.718,11.024c0.558,0,1.1-0.16,1.617-0.443C7.733,16.411,7.239,15.809,6.845,15.069z M3.116,9.597
			C2.015,9.172,1.278,8.421,1.472,7.919c0.193-0.501,1.243-0.564,2.345-0.14C4.918,8.203,5.654,8.955,5.46,9.456
			C5.267,9.958,4.217,10.022,3.116,9.597z M13.505,6.592c-3.5-1.233-4.973-6.1-6.318-2.282c-1.347,3.82-0.829,11.398,2.67,12.631
			c3.499,1.233,8.653-4.345,9.999-8.165C21.202,4.956,17.004,7.825,13.505,6.592z M8.008,6.407c0.351-0.41,1.36-0.12,2.259,0.646
			c0.897,0.767,1.342,1.72,0.994,2.129c-0.351,0.409-1.362,0.12-2.259-0.647C8.104,7.769,7.659,6.815,8.008,6.407z M12.69,14.779
			c-0.15,0.425-1.097,0.48-2.114,0.12c-1.015-0.359-1.72-0.993-1.569-1.418c0.149-0.425,0.806,0.343,1.823,0.701
			C11.846,14.54,12.84,14.354,12.69,14.779z M15.806,10.939c-1.181,0.043-2.152-0.359-2.171-0.897
			c-0.02-0.537,0.923-1.007,2.101-1.049c1.179-0.042,2.152,0.359,2.171,0.897S16.987,10.897,15.806,10.939z"/>
	</g>
</g>
<g>
</g>
<g>
</g>
<g>
</g>
<g>
</g>
<g>
</g>
<g>
</g>
<g>
</g>
<g>
</g>
<g>
</g>
<g>
</g>
<g>
</g>
<g>
</g>
<g>
</g>
<g>
</g>
<g>
</g>
</svg>
