<?xml version="1.0" encoding="iso-8859-1"?>
<!-- Generator: Adobe Illustrator 19.0.0, SVG Export Plug-In . SVG Version: 6.00 Build 0)  -->
<svg version="1.1" id="Layer_1" xmlns="http://www.w3.org/2000/svg" xmlns:xlink="http://www.w3.org/1999/xlink" x="0px" y="0px"
	 viewBox="0 0 490 490" style="enable-background:new 0 0 490 490;" xml:space="preserve">
<g id="XMLID_937_">
	<g>
		<path d="M425,180C425,80.748,344.252,0,245,0S65,80.748,65,180c0,58.312,27.883,112.367,75,146.208V350h-10v30h10v30h-10v30
			h11.766c6.792,28.631,32.556,50,63.234,50h80c30.677,0,56.442-21.369,63.234-50H360v-30h-10v-30h10v-30h-10v-23.792
			C397.117,292.367,425,238.312,425,180z M285,460h-80c-13.934,0-25.989-8.186-31.616-20h143.232
			C310.988,451.814,298.934,460,285,460z M320,410H170v-30h150V410z M200,195h-15c-8.271,0-15-6.729-15-15s6.729-15,15-15
			s15,6.729,15,15V195z M230,350V225h30v125H230z M326.807,305.739L320,310.178V350h-30V225h15c24.813,0,45-20.187,45-45
			s-20.187-45-45-45s-45,20.187-45,45v15h-30v-15c0-24.813-20.187-45-45-45s-45,20.187-45,45s20.187,45,45,45h15v125h-30v-39.822
			l-6.807-4.439C120.493,277.895,95,230.89,95,180c0-82.71,67.29-150,150-150s150,67.29,150,150
			C395,230.889,369.507,277.895,326.807,305.739z M290,195v-15c0-8.271,6.729-15,15-15s15,6.729,15,15s-6.729,15-15,15H290z"/>
	</g>
</g>
<g>
</g>
<g>
</g>
<g>
</g>
<g>
</g>
<g>
</g>
<g>
</g>
<g>
</g>
<g>
</g>
<g>
</g>
<g>
</g>
<g>
</g>
<g>
</g>
<g>
</g>
<g>
</g>
<g>
</g>
</svg>
