<?xml version="1.0" encoding="iso-8859-1"?>
<!-- Generator: Adobe Illustrator 18.0.0, SVG Export Plug-In . SVG Version: 6.00 Build 0)  -->
<!DOCTYPE svg PUBLIC "-//W3C//DTD SVG 1.1//EN" "http://www.w3.org/Graphics/SVG/1.1/DTD/svg11.dtd">
<svg version="1.1" id="Capa_1" xmlns="http://www.w3.org/2000/svg" xmlns:xlink="http://www.w3.org/1999/xlink" x="0px" y="0px"
	 viewBox="0 0 60 60" style="enable-background:new 0 0 60 60;" xml:space="preserve">
<g>
	<path d="M44.09,47.41c-0.19,0.18-0.29,0.439-0.29,0.71c0,0.27,0.1,0.52,0.29,0.71c0.18,0.18,0.44,0.29,0.71,0.29
		c0.26,0,0.52-0.11,0.7-0.29c0.189-0.19,0.3-0.45,0.3-0.71c0-0.271-0.11-0.521-0.3-0.71C45.13,47.04,44.46,47.04,44.09,47.41z"/>
	<path d="M44.5,38.939c-0.19,0.181-0.3,0.44-0.3,0.7c0,0.271,0.109,0.53,0.29,0.71c0.189,0.19,0.449,0.3,0.71,0.3
		c0.26,0,0.52-0.109,0.71-0.3c0.189-0.189,0.29-0.439,0.29-0.71c0-0.26-0.101-0.52-0.29-0.7C45.53,38.56,44.85,38.569,44.5,38.939z"
		/>
	<path d="M44.29,43.18c-0.19,0.18-0.29,0.43-0.29,0.7c0,0.27,0.109,0.52,0.29,0.71c0.189,0.189,0.45,0.29,0.71,0.29
		s0.52-0.101,0.71-0.29c0.18-0.19,0.29-0.45,0.29-0.71s-0.11-0.521-0.29-0.71C45.33,42.8,44.67,42.8,44.29,43.18z"/>
	<path d="M40.95,45.45c-0.181,0.189-0.29,0.449-0.29,0.71c0,0.26,0.109,0.51,0.29,0.699c0.189,0.19,0.449,0.301,0.71,0.301
		c0.27,0,0.529-0.11,0.71-0.301c0.18-0.18,0.29-0.439,0.29-0.699c0-0.271-0.11-0.521-0.29-0.71C42,45.08,41.319,45.08,40.95,45.45z"
		/>
	<path d="M38.6,50.29c-0.189,0.189-0.29,0.439-0.29,0.71c0,0.27,0.101,0.52,0.29,0.71c0.19,0.18,0.44,0.29,0.71,0.29
		c0.26,0,0.521-0.11,0.7-0.29c0.19-0.19,0.3-0.45,0.3-0.71s-0.109-0.521-0.29-0.71C39.649,49.92,38.96,49.92,38.6,50.29z"/>
	<path d="M47.79,44.05c-0.19,0.18-0.29,0.44-0.29,0.71c0,0.26,0.1,0.52,0.29,0.7c0.18,0.189,0.439,0.3,0.71,0.3
		c0.27,0,0.52-0.11,0.7-0.29c0.189-0.19,0.3-0.45,0.3-0.71c0-0.27-0.11-0.53-0.29-0.71C48.84,43.68,48.16,43.68,47.79,44.05z"/>
	<path d="M15.8,48.77c-0.18,0.181-0.29,0.44-0.29,0.71c0,0.261,0.11,0.521,0.29,0.71c0.19,0.181,0.45,0.29,0.71,0.29
		s0.521-0.109,0.71-0.3c0.18-0.18,0.29-0.439,0.29-0.7c0-0.27-0.11-0.529-0.29-0.71C16.85,48.399,16.18,48.39,15.8,48.77z"/>
	<path d="M16.1,42c0.271,0,0.53-0.11,0.71-0.29c0.19-0.19,0.3-0.45,0.3-0.71s-0.109-0.521-0.3-0.71c-0.38-0.37-1.04-0.37-1.41,0
		c-0.189,0.189-0.3,0.45-0.3,0.71s0.11,0.52,0.3,0.7C15.58,41.89,15.84,42,16.1,42z"/>
	<path d="M16.31,46.24c0.26,0,0.521-0.11,0.7-0.29c0.19-0.19,0.3-0.45,0.3-0.71c0-0.271-0.109-0.53-0.29-0.711
		c-0.38-0.38-1.06-0.369-1.42,0c-0.189,0.181-0.29,0.44-0.29,0.711c0,0.26,0.101,0.52,0.29,0.699
		C15.78,46.13,16.04,46.24,16.31,46.24z"/>
	<path d="M18.93,46.81c-0.18,0.19-0.28,0.44-0.28,0.7s0.101,0.52,0.29,0.71c0.181,0.18,0.44,0.29,0.71,0.29
		c0.261,0,0.521-0.11,0.7-0.29c0.19-0.19,0.3-0.44,0.3-0.71c0-0.26-0.109-0.52-0.3-0.7C19.979,46.43,19.319,46.43,18.93,46.81z"/>
	<path d="M21.29,51.649C21.109,51.83,21,52.09,21,52.359c0,0.261,0.1,0.511,0.29,0.7c0.18,0.19,0.439,0.29,0.71,0.29
		c0.26,0,0.52-0.1,0.71-0.29c0.18-0.189,0.29-0.439,0.29-0.7c0-0.27-0.11-0.52-0.29-0.71C22.34,51.27,21.649,51.279,21.29,51.649z"
		/>
	<path d="M12.1,45.399c-0.18,0.19-0.29,0.45-0.29,0.71c0,0.261,0.11,0.521,0.29,0.71c0.19,0.19,0.45,0.29,0.71,0.29
		s0.521-0.1,0.71-0.29c0.181-0.18,0.29-0.439,0.29-0.71c0-0.27-0.109-0.52-0.29-0.699C13.149,45.029,12.479,45.029,12.1,45.399z"/>
	<path d="M39.889,41.795L39.889,41.795c-0.177-0.737-0.545-1.223-1.096-1.444c-1.011-0.401-2.04,0.261-3.47,1.18
		c-1.289,0.83-2.894,1.864-4.767,2.313c-1.875,0.448-3.771,0.254-5.298,0.098c-1.69-0.173-2.911-0.3-3.627,0.52
		c-0.391,0.447-0.5,1.047-0.323,1.783c0.374,1.563,1.893,3.245,3.962,4.391c1.632,0.902,3.383,1.367,5.086,1.367
		c0.711,0,1.413-0.081,2.095-0.244c2.318-0.555,4.411-2.065,5.894-4.255C39.671,45.544,40.263,43.357,39.889,41.795z M31.985,49.812
		c-1.216,0.293-2.363,0.216-3.346-0.007c0.102-0.189,0.268-0.395,0.496-0.598c0.607-0.542,1.544-0.994,2.567-1.239
		c1.542-0.371,2.81-0.184,3.437,0.167C34.341,48.837,33.299,49.498,31.985,49.812z M36.689,46.381
		c-0.057,0.084-0.129,0.181-0.198,0.275c-1.15-0.864-3.091-1.153-5.253-0.635c-1.355,0.324-2.575,0.926-3.435,1.692
		c-0.5,0.447-0.856,0.93-1.064,1.426c-0.185-0.088-0.355-0.176-0.502-0.257c-1.757-0.972-2.754-2.231-2.975-3.066
		c0.412-0.027,1.191,0.051,1.791,0.113c1.591,0.163,3.765,0.387,5.967-0.142c2.205-0.528,4.043-1.712,5.385-2.576
		c0.507-0.327,1.165-0.751,1.546-0.913C38.134,43.144,37.815,44.718,36.689,46.381z"/>
	<circle cx="39" cy="31" r="2"/>
	<path d="M39,38c3.859,0,7-3.141,7-7s-3.141-7-7-7s-7,3.141-7,7S35.141,38,39,38z M39,26c2.757,0,5,2.243,5,5s-2.243,5-5,5
		s-5-2.243-5-5S36.243,26,39,26z"/>
	<path d="M54,13h-2.816C49.428,13,48,11.572,48,9.816C48,4.403,43.597,0,38.184,0H34c-0.379,0-0.725,0.214-0.895,0.553l-1,2
		C32.036,2.691,32,2.845,32,3c0,0.738-0.106,0.919-0.099,0.919c-0.158,0.094-0.839,0.088-1.386,0.084L30,4l-0.516,0.003
		c-0.546,0.004-1.229,0.009-1.366-0.065C28.113,3.931,28,3.762,28,3c0-0.155-0.036-0.309-0.105-0.447l-1-2
		C26.725,0.214,26.379,0,26,0h-4.184C16.403,0,12,4.403,12,9.816C12,11.572,10.572,13,8.816,13H6c-2.757,0-5,2.243-5,5s2.243,5,5,5
		h2v18.236l-0.019,0.017L8,41.274V51c0,2.757,2.243,5,5,5h3v1.694C16,58.966,17.034,60,18.306,60h23.389
		C42.966,60,44,58.966,44,57.694V56h3c2.757,0,5-2.243,5-5V23h2c2.757,0,5-2.243,5-5S56.757,13,54,13z M30,17
		c12.209,0,20,2.961,20,5v0.9C46.326,20.33,38.128,19,30,19s-16.326,1.33-20,3.9V22C10,19.961,17.791,17,30,17z M10,26
		c0-2.039,7.791-5,20-5c0.75,0,1.482,0.012,2.198,0.033l-4.269,4.269c-0.018-0.029-0.033-0.06-0.051-0.089
		c-0.731-1.146-1.573-1.811-2.574-2.027c-1.775-0.388-3.491,0.731-5.483,2.023l-1.473,0.939c-2.011,1.261-3.748,2.35-4.146,4.117
		c-0.225,1,0.021,2.043,0.754,3.189c0.219,0.344,0.467,0.656,0.729,0.951L10,39.459V26z M16.641,32.38
		c-0.43-0.674-0.59-1.222-0.488-1.675c0.216-0.955,1.625-1.839,3.258-2.862l1.499-0.956c1.459-0.946,2.739-1.776,3.678-1.776
		c0.102,0,0.199,0.01,0.292,0.029c0.453,0.099,0.883,0.475,1.313,1.149c1.68,2.633,0.903,6.143-1.729,7.822
		c-1.276,0.813-2.791,1.083-4.27,0.754C18.716,34.539,17.454,33.656,16.641,32.38z M42,57.694C42,57.863,41.863,58,41.694,58H18.306
		C18.137,58,18,57.863,18,57.694V56h24V57.694z M50,51c0,1.654-1.346,3-3,3h-3H16h-3c-1.654,0-3-1.346-3-3v-8.867l7.209-6.408
		c1.258,0.826,2.727,1.271,4.22,1.271c1.409,0,2.835-0.388,4.109-1.2c1.726-1.101,2.92-2.808,3.362-4.807
		c0.277-1.253,0.237-2.527-0.102-3.729l6.09-6.09C44.243,21.823,50,24.249,50,26V51z M54,21h-2.184
		c-0.007-0.019-0.021-0.036-0.029-0.054c-0.086-0.217-0.196-0.429-0.334-0.634c-0.017-0.026-0.038-0.051-0.056-0.077
		c-0.149-0.211-0.32-0.416-0.52-0.614c-0.012-0.012-0.027-0.024-0.04-0.036c-0.212-0.205-0.447-0.404-0.711-0.596
		c-0.004-0.003-0.007-0.006-0.011-0.009c-0.261-0.19-0.551-0.372-0.86-0.548c-0.028-0.016-0.055-0.033-0.083-0.049
		c-0.3-0.168-0.624-0.329-0.964-0.485c-0.045-0.021-0.088-0.041-0.134-0.062c-0.339-0.151-0.696-0.296-1.07-0.436
		c-0.055-0.02-0.109-0.041-0.165-0.061c-0.378-0.138-0.772-0.27-1.182-0.395c-0.055-0.017-0.112-0.033-0.168-0.05
		c-0.421-0.126-0.856-0.247-1.306-0.361c-0.043-0.011-0.088-0.021-0.131-0.032c-0.471-0.117-0.955-0.229-1.454-0.333
		c-0.009-0.002-0.019-0.004-0.028-0.005c-0.51-0.106-1.033-0.204-1.568-0.295c-0.024-0.004-0.046-0.009-0.07-0.012
		c-0.516-0.087-1.045-0.167-1.581-0.241c-0.06-0.008-0.119-0.017-0.18-0.025c-0.518-0.07-1.045-0.133-1.578-0.19
		c-0.08-0.009-0.159-0.017-0.24-0.026c-0.526-0.055-1.059-0.104-1.596-0.146c-0.085-0.007-0.171-0.013-0.257-0.02
		c-0.54-0.041-1.084-0.076-1.631-0.105c-0.08-0.004-0.16-0.008-0.24-0.012c-0.56-0.027-1.121-0.05-1.685-0.064
		c-0.056-0.001-0.111-0.002-0.167-0.003C31.187,15.008,30.594,15,30,15s-1.187,0.008-1.78,0.022
		c-0.056,0.001-0.111,0.002-0.167,0.003c-0.564,0.015-1.126,0.037-1.685,0.064c-0.08,0.004-0.16,0.008-0.24,0.012
		c-0.547,0.029-1.091,0.064-1.631,0.105c-0.086,0.007-0.171,0.013-0.257,0.02c-0.537,0.043-1.07,0.091-1.596,0.146
		c-0.08,0.008-0.16,0.017-0.24,0.026c-0.533,0.058-1.06,0.121-1.578,0.19c-0.06,0.008-0.12,0.017-0.18,0.025
		c-0.536,0.074-1.065,0.154-1.581,0.241c-0.024,0.004-0.047,0.009-0.07,0.012c-0.535,0.091-1.058,0.189-1.568,0.295
		c-0.009,0.002-0.019,0.004-0.028,0.005c-0.499,0.104-0.983,0.215-1.454,0.333c-0.044,0.011-0.088,0.021-0.131,0.032
		c-0.45,0.114-0.885,0.235-1.306,0.361c-0.056,0.017-0.112,0.033-0.168,0.05c-0.41,0.126-0.803,0.258-1.182,0.395
		c-0.055,0.02-0.11,0.041-0.165,0.061c-0.374,0.14-0.731,0.285-1.07,0.436c-0.045,0.02-0.089,0.041-0.134,0.062
		c-0.34,0.156-0.663,0.317-0.964,0.485c-0.029,0.016-0.055,0.033-0.083,0.049c-0.308,0.176-0.598,0.358-0.86,0.548
		c-0.004,0.003-0.007,0.006-0.011,0.009c-0.263,0.192-0.499,0.391-0.711,0.596c-0.013,0.012-0.027,0.024-0.04,0.036
		c-0.201,0.198-0.371,0.404-0.52,0.614c-0.018,0.026-0.038,0.051-0.056,0.077c-0.138,0.206-0.248,0.417-0.334,0.634
		C8.205,20.964,8.191,20.981,8.184,21H6c-1.654,0-3-1.346-3-3s1.346-3,3-3h2.816C11.675,15,14,12.675,14,9.816
		C14,5.507,17.507,2,21.816,2h3.565l0.621,1.241c0.019,0.752,0.141,1.554,0.699,2.108c0.676,0.669,1.618,0.667,2.798,0.653L30,6
		l0.5,0.003c1.182,0.008,2.122,0.016,2.798-0.653c0.559-0.555,0.681-1.356,0.699-2.108L34.618,2h3.565C42.493,2,46,5.507,46,9.816
		C46,12.675,48.325,15,51.184,15H54c1.654,0,3,1.346,3,3S55.654,21,54,21z"/>
	<polygon points="31.293,7.293 30,8.586 28.707,7.293 27.293,8.707 28.586,10 27.293,11.293 28.707,12.707 30,11.414 31.293,12.707 
		32.707,11.293 31.414,10 32.707,8.707 	"/>
</g>
<g>
</g>
<g>
</g>
<g>
</g>
<g>
</g>
<g>
</g>
<g>
</g>
<g>
</g>
<g>
</g>
<g>
</g>
<g>
</g>
<g>
</g>
<g>
</g>
<g>
</g>
<g>
</g>
<g>
</g>
</svg>
