<?xml version="1.0" encoding="iso-8859-1"?>
<!-- Generator: Adobe Illustrator 18.0.0, SVG Export Plug-In . SVG Version: 6.00 Build 0)  -->
<!DOCTYPE svg PUBLIC "-//W3C//DTD SVG 1.1//EN" "http://www.w3.org/Graphics/SVG/1.1/DTD/svg11.dtd">
<svg version="1.1" id="Capa_1" xmlns="http://www.w3.org/2000/svg" xmlns:xlink="http://www.w3.org/1999/xlink" x="0px" y="0px"
	 viewBox="0 0 44 44" style="enable-background:new 0 0 44 44;" xml:space="preserve">
<g>
	<path d="M42.968,15.373c-0.189-3.031-1.731-5.696-4.032-7.402C34.736,2.906,28.574,0,22,0S9.264,2.906,5.064,7.971
		c-2.302,1.706-3.843,4.37-4.032,7.402C0.351,17.53,0,19.758,0,22c0,12.131,9.869,22,22,22s22-9.869,22-22
		C44,19.758,43.649,17.53,42.968,15.373z M9.923,6.059C13.364,3.443,17.58,2,22,2s8.636,1.443,12.077,4.059
		c-0.006-0.001-0.012,0-0.018-0.001C33.711,6.021,33.358,6,33,6H11c-0.358,0-0.711,0.021-1.059,0.058
		C9.935,6.058,9.929,6.058,9.923,6.059z M6.285,9.552C6.297,9.544,6.31,9.542,6.322,9.534c1.007-0.733,2.143-1.206,3.335-1.412
		C9.728,8.11,9.799,8.099,9.87,8.089C10.243,8.035,10.619,8,11,8h22c0.381,0,0.757,0.035,1.13,0.089
		c0.071,0.01,0.142,0.021,0.213,0.033c1.193,0.206,2.328,0.679,3.335,1.412c0.013,0.01,0.028,0.012,0.042,0.021
		c1.878,1.38,3.13,3.555,3.259,6.027c0,0.002-0.001,0.004-0.001,0.006l0.007,0.122C40.989,15.808,41,15.903,41,16
		c0,4.411-3.589,8-8,8H11c-4.411,0-8-3.589-8-8c0-0.097,0.011-0.192,0.015-0.289l0.007-0.122c0-0.002-0.001-0.004-0.001-0.006
		C3.15,13.108,4.404,10.931,6.285,9.552z M22,42C10.972,42,2,33.028,2,22c0-0.509,0.02-1.018,0.059-1.524
		c0.019,0.037,0.044,0.07,0.063,0.107c0.186,0.36,0.389,0.709,0.616,1.042c0.03,0.044,0.065,0.085,0.096,0.129
		c0.205,0.29,0.427,0.567,0.661,0.834c0.075,0.085,0.15,0.168,0.228,0.251c0.243,0.258,0.497,0.505,0.766,0.736
		c0.041,0.035,0.078,0.074,0.119,0.108c0.309,0.257,0.636,0.492,0.974,0.711c0.09,0.058,0.182,0.111,0.274,0.166
		c0.277,0.167,0.562,0.321,0.856,0.461c0.089,0.042,0.175,0.088,0.266,0.128c0.372,0.164,0.754,0.307,1.147,0.426
		c0.078,0.024,0.159,0.04,0.238,0.061c0.329,0.09,0.665,0.163,1.006,0.219c0.115,0.019,0.23,0.038,0.346,0.053
		C10.137,25.962,10.564,26,11,26h22c0.436,0,0.863-0.038,1.284-0.092c0.116-0.015,0.231-0.034,0.346-0.053
		c0.342-0.056,0.677-0.129,1.006-0.219c0.079-0.022,0.16-0.038,0.239-0.062c0.393-0.118,0.776-0.262,1.147-0.426
		c0.09-0.04,0.177-0.086,0.266-0.128c0.294-0.14,0.579-0.294,0.856-0.461c0.092-0.055,0.184-0.108,0.274-0.166
		c0.338-0.219,0.665-0.454,0.974-0.711c0.042-0.035,0.079-0.074,0.12-0.109c0.268-0.231,0.522-0.477,0.764-0.734
		c0.078-0.083,0.154-0.166,0.229-0.252c0.234-0.266,0.455-0.543,0.66-0.833c0.031-0.044,0.066-0.084,0.096-0.129
		c0.227-0.333,0.43-0.682,0.616-1.042c0.019-0.037,0.045-0.07,0.063-0.107C41.98,20.982,42,21.491,42,22C42,33.028,33.028,42,22,42z
		"/>
	<path d="M8.553,14.895l8,4C16.696,18.966,16.849,19,16.999,19c0.367,0,0.72-0.202,0.896-0.553c0.247-0.494,0.047-1.095-0.447-1.342
		l-8-4c-0.495-0.246-1.095-0.047-1.342,0.447C7.858,14.047,8.059,14.647,8.553,14.895z"/>
	<path d="M27.001,19c0.15,0,0.303-0.034,0.446-0.105l8-4c0.494-0.247,0.694-0.848,0.447-1.342s-0.846-0.693-1.342-0.447l-8,4
		c-0.494,0.247-0.694,0.848-0.447,1.342C26.281,18.798,26.634,19,27.001,19z"/>
</g>
<g>
</g>
<g>
</g>
<g>
</g>
<g>
</g>
<g>
</g>
<g>
</g>
<g>
</g>
<g>
</g>
<g>
</g>
<g>
</g>
<g>
</g>
<g>
</g>
<g>
</g>
<g>
</g>
<g>
</g>
</svg>
