<?xml version="1.0" encoding="iso-8859-1"?>
<!-- Generator: Adobe Illustrator 16.0.0, SVG Export Plug-In . SVG Version: 6.00 Build 0)  -->
<!DOCTYPE svg PUBLIC "-//W3C//DTD SVG 1.1//EN" "http://www.w3.org/Graphics/SVG/1.1/DTD/svg11.dtd">
<svg version="1.1" id="Capa_1" xmlns="http://www.w3.org/2000/svg" xmlns:xlink="http://www.w3.org/1999/xlink" x="0px" y="0px"
	 width="339.137px" height="339.137px" viewBox="0 0 339.137 339.137" style="enable-background:new 0 0 339.137 339.137;"
	 xml:space="preserve">
<g>
	<g>
		<g id="Layer_5_1_">
			<g>
				<path d="M253.552,171.218c3.193-0.827,5.809-4.206,5.809-7.505V35.902c0-3.3-1.502-3.756-3.337-1.014L149.46,194.096
					c-1.835,2.742-0.724,4.31,2.47,3.479L253.552,171.218z"/>
				<path d="M66.532,306.042c-3.3,0-4.313-2.107-2.251-4.686l67.972-84.935c2.062-2.576,6.373-5.319,9.581-6.098l193.599-46.882
					c3.208-0.776,4.602,0.991,3.099,3.929l-68.245,133.328c-1.503,2.938-5.435,5.341-8.733,5.341L66.532,306.042L66.532,306.042z"/>
				<path d="M56.92,147.687c-3.3,0-6.01,2.7-6.021,6l-0.52,145.033c-0.012,3.301,1.672,3.897,3.741,1.327l72.128-89.58
					c2.069-2.569,3.033-7.272,2.141-10.449l-13.066-46.554c-0.892-3.177-4.322-5.776-7.622-5.776H56.92L56.92,147.687z"/>
				<path d="M86.309,41.614c-0.892-3.177-3.365-3.715-5.496-1.195l-79.677,94.21c-2.131,2.52-1.174,4.581,2.125,4.581h104.441
					c3.3,0,5.271-2.6,4.378-5.776L86.309,41.614z"/>
			</g>
		</g>
	</g>
</g>
<g>
</g>
<g>
</g>
<g>
</g>
<g>
</g>
<g>
</g>
<g>
</g>
<g>
</g>
<g>
</g>
<g>
</g>
<g>
</g>
<g>
</g>
<g>
</g>
<g>
</g>
<g>
</g>
<g>
</g>
</svg>
