<?xml version="1.0" encoding="iso-8859-1"?>
<!-- Generator: Adobe Illustrator 18.0.0, SVG Export Plug-In . SVG Version: 6.00 Build 0)  -->
<!DOCTYPE svg PUBLIC "-//W3C//DTD SVG 1.1//EN" "http://www.w3.org/Graphics/SVG/1.1/DTD/svg11.dtd">
<svg version="1.1" id="Capa_1" xmlns="http://www.w3.org/2000/svg" xmlns:xlink="http://www.w3.org/1999/xlink" x="0px" y="0px"
	 viewBox="0 0 60.002 60.002" style="enable-background:new 0 0 60.002 60.002;" xml:space="preserve">
<g>
	<path d="M59.795,26.569c-0.401-1.698-1.364-3.157-2.576-3.903c-0.811-0.499-1.676-0.661-2.508-0.461
		c-0.189,0.045-0.371,0.114-0.549,0.198c-2.336-5.685-5.98-9.364-9.727-11.737l1.36-2.719c0.247-0.494,0.047-1.095-0.447-1.342
		c-0.493-0.245-1.094-0.047-1.342,0.447l-1.303,2.605c-0.617-0.328-1.231-0.626-1.838-0.892l0.983-2.949
		c0.175-0.524-0.108-1.091-0.632-1.265c-0.529-0.176-1.09,0.108-1.265,0.632l-0.948,2.844c-0.693-0.248-1.366-0.461-2.012-0.642
		l0.857-2.57c0.175-0.524-0.108-1.091-0.632-1.265c-0.528-0.177-1.09,0.108-1.265,0.632l-0.908,2.724
		C33.779,6.641,32.7,6.495,31.9,6.418V4.499c0-0.553-0.447-1-1-1s-1,0.447-1,1v1.844c-0.525,0.026-1.441,0.097-2.632,0.283
		l-0.382-2.292c-0.09-0.545-0.606-0.918-1.15-0.822c-0.545,0.091-0.913,0.606-0.822,1.15l0.39,2.34
		c-1.072,0.242-2.258,0.573-3.509,1.02l-0.947-2.841c-0.175-0.523-0.736-0.808-1.265-0.632c-0.523,0.174-0.807,0.74-0.632,1.265
		l0.981,2.944c-0.863,0.378-1.742,0.822-2.621,1.327l-1.517-3.035c-0.247-0.494-0.848-0.692-1.342-0.447
		c-0.494,0.247-0.694,0.848-0.447,1.342l1.601,3.202c-0.881,0.602-1.749,1.288-2.594,2.05l-2.406-2.406
		c-0.391-0.391-1.023-0.391-1.414,0s-0.391,1.023,0,1.414l2.388,2.388c-3.076,3.273-5.646,7.835-6.826,14.214
		c-0.015,0.083-0.025,0.166-0.04,0.249c-0.254-0.07-0.512-0.118-0.776-0.118C1.73,28.939,0,31.322,0,34.363s1.73,5.424,3.939,5.424
		c0.404,0,0.798-0.102,1.177-0.267c0.701,2.671,1.863,5.179,3.458,7.379c3.195,4.404,9.467,9.605,21.267,9.605
		c0.182,0,0.366-0.001,0.551-0.004c0.186,0.003,0.368,0.004,0.551,0.004c11.796,0,18.07-5.202,21.267-9.605
		c2.881-3.971,4.346-8.946,4.229-14.077c0.035,0.001,0.071,0.014,0.105,0.014c0.227,0,0.451-0.025,0.671-0.078
		C59.363,32.245,60.496,29.527,59.795,26.569z M4.674,37.489c-0.206,0.166-0.456,0.298-0.734,0.298C3.022,37.786,2,36.38,2,34.363
		s1.022-3.424,1.939-3.424c0.167,0,0.335,0.047,0.504,0.139c-0.049,0.531-0.081,1.061-0.096,1.589c-0.001,0.044,0,0.088-0.002,0.132
		c-0.01,0.43-0.008,0.86,0.004,1.287c0.004,0.15,0.009,0.3,0.016,0.449c0.016,0.34,0.04,0.678,0.07,1.016
		c0.014,0.158,0.023,0.315,0.04,0.473c0.047,0.432,0.105,0.862,0.175,1.289C4.659,37.37,4.664,37.43,4.674,37.489z M50.591,45.725
		c-4.318,5.948-11.13,8.901-20.185,8.775h-0.027c-9.063,0.146-15.868-2.826-20.185-8.775c-2.062-2.843-3.329-6.257-3.726-9.868
		c-0.008-0.076-0.009-0.154-0.017-0.231C6.395,35.055,6.363,34.479,6.35,33.9c-0.005-0.251-0.001-0.504,0.003-0.756
		c0.004-0.405,0.02-0.81,0.046-1.216c0.02-0.299,0.04-0.597,0.071-0.896c0.064-0.62,0.138-1.24,0.252-1.86
		c1.097-5.929,3.438-10.164,6.237-13.2l1.235,1.235c0.195,0.195,0.451,0.293,0.707,0.293s0.512-0.098,0.707-0.293
		c0.391-0.391,0.391-1.023,0-1.414l-1.229-1.229c0.684-0.619,1.384-1.181,2.094-1.683l0.533,1.067
		c0.176,0.351,0.528,0.553,0.896,0.553c0.15,0,0.303-0.034,0.446-0.105c0.494-0.247,0.694-0.848,0.447-1.342l-0.628-1.256
		c0.795-0.464,1.59-0.872,2.372-1.22l0.413,1.24c0.14,0.419,0.529,0.684,0.948,0.684c0.104,0,0.211-0.017,0.316-0.052
		c0.523-0.174,0.807-0.74,0.632-1.265l-0.45-1.349c1.148-0.407,2.236-0.7,3.224-0.917l0.291,1.747
		c0.081,0.489,0.505,0.836,0.985,0.836c0.055,0,0.109-0.004,0.165-0.014c0.545-0.091,0.913-0.606,0.822-1.15l-0.296-1.777
		c1.021-0.146,1.824-0.201,2.31-0.22v2.161c0,0.553,0.447,1,1,1s1-0.447,1-1V8.423c0.666,0.065,1.52,0.177,2.515,0.371l-0.463,1.389
		c-0.175,0.524,0.108,1.091,0.632,1.265c0.105,0.035,0.212,0.052,0.316,0.052c0.419,0,0.809-0.265,0.948-0.684l0.521-1.563
		c0.644,0.175,1.319,0.384,2.015,0.632l-0.432,1.298c-0.175,0.524,0.108,1.091,0.632,1.265c0.105,0.035,0.212,0.052,0.316,0.052
		c0.419,0,0.809-0.265,0.948-0.684l0.395-1.185c0.177,0.079,0.353,0.154,0.532,0.238c0.36,0.171,0.707,0.353,1.053,0.538
		l-0.823,1.645c-0.247,0.494-0.047,1.095,0.447,1.342c0.144,0.071,0.296,0.105,0.446,0.105c0.367,0,0.72-0.202,0.896-0.553
		l0.763-1.526c4.174,2.689,7.196,6.517,9.039,11.43l-0.002,0.003l0.182,0.513c0.272,0.767,0.51,1.535,0.72,2.312
		c0.012,0.047,0.025,0.094,0.037,0.142c0.203,0.766,0.38,1.542,0.528,2.338c0.001,0.005,0.002,0.009,0.003,0.013
		c0.122,0.66,0.204,1.32,0.268,1.979c0.012,0.126,0.029,0.249,0.039,0.376C54.791,36.693,53.464,41.763,50.591,45.725z
		 M56.751,30.813c-0.134,0.031-0.28,0.031-0.436-0.001c-0.004-0.037-0.011-0.071-0.015-0.108c-0.068-0.627-0.152-1.254-0.267-1.88
		c-0.001-0.006-0.001-0.012-0.003-0.018c-0.004-0.024-0.011-0.046-0.016-0.07c-0.139-0.745-0.3-1.46-0.476-2.156
		c-0.021-0.081-0.046-0.162-0.067-0.243c-0.18-0.691-0.379-1.357-0.592-2.001c-0.005-0.014-0.008-0.029-0.013-0.043
		c0.101-0.07,0.204-0.117,0.31-0.143c0.378-0.09,0.75,0.069,0.994,0.219c0.758,0.467,1.401,1.486,1.68,2.661
		C58.314,28.993,57.645,30.6,56.751,30.813z"/>
	<path d="M23,36.499c2.452,0,4.61-1.27,5.861-3.184c1.439,3.058,4.542,5.184,8.139,5.184c4.963,0,9-4.037,9-9s-4.037-9-9-9
		c-3.598,0-6.7,2.126-8.139,5.184c-1.251-1.914-3.409-3.184-5.861-3.184c-3.859,0-7,3.141-7,7S19.141,36.499,23,36.499z M37,22.499
		c3.859,0,7,3.141,7,7s-3.141,7-7,7s-7-3.141-7-7S33.141,22.499,37,22.499z M23,24.499c2.757,0,5,2.243,5,5s-2.243,5-5,5
		s-5-2.243-5-5S20.243,24.499,23,24.499z"/>
	<circle cx="23" cy="29.5" r="2"/>
	<circle cx="37" cy="29.5" r="3"/>
	<path d="M45.293,44.531c-1.18,1.178-3.406,1.178-4.586,0c-1.939-1.939-5.475-1.939-7.414,0c-1.18,1.178-3.406,1.178-4.586,0
		c-1.939-1.939-5.475-1.939-7.414,0c-1.224,1.224-3.452,1.306-4.586,0.172c-0.391-0.391-1.023-0.391-1.414,0s-0.391,1.023,0,1.414
		c0.917,0.917,2.217,1.371,3.539,1.371c1.412,0,2.851-0.518,3.875-1.543c1.18-1.178,3.406-1.178,4.586,0
		c0.932,0.932,2.282,1.466,3.707,1.466s2.775-0.534,3.707-1.466c1.18-1.178,3.406-1.178,4.586,0
		c0.932,0.932,2.282,1.466,3.707,1.466s2.775-0.534,3.707-1.466c0.391-0.391,0.391-1.023,0-1.414S45.684,44.14,45.293,44.531z"/>
	<path d="M16.553,20.758c1.002,0.501,2.068,0.738,3.119,0.738c2.569,0,5.047-1.418,6.272-3.868c0.247-0.494,0.047-1.095-0.447-1.342
		c-0.494-0.246-1.095-0.047-1.342,0.447c-1.233,2.466-4.243,3.47-6.708,2.235c-0.494-0.245-1.095-0.047-1.342,0.447
		S16.059,20.511,16.553,20.758z"/>
	<path d="M46.603,18.288c-1.197,0.6-2.553,0.694-3.817,0.272c-1.266-0.422-2.293-1.313-2.891-2.509
		c-0.248-0.494-0.848-0.692-1.342-0.447c-0.494,0.247-0.694,0.848-0.447,1.342c0.837,1.674,2.274,2.921,4.047,3.512
		c0.727,0.242,1.474,0.362,2.219,0.362c1.072,0,2.139-0.249,3.126-0.743c0.494-0.247,0.694-0.848,0.447-1.342
		C47.696,18.241,47.096,18.043,46.603,18.288z"/>
</g>
<g>
</g>
<g>
</g>
<g>
</g>
<g>
</g>
<g>
</g>
<g>
</g>
<g>
</g>
<g>
</g>
<g>
</g>
<g>
</g>
<g>
</g>
<g>
</g>
<g>
</g>
<g>
</g>
<g>
</g>
</svg>
