<?xml version="1.0" encoding="iso-8859-1"?>
<!-- Generator: Adobe Illustrator 17.1.0, SVG Export Plug-In . SVG Version: 6.00 Build 0)  -->
<!DOCTYPE svg PUBLIC "-//W3C//DTD SVG 1.1//EN" "http://www.w3.org/Graphics/SVG/1.1/DTD/svg11.dtd">
<svg version="1.1" id="Capa_1" xmlns="http://www.w3.org/2000/svg" xmlns:xlink="http://www.w3.org/1999/xlink" x="0px" y="0px"
	 viewBox="0 0 490 490" style="enable-background:new 0 0 490 490;" xml:space="preserve">
<g>
	<path d="M324.868,132.231h-3.59c2.27-4.69,3.59-9.934,3.59-15.5c0-18.832-14.623-34.211-33.119-35.51
		c0.252-3.752-0.152-7.764-1.436-12.063c-4.267-14.31-15.698-23.652-26.419-33.3C259.835,32.219,249.88,20.911,257.846,0
		c-19.158,4.901-71.446,42.422-57.155,81.221c-19.622,0.075-35.556,15.867-35.556,35.51c0,5.566,1.32,10.81,3.59,15.5h-3.584
		c-19.686,0-35.638,15.966-35.638,35.64c0,19.684,15.951,35.631,35.638,35.631h159.728c19.675,0,35.629-15.948,35.629-35.631
		C360.497,148.197,344.543,132.231,324.868,132.231z"/>
	<path d="M340.624,225.43c-1.975-2.611-5.045-4.137-8.318-4.137h-87.119H157.69c-3.269,0-6.34,1.526-8.317,4.137
		c-1.977,2.595-2.614,5.976-1.731,9.119l18.786,66.777c1.258,4.5,5.373,7.611,10.039,7.611h8.454l50.236,173.506
		c1.287,4.476,5.374,7.556,10.027,7.556c0,0,0,0,0.003,0l0,0c4.652,0,8.74-3.08,10.023-7.556l49.866-173.506h8.457
		c4.662,0,8.777-3.111,10.036-7.611l18.785-66.777C343.237,231.407,342.601,228.025,340.624,225.43z"/>
</g>
<g>
</g>
<g>
</g>
<g>
</g>
<g>
</g>
<g>
</g>
<g>
</g>
<g>
</g>
<g>
</g>
<g>
</g>
<g>
</g>
<g>
</g>
<g>
</g>
<g>
</g>
<g>
</g>
<g>
</g>
</svg>
