<?xml version="1.0" encoding="iso-8859-1"?>
<!-- Generator: Adobe Illustrator 19.0.0, SVG Export Plug-In . SVG Version: 6.00 Build 0)  -->
<svg version="1.1" id="Layer_1" xmlns="http://www.w3.org/2000/svg" xmlns:xlink="http://www.w3.org/1999/xlink" x="0px" y="0px"
	 viewBox="0 0 360 360" style="enable-background:new 0 0 360 360;" xml:space="preserve">
<g id="XMLID_19_">
	<g>
		<path d="M288.994,163.669C280.789,153.85,271,143.5,271,143.5s2-3,9-13.5c-32.236-23.417-80-40-140-40C30,90,0,180,0,180
			s12.262,36.771,49.836,63.307C73.551,232.085,90,207.931,90,180h20c0,31.259-16.021,58.842-40.281,74.981
			C88.354,263.943,111.482,270,140,270c60,0,107.764-16.583,140-40c-7-10.5-9-13.5-9-13.5s9.789-10.35,17.994-20.169L360,220v-80
			L288.994,163.669z M50,180c-5.523,0-10-4.477-10-10s4.477-10,10-10c5.522,0,10,4.477,10,10S55.522,180,50,180z M150,230
			c-10,0-27.301,0-27.301,0l40-70C162.699,160,190,190,150,230z"/>
	</g>
</g>
<g>
</g>
<g>
</g>
<g>
</g>
<g>
</g>
<g>
</g>
<g>
</g>
<g>
</g>
<g>
</g>
<g>
</g>
<g>
</g>
<g>
</g>
<g>
</g>
<g>
</g>
<g>
</g>
<g>
</g>
</svg>
