<?xml version="1.0" encoding="iso-8859-1"?>
<!-- Generator: Adobe Illustrator 16.0.0, SVG Export Plug-In . SVG Version: 6.00 Build 0)  -->
<!DOCTYPE svg PUBLIC "-//W3C//DTD SVG 1.1//EN" "http://www.w3.org/Graphics/SVG/1.1/DTD/svg11.dtd">
<svg version="1.1" id="Capa_1" xmlns="http://www.w3.org/2000/svg" xmlns:xlink="http://www.w3.org/1999/xlink" x="0px" y="0px"
	 width="464.842px" height="464.841px" viewBox="0 0 464.842 464.841" style="enable-background:new 0 0 464.842 464.841;"
	 xml:space="preserve">
<g>
	<g id="Layer_3_49_">
		<path d="M277.888,124.306h-21.123c-2.745,0-4.97-2.225-4.97-4.97s2.225-4.97,4.97-4.97h21.123c2.745,0,4.97,2.225,4.97,4.97
			S280.633,124.306,277.888,124.306z"/>
		<g>
			<path d="M341.387,196.858c-68.072,0-123.454,49.15-123.454,117.224c0,32.625,12.947,62.438,36.455,83.945
				c22.833,20.89,53.729,32.395,86.999,32.395c33.271,0,64.169-11.505,87.001-32.395c23.508-21.509,36.454-51.32,36.454-83.945
				C464.842,246.009,409.46,196.858,341.387,196.858z M341.387,366.677c-29,0-52.595-23.594-52.595-52.595
				c0-29.002,23.595-52.596,52.595-52.596c29.001,0,52.595,23.594,52.595,52.596C393.981,343.083,370.388,366.677,341.387,366.677z"
				/>
			<path d="M87.4,260.648c-48.193,0-87.4,39.209-87.4,87.401c0,23.101,9.167,44.209,25.812,59.438
				c16.166,14.79,38.038,22.935,61.589,22.935c23.552,0,45.425-8.145,61.59-22.935c16.645-15.229,25.812-36.339,25.812-59.438
				C174.802,299.857,135.594,260.648,87.4,260.648z M87.4,385.113c-20.435,0-37.06-16.627-37.06-37.063
				c0-20.436,16.625-37.062,37.06-37.062s37.061,16.626,37.061,37.062C124.461,368.486,107.835,385.113,87.4,385.113z"/>
			<path d="M245.277,220.425c25.347-23.58,59.479-36.566,96.108-36.566c24.679,0,48.221,5.901,68.708,16.959
				c0.103,0.055,0.204,0.088,0.306,0.132c1.882,1.353,4.231,2.068,6.717,1.847c5.501-0.49,9.562-5.347,9.072-10.848
				c-0.093-1.047-9.351-104.934-11.104-125.312c-2.771-32.218-26.047-32.218-34.809-32.218H245.281
				c-12.047-0.024-34.378-0.013-41.274,34.135c-3.881,19.216-12.413,59.658-19,90.541c-34.663,0-67.15,0-92.26,0v-50.582
				c0-7.375-5.979-13.353-13.353-13.353s-13.353,5.979-13.353,13.353v50.582c-12.812,0-20.931,0-22.52,0
				c-38.677,0-50.627,83.074-29.327,120.321c18.33-19.54,44.365-31.77,73.208-31.77c50.5,0,92.405,37.479,99.376,86.083h19.604
				c-0.957-6.42-1.448-12.98-1.448-19.647C204.933,277.891,219.261,244.629,245.277,220.425z M395.159,68.352
				c1.099,12.771,5.136,58.241,8.026,90.744c-15.819,0-46.297,0-83.104,0V54.419h60.196
				C390.01,54.419,394.006,54.954,395.159,68.352z M223.611,72.513c3.656-18.1,10.463-18.087,21.663-18.094h58.807v104.676
				c-30.991,0-65.323,0-98.629,0C212.397,126.456,220.854,86.163,223.611,72.513z"/>
		</g>
	</g>
</g>
<g>
</g>
<g>
</g>
<g>
</g>
<g>
</g>
<g>
</g>
<g>
</g>
<g>
</g>
<g>
</g>
<g>
</g>
<g>
</g>
<g>
</g>
<g>
</g>
<g>
</g>
<g>
</g>
<g>
</g>
</svg>
