<?xml version="1.0" encoding="iso-8859-1"?>
<!-- Generator: Adobe Illustrator 16.0.0, SVG Export Plug-In . SVG Version: 6.00 Build 0)  -->
<!DOCTYPE svg PUBLIC "-//W3C//DTD SVG 1.1//EN" "http://www.w3.org/Graphics/SVG/1.1/DTD/svg11.dtd">
<svg version="1.1" id="Layer_1" xmlns="http://www.w3.org/2000/svg" xmlns:xlink="http://www.w3.org/1999/xlink" x="0px" y="0px"
	 width="36px" height="36px" viewBox="0 0 36 36" style="enable-background:new 0 0 36 36;" preserveAspectRatio="fit">
<g>
	<path style="fill:#010101;" d="M34.702,21.112l0.354-0.269v-1.699l-0.354-0.261v-0.397v-0.265l0.919-0.736l-0.919-0.579
		c-6.19-4.234-17.321-3.447-17.321-3.447c-2.631,0-7.648,6.05-7.648,6.05s-2.874,0.481-4.754,1.608
		c-1.879,1.127-1.126,5.638-1.126,5.638h2.912c0-1.868,1.515-3.383,3.383-3.383s3.382,1.515,3.382,3.383h13.953
		c0-1.868,1.514-3.383,3.382-3.383c1.868,0,3.381,1.515,3.381,3.383h0.456v-1.029l0.565-0.618v-2.251l-0.565-0.751V21.112z
		 M6.492,22.736h-1.56V21.75h1.56V22.736z M21.546,19.131h-9.409c0,0,3.349-4.253,4.942-4.253c1.595,0,4.466,0,4.466,0V19.131z
		 M22.802,19.145v-4.37c0,0,6.504,0.224,8.915,4.37H22.802z"/>
	<path style="fill:#010101;" d="M10.101,23.585c-1.748,0-3.169,1.421-3.169,3.168c0,1.749,1.422,3.171,3.169,3.171
		s3.17-1.422,3.17-3.171C13.271,25.006,11.848,23.585,10.101,23.585z M10.101,29.218c-1.358,0-2.463-1.105-2.463-2.465
		c0-1.357,1.105-2.461,2.463-2.461c1.358,0,2.464,1.104,2.464,2.461C12.564,28.112,11.459,29.218,10.101,29.218z"/>
	<path style="fill:#010101;" d="M30.803,23.585c-1.748,0-3.169,1.421-3.169,3.168c0,0.097,0.02,0.188,0.029,0.281H13.74v0.986
		h13.925v-0.957c0.159,1.602,1.497,2.86,3.138,2.86c1.747,0,3.169-1.422,3.169-3.171C33.972,25.006,32.55,23.585,30.803,23.585z
		 M30.803,29.218c-1.358,0-2.463-1.105-2.463-2.465c0-1.357,1.104-2.461,2.463-2.461c1.358,0,2.463,1.104,2.463,2.461
		C33.266,28.112,32.161,29.218,30.803,29.218z"/>
</g>
</svg>
