<?xml version="1.0" encoding="iso-8859-1"?>
<!-- Generator: Adobe Illustrator 16.0.0, SVG Export Plug-In . SVG Version: 6.00 Build 0)  -->
<!DOCTYPE svg PUBLIC "-//W3C//DTD SVG 1.1//EN" "http://www.w3.org/Graphics/SVG/1.1/DTD/svg11.dtd">
<svg version="1.1" id="Capa_1" xmlns="http://www.w3.org/2000/svg" xmlns:xlink="http://www.w3.org/1999/xlink" x="0px" y="0px"
	 width="516.375px" height="516.375px" viewBox="0 0 516.375 516.375" style="enable-background:new 0 0 516.375 516.375;"
	 xml:space="preserve">
<g>
	<g id="Layer_2_10_">
		<polygon points="267.75,109.969 229.5,109.969 153,243.844 344.25,243.844 		"/>
		<path d="M20.531,325.718l39.579-38.25l39.56,38.25l39.589-38.25l39.569,38.25l39.589-38.25l39.608,38.25l39.608-38.25
			l39.607,38.25l39.599-38.25l39.599,38.25l39.607-38.24l39.675,38.25l15.625-15.062c5.011-21.506,5.03-38.135,5.03-38.135H0
			c0,0,0.029,16.667,5.059,38.222L20.531,325.718z"/>
		<path d="M401.625,406.406c34.263,0,58.293-11.943,75.143-28.688H39.608c16.849,16.744,40.88,28.688,75.142,28.688
			C200.812,406.406,325.125,406.406,401.625,406.406z"/>
		<path d="M495.653,352.464l-39.608-38.183l-39.617,38.26l-39.599-38.25l-39.598,38.25l-39.608-38.25l-39.607,38.25l-39.608-38.25
			l-39.589,38.25l-39.57-38.25l-39.598,38.25L60.1,314.291l-39.417,38.097c3.012,5.432,6.474,10.729,10.433,15.769h454.143
			C489.198,363.146,492.641,357.867,495.653,352.464z"/>
	</g>
</g>
<g>
</g>
<g>
</g>
<g>
</g>
<g>
</g>
<g>
</g>
<g>
</g>
<g>
</g>
<g>
</g>
<g>
</g>
<g>
</g>
<g>
</g>
<g>
</g>
<g>
</g>
<g>
</g>
<g>
</g>
</svg>
