<?xml version='1.0' encoding='iso-8859-1'?>
<svg version="1.1" xmlns="http://www.w3.org/2000/svg" viewBox="0 0 305.135 305.135" xmlns:xlink="http://www.w3.org/1999/xlink" enable-background="new 0 0 305.135 305.135">
  <g>
    <g>
      <path d="m211.415,73.156c13.961-36.275 20.235-59.321 20.567-60.553 1.436-5.333-1.723-10.82-7.056-12.257-0.871-0.234-1.745-0.346-2.606-0.346-4.412,0-8.449,2.94-9.651,7.402-0.144,0.536-5.458,19.867-17.025,50.732 3.08,0.955 5.974,2.494 8.479,4.591 3.39,2.837 5.851,6.46 7.292,10.431z"/>
      <path d="m175.133,135.535c-4.206,5.025-10.184,8.111-16.646,8.673-17.624,36.011-39.963,76.086-67.625,116.314l3.595,25.901c0.154,1.109 0.229,2.211 0.247,3.304 48.104-66.203 81.303-132.728 101.489-179.354l-21.06,25.162z"/>
      <path d="m103.526,91.044c0.525,0.736 1.081,1.437 1.665,2.101l35.663,3.061c10.632-8.529 12.882-23.978 4.875-35.221-8.3-11.654-24.477-14.373-36.131-6.072s-14.373,24.477-6.072,36.131z"/>
      <path d="m113.431,199.189l-35.595-17.657 29.266-33.269 27.483,16.436c4.088-7.758 7.966-15.379 11.644-22.834l-27.731-9.84-15.707-5.573 52.178,5.782h0.001c3.989,0.442 8.232-1.144 10.958-4.397 0.001-0.002 0.003-0.003 0.004-0.005 4.299-5.136 27.042-32.31 32.053-38.297 4.43-5.294 3.731-13.177-1.563-17.608-5.349-4.478-13.25-3.637-17.604,1.558-0.002,0.002-0.003,0.003-0.005,0.005-4.013,4.795-23.721,28.342-27.752,33.158-58.835-6.519-53.515-5.949-54.515-6.007l-7.006-6.163c-7.257-6.384-18.315-5.676-24.699,1.581l-59.704,67.871 .038,.001c-4.15,5.099-4.594,12.518-0.604,18.139l41.021,57.784 7.264,52.34c1.137,8.189 8.697,13.937 16.919,12.796 8.206-1.139 13.934-8.714 12.796-16.919l-7.768-55.971c-0.331-2.386-1.232-4.657-2.626-6.621l-43.142-60.774 0,0 51.322,51.566 8.184,4.06-2.38,7.42c0.466,1.897 0.365,1.526 2.231,14.973 9.52-14.339 18.366-28.617 26.561-42.652-0.488-0.318-0.99-0.619-1.522-0.883z"/>
      <path d="m300.264,13.603c-1.909-1.229-4.311-1.404-6.377-0.465l-13.219,6.007c-19.29,8.766-31.675,27.999-31.675,49.187v20.42c0,7.275-2.982,14.231-8.251,19.247l-22.244,21.179c-12.208,11.624-21.192,26.215-26.075,42.349l-4.883,16.134c-2.714,8.967-6.706,17.495-11.854,25.323l-15.085,22.936c-4.482,6.814-8.091,14.164-10.741,21.878l-13.228,38.49c-0.701,2.04-0.373,4.293 0.88,6.049s3.277,2.798 5.435,2.798h153.703c3.688,0 6.677-2.989 6.677-6.677v-279.241c-0.002-2.27-1.155-4.385-3.063-5.614z"/>
    </g>
  </g>
</svg>
