<?xml version="1.0" encoding="iso-8859-1"?>
<!-- Generator: Adobe Illustrator 18.0.0, SVG Export Plug-In . SVG Version: 6.00 Build 0)  -->
<!DOCTYPE svg PUBLIC "-//W3C//DTD SVG 1.1//EN" "http://www.w3.org/Graphics/SVG/1.1/DTD/svg11.dtd">
<svg version="1.1" id="Capa_1" xmlns="http://www.w3.org/2000/svg" xmlns:xlink="http://www.w3.org/1999/xlink" x="0px" y="0px"
	 viewBox="0 0 43.979 43.979" style="enable-background:new 0 0 43.979 43.979;" xml:space="preserve">
<g>
	<path d="M10.676,17.747c-0.391-0.391-1.023-0.391-1.414,0c-2.267,2.266-3.515,5.279-3.515,8.484c0,3.204,1.247,6.216,3.512,8.483
		c0,0,0,0,0,0.001l0,0c0.001,0.001,0.001,0.001,0.001,0.002c2.267,2.267,5.28,3.515,8.485,3.515s6.219-1.248,8.484-3.515
		c0.391-0.391,0.391-1.023,0-1.414L10.676,17.747z M10.003,19.904l6.348,6.348l-2.127,2.115l-5.671-5.671
		c-0.037-0.037-0.085-0.054-0.126-0.084C8.806,21.639,9.33,20.724,10.003,19.904z M7.854,24.824l4.953,4.953l-2.801,2.786
		c-1.463-1.782-2.258-3.996-2.258-6.332C7.747,25.756,7.789,25.287,7.854,24.824z M11.42,33.977l2.8-2.785l4.934,4.934
		c-0.463,0.065-0.932,0.106-1.407,0.106C15.414,36.232,13.202,35.437,11.42,33.977z M21.366,35.551
		c-0.03-0.041-0.047-0.089-0.084-0.126l-5.644-5.644l2.127-2.115l6.31,6.31C23.255,34.649,22.34,35.173,21.366,35.551z"/>
	<path d="M37.546,6.433c-8.578-8.578-22.535-8.576-31.113,0c-8.577,8.578-8.577,22.535,0,31.113
		c4.289,4.289,9.923,6.433,15.557,6.433s11.268-2.144,15.557-6.433C46.123,28.968,46.123,15.011,37.546,6.433z M36.132,36.132
		c-7.798,7.799-20.487,7.797-28.285,0c-7.797-7.798-7.797-20.487,0-28.285c3.899-3.899,9.021-5.848,14.143-5.848
		c5.121,0,10.244,1.949,14.143,5.848C43.929,15.645,43.929,28.334,36.132,36.132z"/>
	<path d="M36.93,21.701l-7.778-0.707c-0.292-0.027-0.588,0.079-0.798,0.289s-0.315,0.502-0.289,0.798l0.707,7.778
		c0.048,0.519,0.483,0.909,0.995,0.909c0.03,0,0.061-0.001,0.092-0.004c0.55-0.05,0.955-0.536,0.905-1.087l-0.599-6.583l6.583,0.599
		c0.564,0.049,1.036-0.356,1.087-0.905C37.885,22.237,37.48,21.75,36.93,21.701z"/>
	<path d="M14.827,15.914l7.778,0.707c0.03,0.003,0.061,0.004,0.091,0.004c0.264,0,0.519-0.104,0.707-0.293
		c0.21-0.21,0.315-0.502,0.289-0.798l-0.707-7.778c-0.051-0.549-0.524-0.954-1.087-0.905c-0.55,0.05-0.955,0.536-0.905,1.087
		l0.599,6.583l-6.583-0.599c-0.557-0.05-1.036,0.356-1.087,0.905C13.872,15.378,14.278,15.865,14.827,15.914z"/>
</g>
<g>
</g>
<g>
</g>
<g>
</g>
<g>
</g>
<g>
</g>
<g>
</g>
<g>
</g>
<g>
</g>
<g>
</g>
<g>
</g>
<g>
</g>
<g>
</g>
<g>
</g>
<g>
</g>
<g>
</g>
</svg>
