<?xml version="1.0" encoding="iso-8859-1"?>
<!-- Generator: Adobe Illustrator 18.0.0, SVG Export Plug-In . SVG Version: 6.00 Build 0)  -->
<!DOCTYPE svg PUBLIC "-//W3C//DTD SVG 1.1//EN" "http://www.w3.org/Graphics/SVG/1.1/DTD/svg11.dtd">
<svg version="1.1" id="Capa_1" xmlns="http://www.w3.org/2000/svg" xmlns:xlink="http://www.w3.org/1999/xlink" x="0px" y="0px"
	 viewBox="0 0 480 480" style="enable-background:new 0 0 480 480;" xml:space="preserve">
<path d="M386.058,191.42c-5.602,0-11.091,0.495-16.426,1.44l-11.527-39.729l-9.041-32.435h36.994
	c10.616,0,15.369,6.252,15.369,12.447c0,3.521-1.542,6.833-4.342,9.324c-3.825,3.404-9.774,5.204-17.203,5.204v20
	c15.676,0,25.238-5.582,30.499-10.264c7.02-6.248,11.046-15.092,11.046-24.265c0-8.602-3.378-16.643-9.512-22.643
	c-6.557-6.414-15.499-9.805-25.857-9.805h-63.332l12.58,45.13H184.828l-5.072-13.6h33.328v-20H132.54v20h25.87l8.347,22.382
	l-30.417,46.938c-12.744-6.473-27.151-10.127-42.397-10.127C42.143,191.42,0,233.562,0,285.361s42.143,93.942,93.942,93.942
	c48.421,0,88.399-36.827,93.408-83.942h12.486c4.122,11.566,15.179,19.87,28.143,19.87c16.47,0,29.869-13.399,29.869-29.87
	c0-5.667-1.587-10.971-4.339-15.49l90.206-94.566l6.714,23.14c-34.182,14.064-58.312,47.722-58.312,86.917
	c0,51.8,42.142,93.942,93.941,93.942S480,337.161,480,285.361S437.857,191.42,386.058,191.42z M325.115,165.826l-87.169,91.382
	c-3.119-1.107-6.473-1.716-9.968-1.716c-0.747,0-1.486,0.037-2.22,0.091l-33.473-89.757H325.115z M175.461,177.951l31.979,85.752
	c-3.378,3.205-6.011,7.185-7.605,11.658H187.35c-2.691-25.314-15.477-47.654-34.244-62.912L175.461,177.951z M167.188,275.361
	h-54.849l29.807-45.998C155.5,240.875,164.701,257.06,167.188,275.361z M93.942,359.304C53.17,359.304,20,326.133,20,285.361
	s33.17-73.941,73.942-73.941c11.238,0,21.892,2.531,31.439,7.036l-49.836,76.905h91.642
	C162.289,331.418,131.32,359.304,93.942,359.304z M227.979,295.231c-5.442,0-9.87-4.428-9.87-9.87c0-5.441,4.428-9.869,9.87-9.869
	c5.441,0,9.869,4.428,9.869,9.869C237.848,290.804,233.42,295.231,227.979,295.231z M386.058,359.304
	c-40.771,0-73.941-33.171-73.941-73.942c0-30.089,18.076-56.02,43.93-67.552l20.408,70.338l19.207-5.572l-20.413-70.357
	c3.53-0.52,7.137-0.798,10.81-0.798c40.772,0,73.942,33.17,73.942,73.941S426.83,359.304,386.058,359.304z"/>
<g>
</g>
<g>
</g>
<g>
</g>
<g>
</g>
<g>
</g>
<g>
</g>
<g>
</g>
<g>
</g>
<g>
</g>
<g>
</g>
<g>
</g>
<g>
</g>
<g>
</g>
<g>
</g>
<g>
</g>
</svg>
