<?xml version="1.0" encoding="iso-8859-1"?>
<!-- Generator: Adobe Illustrator 19.0.0, SVG Export Plug-In . SVG Version: 6.00 Build 0)  -->
<svg version="1.1" id="Capa_1" xmlns="http://www.w3.org/2000/svg" xmlns:xlink="http://www.w3.org/1999/xlink" x="0px" y="0px"
	 viewBox="0 0 463 463" style="enable-background:new 0 0 463 463;" xml:space="preserve">
<g>
	<path d="M391.5,352H391v-72.5c0-4.142-3.358-7.5-7.5-7.5h-80c-4.142,0-7.5,3.358-7.5,7.5V352h-17v-72.5c0-4.142-3.358-7.5-7.5-7.5
		h-80c-4.142,0-7.5,3.358-7.5,7.5V352H71.5C40.897,352,16,376.897,16,407.5S40.897,463,71.5,463h320c30.603,0,55.5-24.897,55.5-55.5
		S422.103,352,391.5,352z M311,287h25v16.5c0,4.142,3.358,7.5,7.5,7.5s7.5-3.358,7.5-7.5V287h25v65h-65V287z M199,287h25v16.5
		c0,4.142,3.358,7.5,7.5,7.5s7.5-3.358,7.5-7.5V287h25v65h-65V287z M391.5,448h-320C49.168,448,31,429.832,31,407.5
		S49.168,367,71.5,367h120h80h32h80h8c22.332,0,40.5,18.168,40.5,40.5S413.832,448,391.5,448z"/>
	<path d="M135.5,384c-12.958,0-23.5,10.542-23.5,23.5s10.542,23.5,23.5,23.5s23.5-10.542,23.5-23.5S148.458,384,135.5,384z
		 M135.5,416c-4.687,0-8.5-3.813-8.5-8.5s3.813-8.5,8.5-8.5s8.5,3.813,8.5,8.5S140.187,416,135.5,416z"/>
	<path d="M71.5,384C58.542,384,48,394.542,48,407.5S58.542,431,71.5,431S95,420.458,95,407.5S84.458,384,71.5,384z M71.5,416
		c-4.687,0-8.5-3.813-8.5-8.5s3.813-8.5,8.5-8.5s8.5,3.813,8.5,8.5S76.187,416,71.5,416z"/>
	<path d="M199.5,384c-12.958,0-23.5,10.542-23.5,23.5s10.542,23.5,23.5,23.5s23.5-10.542,23.5-23.5S212.458,384,199.5,384z
		 M199.5,416c-4.687,0-8.5-3.813-8.5-8.5s3.813-8.5,8.5-8.5s8.5,3.813,8.5,8.5S204.187,416,199.5,416z"/>
	<path d="M263.5,384c-12.958,0-23.5,10.542-23.5,23.5s10.542,23.5,23.5,23.5s23.5-10.542,23.5-23.5S276.458,384,263.5,384z
		 M263.5,416c-4.687,0-8.5-3.813-8.5-8.5s3.813-8.5,8.5-8.5s8.5,3.813,8.5,8.5S268.187,416,263.5,416z"/>
	<path d="M327.5,384c-12.958,0-23.5,10.542-23.5,23.5s10.542,23.5,23.5,23.5s23.5-10.542,23.5-23.5S340.458,384,327.5,384z
		 M327.5,416c-4.687,0-8.5-3.813-8.5-8.5s3.813-8.5,8.5-8.5s8.5,3.813,8.5,8.5S332.187,416,327.5,416z"/>
	<path d="M391.5,384c-12.958,0-23.5,10.542-23.5,23.5s10.542,23.5,23.5,23.5s23.5-10.542,23.5-23.5S404.458,384,391.5,384z
		 M391.5,416c-4.687,0-8.5-3.813-8.5-8.5s3.813-8.5,8.5-8.5s8.5,3.813,8.5,8.5S396.187,416,391.5,416z"/>
	<path d="M55.5,15H80v24.5C80,48.047,86.953,55,95.5,55H96v48.5c0,10.335,6.71,19.127,16,22.266v35.469
		c-9.29,3.138-16,11.93-16,22.266c0,1.552,0.155,3.068,0.444,4.537l-36.665,20.951C57.442,210.323,56,212.809,56,215.5v32
		c0,1.989,0.79,3.896,2.197,5.303L72,266.606V327.5c0,4.142,3.358,7.5,7.5,7.5h80c4.142,0,7.5-3.358,7.5-7.5v-60.894l13.803-13.803
		c1.407-1.407,2.197-3.314,2.197-5.303v-32c0-2.691-1.442-5.177-3.779-6.512l-36.665-20.952c0.289-1.469,0.444-2.984,0.444-4.537
		c0-10.335-6.71-19.127-16-22.266v-35.469c9.29-3.138,16-11.93,16-22.266V55h0.5c8.547,0,15.5-6.953,15.5-15.5V15h24.5
		c4.142,0,7.5-3.358,7.5-7.5S187.642,0,183.5,0h-128C51.358,0,48,3.358,48,7.5S51.358,15,55.5,15z M87,320v-56.498
		c0-0.001,0-0.003,0-0.005V255h25v16.5c0,4.142,3.358,7.5,7.5,7.5s7.5-3.358,7.5-7.5V255h25v8.498c0,0.001,0,0.003,0,0.005V320H87z
		 M168,244.394l-1.243,1.243c-0.83-3.239-3.76-5.636-7.257-5.636h-80c-3.497,0-6.427,2.397-7.257,5.636L71,244.394v-24.541
		l32.898-18.799c4.153,3.696,9.618,5.947,15.602,5.947c5.983,0,11.449-2.251,15.602-5.947L168,219.853V244.394z M119.5,192
		c-4.687,0-8.5-3.813-8.5-8.5s3.813-8.5,8.5-8.5s8.5,3.813,8.5,8.5S124.187,192,119.5,192z M119.5,112c-4.687,0-8.5-3.813-8.5-8.5
		V87h17v16.5C128,108.187,124.187,112,119.5,112z M128,72h-17V55h17V72z M144,15v24.5c0,0.276-0.224,0.5-0.5,0.5h-48
		c-0.276,0-0.5-0.224-0.5-0.5V15H144z"/>
</g>
<g>
</g>
<g>
</g>
<g>
</g>
<g>
</g>
<g>
</g>
<g>
</g>
<g>
</g>
<g>
</g>
<g>
</g>
<g>
</g>
<g>
</g>
<g>
</g>
<g>
</g>
<g>
</g>
<g>
</g>
</svg>
