<?xml version="1.0" encoding="iso-8859-1"?>
<!-- Generator: Adobe Illustrator 18.0.0, SVG Export Plug-In . SVG Version: 6.00 Build 0)  -->
<!DOCTYPE svg PUBLIC "-//W3C//DTD SVG 1.1//EN" "http://www.w3.org/Graphics/SVG/1.1/DTD/svg11.dtd">
<svg version="1.1" id="Capa_1" xmlns="http://www.w3.org/2000/svg" xmlns:xlink="http://www.w3.org/1999/xlink" x="0px" y="0px"
	 viewBox="0 0 295.996 295.996" style="enable-background:new 0 0 295.996 295.996;" xml:space="preserve">
<g>
	<path d="M147.998,0C66.392,0,0,66.392,0,147.998s66.392,147.998,147.998,147.998c81.606,0,147.998-66.392,147.998-147.998
		S229.604,0,147.998,0z M147.998,279.996c-36.257,0-69.143-14.696-93.022-38.44c-9.536-9.482-17.631-20.41-23.934-32.42
		C21.442,190.847,16,170.048,16,147.998c0-15.551,2.711-30.478,7.672-44.345l13.209,13.209l5.505,5.505
		c2.78,18.299,15.757,33.24,32.948,38.876l0.222,0.3l0.433,0.426c2.945,2.945,4.414,6.861,4.414,11.027
		c0,8.601-6.738,15.598-15.738,15.598v16c9,0,17.394-3.934,23.226-10.199c17.773,11.801,38.409,18.009,60.025,18.008
		c21.371,0,41.607-6.081,59.255-17.641c5.767,6.05,14.494,9.832,22.494,9.832v-16c-8,0-15.262-6.997-15.262-15.598
		c0-4.391,2.053-8.526,5.269-11.458c17.642-5.399,31.067-20.551,33.896-39.171l16.27-16.248l2.477-2.467
		c4.961,13.867,7.677,28.795,7.677,44.346C279.991,220.782,220.782,279.996,147.998,279.996z M252.163,101.187
		c-5.955-20.148-24.59-34.855-46.666-34.855c-24.148,0-44.183,17.598-48.001,40.666h-18.998
		c-3.818-23.068-23.853-40.666-48.001-40.666c-8.647,0-16.763,2.266-23.801,6.222c-10.93,6.142-19.243,16.378-22.865,28.634
		l-13.32-13.32C52.419,45.233,96.858,16,147.998,16c34.523,0,65.987,13.328,89.533,35.102
		c11.333,10.479,20.835,22.911,27.954,36.763L252.163,101.187z M57.83,114.998c0-18.013,14.654-32.667,32.667-32.667
		s32.667,14.654,32.667,32.667s-14.654,32.667-32.667,32.667S57.83,133.011,57.83,114.998z M95.089,163.442
		c22.061-2.065,39.837-18.856,43.409-40.445h18.998c3.53,21.332,20.928,37.979,42.624,40.365c-0.997,3.074-1.528,6.318-1.528,9.634
		c0,2.669,0.341,5.259,0.975,7.736c-15.262,10.26-32.962,15.67-51.568,15.67c-18.919,0.001-36.876-5.581-52.298-16.162
		c0.562-2.328,0.869-4.751,0.869-7.244C96.569,169.705,96.058,166.493,95.089,163.442z M205.497,147.665
		c-18.013,0-32.667-14.654-32.667-32.667s14.654-32.667,32.667-32.667s32.667,14.654,32.667,32.667S223.51,147.665,205.497,147.665z
		"/>
	<path d="M74.497,114.998c0-8.836,7.164-16,16-16s16,7.164,16,16c0,8.836-7.164,16-16,16S74.497,123.834,74.497,114.998z"/>
	<circle cx="90.497" cy="114.998" r="16"/>
	<circle cx="205.497" cy="114.998" r="16"/>
</g>
<g>
</g>
<g>
</g>
<g>
</g>
<g>
</g>
<g>
</g>
<g>
</g>
<g>
</g>
<g>
</g>
<g>
</g>
<g>
</g>
<g>
</g>
<g>
</g>
<g>
</g>
<g>
</g>
<g>
</g>
</svg>
