<?xml version="1.0" encoding="iso-8859-1"?>
<!-- Generator: Adobe Illustrator 19.0.0, SVG Export Plug-In . SVG Version: 6.00 Build 0)  -->
<svg version="1.1" id="Layer_1" xmlns="http://www.w3.org/2000/svg" xmlns:xlink="http://www.w3.org/1999/xlink" x="0px" y="0px"
	 viewBox="0 0 490 490" style="enable-background:new 0 0 490 490;" xml:space="preserve">
<g id="XMLID_486_">
	<g>
		<g>
			<path d="M433.021,185c-7.645-18.421-18.895-35.763-33.021-50.863V42.5h-15c-28.374,0-53.852,15.994-66.546,40.388
				C297.387,75.989,275.268,72.5,252.5,72.5c-51.084,0-99.194,17.726-135.467,49.911C80.255,155.045,60,198.582,60,245
				c0,8.271-6.729,15-15,15s-15-6.729-15-15s6.729-15,15-15v-30c-24.813,0-45,20.187-45,45s20.187,45,45,45
				c7.274,0,14.144-1.746,20.231-4.823c9.325,35.249,30.85,67.031,62.269,91.038V447.5h90v-32.853c23.021,3.793,46.979,3.793,70,0
				V447.5h90v-71.285c25.169-19.232,44.152-43.583,55.548-71.215H490V185H433.021z M460,275h-48.143l-3.432,10.229
				c-9.424,28.094-28.284,52.681-54.541,71.103l-6.385,4.479V417.5h-30v-40.744l-18.774,4.881
				c-14.966,3.891-30.519,5.863-46.226,5.863c-15.707,0-31.26-1.973-46.226-5.863l-18.774-4.881V417.5h-30v-56.688l-6.385-4.479
				C112.276,329.082,90,288.503,90,245c0-78.575,72.897-142.5,162.5-142.5c24.04,0,47.195,4.508,68.822,13.398l15.802,6.496
				l4.396-16.51c3.892-14.617,14.779-25.957,28.479-30.811v71.373l4.421,4.398c15.616,15.536,27.371,34.184,33.993,53.925
				L411.846,215H460V275z"/>
			<path d="M202.589,140.752l9.822,28.346c12.636-4.378,26.124-6.598,40.089-6.598c13.965,0,27.453,2.22,40.089,6.598l9.822-28.346
				c-15.802-5.476-32.595-8.252-49.911-8.252C235.184,132.5,218.391,135.276,202.589,140.752z"/>
		</g>
	</g>
</g>
<g>
</g>
<g>
</g>
<g>
</g>
<g>
</g>
<g>
</g>
<g>
</g>
<g>
</g>
<g>
</g>
<g>
</g>
<g>
</g>
<g>
</g>
<g>
</g>
<g>
</g>
<g>
</g>
<g>
</g>
</svg>
