<?xml version="1.0" encoding="iso-8859-1"?>
<!-- Generator: Adobe Illustrator 19.0.0, SVG Export Plug-In . SVG Version: 6.00 Build 0)  -->
<svg version="1.1" id="Layer_1" xmlns="http://www.w3.org/2000/svg" xmlns:xlink="http://www.w3.org/1999/xlink" x="0px" y="0px"
	 viewBox="0 0 490 490" style="enable-background:new 0 0 490 490;" xml:space="preserve">
<g id="XMLID_227_">
	<g>
		<path d="M324.624,244.639c8.154-6.59,14.52-15.092,18.569-24.639h108.473v-84.811l-160-70V0h-15
			c-41.034,0-74.478,33.128-74.994,74.042c-0.207,0.08-0.411,0.165-0.617,0.246c-0.523,0.204-1.043,0.413-1.563,0.622
			c-0.685,0.274-1.369,0.55-2.05,0.832c-0.528,0.218-1.054,0.439-1.58,0.661c-0.672,0.284-1.342,0.571-2.01,0.861
			c-0.525,0.228-1.049,0.458-1.572,0.69c-0.665,0.295-1.328,0.596-1.989,0.898c-0.518,0.237-1.035,0.474-1.551,0.714
			c-0.665,0.311-1.328,0.627-1.989,0.945c-0.504,0.242-1.009,0.483-1.511,0.729c-0.68,0.333-1.357,0.673-2.033,1.014
			c-0.475,0.239-0.951,0.476-1.424,0.718c-0.722,0.371-1.44,0.75-2.157,1.128c-0.423,0.224-0.848,0.443-1.27,0.669
			c-0.911,0.489-1.815,0.988-2.718,1.491c-0.22,0.123-0.443,0.241-0.663,0.364c-1.114,0.625-2.222,1.262-3.324,1.907
			c-0.373,0.219-0.742,0.444-1.114,0.665c-0.733,0.436-1.465,0.871-2.193,1.315c-0.446,0.273-0.889,0.552-1.333,0.829
			c-0.647,0.402-1.294,0.804-1.936,1.213c-0.469,0.299-0.935,0.603-1.401,0.906c-0.612,0.397-1.224,0.794-1.832,1.198
			c-0.474,0.314-0.945,0.633-1.416,0.951c-0.596,0.402-1.19,0.806-1.781,1.215c-0.473,0.327-0.944,0.656-1.414,0.987
			c-0.584,0.41-1.166,0.824-1.746,1.24c-0.467,0.336-0.933,0.673-1.397,1.012c-0.579,0.424-1.156,0.852-1.731,1.281
			c-0.457,0.341-0.913,0.683-1.367,1.028c-0.58,0.441-1.156,0.887-1.732,1.334c-0.441,0.343-0.882,0.684-1.32,1.03
			c-0.591,0.467-1.176,0.94-1.762,1.413c-0.416,0.335-0.833,0.669-1.246,1.008c-0.634,0.521-1.262,1.049-1.89,1.577
			c-0.356,0.299-0.714,0.594-1.068,0.896c-0.858,0.731-1.709,1.471-2.556,2.217c-0.12,0.105-0.241,0.208-0.361,0.313
			c-0.961,0.851-1.915,1.711-2.861,2.58c-0.315,0.29-0.626,0.585-0.939,0.877c-0.632,0.587-1.264,1.175-1.889,1.771
			c-0.37,0.353-0.736,0.712-1.104,1.067c-0.562,0.543-1.124,1.087-1.68,1.637c-0.388,0.384-0.771,0.771-1.156,1.158
			c-0.529,0.531-1.057,1.063-1.581,1.6c-0.394,0.404-0.784,0.811-1.174,1.218c-0.509,0.531-1.017,1.064-1.521,1.601
			c-0.39,0.415-0.777,0.832-1.164,1.25c-0.499,0.54-0.995,1.083-1.489,1.628c-0.382,0.422-0.763,0.845-1.142,1.271
			c-0.494,0.555-0.984,1.113-1.473,1.673c-0.368,0.422-0.737,0.845-1.102,1.271c-0.497,0.58-0.99,1.164-1.481,1.749
			c-0.349,0.416-0.698,0.829-1.044,1.248c-0.509,0.615-1.011,1.237-1.514,1.858c-0.321,0.397-0.644,0.791-0.962,1.19
			c-0.548,0.688-1.088,1.383-1.628,2.079c-0.265,0.341-0.533,0.678-0.796,1.021c-0.798,1.041-1.589,2.089-2.37,3.147
			c-26.594,36.024-40.65,78.654-40.65,123.281V400h-30v90h363.334v-90h-30v-51.213l-60-60v-36.054
			C316.281,250.559,320.642,247.856,324.624,244.639z M371.666,460L371.666,460H68.332v-30h303.334V460z M341.666,400H98.332v-30
			h243.334V400z M281.666,258.949v42.264L320.453,340H98.332v-71.666c0-37.862,11.909-73.54,32.725-102.926
			c-0.929,5.996-1.42,12.117-1.42,18.328V310h30V183.736c0-38.628,24.802-72.741,61.716-84.886l10.313-3.393V75
			c0-19.557,12.539-36.239,30-42.43v52.24l160,70V190H319.989l-2.454,11.993C314.281,217.895,300.351,229,283.659,229
			c-19.066,0-34.578-15.512-34.578-34.578h-30C219.081,229.362,246.978,257.89,281.666,258.949z"/>
	</g>
</g>
<g>
</g>
<g>
</g>
<g>
</g>
<g>
</g>
<g>
</g>
<g>
</g>
<g>
</g>
<g>
</g>
<g>
</g>
<g>
</g>
<g>
</g>
<g>
</g>
<g>
</g>
<g>
</g>
<g>
</g>
</svg>
