<?xml version="1.0" encoding="iso-8859-1"?>
<!-- Generator: Adobe Illustrator 16.0.0, SVG Export Plug-In . SVG Version: 6.00 Build 0)  -->
<!DOCTYPE svg PUBLIC "-//W3C//DTD SVG 1.1//EN" "http://www.w3.org/Graphics/SVG/1.1/DTD/svg11.dtd">
<svg version="1.1" id="Capa_1" xmlns="http://www.w3.org/2000/svg" xmlns:xlink="http://www.w3.org/1999/xlink" x="0px" y="0px"
	 width="32px" height="32px" viewBox="0 0 32 32" style="enable-background:new 0 0 32 32;" xml:space="preserve">
<g>
	<path d="M29.857,19.727c0.029-1.441-0.08-5.909-2.354-8.448c-0.946-1.055-2.134-1.661-3.535-1.808
		c-0.339-1.066-1.336-1.838-2.514-1.838h-0.038V5.838c0-1.98-1.605-3.585-3.585-3.585L16,2.252l-1.832,0.001
		c-1.979,0-3.584,1.605-3.584,3.585v1.794h-0.038c-1.178,0-2.175,0.772-2.515,1.838c-1.4,0.147-2.588,0.754-3.533,1.808
		c-2.276,2.54-2.385,7.006-2.356,8.447C0.898,20.113,0,21.176,0,22.426c0,0.024,0.003,0.047,0.004,0.071h1.689
		c-0.001-0.022-0.006-0.047-0.006-0.071c0-0.646,0.667-1.171,1.487-1.171c0.821,0,1.489,0.524,1.489,1.171
		c0,0.024-0.005,0.047-0.007,0.071h1.689c0-0.022,0.005-0.047,0.005-0.071c0-1.137-0.744-2.119-1.815-2.578
		c-0.06-1.5,0.142-5.19,1.744-6.977c0.455-0.506,0.991-0.823,1.627-0.962v7.181c0,1.458,1.182,2.641,2.639,2.641h0.521v2.039
		c-0.376,0.293-0.613,0.713-0.613,1.181c0,0.467,0.236,0.887,0.613,1.182v3.616h2.391v-3.489c0.482-0.292,0.797-0.769,0.797-1.309
		s-0.315-1.017-0.797-1.31v-1.91H16h2.542v1.91c-0.481,0.293-0.797,0.77-0.797,1.31s0.315,1.017,0.797,1.309v3.489h2.392v-3.616
		c0.375-0.295,0.612-0.715,0.612-1.182c0-0.468-0.237-0.888-0.612-1.181V21.73h0.521c1.457,0,2.639-1.183,2.639-2.641v-7.181
		c0.636,0.139,1.173,0.456,1.628,0.962c1.603,1.785,1.805,5.476,1.743,6.977c-1.071,0.459-1.815,1.441-1.815,2.578
		c0,0.024,0.004,0.047,0.006,0.071h1.689c-0.002-0.022-0.007-0.047-0.007-0.071c0-0.646,0.668-1.171,1.489-1.171
		c0.82,0,1.488,0.524,1.488,1.171c0,0.024-0.004,0.047-0.006,0.071h1.688c0-0.024,0.003-0.047,0.003-0.071
		C32,21.176,31.104,20.113,29.857,19.727z M12.985,19.066c-0.907,0-1.642-0.735-1.642-1.642v-5.487c0-0.907,0.735-1.642,1.642-1.642
		H16h3.016c0.906,0,1.643,0.735,1.643,1.642v5.487c0,0.906-0.735,1.642-1.643,1.642H16H12.985z"/>
</g>
<g>
</g>
<g>
</g>
<g>
</g>
<g>
</g>
<g>
</g>
<g>
</g>
<g>
</g>
<g>
</g>
<g>
</g>
<g>
</g>
<g>
</g>
<g>
</g>
<g>
</g>
<g>
</g>
<g>
</g>
</svg>
