<?xml version="1.0" encoding="iso-8859-1"?>
<!-- Generator: Adobe Illustrator 18.0.0, SVG Export Plug-In . SVG Version: 6.00 Build 0)  -->
<!DOCTYPE svg PUBLIC "-//W3C//DTD SVG 1.1//EN" "http://www.w3.org/Graphics/SVG/1.1/DTD/svg11.dtd">
<svg version="1.1" id="Capa_1" xmlns="http://www.w3.org/2000/svg" xmlns:xlink="http://www.w3.org/1999/xlink" x="0px" y="0px"
	 viewBox="0 0 60.002 60.002" style="enable-background:new 0 0 60.002 60.002;" xml:space="preserve">
<g>
	<path d="M59.795,29.135c-0.401-1.697-1.364-3.156-2.576-3.902c-0.812-0.499-1.679-0.659-2.508-0.461
		c-0.189,0.045-0.371,0.114-0.548,0.198c-2.215-5.389-5.605-8.981-9.146-11.359c0.162-3.877,2.362-6.208,6.136-6.505
		c0.459,1.703,2.001,2.966,3.847,2.966c2.206,0,4-1.794,4-4s-1.794-4-4-4c-1.871,0-3.434,1.296-3.869,3.034
		c-4.498,0.308-7.438,3.029-8.017,7.349c-6.369-3.523-12.598-3.551-12.713-3.56c-0.132,0.001-6.845,0.023-13.461,3.965
		c-0.505-4.726-4.316-8.473-9.069-8.886C7.44,2.231,5.875,0.93,4,0.93c-2.206,0-4,1.794-4,4s1.794,4,4,4
		c1.842,0,3.381-1.258,3.844-2.955C11.86,6.399,15,9.804,15,13.93c0,0.067,0.026,0.125,0.038,0.189
		c-4.516,3.272-8.679,8.588-10.283,17.255c-0.015,0.083-0.025,0.167-0.04,0.25c-0.254-0.07-0.512-0.118-0.776-0.118
		C1.73,31.506,0,33.889,0,36.93s1.73,5.424,3.939,5.424c0.403,0,0.798-0.102,1.177-0.267c0.701,2.671,1.863,5.179,3.459,7.378
		c3.194,4.404,9.468,9.606,21.27,9.606c0.182,0,0.364-0.001,0.548-0.004c12.143,0.183,18.573-5.131,21.817-9.603
		c2.879-3.969,4.345-8.941,4.23-14.07c0.035,0.001,0.07,0.007,0.104,0.007c0.227,0,0.451-0.025,0.672-0.078
		C59.363,34.812,60.496,32.093,59.795,29.135z M55,4.072c1.103,0,2,0.897,2,2s-0.897,2-2,2s-2-0.897-2-2S53.897,4.072,55,4.072z
		 M4,6.93c-1.103,0-2-0.897-2-2s0.897-2,2-2s2,0.897,2,2S5.103,6.93,4,6.93z M4.674,40.056c-0.206,0.166-0.456,0.298-0.734,0.298
		C3.022,40.354,2,38.947,2,36.93s1.022-3.424,1.939-3.424c0.167,0,0.335,0.047,0.504,0.139c-0.049,0.533-0.081,1.066-0.096,1.597
		c-0.001,0.034,0,0.067-0.001,0.101c-0.011,0.445-0.009,0.889,0.004,1.332c0.004,0.136,0.009,0.271,0.015,0.407
		c0.016,0.36,0.042,0.719,0.074,1.076c0.012,0.141,0.021,0.282,0.036,0.422c0.047,0.438,0.106,0.874,0.177,1.307
		C4.66,39.942,4.664,40,4.674,40.056z M50.591,48.291c-4.316,5.949-11.102,8.938-20.185,8.776h-0.027
		c-9.098,0.127-15.87-2.828-20.185-8.776c-2.062-2.842-3.329-6.255-3.726-9.866c-0.008-0.078-0.01-0.157-0.017-0.235
		c-0.057-0.57-0.089-1.144-0.102-1.721c-0.005-0.252-0.001-0.504,0.002-0.757c0.004-0.406,0.021-0.814,0.047-1.222
		c0.019-0.294,0.039-0.588,0.069-0.883c0.064-0.623,0.138-1.246,0.253-1.869c3.793-20.5,22.425-20.843,23.645-20.843
		c0.014,0,0.026,0,0.035,0c0.034,0.012,4.99-0.013,10.374,2.542c5.636,2.674,9.591,7.033,11.822,12.981l-0.003,0.003l0.182,0.513
		c0.272,0.766,0.509,1.532,0.719,2.308c0.013,0.049,0.026,0.098,0.038,0.147c0.204,0.769,0.382,1.548,0.53,2.348
		c0.122,0.659,0.204,1.318,0.268,1.976c0.012,0.127,0.029,0.252,0.04,0.38C54.791,39.261,53.464,44.331,50.591,48.291z
		 M56.751,33.379c-0.136,0.031-0.283,0.03-0.436,0c-0.004-0.036-0.011-0.07-0.015-0.106c-0.068-0.63-0.153-1.261-0.269-1.891
		c-0.001-0.003-0.001-0.006-0.001-0.009c-0.002-0.012-0.006-0.024-0.008-0.036c-0.142-0.761-0.307-1.492-0.486-2.203
		c-0.018-0.069-0.039-0.138-0.057-0.207c-0.182-0.701-0.384-1.376-0.6-2.029c-0.004-0.013-0.008-0.027-0.012-0.041
		c0.101-0.069,0.204-0.116,0.31-0.142c0.38-0.093,0.751,0.069,0.994,0.219c0.758,0.467,1.401,1.486,1.68,2.66
		C58.314,31.56,57.645,33.166,56.751,33.379z"/>
	<ellipse cx="30.5" cy="24.071" rx="4.5" ry="3"/>
	<ellipse cx="17.5" cy="30.071" rx="4.5" ry="3"/>
	<path d="M43.5,23.072c-1.655,0-3.197,0.398-4.505,1.075c0-0.025,0.005-0.05,0.005-0.075c0-3.859-3.813-7-8.5-7s-8.5,3.141-8.5,7
		c0,0.025,0.004,0.05,0.005,0.075c-1.308-0.677-2.849-1.075-4.505-1.075c-4.687,0-8.5,3.141-8.5,7s3.813,7,8.5,7s8.5-3.141,8.5-7
		c0-0.025-0.004-0.05-0.005-0.075c1.308,0.677,2.849,1.075,4.505,1.075s3.197-0.398,4.505-1.075c0,0.025-0.005,0.05-0.005,0.075
		c0,3.859,3.813,7,8.5,7c4.687,0,8.5-3.141,8.5-7S48.187,23.072,43.5,23.072z M17.5,35.072c-3.584,0-6.5-2.243-6.5-5s2.916-5,6.5-5
		s6.5,2.243,6.5,5S21.084,35.072,17.5,35.072z M24,24.072c0-2.757,2.916-5,6.5-5s6.5,2.243,6.5,5s-2.916,5-6.5,5
		S24,26.828,24,24.072z M43.5,35.072c-3.584,0-6.5-2.243-6.5-5s2.916-5,6.5-5s6.5,2.243,6.5,5S47.084,35.072,43.5,35.072z"/>
	<ellipse cx="43.5" cy="30.071" rx="4.5" ry="3"/>
	<path d="M42.6,39.272c-0.442-0.331-1.068-0.242-1.4,0.2c-0.332,0.441-0.242,1.068,0.2,1.399l1.41,1.057
		c-1.273,1.601-5.348,6.18-10.898,7.011c-3.509,0.528-7.038-0.554-10.491-3.184l1.18-0.885c0.442-0.331,0.531-0.958,0.2-1.399
		c-0.331-0.442-0.956-0.53-1.4-0.2l-4,3c-0.442,0.331-0.531,0.958-0.2,1.399c0.196,0.263,0.497,0.4,0.801,0.4
		c0.208,0,0.419-0.065,0.599-0.2l1.177-0.883c0.034,0.036,0.055,0.081,0.095,0.112c3.344,2.641,6.792,3.971,10.278,3.971
		c0.689,0,1.38-0.052,2.072-0.156c6.351-0.957,10.796-6,12.191-7.784l0.987,0.74c0.18,0.135,0.391,0.2,0.599,0.2
		c0.304,0,0.604-0.138,0.801-0.4c0.332-0.441,0.242-1.068-0.2-1.399L42.6,39.272z"/>
</g>
<g>
</g>
<g>
</g>
<g>
</g>
<g>
</g>
<g>
</g>
<g>
</g>
<g>
</g>
<g>
</g>
<g>
</g>
<g>
</g>
<g>
</g>
<g>
</g>
<g>
</g>
<g>
</g>
<g>
</g>
</svg>
