<?xml version="1.0" encoding="iso-8859-1"?>
<!-- Generator: Adobe Illustrator 16.0.0, SVG Export Plug-In . SVG Version: 6.00 Build 0)  -->
<!DOCTYPE svg PUBLIC "-//W3C//DTD SVG 1.1//EN" "http://www.w3.org/Graphics/SVG/1.1/DTD/svg11.dtd">
<svg version="1.1" id="Capa_1" xmlns="http://www.w3.org/2000/svg" xmlns:xlink="http://www.w3.org/1999/xlink" x="0px" y="0px"
	 width="294.092px" height="294.092px" viewBox="0 0 294.092 294.092" style="enable-background:new 0 0 294.092 294.092;"
	 xml:space="preserve">
<g>
	<g>
		<path d="M36.75,278.199c-0.59,8.768,6.478,15.893,15.265,15.893h92.981h4.102h92.983c8.787,0,15.855-7.125,15.26-15.893
			c-5.406-79.758-41.886-107.27-71.552-116.32c-5.084,19.428-21.427,33.709-40.793,33.709c-18.944,0-35.032-13.67-40.477-32.467
			C75.62,173.343,41.928,201.802,36.75,278.199z M117.446,227.982h12.645v-14.364h25.867v14.364h12.646v16.674h-12.646v31.037
			h-25.867v-31.037h-12.645V227.982z"/>
		<path d="M162.307,6.229C158.258,2.757,152.416,0,144.01,0c-9.194,0-15.827,3.679-20.412,7.868
			C100.177,26.4,68.981,66.614,101.762,137.443c0,0,2.382-1.256,7.042-2.636c-0.712,3.182-1.093,6.501-1.093,9.916
			c0,22.831,16.687,41.327,37.285,41.327c20.609,0,37.293-18.496,37.293-41.327c0-3.192-0.373-6.278-0.994-9.263
			c3.272,1.098,4.955,1.983,4.955,1.983C220.037,64.462,185.872,23.972,162.307,6.229z M160.111,113.603h-32.188V11.045
			c3.744-3.133,8.966-5.743,16.086-5.743c7.801,0,12.85,2.804,16.102,6.066V113.603z"/>
	</g>
</g>
<g>
</g>
<g>
</g>
<g>
</g>
<g>
</g>
<g>
</g>
<g>
</g>
<g>
</g>
<g>
</g>
<g>
</g>
<g>
</g>
<g>
</g>
<g>
</g>
<g>
</g>
<g>
</g>
<g>
</g>
</svg>
