<?xml version="1.0" encoding="iso-8859-1"?>
<!-- Generator: Adobe Illustrator 18.0.0, SVG Export Plug-In . SVG Version: 6.00 Build 0)  -->
<!DOCTYPE svg PUBLIC "-//W3C//DTD SVG 1.1//EN" "http://www.w3.org/Graphics/SVG/1.1/DTD/svg11.dtd">
<svg version="1.1" id="Capa_1" xmlns="http://www.w3.org/2000/svg" xmlns:xlink="http://www.w3.org/1999/xlink" x="0px" y="0px"
	 viewBox="0 0 59.002 59.002" style="enable-background:new 0 0 59.002 59.002;" xml:space="preserve">
<g>
	<path d="M19.427,28.249c-0.551-0.022-1.027,0.383-1.062,0.935c-0.035,0.552,0.384,1.026,0.935,1.062
		c1.314,0.083,2.629,0.768,3.606,1.878c0.42,0.477,0.754,1.006,0.992,1.558c-0.816-0.401-1.712-0.642-2.647-0.701
		c-1.864-0.124-3.666,0.497-5.07,1.732c-0.414,0.365-0.454,0.997-0.09,1.412c0.366,0.415,0.997,0.454,1.412,0.09
		c1.003-0.883,2.287-1.337,3.621-1.238c1.332,0.084,2.553,0.684,3.436,1.688c0.193,0.219,0.469,0.339,0.751,0.339
		c0.108,0,0.218-0.018,0.323-0.054c0.383-0.131,0.649-0.479,0.675-0.883c0.116-1.841-0.576-3.759-1.901-5.264
		C23.082,29.296,21.267,28.366,19.427,28.249z"/>
	<path d="M36.263,33.687c0.238-0.555,0.573-1.086,0.994-1.564c0.978-1.11,2.292-1.795,3.606-1.878
		c0.551-0.035,0.97-0.51,0.935-1.062s-0.521-0.959-1.062-0.935c-1.84,0.117-3.655,1.047-4.98,2.553
		c-1.325,1.505-2.018,3.424-1.9,5.264c0.025,0.403,0.292,0.752,0.675,0.883c0.106,0.036,0.215,0.054,0.323,0.054
		c0.282,0,0.558-0.12,0.751-0.339c1.821-2.068,4.987-2.271,7.056-0.449c0.415,0.364,1.045,0.325,1.412-0.09
		c0.364-0.415,0.324-1.047-0.09-1.412C41.793,32.787,38.728,32.475,36.263,33.687z"/>
	<path d="M31.484,39.002c-1.021,0-1.979,0.451-2.63,1.239c-0.353,0.425-0.292,1.056,0.134,1.407
		c0.426,0.353,1.057,0.291,1.407-0.134c0.27-0.325,0.667-0.513,1.089-0.513c0.777,0,1.409,0.632,1.409,1.409s-0.632,1.41-1.409,1.41
		c-0.332,0-0.642-0.111-0.897-0.322c-0.428-0.354-1.058-0.292-1.407,0.134c-0.353,0.425-0.292,1.056,0.134,1.407
		c0.376,0.311,0.817,0.524,1.284,0.65c0.09,0.071,0.176,0.146,0.246,0.235c0.478,0.613,0.367,1.501-0.245,1.979
		c-0.613,0.478-1.502,0.366-1.979-0.245c-0.204-0.262-0.307-0.575-0.297-0.905c0.016-0.553-0.419-1.013-0.971-1.029
		c-0.01,0-0.02,0-0.03,0c-0.538,0-0.983,0.429-0.999,0.971c-0.022,0.79,0.232,1.568,0.719,2.193c0.672,0.86,1.678,1.312,2.693,1.312
		c0.733,0,1.471-0.234,2.093-0.718c1.227-0.958,1.605-2.59,1.049-3.966c1.186-0.535,2.016-1.722,2.016-3.105
		C34.893,40.531,33.364,39.002,31.484,39.002z"/>
	<path d="M58.399,43.657c-2.099-4.705-2.759-13.611-2.965-18.502c-0.193-4.619-1.571-8.96-3.983-12.554
		c-4.309-6.421-9.09-9.038-12.312-10.448c-6.561-2.87-14.084-2.871-20.645,0c-3.791,1.658-8.127,4.074-11.546,9.418
		c-2.292,3.583-3.552,7.9-3.642,12.485c-0.104,5.27-0.595,14.846-2.726,19.777c-0.678,1.57,0.037,3.407,1.593,4.095
		c0.895,0.396,2.606,0.632,4.752,0.899c0.139,0.018,0.265,0.033,0.396,0.05v1.124c0,2.663,2.344,5,5.015,5h2.802v1.694
		c0,1.271,1.034,2.306,2.306,2.306h23.389c1.271,0,2.306-1.034,2.306-2.306v-1.694h3c2.713,0,5.184-2.383,5.184-5v-1.159
		c0.541-0.089,1.099-0.173,1.657-0.25c1.45-0.204,2.819-0.396,3.705-0.74c0.805-0.313,1.428-0.923,1.755-1.718
		C58.769,45.334,58.754,44.454,58.399,43.657z M41.138,56.696c0,0.169-0.137,0.306-0.306,0.306H17.444
		c-0.169,0-0.306-0.137-0.306-0.306v-1.694h24V56.696z M49.322,50.002c0,1.514-1.577,3-3.184,3h-3h-28h-2.802
		c-1.55,0-3.015-1.458-3.015-3V27.945c4.038-0.278,19.387-1.802,25.819-9.082c1.453,2.695,4.954,8.311,9.565,9.765
		c1.561,0.49,3.107,0.473,4.615-0.057V50.002z M56.589,45.374c-0.116,0.284-0.34,0.502-0.629,0.614
		c-0.669,0.26-1.986,0.444-3.26,0.623c-0.458,0.064-0.922,0.131-1.379,0.202V27.002c0-0.359-0.192-0.69-0.504-0.868
		c-0.313-0.178-0.694-0.176-1.005,0.007c-1.483,0.878-2.958,1.066-4.503,0.58c-5.15-1.621-9.039-10.048-9.078-10.133
		c-0.15-0.33-0.467-0.553-0.828-0.582c-0.356-0.031-0.709,0.137-0.912,0.438c-5.79,8.608-26.008,9.551-26.212,9.56
		c-0.535,0.022-0.958,0.463-0.958,0.999v19.861c-0.051-0.007-0.096-0.012-0.148-0.019c-1.391-0.174-3.493-0.436-4.189-0.744
		c-0.566-0.25-0.814-0.897-0.566-1.473C4.684,39.38,5.2,29.511,5.307,24.095c0.083-4.217,1.233-8.175,3.327-11.446
		c3.13-4.894,7.146-7.126,10.662-8.664c6.05-2.647,12.99-2.647,19.04,0c2.993,1.31,7.437,3.744,11.454,9.731
		c2.206,3.287,3.467,7.271,3.646,11.522c0.26,6.147,1.014,14.475,3.137,19.232C56.702,44.763,56.708,45.085,56.589,45.374z"/>
</g>
<g>
</g>
<g>
</g>
<g>
</g>
<g>
</g>
<g>
</g>
<g>
</g>
<g>
</g>
<g>
</g>
<g>
</g>
<g>
</g>
<g>
</g>
<g>
</g>
<g>
</g>
<g>
</g>
<g>
</g>
</svg>
