<?xml version='1.0' encoding='iso-8859-1'?>
<svg version="1.1" xmlns="http://www.w3.org/2000/svg" viewBox="0 0 310.635 310.635" xmlns:xlink="http://www.w3.org/1999/xlink" enable-background="new 0 0 310.635 310.635">
  <g>
    <g>
      <path d="m195.651,256.999c2.776,18.544-8.977,30.613-22.422,32.628-14.938,2.229-28.541-8.324-30.695-22.705-0.798-5.328-1.145-7.647-1.942-12.973-5.31,18.91-4.374,15.576-5.849,20.832-3.967,14.133-18.787,22.772-33.293,18.697-8.092-2.272-14.595-8.069-17.774-15.983-22.343,7.52-36.01,15.713-34.984,22.35 1.848,11.959 50.673,14.34 109.053,5.318s104.209-26.03 102.361-37.989c-1.348-8.719-27.669-12.345-64.455-10.175z"/>
      <path d="m65.049,194.388l45.681,10.55-16.424,58.49c-2.239,7.976 2.41,16.257 10.387,18.496 7.98,2.242 16.259-2.417 18.496-10.387l20.673-73.623c2.314-8.24-2.737-16.748-11.066-18.67l-59.721-14.113c0,0 60.841,2.056 62.422,2.421 7.156,1.653 13.407,6.224 17.15,12.54 3.745,6.317 4.754,13.996 2.768,21.066l-6.909,24.607 5.896,39.38c1.225,8.178 8.843,13.838 17.057,12.613 8.191-1.228 13.84-8.861 12.613-17.057l-13.576-90.667c-0.885-5.907-5.177-10.683-10.868-12.244l-44.458-12.19-2.565-7.095-4.577,2.268c-10.515,5.21-21.373,1.357-25.356-2.39l-37.228-35.016 45.45,26.275c3.502,2.025 8.018,2.256 11.807,0.378l44.747-22.176c6.18-3.062 8.717-10.561 5.649-16.75-0.001-0.002-0.001-0.003-0.001-0.003-3.098-6.248-10.65-8.668-16.749-5.647l-12.838,6.362-25.904,12.838-41.16-23.792c2.267,0.625 38.118,10.508 39.932,11.008l11.414-5.656-24.954-23.963c-3.585-3.443-11.633-5.968-18.843-3.361l-31.256,11.301c-9.68,3.5-14.69,14.184-11.19,23.864 3.006,8.314 29.226,80.831 32.371,89.53 1.373,5.215 5.511,9.515 11.13,10.813z"/>
      <path d="m289.239,136.02c-46.084-5.144-84.471-16.254-110.518-25.636l1.951-.613c6.586-2.069 10.248-9.086 8.178-15.672-2.069-6.585-9.085-10.25-15.672-8.178l-8.196,2.576c3.085,8.738 1,18.599-5.61,25.324-1.848,1.88-3.983,3.433-6.337,4.634-0.088,0.045-0.171,0.098-0.259,0.142l-3.571,1.77c24.344,10.433 73.534,28.353 137.816,35.529 0.377,0.042 0.751,0.063 1.122,0.063 5.025,0 9.354-3.78 9.926-8.892 0.611-5.487-3.341-10.434-8.83-11.047z"/>
      <circle cx="40.095" cy="27.59" r="27.59"/>
    </g>
  </g>
</svg>
