<?xml version="1.0" encoding="iso-8859-1"?>
<!-- Generator: Adobe Illustrator 18.0.0, SVG Export Plug-In . SVG Version: 6.00 Build 0)  -->
<!DOCTYPE svg PUBLIC "-//W3C//DTD SVG 1.1//EN" "http://www.w3.org/Graphics/SVG/1.1/DTD/svg11.dtd">
<svg version="1.1" id="Capa_1" xmlns="http://www.w3.org/2000/svg" xmlns:xlink="http://www.w3.org/1999/xlink" x="0px" y="0px"
	 viewBox="0 0 59.002 59.002" style="enable-background:new 0 0 59.002 59.002;" xml:space="preserve">
<g>
	<path d="M38.371,40.002h-18c-0.552,0-1,0.447-1,1c0,5.514,4.486,10,10,10s10-4.486,10-10
		C39.371,40.449,38.923,40.002,38.371,40.002z M36.779,44.011c-0.015-0.001-0.028-0.009-0.044-0.009h-3.364v-2h3.931
		C37.213,42.704,37.037,43.377,36.779,44.011z M21.963,44.011c-0.258-0.633-0.435-1.307-0.523-2.009h3.931v2h-3.364
		C21.992,44.002,21.979,44.01,21.963,44.011z M27.371,42.002h4v2h-4V42.002z M23.136,46.002h2.235v1.917
		C24.513,47.421,23.754,46.771,23.136,46.002z M27.371,48.739v-2.737h4v2.737c-0.641,0.166-1.308,0.263-2,0.263
		S28.011,48.905,27.371,48.739z M33.371,47.919v-1.917h2.235C34.988,46.771,34.229,47.421,33.371,47.919z"/>
	<path d="M16.027,26.706c-0.391-0.391-1.023-0.391-1.414,0l-3.145,3.146c-0.391,0.391-0.391,1.023,0,1.414
		c0.195,0.195,0.451,0.293,0.707,0.293s0.512-0.098,0.707-0.293l3.145-3.146C16.417,27.729,16.417,27.097,16.027,26.706z"/>
	<path d="M15.661,33.362c0.195,0.195,0.451,0.293,0.707,0.293s0.512-0.098,0.707-0.293l5.242-5.242c0.391-0.391,0.391-1.023,0-1.414
		s-1.023-0.391-1.414,0l-5.242,5.242C15.27,32.339,15.27,32.972,15.661,33.362z"/>
	<path d="M35.24,31.559c0.256,0,0.512-0.098,0.707-0.293l3.146-3.146c0.391-0.391,0.391-1.023,0-1.414s-1.023-0.391-1.414,0
		l-3.146,3.146c-0.391,0.391-0.391,1.023,0,1.414C34.728,31.461,34.984,31.559,35.24,31.559z"/>
	<path d="M38.727,33.362c0.195,0.195,0.451,0.293,0.707,0.293s0.512-0.098,0.707-0.293l5.242-5.242c0.391-0.391,0.391-1.023,0-1.414
		s-1.023-0.391-1.414,0l-5.242,5.242C38.336,32.339,38.336,32.972,38.727,33.362z"/>
	<path d="M58.399,43.657c-2.1-4.708-2.758-13.613-2.964-18.502c-0.194-4.619-1.572-8.96-3.983-12.554
		c-4.31-6.421-9.091-9.038-12.312-10.448c-6.561-2.871-14.086-2.871-20.645,0c-3.791,1.658-8.127,4.075-11.545,9.418
		c-2.292,3.583-3.552,7.9-3.642,12.485c-0.103,5.27-0.595,14.847-2.725,19.777c-0.678,1.569,0.036,3.406,1.592,4.095
		c0.895,0.396,2.607,0.632,4.752,0.899c0.14,0.018,0.266,0.034,0.398,0.05l-0.002,1.124c0,2.663,2.343,5,5.015,5h2.509v1.694
		c0,1.271,1.034,2.306,2.306,2.306H40.54c1.271,0,2.305-1.034,2.305-2.306v-1.694h3.293c2.713,0,5.183-2.383,5.183-4.998
		l0.003-1.161c0.54-0.089,1.097-0.172,1.654-0.25c1.45-0.204,2.82-0.396,3.706-0.74c0.805-0.313,1.429-0.923,1.756-1.718
		C58.769,45.334,58.754,44.454,58.399,43.657z M49.367,27.859c-0.052,3.222-0.621,6.504-4.794,6.956
		c-5.165,0.558-8.862-0.126-10.988-2.034c-1.298-1.166-2.01-2.821-2.119-4.927C37.039,24.897,43.794,24.9,49.367,27.859z
		 M29.954,26.403c-0.005,0.003-0.008,0.007-0.013,0.01H28.41c-0.005-0.003-0.008-0.007-0.013-0.01
		c-0.93-0.532-1.878-0.983-2.835-1.37c4.126-1.494,7.396-3.579,9.591-6.159c0.674,1.238,1.786,3.09,3.233,4.873
		C35.458,24.027,32.576,24.905,29.954,26.403z M26.887,27.853c-0.109,2.106-0.82,3.763-2.119,4.929
		c-2.126,1.907-5.823,2.595-10.988,2.034c-3.975-0.431-4.394-3.501-4.409-7.223C14.836,24.687,21.157,24.782,26.887,27.853z
		 M40.845,56.696c0,0.169-0.137,0.306-0.305,0.306H17.151c-0.168,0-0.306-0.137-0.306-0.306v-1.694h24V56.696z M46.139,53.002
		h-3.293h-28h-2.509c-1.55,0-3.015-1.458-3.015-2.998l0.032-15.112c0.916,0.981,2.253,1.7,4.211,1.912
		c1.216,0.132,2.362,0.197,3.44,0.197c4.022,0,7.075-0.915,9.099-2.731c1.612-1.448,2.532-3.415,2.747-5.856h0.651
		c0.215,2.441,1.135,4.409,2.747,5.856c2.024,1.817,5.076,2.731,9.099,2.731c1.077,0,2.225-0.065,3.44-0.197
		c2.153-0.233,3.592-1.056,4.568-2.143l-0.033,15.341C49.322,51.516,47.745,53.002,46.139,53.002z M56.59,45.374
		c-0.117,0.284-0.34,0.502-0.63,0.614c-0.669,0.26-1.986,0.444-3.259,0.623c-0.456,0.064-0.917,0.13-1.372,0.201l0.041-18.992
		c0.002-0.195,0.002-0.379,0.002-0.548c0-0.358-0.192-0.69-0.504-0.868c-3.061-1.749-6.474-2.657-9.905-2.746
		c-2.853-3.034-4.713-7.031-4.732-7.072c-0.151-0.329-0.468-0.551-0.828-0.579c-0.362-0.04-0.709,0.137-0.91,0.438
		c-2.27,3.375-6.501,5.981-12.232,7.548c-4.899-1.118-9.915-0.412-14.385,2.142c-0.078,0.044-0.148,0.098-0.21,0.16l-0.001,0.001
		c-0.081,0.081-0.14,0.177-0.189,0.279c-0.013,0.027-0.023,0.053-0.034,0.082c-0.04,0.108-0.069,0.221-0.069,0.34
		c0,0.001-0.001,0.002-0.001,0.002L7.328,46.863c-0.053-0.007-0.1-0.013-0.155-0.02c-1.392-0.174-3.494-0.436-4.19-0.743
		c-0.566-0.251-0.815-0.897-0.566-1.474c2.266-5.245,2.783-15.114,2.889-20.531c0.083-4.217,1.233-8.175,3.327-11.446
		c3.13-4.894,7.146-7.126,10.662-8.664c6.051-2.648,12.991-2.648,19.042,0c2.992,1.31,7.434,3.743,11.453,9.731
		c2.206,3.287,3.467,7.271,3.646,11.522c0.259,6.146,1.013,14.473,3.136,19.232C56.703,44.764,56.709,45.084,56.59,45.374z"/>
</g>
<g>
</g>
<g>
</g>
<g>
</g>
<g>
</g>
<g>
</g>
<g>
</g>
<g>
</g>
<g>
</g>
<g>
</g>
<g>
</g>
<g>
</g>
<g>
</g>
<g>
</g>
<g>
</g>
<g>
</g>
</svg>
