<?xml version="1.0" encoding="iso-8859-1"?>
<!-- Generator: Adobe Illustrator 18.0.0, SVG Export Plug-In . SVG Version: 6.00 Build 0)  -->
<!DOCTYPE svg PUBLIC "-//W3C//DTD SVG 1.1//EN" "http://www.w3.org/Graphics/SVG/1.1/DTD/svg11.dtd">
<svg version="1.1" id="Capa_1" xmlns="http://www.w3.org/2000/svg" xmlns:xlink="http://www.w3.org/1999/xlink" x="0px" y="0px"
	 viewBox="0 0 480 480" style="enable-background:new 0 0 480 480;" xml:space="preserve">
<g>
	<path d="M279.63,92.809V74.377h47.341V0H153.029v74.377h47.341v18.431c-88.928,18.37-155.984,97.289-155.984,191.577
		C44.386,392.248,132.138,480,240,480s195.614-87.752,195.614-195.614C435.614,190.097,368.558,111.179,279.63,92.809z M173.029,20
		h133.941v34.377H173.029V20z M220.37,74.377h39.26v15.375c-6.457-0.646-13.005-0.981-19.63-0.981s-13.173,0.335-19.63,0.981V74.377
		z M240,460c-96.834,0-175.614-78.78-175.614-175.614S143.166,108.771,240,108.771s175.614,78.78,175.614,175.614
		S336.834,460,240,460z"/>
	<path d="M240,131.606c-84.243,0-152.78,68.537-152.78,152.779c0,84.243,68.537,152.78,152.78,152.78s152.779-68.537,152.779-152.78
		C392.779,200.143,324.243,131.606,240,131.606z M250,416.791v-40.315h-20v40.315c-65.26-4.882-117.523-57.145-122.405-122.405
		h40.315v-20h-40.315c4.883-65.26,57.145-117.522,122.405-122.404v40.314h20v-40.314c65.26,4.882,117.522,57.144,122.404,122.404
		H332.09v20h40.314C367.522,359.646,315.26,411.908,250,416.791z"/>
	<path d="M183.055,341.332l89.822-24.067l24.068-89.824l-89.822,24.068L183.055,341.332z M220.464,278.993l24.929,24.93
		l-34.054,9.124L220.464,278.993z M259.535,289.781l-24.929-24.93l34.054-9.125L259.535,289.781z"/>
</g>
<g>
</g>
<g>
</g>
<g>
</g>
<g>
</g>
<g>
</g>
<g>
</g>
<g>
</g>
<g>
</g>
<g>
</g>
<g>
</g>
<g>
</g>
<g>
</g>
<g>
</g>
<g>
</g>
<g>
</g>
</svg>
