<?xml version="1.0" encoding="iso-8859-1"?>
<!-- Generator: Adobe Illustrator 18.0.0, SVG Export Plug-In . SVG Version: 6.00 Build 0)  -->
<!DOCTYPE svg PUBLIC "-//W3C//DTD SVG 1.1//EN" "http://www.w3.org/Graphics/SVG/1.1/DTD/svg11.dtd">
<svg version="1.1" id="Capa_1" xmlns="http://www.w3.org/2000/svg" xmlns:xlink="http://www.w3.org/1999/xlink" x="0px" y="0px"
	 viewBox="0 0 49 49" style="enable-background:new 0 0 49 49;" xml:space="preserve">
<g>
	<path d="M45.888,19.976c-0.055-0.273-0.133-0.534-0.197-0.802c-0.065-0.271-0.124-0.544-0.199-0.81
		c-0.115-0.412-0.25-0.814-0.387-1.214c-0.066-0.192-0.125-0.388-0.196-0.577c-0.176-0.471-0.373-0.928-0.579-1.38
		c-0.052-0.115-0.098-0.233-0.152-0.347c-0.227-0.478-0.476-0.94-0.735-1.396c-0.053-0.093-0.1-0.189-0.154-0.281
		c-0.228-0.386-0.475-0.757-0.725-1.126c-0.114-0.169-0.22-0.343-0.339-0.509c-0.133-0.184-0.277-0.358-0.415-0.537
		C37.766,5.69,31.407,2.337,24.342,2.337c-8.298,0-15.624,4.78-19.256,11.973c-0.062,0.121-0.128,0.238-0.188,0.361
		c-0.165,0.342-0.311,0.694-0.459,1.046c-0.107,0.254-0.219,0.505-0.317,0.765c-0.11,0.293-0.204,0.594-0.303,0.893
		c-0.105,0.317-0.212,0.633-0.303,0.957c-0.082,0.294-0.149,0.595-0.22,0.895c-0.059,0.251-0.133,0.495-0.184,0.749
		C1.306,20.955,0,23.084,0,25.163c0,2.153,1.269,4.089,3.208,4.979C5.704,39.896,14.386,46.663,24.5,46.663
		c10.115,0,18.797-6.767,21.292-16.521c1.94-0.89,3.208-2.825,3.208-4.979C49,23.084,47.694,20.955,45.888,19.976z M5.286,19.48
		c0.067-0.27,0.139-0.537,0.217-0.802c0.089-0.306,0.184-0.608,0.287-0.906c0.078-0.229,0.161-0.456,0.247-0.68
		c0.135-0.35,0.277-0.695,0.43-1.034c0.064-0.143,0.129-0.285,0.197-0.426C9.868,8.98,16.603,4.663,24.5,4.663
		c6.128,0,11.561,2.598,15.185,6.87c0.001,0.002,0.003,0.003,0.004,0.005c0.316,0.373,0.612,0.763,0.899,1.161
		c0.124,0.174,0.243,0.351,0.362,0.529c0.17,0.252,0.336,0.508,0.494,0.769c0.162,0.269,0.315,0.543,0.465,0.82
		c0.11,0.204,0.22,0.408,0.324,0.617c0.152,0.307,0.294,0.621,0.431,0.937c0.091,0.21,0.18,0.42,0.264,0.635
		c0.121,0.308,0.231,0.621,0.336,0.936c0.082,0.246,0.163,0.494,0.236,0.745c0.085,0.292,0.162,0.588,0.234,0.885
		c0.037,0.154,0.069,0.31,0.103,0.465c-4.085,1.322-7.131-1.614-9.008-4.408c-0.34-0.506-0.879-0.849-1.479-0.94
		c-0.614-0.091-1.245,0.078-1.733,0.468c-9.307,7.435-22.769,5.458-26.424,4.742C5.224,19.759,5.252,19.618,5.286,19.48z
		 M44.62,28.458c-0.327,0.111-0.574,0.384-0.652,0.721C41.86,38.295,33.855,44.663,24.5,44.663c-9.354,0-17.359-6.367-19.468-15.483
		c-0.078-0.337-0.325-0.609-0.652-0.721C2.956,27.974,2,26.649,2,25.163c0-1.354,0.932-2.83,2.119-3.444
		c1.15,0.264,4.777,1.002,9.407,1.002c5.855,0,13.306-1.183,19.34-6.003c0.074-0.06,0.148-0.058,0.181-0.054
		c0.078,0.013,0.112,0.063,0.123,0.079c3.301,4.917,7.469,6.675,11.78,5.011c1.154,0.635,2.05,2.08,2.05,3.408
		C47,26.649,46.044,27.974,44.62,28.458z"/>
	<path d="M22.926,25.674c-0.553,0-1,0.447-1,1c0,1.725-0.496,4.617-3.815,4.617c-1.987,0-4.11-0.855-4.11-3.258
		c0-1.675,1.362-3.038,3.037-3.038c1.208,0,2.19,0.982,2.19,2.189c0,0.839-0.682,1.521-1.521,1.521c-0.546,0-0.99-0.444-0.99-0.991
		c0-0.315,0.257-0.572,0.572-0.572c0.553,0,1-0.447,1-1s-0.447-1-1-1c-1.418,0-2.572,1.154-2.572,2.572
		c0,1.649,1.342,2.991,2.99,2.991c1.941,0,3.521-1.579,3.521-3.521c0-2.311-1.88-4.189-4.19-4.189c-2.777,0-5.037,2.26-5.037,5.038
		c0,3.145,2.455,5.258,6.11,5.258c3.587,0,5.815-2.535,5.815-6.617C23.926,26.122,23.479,25.674,22.926,25.674z"/>
	<path d="M32.259,21.663c-3.587,0-5.815,2.535-5.815,6.617c0,0.553,0.447,1,1,1s1-0.447,1-1c0-1.725,0.496-4.617,3.815-4.617
		c1.987,0,4.11,0.856,4.11,3.259c0,1.675-1.362,3.037-3.037,3.037c-1.208,0-2.19-0.982-2.19-2.189c0-0.838,0.682-1.52,1.521-1.52
		c0.546,0,0.99,0.444,0.99,0.99c0,0.315-0.257,0.572-0.572,0.572c-0.553,0-1,0.447-1,1s0.447,1,1,1c1.418,0,2.572-1.154,2.572-2.572
		c0-1.648-1.342-2.99-2.99-2.99c-1.941,0-3.521,1.579-3.521,3.52c0,2.311,1.88,4.189,4.19,4.189c2.777,0,5.037-2.26,5.037-5.037
		C38.369,23.776,35.914,21.663,32.259,21.663z"/>
	<path d="M32.41,36.507c-0.091-0.198-0.154-0.362-0.208-0.499c-0.274-0.701-0.553-1.213-1.646-1.418
		c-1.422-0.267-4.475-0.314-5.844,1.436c-0.561,0.717-1.03,2.002-0.088,4.056c0.943,2.054,2.225,2.535,3.134,2.578
		c0.048,0.002,0.096,0.003,0.143,0.003c2.16,0,4.048-2.271,4.756-3.497c0.557-0.964,0.35-1.509-0.003-2.174
		C32.585,36.862,32.502,36.707,32.41,36.507z M30.924,38.166c-0.606,1.051-2.057,2.579-3.073,2.496
		c-0.515-0.024-0.989-0.5-1.408-1.414c-0.42-0.914-0.472-1.584-0.154-1.99c0.45-0.576,1.638-0.802,2.714-0.802
		c0.431,0,0.843,0.036,1.184,0.1c0.037,0.008,0.067,0.014,0.092,0.02c0.02,0.047,0.038,0.102,0.063,0.162
		c0.064,0.166,0.143,0.365,0.253,0.605s0.211,0.43,0.294,0.587c0.031,0.059,0.06,0.108,0.083,0.154
		C30.958,38.105,30.943,38.132,30.924,38.166z"/>
</g>
<g>
</g>
<g>
</g>
<g>
</g>
<g>
</g>
<g>
</g>
<g>
</g>
<g>
</g>
<g>
</g>
<g>
</g>
<g>
</g>
<g>
</g>
<g>
</g>
<g>
</g>
<g>
</g>
<g>
</g>
</svg>
