<?xml version="1.0" encoding="iso-8859-1"?>
<!-- Generator: Adobe Illustrator 17.1.0, SVG Export Plug-In . SVG Version: 6.00 Build 0)  -->
<!DOCTYPE svg PUBLIC "-//W3C//DTD SVG 1.1//EN" "http://www.w3.org/Graphics/SVG/1.1/DTD/svg11.dtd">
<svg version="1.1" id="Capa_1" xmlns="http://www.w3.org/2000/svg" xmlns:xlink="http://www.w3.org/1999/xlink" x="0px" y="0px"
	 viewBox="0 0 437.253 437.253" style="enable-background:new 0 0 437.253 437.253;" xml:space="preserve">
<g>
	<path d="M218.469,253.128c-17.622,0-31.958,14.336-31.958,31.958s14.336,31.958,31.958,31.958s31.958-14.336,31.958-31.958
		S236.09,253.128,218.469,253.128z M218.469,301.044c-8.799,0-15.958-7.159-15.958-15.958c0-8.799,7.159-15.958,15.958-15.958
		c8.799,0,15.958,7.159,15.958,15.958C234.426,293.885,227.268,301.044,218.469,301.044z"/>
	<path d="M356.51,233.642L242.21,140.676c0-0.03-0.002-0.059-0.002-0.089l114.288-92.546c1.762-1.427,2.835-3.534,2.955-5.798
		c0.119-2.264-0.729-4.473-2.333-6.076L323.295,2.344c-1.601-1.602-3.805-2.456-6.067-2.333c-2.261,0.116-4.367,1.185-5.796,2.941
		l-92.806,114.102L125.821,2.953c-1.429-1.757-3.535-2.826-5.796-2.941c-2.257-0.123-4.465,0.731-6.067,2.333L80.135,36.167
		c-1.604,1.603-2.451,3.812-2.333,6.076c0.119,2.264,1.193,4.372,2.955,5.798l113.979,92.295c-0.006,0.2-0.015,0.4-0.015,0.601
		L80.744,233.642c-1.757,1.429-2.826,3.535-2.941,5.796c-0.116,2.261,0.731,4.466,2.333,6.067l33.823,33.823
		c1.504,1.504,3.541,2.343,5.656,2.343c0.139,0,0.279-0.003,0.419-0.011c2.264-0.119,4.372-1.193,5.798-2.955l32.668-40.343
		l-19.154,182.89h-8.627c-4.418,0-8,3.582-8,8s3.582,8,8,8h15.833c0.003,0,0.006,0,0.009,0c0.003,0,0.007,0,0.01,0h143.793
		c0.003,0,0.007,0,0.01,0c0.003,0,0.006,0,0.009,0h15.834c4.418,0,8-3.582,8-8s-3.582-8-8-8h-8.629l-19.236-183.382l33.067,40.835
		c1.427,1.762,3.534,2.836,5.798,2.955c0.14,0.007,0.28,0.011,0.419,0.011c2.116,0,4.152-0.839,5.656-2.343l33.823-33.823
		c1.601-1.601,2.449-3.806,2.333-6.067C359.335,237.177,358.267,235.07,356.51,233.642z M226.219,141.003
		c0,4.273-3.477,7.75-7.75,7.75s-7.75-3.477-7.75-7.75s3.477-7.75,7.75-7.75S226.219,136.729,226.219,141.003z M318.251,19.927
		l21.271,21.271l-103.508,83.816c-0.567-0.622-1.169-1.21-1.799-1.769L318.251,19.927z M97.731,41.198l21.271-21.271l83.904,103.158
		c-0.646,0.562-1.264,1.157-1.846,1.785L97.731,41.198z M118.989,261.732L97.717,240.46l102.963-83.746
		c0.578,0.654,1.188,1.28,1.835,1.867L118.989,261.732z M234.176,421.253h-31.416V372.9c0-8.662,7.046-15.708,15.708-15.708
		c8.661,0,15.708,7.046,15.708,15.708V421.253z M281.502,421.253h-31.326V372.9c0-17.484-14.224-31.708-31.708-31.708
		c-17.484,0-31.708,14.224-31.708,31.708v48.353h-31.327l21.544-205.708l41.136-50.801c0.119,0.002,0.236,0.009,0.355,0.009
		c0.223,0,0.443-0.011,0.664-0.017l40.74,50.311L281.502,421.253z M318.265,261.732L234.6,158.413
		c0.629-0.583,1.224-1.201,1.787-1.848l103.149,83.896L318.265,261.732z"/>
</g>
<g>
</g>
<g>
</g>
<g>
</g>
<g>
</g>
<g>
</g>
<g>
</g>
<g>
</g>
<g>
</g>
<g>
</g>
<g>
</g>
<g>
</g>
<g>
</g>
<g>
</g>
<g>
</g>
<g>
</g>
</svg>
