<?xml version="1.0" encoding="iso-8859-1"?>
<!-- Generator: Adobe Illustrator 18.0.0, SVG Export Plug-In . SVG Version: 6.00 Build 0)  -->
<!DOCTYPE svg PUBLIC "-//W3C//DTD SVG 1.1//EN" "http://www.w3.org/Graphics/SVG/1.1/DTD/svg11.dtd">
<svg version="1.1" id="Capa_1" xmlns="http://www.w3.org/2000/svg" xmlns:xlink="http://www.w3.org/1999/xlink" x="0px" y="0px"
	 viewBox="0 0 295.996 295.996" style="enable-background:new 0 0 295.996 295.996;" xml:space="preserve">
<g>
	<path d="M147.998,0C66.392,0,0,66.392,0,147.998s66.392,147.998,147.998,147.998s147.998-66.392,147.998-147.998
		S229.605,0,147.998,0z M147.998,279.996c-36.256,0-69.143-14.696-93.022-38.44c-9.536-9.482-17.631-20.41-23.934-32.42
		C21.442,190.847,16,170.047,16,147.998C16,75.214,75.214,16,147.998,16c34.523,0,65.987,13.328,89.533,35.102
		c12.208,11.288,22.289,24.844,29.558,39.996c8.27,17.239,12.907,36.538,12.907,56.9
		C279.996,220.782,220.782,279.996,147.998,279.996z"/>
	<circle cx="98.497" cy="115.998" r="16"/>
	<circle cx="197.497" cy="115.998" r="16"/>
	<path d="M147.997,203.402c25.04,0,49.001-8.674,68.222-24.218c5.476,9.771,16.445,16.409,27.445,16.409v-16
		c-8,0-15.598-6.997-15.598-15.598c0-8.6,7.598-15.596,15.598-15.596v-16c-16,0-29.864,12.71-31.301,28.85
		c-17.235,16.694-40.302,26.152-64.449,26.152c-24.388,0-47.278-9.26-64.657-26.148C81.822,145.112,67.664,132.4,51.664,132.4v16
		c9,0,15.598,6.996,15.598,15.596c0,8.601-6.598,15.598-15.598,15.598v16c12,0,22.28-6.624,27.761-16.38
		C98.696,194.899,122.686,203.402,147.997,203.402z"/>
</g>
<g>
</g>
<g>
</g>
<g>
</g>
<g>
</g>
<g>
</g>
<g>
</g>
<g>
</g>
<g>
</g>
<g>
</g>
<g>
</g>
<g>
</g>
<g>
</g>
<g>
</g>
<g>
</g>
<g>
</g>
</svg>
