<?xml version="1.0" encoding="iso-8859-1"?>
<!-- Generator: Adobe Illustrator 18.0.0, SVG Export Plug-In . SVG Version: 6.00 Build 0)  -->
<!DOCTYPE svg PUBLIC "-//W3C//DTD SVG 1.1//EN" "http://www.w3.org/Graphics/SVG/1.1/DTD/svg11.dtd">
<svg version="1.1" id="Capa_1" xmlns="http://www.w3.org/2000/svg" xmlns:xlink="http://www.w3.org/1999/xlink" x="0px" y="0px"
	 viewBox="0 0 480.002 480.002" style="enable-background:new 0 0 480.002 480.002;" xml:space="preserve">
<path d="M469.877,170.658c0.066-0.297,0.138-0.584,0.199-0.89l-0.497-0.099c-11.323-37.129-31.648-71.148-59.873-99.374
	C364.376,24.965,304.106,0,240,0S115.624,24.965,70.294,70.296c-45.33,45.33-70.293,105.6-70.293,169.706
	s24.964,124.376,70.293,169.706S175.893,480.002,240,480.002c64.107,0,124.376-24.964,169.707-70.294
	c45.331-45.33,70.295-105.6,70.295-169.706C480.001,216.166,476.543,192.862,469.877,170.658z M345.198,46.682
	c16.934,9.246,32.733,20.785,47,34.471c-1.331,3.705-3.593,7.78-7.105,7.78c-0.055,0-0.11-0.001-0.166-0.003
	c-3.015-0.109-6.51-1.256-10.21-2.469c-5.606-1.838-11.961-3.924-19.181-3.341c-7.066,0.567-13.123,3.55-18.466,6.181
	c-5.009,2.466-9.334,4.599-12.433,3.824c-2.947-0.734-6.03-4.443-9.193-8.507c-1.406-1.806-2.276-3.101-2.596-3.861
	c0.377-0.629,1.144-1.622,1.552-2.15c3.982-5.154,10.708-11.751,17.213-18.131C336.306,55.872,341.09,51.169,345.198,46.682z
	 M274.868,22.747c-1.166,7.447-4.387,17.263-7.303,20.87c-3.223,3.985-8.92,5.825-12.7,4.104c-3.813-1.738-6.832-7.169-8.074-14.528
	c-0.814-4.824-2.419-9.183-4.113-13.159C253.557,20.162,264.308,21.075,274.868,22.747z M84.437,84.438
	c26.093-26.093,57.588-44.82,91.961-55.146c4.151,13.648,9.206,26.434,14.136,38.517c3.774,9.253,8.053,19.739,7.087,29.229
	c-0.37,3.634-1.293,8.281-3.594,9.786c-2.001,1.31-6.018,1.645-10.269,2c-7.008,0.585-15.729,1.313-23.673,6.891
	c-1.697,1.191-3.273,2.423-4.796,3.612c-3.273,2.557-6.365,4.971-9.248,5.779c-2.85,0.8-6.522,0.381-10.776-0.104
	c-2.443-0.278-4.97-0.565-7.644-0.653c-8.488-0.312-27.836,3.766-36.26,14.768c-4.163,5.437-5.362,12.009-3.376,18.506
	c1.471,4.815,4.623,8.174,7.514,10.826c13.503,12.38,32.035,21.148,50.842,24.058c2.69,0.416,5.294,0.734,7.813,1.043
	c13.791,1.688,20.652,2.915,25.868,12.314c1.299,2.341,2.345,5.112,3.453,8.046c1.275,3.379,2.594,6.873,4.515,10.395
	c5.704,10.463,15.32,16.592,25.086,16.048c7.29-0.42,12.674-4.225,17-7.281c1.996-1.41,3.881-2.742,5.494-3.414
	c4.335-1.81,10.953-0.203,17.695,4.291c4.624,3.083,10.606,8.183,12.845,14.97c1.685,5.106,0.519,11.017-2.75,13.78L233.97,287.8
	c-9.464,8.084-19.59,17.9-19.931,32.135c-0.108,4.502,0.821,8.825,1.64,12.64c0.574,2.669,1.533,7.137,1.018,8.304
	c-0.539,0.479-3.059,1.097-4.564,1.466c-2.652,0.649-5.657,1.385-8.711,2.928c-14.806,7.476-16.189,25.188-17.105,36.91
	c-0.664,8.503-3.818,15.659-7.033,15.953c-2.615,0.251-6.308-4.27-7.591-9.281c-0.796-3.109-1.17-6.575-1.566-10.245
	c-0.57-5.287-1.217-11.28-3.34-17.165c-2.736-7.583-7.499-13.834-11.701-19.349c-4.127-5.418-8.026-10.535-9.285-15.858
	c-0.943-3.987-0.563-8.778-0.159-13.852c0.514-6.46,1.096-13.782-0.953-21.235c-2.912-10.594-10.128-18.164-16.495-24.845
	c-4.181-4.386-8.13-8.529-10.476-13.005c-2.828-5.396-2.477-11.052-2.07-17.601c0.385-6.207,0.822-13.243-1.649-20.482
	c-2.468-7.229-8.302-11.405-12.623-14.499c-12.668-9.069-24.534-19.397-35.267-30.698c-5.738-6.041-11.347-12.639-13.52-19.942
	c-0.568-1.909-0.961-3.351-1.27-4.479c-1.373-5.028-2.182-6.824-5.067-10.017C56.295,117.009,69.088,99.787,84.437,84.438z
	 M240,460.002c-58.764,0-114.011-22.884-155.563-64.437c-41.552-41.552-64.436-96.799-64.436-155.563
	c0-27.796,5.127-54.803,14.921-79.949c3.779,9.331,10.196,16.907,16.686,23.74c11.604,12.217,24.432,23.383,38.187,33.229
	c1.943,1.392,4.881,3.495,5.277,4.656c1.191,3.49,0.924,7.797,0.615,12.782c-0.492,7.922-1.103,17.779,4.317,28.122
	c3.648,6.961,8.765,12.329,13.713,17.521c5.425,5.691,10.11,10.607,11.687,16.347c1.118,4.067,0.721,9.063,0.301,14.35
	c-0.484,6.092-1.033,12.996,0.633,20.04c2.237,9.46,7.87,16.853,12.839,23.375c3.653,4.795,7.103,9.323,8.796,14.016
	c1.309,3.628,1.775,7.949,2.268,12.523c0.454,4.209,0.924,8.561,2.076,13.06c3.176,12.408,13.243,24.335,26.682,24.334
	c0.691,0,1.393-0.031,2.102-0.096c13.963-1.274,23.601-14.423,25.154-34.313c0.6-7.686,1.422-18.212,6.18-20.613
	c1.016-0.514,2.686-0.923,4.454-1.355c4.083-1,9.673-2.369,14.111-6.914c8.131-8.327,5.878-18.82,4.232-26.48
	c-0.643-2.996-1.251-5.825-1.2-7.961c0.144-5.997,6.748-12.13,12.926-17.407l29.353-25.072c9.555-8.08,13.088-22.26,8.791-35.285
	c-3.186-9.657-10.359-18.421-20.746-25.346c-12.686-8.454-25.641-10.624-36.479-6.112c-3.657,1.523-6.679,3.659-9.346,5.543
	c-2.475,1.749-5.034,3.558-6.609,3.648c-1.571,0.101-4.382-1.999-6.375-5.654c-1.258-2.308-2.28-5.017-3.363-7.885
	c-1.312-3.476-2.669-7.07-4.676-10.688c-10.392-18.726-26.614-20.71-40.926-22.462c-2.364-0.289-4.808-0.588-7.185-0.956
	c-15.001-2.319-29.72-9.257-40.382-19.032c-1.345-1.233-1.79-1.795-1.935-2.037c-0.014-0.056-0.023-0.099-0.028-0.13
	c1.321-3.073,13.3-7.396,19.91-7.204c1.869,0.062,3.894,0.293,6.038,0.537c5.538,0.631,11.814,1.347,18.437-0.51
	c6.686-1.874,11.72-5.806,16.162-9.274c1.387-1.084,2.698-2.107,3.979-3.007c3.512-2.466,8.3-2.865,13.844-3.328
	c10.967-0.915,29.323-2.447,32.097-29.691c1.471-14.451-4.039-27.957-8.466-38.809c-4.624-11.335-9.365-23.287-13.236-35.832
	c8.323-1.688,16.779-2.892,25.336-3.614c0.479,1.097,0.961,2.181,1.441,3.246c1.952,4.334,3.796,8.427,4.479,12.467
	c2.418,14.329,9.344,24.771,19.5,29.399c3.636,1.657,7.559,2.451,11.516,2.451c9.261,0,18.703-4.353,25.031-12.181
	c5.092-6.301,9.533-18.546,11.323-29.432c10.915,2.766,21.565,6.373,31.882,10.773c-2.766,2.83-5.762,5.77-8.715,8.665
	c-6.988,6.854-14.213,13.94-19.035,20.183c-1.909,2.471-4.793,6.204-5.609,11.369c-1.385,8.771,4.074,15.784,6.697,19.154
	c4.079,5.241,10.244,13.161,20.136,15.629c2.136,0.532,4.211,0.764,6.222,0.763c7.597,0,14.283-3.292,19.885-6.051
	c4.1-2.019,7.973-3.926,11.231-4.188c3.211-0.262,6.983,0.979,11.35,2.41c4.63,1.518,9.878,3.238,15.716,3.45
	c9.346,0.345,17.2-4.112,22.596-12.387c18.809,21.799,32.941,46.721,41.897,73.527c-1.472,1.064-4.468,1.204-11.5,1.292
	c-3.055,0.038-6.517,0.081-10.208,0.365c-10.281,0.789-18.232-2.155-27.437-5.566c-6.18-2.29-12.57-4.658-20.21-6.176
	c-19.248-3.831-39.138,6.926-50.672,27.396c-2.097,3.722-20.105,36.889-6.781,55.241c4.978,6.855,12.025,11.081,17.688,14.477
	c8.032,4.814,16.338,9.792,25.537,13.503c1.969,0.795,3.958,1.529,5.881,2.239c6.998,2.583,13.607,5.023,16.847,9.457
	c2.711,3.711,3.609,9.584,2.747,17.955c-0.655,6.353-3.022,12.81-5.529,19.645c-5.621,15.33-12.617,34.409,3.783,53.149
	c4.677,5.344,10.292,9.414,16.503,12.088c-3.139,3.566-6.391,7.055-9.78,10.444C354.011,437.118,298.764,460.002,240,460.002z
	 M418.692,368.396c-5.705-1.022-10.759-3.917-14.8-8.534c-8.208-9.379-5.664-17.797-0.056-33.092
	c2.82-7.688,5.735-15.64,6.646-24.479c1.393-13.516-0.73-23.919-6.492-31.805c-6.8-9.308-17.038-13.087-26.07-16.421
	c-1.868-0.689-3.632-1.341-5.325-2.023c-7.745-3.125-15.027-7.489-22.736-12.109c-4.527-2.715-9.209-5.521-11.788-9.073
	c-3.17-4.366,0.728-20.731,8.021-33.673c5.479-9.721,16.454-20.158,29.35-17.598c6.08,1.208,11.461,3.202,17.159,5.313
	c10.455,3.874,21.27,7.889,35.921,6.754c3.05-0.234,6.037-0.272,8.925-0.309c5.195-0.065,11.221-0.144,16.727-1.937
	c3.839,16.391,5.827,33.337,5.827,50.592C460.001,286.733,445.515,331.231,418.692,368.396z"/>
<g>
</g>
<g>
</g>
<g>
</g>
<g>
</g>
<g>
</g>
<g>
</g>
<g>
</g>
<g>
</g>
<g>
</g>
<g>
</g>
<g>
</g>
<g>
</g>
<g>
</g>
<g>
</g>
<g>
</g>
</svg>
