<?xml version="1.0" encoding="iso-8859-1"?>
<!-- Generator: Adobe Illustrator 19.0.0, SVG Export Plug-In . SVG Version: 6.00 Build 0)  -->
<svg version="1.1" id="Layer_1" xmlns="http://www.w3.org/2000/svg" xmlns:xlink="http://www.w3.org/1999/xlink" x="0px" y="0px"
	 viewBox="0 0 302.645 302.645" style="enable-background:new 0 0 302.645 302.645;" xml:space="preserve">
<g id="XMLID_510_">
	<g>
		<path d="M250,82.433c-40-40-80-50-120-50c-70,0-130,53.726-130,120c0,53.143,34.548,98.209,82.406,113.985
			c30.389,6.946,59.05,4.255,80.135-7.807c18.296-10.466,30.212-27.21,35.417-49.767c4.743-20.553,1.198-41.724-9.981-59.611
			c-11.18-17.888-28.655-30.351-49.209-35.094c-30.727-7.092-61.501,12.141-68.592,42.87c-2.448,10.606-0.619,21.529,5.15,30.76
			c5.769,9.23,14.787,15.661,25.393,18.108c7.375,1.699,14.967,0.431,21.385-3.58c6.416-4.011,10.887-10.279,12.588-17.652
			c1.139-4.933,0.288-10.012-2.395-14.304c-2.682-4.292-6.875-7.282-11.807-8.42c-3.085-0.714-6.267-0.181-8.955,1.5
			c-2.687,1.679-4.56,4.305-5.271,7.392l-19.488-4.496c1.914-8.293,6.942-15.345,14.16-19.855
			c7.216-4.512,15.758-5.941,24.052-4.028c10.137,2.34,18.756,8.486,24.27,17.309c5.515,8.822,7.263,19.264,4.923,29.4
			c-2.902,12.577-10.529,23.273-21.476,30.115c-10.947,6.84-23.905,9.008-36.481,6.108c-15.812-3.648-29.256-13.236-37.857-26.996
			c-8.601-13.761-11.327-30.047-7.679-45.858c9.571-41.475,51.104-67.424,92.577-57.86c25.759,5.944,47.661,21.564,61.672,43.982
			c14.012,22.418,18.454,48.95,12.51,74.709c-4.466,19.352-13.364,35.713-26.108,48.316c25.345,8.771,69.168,17.104,108.662-9.226
			C300,252.433,320,152.433,250,82.433z"/>
	</g>
</g>
<g>
</g>
<g>
</g>
<g>
</g>
<g>
</g>
<g>
</g>
<g>
</g>
<g>
</g>
<g>
</g>
<g>
</g>
<g>
</g>
<g>
</g>
<g>
</g>
<g>
</g>
<g>
</g>
<g>
</g>
</svg>
