<?xml version='1.0' encoding='iso-8859-1'?>
<svg version="1.1" xmlns="http://www.w3.org/2000/svg" viewBox="0 0 313.504 313.504" xmlns:xlink="http://www.w3.org/1999/xlink" enable-background="new 0 0 313.504 313.504">
  <g>
    <g>
      <circle cx="139.01" cy="55.717" r="27.59"/>
      <path d="m309.522,208.738c-8.116-13.871-26.002-18.555-39.873-10.439-4.767,2.789-6.37,8.914-3.582,13.682 2.788,4.767 8.914,6.369 13.682,3.582 4.352-2.548 9.964-1.076 12.51,3.275 2.547,4.352 1.077,9.964-3.275,12.51l-39.35,23.021-37.67-71.059c-2.39-4.508-6.836-7.387-11.713-7.891-2.06,0.432-19.229,4.036-22.232,4.667-7.074,1.485-14.051-1.838-17.549-7.723l-24.898-42.036 33.665,33.127c2.362,2.324 5.521,3.59 8.768,3.59 1.812,0-2.032,0.699 51.443-10.527 6.756-1.419 11.083-8.045 9.665-14.802-1.418-6.757-8.044-11.081-14.802-9.665l-42.316,8.884-28.89-28.428 22.497,12.84-.792-11.947c-0.682-10.271-9.56-18.044-19.831-17.363l-33.164,2.2c-10.271,0.681-18.044,9.56-17.363,19.831 0,0 4.012,64.608 5.766,86.906 0.792,10.073 8.279,18.077 18.12,15.945l62.441-13.518 32.431,61.176c0.17,0.321 0.35,0.632 0.54,0.935l-41.29,24.156c-4.767,2.789-6.37,8.914-3.582,13.682 2.785,4.76 8.906,6.374 13.682,3.582l106.524-62.32c13.869-8.115 18.552-26.001 10.438-39.873z"/>
      <path d="m183.148,232.047c-1.191-5.393-6.528-8.794-11.922-7.607l-44.487,9.828c-6.78,1.498-13.875-0.048-19.418-4.229-5.542-4.182-8.976-10.58-9.397-17.511l-10.651-175.407 32.391-17.07c4.886-2.574 6.76-8.623 4.185-13.509-2.574-4.886-8.62-6.758-13.509-4.185-4.429,2.334-100.074,52.737-105,55.333-4.886,2.575-6.76,8.623-4.185,13.509 2.571,4.881 8.615,6.762 13.509,4.185l53.194-28.032 10.003,164.737c0.8,13.182 7.332,25.353 17.874,33.307s24.038,10.894 36.934,8.045l42.871-9.471c5.393-1.193 8.799-6.53 7.608-11.923z"/>
    </g>
  </g>
</svg>
