<?xml version='1.0' encoding='iso-8859-1'?>
<svg version="1.1" xmlns="http://www.w3.org/2000/svg" viewBox="0 0 310.79 310.79" xmlns:xlink="http://www.w3.org/1999/xlink" enable-background="new 0 0 310.79 310.79">
  <g>
    <g>
      <path d="m183.412,223.48l12.134,16.106 6.149-53.84c0.548-4.8-1.4-9.547-5.161-12.577-1.88-1.515-4.083-2.495-6.386-2.903-4.325,14.59-9.597,29.878-16.013,45.612 3.641,1.751 6.849,4.379 9.277,7.602z"/>
      <path d="m133.909,104.509l21.709-19.33 2.611-22.76c-2.451-1.624-5.235-2.834-8.281-3.495-13.142-2.852-26.108,5.489-28.96,18.631-2.412,11.116 3.185,22.104 12.921,26.954z"/>
      <path d="m218.215,94.137c-4.104-1.943-8.76-1.294-12.141,1.275-2.236,17.139-5.83,37.156-11.546,59.101 4.909,0.275 9.273-2.484 11.266-6.691l18.012-38.038c2.777-5.865 0.274-12.87-5.591-15.647z"/>
      <path d="m179.581,28.899c1.963-0.26 3.645-0.306 5.68-0.073 5.108,0.586 9.721,2.851 13.272,6.241-0.184-16.544-1.44-26.241-1.53-26.919-0.633-4.72-4.66-8.148-9.3-8.148-5.714,0-10.074,5.023-9.333,10.636 0.017,0.133 0.855,6.709 1.211,18.263z"/>
      <path d="m143.369,257.427l-17.197-8.216c-8.281,26.063 2.638,54.314 3.16,55.633 1.905,4.818 7.356,7.196 12.196,5.285 4.847-1.917 7.187-7.383 5.285-12.197-2.464-6.236-7.34-24.916-3.444-40.505z"/>
      <path d="m191.364,116.563c-1.663,1.282-3.907,2.663-6.032,3.187l-14.41,3.553c-5.593,27.323-13.569,53.776-23.978,79.583l16.994,8.119c12.362-30.434 21.556-62.044 27.426-94.442z"/>
      <path d="m174.403,230.267c-1.362-1.809-3.14-3.261-5.182-4.238l-63.206-30.198 30.78,2.327c1.624-4.903 13.254-31.744 21.97-71.858l-20.072,4.948 43.94-22.448c3.51-1.794 5.88-5.221 6.327-9.124l5.348-46.633c0.74-6.448-3.897-12.273-10.333-13.011-0.003,0-0.006,0-0.009,0-6.423-0.733-12.274,3.907-13.001,10.334l-4.631,40.375-39.791,20.329-.094,.048-2.833-.615c-8.878-1.927-17.636,3.708-19.563,12.586 0,0-17.055,78.586-18.019,83.028l.032-.016c-1.078,6.084 1.948,12.381 7.794,15.174l60.098,28.712 29.884,39.668c4.694,6.229 13.535,7.455 19.744,2.777 6.219-4.686 7.462-13.524 2.777-19.744l-31.96-42.421z"/>
    </g>
  </g>
</svg>
