<?xml version="1.0" encoding="iso-8859-1"?>
<!-- Generator: Adobe Illustrator 18.0.0, SVG Export Plug-In . SVG Version: 6.00 Build 0)  -->
<!DOCTYPE svg PUBLIC "-//W3C//DTD SVG 1.1//EN" "http://www.w3.org/Graphics/SVG/1.1/DTD/svg11.dtd">
<svg version="1.1" id="Capa_1" xmlns="http://www.w3.org/2000/svg" xmlns:xlink="http://www.w3.org/1999/xlink" x="0px" y="0px"
	 viewBox="0 0 493.047 493.047" style="enable-background:new 0 0 493.047 493.047;" xml:space="preserve">
<path d="M470.094,261.93c-17.275,0-44.814,2.536-67.396,8.203c-26.901,6.75-43.094,16.826-48.345,30.025h-23.975
	c3.341-20.85,4.432-38.954,4.432-53.635c0-67.464-21.803-127.992-40.093-166.89c-19.794-42.094-39.406-68.077-40.231-69.162
	L246.523,0l-7.961,10.472c-0.825,1.085-20.438,27.068-40.231,69.162c-33.137,70.472-40.093,129.652-40.093,166.89
	c0,18.503,1.648,36.479,4.405,53.635h-23.948c-5.25-13.201-21.443-23.276-48.345-30.026c-22.581-5.666-50.121-8.202-67.397-8.202
	h-10v96.462h10c17.276,0,44.815-2.536,67.397-8.203c26.904-6.751,43.097-16.828,48.346-30.03h27.721
	c8.013,37.016,20.628,69.256,31.913,93.255c19.794,42.094,39.406,68.077,40.231,69.162l7.961,10.472l7.961-10.472
	c0.825-1.085,20.438-27.068,40.231-69.162c16.054-34.144,25.951-65.624,31.901-93.255h27.732
	c5.248,13.203,21.442,23.28,48.348,30.031c22.581,5.666,50.121,8.202,67.396,8.202h10V261.93H470.094z M85.482,330.79
	c-18.582,4.663-38.814,6.669-52.529,7.332v-55.923c13.715,0.663,33.947,2.669,52.529,7.331c11.843,2.972,21.224,6.683,27.301,10.628
	H93.705v20h19.083C106.711,324.105,97.328,327.817,85.482,330.79z M178.238,246.523c0-63.574,20.648-120.961,37.971-157.908
	c11.419-24.355,22.939-43.293,30.314-54.526c7.375,11.234,18.896,30.171,30.314,54.526c17.322,36.947,37.971,94.334,37.971,157.908
	c0,18.523-1.762,36.515-4.675,53.635H288.19c-0.736-14.949-4.365-28.953-10.416-39.916c-7.848-14.217-18.946-22.047-31.25-22.047
	s-23.402,7.83-31.25,22.047c-6.052,10.963-9.68,24.967-10.416,39.916h-21.944C180,283.038,178.238,265.047,178.238,246.523z
	 M224.885,300.158c1.454-24.366,12.069-41.963,21.638-41.963s20.185,17.597,21.638,41.963H224.885z M266.492,320.158
	c-3.747,16.97-12.537,38.01-19.968,53.75c-7.431-15.74-16.221-36.78-19.968-53.75H266.492z M276.838,404.431
	c-11.419,24.356-22.939,43.294-30.314,54.527c-7.375-11.234-18.896-30.171-30.314-54.527c-10.267-21.899-21.702-50.98-29.314-84.272
	h19.273c2.32,12.735,7.413,28.36,15.254,46.703c8.046,18.821,15.982,33.465,16.316,34.078l8.785,16.158l8.785-16.158
	c0.334-0.613,8.271-15.257,16.316-34.078c7.841-18.343,12.934-33.968,15.254-46.703h19.273
	C298.54,353.451,287.105,382.531,276.838,404.431z M460.094,338.122c-13.715-0.663-33.947-2.669-52.529-7.331
	c-11.847-2.973-21.231-6.686-27.308-10.633h19.082v-20h-19.071c6.078-3.945,15.458-7.656,27.299-10.627
	c18.582-4.663,38.813-6.669,52.528-7.332V338.122z"/>
<g>
</g>
<g>
</g>
<g>
</g>
<g>
</g>
<g>
</g>
<g>
</g>
<g>
</g>
<g>
</g>
<g>
</g>
<g>
</g>
<g>
</g>
<g>
</g>
<g>
</g>
<g>
</g>
<g>
</g>
</svg>
