<?xml version="1.0" encoding="iso-8859-1"?>
<!-- Generator: Adobe Illustrator 18.0.0, SVG Export Plug-In . SVG Version: 6.00 Build 0)  -->
<!DOCTYPE svg PUBLIC "-//W3C//DTD SVG 1.1//EN" "http://www.w3.org/Graphics/SVG/1.1/DTD/svg11.dtd">
<svg version="1.1" id="Capa_1" xmlns="http://www.w3.org/2000/svg" xmlns:xlink="http://www.w3.org/1999/xlink" x="0px" y="0px"
	 viewBox="0 0 49 49" style="enable-background:new 0 0 49 49;" xml:space="preserve">
<g>
	<circle cx="17" cy="26.663" r="2"/>
	<circle cx="31" cy="26.663" r="2"/>
	<path d="M45.888,19.976c-0.054-0.272-0.132-0.532-0.196-0.799c-0.065-0.273-0.125-0.548-0.2-0.816
		c-0.114-0.408-0.247-0.804-0.382-1.2c-0.068-0.198-0.128-0.398-0.201-0.593c-0.173-0.463-0.368-0.913-0.57-1.359
		c-0.055-0.122-0.104-0.248-0.162-0.368c-0.223-0.469-0.467-0.922-0.721-1.369c-0.058-0.102-0.11-0.208-0.169-0.309
		c-0.222-0.376-0.463-0.737-0.706-1.097c-0.12-0.179-0.233-0.363-0.358-0.538c-0.126-0.174-0.263-0.339-0.394-0.509
		C37.785,5.7,31.417,2.337,24.342,2.337c-8.3,0-15.628,4.782-19.259,11.978c-0.061,0.119-0.126,0.234-0.184,0.354
		c-0.166,0.344-0.313,0.698-0.462,1.052c-0.107,0.252-0.218,0.501-0.315,0.759c-0.111,0.295-0.206,0.597-0.305,0.899
		c-0.104,0.315-0.211,0.629-0.301,0.952c-0.083,0.295-0.149,0.597-0.22,0.898c-0.059,0.25-0.133,0.494-0.184,0.748
		C1.306,20.955,0,23.084,0,25.163c0,2.153,1.268,4.09,3.208,4.979C5.704,39.896,14.385,46.663,24.5,46.663
		c10.116,0,18.797-6.767,21.292-16.521c1.94-0.89,3.208-2.825,3.208-4.979C49,23.084,47.694,20.955,45.888,19.976z M5.286,19.48
		c0.067-0.27,0.139-0.536,0.216-0.801c0.089-0.306,0.184-0.609,0.287-0.907c0.078-0.228,0.161-0.455,0.246-0.679
		c0.135-0.351,0.278-0.697,0.432-1.036c0.064-0.142,0.128-0.283,0.195-0.423C9.868,8.98,16.603,4.663,24.5,4.663
		c6.669,0,12.508,3.081,16.095,8.044c0.118,0.166,0.232,0.335,0.345,0.504c0.176,0.26,0.347,0.525,0.511,0.795
		c0.157,0.261,0.306,0.528,0.452,0.797c0.115,0.211,0.228,0.423,0.335,0.639c0.149,0.301,0.288,0.609,0.422,0.919
		c0.093,0.216,0.185,0.432,0.271,0.652c0.119,0.303,0.227,0.612,0.332,0.923c0.083,0.249,0.165,0.5,0.239,0.755
		c0.085,0.29,0.161,0.584,0.233,0.88c0.037,0.154,0.07,0.31,0.104,0.466c-4.08,1.317-7.13-1.614-9.007-4.408
		c-0.339-0.505-0.878-0.849-1.479-0.94c-0.615-0.094-1.245,0.076-1.733,0.468c-9.308,7.437-22.771,5.459-26.424,4.742
		C5.225,19.759,5.252,19.617,5.286,19.48z M44.62,28.458c-0.328,0.111-0.574,0.384-0.652,0.721
		C41.861,38.295,33.855,44.663,24.5,44.663S7.14,38.295,5.032,29.179c-0.078-0.337-0.324-0.609-0.652-0.721
		C2.957,27.974,2,26.649,2,25.163c0-1.354,0.932-2.83,2.12-3.443c1.151,0.264,4.777,1.002,9.406,1.002
		c5.856,0,13.306-1.183,19.34-6.004c0.073-0.058,0.146-0.058,0.181-0.053c0.078,0.012,0.111,0.063,0.123,0.079
		c3.301,4.916,7.469,6.675,11.779,5.011C46.104,22.389,47,23.834,47,25.163C47,26.649,46.043,27.974,44.62,28.458z"/>
	<path d="M37.02,29.976c-0.662,0-1.288,0.22-1.794,0.604c-0.496-0.387-1.11-0.604-1.77-0.604c-1.53,0-2.797,1.221-2.961,2.846
		c-0.024,0.173-0.048,0.559,0.085,1.105c0.205,0.837,0.672,1.593,1.351,2.186l2.626,2.302c0.188,0.165,0.424,0.248,0.659,0.248
		c0.232,0,0.465-0.081,0.653-0.242l2.677-2.307c0.68-0.595,1.147-1.351,1.352-2.188c0.133-0.547,0.109-0.932,0.084-1.105
		C39.816,31.197,38.549,29.976,37.02,29.976z M37.953,33.452c-0.106,0.435-0.357,0.834-0.72,1.151l-2.013,1.734l-1.974-1.729
		c-0.368-0.321-0.619-0.722-0.725-1.156c-0.049-0.199-0.048-0.321-0.052-0.321c0,0,0,0.001,0,0.002
		c0.006-0.031,0.01-0.063,0.013-0.096c0.048-0.527,0.398-1.061,0.973-1.061c0.531,0,0.767,0.407,0.843,0.582
		c0.159,0.364,0.519,0.6,0.916,0.6h0c0.397,0,0.757-0.235,0.916-0.6c0.155-0.354,0.504-0.582,0.889-0.582
		c0.575,0,0.924,0.533,0.979,1.115C37.999,33.092,38.01,33.219,37.953,33.452z"/>
	<path d="M26.071,30.663c-1.004,0-1.948,0.444-2.589,1.221c-0.352,0.426-0.292,1.056,0.134,1.407
		c0.425,0.352,1.057,0.293,1.408-0.134c0.26-0.313,0.641-0.494,1.047-0.494c0.749,0,1.357,0.609,1.357,1.357
		s-0.609,1.356-1.357,1.356c-0.319,0-0.618-0.107-0.863-0.31c-0.426-0.352-1.055-0.291-1.408,0.134
		c-0.352,0.426-0.292,1.056,0.134,1.407c0.369,0.305,0.801,0.514,1.258,0.638c0.085,0.067,0.169,0.138,0.237,0.225
		c0.223,0.286,0.32,0.642,0.276,1.001c-0.044,0.36-0.227,0.681-0.512,0.903c-0.59,0.462-1.444,0.355-1.905-0.235
		c-0.197-0.253-0.296-0.555-0.287-0.873c0.016-0.552-0.419-1.012-0.971-1.028c-0.549-0.025-1.013,0.419-1.028,0.972
		c-0.022,0.777,0.229,1.544,0.708,2.158c0.661,0.849,1.651,1.292,2.651,1.292c0.721,0,1.448-0.23,2.06-0.707
		c0.708-0.551,1.158-1.345,1.269-2.234c0.071-0.572-0.019-1.134-0.227-1.653c1.157-0.53,1.967-1.693,1.967-3.046
		C29.429,32.168,27.922,30.663,26.071,30.663z"/>
</g>
<g>
</g>
<g>
</g>
<g>
</g>
<g>
</g>
<g>
</g>
<g>
</g>
<g>
</g>
<g>
</g>
<g>
</g>
<g>
</g>
<g>
</g>
<g>
</g>
<g>
</g>
<g>
</g>
<g>
</g>
</svg>
