<?xml version="1.0" encoding="iso-8859-1"?>
<!-- Generator: Adobe Illustrator 16.0.0, SVG Export Plug-In . SVG Version: 6.00 Build 0)  -->
<!DOCTYPE svg PUBLIC "-//W3C//DTD SVG 1.1//EN" "http://www.w3.org/Graphics/SVG/1.1/DTD/svg11.dtd">
<svg version="1.1" id="Capa_1" xmlns="http://www.w3.org/2000/svg" xmlns:xlink="http://www.w3.org/1999/xlink" x="0px" y="0px"
	 width="422.785px" height="422.785px" viewBox="0 0 422.785 422.785" style="enable-background:new 0 0 422.785 422.785;"
	 xml:space="preserve">
<g>
	<g>
		<path d="M390.662,203.569c-5.971-21.251-27.078-37.033-52.192-37.033c-5.61,0-11.017,0.785-16.099,2.246
			c0.381-1.625,0.63-3.296,0.63-5.041c0-12.143-9.847-21.995-21.997-21.995c-9.113,0-16.951,5.546-20.277,13.463
			c-20.077-27.641-54.585-45.957-93.77-45.957c0,0,0,0-0.008,0c-32.637,0-62.726,12.553-83.679,33.867
			c-2.234-9.782-10.952-17.1-21.408-17.1c-12.145,0-21.997,9.848-21.997,21.999c0,8.195,4.54,15.261,11.179,19.043
			c-15.184,7.099-26.173,20.554-28.795,36.508H12.217C5.468,203.569,0,209.04,0,215.784c0,6.749,5.468,12.223,12.217,12.223h398.354
			c6.748,0,12.214-5.474,12.214-12.223c0-6.744-5.466-12.214-12.214-12.214H390.662z M79.742,203.569
			c3.062-4.831,8.95-8.149,15.795-8.149c6.847,0,12.734,3.318,15.79,8.149H79.742z M127.15,203.569
			c-3.581-13.072-16.336-22.816-31.613-22.816c-15.274,0-28.032,9.744-31.612,22.816h-6.743
			c3.829-15.555,19.554-27.259,38.355-27.259c18.803,0,34.518,11.704,38.359,27.259H127.15z M171.159,203.569
			c3.062-4.831,8.959-8.149,15.797-8.149c6.837,0,12.734,3.318,15.788,8.149H171.159z M218.567,203.569
			c-3.579-13.072-16.336-22.816-31.611-22.816c-15.276,0-28.034,9.744-31.612,22.816h-6.518c-0.283-1.699-0.651-3.362-1.114-4.996
			l0.689,0.159c3.588-16.188,19.807-27.934,38.562-27.934c20.953,0,37.984,14.563,39.078,32.771H218.567z M240.801,203.569
			c-1.059-26.315-24.767-47.444-53.844-47.444c-20.301,0-38.333,10.529-47.51,26.252c-1.735-2.222-3.637-4.342-5.749-6.264
			c11.377-16.375,31.534-26.537,53.258-26.537c33.918,0,61.558,24.088,62.508,53.992H240.801z M264.119,203.569
			c-0.917-37.991-35.141-68.653-77.163-68.653c-26.511,0-51.239,12.599-65.323,32.901c-4.853-2.458-10.143-4.248-15.757-5.244
			c17.977-24.084,47.983-38.666,81.08-38.666c51.023,0,92.944,35.115,97.144,79.653h-19.981V203.569z M295.614,185.975
			c-0.093-0.353-0.196-0.713-0.297-1.07c0.32,0.088,0.621,0.222,0.941,0.291C296.035,185.45,295.847,185.714,295.614,185.975z
			 M327.513,203.569c3.046-2.02,6.817-3.266,10.94-3.266c4.14,0,7.907,1.246,10.948,3.266H327.513z M368.301,203.569
			c-5.098-10.538-16.522-17.925-29.831-17.925s-24.738,7.388-29.836,17.925h-6.792c5.634-13.041,19.868-22.368,36.628-22.368
			c16.767,0,31.005,9.333,36.632,22.368H368.301z"/>
		<path d="M352.439,299.15c9.718-31.081,43.881-62.19,43.881-62.19H24.031c0,0,34.157,31.109,43.881,62.19
			c2.418,7.719,9.115,14.383,17.208,14.383h110.793h28.513h110.802C343.314,313.545,350.015,306.876,352.439,299.15z"/>
	</g>
</g>
<g>
</g>
<g>
</g>
<g>
</g>
<g>
</g>
<g>
</g>
<g>
</g>
<g>
</g>
<g>
</g>
<g>
</g>
<g>
</g>
<g>
</g>
<g>
</g>
<g>
</g>
<g>
</g>
<g>
</g>
</svg>
