<?xml version="1.0" encoding="iso-8859-1"?>
<!-- Generator: Adobe Illustrator 18.0.0, SVG Export Plug-In . SVG Version: 6.00 Build 0)  -->
<!DOCTYPE svg PUBLIC "-//W3C//DTD SVG 1.1//EN" "http://www.w3.org/Graphics/SVG/1.1/DTD/svg11.dtd">
<svg version="1.1" id="Capa_1" xmlns="http://www.w3.org/2000/svg" xmlns:xlink="http://www.w3.org/1999/xlink" x="0px" y="0px"
	 viewBox="0 0 296.02 296.02" style="enable-background:new 0 0 296.02 296.02;" xml:space="preserve">
<g>
	<path d="M294.874,166.434c0.753-6.038,1.146-12.186,1.146-18.424c0-81.606-66.392-147.998-147.998-147.998
		C66.415,0.012,0.024,66.404,0.024,148.01c0,5.458,0.307,10.845,0.885,16.151c-2.48,11.588,0.117,24.047,7.796,33.792
		c20.534,57.105,75.23,98.055,139.317,98.055c64.536,0,119.548-41.526,139.742-99.259
		C294.145,187.839,296.514,176.874,294.874,166.434z M148.022,280.008c-36.256,0-69.143-14.696-93.022-38.44
		c-8.564-8.517-15.966-18.198-21.952-28.783c2.506,0.476,5.073,0.726,7.68,0.726c10.889,0,21.124-4.239,28.823-11.938
		c1.92-1.921,3.634-4.331,5.16-7.216c13.611,26.664,41.318,44.936,73.311,44.936c31.69,0,59.179-17.928,72.925-44.184
		c1.455,2.666,3.076,4.91,4.879,6.713c4.21,4.209,9.182,7.451,14.601,9.532c4.491,1.725,9.288,2.655,14.222,2.655h0.003
		c2.765,0,5.487-0.293,8.137-0.851C240.054,253.05,197.129,280.008,148.022,280.008z M272.154,190.509
		c-4.675,4.676-10.891,7.5-17.503,7.5h-0.002c-6.615,0-12.833-2.824-17.509-7.502c-6.136-6.135-9.046-27.401-9.548-44.059
		c22.079,0.256,39.417,3.775,44.561,8.92C281.808,165.024,281.808,180.857,272.154,190.509z M267.113,91.111
		c7.309,15.234,11.778,32.08,12.718,49.846c-2.673-1.821-5.845-3.341-9.357-4.607c-12.361-4.457-28.963-5.765-43.115-5.896
		l-0.003-0.143c-0.057-17.409-14.189-31.648-31.551-31.648c-17.398,0-31.551,14.347-31.551,31.347h16
		c0-8,6.976-15.347,15.551-15.347c8.575,0,15.551,7.364,15.551,15.999l0.174,7.348h0.024l-0.014,0.563
		c-0.008,0.396-0.144,8.215,0.633,18.438H83.194c0.787-10.266,0.65-18.102,0.643-18.5l-0.013-0.5h0.023l0.172-7.199l0.002-0.318
		c0-8.635,6.976-15.791,15.551-15.791s15.551,7.309,15.551,15.309h16c0-17-14.32-31.347-31.717-31.347
		c-17.362,0-31.717,14.333-31.717,31.742v0.041c-12,0.111-25.618,1.073-37.07,4.086c-5.552,1.46-10.469,3.405-14.458,5.968
		C20.066,71.197,77.717,16.012,147.98,16.012c34.523,0,66.008,13.328,89.554,35.102C249.742,62.402,259.844,75.957,267.113,91.111z
		 M212.186,173.009c-7.176,28.846-33.213,50.283-64.246,50.283c-31.035,0-57.073-21.438-64.249-50.283h128.33H212.186z
		 M23.222,155.244c5.144-5.146,22.484-8.541,44.565-8.797c-0.493,16.65-3.401,37.66-9.552,43.811
		c-4.676,4.677-10.895,7.252-17.509,7.252c-6.613,0-12.83-2.574-17.505-7.25C13.568,180.607,13.568,164.899,23.222,155.244z"/>
</g>
<g>
</g>
<g>
</g>
<g>
</g>
<g>
</g>
<g>
</g>
<g>
</g>
<g>
</g>
<g>
</g>
<g>
</g>
<g>
</g>
<g>
</g>
<g>
</g>
<g>
</g>
<g>
</g>
<g>
</g>
</svg>
