<?xml version="1.0" encoding="iso-8859-1"?>
<!-- Generator: Adobe Illustrator 19.0.0, SVG Export Plug-In . SVG Version: 6.00 Build 0)  -->
<svg version="1.1" id="Layer_1" xmlns="http://www.w3.org/2000/svg" xmlns:xlink="http://www.w3.org/1999/xlink" x="0px" y="0px"
	 viewBox="0 0 490 490" style="enable-background:new 0 0 490 490;" xml:space="preserve">
<g id="XMLID_838_">
	<g>
		<path d="M50,0v15c0,34.836,9.303,69.031,26.903,98.887c15.605,26.474,37.351,48.954,63.195,65.484
			c2.093,50.835,40.495,92.454,89.902,99.553V310c-35.841,0-65,29.159-65,65v25h-45v90h250v-90h-45v-25c0-35.841-29.159-65-65-65
			v-31.076c49.407-7.099,87.809-48.718,89.902-99.553c25.844-16.529,47.589-39.01,63.195-65.484C430.697,84.031,440,49.836,440,15V0
			H50z M140,142.238C106.287,114.32,84.723,73.826,80.689,30H140V142.238z M340,430v30H150v-30H340z M295,375v25H195v-25
			c0-19.299,15.701-35,35-35h30C279.299,340,295,355.701,295,375z M320,175c0,41.355-33.645,75-75,75c-41.355,0-75-33.645-75-75V30
			h150V175z M350,142.238V30h59.311C405.277,73.826,383.713,114.32,350,142.238z"/>
	</g>
</g>
<g>
</g>
<g>
</g>
<g>
</g>
<g>
</g>
<g>
</g>
<g>
</g>
<g>
</g>
<g>
</g>
<g>
</g>
<g>
</g>
<g>
</g>
<g>
</g>
<g>
</g>
<g>
</g>
<g>
</g>
</svg>
