<?xml version="1.0" encoding="iso-8859-1"?>
<!-- Generator: Adobe Illustrator 19.0.0, SVG Export Plug-In . SVG Version: 6.00 Build 0)  -->
<svg version="1.1" id="Layer_1" xmlns="http://www.w3.org/2000/svg" xmlns:xlink="http://www.w3.org/1999/xlink" x="0px" y="0px"
	 viewBox="0 0 511.999 511.999" style="enable-background:new 0 0 511.999 511.999;" xml:space="preserve">
<g>
	<g>
		<path d="M502.754,494.932H293.499l7.817-55.782c0.657-4.651,4.958-7.945,9.643-7.262c4.659,0.657,7.91,4.975,7.253,9.626
			c-0.12,0.887,0.009,1.741,0.154,2.577l-3.268,24.465c-0.623,4.676,2.654,8.969,7.322,9.591c0.384,0.051,0.768,0.077,1.143,0.077
			c4.215,0,7.876-3.123,8.448-7.407l44.271-331.375c0.614-4.642-2.628-8.926-7.27-9.583l-6.861-0.964l10.701-76.083
			c0.316-2.244-0.282-4.514-1.638-6.323c-1.365-1.801-3.388-2.995-5.632-3.311l-92.646-13.022l3.558-20.139
			c0.819-4.642-2.278-9.062-6.921-9.89c-4.634-0.802-9.062,2.287-9.882,6.921l-3.661,20.736l-25.66-3.61
			c-4.71-0.683-8.977,2.603-9.634,7.262l-10.692,76.049l-8.44-1.186c-4.796-0.7-8.986,2.603-9.643,7.262l-11.87,84.471
			c0,0.009-0.009,0.017-0.009,0.034v0.034l-23.748,168.952c-0.008,0.008-0.008,0.017-0.008,0.017v0.017l-17.963,127.846H9.245
			c-4.719,0-8.533,3.823-8.533,8.533c0,4.71,3.814,8.533,8.533,8.533h493.508c4.719,0,8.533-3.823,8.533-8.533
			C511.287,498.755,507.472,494.932,502.754,494.932z M183.018,422.484l-10.522,72.448H155.6l10.505-74.778
			c0,0,0.009-0.009,0.009-0.017c0.316-2.253,1.493-4.25,3.311-5.615c1.818-1.382,4.07-1.971,6.315-1.638
			C180.407,413.541,183.675,417.859,183.018,422.484z M250.611,432.007l-8.943,62.925h-17.169l9.216-65.28
			c0.657-4.659,4.958-7.936,9.643-7.27C248.016,423.039,251.268,427.365,250.611,432.007z M284.411,436.777l-8.141,58.155h-17.357
			l8.602-60.535c1.971-13.969-7.799-26.94-21.786-28.911c-14.029-1.98-26.948,7.817-28.919,21.777l-9.549,67.669h-17.519
			l10.172-70.033c1.963-13.969-7.808-26.94-21.803-28.919c-2.935-0.401-5.828-0.213-8.653,0.35l2.586-18.432l126.771,17.809
			c0.393,0.06,0.794,0.085,1.178,0.085c1.843,0,3.652-0.597,5.137-1.724c1.809-1.357,3.004-3.379,3.319-5.623l7.117-50.697
			c0.657-4.668-2.603-8.986-7.27-9.643c-4.668-0.7-8.977,2.611-9.634,7.262l-5.931,42.257l-16.905-2.381l5.939-42.249
			c0.657-4.668-2.603-8.986-7.27-9.634c-4.702-0.683-8.977,2.594-9.634,7.262l-5.931,42.249l-16.905-2.372l5.939-42.257
			c0.657-4.659-2.603-8.977-7.27-9.634c-4.693-0.708-8.986,2.603-9.634,7.262l-5.931,42.249l-16.896-2.364l5.931-42.257
			c0.657-4.668-2.603-8.986-7.27-9.643c-4.685-0.691-8.977,2.603-9.634,7.27l-5.931,42.249l-16.905-2.381l9.498-67.593
			l126.746,17.809c0.41,0.06,0.811,0.085,1.203,0.085c4.19,0,7.842-3.081,8.439-7.347l7.134-50.705
			c0.657-4.659-2.586-8.977-7.253-9.634c-4.813-0.7-8.986,2.603-9.643,7.262l-5.948,42.249l-16.896-2.372l5.939-42.249
			c0.657-4.668-2.586-8.977-7.253-9.643c-4.796-0.683-8.994,2.603-9.643,7.262l-5.939,42.257l-16.905-2.381l5.939-42.249
			c0.666-4.668-2.586-8.977-7.253-9.634c-4.787-0.708-8.986,2.594-9.643,7.262l-5.939,42.249l-16.905-2.372L226.043,239
			c0.666-4.668-2.586-8.986-7.253-9.643c-4.779-0.691-8.986,2.594-9.643,7.262l-5.939,42.249l-16.913-2.372l9.506-67.61
			l126.763,17.818c0.393,0.051,0.794,0.077,1.186,0.077c1.835,0,3.644-0.589,5.128-1.715c1.809-1.357,3.004-3.388,3.32-5.623
			l7.117-50.705c0.657-4.668-2.603-8.986-7.27-9.634c-4.668-0.691-8.969,2.594-9.634,7.262l-5.931,42.249l-16.896-2.372
			l5.931-42.257c0.657-4.659-2.603-8.977-7.27-9.634c-4.702-0.674-8.969,2.603-9.634,7.262l-5.931,42.249l-16.896-2.372
			l5.931-42.249c0.657-4.668-2.603-8.986-7.27-9.643c-4.693-0.7-8.969,2.611-9.626,7.27l-5.939,42.249l-16.896-2.372l5.931-42.257
			c0.657-4.668-2.603-8.986-7.27-9.634c-4.676-0.683-8.969,2.594-9.626,7.262l-5.939,42.257l-16.896-2.381l9.498-67.601l8.439,1.186
			c4.77,0.7,8.986-2.603,9.643-7.262l10.692-76.049l118.298,16.623l-9.506,67.627l-16.896-2.372l5.948-42.283
			c0.657-4.659-2.594-8.977-7.262-9.634c-4.779-0.708-8.977,2.603-9.643,7.262l-5.948,42.266l-16.896-2.381l5.948-42.257
			c0.657-4.668-2.594-8.977-7.262-9.643c-4.762-0.683-8.977,2.603-9.634,7.262l-5.956,42.266l-16.888-2.381l5.939-42.257
			c0.657-4.668-2.594-8.977-7.253-9.634c-4.813-0.666-8.986,2.594-9.643,7.262l-7.134,50.697c-0.657,4.668,2.586,8.977,7.253,9.643
			l108.322,15.249l-36.378,272.299c-2.603-1.408-5.444-2.458-8.533-2.893C299.31,413.004,286.382,422.8,284.411,436.777z"/>
	</g>
</g>
<g>
</g>
<g>
</g>
<g>
</g>
<g>
</g>
<g>
</g>
<g>
</g>
<g>
</g>
<g>
</g>
<g>
</g>
<g>
</g>
<g>
</g>
<g>
</g>
<g>
</g>
<g>
</g>
<g>
</g>
</svg>
