<?xml version="1.0" encoding="iso-8859-1"?>
<!-- Generator: Adobe Illustrator 18.0.0, SVG Export Plug-In . SVG Version: 6.00 Build 0)  -->
<!DOCTYPE svg PUBLIC "-//W3C//DTD SVG 1.1//EN" "http://www.w3.org/Graphics/SVG/1.1/DTD/svg11.dtd">
<svg version="1.1" id="Capa_1" xmlns="http://www.w3.org/2000/svg" xmlns:xlink="http://www.w3.org/1999/xlink" x="0px" y="0px"
	 viewBox="0 0 108.203 104.519" style="enable-background:new 0 0 108.203 104.519;" xml:space="preserve">
<g>
	<path d="M66.091,32.729h-6.923c1.161,1.161,2.231,2.235,3.211,3.222c-0.524,0.822-0.78,1.918-0.64,3.082
		c0.273,2.273,1.95,3.94,3.746,3.724c0.896-0.108,1.652-0.664,2.151-1.477c2.15,2.198,3.177,3.275,3.177,3.275v-7.103
		C70.814,34.844,68.699,32.729,66.091,32.729z"/>
	<path d="M37.373,37.562v7.103c0,0,1.027-1.077,3.177-3.275c0.499,0.813,1.255,1.369,2.152,1.477
		c1.796,0.216,3.473-1.452,3.746-3.724c0.14-1.164-0.116-2.26-0.64-3.082c0.981-0.987,2.05-2.06,3.211-3.222h-6.923
		C39.487,32.839,37.373,34.953,37.373,37.562z"/>
	<path d="M29.428,21.054c-0.113,0.286-2.753,7.069-1.261,12.964l4.777-1.209c-1.097-4.336,1.046-9.89,1.068-9.946l-2.292-0.903
		L29.428,21.054z"/>
	<path d="M74.132,22.867c0.608,1.536,1.984,6.316,1.066,9.942l4.777,1.209c1.492-5.895-1.148-12.678-1.261-12.964L74.132,22.867z"/>
	<path d="M107.251,20.991C106.768,20.503,95.28,9.054,83.062,9.054c-1.875,0-3.669,0.27-5.374,0.802L68.649,0H39.538l-9.137,9.962
		c-1.915-0.604-3.903-0.908-5.951-0.908c-12.627,0-23.154,11.532-23.596,12.023L0,22.025l2.213,9.758
		C1.866,34.377,0.756,46.014,7.375,53.84c0.748,0.885,1.564,1.686,2.448,2.405c-0.338,0.646-4.636,9.149-1.398,17.006
		c1.96,4.755,6.164,8.163,12.495,10.128c3.97,1.232,7.574,1.848,10.796,1.848c4.052,0,7.499-0.974,10.306-2.92
		c1.053-0.73,1.949-1.555,2.717-2.419l0.361,6.244l-8.73,4.247l-0.051,1.482c-0.135,3.931,0.897,7.01,3.067,9.151
		c2.939,2.9,7.282,3.507,11.571,3.507c1.077,0,2.151-0.038,3.199-0.088c3.878-0.185,6.414-1.193,7.752-3.084
		c0.821-1.16,0.985-2.42,0.847-3.371l0.849-17.916c0.733,0.801,1.58,1.566,2.562,2.247c2.807,1.946,6.254,2.92,10.306,2.92
		c3.221,0,6.826-0.616,10.796-1.848c6.331-1.965,10.535-5.372,12.495-10.128c3.238-7.857-1.06-16.36-1.398-17.006
		c0.883-0.719,1.699-1.52,2.448-2.405c6.618-7.826,5.508-19.464,5.162-22.057l2.229-9.832L107.251,20.991z M41.705,4.928h24.777
		l2.891,3.152l-2.656-0.15l-0.12,0.611l-0.882,4.486l-4.146-5.472l-7.475,7.786l-7.476-7.786l-4.146,5.472L41.59,8.541L41.47,7.93
		l-2.656,0.15L41.705,4.928z M39.214,78.257c-3.729,2.585-9.393,2.725-16.834,0.416c-4.852-1.506-8.011-3.953-9.39-7.275
		c-0.461-1.11-0.704-2.261-0.796-3.397c0.971,1.807,2.182,3.312,3.614,4.489c2.428,1.995,5.425,3.007,8.908,3.007
		c6.003,0,10.459-1.59,13.245-4.727c0.821-0.924,1.372-1.858,1.742-2.682l4.392,0.668l0.121,2.09
		C43.265,73.443,41.993,76.33,39.214,78.257z M34.453,67.288c-0.111,0.137-0.232,0.275-0.367,0.413
		c-1.823,1.876-5.063,2.867-9.37,2.867c-4.188,0-7.061-2.021-8.786-6.18c-0.812-1.958-1.17-3.958-1.328-5.319
		c2.918,1.199,6.298,1.804,10.119,1.804l1.776-0.001l0.562-1.684c0.024-0.074,2.037-6.039,5.219-10.939
		c1.101,2.718,1.712,4.959,1.925,7.001c0.291,2.785-0.118,5.416-1.369,8.798l-1.049,2.836L34.453,67.288z M42.847,97.504
		c-0.93-0.918-1.452-2.243-1.581-4.028l3.349-1.629l4.369,7.679C46.413,99.361,44.185,98.825,42.847,97.504z M58.906,75.069h-6.21
		v4.928h5.976l-0.147,3.098h-3.853v4.928h3.619l-0.465,10.536c-0.213,0.196-1.102,0.816-3.907,0.949
		c-1.048,0.05-2.093,0.083-3.107,0.077l-1.739-30.074l5.019,0.763l5.077-0.772L58.906,75.069z M59.424,64.15H48.765l-0.189-3.278
		h11.004L59.424,64.15z M95.207,71.373c-1.374,3.334-4.537,5.79-9.4,7.299c-7.441,2.309-13.105,2.169-16.834-0.416
		c-2.72-1.886-3.996-4.692-4.941-7.247l0.107-2.263l4.345-0.661c0.37,0.824,0.921,1.758,1.742,2.682
		c2.786,3.137,7.242,4.727,13.245,4.727c3.483,0,6.48-1.012,8.908-3.007c1.436-1.18,2.649-2.689,3.621-4.503
		C95.907,69.116,95.664,70.263,95.207,71.373z M75.353,64.046c-1.251-3.382-1.66-6.013-1.369-8.798
		c0.214-2.042,0.824-4.283,1.925-7.001c3.182,4.901,5.194,10.866,5.219,10.938l0.561,1.686h1.777c3.821,0,7.2-0.605,10.119-1.803
		c-0.158,1.362-0.516,3.362-1.328,5.319c-1.724,4.159-4.598,6.18-8.786,6.18c-4.307,0-7.547-0.991-9.37-2.867
		c-0.134-0.138-0.256-0.276-0.367-0.413l2.668-0.406L75.353,64.046z M101.04,32.095c0.019,0.115,1.877,11.625-3.991,18.563
		c-0.332,0.393-0.685,0.764-1.058,1.114l-2.282-4.301v6.022c-2.322,1.397-5.175,2.201-8.536,2.401
		c-1.197-3.123-4.028-9.738-7.996-14.098L74.723,39.1l-1.586,3.284c-2.438,5.046-3.688,8.856-4.054,12.352
		c-0.281,2.682-0.057,5.284,0.726,8.165l-5.432,0.826l0.443-9.353c0.064-1.359-0.985-2.513-2.344-2.578
		c-1.36-0.065-2.513,0.985-2.578,2.344l-0.006,0.117l-0.08,1.687H48.29l-0.098-1.687l-0.008-0.142
		c-0.079-1.358-1.243-2.395-2.602-2.318c-1.358,0.079-2.396,1.244-2.318,2.602l0.539,9.327L38.377,62.9
		c0.783-2.881,1.007-5.482,0.726-8.165c-0.366-3.496-1.616-7.306-4.054-12.352L33.464,39.1l-2.455,2.697
		c-3.968,4.36-6.8,10.975-7.996,14.098c-3.361-0.2-6.214-1.004-8.536-2.401v-6.017l-2.281,4.296
		c-0.368-0.345-0.716-0.711-1.045-1.098c-5.853-6.9-4.023-18.467-4.004-18.58l0.081-0.48l-1.843-8.128
		c2.57-2.516,10.483-9.506,19.066-9.506c3.099,0,6.034,0.936,8.725,2.782l2.089,1.434l1.374-2.129
		c0.203-0.315,0.591-0.907,1.083-1.656l2.035,10.357l7.303-9.639l7.033,7.325l7.033-7.325l7.304,9.639l2.035-10.357
		c0.492,0.749,0.88,1.341,1.083,1.656l1.453,2.25l2.121-1.635c2.358-1.818,4.956-2.701,7.94-2.701c8.356,0,16.905,7.03,19.724,9.574
		l-1.828,8.06L101.04,32.095z"/>
</g>
<g>
</g>
<g>
</g>
<g>
</g>
<g>
</g>
<g>
</g>
<g>
</g>
<g>
</g>
<g>
</g>
<g>
</g>
<g>
</g>
<g>
</g>
<g>
</g>
<g>
</g>
<g>
</g>
<g>
</g>
</svg>
