<?xml version="1.0" encoding="iso-8859-1"?>
<!-- Generator: Adobe Illustrator 19.0.0, SVG Export Plug-In . SVG Version: 6.00 Build 0)  -->
<svg version="1.1" id="Capa_1" xmlns="http://www.w3.org/2000/svg" xmlns:xlink="http://www.w3.org/1999/xlink" x="0px" y="0px"
	 viewBox="0 0 52.129 52.129" style="enable-background:new 0 0 52.129 52.129;" xml:space="preserve">
<g>
	<g>
		<path d="M32.207,15.676c4.274,0,7.752-3.516,7.752-7.837C39.959,3.517,36.482,0,32.207,0c-4.273,0-7.748,3.517-7.748,7.839
			C24.459,12.161,27.935,15.676,32.207,15.676z M32.207,2c3.172,0,5.752,2.62,5.752,5.839c0,3.218-2.58,5.837-5.752,5.837
			c-3.17,0-5.748-2.619-5.748-5.837C26.459,4.62,29.037,2,32.207,2z"/>
		<path d="M45.9,45.918c-3.146-8.253-13.04-14.172-13.493-14.438c-0.896-0.486-1.72-1.17-2.124-1.528
			c-0.042-0.672,0.076-1.02,0.207-1.115c0.232-0.17,0.923-0.022,1.315,0.16l0.073,0.031c1.501,0.566,3.977,0.48,4.213,0.471
			c5.668,0,9.188-3.498,9.336-3.647l0.503-0.509l-3.096-6.2l-0.915,0.511c-7.665,4.285-9.918,1.842-10.128,1.581
			c-0.434-0.875-1.624-3.241-1.624-3.241l-0.133-0.2c-1.706-1.995-4.438-1.139-5.619-0.42c-5.756,3.3-5.769,12.712-5.765,13.038
			C17.956,40.565,7.175,43.463,6.716,43.581l-0.751,0.194v0.774c0,0.213,0,0.712,2.638,6.845l0.316,0.734l0.785-0.146
			c9.169-1.705,15.434-9.831,17.207-12.393C36.378,44.409,39,50.458,39.026,50.517l0.497,1.211l6.642-5.116L45.9,45.918z
			 M40.286,48.616c-1.29-2.209-4.936-7.184-13.286-11.214l-0.81-0.392l-0.475,0.766c-0.063,0.101-6.207,9.87-15.597,12.077
			c-0.762-1.789-1.516-3.624-1.902-4.655c3.006-1.07,11.771-5.008,12.433-14.724c-0.001-0.086,0.007-8.639,4.779-11.376
			c0.02-0.011,1.964-1.154,3.014-0.084c0.256,0.509,1.246,2.479,1.625,3.239c0.111,0.188,2.741,4.408,11.907-0.355l1.501,3.007
			c-1.071,0.852-3.718,2.594-7.426,2.595c-0.633,0.028-2.471,0.018-3.434-0.331c-0.352-0.158-2.056-0.851-3.297,0.047
			c-0.856,0.62-1.188,1.743-0.986,3.34l0.044,0.347l0.251,0.244c0.053,0.052,1.317,1.274,2.795,2.073
			c0.094,0.056,9.138,5.463,12.328,12.728L40.286,48.616z"/>
	</g>
</g>
<g>
</g>
<g>
</g>
<g>
</g>
<g>
</g>
<g>
</g>
<g>
</g>
<g>
</g>
<g>
</g>
<g>
</g>
<g>
</g>
<g>
</g>
<g>
</g>
<g>
</g>
<g>
</g>
<g>
</g>
</svg>
