<?xml version="1.0" encoding="iso-8859-1"?>
<!-- Generator: Adobe Illustrator 19.0.0, SVG Export Plug-In . SVG Version: 6.00 Build 0)  -->
<svg version="1.1" id="Capa_1" xmlns="http://www.w3.org/2000/svg" xmlns:xlink="http://www.w3.org/1999/xlink" x="0px" y="0px"
	 viewBox="0 0 55 55" style="enable-background:new 0 0 55 55;" xml:space="preserve">
<g>
	<g>
		<path d="M27.5,0C12.337,0,0,12.336,0,27.5C0,42.663,12.337,55,27.5,55S55,42.663,55,27.5C55,12.336,42.663,0,27.5,0z M27.5,53
			C13.439,53,2,41.561,2,27.5S13.439,2,27.5,2S53,13.439,53,27.5S41.561,53,27.5,53z"/>
		<path d="M42.91,27.975c-0.538-0.093-1.065,0.258-1.167,0.8C40.419,35.858,34.219,41,27,41c-7.491,0-13.884-5.591-14.869-13.005
			c-0.072-0.548-0.572-0.93-1.123-0.859c-0.548,0.072-0.933,0.575-0.859,1.123C11.266,36.663,18.51,43,27,43
			c8.182,0,15.209-5.828,16.71-13.858C43.811,28.599,43.453,28.076,42.91,27.975z"/>
	</g>
</g>
<g>
</g>
<g>
</g>
<g>
</g>
<g>
</g>
<g>
</g>
<g>
</g>
<g>
</g>
<g>
</g>
<g>
</g>
<g>
</g>
<g>
</g>
<g>
</g>
<g>
</g>
<g>
</g>
<g>
</g>
</svg>
