<?xml version="1.0" encoding="iso-8859-1"?>
<!-- Generator: Adobe Illustrator 19.0.0, SVG Export Plug-In . SVG Version: 6.00 Build 0)  -->
<svg version="1.1" id="Layer_1" xmlns="http://www.w3.org/2000/svg" xmlns:xlink="http://www.w3.org/1999/xlink" x="0px" y="0px"
	 viewBox="0 0 512 512" style="enable-background:new 0 0 512 512;" xml:space="preserve">
<g>
	<g>
		<g>
			<path d="M230.4,170.667h51.2c4.719,0,8.533-3.823,8.533-8.533c0-4.71-3.814-8.533-8.533-8.533h-51.2
				c-4.71,0-8.533,3.823-8.533,8.533C221.867,166.844,225.69,170.667,230.4,170.667z"/>
			<path d="M230.4,204.8h51.2c4.719,0,8.533-3.823,8.533-8.533s-3.814-8.533-8.533-8.533h-51.2c-4.71,0-8.533,3.823-8.533,8.533
				S225.69,204.8,230.4,204.8z"/>
			<path d="M503.467,452.267c4.719,0,8.533-3.823,8.533-8.533V384c0-4.71-3.814-8.533-8.533-8.533h-179.2V307.2H460.8v51.2
				c0,4.71,3.814,8.533,8.533,8.533s8.533-3.823,8.533-8.533v-59.733c0-4.71-3.814-8.533-8.533-8.533H324.267v-68.267h102.4v51.2
				c0,4.71,3.814,8.533,8.533,8.533s8.533-3.823,8.533-8.533v-59.733c0-4.71-3.814-8.533-8.533-8.533H324.267v-68.267h68.267v51.2
				c0,4.71,3.814,8.533,8.533,8.533c4.719,0,8.533-3.823,8.533-8.533V128c0-4.71-3.814-8.533-8.533-8.533H290.133V76.8
				c0-4.71-3.814-8.533-8.533-8.533h-51.2c-4.71,0-8.533,3.823-8.533,8.533v42.667H110.933c-4.71,0-8.533,3.823-8.533,8.533v59.733
				c0,4.71,3.823,8.533,8.533,8.533s8.533-3.823,8.533-8.533v-51.2h68.267V204.8H76.8c-4.71,0-8.533,3.823-8.533,8.533v59.733
				c0,4.71,3.823,8.533,8.533,8.533s8.533-3.823,8.533-8.533v-51.2h102.4v68.267H42.667c-4.71,0-8.533,3.823-8.533,8.533V358.4
				c0,4.71,3.823,8.533,8.533,8.533c4.71,0,8.533-3.823,8.533-8.533v-51.2h136.533v68.267H8.533C3.823,375.467,0,379.29,0,384
				v59.733c0,4.71,3.823,8.533,8.533,8.533s8.533-3.823,8.533-8.533v-51.2h170.667V460.8H8.533c-4.71,0-8.533,3.823-8.533,8.533
				s3.823,8.533,8.533,8.533h494.396c4.719,0,8.533-3.823,8.533-8.533s-3.814-8.533-8.533-8.533H324.267v-68.267h170.667v51.2
				C494.933,448.444,498.748,452.267,503.467,452.267z M238.933,85.333h34.133v34.133h-34.133V85.333z M307.2,460.8H204.8V136.533
				h102.4V460.8z"/>
			<path d="M230.4,238.933h51.2c4.719,0,8.533-3.823,8.533-8.533c0-4.71-3.814-8.533-8.533-8.533h-51.2
				c-4.71,0-8.533,3.823-8.533,8.533C221.867,235.11,225.69,238.933,230.4,238.933z"/>
			<path d="M145.067,110.933c4.71,0,8.533-3.823,8.533-8.533V51.2h204.8v51.2c0,4.71,3.814,8.533,8.533,8.533
				s8.533-3.823,8.533-8.533V42.667c0-4.71-3.814-8.533-8.533-8.533H145.067c-4.71,0-8.533,3.823-8.533,8.533V102.4
				C136.533,107.11,140.356,110.933,145.067,110.933z"/>
			<path d="M230.4,375.467h51.2c4.719,0,8.533-3.823,8.533-8.533s-3.814-8.533-8.533-8.533h-51.2c-4.71,0-8.533,3.823-8.533,8.533
				S225.69,375.467,230.4,375.467z"/>
			<path d="M230.4,443.733h51.2c4.719,0,8.533-3.823,8.533-8.533s-3.814-8.533-8.533-8.533h-51.2c-4.71,0-8.533,3.823-8.533,8.533
				S225.69,443.733,230.4,443.733z"/>
			<path d="M230.4,409.6h51.2c4.719,0,8.533-3.823,8.533-8.533s-3.814-8.533-8.533-8.533h-51.2c-4.71,0-8.533,3.823-8.533,8.533
				S225.69,409.6,230.4,409.6z"/>
			<path d="M230.4,273.067h51.2c4.719,0,8.533-3.823,8.533-8.533S286.319,256,281.6,256h-51.2c-4.71,0-8.533,3.823-8.533,8.533
				S225.69,273.067,230.4,273.067z"/>
			<path d="M230.4,307.2h51.2c4.719,0,8.533-3.823,8.533-8.533s-3.814-8.533-8.533-8.533h-51.2c-4.71,0-8.533,3.823-8.533,8.533
				S225.69,307.2,230.4,307.2z"/>
			<path d="M230.4,341.333h51.2c4.719,0,8.533-3.823,8.533-8.533s-3.814-8.533-8.533-8.533h-51.2c-4.71,0-8.533,3.823-8.533,8.533
				S225.69,341.333,230.4,341.333z"/>
		</g>
	</g>
</g>
<g>
</g>
<g>
</g>
<g>
</g>
<g>
</g>
<g>
</g>
<g>
</g>
<g>
</g>
<g>
</g>
<g>
</g>
<g>
</g>
<g>
</g>
<g>
</g>
<g>
</g>
<g>
</g>
<g>
</g>
</svg>
