<?xml version="1.0" encoding="iso-8859-1"?>
<!-- Generator: Adobe Illustrator 18.0.0, SVG Export Plug-In . SVG Version: 6.00 Build 0)  -->
<!DOCTYPE svg PUBLIC "-//W3C//DTD SVG 1.1//EN" "http://www.w3.org/Graphics/SVG/1.1/DTD/svg11.dtd">
<svg version="1.1" id="Capa_1" xmlns="http://www.w3.org/2000/svg" xmlns:xlink="http://www.w3.org/1999/xlink" x="0px" y="0px"
	 viewBox="0 0 44 44" style="enable-background:new 0 0 44 44;" xml:space="preserve">
<g>
	<path d="M33,27H11c-0.553,0-1,0.447-1,1c0,6.617,5.383,12,12,12s12-5.383,12-12C34,27.447,33.553,27,33,27z M31.141,32.029
		C31.093,32.021,31.05,32,31,32h-2v-3h2.95C31.844,30.069,31.559,31.085,31.141,32.029z M25,32v-3h2v3H25z M27,34v2.647
		c-0.627,0.364-1.296,0.663-2,0.885V34H27z M17,32v-3h2v3H17z M19,34v3.532c-0.704-0.222-1.373-0.521-2-0.885V34H19z M21,29h2v3h-2
		V29z M15,29v3h-2c-0.05,0-0.093,0.021-0.141,0.029c-0.418-0.944-0.702-1.959-0.809-3.029H15z M14.009,34H15v1.121
		C14.644,34.771,14.31,34.4,14.009,34z M21,37.948V34h2v3.948C22.671,37.981,22.338,38,22,38S21.329,37.981,21,37.948z M29,35.121
		V34h0.991C29.69,34.4,29.356,34.771,29,35.121z"/>
	<path d="M22,0C9.869,0,0,9.869,0,22s9.869,22,22,22s22-9.869,22-22S34.131,0,22,0z M22,42C10.972,42,2,33.028,2,22S10.972,2,22,2
		s20,8.972,20,20S33.028,42,22,42z"/>
	<path d="M12.277,14.165c0.576,0.285,1.456,0.593,2.617,0.915v5.8c-0.315-0.054-0.606-0.131-0.868-0.23
		c-1.073-0.41-1.552-0.664-2.192-1.359v-1.36c0-0.364-0.235-0.599-0.599-0.599c-0.364,0-0.598,0.235-0.598,0.599v3.741
		c0,0.364,0.235,0.599,0.598,0.599c0.364,0,0.599-0.235,0.599-0.599v-0.798c1.047,0.84,1.817,1.045,3.061,1.216v0.852
		c0,0.364,0.235,0.599,0.599,0.599s0.598-0.235,0.598-0.599v-0.78c1.568-0.019,2.796-0.394,3.652-1.114
		c0.895-0.752,1.348-1.778,1.348-3.047c0-0.667-0.182-1.251-0.542-1.736c-0.349-0.47-0.85-0.868-1.487-1.184
		c-0.613-0.303-1.301-0.555-2.046-0.75c-0.431-0.112-0.739-0.194-0.925-0.243V8.667c0.275,0.055,0.537,0.135,0.783,0.24
		c1.003,0.41,1.591,0.997,2.267,1.745v1.263c0,0.364,0.235,0.599,0.598,0.599c0.364,0,0.599-0.235,0.599-0.599V8.174
		c0-0.364-0.235-0.599-0.599-0.599c-0.364,0-0.598,0.235-0.598,0.599l0,0.798c-0.139-0.108-0.046-0.233-0.244-0.375
		c-0.763-0.547-1.707-0.927-2.807-1.132V6.599C16.091,6.235,15.856,6,15.492,6s-0.599,0.235-0.599,0.599V7.38
		c-1.553,0.026-2.718,0.383-3.464,1.061c-0.784,0.714-1.182,1.676-1.182,2.863c0,0.629,0.182,1.193,0.542,1.677
		C11.138,13.452,11.639,13.85,12.277,14.165z M19.353,20.582c-0.01,0.008-0.023,0.014-0.033,0.023
		c0.088-0.072,0.173-0.145,0.251-0.222C19.502,20.451,19.43,20.517,19.353,20.582z M16.091,15.405l0.954,0.266
		c0.455,0.127,0.914,0.294,1.364,0.496c0.422,0.19,0.783,0.461,1.074,0.805c0.276,0.328,0.411,0.702,0.411,1.143
		c0,0.843-0.32,1.509-0.979,2.038c-0.648,0.519-1.598,0.791-2.825,0.809V15.405z M12.303,9.329c0.555-0.476,1.426-0.728,2.591-0.752
		v5.175c-0.209-0.062-0.438-0.129-0.687-0.2c-0.398-0.114-0.828-0.274-1.278-0.477c-0.422-0.189-0.783-0.461-1.074-0.805
		c-0.276-0.327-0.411-0.701-0.411-1.143C11.444,10.412,11.725,9.824,12.303,9.329z"/>
	<path d="M32.815,15.078c-0.613-0.303-1.301-0.555-2.046-0.75c-0.431-0.112-0.739-0.194-0.925-0.243V8.667
		c0.275,0.055,0.537,0.135,0.783,0.24c1.003,0.41,1.591,0.997,2.267,1.745v1.263c0,0.364,0.235,0.599,0.598,0.599
		c0.364,0,0.599-0.235,0.599-0.599V8.174c0-0.364-0.235-0.599-0.599-0.599c-0.364,0-0.598,0.235-0.598,0.599l0,0.798
		c-0.139-0.108-0.046-0.233-0.244-0.375c-0.763-0.547-1.707-0.927-2.807-1.132V6.599C29.844,6.235,29.609,6,29.245,6
		s-0.599,0.235-0.599,0.599V7.38c-1.553,0.026-2.718,0.383-3.465,1.061C24.398,9.155,24,10.118,24,11.304
		c0,0.629,0.182,1.193,0.542,1.677c0.349,0.471,0.849,0.869,1.487,1.184c0.577,0.285,1.456,0.593,2.617,0.915v5.8
		c-0.315-0.054-0.606-0.131-0.868-0.23c-1.074-0.41-1.552-0.664-2.192-1.359v-1.36c0-0.364-0.235-0.599-0.599-0.599
		c-0.364,0-0.598,0.235-0.598,0.599v3.741c0,0.364,0.235,0.599,0.598,0.599c0.364,0,0.599-0.235,0.599-0.599v-0.798
		c1.047,0.84,1.817,1.045,3.061,1.216v0.852c0,0.364,0.235,0.599,0.599,0.599s0.598-0.235,0.598-0.599v-0.78
		c1.568-0.019,2.796-0.394,3.653-1.114c0.895-0.752,1.348-1.778,1.348-3.047c0-0.667-0.182-1.251-0.542-1.736
		C33.953,15.792,33.452,15.394,32.815,15.078z M28.646,13.752c-0.209-0.062-0.438-0.129-0.687-0.2
		c-0.398-0.114-0.828-0.274-1.278-0.477c-0.422-0.189-0.783-0.461-1.074-0.805c-0.276-0.327-0.411-0.701-0.411-1.143
		c0-0.715,0.281-1.303,0.859-1.798c0.555-0.476,1.426-0.728,2.591-0.752V13.752z M33.106,20.582
		c-0.01,0.008-0.023,0.015-0.033,0.023c0.088-0.072,0.173-0.145,0.251-0.222C33.255,20.451,33.182,20.517,33.106,20.582z
		 M32.668,20.154c-0.648,0.519-1.598,0.791-2.825,0.809v-5.557l0.955,0.266c0.455,0.127,0.914,0.294,1.364,0.496
		c0.422,0.19,0.783,0.461,1.074,0.805c0.277,0.328,0.411,0.702,0.411,1.143C33.647,18.959,33.327,19.626,32.668,20.154z"/>
</g>
<g>
</g>
<g>
</g>
<g>
</g>
<g>
</g>
<g>
</g>
<g>
</g>
<g>
</g>
<g>
</g>
<g>
</g>
<g>
</g>
<g>
</g>
<g>
</g>
<g>
</g>
<g>
</g>
<g>
</g>
</svg>
