<?xml version="1.0" encoding="iso-8859-1"?>
<!-- Generator: Adobe Illustrator 19.0.0, SVG Export Plug-In . SVG Version: 6.00 Build 0)  -->
<svg version="1.1" id="Layer_1" xmlns="http://www.w3.org/2000/svg" xmlns:xlink="http://www.w3.org/1999/xlink" x="0px" y="0px"
	 viewBox="0 0 512.002 512.002" style="enable-background:new 0 0 512.002 512.002;" xml:space="preserve">
<g>
	<g>
		<g>
			<path d="M409.601,384.002c0-4.71-3.814-8.533-8.533-8.533h-37.205c-2.97-6.315-5.743-12.826-8.141-19.558
				c-1.587-4.437-6.46-6.758-10.914-5.171c-4.437,1.587-6.75,6.46-5.171,10.906c1.673,4.685,3.499,9.301,5.436,13.824h-178.15
				c16.444-38.374,19.934-74.231,20.651-88.823c0.23-4.71-3.396-8.713-8.107-8.943c-4.685-0.205-8.704,3.396-8.943,8.107
				c-0.538,11.315-3.814,50.185-22.315,89.66h-37.274c-4.719,0-8.533,3.823-8.533,8.533s3.814,8.533,8.533,8.533h290.133
				C405.787,392.535,409.601,388.713,409.601,384.002z"/>
			<path d="M121.968,304.702c1.664,1.664,3.849,2.5,6.033,2.5s4.369-0.836,6.033-2.5l121.967-121.967l115.934,115.934
				l-22.067,22.067l-90.334-90.334l11.034-11.034c3.337-3.336,3.337-8.73,0-12.066s-8.73-3.337-12.066,0l-17.067,17.067
				c-3.336,3.337-3.336,8.73,0,12.066l102.4,102.4c1.664,1.664,3.849,2.5,6.033,2.5c2.185,0,4.369-0.836,6.033-2.5l34.133-34.133
				c3.337-3.337,3.337-8.73,0-12.066L268.067,170.669L384.001,54.735l22.067,22.067l-90.334,90.334l-11.034-11.034
				c-3.337-3.337-8.73-3.337-12.066,0s-3.337,8.73,0,12.066l17.067,17.067c1.664,1.664,3.849,2.5,6.033,2.5
				c2.185,0,4.369-0.836,6.033-2.5l102.4-102.4c3.336-3.337,3.336-8.73,0-12.066l-34.133-34.133c-3.336-3.337-8.73-3.337-12.066,0
				L256.001,158.603L140.067,42.669l22.067-22.067l90.334,90.334l-11.034,11.034c-3.336,3.337-3.336,8.73,0,12.066
				c3.337,3.337,8.73,3.337,12.066,0l17.067-17.067c3.337-3.337,3.337-8.73,0-12.066l-102.4-102.4c-3.337-3.336-8.73-3.336-12.066,0
				l-34.133,34.133c-3.336,3.337-3.336,8.73,0,12.066l121.967,121.967L128.001,286.603l-22.067-22.067l90.334-90.334l11.034,11.034
				c3.337,3.336,8.73,3.336,12.066,0c3.337-3.337,3.337-8.73,0-12.066l-17.067-17.067c-3.337-3.337-8.73-3.337-12.066,0
				l-102.4,102.4c-3.337,3.337-3.337,8.73,0,12.066L121.968,304.702z"/>
			<path d="M503.468,494.935H341.334v-64.734l14.566-14.566c3.336-3.337,3.336-8.73,0-12.066c-3.337-3.337-8.73-3.337-12.066,0
				l-17.067,17.067c-1.604,1.596-2.5,3.772-2.5,6.033v68.267H187.734v-68.267c0-2.261-0.896-4.437-2.5-6.033l-17.067-17.067
				c-3.337-3.337-8.73-3.337-12.066,0c-3.337,3.336-3.337,8.73,0,12.066l14.566,14.566v64.734H8.534
				c-4.719,0-8.533,3.823-8.533,8.533s3.814,8.533,8.533,8.533h494.933c4.719,0,8.533-3.823,8.533-8.533
				S508.187,494.935,503.468,494.935z"/>
			<path d="M273.068,341.336c4.719,0,8.533-3.823,8.533-8.533v-34.133c0-4.71-3.814-8.533-8.533-8.533h-34.133
				c-4.719,0-8.533,3.823-8.533,8.533v34.133c0,4.71,3.814,8.533,8.533,8.533H273.068z M247.468,307.202h17.067v17.067h-17.067
				V307.202z"/>
			<path d="M247.468,435.202v17.067c0,4.71,3.814,8.533,8.533,8.533s8.533-3.823,8.533-8.533v-17.067
				c0-4.71-3.814-8.533-8.533-8.533S247.468,430.492,247.468,435.202z"/>
		</g>
	</g>
</g>
<g>
</g>
<g>
</g>
<g>
</g>
<g>
</g>
<g>
</g>
<g>
</g>
<g>
</g>
<g>
</g>
<g>
</g>
<g>
</g>
<g>
</g>
<g>
</g>
<g>
</g>
<g>
</g>
<g>
</g>
</svg>
