<?xml version="1.0" encoding="iso-8859-1"?>
<!-- Generator: Adobe Illustrator 19.0.0, SVG Export Plug-In . SVG Version: 6.00 Build 0)  -->
<svg version="1.1" id="Layer_1" xmlns="http://www.w3.org/2000/svg" xmlns:xlink="http://www.w3.org/1999/xlink" x="0px" y="0px"
	 viewBox="0 0 512 512" style="enable-background:new 0 0 512 512;" xml:space="preserve">
<g>
	<g>
		<g>
			<path d="M503.467,486.4h-8.533V298.667c4.71,0,8.533-3.823,8.533-8.533s-3.823-8.533-8.533-8.533h-51.2
				c-4.71,0-8.533,3.823-8.533,8.533s3.823,8.533,8.533,8.533V486.4h-25.6V298.667c4.71,0,8.533-3.823,8.533-8.533
				s-3.823-8.533-8.533-8.533h-51.2c-4.71,0-8.533,3.823-8.533,8.533s3.823,8.533,8.533,8.533V486.4h-25.6V298.667
				c4.71,0,8.533-3.823,8.533-8.533s-3.823-8.533-8.533-8.533h-51.2c-4.71,0-8.533,3.823-8.533,8.533s3.823,8.533,8.533,8.533V486.4
				h-68.267V298.667c4.71,0,8.533-3.823,8.533-8.533s-3.823-8.533-8.533-8.533h-51.2c-4.71,0-8.533,3.823-8.533,8.533
				s3.823,8.533,8.533,8.533V486.4h-25.6V298.667c4.71,0,8.533-3.823,8.533-8.533s-3.823-8.533-8.533-8.533h-51.2
				c-4.71,0-8.533,3.823-8.533,8.533s3.823,8.533,8.533,8.533V486.4h-25.6V298.667c4.71,0,8.533-3.823,8.533-8.533
				s-3.823-8.533-8.533-8.533h-51.2c-4.71,0-8.533,3.823-8.533,8.533s3.823,8.533,8.533,8.533V486.4H8.533
				c-4.71,0-8.533,3.823-8.533,8.533s3.823,8.533,8.533,8.533h494.933c4.71,0,8.533-3.823,8.533-8.533S508.177,486.4,503.467,486.4z
				 M51.2,486.4H34.133V298.667H51.2V486.4z M128,486.4h-17.067V298.667H128V486.4z M204.8,486.4h-17.067V298.667H204.8V486.4z
				 M324.267,486.4H307.2V298.667h17.067V486.4z M401.067,486.4H384V298.667h17.067V486.4z M477.867,486.4H460.8V298.667h17.067
				V486.4z"/>
			<path d="M503.467,196.267H341.333V179.2h136.533c0,4.71,3.823,8.533,8.533,8.533s8.533-3.823,8.533-8.533h8.533
				c4.71,0,8.533-3.823,8.533-8.533c0-4.71-3.823-8.533-8.533-8.533H341.333v-17.067H358.4c4.71,0,8.533-3.823,8.533-8.533
				S363.11,128,358.4,128h-8.533v-25.6c0-14.114-11.486-25.6-25.6-25.6s-25.6,11.486-25.6,25.6V128H281.6v-25.6
				c0-11.11-7.151-20.489-17.067-24.03V68.267c4.71,0,8.533-3.823,8.533-8.533s-3.823-8.533-8.533-8.533v-1.135
				c16.307-4.318,24.32-19.883,24.704-20.651c2.091-4.19,0.393-9.267-3.78-11.392c-4.207-2.142-9.31-0.452-11.469,3.712
				c-0.043,0.085-3.405,6.315-9.455,9.907V17.067c0-4.71-3.823-8.533-8.533-8.533s-8.533,3.823-8.533,8.533v14.566
				c-5.99-3.55-9.353-9.694-9.455-9.899c-2.116-4.181-7.219-5.871-11.426-3.772c-4.216,2.116-5.931,7.236-3.823,11.452
				c0.384,0.768,8.397,16.333,24.704,20.651V51.2c-4.71,0-8.533,3.823-8.533,8.533s3.823,8.533,8.533,8.533V78.37
				C237.551,81.911,230.4,91.29,230.4,102.4V128h-17.067v-25.6c0-14.114-11.486-25.6-25.6-25.6s-25.6,11.486-25.6,25.6V128H153.6
				c-4.71,0-8.533,3.823-8.533,8.533s3.823,8.533,8.533,8.533h17.067v17.067H8.533c-4.71,0-8.533,3.823-8.533,8.533
				c0,4.71,3.823,8.533,8.533,8.533h8.533c0,4.71,3.823,8.533,8.533,8.533c4.71,0,8.533-3.823,8.533-8.533h136.533v17.067H8.533
				C3.823,196.267,0,200.09,0,204.8s3.823,8.533,8.533,8.533h8.533V256c0,4.71,3.823,8.533,8.533,8.533h460.8
				c4.71,0,8.533-3.823,8.533-8.533v-42.667h8.533c4.71,0,8.533-3.823,8.533-8.533S508.177,196.267,503.467,196.267z M315.733,102.4
				c0-4.702,3.831-8.533,8.533-8.533c4.702,0,8.533,3.831,8.533,8.533V128h-17.067V102.4z M247.467,102.4
				c0-4.702,3.831-8.533,8.533-8.533c4.702,0,8.533,3.831,8.533,8.533V128h-17.067V102.4z M324.267,145.067v51.2H187.733v-51.2
				H324.267z M179.2,102.4c0-4.702,3.831-8.533,8.533-8.533c4.702,0,8.533,3.831,8.533,8.533V128H179.2V102.4z M477.867,247.467
				H34.133v-34.133h34.133V230.4c0,4.71,3.823,8.533,8.533,8.533s8.533-3.823,8.533-8.533v-17.067h34.133V230.4
				c0,4.71,3.823,8.533,8.533,8.533s8.533-3.823,8.533-8.533v-17.067h34.133V230.4c0,4.71,3.823,8.533,8.533,8.533
				s8.533-3.823,8.533-8.533v-17.067h34.133V230.4c0,4.71,3.823,8.533,8.533,8.533s8.533-3.823,8.533-8.533v-17.067h34.133V230.4
				c0,4.71,3.823,8.533,8.533,8.533s8.533-3.823,8.533-8.533v-17.067h34.133V230.4c0,4.71,3.823,8.533,8.533,8.533
				c4.71,0,8.533-3.823,8.533-8.533v-17.067h34.133V230.4c0,4.71,3.823,8.533,8.533,8.533s8.533-3.823,8.533-8.533v-17.067h34.133
				V230.4c0,4.71,3.823,8.533,8.533,8.533s8.533-3.823,8.533-8.533v-17.067h34.133V247.467z"/>
		</g>
	</g>
</g>
<g>
</g>
<g>
</g>
<g>
</g>
<g>
</g>
<g>
</g>
<g>
</g>
<g>
</g>
<g>
</g>
<g>
</g>
<g>
</g>
<g>
</g>
<g>
</g>
<g>
</g>
<g>
</g>
<g>
</g>
</svg>
