<?xml version="1.0" encoding="iso-8859-1"?>
<!-- Generator: Adobe Illustrator 18.0.0, SVG Export Plug-In . SVG Version: 6.00 Build 0)  -->
<!DOCTYPE svg PUBLIC "-//W3C//DTD SVG 1.1//EN" "http://www.w3.org/Graphics/SVG/1.1/DTD/svg11.dtd">
<svg version="1.1" id="Capa_1" xmlns="http://www.w3.org/2000/svg" xmlns:xlink="http://www.w3.org/1999/xlink" x="0px" y="0px"
	 viewBox="0 0 59 59" style="enable-background:new 0 0 59 59;" xml:space="preserve">
<g>
	<path d="M39.723,26c-3.009,0-5.602,1.785-6.796,4.348C32.11,29.518,30.977,29,29.723,29s-2.387,0.518-3.204,1.348
		C25.325,27.785,22.732,26,19.723,26c-4.136,0-7.5,3.364-7.5,7.5s3.364,7.5,7.5,7.5s7.5-3.364,7.5-7.5c0-1.379,1.121-2.5,2.5-2.5
		s2.5,1.121,2.5,2.5c0,4.136,3.364,7.5,7.5,7.5s7.5-3.364,7.5-7.5S43.858,26,39.723,26z M19.723,39c-3.032,0-5.5-2.468-5.5-5.5
		s2.468-5.5,5.5-5.5s5.5,2.468,5.5,5.5S22.755,39,19.723,39z M39.723,39c-3.032,0-5.5-2.468-5.5-5.5s2.468-5.5,5.5-5.5
		s5.5,2.468,5.5,5.5S42.755,39,39.723,39z"/>
	<path d="M24.223,46c-0.553,0-1,0.447-1,1s0.447,1,1,1c7.072,0,12,1.581,12,3c0,0.553,0.447,1,1,1s1-0.447,1-1
		C38.223,46.241,26.561,46,24.223,46z"/>
	<path d="M19.775,23.895l6,3C25.919,26.966,26.071,27,26.222,27c0.367,0,0.72-0.202,0.896-0.553
		c0.247-0.494,0.047-1.095-0.447-1.342l-6-3c-0.493-0.245-1.094-0.047-1.342,0.447C19.081,23.047,19.281,23.647,19.775,23.895z"/>
	<path d="M33.224,27c0.15,0,0.303-0.034,0.446-0.105l6-3c0.494-0.247,0.694-0.848,0.447-1.342c-0.248-0.494-0.848-0.692-1.342-0.447
		l-6,3c-0.494,0.247-0.694,0.848-0.447,1.342C32.504,26.798,32.856,27,33.224,27z"/>
	<circle cx="19.723" cy="33.5" r="2.5"/>
	<circle cx="39.723" cy="33.5" r="2.5"/>
	<path d="M29.5,0C14.888,0,3,11.888,3,26.5v10.979c0,0,0,0.002,0,0.004s0,0.004,0,0.006c0,0.004,0,0.008,0,0.012V51
		c0,2.757,2.243,5,5,5h6.55c0.046,0.022,0.096,0.04,0.142,0.061c3.51,1.654,7.728,2.643,12.543,2.878
		c0.107,0.005,0.214,0.011,0.321,0.016C28.195,58.982,28.84,59,29.5,59c0.66,0,1.305-0.018,1.944-0.045
		c0.108-0.005,0.215-0.01,0.323-0.016c4.814-0.235,9.032-1.224,12.541-2.878c0.046-0.021,0.096-0.04,0.142-0.062H51
		c2.757,0,5-2.243,5-5V26.5C56,11.888,44.112,0,29.5,0z M43.992,54l-0.207,0.101c-2.826,1.374-6.202,2.271-9.913,2.666
		c-0.273,0.028-0.545,0.056-0.823,0.078c-0.391,0.033-0.786,0.062-1.184,0.084C31.091,56.969,30.309,57,29.5,57
		c-0.809,0-1.59-0.031-2.364-0.072c-0.399-0.022-0.794-0.051-1.186-0.084c-0.276-0.022-0.547-0.05-0.818-0.078
		c-3.712-0.395-7.089-1.292-9.916-2.666L15.008,54h-0.089C8.548,50.783,5,45.095,5,37.5c0-0.004,0-0.007,0-0.011
		c0-0.002,0-0.004,0-0.006c0-0.001,0-0.002,0-0.004C5.012,24.628,15.796,13.647,29,13l0.951-0.001C43.212,13.647,54,24.639,54,37.5
		c0,7.595-3.548,13.283-9.919,16.5H43.992z M8,54c-1.654,0-3-1.346-3-3v-4.226c1.384,2.876,3.459,5.308,6.148,7.226H8z M54,51
		c0,1.654-1.346,3-3,3h-3.148c2.689-1.917,4.764-4.349,6.148-7.226V51z M30,11l-1.049,0.001C18.165,11.529,8.911,18.42,5,27.736
		V26.5C5,12.99,15.99,2,29.5,2S54,12.99,54,26.5v1.198C50.079,18.398,40.811,11.528,30,11z"/>
</g>
<g>
</g>
<g>
</g>
<g>
</g>
<g>
</g>
<g>
</g>
<g>
</g>
<g>
</g>
<g>
</g>
<g>
</g>
<g>
</g>
<g>
</g>
<g>
</g>
<g>
</g>
<g>
</g>
<g>
</g>
</svg>
