<?xml version="1.0" encoding="iso-8859-1"?>
<!-- Generator: Adobe Illustrator 19.0.0, SVG Export Plug-In . SVG Version: 6.00 Build 0)  -->
<svg version="1.1" id="Capa_1" xmlns="http://www.w3.org/2000/svg" xmlns:xlink="http://www.w3.org/1999/xlink" x="0px" y="0px"
	 viewBox="0 0 463 463" style="enable-background:new 0 0 463 463;" xml:space="preserve">
<path d="M455.5,448H431V15h8.5c4.142,0,7.5-3.358,7.5-7.5S443.642,0,439.5,0h-48c-4.142,0-7.5,3.358-7.5,7.5V16H79V7.5
	C79,3.358,75.642,0,71.5,0h-48C19.358,0,16,3.358,16,7.5s3.358,7.5,7.5,7.5H32v433H7.5c-4.142,0-7.5,3.358-7.5,7.5
	s3.358,7.5,7.5,7.5h72c4.142,0,7.5-3.358,7.5-7.5s-3.358-7.5-7.5-7.5H79V111h49v120.5c0,16.77,13.173,30.517,29.714,31.446
	l81.166,81.166c4.436,4.441,10.338,6.887,16.619,6.887s12.183-2.446,16.616-6.884c7.832-7.832,8.946-19.853,3.387-28.904
	l10.217-12.26l9.164,9.164c1.464,1.465,3.384,2.197,5.303,2.197s3.839-0.732,5.303-2.197l6.009-6.009l26.697,26.697
	c1.464,1.465,3.384,2.197,5.303,2.197s3.839-0.732,5.303-2.197c2.929-2.929,2.929-7.677,0-10.606L322.106,295.5l6.009-6.009
	c2.929-2.929,2.929-7.677,0-10.606l-15.997-15.997C307.683,258.446,301.781,256,295.5,256s-12.183,2.446-16.616,6.884
	c-7.832,7.832-8.946,19.853-3.387,28.904l-10.217,12.26L191,229.769V111h193v337h-0.5c-4.142,0-7.5,3.358-7.5,7.5s3.358,7.5,7.5,7.5
	h72c4.142,0,7.5-3.358,7.5-7.5S459.642,448,455.5,448z M384,31v25H181.766c-3.138-9.29-11.93-16-22.266-16s-19.128,6.71-22.266,16
	H79V31H384z M143,80.213C147.246,84.406,153.075,87,159.5,87s12.254-2.594,16.5-6.787V96h-33V80.213z M151,63.5
	c0-4.687,3.813-8.5,8.5-8.5s8.5,3.813,8.5,8.5s-3.813,8.5-8.5,8.5S151,68.187,151,63.5z M47,448V15h17v433H47z M79,96V71h49v25H79z
	 M143,231.5c0-9.098,7.402-16.5,16.5-16.5s16.5,7.402,16.5,16.5s-7.402,16.5-16.5,16.5S143,240.598,143,231.5z M261.506,333.512
	c-1.602,1.604-3.735,2.488-6.006,2.488s-4.404-0.883-6.009-2.491l-74.562-74.562c5.019-2.833,9.186-7,12.019-12.019l74.562,74.562
	C264.823,324.804,264.823,330.196,261.506,333.512z M289.494,273.488c1.602-1.604,3.735-2.488,6.006-2.488s4.404,0.883,6.009,2.491
	l10.697,10.697l-12.019,12.018l-10.697-10.697C286.177,282.196,286.177,276.804,289.494,273.488z M176,204.681
	c-4.802-2.965-10.454-4.681-16.5-4.681s-11.698,1.716-16.5,4.681V111h33V204.681z M191,96V71h193v25H191z M399,448V15h17v433H399z"
	/>
<g>
</g>
<g>
</g>
<g>
</g>
<g>
</g>
<g>
</g>
<g>
</g>
<g>
</g>
<g>
</g>
<g>
</g>
<g>
</g>
<g>
</g>
<g>
</g>
<g>
</g>
<g>
</g>
<g>
</g>
</svg>
