<?xml version="1.0" encoding="iso-8859-1"?>
<!-- Generator: Adobe Illustrator 18.0.0, SVG Export Plug-In . SVG Version: 6.00 Build 0)  -->
<!DOCTYPE svg PUBLIC "-//W3C//DTD SVG 1.1//EN" "http://www.w3.org/Graphics/SVG/1.1/DTD/svg11.dtd">
<svg version="1.1" id="Capa_1" xmlns="http://www.w3.org/2000/svg" xmlns:xlink="http://www.w3.org/1999/xlink" x="0px" y="0px"
	 viewBox="0 0 500 500" style="enable-background:new 0 0 500 500;" xml:space="preserve">
<g>
	<path d="M250,300.335l96.629,60.887L250,139.521l-96.629,221.701L250,300.335z M240,282.997l-42.348,26.684L240,212.521V282.997z
		 M260,282.997v-70.477l42.348,97.16L260,282.997z"/>
	<path d="M103.989,0v500h292.021V0H103.989z M376.011,20v53.47H123.989V20H376.011z M376.011,93.47V406.53H123.989V93.47H376.011z
		 M123.989,480v-53.47h252.021V480H123.989z"/>
	<rect x="212.436" y="38.271" width="75.129" height="20"/>
	<path d="M237.729,465.828c17.931,13.657,38.2-6.612,24.542-24.543C244.34,427.629,224.072,447.897,237.729,465.828z"/>
</g>
<g>
</g>
<g>
</g>
<g>
</g>
<g>
</g>
<g>
</g>
<g>
</g>
<g>
</g>
<g>
</g>
<g>
</g>
<g>
</g>
<g>
</g>
<g>
</g>
<g>
</g>
<g>
</g>
<g>
</g>
</svg>
