<?xml version='1.0' encoding='iso-8859-1'?>
<svg version="1.1" xmlns="http://www.w3.org/2000/svg" viewBox="0 0 463 463" xmlns:xlink="http://www.w3.org/1999/xlink" enable-background="new 0 0 463 463">
  <path d="m287,319.5c0-213.125-26.323-262.817-40.465-289.514-4.859-9.172-7.535-14.224-7.535-22.486 0-4.142-3.358-7.5-7.5-7.5s-7.5,3.358-7.5,7.5c0,8.262-2.676,13.314-7.535,22.486-14.142,26.697-40.465,76.389-40.465,289.514 0,77.839 33.193,97.191 48,101.95v34.05c0,4.142 3.358,7.5 7.5,7.5s7.5-3.358 7.5-7.5v-34.05c14.807-4.759 48-24.111 48-101.95zm-96,0c0-182.474 19.127-242.042 33-271.248v357.08c-11.969-6.007-33-25.194-33-85.832zm48,85.765v-357.013c13.873,29.206 33,88.774 33,271.248 0,24.404-3.655,57.487-21.07,76.501-4.252,4.643-8.469,7.504-11.93,9.264z"/>
</svg>
