<?xml version="1.0" encoding="iso-8859-1"?>
<!-- Generator: Adobe Illustrator 19.0.0, SVG Export Plug-In . SVG Version: 6.00 Build 0)  -->
<svg version="1.1" id="Layer_1" xmlns="http://www.w3.org/2000/svg" xmlns:xlink="http://www.w3.org/1999/xlink" x="0px" y="0px"
	 viewBox="0 0 300 300" style="enable-background:new 0 0 300 300;" xml:space="preserve">
<g id="XMLID_828_">
	<g>
		<path d="M187.5,190h30v30c0,27.57-22.43,50-50,50s-50-22.43-50-50V97.707c20.285-6.371,35-25.318,35-47.707
			c0-27.615-22.386-50-50-50s-50,22.385-50,50c0,22.389,14.715,41.336,35,47.707V220c0,44.183,35.817,80,80,80s80-35.817,80-80V100
			L187.5,190z M102.5,70c-11.045,0-20-8.954-20-20s8.955-20,20-20s20,8.954,20,20S113.545,70,102.5,70z"/>
	</g>
</g>
<g>
</g>
<g>
</g>
<g>
</g>
<g>
</g>
<g>
</g>
<g>
</g>
<g>
</g>
<g>
</g>
<g>
</g>
<g>
</g>
<g>
</g>
<g>
</g>
<g>
</g>
<g>
</g>
<g>
</g>
</svg>
