<?xml version="1.0" encoding="utf-8"?>
<!-- Generator: Adobe Illustrator 16.0.0, SVG Export Plug-In . SVG Version: 6.00 Build 0)  -->
<!DOCTYPE svg PUBLIC "-//W3C//DTD SVG 1.1//EN" "http://www.w3.org/Graphics/SVG/1.1/DTD/svg11.dtd">
<svg version="1.1" id="Layer_1_copy_2" xmlns="http://www.w3.org/2000/svg" xmlns:xlink="http://www.w3.org/1999/xlink" x="0px"
	 y="0px" width="126px" height="126px" viewBox="0 0 126 126" enable-background="new 0 0 126 126" xml:space="preserve">
<path stroke="#6D6E70" stroke-width="0" stroke-linecap="round" stroke-linejoin="round" d="M68.828,51.641
	c0-4.797,3.904-8.701,8.703-8.701c4.797,0,8.701,3.903,8.701,8.701c0,1.381-1.119,2.5-2.5,2.5s-2.5-1.119-2.5-2.5
	c0-2.041-1.66-3.701-3.701-3.701c-2.042,0-3.703,1.66-3.703,3.701c0,1.381-1.119,2.5-2.5,2.5S68.828,53.021,68.828,51.641z
	 M41.105,51.614c0-4.797,3.904-8.701,8.703-8.701c4.797,0,8.701,3.903,8.701,8.701c0,1.381-1.119,2.5-2.5,2.5s-2.5-1.119-2.5-2.5
	c0-2.041-1.66-3.701-3.701-3.701c-2.042,0-3.703,1.66-3.703,3.701c0,1.381-1.119,2.5-2.5,2.5S41.105,52.995,41.105,51.614z
	 M39.996,73.965c-0.636-1.53,0.089-3.286,1.62-3.921c0.376-0.156,0.766-0.23,1.15-0.23c1.176,0,2.292,0.696,2.771,1.85
	c2.777,6.685,9.655,11.004,17.523,11.004c7.69,0,14.528-4.322,17.421-11.011c0.658-1.521,2.424-2.222,3.944-1.563
	c1.521,0.658,2.22,2.423,1.563,3.944c-3.843,8.887-12.843,14.629-22.928,14.629C52.759,88.668,43.706,82.897,39.996,73.965z
	 M96.618,114.848H29.382c-10.052,0-18.23-8.178-18.23-18.23V29.382c0-10.052,8.178-18.23,18.23-18.23h67.235
	c10.052,0,18.23,8.178,18.23,18.23v67.235C114.848,106.67,106.67,114.848,96.618,114.848z M29.382,19.731
	c-5.321,0-9.651,4.33-9.651,9.651v67.235c0,5.321,4.33,9.651,9.651,9.651h67.235c5.321,0,9.651-4.33,9.651-9.651V29.382
	c0-5.321-4.33-9.651-9.651-9.651H29.382z"/>
</svg>
