<?xml version='1.0' encoding='iso-8859-1'?>
<svg version="1.1" xmlns="http://www.w3.org/2000/svg" viewBox="0 0 285 285" xmlns:xlink="http://www.w3.org/1999/xlink" enable-background="new 0 0 285 285">
  <g>
    <g>
      <path d="m65.644,170.908c-10.774-2.769-17-12.239-17.641-18.37l-5.322-50.83 17.256,49.58c1.368,3.928 4.614,6.949 8.694,7.998l48.369,12.432c6.656,1.712 13.493-2.282 15.218-8.995 1.719-6.686-2.307-13.499-8.995-15.218l-41.877-10.764-15.627-44.899 23.049,34.417 10.179,2.616v-28.01l25.251,6.175c5.935,1.449 12.026-1.596 14.441-7.18l9.889-22.858 80.604,77.378h28.879l-101.008-96.966 1.97-4.554c2.741-6.336-0.174-13.694-6.51-16.436-5.017-2.169-10.668-0.784-14.167,3.031l-20.48-19.66c-3.983-3.824-10.313-3.698-14.139,0.289-3.825,3.983-3.695,10.314 0.289,14.139l25.316,24.303-9.397,21.722c0,0-19.368-4.609-31.415-7.682-2.673-0.682-6.612-1.433-13.024-1.477h-25.208c-9.665,0-17.501,7.835-17.501,17.501v89.79h61.978l-29.071-7.472z"/>
      <circle cx="65.842" cy="36.898" r="25.907"/>
      <path d="m111,200.509c0-5.522-4.478-10-10-10h-91c-5.523,0-10,4.478-10,10 0,5.523 4.477,10 10,10h91c5.522,0 10-4.477 10-10z"/>
      <path d="m76.817,232.509c0,5.523 4.478,10 10,10h91.183c5.522,0 10-4.477 10-10 0-5.522-4.478-10-10-10h-91.183c-5.522,0-10,4.478-10,10z"/>
      <path d="m264,254.009h-229.003c-5.523,0-10,4.478-10,10s4.477,10 10,10h229.003c5.522,0 10-4.478 10-10s-4.477-10-10-10z"/>
      <path d="m275,166.38h-86.36-0.001c-5.523,0-10,4.477-10,10 0,5.522 4.477,10 10,10h0.001 86.36c5.522,0 10-4.478 10-10s-4.477-10-10-10z"/>
    </g>
  </g>
</svg>
