<?xml version="1.0" encoding="iso-8859-1"?>
<!-- Generator: Adobe Illustrator 18.0.0, SVG Export Plug-In . SVG Version: 6.00 Build 0)  -->
<!DOCTYPE svg PUBLIC "-//W3C//DTD SVG 1.1//EN" "http://www.w3.org/Graphics/SVG/1.1/DTD/svg11.dtd">
<svg version="1.1" id="Capa_1" xmlns="http://www.w3.org/2000/svg" xmlns:xlink="http://www.w3.org/1999/xlink" x="0px" y="0px"
	 viewBox="0 0 295.996 295.996" style="enable-background:new 0 0 295.996 295.996;" xml:space="preserve">
<g>
	<path d="M147.998,0C66.392,0,0,66.392,0,147.998s66.392,147.998,147.998,147.998s147.998-66.392,147.998-147.998
		S229.605,0,147.998,0z M147.998,279.996c-36.256,0-69.143-14.696-93.022-38.44c-9.536-9.482-17.631-20.41-23.934-32.42
		C21.442,190.847,16,170.048,16,147.998c0-5.76,0.373-11.434,1.092-17.001h14.68h10.725c3.817,23.069,23.851,40.668,48,40.668
		s44.185-17.599,48.002-40.668h18.998c3.817,23.069,23.851,40.668,48,40.668s44.185-17.599,48.002-40.668h17.324h8.082
		c0.719,5.567,1.092,11.241,1.092,17.001C279.996,220.782,220.782,279.996,147.998,279.996z M270.707,114.997h-17.209
		c-3.818-23.068-23.853-40.666-48.002-40.666c-24.148,0-44.182,17.598-48,40.666h-18.998c-3.818-23.068-23.853-40.666-48.002-40.666
		c-24.148,0-44.182,17.598-48,40.666H37.68H20.177C34.867,58.13,86.605,16,147.998,16c34.523,0,65.987,13.328,89.533,35.102
		c12.208,11.288,22.289,24.844,29.558,39.997c3.644,7.595,6.584,15.588,8.73,23.898H270.707z M238.164,122.998
		c0,18.013-14.654,32.667-32.668,32.667c-18.012,0-32.666-14.654-32.666-32.667s14.654-32.667,32.666-32.667
		C223.51,90.331,238.164,104.985,238.164,122.998z M123.164,122.998c0,18.013-14.654,32.667-32.668,32.667
		c-18.012,0-32.666-14.654-32.666-32.667s14.654-32.667,32.666-32.667C108.51,90.331,123.164,104.985,123.164,122.998z"/>
	<circle cx="90.496" cy="122.998" r="16"/>
	<circle cx="205.496" cy="122.998" r="16"/>
	<path d="M214.08,180.997c0,0-109.509,0-132.166,0c0,36.448,29.586,66.083,66.083,66.083
		C184.493,247.08,214.08,217.445,214.08,180.997z M194.997,196.997h0.231c-6.69,19.794-25.324,34.083-47.348,34.083
		s-40.656-14.289-47.347-34.083H194.997z"/>
</g>
<g>
</g>
<g>
</g>
<g>
</g>
<g>
</g>
<g>
</g>
<g>
</g>
<g>
</g>
<g>
</g>
<g>
</g>
<g>
</g>
<g>
</g>
<g>
</g>
<g>
</g>
<g>
</g>
<g>
</g>
</svg>
