<?xml version="1.0" encoding="iso-8859-1"?>
<!-- Generator: Adobe Illustrator 19.0.0, SVG Export Plug-In . SVG Version: 6.00 Build 0)  -->
<svg version="1.1" id="Capa_1" xmlns="http://www.w3.org/2000/svg" xmlns:xlink="http://www.w3.org/1999/xlink" x="0px" y="0px"
	 viewBox="0 0 463 463" style="enable-background:new 0 0 463 463;" xml:space="preserve">
<path d="M399.5,400H391v-24.5c0-4.142-3.357-7.5-7.5-7.5h-38.229l-90.5-45.25c0.148-1.063,0.23-2.147,0.23-3.25
	s-0.082-2.187-0.23-3.25l92.084-46.042c2.54-1.27,4.146-3.867,4.146-6.708s-1.605-5.438-4.146-6.708L254.77,210.75
	c0.148-1.063,0.23-2.147,0.23-3.25s-0.082-2.187-0.23-3.25l92.084-46.042c2.54-1.27,4.146-3.867,4.146-6.708
	s-1.605-5.437-4.146-6.708L254.77,98.749c0.148-1.063,0.23-2.146,0.23-3.249c0-1.103-0.082-2.187-0.23-3.25l90.5-45.25H383.5
	c4.143,0,7.5-3.358,7.5-7.5v-32c0-4.142-3.357-7.5-7.5-7.5h-304C75.357,0,72,3.358,72,7.5v32c0,4.142,3.357,7.5,7.5,7.5h38.229
	l90.5,45.25c-0.148,1.063-0.23,2.147-0.23,3.25c0,1.103,0.082,2.187,0.23,3.25l-92.084,46.042c-2.54,1.27-4.146,3.867-4.146,6.708
	s1.605,5.438,4.146,6.708l92.084,46.042c-0.148,1.063-0.23,2.147-0.23,3.25s0.082,2.187,0.23,3.25l-92.084,46.042
	c-2.54,1.27-4.146,3.867-4.146,6.708s1.605,5.438,4.146,6.708l92.084,46.042c-0.148,1.063-0.23,2.147-0.23,3.25
	c0,1.103,0.082,2.187,0.23,3.25l-90.5,45.25H79.5c-4.143,0-7.5,3.358-7.5,7.5V400h-8.5c-4.143,0-7.5,3.358-7.5,7.5v48
	c0,4.142,3.357,7.5,7.5,7.5h336c4.143,0,7.5-3.358,7.5-7.5v-48C407,403.358,403.643,400,399.5,400z M223,319.5
	c0-4.687,3.813-8.5,8.5-8.5s8.5,3.813,8.5,8.5s-3.813,8.5-8.5,8.5S223,324.187,223,319.5z M223,207.5c0-4.687,3.813-8.5,8.5-8.5
	s8.5,3.813,8.5,8.5s-3.813,8.5-8.5,8.5S223,212.187,223,207.5z M223,95.5c0-4.687,3.813-8.5,8.5-8.5s8.5,3.813,8.5,8.5
	s-3.813,8.5-8.5,8.5S223,100.187,223,95.5z M87,15h289v17H87V15z M311.729,47l-63.676,31.838C243.803,74.614,237.951,72,231.5,72
	s-12.303,2.614-16.554,6.838L151.271,47H311.729z M214.947,112.162c4.251,4.223,10.102,6.838,16.553,6.838
	c6.452,0,12.303-2.615,16.554-6.838l78.675,39.338l-78.676,39.338C243.803,186.614,237.951,184,231.5,184
	s-12.303,2.614-16.554,6.838L136.271,151.5L214.947,112.162z M214.946,224.162c4.251,4.223,10.102,6.838,16.554,6.838
	s12.303-2.614,16.554-6.838l78.676,39.338l-78.676,39.338C243.803,298.614,237.951,296,231.5,296s-12.303,2.614-16.553,6.838
	L136.271,263.5L214.946,224.162z M214.946,336.162c4.251,4.223,10.102,6.838,16.554,6.838s12.303-2.614,16.554-6.838L311.729,368
	H151.271L214.946,336.162z M87,383h32.485c0.007,0,0.014,0.001,0.021,0.001c0.009,0,0.017-0.001,0.026-0.001h223.937
	c0.009,0,0.017,0.001,0.026,0.001c0.007,0,0.014-0.001,0.021-0.001H376v17H87V383z M392,448H71v-33h321V448z"/>
<g>
</g>
<g>
</g>
<g>
</g>
<g>
</g>
<g>
</g>
<g>
</g>
<g>
</g>
<g>
</g>
<g>
</g>
<g>
</g>
<g>
</g>
<g>
</g>
<g>
</g>
<g>
</g>
<g>
</g>
</svg>
