<?xml version="1.0" encoding="iso-8859-1"?>
<!-- Generator: Adobe Illustrator 18.0.0, SVG Export Plug-In . SVG Version: 6.00 Build 0)  -->
<!DOCTYPE svg PUBLIC "-//W3C//DTD SVG 1.1//EN" "http://www.w3.org/Graphics/SVG/1.1/DTD/svg11.dtd">
<svg version="1.1" id="Capa_1" xmlns="http://www.w3.org/2000/svg" xmlns:xlink="http://www.w3.org/1999/xlink" x="0px" y="0px"
	 viewBox="0 0 60.002 60.002" style="enable-background:new 0 0 60.002 60.002;" xml:space="preserve">
<g>
	<path d="M59.795,26.568c-0.401-1.697-1.364-3.156-2.576-3.902c-0.812-0.499-1.679-0.659-2.508-0.461
		c-0.189,0.045-0.371,0.114-0.548,0.198c-2.009-4.89-4.984-8.298-8.164-10.664l1.896-3.792c0.247-0.494,0.047-1.095-0.447-1.342
		c-0.494-0.244-1.094-0.047-1.342,0.447l-1.774,3.547c-0.553-0.346-1.106-0.666-1.659-0.958l1.275-3.826
		c0.175-0.524-0.108-1.091-0.632-1.265c-0.527-0.176-1.09,0.108-1.265,0.632l-1.193,3.579C37.799,7.42,34.952,6.819,33,6.549v-2.05
		c0-0.553-0.447-1-1-1s-1,0.447-1,1v1.849c-0.339-0.019-0.55-0.021-0.592-0.021c-0.006,0-0.008,0-0.014,0
		c-0.112,0-1.309,0.015-3.126,0.3l-0.382-2.292c-0.09-0.545-0.606-0.917-1.15-0.822c-0.545,0.091-0.913,0.606-0.822,1.15l0.39,2.34
		c-1.072,0.242-2.258,0.573-3.509,1.02l-0.947-2.841c-0.175-0.523-0.736-0.808-1.265-0.632c-0.523,0.174-0.807,0.74-0.632,1.265
		l0.981,2.944c-0.863,0.378-1.742,0.822-2.621,1.327l-1.517-3.034c-0.247-0.494-0.848-0.691-1.342-0.447
		c-0.494,0.247-0.694,0.848-0.447,1.342l1.601,3.201c-0.881,0.602-1.749,1.288-2.594,2.05l-2.405-2.405
		c-0.391-0.391-1.023-0.391-1.414,0s-0.391,1.023,0,1.414l2.388,2.388c-3.076,3.272-5.646,7.835-6.826,14.213
		c-0.015,0.083-0.025,0.167-0.04,0.25c-0.254-0.07-0.512-0.118-0.776-0.118C1.73,28.939,0,31.321,0,34.362s1.73,5.424,3.939,5.424
		c0.404,0,0.798-0.102,1.177-0.267c0.701,2.671,1.863,5.179,3.458,7.378c3.194,4.404,9.468,9.606,21.27,9.606
		c0.182,0,0.363-0.001,0.548-0.004c0.185,0.003,0.365,0.004,0.548,0.004c11.799-0.001,18.074-5.202,21.27-9.606
		c2.879-3.969,4.345-8.941,4.23-14.07c0.035,0.001,0.07,0.007,0.104,0.007c0.227,0,0.451-0.025,0.672-0.078
		C59.363,32.244,60.496,29.526,59.795,26.568z M12.958,15.971l1.235,1.235c0.195,0.195,0.451,0.293,0.707,0.293
		s0.512-0.098,0.707-0.293c0.391-0.391,0.391-1.023,0-1.414l-1.229-1.229c0.684-0.619,1.384-1.181,2.095-1.683l0.533,1.067
		c0.176,0.351,0.528,0.553,0.896,0.553c0.15,0,0.303-0.034,0.446-0.105c0.494-0.247,0.694-0.848,0.447-1.342l-0.628-1.256
		c0.795-0.464,1.59-0.872,2.372-1.22l0.413,1.24c0.14,0.419,0.529,0.684,0.948,0.684c0.104,0,0.211-0.017,0.316-0.052
		c0.523-0.174,0.807-0.74,0.632-1.265l-0.45-1.349c1.148-0.407,2.236-0.7,3.224-0.917l0.291,1.747
		c0.081,0.489,0.505,0.836,0.985,0.836c0.055,0,0.109-0.004,0.165-0.014c0.545-0.091,0.913-0.606,0.822-1.15l-0.296-1.777
		c1.491-0.213,2.52-0.231,2.776-0.231c0.014,0,0.026,0,0.035,0C30.41,8.324,30.628,8.322,31,8.341v2.158c0,0.553,0.447,1,1,1
		s1-0.447,1-1V8.543c0.841,0.121,1.844,0.306,2.956,0.592L25.284,19.806c-0.018-0.029-0.033-0.06-0.051-0.089
		c-0.731-1.147-1.574-1.811-2.575-2.028c-1.765-0.379-3.49,0.73-5.482,2.024l-1.471,0.938c-2.012,1.261-3.749,2.35-4.147,4.117
		c-0.226,1,0.021,2.044,0.753,3.19c0.217,0.341,0.465,0.655,0.727,0.953l-6.633,5.896C6.384,34.505,6.357,34.204,6.35,33.9
		c-0.005-0.251-0.001-0.504,0.003-0.756c0.004-0.405,0.02-0.811,0.046-1.217c0.02-0.298,0.04-0.596,0.071-0.895
		c0.064-0.62,0.138-1.241,0.252-1.861C7.819,23.242,10.159,19.007,12.958,15.971z M13.995,26.884
		c-0.43-0.675-0.59-1.223-0.488-1.676c0.216-0.955,1.626-1.839,3.259-2.862l1.498-0.955c1.459-0.947,2.738-1.777,3.678-1.777
		c0.101,0,0.198,0.01,0.292,0.03c0.453,0.099,0.883,0.474,1.313,1.149c0.813,1.275,1.081,2.791,0.755,4.269
		c-0.327,1.478-1.21,2.739-2.485,3.553c-1.274,0.813-2.79,1.083-4.269,0.755C16.07,29.042,14.809,28.16,13.995,26.884z
		 M4.674,37.488c-0.206,0.166-0.456,0.298-0.734,0.298C3.022,37.786,2,36.38,2,34.362s1.022-3.424,1.939-3.424
		c0.167,0,0.335,0.047,0.504,0.139c-0.049,0.531-0.081,1.062-0.096,1.591c-0.001,0.04-0.001,0.08-0.002,0.12
		c-0.01,0.437-0.009,0.872,0.004,1.306c0.004,0.143,0.009,0.285,0.015,0.428c0.016,0.352,0.041,0.702,0.072,1.052
		c0.013,0.147,0.022,0.294,0.037,0.44c0.047,0.435,0.105,0.867,0.175,1.297C4.659,37.37,4.664,37.43,4.674,37.488z M51.331,44.576
		c-0.354-0.118-0.768-0.049-1.04,0.223c-0.181,0.18-0.29,0.44-0.29,0.71c0,0.239,0.1,0.464,0.255,0.647
		c-0.558,0.729-1.156,1.412-1.793,2.047c-0.38-0.188-0.872-0.144-1.172,0.156c-0.181,0.19-0.29,0.44-0.29,0.71
		c0,0.134,0.031,0.267,0.083,0.391c-1.554,1.281-3.306,2.319-5.245,3.114C41.932,52.417,42,52.248,42,52.068
		c0-0.27-0.11-0.52-0.29-0.71c-0.37-0.369-1.04-0.38-1.42,0c-0.181,0.19-0.29,0.44-0.29,0.71c0,0.261,0.109,0.521,0.29,0.7
		c0.115,0.116,0.259,0.188,0.41,0.238c-1.233,0.43-2.534,0.773-3.907,1.018c0.099-0.157,0.167-0.33,0.167-0.515
		c0-0.27-0.11-0.53-0.29-0.71c-0.38-0.38-1.061-0.37-1.41,0c-0.19,0.18-0.3,0.44-0.3,0.71c0,0.26,0.109,0.52,0.29,0.7
		c0.017,0.017,0.041,0.024,0.058,0.039c-0.734,0.092-1.491,0.152-2.261,0.194c-0.015-0.245-0.103-0.479-0.277-0.644
		c-0.37-0.37-1.04-0.38-1.42,0c-0.177,0.177-0.284,0.433-0.288,0.698c-0.219,0-0.434,0.007-0.656,0.003h-0.027
		c-0.186,0.003-0.369,0.004-0.552,0.004c-0.275,0-0.541-0.011-0.812-0.017c-0.006-0.261-0.101-0.513-0.286-0.688
		c-0.38-0.38-1.06-0.37-1.41,0c-0.161,0.153-0.249,0.368-0.276,0.594c-2.278-0.175-4.392-0.568-6.334-1.183l0.001-0.001
		c0.18-0.19,0.29-0.44,0.29-0.7c0-0.27-0.11-0.52-0.29-0.72c-0.38-0.36-1.05-0.36-1.42,0.01c-0.181,0.18-0.29,0.44-0.29,0.71
		c0,0.03,0.015,0.057,0.018,0.087c-0.706-0.286-1.391-0.599-2.046-0.949C16.979,51.6,17,51.556,17,51.509
		c0-0.27-0.11-0.53-0.29-0.72c-0.343-0.325-0.904-0.34-1.291-0.072c-0.545-0.357-1.076-0.733-1.581-1.141
		C13.932,49.422,14,49.251,14,49.068c0-0.26-0.11-0.52-0.29-0.71c-0.338-0.337-0.915-0.351-1.304-0.073
		c-0.308-0.304-0.607-0.618-0.898-0.944c0.069-0.041,0.143-0.074,0.201-0.132c0.189-0.19,0.29-0.45,0.29-0.71s-0.11-0.51-0.29-0.7
		c-0.38-0.38-1.05-0.37-1.42,0c-0.007,0.007-0.01,0.019-0.017,0.026c-0.025-0.034-0.053-0.066-0.078-0.101
		c-0.52-0.716-0.97-1.479-1.388-2.262C8.871,43.474,8.934,43.499,9,43.499c0.26,0,0.52-0.101,0.71-0.29
		c0.18-0.181,0.29-0.44,0.29-0.71c0-0.26-0.11-0.521-0.29-0.7c-0.37-0.38-1.05-0.37-1.42,0c-0.076,0.076-0.132,0.172-0.18,0.271
		c-0.25-0.571-0.463-1.16-0.661-1.755c0.164,0.11,0.347,0.184,0.551,0.184c0.27,0,0.52-0.101,0.71-0.29
		c0.189-0.19,0.29-0.44,0.29-0.71c0-0.26-0.11-0.521-0.29-0.7c-0.38-0.38-1.04-0.38-1.42,0c-0.082,0.082-0.144,0.183-0.193,0.29
		c-0.163-0.611-0.301-1.229-0.411-1.858l7.87-6.995c0.771,0.507,1.631,0.881,2.559,1.086c0.556,0.122,1.115,0.184,1.67,0.184
		c1.444,0,2.86-0.41,4.107-1.206c1.726-1.101,2.92-2.808,3.361-4.806c0.277-1.253,0.238-2.527-0.101-3.729L38.126,9.792
		c0.686,0.238,1.392,0.515,2.11,0.836l-0.185,0.555c-0.175,0.524,0.108,1.091,0.632,1.265c0.105,0.035,0.212,0.052,0.316,0.052
		c0.419,0,0.809-0.265,0.948-0.684l0.099-0.297c0.484,0.264,0.952,0.542,1.408,0.833l-0.35,0.701
		c-0.247,0.494-0.047,1.095,0.447,1.342c0.144,0.071,0.296,0.105,0.446,0.105c0.367,0,0.72-0.202,0.896-0.553l0.214-0.429
		c3.379,2.597,5.882,6.051,7.488,10.333l-0.003,0.003l0.182,0.513c0.272,0.766,0.509,1.532,0.719,2.308
		c0.013,0.049,0.026,0.098,0.038,0.147c0.204,0.769,0.382,1.548,0.53,2.348c0.122,0.659,0.204,1.318,0.268,1.976
		c0.012,0.127,0.029,0.252,0.04,0.38c0.126,1.553,0.087,3.095-0.098,4.604c-0.34-0.088-0.726-0.022-0.983,0.228
		c-0.181,0.181-0.29,0.44-0.29,0.71c0,0.261,0.1,0.511,0.29,0.7c0.179,0.18,0.423,0.28,0.668,0.291
		c-0.153,0.713-0.342,1.414-0.564,2.101c-0.372-0.147-0.83-0.083-1.104,0.198c-0.181,0.181-0.29,0.44-0.29,0.71
		c0,0.261,0.109,0.521,0.29,0.7c0.116,0.116,0.259,0.189,0.411,0.239C52.313,42.903,51.842,43.752,51.331,44.576z M56.751,30.812
		c-0.136,0.031-0.282,0.03-0.436,0c-0.004-0.036-0.011-0.07-0.015-0.106c-0.068-0.63-0.153-1.261-0.269-1.891
		c-0.001-0.003-0.001-0.006-0.001-0.009c-0.002-0.012-0.006-0.023-0.008-0.035c-0.141-0.76-0.306-1.489-0.485-2.198
		c-0.019-0.075-0.043-0.149-0.062-0.224c-0.181-0.695-0.381-1.365-0.595-2.013c-0.005-0.015-0.008-0.03-0.013-0.045
		c0.101-0.069,0.204-0.116,0.31-0.142c0.379-0.094,0.752,0.069,0.994,0.219c0.758,0.467,1.401,1.486,1.68,2.66
		C58.314,28.992,57.645,30.599,56.751,30.812z"/>
	<path d="M11.7,41.209c0.189-0.181,0.3-0.44,0.3-0.71c0-0.26-0.101-0.51-0.29-0.7c-0.38-0.38-1.05-0.37-1.42,0
		c-0.19,0.19-0.29,0.44-0.29,0.7c0,0.27,0.109,0.529,0.29,0.71c0.189,0.189,0.439,0.3,0.71,0.3
		C11.26,41.509,11.52,41.399,11.7,41.209z"/>
	<path d="M11.29,42.799c-0.19,0.19-0.29,0.44-0.29,0.7c0,0.27,0.1,0.52,0.29,0.71c0.189,0.189,0.439,0.29,0.71,0.29
		c0.27,0,0.52-0.101,0.71-0.29c0.189-0.19,0.29-0.44,0.29-0.71c0-0.26-0.101-0.51-0.29-0.7C12.33,42.419,11.67,42.419,11.29,42.799z
		"/>
	<path d="M14.29,45.799c-0.181,0.18-0.29,0.44-0.29,0.7c0,0.27,0.109,0.52,0.29,0.71c0.189,0.189,0.439,0.29,0.71,0.29
		c0.26,0,0.52-0.101,0.71-0.29c0.18-0.19,0.29-0.44,0.29-0.71c0-0.26-0.11-0.521-0.29-0.7C15.34,45.419,14.67,45.419,14.29,45.799z"
		/>
	<path d="M17.29,48.799c-0.181,0.18-0.29,0.44-0.29,0.71c0,0.26,0.109,0.52,0.29,0.7c0.189,0.189,0.45,0.3,0.71,0.3
		s0.52-0.11,0.71-0.3c0.18-0.181,0.29-0.44,0.29-0.7c0-0.27-0.11-0.53-0.29-0.72C18.33,48.429,17.67,48.429,17.29,48.799z"/>
	<path d="M22.71,49.799c-0.38-0.38-1.05-0.37-1.42,0c-0.181,0.18-0.29,0.44-0.29,0.7c0,0.27,0.109,0.52,0.29,0.71
		c0.189,0.189,0.439,0.29,0.71,0.29c0.27,0,0.52-0.101,0.71-0.29c0.18-0.19,0.29-0.45,0.29-0.71S22.89,49.989,22.71,49.799z"/>
	<path d="M39.29,48.359c-0.181,0.181-0.29,0.44-0.29,0.71c0,0.261,0.109,0.521,0.29,0.71c0.189,0.181,0.45,0.29,0.71,0.29
		s0.52-0.109,0.71-0.29c0.18-0.189,0.29-0.449,0.29-0.71c0-0.27-0.11-0.529-0.29-0.71C40.33,47.989,39.66,47.989,39.29,48.359z"/>
	<path d="M23.29,51.799c-0.181,0.18-0.29,0.44-0.29,0.71c0,0.26,0.109,0.52,0.29,0.7c0.189,0.189,0.45,0.3,0.71,0.3
		c0.27,0,0.52-0.11,0.7-0.3c0.189-0.181,0.3-0.44,0.3-0.7c0-0.27-0.11-0.53-0.29-0.71C24.34,51.429,23.67,51.429,23.29,51.799z"/>
	<path d="M27.29,50.799c-0.181,0.18-0.29,0.44-0.29,0.71c0,0.26,0.109,0.52,0.29,0.7c0.189,0.189,0.45,0.3,0.71,0.3
		s0.52-0.11,0.7-0.3c0.189-0.181,0.3-0.44,0.3-0.7c0-0.27-0.11-0.53-0.29-0.71C28.33,50.429,27.67,50.429,27.29,50.799z"/>
	<path d="M31.29,50.799c-0.181,0.18-0.29,0.44-0.29,0.71c0,0.26,0.109,0.52,0.29,0.7c0.189,0.189,0.45,0.3,0.71,0.3
		s0.52-0.11,0.71-0.3c0.18-0.181,0.29-0.44,0.29-0.7c0-0.27-0.11-0.53-0.29-0.71C32.34,50.429,31.67,50.429,31.29,50.799z"/>
	<path d="M35.29,49.799c-0.181,0.18-0.29,0.44-0.29,0.7c0,0.27,0.109,0.52,0.29,0.71c0.189,0.189,0.439,0.29,0.71,0.29
		c0.27,0,0.52-0.101,0.71-0.29c0.18-0.19,0.29-0.45,0.29-0.71s-0.11-0.51-0.29-0.7C36.33,49.419,35.66,49.429,35.29,49.799z"/>
	<path d="M51.71,37.359c-0.37-0.369-1.04-0.38-1.42,0c-0.181,0.181-0.29,0.44-0.29,0.71c0,0.261,0.1,0.511,0.29,0.7
		c0.189,0.19,0.45,0.3,0.71,0.3c0.27,0,0.52-0.109,0.71-0.3c0.18-0.18,0.29-0.439,0.29-0.7C52,37.799,51.89,37.539,51.71,37.359z"/>
	<path d="M49.29,41.359c-0.181,0.181-0.29,0.44-0.29,0.71c0,0.261,0.109,0.521,0.29,0.7c0.189,0.19,0.45,0.3,0.71,0.3
		s0.52-0.109,0.7-0.29c0.189-0.189,0.3-0.449,0.3-0.71c0-0.27-0.11-0.529-0.29-0.71C50.33,40.989,49.649,40.989,49.29,41.359z"/>
	<path d="M46,44.068c0.26,0,0.52-0.109,0.71-0.3c0.18-0.18,0.29-0.439,0.29-0.7c0-0.27-0.11-0.52-0.29-0.71
		c-0.38-0.38-1.061-0.369-1.42,0c-0.181,0.181-0.29,0.44-0.29,0.71c0,0.261,0.109,0.521,0.29,0.7
		C45.479,43.959,45.729,44.068,46,44.068z"/>
	<path d="M46.29,45.359c-0.181,0.19-0.29,0.45-0.29,0.71c0,0.261,0.109,0.521,0.29,0.7c0.189,0.19,0.45,0.3,0.71,0.3
		s0.52-0.109,0.71-0.3c0.18-0.18,0.29-0.439,0.29-0.7c0-0.26-0.11-0.52-0.29-0.71C47.33,44.989,46.66,44.989,46.29,45.359z"/>
	<path d="M43.71,45.359c-0.38-0.369-1.05-0.369-1.42,0c-0.181,0.19-0.29,0.44-0.29,0.71c0,0.261,0.109,0.521,0.29,0.7
		c0.189,0.19,0.439,0.3,0.71,0.3c0.26,0,0.52-0.109,0.71-0.3c0.18-0.18,0.29-0.439,0.29-0.7C44,45.799,43.89,45.549,43.71,45.359z"
		/>
	<path d="M39.71,46.209c0.18-0.181,0.29-0.44,0.29-0.7c0-0.27-0.11-0.53-0.29-0.71c-0.38-0.38-1.04-0.38-1.42,0
		c-0.181,0.18-0.29,0.44-0.29,0.71c0,0.26,0.109,0.52,0.29,0.7c0.189,0.189,0.45,0.3,0.71,0.3S39.52,46.399,39.71,46.209z"/>
	<path d="M42.71,43.209c0.18-0.181,0.29-0.44,0.29-0.71c0-0.26-0.11-0.521-0.29-0.7c-0.38-0.38-1.05-0.38-1.42,0
		c-0.181,0.18-0.29,0.44-0.29,0.7c0,0.27,0.109,0.529,0.29,0.71c0.189,0.189,0.45,0.29,0.71,0.29S42.52,43.399,42.71,43.209z"/>
	<path d="M34.71,46.799c-0.37-0.37-1.04-0.38-1.42,0c-0.181,0.18-0.29,0.44-0.29,0.7c0,0.27,0.109,0.529,0.29,0.71
		c0.189,0.189,0.45,0.3,0.71,0.3c0.27,0,0.52-0.11,0.71-0.3c0.18-0.181,0.29-0.44,0.29-0.71C35,47.239,34.89,46.979,34.71,46.799z"
		/>
	<path d="M27.71,49.209c0.18-0.19,0.29-0.45,0.29-0.71s-0.11-0.51-0.29-0.7c-0.38-0.38-1.05-0.37-1.42,0
		c-0.181,0.18-0.29,0.44-0.29,0.7c0,0.27,0.109,0.52,0.29,0.71c0.189,0.189,0.439,0.29,0.71,0.29
		C27.27,49.499,27.52,49.399,27.71,49.209z"/>
	<path d="M18.29,45.799c-0.181,0.18-0.29,0.44-0.29,0.7c0,0.27,0.109,0.52,0.29,0.71c0.189,0.189,0.45,0.29,0.71,0.29
		s0.52-0.101,0.71-0.29c0.18-0.19,0.29-0.44,0.29-0.71c0-0.26-0.11-0.521-0.29-0.7C19.34,45.429,18.66,45.419,18.29,45.799z"/>
	<path d="M14.29,41.799c-0.181,0.18-0.29,0.44-0.29,0.7c0,0.27,0.109,0.529,0.29,0.71c0.189,0.189,0.45,0.29,0.71,0.29
		s0.52-0.101,0.71-0.29c0.18-0.181,0.29-0.44,0.29-0.71c0-0.26-0.11-0.51-0.29-0.7C15.33,41.419,14.66,41.429,14.29,41.799z"/>
	<path d="M14.29,37.799c-0.19,0.19-0.29,0.44-0.29,0.7c0,0.27,0.109,0.529,0.29,0.71c0.189,0.189,0.45,0.3,0.71,0.3
		s0.52-0.11,0.7-0.3c0.189-0.181,0.3-0.44,0.3-0.71c0-0.26-0.101-0.51-0.29-0.7C15.33,37.419,14.67,37.429,14.29,37.799z"/>
	<path d="M22.29,47.799c-0.19,0.18-0.29,0.44-0.29,0.7c0,0.27,0.1,0.52,0.29,0.71c0.189,0.189,0.45,0.29,0.71,0.29
		c0.27,0,0.52-0.101,0.71-0.29c0.18-0.19,0.29-0.44,0.29-0.71c0-0.26-0.11-0.521-0.29-0.7C23.34,47.429,22.67,47.419,22.29,47.799z"
		/>
	<path d="M30.71,47.799c-0.38-0.38-1.061-0.37-1.42,0c-0.181,0.18-0.29,0.44-0.29,0.7c0,0.27,0.109,0.52,0.29,0.71
		c0.18,0.189,0.439,0.29,0.71,0.29c0.26,0,0.52-0.101,0.71-0.29c0.18-0.19,0.29-0.44,0.29-0.71C31,48.239,30.89,47.979,30.71,47.799
		z"/>
	<path d="M43.29,38.799c-0.181,0.18-0.29,0.44-0.29,0.7c0,0.27,0.1,0.52,0.29,0.71c0.189,0.189,0.45,0.29,0.71,0.29
		s0.52-0.101,0.71-0.29c0.189-0.19,0.29-0.45,0.29-0.71s-0.11-0.521-0.29-0.7C44.34,38.429,43.67,38.429,43.29,38.799z"/>
	<path d="M46.29,38.799c-0.181,0.18-0.29,0.44-0.29,0.7c0,0.27,0.1,0.52,0.29,0.71c0.189,0.189,0.45,0.29,0.71,0.29
		s0.52-0.101,0.71-0.29c0.189-0.19,0.29-0.44,0.29-0.71c0-0.26-0.11-0.521-0.29-0.7C47.33,38.429,46.66,38.429,46.29,38.799z"/>
	<path d="M44.29,48.359c-0.19,0.19-0.29,0.45-0.29,0.71c0,0.261,0.1,0.521,0.29,0.71c0.189,0.181,0.45,0.29,0.71,0.29
		s0.52-0.109,0.71-0.29c0.18-0.189,0.29-0.449,0.29-0.71c0-0.27-0.11-0.52-0.29-0.71C45.34,47.989,44.66,47.989,44.29,48.359z"/>
	<path d="M23.999,45.933c0.305,0,0.604-0.138,0.801-0.4c0.332-0.441,0.242-1.068-0.2-1.399l-1.083-0.813
		c1.8-1.695,6.497-5.414,10.973-3.004L33.4,41.133c-0.022,0.016-0.032,0.041-0.052,0.058c-0.018,0.015-0.042,0.021-0.058,0.038
		c-0.03,0.03-0.045,0.073-0.071,0.107c-0.04,0.053-0.079,0.103-0.107,0.162c-0.026,0.052-0.04,0.106-0.057,0.163
		c-0.02,0.069-0.037,0.136-0.042,0.208C33.012,41.893,33,41.914,33,41.939c0,0.039,0.018,0.074,0.023,0.112
		c0.008,0.066,0.018,0.129,0.04,0.194c0.021,0.063,0.052,0.12,0.085,0.178c0.021,0.036,0.027,0.076,0.052,0.11
		c0.012,0.016,0.031,0.021,0.044,0.036c0.018,0.022,0.027,0.05,0.046,0.07c0.053,0.054,0.122,0.083,0.185,0.122
		c0.041,0.026,0.075,0.059,0.118,0.078c0.098,0.043,0.202,0.061,0.308,0.071c0.034,0.004,0.065,0.023,0.099,0.023
		c0.12,0,0.239-0.028,0.354-0.073c0.031-0.012,0.058-0.031,0.088-0.046c0.052-0.026,0.108-0.045,0.156-0.082l4-3
		c0.442-0.331,0.532-0.958,0.2-1.399c-0.331-0.443-0.959-0.531-1.399-0.2l-1.205,0.904c-5.373-3.601-11.331,0.053-14.312,3.06
		L20.6,41.133c-0.44-0.331-1.067-0.242-1.399,0.2c-0.332,0.441-0.242,1.068,0.2,1.399l4,3C23.58,45.867,23.79,45.933,23.999,45.933z
		"/>
	<path d="M39,32.504c3.859,0,7-3.141,7-7s-3.141-7-7-7s-7,3.141-7,7S35.141,32.504,39,32.504z M39,30.504
		c-2.195,0-4.044-1.432-4.715-3.404l9.363-3.405C43.868,24.258,44,24.865,44,25.504C44,28.261,41.757,30.504,39,30.504z M39,20.504
		c1.38,0,2.63,0.562,3.536,1.469l-8.491,3.088C34.273,22.514,36.395,20.504,39,20.504z"/>
	<circle cx="38" cy="27.504" r="1"/>
</g>
<g>
</g>
<g>
</g>
<g>
</g>
<g>
</g>
<g>
</g>
<g>
</g>
<g>
</g>
<g>
</g>
<g>
</g>
<g>
</g>
<g>
</g>
<g>
</g>
<g>
</g>
<g>
</g>
<g>
</g>
</svg>
