<?xml version="1.0" encoding="iso-8859-1"?>
<!-- Generator: Adobe Illustrator 19.0.0, SVG Export Plug-In . SVG Version: 6.00 Build 0)  -->
<svg version="1.1" id="Capa_1" xmlns="http://www.w3.org/2000/svg" xmlns:xlink="http://www.w3.org/1999/xlink" x="0px" y="0px"
	 viewBox="0 0 463 463" style="enable-background:new 0 0 463 463;" xml:space="preserve">
<g>
	<path d="M368.122,148.674c-10.042-24.796-32.635-41.566-58.795-44.278V95h8.5c4.143,0,7.5-3.358,7.5-7.5v-64
		c0-12.958-10.542-23.5-23.5-23.5s-23.5,10.542-23.5,23.5v8.525c-0.166-0.011-0.331-0.025-0.5-0.025h-16.5v-8.5
		c0-4.142-3.357-7.5-7.5-7.5h-47.998c-12.958,0-23.5,10.542-23.5,23.5c0,2.131,0.29,4.194,0.824,6.158l-81.972,113.263
		c-0.226,0.226-0.438,0.462-0.654,0.696c-0.139,0.151-0.272,0.306-0.407,0.461c-0.374,0.428-0.735,0.866-1.076,1.319
		c-0.094,0.125-0.184,0.254-0.275,0.381c-0.341,0.472-0.667,0.953-0.971,1.449c-0.219,0.356-0.43,0.716-0.63,1.084
		c-0.142,0.263-0.277,0.528-0.408,0.796c-0.226,0.457-0.439,0.921-0.635,1.394c-0.076,0.185-0.149,0.371-0.221,0.559
		c-0.22,0.569-0.419,1.149-0.595,1.739c-0.032,0.107-0.062,0.215-0.092,0.322c-0.185,0.655-0.343,1.321-0.471,1.997
		c-0.007,0.035-0.018,0.068-0.024,0.103c-0.019,0.102-0.031,0.204-0.049,0.306c-0.036,0.21-0.071,0.421-0.101,0.634
		c-0.03,0.21-0.056,0.42-0.08,0.63c-0.018,0.156-0.036,0.311-0.051,0.467c-0.029,0.297-0.051,0.595-0.068,0.892
		c-0.004,0.068-0.009,0.136-0.012,0.204c-0.26,5.122,1.152,10.163,4.107,14.461l76.122,110.723
		c-0.164,1.299-0.258,2.619-0.258,3.961c0,3.24,0.493,6.367,1.406,9.311l-5.995,3.598c-7.038,4.223-11.41,11.944-11.41,20.151V352
		h-0.5c-4.143,0-7.5,3.358-7.5,7.5V416h-24.5c-4.143,0-7.5,3.358-7.5,7.5V448h-16.5c-4.143,0-7.5,3.358-7.5,7.5s3.357,7.5,7.5,7.5
		h208c4.143,0,7.5-3.358,7.5-7.5s-3.357-7.5-7.5-7.5h-16.5v-24.5c0-4.142-3.357-7.5-7.5-7.5h-24.5v-56.5c0-4.142-3.357-7.5-7.5-7.5
		h-0.5v-15.441c0-8.207-4.371-15.928-11.409-20.151l-5.996-3.598c0.913-2.944,1.405-6.07,1.405-9.31
		c0-14.79-10.248-27.225-24.015-30.594l-67.999-98.907L205.827,63c0,0,0.001,0,0.001,0h47.998c4.143,0,7.5-3.358,7.5-7.5V47h16.5
		c0.169,0,0.334-0.014,0.5-0.025V87.5c0,4.142,3.357,7.5,7.5,7.5h8.5v9.396c-26.165,2.712-48.76,19.487-58.8,44.291
		c-1.554,3.839,0.299,8.212,4.138,9.766c0.922,0.373,1.875,0.55,2.812,0.55c2.966,0,5.774-1.77,6.955-4.688
		c7.732-19.102,24.888-32.176,44.896-34.814v9.097c-22.64,3.607-40,23.263-40,46.902c0,26.191,21.309,47.5,47.5,47.5
		s47.5-21.309,47.5-47.5c0-23.64-17.36-43.295-40-46.902V119.5c20.003,2.638,37.158,15.708,44.893,34.804
		c1.555,3.839,5.93,5.69,9.767,4.136C367.825,156.886,369.677,152.513,368.122,148.674z M110.787,180.256
		c-0.021-0.032-0.039-0.064-0.06-0.096c-0.13-0.198-0.256-0.399-0.369-0.607c-0.012-0.021-0.021-0.044-0.032-0.065
		c-0.505-0.947-0.839-1.999-0.953-3.115c-0.001-0.011-0.001-0.022-0.002-0.033c-0.026-0.267-0.04-0.536-0.041-0.809
		c0-0.071,0.006-0.142,0.008-0.213c0.004-0.208,0.012-0.415,0.031-0.619c0.012-0.126,0.033-0.252,0.051-0.378
		c0.021-0.151,0.04-0.303,0.069-0.451c0.026-0.132,0.06-0.26,0.092-0.389c0.036-0.148,0.07-0.298,0.114-0.443
		c0.028-0.094,0.064-0.185,0.095-0.277c0.062-0.181,0.124-0.363,0.197-0.538c0.017-0.042,0.038-0.081,0.056-0.122
		c0.65-1.483,1.708-2.748,3.036-3.646c0.002-0.001,0.004-0.002,0.005-0.003c1.356-0.916,2.989-1.451,4.744-1.451
		c0.285,0,0.567,0.015,0.845,0.043c0.042,0.004,0.084,0.012,0.126,0.017c0.235,0.027,0.468,0.061,0.697,0.107
		c0.068,0.014,0.135,0.033,0.203,0.048c0.21,0.047,0.419,0.098,0.623,0.161c0.045,0.014,0.088,0.031,0.133,0.045
		c0.23,0.075,0.457,0.155,0.677,0.249c0.001,0,0.002,0.001,0.004,0.001c3.048,1.292,5.192,4.315,5.192,7.83
		c0,4.687-3.813,8.5-8.5,8.5C114.903,184,112.317,182.513,110.787,180.256z M135.409,159.93c-0.24-0.271-0.487-0.536-0.739-0.795
		c-0.316-0.326-0.638-0.642-0.971-0.948c-0.13-0.119-0.264-0.234-0.397-0.351c-0.451-0.396-0.913-0.777-1.392-1.137
		c-0.076-0.057-0.154-0.11-0.23-0.166c-0.523-0.383-1.057-0.746-1.609-1.083c-0.264-0.162-0.534-0.316-0.805-0.467
		c-0.357-0.199-0.717-0.392-1.084-0.572c-0.434-0.214-0.875-0.417-1.324-0.604c-0.211-0.087-0.424-0.17-0.639-0.252
		c-0.542-0.208-1.093-0.397-1.653-0.565c-0.14-0.042-0.281-0.081-0.422-0.12c-0.019-0.005-0.037-0.01-0.056-0.016l63.505-87.746
		l-51.875,95.155C135.62,160.146,135.51,160.044,135.409,159.93z M123.234,198.366c5.783-1.367,10.748-4.872,14.005-9.636
		l58.414,84.967c-5.512,1.887-10.341,5.257-14.002,9.64L123.234,198.366z M278.329,448h-145v-17h145V448z M165.329,416v-49h81v49
		H165.329z M234.202,329.27c2.546,1.528,4.127,4.321,4.127,7.289V352h-65v-15.441c0-2.968,1.581-5.761,4.127-7.289l6.013-3.608
		c5.711,5.762,13.625,9.338,22.36,9.338s16.648-3.576,22.36-9.338L234.202,329.27z M222.329,303.5c0,9.098-7.402,16.5-16.5,16.5
		s-16.5-7.402-16.5-16.5s7.402-16.5,16.5-16.5S222.329,294.402,222.329,303.5z M246.327,48h-40.498c-4.687,0-8.5-3.813-8.5-8.5
		s3.813-8.5,8.5-8.5h40.498V48z M301.827,15c4.687,0,8.5,3.813,8.5,8.5V48h-17V23.5C293.327,18.813,297.14,15,301.827,15z
		 M293.327,63h17v17h-17V63z M334.327,175.5c0,17.921-14.579,32.5-32.5,32.5s-32.5-14.579-32.5-32.5s14.579-32.5,32.5-32.5
		S334.327,157.579,334.327,175.5z"/>
	<circle cx="301.827" cy="175.5" r="7.5"/>
</g>
<g>
</g>
<g>
</g>
<g>
</g>
<g>
</g>
<g>
</g>
<g>
</g>
<g>
</g>
<g>
</g>
<g>
</g>
<g>
</g>
<g>
</g>
<g>
</g>
<g>
</g>
<g>
</g>
<g>
</g>
</svg>
