<?xml version="1.0" encoding="iso-8859-1"?>
<!-- Generator: Adobe Illustrator 19.0.0, SVG Export Plug-In . SVG Version: 6.00 Build 0)  -->
<svg version="1.1" id="Layer_1" xmlns="http://www.w3.org/2000/svg" xmlns:xlink="http://www.w3.org/1999/xlink" x="0px" y="0px"
	 viewBox="0 0 320 320" style="enable-background:new 0 0 320 320;" xml:space="preserve">
<g id="XMLID_803_">
	<g>
		<path d="M280,230c0-20.501-12.344-38.111-30-45.828V112c0-39.186-25.045-72.516-60-84.871V0h-60v27.129
			C95.045,39.484,70,72.814,70,112v72.172C52.344,191.889,40,209.499,40,230c16.445,0,43.598,0,74.188,0
			c-2.687,6.129-4.188,12.891-4.188,20c0,20.461,12.359,38.081,30,45.813V320h40v-24.188c17.641-7.731,30-25.352,30-45.813
			c0-7.109-1.501-13.871-4.188-20C236.734,230,263.994,230,280,230z M178.835,273.326C176.085,265.567,168.702,260,160,260
			c-8.702,0-16.085,5.567-18.835,13.326C134.361,267.822,130,259.412,130,250c0-7.678,2.902-14.689,7.664-20
			c14.783,0,29.914,0,44.672,0c4.762,5.311,7.664,12.322,7.664,20C190,259.412,185.639,267.822,178.835,273.326z"/>
	</g>
</g>
<g>
</g>
<g>
</g>
<g>
</g>
<g>
</g>
<g>
</g>
<g>
</g>
<g>
</g>
<g>
</g>
<g>
</g>
<g>
</g>
<g>
</g>
<g>
</g>
<g>
</g>
<g>
</g>
<g>
</g>
</svg>
