<?xml version="1.0" encoding="iso-8859-1"?>
<!-- Generator: Adobe Illustrator 18.0.0, SVG Export Plug-In . SVG Version: 6.00 Build 0)  -->
<!DOCTYPE svg PUBLIC "-//W3C//DTD SVG 1.1//EN" "http://www.w3.org/Graphics/SVG/1.1/DTD/svg11.dtd">
<svg version="1.1" id="Capa_1" xmlns="http://www.w3.org/2000/svg" xmlns:xlink="http://www.w3.org/1999/xlink" x="0px" y="0px"
	 viewBox="0 0 44 44" style="enable-background:new 0 0 44 44;" xml:space="preserve">
<g>
	<path d="M33,26h-7h-4h-4h-7c-0.553,0-1,0.447-1,1c0,6.617,5.383,12,12,12s12-5.383,12-12C34,26.447,33.553,26,33,26z M23,28h2v2h-2
		V28z M21,28v3v1h-2v-4H21z M22,37c-5.177,0-9.447-3.954-9.95-9H17v5c0,0.553,0.447,1,1,1h4c0.553,0,1-0.447,1-1v-1h3
		c0.553,0,1-0.447,1-1v-3h4.95C31.447,33.046,27.177,37,22,37z"/>
	<circle cx="31" cy="15" r="3"/>
	<path d="M31,8c-3.859,0-7,3.141-7,7s3.141,7,7,7s7-3.141,7-7S34.859,8,31,8z M31,20c-2.757,0-5-2.243-5-5s2.243-5,5-5s5,2.243,5,5
		S33.757,20,31,20z"/>
	<path d="M22,0C9.869,0,0,9.869,0,22s9.869,22,22,22s22-9.869,22-22S34.131,0,22,0z M22,2c2.441,0,4.771,0.461,6.935,1.265
		l-8.549,6.218c-0.052-0.09-0.097-0.182-0.154-0.27c-0.731-1.147-1.574-1.811-2.575-2.027c-1.768-0.387-3.492,0.732-5.483,2.024
		l-1.472,0.938c-2.011,1.261-3.748,2.35-4.146,4.117c-0.225,1,0.021,2.043,0.754,3.189c0.197,0.309,0.416,0.596,0.648,0.867
		l-5.911,4.597C2.033,22.612,2,22.31,2,22C2,10.972,10.972,2,22,2z M8.995,16.38c-0.43-0.674-0.59-1.222-0.488-1.675
		c0.216-0.955,1.625-1.839,3.258-2.862l1.498-0.955c1.459-0.947,2.739-1.777,3.679-1.777c0.101,0,0.198,0.01,0.291,0.029
		c0.454,0.099,0.884,0.475,1.314,1.149c1.679,2.633,0.903,6.142-1.729,7.822C14.182,19.788,10.675,19.014,8.995,16.38z M22,42
		c-9.915,0-18.144-7.259-19.71-16.737l7.188-5.59c1.276,0.862,2.779,1.324,4.305,1.324c1.409,0,2.835-0.388,4.109-1.2
		c2.876-1.835,4.112-5.283,3.286-8.418l9.881-7.186C37.542,7.505,42,14.234,42,22C42,33.028,33.028,42,22,42z"/>
</g>
<g>
</g>
<g>
</g>
<g>
</g>
<g>
</g>
<g>
</g>
<g>
</g>
<g>
</g>
<g>
</g>
<g>
</g>
<g>
</g>
<g>
</g>
<g>
</g>
<g>
</g>
<g>
</g>
<g>
</g>
</svg>
