<?xml version="1.0" encoding="iso-8859-1"?>
<!-- Generator: Adobe Illustrator 18.0.0, SVG Export Plug-In . SVG Version: 6.00 Build 0)  -->
<!DOCTYPE svg PUBLIC "-//W3C//DTD SVG 1.1//EN" "http://www.w3.org/Graphics/SVG/1.1/DTD/svg11.dtd">
<svg version="1.1" id="Capa_1" xmlns="http://www.w3.org/2000/svg" xmlns:xlink="http://www.w3.org/1999/xlink" x="0px" y="0px"
	 viewBox="0 0 52.001 52.001" style="enable-background:new 0 0 52.001 52.001;" xml:space="preserve">
<g>
	<circle cx="18" cy="27.339" r="2"/>
	<circle cx="32" cy="27.339" r="2"/>
	<path d="M34.8,33.54c-0.442-0.33-1.068-0.242-1.4,0.2c-0.332,0.441-0.242,1.068,0.2,1.399l0.737,0.552
		c-1.041,1.251-3.709,4.032-7.247,4.56c-2.264,0.333-4.547-0.323-6.792-1.936l0.502-0.376c0.442-0.331,0.531-0.958,0.2-1.399
		c-0.331-0.442-0.957-0.53-1.4-0.2l-2.8,2.1c-0.442,0.331-0.531,0.958-0.2,1.399c0.197,0.263,0.497,0.4,0.801,0.4
		c0.208,0,0.419-0.065,0.599-0.2l0.625-0.469c2.364,1.839,4.805,2.771,7.277,2.771c0.498,0,0.998-0.038,1.498-0.113
		c4.297-0.648,7.37-3.896,8.541-5.332l0.459,0.344c0.18,0.135,0.391,0.2,0.599,0.2c0.304,0,0.604-0.138,0.801-0.4
		c0.332-0.441,0.242-1.068-0.2-1.399L34.8,33.54z"/>
	<path d="M51.876,10.238c-0.381-2.19-1.592-4.102-3.409-5.381c-1.817-1.28-4.023-1.775-6.216-1.395
		c-3.012,0.524-5.367,2.617-6.37,5.292c-3.461-5.34-10.934-5.65-15.031-4.874C6.26,6.488,3.205,21.494,3.175,21.645l0,0
		C1.39,22.624,0,24.971,0,27.164c0,2.153,1.268,4.089,3.208,4.979C5.704,41.897,14.385,48.664,24.5,48.664
		c10.115,0,18.796-6.767,21.292-16.521C47.731,31.253,49,29.317,49,27.164c0-2.078-1.306-4.208-3.112-5.187
		c-0.147-0.73-0.347-1.453-0.57-2.169c0.682-0.137,1.339-0.344,1.952-0.636c1.323-0.553,2.396-1.326,3.068-2.386
		c0.063-0.1,0.106-0.207,0.131-0.316c0.005-0.006,0.009-0.012,0.014-0.019C51.762,14.634,52.257,12.427,51.876,10.238z M47,27.164
		c0,1.486-0.956,2.812-2.38,3.296c-0.327,0.111-0.574,0.384-0.652,0.721C41.86,40.297,33.854,46.664,24.5,46.664
		c-9.354,0-17.36-6.367-19.468-15.483c-0.078-0.337-0.324-0.609-0.652-0.721C2.957,29.975,2,28.65,2,27.164
		c0-1.546,1.129-3.402,2.369-3.895c0.166-0.066,0.309-0.174,0.416-0.31c1.113-1.004,11.635-8.01,19.323-5.146
		c2.782,1.035,5.092,1.661,7.27,1.971c0.368,0.052,0.785,0.107,1.23,0.161c0.326,0.04,0.664,0.077,1.007,0.115
		c0.078,0.008,0.15,0.017,0.229,0.025c2.949,0.311,6.428,0.479,9.501,0.072c0.286,0.88,0.512,1.779,0.672,2.681
		c0.06,0.342,0.293,0.627,0.615,0.755C45.937,24.113,47,25.715,47,27.164z M48.847,15.3c-0.64,0.909-1.488,1.619-2.468,2.08
		c-0.724,0.286-1.572,0.5-2.502,0.658c-0.012,0.002-0.024-0.002-0.036,0c-1.428,0.243-2.982,0.335-4.52,0.34
		c-0.164,0-0.327,0.002-0.492,0c-0.106-0.001-0.211-0.004-0.317-0.006c-0.212-0.004-0.424-0.008-0.638-0.015
		c-0.102-0.003-0.203-0.007-0.305-0.011c-0.219-0.008-0.438-0.018-0.659-0.029c-0.099-0.005-0.197-0.01-0.295-0.016
		c-0.239-0.014-0.479-0.029-0.72-0.046c-0.073-0.005-0.148-0.01-0.22-0.015c-0.298-0.022-0.597-0.047-0.895-0.074
		c-0.091-0.008-0.179-0.017-0.269-0.026c-0.221-0.021-0.443-0.043-0.664-0.067c-0.092-0.01-0.185-0.02-0.276-0.03
		c-0.285-0.031-0.57-0.065-0.853-0.1c-0.056-0.007-0.108-0.014-0.162-0.021c-0.301-0.039-0.602-0.078-0.9-0.121
		c-2.032-0.288-4.209-0.881-6.854-1.865c-0.406-0.151-0.816-0.278-1.23-0.384c-6.702-1.77-14.071,1.802-17.718,3.979
		c1.454-4.092,5.48-11.921,15.354-13.686c0.02-0.004,1.334-0.246,3.167-0.246c1.015,0,2.189,0.074,3.392,0.305
		c4.335,0.833,6.93,3.257,7.712,7.204c0.106,0.537,0.625,0.886,1.164,0.789c0.538-0.101,0.896-0.615,0.802-1.154
		c-0.597-3.435,1.711-6.714,5.146-7.312c1.668-0.288,3.342,0.087,4.722,1.059c1.381,0.973,2.301,2.424,2.59,4.088
		S49.818,13.92,48.847,15.3z"/>
</g>
<g>
</g>
<g>
</g>
<g>
</g>
<g>
</g>
<g>
</g>
<g>
</g>
<g>
</g>
<g>
</g>
<g>
</g>
<g>
</g>
<g>
</g>
<g>
</g>
<g>
</g>
<g>
</g>
<g>
</g>
</svg>
