<?xml version="1.0" encoding="iso-8859-1"?>
<!-- Generator: Adobe Illustrator 19.0.0, SVG Export Plug-In . SVG Version: 6.00 Build 0)  -->
<svg version="1.1" id="Layer_1" xmlns="http://www.w3.org/2000/svg" xmlns:xlink="http://www.w3.org/1999/xlink" x="0px" y="0px"
	 viewBox="0 0 490 490" style="enable-background:new 0 0 490 490;" xml:space="preserve">
<g id="XMLID_869_">
	<g>
		<path d="M460,322.5v-270H30v270H0v50c0,35.841,29.159,65,65,65h360c35.841,0,65-29.159,65-65v-50H460z M60,82.5h370v240h-30v-210
			H90v210H60V82.5z M370,142.5v180H120v-180H370z M460,372.5c0,19.299-15.701,35-35,35H65c-19.299,0-35-15.701-35-35v-20h200v30h30
			v-30h200V372.5z"/>
	</g>
</g>
<g>
</g>
<g>
</g>
<g>
</g>
<g>
</g>
<g>
</g>
<g>
</g>
<g>
</g>
<g>
</g>
<g>
</g>
<g>
</g>
<g>
</g>
<g>
</g>
<g>
</g>
<g>
</g>
<g>
</g>
</svg>
