<?xml version="1.0" encoding="iso-8859-1"?>
<!-- Generator: Adobe Illustrator 18.0.0, SVG Export Plug-In . SVG Version: 6.00 Build 0)  -->
<!DOCTYPE svg PUBLIC "-//W3C//DTD SVG 1.1//EN" "http://www.w3.org/Graphics/SVG/1.1/DTD/svg11.dtd">
<svg version="1.1" id="Capa_1" xmlns="http://www.w3.org/2000/svg" xmlns:xlink="http://www.w3.org/1999/xlink" x="0px" y="0px"
	 viewBox="0 0 53 53" style="enable-background:new 0 0 53 53;" xml:space="preserve">
<g>
	<path d="M34.5,37h-4h-4h-4h-4c-0.553,0-1,0.447-1,1s0.447,1,1,1h3v5c0,0.553,0.447,1,1,1h4c0.553,0,1-0.447,1-1v-1h3
		c0.553,0,1-0.447,1-1v-3h3c0.553,0,1-0.447,1-1S35.053,37,34.5,37z M25.5,43h-2v-4h2v3V43z M29.5,41h-2v-2h2V41z"/>
	<path d="M43.5,6h-9V2.306C34.5,1.034,33.466,0,32.194,0H20.806C19.534,0,18.5,1.034,18.5,2.306V6h-9c-2.757,0-5,2.243-5,5v33
		c0,2.757,2.243,5,5,5h3v1.694c0,1.271,1.034,2.306,2.306,2.306h23.389c1.271,0,2.306-1.034,2.306-2.306V49h3c2.757,0,5-2.243,5-5
		V11C48.5,8.243,46.257,6,43.5,6z M20.5,2.306C20.5,2.137,20.637,2,20.806,2h11.389C32.363,2,32.5,2.137,32.5,2.306V6h-12V2.306z
		 M9.5,8h9h16h9c1.654,0,3,1.346,3,3v5.541l-5.24,4.491C39.996,19.203,37.887,18,35.5,18c-3.021,0-5.593,1.927-6.572,4.614
		C28.257,22.233,27.425,22,26.5,22s-1.757,0.233-2.428,0.614C23.093,19.927,20.521,18,17.5,18c-2.387,0-4.496,1.203-5.76,3.032
		L6.5,16.541V11C6.5,9.346,7.846,8,9.5,8z M40.5,25c0,2.757-2.243,5-5,5s-5-2.243-5-5s2.243-5,5-5S40.5,22.243,40.5,25z M17.5,20
		c2.757,0,5,2.243,5,5s-2.243,5-5,5s-5-2.243-5-5S14.743,20,17.5,20z M38.5,50.694c0,0.169-0.137,0.306-0.306,0.306H14.806
		c-0.169,0-0.306-0.137-0.306-0.306V49h24V50.694z M43.5,47h-3h-28h-3c-1.654,0-3-1.346-3-3V19.173l4.329,3.71
		C10.616,23.552,10.5,24.262,10.5,25c0,3.859,3.141,7,7,7s7-3.141,7-7c0-0.408,0.779-1,2-1s2,0.592,2,1c0,3.859,3.141,7,7,7
		s7-3.141,7-7c0-0.738-0.116-1.448-0.329-2.116l4.329-3.71V44C46.5,45.654,45.154,47,43.5,47z"/>
	<path d="M13.3,35.76c0.26,0,0.52-0.11,0.71-0.29c0.18-0.19,0.29-0.45,0.29-0.71s-0.11-0.52-0.3-0.71c-0.37-0.37-1.03-0.37-1.41,0
		c-0.19,0.19-0.29,0.45-0.29,0.71s0.1,0.52,0.29,0.71S13.03,35.76,13.3,35.76z"/>
	<path d="M12.79,38.29c-0.181,0.189-0.29,0.45-0.29,0.71c0,0.27,0.109,0.52,0.29,0.71C12.979,39.89,13.229,40,13.5,40
		c0.26,0,0.52-0.11,0.71-0.29c0.18-0.19,0.29-0.44,0.29-0.71c0-0.26-0.11-0.521-0.29-0.71C13.83,37.92,13.16,37.92,12.79,38.29z"/>
	<path d="M9.29,39.17C9.109,39.359,9,39.609,9,39.87c0,0.27,0.109,0.529,0.29,0.71c0.189,0.189,0.45,0.3,0.71,0.3
		s0.52-0.11,0.71-0.3c0.18-0.181,0.29-0.44,0.29-0.71c0-0.261-0.101-0.511-0.29-0.71C10.33,38.79,9.66,38.8,9.29,39.17z"/>
	<path d="M38.99,34.05c-0.181,0.19-0.29,0.45-0.29,0.71s0.109,0.52,0.29,0.71c0.189,0.18,0.449,0.29,0.71,0.29
		c0.27,0,0.52-0.1,0.71-0.29c0.189-0.19,0.29-0.45,0.29-0.71s-0.101-0.52-0.29-0.71C40.03,33.68,39.37,33.68,38.99,34.05z"/>
	<path d="M38.79,38.29C38.6,38.479,38.5,38.729,38.5,39c0,0.27,0.109,0.529,0.29,0.71C38.979,39.89,39.229,40,39.5,40
		c0.27,0,0.52-0.11,0.71-0.29c0.18-0.19,0.29-0.45,0.29-0.71s-0.11-0.521-0.29-0.71C39.84,37.92,39.16,37.92,38.79,38.29z"/>
	<path d="M42.29,39.17C42.1,39.359,42,39.62,42,39.87c0,0.27,0.1,0.529,0.29,0.71c0.189,0.189,0.45,0.3,0.71,0.3s0.52-0.11,0.7-0.3
		c0.189-0.181,0.3-0.44,0.3-0.71c0-0.261-0.101-0.511-0.3-0.71C43.34,38.8,42.67,38.79,42.29,39.17z"/>
</g>
<g>
</g>
<g>
</g>
<g>
</g>
<g>
</g>
<g>
</g>
<g>
</g>
<g>
</g>
<g>
</g>
<g>
</g>
<g>
</g>
<g>
</g>
<g>
</g>
<g>
</g>
<g>
</g>
<g>
</g>
</svg>
