<?xml version="1.0" encoding="iso-8859-1"?>
<!-- Generator: Adobe Illustrator 19.0.0, SVG Export Plug-In . SVG Version: 6.00 Build 0)  -->
<svg version="1.1" id="Capa_1" xmlns="http://www.w3.org/2000/svg" xmlns:xlink="http://www.w3.org/1999/xlink" x="0px" y="0px"
	 viewBox="0 0 53.901 53.901" style="enable-background:new 0 0 53.901 53.901;" xml:space="preserve">
<g>
	<g>
		<path d="M52.34,28.745c-1.21-2.719-2.967-5.017-4.947-6.468c-2.144-1.573-4.32-1.994-6.124-1.19
			c-3.586,1.596-4.341,7.461-1.718,13.352c1.21,2.719,2.967,5.017,4.947,6.468c1.434,1.052,2.881,1.589,4.223,1.589
			c0.665,0,1.304-0.132,1.902-0.398h-0.001C54.208,40.501,54.963,34.636,52.34,28.745z M49.81,40.271
			C49.809,40.271,49.809,40.271,49.81,40.271c-1.122,0.499-2.589,0.153-4.129-0.977c-1.704-1.249-3.232-3.263-4.304-5.668
			c-2.094-4.705-1.771-9.61,0.705-10.713c0.335-0.149,0.7-0.223,1.09-0.223c0.914,0,1.958,0.407,3.038,1.199
			c1.704,1.249,3.232,3.263,4.304,5.668C52.608,34.263,52.285,39.168,49.81,40.271z"/>
		<path d="M48.099,45.225c-3.753,0.708-8.831-3.779-11.557-10.202c-2.049-4.826-2.455-9.845-1.061-13.096
			c0.151-0.352,0.088-0.759-0.162-1.049c-0.251-0.289-0.646-0.408-1.014-0.313c-6.688,1.778-11.36,8.163-11.36,15.526
			c0,8.822,6.729,16,15,16c4.215,0,8.261-1.908,11.098-5.234c0.275-0.323,0.317-0.783,0.104-1.15
			C48.937,45.341,48.52,45.152,48.099,45.225z M37.946,50.092c-7.168,0-13-6.28-13-14c0-5.766,3.237-10.84,8.068-12.961
			c-0.788,3.589-0.195,8.238,1.687,12.673C37.33,42,41.743,46.347,45.903,47.16C43.64,49.043,40.836,50.092,37.946,50.092z"/>
		<path d="M21.862,42.691c-1.188-2.717-2.424-8.739-2.437-8.8c-0.077-0.379-0.366-0.679-0.741-0.771
			c-0.375-0.093-0.771,0.04-1.015,0.34c-1.143,1.407-6.789,8.596-5.672,11.947c1.102,3.31,10.441,5.176,13.277,5.669
			c0.057,0.01,0.114,0.015,0.171,0.015c0.345,0,0.67-0.179,0.854-0.479c0.214-0.351,0.191-0.796-0.056-1.123
			C26.21,49.444,22.89,45.04,21.862,42.691z M13.894,44.775c-0.476-1.43,1.787-5.305,4.036-8.375c0.484,2.089,1.285,5.23,2.1,7.092
			c0.645,1.474,2.026,3.569,3.111,5.122C18.645,47.608,14.318,46.045,13.894,44.775z"/>
		<path d="M17.291,23.138c6.538,0,10.563-2.864,10.742-2.995c0.438-0.318,0.543-0.929,0.236-1.375
			C27.891,18.217,18.895,5.278,9.94,5.094C6.784,5.04,4.046,6.521,1.791,9.528c-2.293,3.058-1.97,5.443-1.294,6.906
			c1.997,4.326,9.254,6.276,15.379,6.659C16.361,23.124,16.832,23.138,17.291,23.138z M2.313,15.597
			c-0.65-1.409-0.287-3.047,1.078-4.869c1.834-2.445,3.913-3.636,6.352-3.636c0.051,0,0.102,0,0.154,0.002
			c6.704,0.137,13.962,9.103,16.101,11.95c-1.546,0.836-5.102,2.358-9.996,2.054C9.135,20.669,3.634,18.458,2.313,15.597z"/>
		<path d="M30.445,18.02c0.05,0,0.1-0.004,0.149-0.011c0.251-0.038,6.191-0.972,8.615-5.167c1.152-1.997,1.799-4.144,1.82-6.047
			c0.023-2.11-0.717-3.708-2.084-4.497c-2.669-1.539-6.738,0.673-9.264,5.044c-2.422,4.195-0.26,9.808-0.167,10.044
			C29.667,17.773,30.039,18.02,30.445,18.02z M31.414,8.342c1.701-2.946,4.063-4.528,5.644-4.528c0.336,0,0.637,0.071,0.888,0.217
			c0.704,0.406,1.1,1.406,1.084,2.742c-0.018,1.565-0.568,3.365-1.553,5.069c-1.469,2.543-4.809,3.634-6.36,4.016
			C30.671,14.322,29.946,10.885,31.414,8.342z"/>
	</g>
</g>
<g>
</g>
<g>
</g>
<g>
</g>
<g>
</g>
<g>
</g>
<g>
</g>
<g>
</g>
<g>
</g>
<g>
</g>
<g>
</g>
<g>
</g>
<g>
</g>
<g>
</g>
<g>
</g>
<g>
</g>
</svg>
