<?xml version="1.0" encoding="iso-8859-1"?>
<!-- Generator: Adobe Illustrator 19.0.0, SVG Export Plug-In . SVG Version: 6.00 Build 0)  -->
<svg version="1.1" id="Layer_1" xmlns="http://www.w3.org/2000/svg" xmlns:xlink="http://www.w3.org/1999/xlink" x="0px" y="0px"
	 viewBox="0 0 512 512" style="enable-background:new 0 0 512 512;" xml:space="preserve">
<g>
	<g>
		<g>
			<path d="M503.467,477.867H390.153l-15.121-45.363c-1.161-3.49-4.42-5.837-8.098-5.837h-26.086L324.25,144.563
				c-0.282-4.702-4.429-8.38-9.02-8.013c-4.702,0.273-8.294,4.309-8.013,9.02l16.529,281.097h-25.079v-34.133
				c0-4.71-3.823-8.533-8.533-8.533s-8.533,3.823-8.533,8.533v34.133h-17.067V384c0-4.71-3.823-8.533-8.533-8.533
				s-8.533,3.823-8.533,8.533v42.667H230.4v-51.2c0-4.71-3.823-8.533-8.533-8.533c-4.71,0-8.533,3.823-8.533,8.533v51.2h-25.037
				l4.045-62.925c0.299-4.702-3.268-8.755-7.979-9.062c-4.642-0.29-8.747,3.277-9.062,7.979l-4.105,64.009h-26.129
				c-3.678,0-6.938,2.347-8.098,5.837l-15.121,45.363H8.533C3.823,477.867,0,481.69,0,486.4c0,4.71,3.823,8.533,8.533,8.533h375.441
				H384h0.026h119.441c4.71,0,8.533-3.823,8.533-8.533C512,481.69,508.177,477.867,503.467,477.867z M139.844,477.867l11.375-34.133
				h209.562l11.375,34.133H139.844z"/>
			<path d="M34.133,145.067h19.934c3.516,5.803,11.025,13.833,26.53,24.166c22.869,15.249,62.754,17.929,76.655,18.398
				c7.484,10.633,19.115,14.677,27.008,16.222l-7.569,128.64c-0.23,3.951,2.278,7.543,6.067,8.67l113.459,33.946
				c0.819,0.247,1.638,0.358,2.449,0.358c3.678,0,7.066-2.389,8.175-6.084c1.348-4.523-1.212-9.276-5.726-10.624L194.125,326.75
				l4.446-75.52c26.803,41.566,61.303,54.81,63.019,55.441c0.973,0.358,1.963,0.529,2.944,0.529c3.456,0,6.707-2.133,7.987-5.564
				c1.638-4.403-0.614-9.318-5.018-10.974c-0.427-0.162-43.29-16.802-67.021-71.936l4.301-73.156c0.282-4.71-3.311-8.747-8.013-9.02
				c-4.651-0.367-8.747,3.311-9.02,8.013l-2.475,41.984c-5.333-1.374-12.117-4.369-15.505-11.162
				c-1.451-2.893-4.403-4.719-7.637-4.719c-0.486,0-48.939-0.213-72.064-15.633c-17.937-11.955-21.427-18.697-21.897-19.78
				c-0.614-4.105-4.164-7.253-8.439-7.253h-25.6c-11.085,0-17.067-4.395-17.067-8.533s5.982-8.533,17.067-8.533
				c12.962,0,19.396,5.879,19.567,6.033c1.707,1.715,4.113,2.628,6.485,2.492l162.133-8.533c4.523-0.239,8.081-3.985,8.081-8.525
				c0-0.179,0.009-0.401,0.009-0.589c6.263,5.265,14.66,9.122,25.591,9.122c10.982,0,19.371-3.883,25.591-9.182
				c0,0.213,0.009,0.452,0.009,0.649c0,4.54,3.558,8.286,8.081,8.525l162.133,8.533c2.364,0.102,4.693-0.811,6.391-2.398
				c0.265-0.247,6.699-6.127,19.661-6.127c11.085,0,17.067,4.395,17.067,8.533S488.951,128,477.867,128h-25.6
				c-4.275,0-7.825,3.149-8.439,7.253c-0.469,1.084-3.959,7.825-21.897,19.78c-23.125,15.42-71.578,15.633-72.064,15.633
				c-4.719,0-8.533,3.823-8.533,8.533c0,4.719,3.823,8.533,8.533,8.533c2.193,0,54.101-0.205,81.536-18.5
				c15.505-10.334,23.014-18.364,26.53-24.166h19.934c22.409,0,34.133-12.877,34.133-25.6s-11.725-25.6-34.133-25.6
				c-14.336,0-23.782,5.077-28.407,8.371l-151.006-7.945C297.387,72.269,291.2,17.067,256,17.067s-41.387,55.202-42.453,77.227
				l-151.006,7.945c-4.625-3.294-14.071-8.371-28.407-8.371C11.725,93.867,0,106.743,0,119.467S11.725,145.067,34.133,145.067z
				 M256,34.133c12.851,0,19.908,20.403,23.211,40.61c-0.009,0.034-0.043,0.06-0.051,0.102c-0.469,1.946-5.154,19.021-23.159,19.021
				c-17.254,0-22.426-15.479-23.296-18.603C235.964,54.886,243.038,34.133,256,34.133z"/>
		</g>
	</g>
</g>
<g>
</g>
<g>
</g>
<g>
</g>
<g>
</g>
<g>
</g>
<g>
</g>
<g>
</g>
<g>
</g>
<g>
</g>
<g>
</g>
<g>
</g>
<g>
</g>
<g>
</g>
<g>
</g>
<g>
</g>
</svg>
