<?xml version="1.0" encoding="iso-8859-1"?>
<!-- Generator: Adobe Illustrator 19.0.0, SVG Export Plug-In . SVG Version: 6.00 Build 0)  -->
<svg version="1.1" id="Layer_1" xmlns="http://www.w3.org/2000/svg" xmlns:xlink="http://www.w3.org/1999/xlink" x="0px" y="0px"
	 viewBox="0 0 490 490" style="enable-background:new 0 0 490 490;" xml:space="preserve">
<g id="XMLID_519_">
	<g>
		<g>
			<path d="M431.5,32.5v-25h-30v25h-83.333v-25h-30v25h-83.334v-25h-30v25H91.5v-25h-30v25H0v390h460v30H0v30h490v-450H431.5z
				 M61.5,62.5v25h30v-25h83.333v25h30v-25h83.334v25h30v-25H401.5v25h30v-25H460v50H30v-50H61.5z M30,392.5v-250h430v250H30z"/>
			<path d="M70,352.5h350v-170H70V352.5z M100,282.5h74.833v40H100V282.5z M288.167,282.5v40h-83.334v-40H288.167z M204.833,252.5
				v-40h83.334v40H204.833z M318.167,322.5v-40H390v40H318.167z M390,252.5h-71.833v-40H390V252.5z M174.833,212.5v40H100v-40
				H174.833z"/>
		</g>
	</g>
</g>
<g>
</g>
<g>
</g>
<g>
</g>
<g>
</g>
<g>
</g>
<g>
</g>
<g>
</g>
<g>
</g>
<g>
</g>
<g>
</g>
<g>
</g>
<g>
</g>
<g>
</g>
<g>
</g>
<g>
</g>
</svg>
