<?xml version="1.0" encoding="iso-8859-1"?>
<!-- Generator: Adobe Illustrator 16.0.0, SVG Export Plug-In . SVG Version: 6.00 Build 0)  -->
<!DOCTYPE svg PUBLIC "-//W3C//DTD SVG 1.1//EN" "http://www.w3.org/Graphics/SVG/1.1/DTD/svg11.dtd">
<svg version="1.1" id="Capa_1" xmlns="http://www.w3.org/2000/svg" xmlns:xlink="http://www.w3.org/1999/xlink" x="0px" y="0px"
	 width="105.102px" height="105.102px" viewBox="0 0 105.102 105.102" style="enable-background:new 0 0 105.102 105.102;"
	 xml:space="preserve">
<g>
	<path d="M62.524,16.193l5.998-13.409C78.3,4.688,79.831,8.043,79.845,8.08c0.11,0.305,0.397,0.495,0.705,0.495
		c0.086,0,0.172-0.015,0.256-0.044c0.39-0.142,0.591-0.571,0.449-0.96C81.145,7.261,78.226,0,52.55,0
		C26.877,0,23.958,7.261,23.845,7.571c-0.138,0.382,0.058,0.799,0.438,0.946c0.38,0.148,0.812-0.044,0.967-0.422
		c0.02-0.047,1.551-3.405,11.328-5.31l6.004,13.418c-23.699,2.604-27.365,14.413-27.365,18.353c0,4.438,0,50.926,0,50.926
		c0,5.266,4.271,9.535,9.539,9.535h5.115l-5.945,8.918c-0.229,0.346-0.137,0.811,0.209,1.039c0.127,0.086,0.271,0.127,0.416,0.127
		c0.242,0,0.479-0.117,0.625-0.334l6.5-9.75h41.751l6.5,9.75c0.146,0.217,0.383,0.334,0.625,0.334c0.144,0,0.287-0.041,0.414-0.127
		c0.347-0.229,0.438-0.693,0.209-1.039l-5.944-8.92h5.118c5.267,0,9.535-4.271,9.535-9.539c0,0,0-46.194,0-50.927
		C89.884,30.349,86.218,18.747,62.524,16.193z M45.254,25.016h14.598c1.125,0,2.035,0.91,2.035,2.035v0.597
		c0,1.125-0.91,2.035-2.035,2.035H45.254c-1.125,0-2.035-0.91-2.035-2.035v-0.597C43.218,25.926,44.129,25.016,45.254,25.016z
		 M38.099,2.511c3.688-0.607,8.41-1.012,14.451-1.012S63.315,1.904,67.002,2.51l-6.051,13.521c-2.57-0.226-5.363-0.349-8.4-0.349
		c-3.035,0-5.828,0.125-8.398,0.354L38.099,2.511z M31.55,85.682c-3.863,0-7-3.136-7-7c0-3.861,3.137-7,7-7c3.864,0,7,3.139,7,7
		C38.55,82.547,35.416,85.682,31.55,85.682z M73.55,85.682c-3.862,0-7-3.136-7-7c0-3.861,3.138-7,7-7s7,3.139,7,7
		C80.55,82.547,77.415,85.682,73.55,85.682z M80.55,62.99c0,2.227-1.801,4.025-4.026,4.025H28.579c-2.226,0-4.026-1.802-4.026-4.025
		V38.377c0-2.227,1.801-4.027,4.026-4.027h47.945c2.229,0,4.026,1.801,4.026,4.027V62.99L80.55,62.99z"/>
</g>
<g>
</g>
<g>
</g>
<g>
</g>
<g>
</g>
<g>
</g>
<g>
</g>
<g>
</g>
<g>
</g>
<g>
</g>
<g>
</g>
<g>
</g>
<g>
</g>
<g>
</g>
<g>
</g>
<g>
</g>
</svg>
