<?xml version="1.0" encoding="utf-8"?>
<!-- Generator: Adobe Illustrator 16.0.0, SVG Export Plug-In . SVG Version: 6.00 Build 0)  -->
<!DOCTYPE svg PUBLIC "-//W3C//DTD SVG 1.1//EN" "http://www.w3.org/Graphics/SVG/1.1/DTD/svg11.dtd">
<svg version="1.1" id="Layer_1" xmlns="http://www.w3.org/2000/svg" xmlns:xlink="http://www.w3.org/1999/xlink" x="0px" y="0px"
	 width="126px" height="126px" viewBox="0 0 126 126" enable-background="new 0 0 126 126" xml:space="preserve">
<path stroke="#6D6E70" stroke-width="0" stroke-linecap="round" stroke-linejoin="round" d="M25.486,25.484
	C4.798,46.17,4.8,79.828,25.488,100.518c20.682,20.684,54.34,20.684,75.027-0.006c20.686-20.684,20.684-54.34,0.002-75.023
	C79.828,4.799,46.169,4.799,25.486,25.484z M94.728,94.729c-17.494,17.492-45.963,17.494-63.455,0.002
	c-9.995-9.994-14.27-23.568-12.846-36.633l45.823,3.76l43.223-4.605C109.178,70.574,104.938,84.52,94.728,94.729z M42.283,52.086
	c0-3.424,2.777-6.201,6.201-6.201c3.422,0,6.199,2.777,6.199,6.201c0,3.426-2.777,6.203-6.199,6.203
	C45.06,58.289,42.283,55.512,42.283,52.086z M72.314,52.086c0-3.424,2.777-6.201,6.201-6.201c3.422,0,6.199,2.777,6.199,6.201
	c0,3.426-2.777,6.203-6.199,6.203C75.091,58.289,72.314,55.512,72.314,52.086z M63.75,41.5l-42.218,4.375
	c2.187-5.316,5.431-10.295,9.742-14.605c17.492-17.492,45.959-17.494,63.457,0.004c4.53,4.529,7.877,9.799,10.061,15.42L63.75,41.5z
	 M37.167,75.791v9.752c0,4.686,3.799,8.486,8.486,8.486h35.361c4.687,0,8.486-3.801,8.486-8.486v-9.752
	c0-4.688-3.8-8.486-8.486-8.486H45.653C40.966,67.305,37.167,71.104,37.167,75.791z M49.258,90.725h-5.322
	c-1.297-0.939-2.271-2.293-2.725-3.871v-4.176h8.047V90.725z M77.408,70.607h5.322c1.297,0.939,2.271,2.295,2.725,3.873v4.174
	h-8.047V70.607z M77.408,82.678h8.047v4.176c-0.454,1.578-1.428,2.932-2.725,3.871h-5.322V82.678z M65.352,70.607h8.033v8.047
	h-8.033V70.607z M65.352,82.678h8.033v8.047h-8.033V82.678z M53.281,70.607h8.033v8.047h-8.033V70.607z M53.281,82.678h8.033v8.047
	h-8.033V82.678z M49.258,78.654h-8.047V74.48c0.454-1.578,1.428-2.934,2.725-3.873h5.322V78.654z M33.284,67.303
	c0,2.146-1.739,3.885-3.882,3.885c-2.145,0-3.884-1.738-3.884-3.885c0-2.143,1.739-3.883,3.884-3.883
	C31.544,63.42,33.284,65.16,33.284,67.303z"/>
</svg>
