<?xml version="1.0" encoding="iso-8859-1"?>
<!-- Generator: Adobe Illustrator 19.0.0, SVG Export Plug-In . SVG Version: 6.00 Build 0)  -->
<svg version="1.1" id="Capa_1" xmlns="http://www.w3.org/2000/svg" xmlns:xlink="http://www.w3.org/1999/xlink" x="0px" y="0px"
	 viewBox="0 0 463 463" style="enable-background:new 0 0 463 463;" xml:space="preserve">
<path d="M281.364,262.757c3.239-0.83,5.636-3.759,5.636-7.257v-32c0-4.142-3.357-7.5-7.5-7.5h-2.753l17.185-28.642
	c0.029-0.048,0.051-0.098,0.078-0.146c0.073-0.128,0.143-0.259,0.209-0.392c0.045-0.091,0.089-0.183,0.13-0.276
	c0.053-0.119,0.102-0.241,0.149-0.363c0.042-0.109,0.083-0.219,0.12-0.33c0.034-0.103,0.063-0.208,0.093-0.313
	c0.037-0.131,0.074-0.261,0.103-0.394c0.019-0.086,0.034-0.173,0.05-0.261c0.028-0.15,0.056-0.3,0.074-0.451
	c0.002-0.019,0.007-0.037,0.009-0.057L310.169,55h9.331c4.143,0,7.5-3.358,7.5-7.5V15h16.5c4.143,0,7.5-3.358,7.5-7.5
	S347.643,0,343.5,0h-224c-4.143,0-7.5,3.358-7.5,7.5s3.357,7.5,7.5,7.5H136v32.5c0,4.142,3.357,7.5,7.5,7.5h9.331l15.221,129.376
	c0.002,0.02,0.007,0.038,0.009,0.057c0.019,0.15,0.046,0.3,0.074,0.451c0.016,0.087,0.031,0.175,0.05,0.261
	c0.03,0.132,0.066,0.263,0.103,0.394c0.03,0.105,0.059,0.21,0.093,0.313c0.037,0.111,0.078,0.22,0.12,0.33
	c0.047,0.123,0.096,0.244,0.149,0.363c0.041,0.093,0.085,0.185,0.13,0.276c0.066,0.133,0.136,0.264,0.209,0.392
	c0.028,0.048,0.05,0.099,0.078,0.146L186.253,216H183.5c-4.143,0-7.5,3.358-7.5,7.5v32c0,3.498,2.397,6.427,5.636,7.257
	l-67.44,67.44c-1.772,1.773-2.542,4.315-2.051,6.774l24,120c0.701,3.506,3.779,6.029,7.354,6.029h56c4.143,0,7.5-3.358,7.5-7.5
	V352.327l24.5-29.167l24.5,29.165V455.5c0,4.142,3.357,7.5,7.5,7.5h56c3.575,0,6.653-2.523,7.354-6.029l24-120
	c0.491-2.459-0.278-5.001-2.051-6.774L281.364,262.757z M231.5,248H223v-17h17v17H231.5z M199.5,248H191v-17h8.488
	c0.007,0,0.013,0.001,0.019,0.001c0.006,0,0.012-0.001,0.018-0.001H208v17H199.5z M255,231h8.475c0.006,0,0.012,0.001,0.018,0.001
	c0.006,0,0.013-0.001,0.019-0.001H272v17h-8.5H255V231z M171.698,87H208v24.5c0,12.958,10.542,23.5,23.5,23.5s23.5-10.542,23.5-23.5
	V87h36.302l-10.471,89h-98.662L171.698,87z M240,111.5c0,4.687-3.813,8.5-8.5,8.5s-8.5-3.813-8.5-8.5V55h17V111.5z M293.066,72H255
	V55h40.066L293.066,72z M151,15h161v25H151V15z M208,55v17h-38.066l-2-17H208z M188.747,191h85.506l-15,25h-55.506L188.747,191z
	 M168,351.5V448h-18.352l-22.007-110.035L202.606,263H224v45.768L194.404,344H175.5C171.357,344,168,347.358,168,351.5z M192,448h-9
	v-89h9V448z M271,359h9v89h-9V359z M313.352,448H295v-96.5c0-4.142-3.357-7.5-7.5-7.5h-18.903L239,308.768V263h21.394l74.965,74.965
	L313.352,448z"/>
<g>
</g>
<g>
</g>
<g>
</g>
<g>
</g>
<g>
</g>
<g>
</g>
<g>
</g>
<g>
</g>
<g>
</g>
<g>
</g>
<g>
</g>
<g>
</g>
<g>
</g>
<g>
</g>
<g>
</g>
</svg>
