<?xml version="1.0" encoding="iso-8859-1"?>
<!-- Generator: Adobe Illustrator 19.0.0, SVG Export Plug-In . SVG Version: 6.00 Build 0)  -->
<svg version="1.1" id="Capa_1" xmlns="http://www.w3.org/2000/svg" xmlns:xlink="http://www.w3.org/1999/xlink" x="0px" y="0px"
	 viewBox="0 0 54.725 54.725" style="enable-background:new 0 0 54.725 54.725;" xml:space="preserve">
<g>
	<g>
		<path d="M37.771,34.203c1.139-1.183,1.739-2.668,1.689-4.18c-0.046-1.421-0.668-2.749-1.753-3.738
			c-2.293-2.091-5.645-1.896-7.97,0.463l-0.585,0.595c-1.21,1.232-2.46,2.506-3.768,3.643c-2.734,2.378-7.529,2.297-10.262-0.175
			c-1.789-1.618-2.813-3.693-2.884-5.843c-0.068-2.094,0.781-4.163,2.392-5.824c2.383-2.457,4.88-4.894,7.296-7.25
			c0.806-0.786,1.611-1.572,2.415-2.361c1.558-1.529,2.102-3.393,1.573-5.389c-0.557-2.098-2.011-3.46-4.199-3.937
			c-0.058-0.014-0.112-0.042-0.168-0.065L21.191,0h-1.04l-0.215,0.023c-1.887,0.415-3.226,1.564-4.286,2.633
			c-1.273,1.281-2.556,2.552-3.839,3.823c-1.774,1.757-3.549,3.513-5.294,5.298c-2.971,3.035-4.706,6.682-5.163,10.875
			c-0.033,0.232-0.133,0.937-0.132,1.848c0.001,0.967,0.127,2.203,0.16,2.41c1.23,7.796,5.389,13.002,12.361,15.473
			c2.373,0.841,4.703,1.259,6.964,1.259c4.661,0,9.028-1.778,12.872-5.289C35.08,36.982,36.53,35.492,37.771,34.203z M14.411,40.499
			c-6.228-2.207-9.947-6.883-11.054-13.896c-0.02-0.137-0.135-1.248-0.136-2.104c-0.001-0.77,0.084-1.369,0.111-1.566l0.014-0.1
			c0.402-3.7,1.95-6.949,4.6-9.656c1.737-1.777,3.504-3.526,5.271-5.275c1.288-1.275,2.576-2.55,3.853-3.835
			C17.946,3.182,18.94,2.323,20.265,2h0.543c0.155,0.065,0.313,0.124,0.478,0.161c1.453,0.317,2.335,1.133,2.696,2.496
			c0.344,1.297,0.003,2.425-1.04,3.45l-2.411,2.357c-2.426,2.366-4.934,4.813-7.335,7.29c-1.992,2.055-3.041,4.641-2.954,7.282
			c0.088,2.697,1.346,5.275,3.54,7.261c3.496,3.16,9.409,3.252,12.916,0.201c1.367-1.189,2.646-2.491,3.882-3.751l0.582-0.592
			c1.569-1.59,3.707-1.75,5.198-0.39c0.683,0.623,1.073,1.448,1.103,2.325c0.031,0.968-0.371,1.937-1.133,2.728
			c-1.274,1.325-2.642,2.729-4.1,4.061C27.029,41.628,21.036,42.846,14.411,40.499z"/>
		<path d="M53.343,27.814c-1.23-7.796-5.39-13.002-12.361-15.473c-7.267-2.575-14.128-1.184-19.836,4.03
			c-1.516,1.384-2.958,2.869-4.191,4.151c-1.14,1.184-1.739,2.668-1.69,4.181c0.047,1.421,0.669,2.748,1.754,3.737
			c2.293,2.092,5.644,1.896,7.969-0.463l0.607-0.618c1.202-1.225,2.445-2.491,3.745-3.621c2.733-2.377,7.529-2.297,10.263,0.175
			c1.789,1.618,2.813,3.694,2.883,5.844c0.068,2.094-0.781,4.162-2.392,5.824c-2.372,2.447-4.859,4.874-7.265,7.221
			c-0.816,0.796-1.633,1.592-2.445,2.391c-1.559,1.53-2.103,3.394-1.573,5.39c0.557,2.098,2.011,3.459,4.199,3.936
			c0.057,0.014,0.11,0.042,0.165,0.065l0.359,0.143h1.15l0.106-0.023c1.884-0.416,3.223-1.564,4.284-2.633
			c1.279-1.289,2.57-2.567,3.861-3.845c1.767-1.75,3.534-3.499,5.272-5.276c2.97-3.035,4.705-6.682,5.163-10.875
			c0.033-0.232,0.133-0.937,0.132-1.849C53.501,29.25,53.376,28.02,53.343,27.814z M51.392,31.792l-0.014,0.1
			c-0.403,3.7-1.951,6.949-4.6,9.657c-1.731,1.77-3.49,3.512-5.25,5.253c-1.295,1.282-2.59,2.564-3.874,3.857
			c-0.877,0.883-1.87,1.742-3.194,2.065h-0.543c-0.155-0.065-0.313-0.124-0.478-0.161c-1.453-0.316-2.335-1.133-2.696-2.496
			c-0.344-1.296-0.004-2.425,1.04-3.45c0.813-0.797,1.627-1.591,2.441-2.386c2.415-2.356,4.912-4.793,7.304-7.26
			c1.992-2.055,3.041-4.641,2.955-7.281c-0.088-2.697-1.346-5.276-3.54-7.262c-3.495-3.161-9.41-3.253-12.917-0.201
			c-1.359,1.182-2.631,2.477-3.859,3.729l-0.604,0.615c-1.568,1.589-3.705,1.751-5.197,0.39c-0.683-0.623-1.074-1.448-1.102-2.324
			c-0.031-0.968,0.371-1.938,1.133-2.729c1.212-1.26,2.628-2.717,4.1-4.061c5.201-4.75,11.194-5.968,17.818-3.622
			c6.228,2.207,9.946,6.883,11.054,13.896c0.02,0.136,0.134,1.244,0.136,2.104C51.504,30.996,51.419,31.595,51.392,31.792z"/>
	</g>
</g>
<g>
</g>
<g>
</g>
<g>
</g>
<g>
</g>
<g>
</g>
<g>
</g>
<g>
</g>
<g>
</g>
<g>
</g>
<g>
</g>
<g>
</g>
<g>
</g>
<g>
</g>
<g>
</g>
<g>
</g>
</svg>
