<?xml version="1.0" encoding="iso-8859-1"?>
<!-- Generator: Adobe Illustrator 18.0.0, SVG Export Plug-In . SVG Version: 6.00 Build 0)  -->
<!DOCTYPE svg PUBLIC "-//W3C//DTD SVG 1.1//EN" "http://www.w3.org/Graphics/SVG/1.1/DTD/svg11.dtd">
<svg version="1.1" id="Capa_1" xmlns="http://www.w3.org/2000/svg" xmlns:xlink="http://www.w3.org/1999/xlink" x="0px" y="0px"
	 viewBox="0 0 297.997 297.997" style="enable-background:new 0 0 297.997 297.997;" xml:space="preserve">
<g>
	<path d="M196.658,207.731c0-6.524-2.607-12.465-6.827-16.9c4.22-4.436,6.785-10.377,6.785-16.901
		c0-13.689-11.952-24.826-24.952-24.826v16c5,0,8.827,3.959,8.827,8.826c0,4.867-3.827,8.827-8.827,8.827v0.148v15.852v0.148
		c5,0,8.827,3.959,8.827,8.826s-3.827,8.827-8.827,8.827v16C184.664,232.558,196.658,221.421,196.658,207.731z"/>
	<path d="M294.948,166.574c0.685-5.766,1.048-11.628,1.048-17.575C295.996,67.392,229.605,1,147.998,1S0,67.392,0,148.999
		c0,81.606,66.392,147.998,147.998,147.998c61.364,0,114.121-37.542,136.52-90.863c7.313-8.233,13.479-17.721,13.479-26.332
		C297.997,174.291,296.701,169.942,294.948,166.574z M147.998,280.997c-36.256,0-69.143-14.696-93.022-38.44
		c-9.536-9.482-17.631-20.41-23.934-32.42C21.442,191.847,16,171.048,16,148.999C16,76.214,75.214,17,147.998,17
		c34.523,0,65.987,13.328,89.533,35.102c12.208,11.288,22.289,24.844,29.558,39.996c8.27,17.239,12.907,36.538,12.907,56.9
		c0,1.773-0.046,3.536-0.115,5.292c-2.172-0.609-4.443-0.931-6.767-0.931c-1.717,0-3.432,0.205-5.118,0.568
		c-4.015,0.865-7.846,2.73-10.999,5.607c-4.477-4.087-10.315-6.176-16.117-6.176c-6.481,0-12.575,2.456-17.161,6.916
		c-3.522,3.427-7.722,9.597-7.722,19.525c0,11.95,11.866,25.596,22.209,35.22c6.152,5.725,11.766,10.028,14.022,11.703l1.548,1.149
		C229.686,260.099,191.236,280.997,147.998,280.997z M256.997,210.141c-15.142-12.243-25-25.182-25-30.416
		c0-7.707,4.785-10.517,8.883-10.517c1.904,0,8.117,0.789,8.117,9.789h7.987h0.025h7.987c0-9,6.213-9.799,8.117-9.799
		c4.098,0,8.883,2.877,8.883,10.584C281.997,185.017,272.139,197.898,256.997,210.141z"/>
	<circle cx="115.052" cy="115.999" r="16"/>
	<path d="M212.965,120.582c5.468,0,10.406,2.654,13.211,7.102l13.533-8.533c-5.752-9.123-15.751-14.569-26.745-14.568
		c-10.993,0.001-20.99,5.447-26.74,14.568l13.535,8.533C202.562,123.237,207.498,120.582,212.965,120.582z"/>
</g>
<g>
</g>
<g>
</g>
<g>
</g>
<g>
</g>
<g>
</g>
<g>
</g>
<g>
</g>
<g>
</g>
<g>
</g>
<g>
</g>
<g>
</g>
<g>
</g>
<g>
</g>
<g>
</g>
<g>
</g>
</svg>
