<?xml version='1.0' encoding='iso-8859-1'?>
<svg version="1.1" xmlns="http://www.w3.org/2000/svg" viewBox="0 0 301.345 301.345" xmlns:xlink="http://www.w3.org/1999/xlink" enable-background="new 0 0 301.345 301.345">
  <g>
    <g>
      <path d="m52.426,217.835l-24.943,17.456c-6.787,4.75-8.439,14.103-3.689,20.89 4.753,6.793 14.106,8.435 20.89,3.689l17.073-11.949-3.094-24.083-6.237-6.003z"/>
      <circle cx="89.019" cy="31.641" r="27.59"/>
      <path d="m124.146,168.605c-0.799,2.821-0.238,5.853 1.517,8.202 1.755,2.348 4.504,3.746 7.436,3.779 0.003,0 0.006,0 0.008,0 5.097,0.058 9.577-3.321 10.934-8.234 0.48-1.738 0.955-3.357 1.324-4.401-7.471,3.14-12.715,1.712-21.219,0.654z"/>
      <path d="m148.286,146.92c0.852-6.85-4.008-13.095-10.861-13.948l-42.908-5.34-21.221-42.542c0.829,0.95 26.417,30.25 27.247,31.2l31.937,3.975c7.372-12.068 16.732-23.154 26.107-32.686-2.375-0.277-4.855,0.121-7.142,1.295l-33.138,16.996c0,0-9.926-17.176-13.516-23.356-3.001-5.166-6.839-10.084-13.083-11.592l-32.308-7.803c-10.006-2.417-20.076,3.736-22.492,13.742-2.646,10.958-19.767,81.846-22.373,92.639-2.126,6.387 0.252,13.633 6.194,17.398l49.298,31.223 .001,.001c0.911,7.095 8.146,63.416 9.009,70.132 1.054,8.199 8.55,14.022 16.789,12.967 8.211-1.054 14.023-8.567 12.967-16.789-1.233-9.594-8.82-68.656-9.907-77.122-0.558-4.336-3.068-8.365-6.852-10.761l-46.188-29.253c44.649,15.345 34.419,11.628 50.641,18.11 4.347,1.738 12.802,8.704 14.301,20.375l.923,7.184c2.333-1.633 7.847-4.773 8.602-12.404 0.432-4.355-1.06-8.68-4.084-11.843l-22.89-23.945c-3.664-0.456-6.268-0.78-10.041-1.25-8.161-1.016-15.225-6.016-18.897-13.375-0.884-1.771 0.108,1.84-12.696-52.335 25.208,50.536 23.547,47.324 24.214,48.325 2.051,3.081 5.441,5.051 8.862,5.477l49.559,6.168c6.867,0.851 13.095-4.027 13.946-10.863z"/>
      <path d="m283.08,2.456l-48.343-2.45c-1.877-0.095-3.632,0.929-4.473,2.609l-23.952,47.845-10.013,20.002c-18.848,14.241-38.279,32.65-51.159,52.227 3.931,1.597 7.395,4.198 10.072,7.635 1.794,2.304 3.136,4.858 4.004,7.557 12.067-20.324 32.27-38.196 45.332-48.481l27.863-10.585 49.661-18.866c1.756-0.667 2.952-2.31 3.047-4.186l2.45-48.339c0.132-2.612-1.877-4.836-4.489-4.968z"/>
    </g>
  </g>
</svg>
