<?xml version='1.0' encoding='iso-8859-1'?>
<svg version="1.1" xmlns="http://www.w3.org/2000/svg" viewBox="0 0 293.582 293.582" xmlns:xlink="http://www.w3.org/1999/xlink" enable-background="new 0 0 293.582 293.582">
  <g>
    <g>
      <path d="m37.38,194.292l101.301-41.099-1.128,2.955c-1.718,3.548-2.055,7.758-0.576,11.747l10.887,29.378 24.707-19.662-3.327-8.978 9.873,3.77 20.516-16.326c-6.492-4.044-10.298-10.917-10.771-15.431l-5.322-50.83 17.256,49.58v0.001c1.378,3.958 4.643,6.955 8.694,7.997l48.369,12.432c0.001,0.001 0.002,0.001 0.003,0.001 6.643,1.704 13.487-2.273 15.215-8.995 1.719-6.689-2.31-13.5-8.995-15.218l-41.877-10.764-15.627-44.899 22.64,33.805 8.191-21.452c3.672-9.616-1.147-20.388-10.763-24.06l-31.05-11.855c-1.559-0.595-5.202-2.4-10.874-1.774l-53.05,7.553c-4.039,0.575-7.544,3.085-9.388,6.724-1.845,3.64-1.797,7.949 0.127,11.547l25.393,47.473-117.943,47.846-.125-.309c-2.076-5.116-7.904-7.58-13.026-5.507-5.117,2.076-7.583,7.908-5.507,13.026l.125,.308-5.085,2.063c-5.117,2.076-7.583,7.908-5.507,13.026 2.075,5.112 7.9,7.584 13.026,5.507l5.085-2.063 .125,.309c2.075,5.112 7.9,7.584 13.026,5.507 5.117-2.076 7.583-7.908 5.507-13.026l-.125-.307zm128.264-111.712l-5.72,14.981-7.042-13.164 12.762-1.817z"/>
      <circle cx="228.983" cy="28.938" r="27.59"/>
      <path d="m291.407,111.16c-3.44-4.323-9.733-5.036-14.052-1.599l-16.215,12.904 5.93,1.524c5.346,1.374 9.955,4.451 13.271,8.756l9.467-7.534c4.322-3.439 5.037-9.73 1.599-14.051z"/>
      <path d="m120.393,260.03l116.97-93.084-24.278-6.24-105.146,83.675-.208-.261c-3.438-4.321-9.729-5.038-14.051-1.598-4.322,3.438-5.037,9.729-1.598,14.051l.208,.261-4.294,3.417c-4.321,3.44-5.037,9.73-1.599,14.052 3.439,4.321 9.731,5.036 14.052,1.599l4.295-3.418 .207,.26c3.44,4.323 9.733,5.035 14.051,1.598 4.322-3.439 5.037-9.729 1.598-14.051l-.207-.261z"/>
      <path d="m256.992,243.432h-5.599c-5.523,0-10,4.478-10,10 0,5.522 4.477,10 10,10h5.599c2.427,0 4.401,1.975 4.401,4.401 0,2.428-1.975,4.402-4.401,4.402h-31.819l4.057-54.506c0.16-2.151-0.146-4.313-0.897-6.335l-6.285-16.924-24.702,19.657 1.723,4.641-3.98,53.467h-27.799l13.489-44.924-41.157,32.752c-3.268,10.885-3.223,10.507-3.444,12.233-5.01,0.543-8.911,4.784-8.911,9.938 0,5.522 4.478,10 10,10h119.726c13.455,0 24.401-10.947 24.401-24.402-0.001-13.453-10.947-24.4-24.402-24.4z"/>
    </g>
  </g>
</svg>
