<?xml version="1.0" encoding="iso-8859-1"?>
<!-- Generator: Adobe Illustrator 18.0.0, SVG Export Plug-In . SVG Version: 6.00 Build 0)  -->
<!DOCTYPE svg PUBLIC "-//W3C//DTD SVG 1.1//EN" "http://www.w3.org/Graphics/SVG/1.1/DTD/svg11.dtd">
<svg version="1.1" id="Capa_1" xmlns="http://www.w3.org/2000/svg" xmlns:xlink="http://www.w3.org/1999/xlink" x="0px" y="0px"
	 viewBox="0 0 295.996 295.996" style="enable-background:new 0 0 295.996 295.996;" xml:space="preserve">
<g>
	<path d="M147.998,0C66.392,0,0,66.392,0,147.998c0,81.606,66.392,147.998,147.998,147.998c81.606,0,147.998-66.392,147.998-147.998
		C295.996,66.392,229.605,0,147.998,0z M147.978,235.08c-18.825,0-34.063-15.285-34.063-34.083c11.685,0,68.083,0,68.083,0h0.042
		C182.039,219.795,166.801,235.08,147.978,235.08z M266.363,159.206c-16.131,10.634-33.699,19.16-52.699,25.186v-15.395h-132v15.395
		c-20-6.39-38.358-15.581-55.264-27.12c-3.597-2.455-7.027-5.022-10.463-7.685c-0.007-0.53,0.021-1.059,0.021-1.59
		C15.958,75.214,75.193,16,147.977,16c34.523,0,65.998,13.328,89.544,35.102c12.208,11.288,22.294,24.844,29.563,39.997
		c8.27,17.238,12.91,36.537,12.91,56.899c0,0.531-0.096,1.06-0.102,1.589C275.539,152.96,270.971,156.169,266.363,159.206z"/>
	<circle cx="98.497" cy="114.998" r="16"/>
	<circle cx="197.497" cy="114.998" r="16"/>
</g>
<g>
</g>
<g>
</g>
<g>
</g>
<g>
</g>
<g>
</g>
<g>
</g>
<g>
</g>
<g>
</g>
<g>
</g>
<g>
</g>
<g>
</g>
<g>
</g>
<g>
</g>
<g>
</g>
<g>
</g>
</svg>
