<?xml version='1.0' encoding='iso-8859-1'?>
<svg version="1.1" xmlns="http://www.w3.org/2000/svg" viewBox="0 0 312.021 312.021" xmlns:xlink="http://www.w3.org/1999/xlink" enable-background="new 0 0 312.021 312.021">
  <g>
    <g>
      <path d="m302.15,120.556c-68.011-0.884-123.443-11.77-165.517-24.544l3.38,21.826c48.269,13.719 103.141,21.953 161.878,22.717 0.045,0.001 0.088,0.001 0.133,0.001 5.462,0 9.925-4.393 9.996-9.87 0.071-5.524-4.348-10.059-9.87-10.13z"/>
      <path d="m220.833,203.895l-6.919,2.255-19.293,19.648 7.214,1.408 48.721,45.66c6.04,5.663 15.533,5.36 21.201-0.687 5.665-6.045 5.357-15.537-0.686-21.202l-50.238-47.082z"/>
      <circle cx="35.91" cy="147.114" r="25.907"/>
      <path d="m257.646,179.275c7.892-2.573 12.176-11.049 9.614-18.91-2.568-7.877-11.033-12.181-18.91-9.614l-53.726,17.511c-2.29,0.746-4.367,2.034-6.055,3.752l-52.218,53.178 25.33-40.49-32.148-19.459-40.696,22.738 38.763-35.404c3.091-2.824 4.564-7.006 3.923-11.143l-7.642-49.353c-1.058-6.835-7.471-11.493-14.266-10.44-6.814,1.055-11.498,7.434-10.44,14.266l6.616,42.729-35.103,32.061c7.644-11.783 14.368-22.147 22.544-34.75-5.674-36.645-5.519-35.642-5.916-38.204-1.19-7.683 1.35-15.152 6.355-20.499-2.346-5.925-8.856-9.202-15.098-7.394-1.645,0.477-3.115,1.264-4.369,2.277-37.932-17.938-57.275-34.261-57.676-34.603-4.182-3.605-10.49-3.137-14.096,1.04-3.61,4.18-3.148,10.495 1.033,14.105 0.984,0.849 23.679,20.209 68.9,40.641l10.409,35.869c0,0-8.836,18.045-26.215,48.833-5.005,8.269-2.359,19.029 5.909,24.034 8.474,5.129 68.705,41.586 77.332,46.808l-.005-.036c5.89,3.263 13.221,2.223 17.962-2.605l49.649-50.563 50.24-16.375z"/>
    </g>
  </g>
</svg>
