<?xml version="1.0" encoding="iso-8859-1"?>
<!-- Generator: Adobe Illustrator 19.0.0, SVG Export Plug-In . SVG Version: 6.00 Build 0)  -->
<svg version="1.1" id="Capa_1" xmlns="http://www.w3.org/2000/svg" xmlns:xlink="http://www.w3.org/1999/xlink" x="0px" y="0px"
	 viewBox="0 0 463 463" style="enable-background:new 0 0 463 463;" xml:space="preserve">
<g>
	<path d="M455.5,400H447v-56.5c0-4.143-3.357-7.5-7.5-7.5H431V87.5c0-4.143-3.357-7.5-7.5-7.5H423V55.5c0-4.143-3.357-7.5-7.5-7.5
		h-80c-4.143,0-7.5,3.357-7.5,7.5V80h-0.5c-4.143,0-7.5,3.357-7.5,7.5V336h-17V127.5c0-17.369-14.131-31.5-31.5-31.5H271v-0.5
		c0-17.369-14.131-31.5-31.5-31.5h-48c-9.607,0-18.218,4.328-24,11.131C161.718,68.328,153.107,64,143.5,64h-48
		C78.131,64,64,78.131,64,95.5V96h-0.5C46.131,96,32,110.131,32,127.5V336h-8.5c-4.143,0-7.5,3.357-7.5,7.5V400H7.5
		c-4.143,0-7.5,3.357-7.5,7.5s3.357,7.5,7.5,7.5h448c4.143,0,7.5-3.357,7.5-7.5S459.643,400,455.5,400z M343,63h65v17h-65V63z
		 M335,95h0.5h80h0.5v241h-81V95z M263.5,312c-4.143,0-7.5,3.357-7.5,7.5V336h-17V143h49v193h-17v-16.5
		C271,315.357,267.643,312,263.5,312z M207,336v-33h17v33H207z M167.5,312c-4.143,0-7.5,3.357-7.5,7.5V336h-17V143h49v193h-17v-16.5
		C175,315.357,171.643,312,167.5,312z M111,336v-33h17v33H111z M175.5,111c9.099,0,16.5,7.401,16.5,16.5v0.5h-49v-0.5
		c0-9.099,7.401-16.5,16.5-16.5H175.5z M288,127.5v0.5h-49v-0.5c0-9.099,7.401-16.5,16.5-16.5h16C280.599,111,288,118.401,288,127.5
		z M191.5,79h48c9.098,0,16.5,7.402,16.5,16.5V96h-0.5c-17.369,0-31.5,14.131-31.5,31.5V288h-17V127.5
		c0-17.369-14.131-31.5-31.5-31.5H175v-0.5C175,86.402,182.402,79,191.5,79z M79,95.5C79,86.402,86.402,79,95.5,79h48
		c9.098,0,16.5,7.402,16.5,16.5V96h-0.5c-17.369,0-31.5,14.131-31.5,31.5V288h-17V127.5C111,110.131,96.869,96,79.5,96H79V95.5z
		 M63.5,111h16c9.099,0,16.5,7.401,16.5,16.5v0.5H47v-0.5C47,118.401,54.401,111,63.5,111z M47,143h49v193H79v-16.5
		c0-4.143-3.357-7.5-7.5-7.5s-7.5,3.357-7.5,7.5V336H47V143z M415,400v-24.5c0-4.143-3.357-7.5-7.5-7.5s-7.5,3.357-7.5,7.5V400h-17
		v-24.5c0-4.143-3.357-7.5-7.5-7.5s-7.5,3.357-7.5,7.5V400h-17v-24.5c0-4.143-3.357-7.5-7.5-7.5s-7.5,3.357-7.5,7.5V400h-17v-24.5
		c0-4.143-3.357-7.5-7.5-7.5s-7.5,3.357-7.5,7.5V400h-17v-24.5c0-4.143-3.357-7.5-7.5-7.5s-7.5,3.357-7.5,7.5V400h-17v-24.5
		c0-4.143-3.357-7.5-7.5-7.5s-7.5,3.357-7.5,7.5V400h-17v-24.5c0-4.143-3.357-7.5-7.5-7.5s-7.5,3.357-7.5,7.5V400h-17v-24.5
		c0-4.143-3.357-7.5-7.5-7.5s-7.5,3.357-7.5,7.5V400h-17v-24.5c0-4.143-3.357-7.5-7.5-7.5s-7.5,3.357-7.5,7.5V400h-17v-24.5
		c0-4.143-3.357-7.5-7.5-7.5s-7.5,3.357-7.5,7.5V400H95v-24.5c0-4.143-3.357-7.5-7.5-7.5s-7.5,3.357-7.5,7.5V400H63v-24.5
		c0-4.143-3.357-7.5-7.5-7.5s-7.5,3.357-7.5,7.5V400H31v-49h401v49H415z"/>
	<path d="M359.5,280c-4.143,0-7.5,3.357-7.5,7.5v24c0,4.143,3.357,7.5,7.5,7.5s7.5-3.357,7.5-7.5v-24
		C367,283.357,363.643,280,359.5,280z"/>
	<path d="M391.5,280c-4.143,0-7.5,3.357-7.5,7.5v24c0,4.143,3.357,7.5,7.5,7.5s7.5-3.357,7.5-7.5v-24
		C399,283.357,395.643,280,391.5,280z"/>
	<path d="M359.5,224c-4.143,0-7.5,3.357-7.5,7.5v24c0,4.143,3.357,7.5,7.5,7.5s7.5-3.357,7.5-7.5v-24
		C367,227.357,363.643,224,359.5,224z"/>
	<path d="M391.5,224c-4.143,0-7.5,3.357-7.5,7.5v24c0,4.143,3.357,7.5,7.5,7.5s7.5-3.357,7.5-7.5v-24
		C399,227.357,395.643,224,391.5,224z"/>
	<path d="M359.5,168c-4.143,0-7.5,3.357-7.5,7.5v24c0,4.143,3.357,7.5,7.5,7.5s7.5-3.357,7.5-7.5v-24
		C367,171.357,363.643,168,359.5,168z"/>
	<path d="M391.5,168c-4.143,0-7.5,3.357-7.5,7.5v24c0,4.143,3.357,7.5,7.5,7.5s7.5-3.357,7.5-7.5v-24
		C399,171.357,395.643,168,391.5,168z"/>
	<path d="M359.5,112c-4.143,0-7.5,3.357-7.5,7.5v24c0,4.143,3.357,7.5,7.5,7.5s7.5-3.357,7.5-7.5v-24
		C367,115.357,363.643,112,359.5,112z"/>
	<path d="M391.5,112c-4.143,0-7.5,3.357-7.5,7.5v24c0,4.143,3.357,7.5,7.5,7.5s7.5-3.357,7.5-7.5v-24
		C399,115.357,395.643,112,391.5,112z"/>
</g>
<g>
</g>
<g>
</g>
<g>
</g>
<g>
</g>
<g>
</g>
<g>
</g>
<g>
</g>
<g>
</g>
<g>
</g>
<g>
</g>
<g>
</g>
<g>
</g>
<g>
</g>
<g>
</g>
<g>
</g>
</svg>
