<?xml version="1.0" encoding="iso-8859-1"?>
<!-- Generator: Adobe Illustrator 19.0.0, SVG Export Plug-In . SVG Version: 6.00 Build 0)  -->
<svg version="1.1" id="Layer_1" xmlns="http://www.w3.org/2000/svg" xmlns:xlink="http://www.w3.org/1999/xlink" x="0px" y="0px"
	 viewBox="0 0 460 460" style="enable-background:new 0 0 460 460;" xml:space="preserve">
<g id="XMLID_1015_">
	<g>
		<polygon points="60,400 60,341.213 216.249,184.964 273.679,242.393 429.929,86.142 429.929,124.929 459.929,124.929 
			459.929,34.915 369.914,35 369.943,65 408.681,64.963 273.679,199.966 216.249,142.538 60,298.787 60,0 0,0 0,30 30,30 30,80 
			0,80 0,110 30,110 30,160 0,160 0,190 30,190 30,240 0,240 0,270 30,270 30,320 0,320 0,350 30,350 30,400 0,400 0,430 30,430 
			30,460 60,460 60,430 110,430 110,460 140,460 140,430 190,430 190,460 220,460 220,430 270,430 270,460 300,460 300,430 350,430 
			350,460 380,460 380,430 430,430 430,460 460,460 460,400 		"/>
	</g>
</g>
<g>
</g>
<g>
</g>
<g>
</g>
<g>
</g>
<g>
</g>
<g>
</g>
<g>
</g>
<g>
</g>
<g>
</g>
<g>
</g>
<g>
</g>
<g>
</g>
<g>
</g>
<g>
</g>
<g>
</g>
</svg>
