<?xml version="1.0" encoding="iso-8859-1"?>
<!-- Generator: Adobe Illustrator 18.0.0, SVG Export Plug-In . SVG Version: 6.00 Build 0)  -->
<!DOCTYPE svg PUBLIC "-//W3C//DTD SVG 1.1//EN" "http://www.w3.org/Graphics/SVG/1.1/DTD/svg11.dtd">
<svg version="1.1" id="Capa_1" xmlns="http://www.w3.org/2000/svg" xmlns:xlink="http://www.w3.org/1999/xlink" x="0px" y="0px"
	 viewBox="0 0 59 59" style="enable-background:new 0 0 59 59;" xml:space="preserve">
<g>
	<path d="M29.5,0C14.888,0,3,11.888,3,26.5v10.979c0,0,0,0.002,0,0.003c0,0.003,0,0.005,0,0.007c0,0.004,0,0.008,0,0.012V51
		c0,2.757,2.243,5,5,5h6.55c0.046,0.022,0.096,0.04,0.142,0.062c3.51,1.654,7.728,2.643,12.542,2.878
		c0.107,0.005,0.214,0.011,0.322,0.016C28.195,58.982,28.84,59,29.5,59s1.305-0.018,1.945-0.045c0.108-0.005,0.215-0.01,0.322-0.016
		c4.814-0.235,9.032-1.224,12.542-2.878c0.046-0.022,0.096-0.04,0.142-0.062H51c2.757,0,5-2.243,5-5V26.5C56,11.888,44.112,0,29.5,0
		z M43.993,54l-0.207,0.101c-2.828,1.374-6.204,2.271-9.917,2.666c-0.271,0.027-0.542,0.056-0.818,0.078
		c-0.392,0.033-0.787,0.062-1.187,0.084C31.09,56.969,30.309,57,29.5,57s-1.59-0.031-2.364-0.072
		c-0.399-0.022-0.794-0.051-1.187-0.084c-0.276-0.022-0.547-0.05-0.818-0.078c-3.712-0.394-7.089-1.292-9.917-2.666L15.007,54
		h-0.089C8.547,50.783,5,45.095,5,37.5c0-0.004,0-0.007,0-0.011c0-0.002,0-0.004,0-0.006c0-0.001,0-0.002,0-0.004
		C5.012,24.628,15.795,13.647,29,13l0.951-0.001C43.212,13.647,54,24.639,54,37.5c0,7.595-3.547,13.283-9.918,16.5H43.993z M8,54
		c-1.654,0-3-1.346-3-3v-4.226c1.384,2.876,3.459,5.308,6.148,7.226H8z M54,51c0,1.654-1.346,3-3,3h-3.148
		c2.689-1.917,4.764-4.349,6.148-7.226V51z M30,11l-1.049,0.001C18.165,11.529,8.911,18.42,5,27.735V26.5C5,12.99,15.991,2,29.5,2
		S54,12.99,54,26.5v1.198C50.079,18.398,40.811,11.528,30,11z"/>
	<path d="M42.989,41H17c-0.552,0-1,0.479-1,1.031c0,4.239,2.396,8.147,6.104,9.957c2.394,1.169,5.119,1.786,7.88,1.786
		c2.759,0,5.486-0.616,7.886-1.782c3.729-1.812,6.129-5.735,6.118-9.995C43.987,41.446,43.54,41,42.989,41z M36.997,50.193
		c-4.259,2.069-9.771,2.068-14.016-0.002c-0.318-0.155-0.622-0.334-0.915-0.526c0.47-1.297,3.656-2.208,7.93-2.208
		c4.271,0,7.456,0.908,7.934,2.201C37.632,49.855,37.322,50.036,36.997,50.193z M39.488,48.341c-1.214-1.83-4.568-2.883-9.492-2.883
		c-4.926,0-8.28,1.055-9.49,2.89c-1.355-1.436-2.242-3.314-2.456-5.348h23.887C41.725,45.032,40.84,46.907,39.488,48.341z"/>
	<path d="M23.239,30.416c0.193,0.219,0.468,0.339,0.75,0.339c0.108,0,0.217-0.018,0.323-0.054c0.383-0.131,0.649-0.479,0.675-0.883
		c0.245-3.846-3.036-7.571-6.882-7.816c-0.55-0.016-1.027,0.384-1.062,0.935c-0.035,0.551,0.383,1.026,0.935,1.062
		c1.983,0.126,3.802,1.599,4.598,3.44c-2.467-1.208-5.53-0.898-7.716,1.027c-0.415,0.365-0.455,0.997-0.09,1.412
		c0.365,0.414,0.996,0.454,1.411,0.09C18.251,28.144,21.417,28.346,23.239,30.416z"/>
	<path d="M36.944,27.439c0.796-1.843,2.615-3.315,4.598-3.441c0.551-0.035,0.97-0.511,0.935-1.062s-0.525-0.952-1.062-0.935
		c-3.846,0.245-7.126,3.971-6.881,7.816c0.026,0.403,0.292,0.752,0.675,0.883c0.106,0.036,0.215,0.054,0.323,0.054
		c0.282,0,0.557-0.12,0.75-0.339c1.822-2.068,4.988-2.27,7.057-0.448c0.415,0.364,1.046,0.324,1.411-0.09
		c0.365-0.415,0.325-1.047-0.09-1.412C42.474,26.542,39.413,26.229,36.944,27.439z"/>
</g>
<g>
</g>
<g>
</g>
<g>
</g>
<g>
</g>
<g>
</g>
<g>
</g>
<g>
</g>
<g>
</g>
<g>
</g>
<g>
</g>
<g>
</g>
<g>
</g>
<g>
</g>
<g>
</g>
<g>
</g>
</svg>
