<?xml version="1.0" encoding="iso-8859-1"?>
<!-- Generator: Adobe Illustrator 19.0.0, SVG Export Plug-In . SVG Version: 6.00 Build 0)  -->
<svg version="1.1" id="Capa_1" xmlns="http://www.w3.org/2000/svg" xmlns:xlink="http://www.w3.org/1999/xlink" x="0px" y="0px"
	 viewBox="0 0 54 54" style="enable-background:new 0 0 54 54;" xml:space="preserve">
<g>
	<path d="M43.999,21.667C44,21.611,44,21.556,44,21.5c0-7.168-5.832-13-13-13c-4.876,0-9.268,2.685-11.503,6.936
		C18.44,14.827,17.234,14.5,16,14.5c-3.859,0-7,3.141-7,7c0,0.125,0.003,0.25,0.01,0.375C3.735,23.22,0,27.966,0,33.5
		c0,6.617,5.383,12,12,12h31c0.131,0,0.257-0.027,0.371-0.077C49.45,44.735,54,39.658,54,33.5
		C54,27.649,49.679,22.629,43.999,21.667z M42.91,43.459c-0.069,0.006-0.136,0.021-0.2,0.041H12c-5.514,0-10-4.486-10-10
		c0-4.879,3.483-9.023,8.283-9.854c0.265-0.046,0.5-0.196,0.652-0.418c0.152-0.222,0.21-0.495,0.158-0.759
		C11.031,22.15,11,21.824,11,21.5c0-2.757,2.243-5,5-5c1.191,0,2.345,0.426,3.247,1.198c0.244,0.207,0.57,0.286,0.885,0.213
		c0.312-0.075,0.568-0.296,0.69-0.592C22.526,13.177,26.521,10.5,31,10.5c6.065,0,11,4.935,11,11c0,0.321-0.014,0.64-0.041,0.953
		c-0.023,0.265,0.06,0.527,0.23,0.731c0.171,0.204,0.415,0.331,0.68,0.354C47.989,23.978,52,28.354,52,33.5
		C52,38.711,48.092,42.992,42.91,43.459z"/>
</g>
<g>
</g>
<g>
</g>
<g>
</g>
<g>
</g>
<g>
</g>
<g>
</g>
<g>
</g>
<g>
</g>
<g>
</g>
<g>
</g>
<g>
</g>
<g>
</g>
<g>
</g>
<g>
</g>
<g>
</g>
</svg>
