<?xml version="1.0" encoding="utf-8"?>
<!-- Generator: Adobe Illustrator 16.0.4, SVG Export Plug-In . SVG Version: 6.00 Build 0)  -->
<!DOCTYPE svg PUBLIC "-//W3C//DTD SVG 1.1//EN" "http://www.w3.org/Graphics/SVG/1.1/DTD/svg11.dtd">
<svg version="1.1" id="Layer_1" xmlns="http://www.w3.org/2000/svg" xmlns:xlink="http://www.w3.org/1999/xlink" x="0px" y="0px"
	 width="50px" height="50px" viewBox="0 0 50 50" enable-background="new 0 0 50 50" preserveAspectRatio="fit">
<path d="M37.317,38.854c0,0,1.266-7.801-0.696-12.532c0,0-1.051-3.812-1.047-4.88c0,0-10.997,7.271-15.261,6.646
	c0,0,5.652-3.786,6.574-5.764c0,0-8.708,6.06-11.602,5.592c0,0,2.903-1.972,3.517-3.033c0,0-6.86,1.345-7.041,8.353l-0.784,5.785
	c0,0-1.462-7.058-1.947-8.69c-1.496-5.032,0.56-13.64,2.804-15.376c0,0,4.141-7.146,18.911-4.953c0,0,7.833,0.381,10.535,10.955
	c0.63,2.469-0.365,8.006-1.172,10.104c-0.801,2.082-2.878,9.357-2.878,9.357L37.317,38.854z M22.02,37.541
	c1.369-0.999,1.818-4.942,1.922-6.128c0.019-0.199-0.052-0.398-0.194-0.545c-0.142-0.148-0.341-0.232-0.551-0.232h-9.512
	c-0.21,0-0.409,0.084-0.551,0.232c-0.142,0.146-0.212,0.346-0.195,0.545c0.104,1.186,0.554,5.129,1.923,6.128
	c1.023,0.744,2.844,0.824,3.579,0.824S20.996,38.285,22.02,37.541z M22.368,32.069c-0.244,1.937-0.755,3.966-1.254,4.328
	c-0.365,0.267-1.333,0.533-2.673,0.533c-1.341,0-2.309-0.268-2.673-0.533c-0.498-0.362-1.009-2.393-1.254-4.328H22.368z
	 M35.137,37.541c1.368-0.999,1.817-4.942,1.922-6.128c0.018-0.199-0.054-0.398-0.194-0.545c-0.142-0.148-0.341-0.232-0.55-0.232
	h-9.514c-0.209,0-0.408,0.084-0.551,0.232c-0.142,0.146-0.212,0.346-0.193,0.545c0.104,1.186,0.554,5.129,1.922,6.128
	c1.022,0.744,2.844,0.824,3.579,0.824C32.292,38.365,34.112,38.285,35.137,37.541z M35.484,32.069
	c-0.244,1.937-0.755,3.966-1.254,4.328c-0.365,0.267-1.333,0.533-2.673,0.533c-1.341,0-2.309-0.268-2.674-0.533
	c-0.497-0.362-1.01-2.393-1.254-4.328H35.484z M27.479,32.72c0-0.396-0.335-0.718-0.748-0.718h-3.465
	c-0.414,0-0.748,0.321-0.748,0.718c0,0.396,0.334,0.717,0.748,0.717h3.465C27.145,33.437,27.479,33.115,27.479,32.72z"/>
</svg>
