<?xml version="1.0" encoding="iso-8859-1"?>
<!-- Generator: Adobe Illustrator 16.0.0, SVG Export Plug-In . SVG Version: 6.00 Build 0)  -->
<!DOCTYPE svg PUBLIC "-//W3C//DTD SVG 1.1//EN" "http://www.w3.org/Graphics/SVG/1.1/DTD/svg11.dtd">
<svg version="1.1" id="Capa_1" xmlns="http://www.w3.org/2000/svg" xmlns:xlink="http://www.w3.org/1999/xlink" x="0px" y="0px"
	 width="109.601px" height="109.601px" viewBox="0 0 109.601 109.601" style="enable-background:new 0 0 109.601 109.601;"
	 xml:space="preserve">
<g>
	<g>
		<path id="path3102" d="M99.094,88.952c-0.52-3.753-1.48-3.746-2.146,0.012c-0.666,3.766-4.245,7.304-7.999,7.905
			c-3.746,0.604-3.741,1.545,0.021,2.11s7.304,4.056,7.906,7.806c0.6,3.746,1.542,3.746,2.105,0.01
			c0.557-3.741,4.056-7.192,7.803-7.708c3.748-0.514,3.758-1.472,0.019-2.138C103.059,96.295,99.614,92.711,99.094,88.952"/>
	</g>
	<path d="M51.556,0.004c-13.039,0-24.937,4.849-34.017,12.83c0.002,0.091,0.026,0.176,0.026,0.265c0,4.377-3.401,7.917-7.641,8.058
		c-3.156,4.312-5.65,9.131-7.353,14.314c3.979,0.414,7.098,3.819,7.098,8.005c0,4.466-3.533,8.086-7.893,8.086
		c-0.611,0-1.2-0.087-1.772-0.221C0.004,51.415,0,51.486,0,51.562c0,6.279,1.124,12.293,3.179,17.857
		c0.818-0.292,1.682-0.483,2.597-0.483c4.359,0,7.894,3.625,7.894,8.089c0,2.479-1.112,4.669-2.824,6.152
		c2.78,3.576,6.017,6.781,9.631,9.517c1.443-1.939,3.698-3.21,6.261-3.21c4.359,0,7.893,3.625,7.893,8.091
		c0,0.895-0.174,1.736-0.437,2.541c5.429,1.943,11.273,3.007,17.369,3.007c28.476,0,51.56-23.082,51.56-51.558
		C103.113,23.086,80.031,0.004,51.556,0.004z M21.562,68.103c-4.362,0-7.897-3.622-7.897-8.088c0-4.462,3.536-8.085,7.897-8.085
		c4.358,0,7.892,3.624,7.892,8.085C29.454,64.48,25.922,68.103,21.562,68.103z M24.796,33.284c-4.36,0-7.897-3.62-7.897-8.086
		c0-4.463,3.537-8.086,7.897-8.086c4.359,0,7.894,3.624,7.894,8.086C32.69,29.666,29.155,33.284,24.796,33.284z M42.518,69.636
		c-4.36,0-7.895-3.62-7.895-8.086c0-4.464,3.535-8.084,7.895-8.084c4.361,0,7.896,3.62,7.896,8.084
		C50.414,66.016,46.879,69.636,42.518,69.636z M79.707,49.24l-0.914,6.112c-0.479,3.193-1.277,3.193-1.791,0.01l-0.987-6.151
		c-0.516-3.187-3.509-6.155-6.697-6.631l-6.219-0.936c-3.188-0.479-3.193-1.279-0.009-1.788l6.182-0.993
		c3.185-0.511,6.223-3.5,6.784-6.673l1.108-6.261c0.562-3.176,1.378-3.163,1.815,0.036l0.847,6.16
		c0.44,3.194,3.364,6.241,6.544,6.801l6.154,1.094c3.176,0.56,3.162,1.375-0.036,1.812l-6.129,0.84
		C83.163,43.11,80.187,46.052,79.707,49.24z M59.805,87.752c-4.362,0-7.899-3.62-7.899-8.084c0-4.466,3.537-8.089,7.899-8.089
		c4.357,0,7.893,3.623,7.893,8.089C67.697,84.132,64.162,87.752,59.805,87.752z"/>
</g>
<g>
</g>
<g>
</g>
<g>
</g>
<g>
</g>
<g>
</g>
<g>
</g>
<g>
</g>
<g>
</g>
<g>
</g>
<g>
</g>
<g>
</g>
<g>
</g>
<g>
</g>
<g>
</g>
<g>
</g>
</svg>
