<?xml version="1.0" encoding="iso-8859-1"?>
<!-- Generator: Adobe Illustrator 19.0.0, SVG Export Plug-In . SVG Version: 6.00 Build 0)  -->
<svg version="1.1" id="Layer_1" xmlns="http://www.w3.org/2000/svg" xmlns:xlink="http://www.w3.org/1999/xlink" x="0px" y="0px"
	 viewBox="0 0 490 490" style="enable-background:new 0 0 490 490;" xml:space="preserve">
<g id="XMLID_1057_">
	<g>
		<g>
			<path d="M393,280.558c33.084,0,60-26.916,60-60c0-33.084-26.916-60-60-60s-60,26.916-60,60
				C333,253.642,359.916,280.558,393,280.558z M393,190.558c16.542,0,30,13.458,30,30s-13.458,30-30,30s-30-13.458-30-30
				S376.458,190.558,393,190.558z"/>
			<path d="M393,310.558c-19.024,0-37.362,5.549-53.034,15.814c-22.944-26.799-57.003-43.814-94.966-43.814
				s-72.022,17.015-94.966,43.814c-15.673-10.266-34.01-15.814-53.034-15.814c-53.486,0-97,43.514-97,97v15h230v30h30v-30h230v-15
				C490,354.072,446.486,310.558,393,310.558z M120.903,392.558h-89.21c6.828-29.747,33.518-52,65.307-52
				c13.04,0,25.614,3.774,36.386,10.765C126.978,363.99,122.666,377.887,120.903,392.558z M230,392.558h-78.812v0
				c6.435-40.393,38.418-72.377,78.812-78.812V392.558z M260,392.558v-78.812c40.393,6.435,72.377,38.418,78.812,78.812H260z
				 M369.097,392.558c-1.763-14.672-6.075-28.569-12.483-41.235c10.772-6.99,23.346-10.765,36.386-10.765
				c31.789,0,58.479,22.253,65.307,52H369.097z"/>
			<path d="M97,280.558c33.084,0,60-26.916,60-60c0-33.084-26.916-60-60-60s-60,26.916-60,60C37,253.642,63.916,280.558,97,280.558z
				 M97,190.558c16.542,0,30,13.458,30,30s-13.458,30-30,30s-30-13.458-30-30S80.458,190.558,97,190.558z"/>
			<path d="M170,177.558c0,41.355,33.645,75,75,75s75-33.645,75-75v-29.709l11.583-105.291H309.35l-30.551,25.229l-33.958-30.345
				l-33.958,30.344l-30.547-25.228h-22.292L170,147.879V177.558z M290,177.558c0,24.813-20.187,45-45,45s-45-20.187-45-45v-15h90
				V177.558z M211.654,107.33l33.187-29.656l33.187,29.655L295.9,92.571l-4.399,39.987h-93.047l-4.526-39.867L211.654,107.33z"/>
		</g>
	</g>
</g>
<g>
</g>
<g>
</g>
<g>
</g>
<g>
</g>
<g>
</g>
<g>
</g>
<g>
</g>
<g>
</g>
<g>
</g>
<g>
</g>
<g>
</g>
<g>
</g>
<g>
</g>
<g>
</g>
<g>
</g>
</svg>
