<?xml version="1.0" encoding="iso-8859-1"?>
<!-- Generator: Adobe Illustrator 19.0.0, SVG Export Plug-In . SVG Version: 6.00 Build 0)  -->
<svg version="1.1" id="Layer_1" xmlns="http://www.w3.org/2000/svg" xmlns:xlink="http://www.w3.org/1999/xlink" x="0px" y="0px"
	 viewBox="0 0 370 370" style="enable-background:new 0 0 370 370;" xml:space="preserve">
<g id="XMLID_14_">
	<g>
		<path d="M340,145l-34.29,7.62l16.766-30.781l-40.205-11.836l4.402-41.675l-41.676,4.401l-11.835-40.204l-36.801,20.044L170,20
			l-26.361,32.569l-36.801-20.044L95.003,72.729l-41.675-4.402l4.402,41.675l-40.204,11.835l13.743,25.233
			C10.652,165.491,0,185,0,185s10.652,19.509,31.269,37.929l-13.743,25.233l40.204,11.835l-4.403,41.675l41.676-4.401l11.835,40.204
			l36.801-20.044L170,350l26.361-32.569l36.801,20.044l11.835-40.204l41.675,4.402l-4.402-41.676l40.205-11.835l-16.766-30.782
			L340,225c0,0,30-10,30-40S340,145,340,145z M50,185c-5.523,0-10-4.477-10-10s4.477-10,10-10s10,4.477,10,10S55.523,185,50,185z
			 M171.234,236.426c-15.911,15.91-37.124,5.303-37.124,5.303l-14.304-35.516L141.02,185l35.517,14.303
			C176.537,199.303,187.142,220.516,171.234,236.426z"/>
	</g>
</g>
<g>
</g>
<g>
</g>
<g>
</g>
<g>
</g>
<g>
</g>
<g>
</g>
<g>
</g>
<g>
</g>
<g>
</g>
<g>
</g>
<g>
</g>
<g>
</g>
<g>
</g>
<g>
</g>
<g>
</g>
</svg>
