<?xml version="1.0" encoding="iso-8859-1"?>
<!-- Generator: Adobe Illustrator 18.0.0, SVG Export Plug-In . SVG Version: 6.00 Build 0)  -->
<!DOCTYPE svg PUBLIC "-//W3C//DTD SVG 1.1//EN" "http://www.w3.org/Graphics/SVG/1.1/DTD/svg11.dtd">
<svg version="1.1" id="Capa_1" xmlns="http://www.w3.org/2000/svg" xmlns:xlink="http://www.w3.org/1999/xlink" x="0px" y="0px"
	 viewBox="0 0 295.996 295.996" style="enable-background:new 0 0 295.996 295.996;" xml:space="preserve">
<g>
	<path d="M147.998,0C66.392,0,0,66.392,0,147.998s66.392,147.998,147.998,147.998c81.606,0,147.998-66.392,147.998-147.998
		S229.604,0,147.998,0z M147.998,279.996c-36.257,0-69.143-14.696-93.022-38.44c-9.536-9.482-17.631-20.41-23.934-32.42
		C21.442,190.847,16,170.047,16,147.998C16,75.214,75.214,16,147.998,16c34.523,0,65.987,13.328,89.533,35.102
		c12.208,11.288,22.289,24.844,29.558,39.996c8.27,17.239,12.907,36.538,12.907,56.9
		C279.996,220.782,220.782,279.996,147.998,279.996z"/>
	<circle cx="98.497" cy="114.998" r="16"/>
	<path d="M142.239,204.232c1.828,0.11,3.653,0.169,5.476,0.169c30.954,0,60.619-15.83,77.604-42.113l-13.438-8.684
		c-15.596,24.135-44.128,37.608-72.693,34.308c-22.262-2.567-42.849-15.393-55.072-34.308l-13.437,8.684
		c3.358,5.197,7.244,10.01,11.553,14.389l-9.769,19.604c-8.115,16.285-1.468,36.138,14.817,44.254
		c4.714,2.349,9.725,3.461,14.665,3.461c12.129,0,23.823-6.706,29.59-18.278L142.239,204.232z M94.415,226.213
		c-8.39-4.181-11.813-14.408-7.634-22.798l8.004-16.061c9.306,6.596,19.797,11.484,30.866,14.291l-8.438,16.934
		C113.032,226.97,102.803,230.394,94.415,226.213z"/>
	<path d="M196.41,119.581c5.467,0,10.405,2.654,13.21,7.102l13.533-8.533c-5.752-9.123-15.75-14.569-26.744-14.568
		c-10.993,0-20.99,5.446-26.741,14.568l13.535,8.533C186.006,122.236,190.943,119.581,196.41,119.581z"/>
</g>
<g>
</g>
<g>
</g>
<g>
</g>
<g>
</g>
<g>
</g>
<g>
</g>
<g>
</g>
<g>
</g>
<g>
</g>
<g>
</g>
<g>
</g>
<g>
</g>
<g>
</g>
<g>
</g>
<g>
</g>
</svg>
