<?xml version="1.0" encoding="iso-8859-1"?>
<!-- Generator: Adobe Illustrator 18.0.0, SVG Export Plug-In . SVG Version: 6.00 Build 0)  -->
<!DOCTYPE svg PUBLIC "-//W3C//DTD SVG 1.1//EN" "http://www.w3.org/Graphics/SVG/1.1/DTD/svg11.dtd">
<svg version="1.1" id="Capa_1" xmlns="http://www.w3.org/2000/svg" xmlns:xlink="http://www.w3.org/1999/xlink" x="0px" y="0px"
	 viewBox="0 0 480 480" style="enable-background:new 0 0 480 480;" xml:space="preserve">
<g>
	<path d="M298.311,88.81H174.058v63.229h124.254V88.81z M278.311,132.038h-84.254V108.81h84.254V132.038z"/>
	<path d="M444.891,385.92c-4.39-68.977-11.407-110.031-22.751-133.115c-10.762-21.898-25.676-28.13-41.068-29.619l-5.109-99.993
		c-0.575-11.321-6.315-21.742-15.24-28.558l1.349-14.665c0.921-10.001-2.192-19.479-8.767-26.687
		c-6.576-7.209-15.729-11.179-25.775-11.179h-29.219v-5.04C298.311,16.626,281.685,0,261.249,0H211.12
		c-20.437,0-37.063,16.626-37.063,37.063v5.04H152.47c-10.045,0-19.199,3.97-25.773,11.178c-6.574,7.208-9.688,16.685-8.767,26.687
		l1.349,14.664c-9.042,6.894-14.672,17.306-15.245,28.558l-5.109,99.997c-15.39,1.491-30.302,7.723-41.063,29.619
		c-11.345,23.084-18.362,64.138-22.753,133.115c-0.792,12.437,1.807,21.661,7.943,28.201c9.452,10.072,24.768,11.477,45.521,11.673
		l-0.852,16.671c-0.508,9.953,2.942,19.359,9.714,26.485c6.772,7.126,15.99,11.05,25.957,11.05h233.213
		c9.966,0,19.185-3.924,25.957-11.05c6.771-7.126,10.222-16.532,9.714-26.486l-0.852-16.67c20.756-0.196,36.074-1.6,45.526-11.674
		C443.086,407.581,445.683,398.356,444.891,385.92z M194.058,37.063c0-9.408,7.654-17.063,17.063-17.063h50.129
		c9.408,0,17.063,7.654,17.063,17.063v5.04h-84.254V37.063z M141.473,66.758c2.739-3.002,6.644-4.656,10.997-4.656H327.53
		c4.354,0,8.26,1.654,10.999,4.657c2.738,3.002,4.027,7.042,3.627,11.376l-10.254,111.456c-0.891,9.684-9.858,17.865-19.583,17.865
		H167.681c-9.724,0-18.693-8.182-19.585-17.865l-10.25-111.456v-0.001C137.446,73.801,138.734,69.761,141.473,66.758z
		 M172.501,368.378c-1.817,0-3.842-2.292-3.842-5.58v-38.144c0-3.287,2.025-5.577,3.842-5.577h23.111c1.816,0,3.84,2.29,3.84,5.577
		v38.144c0,3.288-2.023,5.58-3.84,5.58H172.501z M188.413,299.078h-8.709v-71.622h8.709V299.078z M179.704,388.378h8.709V460h-8.709
		V388.378z M208.413,384.361c6.63-4.548,11.039-12.511,11.039-21.563v-38.144c0-9.051-4.409-17.013-11.039-21.56v-75.638h55.545
		v75.637c-6.632,4.547-11.041,12.51-11.041,21.561v38.144c0,9.053,4.409,17.016,11.041,21.564V460h-55.545V384.361z
		 M276.757,368.378c-1.816,0-3.84-2.292-3.84-5.58v-38.144c0-3.287,2.023-5.577,3.84-5.577h23.111c1.817,0,3.842,2.29,3.842,5.577
		v38.144c0,3.288-2.025,5.58-3.842,5.58H276.757z M283.958,227.457h8.709v71.622h-8.709V227.457z M283.958,388.378h8.709V460h-8.709
		V388.378z M57.636,400.435c-2.119-2.258-2.983-6.714-2.567-13.244C62.866,264.7,78.78,246.102,97.898,243.278l-8.304,162.524
		C74.271,405.677,61.853,404.928,57.636,400.435z M111.933,455.172c-2.958-3.113-4.464-7.264-4.238-11.688l15.595-305.232
		l4.89,53.172c1.581,17.167,15.028,31.559,31.524,35.157v76.509c-6.634,4.547-11.045,12.51-11.045,21.563v38.144
		c0,9.054,4.411,17.019,11.045,21.566V460h-36.313C118.961,460,114.892,458.286,111.933,455.172z M368.063,455.172
		c-2.958,3.113-7.028,4.828-11.458,4.828h-43.938v-75.637c6.633-4.547,11.043-12.511,11.043-21.564v-38.144
		c0-9.052-4.41-17.015-11.043-21.562v-75.645c19.81-0.187,37.335-16.271,39.151-36.024l4.889-53.144l15.594,305.204
		C372.527,447.908,371.021,452.059,368.063,455.172z M422.365,400.435c-4.216,4.494-16.637,5.242-31.963,5.367l-8.304-162.525
		c19.121,2.822,35.037,21.41,42.833,143.914C425.348,393.721,424.484,398.177,422.365,400.435z"/>
</g>
<g>
</g>
<g>
</g>
<g>
</g>
<g>
</g>
<g>
</g>
<g>
</g>
<g>
</g>
<g>
</g>
<g>
</g>
<g>
</g>
<g>
</g>
<g>
</g>
<g>
</g>
<g>
</g>
<g>
</g>
</svg>
