<?xml version="1.0" encoding="iso-8859-1"?>
<!-- Generator: Adobe Illustrator 18.0.0, SVG Export Plug-In . SVG Version: 6.00 Build 0)  -->
<!DOCTYPE svg PUBLIC "-//W3C//DTD SVG 1.1//EN" "http://www.w3.org/Graphics/SVG/1.1/DTD/svg11.dtd">
<svg version="1.1" id="Capa_1" xmlns="http://www.w3.org/2000/svg" xmlns:xlink="http://www.w3.org/1999/xlink" x="0px" y="0px"
	 viewBox="0 0 491.182 491.182" style="enable-background:new 0 0 491.182 491.182;" xml:space="preserve">
<path d="M491.182,414.26l-89.047-236.974c21.159-22.152,37.449-46.459,46.16-68.995c10.345-26.763,8.949-48.594-3.93-61.474
	c-12.878-12.879-34.711-14.274-61.474-3.931c-22.535,8.711-46.842,25.002-68.994,46.161L76.922,0L0,40.316l231.267,141.74
	c-15.249,18.428-30.943,37.942-45.791,57.151c-8.141,10.532-15.662,20.497-22.557,29.88l-85.423-2.923l-49.482,36.932l89.995,34.667
	c-2.669,5.178-4.733,9.774-6.223,13.856c-1.613,4.42-6.522,17.869,1.693,26.085c3.509,3.509,7.971,4.623,12.278,4.623
	c5.777,0,11.274-2.006,13.806-2.931c4.082-1.49,8.678-3.553,13.857-6.223l34.667,89.995l36.932-49.483l-2.923-85.422
	c9.384-6.896,19.348-14.417,29.88-22.557c19.209-14.848,38.723-30.542,57.151-45.791l141.74,231.267L491.182,414.26z M40.491,41.675
	l37.781-19.802l220.316,82.788c-14.085,15.044-33.413,36.975-54.37,61.874L40.491,41.675z M83.831,286.393l65.055,2.226
	c-8.183,11.679-15.154,22.221-20.871,31.565l-59.006-22.729L83.831,286.393z M204.79,407.352l-11.063,14.821l-22.729-59.005
	c9.344-5.717,19.886-12.688,31.566-20.872L204.79,407.352z M247.498,283.856c-79.884,62.422-108.666,75.339-118.065,77.894
	c2.555-9.398,15.473-38.181,77.894-118.064c43.923-56.211,94.451-114.344,116.077-135.968
	c21.436-21.437,45.123-37.835,66.698-46.175c9.457-3.655,18.018-5.487,25.02-5.487c6.608,0,11.829,1.632,15.102,4.905
	c6.741,6.74,6.523,21.738-0.583,40.12c-8.34,21.576-24.738,45.264-46.174,66.699C361.84,189.406,303.706,239.935,247.498,283.856z
	 M324.646,246.964c24.899-20.957,46.831-40.285,61.876-54.371l82.787,220.317l-19.802,37.781L324.646,246.964z"/>
<g>
</g>
<g>
</g>
<g>
</g>
<g>
</g>
<g>
</g>
<g>
</g>
<g>
</g>
<g>
</g>
<g>
</g>
<g>
</g>
<g>
</g>
<g>
</g>
<g>
</g>
<g>
</g>
<g>
</g>
</svg>
