<?xml version="1.0" encoding="iso-8859-1"?>
<!-- Generator: Adobe Illustrator 18.0.0, SVG Export Plug-In . SVG Version: 6.00 Build 0)  -->
<!DOCTYPE svg PUBLIC "-//W3C//DTD SVG 1.1//EN" "http://www.w3.org/Graphics/SVG/1.1/DTD/svg11.dtd">
<svg version="1.1" id="Capa_1" xmlns="http://www.w3.org/2000/svg" xmlns:xlink="http://www.w3.org/1999/xlink" x="0px" y="0px"
	 viewBox="0 0 485.794 485.794" style="enable-background:new 0 0 485.794 485.794;" xml:space="preserve">
<g>
	<rect x="15.794" y="404.368" width="460" height="20"/>
	<path d="M468.829,89.302c-33.408-19.471-71.368-9.128-97.325,2.976l-77.378,36.082l-133.08-66.934l-79.253,3.405l109.893,111.408
		l-70.035,33.269l-72.865-27.731L0,204.525l44.089,54.749c-4.658,5.557-8.879,13.381-5.047,21.599
		c5.005,10.732,19.798,16.141,44.063,16.14c4.976,0,10.351-0.227,16.12-0.683c26.636-2.104,55.514-8.903,73.571-17.323
		l276.596-128.979c23.89-11.141,35.79-22.839,36.38-35.765C486.078,107.559,483.387,97.784,468.829,89.302z M440.938,131.901
		L164.343,260.881c-15.384,7.174-40.641,13.185-64.345,15.313c-24.228,2.175-37.182-0.556-41.5-2.875
		c0.889-1.217,2.549-3.129,5.612-5.825l7.184-6.323l-39.708-49.308l17.986-8.388l72.943,27.763l103.169-49.009l-98-99.352
		l29.021-1.247l137.089,68.949l86.16-40.176c31.467-14.673,57.979-15.957,78.803-3.823l0.001,0.001
		c5.247,3.057,7.081,5.724,7.033,6.77C465.789,113.423,465.188,120.595,440.938,131.901z"/>
</g>
<g>
</g>
<g>
</g>
<g>
</g>
<g>
</g>
<g>
</g>
<g>
</g>
<g>
</g>
<g>
</g>
<g>
</g>
<g>
</g>
<g>
</g>
<g>
</g>
<g>
</g>
<g>
</g>
<g>
</g>
</svg>
