<?xml version="1.0" encoding="iso-8859-1"?>
<!-- Generator: Adobe Illustrator 19.0.0, SVG Export Plug-In . SVG Version: 6.00 Build 0)  -->
<svg version="1.1" id="Layer_1" xmlns="http://www.w3.org/2000/svg" xmlns:xlink="http://www.w3.org/1999/xlink" x="0px" y="0px"
	 viewBox="0 0 401 401" style="enable-background:new 0 0 401 401;" xml:space="preserve">
<g id="XMLID_237_">
	<g>
		<g>
			<path d="M146.348,118.343c-3.869,21.584-5.463,45.779-3.167,72.298C161.193,196.707,180.469,200,200.5,200
				s39.307-3.293,57.318-9.359c2.296-26.519,0.702-50.715-3.167-72.298C267.428,105.68,280.5,90.227,280.5,80c0-20-80-80-80-80
				s-80,60-80,80C120.5,90.227,133.572,105.68,146.348,118.343z"/>
			<path d="M275.5,330c-11.028,0-20-8.972-20-20v-50v-1v-46.692c-17.481,5.007-35.933,7.692-55,7.692s-37.519-2.686-55-7.692V259v1
				v50c0,11.028-8.972,20-20,20h-25v30h25c19.768,0,36.89-11.532,45-28.221V351c0,11.028-8.972,20-20,20v30c27.57,0,50-22.43,50-50
				c0,27.57,22.43,50,50,50v-30c-11.028,0-20-8.972-20-20v-19.221c8.11,16.689,25.232,28.221,45,28.221h25v-30H275.5z M175.5,260
				c-5.523,0-10-4.477-10-10s4.477-10,10-10s10,4.477,10,10S181.023,260,175.5,260z M225.5,260c-5.523,0-10-4.477-10-10
				s4.477-10,10-10s10,4.477,10,10S231.023,260,225.5,260z"/>
		</g>
	</g>
</g>
<g>
</g>
<g>
</g>
<g>
</g>
<g>
</g>
<g>
</g>
<g>
</g>
<g>
</g>
<g>
</g>
<g>
</g>
<g>
</g>
<g>
</g>
<g>
</g>
<g>
</g>
<g>
</g>
<g>
</g>
</svg>
