<?xml version="1.0" encoding="iso-8859-1"?>
<!-- Generator: Adobe Illustrator 19.0.0, SVG Export Plug-In . SVG Version: 6.00 Build 0)  -->
<svg version="1.1" id="Capa_1" xmlns="http://www.w3.org/2000/svg" xmlns:xlink="http://www.w3.org/1999/xlink" x="0px" y="0px"
	 viewBox="0 0 463 463" style="enable-background:new 0 0 463 463;" xml:space="preserve">
<path d="M367.5,191c4.143,0,7.5-3.357,7.5-7.5v-16c0-0.278-0.018-0.551-0.047-0.821c-0.004-0.038-0.013-0.075-0.017-0.113
	c-0.039-0.312-0.099-0.617-0.175-0.916c-0.016-0.061-0.03-0.123-0.047-0.184c-0.093-0.331-0.205-0.654-0.341-0.964
	c-0.014-0.031-0.03-0.061-0.044-0.092c-0.131-0.288-0.28-0.565-0.445-0.832c-0.032-0.053-0.062-0.106-0.096-0.158
	c-0.182-0.28-0.382-0.546-0.599-0.799c-0.046-0.053-0.094-0.104-0.141-0.155c-0.223-0.245-0.458-0.479-0.711-0.693
	c-0.012-0.01-0.022-0.023-0.034-0.033l-0.03-0.025c-0.001,0-0.001-0.001-0.002-0.002l-94.235-78.529L254.684,5.345
	C253.732,2.173,250.813,0,247.5,0h-32c-3.313,0-6.232,2.173-7.184,5.345l-23.351,77.838L90.73,161.712
	c-0.001,0.001-0.001,0.001-0.002,0.002l-0.03,0.025c-0.012,0.01-0.022,0.023-0.034,0.033c-0.253,0.214-0.488,0.448-0.711,0.693
	c-0.047,0.052-0.096,0.102-0.141,0.155c-0.217,0.253-0.417,0.519-0.599,0.799c-0.034,0.052-0.064,0.105-0.096,0.158
	c-0.164,0.267-0.314,0.543-0.444,0.831c-0.014,0.031-0.031,0.062-0.045,0.093c-0.135,0.311-0.247,0.633-0.34,0.964
	c-0.017,0.061-0.032,0.122-0.047,0.184c-0.076,0.299-0.136,0.604-0.175,0.916c-0.005,0.038-0.013,0.075-0.017,0.113
	C88.018,166.949,88,167.222,88,167.5v16c0,4.143,3.357,7.5,7.5,7.5s7.5-3.357,7.5-7.5V175h67.784L90.73,241.712
	c-0.001,0.001-0.001,0.001-0.002,0.002l-0.03,0.025c-0.012,0.01-0.022,0.023-0.034,0.033c-0.253,0.214-0.488,0.448-0.711,0.693
	c-0.047,0.052-0.096,0.102-0.141,0.155c-0.217,0.253-0.417,0.519-0.599,0.799c-0.034,0.052-0.064,0.105-0.096,0.158
	c-0.164,0.267-0.314,0.543-0.444,0.831c-0.014,0.031-0.031,0.062-0.045,0.093c-0.135,0.311-0.247,0.633-0.34,0.964
	c-0.017,0.061-0.032,0.122-0.047,0.184c-0.076,0.299-0.136,0.604-0.175,0.916c-0.005,0.038-0.013,0.075-0.017,0.113
	C88.018,246.949,88,247.222,88,247.5v16c0,4.143,3.357,7.5,7.5,7.5s7.5-3.357,7.5-7.5V255h67.784L90.73,321.712
	c-0.001,0.001-0.001,0.001-0.002,0.002l-0.03,0.025c-0.012,0.01-0.022,0.023-0.034,0.033c-0.253,0.214-0.488,0.448-0.711,0.693
	c-0.047,0.052-0.096,0.102-0.141,0.155c-0.217,0.253-0.417,0.519-0.599,0.799c-0.034,0.052-0.064,0.105-0.096,0.158
	c-0.164,0.267-0.314,0.543-0.444,0.831c-0.014,0.031-0.031,0.062-0.045,0.093c-0.135,0.311-0.247,0.633-0.34,0.964
	c-0.017,0.061-0.032,0.122-0.047,0.184c-0.076,0.299-0.136,0.604-0.175,0.916c-0.005,0.038-0.013,0.075-0.017,0.113
	C88.018,326.949,88,327.222,88,327.5v16c0,4.143,3.357,7.5,7.5,7.5s7.5-3.357,7.5-7.5V335h79.464l-21.188,113H151.5
	c-4.143,0-7.5,3.357-7.5,7.5s3.357,7.5,7.5,7.5h24c4.143,0,7.5-3.357,7.5-7.5c0-3.795-2.82-6.923-6.478-7.422l3.46-18.454
	l51.516-51.515l44.308,44.31l3.201,25.607c-3.912,0.255-7.007,3.499-7.007,7.475c0,4.143,3.357,7.5,7.5,7.5h24
	c4.143,0,7.5-3.357,7.5-7.5s-3.357-7.5-7.5-7.5h-9.379l-14.125-113H360v8.5c0,4.143,3.357,7.5,7.5,7.5s7.5-3.357,7.5-7.5v-16
	c0-0.278-0.018-0.551-0.047-0.821c-0.004-0.038-0.013-0.075-0.017-0.113c-0.039-0.312-0.099-0.617-0.175-0.916
	c-0.016-0.061-0.03-0.123-0.047-0.184c-0.093-0.331-0.205-0.654-0.341-0.964c-0.014-0.031-0.03-0.061-0.044-0.092
	c-0.131-0.288-0.28-0.565-0.445-0.832c-0.032-0.053-0.062-0.106-0.096-0.158c-0.182-0.28-0.382-0.546-0.599-0.799
	c-0.046-0.053-0.094-0.104-0.141-0.155c-0.223-0.245-0.458-0.479-0.711-0.693c-0.012-0.01-0.022-0.023-0.034-0.033l-0.03-0.025
	c-0.001,0-0.001-0.001-0.002-0.002L292.216,255H360v8.5c0,4.143,3.357,7.5,7.5,7.5s7.5-3.357,7.5-7.5v-16
	c0-0.278-0.018-0.551-0.047-0.821c-0.004-0.038-0.013-0.075-0.017-0.113c-0.039-0.312-0.099-0.617-0.175-0.916
	c-0.016-0.061-0.03-0.123-0.047-0.184c-0.093-0.331-0.205-0.654-0.341-0.964c-0.014-0.031-0.03-0.061-0.044-0.092
	c-0.131-0.288-0.28-0.565-0.445-0.832c-0.032-0.053-0.062-0.106-0.096-0.158c-0.182-0.28-0.382-0.546-0.599-0.799
	c-0.046-0.053-0.094-0.104-0.141-0.155c-0.223-0.245-0.458-0.479-0.711-0.693c-0.012-0.01-0.022-0.023-0.034-0.033l-0.03-0.025
	c-0.001,0-0.001-0.001-0.002-0.002L292.216,175H360v8.5C360,187.643,363.357,191,367.5,191z M213.535,40.151l7.354,7.354
	l-13.658,13.658L213.535,40.151z M209.607,160l21.893-21.894L253.393,160H209.607z M253.393,175L231.5,196.893L209.607,175H253.393z
	 M209.606,95h43.787L231.5,116.894L209.606,95z M255.773,61.178l-13.671-13.671l7.361-7.361L255.773,61.178z M253.382,80h-43.773
	l21.887-21.887L253.382,80z M220.894,127.5L199,149.393v-43.786L220.894,127.5z M220.893,207.5L199,229.393v-43.785L220.893,207.5z
	 M209.607,240l21.893-21.893L253.393,240H209.607z M253.393,255L231.5,276.893L209.607,255H253.393z M220.893,287.5L199,309.393
	v-43.785L220.893,287.5z M231.5,298.107L253.393,320h-43.785L231.5,298.107z M253.392,335l-21.895,21.895L209.604,335H253.392z
	 M242.107,287.5L264,265.607v43.785L242.107,287.5z M242.107,207.5L264,185.607v43.785L242.107,207.5z M242.106,127.5L264,105.607
	v43.786L242.106,127.5z M241.92,15l2.648,8.827l-13.073,13.073L218.43,23.833L221.08,15H241.92z M184,103.513V160h-67.784
	L184,103.513z M184,183.513V240h-67.784L184,183.513z M184,263.513V320h-67.784L184,263.513z M184.878,403.513l11.373-60.653
	l24.64,24.641L184.878,403.513z M242.105,367.502l23.855-23.855l6.816,54.527L242.105,367.502z M279,320v-56.487L346.784,320H279z
	 M279,240v-56.487L346.784,240H279z M279,160v-56.487L346.784,160H279z"/>
<g>
</g>
<g>
</g>
<g>
</g>
<g>
</g>
<g>
</g>
<g>
</g>
<g>
</g>
<g>
</g>
<g>
</g>
<g>
</g>
<g>
</g>
<g>
</g>
<g>
</g>
<g>
</g>
<g>
</g>
</svg>
