<?xml version="1.0" encoding="iso-8859-1"?>
<!-- Generator: Adobe Illustrator 17.1.0, SVG Export Plug-In . SVG Version: 6.00 Build 0)  -->
<!DOCTYPE svg PUBLIC "-//W3C//DTD SVG 1.1//EN" "http://www.w3.org/Graphics/SVG/1.1/DTD/svg11.dtd">
<svg version="1.1" id="Capa_1" xmlns="http://www.w3.org/2000/svg" xmlns:xlink="http://www.w3.org/1999/xlink" x="0px" y="0px"
	 viewBox="0 0 490 490" style="enable-background:new 0 0 490 490;" xml:space="preserve">
<path d="M489.676,138.714c-0.2-0.376-5-9.314-14.242-18.341c-12.355-12.068-26.794-18.447-41.755-18.447
	c-7.993,0-16.194,1.78-24.528,5.313c2.51-2.207,5.296-4.541,8.328-6.912c13.121-10.259,33.609-23.277,56.707-27.033
	c1.197-0.195,2.13-1.145,2.303-2.346c0.172-1.201-0.456-2.375-1.55-2.898c-0.745-0.356-18.483-8.729-39.616-8.729
	c-20.957,0-47.989,8.464-60.727,47.654c-1.759-2.531-4.249-5.624-7.587-8.719c-7.049-6.532-19.381-14.32-38.109-14.32
	c-14.379,0-30.551,4.561-48.067,13.556c-1.092,0.561-1.686,1.771-1.461,2.978c0.226,1.207,1.216,2.122,2.436,2.252
	c0.126,0.014,12.723,1.393,27.245,6.217c12.148,4.035,27.996,11.313,37.191,23.523c-2.914,0.816-7.169,2.216-12.021,4.47
	c-8.232,3.823-19.816,10.943-28.252,23.151c-10.706,15.494-13.913,35.238-9.533,58.684c0.212,1.132,1.1,2.016,2.232,2.222
	c1.133,0.206,2.275-0.309,2.871-1.293c0.248-0.41,23.061-37.725,46.623-49.977c-2.263,5.234-5.013,13.101-6.071,22.229
	c-1.118,9.652-0.099,18.701,3.032,26.895c3.913,10.24,11.121,19.101,21.426,26.334c0.476,0.334,1.034,0.504,1.595,0.504
	c0.432,0,0.864-0.102,1.263-0.305c0.916-0.468,1.498-1.404,1.513-2.434c0.003-0.185,0.286-18.783,2.769-39.558
	c2.065-17.293,5.023-31.023,8.718-40.688c5.351,11.815,11.827,26.998,14.773,37.315c5.579,19.538,8.387,39.223,8.415,58.404
	c-10.027,4.482-31.301,13.723-56.053,22.874c-45.152,16.694-81.302,25.518-104.541,25.518c-23.239,0-59.389-8.823-104.541-25.518
	c-24.752-9.151-46.025-18.392-56.052-22.874c0.028-19.182,2.835-38.867,8.414-58.404c2.945-10.314,9.423-25.498,14.773-37.314
	c3.69,9.656,6.646,23.369,8.713,40.64c2.485,20.777,2.771,39.419,2.773,39.604c0.015,1.029,0.597,1.966,1.513,2.434
	c0.398,0.203,0.831,0.305,1.263,0.305c0.561,0,1.119-0.17,1.595-0.504c10.305-7.233,17.513-16.094,21.426-26.334
	c3.131-8.193,4.15-17.242,3.032-26.895c-1.059-9.129-3.809-16.995-6.071-22.229c23.563,12.252,46.375,49.566,46.623,49.977
	c0.597,0.985,1.739,1.499,2.872,1.293c1.132-0.206,2.02-1.09,2.231-2.222c4.38-23.445,1.173-43.189-9.533-58.684
	c-8.436-12.208-20.02-19.328-28.252-23.151c-4.853-2.254-9.107-3.653-12.021-4.47c9.195-12.211,25.043-19.488,37.191-23.523
	c14.523-4.824,27.119-6.203,27.244-6.217c1.221-0.129,2.211-1.045,2.437-2.251c0.226-1.206-0.369-2.418-1.461-2.979
	c-17.517-8.995-33.688-13.556-48.067-13.556c-18.729,0-31.061,7.788-38.109,14.32c-3.338,3.095-5.828,6.188-7.587,8.719
	C102.668,67.784,75.635,59.32,54.678,59.32c-21.133,0-38.871,8.372-39.616,8.729c-1.094,0.523-1.722,1.697-1.549,2.898
	c0.172,1.201,1.104,2.15,2.302,2.346c23.055,3.75,43.509,16.729,56.607,26.955c3.068,2.396,5.888,4.757,8.425,6.989
	c-8.333-3.532-16.534-5.312-24.525-5.312c-14.961,0-29.399,6.379-41.755,18.447C5.324,129.4,0.525,138.338,0.324,138.714
	c-0.509,0.959-0.413,2.126,0.246,2.989c0.659,0.861,1.761,1.261,2.819,1.021c18.037-4.09,34.521-6.162,48.993-6.162
	c19.682,0,31.975,3.713,39.326,7.398c-7.176,9.498-18.623,27.597-30.49,58.279c-14.813,38.3-19.266,77.521-12.877,113.424
	c7.811,43.906,28.209,85.445,55.965,113.966c0.652,0.671,1.55,1.05,2.486,1.05h58.464c1.452,0,2.751-0.904,3.255-2.267
	s0.105-2.894-0.998-3.839c-27.708-23.732-69.08-88.088-77.678-120.827c-2.681-10.684-4.361-21.735-5.06-33.015
	c1.7,1.65,3.531,3.446,5.479,5.357c15.058,14.767,37.813,37.081,64.374,55.604c14.669,10.229,28.997,18.222,42.587,23.756
	c16.094,6.555,31.668,9.877,46.288,9.877c0.502,0,0.994-0.004,1.495-0.011c0.498,0.007,0.998,0.011,1.495,0.011
	c14.621,0,30.195-3.322,46.29-9.877c13.59-5.533,27.917-13.525,42.586-23.756c26.56-18.522,49.315-40.837,64.372-55.604
	c1.948-1.91,3.78-3.707,5.48-5.357c-0.698,11.277-2.378,22.328-5.06,33.012c-8.597,32.738-49.97,97.099-77.678,120.83
	c-1.104,0.945-1.502,2.477-0.998,3.839c0.504,1.362,1.803,2.267,3.255,2.267h58.464c0.936,0,1.834-0.379,2.486-1.05
	c27.756-28.521,48.154-70.06,55.965-113.966c6.389-35.903,1.935-75.125-12.877-113.424c-11.867-30.683-23.314-48.781-30.49-58.279
	c7.352-3.686,19.645-7.398,39.326-7.398c14.473,0,30.957,2.072,48.993,6.162c1.059,0.239,2.16-0.16,2.819-1.021
	C490.089,140.84,490.185,139.673,489.676,138.714z"/>
<g>
</g>
<g>
</g>
<g>
</g>
<g>
</g>
<g>
</g>
<g>
</g>
<g>
</g>
<g>
</g>
<g>
</g>
<g>
</g>
<g>
</g>
<g>
</g>
<g>
</g>
<g>
</g>
<g>
</g>
</svg>
