<?xml version="1.0" encoding="utf-8"?>
<!-- Generator: Adobe Illustrator 17.0.0, SVG Export Plug-In . SVG Version: 6.00 Build 0)  -->
<!DOCTYPE svg PUBLIC "-//W3C//DTD SVG 1.1//EN" "http://www.w3.org/Graphics/SVG/1.1/DTD/svg11.dtd">
<svg version="1.1" id="Capa_1" xmlns="http://www.w3.org/2000/svg" xmlns:xlink="http://www.w3.org/1999/xlink" x="0px" y="0px"
	 width="200px" height="200px" viewBox="0 0 200 200" enable-background="new 0 0 200 200" xml:space="preserve">
<path d="M192.093,71.089c-18.261-1.48-49.459,6.528-61.798-10.404C118.2,44.086,118.647,21.914,104.547,5.957
	c-1.431-1.619-4.768-1.352-5.684,0.733c-3.775,8.592-6.913,17.474-10.203,26.278c-0.349,0.28-0.539,0.734-0.435,1.154
	c-4.551,12.107-9.466,24.029-16.891,34.76c-0.078,0.113-0.09,0.228-0.145,0.343c-9.085,0.722-18.084,2.282-27.295,2.531
	c-11.593,0.314-23.146,0.307-34.413,3.336c-1.645,0.442-2.317,2.088-2.134,3.559c-2.499-0.105-4.163,3.334-1.549,4.879
	c18.271,10.793,34.774,24.067,51.71,36.796c-11.152,22.005-18.989,45.282-21.235,69.982c-0.245,2.687,2.772,4.551,5.145,3.919
	c22.472-5.988,42.625-18.307,60.961-32.378c-0.338,1.533,0.074,3.156,1.763,3.872c17.967,7.617,35.714,20.655,55.214,23.915
	c2.448,0.409,5.634-1.097,5.344-4.071c-1.977-20.263-5.92-42.02-13.184-61.086c-0.628-1.648-1.854-2.45-3.128-2.62
	c0.06-0.019,0.116-0.007,0.176-0.032c10.021-4.178,18.596-12.24,26.263-19.725c2.163-2.112,5.023-4.76,7.809-7.699
	c1.191,0.026,2.047-1.089,2.023-2.219c3.756-4.266,7.002-8.976,7.64-13.483C197.012,78.753,196.875,71.476,192.093,71.089z
	 M180.17,83.73c-0.684,0.883-1.439,1.709-2.151,2.57c-1.506-0.967-3.012-1.932-4.364-3.02c-1.662-1.337-3.269-2.747-4.864-4.17
	c5.097-0.162,10.154-0.429,14.977-0.508C182.522,80.286,181.42,82.117,180.17,83.73z M102.871,15.845
	c2.96,4.768,5.091,10.342,6.993,16.138c-3.47-2.358-7.003-4.652-10.443-7.023C100.557,21.892,101.694,18.839,102.871,15.845z
	 M98.163,28.325c4.334,3.429,8.822,7.017,13.616,9.701c0.882,2.867,1.757,5.742,2.69,8.561c-2.596-1.617-5.562-2.931-7.913-4.324
	c-3.722-2.206-7.367-4.497-11.131-6.593C96.357,33.223,97.258,30.773,98.163,28.325z M94.478,38.166
	c3.012,1.816,6,3.671,8.946,5.599c3.976,2.603,8.378,7.189,13.084,8.511c2.419,6.259,5.392,11.987,9.781,16.351
	c-11.32-8.491-23.101-16.246-35.12-22.399C92.33,43.573,93.42,40.877,94.478,38.166z M76.054,74.438
	c23.832,16.389,45.889,34.518,68.243,52.877c0.618,3.55,1.342,7.072,2.118,10.577c-9.698-11.462-24.689-20.669-36.35-29.762
	C96.556,97.597,82.905,87.172,68.836,77.386C71.4,76.713,73.836,75.762,76.054,74.438z M45.092,184.604
	c0.456-3.533,1.069-7.028,1.753-10.505c1.24,1.998,2.602,3.923,4.054,5.784c0.48,0.614,1.044,1.327,1.674,2.038
	C50.108,182.89,47.615,183.789,45.092,184.604z M57.543,179.812c-1.179-1.04-2.403-2.054-3.378-3.195
	c-2.282-2.673-4.199-5.663-6.027-8.678c0.398-1.686,0.836-3.361,1.284-5.032c2.583,2.276,5.165,4.557,7.762,6.812
	c2.295,1.992,5.412,5.317,8.622,6.131C63.086,177.243,60.34,178.585,57.543,179.812z M68.722,174.347
	c-0.02-0.212-0.051-0.426-0.186-0.623c-2.125-3.103-6.864-5.049-9.844-7.362c-2.81-2.181-5.502-4.573-8.352-6.724
	c1.086-3.772,2.322-7.499,3.639-11.199c3.408,2.627,6.718,5.37,9.935,8.244c3.693,3.299,7.49,7.542,11.959,9.739
	c0.792,0.389,1.495,0.175,1.932-0.294c0.641,0.677,1.356,1.315,2.168,1.58C76.289,170.035,72.556,172.287,68.722,174.347z
	 M82.392,166.169c-0.084-0.203-0.209-0.385-0.415-0.495c-0.467-0.249-0.791-0.352-1.323-0.342c-0.622,0.011-1.182-0.725-1.597-1.099
	c-0.369-0.332-0.782-0.36-1.129-0.227c-0.031-0.047-0.044-0.098-0.081-0.144c-3.308-4.201-8.375-7.645-12.507-11.041
	c-3.271-2.69-6.66-5.221-10.135-7.635c0.987-2.63,2.106-5.214,3.191-7.809c5.658,5.315,11.327,10.617,16.916,16.005
	c3.229,3.112,6.485,6.197,9.7,9.324c0.324,0.315,0.649,0.669,0.975,1.013C84.786,164.532,83.609,165.377,82.392,166.169z
	 M90.645,160.543c-3.727-3.919-9.149-7.53-12.22-10.275c-6.125-5.472-12.368-10.846-18.741-16.043
	c1.227-2.812,2.523-5.598,3.859-8.367c10.927,10.216,21.698,20.707,33.439,29.983C94.889,157.428,92.794,159.015,90.645,160.543z
	 M107.102,158.697c-0.386-0.143-0.747-0.147-1.107-0.151c1.097-2.469-1.549-5.302-4.429-5.175
	c-12.696-9.659-24.146-20.724-36.29-31.03c0.199-0.394,0.382-0.794,0.584-1.187c1.059-2.052,0.391-4.063-1.41-5.375
	c-16.919-12.322-33.304-25.351-52.007-34.842c4.268-0.509,8.534-0.819,12.802-1.063c40.475,30.577,77.293,66,118.238,95.956
	C131.177,170.549,119.347,163.216,107.102,158.697z M155.115,177.261c-42.208-32.427-81.971-68.207-126.434-97.577
	c4.433-0.2,8.877-0.304,13.327-0.386c15.744,14.746,33.533,27.58,50.332,41.033c19.98,16,39.048,32.934,58.312,49.766
	c1.07,0.935,2.303,0.857,3.24,0.299C154.338,172.674,154.754,174.96,155.115,177.261z M152.658,164.448
	c-30.943-31.204-68.316-61.106-105.515-85.242c0.343-0.005,0.684-0.013,1.027-0.018c4.765-0.068,10.048-0.06,15.152-0.726
	c15.94,11.87,31.48,24.192,46.805,36.844c11.033,9.108,22.211,21.428,34.933,28.035c1.017,0.529,1.928,0.341,2.562-0.185
	C149.294,150.257,151.089,157.323,152.658,164.448z M145.884,117.225c-1.748,1.352-0.501,4.226,1.373,4.672
	c-0.239,0.041-0.452,0.163-0.68,0.246c-19.998-19.63-44.735-35.504-68.801-49.891c0.144-0.858-0.051-1.763-0.586-2.415
	c2.321-2.726,4.34-5.67,6.238-8.699c24.302,15.147,44.389,36.145,68.729,51.028C150.108,113.885,148.022,115.572,145.884,117.225z
	 M156.413,108.466c-23.491-16.619-45.606-36.874-71.359-49.946c1.838-3.172,3.494-6.471,5.035-9.84
	c24.795,16.923,45.325,40.051,70.621,55.823C159.287,105.833,157.87,107.173,156.413,108.466z M169.05,96.326
	c-1.469,1.533-2.973,3.002-4.475,4.476c-10.076-9.188-20.926-18.693-32.309-27.602c3.773,2.19,7.919,3.613,12.282,4.533
	c0.019,0.051,0.017,0.101,0.044,0.15c0.137,0.248,0.333,0.483,0.557,0.708c0.105,0.178,0.4,0.428,0.662,0.71
	c0.841,0.907,1.879,1.666,2.841,2.438c2.773,2.224,5.531,4.468,8.305,6.691c2.174,1.743,9.244,9.384,12.407,7.13
	c0.803-0.572,1.353-1.743,0.699-2.665c-1.164-1.642-2.619-2.309-4.315-3.416c-2.911-1.899-5.763-3.89-8.62-5.87
	c-2.403-1.665-4.777-3.413-7.236-5.002c4.633,0.559,9.437,0.668,14.253,0.606c2.188,2.334,4.408,4.634,6.744,6.832
	c1.283,1.207,2.668,2.555,4.136,3.832C173.077,92.069,171.076,94.214,169.05,96.326z"/>
</svg>
