<?xml version="1.0" encoding="iso-8859-1"?>
<!-- Generator: Adobe Illustrator 18.0.0, SVG Export Plug-In . SVG Version: 6.00 Build 0)  -->
<!DOCTYPE svg PUBLIC "-//W3C//DTD SVG 1.1//EN" "http://www.w3.org/Graphics/SVG/1.1/DTD/svg11.dtd">
<svg version="1.1" id="Capa_1" xmlns="http://www.w3.org/2000/svg" xmlns:xlink="http://www.w3.org/1999/xlink" x="0px" y="0px"
	 viewBox="0 0 44 44" style="enable-background:new 0 0 44 44;" xml:space="preserve">
<g>
	<path d="M33.385,24.01c-0.512-0.215-1.096,0.029-1.308,0.538c-1.257,3.018-3.722,5.354-6.939,6.578
		c-3.146,1.196-6.702,1.155-9.753-0.116c-0.511-0.213-1.096,0.029-1.308,0.538c-0.213,0.51,0.028,1.096,0.538,1.308
		c1.819,0.758,3.791,1.138,5.771,1.138c1.853,0,3.713-0.332,5.463-0.998c3.735-1.421,6.603-4.148,8.073-7.678
		C34.135,24.808,33.895,24.222,33.385,24.01z"/>
	<path d="M22,0C9.869,0,0,9.869,0,22s9.869,22,22,22s22-9.869,22-22S34.131,0,22,0z M22,42C10.972,42,2,33.028,2,22S10.972,2,22,2
		s20,8.972,20,20S33.028,42,22,42z"/>
	<path d="M18.053,17.072c0.911-0.797,1.536-1.809,1.809-2.926c0.181-0.739,0.144-1.234,0.113-1.438C19.763,10.591,18.123,9,16.146,9
		c-0.978,0-1.896,0.371-2.59,1.006C12.876,9.366,11.981,9,11.009,9c-1.977,0-3.617,1.591-3.829,3.708
		c-0.031,0.204-0.068,0.699,0.113,1.438c0.273,1.117,0.898,2.129,1.808,2.924l3.785,3.317c0.188,0.165,0.424,0.248,0.659,0.248
		c0.232,0,0.465-0.081,0.653-0.242L18.053,17.072z M10.418,15.565c-0.599-0.523-1.008-1.178-1.183-1.895
		c-0.1-0.405-0.08-0.641-0.082-0.641c0,0,0,0,0,0.001c0.007-0.034,0.012-0.068,0.015-0.103C9.256,11.971,9.917,11,11.009,11
		c0.712,0,1.318,0.412,1.62,1.103c0.159,0.364,0.519,0.6,0.917,0.6s0.757-0.235,0.917-0.6C14.754,11.433,15.415,11,16.146,11
		c1.092,0,1.753,0.97,1.851,2c0,0.002,0.029,0.24-0.077,0.672c-0.174,0.715-0.583,1.37-1.177,1.89l-3.191,2.749L10.418,15.565z"/>
	<path d="M36.82,12.707C36.607,10.591,34.968,9,32.991,9c-0.978,0-1.896,0.371-2.59,1.006C29.721,9.366,28.827,9,27.854,9
		c-1.977,0-3.617,1.592-3.829,3.708c-0.031,0.204-0.068,0.699,0.113,1.438c0.273,1.117,0.898,2.129,1.808,2.924l3.785,3.317
		c0.188,0.165,0.424,0.248,0.659,0.248c0.232,0,0.465-0.081,0.653-0.242l3.855-3.321c0.911-0.797,1.536-1.809,1.809-2.925
		C36.888,13.407,36.851,12.911,36.82,12.707z M34.764,13.672c-0.174,0.715-0.583,1.37-1.177,1.89l-3.191,2.749l-3.132-2.745
		c-0.599-0.523-1.008-1.178-1.183-1.894c-0.099-0.406-0.08-0.642-0.082-0.642c0,0,0,0,0,0.001c0.007-0.034,0.012-0.068,0.015-0.103
		C26.102,11.97,26.762,11,27.854,11c0.712,0,1.318,0.412,1.619,1.103c0.159,0.364,0.519,0.6,0.917,0.6s0.757-0.235,0.917-0.6
		C31.599,11.433,32.261,11,32.991,11c1.092,0,1.753,0.971,1.851,1.999C34.842,13.002,34.87,13.24,34.764,13.672z"/>
</g>
<g>
</g>
<g>
</g>
<g>
</g>
<g>
</g>
<g>
</g>
<g>
</g>
<g>
</g>
<g>
</g>
<g>
</g>
<g>
</g>
<g>
</g>
<g>
</g>
<g>
</g>
<g>
</g>
<g>
</g>
</svg>
