<?xml version="1.0" encoding="iso-8859-1"?>
<!-- Generator: Adobe Illustrator 18.0.0, SVG Export Plug-In . SVG Version: 6.00 Build 0)  -->
<!DOCTYPE svg PUBLIC "-//W3C//DTD SVG 1.1//EN" "http://www.w3.org/Graphics/SVG/1.1/DTD/svg11.dtd">
<svg version="1.1" id="Capa_1" xmlns="http://www.w3.org/2000/svg" xmlns:xlink="http://www.w3.org/1999/xlink" x="0px" y="0px"
	 viewBox="0 0 44 44" style="enable-background:new 0 0 44 44;" xml:space="preserve">
<g>
	<circle cx="13" cy="16" r="3"/>
	<circle cx="31" cy="16" r="3"/>
	<path d="M22,0C9.869,0,0,9.869,0,22s9.869,22,22,22s22-9.869,22-22S34.131,0,22,0z M22,2c7.988,0,14.878,4.719,18.08,11.506
		L39,14.586V14c0-2.757-2.243-5-5-5h-6c-2.757,0-5,2.243-5,5v1h-2v-1c0-2.757-2.243-5-5-5h-6c-2.757,0-5,2.243-5,5v0.586l-1.08-1.08
		C7.122,6.719,14.012,2,22,2z M37,14v4c0,1.654-1.346,3-3,3h-6c-1.654,0-3-1.346-3-3v-4c0-1.654,1.346-3,3-3h6
		C35.654,11,37,12.346,37,14z M19,14v4c0,1.654-1.346,3-3,3h-6c-1.654,0-3-1.346-3-3v-4c0-1.654,1.346-3,3-3h6
		C17.654,11,19,12.346,19,14z M3.1,15.514l1.9,1.9V18c0,2.757,2.243,5,5,5h6c2.757,0,5-2.243,5-5v-1h2v1c0,2.757,2.243,5,5,5h6
		c2.757,0,5-2.243,5-5v-0.586l1.9-1.9C41.601,17.552,42,19.728,42,22c0,0.088-0.012,0.172-0.013,0.26l-8.718,2.615
		C32.772,24.34,32.07,24,31.284,24H13c-0.775,0-1.589,0.341-2.176,0.903l-8.81-2.643C2.012,22.172,2,22.088,2,22
		C2,19.728,2.399,17.552,3.1,15.514z M32,26.716v7.568C32,34.679,31.679,35,31.284,35H13c-0.483,0-1-0.42-1-0.716v-7.568
		C12,26.42,12.517,26,13,26h18.284C31.679,26,32,26.321,32,26.716z M2.157,24.391L10,26.744v7.54c0,0.382,0.095,0.733,0.251,1.051
		l-1.556,1.556C5.159,33.728,2.75,29.34,2.157,24.391z M10.259,38.155l1.448-1.448l-0.024-0.024C12.104,36.881,12.558,37,13,37
		h18.284c0.383,0,0.746-0.081,1.077-0.225l1.38,1.38C30.44,40.562,26.389,42,22,42S13.56,40.562,10.259,38.155z M35.305,36.891
		l-1.53-1.53C33.919,35.03,34,34.667,34,34.284v-7.54l7.843-2.353C41.25,29.34,38.841,33.728,35.305,36.891z"/>
</g>
<g>
</g>
<g>
</g>
<g>
</g>
<g>
</g>
<g>
</g>
<g>
</g>
<g>
</g>
<g>
</g>
<g>
</g>
<g>
</g>
<g>
</g>
<g>
</g>
<g>
</g>
<g>
</g>
<g>
</g>
</svg>
