<?xml version="1.0" encoding="iso-8859-1"?>
<!-- Generator: Adobe Illustrator 18.0.0, SVG Export Plug-In . SVG Version: 6.00 Build 0)  -->
<!DOCTYPE svg PUBLIC "-//W3C//DTD SVG 1.1//EN" "http://www.w3.org/Graphics/SVG/1.1/DTD/svg11.dtd">
<svg version="1.1" id="Capa_1" xmlns="http://www.w3.org/2000/svg" xmlns:xlink="http://www.w3.org/1999/xlink" x="0px" y="0px"
	 viewBox="0 0 295.996 295.996" style="enable-background:new 0 0 295.996 295.996;" xml:space="preserve">
<g>
	<path d="M147.998,0C66.392,0,0,66.392,0,147.998c0,81.606,66.392,147.998,147.998,147.998c81.606,0,147.998-66.392,147.998-147.998
		C295.996,66.392,229.604,0,147.998,0z M147.998,279.996c-36.257,0-69.143-14.696-93.023-38.44
		c-9.536-9.482-17.631-20.41-23.934-32.42C21.442,190.847,16,170.048,16,147.998c0-13.939,2.179-27.378,6.202-40.001h26.462v16.835
		c0,22.653,18.392,41.083,41.001,41.083c22.607,0,40.999-18.354,40.999-40.916v-17.002h34v16.835
		c0,22.653,18.392,41.083,41.001,41.083c22.607,0,40.999-18.354,40.999-40.916v-17.002h27.13
		c4.023,12.623,6.202,26.062,6.202,40.001C279.996,220.782,220.782,279.996,147.998,279.996z M28.486,91.997
		C49.593,47.135,95.225,16,147.998,16c34.523,0,65.987,13.328,89.533,35.102c12.208,11.288,22.289,24.844,29.558,39.997
		c0.143,0.297,0.279,0.6,0.421,0.898h-0.198H28.486z"/>
	<path d="M147.715,240.617c30.954,0,60.619-15.83,77.604-42.113l-13.438-8.684c-15.596,24.135-44.131,37.602-72.693,34.308
		c-22.262-2.567-42.849-15.393-55.072-34.308l-13.438,8.684c14.79,22.889,39.716,38.409,66.676,41.519
		C140.814,240.422,144.27,240.617,147.715,240.617z"/>
</g>
<g>
</g>
<g>
</g>
<g>
</g>
<g>
</g>
<g>
</g>
<g>
</g>
<g>
</g>
<g>
</g>
<g>
</g>
<g>
</g>
<g>
</g>
<g>
</g>
<g>
</g>
<g>
</g>
<g>
</g>
</svg>
