<?xml version='1.0' encoding='iso-8859-1'?>
<svg version="1.1" xmlns="http://www.w3.org/2000/svg" viewBox="0 0 291.778 291.778" xmlns:xlink="http://www.w3.org/1999/xlink" enable-background="new 0 0 291.778 291.778">
  <g>
    <g>
      <path d="m273.485,210.707c-20.945-17.472-15.979-32.735-12.6-38.817 0.704-1.267-0.348-2.801-1.784-2.606-6.912,0.939-21.51,5.772-24.896,29.627-0.007,0.049-0.007,0.1-0.014,0.149-4.301-3.778-10.444-4.478-15.236-4.309-1.824,0.064-2.361,2.553-0.722,3.356 19.413,9.507-5.361,28.299-9.898,44.307-5.88,20.747 7.681,29.697 15.243,32.975 1.466,0.636 2.989-0.86 2.337-2.319-4.932-11.03-0.712-26.365 6.856-34.013 7.653-7.734 8.693-13.966 7.948-22.415-0.133-1.513 1.596-2.507 2.81-1.595 7.716,5.802 10.794,19.109 7.641,29.28-0.399,1.289 0.742,2.54 2.06,2.248 2.802-0.62 6.831-2.291 8.906-6.787 0.382-0.828 1.309-1.29 2.171-0.991 10.379,3.605 15.708,20.923 11.382,35.457-0.412,1.383 0.959,2.65 2.313,2.152 13.918-5.121 24.136-41.796-4.517-65.699z"/>
      <path d="m237.261,148.666l32.206-14.658c3.232-1.471 4.35-6.472 3.326-12.644l.821-.394c4.979-2.391 7.077-8.364 4.687-13.343-2.39-4.979-8.363-7.075-13.343-4.687l-.608,.292c-3.879-4.505-8.19-6.743-11.312-5.322l-32.206,14.658c-3.314,1.508-4.407,6.727-3.245,13.116l-30.329,14.562c5.468,4.23 9,10.604 9.618,17.567l29.385-14.108c3.796,4.265 7.961,6.344 11,4.961z"/>
      <circle cx="129.14" cy="42.852" r="27.59"/>
      <path d="m174.75,147.841l-42.158-9.607-14.373-37.898 15.076,21.065 4.271-11.185c3.672-9.616-1.147-20.388-10.764-24.06l-31.05-11.856c-9.616-3.672-20.388,1.147-24.06,10.763l-27.461,71.922c-3.141,8.227-0.054,17.286 6.922,22.035-0.085,0-0.168-0.003-0.253-0.003-15.237,0-27.742,4.557-29.085,10.372l-.126,23.787-9.45-11.759c-1.427-1.776-5.201-1.112-8.43,1.483s-4.689,6.138-3.262,7.914l21.142,29.956 .155,24.337c0,6.301 13.078,11.41 29.21,11.41s29.21-5.108 29.21-11.41c0-0.367-0.132-64.43-0.152-74.416l29.796,11.751-11.524,56.051c-1.669,8.114 3.557,16.045 11.672,17.713 1.019,0.21 2.034,0.31 3.036,0.31 6.971,0 13.218-4.887 14.677-11.982l14.063-68.399c1.468-7.139-2.408-14.3-9.189-16.975l-14.738-5.813-.179-.041c-4.864-1.108-3.59-0.818-5.103-1.163-7.048-1.606-11.998-7.54-12.718-14.348l-5.06-48.598 16.749,44.166c1.484,3.914 4.829,6.825 8.91,7.755l48.692,11.097c6.736,1.535 13.431-2.683 14.965-9.41 1.533-6.729-2.68-13.429-9.411-14.964z"/>
    </g>
  </g>
</svg>
