<?xml version="1.0" encoding="iso-8859-1"?>
<!-- Generator: Adobe Illustrator 18.0.0, SVG Export Plug-In . SVG Version: 6.00 Build 0)  -->
<!DOCTYPE svg PUBLIC "-//W3C//DTD SVG 1.1//EN" "http://www.w3.org/Graphics/SVG/1.1/DTD/svg11.dtd">
<svg version="1.1" id="Capa_1" xmlns="http://www.w3.org/2000/svg" xmlns:xlink="http://www.w3.org/1999/xlink" x="0px" y="0px"
	 viewBox="0 0 44 44" style="enable-background:new 0 0 44 44;" xml:space="preserve">
<g>
	<path d="M22,0C9.869,0,0,9.869,0,22s9.869,22,22,22s22-9.869,22-22S34.131,0,22,0z M22,42C10.972,42,2,33.028,2,22S10.972,2,22,2
		s20,8.972,20,20S33.028,42,22,42z"/>
	<path d="M32.36,21.768C32.547,21.924,32.774,22,33,22c0.287,0,0.571-0.123,0.769-0.36c0.354-0.424,0.296-1.055-0.128-1.408
		L28.562,16l5.078-4.232c0.424-0.354,0.481-0.984,0.128-1.408c-0.354-0.425-0.984-0.482-1.408-0.128l-6,5
		C26.132,15.422,26,15.703,26,16s0.132,0.578,0.36,0.768L32.36,21.768z"/>
	<path d="M10.232,21.64C10.43,21.877,10.714,22,11,22c0.226,0,0.453-0.076,0.64-0.232l6-5C17.868,16.578,18,16.297,18,16
		s-0.132-0.578-0.36-0.768l-6-5c-0.425-0.354-1.055-0.296-1.408,0.128c-0.354,0.424-0.296,1.055,0.128,1.408L15.438,16l-5.078,4.232
		C9.936,20.585,9.878,21.216,10.232,21.64z"/>
	<path d="M29.768,27.36c-0.38-0.456-1.156-0.456-1.536,0L24,32.438l-4.232-5.078c-0.38-0.456-1.156-0.456-1.536,0L14,32.438
		L9.768,27.36c-0.354-0.424-0.984-0.482-1.408-0.128c-0.424,0.354-0.481,0.984-0.128,1.408l5,6c0.38,0.456,1.156,0.456,1.536,0
		L19,29.562l4.232,5.078c0.38,0.456,1.156,0.456,1.536,0L29,29.562l4.232,5.078C33.43,34.877,33.714,35,34,35
		c0.226,0,0.453-0.076,0.64-0.232c0.424-0.354,0.481-0.984,0.128-1.408L29.768,27.36z"/>
</g>
<g>
</g>
<g>
</g>
<g>
</g>
<g>
</g>
<g>
</g>
<g>
</g>
<g>
</g>
<g>
</g>
<g>
</g>
<g>
</g>
<g>
</g>
<g>
</g>
<g>
</g>
<g>
</g>
<g>
</g>
</svg>
