<?xml version="1.0" encoding="iso-8859-1"?>
<!-- Generator: Adobe Illustrator 19.0.0, SVG Export Plug-In . SVG Version: 6.00 Build 0)  -->
<svg version="1.1" id="Layer_1" xmlns="http://www.w3.org/2000/svg" xmlns:xlink="http://www.w3.org/1999/xlink" x="0px" y="0px"
	 viewBox="0 0 490 490" style="enable-background:new 0 0 490 490;" xml:space="preserve">
<g id="XMLID_232_">
	<g>
		<g>
			<path d="M50,0v490h390V0H50z M410,460H80V30h330V460z"/>
			<path d="M380,220H110v210h270V220z M170,400h-30v-30h30V400z M170,340h-30v-30h30V340z M170,280h-30v-30h30V280z M230,400h-30
				v-30h30V400z M230,340h-30v-30h30V340z M230,280h-30v-30h30V280z M290,400h-30v-30h30V400z M290,340h-30v-30h30V340z M290,280
				h-30v-30h30V280z M350,400h-30v-90h30V400z M350,280h-30v-30h30V280z"/>
			<path d="M380,60H110v130h270V60z M350,160H140V90h210V160z"/>
		</g>
	</g>
</g>
<g>
</g>
<g>
</g>
<g>
</g>
<g>
</g>
<g>
</g>
<g>
</g>
<g>
</g>
<g>
</g>
<g>
</g>
<g>
</g>
<g>
</g>
<g>
</g>
<g>
</g>
<g>
</g>
<g>
</g>
</svg>
