<?xml version="1.0" encoding="iso-8859-1"?>
<!-- Generator: Adobe Illustrator 16.0.0, SVG Export Plug-In . SVG Version: 6.00 Build 0)  -->
<!DOCTYPE svg PUBLIC "-//W3C//DTD SVG 1.1//EN" "http://www.w3.org/Graphics/SVG/1.1/DTD/svg11.dtd">
<svg version="1.1" id="Layer_1" xmlns="http://www.w3.org/2000/svg" xmlns:xlink="http://www.w3.org/1999/xlink" x="0px" y="0px"
	 width="20.616px" height="31.729px" viewBox="0 0 20.616 31.729" style="enable-background:new 0 0 20.616 31.729;"
	 preserveAspectRatio="fit">
<path d="M5.777,17.389c0.718,0.104,2.554-4.213,2.686-4.309c0.132-0.095,2.776,0.114,2.427-1.295
	c-0.795,0.673-1.168-0.055-1.132-0.586s0.709-1.658,0.886-1.582c0.177,0.078,0.482,0.705,1.118,0.123
	c-0.963,0.092-0.736-1.317-0.437-1.486c0.3-0.168,1.463-0.682,1.8-1.009s0.363-1.358,1.05-1.131c0.686,0.227,0.179,1.69,0.384,2.181
	c0.205,0.491,2.064,2.062,2.033,2.557c-0.032,0.496-0.813,0.407-0.795,1.098c0,0.281,0.487,0.49,0.5,0.817s-0.527,0.573-0.527,0.573
	s0.463,0.127,0.373,0.618c-0.091,0.49-0.684,0.342-0.875,0.445c-0.089,0.048,0.911,1.145,0.166,1.972
	c-0.672,0.791-4.034-0.042-4.681,0.209c-1.217,0.473-2.225,2.114-1.554,2.891c0.67,0.776,2.985,3.281,3.586,5.362
	c1.031,2.728-1.496,7.49-2.909,4.036c-2,1.346,2.181,6.289,8.048-1.15c4.495-6.049,2.296-17.063,0.968-19.536
	C17.566,5.714,11.385-2.83,4.75,0.952C-3.502,5.46,0.424,16.367,5.777,17.389z"/>
<g>
</g>
<g>
</g>
<g>
</g>
<g>
</g>
<g>
</g>
<g>
</g>
<g>
</g>
<g>
</g>
<g>
</g>
<g>
</g>
<g>
</g>
<g>
</g>
<g>
</g>
<g>
</g>
<g>
</g>
</svg>
