<?xml version='1.0' encoding='iso-8859-1'?>
<svg version="1.1" xmlns="http://www.w3.org/2000/svg" viewBox="0 0 463 463" xmlns:xlink="http://www.w3.org/1999/xlink" enable-background="new 0 0 463 463">
  <path d="m239,271h1.909c3.374,13.759 15.806,24 30.591,24 21.631,0 42.322-2.606 58.26-7.34 19.402-5.762 29.24-13.89 29.24-24.16s-9.838-18.398-29.24-24.16c-15.938-4.733-36.629-7.34-58.26-7.34-14.785,0-27.216,10.241-30.591,24h-1.909v-40.868l4.674-1.281c2.806,5.317 7.078,9.725 12.449,12.73 4.766,2.667 10.021,4.026 15.336,4.026 2.874,0 5.766-0.397 8.607-1.2 20.817-5.877 40.021-14.008 54.073-22.895 17.106-10.817 24.365-21.313 21.575-31.196s-14.467-15.033-34.705-15.306c-16.624-0.24-37.246,2.89-58.063,8.767-13.931,3.933-23.021,16.702-22.935,30.523l-1.011,.279v-19.472l23.41-23.41c4.875,2.968 10.483,4.558 16.336,4.558 8.414,0 16.324-3.276 22.274-9.226 15.296-15.296 28.083-31.77 36.006-46.386 9.645-17.793 10.854-30.498 3.592-37.759s-19.966-6.054-37.759,3.592c-14.617,7.923-31.09,20.71-46.386,36.006-5.95,5.95-9.226,13.86-9.226,22.274 0,5.853 1.589,11.461 4.557,16.336l-12.804,12.802v-40.803c13.759-3.374 24-15.806 24-30.591 0-21.631-2.606-42.322-7.34-58.26-5.762-19.402-13.89-29.24-24.16-29.24s-18.398,9.838-24.16,29.24c-4.734,15.938-7.34,36.629-7.34,58.26 0,14.785 10.241,27.216 24,30.591v40.803l-12.803-12.803c2.968-4.875 4.557-10.483 4.557-16.336 0-8.414-3.276-16.324-9.226-22.274-15.296-15.296-31.77-28.083-46.386-36.006-17.794-9.646-30.498-10.855-37.759-3.592-7.262,7.262-6.053,19.966 3.592,37.759 7.923,14.617 20.71,31.09 36.006,46.386 5.95,5.95 13.86,9.226 22.274,9.226 5.853,0 11.461-1.589 16.336-4.558l23.41,23.41v19.472l-1.012-.277c0.086-13.821-9.004-26.59-22.935-30.523-20.818-5.878-41.443-8.999-58.063-8.767-20.238,0.273-31.914,5.422-34.705,15.306s4.468,20.379 21.575,31.196c14.053,8.886 33.256,17.017 54.073,22.895 2.842,0.802 5.733,1.2 8.607,1.2 5.315,0 10.571-1.359 15.336-4.026 5.37-3.006 9.643-7.414 12.449-12.73l4.674,1.281v40.867h-1.909c-3.374-13.759-15.806-24-30.591-24-21.631,0-42.322,2.606-58.26,7.34-19.402,5.762-29.24,13.89-29.24,24.16s9.838,18.398 29.24,24.16c15.938,4.733 36.629,7.34 58.26,7.34 14.785,0 27.216-10.241 30.591-24h1.909v57h-1.909c-3.374-13.759-15.806-24-30.591-24-48.294,0-79.5,12.364-79.5,31.5s31.206,31.5 79.5,31.5c14.785,0 27.216-10.241 30.591-24h1.909v57h-1.909c-3.374-13.759-15.806-24-30.591-24-44.771,0-71.5,11.776-71.5,31.5s26.729,31.5 71.5,31.5c14.785,0 27.216-10.241 30.591-24h1.909v40.5c0,4.142 3.358,7.5 7.5,7.5s7.5-3.358 7.5-7.5v-40.5h1.909c3.374,13.759 15.806,24 30.591,24 44.771,0 71.5-11.776 71.5-31.5s-26.729-31.5-71.5-31.5c-14.785,0-27.216,10.241-30.591,24h-1.909v-57h1.909c3.374,13.759 15.806,24 30.591,24 48.294,0 79.5-12.364 79.5-31.5s-31.206-31.5-79.5-31.5c-14.785,0-27.216,10.241-30.591,24h-1.909v-57zm28.023-87.786c18.665-5.27 37.178-8.187 52.128-8.214 0.068,0 0.135,0 0.203,0 15.992,0 21.27,3.386 21.915,4.396-0.022,1.204-2.772,6.892-16.553,15.314-12.756,7.796-30.061,14.992-48.726,20.262-4.242,1.198-8.696,0.672-12.542-1.48-3.846-2.152-6.624-5.673-7.821-9.915-2.472-8.756 2.64-17.891 11.396-20.363zm-59.65,20.363c-1.198,4.242-3.975,7.763-7.821,9.915-3.846,2.151-8.3,2.679-12.542,1.48-18.665-5.27-35.969-12.466-48.726-20.262-13.781-8.422-16.531-14.111-16.553-15.314 0.647-1.014 5.959-4.421 22.118-4.396 14.95,0.027 33.463,2.944 52.128,8.214 8.756,2.472 13.868,11.607 11.396,20.363zm64.127,43.423c19.395,0 38.003,2.223 52.399,6.26 15.55,4.361 19.743,9.088 20.091,10.24-0.349,1.152-4.541,5.879-20.091,10.24-14.396,4.037-33.004,6.26-52.399,6.26-9.098,0-16.5-7.402-16.5-16.5s7.402-16.5 16.5-16.5zm-4.422-128.913c13.714-13.714 28.445-25.3 41.478-32.625 10.667-5.995 16.872-7.23 19.715-7.23 0.91,0 1.476,0.127 1.732,0.265 0.568,1.061 0.947,7.368-6.966,21.447-7.324,13.033-18.911,27.764-32.625,41.478-6.433,6.433-16.901,6.434-23.335,0-6.432-6.434-6.432-16.901 0.001-23.335zm-52.078-30.587c0-19.395 2.223-38.003 6.26-52.399 4.361-15.55 9.088-19.743 10.24-20.091 1.152,0.349 5.879,4.541 10.24,20.091 4.037,14.396 6.26,33.004 6.26,52.399 0,9.098-7.402,16.5-16.5,16.5s-16.5-7.402-16.5-16.5zm-42.413,53.922c-13.714-13.714-25.3-28.445-32.625-41.478-7.913-14.079-7.534-20.386-6.966-21.447 1.063-0.569 7.369-0.947 21.447,6.966 13.033,7.324 27.764,18.911 41.478,32.625 6.433,6.434 6.433,16.901 0,23.335-6.432,6.431-16.9,6.432-23.334-0.001zm18.913,138.578c-19.395,0-38.003-2.223-52.399-6.26-15.55-4.361-19.743-9.088-20.091-10.24 0.349-1.152 4.541-5.879 20.091-10.24 14.396-4.037 33.004-6.26 52.399-6.26 9.098,0 16.5,7.402 16.5,16.5s-7.402,16.5-16.5,16.5zm0,72c-45.313,0-64.5-11.804-64.5-16.5s19.187-16.5 64.5-16.5c9.098,0 16.5,7.402 16.5,16.5s-7.402,16.5-16.5,16.5zm0,72c-41.161,0-56.5-10.121-56.5-16.5s15.339-16.5 56.5-16.5c9.098,0 16.5,7.402 16.5,16.5s-7.402,16.5-16.5,16.5zm80-33c41.161,0 56.5,10.121 56.5,16.5s-15.339,16.5-56.5,16.5c-9.098,0-16.5-7.402-16.5-16.5s7.402-16.5 16.5-16.5zm0-72c45.313,0 64.5,11.804 64.5,16.5s-19.187,16.5-64.5,16.5c-9.098,0-16.5-7.402-16.5-16.5s7.402-16.5 16.5-16.5z"/>
</svg>
