<?xml version="1.0" encoding="iso-8859-1"?>
<!-- Generator: Adobe Illustrator 19.0.0, SVG Export Plug-In . SVG Version: 6.00 Build 0)  -->
<svg version="1.1" id="Capa_1" xmlns="http://www.w3.org/2000/svg" xmlns:xlink="http://www.w3.org/1999/xlink" x="0px" y="0px"
	 viewBox="0 0 463 463" style="enable-background:new 0 0 463 463;" xml:space="preserve">
<g>
	<path d="M47.5,239c4.142,0,7.5-3.358,7.5-7.5v-8c0-4.142-3.358-7.5-7.5-7.5s-7.5,3.358-7.5,7.5v8C40,235.642,43.358,239,47.5,239z"
		/>
	<path d="M87,231.5v-8c0-4.142-3.358-7.5-7.5-7.5s-7.5,3.358-7.5,7.5v8c0,4.142,3.358,7.5,7.5,7.5S87,235.642,87,231.5z"/>
	<path d="M111.5,239c4.142,0,7.5-3.358,7.5-7.5v-8c0-4.142-3.358-7.5-7.5-7.5s-7.5,3.358-7.5,7.5v8
		C104,235.642,107.358,239,111.5,239z"/>
	<path d="M143.5,239c4.142,0,7.5-3.358,7.5-7.5v-8c0-4.142-3.358-7.5-7.5-7.5s-7.5,3.358-7.5,7.5v8
		C136,235.642,139.358,239,143.5,239z"/>
	<path d="M55.5,248h-16c-4.142,0-7.5,3.358-7.5,7.5s3.358,7.5,7.5,7.5h16c4.142,0,7.5-3.358,7.5-7.5S59.642,248,55.5,248z"/>
	<path d="M111,255.5c0-4.142-3.358-7.5-7.5-7.5h-16c-4.142,0-7.5,3.358-7.5,7.5s3.358,7.5,7.5,7.5h16
		C107.642,263,111,259.642,111,255.5z"/>
	<path d="M135.5,263h16c4.142,0,7.5-3.358,7.5-7.5s-3.358-7.5-7.5-7.5h-16c-4.142,0-7.5,3.358-7.5,7.5S131.358,263,135.5,263z"/>
	<path d="M463,231.5c0-12.958-10.542-23.5-23.5-23.5h-32c-7.023,0-13.332,3.101-17.641,8H367v-8.5c0-4.142-3.358-7.5-7.5-7.5h-40
		c-4.142,0-7.5,3.358-7.5,7.5v8.5h-57v-17h24.5c4.142,0,7.5-3.358,7.5-7.5s-3.358-7.5-7.5-7.5H255v-9h0.5
		c3,0,5.712-1.788,6.894-4.545l24-55.999c0.116-0.271,0.214-0.55,0.298-0.836c0.018-0.06,0.031-0.121,0.047-0.182
		c0.057-0.212,0.105-0.428,0.143-0.647c0.016-0.091,0.029-0.181,0.042-0.272c0.026-0.191,0.044-0.383,0.055-0.578
		c0.006-0.1,0.013-0.199,0.015-0.298c0.001-0.048,0.007-0.094,0.007-0.142v-32c0-4.142-3.358-7.5-7.5-7.5h-96
		c-4.142,0-7.5,3.358-7.5,7.5v32c0,0.048,0.006,0.094,0.007,0.142c0.002,0.1,0.009,0.199,0.015,0.298
		c0.011,0.195,0.029,0.387,0.055,0.578c0.012,0.091,0.026,0.181,0.042,0.272c0.038,0.219,0.087,0.435,0.143,0.647
		c0.016,0.061,0.029,0.122,0.047,0.182c0.084,0.286,0.182,0.566,0.298,0.836L196.126,160H159.5c-0.276,0-0.5-0.224-0.5-0.5v-16
		c0-4.142-3.358-7.5-7.5-7.5s-7.5,3.358-7.5,7.5v16c0,8.547,6.953,15.5,15.5,15.5h48h0.5v41h-17v-16.5c0-4.142-3.358-7.5-7.5-7.5
		H7.5c-4.142,0-7.5,3.358-7.5,7.5v80v104c0,4.142,3.358,7.5,7.5,7.5h352c4.142,0,7.5-3.358,7.5-7.5v-66.145l90.319-22.58
		c3.339-0.834,5.681-3.834,5.681-7.276v-32c0-2.2-0.953-4.173-2.462-5.545c1.573-3.151,2.462-6.7,2.462-10.455V231.5z M448,231.5v8
		c0,4.687-3.813,8.5-8.5,8.5H439v-25h0.5C444.187,223,448,226.813,448,231.5z M407.5,223H424v25h-16.5c-4.687,0-8.5-3.813-8.5-8.5
		v-8C399,226.813,402.813,223,407.5,223z M384.013,231c-0.004,0.167-0.013,0.332-0.013,0.5v8c0,2.997,0.57,5.862,1.597,8.5H367v-17
		H384.013z M327,215h25v33h-25v-24.5V215z M191,87h81v17h-81V87z M268.126,119l-17.571,41h-38.109l-17.571-41H268.126z M223,175h17
		v41h-17V175z M312,231v17H191.5c-0.169,0-0.334,0.014-0.5,0.025V231H312z M176,287v89h-73v-89H176z M191,279.5v-16.525
		c0.166,0.011,0.331,0.025,0.5,0.025H264v113h-73V279.5z M15,207h161v48.5V272H15V207z M15,287h73v89H15V287z M352,376h-73V263h73
		V376z M448,281.644l-81,20.25V263h81V281.644z"/>
</g>
<g>
</g>
<g>
</g>
<g>
</g>
<g>
</g>
<g>
</g>
<g>
</g>
<g>
</g>
<g>
</g>
<g>
</g>
<g>
</g>
<g>
</g>
<g>
</g>
<g>
</g>
<g>
</g>
<g>
</g>
</svg>
