<?xml version='1.0' encoding='iso-8859-1'?>
<svg version="1.1" xmlns="http://www.w3.org/2000/svg" viewBox="0 0 315.38 315.38" xmlns:xlink="http://www.w3.org/1999/xlink" enable-background="new 0 0 315.38 315.38">
  <g>
    <g>
      <circle cx="160.377" cy="45.452" r="25.906"/>
      <path d="m85.839,72.126l41.307,32.399-12.36-5.736c-6.664,30.706-11.289,52.018-16.918,77.952l.034-.017c-1.147,6.473 2.073,13.172 8.292,16.144l63.941,30.548 31.796,42.205c4.995,6.629 14.402,7.931 21.007,2.955 6.617-4.985 7.939-14.389 2.955-21.006l-34.002-45.133c-1.449-1.924-3.341-3.47-5.514-4.509l-67.249-32.13c29.641,6.891 56.572,13.729 56.572,13.729l12.733-4.332-1.128,9.876 4.249,2.03c3.896,1.863 7.327,4.67 9.921,8.114l12.91,17.136 6.543-57.284c0.583-5.106-1.489-10.156-5.491-13.382-4.003-3.226-9.378-4.177-14.243-2.521l-29.604,10.071 7.317-33.716 32.784,6.135c5.68,1.057 11.205-1.887 13.597-6.938l19.165-40.471c2.955-6.239 0.292-13.692-5.947-16.647-6.237-2.955-13.692-0.293-16.646,5.947l-15.041,31.761-26.871-5.029c-2.357-4.264-6.458-7.535-11.593-8.649-33.334-7.234-31.056-6.816-32.968-6.954l8.563,11.253-37.407-29.34 3.395-43.105c0.542-6.875-4.593-12.902-11.48-13.443-0.001,0-0.002,0-0.003,0-6.774-0.532-12.892,4.51-13.44,11.48l-3.922,49.787c-0.329,4.164 1.442,8.229 4.746,10.82z"/>
      <path d="m145.357,263.596h-118.667c-5.523,0-10,4.477-10,10 0,5.522 4.477,10 10,10h118.667c5.522,0 10-4.478 10-10 0-5.521-4.478-10-10-10z"/>
      <path d="m288.69,295.38h-118.619c-5.523,0-10,4.478-10,10 0,5.523 4.477,10 10,10h118.619c5.522,0 10-4.477 10-10 0-5.522-4.478-10-10-10z"/>
      <path d="m125.357,295.38h-39.333c-5.522,0-10,4.478-10,10 0,5.523 4.478,10 10,10h39.333c5.522,0 10-4.477 10-10 0-5.522-4.478-10-10-10z"/>
    </g>
  </g>
</svg>
