<?xml version="1.0" encoding="iso-8859-1"?>
<!-- Generator: Adobe Illustrator 18.0.0, SVG Export Plug-In . SVG Version: 6.00 Build 0)  -->
<!DOCTYPE svg PUBLIC "-//W3C//DTD SVG 1.1//EN" "http://www.w3.org/Graphics/SVG/1.1/DTD/svg11.dtd">
<svg version="1.1" id="Capa_1" xmlns="http://www.w3.org/2000/svg" xmlns:xlink="http://www.w3.org/1999/xlink" x="0px" y="0px"
	 viewBox="0 0 59.979 59.979" style="enable-background:new 0 0 59.979 59.979;" xml:space="preserve">
<g>
	<path d="M34.99,48c-7.072,0-12-1.581-12-3c0-0.553-0.447-1-1-1s-1,0.447-1,1c0,4.759,11.662,5,14,5c0.553,0,1-0.447,1-1
		S35.542,48,34.99,48z"/>
	<path d="M29.99,0C25.46,0,21.13,0.942,17.119,2.8l-0.479,0.222l-0.247,1.483c-0.069-0.093-0.14-0.187-0.208-0.279l-0.53-0.712
		l-0.77,0.441c-1.706,0.977-3.28,2.105-4.68,3.354L9.668,7.787l1.479,3.454L7.643,9.927L7.19,10.494
		C3.788,14.75,1.99,19.766,1.99,25c0,0.125,0.007,0.249,0.015,0.372l0.047,1.565l1.808-0.628c0.047-0.016,0.107-0.037,0.158-0.054
		c0.144,5.885,1.346,9.484,2.973,11.622V50.98c0,2.757,2.243,5,5,5h3v1.694c0,1.271,1.034,2.305,2.306,2.305h23.389
		c1.271,0,2.306-1.034,2.306-2.305V55.98h3c2.757,0,5-2.243,5-5V39.74c2.525-1.579,4.723-5.27,4.967-13.196
		c0.623,0.12,1.082,0.077,1.446-0.161c0.365-0.237,0.575-0.632,0.579-1.161c0.004-0.074,0.008-0.147,0.008-0.222
		C57.99,11.215,45.429,0,29.99,0z M8.31,12.313l6.521,2.445l-2.754-6.427c0.939-0.788,1.957-1.521,3.038-2.188
		c0.581,0.785,1.067,1.447,1.067,1.447l1.403,1.913l0.851-5.105C22.049,2.807,25.933,2,29.99,2
		c14.137,0,25.674,10.033,25.992,22.472l-0.525-0.278c-1.434-0.759-2.932-1.377-4.468-1.864V18.98v-1.747l-1.507,0.885
		c-2.455,1.444-4.603,1.885-6.385,1.314c-2.221-0.714-3.183-2.832-3.19-2.849l-0.22-0.508l-0.546-0.084
		c-9.595-1.478-14.262,2.537-15.57,3.94c-6.965-0.755-9.986-2.757-10.013-2.774l-0.74-0.513l-0.587,0.683
		c-1.558,1.811-3.355,2.732-4.588,3.188L6.99,20.757v0.697v1.604c-0.237,0.096-0.475,0.19-0.709,0.293
		c-0.732,0.258-1.584,0.553-2.273,0.791C4.183,19.906,5.66,15.847,8.31,12.313z M47.2,21.417c-0.08-0.013-0.16-0.035-0.24-0.048
		c0.038-0.01,0.077-0.026,0.115-0.036c0.222-0.061,0.447-0.134,0.674-0.211c0.09-0.031,0.18-0.057,0.271-0.09
		c0.32-0.118,0.643-0.249,0.97-0.399v1.14c-0.079-0.019-0.16-0.029-0.239-0.048C48.236,21.608,47.72,21.504,47.2,21.417z
		 M40.59,21.085c-0.373,0.025-0.745,0.059-1.116,0.099c-0.171,0.018-0.343,0.035-0.514,0.056c-0.373,0.047-0.744,0.104-1.115,0.166
		c-0.165,0.027-0.33,0.051-0.494,0.081c-0.4,0.074-0.798,0.161-1.194,0.252c-0.129,0.03-0.259,0.054-0.388,0.085
		c-1.05,0.257-2.084,0.576-3.095,0.954c-0.141,0.053-0.279,0.113-0.419,0.168c-0.362,0.142-0.722,0.288-1.077,0.445
		c-0.167,0.074-0.331,0.155-0.497,0.233c-0.23,0.108-0.464,0.209-0.691,0.324c-0.267-0.135-0.539-0.256-0.809-0.382
		c-0.106-0.049-0.211-0.102-0.318-0.15c-1.397-0.629-2.836-1.138-4.304-1.524l0.237-0.322c0.037-0.051,3.797-4.998,13.546-3.676
		c0.06,0.104,0.132,0.22,0.213,0.345c0.029,0.044,0.064,0.092,0.096,0.139c0.058,0.086,0.118,0.172,0.186,0.264
		c0.043,0.059,0.092,0.118,0.139,0.179c0.068,0.087,0.137,0.173,0.213,0.262c0.056,0.066,0.116,0.131,0.176,0.198
		c0.08,0.088,0.163,0.175,0.251,0.264c0.067,0.068,0.136,0.134,0.208,0.202c0.095,0.088,0.195,0.175,0.298,0.261
		c0.078,0.065,0.154,0.13,0.237,0.194c0.114,0.088,0.236,0.172,0.36,0.256c0.084,0.057,0.164,0.115,0.252,0.169
		c0.152,0.094,0.316,0.181,0.482,0.266c0.071,0.037,0.136,0.077,0.21,0.112c0.01,0.005,0.019,0.01,0.029,0.015
		c-0.199,0.006-0.397,0.023-0.595,0.033C40.927,21.066,40.759,21.074,40.59,21.085z M12.29,21.501
		c-0.484,0.092-0.968,0.188-1.448,0.306c-0.558,0.135-1.112,0.288-1.661,0.457c-0.063,0.02-0.128,0.032-0.19,0.052V22.13
		c1.231-0.532,2.768-1.422,4.196-2.884c0.098,0.051,0.207,0.105,0.324,0.162c0.035,0.017,0.074,0.035,0.11,0.052
		c0.087,0.042,0.178,0.084,0.276,0.128c0.049,0.022,0.101,0.045,0.152,0.068c0.094,0.042,0.193,0.084,0.296,0.127
		c0.06,0.025,0.12,0.051,0.183,0.076c0.112,0.046,0.231,0.093,0.352,0.14c0.06,0.023,0.117,0.046,0.18,0.07
		c0.184,0.07,0.377,0.14,0.581,0.211c0.044,0.015,0.092,0.031,0.137,0.046c0.165,0.056,0.335,0.113,0.513,0.17
		c0.088,0.028,0.181,0.056,0.273,0.084c0.145,0.045,0.293,0.089,0.447,0.134c0.106,0.03,0.214,0.061,0.323,0.091
		c0.152,0.042,0.308,0.083,0.467,0.125c0.075,0.02,0.144,0.04,0.222,0.059c-1.821-0.034-3.644,0.134-5.449,0.458
		C12.478,21.464,12.384,21.483,12.29,21.501z M7.028,25.208c0.546-0.193,1.026-0.365,1.315-0.474L8.99,24.49v-0.055
		c0.364-0.126,0.73-0.248,1.099-0.357c0.05-0.015,0.1-0.029,0.151-0.043c5.207-1.504,10.86-1.347,15.974,0.473
		c0.016,0.006,0.033,0.012,0.049,0.018c0.403,0.145,0.802,0.302,1.198,0.468c0.121,0.051,0.241,0.103,0.361,0.155
		c0.297,0.129,0.591,0.266,0.883,0.407c0.09,0.044,0.18,0.089,0.27,0.134c-0.001,0.031-0.002,0.058-0.003,0.089
		c-0.002,0.052-0.006,0.107-0.009,0.163c-0.005,0.097-0.012,0.198-0.02,0.303c-0.005,0.065-0.01,0.132-0.016,0.2
		c-0.009,0.106-0.02,0.217-0.032,0.329c-0.008,0.075-0.016,0.15-0.025,0.227c-0.014,0.12-0.031,0.244-0.048,0.37
		c-0.011,0.077-0.02,0.153-0.032,0.233c-0.021,0.139-0.046,0.284-0.071,0.429c-0.013,0.073-0.024,0.145-0.038,0.219
		c-0.037,0.196-0.079,0.397-0.125,0.602c-0.006,0.027-0.011,0.053-0.017,0.081c-0.053,0.231-0.113,0.468-0.179,0.707
		c-0.02,0.073-0.045,0.149-0.067,0.223c-0.049,0.167-0.098,0.333-0.154,0.502c-0.032,0.096-0.068,0.194-0.102,0.29
		c-0.053,0.15-0.106,0.3-0.164,0.451c-0.041,0.105-0.085,0.21-0.129,0.315c-0.06,0.144-0.122,0.289-0.188,0.433
		c-0.049,0.109-0.102,0.217-0.155,0.325c-0.069,0.141-0.141,0.281-0.216,0.422c-0.059,0.11-0.119,0.219-0.181,0.329
		c-0.079,0.138-0.164,0.276-0.249,0.413c-0.067,0.107-0.134,0.215-0.206,0.321c-0.093,0.139-0.193,0.275-0.294,0.411
		c-0.074,0.101-0.146,0.203-0.225,0.302c-0.113,0.143-0.234,0.281-0.355,0.42c-0.077,0.088-0.15,0.179-0.231,0.266
		c-0.172,0.184-0.355,0.363-0.543,0.538c-0.037,0.035-0.07,0.072-0.108,0.106c-2.858,2.588-7.084,3.624-12.563,3.072
		c-0.033-0.003-0.062-0.014-0.096-0.018c-0.291-0.034-0.572-0.088-0.841-0.165c-0.116-0.033-0.221-0.083-0.332-0.124
		c-0.181-0.066-0.361-0.134-0.532-0.221c-0.105-0.053-0.202-0.118-0.302-0.178c-0.177-0.108-0.351-0.222-0.517-0.354
		c-0.07-0.055-0.139-0.114-0.207-0.173c-0.211-0.187-0.416-0.389-0.61-0.619c-2.132-2.504-2.749-7.1-2.801-11.243
		C6.334,25.516,6.681,25.362,7.028,25.208z M40.99,57.675c0,0.168-0.137,0.305-0.306,0.305H17.295c-0.169,0-0.306-0.137-0.306-0.305
		V55.98h24V57.675z M48.99,40.589V50.98c0,1.654-1.346,3-3,3h-3v-0.001h-28v0.001h-3c-1.654,0-3-1.346-3-3V39.743
		c0.012,0.008,0.025,0.013,0.037,0.021c0.184,0.113,0.369,0.215,0.556,0.307c0.059,0.029,0.116,0.06,0.176,0.087
		c0.171,0.078,0.342,0.146,0.513,0.208c0.08,0.029,0.159,0.061,0.241,0.087c0.167,0.053,0.332,0.097,0.499,0.137
		c0.088,0.021,0.174,0.047,0.264,0.065c0.221,0.045,0.439,0.078,0.656,0.102c0.034,0.004,0.067,0.012,0.102,0.016
		c0.027,0.003,0.052,0.002,0.078,0.005c0.648,0.063,1.276,0.1,1.894,0.122c0.156,0.005,0.311,0.01,0.466,0.012
		c0.167,0.003,0.34,0.013,0.504,0.013c0.321,0,0.626-0.021,0.938-0.032c0.184-0.007,0.373-0.008,0.555-0.019
		c1.25-0.076,2.428-0.25,3.531-0.521c0.166-0.041,0.323-0.093,0.486-0.138c0.375-0.104,0.745-0.216,1.102-0.344
		c0.188-0.067,0.371-0.141,0.554-0.215c0.322-0.13,0.635-0.27,0.941-0.419c0.176-0.086,0.352-0.173,0.522-0.266
		c0.313-0.17,0.614-0.356,0.91-0.549c0.139-0.091,0.282-0.175,0.417-0.27c0.42-0.297,0.826-0.613,1.207-0.958
		c0.043-0.039,0.079-0.08,0.121-0.119c0.212-0.197,0.418-0.396,0.612-0.602c0.096-0.101,0.182-0.206,0.274-0.31
		c0.132-0.15,0.266-0.299,0.389-0.451c0.093-0.115,0.178-0.231,0.266-0.347c0.11-0.146,0.221-0.292,0.324-0.441
		c0.084-0.121,0.162-0.242,0.241-0.364c0.096-0.148,0.19-0.296,0.279-0.445c0.073-0.123,0.143-0.245,0.212-0.369
		c0.084-0.152,0.166-0.303,0.244-0.455c0.063-0.123,0.124-0.245,0.183-0.367c0.074-0.156,0.144-0.311,0.212-0.466
		c0.052-0.119,0.105-0.237,0.153-0.356c0.066-0.163,0.127-0.324,0.188-0.486c0.041-0.111,0.085-0.223,0.123-0.333
		c0.01-0.028,0.022-0.057,0.031-0.084c0.01,0.028,0.021,0.056,0.031,0.084c0.039,0.111,0.082,0.222,0.123,0.333
		c0.06,0.162,0.121,0.323,0.188,0.486c0.049,0.119,0.101,0.237,0.153,0.356c0.068,0.156,0.138,0.311,0.212,0.466
		c0.059,0.123,0.12,0.245,0.183,0.367c0.078,0.152,0.159,0.304,0.244,0.455c0.069,0.123,0.139,0.246,0.212,0.369
		c0.089,0.149,0.183,0.297,0.279,0.445c0.079,0.122,0.157,0.243,0.241,0.364c0.103,0.148,0.213,0.294,0.324,0.441
		c0.088,0.116,0.173,0.233,0.266,0.347c0.124,0.153,0.257,0.302,0.389,0.451c0.091,0.103,0.178,0.208,0.274,0.31
		c0.194,0.205,0.4,0.405,0.612,0.602c0.042,0.039,0.078,0.081,0.121,0.119c0.382,0.346,0.789,0.662,1.21,0.959
		c0.132,0.094,0.273,0.176,0.409,0.265c0.297,0.194,0.601,0.382,0.916,0.553c0.171,0.093,0.346,0.179,0.522,0.266
		c0.304,0.149,0.616,0.288,0.936,0.417c0.186,0.075,0.372,0.15,0.563,0.219c0.347,0.124,0.707,0.233,1.072,0.335
		c0.174,0.049,0.343,0.104,0.521,0.147c0.546,0.134,1.106,0.25,1.689,0.336c0.028,0.004,0.059,0.005,0.087,0.01
		c0.558,0.08,1.135,0.136,1.727,0.172c0.203,0.012,0.415,0.014,0.622,0.021c0.296,0.01,0.585,0.031,0.889,0.031
		c0.158,0,0.322-0.01,0.482-0.013c0.168-0.003,0.337-0.007,0.507-0.013c0.611-0.022,1.232-0.059,1.872-0.121
		c0.028-0.003,0.053-0.002,0.081-0.005h0.001c0.013-0.001,0.025-0.005,0.037-0.007c0.309-0.032,0.622-0.091,0.938-0.165
		C48.945,40.595,48.968,40.594,48.99,40.589z M49.527,38.266c-0.277,0.139-0.559,0.25-0.848,0.335
		c-0.004,0.001-0.007,0.003-0.01,0.004c-0.253,0.074-0.517,0.117-0.786,0.152c-0.047,0.006-0.088,0.02-0.135,0.025
		c-5.471,0.553-9.703-0.484-12.563-3.072c-0.038-0.034-0.071-0.072-0.108-0.106c-0.188-0.176-0.372-0.354-0.543-0.538
		c-0.081-0.087-0.154-0.177-0.231-0.266c-0.121-0.139-0.243-0.278-0.355-0.42c-0.078-0.099-0.151-0.201-0.225-0.302
		c-0.1-0.136-0.2-0.272-0.294-0.411c-0.071-0.106-0.138-0.213-0.205-0.321c-0.086-0.137-0.17-0.275-0.25-0.414
		c-0.062-0.108-0.122-0.217-0.18-0.326c-0.075-0.141-0.148-0.282-0.217-0.423c-0.053-0.108-0.105-0.217-0.154-0.325
		c-0.066-0.144-0.128-0.289-0.188-0.433c-0.044-0.105-0.088-0.21-0.129-0.315c-0.058-0.151-0.112-0.301-0.164-0.451
		c-0.034-0.097-0.07-0.194-0.102-0.29c-0.055-0.169-0.105-0.336-0.154-0.502c-0.022-0.074-0.046-0.15-0.067-0.223
		c-0.066-0.239-0.126-0.476-0.179-0.707c-0.006-0.028-0.011-0.053-0.017-0.081c-0.046-0.204-0.088-0.406-0.125-0.602
		c-0.014-0.075-0.025-0.146-0.038-0.219c-0.025-0.145-0.05-0.29-0.071-0.429c-0.012-0.079-0.022-0.154-0.032-0.231
		c-0.017-0.127-0.034-0.254-0.048-0.375c-0.009-0.075-0.016-0.148-0.024-0.221c-0.012-0.114-0.023-0.227-0.032-0.333
		c-0.006-0.068-0.011-0.135-0.016-0.2c-0.008-0.105-0.015-0.207-0.02-0.303c-0.003-0.055-0.006-0.111-0.009-0.163
		c-0.001-0.032-0.002-0.06-0.003-0.091c0.072-0.036,0.143-0.072,0.216-0.107c0.29-0.141,0.583-0.275,0.878-0.405
		c0.131-0.057,0.262-0.117,0.394-0.172c0.361-0.151,0.726-0.292,1.093-0.426c0.065-0.024,0.13-0.051,0.195-0.074
		c0.441-0.157,0.887-0.301,1.336-0.433c0.088-0.026,0.178-0.048,0.267-0.073c0.357-0.101,0.716-0.196,1.077-0.281
		c0.136-0.032,0.272-0.061,0.408-0.091c0.323-0.071,0.647-0.136,0.972-0.195c0.141-0.025,0.281-0.05,0.422-0.073
		c0.341-0.055,0.683-0.103,1.026-0.145c0.117-0.014,0.234-0.031,0.352-0.044c0.445-0.048,0.892-0.087,1.339-0.113
		c0.013-0.001,0.025-0.002,0.038-0.003c0.479-0.027,0.959-0.04,1.439-0.04c0.071,0,0.142,0.003,0.213,0.004
		c0.389,0.003,0.777,0.013,1.165,0.033c0.14,0.007,0.279,0.018,0.419,0.027c0.318,0.021,0.636,0.048,0.953,0.081
		c0.167,0.017,0.334,0.036,0.5,0.056c0.286,0.035,0.57,0.077,0.855,0.122c0.185,0.029,0.371,0.056,0.555,0.09
		c0.252,0.045,0.502,0.099,0.752,0.151c0.211,0.044,0.422,0.084,0.632,0.134c0.019,0.005,0.038,0.01,0.057,0.015
		c0.145,0.035,0.288,0.077,0.432,0.114v0.056l0.723,0.209c0.477,0.138,1.353,0.526,2.28,0.939c0.762,0.338,1.416,0.622,1.988,0.854
		C53.894,30.913,52.972,36.53,49.527,38.266z"/>
	<path d="M40.541,33.285l-1.258,1.258c-0.391,0.391-0.391,1.023,0,1.414c0.195,0.195,0.451,0.293,0.707,0.293
		s0.512-0.098,0.707-0.293l1.258-1.258c0.391-0.391,0.391-1.023,0-1.414S40.931,32.895,40.541,33.285z"/>
	<path d="M46.197,30.457c0.391-0.391,0.391-1.023,0-1.414s-1.023-0.391-1.414,0l-2.121,2.121c-0.391,0.391-0.391,1.023,0,1.414
		c0.195,0.195,0.451,0.293,0.707,0.293s0.512-0.098,0.707-0.293L46.197,30.457z"/>
	<path d="M50.283,29.043l-2.121,2.121c-0.391,0.391-0.391,1.023,0,1.414c0.195,0.195,0.451,0.293,0.707,0.293
		s0.512-0.098,0.707-0.293l2.121-2.121c0.391-0.391,0.391-1.023,0-1.414S50.673,28.652,50.283,29.043z"/>
	<path d="M46.041,33.285l-2.122,2.122c-0.391,0.391-0.391,1.023,0,1.414c0.195,0.195,0.451,0.293,0.707,0.293
		s0.512-0.098,0.707-0.293l2.122-2.122c0.391-0.391,0.391-1.023,0-1.414S46.431,32.895,46.041,33.285z"/>
	<path d="M12.369,28.871c0.256,0,0.512-0.098,0.707-0.293l2.121-2.121c0.391-0.391,0.391-1.023,0-1.414s-1.023-0.391-1.414,0
		l-2.121,2.121c-0.391,0.391-0.391,1.023,0,1.414C11.857,28.773,12.113,28.871,12.369,28.871z"/>
	<path d="M8.99,32.25c0.256,0,0.512-0.098,0.707-0.293l1.258-1.258c0.391-0.391,0.391-1.023,0-1.414s-1.023-0.391-1.414,0
		l-1.258,1.258c-0.391,0.391-0.391,1.023,0,1.414C8.478,32.152,8.734,32.25,8.99,32.25z"/>
	<path d="M12.918,31.407c-0.391,0.391-0.391,1.023,0,1.414c0.195,0.195,0.451,0.293,0.707,0.293s0.512-0.098,0.707-0.293
		l2.122-2.122c0.391-0.391,0.391-1.023,0-1.414s-1.023-0.391-1.414,0L12.918,31.407z"/>
	<path d="M17.869,28.871c0.256,0,0.512-0.098,0.707-0.293l2.121-2.121c0.391-0.391,0.391-1.023,0-1.414s-1.023-0.391-1.414,0
		l-2.121,2.121c-0.391,0.391-0.391,1.023,0,1.414C17.357,28.773,17.613,28.871,17.869,28.871z"/>
</g>
<g>
</g>
<g>
</g>
<g>
</g>
<g>
</g>
<g>
</g>
<g>
</g>
<g>
</g>
<g>
</g>
<g>
</g>
<g>
</g>
<g>
</g>
<g>
</g>
<g>
</g>
<g>
</g>
<g>
</g>
</svg>
