<?xml version="1.0" encoding="iso-8859-1"?>
<!-- Generator: Adobe Illustrator 19.0.0, SVG Export Plug-In . SVG Version: 6.00 Build 0)  -->
<svg version="1.1" id="Layer_1" xmlns="http://www.w3.org/2000/svg" xmlns:xlink="http://www.w3.org/1999/xlink" x="0px" y="0px"
	 viewBox="0 0 400 400" style="enable-background:new 0 0 400 400;" xml:space="preserve">
<g id="XMLID_352_">
	<g>
		<path d="M368.572,150c-7.857,0-23.572,7.857-23.572,15.715c0-5.497-7.69-10.989-15-13.796c-3.14-1.206-6.211-1.919-8.572-1.919
			c-15.714,0-31.428,0-31.428,0c0,19.638,16.367,39.262,40,45.27V205c0,19.331-15.67,35-35,35c-19.33,0-35-15.669-35-35v-74
			c0-28.166-22.834-51-51-51H51c-28.167,0-51,22.834-51,51v98c0,2.031,0.132,4.031,0.363,6H95c13.785,0,25-11.215,25-25h20
			c0,24.814-20.187,45-45,45H7.127c8.888,14.965,25.205,25,43.873,25h89c0,22.092,17.908,40,40,40v-40h129c28.167,0,51-22.833,51-51
			v-33.73c23.633-6.008,40-25.632,40-45.27C400,150,384.286,150,368.572,150z M130,190c-5.523,0-10-4.477-10-10s4.477-10,10-10
			s10,4.477,10,10S135.523,190,130,190z"/>
	</g>
</g>
<g>
</g>
<g>
</g>
<g>
</g>
<g>
</g>
<g>
</g>
<g>
</g>
<g>
</g>
<g>
</g>
<g>
</g>
<g>
</g>
<g>
</g>
<g>
</g>
<g>
</g>
<g>
</g>
<g>
</g>
</svg>
