<?xml version="1.0" encoding="utf-8"?>
<!-- Generator: Adobe Illustrator 16.0.4, SVG Export Plug-In . SVG Version: 6.00 Build 0)  -->
<!DOCTYPE svg PUBLIC "-//W3C//DTD SVG 1.1//EN" "http://www.w3.org/Graphics/SVG/1.1/DTD/svg11.dtd">
<svg version="1.1" id="Layer_1" xmlns="http://www.w3.org/2000/svg" xmlns:xlink="http://www.w3.org/1999/xlink" x="0px" y="0px"
	 width="32px" height="32px" viewBox="0 0 32 32" enable-background="new 0 0 32 32" xml:space="preserve">
<g>
	<polygon points="7.98,21.578 5.256,29.295 10.193,27.648 13.001,32.029 15.759,24.217 13.139,21.936 	"/>
	<polygon points="26.698,21.578 21.54,21.936 18.919,24.217 21.677,32.029 24.484,27.648 29.422,29.295 	"/>
	<path d="M25.445,19.9l0.32-4.617l3.039-3.489l-3.039-3.49l-0.32-4.617l-4.615-0.32l-3.49-3.039l-3.491,3.039l-4.616,0.32
		l-0.32,4.618l-3.038,3.49l3.038,3.489l0.32,4.616l4.617,0.32l3.491,3.037l3.49-3.037L25.445,19.9z M17.279,18.154
		c-3.546,0-6.422-2.875-6.422-6.42s2.875-6.422,6.422-6.422c3.547,0,6.422,2.876,6.422,6.422S20.825,18.154,17.279,18.154z"/>
	<polygon points="15.155,9.019 15.431,10.282 16.798,9.639 16.814,9.639 16.814,15.29 18.445,15.29 18.445,8.125 17.051,8.125 	"/>
</g>
</svg>
