<?xml version="1.0" encoding="iso-8859-1"?>
<!-- Generator: Adobe Illustrator 18.0.0, SVG Export Plug-In . SVG Version: 6.00 Build 0)  -->
<!DOCTYPE svg PUBLIC "-//W3C//DTD SVG 1.1//EN" "http://www.w3.org/Graphics/SVG/1.1/DTD/svg11.dtd">
<svg version="1.1" id="Capa_1" xmlns="http://www.w3.org/2000/svg" xmlns:xlink="http://www.w3.org/1999/xlink" x="0px" y="0px"
	 viewBox="0 0 59.978 59.978" style="enable-background:new 0 0 59.978 59.978;" xml:space="preserve">
<g>
	<path d="M36.715,47.313c0.055-0.027,0.113-0.048,0.164-0.086l4-3c0.442-0.331,0.532-0.958,0.2-1.399
		c-0.331-0.443-0.958-0.532-1.399-0.2l-1.205,0.904c-5.373-3.599-11.33,0.053-14.312,3.059l-1.284-0.963
		c-0.441-0.33-1.068-0.242-1.399,0.2c-0.332,0.441-0.242,1.068,0.2,1.399l4,3c0.18,0.135,0.39,0.2,0.599,0.2
		c0.305,0,0.604-0.138,0.801-0.4c0.332-0.441,0.242-1.068-0.2-1.399l-1.083-0.813c1.8-1.696,6.497-5.415,10.973-3.004l-1.089,0.817
		c-0.018,0.013-0.026,0.033-0.042,0.047c-0.021,0.017-0.049,0.024-0.068,0.043c-0.038,0.038-0.055,0.086-0.085,0.128
		c-0.032,0.044-0.064,0.085-0.088,0.132c-0.031,0.063-0.051,0.128-0.068,0.196c-0.016,0.061-0.031,0.12-0.035,0.183
		c-0.002,0.024-0.013,0.046-0.013,0.071c0,0.038,0.018,0.074,0.023,0.112c0.008,0.068,0.018,0.133,0.04,0.199
		c0.022,0.066,0.053,0.123,0.087,0.183c0.02,0.034,0.026,0.072,0.05,0.104c0.01,0.014,0.027,0.019,0.038,0.032
		c0.02,0.025,0.03,0.056,0.051,0.079c0.058,0.055,0.131,0.088,0.2,0.129c0.035,0.021,0.064,0.049,0.101,0.066
		c0.13,0.058,0.268,0.095,0.409,0.095c0.006,0,0.011-0.003,0.017-0.004c0.115-0.002,0.228-0.028,0.338-0.07
		C36.663,47.344,36.687,47.327,36.715,47.313z"/>
	<path d="M39.061,37.978c3.859,0,7-3.141,7-7s-3.141-7-7-7s-7,3.141-7,7S35.201,37.978,39.061,37.978z M39.061,25.978
		c2.757,0,5,2.243,5,5s-2.243,5-5,5s-5-2.243-5-5S36.304,25.978,39.061,25.978z"/>
	<path d="M21.061,37.978c3.859,0,7-3.141,7-7s-3.141-7-7-7s-7,3.141-7,7S17.201,37.978,21.061,37.978z M21.061,25.978
		c2.757,0,5,2.243,5,5s-2.243,5-5,5s-5-2.243-5-5S18.304,25.978,21.061,25.978z"/>
	<path d="M56.27,18.842c-0.563-4.082-2.323-7.606-4.825-9.668c-0.644-0.53-1.115-1.365-1.402-2.479
		c-0.826-3.208-3.847-5.451-7.694-5.715c-2.14-0.148-3.994,0.518-6.028,1.331c-0.07,0.028-0.155,0.028-0.277-0.05
		c-0.416-1.106-1.36-1.867-2.658-2.143c-3-0.634-7.634,1.311-11.353,4.692c0.006-0.89,0.191-1.687,0.695-1.938l1.685-0.843
		L22.77,1.106c-1.738-0.977-5.926-2.037-9.334,0.945c-1.237,1.083-2.137,2.596-2.599,4.377c-0.095,0.364-0.191,0.755-0.277,1.139
		c-0.038,0.167-0.175,0.218-0.231,0.231c-0.105,0.024-0.196,0-0.298-0.122C9.496,7.025,8.689,6.703,7.859,6.819
		C7.064,6.932,6.399,7.44,6.079,8.181c-1.968,4.568-5.648,16.194,2.2,26.139v16.658c0,2.757,2.243,5,5,5h4v1.695
		c0,1.271,1.034,2.305,2.306,2.305h23.389c1.271,0,2.306-1.034,2.306-2.305v-1.695h2c2.757,0,5-2.243,5-5V34.373
		C53.451,33.055,57.503,27.762,56.27,18.842z M7.915,8.973C7.932,8.935,7.98,8.822,8.138,8.8c0.05-0.006,0.216-0.014,0.394,0.202
		c0.554,0.662,1.423,0.943,2.268,0.74c0.862-0.209,1.519-0.874,1.712-1.735c0.082-0.362,0.173-0.731,0.262-1.076
		c0.361-1.39,1.046-2.557,1.979-3.373c2.096-1.835,4.415-1.597,5.801-1.195c-0.5,0.948-0.648,2.28-0.419,3.913
		c0.076,0.538,0.443,0.979,0.959,1.149c0.522,0.169,1.089,0.035,1.478-0.358c3.809-3.866,8.204-5.457,10.399-4.99
		c0.94,0.199,1.137,0.72,1.201,0.891c0.198,0.525,0.597,0.942,1.123,1.174c0.557,0.244,1.203,0.253,1.768,0.028
		c1.867-0.747,3.432-1.309,5.149-1.192c2.366,0.161,5.156,1.354,5.894,4.217c0.396,1.532,1.091,2.718,2.067,3.523
		c1.003,0.827,3.412,3.3,4.117,8.398c0.768,5.555-0.699,9.517-2.01,11.811V18.978v-1.747l-1.507,0.885
		c-2.456,1.443-4.604,1.889-6.385,1.314c-0.277-0.089-0.535-0.2-0.774-0.326c-0.06-0.031-0.107-0.071-0.164-0.104
		c-0.172-0.1-0.344-0.201-0.495-0.313c-0.053-0.039-0.094-0.082-0.145-0.123c-0.141-0.113-0.283-0.226-0.404-0.343
		c-0.054-0.052-0.094-0.103-0.144-0.154c-0.103-0.108-0.21-0.216-0.298-0.321c-0.051-0.062-0.088-0.116-0.134-0.175
		c-0.07-0.09-0.146-0.184-0.204-0.267c-0.042-0.061-0.07-0.108-0.106-0.164c-0.045-0.07-0.098-0.147-0.133-0.206
		c-0.021-0.035-0.03-0.054-0.047-0.085c-0.087-0.154-0.141-0.264-0.143-0.267l-0.22-0.508l-0.546-0.084
		c-9.594-1.476-14.262,2.538-15.57,3.94c-6.965-0.755-9.986-2.757-10.013-2.774l-0.74-0.513l-0.587,0.683
		c-0.389,0.453-0.794,0.85-1.201,1.198c-1.221,1.045-2.463,1.649-3.388,1.99l-0.653,0.241v0.697v9.368
		C3.378,22.634,5.843,13.785,7.915,8.973z M43.279,57.674c0,0.168-0.137,0.305-0.306,0.305H19.585c-0.169,0-0.306-0.137-0.306-0.305
		v-1.695h24V57.674z M50.279,50.978c0,1.654-1.346,3-3,3h-2h-28h-4c-1.654,0-3-1.346-3-3V36.79V22.129
		c1.231-0.532,2.768-1.422,4.196-2.885c1.407,0.73,4.807,2.158,10.707,2.729l0.562,0.05l0.337-0.448
		c0.156-0.207,3.893-4.992,13.55-3.68c0.516,0.89,1.798,2.673,4.113,3.429c1.951,0.639,4.145,0.404,6.535-0.693v15.718V50.978z"/>
	<path d="M44.98,49.709c0.189-0.19,0.3-0.45,0.3-0.71s-0.11-0.521-0.29-0.71c-0.37-0.37-1.05-0.37-1.42,0
		c-0.181,0.189-0.29,0.45-0.29,0.71s0.109,0.52,0.29,0.71c0.189,0.189,0.45,0.29,0.71,0.29S44.799,49.889,44.98,49.709z"/>
	<path d="M43.579,45.289c-0.19,0.18-0.3,0.439-0.3,0.71c0,0.27,0.109,0.52,0.29,0.71c0.189,0.189,0.439,0.29,0.71,0.29
		c0.26,0,0.52-0.11,0.71-0.29c0.189-0.19,0.29-0.45,0.29-0.71s-0.11-0.521-0.29-0.71C44.619,44.919,43.94,44.919,43.579,45.289z"/>
	<path d="M46.569,45.289c-0.181,0.18-0.29,0.439-0.29,0.71c0,0.27,0.109,0.52,0.29,0.71c0.189,0.189,0.439,0.29,0.71,0.29
		c0.26,0,0.52-0.11,0.71-0.29c0.189-0.19,0.29-0.45,0.29-0.71s-0.11-0.521-0.29-0.71C47.619,44.919,46.94,44.919,46.569,45.289z"/>
	<path d="M46.569,48.289c-0.181,0.189-0.29,0.45-0.29,0.71s0.109,0.52,0.29,0.71c0.189,0.189,0.45,0.29,0.71,0.29
		s0.52-0.101,0.71-0.29c0.18-0.19,0.29-0.45,0.29-0.71s-0.11-0.521-0.29-0.71C47.609,47.919,46.94,47.919,46.569,48.289z"/>
	<path d="M44.569,51.289c-0.181,0.189-0.29,0.45-0.29,0.71s0.109,0.52,0.29,0.71c0.189,0.189,0.45,0.29,0.71,0.29
		s0.51-0.101,0.71-0.29c0.18-0.19,0.29-0.45,0.29-0.71s-0.11-0.521-0.29-0.71C45.609,50.919,44.949,50.919,44.569,51.289z"/>
	<path d="M41.569,51.289c-0.181,0.189-0.29,0.45-0.29,0.71c0,0.27,0.1,0.52,0.29,0.71c0.189,0.189,0.45,0.29,0.71,0.29
		s0.52-0.101,0.71-0.29c0.18-0.19,0.29-0.45,0.29-0.71s-0.11-0.521-0.29-0.71C42.609,50.919,41.949,50.919,41.569,51.289z"/>
	<path d="M41.989,49.709c0.18-0.19,0.29-0.45,0.29-0.71s-0.11-0.521-0.29-0.71c-0.37-0.37-1.04-0.37-1.42,0
		c-0.19,0.189-0.29,0.439-0.29,0.71c0,0.26,0.109,0.52,0.29,0.71c0.189,0.189,0.45,0.29,0.71,0.29S41.799,49.898,41.989,49.709z"/>
	<path d="M38.569,51.289c-0.181,0.189-0.29,0.45-0.29,0.71s0.109,0.52,0.29,0.71c0.189,0.189,0.45,0.29,0.71,0.29
		s0.52-0.101,0.71-0.29c0.18-0.19,0.29-0.45,0.29-0.71s-0.11-0.521-0.29-0.71C39.619,50.919,38.94,50.919,38.569,51.289z"/>
	<path d="M34.569,51.289c-0.181,0.189-0.29,0.45-0.29,0.71c0,0.27,0.1,0.52,0.29,0.71c0.189,0.18,0.45,0.29,0.71,0.29
		s0.52-0.11,0.71-0.29c0.18-0.19,0.29-0.45,0.29-0.71s-0.11-0.521-0.29-0.71C35.619,50.919,34.94,50.919,34.569,51.289z"/>
	<path d="M16.989,48.289c-0.38-0.37-1.04-0.37-1.42,0c-0.181,0.189-0.29,0.45-0.29,0.71s0.109,0.52,0.29,0.71
		c0.189,0.189,0.45,0.29,0.71,0.29s0.52-0.101,0.71-0.29c0.18-0.19,0.29-0.45,0.29-0.71S17.169,48.478,16.989,48.289z"/>
	<path d="M15.579,45.289c-0.19,0.189-0.3,0.439-0.3,0.71c0,0.26,0.109,0.52,0.29,0.71c0.189,0.18,0.439,0.29,0.71,0.29
		c0.26,0,0.52-0.11,0.71-0.29c0.18-0.19,0.29-0.45,0.29-0.71c0-0.271-0.11-0.53-0.29-0.71
		C16.619,44.919,15.929,44.929,15.579,45.289z"/>
	<path d="M13.279,46.999c0.26,0,0.52-0.11,0.71-0.29c0.18-0.19,0.29-0.45,0.29-0.71c0-0.271-0.11-0.53-0.29-0.71
		c-0.37-0.37-1.061-0.36-1.41,0c-0.19,0.189-0.3,0.439-0.3,0.71c0,0.26,0.109,0.52,0.29,0.71
		C12.759,46.889,13.009,46.999,13.279,46.999z"/>
	<path d="M13.989,48.289c-0.37-0.37-1.061-0.37-1.42,0c-0.181,0.189-0.29,0.45-0.29,0.71s0.109,0.52,0.29,0.71
		c0.189,0.18,0.45,0.29,0.71,0.29s0.52-0.101,0.71-0.29c0.18-0.19,0.29-0.45,0.29-0.71S14.169,48.478,13.989,48.289z"/>
	<path d="M14.569,51.289c-0.181,0.189-0.29,0.439-0.29,0.71c0,0.27,0.1,0.52,0.29,0.71c0.189,0.189,0.45,0.29,0.71,0.29
		s0.52-0.101,0.71-0.29c0.18-0.19,0.29-0.45,0.29-0.71s-0.11-0.521-0.29-0.71C15.609,50.919,14.949,50.919,14.569,51.289z"/>
	<path d="M17.569,51.289c-0.181,0.189-0.29,0.45-0.29,0.71s0.109,0.52,0.29,0.71c0.189,0.189,0.45,0.29,0.71,0.29
		s0.52-0.101,0.71-0.29c0.189-0.19,0.29-0.45,0.29-0.71s-0.101-0.521-0.29-0.71C18.609,50.919,17.949,50.919,17.569,51.289z"/>
	<path d="M19.989,48.289c-0.38-0.37-1.061-0.36-1.42,0c-0.181,0.189-0.29,0.45-0.29,0.71s0.109,0.52,0.29,0.71
		c0.189,0.18,0.45,0.29,0.71,0.29s0.52-0.101,0.71-0.29c0.18-0.19,0.29-0.45,0.29-0.71S20.169,48.478,19.989,48.289z"/>
	<path d="M20.569,51.289c-0.181,0.189-0.29,0.45-0.29,0.71s0.109,0.52,0.29,0.71c0.189,0.189,0.45,0.29,0.71,0.29
		s0.52-0.101,0.71-0.29c0.18-0.19,0.29-0.45,0.29-0.71s-0.11-0.521-0.29-0.71C21.619,50.919,20.94,50.929,20.569,51.289z"/>
	<path d="M24.569,51.289c-0.19,0.189-0.29,0.45-0.29,0.71s0.1,0.52,0.29,0.71c0.189,0.189,0.45,0.29,0.71,0.29s0.52-0.101,0.71-0.29
		c0.18-0.19,0.29-0.45,0.29-0.71s-0.11-0.521-0.29-0.71C25.609,50.919,24.949,50.919,24.569,51.289z"/>
	<path d="M27.569,51.289c-0.181,0.189-0.29,0.45-0.29,0.71s0.109,0.52,0.29,0.71c0.189,0.189,0.45,0.29,0.71,0.29
		s0.52-0.11,0.7-0.29c0.189-0.19,0.3-0.45,0.3-0.71s-0.11-0.521-0.29-0.71C28.619,50.919,27.94,50.919,27.569,51.289z"/>
	<path d="M30.569,51.289c-0.181,0.189-0.29,0.45-0.29,0.71s0.109,0.52,0.29,0.71c0.189,0.189,0.45,0.29,0.71,0.29
		s0.52-0.101,0.71-0.29c0.18-0.19,0.29-0.45,0.29-0.71s-0.11-0.521-0.29-0.71C31.609,50.919,30.949,50.919,30.569,51.289z"/>
	<circle cx="22.779" cy="29.499" r="1.5"/>
	<circle cx="40.779" cy="29.499" r="1.5"/>
</g>
<g>
</g>
<g>
</g>
<g>
</g>
<g>
</g>
<g>
</g>
<g>
</g>
<g>
</g>
<g>
</g>
<g>
</g>
<g>
</g>
<g>
</g>
<g>
</g>
<g>
</g>
<g>
</g>
<g>
</g>
</svg>
