<?xml version="1.0" encoding="iso-8859-1"?>
<!-- Generator: Adobe Illustrator 16.0.0, SVG Export Plug-In . SVG Version: 6.00 Build 0)  -->
<!DOCTYPE svg PUBLIC "-//W3C//DTD SVG 1.1//EN" "http://www.w3.org/Graphics/SVG/1.1/DTD/svg11.dtd">
<svg version="1.1" id="Capa_1" xmlns="http://www.w3.org/2000/svg" xmlns:xlink="http://www.w3.org/1999/xlink" x="0px" y="0px"
	 width="31.091px" height="31.092px" viewBox="0 0 31.091 31.092" style="enable-background:new 0 0 31.091 31.092;"
	 xml:space="preserve">
<g>
	<g>
		<path d="M15.547,0C7.128,0,0.277,6.851,0.277,15.27c0,7.268,5.107,13.363,11.921,14.896c-0.787-0.76-1.339-1.758-1.541-2.879
			c-4.739-1.935-8.088-6.59-8.088-12.018c0-5.245,3.129-9.77,7.617-11.813c-0.178,1.013,0.582,2.18,1.447,3.227
			c0.783,0.947,0.447,1.662-0.157,2.162c-0.19,0.157-0.262,0.416-0.18,0.649c0.082,0.232,0.3,0.389,0.546,0.393
			c7.777,0.116,9.667-4.306,10.098-5.904c3.929,2.233,6.583,6.454,6.583,11.286c0,5.139-3.003,9.59-7.346,11.691
			c-0.135,1.138-0.629,2.164-1.363,2.967c6.348-1.852,11.001-7.72,11.001-14.658C30.817,6.851,23.966,0,15.547,0z"/>
		<circle cx="11.476" cy="14.9" r="1.719"/>
		<circle cx="19.498" cy="14.9" r="1.719"/>
		<path d="M10.825,24.711c0.396-1.23,1.229-2.262,2.312-2.919c0.086-1.406,1.238-2.521,2.65-2.521c1.368,0,2.494,1.044,2.64,2.388
			c1.201,0.651,2.121,1.752,2.541,3.074c0.688-0.717,1.093-1.587,1.093-2.524c0-2.454-2.755-4.442-6.152-4.442
			c-3.398,0-6.153,1.988-6.153,4.442C9.756,23.137,10.151,23.996,10.825,24.711z"/>
		<path d="M16.485,24.55c-0.187-0.062-0.386-0.097-0.592-0.097c-0.225,0-0.439,0.041-0.639,0.113
			c0.178,0.047,0.147,0.055-0.038,0.014c-0.706,0.273-1.21,0.957-1.21,1.76c0,0.031,0.003,0.062,0.005,0.094
			c0.598,0.141,1.234,0.217,1.897,0.217c0.65,0,1.276-0.074,1.865-0.209c0.001-0.033,0.005-0.066,0.005-0.102
			C17.779,25.506,17.235,24.799,16.485,24.55z"/>
		<path d="M15.837,20.059c-0.959,0-1.779,0.59-2.121,1.426c0.665-0.301,1.401-0.472,2.178-0.472c0.722,0,1.41,0.147,2.038,0.408
			C17.574,20.619,16.772,20.059,15.837,20.059z"/>
		<path d="M15.894,21.588c-2.62,0-4.752,2.132-4.752,4.752c0,2.619,2.132,4.752,4.752,4.752c2.619,0,4.751-2.132,4.751-4.752
			C20.645,23.719,18.513,21.588,15.894,21.588z M15.894,28.799c-1.357,0-2.46-1.104-2.46-2.459s1.104-2.46,2.46-2.46
			c1.355,0,2.459,1.104,2.459,2.46S17.25,28.799,15.894,28.799z"/>
	</g>
</g>
<g>
</g>
<g>
</g>
<g>
</g>
<g>
</g>
<g>
</g>
<g>
</g>
<g>
</g>
<g>
</g>
<g>
</g>
<g>
</g>
<g>
</g>
<g>
</g>
<g>
</g>
<g>
</g>
<g>
</g>
</svg>
