<?xml version="1.0" encoding="iso-8859-1"?>
<!-- Generator: Adobe Illustrator 18.0.0, SVG Export Plug-In . SVG Version: 6.00 Build 0)  -->
<!DOCTYPE svg PUBLIC "-//W3C//DTD SVG 1.1//EN" "http://www.w3.org/Graphics/SVG/1.1/DTD/svg11.dtd">
<svg version="1.1" id="Capa_1" xmlns="http://www.w3.org/2000/svg" xmlns:xlink="http://www.w3.org/1999/xlink" x="0px" y="0px"
	 viewBox="0 0 295.996 295.996" style="enable-background:new 0 0 295.996 295.996;" xml:space="preserve">
<g>
	<path d="M147.998,0C66.392,0,0,66.392,0,147.998s66.392,147.998,147.998,147.998c81.606,0,147.998-66.392,147.998-147.998
		S229.604,0,147.998,0z M147.883,231.08c-22.023,0-40.657-14.289-47.349-34.083h94.463h0.231
		C188.538,216.791,169.904,231.08,147.883,231.08z M16.972,163.997c-0.637-5-0.972-10.584-0.972-16C16,75.214,75.214,16,147.998,16
		c34.523,0,65.987,13.328,89.533,35.102c12.208,11.288,22.289,24.844,29.558,39.997c8.27,17.238,12.907,36.537,12.907,56.898
		c0,5.416-0.335,11-0.972,16H16.972z"/>
	<path d="M97.41,99.4c-17.423,0-31.597,13.597-31.597,31.597h16c0-9,6.997-15.597,15.597-15.597s15.597,6.597,15.597,15.597h16
		C129.007,112.997,114.833,99.4,97.41,99.4z"/>
	<path d="M198.584,99.4c-17.423,0-31.597,13.597-31.597,31.597h16c0-9,6.997-15.597,15.597-15.597c8.6,0,15.597,6.597,15.597,15.597
		h16C230.181,112.997,216.007,99.4,198.584,99.4z"/>
</g>
<g>
</g>
<g>
</g>
<g>
</g>
<g>
</g>
<g>
</g>
<g>
</g>
<g>
</g>
<g>
</g>
<g>
</g>
<g>
</g>
<g>
</g>
<g>
</g>
<g>
</g>
<g>
</g>
<g>
</g>
</svg>
