<?xml version="1.0" encoding="iso-8859-1"?>
<!-- Generator: Adobe Illustrator 18.0.0, SVG Export Plug-In . SVG Version: 6.00 Build 0)  -->
<!DOCTYPE svg PUBLIC "-//W3C//DTD SVG 1.1//EN" "http://www.w3.org/Graphics/SVG/1.1/DTD/svg11.dtd">
<svg version="1.1" id="Capa_1" xmlns="http://www.w3.org/2000/svg" xmlns:xlink="http://www.w3.org/1999/xlink" x="0px" y="0px"
	 viewBox="0 0 57 57" style="enable-background:new 0 0 57 57;" xml:space="preserve">
<g>
	<path d="M53.5,13.5c0-2.481-2.019-4.5-4.5-4.5h-1.551c-0.503-5.046-4.773-9-9.949-9h-18c-5.177,0-9.446,3.954-9.949,9H8
		c-2.481,0-4.5,2.019-4.5,4.5c0,1.951,1.255,3.599,2.995,4.222c-0.009,6.706-0.029,30.277-0.029,30.277c0,2.758,2.243,5.001,5,5.001
		h3.032v1.694c0,1.271,1.034,2.306,2.306,2.306h23.389c1.271,0,2.305-1.034,2.305-2.306V53h2.968c2.757,0,5-2.243,5-4.999
		c0,0,0.032-23.571,0.034-30.277C52.242,17.103,53.5,15.453,53.5,13.5z M19.5,2h18c4.072,0,7.436,3.06,7.931,7H11.569
		C12.064,5.06,15.428,2,19.5,2z M40.498,54.694c0,0.169-0.137,0.306-0.305,0.306H16.804c-0.168,0-0.306-0.137-0.306-0.306V53h24
		V54.694z M45.466,51h-2.968h-28h-3.032c-1.654,0-3-1.346-3-2.999c0,0,0.019-22.942,0.028-30.001H48.5
		c-0.002,7.063-0.034,29.999-0.034,29.999C48.466,49.654,47.12,51,45.466,51z M49.139,15.986c-3.7,0.019-37.633,0.017-41.289-0.001
		C6.543,15.906,5.5,14.828,5.5,13.5C5.5,12.121,6.622,11,8,11h41c1.378,0,2.5,1.121,2.5,2.5
		C51.5,14.831,50.452,15.912,49.139,15.986z"/>
	<path d="M38.876,23.303c-3.105,0-5.779,1.852-6.995,4.505c-0.838-0.869-2.008-1.414-3.308-1.414c-1.299,0-2.47,0.546-3.308,1.414
		c-1.216-2.654-3.89-4.505-6.995-4.505c-4.244,0-7.697,3.453-7.697,7.697s3.453,7.697,7.697,7.697s7.697-3.453,7.697-7.697
		c0-1.438,1.169-2.606,2.606-2.606s2.606,1.169,2.606,2.606c0,4.244,3.453,7.697,7.697,7.697s7.697-3.453,7.697-7.697
		S43.121,23.303,38.876,23.303z M18.271,36.697c-3.142,0-5.697-2.556-5.697-5.697s2.556-5.697,5.697-5.697
		c3.141,0,5.697,2.556,5.697,5.697S21.412,36.697,18.271,36.697z M38.876,36.697c-3.142,0-5.697-2.556-5.697-5.697
		s2.556-5.697,5.697-5.697c3.141,0,5.697,2.556,5.697,5.697S42.018,36.697,38.876,36.697z"/>
	<path d="M22.5,42c-0.552,0-1,0.447-1,1s0.448,1,1,1c7.072,0,12,1.581,12,3c0,0.553,0.448,1,1,1s1-0.447,1-1
		C36.5,42.241,24.838,42,22.5,42z"/>
	<path d="M18.126,21.197l6,3c0.144,0.071,0.296,0.105,0.446,0.105c0.367,0,0.72-0.202,0.896-0.553
		c0.247-0.494,0.047-1.095-0.447-1.342l-6-3c-0.496-0.246-1.095-0.046-1.342,0.447C17.432,20.35,17.632,20.95,18.126,21.197z"/>
	<path d="M32.574,24.303c0.15,0,0.303-0.034,0.446-0.105l6-3c0.494-0.247,0.694-0.848,0.447-1.342
		c-0.247-0.493-0.848-0.693-1.342-0.447l-6,3c-0.494,0.247-0.694,0.848-0.447,1.342C31.854,24.101,32.207,24.303,32.574,24.303z"/>
</g>
<g>
</g>
<g>
</g>
<g>
</g>
<g>
</g>
<g>
</g>
<g>
</g>
<g>
</g>
<g>
</g>
<g>
</g>
<g>
</g>
<g>
</g>
<g>
</g>
<g>
</g>
<g>
</g>
<g>
</g>
</svg>
