<?xml version="1.0" encoding="iso-8859-1"?>
<!-- Generator: Adobe Illustrator 18.0.0, SVG Export Plug-In . SVG Version: 6.00 Build 0)  -->
<!DOCTYPE svg PUBLIC "-//W3C//DTD SVG 1.1//EN" "http://www.w3.org/Graphics/SVG/1.1/DTD/svg11.dtd">
<svg version="1.1" id="Capa_1" xmlns="http://www.w3.org/2000/svg" xmlns:xlink="http://www.w3.org/1999/xlink" x="0px" y="0px"
	 viewBox="0 0 59 59" style="enable-background:new 0 0 59 59;" xml:space="preserve">
<g>
	<path d="M27,28c0-4.687-3.141-8.5-7-8.5s-7,3.813-7,8.5s3.141,8.5,7,8.5S27,32.687,27,28z M20,34.5c-2.757,0-5-2.916-5-6.5
		s2.243-6.5,5-6.5s5,2.916,5,6.5S22.757,34.5,20,34.5z"/>
	<ellipse cx="20" cy="28" rx="3" ry="4.5"/>
	<path d="M40,19.5c-3.859,0-7,3.813-7,8.5s3.141,8.5,7,8.5s7-3.813,7-8.5S43.859,19.5,40,19.5z M40,34.5c-2.757,0-5-2.916-5-6.5
		s2.243-6.5,5-6.5s5,2.916,5,6.5S42.757,34.5,40,34.5z"/>
	<ellipse cx="40" cy="28" rx="3" ry="4.5"/>
	<circle cx="30" cy="46.5" r="7"/>
	<path d="M29.5,0C14.888,0,3,11.888,3,26.5v10.979c0,0,0,0.002,0,0.004s0,0.004,0,0.006c0,0.004,0,0.008,0,0.012V51
		c0,2.757,2.243,5,5,5h6.55c0.046,0.022,0.096,0.04,0.142,0.061c3.51,1.654,7.728,2.643,12.543,2.878
		c0.107,0.005,0.214,0.011,0.321,0.016C28.195,58.982,28.84,59,29.5,59s1.305-0.018,1.945-0.045c0.107-0.005,0.214-0.01,0.321-0.016
		c4.814-0.235,9.033-1.224,12.543-2.878c0.046-0.022,0.096-0.04,0.142-0.061H51c2.757,0,5-2.243,5-5V26.5C56,11.888,44.112,0,29.5,0
		z M43.992,54l-0.207,0.101c-2.828,1.374-6.204,2.271-9.916,2.666c-0.271,0.027-0.542,0.056-0.819,0.078
		c-0.392,0.033-0.787,0.062-1.186,0.084C31.09,56.969,30.309,57,29.5,57s-1.59-0.031-2.364-0.072
		c-0.399-0.022-0.794-0.051-1.186-0.084c-0.276-0.022-0.547-0.05-0.818-0.078c-3.712-0.395-7.089-1.292-9.916-2.666L15.008,54
		h-0.089C8.548,50.783,5,45.095,5,37.5c0-0.004,0-0.007,0-0.011c0-0.002,0-0.004,0-0.006c0-0.001,0-0.002,0-0.004
		C5.012,24.628,15.796,13.647,29,13l0.951-0.001C43.212,13.647,54,24.639,54,37.5c0,7.595-3.548,13.283-9.918,16.5H43.992z M8,54
		c-1.654,0-3-1.346-3-3v-4.226c1.384,2.876,3.459,5.308,6.148,7.226H8z M54,51c0,1.654-1.346,3-3,3h-3.148
		c2.689-1.917,4.764-4.349,6.148-7.226V51z M30,11l-1.049,0.001C18.165,11.529,8.911,18.42,5,27.736V26.5C5,12.99,15.99,2,29.5,2
		S54,12.99,54,26.5v1.198C50.079,18.398,40.811,11.528,30,11z"/>
</g>
<g>
</g>
<g>
</g>
<g>
</g>
<g>
</g>
<g>
</g>
<g>
</g>
<g>
</g>
<g>
</g>
<g>
</g>
<g>
</g>
<g>
</g>
<g>
</g>
<g>
</g>
<g>
</g>
<g>
</g>
</svg>
