<?xml version="1.0" encoding="iso-8859-1"?>
<!-- Generator: Adobe Illustrator 19.0.0, SVG Export Plug-In . SVG Version: 6.00 Build 0)  -->
<svg version="1.1" id="Layer_1" xmlns="http://www.w3.org/2000/svg" xmlns:xlink="http://www.w3.org/1999/xlink" x="0px" y="0px"
	 viewBox="0 0 380 380" style="enable-background:new 0 0 380 380;" xml:space="preserve">
<g id="XMLID_24_">
	<g>
		<path d="M350,132.267l-57.851,25.711c2.938-5.863,7.849-15.669,7.851-15.711c-49-60.333-61-85.667-156-70
			c-56.805,9.368-77,24.334-89.666,45.001c-8.81,14.374-18.475,51.67-19.274,89.94L0,242.267
			c34.208,13.683,54.835,18.939,64.457,20.895C85.657,251.119,100,228.343,100,202.267h20c0,28.534-13.351,54.007-34.131,70.507
			c12.272,4.431,27.396,7.641,46.021,8.901c24.287,42.54,58.11,28.3,58.11,28.3L165.688,281.8
			c14.904-0.878,28.355-2.989,40.481-6.008c23.752,1.458,47.98,1.759,63.831-3.524c23.713-7.904,35.625-28.558,19.826-46.744
			L350,252.267c0,0,30-10,30-60S350,132.267,350,132.267z M70,192.267c-5.523,0-10-4.477-10-10c0-5.523,4.477-10,10-10
			c5.522,0,10,4.477,10,10C80,187.79,75.522,192.267,70,192.267z"/>
	</g>
</g>
<g>
</g>
<g>
</g>
<g>
</g>
<g>
</g>
<g>
</g>
<g>
</g>
<g>
</g>
<g>
</g>
<g>
</g>
<g>
</g>
<g>
</g>
<g>
</g>
<g>
</g>
<g>
</g>
<g>
</g>
</svg>
