<?xml version="1.0" encoding="iso-8859-1"?>
<!-- Generator: Adobe Illustrator 18.0.0, SVG Export Plug-In . SVG Version: 6.00 Build 0)  -->
<!DOCTYPE svg PUBLIC "-//W3C//DTD SVG 1.1//EN" "http://www.w3.org/Graphics/SVG/1.1/DTD/svg11.dtd">
<svg version="1.1" id="Capa_1" xmlns="http://www.w3.org/2000/svg" xmlns:xlink="http://www.w3.org/1999/xlink" x="0px" y="0px"
	 viewBox="0 0 295.996 295.996" style="enable-background:new 0 0 295.996 295.996;" xml:space="preserve">
<g>
	<path d="M147.998,0C66.392,0,0,66.392,0,147.998s66.392,147.998,147.998,147.998s147.998-66.392,147.998-147.998
		S229.605,0,147.998,0z M147.998,279.996c-36.256,0-69.143-14.696-93.022-38.44c-9.536-9.482-17.631-20.41-23.934-32.42
		C21.442,190.847,16,170.048,16,147.998C16,75.214,75.214,16,147.998,16c34.523,0,65.987,13.328,89.533,35.102
		c12.208,11.288,22.289,24.844,29.558,39.996c8.27,17.239,12.907,36.538,12.907,56.9
		C279.996,220.782,220.782,279.996,147.998,279.996z"/>
	<path d="M91.997,159.961l4.769-3.541c6.051-4.491,36.231-27.864,36.231-46.923c0-9.929-4.199-16.098-7.723-19.524
		c-4.585-4.461-10.68-6.917-17.16-6.917c-5.802,0-11.64,2.089-16.117,6.176c-4.478-4.087-10.315-6.176-16.117-6.176
		c-6.481,0-12.575,2.456-17.161,6.916c-3.522,3.427-7.722,9.597-7.722,19.525c0,19.059,30.181,42.432,36.231,46.923L91.997,159.961z
		 M99.997,108.997c0-9.225,6.213-9.941,8.117-9.941c4.098,0,8.883,2.734,8.883,10.441c0,5.234-9.858,18.135-25,30.378
		c-15.142-12.243-25-25.144-25-30.378c0-7.707,4.785-10.441,8.883-10.441c1.904,0,8.117,0.717,8.117,9.941H99.997z"/>
	<path d="M202.229,156.42l4.769,3.541l4.769-3.541c6.051-4.491,36.231-27.864,36.231-46.923c0-9.929-4.199-16.098-7.723-19.524
		c-4.585-4.461-10.68-6.917-17.16-6.917c-5.802,0-11.64,2.089-16.117,6.176c-4.477-4.087-10.315-6.176-16.117-6.176
		c-6.481,0-12.575,2.456-17.161,6.916c-3.522,3.427-7.722,9.597-7.722,19.525C165.997,128.556,196.178,151.929,202.229,156.42z
		 M214.997,108.997c0-9.225,6.213-9.941,8.117-9.941c4.098,0,8.883,2.734,8.883,10.441c0,5.234-9.858,18.135-25,30.378
		c-15.142-12.243-25-25.144-25-30.378c0-7.707,4.785-10.441,8.883-10.441c1.904,0,8.117,0.717,8.117,9.941H214.997z"/>
	<path d="M216.08,181.997c0,0-109.509,0-132.166,0c0,36.448,29.586,66.083,66.083,66.083
		C186.493,248.08,216.08,218.445,216.08,181.997z M196.997,197.997h0.231c-6.69,19.794-25.324,34.083-47.348,34.083
		s-40.656-14.289-47.347-34.083H196.997z"/>
</g>
<g>
</g>
<g>
</g>
<g>
</g>
<g>
</g>
<g>
</g>
<g>
</g>
<g>
</g>
<g>
</g>
<g>
</g>
<g>
</g>
<g>
</g>
<g>
</g>
<g>
</g>
<g>
</g>
<g>
</g>
</svg>
