<?xml version="1.0" encoding="iso-8859-1"?>
<!-- Generator: Adobe Illustrator 18.0.0, SVG Export Plug-In . SVG Version: 6.00 Build 0)  -->
<!DOCTYPE svg PUBLIC "-//W3C//DTD SVG 1.1//EN" "http://www.w3.org/Graphics/SVG/1.1/DTD/svg11.dtd">
<svg version="1.1" id="Capa_1" xmlns="http://www.w3.org/2000/svg" xmlns:xlink="http://www.w3.org/1999/xlink" x="0px" y="0px"
	 viewBox="0 0 103.311 63.254" style="enable-background:new 0 0 103.311 63.254;" xml:space="preserve">
<g>
	<path d="M82.442,38.975c3.572,0,6.478-2.906,6.478-6.478c0-3.572-2.906-6.478-6.478-6.478c-3.572,0-6.478,2.906-6.478,6.478
		C75.964,36.069,78.87,38.975,82.442,38.975z M82.442,30.921c0.869,0,1.576,0.707,1.576,1.576c0,0.869-0.707,1.576-1.576,1.576
		c-0.869,0-1.576-0.707-1.576-1.576C80.866,31.628,81.573,30.921,82.442,30.921z"/>
	<path d="M84.488,15.251c-3.638-2.272-7.499-4.024-11.478-5.207c-1.956-0.582-3.944-1.025-5.952-1.331
		c-4.199-4.074-9.573-6.855-15.592-8.058c-4.732-0.946-8.232-0.593-8.379-0.578l-2.716,0.286l2.48,11.458
		c-0.857,0.367-1.709,0.76-2.553,1.183c-5.498,2.749-10.507,6.563-14.917,11.356L0,7.024l7.655,25.284
		c0.561,1.852,0.561,3.81,0,5.662L0,63.254l25.382-17.336c4.41,4.792,9.419,8.607,14.917,11.356
		c6.369,3.185,13.129,4.799,20.091,4.799c3.291,0,6.589-0.371,9.803-1.102l3.662-0.833l-2.238-3.016
		c-3.358-4.526-5.675-9.119-6.889-13.651c-0.958-3.58-1.235-7.138-0.823-10.576c0.695-5.794,3.148-9.35,3.249-9.494l2.897-3.883
		l-4.875-0.009c-0.027,0-0.054,0-0.082,0c-7.077,0-14.197,1.651-20.597,4.777c-3.241,1.583-6,3.306-8.437,5.268
		c-1.979,1.594-3.665,3.411-5.295,5.168c-0.605,0.652-1.231,1.326-1.852,1.967c-1.299,1.339-2.78,2.646-4.419,3.901L8.721,51.362
		l3.624-11.972c0.842-2.781,0.842-5.721,0-8.502L8.721,18.916l13.487,9.212l-3.099,3.838l3.813,3.08l4.743-5.873
		c8.846-10.36,20.467-16.066,32.724-16.066c7.573,0,14.807,2.12,21.501,6.302c6.052,3.781,11.442,9.2,15.658,15.731
		c-2.647,4.104-5.733,7.748-9.188,10.849c-3.332,2.99-6.951,5.422-10.782,7.248c-0.357-0.509-0.727-1.071-1.123-1.702
		c-4.811-7.669-6.37-14.258-4.906-20.739l-4.781-1.08c-0.948,4.197-0.838,8.552,0.326,12.947c0.978,3.694,2.682,7.448,5.209,11.476
		c0.936,1.491,1.763,2.663,2.605,3.688l1.162,1.414l1.686-0.712c4.974-2.101,9.643-5.093,13.878-8.893
		c4.166-3.738,7.833-8.187,10.901-13.222l0.776-1.275l-0.776-1.275C97.815,26.114,91.574,19.678,84.488,15.251z M32.433,40.1
		c0.659-0.679,1.303-1.374,1.926-2.045c1.581-1.704,3.074-3.313,4.776-4.684c2.148-1.73,4.606-3.261,7.514-4.681
		c4.507-2.201,9.41-3.586,14.379-4.078c-0.778,1.89-1.559,4.386-1.95,7.386c-0.533,4.091-0.244,8.307,0.86,12.531
		c1.076,4.117,2.933,8.245,5.533,12.312c-1.685,0.22-3.384,0.331-5.081,0.331c-11.498,0-22.435-5.021-31.048-14.193
		C30.45,42.042,31.483,41.08,32.433,40.1z M47.499,10.123l-1.122-5.186c2.793,0.149,7.328,0.821,11.885,3.319
		C54.603,8.43,51.006,9.054,47.499,10.123z"/>
</g>
<g>
</g>
<g>
</g>
<g>
</g>
<g>
</g>
<g>
</g>
<g>
</g>
<g>
</g>
<g>
</g>
<g>
</g>
<g>
</g>
<g>
</g>
<g>
</g>
<g>
</g>
<g>
</g>
<g>
</g>
</svg>
