<?xml version="1.0" encoding="iso-8859-1"?>
<!-- Generator: Adobe Illustrator 18.1.1, SVG Export Plug-In . SVG Version: 6.00 Build 0)  -->
<svg version="1.1" id="Capa_1" xmlns="http://www.w3.org/2000/svg" xmlns:xlink="http://www.w3.org/1999/xlink" x="0px" y="0px"
	 viewBox="0 0 612.003 612.003" style="enable-background:new 0 0 612.003 612.003;" xml:space="preserve">
<g>
	<g>
		<g>
			<path d="M226.093,426.069c-2.939-11.014-14.317-17.57-25.265-14.622c-11.022,2.931-17.57,14.251-14.63,25.265l27.329,102.537
				c2.469,9.231,10.816,15.324,19.931,15.324c1.767,0,3.559-0.223,5.334-0.702c11.022-2.931,17.57-14.251,14.63-25.256
				L226.093,426.069z"/>
			<path d="M169.165,422.205c-11.154-2.37-22.119,4.739-24.48,15.902l-9.264,43.627c-2.37,11.154,4.747,22.111,15.902,24.472
				c1.453,0.305,2.89,0.454,4.31,0.454c9.536,0,18.106-6.655,20.162-16.356l9.264-43.627
				C187.437,435.522,180.319,424.566,169.165,422.205z"/>
			<path d="M262.818,406.625c-7.604-8.496-20.666-9.222-29.145-1.618c-8.496,7.596-9.214,20.649-1.618,29.145l29.74,33.224
				c4.079,4.558,9.726,6.878,15.39,6.878c4.904,0,9.825-1.734,13.755-5.259c8.496-7.596,9.214-20.649,1.618-29.145L262.818,406.625z
				"/>
			<path d="M270.414,364.996l-54.402-204.107l23.597-6.291c7.464-1.99,13.202-7.984,14.853-15.522
				c1.651-7.546-1.049-15.382-7.001-20.311L109.843,4.751c-5.144-4.269-12.054-5.78-18.478-4.046
				C84.908,2.422,79.69,7.162,77.346,13.42L14.72,180.803c-2.7,7.233-1.148,15.373,4.046,21.103c3.963,4.376,9.544,6.77,15.291,6.77
				c1.775,0,3.559-0.223,5.317-0.702l15.184-4.046l54.41,204.099c2.469,9.231,10.816,15.324,19.931,15.324
				c1.767,0,3.55-0.223,5.334-0.702l121.559-32.398C266.789,387.321,273.345,376.01,270.414,364.996z M105.838,55.049l84.463,69.973
				l-4.871,1.296l0,0L67.413,157.784L105.838,55.049z M143.537,377.455l-49.085-184.16l44.387-11.831l37.294-9.941l6.605,24.786
				c-7.538-2.411-15.811-2.848-24.034-0.661c-22.846,6.093-36.452,29.566-30.359,52.428c6.085,22.87,29.575,36.46,52.428,30.367
				c8.223-2.188,15.175-6.688,20.517-12.533l23.919,89.772L143.537,377.455z"/>
			<circle cx="152.371" cy="308.728" r="21.954"/>
			<circle cx="195.247" cy="332.779" r="12.319"/>
			<path d="M597.055,269.469l-44.007-164.287c-1.726-6.448-6.473-11.666-12.731-14.003s-13.243-1.503-18.783,2.254l-142.92,96.848
				c-6.39,4.335-9.833,11.873-8.917,19.551c0.916,7.67,6.044,14.185,13.285,16.884l13.574,5.061l-71.03,190.542
				c-1.907,5.127-1.709,10.808,0.57,15.786c2.271,4.979,6.432,8.851,11.559,10.766l113.881,42.446
				c2.328,0.867,4.772,1.296,7.208,1.296c2.931,0,5.862-0.628,8.578-1.866c4.987-2.279,8.851-6.432,10.766-11.567l71.03-190.55
				l21.458,8c2.345,0.867,4.78,1.296,7.208,1.296c0.058,0,0.132,0,0.165,0c11.402,0,20.641-9.239,20.641-20.641
				C598.582,274.522,598.037,271.88,597.055,269.469z M547.483,243.973l-3.261-1.214c-0.017-0.008-0.025-0.017-0.041-0.025
				l-109.282-40.737l85.776-58.117L547.483,243.973z M506.812,283.926c-4.442-4.161-9.767-7.546-15.828-9.809
				c-24.464-9.115-51.71,3.319-60.833,27.799c-9.123,24.472,3.327,51.718,27.799,60.842c6.06,2.262,12.294,3.187,18.379,2.948
				l-29.715,79.716l-75.191-28.031l17.528-47.029c-0.652,10.378,5.358,20.418,15.621,24.241
				c12.533,4.673,26.511-1.701,31.176-14.259c4.681-12.533-1.693-26.495-14.251-31.168c-10.246-3.823-21.376-0.173-27.676,8.1
				l41.423-111.09l75.183,28.022L506.812,283.926z"/>
			<path d="M396.886,475.962c-10.692-3.971-22.573,1.453-26.553,12.137l-35.8,96.047c-3.98,10.684,1.453,22.565,12.137,26.553
				c2.378,0.883,4.814,1.305,7.208,1.305c8.372,0,16.249-5.136,19.345-13.433l35.8-96.055
				C413.002,491.831,407.57,479.942,396.886,475.962z"/>
			<path d="M364.991,496.075c8.389-7.728,8.925-20.781,1.205-29.17c-7.736-8.389-20.781-8.925-29.162-1.197l-31.688,29.186
				c-8.389,7.728-8.925,20.781-1.205,29.17c4.07,4.417,9.619,6.655,15.192,6.655c4.995,0,10.007-1.808,13.97-5.458L364.991,496.075z
				"/>
			<path d="M448.868,507.403c-1.28-11.328-11.41-19.419-22.837-18.189c-11.328,1.288-19.469,11.509-18.189,22.837l4.847,42.801
				c1.197,10.535,10.131,18.321,20.484,18.321c0.776,0,1.552-0.041,2.345-0.132c11.328-1.288,19.469-11.501,18.189-22.837
				L448.868,507.403z"/>
			<circle cx="436.252" cy="420.933" r="13.598"/>
		</g>
	</g>
	<g>
	</g>
	<g>
	</g>
	<g>
	</g>
	<g>
	</g>
	<g>
	</g>
	<g>
	</g>
	<g>
	</g>
	<g>
	</g>
	<g>
	</g>
	<g>
	</g>
	<g>
	</g>
	<g>
	</g>
	<g>
	</g>
	<g>
	</g>
	<g>
	</g>
</g>
<g>
</g>
<g>
</g>
<g>
</g>
<g>
</g>
<g>
</g>
<g>
</g>
<g>
</g>
<g>
</g>
<g>
</g>
<g>
</g>
<g>
</g>
<g>
</g>
<g>
</g>
<g>
</g>
<g>
</g>
</svg>
