<?xml version='1.0' encoding='iso-8859-1'?>
<svg version="1.1" xmlns="http://www.w3.org/2000/svg" viewBox="0 0 301.193 301.193" xmlns:xlink="http://www.w3.org/1999/xlink" enable-background="new 0 0 301.193 301.193">
  <g>
    <g>
      <path d="m86.597,177.25l41.639,21.484 11.467-27.841-14.003-7.225 1.144-3.805-5.026-.909c-10.946-1.981-17.841-10.969-18.927-17.043l-8.994-50.31 20.807,48.198c1.66,3.843 5.131,6.601 9.251,7.346l49.143,8.891c6.776,1.227 13.294-3.267 14.526-10.075 1.229-6.793-3.281-13.296-10.075-14.526l-42.548-7.698-18.842-43.647 25.032,32.074 6.614-21.99c2.965-9.857-2.623-20.251-12.48-23.216l-31.828-9.573c-3.823-1.15-7.721-1-11.24,0.173l.629-1.657c4.177-11.002-1.355-23.308-12.358-27.485l-6.753-2.564-15.393,42.635c-1.131,3.135-4.599,4.743-7.725,3.591l-22.133-8.186-3.392,8.935-4.956-1.882c-2.634-1-5.581,0.325-6.581,2.959l-6.354,16.738c-1,2.634 0.325,5.581 2.959,6.581l4.956,1.882-2.563,6.75c-4.177,11.002 1.355,23.308 12.358,27.485l13.758,5.223c7.916,3.006 16.507,0.984 22.26-4.485l-6.331,21.049c-1.981,3.3-2.7,7.357-1.684,11.384l13.915,55.205-6.354,62.594c-0.896,8.823 6.021,16.516 14.941,16.516 7.603,0 14.12-5.76 14.904-13.486l6.62-65.217c0.177-1.735 0.049-3.489-0.378-5.181l-10.005-39.692z"/>
      <path d="m168.021,217.676l-18.62,45.208c3.292,5.732 10.109,8.788 16.804,7.033 8.014-2.1 12.808-10.299 10.707-18.313l-8.891-33.928z"/>
      <circle cx="134.805" cy="27.59" r="27.59"/>
      <path d="m192.637,126.402l9.8-23.792c2.104-5.106-0.331-10.951-5.438-13.055-5.107-2.104-10.952,0.332-13.055,5.438l-9.739,23.645 5.481,.992c4.979,0.9 9.452,3.263 12.951,6.772z"/>
      <path d="m175.336,168.239c-2.878,0-2.952-0.136-20.218-3.26l-50.415,122.402c-2.104,5.107 0.331,10.951 5.438,13.055 5.107,2.105 10.952-0.332 13.055-5.438l52.211-126.762c-0.025-5.68434e-14-0.048,0.003-0.071,0.003z"/>
      <path d="m291.981,175.518c-1.374-0.44-2.874,0.058-3.712,1.232l-14.042,19.669c-3.942,5.521-8.625,10.473-13.918,14.716l-24.467,19.612c-6.342,5.084-11.979,10.99-16.762,17.562l-2.972,4.085c-4.796,6.591-11.015,12.017-18.196,15.875l-17.626,9.472-39.399,16.826c-1.449,0.619-2.263,2.172-1.947,3.716s1.674,2.652 3.25,2.652h132.499c10.823,0 19.597-8.774 19.597-19.597v-102.66c0-1.443-0.932-2.72-2.305-3.16z"/>
      <path d="m62.391,22.046c-9.714-1.478-19.477,3.948-23.106,13.506l-6.5,17.12 16.365,6.053 13.241-36.679z"/>
    </g>
  </g>
</svg>
