<?xml version="1.0" encoding="iso-8859-1"?>
<!-- Generator: Adobe Illustrator 18.0.0, SVG Export Plug-In . SVG Version: 6.00 Build 0)  -->
<!DOCTYPE svg PUBLIC "-//W3C//DTD SVG 1.1//EN" "http://www.w3.org/Graphics/SVG/1.1/DTD/svg11.dtd">
<svg version="1.1" id="Capa_1" xmlns="http://www.w3.org/2000/svg" xmlns:xlink="http://www.w3.org/1999/xlink" x="0px" y="0px"
	 viewBox="0 0 44 44" style="enable-background:new 0 0 44 44;" xml:space="preserve">
<g>
	<circle cx="14.5" cy="14.5" r="3.5"/>
	<circle cx="30.5" cy="14.5" r="3.5"/>
	<path d="M44,22C44,9.869,34.131,0,22,0S0,9.869,0,22s9.869,22,22,22c3.299,0,6.478-0.736,9.462-2.169
		c0.736,0.395,1.543,0.616,2.359,0.616c1.28,0,2.561-0.488,3.535-1.462l0.708-0.708c1.304-1.304,1.715-3.152,1.274-4.818
		C42.38,31.556,44,26.919,44,22z M22,42C10.972,42,2,33.028,2,22S10.972,2,22,2s20,8.972,20,20c0,4.159-1.265,8.104-3.671,11.493
		c-0.083-0.097-0.17-0.191-0.261-0.282c-0.001-0.001-0.002-0.003-0.004-0.005l-4.883-4.883C33.703,26.98,34,25.525,34,24
		c0-0.552-0.448-1-1-1s-1,0.448-1,1c0,1.263-0.245,2.468-0.675,3.582l-0.244,0.58c-0.003,0.005-0.005,0.011-0.008,0.016
		c-0.118,0.279-0.263,0.541-0.413,0.799c-0.035,0.061-0.073,0.12-0.11,0.181c-0.071,0.115-0.147,0.231-0.227,0.348
		c-0.058,0.085-0.116,0.171-0.176,0.253l-2.438,2.438C26.09,33.33,24.123,34,22,34c-5.514,0-10-4.486-10-10c0-0.552-0.448-1-1-1
		s-1,0.448-1,1c0,6.617,5.383,12,12,12c1.011,0,1.987-0.139,2.926-0.376l4.805,4.805C27.272,41.472,24.678,42,22,42z M36.65,38.862
		l-0.708,0.708c-1.036,1.036-2.645,1.15-3.813,0.351c-0.014-0.011-0.024-0.025-0.039-0.036c-0.135-0.096-0.27-0.194-0.391-0.315
		l-4.513-4.514c0.732-0.399,1.4-0.891,2.037-1.424c0.901,0.529,2.848,2.068,3.89,3.109c0.195,0.195,0.451,0.293,0.707,0.293
		s0.512-0.098,0.707-0.293c0.391-0.391,0.391-1.024,0-1.414c-0.667-0.667-1.848-1.672-2.873-2.445
		c-0.325-0.245-0.633-0.469-0.929-0.669c0.012-0.013,0.025-0.028,0.037-0.041c0.285-0.305,0.553-0.625,0.805-0.959
		c0.083-0.108,0.165-0.216,0.247-0.33c0.085-0.121,0.168-0.243,0.248-0.368c0.064-0.097,0.132-0.187,0.194-0.287l4.392,4.393
		c0.286,0.286,0.508,0.625,0.66,1.007c0.001,0.003,0.004,0.006,0.005,0.009C37.74,36.714,37.52,37.991,36.65,38.862z"/>
</g>
<g>
</g>
<g>
</g>
<g>
</g>
<g>
</g>
<g>
</g>
<g>
</g>
<g>
</g>
<g>
</g>
<g>
</g>
<g>
</g>
<g>
</g>
<g>
</g>
<g>
</g>
<g>
</g>
<g>
</g>
</svg>
