<?xml version="1.0" encoding="iso-8859-1"?>
<!-- Generator: Adobe Illustrator 19.0.0, SVG Export Plug-In . SVG Version: 6.00 Build 0)  -->
<svg version="1.1" id="Layer_1" xmlns="http://www.w3.org/2000/svg" xmlns:xlink="http://www.w3.org/1999/xlink" x="0px" y="0px"
	 viewBox="0 0 460 460" style="enable-background:new 0 0 460 460;" xml:space="preserve">
<g id="XMLID_93_">
	<g>
		<path d="M390,160c-32.58-13.032-62.192-10.19-83.572-0.373C314.575,101.394,355,65,355,65c-60,0-101.651,6.991-140,30
			c-32.606,19.563-43.946,56.133-47.893,79.212C154.194,171.578,141.619,170,130,170C20,170,0,230,0,230
			s12.869,38.565,74.661,53.856C90.131,271.006,100,251.635,100,230h20c0,22.169-8.062,42.486-21.4,58.188
			c9.555,1.158,19.986,1.812,31.4,1.812c11.619,0,24.194-1.578,37.107-4.212C171.054,308.867,182.394,345.436,215,365
			c38.349,23.009,80,30,140,30c0,0-40.411-36.381-48.568-94.598C323.405,311.668,344.75,322.786,370,330c39.645,11.327,90,0,90,0
			C460,250,440,180,390,160z M50,230c-5.523,0-10-4.477-10-10s4.477-10,10-10c5.522,0,10,4.477,10,10S55.522,230,50,230z"/>
	</g>
</g>
<g>
</g>
<g>
</g>
<g>
</g>
<g>
</g>
<g>
</g>
<g>
</g>
<g>
</g>
<g>
</g>
<g>
</g>
<g>
</g>
<g>
</g>
<g>
</g>
<g>
</g>
<g>
</g>
<g>
</g>
</svg>
