<?xml version="1.0" encoding="iso-8859-1"?>
<!-- Generator: Adobe Illustrator 18.0.0, SVG Export Plug-In . SVG Version: 6.00 Build 0)  -->
<!DOCTYPE svg PUBLIC "-//W3C//DTD SVG 1.1//EN" "http://www.w3.org/Graphics/SVG/1.1/DTD/svg11.dtd">
<svg version="1.1" id="Capa_1" xmlns="http://www.w3.org/2000/svg" xmlns:xlink="http://www.w3.org/1999/xlink" x="0px" y="0px"
	 viewBox="0 0 59 59" style="enable-background:new 0 0 59 59;" xml:space="preserve">
<g>
	<path d="M39,43.676c0.552,0,1-0.447,1-1s-0.448-1-1-1c-2.088,0-3.876,1.288-4.623,3.11c-1.252-0.733-3.07-1.11-4.877-1.11
		s-3.624,0.377-4.877,1.11c-0.747-1.822-2.536-3.11-4.623-3.11c-0.552,0-1,0.447-1,1s0.448,1,1,1c1.654,0,3,1.346,3,3s-1.346,3-3,3
		c-0.552,0-1,0.447-1,1s0.448,1,1,1c2.445,0,4.478-1.768,4.908-4.091C24.965,47.459,25,47.323,25,47.176c0-0.436,1.577-1.5,4.5-1.5
		s4.5,1.064,4.5,1.5c0,0.147,0.035,0.284,0.092,0.409c0.43,2.323,2.463,4.091,4.908,4.091c0.552,0,1-0.447,1-1s-0.448-1-1-1
		c-1.654,0-3-1.346-3-3S37.346,43.676,39,43.676z"/>
	<path d="M39,19c-3.86,0-7,3.813-7,8.5s3.14,8.5,7,8.5s7-3.813,7-8.5S42.86,19,39,19z M39,34c-2.757,0-5-2.916-5-6.5
		s2.243-6.5,5-6.5s5,2.916,5,6.5S41.757,34,39,34z"/>
	<ellipse cx="39" cy="27.5" rx="3" ry="4.5"/>
	<path d="M27,27.5c0-4.687-3.14-8.5-7-8.5s-7,3.813-7,8.5s3.14,8.5,7,8.5S27,32.187,27,27.5z M15,27.5c0-3.584,2.243-6.5,5-6.5
		s5,2.916,5,6.5S22.757,34,20,34S15,31.084,15,27.5z"/>
	<ellipse cx="20" cy="27.5" rx="3" ry="4.5"/>
	<path d="M29.5,0C14.888,0,3,11.888,3,26.5v10.979c0,0,0,0.002,0,0.003c0,0.003,0,0.005,0,0.007c0,0.004,0,0.008,0,0.012V51
		c0,2.757,2.243,5,5,5h6.55c0.046,0.022,0.096,0.04,0.142,0.062c3.51,1.654,7.728,2.643,12.542,2.878
		c0.107,0.005,0.214,0.011,0.322,0.016C28.195,58.982,28.84,59,29.5,59s1.305-0.018,1.945-0.045c0.108-0.005,0.215-0.01,0.322-0.016
		c4.814-0.235,9.032-1.224,12.542-2.878c0.046-0.022,0.096-0.04,0.142-0.062H51c2.757,0,5-2.243,5-5V26.5C56,11.888,44.112,0,29.5,0
		z M43.993,54l-0.207,0.101c-2.828,1.374-6.204,2.271-9.917,2.666c-0.271,0.027-0.542,0.056-0.818,0.078
		c-0.392,0.033-0.787,0.062-1.187,0.084C31.09,56.969,30.309,57,29.5,57s-1.59-0.031-2.364-0.072
		c-0.399-0.022-0.794-0.051-1.187-0.084c-0.276-0.022-0.547-0.05-0.818-0.078c-3.712-0.394-7.089-1.292-9.917-2.666L15.007,54
		h-0.089C8.547,50.783,5,45.095,5,37.5c0-0.004,0-0.007,0-0.011c0-0.002,0-0.004,0-0.006c0-0.001,0-0.002,0-0.004
		C5.012,24.628,15.795,13.647,29,13l0.951-0.001C43.212,13.647,54,24.639,54,37.5c0,7.595-3.547,13.283-9.918,16.5H43.993z M8,54
		c-1.654,0-3-1.346-3-3v-4.226c1.384,2.876,3.459,5.308,6.148,7.226H8z M54,51c0,1.654-1.346,3-3,3h-3.148
		c2.689-1.917,4.764-4.349,6.148-7.226V51z M30,11l-1.049,0.001C18.165,11.529,8.911,18.42,5,27.735V26.5C5,12.99,15.991,2,29.5,2
		S54,12.99,54,26.5v1.198C50.079,18.398,40.811,11.528,30,11z"/>
</g>
<g>
</g>
<g>
</g>
<g>
</g>
<g>
</g>
<g>
</g>
<g>
</g>
<g>
</g>
<g>
</g>
<g>
</g>
<g>
</g>
<g>
</g>
<g>
</g>
<g>
</g>
<g>
</g>
<g>
</g>
</svg>
