<?xml version="1.0" encoding="iso-8859-1"?>
<!-- Generator: Adobe Illustrator 18.0.0, SVG Export Plug-In . SVG Version: 6.00 Build 0)  -->
<!DOCTYPE svg PUBLIC "-//W3C//DTD SVG 1.1//EN" "http://www.w3.org/Graphics/SVG/1.1/DTD/svg11.dtd">
<svg version="1.1" id="Capa_1" xmlns="http://www.w3.org/2000/svg" xmlns:xlink="http://www.w3.org/1999/xlink" x="0px" y="0px"
	 viewBox="0 0 44 44" style="enable-background:new 0 0 44 44;" xml:space="preserve">
<g>
	<path d="M31.5,29c0.553,0,1-0.447,1-1s-0.447-1-1-1c-2.088,0-3.876,1.288-4.623,3.11C25.624,29.377,23.807,29,22,29
		s-3.624,0.377-4.877,1.11C16.376,28.288,14.588,27,12.5,27c-0.553,0-1,0.447-1,1s0.447,1,1,1c1.654,0,3,1.346,3,3s-1.346,3-3,3
		c-0.553,0-1,0.447-1,1s0.447,1,1,1c2.445,0,4.478-1.768,4.908-4.091c0.057-0.126,0.092-0.263,0.092-0.409
		c0-0.436,1.577-1.5,4.5-1.5s4.5,1.064,4.5,1.5c0,0.147,0.035,0.284,0.092,0.409C27.022,35.232,29.055,37,31.5,37
		c0.553,0,1-0.447,1-1s-0.447-1-1-1c-1.654,0-3-1.346-3-3S29.846,29,31.5,29z"/>
	<circle cx="13" cy="16" r="3"/>
	<path d="M20,16c0-3.859-3.141-7-7-7s-7,3.141-7,7s3.141,7,7,7S20,19.859,20,16z M8,16c0-2.757,2.243-5,5-5s5,2.243,5,5
		s-2.243,5-5,5S8,18.757,8,16z"/>
	<circle cx="31" cy="16" r="3"/>
	<path d="M31,9c-3.859,0-7,3.141-7,7s3.141,7,7,7s7-3.141,7-7S34.859,9,31,9z M31,21c-2.757,0-5-2.243-5-5s2.243-5,5-5s5,2.243,5,5
		S33.757,21,31,21z"/>
	<path d="M22,0C9.869,0,0,9.869,0,22s9.869,22,22,22s22-9.869,22-22S34.131,0,22,0z M22,42C10.972,42,2,33.028,2,22S10.972,2,22,2
		s20,8.972,20,20S33.028,42,22,42z"/>
</g>
<g>
</g>
<g>
</g>
<g>
</g>
<g>
</g>
<g>
</g>
<g>
</g>
<g>
</g>
<g>
</g>
<g>
</g>
<g>
</g>
<g>
</g>
<g>
</g>
<g>
</g>
<g>
</g>
<g>
</g>
</svg>
