<?xml version="1.0" encoding="iso-8859-1"?>
<!-- Generator: Adobe Illustrator 18.0.0, SVG Export Plug-In . SVG Version: 6.00 Build 0)  -->
<!DOCTYPE svg PUBLIC "-//W3C//DTD SVG 1.1//EN" "http://www.w3.org/Graphics/SVG/1.1/DTD/svg11.dtd">
<svg version="1.1" id="Capa_1" xmlns="http://www.w3.org/2000/svg" xmlns:xlink="http://www.w3.org/1999/xlink" x="0px" y="0px"
	 viewBox="0 0 53 53" style="enable-background:new 0 0 53 53;" xml:space="preserve">
<g>
	<path d="M23.375,22.484c0.176-0.317,0.166-0.706-0.027-1.015l-5-8c-0.365-0.584-1.33-0.584-1.695,0l-5,8
		c-0.193,0.309-0.203,0.697-0.027,1.015C11.802,22.803,12.137,23,12.5,23h10C22.863,23,23.198,22.803,23.375,22.484z M14.305,21
		l3.195-5.113L20.695,21H14.305z"/>
	<path d="M36.348,13.47c-0.365-0.584-1.33-0.584-1.695,0l-5,8c-0.193,0.309-0.203,0.697-0.027,1.015
		C29.802,22.803,30.137,23,30.5,23h10c0.363,0,0.698-0.197,0.875-0.516c0.176-0.317,0.166-0.706-0.027-1.015L36.348,13.47z
		 M32.305,21l3.195-5.113L38.695,21H32.305z"/>
	<path d="M34.373,30.054c-4.93,0.633-10.816,0.633-15.746,0c-3.345-0.418-4.109,1.904-5.096,5.744
		c-1.054,4.107,5.389,8.051,5.455,8.087c0.395,0.218,0.975,0.181,1.289-0.149c4.212-4.42,7.714-4.41,12.49,0.041
		c0.151,0.142,0.368,0.271,0.655,0.271c0.195,0,0.422-0.06,0.683-0.214c0.065-0.038,6.417-3.937,5.365-8.036
		C38.482,31.958,37.706,29.637,34.373,30.054z M37.179,35H34.5v-2.948c0.042-0.005,0.086-0.009,0.127-0.014
		C35.731,31.892,36.261,31.836,37.179,35z M32.5,40.936c-1.718-1.311-3.377-2.091-5-2.355V37h5V40.936z M20.5,37h5v1.515
		c-1.687,0.179-3.345,0.947-5,2.293V37z M25.5,35h-5v-2.735c1.619,0.145,3.303,0.224,5,0.247V35z M27.5,35v-2.487
		c1.697-0.024,3.381-0.103,5-0.247V35H27.5z M18.373,32.038c0.041,0.005,0.085,0.009,0.127,0.014V35h-2.679
		C16.737,31.836,17.265,31.892,18.373,32.038z M15.435,36.987C15.458,36.988,15.477,37,15.5,37h3v4.101
		C17.214,40.051,15.611,38.42,15.435,36.987z M34.5,41.101V37h3c0.023,0,0.042-0.011,0.065-0.013
		C37.388,38.42,35.786,40.051,34.5,41.101z"/>
	<path d="M48.207,25.606c-0.258-0.258-0.487-0.536-0.697-0.824c-0.026-0.036-0.054-0.072-0.08-0.108
		c-0.206-0.294-0.39-0.6-0.546-0.918c-0.007-0.015-0.014-0.03-0.021-0.045c-0.32-0.662-0.533-1.367-0.634-2.088
		c-0.003-0.018-0.006-0.036-0.008-0.055c-0.047-0.352-0.066-0.707-0.059-1.063c0.001-0.032,0.004-0.064,0.005-0.096
		c0.012-0.349,0.046-0.698,0.11-1.044c0.001-0.007,0.002-0.013,0.003-0.02c0.065-0.344,0.161-0.683,0.279-1.017
		c0.016-0.046,0.032-0.092,0.049-0.137c0.121-0.323,0.266-0.64,0.438-0.947c0.312-0.556,0.697-1.075,1.16-1.538
		c0.093-0.092,0.166-0.203,0.217-0.326c0.101-0.244,0.101-0.519,0-0.764c-0.101-0.245-0.296-0.44-0.541-0.541
		C47.76,14.026,47.63,14,47.5,14c-2.768,0-5.873-1.713-7.26-4.227c-0.009-0.016-0.017-0.033-0.026-0.049
		c-0.098-0.18-0.185-0.365-0.264-0.554c-0.018-0.042-0.035-0.084-0.051-0.126c-0.065-0.166-0.121-0.335-0.171-0.506
		c-0.016-0.056-0.034-0.112-0.048-0.168c-0.043-0.166-0.075-0.335-0.103-0.506c-0.009-0.058-0.023-0.116-0.03-0.175
		C39.518,7.463,39.5,7.233,39.5,7c0-0.553-0.447-1-1-1h-4V2.306C34.5,1.034,33.466,0,32.194,0H20.806
		C19.534,0,18.5,1.034,18.5,2.306V6h-9c-2.757,0-5,2.243-5,5v10c0,0.129,0.026,0.258,0.076,0.38c0.05,0.121,0.123,0.233,0.217,0.327
		c2.732,2.732,2.732,6.854,0,9.586c-0.094,0.094-0.168,0.206-0.217,0.327C4.526,31.742,4.5,31.871,4.5,32v3.134
		c0,1.91,0.892,3.629,2.385,4.597c2.026,1.315,3.166,3.731,2.973,6.305c-0.058,0.771,0.208,1.535,0.729,2.098
		c0.502,0.54,1.18,0.839,1.914,0.859v1.702c0,1.271,1.034,2.306,2.306,2.306h23.389c1.271,0,2.306-1.034,2.306-2.306V49h3
		c2.757,0,5-2.243,5-5V26.313c0-0.129-0.026-0.258-0.076-0.38S48.302,25.701,48.207,25.606z M20.5,2.306
		C20.5,2.137,20.637,2,20.806,2h11.389C32.363,2,32.5,2.137,32.5,2.306V6h-12V2.306z M38.5,50.694c0,0.169-0.137,0.306-0.306,0.306
		H14.806c-0.169,0-0.306-0.137-0.306-0.306V49h24V50.694z M46.5,44c0,1.654-1.346,3-3,3h-3H12.576c-0.201,0-0.388-0.081-0.523-0.228
		c-0.146-0.158-0.218-0.366-0.201-0.587c0.248-3.303-1.238-6.419-3.879-8.133C7.064,37.464,6.5,36.345,6.5,35.134v-2.732
		c0.061-0.067,0.113-0.138,0.172-0.206c0.089-0.103,0.177-0.205,0.26-0.31c0.1-0.126,0.194-0.254,0.286-0.383
		c0.077-0.108,0.154-0.215,0.225-0.325c0.086-0.132,0.165-0.266,0.243-0.4c0.065-0.111,0.13-0.222,0.19-0.335
		c0.073-0.139,0.137-0.28,0.202-0.421c0.051-0.112,0.105-0.224,0.152-0.338c0.06-0.147,0.11-0.295,0.161-0.444
		c0.038-0.112,0.081-0.222,0.114-0.335c0.047-0.157,0.083-0.316,0.121-0.475c0.025-0.106,0.055-0.212,0.076-0.318
		c0.035-0.177,0.057-0.356,0.081-0.535c0.012-0.09,0.029-0.179,0.038-0.269c0.052-0.538,0.052-1.079,0-1.616
		c-0.009-0.09-0.026-0.179-0.038-0.268c-0.023-0.179-0.046-0.358-0.081-0.535c-0.021-0.107-0.051-0.212-0.076-0.318
		c-0.038-0.159-0.074-0.318-0.121-0.475c-0.034-0.113-0.076-0.224-0.114-0.335C8.34,23.612,8.29,23.463,8.23,23.317
		c-0.046-0.114-0.1-0.226-0.152-0.339c-0.065-0.141-0.129-0.282-0.202-0.421c-0.059-0.113-0.125-0.224-0.189-0.335
		c-0.078-0.135-0.157-0.269-0.243-0.401c-0.071-0.109-0.148-0.217-0.225-0.324c-0.092-0.129-0.187-0.257-0.287-0.383
		c-0.083-0.105-0.171-0.208-0.26-0.31c-0.059-0.068-0.111-0.139-0.172-0.206V11c0-1.654,1.346-3,3-3h9h16h3.065
		c0.039,0.295,0.099,0.582,0.17,0.865c0,0.001,0.001,0.002,0.001,0.002c0.883,3.503,4.149,6.027,7.385,6.835
		c0.143,0.035,0.206,0.121,0.234,0.188c0.025,0.058,0.055,0.177-0.028,0.323c-0.019,0.034-0.03,0.07-0.048,0.104
		c-0.195,0.354-0.365,0.718-0.508,1.09c-0.04,0.104-0.073,0.208-0.109,0.313c-0.111,0.324-0.206,0.651-0.279,0.984
		c-0.017,0.078-0.042,0.154-0.057,0.233c-0.073,0.379-0.113,0.762-0.137,1.147c-0.007,0.116-0.014,0.23-0.016,0.346
		c-0.01,0.391,0.001,0.781,0.042,1.17c0.007,0.066,0.02,0.132,0.029,0.198c0.047,0.373,0.118,0.742,0.212,1.108
		c0.015,0.059,0.027,0.118,0.043,0.176c0.111,0.401,0.253,0.794,0.421,1.179c0.028,0.063,0.058,0.125,0.087,0.187
		c0.178,0.385,0.377,0.762,0.613,1.124c0.003,0.004,0.004,0.008,0.007,0.012c0.23,0.352,0.496,0.686,0.781,1.01
		c0.034,0.039,0.059,0.083,0.094,0.122V44z"/>
</g>
<g>
</g>
<g>
</g>
<g>
</g>
<g>
</g>
<g>
</g>
<g>
</g>
<g>
</g>
<g>
</g>
<g>
</g>
<g>
</g>
<g>
</g>
<g>
</g>
<g>
</g>
<g>
</g>
<g>
</g>
</svg>
