<?xml version="1.0" encoding="iso-8859-1"?>
<!-- Generator: Adobe Illustrator 18.0.0, SVG Export Plug-In . SVG Version: 6.00 Build 0)  -->
<!DOCTYPE svg PUBLIC "-//W3C//DTD SVG 1.1//EN" "http://www.w3.org/Graphics/SVG/1.1/DTD/svg11.dtd">
<svg version="1.1" id="Capa_1" xmlns="http://www.w3.org/2000/svg" xmlns:xlink="http://www.w3.org/1999/xlink" x="0px" y="0px"
	 viewBox="0 0 57.413 57.413" style="enable-background:new 0 0 57.413 57.413;" xml:space="preserve">
<path style="fill:#231F20;" d="M56.934,6.513C53.548,2.374,48.531,0,43.169,0c-3.282,0-6.5,0.916-9.307,2.65
	c-3.476,2.147-5.962,5.352-7.294,8.971c-1.05-3.19-3.268-5.985-6.407-7.661c-1.94-1.035-4.12-1.583-6.304-1.583
	c-4.323,0-8.406,2.094-10.922,5.599C2.814,8.145,2.81,8.37,2.923,8.543s0.322,0.256,0.525,0.213
	c2.683-0.594,5.599-0.542,8.415,0.149c0.136,0.034,0.283,0.009,0.4-0.072c0.117-0.079,0.195-0.205,0.214-0.346l0.155-1.138
	l1.344,2.105c0.058,0.09,0.143,0.159,0.243,0.197c0.915,0.35,1.659,0.682,2.343,1.048c0.56,0.299,1.13,0.645,1.745,1.056
	c0.145,0.098,0.332,0.112,0.489,0.038c0.159-0.074,0.267-0.225,0.286-0.399l0.13-1.19l1.159,3.066
	c0.028,0.075,0.075,0.143,0.135,0.196c1.738,1.553,3.16,3.379,4.189,5.349c-2.592-2.935-6.374-4.753-10.416-4.753
	c-0.78,0-1.568,0.066-2.343,0.198C5.096,15.423,0.125,21.528,0.375,28.464c0.007,0.208,0.142,0.389,0.338,0.455
	c0.053,0.019,0.107,0.027,0.162,0.027c0.146,0,0.288-0.063,0.384-0.18c1.826-2.193,4.248-3.999,7.002-5.222
	c0.129-0.058,0.229-0.167,0.272-0.302s0.028-0.282-0.042-0.405l-0.62-1.075l2.485,0.891c0.1,0.036,0.211,0.039,0.313,0.008
	c0.969-0.293,1.792-0.492,2.588-0.628c0.642-0.109,1.33-0.188,2.103-0.241c0.174-0.012,0.33-0.114,0.41-0.27
	s0.073-0.342-0.018-0.491l-0.689-1.124l2.961,1.818c0.068,0.042,0.146,0.067,0.227,0.073c2.437,0.172,4.788,0.78,6.903,1.762
	l-6.219,33.261c-0.027,0.146,0.012,0.297,0.107,0.411c0.095,0.114,0.236,0.181,0.385,0.181h13.217c0.007-0.001,0.013-0.001,0.02,0
	c0.276,0,0.5-0.224,0.5-0.5c0-0.065-0.013-0.128-0.035-0.185l-1.491-15.826c-0.013-0.14-0.084-0.267-0.195-0.352
	c-0.112-0.085-0.253-0.117-0.392-0.094l-2.996,0.544c0.714-0.964,1.859-2.501,3.074-4.106c0.075-0.1,0.111-0.225,0.099-0.349
	l-1.223-12.978c1.639-1.115,3.49-1.99,5.473-2.56c0.077-0.022,0.148-0.063,0.207-0.118l2.375-2.26l-0.4,1.129
	c-0.059,0.165-0.026,0.349,0.084,0.483c0.111,0.136,0.286,0.199,0.458,0.179c0.742-0.105,1.406-0.169,2.031-0.194
	c0.805-0.035,1.594-0.01,2.566,0.072c0.109,0.007,0.214-0.016,0.304-0.072l2.125-1.313l-0.354,1.093
	c-0.044,0.135-0.028,0.282,0.043,0.405c0.071,0.122,0.19,0.209,0.329,0.238c2.84,0.6,5.484,1.815,7.647,3.517
	c0.163,0.129,0.387,0.144,0.566,0.036c0.178-0.106,0.271-0.311,0.236-0.515c-1.162-6.62-7.014-11.365-13.778-11.095
	c-1.99,0.082-3.87,0.612-5.552,1.478l1.243-4.043l0.393,2.265c0.03,0.173,0.147,0.316,0.311,0.381
	c0.162,0.062,0.346,0.037,0.486-0.068c0.797-0.609,1.533-1.121,2.25-1.564c0.89-0.55,1.859-1.059,3.052-1.603
	c0.098-0.045,0.178-0.119,0.23-0.213l1.834-3.317l0.393,1.95c0.028,0.139,0.114,0.26,0.236,0.332s0.269,0.089,0.404,0.047
	c3.728-1.169,7.622-1.486,11.275-0.914c0.204,0.028,0.408-0.066,0.511-0.246C57.084,6.897,57.065,6.673,56.934,6.513z"/>
<g>
</g>
<g>
</g>
<g>
</g>
<g>
</g>
<g>
</g>
<g>
</g>
<g>
</g>
<g>
</g>
<g>
</g>
<g>
</g>
<g>
</g>
<g>
</g>
<g>
</g>
<g>
</g>
<g>
</g>
</svg>
