<?xml version="1.0" encoding="iso-8859-1"?>
<!-- Generator: Adobe Illustrator 18.0.0, SVG Export Plug-In . SVG Version: 6.00 Build 0)  -->
<!DOCTYPE svg PUBLIC "-//W3C//DTD SVG 1.1//EN" "http://www.w3.org/Graphics/SVG/1.1/DTD/svg11.dtd">
<svg version="1.1" id="Capa_1" xmlns="http://www.w3.org/2000/svg" xmlns:xlink="http://www.w3.org/1999/xlink" x="0px" y="0px"
	 viewBox="0 0 60.002 60.002" style="enable-background:new 0 0 60.002 60.002;" xml:space="preserve">
<g>
	<ellipse cx="23.055" cy="31.565" rx="3.055" ry="3.066"/>
	<ellipse cx="37.945" cy="28.434" rx="3.055" ry="3.065"/>
	<path d="M59.795,26.568c-0.401-1.697-1.364-3.156-2.576-3.902c-0.812-0.499-1.679-0.659-2.508-0.461
		c-0.189,0.045-0.371,0.114-0.548,0.198c-2.336-5.685-5.98-9.364-9.727-11.736l1.36-2.719c0.247-0.494,0.047-1.095-0.447-1.342
		c-0.493-0.246-1.094-0.047-1.342,0.447l-1.303,2.605c-0.617-0.327-1.231-0.626-1.838-0.892l0.983-2.949
		c0.175-0.524-0.108-1.091-0.632-1.265c-0.529-0.177-1.09,0.108-1.265,0.632l-0.948,2.844c-0.693-0.248-1.366-0.461-2.012-0.642
		l0.857-2.57c0.175-0.524-0.108-1.091-0.632-1.265c-0.528-0.177-1.09,0.108-1.265,0.632l-0.908,2.724
		C33.779,6.641,32.7,6.496,31.9,6.419V4.5c0-0.553-0.447-1-1-1s-1,0.447-1,1v1.844c-0.525,0.026-1.441,0.097-2.632,0.283
		l-0.382-2.292c-0.09-0.545-0.606-0.921-1.15-0.822c-0.545,0.091-0.913,0.606-0.822,1.15l0.39,2.34
		c-1.072,0.242-2.258,0.573-3.509,1.02l-0.947-2.841c-0.175-0.523-0.736-0.809-1.265-0.632c-0.523,0.174-0.807,0.74-0.632,1.265
		l0.981,2.944c-0.863,0.378-1.742,0.822-2.621,1.327l-1.517-3.034c-0.247-0.494-0.848-0.693-1.342-0.447
		c-0.494,0.247-0.694,0.848-0.447,1.342l1.601,3.201c-0.881,0.602-1.749,1.288-2.594,2.05l-2.405-2.405
		c-0.391-0.391-1.023-0.391-1.414,0s-0.391,1.023,0,1.414l2.388,2.388c-3.076,3.272-5.646,7.835-6.826,14.213
		c-0.015,0.083-0.025,0.167-0.04,0.25c-0.254-0.07-0.512-0.118-0.776-0.118C1.73,28.939,0,31.322,0,34.363s1.73,5.424,3.939,5.424
		c0.404,0,0.798-0.102,1.177-0.267c0.701,2.671,1.863,5.179,3.458,7.378c3.194,4.404,9.468,9.606,21.27,9.606
		c0.182,0,0.363-0.001,0.548-0.004c0.185,0.003,0.365,0.004,0.548,0.004c11.799-0.001,18.074-5.202,21.27-9.606
		c2.879-3.969,4.345-8.941,4.23-14.07c0.035,0.001,0.07,0.007,0.104,0.007c0.227,0,0.451-0.025,0.672-0.078
		C59.363,32.245,60.496,29.526,59.795,26.568z M4.674,37.489c-0.206,0.166-0.456,0.298-0.734,0.298C3.022,37.787,2,36.381,2,34.363
		s1.022-3.424,1.939-3.424c0.167,0,0.335,0.047,0.504,0.139c-0.049,0.531-0.081,1.062-0.096,1.591
		c-0.001,0.04-0.001,0.08-0.002,0.12c-0.01,0.437-0.009,0.872,0.004,1.306c0.004,0.143,0.009,0.285,0.015,0.428
		c0.016,0.352,0.041,0.702,0.072,1.052c0.013,0.147,0.022,0.294,0.037,0.44c0.047,0.435,0.105,0.867,0.175,1.297
		C4.659,37.371,4.664,37.43,4.674,37.489z M50.591,45.724c-4.316,5.949-11.13,8.893-20.185,8.776h-0.027
		c-0.186,0.003-0.369,0.004-0.552,0.004c-8.802,0-15.405-2.953-19.633-8.78c-2.062-2.842-3.329-6.256-3.726-9.867
		c-0.008-0.077-0.01-0.155-0.017-0.232C6.395,35.054,6.363,34.479,6.35,33.9c-0.005-0.251-0.001-0.504,0.003-0.756
		c0.004-0.405,0.02-0.811,0.046-1.217c0.02-0.298,0.04-0.596,0.071-0.895c0.064-0.62,0.138-1.241,0.252-1.861
		c1.097-5.928,3.438-10.163,6.237-13.199l1.235,1.235c0.195,0.195,0.451,0.293,0.707,0.293s0.512-0.098,0.707-0.293
		c0.391-0.391,0.391-1.023,0-1.414l-1.229-1.229c0.684-0.619,1.384-1.181,2.095-1.683l0.533,1.067
		c0.176,0.351,0.528,0.553,0.896,0.553c0.15,0,0.303-0.034,0.446-0.105c0.494-0.247,0.694-0.848,0.447-1.342l-0.628-1.256
		c0.795-0.464,1.59-0.872,2.372-1.22l0.413,1.24c0.14,0.419,0.529,0.684,0.948,0.684c0.104,0,0.211-0.017,0.316-0.052
		c0.523-0.174,0.807-0.74,0.632-1.265l-0.45-1.349c1.148-0.407,2.236-0.7,3.224-0.917l0.291,1.747
		c0.081,0.489,0.505,0.836,0.985,0.836c0.055,0,0.109-0.004,0.165-0.014c0.545-0.091,0.913-0.606,0.822-1.15l-0.296-1.777
		c1.021-0.146,1.824-0.201,2.31-0.22V10.5c0,0.553,0.447,1,1,1s1-0.447,1-1V8.425c0.666,0.065,1.52,0.176,2.514,0.37l-0.463,1.388
		c-0.175,0.524,0.108,1.091,0.632,1.265c0.105,0.035,0.212,0.052,0.316,0.052c0.419,0,0.809-0.265,0.948-0.684l0.521-1.562
		c0.644,0.175,1.319,0.384,2.015,0.632l-0.432,1.297c-0.175,0.524,0.108,1.091,0.632,1.265c0.105,0.035,0.212,0.052,0.316,0.052
		c0.419,0,0.809-0.265,0.948-0.684l0.395-1.185c0.177,0.079,0.353,0.154,0.532,0.238c0.36,0.171,0.707,0.353,1.053,0.537
		l-0.823,1.645c-0.247,0.494-0.047,1.095,0.447,1.342c0.144,0.071,0.296,0.105,0.446,0.105c0.367,0,0.72-0.202,0.896-0.553
		l0.763-1.526c4.174,2.689,7.196,6.516,9.039,11.43l-0.003,0.003l0.182,0.513c0.272,0.766,0.509,1.532,0.719,2.308
		c0.013,0.049,0.026,0.098,0.038,0.147c0.204,0.769,0.382,1.548,0.53,2.348c0.122,0.659,0.204,1.318,0.268,1.976
		c0.012,0.127,0.029,0.252,0.04,0.38C54.791,36.694,53.464,41.764,50.591,45.724z M56.751,30.812c-0.136,0.03-0.282,0.03-0.436,0
		c-0.004-0.036-0.011-0.07-0.015-0.106c-0.068-0.63-0.153-1.261-0.269-1.891c-0.001-0.003-0.001-0.006-0.001-0.009
		c-0.002-0.012-0.006-0.023-0.008-0.035c-0.141-0.76-0.306-1.489-0.485-2.198c-0.019-0.075-0.043-0.149-0.062-0.224
		c-0.181-0.695-0.381-1.365-0.595-2.013c-0.005-0.015-0.008-0.03-0.013-0.045c0.101-0.069,0.204-0.116,0.31-0.142
		c0.379-0.094,0.752,0.068,0.994,0.219c0.758,0.467,1.401,1.486,1.68,2.66C58.314,28.993,57.645,30.599,56.751,30.812z"/>
	<path d="M41.928,20.264l1.568-0.896c0.479-0.274,0.646-0.885,0.372-1.364c-0.273-0.48-0.885-0.648-1.364-0.372l-1.568,0.896
		c-7.803,4.459-16.942,5.876-25.726,3.994c-0.544-0.118-1.072,0.228-1.188,0.768c-0.116,0.54,0.228,1.072,0.768,1.188
		c2.674,0.573,5.378,0.856,8.07,0.856C29.502,25.334,36.071,23.611,41.928,20.264z"/>
	<path d="M42.6,35.7c-0.44-0.33-1.068-0.242-1.399,0.2c-0.332,0.441-0.242,1.068,0.2,1.399l1.41,1.058
		c-1.267,1.599-5.326,6.17-10.887,7.009c-3.513,0.532-7.047-0.55-10.504-3.181l1.18-0.885c0.442-0.331,0.532-0.958,0.2-1.399
		c-0.332-0.442-0.958-0.532-1.399-0.2l-4,3c-0.442,0.331-0.532,0.958-0.2,1.399c0.196,0.263,0.496,0.4,0.801,0.4
		c0.209,0,0.419-0.065,0.599-0.2l1.176-0.882c0.034,0.037,0.055,0.081,0.095,0.113c3.345,2.64,6.793,3.971,10.278,3.971
		c0.689,0,1.381-0.053,2.072-0.156c6.352-0.958,10.797-6.002,12.191-7.786l0.987,0.741c0.18,0.135,0.39,0.2,0.599,0.2
		c0.305,0,0.604-0.138,0.801-0.4c0.332-0.441,0.242-1.068-0.2-1.399L42.6,35.7z"/>
</g>
<g>
</g>
<g>
</g>
<g>
</g>
<g>
</g>
<g>
</g>
<g>
</g>
<g>
</g>
<g>
</g>
<g>
</g>
<g>
</g>
<g>
</g>
<g>
</g>
<g>
</g>
<g>
</g>
<g>
</g>
</svg>
