<?xml version="1.0" encoding="utf-8"?>
<!-- Generator: Adobe Illustrator 17.0.2, SVG Export Plug-In . SVG Version: 6.00 Build 0)  -->
<!DOCTYPE svg PUBLIC "-//W3C//DTD SVG 1.1//EN" "http://www.w3.org/Graphics/SVG/1.1/DTD/svg11.dtd">
<svg version="1.1" id="Capa_1" xmlns="http://www.w3.org/2000/svg" xmlns:xlink="http://www.w3.org/1999/xlink" x="0px" y="0px"
	 width="64px" height="64px" viewBox="0 0 64 64" enable-background="new 0 0 64 64" xml:space="preserve">
<path d="M54.544,23.086c1.117-1.584,1.718-3.469,1.718-5.447c0-2.531-0.986-4.912-2.776-6.702c-1.79-1.79-4.17-2.775-6.702-2.775
	c-1.978,0-3.863,0.602-5.447,1.718C40.56,5.43,36.669,2.037,32,2.037s-8.56,3.393-9.337,7.842c-1.583-1.116-3.469-1.718-5.447-1.718
	c-2.532,0-4.912,0.985-6.702,2.775c-1.791,1.79-2.776,4.171-2.776,6.702c0,1.979,0.602,3.863,1.718,5.447
	c-4.449,0.777-7.842,4.668-7.842,9.337s3.393,8.56,7.842,9.337c-1.117,1.584-1.719,3.47-1.719,5.447
	c0,2.532,0.986,4.912,2.776,6.702c1.79,1.79,4.17,2.776,6.702,2.776c1.978,0,3.863-0.602,5.447-1.719
	C23.44,59.416,27.332,62.81,32,62.81s8.56-3.394,9.337-7.843c1.583,1.117,3.469,1.719,5.447,1.719c2.532,0,4.912-0.986,6.702-2.776
	c1.791-1.79,2.776-4.17,2.776-6.702c0-1.978-0.602-3.863-1.719-5.447c4.449-0.777,7.842-4.668,7.842-9.337
	S58.994,23.863,54.544,23.086z M46.784,53.686c-1.602,0-3.111-0.584-4.298-1.641c1.912-1.01,3.684-2.308,5.256-3.88
	c1.59-1.59,2.882-3.366,3.877-5.259c1.059,1.187,1.644,2.698,1.644,4.301c0,1.73-0.674,3.357-1.897,4.581
	S48.515,53.686,46.784,53.686z M32,59.81c-3.53,0-6.404-2.839-6.472-6.352c2.167,0.709,4.451,1.094,6.797,1.094
	c2.108,0,4.167-0.307,6.136-0.881C38.283,57.085,35.458,59.81,32,59.81z M12.635,51.788c-1.224-1.224-1.897-2.851-1.897-4.581
	s0.674-3.357,1.897-4.581c0.058-0.058,0.125-0.112,0.187-0.168c1.023,2.059,2.373,3.994,4.086,5.707
	c1.461,1.461,3.099,2.676,4.856,3.653c-1.22,1.204-2.833,1.867-4.548,1.867C15.485,53.686,13.858,53.012,12.635,51.788z
	 M17.216,11.161c1.73,0,3.357,0.673,4.581,1.896c0.124,0.124,0.242,0.258,0.358,0.397c-1.908,1.009-3.677,2.305-5.247,3.875
	c-1.587,1.588-2.877,3.361-3.872,5.251c-0.141-0.117-0.276-0.237-0.401-0.361c-1.224-1.224-1.897-2.851-1.897-4.581
	s0.674-3.357,1.897-4.581S15.485,11.161,17.216,11.161z M32,5.037c3.572,0,6.479,2.906,6.479,6.478c0,0.101-0.011,0.207-0.016,0.311
	c-1.969-0.575-4.029-0.881-6.137-0.881c-2.339,0-4.616,0.382-6.777,1.087c-0.015-0.175-0.027-0.348-0.027-0.516
	C25.521,7.943,28.428,5.037,32,5.037z M42.203,13.058c1.224-1.224,2.851-1.896,4.581-1.896s3.357,0.673,4.581,1.896
	s1.897,2.851,1.897,4.581c0,1.72-0.667,3.336-1.876,4.557c-0.964-1.743-2.167-3.389-3.645-4.866
	c-1.692-1.692-3.622-3.052-5.703-4.091C42.094,13.18,42.147,13.114,42.203,13.058z M19.029,19.451
	c3.551-3.551,8.273-5.507,13.296-5.507c5.022,0,9.745,1.956,13.296,5.507c7.332,7.332,7.332,19.262,0,26.593
	c-3.552,3.552-8.273,5.508-13.296,5.508c-5.023,0-9.745-1.956-13.296-5.508C11.697,38.713,11.697,26.783,19.029,19.451z
	 M11.092,25.944c0.174,0,0.352,0.011,0.533,0.028c-1.362,4.184-1.445,8.696-0.215,12.913c-0.106,0.006-0.214,0.016-0.318,0.016
	c-3.572,0-6.479-2.906-6.479-6.479S7.52,25.944,11.092,25.944z M53.24,38.885c1.232-4.224,1.146-8.744-0.223-12.935
	c3.522,0.059,6.37,2.938,6.37,6.473C59.386,35.883,56.657,38.71,53.24,38.885z"/>
<path d="M22.5,31c1.935,0,1.935-3,0-3S20.565,31,22.5,31z"/>
<path d="M41.833,31c1.935,0,1.935-3,0-3C39.899,28,39.899,31,41.833,31z"/>
<path d="M32.084,37c3.252,0,5.898-2.646,5.898-5.898c0-0.828-0.671-1.5-1.5-1.5c-0.828,0-1.5,0.672-1.5,1.5c0,0,0,0,0,0
	c0,1.599-1.3,2.898-2.898,2.898c-1.599,0-2.899-1.3-2.899-2.898c0,0,0,0,0,0c0-0.828-0.671-1.5-1.5-1.5c-0.829,0-1.5,0.672-1.5,1.5
	C26.185,34.354,28.832,37,32.084,37z"/>
</svg>
