<?xml version="1.0" encoding="iso-8859-1"?>
<!-- Generator: Adobe Illustrator 18.0.0, SVG Export Plug-In . SVG Version: 6.00 Build 0)  -->
<!DOCTYPE svg PUBLIC "-//W3C//DTD SVG 1.1//EN" "http://www.w3.org/Graphics/SVG/1.1/DTD/svg11.dtd">
<svg version="1.1" id="Capa_1" xmlns="http://www.w3.org/2000/svg" xmlns:xlink="http://www.w3.org/1999/xlink" x="0px" y="0px"
	 viewBox="0 0 460 460" style="enable-background:new 0 0 460 460;" xml:space="preserve">
<path d="M386.188,402.152c-6.231-1.869-12.534-3.757-19.514-5.464c1.011-6.78,1.533-13.644,1.533-20.513
	c0-64.396-44.27-118.643-103.973-133.913c2.674-5.292,4.133-11.198,4.133-17.27c0-17.698-12.047-32.629-28.367-37.041v-71.783
	c8.662,1.02,14.141,3.37,20.242,5.987c8.9,3.818,18.989,8.146,38.15,8.146c19.147,0,29.232-4.327,38.129-8.146
	c8.158-3.501,15.204-6.524,30.242-6.524h10V26.771h-10c-19.145,0-29.228,4.319-38.123,8.131c-8.16,3.496-15.207,6.515-30.248,6.515
	c-15.055,0-22.106-3.021-30.271-6.517c-8.896-3.811-18.979-8.129-38.121-8.129h-10v161.181
	c-16.321,4.412-28.368,19.342-28.368,37.041c0,6.093,1.446,11.985,4.117,17.274c-59.695,15.277-103.957,69.52-103.957,133.909
	c0,10.321,1.134,20.508,3.373,30.451c-5.407-1.4-10.493-2.925-15.654-4.473C59.981,396.292,39.786,390.232,0,390.232v20
	c36.851,0,54.78,5.381,73.763,11.076c19.529,5.861,39.725,11.921,79.511,11.921c39.808,0,60.013-6.06,79.553-11.92
	c18.995-5.696,36.937-11.077,73.811-11.077c36.872,0,54.813,5.381,73.807,11.077c19.541,5.86,39.747,11.92,79.557,11.92v-20
	C423.125,413.229,405.184,407.849,386.188,402.152z M240,47.306c8.665,1.018,14.145,3.364,20.247,5.979
	c8.9,3.812,18.988,8.132,38.146,8.132c19.145,0,29.228-4.319,38.123-8.131c6.103-2.614,11.582-4.962,20.248-5.979v48.764
	c-12.941,1.192-20.925,4.617-28.129,7.709c-8.158,3.501-15.204,6.524-30.242,6.524c-15.052,0-22.103-3.024-30.266-6.526
	c-7.204-3.091-15.187-6.516-28.127-7.707V47.306z M211.632,224.992c0-10.13,8.24-18.371,18.368-18.371s18.367,8.241,18.367,18.371
	c0,5.168-2.207,10.09-5.986,13.537c-4.08-0.364-8.208-0.561-12.381-0.561c-4.18,0-8.315,0.198-12.401,0.563
	C213.797,235.047,211.632,230.165,211.632,224.992z M227.081,402.152c-18.994,5.696-36.935,11.077-73.808,11.077
	c-14.665,0-26.327-0.854-36.258-2.239c-3.46-11.236-5.223-22.918-5.223-34.815c0-65.18,53.028-118.207,118.208-118.207
	s118.207,53.027,118.207,118.207c0,5.585-0.398,11.167-1.178,16.684c-11.039-1.607-24.065-2.628-40.392-2.628
	C266.828,390.232,246.622,396.292,227.081,402.152z"/>
<g>
</g>
<g>
</g>
<g>
</g>
<g>
</g>
<g>
</g>
<g>
</g>
<g>
</g>
<g>
</g>
<g>
</g>
<g>
</g>
<g>
</g>
<g>
</g>
<g>
</g>
<g>
</g>
<g>
</g>
</svg>
