<?xml version="1.0" encoding="iso-8859-1"?>
<!-- Generator: Adobe Illustrator 19.0.0, SVG Export Plug-In . SVG Version: 6.00 Build 0)  -->
<svg version="1.1" id="Capa_1" xmlns="http://www.w3.org/2000/svg" xmlns:xlink="http://www.w3.org/1999/xlink" x="0px" y="0px"
	 viewBox="0 0 52.226 52.226" style="enable-background:new 0 0 52.226 52.226;" xml:space="preserve">
<g>
	<g>
		<path d="M36.802,1.055L36.747,0l-1.05,0.113c-0.103,0.011-10.252,1.234-10.948,12.581l-0.07,1.136l1.136-0.077
			C25.931,13.745,37.426,12.828,36.802,1.055z M34.821,2.322c-0.191,6.838-5.511,8.74-7.953,9.253
			C27.798,4.93,32.617,2.905,34.821,2.322z"/>
		<path d="M46.584,37.517l-0.639-0.207c-3.867-1.25-6.464-4.792-6.464-8.814c0-3.578,2.023-6.778,5.281-8.352l0.972-0.469
			l-0.542-0.933c-0.232-0.4-2.401-3.943-6.983-5.116c-3.634-0.93-7.72-0.107-12.149,2.447c-1.875-1.138-8.103-4.418-13.058-1.13
			c-0.97,0.536-11.251,6.695-5.9,23.313c0.157,0.372,3.888,9.113,8.303,12.387c1.191,1.138,4.237,2.56,7.718,0.187
			c0.603-0.249,4.638-1.802,7.198,0.017c0.945,0.647,2.595,1.38,4.338,1.38c1.322,0,2.697-0.421,3.859-1.621
			c0.542-0.469,5.493-4.888,8.066-11.888l0.075-0.204L46.584,37.517z M37.182,49.115l-0.077,0.073
			c-2.193,2.303-5.518,0.1-5.641,0.018c-1.308-0.93-2.823-1.233-4.244-1.233c-2.579,0-4.847,0.999-4.992,1.064l-0.163,0.092
			c-3.019,2.107-5.086,0.253-5.305,0.042l-0.118-0.101c-3.993-2.912-7.663-11.507-7.668-11.51
			C3.966,21.992,13.56,16.9,13.968,16.693l0.11-0.065c4.647-3.12,11.327,1.396,11.393,1.441l0.533,0.366l0.552-0.333
			c4.16-2.515,7.914-3.37,11.157-2.539c2.642,0.676,4.326,2.327,5.15,3.342c-3.347,2.051-5.381,5.63-5.381,9.591
			c0,4.556,2.735,8.604,6.902,10.365C41.819,45.122,37.231,49.074,37.182,49.115z"/>
	</g>
</g>
<g>
</g>
<g>
</g>
<g>
</g>
<g>
</g>
<g>
</g>
<g>
</g>
<g>
</g>
<g>
</g>
<g>
</g>
<g>
</g>
<g>
</g>
<g>
</g>
<g>
</g>
<g>
</g>
<g>
</g>
</svg>
