<?xml version="1.0" encoding="iso-8859-1"?>
<!-- Generator: Adobe Illustrator 18.0.0, SVG Export Plug-In . SVG Version: 6.00 Build 0)  -->
<!DOCTYPE svg PUBLIC "-//W3C//DTD SVG 1.1//EN" "http://www.w3.org/Graphics/SVG/1.1/DTD/svg11.dtd">
<svg version="1.1" id="Capa_1" xmlns="http://www.w3.org/2000/svg" xmlns:xlink="http://www.w3.org/1999/xlink" x="0px" y="0px"
	 viewBox="0 0 52 52" style="enable-background:new 0 0 52 52;" xml:space="preserve">
<g>
	<path d="M25.5,39c-3.86,0-7,3.141-7,7c0,0.553,0.448,1,1,1s1-0.447,1-1c0-2.757,2.243-5,5-5s5,2.243,5,5c0,0.553,0.448,1,1,1
		s1-0.447,1-1C32.5,42.141,29.36,39,25.5,39z"/>
	<circle cx="19.5" cy="29" r="2"/>
	<circle cx="33.5" cy="29" r="2"/>
	<path d="M36.79,35.292c-0.18,0.189-0.29,0.45-0.29,0.71s0.11,0.52,0.29,0.71c0.19,0.18,0.45,0.29,0.71,0.29
		c0.26,0,0.52-0.11,0.71-0.29c0.18-0.19,0.29-0.45,0.29-0.71c0-0.271-0.11-0.521-0.29-0.71C37.83,34.922,37.16,34.922,36.79,35.292z
		"/>
	<path d="M34.67,33.172c-0.19,0.19-0.29,0.44-0.29,0.71c0,0.26,0.1,0.521,0.29,0.71c0.19,0.18,0.45,0.29,0.71,0.29
		c0.26,0,0.52-0.11,0.71-0.3c0.18-0.18,0.29-0.44,0.29-0.7c0-0.27-0.11-0.53-0.29-0.71C35.72,32.802,35.04,32.802,34.67,33.172z"/>
	<path d="M38.91,33.172c-0.18,0.19-0.29,0.44-0.29,0.71c0,0.26,0.11,0.521,0.29,0.71c0.19,0.18,0.45,0.29,0.71,0.29
		c0.26,0,0.52-0.11,0.71-0.3c0.18-0.18,0.29-0.44,0.29-0.7c0-0.27-0.11-0.53-0.29-0.71C39.96,32.802,39.29,32.802,38.91,33.172z"/>
	<path d="M38.92,37.412c-0.19,0.18-0.3,0.439-0.3,0.71c0,0.27,0.11,0.52,0.3,0.71c0.18,0.18,0.44,0.29,0.7,0.29
		c0.26,0,0.52-0.11,0.71-0.29c0.18-0.19,0.29-0.45,0.29-0.71s-0.11-0.521-0.29-0.71C39.96,37.042,39.28,37.042,38.92,37.412z"/>
	<path d="M34.67,37.412c-0.18,0.189-0.29,0.439-0.29,0.71c0,0.26,0.11,0.52,0.29,0.71c0.19,0.18,0.45,0.29,0.71,0.29
		c0.26,0,0.52-0.11,0.71-0.29c0.18-0.19,0.29-0.45,0.29-0.71s-0.11-0.521-0.29-0.71C35.72,37.042,35.05,37.042,34.67,37.412z"/>
	<path d="M14.67,35.412c-0.18,0.189-0.29,0.439-0.29,0.71c0,0.26,0.11,0.52,0.29,0.71c0.19,0.18,0.45,0.29,0.71,0.29
		c0.26,0,0.52-0.11,0.71-0.29c0.18-0.19,0.29-0.45,0.29-0.71s-0.11-0.521-0.29-0.71C15.71,35.042,15.04,35.042,14.67,35.412z"/>
	<path d="M12.55,33.292c-0.19,0.18-0.29,0.439-0.29,0.71c0,0.26,0.1,0.52,0.29,0.71c0.19,0.18,0.45,0.29,0.71,0.29
		c0.26,0,0.51-0.11,0.71-0.29c0.18-0.19,0.29-0.45,0.29-0.71c0-0.271-0.11-0.521-0.3-0.71C13.59,32.922,12.92,32.922,12.55,33.292z"
		/>
	<path d="M17.5,35.002c0.26,0,0.52-0.11,0.71-0.29c0.18-0.19,0.29-0.45,0.29-0.71c0-0.271-0.11-0.521-0.29-0.71
		c-0.37-0.37-1.05-0.37-1.42,0c-0.18,0.189-0.29,0.45-0.29,0.71s0.11,0.52,0.29,0.71C16.98,34.892,17.24,35.002,17.5,35.002z"/>
	<path d="M18.21,37.532c-0.37-0.37-1.05-0.37-1.42,0c-0.18,0.189-0.29,0.449-0.29,0.71c0,0.26,0.11,0.52,0.29,0.71
		c0.19,0.189,0.45,0.29,0.71,0.29c0.26,0,0.52-0.101,0.7-0.29c0.19-0.181,0.3-0.44,0.3-0.71C18.5,37.972,18.39,37.722,18.21,37.532z
		"/>
	<path d="M12.55,37.532c-0.19,0.189-0.29,0.449-0.29,0.71c0,0.27,0.1,0.52,0.29,0.71c0.19,0.189,0.45,0.29,0.71,0.29
		c0.26,0,0.52-0.101,0.7-0.29c0.19-0.19,0.3-0.45,0.3-0.71c0-0.261-0.11-0.521-0.3-0.71C13.59,37.162,12.92,37.162,12.55,37.532z"/>
	<path d="M47.388,25.313c-1.601-7.937-7.528-14.279-15.322-16.46l0.433-7.798c0.015-0.274-0.083-0.543-0.272-0.743
		C32.038,0.113,31.775,0,31.5,0h-10c-0.275,0-0.538,0.113-0.727,0.313c-0.189,0.2-0.287,0.469-0.272,0.743l0.419,7.54
		c-8.315,1.909-14.626,8.352-16.309,16.718C2.806,26.292,1.5,28.422,1.5,30.5c0,2.153,1.268,4.089,3.208,4.979
		C7.204,45.233,15.885,52,26,52s18.796-6.767,21.292-16.521c1.94-0.89,3.208-2.825,3.208-4.979
		C50.5,28.422,49.194,26.292,47.388,25.313z M30.443,2l-0.419,7.544c0,0,0,0.001,0,0.001L29.554,18h-6.108l-0.481-8.673l0-0.001
		L22.557,2H30.443z M46.12,33.796c-0.328,0.111-0.574,0.384-0.652,0.721C43.36,43.633,35.354,50,26,50S8.64,43.633,6.532,34.517
		c-0.078-0.337-0.324-0.609-0.652-0.721C4.457,33.312,3.5,31.986,3.5,30.5c0-1.449,1.063-3.051,2.37-3.57
		c0.322-0.129,0.555-0.414,0.615-0.756c1.361-7.701,7.014-13.7,14.547-15.564l0.469,8.446C21.531,19.585,21.969,20,22.5,20h8
		c0.531,0,0.969-0.415,0.999-0.944l0.454-8.167c7.013,2.132,12.278,8.015,13.563,15.285c0.061,0.342,0.293,0.627,0.615,0.756
		c1.307,0.52,2.37,2.121,2.37,3.57C48.5,31.986,47.543,33.312,46.12,33.796z"/>
	<path d="M21.875,26.781C22.06,26.929,22.28,27,22.5,27c0.293,0,0.584-0.129,0.781-0.375c0.345-0.432,0.275-1.061-0.156-1.406l-5-4
		c-0.43-0.345-1.06-0.273-1.405,0.156c-0.345,0.432-0.275,1.061,0.156,1.406L21.875,26.781z"/>
	<path d="M34.875,21.219l-5,4c-0.432,0.346-0.501,0.975-0.156,1.406C29.917,26.872,30.207,27,30.5,27
		c0.219,0,0.44-0.071,0.624-0.219l5-4c0.432-0.346,0.501-0.975,0.156-1.406C35.937,20.942,35.306,20.873,34.875,21.219z"/>
</g>
<g>
</g>
<g>
</g>
<g>
</g>
<g>
</g>
<g>
</g>
<g>
</g>
<g>
</g>
<g>
</g>
<g>
</g>
<g>
</g>
<g>
</g>
<g>
</g>
<g>
</g>
<g>
</g>
<g>
</g>
</svg>
