<?xml version="1.0" encoding="iso-8859-1"?>
<!-- Generator: Adobe Illustrator 16.0.0, SVG Export Plug-In . SVG Version: 6.00 Build 0)  -->
<!DOCTYPE svg PUBLIC "-//W3C//DTD SVG 1.1//EN" "http://www.w3.org/Graphics/SVG/1.1/DTD/svg11.dtd">
<svg version="1.1" id="Capa_1" xmlns="http://www.w3.org/2000/svg" xmlns:xlink="http://www.w3.org/1999/xlink" x="0px" y="0px"
	 width="378.939px" height="378.939px" viewBox="0 0 378.939 378.939" style="enable-background:new 0 0 378.939 378.939;"
	 xml:space="preserve">
<g>
	<path d="M330.037,131.245c6.966-9.876,10.718-21.628,10.718-33.962c0-15.783-6.15-30.629-17.312-41.79
		c-11.161-11.161-26-17.302-41.789-17.302c-12.331,0-24.089,3.754-33.966,10.71C242.847,21.156,218.581,0,189.473,0
		c-29.113,0-53.375,21.156-58.219,48.896c-9.871-6.957-21.632-10.711-33.965-10.711c-15.786,0-30.625,6.141-41.787,17.303
		C44.334,66.648,38.19,81.494,38.19,97.277c0,12.34,3.754,24.085,10.714,33.962c-27.742,4.844-48.899,29.106-48.899,58.218
		c0,29.113,21.157,53.378,48.899,58.219c-6.966,9.877-10.72,21.635-10.72,33.966c0,15.789,6.15,30.628,17.312,41.79
		c11.162,11.161,26,17.305,41.787,17.305c12.334,0,24.089-3.751,33.966-10.717c4.85,27.754,29.118,48.92,58.225,48.92
		c29.108,0,53.374-21.166,58.215-48.908c9.877,6.967,21.635,10.718,33.966,10.718c15.789,0,30.628-6.145,41.789-17.306
		c11.168-11.161,17.312-26.001,17.312-41.79c0-12.33-3.752-24.083-10.718-33.965c27.742-4.841,48.896-29.106,48.896-58.219
		S357.792,136.089,330.037,131.245z M281.653,322.043c-9.986,0-19.4-3.642-26.799-10.23c11.923-6.296,22.975-14.395,32.778-24.191
		c9.913-9.913,17.963-20.989,24.174-32.79c6.601,7.397,10.248,16.817,10.248,26.816c0,10.79-4.208,20.935-11.831,28.564
		C302.6,317.842,292.449,322.043,281.653,322.043z M189.473,360.234c-22.01,0-39.93-17.707-40.356-39.61
		c13.512,4.421,27.755,6.819,42.384,6.819c13.144,0,25.985-1.911,38.261-5.492C228.653,343.239,211.031,360.234,189.473,360.234z
		 M68.725,310.212c-7.63-7.63-11.829-17.774-11.829-28.564s4.205-20.935,11.829-28.564c0.362-0.359,0.779-0.7,1.166-1.047
		c6.381,12.842,14.796,24.904,25.48,35.585c9.109,9.109,19.321,16.684,30.278,22.779c-7.608,7.502-17.665,11.643-28.36,11.643
		C86.496,322.043,76.351,317.842,68.725,310.212z M97.289,56.891c10.787,0,20.935,4.195,28.564,11.822
		c0.773,0.773,1.51,1.607,2.232,2.475c-11.895,6.29-22.926,14.371-32.714,24.162c-9.898,9.901-17.942,20.956-24.144,32.741
		c-0.88-0.73-1.723-1.479-2.502-2.253c-7.63-7.629-11.829-17.774-11.829-28.561c0-10.787,4.205-20.931,11.829-28.564
		C76.351,61.08,86.496,56.891,97.289,56.891z M189.473,18.706c22.271,0,40.398,18.118,40.398,40.392
		c0,0.631-0.073,1.291-0.098,1.939c-12.275-3.586-25.124-5.495-38.268-5.495c-14.586,0-28.783,2.384-42.259,6.78
		c-0.091-1.093-0.167-2.171-0.167-3.218C149.074,36.824,167.201,18.706,189.473,18.706z M253.095,68.719
		c7.624-7.633,17.774-11.822,28.559-11.822c10.79,0,20.935,4.195,28.57,11.822c7.623,7.627,11.825,17.777,11.825,28.564
		c0,10.723-4.159,20.8-11.697,28.412c-6.011-10.866-13.513-21.13-22.731-30.34c-10.546-10.549-22.578-19.031-35.561-25.507
		C252.413,69.48,252.741,69.069,253.095,68.719z M108.593,108.582c22.143-22.143,51.584-34.34,82.907-34.34
		c31.313,0,60.761,12.197,82.907,34.34c45.717,45.717,45.717,120.102,0,165.814c-22.152,22.146-51.588,34.343-82.907,34.343
		c-31.323,0-60.764-12.197-82.907-34.343C62.876,228.684,62.876,154.299,108.593,108.582z M59.104,149.065
		c1.087,0,2.195,0.07,3.325,0.176c-8.491,26.089-9.009,54.221-1.34,80.514c-0.661,0.036-1.336,0.098-1.985,0.098
		c-22.271,0-40.398-18.115-40.398-40.396C18.705,167.181,36.833,149.065,59.104,149.065z M321.914,229.756
		c7.679-26.336,7.144-54.52-1.394-80.651c21.963,0.366,39.719,18.319,39.719,40.359
		C360.233,211.037,343.214,228.666,321.914,229.756z"/>
	<path d="M130.237,180.592c12.066,0,12.066-18.706,0-18.706C118.171,161.886,118.171,180.592,130.237,180.592z"/>
	<path d="M250.781,180.592c12.068,0,12.068-18.706,0-18.706C238.725,161.886,238.725,180.592,250.781,180.592z"/>
	<path d="M189.996,218.004c20.28,0,36.775-16.502,36.775-36.776c0-5.164-4.184-9.353-9.353-9.353c-5.164,0-9.354,4.189-9.354,9.353
		l0,0c0,9.971-8.104,18.07-18.069,18.07c-9.971,0-18.076-8.104-18.076-18.07l0,0c0-5.164-4.183-9.353-9.353-9.353
		s-9.353,4.189-9.353,9.353C153.214,201.502,169.719,218.004,189.996,218.004z"/>
</g>
<g>
</g>
<g>
</g>
<g>
</g>
<g>
</g>
<g>
</g>
<g>
</g>
<g>
</g>
<g>
</g>
<g>
</g>
<g>
</g>
<g>
</g>
<g>
</g>
<g>
</g>
<g>
</g>
<g>
</g>
</svg>
