<?xml version="1.0" encoding="iso-8859-1"?>
<!-- Generator: Adobe Illustrator 18.0.0, SVG Export Plug-In . SVG Version: 6.00 Build 0)  -->
<!DOCTYPE svg PUBLIC "-//W3C//DTD SVG 1.1//EN" "http://www.w3.org/Graphics/SVG/1.1/DTD/svg11.dtd">
<svg version="1.1" id="Capa_1" xmlns="http://www.w3.org/2000/svg" xmlns:xlink="http://www.w3.org/1999/xlink" x="0px" y="0px"
	 viewBox="0 0 100.122 94.579" style="enable-background:new 0 0 100.122 94.579;" xml:space="preserve">
<g>
	<path d="M50.169,70.718l-0.188,0.015c-0.545,0.043-5.417,0.463-8.453,1.863l-1.457,0.672l0.079,1.603
		c0.014,0.281,0.169,2.821,1.324,5.454c1.708,3.894,4.796,6.038,8.694,6.038s6.986-2.144,8.694-6.038
		c1.155-2.633,1.31-5.173,1.324-5.454l0.079-1.603l-1.457-0.672c-3.036-1.401-7.907-1.82-8.453-1.863L50.169,70.718z M54.511,78.416
		c-0.602,1.372-1.706,3.195-4.342,3.195c-1.243,0-3.042-0.321-4.299-3.099c-0.34-0.751-0.563-1.517-0.709-2.169
		c1.796-0.486,3.966-0.762,5.008-0.856c1.043,0.095,3.213,0.371,5.008,0.857C55.038,76.966,54.827,77.695,54.511,78.416z"/>
	<path d="M21.301,27.188c0,0,7.542-6.529,13.653-9.021c0,0-7.282-5.341-14.823-8.309C20.13,9.858,18.7,21.49,21.301,27.188z"/>
	<path d="M65.166,18.167c6.111,2.493,13.653,9.021,13.653,9.021c2.601-5.698,1.17-17.33,1.17-17.33
		C72.448,12.825,65.166,18.167,65.166,18.167z"/>
	<path d="M91.533,37.88c-3.164-3.027-4.794-6.018-4.714-8.649c0.049-1.605,0.734-2.569,0.741-2.577l0.468-0.574l0.059-0.738
		c0.014-0.171,0.336-4.25,0.317-9.16C88.377,9.388,87.709,4.488,86.418,1.62L85.689,0l-1.76,0.24
		c-0.453,0.062-11,1.589-22.772,10.417c-1.866-0.301-5.977-0.852-11.096-0.86c-5.12,0.008-9.231,0.559-11.096,0.86
		C27.193,1.829,16.646,0.302,16.193,0.24L14.433,0l-0.729,1.62c-1.291,2.868-1.959,7.768-1.986,14.561
		c-0.019,4.91,0.303,8.989,0.317,9.16l0.059,0.738l0.468,0.574c0.007,0.008,0.692,0.973,0.741,2.577
		c0.08,2.631-1.55,5.622-4.714,8.649c-9.659,9.242-8.58,25.535-8.529,26.224l0.476,6.479c0,0,4.807-7.126,7.54-8.474
		c-1.33,6.101,2.423,13.756,2.423,13.756s2.08-4.523,4.388-6.7c3.336,5.78,9.711,9.083,10.024,9.242l0.574,0.292l0.643-0.037
		c3.255-0.189,6.325,0.832,7.841,1.444c0.337,1.786,0.491,3.365,0.306,4.366c-0.41,2.225,0.087,4.258,1.438,5.879
		c2.368,2.845,7.097,4.227,14.456,4.227c7.359,0,12.088-1.383,14.456-4.227c1.35-1.622,1.847-3.655,1.438-5.879
		c-0.188-1.019-0.025-2.635,0.324-4.459c1.583-0.617,4.511-1.531,7.607-1.352l0.643,0.037l0.574-0.292
		c0.313-0.159,6.688-3.462,10.024-9.242c2.308,2.177,4.388,6.7,4.388,6.7s3.753-7.655,2.423-13.756
		c2.734,1.348,7.54,8.474,7.54,8.474l0.476-6.479C100.113,63.415,101.191,47.122,91.533,37.88z M85.686,56.618
		c0,0,1.856,4.57,1.697,8.087c-0.995-0.832-1.756-1.299-1.821-1.339l-2.582-1.568c0,0-2.782,8.572-9.421,12.091
		c-2.126-0.041-4.13,0.283-5.811,0.707c0.412-1.376,0.841-2.665,1.223-3.708l0.414-1.13l-0.665-1.003
		c-0.027-0.04-2.682-4.058-4.836-8.934c-0.666-1.507-1.209-2.927-1.628-4.246c0.522,0.122,1.071,0.187,1.636,0.187h0
		c0.983,0,1.959-0.188,2.9-0.56c1.655-0.654,3.019-1.813,3.841-3.265c0.904-1.597,1.062-3.343,0.432-4.937
		c-0.38-0.962-1.022-2.311-1.843-2.311h11.024v-5H67.897c-2.5,0-4.633,0.453-6.34,1.27c-1.736,0.831-3.056,2.091-3.923,3.708
		c-2.049,3.821-1.41,9.568,1.902,17.064c1.674,3.79,3.596,7.052,4.577,8.633c-1.03,3.007-3.486,10.825-2.724,14.964
		c0.198,1.073-0.119,1.621-0.416,1.979c-1.331,1.599-5.269,2.516-10.804,2.516c-5.535,0-9.473-0.917-10.804-2.516
		c-0.298-0.357-0.614-0.905-0.416-1.977c0.763-4.14-1.693-11.955-2.724-14.962c0.981-1.581,2.903-4.838,4.577-8.628
		c3.311-7.496,3.951-13.233,1.901-17.054c-0.867-1.617-2.187-2.897-3.923-3.728c-1.707-0.817-3.84-1.27-6.34-1.27H20.246v5h10.982
		c-0.821,0-1.463,1.349-1.843,2.311c-0.629,1.594-0.472,3.382,0.432,4.979c0.822,1.452,2.186,2.59,3.841,3.244
		c0.941,0.372,1.917,0.55,2.9,0.55c0.522,0,1.029-0.061,1.515-0.165c-0.413,1.295-0.945,2.684-1.595,4.159
		c-2.15,4.883-4.834,8.949-4.86,8.989l-0.665,1.002l0.414,1.129c0.388,1.059,0.824,2.369,1.241,3.768
		c-1.727-0.453-3.819-0.811-6.045-0.767c-6.639-3.52-9.422-12.091-9.422-12.091l-2.582,1.568c-0.066,0.04-0.826,0.507-1.822,1.339
		c-0.159-3.517,1.697-8.087,1.697-8.087s-4.772-1.155-9.51,1.806c0.444-4.985,1.979-12.355,6.949-17.111
		c4.224-4.041,6.302-8.155,6.178-12.227c-0.068-2.227-0.81-3.854-1.326-4.727c-0.301-4.273-0.597-13.819,0.717-19.013
		c3.469,0.853,11.229,3.327,19.449,9.708l0.858,0.665l1.064-0.211c0.048-0.01,4.846-0.948,11.247-0.958
		c6.4,0.01,11.198,0.949,11.246,0.958l1.064,0.211l0.858-0.665C71.449,8.673,79.21,6.2,82.678,5.347
		c1.314,5.193,1.018,14.739,0.717,19.013c-0.517,0.873-1.258,2.5-1.326,4.727c-0.124,4.072,1.955,8.186,6.178,12.227
		c4.97,4.756,6.505,12.126,6.949,17.111C90.458,55.464,85.686,56.618,85.686,56.618z M64.068,48.307
		c0.365-0.144,0.751-0.221,1.115-0.221c0.658,0,1.217,0.254,1.36,0.617c0.217,0.549-0.407,1.534-1.537,1.98
		c-0.365,0.144-0.751,0.221-1.115,0.221c-0.658,0-1.217-0.254-1.36-0.617C62.314,49.737,62.938,48.753,64.068,48.307z M37.92,50.287
		c-0.143,0.363-0.703,0.617-1.36,0.617c-0.364,0-0.75-0.076-1.115-0.221c-0.615-0.243-1.124-0.658-1.396-1.138
		c-0.104-0.184-0.261-0.539-0.141-0.843c0.143-0.363,0.703-0.617,1.36-0.617c0.364,0,0.75,0.076,1.115,0.221
		C37.512,48.753,38.136,49.737,37.92,50.287z"/>
</g>
<g>
</g>
<g>
</g>
<g>
</g>
<g>
</g>
<g>
</g>
<g>
</g>
<g>
</g>
<g>
</g>
<g>
</g>
<g>
</g>
<g>
</g>
<g>
</g>
<g>
</g>
<g>
</g>
<g>
</g>
</svg>
