<?xml version="1.0" encoding="iso-8859-1"?>
<!-- Generator: Adobe Illustrator 19.0.0, SVG Export Plug-In . SVG Version: 6.00 Build 0)  -->
<svg version="1.1" id="Layer_1" xmlns="http://www.w3.org/2000/svg" xmlns:xlink="http://www.w3.org/1999/xlink" x="0px" y="0px"
	 viewBox="0 0 460 460" style="enable-background:new 0 0 460 460;" xml:space="preserve">
<g id="XMLID_445_">
	<g>
		<path d="M429.439,215C422.112,116.652,343.348,37.888,245,30.561V0h-30v30.561C116.652,37.888,37.888,116.652,30.561,215H0v30
			h30.561C37.888,343.348,116.652,422.112,215,429.439V460h30v-30.561c98.348-7.327,177.112-86.091,184.439-184.439H460v-30H429.439
			z M380.676,151.352l-74.458,30.842c-7.217-11.465-16.947-21.194-28.412-28.412l30.842-74.458
			C339.365,95.422,364.578,120.635,380.676,151.352z M290,230c0,33.084-26.916,60-60,60c-33.084,0-60-26.916-60-60s26.916-60,60-60
			S290,196.916,290,230z M230,60c17.743,0,34.857,2.737,50.948,7.803l-30.844,74.463C243.638,140.785,236.909,140,230,140
			s-13.638,0.785-20.104,2.266l-30.844-74.463C195.143,62.737,212.257,60,230,60z M151.352,79.324l30.842,74.458
			c-11.465,7.217-21.195,16.946-28.412,28.412l-74.458-30.842C95.422,120.635,120.635,95.422,151.352,79.324z M60,230
			c0-17.743,2.737-34.857,7.803-50.949l74.463,30.844C140.785,216.362,140,223.091,140,230s0.785,13.638,2.266,20.104
			l-74.463,30.844C62.737,264.857,60,247.743,60,230z M79.324,308.648l74.458-30.842c7.217,11.465,16.947,21.194,28.412,28.412
			l-30.842,74.458C120.635,364.578,95.422,339.365,79.324,308.648z M230,400c-17.743,0-34.857-2.737-50.948-7.803l30.844-74.463
			C216.362,319.215,223.091,320,230,320s13.638-0.785,20.104-2.266l30.844,74.463C264.857,397.263,247.743,400,230,400z
			 M308.648,380.676l-30.842-74.458c11.465-7.217,21.195-16.946,28.412-28.412l74.458,30.842
			C364.578,339.365,339.365,364.578,308.648,380.676z M392.197,280.949l-74.463-30.844C319.215,243.638,320,236.909,320,230
			s-0.785-13.638-2.266-20.104l74.463-30.844C397.263,195.143,400,212.257,400,230S397.263,264.857,392.197,280.949z"/>
	</g>
</g>
<g>
</g>
<g>
</g>
<g>
</g>
<g>
</g>
<g>
</g>
<g>
</g>
<g>
</g>
<g>
</g>
<g>
</g>
<g>
</g>
<g>
</g>
<g>
</g>
<g>
</g>
<g>
</g>
<g>
</g>
</svg>
