<?xml version="1.0" encoding="iso-8859-1"?>
<!-- Generator: Adobe Illustrator 18.0.0, SVG Export Plug-In . SVG Version: 6.00 Build 0)  -->
<!DOCTYPE svg PUBLIC "-//W3C//DTD SVG 1.1//EN" "http://www.w3.org/Graphics/SVG/1.1/DTD/svg11.dtd">
<svg version="1.1" id="Capa_1" xmlns="http://www.w3.org/2000/svg" xmlns:xlink="http://www.w3.org/1999/xlink" x="0px" y="0px"
	 viewBox="0 0 103.366 69.174" style="enable-background:new 0 0 103.366 69.174;" preserveAspectRatio="fit">
<g>
	<path d="M84.838,0.475c-5.344,0-10.311,2.255-13.795,6.154C63.955,0.082,52.231,0,51.683,0c-0.577,0-12.78,0.083-19.449,6.53
		c-3.479-3.839-8.407-6.056-13.707-6.056C8.311,0.475,0,8.786,0,19.003c0,6.04,2.909,11.609,7.733,15.062
		c-1.345,2.438-2.189,4.66-2.565,6.746c-0.492,2.726-0.155,5.177,1.003,7.285c1.932,3.516,5.957,5.868,12.307,7.19
		c0.797,0.166,1.63,0.316,2.503,0.45c1.468,4.194,7.353,13.439,30.699,13.439c23.343,0,29.229-9.242,30.698-13.437
		c0.876-0.135,1.712-0.285,2.511-0.451c6.349-1.321,10.375-3.673,12.307-7.189c1.158-2.108,1.495-4.559,1.003-7.285
		c-0.377-2.086-1.22-4.309-2.566-6.747c4.824-3.452,7.733-9.021,7.733-15.062C103.366,8.786,95.055,0.475,84.838,0.475z
		 M74.81,58.309c-5.597,4.954-15.667,5.993-23.13,5.993c-13.154,0-19.651-3.098-22.784-5.698c-0.934-0.774-1.623-1.543-2.132-2.246
		c2.683,0.187,5.687,0.277,9.092,0.277c3.183,0,6.368-0.077,9.177-0.146c2.416-0.059,4.698-0.114,6.65-0.114
		c1.952,0,4.235,0.055,6.652,0.114c2.809,0.068,5.994,0.146,9.176,0.146c0.001,0,0.002,0,0.003,0c3.401,0,6.401-0.09,9.08-0.276
		C76.15,56.973,75.569,57.637,74.81,58.309z M91.184,31.097l-2.34,1.231l1.418,2.232c3.136,4.935,4.032,8.7,2.664,11.191
		c-1.588,2.891-6.261,4.392-11.292,5.171l-1.505,0.188c-3.419,0.427-7.548,0.634-12.621,0.634c-3.123,0-6.141-0.073-9.059-0.144
		c-2.447-0.059-4.758-0.115-6.769-0.115c-2.011,0-4.322,0.056-6.77,0.115c-2.918,0.071-5.935,0.144-9.058,0.144
		c-5.073,0-9.202-0.207-12.621-0.634l-1.454-0.181c-5.048-0.778-9.743-2.279-11.336-5.179c-1.368-2.491-0.473-6.256,2.663-11.19
		l1.418-2.232l-2.34-1.231c-4.509-2.372-7.31-7.006-7.31-12.094c0-7.53,6.126-13.656,13.656-13.656
		c4.724,0,9.048,2.391,11.568,6.397l2.06,3.275l2.062-3.273c2.153-3.417,6.659-5.102,10.059-5.914
		c3.938-0.94,7.374-0.958,7.405-0.959c0.031,0,3.166,0.011,6.987,0.933c3.389,0.818,7.974,2.537,10.575,6.082l2.119,2.887
		l1.907-3.031c2.52-4.005,6.844-6.397,11.568-6.397c7.53,0,13.656,6.126,13.656,13.656C98.494,24.091,95.693,28.726,91.184,31.097z"
		/>
	<path d="M15.815,11.365c-4.778,0-8.666,3.888-8.666,8.666s3.888,8.666,8.666,8.666s8.666-3.888,8.666-8.666
		S20.594,11.365,15.815,11.365z M15.815,23.825c-2.092,0-3.794-1.702-3.794-3.794s1.702-3.794,3.794-3.794s3.794,1.702,3.794,3.794
		S17.907,23.825,15.815,23.825z"/>
	<path d="M87.381,11.365c-4.779,0-8.666,3.888-8.666,8.666s3.888,8.666,8.666,8.666c4.778,0,8.666-3.888,8.666-8.666
		S92.159,11.365,87.381,11.365z M87.381,23.825c-2.092,0-3.794-1.702-3.794-3.794s1.702-3.794,3.794-3.794s3.794,1.702,3.794,3.794
		S89.473,23.825,87.381,23.825z"/>
	<circle cx="43.058" cy="44.528" r="2.435"/>
	<circle cx="60.11" cy="44.528" r="2.435"/>
</g>
<g>
</g>
<g>
</g>
<g>
</g>
<g>
</g>
<g>
</g>
<g>
</g>
<g>
</g>
<g>
</g>
<g>
</g>
<g>
</g>
<g>
</g>
<g>
</g>
<g>
</g>
<g>
</g>
<g>
</g>
</svg>
