<?xml version="1.0" encoding="iso-8859-1"?>
<!-- Generator: Adobe Illustrator 18.0.0, SVG Export Plug-In . SVG Version: 6.00 Build 0)  -->
<!DOCTYPE svg PUBLIC "-//W3C//DTD SVG 1.1//EN" "http://www.w3.org/Graphics/SVG/1.1/DTD/svg11.dtd">
<svg version="1.1" id="Capa_1" xmlns="http://www.w3.org/2000/svg" xmlns:xlink="http://www.w3.org/1999/xlink" x="0px" y="0px"
	 viewBox="0 0 65.288 85.507" style="enable-background:new 0 0 65.288 85.507;" xml:space="preserve">
<path d="M59.812,44.396c0.706-3.898,0.614-8.04-0.224-10.071c-0.713-1.729-1.997-1.854-2.515-1.828
	c-0.818,0.042-1.915,0.495-2.489,2.421c-0.324,1.087-1.068,2.227-2.002,3.321c-0.462-0.412-0.934-0.811-1.421-1.193
	c0.831-4.537,1.739-8.305,2.617-10.87c2.92-0.359,5.619-1.681,7.717-3.804c2.445-2.475,3.792-5.754,3.792-9.233
	C65.288,5.894,59.394,0,52.15,0S39.012,5.894,39.012,13.138c0,3.961,1.763,7.653,4.779,10.137l-1.955,8.809
	c-2.959-0.954-6.041-1.436-9.192-1.436c-3.151,0-6.233,0.482-9.192,1.436l-1.955-8.809c3.016-2.484,4.779-6.176,4.779-10.137
	C26.276,5.894,20.382,0,13.138,0C5.894,0,0,5.894,0,13.138c0,3.479,1.347,6.758,3.792,9.233c2.098,2.123,4.797,3.445,7.717,3.804
	c0.878,2.564,1.786,6.333,2.617,10.87c-0.486,0.382-0.959,0.782-1.421,1.193c-0.934-1.094-1.678-2.234-2.002-3.321
	c-0.574-1.925-1.67-2.379-2.489-2.421C7.697,32.47,6.413,32.596,5.7,34.324c-0.838,2.032-0.93,6.173-0.224,10.071
	C5.612,45.147,6.03,45.96,6.26,46.81c-2.208,4.242-3.137,9.023-3.137,13.836v24.862h29.521h30.479V60.646
	c0-4.812-1.408-9.594-3.616-13.836C59.738,45.96,59.676,45.147,59.812,44.396z M56.323,17.907c-1.184,0-2.147-0.963-2.147-2.147
	c0-1.184,0.963-2.147,2.147-2.147c1.184,0,2.147,0.963,2.147,2.147C58.471,16.944,57.507,17.907,56.323,17.907z M52.15,4.161
	c4.125,0,7.609,2.798,8.655,6.595c-0.916-1.158-2.007-2.142-3.271-2.946c-3.176-2.021-6.86-2.506-9.846-2.459
	C49.003,4.595,50.527,4.161,52.15,4.161z M4.483,10.757c1.046-3.798,4.53-6.595,8.655-6.595c1.623,0,3.147,0.433,4.462,1.19
	c-2.986-0.047-6.67,0.438-9.846,2.459C6.489,8.615,5.399,9.599,4.483,10.757z M8.965,17.907c-1.184,0-2.147-0.963-2.147-2.147
	c0-1.184,0.963-2.147,2.147-2.147c1.184,0,2.147,0.963,2.147,2.147C11.112,16.944,10.149,17.907,8.965,17.907z M58.123,81.507
	H32.644H7.123V60.646c0-2.856,0.319-5.699,1.237-8.385c0.973,1.755,2.164,3.467,3.825,4.957l2.74-3.097
	c-0.154-0.138-0.322-0.28-0.468-0.423c-1.919-1.887-3.149-4.201-3.924-6.407c-0.477-1.357-0.791-2.673-0.99-3.823
	c-0.1-0.575-0.178-1.13-0.235-1.662c-0.047-0.444-0.083-0.872-0.106-1.279c0.187,0.231,0.383,0.463,0.588,0.696
	c0.826,0.938,1.8,1.891,2.92,2.855c0.022,0.019,0.044,0.038,0.067,0.057c2.27,1.945,4.315,3.229,4.402,3.283l1.1-1.76l1.106-1.769
	c-0.833-0.522-2.242-1.509-3.694-2.736c0.617-0.537,1.257-1.047,1.922-1.524l1.063-0.761l-0.225-1.288
	c-0.763-4.366-1.994-10.367-3.527-14.166l-0.518-1.284l-1.385-0.018c-0.767-0.01-1.518-0.116-2.24-0.311
	c2.596-0.782,4.493-3.194,4.493-6.042c0-2.331-1.272-4.37-3.158-5.462C15.801,9,19.94,9.626,21.528,9.949
	c0.378,0.991,0.586,2.066,0.586,3.188c0,3.044-1.525,5.857-4.079,7.523l-1.206,0.787l3.614,16.283l2.292-0.953
	c3.144-1.307,6.478-1.97,9.909-1.97c3.431,0,6.765,0.663,9.909,1.97l2.292,0.953l3.614-16.283l-1.206-0.787
	c-2.554-1.667-4.079-4.479-4.079-7.523c0-1.122,0.208-2.197,0.586-3.188c1.588-0.324,5.728-0.949,9.413,0.348
	c-1.886,1.092-3.158,3.131-3.158,5.462c0,2.848,1.897,5.26,4.494,6.042c-0.722,0.195-1.474,0.301-2.24,0.311l-1.385,0.018
	l-0.518,1.284c-1.533,3.799-2.764,9.801-3.527,14.166l-0.225,1.288l1.063,0.761c0.665,0.476,1.305,0.986,1.922,1.524
	c-1.452,1.227-2.862,2.214-3.694,2.736l1.106,1.769l1.1,1.76c0.087-0.054,2.132-1.339,4.402-3.283
	c0.022-0.019,0.044-0.038,0.067-0.057c1.12-0.965,2.094-1.917,2.92-2.855c0.205-0.233,0.402-0.465,0.588-0.696
	c-0.022,0.407-0.057,0.835-0.104,1.279c-0.057,0.532-0.133,1.086-0.232,1.662c-0.199,1.15-0.509,2.466-0.985,3.823
	c-0.775,2.206-1.995,4.52-3.914,6.407c-0.146,0.143-0.294,0.285-0.448,0.423l2.78,3.097c1.661-1.491,2.752-3.202,3.725-4.957
	c0.918,2.686,1.216,5.528,1.216,8.385V81.507z"/>
<g>
</g>
<g>
</g>
<g>
</g>
<g>
</g>
<g>
</g>
<g>
</g>
<g>
</g>
<g>
</g>
<g>
</g>
<g>
</g>
<g>
</g>
<g>
</g>
<g>
</g>
<g>
</g>
<g>
</g>
</svg>
