<?xml version="1.0" encoding="iso-8859-1"?>
<!-- Generator: Adobe Illustrator 16.0.0, SVG Export Plug-In . SVG Version: 6.00 Build 0)  -->
<!DOCTYPE svg PUBLIC "-//W3C//DTD SVG 1.1//EN" "http://www.w3.org/Graphics/SVG/1.1/DTD/svg11.dtd">
<svg version="1.1" id="Capa_1" xmlns="http://www.w3.org/2000/svg" xmlns:xlink="http://www.w3.org/1999/xlink" x="0px" y="0px"
	 width="149.191px" height="149.191px" viewBox="0 0 149.191 149.191" style="enable-background:new 0 0 149.191 149.191;"
	 xml:space="preserve">
<g>
	<path d="M125.099,110.146c0.447-0.322,1.036-0.36,1.524-0.107c0.488,0.256,0.789,0.762,0.78,1.312l-0.179,12.302l-21.163,15.189
		l-43.99-12.568v-11.52c0-0.83,0.39-1.612,1.054-2.114c0.666-0.5,1.525-0.662,2.324-0.434l38.706,11.057
		c1.205,0.342,2.496,0.123,3.513-0.609L125.099,110.146z M130.49,129.763c0-0.915-0.511-1.748-1.318-2.165
		c-0.814-0.415-1.791-0.34-2.532,0.189l-20.575,14.788L61.72,129.596c-0.972-0.285-2.02-0.096-2.831,0.514
		c-0.811,0.606-1.288,1.56-1.288,2.575v2.603l48.464,13.903l24.381-17.259l0.048-0.536v-1.633H130.49z M113.299,94.537
		c2.514,0.78,4.754,2.167,6.745,3.926c0.331-4.602,0.864-11.91,1.229-15.92c0.603-6.578-2.669-10.568-4.749-12.41
		c-0.114,0.768-0.287,1.565-0.584,2.394c-0.716,2.015-1.605,3.527-2.582,4.678c0.632,1.118,1.122,2.646,0.936,4.704
		C114.004,85.063,113.612,90.22,113.299,94.537z M102.82,77.1c3.963,0.301,7.638,0.381,9.815-5.754
		c2.519-7.079-5.217-10.438-5.217-10.438c-6.528-2.401-11.047-7.119-13.424-10.142c-0.44,4.136-1.134,8.325-2.144,12.513
		c-1.243,5.16-2.882,10.05-4.818,14.646C92.323,76.569,99.517,76.849,102.82,77.1z M71.526,100.744
		c0.49-5.396,11.903-8.769,25.494-7.537c13.588,1.234,24.208,6.602,23.721,11.998c-0.493,5.397-11.905,8.769-25.493,7.539
		C81.661,111.509,71.035,106.14,71.526,100.744z M90.393,102.457c-0.114,1.259,2.363,2.509,5.534,2.796
		c3.173,0.288,5.835-0.499,5.948-1.759c0.114-1.259-2.362-2.509-5.533-2.796C93.165,100.41,90.507,101.197,90.393,102.457z
		 M96.105,103.321c0.468,0.043,0.859-0.073,0.88-0.26c0.019-0.188-0.351-0.372-0.823-0.415c-0.472-0.044-0.864,0.072-0.88,0.26
		C95.265,103.092,95.635,103.278,96.105,103.321z M125.353,105.328c0.342-0.267,0.488-0.718,0.364-1.136
		c-0.123-0.417-0.485-0.719-0.924-0.757l-1.938-0.188c0.178,0.703,0.278,1.421,0.212,2.174c-0.068,0.753-0.267,1.477-0.584,2.16
		L125.353,105.328z M65.953,104.662c-0.736,0.557-1.093,1.485-0.927,2.389c0.165,0.905,0.829,1.645,1.714,1.902l34.61,10.215
		c2.883,0.851,5.999,0.253,8.367-1.602l5.721-4.479c-3.777,1.435-8.782,2.239-14.665,2.239c-1.882,0-3.812-0.089-5.734-0.26
		c-12.145-1.106-24.652-5.939-25.769-12.927L65.953,104.662z M86.175,61.915c7.163-29.716-1.574-57.316-19.515-61.642
		c-0.302-0.073-0.605-0.14-0.907-0.196C64.357-0.195,62.919,0.268,61.94,1.3c-0.976,1.035-1.355,2.497-1.007,3.878
		c2.113,8.365,7.108,21.992,18.196,29.807c1.052,0.743,1.309,2.2,0.561,3.259c-0.451,0.642-1.177,0.99-1.911,0.99
		c-0.463,0-0.932-0.137-1.34-0.426c-12.002-8.46-17.461-22.502-19.843-31.595c-0.448-1.712-1.678-3.114-3.317-3.779
		c-1.64-0.666-3.499-0.526-5.015,0.388c-3.673,2.207-7.223,5.251-10.517,8.993c-1.784,2.015-1.873,5.007-0.221,7.14
		C42.454,26.319,51.066,35,63.792,39.511c1.217,0.432,1.852,1.766,1.42,2.981c-0.339,0.955-1.241,1.558-2.2,1.558
		c-0.26,0-0.523-0.048-0.78-0.138c-12.02-4.259-20.558-11.775-26.072-18.176c-1.019-1.182-2.559-1.779-4.107-1.598
		c-1.547,0.183-2.907,1.119-3.622,2.507c-3.027,5.86-5.512,12.464-7.234,19.6c-0.464,1.931,0.596,3.894,2.464,4.563
		c5.459,1.958,16.01,4.602,32.771,4.334c1.367-0.017,2.353,1.008,2.374,2.296c0.022,1.289-1.009,2.352-2.298,2.375
		c-0.83,0.012-1.649,0.019-2.448,0.019c-14.046,0-23.683-1.972-29.667-3.836c-1.204-0.376-2.512-0.185-3.558,0.521
		c-1.049,0.7-1.719,1.841-1.827,3.092c-0.698,8.077-0.205,15.721,1.323,22.467c0.292,1.291,1.179,2.362,2.389,2.888
		c1.209,0.531,2.602,0.454,3.747-0.208c5.958-3.438,14.953-7.356,27.651-9.87c1.273-0.252,2.494,0.575,2.744,1.839
		c0.25,1.266-0.573,2.493-1.838,2.748c-12.707,2.512-21.482,6.524-27.016,9.836c-1.249,0.744-2.142,1.969-2.471,3.386
		c-0.331,1.414-0.074,2.908,0.712,4.136c2.369,3.668,5.247,6.605,8.572,8.61c1.222,0.734,2.686,0.956,4.074,0.611
		c1.385-0.342,2.574-1.227,3.308-2.454c3.087-5.162,8.269-11.255,16.904-16.182c1.124-0.637,2.547-0.244,3.187,0.873
		c0.64,1.118,0.25,2.544-0.871,3.185c-6.499,3.704-10.817,8.148-13.669,12.186c-0.649,0.922-0.664,2.138-0.04,3.07
		s1.756,1.387,2.855,1.136C65.569,104.477,80.301,86.27,86.175,61.915z"/>
</g>
<g>
</g>
<g>
</g>
<g>
</g>
<g>
</g>
<g>
</g>
<g>
</g>
<g>
</g>
<g>
</g>
<g>
</g>
<g>
</g>
<g>
</g>
<g>
</g>
<g>
</g>
<g>
</g>
<g>
</g>
</svg>
