<?xml version="1.0" encoding="iso-8859-1"?>
<!-- Generator: Adobe Illustrator 19.0.0, SVG Export Plug-In . SVG Version: 6.00 Build 0)  -->
<svg version="1.1" id="Capa_1" xmlns="http://www.w3.org/2000/svg" xmlns:xlink="http://www.w3.org/1999/xlink" x="0px" y="0px"
	 viewBox="0 0 463 463" style="enable-background:new 0 0 463 463;" xml:space="preserve">
<g>
	<path d="M332.987,339.152l-46.3-289.95c-0.035-0.218-0.083-0.43-0.136-0.64C283.123,21.223,259.752,0,231.5,0
		c-28.251,0-51.623,21.223-55.051,48.56c-0.053,0.21-0.101,0.423-0.136,0.641l-46.3,289.95C128.696,345.733,128,352.537,128,359.5
		c0,57.07,46.43,103.5,103.5,103.5S335,416.57,335,359.5C335,352.537,334.304,345.733,332.987,339.152z M231.5,15
		c22.332,0,40.5,18.168,40.5,40.5S253.832,96,231.5,96S191,77.832,191,55.5S209.168,15,231.5,15z M185.536,86.572
		C195.525,101.302,212.401,111,231.5,111s35.975-9.698,45.964-24.428l32.89,205.968C291.354,270.2,263.056,256,231.5,256
		s-59.854,14.2-78.853,36.54L185.536,86.572z M231.5,448c-48.799,0-88.5-39.701-88.5-88.5c0-3.564,0.218-7.077,0.629-10.532
		c0.009-0.049,0.022-0.095,0.03-0.145l1.128-7.065C153.026,301.432,188.775,271,231.5,271s78.474,30.432,86.713,70.759l1.128,7.065
		c0.008,0.049,0.021,0.096,0.03,0.145c0.411,3.455,0.629,6.968,0.629,10.532C320,408.299,280.299,448,231.5,448z"/>
	<path d="M282.058,308.942c-0.208-0.208-0.427-0.397-0.651-0.575C268.512,295.778,250.901,288,231.5,288
		s-37.012,7.779-49.907,20.367c-0.225,0.178-0.444,0.367-0.651,0.575c-0.208,0.208-0.397,0.427-0.575,0.652
		C167.778,322.488,160,340.099,160,359.5c0,19.401,7.778,37.012,20.367,49.906c0.178,0.225,0.367,0.444,0.575,0.652
		c0.208,0.208,0.427,0.397,0.651,0.575C194.488,423.221,212.099,431,231.5,431s37.012-7.778,49.907-20.367
		c0.225-0.178,0.444-0.367,0.651-0.575c0.208-0.208,0.397-0.427,0.575-0.652C295.222,396.512,303,378.901,303,359.5
		c0-19.401-7.778-37.012-20.367-49.906C282.455,309.369,282.266,309.15,282.058,308.942z M279.5,367h7.987
		c-1.33,9.977-5.266,19.137-11.11,26.771l-5.633-5.633c-2.929-2.929-7.678-2.929-10.606,0c-2.929,2.929-2.929,7.678,0,10.606
		l5.633,5.633c-7.634,5.844-16.794,9.78-26.771,11.11V407.5c0-4.142-3.358-7.5-7.5-7.5s-7.5,3.358-7.5,7.5v7.987
		c-9.977-1.33-19.137-5.266-26.771-11.11l5.633-5.633c2.929-2.929,2.929-7.678,0-10.606c-2.929-2.929-7.678-2.929-10.606,0
		l-5.633,5.633c-5.844-7.634-9.78-16.794-11.11-26.771h7.987c4.142,0,7.5-3.358,7.5-7.5s-3.358-7.5-7.5-7.5h-7.987
		c1.33-9.977,5.266-19.137,11.11-26.771l5.633,5.633c1.464,1.464,3.384,2.197,5.303,2.197s3.839-0.732,5.303-2.197
		c2.929-2.929,2.929-7.678,0-10.606l-5.633-5.633c7.634-5.844,16.794-9.78,26.771-11.11v7.987c0,4.142,3.358,7.5,7.5,7.5
		s7.5-3.358,7.5-7.5v-7.987c9.977,1.33,19.137,5.266,26.771,11.11l-5.633,5.633c-2.929,2.929-2.929,7.678,0,10.606
		c1.464,1.464,3.384,2.197,5.303,2.197s3.839-0.732,5.303-2.197l5.633-5.633c5.844,7.634,9.78,16.794,11.11,26.771H279.5
		c-4.142,0-7.5,3.358-7.5,7.5S275.358,367,279.5,367z"/>
	<path d="M231.5,336c-12.958,0-23.5,10.542-23.5,23.5s10.542,23.5,23.5,23.5s23.5-10.542,23.5-23.5S244.458,336,231.5,336z
		 M231.5,368c-4.687,0-8.5-3.813-8.5-8.5s3.813-8.5,8.5-8.5s8.5,3.813,8.5,8.5S236.187,368,231.5,368z"/>
	<path d="M231.5,79c12.958,0,23.5-10.542,23.5-23.5S244.458,32,231.5,32S208,42.542,208,55.5S218.542,79,231.5,79z M231.5,47
		c4.687,0,8.5,3.813,8.5,8.5s-3.813,8.5-8.5,8.5s-8.5-3.813-8.5-8.5S226.813,47,231.5,47z"/>
</g>
<g>
</g>
<g>
</g>
<g>
</g>
<g>
</g>
<g>
</g>
<g>
</g>
<g>
</g>
<g>
</g>
<g>
</g>
<g>
</g>
<g>
</g>
<g>
</g>
<g>
</g>
<g>
</g>
<g>
</g>
</svg>
