<?xml version="1.0" encoding="iso-8859-1"?>
<!-- Generator: Adobe Illustrator 17.1.0, SVG Export Plug-In . SVG Version: 6.00 Build 0)  -->
<!DOCTYPE svg PUBLIC "-//W3C//DTD SVG 1.1//EN" "http://www.w3.org/Graphics/SVG/1.1/DTD/svg11.dtd">
<svg version="1.1" id="Layer_1" xmlns="http://www.w3.org/2000/svg" xmlns:xlink="http://www.w3.org/1999/xlink" x="0px" y="0px"
	 viewBox="0 0 800 800" style="enable-background:new 0 0 800 800;" xml:space="preserve">
<path d="M707.611,653.881V530.518c0-26.506-21.488-47.994-47.994-47.994h-12.545V32.154c0-4.029-2.022-7.788-5.383-10.01
	L611.225,2.009c-7.977-5.272-18.614,0.448-18.614,10.01v144.643l-9.078-24.489c-12.21-32.936-43.626-54.795-78.752-54.795H295.035
	c-35.333,0-66.888,22.113-78.946,55.325l-8.699,23.959V12.019c0-9.561-10.637-15.282-18.614-10.01L158.31,22.144
	c-3.361,2.221-5.383,5.981-5.383,10.01v450.37h-12.545c-26.506,0-47.994,21.488-47.994,47.994v123.363H71.941
	c-6.627,0-11.998,5.372-11.998,11.998v66.331c0,6.627,5.372,11.998,11.998,11.998h51.762v31.794
	c0,13.253,10.744,23.997,23.997,23.997h63.588c13.253,0,23.997-10.744,23.997-23.997v-31.794h329.43v31.794
	c0,13.253,10.744,23.997,23.997,23.997H652.3c13.253,0,23.997-10.744,23.997-23.997v-31.794h51.762
	c6.627,0,11.998-5.372,11.998-11.998V665.88c0-6.627-5.372-11.998-11.998-11.998H707.611z M223.286,223.496h353.427v118.223H223.286
	V223.496z M215.068,620.303h-40.989c-12.524,0-22.677-10.153-22.677-22.677v-0.572c0-12.524,10.153-22.677,22.677-22.677h40.989
	c12.524,0,22.677,10.153,22.677,22.677v0.572C237.745,610.15,227.592,620.303,215.068,620.303z M481.566,626.99H318.434
	c-13.253,0-23.997-10.744-23.997-23.997V450.949c0-13.253,10.744-23.997,23.997-23.997h163.132
	c13.253,0,23.997,10.744,23.997,23.997v152.044C505.563,616.246,494.819,626.99,481.566,626.99z M625.921,620.303h-40.989
	c-12.524,0-22.677-10.153-22.677-22.677v-0.572c0-12.524,10.153-22.677,22.677-22.677h40.989c12.524,0,22.677,10.153,22.677,22.677
	v0.572C648.598,610.15,638.445,620.303,625.921,620.303z M477.918,514.772h-156.22c-6.56,0-11.878-5.318-11.878-11.879v-0.24
	c0-6.56,5.318-11.878,11.878-11.878h156.22c6.56,0,11.878,5.318,11.878,11.878v0.24
	C489.796,509.454,484.478,514.772,477.918,514.772z M477.918,466.778h-156.22c-6.56,0-11.878-5.318-11.878-11.878v-0.24
	c0-6.56,5.318-11.878,11.878-11.878h156.22c6.56,0,11.878,5.318,11.878,11.878v0.24C489.796,461.46,484.478,466.778,477.918,466.778
	z M477.918,610.76h-156.22c-6.56,0-11.878-5.318-11.878-11.878v-0.24c0-6.56,5.318-11.878,11.878-11.878h156.22
	c6.56,0,11.878,5.318,11.878,11.878v0.24C489.796,605.442,484.478,610.76,477.918,610.76z M477.918,562.766h-156.22
	c-6.56,0-11.878-5.318-11.878-11.878v-0.24c0-6.56,5.318-11.878,11.878-11.878h156.22c6.56,0,11.878,5.318,11.878,11.878v0.24
	C489.796,557.448,484.478,562.766,477.918,562.766z"/>
</svg>
