<?xml version="1.0" encoding="iso-8859-1"?>
<!-- Generator: Adobe Illustrator 19.0.0, SVG Export Plug-In . SVG Version: 6.00 Build 0)  -->
<svg version="1.1" id="Capa_1" xmlns="http://www.w3.org/2000/svg" xmlns:xlink="http://www.w3.org/1999/xlink" x="0px" y="0px"
	 viewBox="0 0 58 58" style="enable-background:new 0 0 58 58;" xml:space="preserve">
<g>
	<g>
		<path d="M8.5,20.5C3.813,20.5,0,24.313,0,29s3.813,8.5,8.5,8.5S17,33.687,17,29S13.186,20.5,8.5,20.5z M8.5,35.5
			C4.916,35.5,2,32.584,2,29s2.916-6.5,6.5-6.5S15,25.416,15,29S12.084,35.5,8.5,35.5z"/>
		<path d="M33,22.5c-3.859,0-7,3.14-7,7s3.141,7,7,7s7-3.14,7-7S36.859,22.5,33,22.5z M33,34.5c-2.757,0-5-2.243-5-5s2.243-5,5-5
			s5,2.243,5,5S35.757,34.5,33,34.5z"/>
		<path d="M53,24.5c-2.757,0-5,2.243-5,5s2.243,5,5,5s5-2.243,5-5S55.757,24.5,53,24.5z M53,32.5c-1.654,0-3-1.346-3-3s1.346-3,3-3
			s3,1.346,3,3S54.654,32.5,53,32.5z"/>
	</g>
</g>
<g>
</g>
<g>
</g>
<g>
</g>
<g>
</g>
<g>
</g>
<g>
</g>
<g>
</g>
<g>
</g>
<g>
</g>
<g>
</g>
<g>
</g>
<g>
</g>
<g>
</g>
<g>
</g>
<g>
</g>
</svg>
