<?xml version="1.0" encoding="iso-8859-1"?>
<!-- Generator: Adobe Illustrator 19.0.0, SVG Export Plug-In . SVG Version: 6.00 Build 0)  -->
<svg version="1.1" id="Layer_1" xmlns="http://www.w3.org/2000/svg" xmlns:xlink="http://www.w3.org/1999/xlink" x="0px" y="0px"
	 viewBox="0 0 370.001 370.001" style="enable-background:new 0 0 370.001 370.001;" xml:space="preserve">
<g id="XMLID_505_">
	<g>
		<g>
			<path d="M251.007,126.471c1.419-17.67-0.234-34.938-6.002-46.471c-10.644-21.288-26.953-36.911-39.882-46.869
				c0.631,30.333,4.267,48.775,21.063,69.145C230.428,107.421,241.422,117.793,251.007,126.471z"/>
			<path d="M247.36,150c0,0-27.608-24.089-36.605-35c-23.5-28.5-25.75-55-25.75-95c0-20-27.645-20-27.645-20
				s-0.628,13.025-2.355,30.983c-1.98,20.585-6.282,47.653-27.645,69.017c-30.977,30.976-7.983,55.95,3.97,65.645
				c-25.232,29.592-1.588,52.874,9.074,61.121c-23.92,29.328-0.087,52.286,10.295,60.228c-12.528,18.917,3.684,36.891,15.022,46.267
				c2.325,21.176,10.074,36.74,19.283,36.74c9.719,0,17.814-17.331,19.621-40.303l0.379,0.303
				c24.259-18.193,22.157-40.064,16.747-54.461c27.86-20.326,22.692-43.928,16.877-56.521C276.701,189.134,247.36,150,247.36,150z"
				/>
		</g>
	</g>
</g>
<g>
</g>
<g>
</g>
<g>
</g>
<g>
</g>
<g>
</g>
<g>
</g>
<g>
</g>
<g>
</g>
<g>
</g>
<g>
</g>
<g>
</g>
<g>
</g>
<g>
</g>
<g>
</g>
<g>
</g>
</svg>
