<?xml version="1.0" encoding="utf-8"?>
<!-- Generator: Adobe Illustrator 17.0.0, SVG Export Plug-In . SVG Version: 6.00 Build 0)  -->
<!DOCTYPE svg PUBLIC "-//W3C//DTD SVG 1.1//EN" "http://www.w3.org/Graphics/SVG/1.1/DTD/svg11.dtd">
<svg version="1.1" id="Capa_1" xmlns="http://www.w3.org/2000/svg" xmlns:xlink="http://www.w3.org/1999/xlink" x="0px" y="0px"
	 width="200px" height="200px" viewBox="0 0 200 200" enable-background="new 0 0 200 200" preserveAspectRatio="fit">
<g>
	<path fill="#1D1D1B" d="M79.307,61.094c-8.687,0.664-11.334,10.281-9.579,17.492c0.515,2.118,3.851,1.665,3.79-0.513
		c-0.127-4.521,0.757-10.502,6.043-11.578c5.269-1.072,6.653,6.805,6.77,10.236c0.119,3.48,5.423,3.503,5.417,0
		C91.734,69.483,87.949,60.433,79.307,61.094z"/>
	<path fill="#1D1D1B" d="M125.868,65.455c-1.936-2.902-5.276-4.853-8.703-5.357c-3.68-0.542-7.377,0.403-9.619,3.549
		c-2.843,3.991-1.708,9.33-0.097,13.559c0.811,2.13,3.953,1.334,3.448-0.95c-1.022-4.625-0.858-11.534,5.107-10.609
		c1.866,0.289,3.829,1.249,4.888,2.716c1.375,1.905,0.458,3.885,0.913,6.271c0.259,1.36,2.122,2.082,3.251,1.322
		C128.557,73.601,127.961,68.591,125.868,65.455z"/>
	<path fill="#1D1D1B" d="M109.994,11.746c-1.676,0.332-1.909,2.815-0.469,3.591c0.21,0.113,0.436,0.212,0.656,0.315
		c-3.304,1.068-5.99,3.774-6.792,7.212c-1.209,5.18,2.749,8.458,7.651,8.289c5.504-0.19,11.66-3.795,11.483-9.896
		C122.352,15.379,115.51,10.652,109.994,11.746z M111.039,26.314c-6.237,0.652-2.272-7.638,1.13-8.863
		c0.331-0.119,0.531-0.38,0.658-0.677c2.018,0.847,3.907,1.869,4.609,4.167C118.489,24.388,113.51,26.056,111.039,26.314z"/>
	<path fill="#1D1D1B" d="M73.816,17.354c-0.815,0.18-1.112,0.798-1.145,1.444c-6.001,8.683-2.771,15.75,7.781,9.722
		C92.069,21.882,83.799,15.147,73.816,17.354z M75.204,20.834C83.343,21.862,72.17,30.807,75.204,20.834L75.204,20.834z"/>
	<path fill="#1D1D1B" d="M115.758,131.768c-0.023-1.026-0.753-2.309-1.877-2.466c-9.564-1.327-18.7-2.331-28.174,0.121
		c-1.036,0.268-1.798,1.278-1.785,2.345c0.068,5.841,0.469,11.64,0.233,17.45c-0.161,0.004-0.326-0.012-0.487-0.006
		c-3.114,0.123-3.562,4.279-0.715,5.285c0.262,0.093,0.552,0.124,0.819,0.205c-0.013,1.162,1.602,1.418,2.219,0.554
		c3.791,0.702,7.92,0.592,11.636,0.723c5.621,0.197,11.297,0.311,16.916,0.042c1.465-0.07,2.834-1.21,2.775-2.775
		C117.048,146.067,115.923,138.954,115.758,131.768z M99.582,150.18c-4.033-0.108-8.163-0.73-12.226-0.926
		c0.836-5.119,1.229-10.331,1.364-15.496c7.42-1.508,14.556-0.845,22.014,0.221c0.207,5.482,0.773,10.939,0.951,16.421
		C107.652,150.29,103.614,150.288,99.582,150.18z"/>
	<path fill="#1D1D1B" d="M174.95,108.809c-4.187-0.213-7.921-1.46-11.952-1.526c-0.006-2.831-0.011-5.661-0.044-8.492
		c-0.022-1.884,0.328-4.893-0.88-6.67c-0.161-0.44-0.462-0.748-0.834-0.953c-0.013-0.008-0.015-0.024-0.028-0.032
		c0.005,0.008,0.009,0.016,0.014,0.024c-0.641-0.345-1.442-0.345-2.083,0c0.005-0.008,0.01-0.016,0.014-0.024
		c-0.013,0.008-0.015,0.024-0.028,0.032c-0.367,0.202-0.666,0.501-0.829,0.931c-5.733,2.839-10.724,7.564-11.451,14.204
		c-0.192,1.751-0.024,3.48,0.372,5.158c-3.231,1.151-6.397,3.851-9.052,5.576c-0.465,0.302-0.913,0.63-1.375,0.937
		c-0.429-0.772-1.664-0.709-1.727,0.371c-0.016,0.276,0.008,0.533,0.002,0.804c-2.828,1.931-5.612,3.923-8.29,6.061
		c-0.114,0.091-0.173,0.201-0.248,0.306c-4.783-5.13-10.826-8.944-18.013-10.772c0.194-2.303,0.503-4.776,0.465-7.157
		c10.91,0.87,23.566,0.604,27.299-6.781c7.674-15.183,4.633-34.527,4.428-50.922c-0.023-1.877-1.506-3.274-3.345-3.345
		c-10.52-0.409-21.024-0.099-31.526,0.346c0.177-3.201,0.319-6.405,0.384-9.604c14.112,4.891,33.454-7.084,26.162-23.362
		c-6.657-14.862-29.322-10.504-36.863,1.551c-1.415-2.857-3.949-5.584-6.063-7.325c-2.615-2.153-5.666-3.445-9.059-3.62
		c-6.31-0.325-11.994,4.019-15.602,8.801c-3.619,4.797-6.008,10.905-4.738,16.952c1.432,6.819,8.597,10.042,15.025,9.455
		c3.59-0.327,6.989-1.175,10.371-2.258c0.151,2.673,0.11,5.349-0.721,7.934c-0.592,1.843,2.126,2.922,3.073,1.296
		c2.01-3.448,1.982-7.715,2.298-11.588c0.213-2.611-3.486-2.998-4.525-1.213c-6.053,1.132-14.769,2.174-18.927-2.407
		c-2.644-2.912-1.37-8.543,0.655-12.494c2.279-4.448,6.436-8.427,11.462-9.354c2.316-0.427,4.711,0.406,6.685,1.693
		c1.376,0.898,2.578,2.204,3.569,3.503c1.362,1.785,2.164,4.226,3.834,5.716c0.75,0.669,1.869,0.676,2.701,0.228
		c0.689,0.104,1.409-0.119,1.783-0.851c4.668-9.152,20.042-13.82,28.148-6.703c5.712,5.015,2.602,13.41-2.683,17.037
		c-4.737,3.252-11.128,3.449-16.228,1.058c-0.961-0.451-1.866-0.322-2.612,0.075c-1.282-0.074-2.618,0.702-2.638,2.371
		c-0.052,4.418,0.21,8.858,0.454,13.286c-14.084,0.634-28.166,1.385-42.274,0.889c-3.158-0.111-3.932,3.462-2.386,5.377
		c-6.548,12.228-3.175,31.124,2.967,42.67c5.415,10.179,20.964,9.636,31.614,9.997c-2.336,1.763-1.415,5.621-0.217,8.185
		c-7.819,1.497-14.463,5.516-19.634,11.008c-1.033-1.571-3.112-2.281-4.678-3.19c-2.606-1.512-5.124-3.177-7.679-4.774
		c-0.634-0.397-3.962-2.642-6.082-2.88c1.345-2.871,2.006-5.962,1.215-9.045c-2.154-8.396-14.089-7.95-20.626-7.225
		c-1.807,0.2-3.223,1.648-2.718,3.569c1.838,6.993-0.435,12.716-7.464,15.193c-2.701,0.951-2.461,4.452-0.653,5.556
		c-0.511,5.163,1.219,10.453,7.614,10.066c4.377-0.265,8.567-2.701,12.147-5.624c5.607,4.136,16.704,11.705,20.767,10.826
		c-3.163,7.33-4.458,15.575-3.431,23.639c0.14,1.099,0.904,1.665,1.709,1.783c-1.246,2.029-0.574,5.119-0.433,7.39
		c0.098,1.585,0.266,3.171,0.533,4.736c-13.148-0.284-27.087,1.95-27.035,16.965c0.008,2.092,1.893,3.207,3.788,2.885
		c2.159-0.367,4.327-0.581,6.494-0.791c0.003,0.197-0.021,0.392-0.014,0.59c0.037,1.013,1.481,0.994,1.557,0
		c0.02-0.262,0.088-0.529,0.118-0.792c2.858-0.231,5.721-0.362,8.587-0.422c0.174,1.493,2.425,1.484,2.533-0.055
		c1.892-0.016,3.784-0.014,5.678,0.007c0.139,1.312,2.016,1.317,2.184,0.025c2.33,0.035,4.66,0.079,6.989,0.117
		c0.017,0.043,0.024,0.088,0.041,0.132c0.525,1.337,2.219,1.057,2.477-0.097c1.391,0.017,2.782,0.034,4.172,0.034
		c1.919,0.001,3.403-1.903,2.869-3.766c-2.293-8.006-2.453-16.233-2.874-24.477c8.134,0.592,16.267,1.084,24.463,1.212
		c5.228,0.082,11.706,0.373,17.985-0.157c-0.27,8.081-0.514,16.178,0.479,24.213c0.182,1.475,1.098,2.711,2.718,2.718
		c12.081,0.054,24.162,0.106,36.244,0.145c1.311,0.004,2.372-0.884,2.76-2.102c5.577-17.499-12.729-18.211-26.749-17.711
		c-0.415-1.876-0.618-3.737-0.655-5.664c-0.035-1.828,0.205-3.652-0.161-5.436c0.58-0.32,1.177-0.619,1.713-0.99
		c1.104-0.764,1.184-2.311,0.459-3.227c0.142-0.369,0.214-0.798,0.188-1.292c-0.318-6.358-1.685-12.472-3.952-18.033
		c3.48-1.536,7.303-3.407,10.942-5.592c0.051,0.009,0.104,0.042,0.155,0.049c1.345,0.189,2.191-0.648,2.354-1.64
		c3.386-2.252,6.494-4.794,8.802-7.675c3.071,1.63,6.527,2.431,10.041,1.779c6.422-1.192,9.375-8.034,10.246-13.778
		C177.954,110.525,176.937,108.91,174.95,108.809z M45.723,187.824c-0.014,0.126-0.022,0.251-0.036,0.378
		c-1.433,0.134-2.866,0.243-4.297,0.441c0.685-2.774,2.408-4.624,4.744-5.863C45.961,184.455,45.902,186.15,45.723,187.824z
		 M55.279,187.612c-2.391,0.059-4.78,0.168-7.166,0.341c0.419-2.073,0.662-4.145,0.44-6.195c2.089-0.666,4.477-1.013,6.993-1.156
		C55.197,182.849,55.18,185.225,55.279,187.612z M58.368,187.542c0.098-2.39,0.08-4.769-0.279-7.017
		c1.76-0.016,3.54,0.016,5.306,0.109c-0.015,1.404,0.077,2.82,0.103,4.209c0.017,0.902,0.052,1.804,0.077,2.706
		C61.838,187.53,60.102,187.527,58.368,187.542z M156.305,181.681c2.089,1.285,3.275,3.259,2.884,6.297
		c-1.398,0.005-2.796,0.011-4.193,0.017C155.723,186.073,156.257,183.799,156.305,181.681z M152.602,180.231
		c0.278,0.065,0.532,0.15,0.798,0.225c-0.023,0.943,0.079,1.9,0.1,2.865c0.036,1.592-0.144,3.154-0.528,4.682
		c-0.412,0.002-0.824,0.003-1.235,0.005C152.243,185.459,152.586,182.807,152.602,180.231z M145.492,183.65
		c0.058-1.371,0.183-2.769,0.171-4.153c1.1,0.012,2.168,0.069,3.21,0.155c-0.152,2.771-0.057,5.575-0.227,8.367
		c-1.113,0.005-2.225,0.009-3.337,0.014C145.37,186.572,145.431,185.111,145.492,183.65z M139.982,179.645
		c0.829-0.052,1.669-0.08,2.505-0.112c-0.009,1.373,0.114,2.757,0.171,4.117c0.061,1.464,0.123,2.929,0.185,4.393
		c-1.376,0.006-2.753,0.011-4.129,0.017C139.542,185.267,139.757,182.475,139.982,179.645z M137.272,179.841
		c-0.021,2.695-0.393,5.394-1.155,7.963c-0.032,0.106,0.038,0.169,0.031,0.267c-0.105,0-0.211,0.001-0.316,0.001
		c0.162-2.694,0.115-5.568-0.684-8.046C135.838,179.963,136.549,179.901,137.272,179.841z M106.105,100.082
		c0.151-1.513,0.207-3.039,0.285-4.558c0.03-0.573,0.074-1.146,0.115-1.72c3.98,0.175,8.284,0.236,12.415-0.104
		c0.198,1.223,0.567,2.47,0.773,3.489c0.205,1.02,0.473,2.013,0.724,3.013C115.671,100.535,110.835,100.288,106.105,100.082z
		 M124.365,99.709c-0.021-0.848-0.082-1.697-0.155-2.561c-0.107-1.261-0.093-2.719-0.25-4.106c3.501-0.68,6.684-1.809,9.151-3.661
		c0.064-0.048,0.073-0.123,0.131-0.175C132.205,94.192,129.884,98.444,124.365,99.709z M61.714,54.565
		c24.126,0.977,48.223-1.988,72.366-1.396c0.17,9.04,0.509,18.051,0.097,27.101c-0.089,1.958-0.209,4.01-0.452,6.025
		c-0.34-0.555-0.86-1.006-1.731-1.037c-10.957-0.397-22.347,2.451-33.559,2.31c-11.924-0.149-23.885-0.744-35.761-1.856
		C59.222,75.72,59.396,61.909,61.714,54.565z M94.646,106.135c0.052,0.003,0.11,0.005,0.161,0.009
		c2.244,0.157,5.489,0.581,9.181,0.977c-0.086,2.243,0.192,4.591,0.402,6.814c-2.339-0.329-4.753-0.515-7.297-0.429
		c-0.942,0.032-1.845,0.161-2.76,0.262c-0.242-0.711-0.442-1.394-0.536-2.153c-0.041-0.447-0.053-0.895-0.035-1.344
		c0.166-0.385,0.182-0.602,0.082-0.69C95.33,108.984,95.408,107.203,94.646,106.135z M72.945,97.309
		c-3.653-0.813-6.399-3.596-8.423-7.388c3.074,0.464,6.148,0.895,9.225,1.297c0.016,1.043,0.173,2.106,0.286,3.171
		c0.116,1.088,0.308,2.148,0.547,3.197C74.042,97.479,73.478,97.428,72.945,97.309z M85.767,99.02
		c-0.004,0.011-0.001,0.021-0.005,0.032c-2.668-0.231-5.323-0.513-7.928-0.918c-0.22-1.545-0.365-3.097-0.386-4.675
		c-0.008-0.618,0.011-1.209,0.022-1.791c3.033,0.365,6.072,0.673,9.114,0.949c0.015,0.354,0.032,0.711,0.035,1.079
		C86.631,95.531,86.42,97.299,85.767,99.02z M89.986,99.36c0.778-1.82,1.47-4.19,1.603-6.375c2.279,0.16,4.556,0.342,6.846,0.427
		c0.829,0.031,1.766,0.081,2.683,0.128c0.024,0.382,0.038,0.754,0.058,1.144c0.089,1.728,0.148,3.468,0.313,5.192
		C97.684,99.729,93.861,99.603,89.986,99.36z M31.924,127.754c-4.303,1.439-5.623-1.852-5.97-5.48
		c8.357-3.356,12.327-10.424,11.342-18.882c4.515-0.362,10.782-0.351,11.986,3.381c1.205,3.736-2.664,8.927-5.023,11.74
		C41.012,122.386,36.789,126.128,31.924,127.754z M45.074,124.968c0.878-0.814,1.722-1.634,2.49-2.438
		c1.633-1.712,3.307-3.748,4.658-5.967c0.265,0.189,0.56,0.295,0.865,0.235c-0.349,0.019-0.496-0.183,0.215,0.615
		c0.582,0.653,1.303,1.126,2.003,1.644c0.98,0.723,1.943,1.471,2.908,2.214c-1.716,2.415-3.037,5.265-4.422,7.923
		C50.838,127.886,47.891,126.525,45.074,124.968z M58.47,131.241c-0.535-0.228-1.08-0.478-1.619-0.709
		c0.673-0.958,1.358-1.908,2.011-2.88c0.848-1.263,1.79-2.537,2.632-3.847c2.043,1.684,4.997,4.277,7.586,4.65
		c-1.518,1.993-2.897,4.103-4.058,6.348C64.038,132.833,59.982,131.885,58.47,131.241z M66.177,187.592
		c0.024-0.916,0.061-1.832,0.078-2.749c0.025-1.328,0.116-2.681,0.111-4.025c1.271,0.088,2.516,0.182,3.702,0.268
		c0.105,1.965,0.713,3.931,1.089,5.85c0.05,0.254,0.112,0.499,0.163,0.752C69.604,187.649,67.89,187.621,66.177,187.592z
		 M74.849,187.765c-0.189-2.239-0.492-4.441-1.158-6.451c0.751,0.034,1.468,0.057,2.129,0.058c0.015,2.131,0.117,4.268,0.367,6.422
		C75.74,187.785,75.295,187.774,74.849,187.765z M75.958,176.059c-2.869-0.201-6.237-0.501-9.776-0.696
		c-0.215-1.622-0.355-3.255-0.416-4.89c-0.069-1.822,0.298-4.102-0.151-5.988c3.752,0.295,7.5,0.59,11.242,0.874
		C76.507,168.966,76.153,172.519,75.958,176.059z M104.1,160.896c-13.352,0.076-26.592-0.716-39.94,0.044
		c1.837-20.181,10.339-39.337,32.933-41.448c22.421-2.095,33.989,18.427,35.866,37.781c0.033,0.339,0.155,0.612,0.266,0.893
		C123.548,158.965,113.986,160.839,104.1,160.896z M127.682,188.104c-0.334-2.583-0.605-5.163-0.854-7.742
		c0.342,0.123,0.705,0.221,1.139,0.215c1.144-0.018,2.659-0.141,4.367-0.295c0.224,1.158,0.518,2.303,0.728,3.475
		c0.254,1.419,0.377,2.871,0.472,4.324C131.583,188.089,129.633,188.096,127.682,188.104z M127.967,174.24
		c-0.668,0.006-1.186,0.221-1.636,0.509c-0.211-2.846-0.376-5.701-0.495-8.569c2.286-0.338,4.5-0.825,6.575-1.503
		c-0.165,3.096,0.659,6.526,1.641,9.346C131.778,174.126,129.687,174.225,127.967,174.24z M133.9,136.464
		c-1.476-3.065-3.222-5.945-5.282-8.533c0.066-0.032,0.133-0.036,0.197-0.08c2.197-1.503,4.453-2.919,6.726-4.309
		c0.394,1.45,1.021,2.836,2.004,4.163c0.981,1.324,2.413,2.745,4.008,3.886C139.063,133.306,136.504,134.923,133.9,136.464z
		 M145.5,128.694c-1.601-0.805-3.273-1.494-4.692-2.707c-1.24-1.06-2.162-2.431-2.816-3.923c0.769-0.461,1.533-0.931,2.303-1.389
		c2.52-1.496,6.08-2.791,8.694-4.633c1.113,2.032,2.562,3.893,4.232,5.457c0.062,0.058,0.139,0.097,0.202,0.155
		C150.679,123.85,148.208,126.44,145.5,128.694z M165.929,120.729c-3.27,0.79-6.899-1.43-9.184-3.527
		c-2.942-2.699-4.614-6.352-4.615-10.337c-0.001-3.993,2.362-7.269,5.238-9.888c0.021,0.658,0.053,1.29,0.047,1.814
		c-0.046,3.833-0.061,7.665-0.059,11.499c0.001,1.95,1.796,3.07,3.582,2.728c3.622-0.691,7.114,0.357,10.657,1.006
		C170.774,117.077,169.238,119.929,165.929,120.729z"/>
</g>
</svg>
