<?xml version='1.0' encoding='iso-8859-1'?>
<svg version="1.1" xmlns="http://www.w3.org/2000/svg" viewBox="0 0 321.455 321.455" xmlns:xlink="http://www.w3.org/1999/xlink" enable-background="new 0 0 321.455 321.455">
  <g>
    <g>
      <path d="m199.59,19.832c11.547-13.893 34.057-9.843 39.912,7.429l1.609,4.748c4.012-2.007 6.851-5.363 7.176-10.635 1.075-17.406-16.18-9.546-26.694-15.562-23.426-13.403-27.907-1.004-23.444,10.805 0.432,1.139 0.909,2.205 1.441,3.215z"/>
      <path d="m121.451,259.352c-2.684,2.929-6.032,5.212-9.857,6.654-8.999,3.389-19.015,1.479-26.202-4.982-14.45,0.899-13.24,11.172-6.496,19.029 4.115,4.794 8.693,7.359 16.2,8.994 8.619,1.877 37.571-4.576 32.555-21.618-1.427-4.843-3.578-7.163-6.2-8.077z"/>
      <path d="m191.144,184.873c0-8.87 0-73.11 0-82.183h45.314c8.124,0 13.857-7.993 11.249-15.69-1.849-5.457-17.141-50.581-19.004-56.079-1.99-5.865-8.115-9.14-13.983-7.743-6.866,1.632-10.744,8.792-8.516,15.367 3.197,9.434 10.445,30.82 13.687,40.389l-121.077-.207 13.687-40.39c2.106-6.213-1.225-12.956-7.437-15.061-6.188-2.095-12.947,1.219-15.059,7.431-0.001,0.003-0.002,0.005-0.003,0.007l-19.005,56.079c-2.607,7.693 3.122,15.69 11.25,15.69h45.983v61.637l-48.645,12.747c-8.005,2.097-12.761,10.76-9.725,18.814 6.385,16.941 4.543,12.054 19.351,51.345 2.774,7.361 10.99,11.088 18.364,8.311 7.361-2.773 11.09-10.993 8.311-18.365-4.428-11.749-8.664-22.986-13.771-36.54l29.269-7.67h32.327c11.978,34.783 9.895,28.735 14.438,41.929-2.954,13.751-11.776,54.815-14.934,69.513-1.654,7.696 3.246,15.276 10.942,16.929 7.677,1.653 15.272-3.23 16.928-10.941 3.502-16.301 12.269-57.11 15.768-73.394 0.546-2.539 0.387-5.179-0.458-7.634-5.469-15.881-12.52-36.359-15.251-44.291z"/>
      <path d="m263.242,231.386c-4.839-4.061-9.774-5.848-17.447-6.24-6.292-0.322-22.121,5.24-27.844,14.273-1.691,2.669-2.484,5.642-1.903,8.855 0.206,1.138 0.564,2.302 1.141,3.497 7.58,15.706 18.782,0.408 30.894,0.51 26.989,0.225 24.83-12.78 15.159-20.895z"/>
      <path d="m89.337,124.962c-4.84-4.061-9.774-5.848-17.447-6.24-8.809-0.45-25.432,6.605-18.747,23.064 3.326,8.189 8.924,3.969 21.036,4.07 26.988,0.226 24.829-12.779 15.158-20.894z"/>
      <path d="m159.816,71.088c13.591,0 24.617-11.018 24.617-24.617 0-13.595-11.021-24.617-24.617-24.617-13.595,0-24.617,11.021-24.617,24.617 0,13.635 11.081,24.617 24.617,24.617z"/>
    </g>
  </g>
</svg>
