<?xml version='1.0' encoding='iso-8859-1'?>
<svg version="1.1" xmlns="http://www.w3.org/2000/svg" viewBox="0 0 311.885 311.885" xmlns:xlink="http://www.w3.org/1999/xlink" enable-background="new 0 0 311.885 311.885">
  <g>
    <g>
      <path d="m115.268,196.658l-61.638,30.616c12.462,8.013 23.026,18.65 30.944,31.179l30.694-61.795z"/>
      <path d="m250.726,163.997l-33.87-8.719-47.524,47.524-48.644,97.934 42.615-52.765c24.218-29.987 54.73-54.287 89.376-71.181l35.622-17.369-27.711,4.948c-3.15,0.562-6.519,0.488-9.864-0.372z"/>
      <path d="m156.511,94.774l-8.665-33.658c-0.835-3.244-0.959-6.562-0.37-9.864l5.313-29.759-18.161,37.247c-16.894,34.646-41.193,65.158-71.181,89.376l-55.212,44.591 100.026-49.684 48.25-48.249z"/>
      <path d="m302.082,145.413c6.437-1.149 10.725-7.3 9.575-13.738-1.148-6.427-7.29-10.725-13.738-9.575l-40.952,7.312-31.423-8.088c-31.33-31.33-2.606-2.605-35.024-35.024l-8.088-31.423 7.312-40.952c1.15-6.439-3.139-12.588-9.575-13.738-6.434-1.15-12.588,3.133-13.738,9.575l-7.765,43.489c-0.298,1.672-0.234,3.389 0.189,5.034 10.39,40.361 9.595,37.824 10.568,39.654l-54.439,54.439-107.051,53.171c-7.029,3.491-9.896,12.019-6.405,19.047 3.499,7.043 12.031,9.889 19.046,6.405l97.361-48.36c3.257-1.618 7.182-0.975 9.753,1.596 2.571,2.571 3.214,6.497 1.596,9.754l-48.36,97.361c-3.492,7.03-0.621,15.556 6.405,19.047 7.027,3.49 15.555,0.625 19.047-6.405l53.601-107.914 53.747-53.747c1.869,1.035-0.502,0.272 39.835,10.656 1.585,0.408 3.302,0.498 5.033,0.189l43.49-7.765z"/>
      <path d="m213.441,98.45c9.441,9.441 25.041,9.664 34.705,0 9.584-9.584 9.584-25.122 0-34.705-9.584-9.584-25.122-9.584-34.705,0-9.664,9.664-9.441,25.265-2.84217e-14,34.705z"/>
    </g>
  </g>
</svg>
