<?xml version="1.0" encoding="iso-8859-1"?>
<!-- Generator: Adobe Illustrator 16.0.0, SVG Export Plug-In . SVG Version: 6.00 Build 0)  -->
<!DOCTYPE svg PUBLIC "-//W3C//DTD SVG 1.1//EN" "http://www.w3.org/Graphics/SVG/1.1/DTD/svg11.dtd">
<svg version="1.1" id="Capa_1" xmlns="http://www.w3.org/2000/svg" xmlns:xlink="http://www.w3.org/1999/xlink" x="0px" y="0px"
	 width="969.945px" height="969.945px" viewBox="0 0 969.945 969.945" style="enable-background:new 0 0 969.945 969.945;"
	 xml:space="preserve">
<g>
	<polygon points="319.5,470.672 424.4,510.672 485.9,534.072 590.8,574.072 680.101,484.672 408.9,381.373 	"/>
	<polygon points="447.601,342.572 718.9,445.972 780.601,384.172 593.3,196.873 	"/>
	<path d="M385.7,549.373l-104.9-40l-25,25c-14.5,14.5-17,36.398-7.6,53.5c-4.6,2.6-9.2,5-14.1,7.199c-0.7,0.301-1.5,0.6-2.2,0.9
		c-2.5,1-5.1,1.9-7.7,2.699c-4.6,1.5-9.4,2.801-14.2,3.9c-2.1,0.5-4.3,0.9-6.4,1.301c-1.1,0.199-2.1,0.398-3.2,0.5
		c-0.3,0-0.5,0.1-0.7,0.1c-4.8,0.6-9.6,0.9-14.4,1c-4.9,0.1-9.8,0-14.7-0.301c-1.9-0.1-3.9-0.299-5.8-0.5c1.3,0.1-4.8-0.799-6-1
		c-21.8-4.1-42-13.699-63.5-18.699c-23.7-5.5-48.5-7.201-72.8-4.9c-12.2,1.199-22.5,9.301-22.5,22.5c0,11.4,10.3,23.699,22.5,22.5
		c11.2-1.1,22.4-1.301,33.6-0.6c2.5,0.1,5,0.4,7.4,0.6c1.2,0.1,2.5,0.301,3.7,0.4c0.3,0,0.5,0.1,0.7,0.1c0.2,0,0.4,0.1,0.7,0.1
		c6.2,0.9,12.3,2.201,18.3,3.6c22.4,5.4,43.4,15.4,66.3,18.9c43.5,6.701,89.1-2.1,125.9-26.6l17.1,17.1l-272.3,272.5
		c-11.7,11.701-11.7,30.701,0,42.4c5.9,5.9,13.5,8.801,21.2,8.801c7.7,0,15.4-2.9,21.2-8.801l272.5-272.5l40.601,40.6
		c17.6,17.6,46.1,17.6,63.6,0l108.9-108.9l-104.9-40L385.7,549.373z"/>
	<path d="M940.101,7.572c-1.7,0-3.4,0.1-5.2,0.4l-341.3,58.7c-24,4.1-33.301,33.6-16.101,50.8l61.4,61.4l159.7,159.7l61.399,61.4
		c6,6,13.601,8.8,21.101,8.8c13.699,0,27-9.399,29.699-24.899l58.7-341.3C972.7,23.972,958.2,7.572,940.101,7.572z"/>
</g>
<g>
</g>
<g>
</g>
<g>
</g>
<g>
</g>
<g>
</g>
<g>
</g>
<g>
</g>
<g>
</g>
<g>
</g>
<g>
</g>
<g>
</g>
<g>
</g>
<g>
</g>
<g>
</g>
<g>
</g>
</svg>
