<?xml version="1.0" encoding="iso-8859-1"?>
<!-- Generator: Adobe Illustrator 19.0.0, SVG Export Plug-In . SVG Version: 6.00 Build 0)  -->
<svg version="1.1" id="Capa_1" xmlns="http://www.w3.org/2000/svg" xmlns:xlink="http://www.w3.org/1999/xlink" x="0px" y="0px"
	 viewBox="0 0 463 463" style="enable-background:new 0 0 463 463;" xml:space="preserve">
<path d="M462.684,241.345l-20.579-68.598C439.1,162.73,430.054,156,419.596,156H375.5c-4.142,0-7.5,3.357-7.5,7.5V180h-17v-39.5
	c0-4.687-3.813-8.5-8.5-8.5H8.5c-4.687,0-8.5,3.813-8.5,8.5v134c0,4.687,3.813,8.5,8.5,8.5H16v16.5c0,4.143,3.358,7.5,7.5,7.5
	h57.409c3.374,13.759,15.806,24,30.591,24c9.607,0,18.217-4.328,24-11.131c5.783,6.803,14.393,11.131,24,11.131
	c14.785,0,27.216-10.241,30.591-24h75.855c2.647,4.765,7.728,8,13.555,8h40c5.827,0,10.908-3.235,13.555-8h19.855
	c3.374,13.759,15.806,24,30.591,24s27.216-10.241,30.591-24H455.5c4.142,0,7.5-3.357,7.5-7.5v-56
	C463,242.771,462.894,242.044,462.684,241.345z M445.42,236H423.5c-9.098,0-16.5-7.402-16.5-16.5V195h26.12L445.42,236z
	 M352.909,292H335v-8.5c0-0.169-0.02-0.333-0.025-0.5h8.525h13.181C354.984,285.749,353.7,288.778,352.909,292z M368,195v73h-17v-73
	H368z M15,235h278.393l-3.196,3.196c-2.929,2.93-2.929,7.678,0,10.607c1.464,1.464,3.384,2.196,5.303,2.196s3.839-0.732,5.303-2.196
	l16-16c2.929-2.93,2.929-7.678,0-10.607l-16-16c-2.929-2.928-7.678-2.928-10.606,0c-2.929,2.93-2.929,7.678,0,10.607l3.196,3.196H15
	v-73h321v121H15V235z M264,283.5v8.5h-73.909c-0.79-3.222-2.074-6.251-3.772-9h77.707C264.02,283.167,264,283.331,264,283.5z
	 M31,283h53.681c-1.698,2.749-2.982,5.778-3.772,9H31V283z M111.5,316c-9.098,0-16.5-7.402-16.5-16.5s7.402-16.5,16.5-16.5
	s16.5,7.402,16.5,16.5S120.598,316,111.5,316z M159.5,316c-9.098,0-16.5-7.402-16.5-16.5s7.402-16.5,16.5-16.5s16.5,7.402,16.5,16.5
	S168.598,316,159.5,316z M319.5,300h-40c-0.276,0-0.5-0.225-0.5-0.5v-16c0-0.275,0.224-0.5,0.5-0.5h40c0.276,0,0.5,0.225,0.5,0.5v16
	C320,299.775,319.776,300,319.5,300z M383.5,316c-9.098,0-16.5-7.402-16.5-16.5s7.402-16.5,16.5-16.5s16.5,7.402,16.5,16.5
	S392.598,316,383.5,316z M414.091,292c-3.374-13.759-15.806-24-30.591-24c-0.168,0-0.333,0.01-0.5,0.013V171h36.596
	c3.783,0,7.055,2.435,8.142,6.058L428.62,180H399.5c-4.142,0-7.5,3.357-7.5,7.5v32c0,17.369,14.131,31.5,31.5,31.5H448v9h-8.5
	c-4.142,0-7.5,3.357-7.5,7.5s3.358,7.5,7.5,7.5h8.5v17H414.091z"/>
<g>
</g>
<g>
</g>
<g>
</g>
<g>
</g>
<g>
</g>
<g>
</g>
<g>
</g>
<g>
</g>
<g>
</g>
<g>
</g>
<g>
</g>
<g>
</g>
<g>
</g>
<g>
</g>
<g>
</g>
</svg>
