<?xml version="1.0" encoding="iso-8859-1"?>
<!-- Generator: Adobe Illustrator 16.0.0, SVG Export Plug-In . SVG Version: 6.00 Build 0)  -->
<!DOCTYPE svg PUBLIC "-//W3C//DTD SVG 1.1//EN" "http://www.w3.org/Graphics/SVG/1.1/DTD/svg11.dtd">
<svg version="1.1" id="Capa_1" xmlns="http://www.w3.org/2000/svg" xmlns:xlink="http://www.w3.org/1999/xlink" x="0px" y="0px"
	 width="45px" height="45px" viewBox="0 0 45 45" style="enable-background:new 0 0 45 45;" xml:space="preserve">
<g>
	<g id="Layer_1_162_">
		<path d="M44.055,26.167H42.8c-0.31-1.567-0.862-3.71-1.739-4.846c-4.1-5.317-9.248-8.171-15.719-8.171
			c-4.193,0-6.924,0.41-8.346,1.253c-0.192,0.114-0.758,0.449-2.287,3.524c-2.232,0.035-8.136,0.44-10.967,3.631
			c-1.421,1.601-1.986,3.322-2.204,4.608H0.946C0.423,26.166,0,26.59,0,27.113c0,0.522,0.423,0.947,0.946,0.947h0.473
			c0.004,0.051,0.008,0.09,0.009,0.102c0.05,0.48,0.457,0.846,0.94,0.846H3.56c0.732,1.67,2.397,2.842,4.335,2.842
			s3.603-1.172,4.337-2.842h18.064c0.731,1.67,2.397,2.842,4.335,2.842s3.604-1.172,4.335-2.842h3.192c0.007,0,0.013,0,0.018,0
			c0.523,0,0.948-0.424,0.948-0.947h0.931c0.522,0,0.945-0.425,0.945-0.947C45,26.59,44.577,26.167,44.055,26.167z M7.895,29.956
			c-1.566,0-2.841-1.274-2.841-2.842s1.274-2.843,2.841-2.843c1.568,0,2.844,1.275,2.844,2.843S9.463,29.956,7.895,29.956z
			 M24.688,18.938c0,0.262-0.211,0.474-0.474,0.474h-7.357c-0.162,0-0.313-0.085-0.4-0.223c-0.088-0.139-0.096-0.312-0.024-0.458
			c0.347-0.714,0.976-1.951,1.277-2.208c1.002-0.637,3.011-0.939,6.022-0.939c0.164,0,0.328,0.002,0.494,0.005
			c0.256,0.006,0.461,0.217,0.461,0.474V18.938z M25.637,18.938v-2.741c0-0.135,0.059-0.264,0.159-0.354
			c0.101-0.09,0.235-0.135,0.37-0.117c3.334,0.392,5.898,1.495,6.863,2.95c0.097,0.146,0.104,0.332,0.022,0.486
			c-0.081,0.154-0.243,0.25-0.418,0.25h-6.524C25.85,19.412,25.637,19.2,25.637,18.938z M34.631,29.956
			c-1.566,0-2.842-1.274-2.842-2.842s1.275-2.843,2.842-2.843c1.567,0,2.842,1.275,2.842,2.843S36.197,29.956,34.631,29.956z"/>
	</g>
</g>
<g>
</g>
<g>
</g>
<g>
</g>
<g>
</g>
<g>
</g>
<g>
</g>
<g>
</g>
<g>
</g>
<g>
</g>
<g>
</g>
<g>
</g>
<g>
</g>
<g>
</g>
<g>
</g>
<g>
</g>
</svg>
