<?xml version="1.0" encoding="utf-8"?>
<!-- Generator: Adobe Illustrator 15.0.0, SVG Export Plug-In . SVG Version: 6.00 Build 0)  -->
<!DOCTYPE svg PUBLIC "-//W3C//DTD SVG 1.1//EN" "http://www.w3.org/Graphics/SVG/1.1/DTD/svg11.dtd">
<svg version="1.1" id="Layer_1" xmlns="http://www.w3.org/2000/svg" xmlns:xlink="http://www.w3.org/1999/xlink" x="0px" y="0px"
	 width="26px" height="26px" viewBox="0 0 26 26" enable-background="new 0 0 26 26" xml:space="preserve">
<g>
	<path d="M17.004,13.025v-1.318c0-0.741-0.445-0.944-1.887-1.463c0.609-1.389,0.768-1.848,0.248-2.362l-0.951-0.928
		c-0.185-0.182-0.451-0.29-0.714-0.29c-0.177,0-0.36,0-1.671,0.584c-0.574-1.416-0.79-1.852-1.507-1.852H9.177
		c-0.708,0-0.921,0.394-1.476,1.861c-1.333-0.553-1.52-0.553-1.687-0.553c-0.263,0-0.529,0.108-0.712,0.288L4.349,7.924
		C3.817,8.447,4,8.937,4.626,10.269c-1.469,0.572-1.875,0.77-1.875,1.492v1.319c0,0.741,0.445,0.945,1.886,1.464
		c-0.608,1.387-0.765,1.846-0.248,2.359l0.948,0.927c0.184,0.184,0.453,0.294,0.717,0.294c0.176,0,0.359,0,1.671-0.585
		c0.575,1.416,0.79,1.853,1.508,1.853h1.346c0.707,0,0.921-0.395,1.477-1.863c1.334,0.556,1.52,0.556,1.686,0.556
		c0.262,0,0.528-0.108,0.712-0.288l0.959-0.938c0.526-0.523,0.344-1.013-0.282-2.34C16.562,13.96,17.004,13.746,17.004,13.025z
		 M13.699,16.915c-0.127-0.034-0.485-0.152-1.441-0.556l-0.22-0.093l-0.878,0.355l-0.09,0.237c-0.106,0.286-0.408,1.091-0.568,1.375
		l-1.196-0.001c-0.163-0.274-0.481-1.062-0.61-1.381l-0.092-0.227L7.726,16.27L7.5,16.372c-0.947,0.429-1.294,0.55-1.403,0.583
		l-0.842-0.824c0.085-0.312,0.425-1.084,0.563-1.396l0.101-0.228l-0.364-0.862l-0.239-0.086c-0.323-0.115-1.121-0.401-1.407-0.556
		l0-1.166c0.279-0.157,1.058-0.459,1.414-0.597l0.229-0.089l0.364-0.863l-0.111-0.233C5.674,9.78,5.31,9.009,5.216,8.694l0.84-0.822
		C6.183,7.906,6.542,8.022,7.5,8.426L7.72,8.52l0.876-0.355l0.089-0.238c0.106-0.286,0.408-1.09,0.567-1.375l1.196,0
		c0.163,0.275,0.481,1.063,0.61,1.382l0.092,0.227l0.877,0.355l0.227-0.103c0.948-0.429,1.294-0.55,1.403-0.583l0.843,0.824
		c-0.085,0.311-0.426,1.083-0.563,1.396l-0.101,0.229l0.365,0.864l0.239,0.085c0.322,0.116,1.118,0.401,1.406,0.555l-0.001,1.163
		c-0.283,0.162-1.088,0.474-1.414,0.601l-0.229,0.089l-0.362,0.864l0.11,0.232c0.13,0.274,0.495,1.045,0.59,1.359L13.699,16.915z"/>
	<path d="M9.878,10.31c-1.173,0-2.127,0.935-2.127,2.084s0.954,2.085,2.127,2.085s2.127-0.936,2.127-2.085S11.051,10.31,9.878,10.31
		z M9.878,13.322c-0.535,0-0.971-0.417-0.971-0.928c0-0.511,0.436-0.927,0.971-0.927s0.97,0.416,0.97,0.927
		C10.848,12.905,10.413,13.322,9.878,13.322z"/>
	<path d="M22.385,15.3c0.279-0.636,0.352-0.846,0.114-1.081l-0.437-0.425c-0.084-0.084-0.206-0.133-0.326-0.133
		c-0.081,0-0.164,0-0.765,0.268c-0.263-0.648-0.361-0.848-0.689-0.848h-0.615c-0.324,0-0.422,0.181-0.676,0.852
		c-0.609-0.253-0.695-0.253-0.771-0.253c-0.12,0-0.242,0.05-0.326,0.132l-0.437,0.427c-0.243,0.239-0.159,0.464,0.127,1.073
		c-0.673,0.262-0.857,0.353-0.857,0.683v0.604c0,0.339,0.203,0.433,0.863,0.67c-0.278,0.635-0.351,0.845-0.114,1.08l0.434,0.424
		c0.085,0.084,0.208,0.134,0.329,0.134c0.08,0,0.164,0,0.765-0.268c0.263,0.648,0.361,0.848,0.689,0.848h0.616
		c0.323,0,0.421-0.18,0.676-0.852c0.61,0.254,0.695,0.254,0.771,0.254c0.12,0,0.242-0.05,0.326-0.132l0.438-0.43
		c0.241-0.239,0.157-0.463-0.129-1.07c0.655-0.256,0.857-0.354,0.857-0.684v-0.604C23.248,15.63,23.045,15.537,22.385,15.3z
		 M22.719,16.537c-0.129,0.074-0.498,0.217-0.647,0.274l-0.104,0.041l-0.166,0.395l0.051,0.107c0.06,0.125,0.227,0.478,0.27,0.622
		l-0.385,0.376c-0.059-0.016-0.223-0.069-0.66-0.254l-0.101-0.043l-0.401,0.163l-0.041,0.108c-0.049,0.131-0.187,0.499-0.26,0.629
		h-0.548c-0.074-0.126-0.221-0.486-0.279-0.632l-0.042-0.104l-0.401-0.163l-0.104,0.047c-0.434,0.196-0.593,0.251-0.643,0.267
		l-0.385-0.378c0.039-0.142,0.194-0.495,0.257-0.638l0.046-0.105l-0.166-0.394l-0.109-0.04c-0.147-0.053-0.513-0.184-0.644-0.254
		v-0.534c0.128-0.071,0.484-0.21,0.646-0.273l0.105-0.04l0.166-0.396l-0.05-0.106c-0.061-0.125-0.227-0.478-0.27-0.622l0.385-0.376
		c0.058,0.015,0.222,0.068,0.66,0.254L19,14.511l0.401-0.162l0.04-0.109c0.05-0.131,0.187-0.499,0.26-0.629h0.548
		c0.074,0.126,0.22,0.487,0.279,0.633l0.042,0.104l0.401,0.163l0.104-0.047c0.434-0.197,0.593-0.252,0.643-0.267l0.386,0.377
		c-0.04,0.142-0.195,0.495-0.259,0.639l-0.046,0.104l0.167,0.396l0.109,0.039c0.148,0.053,0.513,0.184,0.644,0.254V16.537z"/>
	<path d="M19.987,15.33c-0.536,0-0.973,0.428-0.973,0.953c0,0.526,0.437,0.954,0.973,0.954c0.537,0,0.974-0.428,0.974-0.954
		C20.961,15.758,20.524,15.33,19.987,15.33z M19.987,16.708c-0.245,0-0.444-0.19-0.444-0.425c0-0.233,0.199-0.424,0.444-0.424
		s0.444,0.19,0.444,0.424C20.432,16.518,20.232,16.708,19.987,16.708z"/>
</g>
</svg>
