<?xml version="1.0" encoding="iso-8859-1"?>
<!-- Generator: Adobe Illustrator 18.0.0, SVG Export Plug-In . SVG Version: 6.00 Build 0)  -->
<!DOCTYPE svg PUBLIC "-//W3C//DTD SVG 1.1//EN" "http://www.w3.org/Graphics/SVG/1.1/DTD/svg11.dtd">
<svg version="1.1" id="Capa_1" xmlns="http://www.w3.org/2000/svg" xmlns:xlink="http://www.w3.org/1999/xlink" x="0px" y="0px"
	 viewBox="0 0 60 60" style="enable-background:new 0 0 60 60;" xml:space="preserve">
<g>
	<path d="M29.5,38c-2.757,0-5,2.243-5,5s2.243,5,5,5s5-2.243,5-5S32.257,38,29.5,38z M29.5,46c-1.654,0-3-1.346-3-3s1.346-3,3-3
		s3,1.346,3,3S31.154,46,29.5,46z"/>
	<path d="M44.48,48.71c0.19-0.19,0.3-0.45,0.3-0.71s-0.11-0.521-0.3-0.71c-0.36-0.37-1.05-0.37-1.41,0
		c-0.19,0.189-0.3,0.45-0.3,0.71s0.11,0.52,0.3,0.71c0.18,0.18,0.44,0.29,0.71,0.29C44.04,49,44.3,48.89,44.48,48.71z"/>
	<path d="M43.78,46c0.26,0,0.51-0.11,0.7-0.29c0.19-0.19,0.3-0.45,0.3-0.71s-0.11-0.521-0.3-0.71c-0.37-0.37-1.04-0.37-1.41,0
		c-0.19,0.189-0.3,0.45-0.3,0.71s0.11,0.52,0.3,0.71C43.26,45.89,43.51,46,43.78,46z"/>
	<path d="M46.07,44.29c-0.19,0.189-0.3,0.45-0.3,0.71s0.11,0.52,0.3,0.71c0.19,0.18,0.44,0.29,0.7,0.29c0.27,0,0.52-0.11,0.71-0.29
		c0.19-0.19,0.3-0.45,0.3-0.71s-0.11-0.521-0.3-0.71C47.11,43.92,46.44,43.92,46.07,44.29z"/>
	<path d="M46.07,47.29c-0.19,0.189-0.29,0.45-0.29,0.71s0.1,0.52,0.29,0.71c0.19,0.18,0.45,0.29,0.71,0.29
		c0.26,0,0.51-0.11,0.7-0.29c0.19-0.19,0.29-0.45,0.29-0.71s-0.1-0.521-0.29-0.71C47.11,46.92,46.44,46.92,46.07,47.29z"/>
	<path d="M44.07,50.29c-0.19,0.189-0.29,0.439-0.29,0.71c0,0.27,0.1,0.52,0.29,0.71c0.19,0.18,0.44,0.29,0.71,0.29
		c0.25,0,0.51-0.101,0.7-0.29c0.19-0.19,0.29-0.45,0.29-0.71s-0.1-0.521-0.29-0.71C45.11,49.92,44.43,49.93,44.07,50.29z"/>
	<path d="M41.07,50.29c-0.19,0.189-0.29,0.45-0.29,0.71s0.1,0.52,0.29,0.71c0.19,0.18,0.44,0.29,0.7,0.29
		c0.27,0,0.52-0.11,0.71-0.29c0.19-0.19,0.3-0.45,0.3-0.71s-0.11-0.521-0.3-0.71C42.12,49.92,41.43,49.92,41.07,50.29z"/>
	<path d="M41.48,48.71c0.19-0.19,0.3-0.45,0.3-0.71s-0.11-0.521-0.3-0.71c-0.36-0.37-1.05-0.37-1.41,0
		c-0.19,0.189-0.3,0.45-0.3,0.71s0.11,0.52,0.3,0.71c0.18,0.18,0.44,0.29,0.71,0.29C41.04,49,41.3,48.89,41.48,48.71z"/>
	<path d="M38.07,50.29c-0.19,0.189-0.3,0.45-0.3,0.71s0.11,0.52,0.3,0.71c0.19,0.18,0.44,0.29,0.71,0.29c0.26,0,0.52-0.11,0.7-0.29
		c0.19-0.19,0.29-0.45,0.29-0.71s-0.1-0.521-0.29-0.71C39.12,49.92,38.43,49.92,38.07,50.29z"/>
	<path d="M35.07,50.29c-0.19,0.189-0.29,0.45-0.29,0.71s0.1,0.52,0.29,0.71c0.19,0.189,0.45,0.29,0.7,0.29
		c0.27,0,0.52-0.11,0.71-0.29c0.19-0.19,0.3-0.44,0.3-0.71c0-0.271-0.11-0.521-0.3-0.71C36.12,49.92,35.44,49.92,35.07,50.29z"/>
	<path d="M32.07,50.29c-0.19,0.189-0.3,0.45-0.3,0.71s0.11,0.52,0.3,0.71c0.19,0.18,0.44,0.29,0.71,0.29c0.26,0,0.51-0.101,0.7-0.29
		c0.19-0.19,0.3-0.45,0.3-0.71s-0.11-0.521-0.3-0.71C33.11,49.92,32.43,49.92,32.07,50.29z"/>
	<path d="M14.07,47.29c-0.19,0.189-0.29,0.45-0.29,0.71s0.1,0.52,0.29,0.71c0.19,0.18,0.45,0.29,0.71,0.29
		c0.26,0,0.51-0.11,0.7-0.29c0.19-0.19,0.29-0.45,0.29-0.71s-0.1-0.521-0.29-0.71C15.11,46.91,14.44,46.92,14.07,47.29z"/>
	<path d="M14.07,44.29c-0.19,0.189-0.29,0.439-0.29,0.71c0,0.27,0.1,0.52,0.29,0.71c0.19,0.189,0.45,0.29,0.71,0.29
		c0.26,0,0.51-0.101,0.7-0.29c0.19-0.19,0.29-0.44,0.29-0.71c0-0.271-0.1-0.521-0.29-0.71C15.1,43.92,14.45,43.92,14.07,44.29z"/>
	<path d="M11.78,46c0.25,0,0.51-0.101,0.7-0.29c0.19-0.19,0.29-0.44,0.29-0.71c0-0.26-0.1-0.521-0.29-0.71
		c-0.38-0.37-1.03-0.37-1.41,0c-0.19,0.189-0.29,0.439-0.29,0.71c0,0.27,0.1,0.52,0.29,0.71C11.26,45.899,11.52,46,11.78,46z"/>
	<path d="M12.48,47.29c-0.36-0.37-1.05-0.37-1.41,0c-0.19,0.189-0.29,0.439-0.29,0.71c0,0.27,0.1,0.52,0.29,0.71
		c0.18,0.18,0.44,0.29,0.71,0.29c0.26,0,0.52-0.11,0.7-0.29c0.19-0.19,0.29-0.45,0.29-0.71S12.67,47.479,12.48,47.29z"/>
	<path d="M13.07,50.29c-0.19,0.189-0.3,0.45-0.3,0.71s0.11,0.52,0.3,0.71c0.19,0.18,0.44,0.29,0.71,0.29c0.26,0,0.51-0.101,0.7-0.29
		c0.19-0.19,0.29-0.45,0.29-0.71s-0.1-0.521-0.29-0.71C14.12,49.92,13.43,49.92,13.07,50.29z"/>
	<path d="M16.07,50.29c-0.19,0.189-0.29,0.45-0.29,0.71s0.1,0.52,0.29,0.71c0.19,0.18,0.44,0.29,0.7,0.29
		c0.27,0,0.52-0.11,0.71-0.29c0.19-0.19,0.3-0.45,0.3-0.71s-0.11-0.521-0.3-0.71C17.12,49.92,16.43,49.92,16.07,50.29z"/>
	<path d="M18.48,47.29c-0.36-0.37-1.05-0.37-1.41,0c-0.19,0.189-0.29,0.45-0.29,0.71s0.1,0.52,0.29,0.71
		c0.18,0.18,0.44,0.29,0.7,0.29c0.27,0,0.53-0.11,0.71-0.29c0.19-0.19,0.3-0.45,0.3-0.71S18.67,47.479,18.48,47.29z"/>
	<path d="M19.07,50.29c-0.19,0.189-0.29,0.439-0.29,0.71c0,0.27,0.1,0.52,0.29,0.71c0.19,0.18,0.44,0.29,0.71,0.29
		c0.25,0,0.51-0.101,0.7-0.29c0.19-0.19,0.29-0.45,0.29-0.71s-0.1-0.521-0.29-0.71C20.11,49.92,19.43,49.93,19.07,50.29z"/>
	<path d="M23.07,50.29c-0.19,0.189-0.3,0.45-0.3,0.71s0.11,0.52,0.3,0.71c0.19,0.18,0.44,0.29,0.71,0.29c0.26,0,0.52-0.11,0.7-0.29
		c0.19-0.19,0.29-0.45,0.29-0.71s-0.1-0.521-0.29-0.71C24.12,49.92,23.43,49.92,23.07,50.29z"/>
	<path d="M26.07,50.29c-0.19,0.189-0.29,0.45-0.29,0.71s0.1,0.52,0.29,0.71c0.19,0.18,0.44,0.29,0.7,0.29
		c0.27,0,0.52-0.11,0.71-0.29c0.19-0.19,0.3-0.45,0.3-0.71s-0.11-0.521-0.3-0.71C27.12,49.92,26.43,49.92,26.07,50.29z"/>
	<path d="M29.07,50.29c-0.19,0.189-0.29,0.439-0.29,0.71c0,0.27,0.1,0.52,0.29,0.71c0.19,0.18,0.44,0.29,0.71,0.29
		c0.25,0,0.51-0.101,0.7-0.29c0.19-0.19,0.29-0.45,0.29-0.71s-0.1-0.521-0.29-0.71C30.11,49.92,29.43,49.93,29.07,50.29z"/>
	<path d="M59.5,23.5C59.5,10.542,46.267,0,30,0S0.5,10.542,0.5,23.5c0,5.423,2.483,15.445,6.973,19.902
		C7.471,45.676,7.469,48.191,7.466,51c0,2.757,2.243,5,5,5h3.032v1.694c0,1.271,1.034,2.306,2.306,2.306h23.389
		c1.271,0,2.305-1.034,2.305-2.306V56h2.968c2.757,0,5-2.243,5-4.998c0.004-2.429,0.007-4.635,0.01-6.662
		C56.643,39.749,59.5,29.221,59.5,23.5z M25.111,22.771c1.305-0.017,2.679-0.026,4.132-0.026c10.717,0,18.074,0.534,20.257,0.993
		c0,0.681,0,1.818-0.002,3.263H29.775c-0.049,0-0.091,0.021-0.139,0.028C29.589,27.021,29.547,27,29.498,27H9.492
		c0.001-1.466,0.002-2.629,0.003-3.298c0.232-0.052,0.539-0.106,0.914-0.16C12.716,23.211,17.706,22.866,25.111,22.771z
		 M33.068,31.707C33.264,31.902,33.52,32,33.775,32s0.512-0.098,0.707-0.293L37.189,29h3.172l-3.293,3.293
		c-0.391,0.391-0.391,1.023,0,1.414C37.264,33.902,37.52,34,37.775,34s0.512-0.098,0.707-0.293L43.189,29h5.531
		c-0.499,4.494-4.32,8-8.945,8s-8.446-3.506-8.945-8h3.531l-1.293,1.293C32.678,30.684,32.678,31.316,33.068,31.707z M12.068,31.707
		C12.264,31.902,12.52,32,12.775,32s0.512-0.098,0.707-0.293L16.189,29h3.172l-3.293,3.293c-0.391,0.391-0.391,1.023,0,1.414
		C16.264,33.902,16.52,34,16.775,34s0.512-0.098,0.707-0.293L22.189,29h6.243c-0.575,4.364-4.841,8-9.657,8
		c-4.625,0-8.446-3.506-8.945-8h3.531l-1.293,1.293C11.678,30.684,11.678,31.316,12.068,31.707z M41.498,57.694
		c0,0.169-0.137,0.306-0.305,0.306H17.804c-0.168,0-0.306-0.137-0.306-0.306V56h24V57.694z M46.466,54h-2.968h-28h-3.032
		c-1.654,0-3-1.346-3-2.999c0.002-2.283,0.005-5.061,0.007-7.968c0-0.011,0.005-0.021,0.005-0.032l0.008-9.134
		C11.439,36.946,14.868,39,18.775,39c4.716,0,8.991-2.934,10.803-6.893C31.21,36.142,35.162,39,39.775,39
		c4.207,0,7.866-2.376,9.716-5.856C49.484,38.991,49.474,46.126,49.466,51C49.466,52.654,48.121,54,46.466,54z M51.499,24.48
		c0-1.511-0.003-1.55-0.005-1.573l0-0.001c-0.006-0.063-0.024-0.123-0.042-0.183c-0.007-0.022-0.008-0.047-0.016-0.068
		c-0.073-0.199-0.213-0.363-0.391-0.481c-0.037-0.025-0.071-0.054-0.113-0.074c-1.843-0.89-12.307-1.355-21.69-1.355
		c-1.968,0-19.284,0.04-21.311,1.432c-0.125,0.085-0.226,0.197-0.3,0.324c-0.017,0.03-0.017,0.067-0.031,0.099
		c-0.046,0.103-0.091,0.207-0.1,0.322c0,0,0,0.006-0.001,0.011c-0.002,0.028-0.003,0.106-0.004,0.787
		c-0.004,1.406-0.01,5.368-0.02,16.588C4.356,35.815,2.5,28.045,2.5,23.5C2.5,11.645,14.836,2,30,2s27.5,9.645,27.5,21.5
		c0,4.911-2.25,13.362-6.014,17.962C51.492,37.108,51.502,28.112,51.499,24.48z"/>
	<path d="M47.379,13.636C47.379,13.636,47.379,13.636,47.379,13.636l-0.001-0.001L38.894,5.15c-0.375-0.375-1.039-0.375-1.414,0
		l-2.829,2.829c-0.391,0.391-0.391,1.023,0,1.414s1.023,0.391,1.414,0l2.122-2.122l1.414,1.415l-2.122,2.122
		c-0.391,0.391-0.391,1.023,0,1.414c0.195,0.195,0.451,0.293,0.707,0.293s0.512-0.098,0.707-0.293l2.121-2.122l1.414,1.415
		l-2.122,2.121c-0.391,0.391-0.391,1.023,0,1.414c0.195,0.195,0.451,0.293,0.707,0.293s0.512-0.098,0.707-0.293l2.121-2.121
		l1.414,1.414l-2.121,2.122c-0.391,0.391-0.391,1.023,0,1.414c0.195,0.195,0.451,0.293,0.707,0.293s0.512-0.098,0.707-0.293
		l2.121-2.122l1.415,1.415l-2.122,2.121c-0.391,0.391-0.391,1.023,0,1.414C46.16,20.902,46.416,21,46.671,21
		s0.512-0.098,0.707-0.293l2.829-2.828c0.188-0.188,0.293-0.441,0.293-0.707s-0.105-0.52-0.293-0.707L47.379,13.636z"/>
</g>
<g>
</g>
<g>
</g>
<g>
</g>
<g>
</g>
<g>
</g>
<g>
</g>
<g>
</g>
<g>
</g>
<g>
</g>
<g>
</g>
<g>
</g>
<g>
</g>
<g>
</g>
<g>
</g>
<g>
</g>
</svg>
