<?xml version="1.0" encoding="iso-8859-1"?>
<!-- Generator: Adobe Illustrator 18.0.0, SVG Export Plug-In . SVG Version: 6.00 Build 0)  -->
<!DOCTYPE svg PUBLIC "-//W3C//DTD SVG 1.1//EN" "http://www.w3.org/Graphics/SVG/1.1/DTD/svg11.dtd">
<svg version="1.1" id="Capa_1" xmlns="http://www.w3.org/2000/svg" xmlns:xlink="http://www.w3.org/1999/xlink" x="0px" y="0px"
	 viewBox="0 0 60.003 60.003" style="enable-background:new 0 0 60.003 60.003;" xml:space="preserve">
<g>
	<path d="M43.561,41.169l-19,2c-0.549,0.058-0.948,0.55-0.89,1.099c0.054,0.514,0.488,0.896,0.994,0.896
		c0.035,0,0.07-0.002,0.105-0.006l2.732-0.288v3.22c0,0.274,0.113,0.537,0.313,0.727c0.186,0.176,0.432,0.273,0.687,0.273
		c0.019,0,0.037-0.001,0.055-0.002l6.527-0.362h0.001l5.422-0.302c0.53-0.029,0.944-0.468,0.944-0.998v-4.025l2.317-0.244
		c0.549-0.058,0.948-0.55,0.89-1.099C44.602,41.51,44.104,41.112,43.561,41.169z M29.502,44.675l4.528-0.478v2.584l-4.528,0.252
		V44.675z M39.452,46.48l-3.422,0.19v-2.683l3.422-0.36V46.48z"/>
	<path d="M59.796,25.154c-0.402-1.698-1.366-3.157-2.578-3.903c-0.811-0.499-1.678-0.661-2.507-0.461
		c-0.189,0.045-0.372,0.115-0.549,0.198C47.633,5.099,30.828,4.913,30.408,4.913c-0.003,0-0.005,0-0.007,0
		c-0.065-0.003-2.064,0.005-4.927,0.634c-0.008,0-0.014-0.002-0.022-0.002v0.006c-0.897,0.198-1.875,0.457-2.909,0.795
		c-0.031,0-0.06-0.007-0.091-0.007v0.036C15.88,8.551,7.241,13.957,4.755,27.394c-0.015,0.083-0.025,0.166-0.04,0.249
		c-0.254-0.07-0.512-0.118-0.776-0.118C1.73,27.525,0,29.907,0,32.948s1.73,5.424,3.939,5.424c0.403,0,0.798-0.102,1.177-0.267
		c0.701,2.671,1.863,5.179,3.459,7.379c3.245,4.472,9.662,9.77,21.817,9.602c0.186,0.003,0.368,0.004,0.551,0.004
		c11.797,0,18.071-5.202,21.266-9.605c2.881-3.971,4.346-8.947,4.23-14.077c0.035,0.001,0.071,0.014,0.106,0.014
		c0.227,0,0.451-0.025,0.67-0.078C59.363,30.831,60.497,28.112,59.796,25.154z M22.6,8.354c2.645,0.148,4.852,4.197,4.852,8.986h2
		c0-4.322-1.513-7.981-3.767-9.788c2.736,0.07,5.767,1.449,5.767,10.538h2c0-2.119-0.004-7.194-2.554-10.199
		c2.629,1.744,4.554,6.163,4.554,11.199h2c0-4.884-1.531-9.107-3.903-11.604c3.395,1.272,5.903,5.537,5.903,10.604h2
		c0-3.876-1.319-7.352-3.396-9.736c0.879,0.302,1.791,0.661,2.719,1.101c5.453,2.588,9.337,6.748,11.604,12.402l-4.447,3.466
		c-0.888-3.011-3.181-5.2-5.947-5.349c-1.589-0.082-3.135,0.517-4.375,1.692c-0.854,0.81-1.511,1.843-1.948,3.006
		c-0.487-0.315-1.041-0.505-1.563-0.515c-0.529-0.009-1.073,0.163-1.555,0.468c-1.172-3.123-3.886-5.365-7.125-5.54
		c-2.088-0.103-4.12,0.653-5.706,2.156c-1.173,1.111-2.012,2.559-2.46,4.162L8.68,21.22C11.985,13.576,17.808,10.01,22.6,8.354z
		 M38.984,23.118c0.797-0.756,1.727-1.151,2.699-1.151c0.064,0,0.129,0.002,0.193,0.006c2.456,0.132,4.454,2.873,4.454,6.11
		s-1.998,5.978-4.454,6.109c-1.037,0.062-2.042-0.339-2.893-1.146c-1.229-1.165-1.934-2.975-1.934-4.964
		C37.05,26.093,37.755,24.283,38.984,23.118z M31.165,28.083c0,3.749-2.572,6.823-5.855,6.998c-1.527,0.101-3.039-0.487-4.222-1.608
		c-1.404-1.33-2.209-3.295-2.209-5.39s0.805-4.059,2.208-5.39c1.107-1.05,2.493-1.618,3.93-1.618c0.097,0,0.195,0.003,0.292,0.009
		C28.593,21.26,31.165,24.335,31.165,28.083z M4.674,36.074c-0.206,0.166-0.456,0.298-0.734,0.298C3.022,36.372,2,34.966,2,32.948
		s1.022-3.424,1.939-3.424c0.167,0,0.336,0.047,0.504,0.139c-0.049,0.533-0.081,1.065-0.096,1.596c-0.001,0.035,0,0.071-0.001,0.106
		c-0.011,0.442-0.009,0.883,0.004,1.323c0.004,0.139,0.009,0.278,0.015,0.417c0.016,0.355,0.041,0.708,0.073,1.06
		c0.013,0.145,0.022,0.291,0.037,0.435c0.047,0.438,0.106,0.872,0.177,1.304C4.66,35.961,4.664,36.018,4.674,36.074z M50.59,44.311
		c-4.316,5.948-11.079,8.898-20.184,8.775h-0.014h-0.014c-9.087,0.163-15.868-2.826-20.185-8.775
		c-2.062-2.843-3.329-6.257-3.726-9.868c-0.008-0.075-0.009-0.152-0.017-0.227c-0.057-0.573-0.089-1.151-0.102-1.732
		c-0.005-0.249-0.001-0.498,0.002-0.748c0.004-0.409,0.021-0.82,0.047-1.231c0.019-0.293,0.039-0.585,0.069-0.879
		c0.064-0.623,0.138-1.246,0.253-1.869c0.313-1.693,0.737-3.236,1.235-4.665l8.953,4.37c-0.013,0.207-0.03,0.413-0.03,0.622
		c0,2.642,1.033,5.135,2.833,6.841c1.483,1.405,3.351,2.166,5.3,2.166c0.134,0,0.27-0.004,0.404-0.011
		c4.345-0.232,7.748-4.185,7.748-8.996c0-0.389-0.03-0.77-0.073-1.146h0.073c0-0.2,0.15-0.377,0.239-0.464
		c0.216-0.212,0.486-0.334,0.652-0.315c0.369,0.007,0.994,0.469,0.994,0.811h0.068c-0.04,0.366-0.068,0.737-0.068,1.114
		c0,2.536,0.933,4.874,2.558,6.415c1.164,1.103,2.603,1.7,4.081,1.7c0.098,0,0.197-0.003,0.295-0.008
		c3.559-0.191,6.347-3.753,6.347-8.107c0-0.175-0.012-0.346-0.021-0.519l4.75-3.702c0.148,0.46,0.305,0.919,0.431,1.385
		c0.016,0.059,0.031,0.118,0.046,0.177c0.201,0.76,0.376,1.528,0.523,2.319c0.001,0.005,0.002,0.009,0.003,0.014
		c0.124,0.668,0.207,1.336,0.272,2.004c0.011,0.113,0.026,0.223,0.035,0.337C54.794,35.27,53.466,40.346,50.59,44.311z
		 M56.751,29.399c-0.137,0.031-0.281,0.032-0.436-0.001c-0.004-0.041-0.012-0.078-0.017-0.118c-0.068-0.626-0.152-1.252-0.268-1.878
		c0,0-0.001-0.006-0.001-0.009c-0.002-0.012-0.006-0.024-0.008-0.037c-0.141-0.755-0.304-1.48-0.482-2.186
		c-0.023-0.091-0.051-0.18-0.075-0.271c-0.177-0.677-0.371-1.33-0.581-1.962c-0.007-0.02-0.011-0.04-0.018-0.06
		c0.101-0.069,0.204-0.116,0.31-0.142c0.38-0.092,0.75,0.067,0.994,0.219c0.758,0.467,1.402,1.486,1.68,2.661
		C58.315,27.579,57.644,29.186,56.751,29.399z"/>
	<circle cx="42.952" cy="30.59" r="1.5"/>
	<circle cx="27.952" cy="29.59" r="1.5"/>
</g>
<g>
</g>
<g>
</g>
<g>
</g>
<g>
</g>
<g>
</g>
<g>
</g>
<g>
</g>
<g>
</g>
<g>
</g>
<g>
</g>
<g>
</g>
<g>
</g>
<g>
</g>
<g>
</g>
<g>
</g>
</svg>
