<?xml version="1.0" encoding="utf-8"?>
<!-- Generator: Adobe Illustrator 16.0.4, SVG Export Plug-In . SVG Version: 6.00 Build 0)  -->
<!DOCTYPE svg PUBLIC "-//W3C//DTD SVG 1.1//EN" "http://www.w3.org/Graphics/SVG/1.1/DTD/svg11.dtd">
<svg version="1.1" id="Layer_1" xmlns="http://www.w3.org/2000/svg" xmlns:xlink="http://www.w3.org/1999/xlink" x="0px" y="0px"
	 width="32px" height="32px" viewBox="0 0 32 32" enable-background="new 0 0 32 32" xml:space="preserve">
<g>
	<path d="M24.893,0.585c0.004-0.196-0.102-0.377-0.272-0.471c-0.172-0.094-0.382-0.084-0.544,0.025
		c-1.031,0.695-2.909,2.034-4.928,3.825l0.336,4.23l-1.981-2.689c-1.892,1.873-3.74,4.093-4.979,6.504l0.24,3.016l-0.987-1.338
		c-0.988,2.639-1.148,5.456,0.188,8.269l-0.971,1.772l-0.017,0.018h-1.54c-0.544,0-0.972,0.463-0.972,1.007v1.438h0.25l-2.31,4.024
		c-0.261,0-0.456,0.209-0.456,0.47v0.805c0,0.25,0.171,0.43,0.421,0.43h9.227c0.25,0,0.482-0.18,0.482-0.43v-0.823
		c0-0.25-0.218-0.45-0.467-0.45l-2.456-4.025h0.337v-1.438c0-0.544-0.418-1.007-0.962-1.007h-0.016V23.74l0.616-1.153
		c1.57-0.204,2.925-0.733,4.104-1.503l-1.94-0.622l3.83-0.956c1.324-1.381,2.344-3.107,3.132-4.961l-2.402-0.15l3.088-1.66
		C24.568,7.908,24.85,2.703,24.893,0.585z M10.193,27.012l-1.55,2.913c-0.101,0.19-0.295,0.298-0.496,0.298
		c-0.089,0-0.18-0.021-0.264-0.064c-0.273-0.146-0.377-0.486-0.232-0.762l1.55-2.914c0.146-0.272,0.486-0.377,0.76-0.23
		S10.339,26.738,10.193,27.012z M9.889,25.632c-0.319,0-0.578-0.258-0.578-0.577c0-0.32,0.259-0.578,0.578-0.578
		c0.32,0,0.579,0.258,0.579,0.578C10.468,25.374,10.209,25.632,9.889,25.632z"/>
</g>
</svg>
