<?xml version="1.0" encoding="iso-8859-1"?>
<!-- Generator: Adobe Illustrator 18.0.0, SVG Export Plug-In . SVG Version: 6.00 Build 0)  -->
<!DOCTYPE svg PUBLIC "-//W3C//DTD SVG 1.1//EN" "http://www.w3.org/Graphics/SVG/1.1/DTD/svg11.dtd">
<svg version="1.1" id="Capa_1" xmlns="http://www.w3.org/2000/svg" xmlns:xlink="http://www.w3.org/1999/xlink" x="0px" y="0px"
	 viewBox="0 0 100.715 108.245" style="enable-background:new 0 0 100.715 108.245;" preserveAspectRatio="fit">
<g>
	<path d="M3.382,20.215c0.036,0.037,3.662,3.75,5.078,9.132c0.764,2.902,2.805,5.963,5.46,8.19c3.363,2.82,7.667,4.369,12.482,4.501
		c-0.033,0.414-0.345,0.841-0.893,1.557c-1.049,1.373-2.635,3.447-2.097,7.064c0.508,3.419,2.854,7.764,7.382,13.674
		c4.551,5.939,3.523,11.214,2.434,16.799c-0.853,4.374-1.735,8.898,0.207,13.537c2.114,5.052,7.169,9.222,15.91,13.124l1.014,0.452
		l1.014-0.452c8.741-3.902,13.797-8.073,15.911-13.124c1.941-4.64,1.059-9.163,0.207-13.537c-1.089-5.585-2.117-10.859,2.434-16.799
		c4.528-5.91,6.874-10.254,7.382-13.674c0.538-3.617-1.048-5.692-2.097-7.064c-0.548-0.716-0.86-1.143-0.893-1.557
		c4.816-0.132,9.12-1.681,12.483-4.501c2.655-2.226,4.696-5.288,5.459-8.19c1.416-5.382,5.042-9.095,5.073-9.127l3.382-3.382
		l-4.712-0.826c-2.488-0.436-4.905-0.657-7.182-0.657c-12.531,0-19.232,6.531-22.587,11.759l-2.542-4.508
		c2.981-7.719,4.39-19.049,4.452-19.551l0.273-2.235L66.22,0.327C65.254,0.11,64.247,0,63.228,0c-2.759,0-4.761,0.797-4.98,0.888
		l-1.316,0.546l-0.195,1.411c-0.875,6.323-2.939,10.406-4.516,12.717c-0.678,0.993-1.326,1.753-1.861,2.308
		c-0.535-0.555-1.183-1.315-1.861-2.308c-1.578-2.311-3.642-6.394-4.516-12.717l-0.195-1.411l-1.316-0.546
		C42.253,0.797,40.251,0,37.492,0c-1.019,0-2.026,0.11-2.992,0.327L32.303,0.82l0.273,2.235c0.061,0.502,1.471,11.832,4.452,19.551
		l-2.542,4.508c-3.355-5.228-10.056-11.759-22.587-11.759c-2.278,0-4.694,0.221-7.183,0.657L0,16.833L3.382,20.215z M30.463,53.022
		c0.073-0.338,0.709-0.699,1.54-0.699c0.22,0,0.446,0.025,0.67,0.073c1.229,0.266,1.833,1.113,1.752,1.485
		c-0.073,0.338-0.709,0.699-1.54,0.699c-0.22,0-0.446-0.025-0.67-0.073c-0.625-0.135-1.173-0.444-1.505-0.847
		C30.619,53.549,30.411,53.263,30.463,53.022z M67.777,54.581c-0.83,0-1.467-0.361-1.54-0.699c-0.052-0.241,0.156-0.526,0.247-0.638
		c0.332-0.403,0.88-0.712,1.505-0.847c0.224-0.049,0.45-0.073,0.67-0.073c0.83,0,1.466,0.361,1.54,0.699
		c0.052,0.241-0.156,0.526-0.247,0.638c-0.332,0.403-0.88,0.712-1.505,0.847C68.223,54.556,67.997,54.581,67.777,54.581z
		 M11.899,20.329c5.797,0,10.656,1.641,14.439,4.877c3.121,2.669,4.865,5.853,5.779,8.054l1.957,4.713l8.481-15.043l-0.486-1.131
		c-0.535-1.244-1.023-2.652-1.464-4.125c0.157,0.007,0.316,0.011,0.477,0.011c0.841,0,1.735-0.101,2.637-0.36
		c0.286,0.465,0.582,0.917,0.889,1.353c2.195,3.114,4.192,4.439,4.413,4.58l1.339,0.855l1.338-0.855
		c0.221-0.141,2.218-1.466,4.413-4.58c0.307-0.436,0.604-0.888,0.889-1.353c0.902,0.259,1.796,0.36,2.638,0.36
		c0.161,0,0.32-0.004,0.477-0.011c-0.441,1.473-0.929,2.88-1.464,4.125l-0.486,1.131l8.481,15.043l1.957-4.713
		c0.914-2.201,2.658-5.385,5.778-8.054c3.783-3.236,8.642-4.877,14.44-4.877c0.685,0,1.386,0.023,2.101,0.069
		c-1.269,1.944-2.653,4.572-3.472,7.683c-0.395,1.501-1.613,3.772-3.845,5.645c-2.649,2.221-6,3.347-9.96,3.347
		c-0.62,0-1.261-0.028-1.907-0.085l-3.202-0.28l0.534,3.17c0.038,0.226,0.072,0.45,0.103,0.678
		c-1.055-0.473-2.161-0.886-3.315-1.234c-1.315-0.397-2.702,0.347-3.099,1.662c-0.397,1.315,0.347,2.702,1.662,3.099
		c4.256,1.285,6.656,3.339,7.24,3.885c-0.897-0.399-1.917-0.62-3.001-0.62c-0.574,0-1.154,0.063-1.724,0.186
		c-1.723,0.374-3.247,1.278-4.291,2.547c-1.167,1.418-1.629,3.187-1.268,4.852c0.56,2.582,2.961,4.423,5.923,4.603
		c-0.416,0.572-0.856,1.162-1.322,1.77c-2.649,3.456-4.07,7.093-4.344,11.118c-0.235,3.442,0.381,6.601,0.976,9.657
		c0.776,3.98,1.446,7.417,0.087,10.666c-1.5,3.584-5.54,6.875-12.336,10.04c-6.796-3.166-10.837-6.456-12.336-10.04
		c-1.359-3.248-0.689-6.686,0.087-10.666c0.596-3.055,1.211-6.215,0.976-9.657c-0.275-4.025-1.696-7.662-4.344-11.118
		c-0.467-0.609-0.908-1.2-1.324-1.773c2.936-0.199,5.311-2.034,5.867-4.6c0.361-1.666-0.101-3.434-1.268-4.852
		c-1.044-1.269-2.568-2.174-4.291-2.547c-0.57-0.124-1.15-0.186-1.724-0.186c-1.047,0-2.034,0.207-2.909,0.581
		c0.653-0.6,3.04-2.591,7.198-3.846c1.315-0.397,2.059-1.785,1.662-3.099c-0.397-1.315-1.785-2.059-3.099-1.662
		c-1.221,0.368-2.322,0.792-3.308,1.236c0.031-0.228,0.065-0.453,0.103-0.68l0.534-3.17l-3.203,0.28
		c-0.646,0.056-1.287,0.085-1.907,0.085c-3.96,0-7.31-1.126-9.959-3.347c-2.233-1.872-3.451-4.143-3.846-5.644
		c-0.819-3.111-2.203-5.739-3.472-7.683C10.513,20.352,11.214,20.329,11.899,20.329z"/>
	<path d="M46.098,84.498c0.177-0.109,4.376-2.645,8.51-0.009c0.414,0.264,0.877,0.39,1.335,0.39c0.821,0,1.625-0.406,2.099-1.15
		c0.738-1.158,0.398-2.695-0.76-3.434c-6.843-4.364-13.561-0.18-13.844,0l2.674,4.193L46.098,84.498z"/>
	<path d="M47.607,94.318c-1.096-4.993-7.55-4.262-7.55-4.262C44.563,96.754,48.703,99.311,47.607,94.318z"/>
	<path d="M53.221,94.318c-1.096,4.993,3.044,2.436,7.55-4.262C60.771,90.056,54.317,89.325,53.221,94.318z"/>
</g>
<g>
</g>
<g>
</g>
<g>
</g>
<g>
</g>
<g>
</g>
<g>
</g>
<g>
</g>
<g>
</g>
<g>
</g>
<g>
</g>
<g>
</g>
<g>
</g>
<g>
</g>
<g>
</g>
<g>
</g>
</svg>
