<?xml version="1.0" encoding="iso-8859-1"?>
<!-- Generator: Adobe Illustrator 18.0.0, SVG Export Plug-In . SVG Version: 6.00 Build 0)  -->
<!DOCTYPE svg PUBLIC "-//W3C//DTD SVG 1.1//EN" "http://www.w3.org/Graphics/SVG/1.1/DTD/svg11.dtd">
<svg version="1.1" id="Capa_1" xmlns="http://www.w3.org/2000/svg" xmlns:xlink="http://www.w3.org/1999/xlink" x="0px" y="0px"
	 viewBox="0 0 60.003 60.003" style="enable-background:new 0 0 60.003 60.003;" xml:space="preserve">
<g>
	<ellipse cx="21.055" cy="29.296" rx="3.055" ry="3.066"/>
	<ellipse cx="39.055" cy="25.296" rx="3.055" ry="3.066"/>
	<path d="M59.796,26.567c-0.402-1.697-1.366-3.156-2.577-3.902c-0.811-0.5-1.678-0.661-2.507-0.461
		c-0.189,0.045-0.371,0.114-0.549,0.198c-2.336-5.685-5.98-9.364-9.727-11.736l1.36-2.72c0.247-0.494,0.047-1.095-0.447-1.342
		c-0.496-0.245-1.095-0.046-1.342,0.447l-1.303,2.605c-0.617-0.327-1.231-0.626-1.837-0.892l0.983-2.95
		c0.175-0.524-0.108-1.091-0.632-1.265c-0.527-0.176-1.091,0.108-1.265,0.632l-0.948,2.844c-0.693-0.248-1.366-0.461-2.011-0.642
		l0.857-2.57c0.175-0.524-0.108-1.091-0.632-1.265c-0.526-0.177-1.091,0.108-1.265,0.632l-0.908,2.724
		C33.779,6.64,32.7,6.495,31.9,6.418V4.499c0-0.553-0.448-1-1-1s-1,0.447-1,1v1.848c-0.525,0.027-1.443,0.1-2.631,0.287
		l-0.383-2.298c-0.091-0.544-0.602-0.918-1.151-0.822c-0.544,0.091-0.913,0.606-0.822,1.15l0.391,2.345
		c-1.071,0.241-2.258,0.574-3.507,1.02l-0.949-2.846c-0.174-0.523-0.739-0.808-1.265-0.632c-0.524,0.174-0.807,0.74-0.632,1.265
		l0.984,2.95c-0.863,0.378-1.742,0.818-2.622,1.323l-1.519-3.037c-0.247-0.493-0.846-0.692-1.342-0.447
		c-0.494,0.247-0.694,0.848-0.447,1.342l1.603,3.206c-0.881,0.601-1.75,1.285-2.595,2.046l-2.406-2.406
		c-0.391-0.391-1.023-0.391-1.414,0s-0.391,1.023,0,1.414l2.387,2.387c-3.075,3.271-5.645,7.834-6.825,14.214
		c-0.015,0.083-0.025,0.167-0.04,0.25c-0.254-0.07-0.512-0.118-0.776-0.118C1.73,28.938,0,31.321,0,34.362s1.73,5.424,3.939,5.424
		c0.403,0,0.798-0.102,1.177-0.267c0.701,2.671,1.863,5.179,3.459,7.378c3.244,4.472,9.668,9.809,21.817,9.603
		c0.185,0.003,0.366,0.004,0.548,0.004c11.8-0.001,18.075-5.202,21.269-9.606c2.881-3.97,4.346-8.945,4.23-14.076
		c0.034,0.001,0.07,0.014,0.104,0.014c0.227,0,0.452-0.026,0.672-0.079C59.363,32.244,60.497,29.525,59.796,26.567z M4.674,37.488
		c-0.206,0.166-0.456,0.298-0.734,0.298C3.022,37.786,2,36.379,2,34.362s1.022-3.424,1.939-3.424c0.167,0,0.335,0.047,0.504,0.139
		c-0.049,0.533-0.081,1.066-0.096,1.597c-0.001,0.034,0,0.067-0.001,0.101c-0.011,0.445-0.009,0.889,0.004,1.332
		c0.004,0.136,0.009,0.271,0.015,0.407c0.016,0.36,0.042,0.719,0.074,1.076c0.012,0.141,0.021,0.282,0.036,0.422
		c0.047,0.438,0.106,0.874,0.177,1.307C4.66,37.374,4.664,37.432,4.674,37.488z M50.59,45.723
		c-4.315,5.949-11.099,8.938-20.184,8.776h-0.014h-0.014c-9.088,0.121-15.87-2.828-20.185-8.776
		c-2.062-2.842-3.329-6.255-3.726-9.866c-0.008-0.078-0.01-0.157-0.017-0.235c-0.057-0.57-0.089-1.144-0.102-1.721
		c-0.005-0.252-0.001-0.504,0.002-0.757c0.004-0.406,0.021-0.814,0.047-1.222c0.019-0.294,0.039-0.588,0.069-0.883
		c0.064-0.623,0.138-1.246,0.253-1.869c1.097-5.926,3.436-10.163,6.235-13.2l1.236,1.236c0.195,0.195,0.451,0.293,0.707,0.293
		s0.512-0.098,0.707-0.293c0.391-0.391,0.391-1.023,0-1.414l-1.228-1.228c0.684-0.619,1.384-1.18,2.094-1.682l0.532,1.064
		c0.175,0.351,0.528,0.553,0.896,0.553c0.15,0,0.303-0.034,0.446-0.105c0.494-0.247,0.694-0.848,0.447-1.342l-0.628-1.257
		c0.795-0.464,1.59-0.871,2.372-1.219l0.413,1.239c0.14,0.419,0.53,0.684,0.949,0.684c0.104,0,0.211-0.017,0.316-0.052
		c0.524-0.174,0.807-0.74,0.632-1.265L22.4,9.834c1.147-0.407,2.235-0.704,3.223-0.921l0.292,1.75
		c0.082,0.489,0.505,0.836,0.985,0.836c0.054,0,0.11-0.004,0.166-0.014c0.544-0.091,0.913-0.606,0.822-1.15L27.59,8.552
		c1.029-0.147,1.825-0.199,2.311-0.217v2.163c0,0.553,0.448,1,1,1s1-0.447,1-1V8.389c0.671,0.057,1.534,0.165,2.531,0.354
		l-0.479,1.438c-0.175,0.524,0.108,1.091,0.632,1.265c0.105,0.035,0.212,0.052,0.316,0.052c0.419,0,0.809-0.265,0.949-0.684
		l0.541-1.624c0.644,0.173,1.32,0.383,2.015,0.63l-0.454,1.361c-0.175,0.524,0.108,1.091,0.632,1.265
		c0.105,0.035,0.212,0.052,0.316,0.052c0.419,0,0.809-0.265,0.949-0.684l0.417-1.25c0.526,0.235,1.058,0.496,1.592,0.783
		l-0.852,1.704c-0.247,0.494-0.047,1.095,0.447,1.342c0.144,0.071,0.296,0.105,0.446,0.105c0.367,0,0.72-0.202,0.896-0.553
		l0.787-1.573c3.517,2.292,6.918,5.869,9.021,11.469l-0.008,0.011l0.182,0.513c0.261,0.733,0.485,1.468,0.689,2.21
		c0.025,0.091,0.051,0.18,0.075,0.272c0.201,0.76,0.377,1.529,0.523,2.321c0.124,0.668,0.207,1.337,0.272,2.005
		c0.011,0.113,0.026,0.223,0.035,0.337C54.794,36.684,53.466,41.759,50.59,45.723z M56.751,30.811c-0.136,0.032-0.281,0.032-0.436,0
		c-0.004-0.04-0.012-0.076-0.016-0.115c-0.068-0.63-0.153-1.26-0.269-1.89c-0.143-0.771-0.31-1.509-0.491-2.228
		c-0.022-0.086-0.048-0.17-0.071-0.256c-0.178-0.683-0.374-1.341-0.585-1.978c-0.006-0.018-0.01-0.036-0.016-0.054
		c0.101-0.069,0.204-0.116,0.31-0.142c0.379-0.09,0.751,0.068,0.994,0.219c0.758,0.467,1.402,1.486,1.68,2.66
		C58.315,28.992,57.644,30.598,56.751,30.811z"/>
	<path d="M40,41.504H20c-0.552,0-1,0.447-1,1s0.448,1,1,1h20c0.552,0,1-0.447,1-1S40.552,41.504,40,41.504z"/>
</g>
<g>
</g>
<g>
</g>
<g>
</g>
<g>
</g>
<g>
</g>
<g>
</g>
<g>
</g>
<g>
</g>
<g>
</g>
<g>
</g>
<g>
</g>
<g>
</g>
<g>
</g>
<g>
</g>
<g>
</g>
</svg>
