<?xml version="1.0" encoding="utf-8"?>
<!-- Generator: Adobe Illustrator 16.0.4, SVG Export Plug-In . SVG Version: 6.00 Build 0)  -->
<!DOCTYPE svg PUBLIC "-//W3C//DTD SVG 1.1//EN" "http://www.w3.org/Graphics/SVG/1.1/DTD/svg11.dtd">
<svg version="1.1" id="Layer_1" xmlns="http://www.w3.org/2000/svg" xmlns:xlink="http://www.w3.org/1999/xlink" x="0px" y="0px"
	 width="32px" height="32px" viewBox="0 0 32 32" enable-background="new 0 0 32 32" preserveAspectRatio="fit">
<g>
	<path d="M14.095,17.759c0-0.743-0.604-1.346-1.345-1.346c-0.743,0-1.346,0.603-1.346,1.346c0,0.74,0.602,1.345,1.346,1.345
		C13.491,19.104,14.095,18.499,14.095,17.759z"/>
	<circle cx="20.312" cy="17.758" r="1.345"/>
	<path d="M16.525,23.168c1.592,0,2.92-1.111,3.341-2.529h-6.681C13.605,22.057,14.935,23.168,16.525,23.168z"/>
	<path d="M31.867,5.715c-3.338-3.595-6.71-0.339-8.037,1.275c-2.094-1.624-4.719-2.592-7.567-2.592c-2.996,0-5.746,1.07-7.888,2.849
		c-1.152-1.481-4.718-5.33-8.243-1.532c0,0,1.169,4.101,6.311,3.541c-1.6,2.085-2.551,4.689-2.551,7.514
		c0,6.821,5.55,12.369,12.371,12.369c6.821,0,12.37-5.548,12.37-12.369c0-2.804-0.938-5.394-2.516-7.471
		C30.784,9.515,31.867,5.715,31.867,5.715z M16.263,26.125c-5.158,0-9.356-4.197-9.356-9.355c0-0.683,0.074-1.349,0.214-1.991h5.976
		l-0.024-2.518l2.574,2.518h9.76c0.139,0.643,0.214,1.309,0.214,1.991C25.619,21.928,21.422,26.125,16.263,26.125z"/>
</g>
</svg>
