<?xml version="1.0" encoding="iso-8859-1"?>
<!-- Generator: Adobe Illustrator 19.0.0, SVG Export Plug-In . SVG Version: 6.00 Build 0)  -->
<svg version="1.1" id="Layer_1" xmlns="http://www.w3.org/2000/svg" xmlns:xlink="http://www.w3.org/1999/xlink" x="0px" y="0px"
	 viewBox="0 0 490 490" style="enable-background:new 0 0 490 490;" xml:space="preserve">
<g id="XMLID_337_">
	<g>
		<path d="M487.123,319.623c-4.678-18.911-41.697-168.569-54.567-220.222C425.895,72.67,401.958,54,374.347,54H333v30h41.347
			c13.809,0,25.774,9.315,29.098,22.654c8.116,32.572,25.845,104.155,39.001,157.309C422.958,252.306,399.533,246,375,246
			c-57.097,0-104.601,34.694-113.497,80h-33.007c-8.896-45.306-56.4-80-113.497-80c-24.552,0-47.993,6.316-67.489,17.991
			c13.13-53.143,30.845-124.725,39.037-157.306C89.905,93.328,101.874,84,115.653,84H157V54h-41.347
			c-27.551,0-51.484,18.657-58.2,45.37C44.434,151.152,7.42,301.2,2.851,319.723C0.969,326.613,0,333.737,0,341
			c0,26.018,12.401,50.268,34.919,68.281C56.456,426.511,84.896,436,115,436c30.116,0,58.542-9.41,80.043-26.496
			c18.255-14.507,29.865-33.13,33.622-53.504h32.669c3.758,20.374,15.368,38.997,33.622,53.504C316.458,426.59,344.884,436,375,436
			c30.104,0,58.544-9.489,80.081-26.719C477.599,391.268,490,367.018,490,341C490,333.702,489.023,326.544,487.123,319.623z
			 M115,406c-13.339,0-25.966-2.368-37.212-6.574l21-21l-21.213-21.213l-26.53,26.53C37.957,372.307,30,357.355,30,341
			c0-35.841,38.131-65,85-65c13.102,0,25.729,2.287,37.164,6.622l-53.377,53.377L120,357.212l58.798-58.798
			c13.695,12,21.201,27.148,21.201,42.971C200,377.014,161.869,406,115,406z M375,406c-13.351,0-25.987-2.359-37.24-6.546
			l21.028-21.028l-21.213-21.213l-26.601,26.601C297.929,372.453,290,357.614,290,341.385c0-16.763,8.416-32.771,23.698-45.078
			C329.958,283.212,351.729,276,375,276c13.339,0,25.966,2.368,37.212,6.574l-53.425,53.425L380,357.212l58.955-58.955
			c9.499,8.301,16.304,18.449,19.311,29.649c0.005,0.019,0.009,0.035,0.013,0.053c1.127,4.214,1.72,8.576,1.72,13.041
			C460,376.841,421.869,406,375,406z"/>
	</g>
</g>
<g>
</g>
<g>
</g>
<g>
</g>
<g>
</g>
<g>
</g>
<g>
</g>
<g>
</g>
<g>
</g>
<g>
</g>
<g>
</g>
<g>
</g>
<g>
</g>
<g>
</g>
<g>
</g>
<g>
</g>
</svg>
