<?xml version="1.0" encoding="iso-8859-1"?>
<!-- Generator: Adobe Illustrator 18.0.0, SVG Export Plug-In . SVG Version: 6.00 Build 0)  -->
<!DOCTYPE svg PUBLIC "-//W3C//DTD SVG 1.1//EN" "http://www.w3.org/Graphics/SVG/1.1/DTD/svg11.dtd">
<svg version="1.1" id="Capa_1" xmlns="http://www.w3.org/2000/svg" xmlns:xlink="http://www.w3.org/1999/xlink" x="0px" y="0px"
	 viewBox="0 0 327.691 327.691" style="enable-background:new 0 0 327.691 327.691;" xml:space="preserve">
<g>
	<path d="M223.565,51.111C223.565,22.883,200.683,0,172.446,0h-30.667c-28.236,0-51.113,22.883-51.113,51.111v17.953h65.933v14.456
		l-96.642,0.041c-28.229,0-51.111,22.883-51.111,51.12v30.666c0,28.229,22.883,51.112,51.111,51.112h29.344v-59.006h134.285
		L223.565,51.111z M117.213,53.661c-4.112,0-7.444-3.332-7.444-7.438c0-4.11,3.332-7.444,7.444-7.444
		c4.105,0,7.438,3.334,7.438,7.444C124.65,50.329,121.318,53.661,117.213,53.661z"/>
	<path d="M267.734,111.231h-29.344v59.006H104.105l0.021,106.343c0,28.228,22.883,51.111,51.119,51.111h30.667
		c28.236,0,51.113-22.883,51.113-51.111v-17.953h-65.933v-14.456l96.642-0.041c28.228,0,51.111-22.883,51.111-51.119v-30.667
		C318.846,134.114,295.963,111.231,267.734,111.231z M210.479,274.03c4.113,0,7.444,3.332,7.444,7.438
		c0,4.11-3.331,7.444-7.444,7.444c-4.105,0-7.438-3.334-7.438-7.444C203.041,277.362,206.374,274.03,210.479,274.03z"/>
</g>
<g>
</g>
<g>
</g>
<g>
</g>
<g>
</g>
<g>
</g>
<g>
</g>
<g>
</g>
<g>
</g>
<g>
</g>
<g>
</g>
<g>
</g>
<g>
</g>
<g>
</g>
<g>
</g>
<g>
</g>
</svg>
