<?xml version="1.0" encoding="iso-8859-1"?>
<!-- Generator: Adobe Illustrator 19.0.0, SVG Export Plug-In . SVG Version: 6.00 Build 0)  -->
<svg version="1.1" id="Capa_1" xmlns="http://www.w3.org/2000/svg" xmlns:xlink="http://www.w3.org/1999/xlink" x="0px" y="0px"
	 viewBox="0 0 463 463" style="enable-background:new 0 0 463 463;" xml:space="preserve">
<g>
	<path d="M135.5,132h-64c-4.142,0-7.5,3.358-7.5,7.5v32c0,4.142,3.358,7.5,7.5,7.5h64c4.142,0,7.5-3.358,7.5-7.5v-32
		C143,135.358,139.642,132,135.5,132z M128,164H79v-17h49V164z"/>
	<path d="M439.5,196H175v-88.5c0-4.142-3.358-7.5-7.5-7.5h-128c-4.142,0-7.5,3.358-7.5,7.5V196H7.5c-4.142,0-7.5,3.358-7.5,7.5v152
		c0,4.142,3.358,7.5,7.5,7.5s7.5-3.358,7.5-7.5V339h145v16.5c0,4.142,3.358,7.5,7.5,7.5s7.5-3.358,7.5-7.5V243h113v112.5
		c0,4.142,3.358,7.5,7.5,7.5s7.5-3.358,7.5-7.5V243h113v112.5c0,4.142,3.358,7.5,7.5,7.5s7.5-3.358,7.5-7.5V243h8.5
		c12.958,0,23.5-10.542,23.5-23.5S452.458,196,439.5,196z M47,115h113v81H47V115z M15,324V211h145v113H15z M439.5,228H175v-17h264.5
		c4.687,0,8.5,3.813,8.5,8.5S444.187,228,439.5,228z"/>
	<path d="M39.5,260c-4.142,0-7.5,3.358-7.5,7.5v32c0,4.142,3.358,7.5,7.5,7.5s7.5-3.358,7.5-7.5v-32C47,263.358,43.642,260,39.5,260
		z"/>
	<path d="M71.5,260c-4.142,0-7.5,3.358-7.5,7.5v32c0,4.142,3.358,7.5,7.5,7.5s7.5-3.358,7.5-7.5v-32C79,263.358,75.642,260,71.5,260
		z"/>
	<path d="M103.5,260c-4.142,0-7.5,3.358-7.5,7.5v32c0,4.142,3.358,7.5,7.5,7.5s7.5-3.358,7.5-7.5v-32
		C111,263.358,107.642,260,103.5,260z"/>
	<path d="M135.5,260c-4.142,0-7.5,3.358-7.5,7.5v32c0,4.142,3.358,7.5,7.5,7.5s7.5-3.358,7.5-7.5v-32
		C143,263.358,139.642,260,135.5,260z"/>
</g>
<g>
</g>
<g>
</g>
<g>
</g>
<g>
</g>
<g>
</g>
<g>
</g>
<g>
</g>
<g>
</g>
<g>
</g>
<g>
</g>
<g>
</g>
<g>
</g>
<g>
</g>
<g>
</g>
<g>
</g>
</svg>
