<?xml version="1.0" encoding="iso-8859-1"?>
<!-- Generator: Adobe Illustrator 19.0.0, SVG Export Plug-In . SVG Version: 6.00 Build 0)  -->
<svg version="1.1" id="Layer_1" xmlns="http://www.w3.org/2000/svg" xmlns:xlink="http://www.w3.org/1999/xlink" x="0px" y="0px"
	 viewBox="0 0 490 490" style="enable-background:new 0 0 490 490;" xml:space="preserve">
<g id="XMLID_881_">
	<g>
		<path d="M458.369,80H430V0H275v80h-60V0H60v80H31.631L0.099,353.281L0,354.138V490h215V300h60v190h215V354.138L458.369,80z
			 M185,460H30v-90h155V460z M185,340H31.83l26.539-230H185V340z M185,80H90V30h95V80z M275,270h-60V170h60V270z M275,140h-60v-30
			h60V140z M305,30h95v50h-95V30z M305,110h126.631l26.539,230H305V110z M460,460H305v-90h155V460z"/>
	</g>
</g>
<g>
</g>
<g>
</g>
<g>
</g>
<g>
</g>
<g>
</g>
<g>
</g>
<g>
</g>
<g>
</g>
<g>
</g>
<g>
</g>
<g>
</g>
<g>
</g>
<g>
</g>
<g>
</g>
<g>
</g>
</svg>
