<?xml version="1.0" encoding="iso-8859-1"?>
<!-- Generator: Adobe Illustrator 16.0.0, SVG Export Plug-In . SVG Version: 6.00 Build 0)  -->
<!DOCTYPE svg PUBLIC "-//W3C//DTD SVG 1.1//EN" "http://www.w3.org/Graphics/SVG/1.1/DTD/svg11.dtd">
<svg version="1.1" id="Capa_1" xmlns="http://www.w3.org/2000/svg" xmlns:xlink="http://www.w3.org/1999/xlink" x="0px" y="0px"
	 width="463.848px" height="463.848px" viewBox="0 0 463.848 463.848" style="enable-background:new 0 0 463.848 463.848;"
	 xml:space="preserve">
<g>
	<g>
		<path d="M323.322,60.942l-115.1,115.1l160.561-7.764C365.539,129.117,349.946,91.287,323.322,60.942z"/>
		<path d="M338.996,285.412c19.452-29.688,29.306-62.885,30.336-95.941l-165.187,7.987l107.711,120.606
			C321.914,308.447,331.044,297.55,338.996,285.412z"/>
		<path d="M295.706,331.801L188.334,211.574l-25.48,156.772C209.836,373.544,257.617,360.631,295.706,331.801z"/>
		<path d="M141.953,364.812l23.777-146.278L60.896,323.367c6.423,5.621,13.306,10.869,20.649,15.68
			C100.561,351.506,121.017,360.023,141.953,364.812z"/>
		<path d="M384.265,0l-43.174,43.174c82.136,82.135,82.137,215.781,0,297.917c-82.138,82.138-215.782,82.138-297.918,0L0,384.264
			c51.32,51.321,119.554,79.584,192.133,79.584c72.577,0.002,140.812-28.263,192.132-79.584
			c51.32-51.32,79.584-119.553,79.583-192.131C463.848,119.554,435.585,51.32,384.265,0z"/>
	</g>
</g>
<g>
</g>
<g>
</g>
<g>
</g>
<g>
</g>
<g>
</g>
<g>
</g>
<g>
</g>
<g>
</g>
<g>
</g>
<g>
</g>
<g>
</g>
<g>
</g>
<g>
</g>
<g>
</g>
<g>
</g>
</svg>
