<?xml version="1.0" encoding="iso-8859-1"?>
<!-- Generator: Adobe Illustrator 17.1.0, SVG Export Plug-In . SVG Version: 6.00 Build 0)  -->
<!DOCTYPE svg PUBLIC "-//W3C//DTD SVG 1.1//EN" "http://www.w3.org/Graphics/SVG/1.1/DTD/svg11.dtd">
<svg version="1.1" id="Capa_1" xmlns="http://www.w3.org/2000/svg" xmlns:xlink="http://www.w3.org/1999/xlink" x="0px" y="0px"
	 viewBox="0 0 64 64" style="enable-background:new 0 0 64 64;" preserveAspectRatio="fit">
<g>
	<path d="M55.691,38.185c-0.367-0.774-0.774-2.251-0.774-3.132c0-1.856-1.521-3.367-3.396-3.367l-3.567,0.031
		c-0.093,0-0.224-0.023-0.321-0.126c-0.1-0.106-0.113-0.239-0.107-0.334L48.59,14.57c0.025-0.404,0.188-0.582,0.156-0.591
		c0.748,0,1.401-0.344,1.795-0.945c0.474-0.729,0.486-1.732,0.034-2.749c-0.662-1.491-2.405-2.616-4.055-2.616H24.664
		c-1.927,0-3.371,1.03-3.433,2.447c-0.031,0.668,0.208,1.305,0.673,1.788c0.187,0.196,0.402,0.357,0.645,0.479L7.175,35.659
		c-0.756,1.142-1.325,2.886-1.325,4.059v5.293c0,1.857,1.513,3.386,3.371,3.406l3.034,0.032c-0.231,0.629-0.363,1.305-0.363,2.013
		c0,3.232,2.62,5.852,5.853,5.852c3.232,0,5.852-2.619,5.852-5.852c0-0.664-0.116-1.301-0.32-1.896l17.672,0.188
		c-0.165,0.541-0.255,1.114-0.255,1.708c0,3.232,2.62,5.852,5.852,5.852c3.232,0,5.852-2.619,5.852-5.852
		c0-0.551-0.081-1.083-0.224-1.589l2.585,0.028h0.026c0.965,0,1.867-0.407,2.479-1.115c0.589-0.684,0.84-1.553,0.705-2.446
		C57.553,42.542,56.501,39.905,55.691,38.185z M41.967,35.464l-10.549,2.1c-0.463,0.089-0.848,0.401-1.029,0.837l-2.012,4.806
		h-7.184l-2.007-4.5l7.746-9.693l2.851,1.653c0.155,0.09,0.327,0.133,0.494,0.133c0.341,0,0.674-0.177,0.858-0.492
		c0.273-0.473,0.112-1.078-0.359-1.352l-6.593-3.824c-0.475-0.276-1.078-0.113-1.352,0.359c-0.273,0.472-0.112,1.077,0.359,1.352
		l2.027,1.175l-6.935,8.662l-1.071-2.401c-0.16-0.354-0.464-0.63-0.84-0.759l-0.447-0.148l13.22-20.335
		c1.329-0.146,4.324-0.442,6.953-0.442c1.208,0,2.201,0.062,2.949,0.183c2.076,0.332,3.633,0.778,4.542,1.08L41.967,35.464z"/>
</g>
</svg>
