<?xml version="1.0" encoding="iso-8859-1"?>
<!-- Generator: Adobe Illustrator 18.0.0, SVG Export Plug-In . SVG Version: 6.00 Build 0)  -->
<!DOCTYPE svg PUBLIC "-//W3C//DTD SVG 1.1//EN" "http://www.w3.org/Graphics/SVG/1.1/DTD/svg11.dtd">
<svg version="1.1" id="Capa_1" xmlns="http://www.w3.org/2000/svg" xmlns:xlink="http://www.w3.org/1999/xlink" x="0px" y="0px"
	 viewBox="0 0 59.978 59.978" style="enable-background:new 0 0 59.978 59.978;" xml:space="preserve">
<g>
	<path d="M41.626,43.881c-0.525-0.173-1.09,0.113-1.263,0.638s0.112,1.09,0.638,1.263c0.073,0.024,0.138,0.06,0.206,0.092
		c-2.548,2.255-5.807,3.496-9.198,3.429c-3.105-0.041-6.035-1.12-8.41-3.055c0.089,0.016,0.179,0.031,0.267,0.061
		c0.527,0.17,1.091-0.114,1.264-0.637c0.173-0.524-0.112-1.09-0.637-1.263c-0.999-0.33-2.064-0.252-2.999,0.223
		c-0.937,0.473-1.634,1.282-1.963,2.28c-0.173,0.524,0.112,1.09,0.638,1.263c0.104,0.034,0.209,0.05,0.313,0.05
		c0.42,0,0.812-0.267,0.95-0.688c0.045-0.136,0.106-0.262,0.177-0.382c2.841,2.62,6.486,4.097,10.375,4.147
		c0.07,0.001,0.141,0.001,0.212,0.001c3.746,0,7.291-1.327,10.124-3.744c0.007,0.218-0.017,0.44-0.089,0.659
		c-0.173,0.524,0.112,1.09,0.638,1.263c0.104,0.034,0.209,0.05,0.313,0.05c0.42,0,0.812-0.267,0.95-0.688
		c0.328-0.997,0.249-2.063-0.224-2.999S42.624,44.21,41.626,43.881z"/>
	<path d="M40.328,26.998c0.27,0,0.52-0.11,0.71-0.29c0.18-0.19,0.29-0.45,0.29-0.71s-0.11-0.521-0.29-0.71
		c-0.38-0.37-1.04-0.37-1.42,0c-0.181,0.189-0.29,0.45-0.29,0.71s0.109,0.52,0.29,0.71C39.808,26.888,40.068,26.998,40.328,26.998z"
		/>
	<path d="M39.828,33.165c3.032,0,5.5-2.468,5.5-5.5s-2.468-5.5-5.5-5.5s-5.5,2.468-5.5,5.5S36.796,33.165,39.828,33.165z
		 M39.828,24.165c1.93,0,3.5,1.57,3.5,3.5s-1.57,3.5-3.5,3.5s-3.5-1.57-3.5-3.5S37.899,24.165,39.828,24.165z"/>
	<path d="M22.328,29.998c0.27,0,0.53-0.11,0.7-0.29c0.189-0.19,0.3-0.44,0.3-0.71c0-0.271-0.11-0.521-0.29-0.71
		c-0.37-0.37-1.04-0.37-1.42,0c-0.19,0.189-0.29,0.439-0.29,0.71c0,0.26,0.109,0.52,0.29,0.71
		C21.808,29.888,22.058,29.998,22.328,29.998z"/>
	<path d="M26.003,28.498c0-3.032-2.468-5.5-5.5-5.5s-5.5,2.468-5.5,5.5s2.468,5.5,5.5,5.5S26.003,31.53,26.003,28.498z
		 M17.003,28.498c0-1.93,1.57-3.5,3.5-3.5s3.5,1.57,3.5,3.5s-1.57,3.5-3.5,3.5S17.003,30.428,17.003,28.498z"/>
	<path d="M32.988,41.917c-1.667,0.29-3.576-0.182-4.439-1.083c-0.014-0.017-0.076-0.09-0.09-0.104
		c-0.367-0.396-0.957-0.402-1.366-0.048c-0.407,0.354-0.436,0.997-0.095,1.416l0.109,0.125c1.072,1.116,2.955,1.778,4.873,1.778
		c0.448,0,0.899-0.036,1.342-0.111c1.689-0.287,2.919-1.098,3.462-2.282c0.691-1.509,0.72-3.017,0.083-4.36
		c-1.055-2.225-3.698-3.609-5.821-4.164c-1.011-0.264-2.734-0.188-3.544,0.157c-0.508,0.216-0.745,0.803-0.528,1.312
		c0.216,0.508,0.803,0.745,1.312,0.528c0.339-0.144,1.608-0.232,2.256-0.062c1.736,0.453,3.807,1.583,4.519,3.085
		c0.387,0.815,0.356,1.688-0.094,2.67C34.711,41.331,33.99,41.748,32.988,41.917z"/>
	<circle cx="45.328" cy="38.998" r="1"/>
	<circle cx="41.328" cy="35.998" r="1"/>
	<circle cx="46.328" cy="34.998" r="1"/>
	<circle cx="14.722" cy="34.894" r="1"/>
	<circle cx="19.124" cy="37.265" r="1"/>
	<circle cx="14.328" cy="38.998" r="1"/>
	<path d="M56.27,18.841c-0.563-4.081-2.323-7.604-4.825-9.668c-0.644-0.53-1.115-1.365-1.402-2.479
		c-0.826-3.208-3.847-5.451-7.694-5.715c-2.138-0.151-3.994,0.518-6.028,1.331c-0.071,0.029-0.154,0.027-0.277-0.05
		c-0.416-1.106-1.36-1.867-2.658-2.143c-3.015-0.631-7.637,1.311-11.353,4.692c0.006-0.891,0.191-1.687,0.695-1.938l1.686-0.843
		L22.77,1.106c-1.738-0.977-5.926-2.037-9.334,0.945c-1.239,1.084-2.138,2.598-2.599,4.377c-0.095,0.364-0.191,0.755-0.277,1.139
		c-0.038,0.167-0.175,0.218-0.231,0.231c-0.105,0.027-0.196-0.001-0.298-0.121C9.495,7.023,8.683,6.699,7.86,6.818
		C7.065,6.93,6.399,7.439,6.079,8.18c-1.968,4.567-5.65,16.191,2.2,26.139v16.658c0,2.757,2.243,5,5,5h4v1.695
		c0,1.271,1.034,2.305,2.305,2.305h23.39c1.271,0,2.306-1.034,2.306-2.305v-1.695h2c2.757,0,5-2.243,5-5V34.372
		C53.451,33.054,57.503,27.761,56.27,18.841z M7.915,8.972c0.017-0.037,0.064-0.15,0.223-0.173c0.051-0.004,0.214-0.015,0.394,0.202
		c0.553,0.661,1.422,0.945,2.268,0.74c0.862-0.209,1.519-0.874,1.712-1.735c0.082-0.362,0.173-0.731,0.262-1.076
		c0.36-1.389,1.045-2.556,1.979-3.373c2.096-1.834,4.415-1.596,5.801-1.195c-0.5,0.948-0.648,2.279-0.419,3.91
		c0.074,0.539,0.44,0.979,0.955,1.151c0.523,0.174,1.092,0.037,1.481-0.357c3.806-3.865,8.201-5.458,10.398-4.99
		c0.941,0.199,1.138,0.72,1.201,0.89c0.197,0.525,0.596,0.942,1.122,1.174c0.558,0.246,1.203,0.255,1.77,0.029
		c1.867-0.747,3.437-1.311,5.149-1.192c2.366,0.161,5.156,1.354,5.894,4.217c0.396,1.532,1.091,2.718,2.067,3.523
		c1.003,0.827,3.412,3.301,4.117,8.398c0.768,5.555-0.699,9.517-2.01,11.811V18.978v-1.747l-1.507,0.885
		C48.314,19.56,46.167,20,44.387,19.43c-0.277-0.089-0.534-0.2-0.772-0.326c-0.16-0.085-0.3-0.184-0.443-0.28
		c-0.07-0.047-0.15-0.087-0.216-0.136c-0.164-0.122-0.308-0.251-0.448-0.38c-0.031-0.029-0.07-0.056-0.1-0.085
		c-0.151-0.146-0.283-0.292-0.405-0.434c-0.011-0.013-0.026-0.027-0.037-0.04c-0.499-0.596-0.739-1.103-0.764-1.156
		c-0.001-0.001-0.006-0.011-0.006-0.011l-0.22-0.508l-0.546-0.084c-9.6-1.479-14.262,2.537-15.57,3.94
		c-6.965-0.755-9.986-2.757-10.013-2.774l-0.74-0.513l-0.587,0.683c-0.39,0.453-0.795,0.85-1.201,1.198
		c-1.221,1.045-2.462,1.649-3.387,1.99l-0.653,0.241v0.697v9.368C3.377,22.632,5.842,13.783,7.915,8.972z M43.279,57.673
		c0,0.168-0.137,0.305-0.306,0.305h-23.39c-0.168,0-0.305-0.137-0.305-0.305v-1.695h24V57.673z M50.279,50.978c0,1.654-1.346,3-3,3
		h-2h-28h-4c-1.654,0-3-1.346-3-3V36.789V22.128c1.23-0.532,2.767-1.422,4.196-2.885c1.407,0.73,4.807,2.158,10.707,2.729
		l0.562,0.05l0.337-0.448c0.156-0.207,3.895-4.987,13.55-3.68c0.516,0.89,1.797,2.672,4.112,3.429
		c1.952,0.638,4.145,0.403,6.536-0.694v15.719V50.978z"/>
</g>
<g>
</g>
<g>
</g>
<g>
</g>
<g>
</g>
<g>
</g>
<g>
</g>
<g>
</g>
<g>
</g>
<g>
</g>
<g>
</g>
<g>
</g>
<g>
</g>
<g>
</g>
<g>
</g>
<g>
</g>
</svg>
