<?xml version="1.0" encoding="iso-8859-1"?>
<!-- Generator: Adobe Illustrator 18.0.0, SVG Export Plug-In . SVG Version: 6.00 Build 0)  -->
<!DOCTYPE svg PUBLIC "-//W3C//DTD SVG 1.1//EN" "http://www.w3.org/Graphics/SVG/1.1/DTD/svg11.dtd">
<svg version="1.1" id="Capa_1" xmlns="http://www.w3.org/2000/svg" xmlns:xlink="http://www.w3.org/1999/xlink" x="0px" y="0px"
	 viewBox="0 0 92.85 88.396" style="enable-background:new 0 0 92.85 88.396;" preserveAspectRatio="fit">
<g>
	<path d="M56.731,56.595c0.547,1.079,0.825,2.22,0.825,3.393c0,1.98-0.718,3.029-2.561,3.74c-2.146,0.828-5.368,0.956-8.556,0.961
		c-0.064,0-0.128,0-0.192,0c-3.25,0-6.559-0.117-8.748-0.961c-1.843-0.711-2.561-1.76-2.561-3.74c0-1.153,0.268-2.277,0.798-3.34
		l-3.874-1.93c-0.831,1.668-1.252,3.441-1.252,5.27c0,3.743,1.844,6.432,5.331,7.778c2.85,1.1,6.638,1.252,10.306,1.252
		c0.064,0,0.128,0,0.192,0c3.608-0.006,7.314-0.171,10.114-1.251c3.488-1.346,5.331-4.036,5.331-7.778
		c0-1.86-0.435-3.66-1.293-5.352L56.731,56.595z"/>
	<path d="M46.246,61.904c0.064,0,0.128-0.003,0.192-0.005c3.455-0.108,6.226-3.085,6.226-5.948c0-2.863-2.77-3.242-6.226-3.255
		c-0.064,0-0.128-0.001-0.192-0.001c-3.545,0-6.418,0.34-6.418,3.256S42.701,61.904,46.246,61.904z"/>
	<path d="M79.602,22.607c-3.376-1.03-6.867-2.095-10.197-4.9c-3.22-2.712-7.29-4.744-12.11-6.046
		c-1.685-3.85-4.789-6.371-4.932-6.486l-5.924-4.754L45.913,0l0.525,1.305l2.562,6.366c0.281,0.697,0.324,1.219,0.193,1.786
		c-0.823-0.853-1.743-1.599-2.756-2.235c-0.979-0.615-2.045-1.128-3.195-1.534c-2.522-0.892-4.93-1.08-6.506-1.08
		c-1.163,0-1.915,0.101-1.997,0.112L22.764,6.401L34.58,8.978c1.075,0.235,2.056,1.2,2.809,2.217
		c-4.404,0.978-9.683,2.867-14.012,6.513c-3.326,2.802-6.824,3.864-10.206,4.89c-4.79,1.454-9.743,2.957-11.888,9.529
		c-1.807,5.536-1.705,9.748,0.304,12.517c1.351,1.862,3.522,2.98,6.183,3.205c-0.044,2.111,0.153,5.31,1.292,8.824
		c1.161,3.579,3.059,6.757,5.642,9.444c1.616,1.682,3.501,3.166,5.635,4.445c0.675,1.4,5.043,10.732,5.043,17.76h4.329
		c0-5.076-1.872-10.935-3.45-14.972c0.286,0.104,2.017,0.822,2.511,1.073c1.13,1.772,4.516,7.741,4.516,13.974h4.329
		c0-3.827-1.053-7.49-2.258-10.431c3.371,1.722,6.304,2.79,11.034,2.79c0.016,0,0.031,0,0.047,0
		c4.555-0.007,8.071-1.085,11.635-2.82c-0.934,2.831-1.782,6.493-1.782,10.461h4.328c0-6.79,2.971-12.756,3.541-13.839
		c0.181-0.107,2.292-1.182,2.642-1.312c-1.159,4.003-2.581,9.955-2.581,15.076h4.328c0-6.634,2.789-15.265,3.578-17.575
		c2.264-1.32,4.253-2.866,5.948-4.63c2.583-2.687,4.481-5.864,5.642-9.444c1.132-3.489,1.333-6.667,1.293-8.778
		c2.721-0.181,4.935-1.292,6.292-3.174c1.994-2.768,2.058-7.01,0.19-12.607C89.311,25.569,84.375,24.064,79.602,22.607z
		 M8.888,43.563c-0.032,0.001-0.065,0.001-0.099,0.001c-1.204,0-2.823-0.253-3.699-1.461c-0.369-0.509-0.603-1.185-0.705-2.006
		c0.456-0.899,1.069-1.464,1.913-1.764c1.416-0.504,3.251-0.185,4.669,0.252L8.888,43.563z M79.603,55.338
		c-0.957,2.951-2.52,5.569-4.645,7.779c-2.734,2.843-6.024,4.425-9.549,6.017c-6.261,2.828-11.87,7.271-18.971,7.292
		c-0.016,0-0.031,0-0.047,0c-5.591,0.001-14.436-4.704-19.215-7.293c-4.501-2.439-5.613-2.17-9.272-5.934
		c-2.125-2.186-3.696-4.774-4.67-7.693c-1.277-3.828-1.196-7.267-1.077-8.743l0.072,0.03l4.35-10.416l-1.777-0.914
		c-0.139-0.071-1.408-0.712-3.183-1.192c-2.421-0.655-4.582-0.697-6.433-0.128c0.067-0.221,0.136-0.445,0.211-0.672
		c1.446-4.428,4.463-5.344,9.031-6.73c0.631-0.191,1.276-0.388,1.933-0.598c-1.23,1.848-2.303,3.878-2.886,5.937l4.164,1.181
		c0.884-3.117,3.321-6.326,5.374-8.617c1.336,0.356,3.927,1.115,6.657,2.29c0.136,0.059,0.271,0.118,0.404,0.177
		c-2.189,0.311-4.41,1.953-5.702,4.283c-1.369,2.469-1.368,5.144,0.003,7.339c0.629,1.007,0.795,2.62,0.955,4.179
		c0.156,1.516,0.317,3.083,0.935,4.392c0.877,1.857,2.482,2.839,4.639,2.839c0.335,0,0.69-0.024,1.056-0.072
		c1.804-0.235,3.547-1.09,5.146-2.507c-0.326,0.808-0.695,1.529-1.107,2.153l3.612,2.385c1.882-2.85,3.022-6.835,3.389-11.844
		c0.156-2.133,0.396-4.564,0.046-6.684c-0.08-0.485-0.228-0.946-0.442-1.381c-1.517-3.586-5.314-6.702-11.291-9.264
		c-1.906-0.817-3.725-1.443-5.173-1.89c0.008-0.007,0.016-0.013,0.024-0.02c4.621-3.893,10.672-5.473,14.934-6.113l2.722-0.409
		l-1.04-2.549c-0.095-0.234-0.484-1.144-1.17-2.249c1.684,0.568,3.412,1.537,4.826,3.16c0.22,0.253,0.433,0.52,0.637,0.805
		l0.588,0.826l1.011,0.076c0.446,0.034,0.902,0.076,1.355,0.126l1.569,0.172l0.643-1.441c0.08-0.18,0.164-0.359,0.247-0.537
		c0.09-0.192,0.183-0.392,0.276-0.601c0.337,0.583,0.639,1.217,0.865,1.888l0.381,1.133l1.162,0.281
		c4.62,1.116,8.45,2.929,11.388,5.387c-1.48,0.45-3.385,1.098-5.384,1.955c-5.977,2.562-9.774,5.678-11.291,9.264
		c-0.214,0.436-0.361,0.896-0.442,1.381c-0.35,2.12-0.111,4.551,0.045,6.684c0.367,5.009,1.508,8.994,3.389,11.844l3.612-2.385
		c-0.412-0.624-0.782-1.345-1.107-2.153c1.599,1.417,3.342,2.272,5.146,2.507c0.366,0.048,0.721,0.072,1.056,0.072
		c2.158,0,3.762-0.982,4.64-2.839c0.618-1.308,0.779-2.876,0.935-4.392c0.16-1.559,0.326-3.172,0.956-4.179
		c1.371-2.195,1.372-4.87,0.003-7.339c-1.292-2.33-3.512-3.972-5.702-4.283c0.133-0.059,0.268-0.118,0.404-0.177
		c2.915-1.255,5.672-2.035,6.911-2.357c2.065,2.295,4.542,5.536,5.434,8.684l4.164-1.181c-0.581-2.05-1.647-4.073-2.872-5.914
		c0.638,0.205,1.266,0.397,1.879,0.584c4.561,1.391,7.573,2.31,9.051,6.736c0.066,0.197,0.127,0.39,0.187,0.582
		c-4.219-1.145-8.819,1.123-9.351,1.397l-1.777,0.914l4.129,9.887C80.699,47.267,81.01,51,79.603,55.338z M33.071,34.056
		l-1.288,0.052l-0.568,1.157c-0.099,0.201-0.959,2.03-0.828,4.429c0.088,1.616,0.637,3.699,2.455,5.608
		c-0.485,0.253-0.967,0.415-1.438,0.476c-0.182,0.024-0.349,0.036-0.498,0.036c-0.556,0-0.613-0.12-0.726-0.36
		c-0.302-0.639-0.425-1.833-0.544-2.987c-0.201-1.955-0.429-4.17-1.59-6.029c-0.667-1.068-0.308-2.192,0.111-2.948
		c0.762-1.375,2.034-2.108,2.659-2.108c0.032,0,0.061,0.002,0.087,0.006l0.078,0.012l0.076,0.007
		c2.116,0.179,4.687,0.636,6.566,1.662c1.015,0.554,1.1,1.126,1.142,2.22C36.414,33.972,33.46,34.04,33.071,34.056z M37.362,40.013
		c-0.388,0.793-0.847,1.583-1.372,2.321c-0.764-0.799-1.184-1.705-1.272-2.736c-0.034-0.402-0.013-0.781,0.033-1.115
		c0.868,0.13,1.817,0.397,2.309,0.878C37.201,39.497,37.332,39.673,37.362,40.013z M61.277,35.264l-0.568-1.157l-1.288-0.052
		c-0.389-0.016-3.343-0.084-5.695,1.234c0.042-1.094,0.127-1.666,1.142-2.22c1.879-1.026,4.45-1.483,6.566-1.662L61.51,31.4
		l0.078-0.012c0.026-0.004,0.055-0.006,0.087-0.006c0.625,0,1.896,0.732,2.659,2.108c0.419,0.755,0.778,1.88,0.111,2.948
		c-1.161,1.858-1.389,4.074-1.59,6.029c-0.119,1.154-0.242,2.347-0.544,2.987c-0.113,0.239-0.17,0.36-0.726,0.36
		c-0.149,0-0.317-0.012-0.498-0.036c-0.471-0.061-0.953-0.222-1.438-0.476c1.818-1.91,2.367-3.992,2.455-5.608
		C62.236,37.294,61.375,35.465,61.277,35.264z M57.773,39.597c-0.087,1.031-0.507,1.937-1.272,2.736
		c-0.525-0.738-0.984-1.527-1.372-2.321c0.03-0.34,0.161-0.516,0.301-0.653c0.493-0.481,1.441-0.747,2.309-0.878
		C57.786,38.817,57.807,39.196,57.773,39.597z M87.793,42.19c-0.835,1.159-2.407,1.402-3.579,1.402c-0.021,0-0.042,0-0.062,0
		l-2.091-5.007c1.419-0.437,3.254-0.756,4.669-0.252c0.764,0.272,1.339,0.76,1.779,1.517C88.444,40.828,88.206,41.618,87.793,42.19z
		"/>
</g>
<g>
</g>
<g>
</g>
<g>
</g>
<g>
</g>
<g>
</g>
<g>
</g>
<g>
</g>
<g>
</g>
<g>
</g>
<g>
</g>
<g>
</g>
<g>
</g>
<g>
</g>
<g>
</g>
<g>
</g>
</svg>
