<?xml version="1.0" encoding="iso-8859-1"?>
<!-- Generator: Adobe Illustrator 17.1.0, SVG Export Plug-In . SVG Version: 6.00 Build 0)  -->
<!DOCTYPE svg PUBLIC "-//W3C//DTD SVG 1.1//EN" "http://www.w3.org/Graphics/SVG/1.1/DTD/svg11.dtd">
<svg version="1.1" id="Capa_1" xmlns="http://www.w3.org/2000/svg" xmlns:xlink="http://www.w3.org/1999/xlink" x="0px" y="0px"
	 viewBox="0 0 214.5 214.5" style="enable-background:new 0 0 214.5 214.5;" xml:space="preserve">
<path d="M107.25,214.5c-34.384,0-62.357-27.973-62.357-62.357v-54.41c0-0.033,0-0.065,0-0.098V62.357
	C44.893,27.973,72.866,0,107.25,0s62.357,27.973,62.357,62.357v89.786c0,3.215-0.245,6.374-0.716,9.459
	c-0.008,0.082-0.021,0.163-0.038,0.244C164.18,191.639,138.335,214.5,107.25,214.5z M49.893,101.858v50.285
	c0,31.627,25.73,57.357,57.357,57.357c28.023,0,51.417-20.201,56.384-46.805l-55.749-29.818c-0.032-0.016-0.063-0.033-0.095-0.051
	L49.893,101.858z M114.174,130.57l50.192,26.847c0.159-1.737,0.24-3.496,0.24-5.274v-50.542L114.174,130.57z M49.893,96.188
	l59.083,31.602l55.631-31.955V62.357C164.607,30.73,138.877,5,107.25,5S49.893,30.73,49.893,62.357V96.188z M107.25,100.186
	c-20.995,0-38.076-17.081-38.076-38.075c0-20.995,17.081-38.076,38.076-38.076s38.076,17.081,38.076,38.076
	C145.326,83.105,128.245,100.186,107.25,100.186z M107.25,29.035c-18.238,0-33.076,14.838-33.076,33.076
	s14.838,33.075,33.076,33.075s33.076-14.837,33.076-33.075S125.488,29.035,107.25,29.035z M107.203,88.06
	c-5.919,0-10.735-4.816-10.735-10.735s4.816-10.735,10.735-10.735s10.735,4.815,10.735,10.735S113.123,88.06,107.203,88.06z
	 M107.203,71.59c-3.163,0-5.735,2.573-5.735,5.735c0,3.163,2.573,5.735,5.735,5.735c3.162,0,5.735-2.573,5.735-5.735
	C112.938,74.163,110.365,71.59,107.203,71.59z M128.848,55.304c-0.853,0-1.682-0.436-2.148-1.218
	c-0.081-0.126-1.249-1.888-3.767-1.888c-2.488,0-3.578,1.673-3.694,1.863c-0.708,1.165-2.231,1.569-3.409,0.88
	c-1.177-0.687-1.599-2.17-0.933-3.359c0.912-1.628,3.63-4.384,8.036-4.384c4.387,0,7.141,2.736,8.077,4.353
	c0.692,1.195,0.284,2.725-0.911,3.416C129.703,55.196,129.273,55.304,128.848,55.304z M97.891,55.304
	c-0.853,0-1.682-0.436-2.148-1.218c-0.081-0.126-1.25-1.888-3.767-1.888c-2.488,0-3.578,1.673-3.694,1.863
	c-0.708,1.165-2.231,1.569-3.409,0.88c-1.177-0.687-1.599-2.17-0.933-3.359c0.912-1.628,3.63-4.384,8.036-4.384
	c4.387,0,7.141,2.736,8.077,4.353c0.692,1.195,0.284,2.725-0.911,3.416C98.747,55.196,98.316,55.304,97.891,55.304z"/>
<g>
</g>
<g>
</g>
<g>
</g>
<g>
</g>
<g>
</g>
<g>
</g>
<g>
</g>
<g>
</g>
<g>
</g>
<g>
</g>
<g>
</g>
<g>
</g>
<g>
</g>
<g>
</g>
<g>
</g>
</svg>
