<?xml version="1.0" encoding="iso-8859-1"?>
<!-- Generator: Adobe Illustrator 19.0.0, SVG Export Plug-In . SVG Version: 6.00 Build 0)  -->
<svg version="1.1" id="Capa_1" xmlns="http://www.w3.org/2000/svg" xmlns:xlink="http://www.w3.org/1999/xlink" x="0px" y="0px"
	 viewBox="0 0 463 463" style="enable-background:new 0 0 463 463;" xml:space="preserve">
<g>
	<path d="M447.5,148h-13.958L299.303,69.036c-2.192-1.29-4.884-1.381-7.157-0.244l-80,40c-0.008,0.004-0.016,0.009-0.024,0.013
		L170.219,92.51c-1.797-0.698-3.792-0.679-5.574,0.055L30.017,148H15.5C6.953,148,0,154.953,0,163.5v16
		c0,6.295,3.778,11.715,9.182,14.14l30.997,139.487C40.941,336.559,43.984,339,47.5,339h9.277c-0.501,2.76-0.777,5.598-0.777,8.5
		c0,26.191,21.309,47.5,47.5,47.5c20.765,0,38.448-13.399,44.889-32h166.221c6.442,18.601,24.125,32,44.889,32
		c26.191,0,47.5-21.309,47.5-47.5c0-2.902-0.276-5.74-0.777-8.5h9.277c3.516,0,6.559-2.441,7.321-5.873l30.997-139.487
		c5.403-2.424,9.182-7.844,9.182-14.14v-16C463,154.953,456.047,148,447.5,148z M295.21,84.031L403.958,148h-91.05l-81.921-31.858
		L295.21,84.031z M167.58,107.578L271.521,148H69.412L167.58,107.578z M15,163.5c0-0.276,0.225-0.5,0.5-0.5h432
		c0.275,0,0.5,0.224,0.5,0.5v16c0,0.276-0.225,0.5-0.5,0.5h-432c-0.275,0-0.5-0.224-0.5-0.5V163.5z M103.5,380
		c-17.921,0-32.5-14.58-32.5-32.5S85.579,315,103.5,315s32.5,14.58,32.5,32.5S121.421,380,103.5,380z M150.987,348
		c0.002-0.167,0.013-0.332,0.013-0.5c0-2.902-0.276-5.74-0.777-8.5h162.554c-0.501,2.76-0.777,5.598-0.777,8.5
		c0,0.168,0.011,0.333,0.013,0.5H150.987z M359.5,380c-17.921,0-32.5-14.58-32.5-32.5s14.579-32.5,32.5-32.5s32.5,14.58,32.5,32.5
		S377.421,380,359.5,380z M409.483,324h-8.73c-8.19-14.321-23.608-24-41.253-24s-33.063,9.679-41.253,24H144.753
		c-8.19-14.321-23.608-24-41.253-24s-33.063,9.679-41.253,24h-8.73L24.85,195H438.15L409.483,324z"/>
	<path d="M103.5,333c-7.995,0-14.5,6.505-14.5,14.5s6.505,14.5,14.5,14.5s14.5-6.505,14.5-14.5S111.495,333,103.5,333z"/>
	<path d="M359.5,333c-7.995,0-14.5,6.505-14.5,14.5s6.505,14.5,14.5,14.5s14.5-6.505,14.5-14.5S367.495,333,359.5,333z"/>
	<path d="M217.282,307c0.057,0,0.113,0,0.17-0.002c4.142-0.092,7.424-3.524,7.331-7.666l-1.785-80
		c-0.093-4.141-3.54-7.461-7.665-7.331c-4.142,0.092-7.424,3.524-7.331,7.666l1.785,80C209.878,303.752,213.218,307,217.282,307z"/>
	<path d="M245.548,306.998c0.057,0.001,0.113,0.002,0.17,0.002c4.064,0,7.404-3.249,7.495-7.333l1.785-80
		c0.093-4.141-3.189-7.573-7.331-7.666c-4.113-0.123-7.573,3.189-7.665,7.331l-1.785,80
		C238.124,303.474,241.406,306.906,245.548,306.998z"/>
	<path d="M301.742,306.954c0.283,0.032,0.563,0.047,0.842,0.047c3.769,0,7.017-2.835,7.444-6.669l8.926-80
		c0.459-4.117-2.506-7.826-6.622-8.285c-4.113-0.457-7.826,2.505-8.286,6.622l-8.926,80
		C294.661,302.786,297.626,306.495,301.742,306.954z"/>
	<path d="M362.776,282.857c0.498,0.1,0.995,0.148,1.484,0.148c3.499,0,6.63-2.462,7.346-6.025l11.247-56.004
		c0.815-4.061-1.815-8.014-5.877-8.83c-4.057-0.815-8.014,1.815-8.83,5.876l-11.247,56.004
		C356.084,278.089,358.715,282.042,362.776,282.857z"/>
	<path d="M389.712,291.97c0.601,0.147,1.202,0.218,1.794,0.218c3.373,0,6.438-2.292,7.278-5.714l16-65.186
		c0.987-4.022-1.474-8.084-5.496-9.071c-4.024-0.988-8.084,1.473-9.072,5.496l-16,65.186
		C383.229,286.921,385.689,290.983,389.712,291.97z"/>
	<path d="M273.644,306.984c0.171,0.011,0.34,0.017,0.509,0.017c3.913,0,7.21-3.037,7.476-7l5.355-80
		c0.276-4.133-2.85-7.708-6.982-7.984c-4.128-0.271-7.707,2.849-7.984,6.982l-5.355,80
		C266.385,303.132,269.511,306.707,273.644,306.984z"/>
	<path d="M332.347,290.908c0.392,0.061,0.781,0.091,1.166,0.091c3.632,0,6.823-2.643,7.401-6.344l9.996-63.997
		c0.64-4.092-2.16-7.928-6.253-8.567c-4.087-0.64-7.928,2.16-8.567,6.253l-9.996,63.997
		C325.454,286.432,328.254,290.268,332.347,290.908z"/>
	<path d="M91.393,276.974c0.716,3.563,3.846,6.025,7.346,6.025c0.489,0,0.986-0.048,1.484-0.148c4.062-0.815,6.692-4.769,5.877-8.83
		l-11.246-55.998c-0.815-4.061-4.771-6.693-8.83-5.876c-4.062,0.815-6.692,4.769-5.877,8.83L91.393,276.974z"/>
	<path d="M152.972,300.332c0.428,3.834,3.675,6.669,7.444,6.669c0.278,0,0.559-0.015,0.842-0.047
		c4.116-0.459,7.081-4.168,6.622-8.285l-8.926-80c-0.459-4.117-4.169-7.083-8.286-6.622c-4.116,0.459-7.081,4.168-6.622,8.285
		L152.972,300.332z"/>
	<path d="M181.372,300.001c0.266,3.962,3.562,7,7.476,7c0.169,0,0.339-0.006,0.509-0.017c4.133-0.277,7.259-3.852,6.982-7.984
		l-5.355-80c-0.277-4.134-3.874-7.255-7.984-6.982c-4.133,0.277-7.259,3.852-6.982,7.984L181.372,300.001z"/>
	<path d="M48.216,221.288l16.012,65.233c0.841,3.423,3.905,5.714,7.278,5.714c0.592,0,1.193-0.071,1.794-0.218
		c4.022-0.987,6.483-5.049,5.496-9.071l-16.012-65.233c-0.988-4.024-5.051-6.485-9.072-5.496
		C49.689,213.204,47.229,217.266,48.216,221.288z"/>
	<path d="M122.086,284.655c0.578,3.701,3.77,6.344,7.401,6.344c0.384,0,0.774-0.03,1.166-0.091c4.093-0.639,6.893-4.475,6.253-8.567
		l-9.996-63.997c-0.64-4.092-4.473-6.894-8.567-6.253c-4.093,0.639-6.893,4.475-6.253,8.567L122.086,284.655z"/>
</g>
<g>
</g>
<g>
</g>
<g>
</g>
<g>
</g>
<g>
</g>
<g>
</g>
<g>
</g>
<g>
</g>
<g>
</g>
<g>
</g>
<g>
</g>
<g>
</g>
<g>
</g>
<g>
</g>
<g>
</g>
</svg>
