<?xml version="1.0" encoding="utf-8"?>
<!-- Generator: Adobe Illustrator 16.0.4, SVG Export Plug-In . SVG Version: 6.00 Build 0)  -->
<!DOCTYPE svg PUBLIC "-//W3C//DTD SVG 1.1//EN" "http://www.w3.org/Graphics/SVG/1.1/DTD/svg11.dtd">
<svg version="1.1" id="Capa_1" xmlns="http://www.w3.org/2000/svg" xmlns:xlink="http://www.w3.org/1999/xlink" x="0px" y="0px"
	 width="512px" height="512px" viewBox="0 0 512 512" enable-background="new 0 0 512 512" preserveAspectRatio="fit">
<path d="M256,512c141.385,0,256-114.615,256-256S397.385,0,256,0S0,114.615,0,256S114.615,512,256,512z M256,48
	c114.875,0,208,93.125,208,208s-93.125,208-208,208S48,370.875,48,256S141.125,48,256,48z M96,256v32c0,70.4,57.6,128,128,128h64
	c70.4,0,128-57.6,128-128v-32H96z M192,378.494c-13.269-4.729-25.462-12.411-35.772-22.723C138.025,337.57,128,313.501,128,288h64
	V378.494z M288,384h-64v-96h64V384z M355.772,355.771c-10.312,10.312-22.506,17.994-35.772,22.723V288h64
	C384,313.501,373.976,337.57,355.772,355.771z M112.676,192C112.677,192,112.676,192,112.676,192c4.884,0,9.054-3.528,9.862-8.345
	C125.617,165.313,141.372,152,160,152s34.383,13.313,37.462,31.655c0.808,4.816,4.978,8.345,9.861,8.345
	c4.884,0,9.054-3.528,9.862-8.344c0.541-3.218,0.814-6.467,0.814-9.656c0-31.981-26.019-58-58-58s-58,26.019-58,58
	c0,3.189,0.274,6.438,0.814,9.656C103.623,188.472,107.793,192,112.676,192z M304.676,192C304.677,192,304.676,192,304.676,192
	c4.885,0,9.057-3.528,9.862-8.345C317.617,165.313,333.372,152,352,152s34.383,13.313,37.462,31.655
	c0.808,4.816,4.979,8.345,9.861,8.345s9.054-3.528,9.86-8.344c0.541-3.218,0.814-6.467,0.814-9.656c0-31.981-26.02-58-58-58
	c-31.981,0-58,26.019-58,58c0,3.189,0.271,6.438,0.812,9.656C295.623,188.472,299.793,192,304.676,192z"/>
</svg>
