<?xml version="1.0" encoding="iso-8859-1"?>
<!-- Generator: Adobe Illustrator 16.0.0, SVG Export Plug-In . SVG Version: 6.00 Build 0)  -->
<!DOCTYPE svg PUBLIC "-//W3C//DTD SVG 1.1//EN" "http://www.w3.org/Graphics/SVG/1.1/DTD/svg11.dtd">
<svg version="1.1" id="Capa_1" xmlns="http://www.w3.org/2000/svg" xmlns:xlink="http://www.w3.org/1999/xlink" x="0px" y="0px"
	 width="110.574px" height="110.573px" viewBox="0 0 110.574 110.573" style="enable-background:new 0 0 110.574 110.573;"
	 xml:space="preserve">
<g>
	<g>
		<path id="path3564" d="M104.781,17.266l-6.964-3.722c0,0-10.42-6.57-40.343-6.57h-4.602c-23.595,0-39.421,6.57-39.421,6.57
			l-7.659,3.92c-9.432,4.917-4.506,13.097-4.506,13.097s1.005,1.976,2.242,4.471c1.239,2.494,4.574,3.31,7.453,1.854l15.769-8.008
			c2.88-1.458,4.451-3.95,3.573-5.592c-0.878-1.642-1.812-3.41-1.897-3.98c-0.089-0.567,3.154-1.948,6.228-2.92
			c4.625-1.464,11.537-3.576,18.216-3.576h5.528c0,0,16.777,0.343,23.823,6.348c0.105,0.087,0.196,0.328,0.265,0.363
			c0.162,0.077,0.188,0.264,0.082,0.472c-0.05,0.103-0.111,0.272-0.176,0.436c-0.424,1.042-0.928,2.086-1.411,2.973
			c-0.862,1.585,0.634,4.03,3.489,5.535l14.857,7.834c2.854,1.504,6.238,0.704,7.563-1.793l2.396-4.523
			C109.291,30.46,114.213,22.185,104.781,17.266"/>
		<path id="path3568" d="M55.54,58.804c-6.86,0-12.433,5.582-12.433,12.432c0,6.853,5.575,12.428,12.433,12.428
			c6.859,0,12.428-5.575,12.428-12.428C67.967,64.386,62.394,58.804,55.54,58.804"/>
		<path id="path3570" d="M36.757,69.511c0.271,0.073,0.552,0.114,0.827,0.114c1.446,0,2.714-0.974,3.086-2.372
			c0.455-1.704-0.562-3.458-2.26-3.919c-0.275-0.068-0.551-0.109-0.832-0.109c-1.438,0-2.702,0.977-3.081,2.372
			c-0.222,0.828-0.104,1.688,0.317,2.425C35.246,68.766,35.931,69.297,36.757,69.511"/>
		<path id="path3572" d="M40.348,77.646c0.428-0.734,0.542-1.597,0.323-2.42c-0.375-1.401-1.643-2.375-3.086-2.375
			c-0.277,0-0.556,0.034-0.827,0.109c-1.703,0.461-2.711,2.213-2.256,3.917c0.374,1.394,1.638,2.365,3.074,2.365
			c0.281,0,0.563-0.036,0.836-0.109C39.236,78.911,39.927,78.38,40.348,77.646"/>
		<path id="path3574" d="M51.55,86.104c-0.271-0.068-0.549-0.109-0.825-0.109c-1.443,0-2.711,0.979-3.085,2.37
			c-0.218,0.825-0.103,1.686,0.323,2.425c0.424,0.736,1.116,1.266,1.936,1.482c1.691,0.459,3.469-0.588,3.915-2.256
			c0.224-0.826,0.11-1.684-0.32-2.42C53.063,86.854,52.375,86.332,51.55,86.104"/>
		<path id="path3576" d="M42.398,81.186c-0.852,0-1.656,0.333-2.258,0.933c-1.245,1.246-1.245,3.27,0,4.523
			c1.206,1.202,3.31,1.202,4.518,0c1.244-1.25,1.244-3.275,0-4.523C44.052,81.519,43.251,81.186,42.398,81.186"/>
		<path id="path3578" d="M59.523,56.372c0.271,0.073,0.545,0.105,0.825,0.105c1.448,0,2.722-0.972,3.091-2.368
			c0.449-1.704-0.557-3.458-2.261-3.917c-0.271-0.07-0.55-0.107-0.825-0.107c-1.441,0-2.717,0.977-3.084,2.374
			C56.808,54.159,57.819,55.921,59.523,56.372"/>
		<path id="path3580" d="M70.722,64.83c-0.426,0.739-0.54,1.602-0.316,2.428c0.372,1.391,1.64,2.363,3.079,2.363
			c0.283,0,0.563-0.037,0.835-0.11c0.828-0.226,1.51-0.75,1.937-1.489c0.432-0.736,0.543-1.599,0.326-2.42
			c-0.376-1.398-1.646-2.375-3.089-2.375c-0.278,0-0.561,0.044-0.827,0.109C71.84,63.562,71.152,64.089,70.722,64.83"/>
		<path id="path3582" d="M50.726,56.478c0.278,0,0.554-0.032,0.825-0.105c0.827-0.219,1.513-0.753,1.943-1.489
			c0.43-0.737,0.542-1.604,0.32-2.426c-0.374-1.397-1.642-2.373-3.086-2.373c-0.28,0-0.558,0.04-0.829,0.107
			c-1.703,0.458-2.718,2.213-2.258,3.914C48.012,55.506,49.283,56.478,50.726,56.478"/>
		<path id="path3584" d="M44.656,60.354c0.602-0.611,0.937-1.409,0.934-2.267c0-0.849-0.332-1.654-0.937-2.259
			c-0.605-0.604-1.402-0.935-2.255-0.935c-0.852,0-1.654,0.33-2.258,0.935c-0.603,0.604-0.936,1.41-0.936,2.261
			c0,0.857,0.331,1.66,0.936,2.265C41.341,61.57,43.453,61.566,44.656,60.354"/>
		<path id="path3586" d="M74.322,72.965c-0.273-0.08-0.547-0.114-0.83-0.114c-1.443,0-2.712,0.974-3.084,2.375
			c-0.226,0.823-0.104,1.686,0.317,2.42c0.431,0.734,1.12,1.266,1.943,1.482c0.273,0.078,0.55,0.114,0.828,0.114
			c1.443,0,2.712-0.972,3.084-2.365C77.037,75.168,76.022,73.421,74.322,72.965"/>
		<path id="path3588" d="M71.879,58.092c0-0.849-0.331-1.651-0.938-2.258c-0.607-0.604-1.41-0.936-2.261-0.936
			c-0.855,0-1.661,0.331-2.263,0.936c-1.246,1.245-1.246,3.271,0,4.525c0.602,0.603,1.405,0.929,2.258,0.929
			c0.855,0,1.658-0.331,2.266-0.934C71.548,59.746,71.879,58.945,71.879,58.092"/>
	</g>
	<path d="M103.631,79.84L87.712,41.732c-0.601-1.534-2.445-3.074-4.098-3.074h-6.02V30.22c0-2.721-2.205-4.927-4.927-4.927h-1.576
		c-2.722,0-4.925,2.206-4.925,4.927v8.439H45.485V30.22c0-2.721-2.206-4.927-4.927-4.927h-1.578c-2.722,0-4.926,2.206-4.926,4.927
		v8.439h-6.592c-1.651,0-3.495,1.542-4.094,3.074L7.196,79.799c-0.6,1.535-0.565,4.105,0.087,5.62l7.689,15.215
		c0.649,1.515,2.53,2.966,4.181,2.966h72.774c1.654,0,3.538-1.41,4.188-2.934l7.434-15.092
		C104.193,84.06,104.232,81.377,103.631,79.84z M55.54,96.186c-13.763,0-24.958-11.19-24.958-24.95
		c0-13.759,11.195-24.955,24.958-24.955c13.76,0,24.953,11.196,24.953,24.955C80.49,84.995,69.297,96.186,55.54,96.186z"/>
</g>
<g>
</g>
<g>
</g>
<g>
</g>
<g>
</g>
<g>
</g>
<g>
</g>
<g>
</g>
<g>
</g>
<g>
</g>
<g>
</g>
<g>
</g>
<g>
</g>
<g>
</g>
<g>
</g>
<g>
</g>
</svg>
