<?xml version='1.0' encoding='iso-8859-1'?>
<svg version="1.1" xmlns="http://www.w3.org/2000/svg" viewBox="0 0 295.92 295.92" xmlns:xlink="http://www.w3.org/1999/xlink" enable-background="new 0 0 295.92 295.92">
  <g>
    <g>
      <path d="m240.194,173.836l23.356,16.206c4.544,3.151 10.771,2.019 13.917-2.515 3.148-4.538 2.022-10.769-2.515-13.917l-28.075-19.48c0.142,1.397 0.174,2.823 0.074,4.271-0.414,6.008-2.92,11.373-6.757,15.435z"/>
      <path d="m162.737,252.367h91.183c5.523,0 10-4.478 10-10s-4.478-10-10-10c-10.755,0-82.055,0-91.183,0-5.523,0-10,4.478-10,10-2.84217e-14,5.522 4.478,10 10,10z"/>
      <path d="m285.92,263.867h-229.003c-5.523,0-10,4.478-10,10 0,5.523 4.477,10 10,10h229.003c5.522,0 10-4.477 10-10s-4.478-10-10-10z"/>
      <circle cx="161.587" cy="47.528" r="27.59"/>
      <path d="m176.92,210.367c0-5.522-4.478-10-10-10h-91c-5.522,0-10,4.478-10,10s4.478,10 10,10h91c5.522,0 10-4.478 10-10z"/>
      <path d="m119.5,242.367c0-5.522-4.478-10-10-10-10.095,0-89.736,0-99.5,0-5.523,0-10,4.478-10,10s4.477,10 10,10h99.5c5.522,0 10-4.478 10-10z"/>
      <path d="m25.216,113.959c22.164,15.549 56.386-5.32 76.579-36.154l15.143,10.507c-2.735,2.524-4.752,5.879-5.585,9.796l-19.2,90.258h72.09l2.226-10.463c-8.875-0.613-14.25-5.714-16.004-12.294l-12.509-47.233 23.372,41.048c2.071,3.638 5.825,5.998 10.002,6.286l49.822,3.439c6.965,0.464 12.86-4.782 13.331-11.61 0.475-6.887-4.723-12.855-11.61-13.331l-43.136-2.977-20.057-35.224 22.448,22.859 31.472,2.173-32.901-22.829c-0.305-8.337-6.198-15.723-14.729-17.538l-15.21-3.236-106.074-73.599c-4.539-3.148-10.768-2.023-13.917,2.515-3.053,4.4-2.077,10.383 2.12,13.613-23.112,31.02-28.797,69.181-7.673,83.994zm24.04-72.49l35.928,25.198c-16.694,25.606-40.032,36.845-48.485,30.918-8.425-5.91-5.874-31.655 12.557-56.116z"/>
    </g>
  </g>
</svg>
