<?xml version="1.0" encoding="iso-8859-1"?>
<!-- Generator: Adobe Illustrator 18.1.1, SVG Export Plug-In . SVG Version: 6.00 Build 0)  -->
<svg version="1.1" id="Capa_1" xmlns="http://www.w3.org/2000/svg" xmlns:xlink="http://www.w3.org/1999/xlink" x="0px" y="0px"
	 viewBox="0 0 19.675 19.675" style="enable-background:new 0 0 19.675 19.675;" xml:space="preserve">
<g>
	<path d="M13.958,10.846c-0.078-0.013-0.193,0.014-0.299,0.077c-0.104,0.066-0.533,0.273-0.533,0.273
		c-0.117,0.078,0.248,0.145,0.377,0.157c0.131,0.014,0.17,0.167,0.222,0.183c0.052,0.013,0.104-0.131,0.104-0.131
		s0.145-0.039,0.195-0.052c0.053-0.015,0-0.157,0.012-0.261C14.05,10.989,14.037,10.858,13.958,10.846z M8.378,9.35
		c0,0,0.131,0.021,0.233,0.034c0.104,0.011,0.253,0.004,0.33,0.004c0.08,0,0.229-0.039,0.229-0.039S9.027,9.311,8.897,9.311
		S8.48,9.285,8.378,9.35z M3.772,5.576C3.694,5.458,3.419,5.33,3.159,5.25C2.899,5.172,2.47,5.291,2.47,5.291
		C2.3,5.264,2.456,5.511,2.587,5.522c0.129,0.015,0.142,0.118,0.169,0.17c0.026,0.052,0,0.17,0,0.262c0,0.09,0.169,0.116,0.259,0.09
		c0.093-0.026,0.117-0.037,0.3-0.052c0.089-0.006,0.167-0.028,0.226-0.05c0.129,0.006,0.269,0.006,0.3,0.006
		c0.075,0.029,0.176,0.03,0.176,0.03s-0.026-0.052-0.09-0.13C3.862,5.771,3.849,5.692,3.772,5.576z M9.337,9.089
		C9.234,9.063,9.069,8.937,8.861,8.924C8.652,8.911,8.406,8.98,8.238,9.032c-0.17,0.052-0.251,0.239-0.251,0.239
		s0.116,0,0.182-0.026c0.065-0.026,0.065-0.04,0.13-0.053C8.363,9.179,8.416,9.14,8.571,9.115C8.728,9.09,8.792,9.1,8.975,9.129
		c0.182,0.026,0.298,0.091,0.377,0.13C9.43,9.296,9.508,9.271,9.508,9.271S9.441,9.115,9.337,9.089z M17.563,8.464
		c-0.272-0.013-0.808,0.287-0.808,0.287c-0.076,0.063-0.012,0.246,0.068,0.325c0.074,0.078,0.164,0.337,0.232,0.363
		c0.062,0.024,0.143,0,0.259-0.015c0.116-0.013,0.077-0.091,0.146-0.116c0.063-0.025,0.181-0.065,0.272-0.065
		s0.261-0.026,0.285-0.077c0.151-0.007,0.198-0.025,0.217-0.055l0.002,0.001c0.021,0.012,0.015-0.008,0.011-0.03
		c0.002-0.019,0.002-0.037,0.004-0.062c0.039,0.014,0.131-0.038,0.131-0.038s-0.092-0.143-0.221-0.26
		C18.033,8.607,17.837,8.478,17.563,8.464z M9.743,7.645c-0.025-0.052-0.09-0.13-0.156-0.169c-0.065-0.039-0.141-0.104-0.259-0.13
		C9.21,7.321,9.067,7.282,8.976,7.292C8.884,7.307,8.897,7.321,8.897,7.424c0,0.072,0.047,0.179,0.079,0.238
		c0.006,0.027,0.011,0.053,0.019,0.081c0.042,0.158-0.015,0.215,0.128,0.2c0.005,0,0.013-0.001,0.013-0.001
		C9.2,7.949,9.28,7.958,9.328,7.958c0.078,0,0.037,0,0.156,0c0.116,0,0.09-0.016,0.169,0c0.078,0.015,0.208,0.09,0.208,0.09
		l0.026-0.075L9.833,7.814C9.833,7.814,9.771,7.698,9.743,7.645z M19.226,6.409c-0.352-0.162-0.544,0.063-0.959,0.096
		c-0.416,0.032-0.734,0.032-1.503,0.096c-0.767,0.065-0.96,0.384-1.246,0.672c-0.292,0.288-0.033,1.633-0.033,1.633
		s-0.226,0-0.417,0s-0.383,0.255-0.512,0.255c-0.128,0-0.223-0.225-0.383-0.448c-0.16-0.223-0.286-0.383-0.609-0.415
		c-0.32-0.032-0.734-0.128-1.087-0.16c-0.353-0.032-0.735,0.16-0.927,0.255c-0.192,0.098-0.354,0.098-0.447,0
		c-0.098-0.095-0.384-0.895-0.449-1.12C10.592,7.05,10.111,6.57,9.791,6.346C9.47,6.121,8.862,5.959,8.542,6.056
		c-0.321,0.099-0.32-0.123-1.023,0c-0.505,0.09-1.218,0.705-1.218,0.705S6.11,6.376,5.887,6.154
		C5.663,5.928,5.631,5.352,5.279,4.969c-0.352-0.385-1.038-0.811-1.664-0.96c-0.81-0.194-1.623,0.174-1.878,0.558
		C1.479,4.95,1.153,6.024,1.153,6.281c0,0.255-0.288,0.287-0.385,0.479C0.672,6.952,0.576,8.167,0.609,8.488
		C0.63,8.708,0.244,8.973,0,9.117v6.603h19.675c0,0,0-8.895,0-8.991C19.675,6.63,19.578,6.568,19.226,6.409z M4.89,8.503
		C4.759,8.53,4.695,8.62,4.616,8.607C4.539,8.598,4.371,8.464,4.33,8.387C4.291,8.309,4.031,8.154,4.031,8.154
		S3.914,8.218,3.772,8.295C3.628,8.374,3.419,8.452,3.159,8.4S2.534,8.244,2.431,8.244c-0.104,0-0.404,0.104-0.481,0.118
		C1.87,8.374,1.833,8.27,1.845,8.127C1.86,7.983,1.937,7.973,1.989,7.942C2.041,7.919,2.17,7.839,2.21,7.828
		C2.249,7.814,2.34,7.71,2.34,7.71S2.21,7.66,2.158,7.66c-0.052,0-0.234,0-0.273-0.027c-0.04-0.027,0.027-0.078,0.076-0.13
		c0.053-0.052,0.234-0.12,0.418-0.131C2.56,7.358,2.964,7.358,2.964,7.358s-0.117-0.052-0.3-0.09C2.483,7.229,2.17,7.242,2.17,7.242
		L2.144,7.137c0,0,0.132-0.091,0.184-0.129c0.052-0.04,0.117-0.196,0.117-0.196l0.261-0.013c0,0,0.052-0.052,0.024-0.105
		C2.705,6.643,2.444,6.553,2.3,6.539C2.158,6.523,1.82,6.5,1.82,6.435c0-0.066,0.324-0.988,0.286-1.067
		c-0.039-0.076-0.52,0.025-0.52,0.025S1.69,5.055,1.727,4.95c0.041-0.101,0.248-0.364,0.366-0.455
		c0.117-0.089,0.52-0.283,0.729-0.283s0.337-0.041,0.494,0.011c0.156,0.051,0.729,0.131,0.858,0.249
		c0.131,0.114,0.093,0.258,0.104,0.52C4.291,5.251,4.551,5.655,4.695,5.81c0,0.001,0,0.002,0,0.002
		c0.109,0.46,0.205,0.992,0.09,1.081c-0.207,0.16-0.496,0.305-0.368,0.495c0.127,0.193,0.561,0.496,0.608,0.735
		C5.04,8.196,5.04,8.283,5.034,8.369C4.994,8.437,4.95,8.492,4.89,8.503z M10.394,8.791c-0.053,0.143-0.053,0.207-0.118,0.231
		c-0.063,0.026-0.208,0.026-0.221,0.183s-0.052,0.509-0.077,0.573c-0.026,0.067-0.235,0.276-0.352,0.312
		c-0.117,0.039-0.468-0.011-0.834-0.025C8.429,10.054,8.115,10,7.935,10.039c-0.182,0.04-0.248,0.027-0.351-0.012
		C7.479,9.988,7.089,9.91,6.997,9.505C6.906,9.102,6.933,8.726,6.919,8.53c-0.013-0.196,0-0.312,0.04-0.417
		c0.038-0.104,0.118-0.155,0.118-0.155s0.246,0.077,0.467,0.104c0.16,0.02,0.236,0.004,0.267-0.005
		c0.161-0.003,0.337-0.048,0.459-0.1C8.271,7.98,8.273,8.005,8.273,8.021c0,0.092,0.026,0.196,0,0.287
		C8.247,8.4,8.247,8.568,8.247,8.568s0.091,0.118,0.22,0.118c0.132,0,0.314,0.053,0.417,0.026c0.106-0.026,0.118-0.053,0.17-0.053
		s0.077,0.014,0.117-0.04C9.21,8.566,9.268,8.502,9.216,8.398C9.165,8.295,9.082,8.237,9.015,8.12
		C8.95,8.002,8.91,7.958,8.792,7.973C8.678,7.983,8.65,8.022,8.611,8.01C8.572,7.997,8.467,7.775,8.467,7.605
		c0-0.168-0.038-0.28-0.104-0.333C8.299,7.22,8.013,7.247,7.818,7.26C7.624,7.272,7.531,7.178,7.387,7.229
		c-0.142,0.054-0.206,0.105-0.246,0.13C7.103,7.384,7.089,7.215,7.181,7.15C7.27,7.086,7.636,6.71,7.675,6.683
		c0.039-0.026,0.13-0.262,0.248-0.3c0.116-0.039,0.52-0.039,0.649-0.015c0,0,0.301,0.052,0.468,0.249
		c0.17,0.194,0.627,0.508,0.755,0.598C9.924,7.307,9.978,7.462,9.99,7.581c0.013,0.116,0.131,0.466,0.131,0.466
		s0.104,0.224,0.169,0.209c0.065-0.013,0.09,0.026,0.104,0.066S10.446,8.647,10.394,8.791z M11.591,9.271
		c0.066-0.092,0.221-0.417,0.351-0.429c0,0,0.599,0.025,0.743-0.064c0.143-0.092,0.43-0.223,0.43-0.223s0.416,0.391,0.532,0.456
		c0.118,0.066,0.496,0.118,0.534,0.182c0.04,0.066,0.183,0.287,0.222,0.353c0.038,0.065,0.156,0.326,0.208,0.456
		c0.053,0.129,0.08,0.376,0.08,0.376s-0.197-0.223-0.395-0.313c-0.194-0.091-0.284-0.13-0.363-0.169
		c-0.078-0.039-0.092-0.052-0.169-0.039c-0.078,0.014-0.144,0.024-0.17-0.04c-0.025-0.064-0.246-0.064-0.337-0.039
		c-0.092,0.025-0.248,0.039-0.353,0.025C12.8,9.79,12.632,9.79,12.411,9.83c-0.223,0.039-0.326,0.063-0.442,0.128
		c-0.117,0.065-0.207,0.118-0.207,0.118s0.075-0.299-0.026-0.403c-0.105-0.105-0.195-0.117-0.223-0.209
		C11.488,9.375,11.526,9.363,11.591,9.271z M14.548,11.751c-0.086,0.101-0.188,0.059-0.428-0.043c-0.244-0.1-0.389-0.07-0.942-0.083
		c-0.554-0.01-0.634,0.125-0.716,0.169c-0.041,0.021-0.041,0.069-0.031,0.11c-0.008,0.026-0.016,0.053-0.02,0.085
		c-0.015,0.104,0.039,0.182,0.115,0.259c0,0,0.064-0.011,0.131-0.052c0.062-0.038,0.051-0.038,0.104-0.117
		c0.052-0.078,0.062-0.024,0.246-0.116c0.043-0.021,0.146-0.04,0.224-0.024c0.077,0.013,0.144,0,0.222,0
		c0.076,0,0.142,0.013,0.192,0.052c0.054,0.039,0.392,0.024,0.417,0.104c0.023,0.077-0.051,0.155-0.051,0.155
		s-0.172-0.011-0.275-0.039c-0.102-0.025-0.258-0.025-0.4-0.025c-0.146,0-0.312,0.063-0.312,0.063s0.193,0.053,0.364,0.053
		c0.168,0,0.299,0.025,0.468,0.039c0.169,0.015,0.208,0.104,0.299,0.272c0.092,0.171,0.026,0.324-0.076,0.352
		c-0.104,0.027-0.377-0.076-0.586-0.104c-0.207-0.025-0.535,0.013-0.701,0.013c-0.172,0-0.471-0.194-0.508-0.402
		c-0.039-0.208-0.183-0.222-0.183-0.222s-0.456-0.378-0.601-0.546c-0.143-0.168-0.457-0.715-0.457-0.808
		c0-0.092,0.199-0.494,0.275-0.61c0.078-0.118,0.17-0.131,0.208-0.092s0.183,0.131,0.183,0.131s0.013,0.078,0.076,0.116
		c0.066,0.039,0.092,0.052,0.198,0.024c0,0,0.317-0.104,0.547-0.047c0.229,0.058,0.458,0.171,0.646-0.086
		c0.186-0.257,0.312-0.244,0.414-0.2c0.045,0.021,0.111,0.084,0.174,0.151c0.031,0.087,0.068,0.178,0.094,0.221
		c0.053,0.093,0.13,0.079,0.262,0.094c0.129,0.014,0.182,0.076,0.207,0.143c0.025,0.064,0.131,0.155,0.26,0.287
		c0.09,0.089,0.146,0.231,0.162,0.354C14.68,11.524,14.596,11.696,14.548,11.751z M19.035,10.623
		c-0.117,0.118-0.455,0.818-0.455,0.818s-0.039-0.271-0.145-0.271c-0.104,0-0.168,0.117-0.168,0.224
		c0,0.104-0.077,0.324-0.064,0.415c0.012,0.091,0.024,0.194-0.064,0.272c-0.094,0.08-0.094,0.169-0.169,0.131
		c-0.078-0.039-0.119-0.145-0.146-0.051c-0.027,0.09-0.117,0.104-0.117,0.104s-0.131-0.092-0.182,0
		c-0.053,0.092-0.156,0.13-0.208,0.104c-0.053-0.024-0.053-0.013-0.131-0.024c-0.078-0.013-0.142,0-0.128-0.04
		c0.011-0.039,0.062-0.247,0-0.195c-0.068,0.053-0.118,0.117-0.131,0.064c-0.014-0.052-0.104-0.129-0.104-0.129
		s-0.027-0.156,0.036-0.195c0.065-0.039-0.014-0.13,0.104-0.193c0.117-0.066,0.17-0.144,0.26-0.261
		c0.093-0.118,0.104-0.118,0.184-0.171c0.078-0.053,0.223-0.168,0.223-0.168s-0.405,0.064-0.535,0.104
		c-0.129,0.037-0.271,0.169-0.364,0.115c-0.09-0.053,0.224-0.338,0.534-0.363c0.263-0.022,0.559-0.018,0.626-0.016
		c-0.077-0.007-0.382-0.101-0.626-0.087c-0.262,0.014-0.51,0.127-0.51,0.127s-0.075-0.194,0.041-0.286
		c0.117-0.09,0.145-0.117,0.222-0.208c0.077-0.092,0.155-0.104,0.196-0.17c0.006-0.01,0.01-0.022,0.015-0.034
		c0.06-0.021,0.144-0.046,0.22-0.036c0.127,0.016,0.592,0.222,0.592,0.222s-0.209-0.269-0.433-0.35
		c-0.087-0.03-0.149-0.037-0.203-0.034c-0.012-0.002-0.024-0.011-0.036-0.015c-0.234-0.052-0.168,0.092-0.312,0.104
		c-0.146,0.014-0.313,0.014-0.47,0.014S16.3,10.196,16.3,10.08c0-0.118,0.078-0.482,0.184-0.702c0.104-0.221,0.141-0.287,0.18-0.338
		c0.041-0.053-0.023-0.065-0.076-0.117c-0.053-0.053-0.025-0.119-0.116-0.104c-0.091,0.012-0.194,0.038-0.325,0.091
		c-0.132,0.051-0.326,0.247-0.273,0.064c0,0,0.221-0.65,0.312-0.808c0.094-0.156,0.651-0.584,0.819-0.675
		c0.17-0.093,0.938-0.079,1.146,0.013c0.207,0.09,0.352,0.349,0.312,0.544c-0.039,0.196,0,0.55,0.144,0.705
		c0.144,0.156,0.339,0.207,0.351,0.325c0.016,0.115,0.146,0.755,0.196,0.871C19.205,10.064,19.152,10.507,19.035,10.623z"/>
</g>
<g>
</g>
<g>
</g>
<g>
</g>
<g>
</g>
<g>
</g>
<g>
</g>
<g>
</g>
<g>
</g>
<g>
</g>
<g>
</g>
<g>
</g>
<g>
</g>
<g>
</g>
<g>
</g>
<g>
</g>
</svg>
