<?xml version="1.0" encoding="utf-8"?>
<!-- Generator: Adobe Illustrator 18.0.0, SVG Export Plug-In . SVG Version: 6.00 Build 0)  -->
<!DOCTYPE svg PUBLIC "-//W3C//DTD SVG 1.1//EN" "http://www.w3.org/Graphics/SVG/1.1/DTD/svg11.dtd">
<svg version="1.1" id="Capa_1" xmlns="http://www.w3.org/2000/svg" xmlns:xlink="http://www.w3.org/1999/xlink" x="0px" y="0px"
	 viewBox="0 0 200 200" enable-background="new 0 0 200 200" preserveAspectRatio="fit">
<g>
	<path d="M185.7,106.3c2.9-2,6.2-2.4,8.5-5.2c3.7-4.6-2.4-11.1-5.7-13.6c-4.6-3.4-7.8,0-3.1-8.8c2.3-4.2,5.8-6.7,7.2-11.5
		c1.8-6.5-7.6-9.6-12.1-9.7c-11.7-0.2-18.3,14.6-30.1,15c-0.2,0-0.4,0.1-0.5,0.1c-1.8-4.1-4.6-7.3-8.8-8.8
		c-15.8-5.7-34.1-0.8-50.1,1.3c-12.1,1.6-28.7-3.9-38.2,5.5c-1.1,1.1-0.8,2.5,0.2,3.3c-1.4,1.7-2.3,5.4-2.7,9.9
		C45.4,73,28.3,55.1,19.5,66.6c-6.2,8.2,3.3,17.4,7.7,23c5.6,7.3-14.3,10-16.8,10.9c-3.7,1.3-5.6,4.2-6.8,7.8
		c-2.3,6.8,2.1,10.6,8.5,9.6c1.4-0.2,14.1-2.5,10.9,3.9c-1.1,2.2-3.4,4.2-4.7,6.4c-1.4,2.5-1.8,7,0,9.4C26,148,44.5,127,53.5,120
		c0.7,1.6,1.5,2.9,2.3,3.6c14.5,11.4,32.3,7.1,49.5,6.6c11-0.3,27.9,6.6,36-4.3c1.9-2.5,3.8-6.5,5.6-11.3
		c8.3,3.4,15.9,8.6,23.9,12.4c4.9,2.3,14,7.1,19.5,4.1c3.7-2,6.1-6.9,3.2-10.6C191.4,117.8,179.3,110.5,185.7,106.3z M40.2,125.2
		c-3.3,2.8-6.6,5.6-10.1,8.1c-7.7,5.5-11.3-0.2-5.2-7.7c1.7-2.1,3.9-5.8,1.3-8.3c-5.3-5-9.7-3.7-16.4-3.1c-3.7-4.5-2.4-7.9,3.9-10.2
		c2.1-0.8,4.6-1.1,6.8-1.5c3-0.6,5.7-1.5,8.3-3.2c4.1-2.7,4.1-8,2.2-11.9c-1.5-3-4.8-5.4-6.7-8.1c-5.2-7.4,0-13.5,7.2-10.3
		c7.7,3.4,15,10.3,18.4,18.1c-0.1,2.5-0.2,5.1-0.1,7.7c-4-2.2-7-5-9.5-9c-0.7-1.2-2.3-0.2-1.8,1.1c2,4.7,6.2,8.7,11.3,9.7
		c0,1.3,0.1,2.6,0.2,3.8c-6.3,0.2-12.9,3.4-17.5,7.6c-1.1,0.9,0.3,2.5,1.5,1.9c5.4-2.9,10.4-5.5,16.2-7.4c0.4,4.8,1.1,9.4,2,13.1
		C47.8,118.3,44,122,40.2,125.2z M55.7,113.3c-1.2-4.9-0.9-10.5-0.8-15.6c0.1-3.8-2.8-18.5-0.7-23.3c0.6,0.1,1.2-0.1,1.8-0.6
		c3.4-3.1,7.8-3.8,12.4-3.8C66,85.1,65.3,100.8,55.7,113.3z M57,117.3c0.3-0.7,0.1-1.4-0.3-2C68,103.3,69.9,86,71.4,70
		c4.2,0.2,8.5,0.9,12.2,0.7c0.9,0,1.8-0.1,2.6-0.2C85.2,91.4,80.7,110,64.5,124C60.8,122.5,58.5,120.1,57,117.3z M70.6,125.7
		c-1.6-0.2-3-0.6-4.3-1C83.9,112.4,90,91.2,89.8,70.3c5-0.5,10-1.3,15-2.1c0.5,22.6-6.4,40.9-21.4,58.1
		C79.2,126.5,75,126.3,70.6,125.7z M104.8,125.9c-4.7-0.2-9.4-0.3-14.3,0.1c-1.4,0.1-2.8,0.2-4.2,0.3c14.2-13.7,28.1-38.7,21.4-58.4
		c1.7-0.2,3.4-0.5,5.1-0.7c5.1-0.6,12.8-1.7,19.5-0.7C126.3,89,119.6,107.5,104.8,125.9z M135.4,67.2c3.9,1.1,7.1,3.3,8.7,7.1
		c0.4,1.1,0.8,2.2,1.1,3.3c-0.5,0.2-0.9,0.7-0.9,1.3c-2.2,17.6-9.8,34.6-21.6,47.8c-5-0.1-9.9-0.4-14.7-0.6
		C123.5,113,134.9,87,135.4,67.2z M126.1,126.6c10.9-10.6,17.5-24.5,20.2-39.3c0,6.3-1,12.7-2,18.1
		C142.3,116.4,137.9,125.4,126.1,126.6z M182.3,127.1c-1.6-0.4-3.2-0.9-4.8-1.5c-5.4-1.8-10.5-4.6-15.7-7c-4.4-2.1-9.3-4.8-14.2-6.1
		c1.3-4,2.5-8.3,3.3-12.8c3.4,1.5,6,4.1,7.6,7.5c0.5,1,2.2,0.3,1.8-0.7c-1.6-4.3-4.9-7-9-8.5c0.3-2,0.6-4,0.7-6
		c4.5,0.3,8.9-1.5,11.1-5.8c0.4-0.8-0.6-1.7-1.3-1c-2.8,3-5.8,5-9.7,5.1c0.3-4.9,0.1-9.7-1-13.8c5.9-0.1,10.4-3.3,15.1-6.8
		c3.9-2.9,7.6-5.8,12.2-7.7c9.4,3.5,11.2,7.6,5.5,12.2c-1.2,1.5-2.1,2.9-3,4.6c-1.5,2.9-3.6,7.4-1.1,10.2c0.6,0.6,1.7,0.8,2.5,0.8
		c5.1,0,7.4,3.5,7,10.6c-1.6,1.1-3.8,1.7-5.6,2.6c-11.3,5.5,1,14.4,5.7,18.7C188.8,127.2,186.5,129,182.3,127.1z"/>
</g>
</svg>
