<?xml version="1.0" encoding="iso-8859-1"?>
<!-- Generator: Adobe Illustrator 19.0.0, SVG Export Plug-In . SVG Version: 6.00 Build 0)  -->
<svg version="1.1" id="Layer_1" xmlns="http://www.w3.org/2000/svg" xmlns:xlink="http://www.w3.org/1999/xlink" x="0px" y="0px"
	 viewBox="0 0 490 490" style="enable-background:new 0 0 490 490;" xml:space="preserve">
<g id="XMLID_822_">
	<g>
		<g>
			<path d="M393,248c33.084,0,60-26.916,60-60s-26.916-60-60-60s-60,26.916-60,60S359.916,248,393,248z M393,158
				c16.542,0,30,13.458,30,30s-13.458,30-30,30s-30-13.458-30-30S376.458,158,393,158z"/>
			<path d="M393,278c-19.024,0-37.362,5.549-53.034,15.814C317.021,267.015,282.962,250,245,250
				c-37.962,0-72.021,17.015-94.966,43.814C134.362,283.549,116.024,278,97,278c-53.486,0-97,43.514-97,97v15h230v30h30v-30h230v-15
				C490,321.514,446.486,278,393,278z M120.903,360H31.692c6.829-29.747,33.519-52,65.308-52c13.039,0,25.614,3.774,36.386,10.765
				C126.978,331.432,122.666,345.329,120.903,360z M230,360h-78.812c6.435-40.393,38.419-72.377,78.812-78.812V360z M260,360
				v-78.812c40.393,6.435,72.377,38.418,78.812,78.812H260z M369.097,360c-1.763-14.671-6.075-28.569-12.483-41.235
				C367.386,311.774,379.961,308,393,308c31.789,0,58.479,22.253,65.308,52H369.097z"/>
			<path d="M97,248c33.084,0,60-26.916,60-60s-26.916-60-60-60s-60,26.916-60,60S63.916,248,97,248z M97,158
				c16.542,0,30,13.458,30,30s-13.458,30-30,30s-30-13.458-30-30S80.458,158,97,158z"/>
			<path d="M245,220c41.355,0,75-33.645,75-75s-33.645-75-75-75c-41.355,0-75,33.645-75,75S203.645,220,245,220z M245,100
				c24.813,0,45,20.187,45,45s-20.187,45-45,45s-45-20.187-45-45S220.187,100,245,100z"/>
		</g>
	</g>
</g>
<g>
</g>
<g>
</g>
<g>
</g>
<g>
</g>
<g>
</g>
<g>
</g>
<g>
</g>
<g>
</g>
<g>
</g>
<g>
</g>
<g>
</g>
<g>
</g>
<g>
</g>
<g>
</g>
<g>
</g>
</svg>
