<?xml version="1.0" encoding="utf-8"?>
<!-- Generator: Adobe Illustrator 17.1.0, SVG Export Plug-In . SVG Version: 6.00 Build 0)  -->
<!DOCTYPE svg PUBLIC "-//W3C//DTD SVG 1.1//EN" "http://www.w3.org/Graphics/SVG/1.1/DTD/svg11.dtd">
<svg version="1.1" id="Capa_1" xmlns="http://www.w3.org/2000/svg" xmlns:xlink="http://www.w3.org/1999/xlink" x="0px" y="0px"
	 width="1000px" height="1000px" viewBox="0 0 1000 1000" enable-background="new 0 0 1000 1000" preserveAspectRatio="fit">
<path d="M119.036,663.326l0.401,72.484l62.352,36.965l19.235,114.88l20.577-11.798c66.356-38.047,112.452-100.971,130.093-172.543
	c1.371,0.477,2.741,0.954,4.12,1.411c29.734,9.854,60.656,14.851,91.906,14.851c50.514,0,100.499-13.351,144.55-38.608
	c50.261-28.818,90.369-71.393,115.986-123.121c3.811-7.696,7.265-15.526,10.367-23.467l0.065-0.005
	c-0.003-0.046-0.008-0.091-0.011-0.137c6.525-16.725,11.478-33.941,14.814-51.451c25.853,7.852,52.859,11.961,79.981,11.962
	c0.003,0,0.005,0,0.009,0c47.633,0,94.775-12.595,136.331-36.421l20.577-11.798l-89.427-74.636l-0.401-72.484l-62.352-36.963
	l-19.235-114.88l-20.577,11.798c-66.435,38.092-112.562,101.118-130.156,172.797c-2.439-0.88-4.887-1.741-7.354-2.559
	c-29.734-9.854-60.656-14.851-91.906-14.851c-50.513,0-100.498,13.35-144.55,38.608c-50.261,28.816-90.368,71.391-115.986,123.119
	c-11.847,23.923-20.287,49.13-25.219,74.971c-24.853-7.215-50.725-10.979-76.701-10.979c-47.638,0-94.782,12.594-136.339,36.421
	L29.61,588.691L119.036,663.326z M774.456,201.073l13.722,81.955l59.469,35.254l0.384,69.133l63.792,53.242
	c-30.933,13.839-64.505,21.074-98.348,21.074c-25.707-0.001-51.293-4.194-75.621-12.178c1.307-17.901,0.969-35.967-1.069-53.997
	l-1.604-14.182l-11.429-8.548c-14.068-10.521-29.006-19.712-44.676-27.503C691.844,287.737,725.436,236.088,774.456,201.073z
	 M642.255,365.17c10.877,4.195,21.486,9.124,31.743,14.774c10.38,5.717,20.404,12.161,29.978,19.323
	c1.396,12.35,1.886,24.727,1.498,37.035c-0.274,8.692-0.993,17.349-2.137,25.938c-17.869-48.074-47.593-80.656-73.889-101.615
	C633.753,362.032,638.026,363.539,642.255,365.17z M420.856,382.005c36.265-20.793,75.451-31.801,114.523-33.867l-0.376,1.507
	c0.339,0.084,34.302,8.767,69.96,36.255c46.599,35.924,72.979,85.382,78.479,147.035c-21.454,48.559-58.008,90.958-107.596,119.39
	c-34.52,19.792-71.687,30.718-108.882,33.507c-5.349-84.854-49.911-134.895-87.671-162.359
	c-22.313-16.229-44.581-26.444-61.121-32.575C340.096,446.74,374.875,408.368,420.856,382.005z M291.255,597.332
	c0.398-11.63,1.586-23.195,3.531-34.619c2.28-13.385,5.619-26.568,9.958-39.428c14.467,5.266,34.851,14.4,54.983,29.239
	c43.961,32.401,68.185,77.27,72.175,133.535c-25.395-1.562-50.412-6.857-74.197-15.667c-10.874-4.027-21.488-8.79-31.765-14.263
	c-11.535-6.142-22.648-13.167-33.212-21.068C291.305,622.479,290.826,609.869,291.255,597.332z M186.526,573.491
	c24.551,0,48.995,3.821,72.335,11.119c-1.321,17.955-0.988,36.076,1.057,54.161l1.604,14.182l11.429,8.549
	c15.007,11.224,31.011,20.922,47.832,29.033c-12.874,57.33-46.399,108.728-95.239,143.614l-13.722-81.955l-59.469-35.255
	l-0.384-69.133l-63.792-53.241C119.111,580.726,152.681,573.491,186.526,573.491z"/>
</svg>
