<?xml version="1.0" encoding="iso-8859-1"?>
<!-- Generator: Adobe Illustrator 16.0.0, SVG Export Plug-In . SVG Version: 6.00 Build 0)  -->
<!DOCTYPE svg PUBLIC "-//W3C//DTD SVG 1.1//EN" "http://www.w3.org/Graphics/SVG/1.1/DTD/svg11.dtd">
<svg version="1.1" id="Capa_1" xmlns="http://www.w3.org/2000/svg" xmlns:xlink="http://www.w3.org/1999/xlink" x="0px" y="0px"
	 width="45.703px" height="45.703px" viewBox="0 0 45.703 45.703" style="enable-background:new 0 0 45.703 45.703;"
	 xml:space="preserve">
<g>
	<path d="M43.095,6.201L23.604,0.114c-0.488-0.152-1.015-0.152-1.503,0L2.608,6.201C1.557,6.53,0.839,7.504,0.839,8.606
		C0.839,35.559,14.458,42,21.773,45.46c0.343,0.162,0.711,0.243,1.079,0.243s0.736-0.081,1.077-0.243
		C31.246,42,44.864,35.557,44.864,8.606C44.864,7.504,44.146,6.53,43.095,6.201z M25.474,26.229c0,0.65-0.526,1.179-1.178,1.179
		h-2.929c-0.65,0-1.178-0.527-1.178-1.179v-3.608c0-0.65,0.527-1.179,1.178-1.179h2.929c0.65,0,1.178,0.527,1.178,1.179V26.229z
		 M37.718,24.162h-7.336v-6.19h1.012c0.65,0,1.179-0.527,1.179-1.177V12.91v-1.765c0-0.649-0.527-1.177-1.179-1.177h-2.854
		c-0.65,0-1.178,0.527-1.178,1.177v1.768h-1.889v-1.768c0-0.649-0.526-1.177-1.178-1.177h-2.854c-0.65,0-1.178,0.527-1.178,1.177
		v1.768h-1.962v-1.768c0-0.649-0.527-1.177-1.178-1.177h-2.853c-0.65,0-1.178,0.527-1.178,1.177v1.765v3.885
		c0,0.649,0.527,1.177,1.178,1.177h1.011v6.19H7.984c-1.179-3.624-1.944-8.135-2.082-13.708l16.95-5.294L39.8,10.454
		C39.664,16.028,38.898,20.538,37.718,24.162z"/>
</g>
<g>
</g>
<g>
</g>
<g>
</g>
<g>
</g>
<g>
</g>
<g>
</g>
<g>
</g>
<g>
</g>
<g>
</g>
<g>
</g>
<g>
</g>
<g>
</g>
<g>
</g>
<g>
</g>
<g>
</g>
</svg>
