<?xml version="1.0" encoding="iso-8859-1"?>
<!-- Generator: Adobe Illustrator 18.0.0, SVG Export Plug-In . SVG Version: 6.00 Build 0)  -->
<!DOCTYPE svg PUBLIC "-//W3C//DTD SVG 1.1//EN" "http://www.w3.org/Graphics/SVG/1.1/DTD/svg11.dtd">
<svg version="1.1" id="Capa_1" xmlns="http://www.w3.org/2000/svg" xmlns:xlink="http://www.w3.org/1999/xlink" x="0px" y="0px"
	 viewBox="0 0 70.013 70.013" style="enable-background:new 0 0 70.013 70.013;" xml:space="preserve">
<path style="fill:#231F20;" d="M69.92,15.36c-2.632-3.692-6.538-5.811-10.718-5.811c-2.562,0-5.071,0.82-7.258,2.371
	c-2.588,1.835-4.473,4.537-5.53,7.598c-0.854-2.681-2.534-5.016-4.863-6.444c-1.518-0.93-3.225-1.422-4.938-1.422
	c-3.381,0-6.568,1.871-8.527,5.005c-0.108,0.173-0.101,0.395,0.02,0.56s0.328,0.241,0.527,0.189
	c2.039-0.517,4.258-0.472,6.401,0.132c0.142,0.039,0.291,0.017,0.413-0.065c0.122-0.081,0.202-0.212,0.219-0.357l0.079-0.665
	l0.85,1.526c0.053,0.096,0.136,0.171,0.235,0.215c0.7,0.307,1.269,0.599,1.79,0.919c0.42,0.257,0.856,0.56,1.334,0.927
	c0.145,0.111,0.339,0.135,0.504,0.062c0.167-0.072,0.281-0.229,0.299-0.411l0.049-0.512l0.715,2.172
	c0.023,0.072,0.063,0.139,0.116,0.192c1.143,1.172,2.091,2.531,2.843,3.986c-1.983-2.2-4.676-3.535-7.539-3.535
	c-0.611,0-1.229,0.06-1.837,0.178c-1.32,0.258-2.549,0.786-3.651,1.528c-1.774-1.432-3.9-2.234-6.136-2.234
	c-1.975,0-3.909,0.632-5.595,1.827c-1.901,1.348-3.306,3.305-4.137,5.528c-0.687-1.934-1.938-3.61-3.642-4.654
	c-1.175-0.719-2.496-1.1-3.821-1.1c-2.616,0-5.081,1.445-6.595,3.866c-0.108,0.173-0.101,0.395,0.02,0.56
	c0.121,0.165,0.328,0.241,0.527,0.189c1.534-0.391,3.202-0.354,4.812,0.1c0.141,0.039,0.291,0.016,0.413-0.065
	s0.202-0.212,0.219-0.357l0.018-0.141l0.468,0.841c0.053,0.096,0.136,0.171,0.235,0.215c0.528,0.231,0.956,0.451,1.348,0.69
	c0.324,0.2,0.653,0.429,1.006,0.7c0.145,0.11,0.339,0.134,0.504,0.063c0.124-0.055,0.22-0.156,0.268-0.279l0.381,1.157
	c0.023,0.072,0.063,0.139,0.116,0.192c0.671,0.688,1.257,1.459,1.753,2.284c-1.458-1.345-3.299-2.143-5.244-2.143
	c-0.473,0-0.951,0.047-1.421,0.138c-4.107,0.801-7.093,4.983-6.944,9.729c0.007,0.214,0.148,0.399,0.354,0.462
	c0.048,0.016,0.098,0.022,0.146,0.022c0.157,0,0.309-0.074,0.404-0.206c1.053-1.452,2.449-2.647,4.037-3.458
	c0.244-0.125,0.343-0.424,0.22-0.67l-0.162-0.322l0.973,0.4c0.114,0.045,0.237,0.05,0.354,0.01c0.559-0.194,1.03-0.326,1.485-0.415
	c0.367-0.071,0.762-0.123,1.207-0.159c0.168-0.013,0.317-0.11,0.398-0.258c0.081-0.148,0.082-0.327,0.003-0.476l-0.054-0.1
	l1.062,0.748c0.073,0.052,0.158,0.083,0.247,0.09c1.356,0.111,2.665,0.491,3.849,1.103l-3.633,22.308
	c-0.023,0.145,0.018,0.292,0.112,0.404c0.095,0.111,0.234,0.176,0.381,0.176h7.754c0.14,0,0.273-0.059,0.368-0.161
	c0.094-0.103,0.142-0.24,0.13-0.38l-0.615-7.495c2.999,1.503,7.272,2.417,12.178,2.417c3.955,0,7.495-0.598,10.294-1.614
	l-1.084,6.653c-0.023,0.145,0.018,0.292,0.112,0.404c0.095,0.111,0.234,0.176,0.381,0.176h10.186c0.008,0.001,0.016,0.001,0.02,0
	c0.276,0,0.5-0.224,0.5-0.5c0-0.063-0.011-0.123-0.032-0.179l-1.148-13.987c-0.012-0.143-0.084-0.273-0.198-0.359
	c-0.115-0.086-0.264-0.117-0.401-0.089l-2.097,0.437c0.553-0.857,1.401-2.164,2.3-3.526c0.062-0.094,0.09-0.205,0.08-0.316
	l-0.94-11.458c1.247-0.971,2.646-1.743,4.152-2.241c0.081-0.026,0.154-0.074,0.212-0.137l1.493-1.632l-0.189,0.614
	c-0.051,0.165-0.013,0.346,0.101,0.476s0.287,0.196,0.457,0.165c0.557-0.091,1.063-0.146,1.547-0.17
	c0.61-0.029,1.214-0.007,1.954,0.064c0.127,0.007,0.239-0.021,0.337-0.09l1.375-0.976l-0.212,0.749
	c-0.037,0.131-0.019,0.271,0.05,0.388s0.182,0.202,0.313,0.234c2.165,0.525,4.183,1.591,5.835,3.082
	c0.156,0.142,0.385,0.169,0.572,0.069c0.186-0.101,0.289-0.307,0.257-0.516c-0.9-5.892-5.458-10.152-10.74-9.873
	c-1.467,0.07-2.855,0.498-4.111,1.196l0.766-2.862l0.221,1.457c0.027,0.181,0.15,0.332,0.322,0.395
	c0.171,0.063,0.364,0.026,0.502-0.094c0.615-0.54,1.18-0.99,1.725-1.377c0.683-0.483,1.425-0.932,2.337-1.408
	c0.096-0.05,0.172-0.13,0.219-0.227l1.247-2.589l0.241,1.375c0.025,0.146,0.113,0.272,0.241,0.347s0.281,0.087,0.42,0.038
	c2.847-1.024,5.816-1.301,8.607-0.802c0.198,0.034,0.401-0.053,0.511-0.225C70.044,15.746,70.039,15.525,69.92,15.36z
	 M20.462,30.736l0.363-1.354l0.082,0.542c0.027,0.181,0.15,0.333,0.322,0.396c0.061,0.022,0.125,0.018,0.188,0.016
	C21.09,30.448,20.771,30.58,20.462,30.736z M21.675,30.253c0.018-0.012,0.04-0.013,0.056-0.027c0.461-0.404,0.887-0.745,1.304-1.04
	c0.514-0.364,1.074-0.703,1.767-1.064c0.095-0.051,0.172-0.13,0.218-0.227l0.788-1.637l0.12,0.683
	c0.025,0.145,0.113,0.271,0.241,0.346c0.127,0.074,0.282,0.088,0.42,0.038c0.587-0.211,1.182-0.372,1.778-0.498
	c-0.751,1.113-1.34,2.368-1.727,3.72c-1.004-0.438-2.098-0.659-3.241-0.599C22.805,29.975,22.23,30.085,21.675,30.253z
	 M31.205,51.844c-6.094,0-10.484-1.491-12.48-3.097l-0.917-11.17c0.926-0.713,1.961-1.282,3.074-1.649
	c0.081-0.026,0.154-0.074,0.212-0.137l0.781-0.854c-0.035,0.154,0.005,0.318,0.11,0.438c0.113,0.131,0.28,0.195,0.458,0.165
	c0.422-0.068,0.803-0.11,1.164-0.128c0.5-0.023,0.987,0.001,1.47,0.049c0.118,0.007,0.239-0.021,0.337-0.09l0.72-0.511
	c0.004,0.023,0.015,0.042,0.022,0.063l-0.041,0.146c-0.037,0.131-0.019,0.271,0.05,0.388s0.182,0.202,0.313,0.234
	c1.63,0.395,3.148,1.196,4.391,2.318c0.156,0.142,0.385,0.17,0.572,0.069c0.186-0.101,0.289-0.307,0.257-0.516
	c-0.303-1.985-1.144-3.729-2.336-5.047c0.92-0.798,1.93-1.487,3.01-2.038c0.244-0.125,0.343-0.424,0.22-0.67l-0.401-0.799
	l1.665,0.685c0.113,0.047,0.237,0.05,0.354,0.011c0.746-0.259,1.373-0.434,1.974-0.55c0.495-0.097,1.02-0.166,1.603-0.212
	c0.168-0.013,0.318-0.109,0.399-0.258s0.082-0.327,0.003-0.476L37.81,27.5l1.931,1.361c0.073,0.052,0.158,0.083,0.248,0.09
	c1.841,0.15,3.614,0.679,5.215,1.525l-3.141,19.288C39.708,50.931,35.974,51.844,31.205,51.844z"/>
<g>
</g>
<g>
</g>
<g>
</g>
<g>
</g>
<g>
</g>
<g>
</g>
<g>
</g>
<g>
</g>
<g>
</g>
<g>
</g>
<g>
</g>
<g>
</g>
<g>
</g>
<g>
</g>
<g>
</g>
</svg>
