<?xml version="1.0" encoding="iso-8859-1"?>
<!-- Generator: Adobe Illustrator 18.0.0, SVG Export Plug-In . SVG Version: 6.00 Build 0)  -->
<!DOCTYPE svg PUBLIC "-//W3C//DTD SVG 1.1//EN" "http://www.w3.org/Graphics/SVG/1.1/DTD/svg11.dtd">
<svg version="1.1" id="Capa_1" xmlns="http://www.w3.org/2000/svg" xmlns:xlink="http://www.w3.org/1999/xlink" x="0px" y="0px"
	 viewBox="0 0 86.735 88.154" style="enable-background:new 0 0 86.735 88.154;" preserveAspectRatio="fit">
<g>
	<path d="M9.19,17.572c0.706,0.081,2.248,0.256,3.741,0.426c-2.814,5.103-4.287,10.817-4.287,16.725
		c0,3.001,0.378,5.944,1.125,8.798c-1.247,2.021-2.031,4.295-2.22,6.716l-0.007,0.089L7.522,69.42h3.92v8.688
		c0,5.54,5.044,10.047,11.244,10.047h41.405c6.2,0,11.244-4.507,11.244-10.047V69.42h3.877l-0.019-19.093l-0.007-0.089
		c-0.189-2.42-0.973-4.694-2.22-6.716c0.746-2.854,1.125-5.797,1.125-8.798c0-5.908-1.473-11.622-4.286-16.725
		c1.493-0.17,3.035-0.346,3.741-0.426c2.621-0.3,5.026-1.588,6.772-3.629c1.658-1.938,2.535-4.355,2.405-6.632
		c-0.118-2.068-1.065-3.903-2.669-5.168c-1.669-1.317-3.947-1.984-6.771-1.984c-7.031,0-12.389,2.844-15.534,5.102
		C56.239,1.814,49.92,0,43.368,0c-6.552,0-12.871,1.814-18.38,5.261c-3.145-2.258-8.503-5.102-15.534-5.102
		c-2.824,0-5.102,0.668-6.772,1.984c-1.603,1.264-2.551,3.1-2.669,5.168c-0.13,2.277,0.747,4.694,2.405,6.632
		C4.164,15.984,6.569,17.272,9.19,17.572z M23.418,9.889L24.771,11l1.437-1C31.26,6.487,37.194,4.63,43.368,4.63
		s12.107,1.857,17.159,5.371l1.437,1l1.353-1.111c2.321-1.905,7.221-5.101,13.965-5.101c1.74,0,4.68,0.362,4.818,2.785
		c0.129,2.259-2.017,5.048-5.081,5.398c-0.13,0.015-0.288,0.033-0.469,0.054c2.358-1.751,3.586-3.804,1.646-4.486
		c-5.801-2.038-12.784,5.172-12.784,5.172c0.121,0.224,0.255,0.427,0.402,0.612l2.193,3.121c3.568,5.078,5.454,11.053,5.454,17.28
		c0,1.511-0.111,3.005-0.328,4.473c-3.401-2.758-7.943-4.439-12.886-4.439h-0.334c-4.752,0-9.289,1.561-12.776,4.396
		c-1.528,1.242-2.794,2.676-3.769,4.245c-0.975-1.569-2.241-3.003-3.769-4.245c-3.487-2.835-8.025-4.396-12.776-4.396h-0.334
		c-4.943,0-9.485,1.682-12.886,4.439c-0.217-1.468-0.328-2.962-0.328-4.473c0-6.227,1.886-12.202,5.454-17.28l2.121-3.019
		c0.179-0.211,0.342-0.448,0.485-0.714c0,0-6.983-7.209-12.784-5.172c-1.94,0.682-0.711,2.736,1.648,4.487
		c-0.187-0.021-0.35-0.04-0.483-0.055c-3.064-0.35-5.21-3.139-5.081-5.398c0.138-2.424,3.078-2.785,4.818-2.785
		C16.197,4.789,21.097,7.985,23.418,9.889z M74.578,64.79H60.751h-5.269H44.62h-2.505H31.253h-5.269H12.157l0-0.04l0.015-14.235
		c0.012-0.144,0.029-0.288,0.048-0.431c0.151-1.156,0.505-2.28,1.043-3.34c0.421-0.828,0.954-1.617,1.592-2.353
		c0.504-0.581,1.073-1.13,1.704-1.637c2.7-2.171,6.226-3.367,9.93-3.367h0.334c7.468,0,13.703,4.925,14.194,11.212l0.167,2.134
		h4.368l0.167-2.134c0.492-6.287,6.727-11.212,14.194-11.212h0.334c3.704,0,7.23,1.196,9.93,3.367
		c0.631,0.507,1.2,1.055,1.704,1.637c0.638,0.736,1.171,1.525,1.592,2.353c0.538,1.06,0.892,2.184,1.043,3.34
		c0.019,0.143,0.035,0.287,0.048,0.431l0.015,14.235V64.79z M61.824,69.522v3.627c0,1.095-0.891,1.987-1.987,1.987h-5.308
		c-1.096,0-1.987-0.891-1.987-1.987v-3.627H61.824z M33.935,69.985v3.37c0,0.954-0.776,1.73-1.73,1.73h-5.308
		c-0.954,0-1.73-0.776-1.73-1.73v-3.37H33.935z M70.705,78.107c0,2.987-2.967,5.417-6.614,5.417H22.687
		c-3.647,0-6.614-2.43-6.614-5.417V69.42h3.952v3.936c0,3.79,3.084,6.874,6.874,6.874h5.308c3.79,0,6.874-3.084,6.874-6.874V69.42
		h2.958c0.442,0.016,0.885,0.027,1.33,0.027c0.445,0,0.888-0.011,1.33-0.027h3.216v3.73c0,3.648,2.968,6.617,6.617,6.617h5.308
		c3.649,0,6.617-2.968,6.617-6.617v-3.73h4.252V78.107z"/>
	<ellipse cx="26.22" cy="47.425" rx="4.138" ry="3.793"/>
	<ellipse cx="60.515" cy="47.425" rx="4.138" ry="3.793"/>
	<path d="M30.62,30.702c0.342,0.041,0.688,0.062,1.029,0.062h0c1.648,0,3.24-0.488,4.482-1.374c1.398-0.997,2.274-2.424,2.465-4.016
		c0.208-1.734-0.437-3.497-1.771-4.839c-1.209-1.216-2.884-2.007-4.717-2.227c-0.342-0.041-0.688-0.062-1.03-0.062
		c-1.649,0-3.241,0.488-4.482,1.374c-1.398,0.997-2.274,2.424-2.465,4.016c-0.208,1.734,0.437,3.497,1.771,4.839
		C27.112,29.691,28.788,30.482,30.62,30.702z M28.73,24.188c0.076-0.631,0.996-1.312,2.351-1.312c0.157,0,0.318,0.01,0.477,0.029
		c1.509,0.181,2.534,1.161,2.443,1.917c-0.076,0.631-0.996,1.312-2.351,1.312c-0.157,0-0.318-0.01-0.477-0.029
		C29.664,25.924,28.639,24.944,28.73,24.188z"/>
	<path d="M50.645,29.39c1.242,0.886,2.834,1.374,4.482,1.374c0.341,0,0.688-0.021,1.029-0.062c1.833-0.22,3.508-1.011,4.717-2.227
		c1.334-1.341,1.979-3.105,1.771-4.839c-0.191-1.592-1.067-3.019-2.465-4.016c-1.242-0.886-2.834-1.374-4.482-1.374
		c-0.341,0-0.688,0.021-1.029,0.062c-1.833,0.22-3.508,1.011-4.717,2.227c-1.333,1.341-1.979,3.105-1.771,4.839
		C48.372,26.966,49.247,28.393,50.645,29.39z M53.234,23.799c0.471-0.474,1.195-0.8,1.986-0.895c0.159-0.019,0.32-0.029,0.477-0.029
		c1.354,0,2.275,0.681,2.351,1.312c0.091,0.755-0.935,1.736-2.443,1.917c-0.159,0.019-0.32,0.029-0.477,0.029
		c-1.354,0-2.275-0.681-2.351-1.312C52.725,24.385,53.041,23.994,53.234,23.799z"/>
</g>
<g>
</g>
<g>
</g>
<g>
</g>
<g>
</g>
<g>
</g>
<g>
</g>
<g>
</g>
<g>
</g>
<g>
</g>
<g>
</g>
<g>
</g>
<g>
</g>
<g>
</g>
<g>
</g>
<g>
</g>
</svg>
