<?xml version="1.0" encoding="iso-8859-1"?>
<!-- Generator: Adobe Illustrator 19.0.0, SVG Export Plug-In . SVG Version: 6.00 Build 0)  -->
<svg version="1.1" id="Layer_1" xmlns="http://www.w3.org/2000/svg" xmlns:xlink="http://www.w3.org/1999/xlink" x="0px" y="0px"
	 viewBox="0 0 386.312 386.312" style="enable-background:new 0 0 386.312 386.312;" xml:space="preserve">
<g id="XMLID_508_">
	<g>
		<path d="M355.741,205.515c-9.8-3.368-19.53-4.108-27.563-2.599c4.059-7.111,6.535-16.573,6.535-26.963c0-22.092-11.193-40-25-40
			s-25,17.908-25,40c0,13.051,3.907,24.638,9.951,31.938c-0.785,18.404-12.671,33.977-29.122,40.179
			c2.633-6.335,4.171-13.938,4.171-22.117c0-22.092-11.193-40-25-40c-13.807,0-25,17.908-25,40c0,9.463,2.058,18.151,5.491,25
			h-20.775c-0.945-8.511-4.275-16.307-9.303-22.716c5.193-13.821,8.85-27.999,10.964-42.327c4.559-0.424,9.443-1.701,14.265-3.892
			c15.157-6.885,23.955-20.145,19.652-29.615c-3.994-8.798-17.886-11.23-31.986-6.019c-0.333-6.822-1.014-13.633-2.038-20.412
			c8.633,1.373,19.275-0.151,29.703-4.888c20.114-9.135,31.791-26.732,26.081-39.304c-5.709-12.571-26.644-15.356-46.757-6.221
			c-5.037,2.288-9.544,5.106-13.382,8.243c-0.747-5.04-2.244-10.31-4.545-15.535c-8.903-20.219-26.363-32.1-39-26.535
			c-12.636,5.563-15.663,26.465-6.761,46.684c5.169,11.74,13.226,20.659,21.546,24.993c8.273,32.516,7.012,66.529-3.771,98.534
			c-3.029-0.646-6.167-0.991-9.384-0.991h-25c-21.867,0-40.133-15.682-44.164-36.388c9.231,2.015,21.259,0.222,32.822-5.674
			c19.681-10.035,30.55-28.142,24.278-40.441c-6.271-12.301-27.309-14.138-46.991-4.103c-1.509,0.77-2.96,1.592-4.362,2.45
			c2.168-5.925,3.417-12.816,3.417-20.178c0-22.092-11.193-40-25-40s-25,17.908-25,40c0,7.361,1.248,14.253,3.416,20.178
			c-1.402-0.858-2.852-1.681-4.362-2.45c-19.682-10.035-40.72-8.198-46.991,4.103c-6.271,12.3,4.598,30.406,24.278,40.441
			c12.118,6.179,24.744,7.85,34.127,5.356c3.718,33.621,29.738,60.615,62.902,65.8c-4.363,8.519-4.65,17.096,0.1,22.193
			c7.092,7.612,22.714,4.584,34.894-6.764c4.084-3.805,7.257-8.063,9.411-12.327c4.323,2.635,7.225,7.38,7.225,12.803v34.355
			c-30.537-2.584-59.519-13.025-84.498-30.351c-2.668-8.989-9.877-18.594-20.403-25.908c-18.142-12.607-39.234-13.635-47.114-2.296
			c-7.879,11.339,0.44,30.749,18.582,43.355c7.644,5.311,15.81,8.56,23.292,9.701c-18.949,11.055-28.742,29.566-21.879,41.467
			c6.897,11.961,28.002,12.712,47.141,1.677c10.373-5.98,18.03-14.196,21.778-22.371c17.228,7.097,35.431,11.813,54.19,13.984
			l-6.088,26.386h60l-15-65h33.06c0.983,8.959,5.691,19.193,13.699,28.148c14.728,16.466,35.01,22.352,45.301,13.147
			c10.291-9.205,6.695-30.016-8.033-46.481c-1.172-1.311-2.383-2.546-3.617-3.72c13.803-7.425,25.021-19.047,31.947-33.146
			c5.389,5.715,13.153,10.715,22.416,13.898c20.892,7.182,41.466,2.419,45.954-10.639
			C389.929,229.104,376.632,212.697,355.741,205.515z"/>
	</g>
</g>
<g>
</g>
<g>
</g>
<g>
</g>
<g>
</g>
<g>
</g>
<g>
</g>
<g>
</g>
<g>
</g>
<g>
</g>
<g>
</g>
<g>
</g>
<g>
</g>
<g>
</g>
<g>
</g>
<g>
</g>
</svg>
