<?xml version="1.0" encoding="iso-8859-1"?>
<!-- Generator: Adobe Illustrator 19.0.0, SVG Export Plug-In . SVG Version: 6.00 Build 0)  -->
<svg version="1.1" id="Capa_1" xmlns="http://www.w3.org/2000/svg" xmlns:xlink="http://www.w3.org/1999/xlink" x="0px" y="0px"
	 viewBox="0 0 463 463" style="enable-background:new 0 0 463 463;" xml:space="preserve">
<g>
	<path d="M455.5,384H447V239.5c0-4.143-3.357-7.5-7.5-7.5h-35.145l-5.101-153h0.246c4.143,0,7.5-3.357,7.5-7.5s-3.357-7.5-7.5-7.5
		h-48c-4.143,0-7.5,3.357-7.5,7.5s3.357,7.5,7.5,7.5h0.246l-5.1,153h-38.291l-5.101-153h0.246c4.143,0,7.5-3.357,7.5-7.5
		s-3.357-7.5-7.5-7.5h-48c-4.143,0-7.5,3.357-7.5,7.5s3.357,7.5,7.5,7.5h0.246l-5.1,153h-38.291l-5.101-153h0.246
		c4.143,0,7.5-3.357,7.5-7.5s-3.357-7.5-7.5-7.5h-48c-4.143,0-7.5,3.357-7.5,7.5s3.357,7.5,7.5,7.5h0.246l-5.1,153H151.5
		c-4.143,0-7.5,3.357-7.5,7.5V304h-25.246l-7.5-225h0.246c4.143,0,7.5-3.357,7.5-7.5s-3.357-7.5-7.5-7.5h-48
		c-4.143,0-7.5,3.357-7.5,7.5s3.357,7.5,7.5,7.5h0.246l-7.5,225H23.5c-4.143,0-7.5,3.357-7.5,7.5V384H7.5
		c-4.143,0-7.5,3.357-7.5,7.5s3.357,7.5,7.5,7.5h16h432c4.143,0,7.5-3.357,7.5-7.5S459.643,384,455.5,384z M78.754,79h17.492
		l0.567,17H78.187L78.754,79z M77.687,111h19.625l6.433,193H71.254L77.687,111z M144,384h-17v-40.5c0-4.143-3.357-7.5-7.5-7.5
		s-7.5,3.357-7.5,7.5V384H95v-40.5c0-4.143-3.357-7.5-7.5-7.5s-7.5,3.357-7.5,7.5V384H63v-40.5c0-4.143-3.357-7.5-7.5-7.5
		s-7.5,3.357-7.5,7.5V384H31v-65h113V384z M366.754,79h17.492l0.567,17h-18.625L366.754,79z M365.688,111h19.625l4.033,121h-27.691
		L365.688,111z M270.754,79h17.492l0.567,17h-18.625L270.754,79z M269.688,111h19.625l4.033,121h-27.691L269.688,111z M174.754,79
		h17.492l0.567,17h-18.625L174.754,79z M173.688,111h19.625l4.033,121h-27.691L173.688,111z M432,384h-33v-16.5
		c0-4.143-3.357-7.5-7.5-7.5s-7.5,3.357-7.5,7.5V384h-17v-16.5c0-4.143-3.357-7.5-7.5-7.5s-7.5,3.357-7.5,7.5V384h-17v-16.5
		c0-4.143-3.357-7.5-7.5-7.5s-7.5,3.357-7.5,7.5V384h-17v-16.5c0-4.143-3.357-7.5-7.5-7.5s-7.5,3.357-7.5,7.5V384h-17v-16.5
		c0-4.143-3.357-7.5-7.5-7.5s-7.5,3.357-7.5,7.5V384h-17v-16.5c0-4.143-3.357-7.5-7.5-7.5s-7.5,3.357-7.5,7.5V384h-17v-16.5
		c0-4.143-3.357-7.5-7.5-7.5s-7.5,3.357-7.5,7.5V384h-33v-72.5V247h273V384z"/>
	<path d="M176,271.5v64c0,4.143,3.357,7.5,7.5,7.5h224c4.143,0,7.5-3.357,7.5-7.5v-64c0-4.143-3.357-7.5-7.5-7.5h-224
		C179.357,264,176,267.357,176,271.5z M383,279h17v49h-17V279z M351,279h17v49h-17V279z M319,279h17v49h-17V279z M287,279h17v49h-17
		V279z M255,279h17v49h-17V279z M223,279h17v49h-17V279z M191,279h17v49h-17V279z"/>
</g>
<g>
</g>
<g>
</g>
<g>
</g>
<g>
</g>
<g>
</g>
<g>
</g>
<g>
</g>
<g>
</g>
<g>
</g>
<g>
</g>
<g>
</g>
<g>
</g>
<g>
</g>
<g>
</g>
<g>
</g>
</svg>
