<?xml version="1.0" encoding="utf-8"?>
<!-- Generator: Adobe Illustrator 16.0.4, SVG Export Plug-In . SVG Version: 6.00 Build 0)  -->
<!DOCTYPE svg PUBLIC "-//W3C//DTD SVG 1.1//EN" "http://www.w3.org/Graphics/SVG/1.1/DTD/svg11.dtd">
<svg version="1.1" id="Capa_1" xmlns="http://www.w3.org/2000/svg" xmlns:xlink="http://www.w3.org/1999/xlink" x="0px" y="0px"
	 width="19.699px" height="18.105px" viewBox="0 0 19.699 18.105" enable-background="new 0 0 19.699 18.105" xml:space="preserve">
<path d="M13.518,7.443l-0.107,0.11V8.72l0.179,0.139l0.226,0.015l0.166-0.111V7.568l-0.183-0.125H13.518z M15.904,7.539
	c-0.098,0-0.264,0.101-0.264,0.101l0.055,1.205l0.152,0.124l0.223,0.015l0.183-0.109V7.707l-0.099-0.111
	C16.154,7.595,16.002,7.539,15.904,7.539z M3.567,6.86L3.414,6.997v1.182l0.168,0.11h0.263l0.167-0.097V6.997L3.845,6.86H3.567z
	 M18.486,5.552c-0.609,0-0.9,0.026-1.752,0.101c-0.848,0.076-2.039,0.076-3.084,0.076s-2.26,0.152-2.721,0.077
	c-0.463-0.077-1.215,0.1-1.651-0.302C8.842,5.098,8.987,5.427,8.622,5.276C8.259,5.123,8.089,5.225,7.627,4.973
	c-0.461-0.251-0.778-0.126-1.359-0.05C5.683,4.998,5.102,4.998,4.883,4.998c-0.22,0-0.535-0.024-0.657,0
	C4.104,5.023,3.911,5.123,3.814,5.123s-0.34,0.128-0.437,0.178c-0.099,0.05-0.366,0.126-0.486,0.25c-0.122,0.127,0,0-0.122,0.176
	c-0.123,0.177-0.168,0-0.269,0.024C2.404,5.778,2.234,5.804,2.113,5.828C1.993,5.853,2.04,5.853,1.895,5.853
	c-0.146,0-0.243,0.05-0.486-0.049C1.165,5.702,1.142,5.828,1.045,5.88c-0.099,0.05-0.025,0.075-0.22,0.1c-0.193,0.025-0.51,0-0.51,0
	L0,5.955v7.326h19.699V5.577C19.699,5.577,19.093,5.552,18.486,5.552z M2.319,8.957H1.693V8.053h-0.61v0.903H0.46V6.583h0.623V7.47
	h0.61V6.583h0.626V8.957z M4.621,8.428L4.022,8.804H3.336l-0.56-0.336V6.755l0.53-0.353h0.772L4.62,6.764L4.621,8.428L4.621,8.428z
	 M6.779,8.804L5.261,8.762V6.43l0.568,0.027l0.015,1.831L6.78,8.345L6.779,8.804L6.779,8.804z M8.599,8.915l-1.548-0.11l0.013-2.292
	l0.598,0.029v1.775L8.6,8.387L8.599,8.915L8.599,8.915z M9.604,8.206v0.777L8.911,8.969L8.898,8.164L8.312,6.568l0.6,0.028
	l0.334,0.9l0.331-0.888l0.595,0.041L9.604,8.206z M11.963,9.245h-0.292l-0.317-0.846l-0.318,0.806h-0.319l-0.402-2.33l0.558,0.028
	l0.164,0.79L11.2,6.904h0.305l0.265,0.872l0.181-0.833h0.474L11.963,9.245z M14.572,8.983l-0.526,0.333h-0.709L12.77,8.983V7.289
	l0.525-0.292h0.709l0.568,0.335V8.983z M16.833,9.095l-0.429,0.333l-0.778,0.013l-0.499-0.359L15.1,7.401l0.486-0.292l0.723,0.015
	l0.524,0.333V9.095z M19.232,8.819l-0.558,0.333h-1.303L17.343,6.82l1.277-0.04l0.61,0.304v1.735H19.232z M18.4,7.264l-0.416,0.015
	l0.013,1.374c0,0,0.375,0.041,0.444,0.013c0.067-0.026,0.139-0.138,0.139-0.138s0.016-1.069,0-1.151
	C18.566,7.293,18.4,7.264,18.4,7.264z"/>
</svg>
