<?xml version="1.0" encoding="iso-8859-1"?>
<!-- Generator: Adobe Illustrator 17.0.2, SVG Export Plug-In . SVG Version: 6.00 Build 0)  -->
<!DOCTYPE svg PUBLIC "-//W3C//DTD SVG 1.1//EN" "http://www.w3.org/Graphics/SVG/1.1/DTD/svg11.dtd">
<svg version="1.1" id="Capa_1" xmlns="http://www.w3.org/2000/svg" xmlns:xlink="http://www.w3.org/1999/xlink" x="0px" y="0px"
	 width="100px" height="100px" viewBox="0 0 100 100" style="enable-background:new 0 0 100 100;" preserveAspectRatio="fit">
<g>
	<path d="M84.387,32.549c2.378-9.129-0.695-21.377-9.922-25.288C74.192,7.146,73.931,7.159,73.7,7.24
		c-0.981-1.742-2.179-3.288-3.874-4.422c-0.156-0.104-0.328-0.183-0.694-0.385c0.224,1.727,0.423,3.273,0.623,4.819
		c-0.119,0.077-0.238,0.153-0.357,0.23c-1.922-1.5-3.775-3.146-6.68-3.398c0.558,0.889,1.021,1.537,1.393,2.234
		c1.206,2.256,1.72,2.141-1.106,3.487c-4.121,1.962-8.232,3.949-11.829,6.811c-0.956,0.761-1.864,1.614-2.659,2.541
		c-2.569,3-1.759,6.691,1.833,8.326c2.729,1.243,5.488,1.123,8.162-0.202c1.776-0.88,3.482-1.899,5.258-2.78
		c0.953-0.472,1.96-0.884,2.988-1.144c1.802-0.455,3.007,0.275,3.311,2.103c0.85,5.112-1.206,8.135-6.153,8.586
		c-3.215,0.293-6.495,0.134-9.728-0.086c-4.772-0.325-9.513-0.568-14.149,0.919c-4.9,1.572-8.628,4.634-11.179,9.082
		c-0.568,0.991-1.25,1.454-2.355,1.678c-7.824,1.584-12.52,6.933-13.181,14.886c-0.43,5.184,0.889,10.074,2.544,14.889
		c0.989,2.877,1.891,5.744,1.405,8.826c-0.187,1.183-0.578,2.334-0.98,3.906c1.176-0.771,2.224-1.458,3.329-2.183
		c0.779,2.34-0.761,4.032-1.877,6.143c0.656-0.166,1.058-0.225,1.428-0.367c4.048-1.557,6.226-5.067,6.425-9.806
		c0.202-4.837-1.122-9.332-2.633-13.818c-1.3-3.858-2.31-7.756-1.704-11.897c0.536-3.657,2.387-6.496,5.271-8.72
		c0.112-0.086,0.266-0.118,0.266-0.118c-0.106,1.908-0.392,3.836-0.285,5.741c0.254,4.515,1.909,8.471,5.218,11.653
		c0.629,0.604,1.24,1.228,1.854,1.847c1.68,1.695,2.583,3.75,2.974,6.094c1.074,6.429,1.702,12.893,1.684,19.415
		c-0.004,1.458-0.001,2.917-0.001,4.368c1.367,0.161,1.605-0.163,1.622-1.563c0.108-8.934,0.5-17.843,2.756-26.555
		c0.107-0.416,0.253-0.822,0.665-1.292c0.442,1.286,0.958,2.552,1.313,3.861c1.29,4.748,1.519,9.625,1.606,14.507
		c0.057,3.166,0.011,6.334,0.011,9.545c1.125,0.217,1.579-0.088,1.641-1.156c0.338-5.779,0.542-11.575,1.16-17.326
		c0.395-3.683,1.423-7.298,2.17-10.943c0.162-0.79,0.593-1.148,1.455-1.262c4.01-0.529,8.017-1.096,12.006-1.762
		c1.213-0.203,1.792,0.195,2.278,1.23c1.582,3.364,2.251,6.952,2.455,10.603c0.264,4.71,0.297,9.432,0.435,14.149
		c0.019,0.627,0.068,1.252,0.104,1.9c1.118,0.146,1.384-0.401,1.393-1.307c0.07-7.267,0.434-14.513,1.721-21.682
		c0.276-1.54,0.67-3.058,1.01-4.587c0.167-0.014,0.334-0.028,0.502-0.042c0.557,2.279,1.258,4.534,1.643,6.841
		c0.936,5.617,0.872,11.299,0.816,16.972c-0.004,0.397-0.066,0.807,0.013,1.187c0.094,0.451,0.294,1.241,0.477,1.249
		c0.812,0.037,0.949-0.623,0.978-1.311c0.128-3.131,0.295-6.261,0.406-9.393c0.314-8.853,1.994-17.374,5.758-25.466
		c1.006-2.163,1.489-4.581,2.085-6.914c0.198-0.775,0.127-1.676-0.034-2.476C85.95,39.847,85.141,36.204,84.387,32.549z
		 M64.017,13.141c-0.041-2.711,1.382-4.466,3.487-4.426C66.368,10.157,65.177,11.669,64.017,13.141z M81.725,31.702
		c-0.276,0.584-0.977,0.967-1.486,1.44c1.313-2.78,2.388-5.428,1.384-8.488c-0.576,0.408-0.9,0.944-1.343,1.35
		c-0.446,0.409-1.009,0.689-1.521,1.026c1.669-3.2,1.782-10.133-0.15-11.416c-0.432,1.856-1.225,3.47-2.698,4.561
		c0.204-1.515,0.487-3.018,0.587-4.533c0.099-1.488,0.028-2.994,0.024-4.849c0.25,0.195,0.478,0.414,0.714,0.625
		c0.493,0.533,0.933,1.004,1.279,1.528c3.067,4.636,4.399,9.801,4.314,15.309C82.811,29.417,82.24,30.616,81.725,31.702z"/>
</g>
</svg>
