<?xml version="1.0" encoding="iso-8859-1"?>
<!-- Generator: Adobe Illustrator 18.0.0, SVG Export Plug-In . SVG Version: 6.00 Build 0)  -->
<!DOCTYPE svg PUBLIC "-//W3C//DTD SVG 1.1//EN" "http://www.w3.org/Graphics/SVG/1.1/DTD/svg11.dtd">
<svg version="1.1" id="Capa_1" xmlns="http://www.w3.org/2000/svg" xmlns:xlink="http://www.w3.org/1999/xlink" x="0px" y="0px"
	 viewBox="0 0 53.5 53.5" style="enable-background:new 0 0 53.5 53.5;" xml:space="preserve">
<g>
	<path d="M10.083,39.398c1.127-0.019,2.034-0.956,2.016-2.083c-0.018-1.127-2.117-4.065-2.117-4.065h0
		C9.967,33.235,7.982,36.255,8,37.382C8.019,38.51,8.956,39.417,10.083,39.398z"/>
	<path d="M12.901,43.382c0.018,1.127,0.956,2.034,2.083,2.016c1.127-0.019,2.034-0.956,2.016-2.083
		c-0.018-1.127-2.117-4.065-2.117-4.065C14.868,39.235,12.882,42.255,12.901,43.382z"/>
	<path d="M41.917,40.25c1.127,0.018,2.065-0.889,2.083-2.016c0.018-1.127-1.967-4.147-1.982-4.132h0c0,0-2.098,2.938-2.117,4.065
		C39.883,39.294,40.79,40.231,41.917,40.25z"/>
	<path d="M35,43.167c-0.019,1.127,0.889,2.064,2.016,2.083c1.127,0.018,2.065-0.889,2.083-2.016
		c0.018-1.127-1.967-4.147-1.982-4.132C37.117,39.102,35.019,42.04,35,43.167z"/>
	<path d="M21,40.25c0,2.757,2.243,5,5,5s5-2.243,5-5s-2.243-5-5-5S21,37.493,21,40.25z M26,37.25c1.654,0,3,1.346,3,3s-1.346,3-3,3
		s-3-1.346-3-3S24.346,37.25,26,37.25z"/>
	<circle cx="35" cy="30.25" r="2"/>
	<path d="M35,35.485c3.86,0,7-3.141,7-7c0-1.865-0.726-3.62-2.043-4.941l-0.368-0.369l-10.71,1.887l-0.22,0.472
		C28.222,26.471,28,27.464,28,28.485C28,32.345,31.14,35.485,35,35.485z M30.281,26.846l8.598-1.516
		C39.605,26.22,40,27.322,40,28.485c0,2.757-2.243,5-5,5s-5-2.243-5-5C30,27.925,30.094,27.375,30.281,26.846z"/>
	<circle cx="18" cy="30.25" r="2"/>
	<path d="M18,35.485c3.86,0,7-3.141,7-7c0-1.021-0.222-2.015-0.659-2.952l-0.22-0.472l-10.71-1.887l-0.368,0.369
		C11.726,24.865,11,26.62,11,28.485C11,32.345,14.14,35.485,18,35.485z M14.121,25.33l8.598,1.516
		C22.906,27.375,23,27.925,23,28.485c0,2.757-2.243,5-5,5s-5-2.243-5-5C13,27.322,13.395,26.22,14.121,25.33z"/>
	<path d="M48,11.25L48,11.25l-0.001-0.962c0.031-0.826-0.308-1.632-0.98-2.33C46.035,6.937,44.42,6.25,43,6.25h-9V2.556
		c0-1.271-1.034-2.306-2.305-2.306h-11.39C19.034,0.25,18,1.284,18,2.556V6.25H9c-2.757,0-5,2.243-5,5v0.213
		c-2.305,0.655-4,2.775-4,5.287s1.695,4.631,4,5.287V44.25c0,2.757,2.243,5,5,5h3v1.694c0,1.271,1.034,2.306,2.305,2.306h23.39
		c1.271,0,2.305-1.034,2.305-2.306V49.25h3c2.757,0,5-2.243,5-5v-22c3.032,0,5.5-2.468,5.5-5.5S51.032,11.25,48,11.25z M20,2.556
		c0-0.169,0.137-0.306,0.305-0.306h11.39C31.863,2.25,32,2.387,32,2.556V6.25H20V2.556z M9,8.25h9h16h9
		c0.868,0,1.977,0.471,2.578,1.095c0.2,0.208,0.436,0.526,0.422,0.905v1H6C6,9.596,7.346,8.25,9,8.25z M38,50.944
		c0,0.169-0.137,0.306-0.305,0.306h-23.39c-0.168,0-0.305-0.137-0.305-0.306V49.25h24V50.944z M46,44.25c0,1.654-1.346,3-3,3h-3H12
		H9c-1.654,0-3-1.346-3-3v-22h40V44.25z M48,20.25h-1H5.5c-0.074,0-0.145-0.013-0.216-0.022l-0.173-0.022
		c-0.01-0.001-0.019,0.004-0.028,0.003C3.351,19.999,2,18.537,2,16.75c0-1.758,1.308-3.204,2.999-3.449H5
		c0.037,0,0.074-0.002,0.111-0.006l0.173-0.022c0.071-0.01,0.142-0.022,0.216-0.022H47h1c1.93,0,3.5,1.57,3.5,3.5
		S49.93,20.25,48,20.25z"/>
</g>
<g>
</g>
<g>
</g>
<g>
</g>
<g>
</g>
<g>
</g>
<g>
</g>
<g>
</g>
<g>
</g>
<g>
</g>
<g>
</g>
<g>
</g>
<g>
</g>
<g>
</g>
<g>
</g>
<g>
</g>
</svg>
