<?xml version="1.0" encoding="iso-8859-1"?>
<!-- Generator: Adobe Illustrator 18.0.0, SVG Export Plug-In . SVG Version: 6.00 Build 0)  -->
<!DOCTYPE svg PUBLIC "-//W3C//DTD SVG 1.1//EN" "http://www.w3.org/Graphics/SVG/1.1/DTD/svg11.dtd">
<svg version="1.1" id="Capa_1" xmlns="http://www.w3.org/2000/svg" xmlns:xlink="http://www.w3.org/1999/xlink" x="0px" y="0px"
	 viewBox="0 0 44 44" style="enable-background:new 0 0 44 44;" xml:space="preserve">
<g>
	<path d="M22,0C9.869,0,0,9.869,0,22s9.869,22,22,22s22-9.869,22-22S34.131,0,22,0z M8.841,26h27.307
		C36.056,26.288,36,26.591,36,26.905V27.5C36,33.841,29.944,39,22.5,39S9,33.841,9,27.5v-0.548C9,26.62,8.94,26.302,8.841,26z
		 M38.407,23.917c-0.108,0.026-0.207,0.067-0.31,0.103C38.064,24.016,38.035,24,38,24H7c-0.063,0-0.118,0.025-0.178,0.036
		c-0.114-0.034-0.226-0.072-0.345-0.093c-2.997-0.524-4.203-3.218-3.48-7.852c0.023-0.225,0.648-5.17,9.876-5.17
		c0.644,0,1.329,0.024,2.058,0.075c0.035,0.003,0.071,0.004,0.109,0.002c0.014,0.003,1.306-0.04,2.688,0.46
		c2.756,0.998,5.791,0.998,8.545,0c1.382-0.5,2.675-0.458,2.747-0.459c11.374-0.239,11.963,4.863,11.992,5.154
		C41.502,19.288,41.447,23.179,38.407,23.917z M22,2c6.752,0,12.721,3.372,16.345,8.511c-2.059-0.939-5.022-1.596-9.303-1.51
		c-0.07-0.009-1.683-0.063-3.45,0.577c-2.316,0.84-4.867,0.84-7.184,0h-0.001c-1.594-0.576-3.063-0.58-3.386-0.579
		c-4.113-0.282-7.02,0.25-9.075,1.123C9.594,5.206,15.422,2,22,2z M22,42C11.43,42,2.772,33.752,2.069,23.358
		c1.212,1.782,2.998,2.37,4.063,2.557C6.635,26.002,7,26.438,7,26.952V27.5C7,34.944,13.953,41,22.5,41S38,34.944,38,27.5v-0.595
		c0-0.489,0.361-0.919,0.88-1.045c0.937-0.228,2.125-0.773,3.026-2.009C40.968,34.014,32.404,42,22,42z"/>
	<path d="M17,34h10c0.553,0,1-0.447,1-1s-0.447-1-1-1H17c-0.553,0-1,0.447-1,1S16.447,34,17,34z"/>
	<path d="M35,15H9c-1.654,0-3,1.346-3,3s1.346,3,3,3h26c1.654,0,3-1.346,3-3S36.654,15,35,15z M35,19H9c-0.552,0-1-0.448-1-1
		s0.448-1,1-1h26c0.552,0,1,0.448,1,1S35.552,19,35,19z"/>
</g>
<g>
</g>
<g>
</g>
<g>
</g>
<g>
</g>
<g>
</g>
<g>
</g>
<g>
</g>
<g>
</g>
<g>
</g>
<g>
</g>
<g>
</g>
<g>
</g>
<g>
</g>
<g>
</g>
<g>
</g>
</svg>
