<?xml version="1.0" encoding="utf-8"?>
<!-- Generator: Adobe Illustrator 17.0.2, SVG Export Plug-In . SVG Version: 6.00 Build 0)  -->
<!DOCTYPE svg PUBLIC "-//W3C//DTD SVG 1.0//EN" "http://www.w3.org/TR/2001/REC-SVG-20010904/DTD/svg10.dtd">
<svg version="1.0" id="Layer_1" xmlns="http://www.w3.org/2000/svg" xmlns:xlink="http://www.w3.org/1999/xlink" x="0px" y="0px"
	 width="21.664px" height="20.702px" viewBox="0 0 21.664 20.702" enable-background="new 0 0 21.664 20.702" xml:space="preserve">
<g>
	<path d="M2.756,20.244h2.95c0.041,0.257,0.254,0.458,0.523,0.458h6.707c0.269,0,0.482-0.2,0.523-0.458h2.95
		c0.499,0,0.903-0.404,0.903-0.903H1.854C1.854,19.84,2.258,20.244,2.756,20.244z"/>
	<path d="M20.865,10.963c-0.751-0.609-1.81-0.619-2.508-0.542c0.02-0.486,0.031-0.983,0.031-1.5H0c0,4.969,0.752,8.556,5.511,9.893
		h7.366c1.885-0.529,3.135-1.417,3.964-2.599c1.806-0.035,4.711-0.746,4.82-3.24C21.708,11.883,21.254,11.278,20.865,10.963z
		 M17.597,14.789c0.346-0.888,0.551-1.888,0.664-2.988c0.489-0.08,1.33-0.131,1.754,0.215c0.079,0.064,0.322,0.262,0.294,0.901
		C20.252,14.209,18.648,14.643,17.597,14.789z"/>
	<path d="M7.491,8.223c0,0,3.5-0.257,1.896-3.208C8.099,2.646,8.393,1.256,10.041,0c0,0-5.398,1.375-2.25,5.63
		C8.946,7.484,7.491,8.223,7.491,8.223z"/>
	<path d="M9.85,7.987c0,0,2.804-0.591,1.278-2.846c-0.554-0.978,0.21-1.327,0.21-1.327s-1.805,0.057-1.043,1.608
		C10.905,6.669,10.724,7.377,9.85,7.987z"/>
</g>
</svg>
