<?xml version="1.0" encoding="iso-8859-1"?>
<!-- Generator: Adobe Illustrator 16.0.0, SVG Export Plug-In . SVG Version: 6.00 Build 0)  -->
<!DOCTYPE svg PUBLIC "-//W3C//DTD SVG 1.1//EN" "http://www.w3.org/Graphics/SVG/1.1/DTD/svg11.dtd">
<svg version="1.1" id="Capa_1" xmlns="http://www.w3.org/2000/svg" xmlns:xlink="http://www.w3.org/1999/xlink" x="0px" y="0px"
	 width="450.682px" height="450.682px" viewBox="0 0 450.682 450.682" style="enable-background:new 0 0 450.682 450.682;"
	 xml:space="preserve">
<g>
	<g>
		<path d="M40.106,448.463c61.079-24.229,72.21-68.932,70.916-130.538c-0.99-47.131-10.309-94.11-14.862-140.969
			c-1.867-19.228-2.561-38.553-2.212-57.849c0.587-32.659,21.486-32.963,45.374-31.238c12.021,19.799,36.652,33.414,65.175,33.414
			h107.427V99.795h36.19V21.486h-36.19V0H204.505c-26.239,0-49.175,11.532-62.043,28.79C70.913,24,35.604,61.612,34.315,133.017
			c-0.794,43.979,7.512,88.499,12.844,131.995c4.528,36.944,21.516,108.589-22.831,126.182
			C-10.833,405.139,4.478,462.597,40.106,448.463z"/>
		<path d="M390.686,90.161c5.178-8.187,3.695-1.238,14.775,3.477c11.085,4.719,40.792-29.178,40.792-29.178v-0.391v-6.667v-0.395
			c0,0-29.715-33.897-40.792-29.178c-11.089,4.719-9.605,11.668-14.775,3.477c-5.174-8.188-16.995-9.648-16.995-9.648v-0.172h-9.866
			v78.317h9.866C373.69,99.803,385.512,98.35,390.686,90.161z"/>
	</g>
</g>
<g>
</g>
<g>
</g>
<g>
</g>
<g>
</g>
<g>
</g>
<g>
</g>
<g>
</g>
<g>
</g>
<g>
</g>
<g>
</g>
<g>
</g>
<g>
</g>
<g>
</g>
<g>
</g>
<g>
</g>
</svg>
