<?xml version="1.0" encoding="iso-8859-1"?>
<!-- Generator: Adobe Illustrator 18.0.0, SVG Export Plug-In . SVG Version: 6.00 Build 0)  -->
<!DOCTYPE svg PUBLIC "-//W3C//DTD SVG 1.1//EN" "http://www.w3.org/Graphics/SVG/1.1/DTD/svg11.dtd">
<svg version="1.1" id="Capa_1" xmlns="http://www.w3.org/2000/svg" xmlns:xlink="http://www.w3.org/1999/xlink" x="0px" y="0px"
	 viewBox="0 0 59 59" style="enable-background:new 0 0 59 59;" xml:space="preserve">
<g>
	<path d="M40,40H18c-0.552,0-1,0.447-1,1c0,5.997,3.143,13,12,13c8.29,0,12-6.529,12-13C41,40.447,40.552,40,40,40z M38.075,46.015
		C38.049,46.013,38.026,46,38,46h-2v-4h2.966C38.874,43.352,38.584,44.729,38.075,46.015z M22,49.362
		c-0.415-0.419-0.784-0.874-1.106-1.362H22V49.362z M24,50.676V48h2v3.623c-0.743-0.195-1.42-0.46-2.032-0.791
		C23.977,50.779,24,50.731,24,50.676z M24,46v-4h2v4H24z M28,42h2v4h-2V42z M32,42h2v4h-2V42z M34,48v2.676
		c0,0.043,0.019,0.08,0.025,0.122c-0.609,0.338-1.284,0.61-2.025,0.811V48H34z M36,48h1.048c-0.307,0.459-0.659,0.889-1.048,1.289
		V48z M22,42v4h-2c-0.04,0-0.074,0.018-0.112,0.023c-0.491-1.272-0.769-2.645-0.856-4.023H22z M27.944,51.951
		C27.971,51.862,28,51.774,28,51.676V48h2v3.676c0,0.097,0.029,0.185,0.055,0.274C29.713,51.978,29.365,52,29,52
		C28.634,52,28.287,51.979,27.944,51.951z"/>
	<path d="M29.5,0C14.888,0,3,11.888,3,26.5v10.979c0,0,0,0.002,0,0.003c0,0.003,0,0.005,0,0.007c0,0.004,0,0.008,0,0.012V51
		c0,2.757,2.243,5,5,5h6.55c0.046,0.022,0.096,0.04,0.142,0.062c3.51,1.654,7.728,2.643,12.542,2.878
		c0.107,0.005,0.214,0.011,0.322,0.016C28.195,58.982,28.84,59,29.5,59s1.305-0.018,1.945-0.045c0.108-0.005,0.215-0.01,0.322-0.016
		c4.814-0.235,9.032-1.224,12.542-2.878c0.046-0.022,0.096-0.04,0.142-0.062H51c2.757,0,5-2.243,5-5V26.5C56,11.888,44.112,0,29.5,0
		z M43.993,54l-0.207,0.101c-2.828,1.374-6.204,2.271-9.917,2.666c-0.271,0.027-0.542,0.056-0.818,0.078
		c-0.392,0.033-0.787,0.062-1.187,0.084C31.09,56.969,30.309,57,29.5,57s-1.59-0.031-2.364-0.072
		c-0.399-0.022-0.794-0.051-1.187-0.084c-0.276-0.022-0.547-0.05-0.818-0.078c-3.712-0.394-7.089-1.292-9.917-2.666L15.007,54
		h-0.089C8.547,50.783,5,45.095,5,37.5c0-0.004,0-0.007,0-0.011c0-0.002,0-0.004,0-0.006c0-0.001,0-0.002,0-0.004
		C5.012,24.628,15.795,13.647,29,13l0.951-0.001C43.212,13.647,54,24.639,54,37.5c0,7.595-3.547,13.283-9.918,16.5H43.993z M8,54
		c-1.654,0-3-1.346-3-3v-4.226c1.384,2.876,3.459,5.308,6.148,7.226H8z M54,51c0,1.654-1.346,3-3,3h-3.148
		c2.689-1.917,4.764-4.349,6.148-7.226V51z M30,11l-1.049,0.001C18.165,11.529,8.911,18.42,5,27.735V26.5C5,12.99,15.991,2,29.5,2
		S54,12.99,54,26.5v1.198C50.079,18.398,40.811,11.528,30,11z"/>
	<path d="M20,36c0,0.553,0.448,1,1,1s1-0.447,1-1v-1h2c2.206,0,4-1.794,4-4s-1.794-4-4-4h-2v-4h3c0.552,0,1-0.447,1-1s-0.448-1-1-1
		h-3v-1c0-0.553-0.448-1-1-1s-1,0.447-1,1v1h-2c-2.206,0-4,1.794-4,4s1.794,4,4,4h2v4h-4c-0.552,0-1,0.447-1,1s0.448,1,1,1h4V36z
		 M18,27c-1.103,0-2-0.897-2-2s0.897-2,2-2h2v4H18z M22,29h2c1.103,0,2,0.897,2,2s-0.897,2-2,2h-2V29z"/>
	<path d="M41,27h-2v-4h3c0.552,0,1-0.447,1-1s-0.448-1-1-1h-3v-1c0-0.553-0.448-1-1-1s-1,0.447-1,1v1h-2c-2.206,0-4,1.794-4,4
		s1.794,4,4,4h2v4h-4c-0.552,0-1,0.447-1,1s0.448,1,1,1h4v1c0,0.553,0.448,1,1,1s1-0.447,1-1v-1h2c2.206,0,4-1.794,4-4
		S43.206,27,41,27z M35,27c-1.103,0-2-0.897-2-2s0.897-2,2-2h2v4H35z M41,33h-2v-4h2c1.103,0,2,0.897,2,2S42.103,33,41,33z"/>
</g>
<g>
</g>
<g>
</g>
<g>
</g>
<g>
</g>
<g>
</g>
<g>
</g>
<g>
</g>
<g>
</g>
<g>
</g>
<g>
</g>
<g>
</g>
<g>
</g>
<g>
</g>
<g>
</g>
<g>
</g>
</svg>
