<?xml version="1.0" encoding="iso-8859-1"?>
<!-- Generator: Adobe Illustrator 18.0.0, SVG Export Plug-In . SVG Version: 6.00 Build 0)  -->
<!DOCTYPE svg PUBLIC "-//W3C//DTD SVG 1.1//EN" "http://www.w3.org/Graphics/SVG/1.1/DTD/svg11.dtd">
<svg version="1.1" id="Capa_1" xmlns="http://www.w3.org/2000/svg" xmlns:xlink="http://www.w3.org/1999/xlink" x="0px" y="0px"
	 viewBox="0 0 480 480" style="enable-background:new 0 0 480 480;" xml:space="preserve">
<path d="M457.314,339.84L417.095,88.787h-21.732V26.028h-96.23v62.759h-25.355v21.859h-33.781h-33.781V88.787h-25.355V26.028h-96.23
	v62.759H62.892L22.678,339.84H0v114.132h227.378V339.84h-21.163V187.805h33.781h33.781V339.84h-21.188v114.132H480V339.84H457.314z
	 M319.132,46.028h56.23v42.759h-56.23V46.028z M400.044,108.787l9.455,59.019H293.777v-59.019H400.044z M104.629,46.028h56.23
	v42.759h-56.23V46.028z M186.215,108.787v59.019H70.49l9.454-59.019H186.215z M207.378,433.971H20V359.84h187.378V433.971z
	 M186.215,339.84H42.932l24.354-152.034h118.929V339.84z M239.996,167.805h-33.781v-37.159h33.781h33.781v37.159H239.996z
	 M293.777,187.805h118.926l24.356,152.034H293.777V187.805z M460,433.971h-187.41V359.84H460V433.971z"/>
<g>
</g>
<g>
</g>
<g>
</g>
<g>
</g>
<g>
</g>
<g>
</g>
<g>
</g>
<g>
</g>
<g>
</g>
<g>
</g>
<g>
</g>
<g>
</g>
<g>
</g>
<g>
</g>
<g>
</g>
</svg>
