<?xml version="1.0" encoding="iso-8859-1"?>
<!-- Generator: Adobe Illustrator 17.1.0, SVG Export Plug-In . SVG Version: 6.00 Build 0)  -->
<!DOCTYPE svg PUBLIC "-//W3C//DTD SVG 1.1//EN" "http://www.w3.org/Graphics/SVG/1.1/DTD/svg11.dtd">
<svg version="1.1" id="Capa_1" xmlns="http://www.w3.org/2000/svg" xmlns:xlink="http://www.w3.org/1999/xlink" x="0px" y="0px"
	 viewBox="0 0 206.333 206.333" style="enable-background:new 0 0 206.333 206.333;" xml:space="preserve">
<path d="M202.895,116.958c0-2.762-2.239-5-5-5h-25.822c-0.255-0.485-0.518-0.965-0.797-1.434
	c-4.785-8.033-13.392-14.309-23.316-15.114c-0.014-0.666-0.018-1.285-0.009-1.853c0.036-2.326,0.042-5.025,0.048-8.006
	c0.008-3.576,0.019-7.82,0.101-12.428h49.794c2.761,0,5-2.238,5-5s-2.239-5-5-5h-45.267c8.99-6.513,17.181-12.759,21.959-19.139
	c9.256-12.357,10.728-31.285,3.086-39.71c-2.303-2.54-8.875-7.712-20.133-0.881c-14.093,8.551-17.992,34.168-19.092,57.631
	c-0.955,0.694-1.913,1.394-2.87,2.099H54.436v-5.47l25.716-7.898c2.64-0.811,4.122-3.607,3.312-6.247s-3.604-4.122-6.248-3.312
	l-29.248,8.983c-2.099,0.645-3.532,2.583-3.532,4.779v9.164H8.438c-2.761,0-5,2.238-5,5s2.239,5,5,5h35.999v38.834H8.438
	c-2.761,0-5,2.238-5,5s2.239,5,5,5h35.999v10.713c-3.425-1.799-7.505-2.849-11.885-2.849c-12.067,0-21.885,7.939-21.885,17.698
	c0,5.281,2.878,10.025,7.429,13.271H8.438c-2.761,0-5,2.238-5,5s2.239,5,5,5h97.142c-2.344,2.271-3.809,5.445-3.809,8.959
	c0,0.456,0.028,0.905,0.076,1.348c0.004,3.331,0.614,14,7.923,20.41c3.662,3.212,8.267,4.825,13.743,4.825
	c1.927,0,3.962-0.199,6.1-0.6c13.608-2.548,19.276-16.898,21.166-34.942h47.116c2.761,0,5-2.238,5-5s-2.239-5-5-5h-46.442
	c0.072-2.053,0.112-4.129,0.119-6.224c3.921-1.344,7.715-3.296,11.257-5.851c10.436-7.525,13.659-17.576,12.448-26.759h22.618
	C200.656,121.958,202.895,119.72,202.895,116.958z M162.728,11.943c2.104-1.276,3.845-1.915,5.209-1.915
	c0.967,0,1.746,0.321,2.329,0.965c3.577,3.944,3.351,17.608-3.683,26.998c-3.585,4.787-10.153,9.965-17.604,15.42
	C150.402,35.324,153.928,17.283,162.728,11.943z M159.923,111.958h-10.806c-0.193-2.212-0.376-4.339-0.537-6.335
	C152.988,106.36,156.949,108.744,159.923,111.958z M141.434,146.682c-6.062,0.621-12.2-0.645-17.809-3.831
	c-8.001-4.545-13.216-12.021-14.88-20.893h10.746c0.628,5.732,2.891,10.021,3.037,10.289c1.315,2.429,4.35,3.332,6.778,2.016
	c2.428-1.315,3.331-4.35,2.015-6.777c-0.02-0.038-1.232-2.385-1.764-5.527h10.384C140.564,129.503,141.184,138.09,141.434,146.682z
	 M138,85.529c-0.006,2.932-0.012,5.587-0.047,7.874c-0.014,0.938-0.002,1.963,0.032,3.073c-1.51,0.448-3.03,1.035-4.553,1.771
	c-6.643,3.206-11.005,7.82-12.979,13.711h-12.086c1.584-14.746,15.082-27.16,29.709-38.223
	C138.017,77.918,138.008,81.892,138,85.529z M138.646,106.859c0.132,1.614,0.278,3.319,0.433,5.099h-7.449
	c1.395-1.833,3.426-3.39,6.149-4.705C138.069,107.113,138.357,106.982,138.646,106.859z M54.436,73.124h68.355
	c-12.696,10.781-23.106,23.137-24.447,38.504c-0.01,0.111-0.009,0.219-0.018,0.33H54.436V73.124z M127.772,195.903
	c-5.031,0.943-8.859,0.307-11.383-1.892c-0.603-0.525-1.121-1.14-1.58-1.803c6.628-0.292,11.934-5.76,11.934-12.458
	c0-3.514-1.464-6.688-3.809-8.959h17.841C139.342,184.169,135.669,194.426,127.772,195.903z M47.008,160.791
	c4.55-3.245,7.429-7.99,7.429-13.271v-25.563h44.222c1.831,12.474,8.988,23.317,20.027,29.588c7.115,4.041,15.027,5.724,22.85,5.11
	c-0.016,1.391-0.047,2.77-0.092,4.135H47.008z M156.98,140.605c-1.808,1.304-3.683,2.404-5.603,3.3
	c-0.279-7.478-0.823-14.935-1.403-21.947h15.194C166.435,128.057,164.72,135.025,156.98,140.605z"/>
<g>
</g>
<g>
</g>
<g>
</g>
<g>
</g>
<g>
</g>
<g>
</g>
<g>
</g>
<g>
</g>
<g>
</g>
<g>
</g>
<g>
</g>
<g>
</g>
<g>
</g>
<g>
</g>
<g>
</g>
</svg>
