<?xml version="1.0" encoding="iso-8859-1"?>
<!-- Generator: Adobe Illustrator 16.0.0, SVG Export Plug-In . SVG Version: 6.00 Build 0)  -->
<!DOCTYPE svg PUBLIC "-//W3C//DTD SVG 1.1//EN" "http://www.w3.org/Graphics/SVG/1.1/DTD/svg11.dtd">
<svg version="1.1" id="Capa_1" xmlns="http://www.w3.org/2000/svg" xmlns:xlink="http://www.w3.org/1999/xlink" x="0px" y="0px"
	 width="19.097px" height="31.685px" viewBox="0 0 19.097 31.685" style="enable-background:new 0 0 19.097 31.685;"
	 xml:space="preserve">
<path d="M16.79,0H2.306C1.03,0,0,1.034,0,2.309v27.07c0,1.271,1.03,2.306,2.306,2.306H16.79c1.273,0,2.307-1.034,2.307-2.306V2.309
	C19.097,1.034,18.063,0,16.79,0z M9.552,27.746c-2.846,0-5.16-2.312-5.16-5.16c0-2.849,2.314-5.152,5.16-5.152
	c2.838,0,5.152,2.304,5.152,5.152C14.704,25.433,12.39,27.746,9.552,27.746z M9.55,25.198c-1.463,0-2.653-1.188-2.653-2.652
	c0-1.464,1.19-2.649,2.653-2.649c1.459,0,2.648,1.185,2.648,2.649C12.198,24.01,11.009,25.198,9.55,25.198z M17.369,14.456H1.728
	V2.739h15.642V14.456z"/>
<g>
</g>
<g>
</g>
<g>
</g>
<g>
</g>
<g>
</g>
<g>
</g>
<g>
</g>
<g>
</g>
<g>
</g>
<g>
</g>
<g>
</g>
<g>
</g>
<g>
</g>
<g>
</g>
<g>
</g>
</svg>
