<?xml version='1.0' encoding='iso-8859-1'?>
<svg version="1.1" xmlns="http://www.w3.org/2000/svg" viewBox="0 0 270.581 270.581" xmlns:xlink="http://www.w3.org/1999/xlink" enable-background="new 0 0 270.581 270.581">
  <g>
    <g>
      <path d="m192.152,131.499v-4.381c0-5.522-4.478-10-10-10-5.442,0-9.86,4.35-9.988,9.761 20.273,4.62 19.988,4.62 19.988,4.62z"/>
      <path d="m204.318,239.911h-12.166v-60.534c-4.008,1.208-8.373,1.431-12.747,0.435l-7.253-1.653v61.753h-12.167c-5.523,0-10,4.477-10,10 0,5.522 4.477,10 10,10h44.333c5.523,0 10-4.478 10-10-2.84217e-14-5.524-4.477-10.001-10-10.001z"/>
      <path d="m147.76,172.599c-7.047-1.606-13.957-3.181-20.956-4.776-8.671-1.976-13.195-7.844-13.912-14.62l-5.06-48.598 16.748,44.166c1.483,3.913 4.829,6.825 8.91,7.755l48.692,11.097c6.736,1.534 13.431-2.683 14.965-9.41 1.534-6.73-2.679-13.431-9.41-14.965l-42.158-9.607-14.372-37.899 15.076,21.065 4.271-11.185c3.672-9.616-1.147-20.388-10.764-24.06l-31.05-11.856c-9.616-3.672-20.388,1.147-24.06,10.763 0,0-22.78,60.227-32.013,83.842-1.094,2.799-1.874,6.003-1.418,8.976 2.173,14.156 8.692,56.623 8.692,56.623h-44.941c-8.284,0-15,6.716-15,15s6.716,15 15,15h62.421c9.182,0 16.221-8.193 14.826-17.276l-8.578-55.878 38.455,9.685-10.656,45.01c-1.908,8.061 3.079,16.143 11.141,18.053 8.045,1.907 16.141-3.067 18.053-11.141l14.063-59.399c1.549-6.544-1.451-13.107-6.965-16.365z"/>
      <circle cx="142.128" cy="38.259" r="27.59"/>
      <path d="m228.672,185.969c-0.326-0.226-0.753-0.242-1.095-0.042s-0.537,0.581-0.499,0.976c0.142,1.489 0.054,3.507-1.326,5.388-1.653,2.652-6.868,6.758-11.612,11.635-3.632,3.781-7.332,8.313-8.989,13.373-2.208,7.038 0.361,11.161 3.191,13.04 0.694,0.461 1.616-0.081 1.556-0.912-0.259-3.565 0.565-5.007 3.234-7.892 3.591-3.695 8.835-7.879 13.126-13.196 3.284-4.006 6.573-9.68 6.307-14.83-0.012-2.675-1.227-5.693-3.893-7.54z"/>
      <path d="m270.566,174.779c-0.013-2.674-1.228-5.693-3.894-7.539-0.326-0.226-0.753-0.242-1.095-0.042s-0.537,0.581-0.499,0.976c0.142,1.489 0.054,3.507-1.326,5.389-1.653,2.652-6.868,6.757-11.612,11.635-3.632,3.781-7.332,8.313-8.989,13.373-2.208,7.038 0.361,11.161 3.191,13.04 0.694,0.461 1.616-0.081 1.556-0.912-0.259-3.565 0.565-5.007 3.234-7.892 3.591-3.695 8.835-7.879 13.126-13.196 3.284-4.008 6.573-9.682 6.308-14.832z"/>
      <path d="m244.009,171.669c0.694,0.461 1.616-0.081 1.556-0.912-0.259-3.565 0.565-5.007 3.234-7.892 3.591-3.695 8.835-7.879 13.126-13.196 3.284-4.006 6.573-9.68 6.307-14.83-0.013-2.674-1.228-5.693-3.894-7.539-0.326-0.226-0.753-0.242-1.095-0.042s-0.537,0.581-0.499,0.976c0.142,1.489 0.054,3.507-1.326,5.388-1.653,2.652-6.868,6.757-11.612,11.635-3.632,3.781-7.332,8.313-8.989,13.373-2.207,7.037 0.362,11.16 3.192,13.039z"/>
    </g>
  </g>
</svg>
