<?xml version="1.0" encoding="iso-8859-1"?>
<!-- Generator: Adobe Illustrator 16.0.0, SVG Export Plug-In . SVG Version: 6.00 Build 0)  -->
<!DOCTYPE svg PUBLIC "-//W3C//DTD SVG 1.1//EN" "http://www.w3.org/Graphics/SVG/1.1/DTD/svg11.dtd">
<svg version="1.1" id="Capa_1" xmlns="http://www.w3.org/2000/svg" xmlns:xlink="http://www.w3.org/1999/xlink" x="0px" y="0px"
	 width="295.654px" height="295.654px" viewBox="0 0 295.654 295.654" style="enable-background:new 0 0 295.654 295.654;"
	 xml:space="preserve">
<g>
	<g>
		<path d="M254.936,177.403c-21.675-15.896-43.351-19.512-44.07-27.465c-0.73-7.946-10.849,5.064-29.64-17.347
			c-18.786-22.403-41.187-51.305-41.187-64.312c0-13.007,18.072-21.686,27.465-18.791c9.393,2.89,8.678-26.015-7.224-31.074
			c-15.897-5.056-20.229-2.884-27.462-15.169c-7.226-12.29-22.403,13.729-33.246,21.676c-10.838,7.948-53.475,8.676-62.148,8.676
			c-8.671,0-9.398,24.57-7.948,32.519c1.442,7.948,14.452,20.956,14.452,27.462c0,6.507,15.177-4.326,20.956-12.28
			c5.786-7.954,14.814,0.355,14.814,0.355s22.763,19.519,22.763,41.194c0,21.681,47.695,35.775,71.541,45.531
			c19.117,7.824,41.016,42.803,42.259,63.634c0.425,7.167-2.496,14.427-1.59,17.119c0.911,2.697,5.634,0.632,10.559-4.599
			l11.402-12.127c4.929-5.225,3.857-12.479-1.357-17.419c-5.727-5.427-11.21-12.935-8.522-20.236
			c3.039-8.249,15.208-3.448,24.44,1.693c6.281,3.49,16.933,2.532,15.431-4.5C265.774,187.956,262.626,183.047,254.936,177.403z"/>
		<path d="M83.776,175.984c-2.201-6.845-11.369-6.519-15.897-3.562c-2.91,1.9-6.133,3.677-8.774,4.267
			c-6.506,1.439-3.611,2.165,0,10.107c2.742,6.027-8.787,22.862-4.083,32.846c3.061,6.498,16.312,9.057,23.361,7.694
			c9.864-1.89,8.176-11.821,8.176-21.753C86.56,197.313,86.56,184.653,83.776,175.984z"/>
		<path d="M182.769,252.889c-5.312,2.284-11.185,3.858-14.545,1.844c-7.224-4.334-32.517-14.033-33.241,0.927
			c-0.728,14.97,33.883,33.378,59.25,39.54c16.752,4.075,29.112-20.064,10.057-40.203
			C199.344,249.772,189.376,250.073,182.769,252.889z"/>
	</g>
</g>
<g>
</g>
<g>
</g>
<g>
</g>
<g>
</g>
<g>
</g>
<g>
</g>
<g>
</g>
<g>
</g>
<g>
</g>
<g>
</g>
<g>
</g>
<g>
</g>
<g>
</g>
<g>
</g>
<g>
</g>
</svg>
