<?xml version="1.0" encoding="utf-8"?>
<!-- Generator: Adobe Illustrator 17.0.0, SVG Export Plug-In . SVG Version: 6.00 Build 0)  -->
<!DOCTYPE svg PUBLIC "-//W3C//DTD SVG 1.1//EN" "http://www.w3.org/Graphics/SVG/1.1/DTD/svg11.dtd">
<svg version="1.1" id="Capa_1" xmlns="http://www.w3.org/2000/svg" xmlns:xlink="http://www.w3.org/1999/xlink" x="0px" y="0px"
	 width="26.275px" height="27.207px" viewBox="0 0 26.275 27.207" enable-background="new 0 0 26.275 27.207" xml:space="preserve">
<path d="M10.86,18.617c0-0.778-0.632-1.41-1.409-1.41c-0.779,0-1.411,0.632-1.411,1.41s0.632,1.41,1.411,1.41
	C10.228,20.027,10.86,19.396,10.86,18.617z M9.74,19.516c-0.399,0-0.723-0.324-0.723-0.725c0-0.398,0.324-0.723,0.723-0.723
	s0.722,0.324,0.722,0.723C10.462,19.191,10.139,19.516,9.74,19.516z M15.286,18.617c0,0.778,0.629,1.41,1.408,1.41
	c0.779,0,1.41-0.632,1.41-1.41s-0.631-1.41-1.41-1.41C15.916,17.207,15.286,17.839,15.286,18.617z M16.406,18.068
	c0.399,0,0.723,0.324,0.723,0.723c-0.001,0.4-0.324,0.725-0.723,0.725s-0.723-0.324-0.723-0.725
	C15.683,18.393,16.007,18.068,16.406,18.068z M9.957,22.189h6.091C16.048,22.189,13.099,25.428,9.957,22.189z M25.14,11.225
	l0.002-0.03c0.014-0.186,0.026-0.373,0.026-0.562c0-3.574-1.303-5.104-3.765-7.343C19.064,1.166,16.66,0,13.14,0
	C9.622,0,7.218,1.166,4.879,3.29c-2.462,2.236-3.767,3.769-3.767,7.343c0,0.138,0.009,0.276,0.015,0.415l0.006,0.177
	C0.504,11.26,0,11.749,0,12.359v7.611c0,0.636,0.532,1.151,1.193,1.151h0.408c0.235,0.234,0.557,0.369,0.895,0.369h1.219
	c0.054,0,0.108-0.007,0.161-0.015c1.917,3.44,5.29,5.73,9.126,5.73c3.857,0,7.248-2.313,9.16-5.783c0.126,0.04,0.26,0.067,0.4,0.067
	h1.221c0.339,0,0.657-0.132,0.887-0.369h0.413c0.659,0,1.192-0.516,1.192-1.151v-7.611C26.275,11.749,25.77,11.256,25.14,11.225z
	 M21.303,19.773c-1.55,3.423-4.684,5.765-8.301,5.765c-3.418,0-6.407-2.093-8.032-5.214c0.001-0.014,0.003-0.026,0.003-0.04v-5.372
	H6.89l4.23-3.145l-1.693,3.174c0,0,7.212,1.499,11.876,0.299V19.773z M23.13,10.842c-1.532-4.217-5.493-6.53-10.128-6.53
	c-4.614,0-8.562,2.296-10.105,6.482C2.993,5.134,6.678,1.65,13.39,1.65c6.027,0,9.899,3.484,9.993,9.192H23.13z"/>
</svg>
