<?xml version="1.0" encoding="iso-8859-1"?>
<!-- Generator: Adobe Illustrator 19.0.0, SVG Export Plug-In . SVG Version: 6.00 Build 0)  -->
<svg version="1.1" id="Capa_1" xmlns="http://www.w3.org/2000/svg" xmlns:xlink="http://www.w3.org/1999/xlink" x="0px" y="0px"
	 viewBox="0 0 463 463" style="enable-background:new 0 0 463 463;" xml:space="preserve">
<g>
	<path d="M398.901,317.619c-0.116-0.028-0.232-0.055-0.35-0.078L319,301.639v-37.662c15.015-11.921,24-30.15,24-49.72v-60.41
		c7.883-3.694,14.935-7.818,20.987-12.337c2.589-1.934,3.648-5.308,2.63-8.374S362.731,128,359.5,128h-0.728
		C356.819,94.941,342.053,64.709,319,42.858V39.5c0-4.143-3.357-7.5-7.5-7.5c-1.476,0-2.849,0.433-4.009,1.169
		c-13.18-9.836-28.37-17.214-44.954-21.362C260.874,5.04,254.772,0,247.5,0h-32c-7.272,0-13.373,5.04-15.037,11.807
		c-16.584,4.149-31.774,11.526-44.954,21.362C154.349,32.433,152.976,32,151.5,32c-4.143,0-7.5,3.357-7.5,7.5v3.358
		C120.947,64.709,106.181,94.941,104.228,128H103.5c-3.231,0-6.099,2.069-7.117,5.136s0.041,6.44,2.63,8.374
		c6.052,4.519,13.105,8.643,20.987,12.337v60.41c0,19.57,8.985,37.799,24,49.72v37.662l-79.552,15.902
		c-0.117,0.023-0.233,0.05-0.35,0.078C35.779,324.699,16,350.032,16,379.224V439.5c0,12.958,10.542,23.5,23.5,23.5h384
		c12.958,0,23.5-10.542,23.5-23.5v-60.276C447,350.032,427.221,324.699,398.901,317.619z M360,448H103v-40.5
		c0-9.098,7.402-16.5,16.5-16.5h224c9.098,0,16.5,7.402,16.5,16.5V448z M197.868,294.426C208.151,300.035,219.779,303,231.5,303
		c0.001,0,0.002,0,0.003,0s0.002,0,0.003,0c11.714,0,23.342-2.965,33.625-8.574L304,273.225V303.5c0,18.683-18.987,40.5-72.5,40.5
		S159,322.183,159,303.5v-30.275L197.868,294.426z M159,376v-38.879C173.931,350.965,199.242,359,231.5,359
		s57.569-8.035,72.5-21.879V376H159z M144,376h-17v-55.667l17-3.398V376z M336,376h-17v-59.065l17,3.398V376z M231.5,160
		c-36.231,0-70.59-5.917-96.5-16.088V143h193v0.912C302.09,154.083,267.731,160,231.5,160z M159,49.56
		c11.773-9.977,25.654-17.613,41-22.081V128h-41V49.56z M263,27.479c15.346,4.468,29.227,12.104,41,22.081V128h-41V27.479z
		 M343.722,128H319V64.922C333.208,82.554,342.143,104.444,343.722,128z M215.5,15h32c0.275,0,0.5,0.225,0.5,0.5v2.417
		c0,0.001,0,0.003,0,0.005V128h-33V15.5C215,15.225,215.225,15,215.5,15z M144,64.922V128h-24.722
		C120.857,104.444,129.792,82.554,144,64.922z M135,214.257v-54.255c12.363,4.428,26.181,7.952,41,10.473V183.5
		c0,4.143,3.357,7.5,7.5,7.5s7.5-3.357,7.5-7.5v-10.859c12.981,1.548,26.566,2.359,40.5,2.359s27.519-0.811,40.5-2.359V183.5
		c0,4.143,3.357,7.5,7.5,7.5s7.5-3.357,7.5-7.5v-13.025c14.819-2.521,28.637-6.044,41-10.473v54.255
		c0,17.759-9.686,34.074-25.276,42.578l-44.775,24.423C249.862,285.669,240.719,288,231.5,288c-0.001,0-0.002,0-0.003,0
		s-0.002,0-0.003,0c-9.212,0-18.355-2.331-26.441-6.742l-44.775-24.423C144.686,248.331,135,232.016,135,214.257z M31,439.5v-60.276
		c0-22.239,15.028-41.545,36.569-47.01L112,323.332v53.577c-13.759,3.374-24,15.806-24,30.591V448H39.5
		C34.813,448,31,444.187,31,439.5z M432,439.5c0,4.687-3.813,8.5-8.5,8.5H375v-40.5c0-14.785-10.241-27.216-24-30.591v-53.577
		l44.431,8.882c21.541,5.465,36.569,24.771,36.569,47.01V439.5z"/>
	<path d="M195.28,245.48c8.891,6.05,22.092,9.52,36.22,9.52c14.129,0,27.33-3.47,36.22-9.52c3.424-2.33,4.312-6.995,1.98-10.42
		c-2.33-3.425-6.995-4.31-10.42-1.98c-6.367,4.333-16.752,6.92-27.78,6.92c-11.027,0-21.412-2.587-27.78-6.92
		c-3.423-2.329-8.089-1.444-10.42,1.98S191.856,243.15,195.28,245.48z"/>
</g>
<g>
</g>
<g>
</g>
<g>
</g>
<g>
</g>
<g>
</g>
<g>
</g>
<g>
</g>
<g>
</g>
<g>
</g>
<g>
</g>
<g>
</g>
<g>
</g>
<g>
</g>
<g>
</g>
<g>
</g>
</svg>
