<?xml version="1.0" encoding="iso-8859-1"?>
<!-- Generator: Adobe Illustrator 16.0.0, SVG Export Plug-In . SVG Version: 6.00 Build 0)  -->
<!DOCTYPE svg PUBLIC "-//W3C//DTD SVG 1.1//EN" "http://www.w3.org/Graphics/SVG/1.1/DTD/svg11.dtd">
<svg version="1.1" id="Capa_1" xmlns="http://www.w3.org/2000/svg" xmlns:xlink="http://www.w3.org/1999/xlink" x="0px" y="0px"
	 width="432.836px" height="432.836px" viewBox="0 0 432.836 432.836" style="enable-background:new 0 0 432.836 432.836;"
	 xml:space="preserve">
<g>
	<path d="M429.704,213.208c-1.166-1.194-28.893-29.346-58.681-38.172c-0.026-0.008-0.053-0.016-0.078-0.023
		c0.019-0.02,0.037-0.039,0.056-0.058c21.386-22.542,31.32-60.786,31.732-62.403l1.107-4.344l-4.315-1.212
		c-0.908-0.256-22.518-6.248-46.113-6.248c-8.796,0-16.802,0.851-23.792,2.528c-0.026,0.006-0.053,0.013-0.08,0.019
		c0.007-0.025,0.013-0.051,0.02-0.077c7.249-30.215-3.27-68.303-3.721-69.909l-1.213-4.315l-4.344,1.107
		c-1.617,0.413-39.859,10.35-62.4,31.734c-0.021,0.018-0.038,0.036-0.058,0.055c-0.008-0.024-0.016-0.05-0.022-0.074
		c-8.827-29.793-36.981-57.518-38.176-58.684L216.418,0l-3.208,3.132c-1.193,1.166-29.347,28.891-38.176,58.684
		c-0.008,0.024-0.015,0.05-0.021,0.074c-0.02-0.019-0.038-0.036-0.058-0.055c-22.542-21.385-60.785-31.321-62.401-31.734
		l-4.345-1.107l-1.212,4.315c-0.451,1.606-10.97,39.695-3.72,69.91c0.006,0.025,0.012,0.051,0.019,0.076
		c-0.026-0.006-0.052-0.012-0.077-0.019c-6.993-1.678-14.998-2.528-23.795-2.528c-23.599,0-45.205,5.992-46.113,6.248l-4.316,1.212
		l1.108,4.344c0.412,1.617,10.348,39.861,31.731,62.401c0.019,0.021,0.037,0.04,0.056,0.06c-0.025,0.008-0.05,0.016-0.075,0.022
		c-29.79,8.827-57.517,36.98-58.683,38.175L0,216.418l3.132,3.208c1.166,1.194,28.893,29.347,58.681,38.174
		c0.025,0.009,0.051,0.017,0.076,0.022c-0.018,0.02-0.036,0.037-0.054,0.058c-21.385,22.541-31.32,60.785-31.732,62.402
		l-1.108,4.344l4.316,1.212c0.908,0.256,22.517,6.248,46.113,6.248c8.796,0,16.802-0.852,23.791-2.527
		c0.026-0.007,0.054-0.014,0.081-0.02c-0.007,0.025-0.013,0.051-0.019,0.077c-7.25,30.214,3.269,68.303,3.72,69.909l1.212,4.314
		l4.345-1.106c1.616-0.413,39.859-10.349,62.401-31.733c0.019-0.019,0.038-0.036,0.057-0.055c0.008,0.024,0.016,0.051,0.022,0.074
		c8.829,29.794,36.982,57.519,38.176,58.685l3.208,3.132l3.208-3.132c1.194-1.166,29.347-28.891,38.176-58.683
		c0.009-0.025,0.015-0.052,0.022-0.076c0.02,0.019,0.037,0.036,0.057,0.055c22.542,21.386,60.785,31.32,62.402,31.733l4.344,1.106
		l1.213-4.314c0.451-1.606,10.969-39.695,3.72-69.909c-0.006-0.026-0.013-0.052-0.019-0.077c0.025,0.006,0.051,0.012,0.077,0.02
		c6.992,1.676,14.998,2.526,23.795,2.527c0.001,0,0,0,0.002,0c23.598,0,45.203-5.992,46.111-6.248l4.315-1.212l-1.107-4.344
		c-0.413-1.617-10.349-39.861-31.731-62.401c-0.019-0.021-0.038-0.04-0.057-0.06c0.024-0.009,0.051-0.017,0.076-0.022
		c29.79-8.826,57.517-36.98,58.682-38.175l3.132-3.208L429.704,213.208z M82.109,195.533c10.985,0,22.854,2.558,37.351,8.051
		c9.163,3.471,18.527,7.771,27.947,12.833c-9.422,5.063-18.794,9.367-27.947,12.834c-14.501,5.494-26.375,8.053-37.368,8.053h-0.169
		c-8.827-0.587-17.604-3.268-26.09-7.971c-5.341-2.961-10.737-6.776-16.04-11.344c-0.59-0.509-1.192-1.035-1.794-1.571
		c0.603-0.536,1.204-1.064,1.794-1.571c5.308-4.568,10.704-8.386,16.04-11.344c8.486-4.705,17.264-7.386,26.091-7.97H82.109z
		 M254.378,216.418c0,20.932-17.028,37.96-37.96,37.96c-20.931,0-37.96-17.028-37.96-37.96c0-20.932,17.029-37.961,37.96-37.961
		C237.35,178.457,254.378,195.486,254.378,216.418z M350.722,237.302c-10.979,0-22.847-2.559-37.345-8.052
		c-9.171-3.475-18.542-7.777-27.948-12.833c9.418-5.059,18.789-9.363,27.949-12.834c14.497-5.493,26.369-8.052,37.361-8.052h0.174
		c8.827,0.586,17.604,3.267,26.09,7.97c5.334,2.957,10.73,6.774,16.04,11.346c0.592,0.509,1.193,1.036,1.794,1.571
		c-0.6,0.534-1.201,1.062-1.793,1.57c-5.308,4.567-10.705,8.386-16.042,11.345c-8.485,4.703-17.263,7.384-26.09,7.969H350.722
		L350.722,237.302z M370.167,129.464c-2.317,6.619-5.083,12.623-8.22,17.846c-5.001,8.321-11.264,15.032-18.614,19.949
		c-9.53,5.537-21.144,9.285-36.528,11.794c-9.671,1.575-19.938,2.533-30.622,2.859c5.628-9.095,11.594-17.509,17.789-25.089
		c9.853-12.063,18.904-20.245,28.477-25.741c7.939-3.907,16.883-5.974,26.583-6.145c0.463-0.008,0.926-0.012,1.389-0.012
		c5.688,0,11.803,0.611,18.176,1.817c0.771,0.146,1.555,0.302,2.339,0.464C370.682,127.969,370.424,128.727,370.167,129.464z
		 M285.525,70.887c5.209-3.13,11.213-5.896,17.842-8.217c0.741-0.259,1.5-0.517,2.261-0.768c0.162,0.785,0.317,1.57,0.463,2.337
		c1.304,6.892,1.911,13.475,1.805,19.566c-0.17,9.707-2.236,18.648-6.146,26.58c-5.487,9.564-13.67,18.616-25.739,28.479
		c-7.584,6.199-15.997,12.163-25.087,17.788c0.326-10.685,1.284-20.953,2.859-30.621c2.503-15.377,6.251-26.99,11.792-36.53
		C270.494,82.15,277.206,75.889,285.525,70.887z M229.253,119.458c-3.472,9.165-7.776,18.538-12.835,27.95
		c-5.056-9.407-9.36-18.779-12.835-27.95c-5.521-14.573-8.08-26.503-8.05-37.531c0.583-8.828,3.264-17.606,7.971-26.095
		c2.951-5.326,6.768-10.724,11.34-16.037c0.513-0.595,1.041-1.197,1.575-1.797c0.537,0.604,1.063,1.205,1.569,1.793
		c4.576,5.317,8.393,10.714,11.346,16.043c4.705,8.485,7.387,17.264,7.97,26.093C237.333,92.955,234.773,104.885,229.253,119.458z
		 M156.825,138.866c-12.067-9.86-20.25-18.913-25.74-28.479c-3.908-7.936-5.976-16.879-6.145-26.584
		c-0.106-6.089,0.501-12.671,1.806-19.562c0.145-0.764,0.3-1.549,0.463-2.338c0.763,0.252,1.52,0.51,2.256,0.768
		c6.625,2.318,12.629,5.084,17.846,8.22c8.32,5,15.031,11.262,19.948,18.612c5.541,9.537,9.29,21.15,11.794,36.531
		c1.577,9.675,2.535,19.944,2.86,30.622C172.83,151.033,164.416,145.068,156.825,138.866z M156.652,181.911
		c-10.687-0.326-20.956-1.284-30.621-2.858c-15.379-2.506-26.992-6.254-36.53-11.793c-7.353-4.922-13.614-11.634-18.612-19.951
		c-3.137-5.22-5.901-11.223-8.218-17.842c-0.258-0.737-0.516-1.495-0.768-2.259c0.784-0.162,1.569-0.318,2.338-0.464
		c6.888-1.305,13.432-1.911,19.563-1.807c9.702,0.171,18.645,2.238,26.582,6.146c9.567,5.49,18.621,13.674,28.479,25.741
		C145.065,164.409,151.028,172.822,156.652,181.911z M62.67,303.37c2.318-6.621,5.083-12.625,8.219-17.845
		c4.999-8.318,11.262-15.03,18.613-19.95c9.532-5.537,21.146-9.286,36.53-11.794c9.667-1.574,19.937-2.532,30.621-2.857
		c-5.628,9.094-11.592,17.506-17.787,25.087c-9.855,12.064-18.907,20.247-28.479,25.741c-7.936,3.907-16.878,5.975-26.581,6.145
		c-0.467,0.008-0.934,0.014-1.399,0.014c-5.682,0-11.794-0.611-18.164-1.816c-0.766-0.146-1.551-0.302-2.34-0.465
		C62.154,304.867,62.412,304.109,62.67,303.37z M147.311,361.947c-5.215,3.134-11.219,5.897-17.844,8.218
		c-0.738,0.258-1.496,0.516-2.258,0.768c-0.163-0.787-0.318-1.571-0.464-2.338c-1.304-6.89-1.911-13.472-1.805-19.563
		c0.169-9.705,2.237-18.647,6.146-26.581c5.487-9.564,13.67-18.617,25.739-28.479c7.573-6.188,15.975-12.146,25.087-17.785
		c-0.325,10.684-1.283,20.95-2.859,30.618c-2.504,15.378-6.252,26.991-11.793,36.531
		C162.34,350.688,155.629,356.947,147.311,361.947z M203.585,313.377c3.469-9.161,7.772-18.533,12.833-27.947
		c5.057,9.407,9.361,18.78,12.835,27.948c5.521,14.567,8.08,26.498,8.054,37.531c-0.586,8.831-3.269,17.607-7.974,26.094
		c-2.952,5.328-6.769,10.725-11.341,16.038c-0.512,0.593-1.04,1.195-1.574,1.796c-0.534-0.6-1.062-1.201-1.57-1.792
		c-4.572-5.313-8.39-10.712-11.346-16.043c-4.705-8.489-7.386-17.268-7.969-26.095C195.503,339.883,198.063,327.952,203.585,313.377
		z M276.013,293.971c12.064,9.857,20.247,18.91,25.74,28.479c3.908,7.937,5.975,16.879,6.143,26.584
		c0.108,6.087-0.499,12.668-1.805,19.561c-0.145,0.767-0.301,1.552-0.464,2.339c-0.765-0.253-1.521-0.511-2.256-0.767
		c-6.62-2.317-12.624-5.083-17.846-8.221c-8.319-4.999-15.03-11.261-19.948-18.612c-5.54-9.536-9.288-21.148-11.793-36.531
		c-1.577-9.672-2.535-19.939-2.86-30.619C260.008,281.804,268.422,287.768,276.013,293.971z M276.185,250.924
		c10.696,0.327,20.966,1.284,30.621,2.858c15.376,2.504,26.989,6.253,36.53,11.793c7.352,4.921,13.612,11.632,18.612,19.95
		c3.136,5.219,5.9,11.223,8.217,17.841c0.259,0.739,0.517,1.499,0.769,2.261c-0.781,0.162-1.566,0.318-2.337,0.465
		c-6.894,1.303-13.438,1.908-19.564,1.805c-9.702-0.17-18.646-2.237-26.582-6.146c-9.566-5.487-18.619-13.67-28.479-25.74
		C287.771,268.425,281.807,260.011,276.185,250.924z"/>
</g>
<g>
</g>
<g>
</g>
<g>
</g>
<g>
</g>
<g>
</g>
<g>
</g>
<g>
</g>
<g>
</g>
<g>
</g>
<g>
</g>
<g>
</g>
<g>
</g>
<g>
</g>
<g>
</g>
<g>
</g>
</svg>
