<?xml version="1.0" encoding="iso-8859-1"?>
<!-- Generator: Adobe Illustrator 18.0.0, SVG Export Plug-In . SVG Version: 6.00 Build 0)  -->
<!DOCTYPE svg PUBLIC "-//W3C//DTD SVG 1.1//EN" "http://www.w3.org/Graphics/SVG/1.1/DTD/svg11.dtd">
<svg version="1.1" id="Capa_1" xmlns="http://www.w3.org/2000/svg" xmlns:xlink="http://www.w3.org/1999/xlink" x="0px" y="0px"
	 viewBox="0 0 49 49" style="enable-background:new 0 0 49 49;" xml:space="preserve">
<g>
	<path d="M33.385,32.388c-0.508-0.213-1.095,0.028-1.308,0.538c-1.876,4.503-7.436,6.651-12.141,4.691
		c-0.508-0.211-1.094,0.028-1.308,0.538c-0.213,0.51,0.028,1.096,0.538,1.308c1.39,0.579,2.896,0.869,4.41,0.869
		c1.414,0,2.835-0.253,4.171-0.762c2.856-1.086,5.049-3.173,6.175-5.875C34.136,33.186,33.895,32.6,33.385,32.388z"/>
	<circle cx="31" cy="27.338" r="2"/>
	<path d="M45.888,19.976c-0.055-0.276-0.134-0.541-0.199-0.812c-0.064-0.266-0.122-0.534-0.195-0.796
		c-0.117-0.419-0.254-0.827-0.393-1.234c-0.064-0.185-0.12-0.374-0.189-0.557c-0.179-0.479-0.38-0.945-0.589-1.406
		c-0.048-0.106-0.091-0.216-0.141-0.321c-0.232-0.489-0.486-0.962-0.752-1.427c-0.047-0.082-0.089-0.168-0.136-0.25
		c-0.235-0.398-0.489-0.781-0.747-1.161c-0.106-0.157-0.205-0.319-0.315-0.473c-0.142-0.197-0.296-0.383-0.444-0.574
		c-4.046-5.287-10.393-8.627-17.444-8.627c-8.297,0-15.623,4.778-19.254,11.969c-0.062,0.122-0.129,0.24-0.19,0.364
		c-0.164,0.341-0.311,0.693-0.458,1.044c-0.108,0.255-0.22,0.506-0.318,0.766c-0.11,0.293-0.204,0.594-0.303,0.893
		c-0.105,0.317-0.212,0.633-0.303,0.957c-0.082,0.294-0.149,0.595-0.22,0.895c-0.059,0.251-0.133,0.495-0.184,0.749
		C1.306,20.954,0,23.084,0,25.162c0,2.154,1.269,4.09,3.208,4.979C5.704,39.896,14.386,46.662,24.5,46.662
		c10.115,0,18.797-6.767,21.292-16.521c1.94-0.89,3.208-2.825,3.208-4.979C49,23.084,47.694,20.954,45.888,19.976z M5.286,19.48
		c0.067-0.27,0.14-0.538,0.217-0.803c0.089-0.305,0.184-0.606,0.286-0.903c0.079-0.23,0.162-0.458,0.248-0.684
		c0.134-0.348,0.276-0.691,0.428-1.028c0.065-0.145,0.131-0.29,0.2-0.433C9.87,8.978,16.605,4.662,24.5,4.662
		c6.126,0,11.556,2.596,15.181,6.865c0.007,0.008,0.013,0.016,0.02,0.025c0.31,0.367,0.602,0.751,0.885,1.141
		c0.128,0.178,0.25,0.361,0.372,0.543c0.167,0.248,0.33,0.499,0.485,0.755c0.164,0.272,0.319,0.55,0.471,0.83
		c0.109,0.201,0.217,0.402,0.319,0.608c0.153,0.309,0.296,0.625,0.434,0.944c0.09,0.208,0.179,0.416,0.262,0.628
		c0.121,0.309,0.232,0.623,0.338,0.94c0.082,0.245,0.162,0.492,0.235,0.742c0.086,0.292,0.162,0.589,0.235,0.886
		c0.037,0.154,0.069,0.309,0.103,0.464c-4.089,1.318-7.132-1.613-9.008-4.407c-0.34-0.505-0.879-0.848-1.479-0.94
		c-0.612-0.092-1.244,0.075-1.734,0.467c-9.307,7.435-22.77,5.458-26.424,4.742C5.224,19.758,5.252,19.617,5.286,19.48z
		 M44.621,28.457c-0.328,0.111-0.575,0.385-0.653,0.722C41.86,38.295,33.855,44.662,24.5,44.662
		c-9.354,0-17.359-6.366-19.468-15.482c-0.078-0.337-0.325-0.609-0.652-0.721C2.956,27.975,2,26.649,2,25.162
		c0-1.354,0.932-2.829,2.119-3.443c1.15,0.264,4.777,1.003,9.409,1.003c5.854-0.001,13.304-1.183,19.337-6.004
		c0.072-0.059,0.143-0.057,0.182-0.053c0.078,0.012,0.112,0.063,0.123,0.079c3.3,4.916,7.466,6.674,11.78,5.01
		c1.154,0.635,2.05,2.08,2.05,3.408C47,26.649,46.044,27.974,44.621,28.457z"/>
	<path d="M21.059,28.621c0.393,0.101,0.805-0.049,1.046-0.374c0.241-0.324,0.263-0.763,0.056-1.109
		c-0.78-1.302-2.142-2.277-3.737-2.678s-3.257-0.182-4.559,0.597c-0.474,0.284-0.628,0.898-0.345,1.372
		c0.283,0.475,0.897,0.627,1.372,0.345c1.13-0.678,2.628-0.654,3.844-0.094c-0.539,0.137-1.061,0.353-1.551,0.646
		c-1.318,0.79-2.251,2.047-2.625,3.54c-0.135,0.535,0.19,1.079,0.727,1.213c0.082,0.021,0.163,0.03,0.244,0.03
		c0.447,0,0.855-0.303,0.969-0.757C17.004,29.343,19.051,28.123,21.059,28.621z"/>
</g>
<g>
</g>
<g>
</g>
<g>
</g>
<g>
</g>
<g>
</g>
<g>
</g>
<g>
</g>
<g>
</g>
<g>
</g>
<g>
</g>
<g>
</g>
<g>
</g>
<g>
</g>
<g>
</g>
<g>
</g>
</svg>
