<?xml version="1.0" encoding="iso-8859-1"?>
<!-- Generator: Adobe Illustrator 18.0.0, SVG Export Plug-In . SVG Version: 6.00 Build 0)  -->
<!DOCTYPE svg PUBLIC "-//W3C//DTD SVG 1.1//EN" "http://www.w3.org/Graphics/SVG/1.1/DTD/svg11.dtd">
<svg version="1.1" id="Capa_1" xmlns="http://www.w3.org/2000/svg" xmlns:xlink="http://www.w3.org/1999/xlink" x="0px" y="0px"
	 viewBox="0 0 44 44" style="enable-background:new 0 0 44 44;" xml:space="preserve">
<g>
	<path d="M22,0C9.869,0,0,9.869,0,22s9.869,22,22,22s22-9.869,22-22S34.131,0,22,0z M22,42C10.972,42,2,33.028,2,22S10.972,2,22,2
		s20,8.972,20,20S33.028,42,22,42z"/>
	<path d="M31.992,30.963c-0.004-0.119-0.024-0.236-0.07-0.346c-0.003-0.008-0.009-0.014-0.012-0.022
		c-0.028-0.062-0.058-0.123-0.099-0.179c-0.024-0.033-0.054-0.059-0.081-0.088c-0.015-0.017-0.029-0.034-0.045-0.049
		c-0.081-0.077-0.173-0.139-0.273-0.184c-0.02-0.009-0.041-0.015-0.062-0.023C31.239,30.029,31.122,30,31,30h-4H17h-4
		c-0.122,0-0.239,0.029-0.35,0.071c-0.021,0.008-0.041,0.014-0.062,0.023c-0.101,0.046-0.192,0.107-0.273,0.184
		c-0.016,0.016-0.03,0.033-0.045,0.049c-0.027,0.029-0.057,0.055-0.081,0.088c-0.04,0.056-0.071,0.117-0.099,0.179
		c-0.003,0.008-0.009,0.014-0.012,0.022c-0.046,0.11-0.065,0.228-0.07,0.346C12.007,30.976,12,30.987,12,31
		c0,0.009,0.005,0.017,0.005,0.027c0.003,0.097,0.015,0.195,0.046,0.29l2,6C14.187,37.725,14.569,38,15,38s0.812-0.275,0.948-0.684
		L17.72,32h8.559l1.772,5.316C28.187,37.725,28.569,38,29,38s0.812-0.275,0.948-0.684l2-6c0.032-0.095,0.044-0.192,0.046-0.29
		C31.995,31.017,32,31.01,32,31C32,30.987,31.993,30.976,31.992,30.963z M15,33.838L14.388,32h1.225L15,33.838z M29,33.838
		L28.388,32h1.225L29,33.838z"/>
	<path d="M10.409,13.723c0.746,0.747,1.703,1.121,2.659,1.121c0.945,0,1.889-0.366,2.623-1.101c0.195-0.195,0.293-0.451,0.293-0.707
		c0-0.256-0.098-0.512-0.293-0.707c-0.391-0.391-1.023-0.391-1.414,0c-0.081,0.081-0.17,0.154-0.265,0.218
		c-0.169,0.114-0.356,0.191-0.551,0.239c-0.021,0.005-0.042,0.015-0.063,0.019c-0.022,0.004-0.046,0.003-0.069,0.007
		c-0.091,0.013-0.182,0.023-0.273,0.016c-0.465-0.004-0.902-0.188-1.234-0.52c-0.391-0.391-1.023-0.391-1.414,0
		c-0.195,0.195-0.293,0.451-0.293,0.707C10.116,13.271,10.214,13.527,10.409,13.723z"/>
	<path d="M31.084,14.006c0.946,0,1.89-0.366,2.623-1.101c0.391-0.391,0.391-1.023,0-1.414s-1.023-0.391-1.414,0
		c-0.082,0.082-0.171,0.154-0.264,0.216c-0.277,0.184-0.602,0.283-0.943,0.283c-0.004,0-0.009,0-0.013,0
		c-0.465-0.004-0.902-0.188-1.234-0.52c-0.391-0.391-1.023-0.391-1.414,0s-0.391,1.023,0,1.414
		C29.172,13.632,30.129,14.006,31.084,14.006z"/>
	<path d="M15,18.5c0-0.198-0.027-0.388-0.058-0.577c-2.201,0.33-4.585-0.165-6.268-1.472C8.255,17.028,8,17.732,8,18.5
		c0,1.933,1.567,3.5,3.5,3.5S15,20.433,15,18.5z"/>
	<path d="M29.058,17.923C29.027,18.112,29,18.302,29,18.5c0,1.933,1.567,3.5,3.5,3.5s3.5-1.567,3.5-3.5
		c0-0.768-0.255-1.472-0.674-2.049C33.644,17.758,31.259,18.253,29.058,17.923z"/>
</g>
<g>
</g>
<g>
</g>
<g>
</g>
<g>
</g>
<g>
</g>
<g>
</g>
<g>
</g>
<g>
</g>
<g>
</g>
<g>
</g>
<g>
</g>
<g>
</g>
<g>
</g>
<g>
</g>
<g>
</g>
</svg>
