<?xml version="1.0" encoding="iso-8859-1"?>
<!-- Generator: Adobe Illustrator 19.0.0, SVG Export Plug-In . SVG Version: 6.00 Build 0)  -->
<svg version="1.1" id="Capa_1" xmlns="http://www.w3.org/2000/svg" xmlns:xlink="http://www.w3.org/1999/xlink" x="0px" y="0px"
	 viewBox="0 0 463 463" style="enable-background:new 0 0 463 463;" xml:space="preserve">
<g>
	<path d="M431.5,80h-400C14.131,80,0,94.131,0,111.5v240C0,368.869,14.131,383,31.5,383h400c17.369,0,31.5-14.131,31.5-31.5v-240
		C463,94.131,448.869,80,431.5,80z M448,351.5c0,9.098-7.402,16.5-16.5,16.5h-400c-9.098,0-16.5-7.402-16.5-16.5v-240
		c0-9.098,7.402-16.5,16.5-16.5h400c9.098,0,16.5,7.402,16.5,16.5V351.5z"/>
	<path d="M35.5,127c6.341,0,11.5-5.159,11.5-11.5S41.841,104,35.5,104S24,109.159,24,115.5S29.159,127,35.5,127z"/>
	<path d="M35.5,336c-6.341,0-11.5,5.159-11.5,11.5S29.159,359,35.5,359S47,353.841,47,347.5S41.841,336,35.5,336z"/>
	<path d="M427.5,104c-6.341,0-11.5,5.159-11.5,11.5s5.159,11.5,11.5,11.5s11.5-5.159,11.5-11.5S433.841,104,427.5,104z"/>
	<path d="M427.5,336c-6.341,0-11.5,5.159-11.5,11.5s5.159,11.5,11.5,11.5s11.5-5.159,11.5-11.5S433.841,336,427.5,336z"/>
	<path d="M127.5,144C79.252,144,40,183.252,40,231.5S79.252,319,127.5,319s87.5-39.252,87.5-87.5S175.748,144,127.5,144z
		 M81.842,287.764l6.161-6.161c2.929-2.929,2.929-7.678,0-10.606c-2.929-2.929-7.678-2.929-10.606,0l-6.161,6.161
		C62.579,266.51,56.872,253.375,55.387,239H63.5c4.142,0,7.5-3.358,7.5-7.5s-3.358-7.5-7.5-7.5h-8.113
		c1.484-14.375,7.192-27.51,15.849-38.157l6.161,6.161c1.464,1.464,3.384,2.197,5.303,2.197s3.839-0.732,5.303-2.197
		c2.929-2.929,2.929-7.678,0-10.606l-6.161-6.161c10.648-8.657,23.783-14.365,38.158-15.849v8.113c0,4.142,3.358,7.5,7.5,7.5
		s7.5-3.358,7.5-7.5v-8.113c14.374,1.484,27.51,7.192,38.158,15.849l-6.161,6.161c-2.929,2.929-2.929,7.678,0,10.606
		c1.464,1.464,3.384,2.197,5.303,2.197s3.839-0.732,5.303-2.197l6.161-6.161c8.657,10.647,14.364,23.783,15.849,38.157H191.5
		c-4.142,0-7.5,3.358-7.5,7.5s3.358,7.5,7.5,7.5h8.113c-1.484,14.375-7.192,27.51-15.849,38.157l-6.161-6.161
		c-2.929-2.929-7.678-2.929-10.606,0c-2.929,2.929-2.929,7.678,0,10.606l6.161,6.161C160.683,297.906,144.792,304,127.5,304
		S94.317,297.906,81.842,287.764z"/>
	<path d="M150.147,174.881c-3.848-1.541-8.21,0.332-9.749,4.178l-11.591,28.979c-0.433-0.024-0.868-0.038-1.307-0.038
		c-12.958,0-23.5,10.542-23.5,23.5s10.542,23.5,23.5,23.5s23.5-10.542,23.5-23.5c0-7.152-3.215-13.563-8.272-17.877l11.597-28.993
		C155.864,180.784,153.993,176.419,150.147,174.881z M127.5,240c-4.687,0-8.5-3.813-8.5-8.5s3.813-8.5,8.5-8.5s8.5,3.813,8.5,8.5
		S132.187,240,127.5,240z"/>
	<path d="M327.5,144c-48.248,0-87.5,39.252-87.5,87.5s39.252,87.5,87.5,87.5s87.5-39.252,87.5-87.5S375.748,144,327.5,144z
		 M281.842,287.764l6.161-6.161c2.929-2.929,2.929-7.678,0-10.606c-2.929-2.929-7.678-2.929-10.606,0l-6.161,6.161
		c-8.657-10.647-14.364-23.783-15.849-38.157h8.113c4.142,0,7.5-3.358,7.5-7.5s-3.358-7.5-7.5-7.5h-8.113
		c1.484-14.375,7.192-27.51,15.849-38.157l6.161,6.161c1.464,1.464,3.384,2.197,5.303,2.197s3.839-0.732,5.303-2.197
		c2.929-2.929,2.929-7.678,0-10.606l-6.161-6.161c10.648-8.657,23.783-14.365,38.158-15.849v8.113c0,4.142,3.358,7.5,7.5,7.5
		s7.5-3.358,7.5-7.5v-8.113c14.374,1.484,27.51,7.192,38.158,15.849l-6.161,6.161c-2.929,2.929-2.929,7.678,0,10.606
		c1.464,1.464,3.384,2.197,5.303,2.197s3.839-0.732,5.303-2.197l6.161-6.161c8.657,10.647,14.364,23.783,15.849,38.157H391.5
		c-4.142,0-7.5,3.358-7.5,7.5s3.358,7.5,7.5,7.5h8.113c-1.484,14.375-7.192,27.51-15.849,38.157l-6.161-6.161
		c-2.929-2.929-7.678-2.929-10.606,0c-2.929,2.929-2.929,7.678,0,10.606l6.161,6.161C360.683,297.906,344.792,304,327.5,304
		S294.317,297.906,281.842,287.764z"/>
	<path d="M350.147,174.881c-3.847-1.541-8.21,0.332-9.749,4.178l-11.591,28.979c-0.433-0.024-0.868-0.038-1.307-0.038
		c-12.958,0-23.5,10.542-23.5,23.5s10.542,23.5,23.5,23.5s23.5-10.542,23.5-23.5c0-7.152-3.215-13.563-8.272-17.877l11.597-28.993
		C355.864,180.784,353.993,176.419,350.147,174.881z M327.5,240c-4.687,0-8.5-3.813-8.5-8.5s3.813-8.5,8.5-8.5s8.5,3.813,8.5,8.5
		S332.187,240,327.5,240z"/>
</g>
<g>
</g>
<g>
</g>
<g>
</g>
<g>
</g>
<g>
</g>
<g>
</g>
<g>
</g>
<g>
</g>
<g>
</g>
<g>
</g>
<g>
</g>
<g>
</g>
<g>
</g>
<g>
</g>
<g>
</g>
</svg>
