<?xml version="1.0" encoding="iso-8859-1"?>
<!-- Generator: Adobe Illustrator 16.0.0, SVG Export Plug-In . SVG Version: 6.00 Build 0)  -->
<!DOCTYPE svg PUBLIC "-//W3C//DTD SVG 1.1//EN" "http://www.w3.org/Graphics/SVG/1.1/DTD/svg11.dtd">
<svg version="1.1" id="Capa_1" xmlns="http://www.w3.org/2000/svg" xmlns:xlink="http://www.w3.org/1999/xlink" x="0px" y="0px"
	 width="421.322px" height="421.322px" viewBox="0 0 421.322 421.322" style="enable-background:new 0 0 421.322 421.322;"
	 xml:space="preserve">
<g>
	<g>
		<path d="M317.486,1.426H25c-13.807,0-25,11.193-25,25c0,13.808,11.193,25,25,25l52.993,0.059c7.731,0,14,6.268,14,14
			c0,7.732-6.269,14-14,14H33.625v106.178H25c-13.807,0-25,11.191-25,25c0,13.807,11.193,25,25,25l52.993,0.072
			c7.731,0,14,6.268,14,14s-6.269,14-14,14H33.625v106.162H25c-13.807,0-25,11.193-25,25s11.193,25,25,25h220.219
			c-27.318-22.332-44.79-56.281-44.79-94.236c0-28.013,17.42-65.127,53.258-113.467c24.724-33.35,49.11-59.59,50.137-60.69
			l5.038-5.404V51.426h8.625c13.807,0,25-11.192,25-25C342.486,12.619,331.293,1.426,317.486,1.426z"/>
		<path d="M376.256,232.588c-21.892-29.528-44.096-53.418-44.317-53.656c-1.132-1.214-2.718-1.903-4.377-1.903
			c-1.66,0-3.245,0.689-4.377,1.903c-0.223,0.238-22.428,24.128-44.317,53.656c-29.902,40.334-45.062,71.643-45.062,93.059
			c0,51.699,42.06,93.762,93.758,93.762s93.76-42.062,93.76-93.762C421.32,304.229,406.158,272.922,376.256,232.588z
			 M336.925,389.066c-4.914,1.162-9.979,1.75-15.057,1.75c-36.08,0-65.435-29.354-65.435-65.435c0-4.976,1.531-13.986,8.826-28.673
			c0.733-1.477,2.423-2.209,4.002-1.739c1.578,0.47,2.592,2.009,2.397,3.646c-0.168,1.414-0.252,2.744-0.252,3.955
			c0,38.674,27.506,72.268,65.403,79.877c1.562,0.312,2.693,1.672,2.721,3.264C339.56,387.305,338.475,388.699,336.925,389.066z"/>
	</g>
</g>
<g>
</g>
<g>
</g>
<g>
</g>
<g>
</g>
<g>
</g>
<g>
</g>
<g>
</g>
<g>
</g>
<g>
</g>
<g>
</g>
<g>
</g>
<g>
</g>
<g>
</g>
<g>
</g>
<g>
</g>
</svg>
