<?xml version="1.0" encoding="iso-8859-1"?>
<!-- Generator: Adobe Illustrator 16.0.4, SVG Export Plug-In . SVG Version: 6.00 Build 0)  -->
<!DOCTYPE svg PUBLIC "-//W3C//DTD SVG 1.1//EN" "http://www.w3.org/Graphics/SVG/1.1/DTD/svg11.dtd">
<svg version="1.1" id="Capa_1" xmlns="http://www.w3.org/2000/svg" xmlns:xlink="http://www.w3.org/1999/xlink" x="0px" y="0px"
	 width="40.226px" height="48.015px" viewBox="0 0 40.226 48.015" style="enable-background:new 0 0 40.226 48.015;"
	 xml:space="preserve">
<g id="Lego_Square">
	<g>
		<path d="M20.29,15.672c-2.414,0-4.235-1.051-4.235-2.444c0-1.394,1.821-2.445,4.235-2.445s4.234,1.051,4.234,2.445
			C24.524,14.622,22.704,15.672,20.29,15.672z M20.29,12.283c-1.702,0-2.735,0.657-2.735,0.945c0,0.288,1.033,0.944,2.735,0.944
			c1.701,0,2.734-0.656,2.734-0.944C23.024,12.954,22.066,12.283,20.29,12.283z"/>
		<path d="M20.29,20.325c-2.414,0-4.235-1.051-4.235-2.445v-4.651c0-0.414,0.336-0.75,0.75-0.75s0.75,0.336,0.75,0.75v4.651
			c0,0.289,1.033,0.945,2.735,0.945c1.776,0,2.734-0.671,2.734-0.945v-4.651c0-0.414,0.336-0.75,0.75-0.75s0.75,0.336,0.75,0.75
			v4.651C24.524,19.274,22.704,20.325,20.29,20.325z"/>
	</g>
	<g>
		<path d="M29.962,10.312c-2.415,0-4.236-1.05-4.236-2.443c0-1.395,1.821-2.446,4.236-2.446c2.414,0,4.235,1.051,4.235,2.446
			C34.197,9.261,32.376,10.312,29.962,10.312z M29.962,6.922c-1.702,0-2.736,0.657-2.736,0.946c0,0.288,1.034,0.943,2.736,0.943
			s2.735-0.655,2.735-0.943C32.697,7.594,31.738,6.922,29.962,6.922z"/>
		<path d="M29.962,14.964c-2.415,0-4.236-1.051-4.236-2.445V7.868c0-0.414,0.336-0.75,0.75-0.75s0.75,0.336,0.75,0.75v4.651
			c0,0.289,1.034,0.945,2.736,0.945c1.776,0,2.735-0.671,2.735-0.945V7.868c0-0.414,0.336-0.75,0.75-0.75s0.75,0.336,0.75,0.75
			v4.651C34.197,13.913,32.376,14.964,29.962,14.964z"/>
	</g>
	<g>
		<path d="M10.472,10.329c-2.414,0-4.235-1.05-4.235-2.443c0-1.394,1.821-2.445,4.235-2.445s4.234,1.051,4.234,2.445
			C14.706,9.279,12.886,10.329,10.472,10.329z M10.472,6.941c-1.776,0-2.735,0.671-2.735,0.945c0,0.288,1.033,0.943,2.735,0.943
			c1.701,0,2.734-0.655,2.734-0.943C13.206,7.612,12.248,6.941,10.472,6.941z"/>
		<path d="M10.472,14.982c-2.414,0-4.235-1.051-4.235-2.445V7.886c0-0.414,0.336-0.75,0.75-0.75s0.75,0.336,0.75,0.75v4.651
			c0,0.274,0.959,0.945,2.735,0.945s2.734-0.671,2.734-0.945V7.886c0-0.414,0.336-0.75,0.75-0.75s0.75,0.336,0.75,0.75v4.651
			C14.706,13.931,12.886,14.982,10.472,14.982z"/>
	</g>
	<g>
		<path d="M20.356,4.889c-2.415,0-4.236-1.05-4.236-2.443C16.12,1.051,17.941,0,20.356,0c2.414,0,4.234,1.051,4.234,2.446
			C24.591,3.839,22.771,4.889,20.356,4.889z M20.356,1.5c-1.702,0-2.736,0.657-2.736,0.946c0,0.288,1.034,0.943,2.736,0.943
			c1.701,0,2.734-0.655,2.734-0.943C23.091,2.171,22.133,1.5,20.356,1.5z"/>
		<path d="M20.356,9.542c-2.415,0-4.236-1.051-4.236-2.445V2.446c0-0.414,0.336-0.75,0.75-0.75s0.75,0.336,0.75,0.75v4.651
			c0,0.289,1.034,0.945,2.736,0.945c1.701,0,2.734-0.656,2.734-0.945V2.446c0-0.414,0.336-0.75,0.75-0.75s0.75,0.336,0.75,0.75
			v4.651C24.591,8.491,22.771,9.542,20.356,9.542z"/>
	</g>
	<g>
		<path d="M20.007,48.015c-0.169,0-0.338-0.043-0.49-0.128L0.51,37.186C0.194,37.008,0,36.675,0,36.314V13.306
			c0-0.356,0.189-0.685,0.497-0.864c0.307-0.179,0.687-0.181,0.997-0.005l19.01,10.8c0.312,0.178,0.506,0.51,0.506,0.87
			l-0.003,22.909c0,0.355-0.188,0.684-0.495,0.863C20.355,47.97,20.182,48.015,20.007,48.015z M2,35.729l17.007,9.575l0.003-20.617
			L2,15.024V35.729z"/>
		<path d="M20.01,48.011c-0.175,0-0.35-0.046-0.505-0.137c-0.307-0.179-0.495-0.508-0.495-0.863V24.106
			c0-0.362,0.195-0.696,0.512-0.873l19.216-10.759c0.309-0.173,0.688-0.169,0.994,0.01c0.307,0.179,0.494,0.508,0.494,0.863
			l-0.017,22.887c0,0.361-0.195,0.695-0.511,0.872L20.499,47.883C20.348,47.969,20.179,48.011,20.01,48.011z M21.01,24.692v20.611
			l17.199-9.655l0.016-20.595L21.01,24.692z"/>
		<path d="M39.018,14.223c-0.161,0-0.324-0.039-0.477-0.121l-5.228-2.84c-0.485-0.264-0.665-0.871-0.401-1.356
			c0.264-0.485,0.869-0.664,1.356-0.401l5.228,2.84c0.485,0.264,0.665,0.871,0.401,1.356C39.716,14.034,39.372,14.223,39.018,14.223
			z"/>
		<path d="M26.705,7.714c-0.154,0-0.312-0.036-0.458-0.112L23.76,6.317c-0.49-0.253-0.683-0.856-0.43-1.347
			c0.253-0.49,0.857-0.684,1.348-0.429l2.487,1.285c0.49,0.253,0.683,0.856,0.43,1.347C27.417,7.517,27.067,7.714,26.705,7.714z"/>
		<path d="M1.042,14.223c-0.354,0-0.698-0.189-0.88-0.522c-0.264-0.485-0.084-1.093,0.401-1.356l5.228-2.84
			C6.274,9.242,6.884,9.42,7.147,9.905c0.264,0.485,0.084,1.093-0.401,1.356l-5.228,2.84C1.367,14.184,1.203,14.223,1.042,14.223z"
			/>
		<path d="M13.73,7.548c-0.362,0-0.713-0.198-0.89-0.542c-0.253-0.491-0.061-1.094,0.431-1.347l2.736-1.41
			c0.49-0.252,1.095-0.06,1.347,0.431c0.253,0.491,0.061,1.094-0.431,1.347l-2.736,1.41C14.041,7.512,13.885,7.548,13.73,7.548z"/>
	</g>
</g>
<g>
</g>
<g>
</g>
<g>
</g>
<g>
</g>
<g>
</g>
<g>
</g>
<g>
</g>
<g>
</g>
<g>
</g>
<g>
</g>
<g>
</g>
<g>
</g>
<g>
</g>
<g>
</g>
<g>
</g>
</svg>
