<?xml version="1.0" encoding="iso-8859-1"?>
<!-- Generator: Adobe Illustrator 16.0.0, SVG Export Plug-In . SVG Version: 6.00 Build 0)  -->
<!DOCTYPE svg PUBLIC "-//W3C//DTD SVG 1.1//EN" "http://www.w3.org/Graphics/SVG/1.1/DTD/svg11.dtd">
<svg version="1.1" id="Capa_1" xmlns="http://www.w3.org/2000/svg" xmlns:xlink="http://www.w3.org/1999/xlink" x="0px" y="0px"
	 width="31.029px" height="31.028px" viewBox="0 0 31.029 31.028" style="enable-background:new 0 0 31.029 31.028;"
	 xml:space="preserve">
<g>
	<path d="M26.887,5.368V5.346h-0.024C26.869,5.354,26.878,5.361,26.887,5.368z"/>
	<path d="M28.25,14.99c-0.004-1.016,1.277-4.795,1.277-4.795s-2.719,1.057-3.457,1.061c-0.736,0.001-1.892-1.456-1.896-2.515
		c0,0-3.529,4.479-4.268,4.158c-0.738-0.317,1.303-9.077,1.303-9.077s-2.112,1.93-2.852,1.7c-0.736-0.227-2.828-5.458-2.828-5.458
		S15.495,0,15.453,0c-0.044,0-0.076,0.066-0.076,0.066s-2.056,5.245-2.792,5.479c-0.736,0.229-2.86-1.682-2.86-1.682
		s2.104,8.744,1.367,9.067C10.358,13.254,6.796,8.8,6.796,8.8c0.001,1.059-1.145,2.527-1.88,2.528
		c-0.736,0.003-3.458-1.035-3.458-1.035s1.306,3.774,1.307,4.786c0.004,1.015-1.378,0.974-1.377,1.156
		c0,0.187,1.34,1.054,3.282,2.752c1.939,1.698,3.719,2.844,3.72,3.671c0.003,0.646-0.706,2.352-0.706,2.352s6.029-1.033,6.535-1.129
		c0.507-0.094,0.967-0.094,0.972,0.965l-0.327,6.183h1.472l-0.438-6.187c-0.005-1.06,0.454-1.061,0.963-0.971
		c0.506,0.092,6.542,1.083,6.542,1.083s-0.72-1.7-0.723-2.347c-0.002-0.829,1.766-1.987,3.696-3.7
		c1.927-1.71,3.263-2.591,3.263-2.774C29.638,15.952,28.252,16.004,28.25,14.99z M15.831,20.922l0.056,1.873h-0.75l0.057-1.904
		l-7.963-4.563l7.99,3.688l0.291-11.783l0.291,11.754l8.084-4.099L15.831,20.922z"/>
</g>
<g>
</g>
<g>
</g>
<g>
</g>
<g>
</g>
<g>
</g>
<g>
</g>
<g>
</g>
<g>
</g>
<g>
</g>
<g>
</g>
<g>
</g>
<g>
</g>
<g>
</g>
<g>
</g>
<g>
</g>
</svg>
