<?xml version="1.0" encoding="iso-8859-1"?>
<!-- Generator: Adobe Illustrator 18.0.0, SVG Export Plug-In . SVG Version: 6.00 Build 0)  -->
<!DOCTYPE svg PUBLIC "-//W3C//DTD SVG 1.1//EN" "http://www.w3.org/Graphics/SVG/1.1/DTD/svg11.dtd">
<svg version="1.1" id="Capa_1" xmlns="http://www.w3.org/2000/svg" xmlns:xlink="http://www.w3.org/1999/xlink" x="0px" y="0px"
	 viewBox="0 0 491.531 491.531" style="enable-background:new 0 0 491.531 491.531;" xml:space="preserve">
<g>
	<path d="M382.835,198.989l-29.591,64.08L258.434,61.824l-82.526,175.163l-42.555-90.327L0,429.707h491.531L382.835,198.989z
		 M383.017,246.302l22.093,46.895c-2.268,1.565-4.233,3.337-6.025,4.958c-4.551,4.118-7.838,7.094-14.821,7.094
		s-10.271-2.976-14.822-7.094c-2.196-1.987-4.653-4.2-7.61-5.979L383.017,246.302z M291.715,179.395
		c-4.421,2.333-8.011,5.575-11.171,8.436c-6.124,5.542-11.412,10.329-22.014,10.329s-15.891-4.787-22.014-10.329
		c-3.197-2.895-6.833-6.182-11.326-8.521l33.243-70.559L291.715,179.395z M167.337,265.721c-4.044,2.321-7.434,5.382-10.606,8.253
		c-6.487,5.871-12.089,10.941-23.378,10.941s-16.891-5.07-23.378-10.941c-3.172-2.871-6.563-5.933-10.607-8.253l33.985-72.133
		L167.337,265.721z M31.531,409.707l59.246-125.751c1.641,1.146,3.465,2.753,5.777,4.846c7.513,6.8,17.803,16.113,36.799,16.113
		s29.286-9.313,36.799-16.113c2.311-2.092,4.135-3.698,5.776-4.845l59.243,125.75H31.531z M257.279,409.707l-70.318-149.256
		l29.694-63.026c1.693,1.019,3.655,2.713,6.439,5.232c7.227,6.542,17.125,15.502,35.436,15.502s28.208-8.96,35.436-15.502
		c2.702-2.446,4.629-4.111,6.288-5.139l42.047,89.249l-56.771,122.939H257.279z M353.317,310.617
		c0.755,0.621,1.631,1.395,2.705,2.366c5.396,4.885,13.553,12.266,28.242,12.266s22.845-7.381,28.242-12.266
		c0.493-0.446,0.935-0.841,1.355-1.212L460,409.707H307.559L353.317,310.617z"/>
	<path d="M374.643,161.131l7.998,10.723l8.041-10.701c0.039-0.052,3.971-5.246,10.171-10.277c5.166-4.19,13.077-9.187,21.437-9.187
		v-20c-17.029,0-31.258,10.577-39.62,18.625c-8.361-8.048-22.59-18.625-39.619-18.625v20c8.36,0,16.271,4.996,21.437,9.187
		C370.688,155.906,374.62,161.101,374.643,161.131z"/>
</g>
<g>
</g>
<g>
</g>
<g>
</g>
<g>
</g>
<g>
</g>
<g>
</g>
<g>
</g>
<g>
</g>
<g>
</g>
<g>
</g>
<g>
</g>
<g>
</g>
<g>
</g>
<g>
</g>
<g>
</g>
</svg>
