<?xml version="1.0" encoding="utf-8"?>
<!-- Generator: Adobe Illustrator 16.0.4, SVG Export Plug-In . SVG Version: 6.00 Build 0)  -->
<!DOCTYPE svg PUBLIC "-//W3C//DTD SVG 1.1//EN" "http://www.w3.org/Graphics/SVG/1.1/DTD/svg11.dtd">
<svg version="1.1" id="Capa_1" xmlns="http://www.w3.org/2000/svg" xmlns:xlink="http://www.w3.org/1999/xlink" x="0px" y="0px"
	 width="6.834px" height="19.675px" viewBox="0 0 6.834 19.675" enable-background="new 0 0 6.834 19.675" preserveAspectRatio="fit">
<path d="M4.927,19.025l-0.021-0.086l-0.057-1.123c0,0,0.036-0.217,0.153-0.376c0.116-0.162-0.044-3.167-0.044-3.167
	s0.113-0.311,0.2-0.369c0.088-0.061-0.171-2-0.128-2.029c0.044-0.027,0.328-0.185,0.49-0.271c0.16-0.088,0.465-0.981,0.465-0.981
	s0.1-0.123,0.244-0.225c0.147-0.103,0.279-0.409,0.336-0.554c0.06-0.148-0.057-0.308-0.057-0.308l0.219-0.498L6.642,8.907
	L5.763,8.498l-0.365,0.54c0,0-0.336-0.191-0.512-0.395C4.709,8.438,4.754,7.941,4.563,7.619C4.478,7.475,4.297,7.375,4.122,7.308
	C4.06,7.129,3.963,6.856,3.935,6.742C3.891,6.567,3.905,6.229,3.95,6.127c0.027-0.067,0-0.247-0.021-0.364
	C3.949,5.717,3.97,5.722,3.978,5.67C4.26,5.639,4.817,5.5,4.795,5.494C4.771,5.488,4.239,5.424,3.964,5.4
	c-0.009-0.049,0-0.036-0.021-0.078l0.746-0.467l-0.89,0.238C3.762,5.056,3.775,5.026,3.728,4.995
	c0.074-0.101,0.407-0.772,0.373-0.744C3.974,4.354,3.52,4.828,3.456,4.881C3.397,4.862,3.337,4.85,3.273,4.842L3.115,3.825
	l-0.12,1.016C2.883,4.854,2.898,4.847,2.804,4.894l0,0c0,0-0.673-0.636-0.71-0.665c-0.036-0.03,0.407,0.772,0.407,0.772l-0.066,0.11
	L1.886,4.967c-0.009,0.04-0.019,0.082-0.028,0.128l0.468,0.207L2.311,5.389c0,0-0.23-0.013-0.394,0.002
	C1.935,5.46,1.956,5.521,1.982,5.58c0.126,0.016,0.323,0.052,0.323,0.052s0.011,0.017,0.027,0.044
	c0.025,0.04,0.063,0.102,0.089,0.147c0.015,0.287,0.077,0.4,0.077,0.4L2.456,6.646c0,0-0.122-0.028-0.195-0.103
	C2.187,6.471,1.997,6.253,1.982,6.05C1.97,5.875,1.928,5.654,1.87,5.58C1.852,5.544,1.763,5.276,1.75,5.156
	C1.741,5.098,1.735,5.041,1.733,4.989c0-0.022-0.001-0.044-0.001-0.065L1.729,4.923C1.728,4.896,1.728,4.87,1.728,4.842
	C1.712,4.388,1.391,3.627,1.391,3.466c0-0.161-0.015-0.511,0-0.775c0.013-0.264-0.205-0.498-0.205-0.498s0.028-0.073,0.103-0.16
	c0.029-0.035,0.037-0.077,0.037-0.115c0.19-0.04,0.318-0.111,0.318-0.194c0-0.025-0.014-0.051-0.039-0.073V1.475
	C1.63,1.453,1.644,1.427,1.644,1.4c0-0.102-0.197-0.185-0.465-0.214c-0.004-0.056,0-0.144,0.04-0.172
	C1.278,0.975,1.39,0.892,1.381,0.742C1.37,0.591,1.376,0.502,1.41,0.448c0.033-0.053,0.116-0.13,0.116-0.13L1.214,0.454L1.504,0
	c0,0-0.546,0.17-0.728,0.331C0.645,0.448,0.562,0.588,0.659,0.882c0.04,0.123,0.087,0.234,0.156,0.301
	c-0.28,0.025-0.488,0.113-0.488,0.216c0,0.024,0.013,0.049,0.035,0.07v0.187C0.34,1.678,0.328,1.702,0.328,1.725
	c0,0.073,0.101,0.136,0.255,0.178c-0.009,0.12,0.091,0.231,0.091,0.231c0,0.001,0,0.001,0,0.001C0.671,2.138,0.6,2.241,0.585,2.5
	C0.571,2.764,0.731,2.956,0.731,2.956s0.015,0.087,0.015,0.248s0.146,0.454,0.146,0.454s0.043,0.247,0.015,0.7
	c-0.03,0.454,0.204,1.259,0.204,1.259s-0.19,0.336-0.35,0.716C0.6,6.713,1.083,7.24,1.083,7.24S1.39,8.105,1.417,8.454
	c0.03,0.352,0.145,3.083,0.072,3.668c-0.074,0.584-0.146,2.449-0.131,2.683c0.013,0.233,0.177,1.217,0.104,1.991
	c-0.073,0.775-0.06,2.054-0.06,2.054l-0.005,0.176H0v0.649h6.834v-0.649L4.927,19.025L4.927,19.025z M5.804,8.664l0.738,0.351
	L6.388,9.366c0,0-0.178-0.019-0.275,0.059C6.017,9.502,5.86,9.774,5.86,9.852c0,0.079,0.039,0.254,0.039,0.254L5.334,11.1
	l-0.117-0.097L5.121,9.641L5.804,8.664z M3.257,6.036C3.252,6.074,3.233,6.093,3.189,6.093S3.097,6.109,3.097,6.109l0.061,0.092
	v0.052c0,0-0.013,0.007-0.057,0.007c-0.045,0-0.059,0.034-0.068,0.059C3.022,6.342,3.091,6.324,3.131,6.324
	c0.038,0,0.054,0.054,0.054,0.054s0,0.106,0,0.151c0,0.043-0.031,0.049-0.083,0.043C3.048,6.568,2.887,6.557,2.832,6.46
	C2.779,6.361,2.77,6.122,2.794,6.08c0.025-0.043,0.215-0.127,0.249-0.136c0.033-0.01,0.044-0.107,0.033-0.157
	c-0.01-0.049-0.17-0.083-0.17-0.083C2.824,5.625,3.189,5.46,3.238,5.471C3.286,5.479,3.5,5.68,3.5,5.68S3.296,5.719,3.266,5.753
	C3.238,5.787,3.262,5.997,3.257,6.036z M3.448,6.26C3.403,6.275,3.292,5.986,3.359,5.986c0,0,0.181,0.005,0.185,0.05
	C3.549,6.08,3.493,6.245,3.448,6.26z M3.355,5.388c-0.04-0.006-0.187-0.059-0.268-0.012C3.003,5.427,2.76,5.606,2.673,5.67
	C2.584,5.734,2.56,5.499,2.56,5.499c0.098-0.165,0.356-0.296,0.462-0.306c0.109-0.011,0.264,0.01,0.318,0.039
	C3.393,5.26,3.52,5.226,3.617,5.306C3.715,5.381,3.77,5.558,3.755,5.603C3.74,5.646,3.394,5.392,3.355,5.388z"/>
</svg>
