<?xml version="1.0" encoding="iso-8859-1"?>
<!-- Generator: Adobe Illustrator 16.0.0, SVG Export Plug-In . SVG Version: 6.00 Build 0)  -->
<!DOCTYPE svg PUBLIC "-//W3C//DTD SVG 1.1//EN" "http://www.w3.org/Graphics/SVG/1.1/DTD/svg11.dtd">
<svg version="1.1" id="Capa_1" xmlns="http://www.w3.org/2000/svg" xmlns:xlink="http://www.w3.org/1999/xlink" x="0px" y="0px"
	 width="573.75px" height="573.75px" viewBox="0 0 573.75 573.75" style="enable-background:new 0 0 573.75 573.75;"
	 xml:space="preserve">
<g>
	<g id="Layer_2_2_">
		<path d="M183.332,35.505l107.75,174.812L396.729,38.919L358.45,18.217c0,0-25.264,36.433-67.358,36.433
			c-42.094,0-75.783-36.433-75.783-36.433L183.332,35.505z"/>
		<polygon points="447.362,66.297 412.774,47.593 291.082,245.039 167.286,44.188 120.507,69.481 290.719,328.902 		"/>
		<path d="M528.213,109.29c-11.828,0-22.5,4.628-30.6,12.02l12.384-21.124l-46.608-25.207L291.446,363.231L104.432,78.173
			l-40.679,22.003l13.339,21.917c-8.186-7.898-19.278-12.804-31.556-12.804C20.387,109.29,0,129.677,0,154.817
			c0,25.149,20.387,45.537,45.537,45.537s45.537-20.387,45.537-45.537c0-4.724-0.928-9.199-2.266-13.483l59.583,97.862
			c-8.022-7.086-18.456-11.522-29.997-11.522c-25.149,0-45.537,20.387-45.537,45.536c0,25.149,20.388,45.537,45.537,45.537
			c25.149,0,45.536-20.388,45.536-45.537c0-3.768-0.593-7.382-1.453-10.882l48.166,79.12c-5.9-2.792-12.431-4.485-19.393-4.485
			c-25.149,0-45.537,20.388-45.537,45.537s20.387,45.537,45.537,45.537c24.595,0,44.504-19.537,45.374-43.921l49.256,80.908
			c-22.5,2.764-39.99,21.726-39.99,44.973c0,25.149,20.387,45.536,45.537,45.536s45.537-20.387,45.537-45.536
			c0-23.533-17.921-42.668-40.823-45.059l50.261-85.719c-0.076,1.1-0.335,2.161-0.335,3.28c0,25.149,20.388,45.537,45.537,45.537
			s45.537-20.388,45.537-45.537s-20.388-45.537-45.537-45.537c-9.151,0-17.633,2.755-24.776,7.401l43.251-73.765
			c-0.048,0.88-0.268,1.721-0.268,2.61c0,25.149,20.388,45.537,45.537,45.537c25.148,0,45.536-20.388,45.536-45.537
			s-20.388-45.537-45.536-45.537c-8.961,0-17.251,2.678-24.299,7.144l52.833-90.127c-0.746,3.261-1.215,6.627-1.215,10.117
			c0,25.149,20.388,45.537,45.537,45.537s45.546-20.377,45.546-45.527C573.75,129.677,553.362,109.29,528.213,109.29z
			 M45.537,173.033c-10.041,0-18.217-8.166-18.217-18.216c0-10.041,8.167-18.217,18.217-18.217c10.041,0,18.217,8.167,18.217,18.217
			S55.577,173.033,45.537,173.033z M118.394,291.427c-10.041,0-18.217-8.166-18.217-18.217c0-10.041,8.167-18.216,18.217-18.216
			c10.041,0,18.216,8.167,18.216,18.216C136.61,283.261,128.434,291.427,118.394,291.427z M191.25,400.717
			c-10.041,0-18.217-8.167-18.217-18.217c0-10.041,8.167-18.217,18.217-18.217s18.217,8.167,18.217,18.217
			C209.467,392.541,201.291,400.717,191.25,400.717z M309.644,509.997c0,10.04-8.167,18.216-18.217,18.216
			c-10.05,0-18.217-8.166-18.217-18.216c0-10.051,8.167-18.217,18.217-18.217C301.477,491.78,309.644,499.956,309.644,509.997z
			 M391.604,364.283c10.041,0,18.217,8.167,18.217,18.217c0,10.041-8.167,18.217-18.217,18.217
			c-10.041,0-18.217-8.167-18.217-18.217C373.396,372.459,381.562,364.283,391.604,364.283z M455.356,255.003
			c10.041,0,18.217,8.167,18.217,18.217c0,10.041-8.166,18.217-18.217,18.217c-10.04,0-18.216-8.167-18.216-18.217
			C437.141,263.169,445.316,255.003,455.356,255.003z M528.213,173.033c-10.04,0-18.216-8.166-18.216-18.216
			c0-10.041,8.166-18.217,18.216-18.217c10.051,0,18.217,8.167,18.217,18.217S538.254,173.033,528.213,173.033z"/>
	</g>
</g>
<g>
</g>
<g>
</g>
<g>
</g>
<g>
</g>
<g>
</g>
<g>
</g>
<g>
</g>
<g>
</g>
<g>
</g>
<g>
</g>
<g>
</g>
<g>
</g>
<g>
</g>
<g>
</g>
<g>
</g>
</svg>
