<?xml version="1.0" encoding="iso-8859-1"?>
<!-- Generator: Adobe Illustrator 18.0.0, SVG Export Plug-In . SVG Version: 6.00 Build 0)  -->
<!DOCTYPE svg PUBLIC "-//W3C//DTD SVG 1.1//EN" "http://www.w3.org/Graphics/SVG/1.1/DTD/svg11.dtd">
<svg version="1.1" id="Capa_1" xmlns="http://www.w3.org/2000/svg" xmlns:xlink="http://www.w3.org/1999/xlink" x="0px" y="0px"
	 viewBox="0 0 44 44" style="enable-background:new 0 0 44 44;" xml:space="preserve">
<g>
	<circle cx="13" cy="16" r="3"/>
	<path d="M20,16c0-3.859-3.14-7-7-7s-7,3.141-7,7s3.14,7,7,7S20,19.859,20,16z M8,16c0-2.757,2.243-5,5-5s5,2.243,5,5s-2.243,5-5,5
		S8,18.757,8,16z"/>
	<circle cx="31" cy="16" r="3"/>
	<path d="M31,9c-3.86,0-7,3.141-7,7s3.14,7,7,7s7-3.141,7-7S34.86,9,31,9z M31,21c-2.757,0-5-2.243-5-5s2.243-5,5-5s5,2.243,5,5
		S33.757,21,31,21z"/>
	<path d="M22,0C9.869,0,0,9.869,0,22s9.869,22,22,22s22-9.869,22-22S34.131,0,22,0z M22,42C10.972,42,2,33.028,2,22S10.972,2,22,2
		s20,8.972,20,20S33.028,42,22,42z"/>
	<path d="M32.385,26.01c-0.511-0.215-1.096,0.029-1.308,0.538c-1.257,3.018-3.722,5.354-6.939,6.578
		c-3.147,1.196-6.702,1.155-9.753-0.116c-0.513-0.213-1.096,0.029-1.308,0.538c-0.213,0.51,0.028,1.096,0.538,1.308
		c1.819,0.758,3.791,1.138,5.771,1.138c1.853,0,3.713-0.332,5.463-0.998c3.735-1.421,6.603-4.148,8.073-7.678
		C33.135,26.808,32.895,26.222,32.385,26.01z"/>
</g>
<g>
</g>
<g>
</g>
<g>
</g>
<g>
</g>
<g>
</g>
<g>
</g>
<g>
</g>
<g>
</g>
<g>
</g>
<g>
</g>
<g>
</g>
<g>
</g>
<g>
</g>
<g>
</g>
<g>
</g>
</svg>
