<?xml version="1.0" encoding="iso-8859-1"?>
<!-- Generator: Adobe Illustrator 18.0.0, SVG Export Plug-In . SVG Version: 6.00 Build 0)  -->
<!DOCTYPE svg PUBLIC "-//W3C//DTD SVG 1.1//EN" "http://www.w3.org/Graphics/SVG/1.1/DTD/svg11.dtd">
<svg version="1.1" id="Capa_1" xmlns="http://www.w3.org/2000/svg" xmlns:xlink="http://www.w3.org/1999/xlink" x="0px" y="0px"
	 viewBox="0 0 44 44" style="enable-background:new 0 0 44 44;" xml:space="preserve">
<g>
	<path d="M22,23c-6.617,0-12,5.383-12,12c0,0.552,0.447,1,1,1h22c0.553,0,1-0.448,1-1C34,28.383,28.617,23,22,23z M22,25
		c4.116,0,7.657,2.501,9.189,6.062C29.023,29.786,25.77,29,22,29s-7.023,0.786-9.189,2.062C14.343,27.501,17.884,25,22,25z M22,31
		c4.721,0,8.45,1.437,9.615,3H12.385C13.55,32.437,17.279,31,22,31z"/>
	<path d="M22,0C9.869,0,0,9.869,0,22s9.869,22,22,22s22-9.869,22-22S34.131,0,22,0z M22,42C10.972,42,2,33.028,2,22S10.972,2,22,2
		s20,8.972,20,20S33.028,42,22,42z"/>
	<path d="M32.359,21.768C32.547,21.924,32.773,22,32.999,22c0.287,0,0.571-0.123,0.77-0.36c0.354-0.424,0.296-1.055-0.128-1.408
		L28.563,16l5.078-4.232c0.424-0.354,0.481-0.984,0.128-1.408c-0.354-0.424-0.982-0.482-1.409-0.128l-6,5
		C26.132,15.422,26,15.703,26,16s0.132,0.578,0.359,0.768L32.359,21.768z"/>
	<path d="M10.231,21.64c0.198,0.237,0.482,0.36,0.77,0.36c0.226,0,0.452-0.076,0.64-0.232l6-5C17.868,16.578,18,16.297,18,16
		s-0.132-0.578-0.359-0.768l-6-5c-0.426-0.354-1.056-0.296-1.409,0.128c-0.354,0.424-0.296,1.055,0.128,1.408L15.438,16
		l-5.078,4.232C9.936,20.585,9.878,21.216,10.231,21.64z"/>
</g>
<g>
</g>
<g>
</g>
<g>
</g>
<g>
</g>
<g>
</g>
<g>
</g>
<g>
</g>
<g>
</g>
<g>
</g>
<g>
</g>
<g>
</g>
<g>
</g>
<g>
</g>
<g>
</g>
<g>
</g>
</svg>
