<?xml version="1.0" encoding="iso-8859-1"?>
<!-- Generator: Adobe Illustrator 17.1.0, SVG Export Plug-In . SVG Version: 6.00 Build 0)  -->
<!DOCTYPE svg PUBLIC "-//W3C//DTD SVG 1.1//EN" "http://www.w3.org/Graphics/SVG/1.1/DTD/svg11.dtd">
<svg version="1.1" id="Capa_1" xmlns="http://www.w3.org/2000/svg" xmlns:xlink="http://www.w3.org/1999/xlink" x="0px" y="0px"
	 viewBox="0 0 196.181 196.181" style="enable-background:new 0 0 196.181 196.181;" xml:space="preserve">
<path d="M174.929,195.926c-11.718,0-21.251-9.533-21.251-21.251V69.227c0-11.718,9.533-21.251,21.251-21.251
	c11.719,0,21.252,9.533,21.252,21.251v105.448C196.181,186.393,186.648,195.926,174.929,195.926z M174.929,52.976
	c-8.961,0-16.251,7.29-16.251,16.251v105.448c0,8.961,7.29,16.251,16.251,16.251s16.252-7.29,16.252-16.251V69.227
	C191.181,60.266,183.89,52.976,174.929,52.976z M124.568,195.926c-11.718,0-21.251-9.533-21.251-21.251V90.703
	c0-11.718,9.533-21.251,21.251-21.251c11.719,0,21.252,9.533,21.252,21.251v83.972C145.82,186.393,136.287,195.926,124.568,195.926z
	 M124.568,74.452c-8.961,0-16.251,7.29-16.251,16.251v83.972c0,8.961,7.29,16.251,16.251,16.251s16.252-7.29,16.252-16.251V90.703
	C140.82,81.742,133.529,74.452,124.568,74.452z M74.207,195.926c-11.718,0-21.251-9.533-21.251-21.251v-59.141
	c0-11.718,9.533-21.251,21.251-21.251c11.719,0,21.252,9.533,21.252,21.251v59.141C95.459,186.393,85.926,195.926,74.207,195.926z
	 M74.207,99.284c-8.961,0-16.251,7.29-16.251,16.251v59.141c0,8.961,7.29,16.251,16.251,16.251s16.252-7.29,16.252-16.251v-59.141
	C90.459,106.574,83.168,99.284,74.207,99.284z M23.845,195.926c-11.718,0-21.251-9.533-21.251-21.251v-38.417
	c0-11.718,9.533-21.251,21.251-21.251s21.251,9.533,21.251,21.251v38.417C45.096,186.393,35.563,195.926,23.845,195.926z
	 M23.845,120.008c-8.961,0-16.251,7.29-16.251,16.251v38.417c0,8.961,7.29,16.251,16.251,16.251s16.251-7.29,16.251-16.251v-38.417
	C40.096,127.298,32.806,120.008,23.845,120.008z M174.929,183.97c-5.271,0-9.558-4.288-9.558-9.558c0-5.27,4.287-9.558,9.558-9.558
	s9.559,4.288,9.559,9.558C184.488,179.682,180.2,183.97,174.929,183.97z M174.929,169.854c-2.513,0-4.558,2.044-4.558,4.558
	s2.045,4.558,4.558,4.558c2.514,0,4.559-2.045,4.559-4.558S177.443,169.854,174.929,169.854z M124.568,183.97
	c-5.271,0-9.558-4.288-9.558-9.558c0-5.27,4.287-9.558,9.558-9.558c5.271,0,9.559,4.288,9.559,9.558
	C134.127,179.682,129.839,183.97,124.568,183.97z M124.568,169.854c-2.513,0-4.558,2.044-4.558,4.558s2.045,4.558,4.558,4.558
	c2.514,0,4.559-2.045,4.559-4.558S127.082,169.854,124.568,169.854z M74.207,183.97c-5.271,0-9.558-4.288-9.558-9.558
	c0-5.27,4.287-9.558,9.558-9.558s9.559,4.288,9.559,9.558C83.765,179.682,79.477,183.97,74.207,183.97z M74.207,169.854
	c-2.513,0-4.558,2.044-4.558,4.558s2.045,4.558,4.558,4.558c2.514,0,4.559-2.045,4.559-4.558S76.72,169.854,74.207,169.854z
	 M23.845,183.97c-5.271,0-9.558-4.288-9.558-9.558c0-5.27,4.287-9.558,9.558-9.558s9.559,4.288,9.559,9.558
	C33.404,179.682,29.116,183.97,23.845,183.97z M23.845,169.854c-2.513,0-4.558,2.044-4.558,4.558s2.045,4.558,4.558,4.558
	c2.514,0,4.559-2.045,4.559-4.558S26.359,169.854,23.845,169.854z M23.845,144.891c-5.271,0-9.558-4.288-9.558-9.558
	s4.287-9.558,9.558-9.558s9.559,4.288,9.559,9.558S29.116,144.891,23.845,144.891z M23.845,130.775
	c-2.513,0-4.558,2.045-4.558,4.558s2.045,4.558,4.558,4.558c2.514,0,4.559-2.045,4.559-4.558S26.359,130.775,23.845,130.775z
	 M74.207,124.451c-5.271,0-9.558-4.288-9.558-9.558s4.287-9.558,9.558-9.558s9.559,4.288,9.559,9.558S79.477,124.451,74.207,124.451
	z M74.207,110.335c-2.513,0-4.558,2.045-4.558,4.558s2.045,4.558,4.558,4.558c2.514,0,4.559-2.045,4.559-4.558
	S76.72,110.335,74.207,110.335z M9.137,103.025c-3.509,0-6.747-2.047-8.251-5.216c-1.053-2.218-1.172-4.712-0.336-7.021
	c0.836-2.31,2.523-4.148,4.753-5.179l139.724-64.563c-0.437-8.223,4.307-15.957,12.016-19.243c2.41-1.027,4.974-1.548,7.617-1.548
	c7.365,0,14.294,4.152,17.651,10.579c2.519,4.821,2.956,10.31,1.233,15.456c-1.724,5.148-5.374,9.265-10.277,11.593
	c-2.676,1.271-5.524,1.915-8.466,1.915c0,0,0,0-0.001,0c-4.934,0-9.688-1.852-13.309-5.135L13.133,102.1
	C11.874,102.714,10.53,103.025,9.137,103.025z M164.66,5.255c-1.967,0-3.869,0.386-5.656,1.148
	c-6.204,2.644-9.839,9.139-8.84,15.795c0.164,1.099-0.415,2.174-1.424,2.641L7.401,90.148c-1.008,0.466-1.771,1.297-2.149,2.342
	s-0.324,2.172,0.152,3.176c0.68,1.433,2.146,2.359,3.733,2.359c0.627,0,1.233-0.141,1.804-0.419l139.958-68.217
	c0.997-0.487,2.197-0.257,2.946,0.566c2.796,3.077,6.789,4.842,10.955,4.842c0.001,0,0.001,0,0.001,0
	c2.194,0,4.32-0.481,6.321-1.431c3.665-1.74,6.393-4.816,7.681-8.664c1.287-3.845,0.959-7.948-0.924-11.553
	C175.374,8.354,170.185,5.255,164.66,5.255z M124.568,99.284c-5.271,0-9.558-4.288-9.558-9.558s4.287-9.558,9.558-9.558
	c5.271,0,9.559,4.288,9.559,9.558S129.839,99.284,124.568,99.284z M124.568,85.168c-2.513,0-4.558,2.045-4.558,4.558
	s2.045,4.558,4.558,4.558c2.514,0,4.559-2.045,4.559-4.558S127.082,85.168,124.568,85.168z M174.929,78.497
	c-5.271,0-9.558-4.288-9.558-9.558s4.287-9.558,9.558-9.558s9.559,4.288,9.559,9.558S180.2,78.497,174.929,78.497z M174.929,64.381
	c-2.513,0-4.558,2.045-4.558,4.558s2.045,4.558,4.558,4.558c2.514,0,4.559-2.045,4.559-4.558S177.443,64.381,174.929,64.381z"/>
<g>
</g>
<g>
</g>
<g>
</g>
<g>
</g>
<g>
</g>
<g>
</g>
<g>
</g>
<g>
</g>
<g>
</g>
<g>
</g>
<g>
</g>
<g>
</g>
<g>
</g>
<g>
</g>
<g>
</g>
</svg>
