<?xml version="1.0" encoding="iso-8859-1"?>
<!-- Generator: Adobe Illustrator 18.0.0, SVG Export Plug-In . SVG Version: 6.00 Build 0)  -->
<!DOCTYPE svg PUBLIC "-//W3C//DTD SVG 1.1//EN" "http://www.w3.org/Graphics/SVG/1.1/DTD/svg11.dtd">
<svg version="1.1" id="Capa_1" xmlns="http://www.w3.org/2000/svg" xmlns:xlink="http://www.w3.org/1999/xlink" x="0px" y="0px"
	 viewBox="0 0 108.759 109.049" style="enable-background:new 0 0 108.759 109.049;" preserveAspectRatio="fit">
<g>
	<path d="M0,51.117l1.716,1.096c2.946,1.883,5.386,6.037,7.055,12.015c1.337,4.787,1.678,9.02,1.681,9.061l0.197,2.575l2.574-0.212
		c5.01-0.414,9.622,0.246,13.709,1.96c3.054,1.281,4.658,2.707,4.674,2.721l-0.012-0.011l0.037-0.04
		c1.053,2.303,2.549,4.682,4.625,7.072l1.163,1.338l2.137-0.787l-0.331,4.215l0.081,0.371c0.045,0.205,1.151,5.06,5.518,7.555
		c1.088,0.621,2.118,1.073,3.027,1.47c2.131,0.933,3.417,1.496,4.576,3.556l2.238,3.978l2.238-3.978
		c1.159-2.061,2.445-2.623,4.576-3.556c0.909-0.398,1.94-0.849,3.027-1.47c4.367-2.495,5.473-7.35,5.518-7.555l0.081-0.371
		l-0.331-4.215l2.137,0.787l1.163-1.338c2.246-2.586,3.813-5.158,4.875-7.635c0.722-0.509,1.942-1.272,3.652-2.01
		c2.846-1.228,7.574-2.582,13.936-2.056l2.574,0.212l0.197-2.575c0.003-0.041,0.333-4.198,1.658-8.979
		c1.67-6.022,4.117-10.205,7.078-12.097l1.716-1.096l-0.677-1.92c-0.165-0.469-4.011-11.215-12.687-21.917
		c0.727-1.74,1.65-4.481,2.06-7.896c0.711-5.93-0.307-11.782-3.028-17.393l-0.498-1.028l-1.097-0.318
		c-0.152-0.044-3.787-1.074-8.634-0.438C80.055,0.751,74.219,2.639,69.16,8.42C64.435,6.906,59.472,6.14,54.38,6.14
		c-5.092,0-10.056,0.767-14.78,2.281c-5.059-5.782-10.896-7.67-15.038-8.214C19.715-0.429,16.08,0.6,15.928,0.644L14.83,0.962
		L14.332,1.99c-2.721,5.611-3.74,11.463-3.028,17.393c0.409,3.415,1.333,6.155,2.06,7.896C4.687,37.982,0.842,48.727,0.677,49.196
		L0,51.117z M64.92,91.685c-0.253,0.779-1.072,2.821-2.962,3.901c-0.85,0.485-1.708,0.861-2.539,1.225
		c-1.541,0.674-3.218,1.408-4.755,2.848c-1.537-1.439-3.214-2.174-4.755-2.848c-0.83-0.363-1.689-0.739-2.539-1.225
		c-1.89-1.08-2.709-3.122-2.962-3.901l0.451-5.736l9.804-3.612l9.805,3.612L64.92,91.685z M18.329,29.336l1.108-1.307l-0.782-1.525
		c-0.521-1.015-1.782-3.801-2.253-7.731c-0.545-4.544,0.139-9.051,2.032-13.413c1.145-0.182,3.113-0.368,5.459-0.06
		c5.1,0.669,9.411,3.257,12.814,7.691l1.146,1.493l1.769-0.644c4.673-1.701,9.638-2.564,14.757-2.564
		c5.119,0,10.083,0.863,14.757,2.564l1.769,0.644l1.146-1.493c3.355-4.372,7.598-6.95,12.61-7.663
		c2.428-0.345,4.48-0.154,5.664,0.034c1.893,4.362,2.576,8.868,2.031,13.412c-0.471,3.93-1.733,6.716-2.253,7.731l-0.782,1.525
		l1.108,1.307c6.731,7.937,10.647,16.317,12.126,19.844c-3.262,2.845-5.793,7.46-7.539,13.758c-0.811,2.925-1.282,5.62-1.542,7.468
		c-5.838-0.117-10.425,1.112-13.709,2.501c0.229-2.026,0.176-3.905-0.027-5.574c1.51-0.812,3.575-2.146,5.621-4.181
		c3.511-3.491,7.695-9.815,7.695-20.118H87.92c0,6.757-2.024,12.244-6.015,16.31c-1.179,1.201-2.369,2.1-3.383,2.75
		c-0.471-1.364-0.996-2.532-1.471-3.457c0.802-0.588,1.714-1.374,2.622-2.4c2.213-2.503,4.852-7.003,4.852-14.232H79.39
		c0,10.254-6.354,13.158-6.794,13.346l-3.149,1.146l2.019,2.752c0.022,0.031,2.243,3.15,3.037,7.756
		c0.565,3.275,0.293,6.46-0.806,9.528c-0.005,0.005-0.011,0.01-0.014,0.013l0.007,0.007c-0.748,2.08-1.876,4.107-3.383,6.073
		l-13.114-4.832v-4.8c5.038-1.957,7.312-7.229,8.144-9.793c1.173-3.357,0.717-6.319-1.006-12.933
		c-0.277-1.063-0.356-2.088-0.239-3.068c0.938,0.687,2.097,1.056,3.363,1.056h0c1.67,0,3.34-0.643,4.704-1.812
		c1.287-1.102,2.163-2.566,2.468-4.12c0.343-1.751-0.08-3.479-1.161-4.741c-1.038-1.212-2.549-1.879-4.252-1.879
		c-1.323,0-2.645,0.405-3.816,1.154l-0.007-0.012c-0.223,0.13-2.226,1.339-3.955,3.68c-2.393,3.241-3.11,7.056-2.074,11.035
		c1.846,7.089,1.806,8.632,0.773,10.839c-3.377,0.781-5.412,1.998-5.412,1.998s-2.035-1.218-5.412-1.998
		c-1.07-2.276-1.152-3.881,0.66-10.839c1.036-3.979,0.319-7.795-2.074-11.035c-1.729-2.341-3.732-3.55-3.955-3.68l-0.007,0.012
		c-1.171-0.749-2.494-1.154-3.817-1.154c-1.704,0-3.214,0.667-4.252,1.88c-1.081,1.262-1.504,2.99-1.161,4.741
		c0.305,1.554,1.181,3.017,2.468,4.12c1.364,1.168,3.034,1.812,4.704,1.812c1.266,0,2.425-0.369,3.363-1.056
		c0.117,0.98,0.038,2.004-0.239,3.068c-1.699,6.524-2.13,9.54-0.853,13.05c0.851,2.57,3.082,7.615,7.91,9.599v4.906l-13.033,4.802
		c-3.734-4.87-5.146-10.118-4.197-15.621c0.794-4.607,3.015-7.725,3.031-7.748l2.069-2.732l-3.193-1.173
		c-0.436-0.186-6.795-3.088-6.795-13.346h-5.135c0,7.229,2.639,11.729,4.852,14.232c0.908,1.026,1.82,1.812,2.622,2.4
		c-0.506,0.986-1.07,2.248-1.563,3.73c-1.1-0.664-2.468-1.644-3.822-3.024c-3.991-4.065-6.015-9.553-6.015-16.31h-5.135
		c0,10.303,4.185,16.627,7.695,20.118c2.283,2.27,4.589,3.668,6.122,4.442c-0.185,1.676-0.217,3.555,0.035,5.576
		c-3.316-1.493-8.108-2.888-14.311-2.765c-0.26-1.848-0.731-4.542-1.542-7.468c-1.747-6.299-4.278-10.915-7.541-13.759
		C7.674,45.657,11.577,37.297,18.329,29.336z M67.85,41.418c0.421-0.361,0.931-0.576,1.363-0.576c0.184,0,0.316,0.043,0.353,0.085
		c0.12,0.14,0.047,0.939-0.748,1.62c-0.421,0.361-0.931,0.576-1.363,0.576c-0.183,0-0.316-0.043-0.353-0.085
		C66.982,42.897,67.055,42.099,67.85,41.418z M42.228,43.038c-0.036,0.042-0.169,0.085-0.352,0.085
		c-0.432,0-0.942-0.215-1.363-0.576c-0.795-0.681-0.869-1.48-0.749-1.62c0.036-0.042,0.169-0.085,0.353-0.085
		c0.432,0,0.942,0.215,1.363,0.576c0.407,0.349,0.688,0.789,0.77,1.208C42.294,42.855,42.26,43,42.228,43.038z"/>
	<path d="M35.413,15.903c0,0-5.415-8.223-14.935-8.035c0,0-4.263,8.509,1.977,18.011C22.454,25.879,29.338,19.454,35.413,15.903z"/>
	<path d="M88.145,7.871c-9.52-0.188-14.799,8.032-14.799,8.032c6.075,3.551,12.959,9.976,12.959,9.976
		C92.545,16.377,88.145,7.871,88.145,7.871z"/>
	<path d="M54.698,19.417c2.468,0,4.832,0.311,6.836,0.901l1.448-4.927c-2.468-0.726-5.333-1.109-8.285-1.109
		c-3.038,0-5.974,0.405-8.489,1.17l1.495,4.912C49.742,19.745,52.16,19.417,54.698,19.417z"/>
	<path d="M54.736,28.122c3.579,0,7.016,0.454,9.937,1.313l1.448-4.927c-3.386-0.995-7.323-1.521-11.386-1.521
		c-4.182,0-8.215,0.555-11.665,1.605l1.495,4.913C47.537,28.6,51.054,28.122,54.736,28.122z"/>
</g>
<g>
</g>
<g>
</g>
<g>
</g>
<g>
</g>
<g>
</g>
<g>
</g>
<g>
</g>
<g>
</g>
<g>
</g>
<g>
</g>
<g>
</g>
<g>
</g>
<g>
</g>
<g>
</g>
<g>
</g>
</svg>
