<?xml version="1.0" encoding="iso-8859-1"?>
<!-- Generator: Adobe Illustrator 18.0.0, SVG Export Plug-In . SVG Version: 6.00 Build 0)  -->
<!DOCTYPE svg PUBLIC "-//W3C//DTD SVG 1.1//EN" "http://www.w3.org/Graphics/SVG/1.1/DTD/svg11.dtd">
<svg version="1.1" id="Capa_1" xmlns="http://www.w3.org/2000/svg" xmlns:xlink="http://www.w3.org/1999/xlink" x="0px" y="0px"
	 viewBox="0 0 60.002 60.002" style="enable-background:new 0 0 60.002 60.002;" xml:space="preserve">
<g>
	<path d="M45.555,38.167c-0.279-0.187-0.63-0.22-0.939-0.091l-24,10c-0.439,0.184-0.689,0.651-0.596,1.119
		c0.094,0.467,0.504,0.804,0.98,0.804h24c0.553,0,1-0.447,1-1v-10C46,38.665,45.833,38.353,45.555,38.167z M44,43.187l-12.899,2.687
		L44,40.499V43.187z M30.701,47.999L44,45.229v2.771H30.701z"/>
	<path d="M59.795,29.068c-0.401-1.697-1.364-3.156-2.576-3.902c-0.812-0.499-1.679-0.659-2.508-0.461
		c-0.189,0.045-0.371,0.114-0.548,0.198C47.634,9.012,30.827,8.828,30.405,8.828c-0.003,0-0.006,0-0.007,0
		c-0.034-0.007-0.545-0.005-1.403,0.07l-1.006-7.04c-0.042-0.293-0.212-0.553-0.465-0.709c-0.251-0.156-0.56-0.193-0.842-0.098
		l-12,4c-0.285,0.095-0.513,0.313-0.619,0.594s-0.08,0.596,0.07,0.855l3.419,5.906c-6.79,3.81-11.21,10.316-12.799,18.901
		c-0.015,0.083-0.025,0.167-0.04,0.25c-0.254-0.07-0.512-0.118-0.776-0.118C1.73,31.439,0,33.822,0,36.863s1.73,5.424,3.939,5.424
		c0.404,0,0.798-0.102,1.177-0.267c0.7,2.672,1.863,5.179,3.458,7.379c3.194,4.403,9.467,9.604,21.239,9.604
		c0.187,0,0.375-0.001,0.564-0.004c0.189,0.003,0.378,0.004,0.564,0.004c11.797,0,18.071-5.201,21.267-9.604
		c2.879-3.97,4.344-8.942,4.229-14.071c0.035,0.001,0.07,0.007,0.104,0.007c0.227,0,0.451-0.025,0.672-0.078
		C59.363,34.745,60.496,32.026,59.795,29.068z M26.18,3.327l2.729,19.101l-2.514,1.257l-4.52-7.807
		c-0.029-0.217-0.114-0.428-0.265-0.587c-0.034-0.034-0.081-0.048-0.119-0.076L16.48,6.56L26.18,3.327z M4.674,39.989
		c-0.206,0.166-0.456,0.298-0.734,0.298C3.022,40.287,2,38.88,2,36.863s1.022-3.424,1.939-3.424c0.167,0,0.335,0.047,0.504,0.139
		c-0.049,0.531-0.081,1.062-0.096,1.591c-0.001,0.04,0,0.08-0.001,0.121c-0.01,0.437-0.009,0.872,0.004,1.307
		c0.004,0.142,0.009,0.284,0.015,0.426c0.016,0.354,0.041,0.705,0.072,1.056c0.013,0.145,0.021,0.291,0.037,0.436
		c0.047,0.437,0.106,0.87,0.176,1.301C4.66,39.872,4.664,39.931,4.674,39.989z M50.591,48.225
		c-4.229,5.827-10.83,8.778-19.655,8.778c-0.185,0-0.371-0.001-0.557-0.004c-9.077,0.154-15.868-2.826-20.185-8.774
		c-2.062-2.842-3.329-6.256-3.726-9.866c-0.009-0.079-0.01-0.158-0.017-0.237c-0.057-0.57-0.089-1.144-0.102-1.721
		c-0.005-0.252-0.001-0.504,0.003-0.757c0.004-0.405,0.021-0.811,0.046-1.218c0.02-0.298,0.04-0.596,0.071-0.894
		c0.064-0.62,0.138-1.241,0.252-1.861c0.303-1.639,0.714-3.184,1.219-4.641c0.139,0.07,0.288,0.12,0.449,0.12
		c0.271,0,0.521-0.109,0.71-0.29c0.181-0.189,0.29-0.449,0.29-0.71c0-0.26-0.109-0.52-0.29-0.71
		c-0.123-0.123-0.284-0.19-0.453-0.231c0.366-0.855,0.771-1.674,1.215-2.458c0.05,0.008,0.097,0.029,0.148,0.029
		c0.271,0,0.53-0.1,0.71-0.289c0.19-0.181,0.29-0.44,0.29-0.711c0-0.208-0.081-0.406-0.204-0.573
		c0.385-0.572,0.799-1.115,1.23-1.643c0.033,0.049,0.055,0.104,0.095,0.146c0.189,0.18,0.45,0.29,0.71,0.29s0.52-0.11,0.71-0.29
		c0.18-0.19,0.29-0.45,0.29-0.71s-0.11-0.521-0.3-0.71c-0.071-0.069-0.158-0.113-0.245-0.156c1.518-1.562,3.271-2.899,5.256-4.005
		l2.894,4.999c-0.091,0.044-0.183,0.09-0.255,0.163c-0.189,0.189-0.29,0.45-0.29,0.71s0.101,0.52,0.29,0.71
		c0.19,0.18,0.44,0.29,0.71,0.29c0.189,0,0.367-0.073,0.529-0.173l3.177,5.488l0.842-0.421l4-2l0.645-0.322L30.99,22.86v-0.002
		l-1.486-10.4c0.019,0.001,0.036,0.011,0.055,0.011c0.26,0,0.521-0.11,0.71-0.3c0.181-0.18,0.29-0.44,0.29-0.7
		c0-0.239-0.097-0.463-0.25-0.638c0.059-0.001,0.094-0.002,0.092-0.004c0.014-0.018,2.615-0.014,6.089,0.953
		c-0.033,0.102-0.061,0.208-0.061,0.318c0,0.26,0.101,0.521,0.29,0.7c0.19,0.19,0.44,0.3,0.71,0.3c0.26,0,0.521-0.109,0.71-0.3
		c0.114-0.114,0.185-0.262,0.233-0.42c0.575,0.205,1.161,0.438,1.757,0.701c-0.031,0.097-0.06,0.194-0.06,0.299
		c0,0.26,0.11,0.52,0.29,0.71c0.19,0.18,0.45,0.29,0.71,0.29c0.261,0,0.521-0.11,0.711-0.29c0.045-0.045,0.067-0.104,0.102-0.155
		c0.382,0.205,0.753,0.419,1.119,0.641c-0.108,0.165-0.181,0.349-0.181,0.544c0,0.26,0.101,0.52,0.29,0.71
		c0.181,0.18,0.44,0.29,0.71,0.29c0.261,0,0.521-0.11,0.7-0.29c0.05-0.05,0.079-0.115,0.117-0.174
		c0.707,0.514,1.379,1.064,2.013,1.65c-0.115,0.045-0.222,0.108-0.31,0.194c-0.19,0.189-0.29,0.45-0.29,0.71
		c0,0.27,0.1,0.53,0.29,0.71c0.19,0.189,0.44,0.29,0.71,0.29c0.26,0,0.52-0.101,0.71-0.29c0.082-0.082,0.145-0.184,0.194-0.293
		c0.327,0.358,0.642,0.728,0.945,1.109c-0.227,0.021-0.448,0.098-0.609,0.255C48.109,20.179,48,20.429,48,20.7
		c0,0.27,0.109,0.52,0.29,0.71c0.189,0.18,0.439,0.29,0.71,0.29c0.26,0,0.52-0.11,0.71-0.29c0.087-0.087,0.15-0.192,0.198-0.302
		c1.074,1.581,1.971,3.329,2.689,5.242l-0.003,0.003l0.182,0.513c0.272,0.766,0.509,1.532,0.719,2.308
		c0.013,0.049,0.026,0.098,0.038,0.147c0.204,0.769,0.381,1.548,0.53,2.348c0.122,0.659,0.204,1.319,0.268,1.978
		c0.012,0.126,0.029,0.25,0.039,0.378C54.791,39.193,53.463,44.264,50.591,48.225z M56.751,33.312c-0.137,0.031-0.283,0.03-0.436,0
		c-0.004-0.036-0.011-0.07-0.015-0.106c-0.068-0.63-0.152-1.261-0.269-1.891c0-0.003-0.001-0.006-0.001-0.009
		c-0.002-0.012-0.005-0.023-0.008-0.035c-0.141-0.76-0.306-1.489-0.485-2.198c-0.019-0.075-0.042-0.149-0.062-0.223
		c-0.181-0.696-0.381-1.366-0.596-2.015c-0.005-0.015-0.008-0.029-0.013-0.044c0.101-0.069,0.204-0.116,0.31-0.142
		c0.38-0.094,0.751,0.069,0.994,0.219c0.758,0.467,1.401,1.486,1.68,2.66C58.314,31.493,57.645,33.099,56.751,33.312z"/>
	<path d="M45.13,20.059c-0.19,0.19-0.29,0.45-0.29,0.71s0.1,0.521,0.29,0.71c0.189,0.181,0.45,0.29,0.71,0.29s0.52-0.109,0.71-0.29
		c0.18-0.189,0.29-0.45,0.29-0.71s-0.11-0.52-0.29-0.71C46.18,19.689,45.5,19.689,45.13,20.059z"/>
	<path d="M43.89,19.279c0.26,0,0.51-0.1,0.7-0.289c0.19-0.19,0.3-0.45,0.3-0.711c0-0.26-0.109-0.52-0.3-0.71
		c-0.37-0.369-1.04-0.369-1.41,0.011c-0.189,0.18-0.29,0.439-0.29,0.699c0,0.271,0.101,0.521,0.29,0.711
		C43.37,19.179,43.62,19.279,43.89,19.279z"/>
	<path d="M15,26.999c0.26,0,0.52-0.11,0.71-0.29c0.18-0.19,0.29-0.45,0.29-0.71s-0.11-0.521-0.29-0.71c-0.38-0.37-1.05-0.37-1.42,0
		c-0.181,0.189-0.29,0.45-0.29,0.71s0.109,0.52,0.29,0.71C14.479,26.889,14.729,26.999,15,26.999z"/>
	<path d="M40.05,17.469c0.26,0,0.52-0.11,0.71-0.3c0.18-0.18,0.29-0.44,0.29-0.7c0-0.27-0.11-0.53-0.29-0.71
		c-0.38-0.37-1.04-0.38-1.42,0c-0.18,0.18-0.29,0.44-0.29,0.71c0,0.26,0.11,0.521,0.29,0.7C39.53,17.359,39.79,17.469,40.05,17.469z
		"/>
	<path d="M36.22,15.649c0.26,0,0.521-0.1,0.7-0.29c0.189-0.189,0.3-0.439,0.3-0.71c0-0.26-0.11-0.52-0.3-0.71
		c-0.36-0.37-1.04-0.37-1.41,0c-0.19,0.19-0.29,0.45-0.29,0.71c0,0.271,0.1,0.53,0.29,0.71C35.7,15.549,35.95,15.649,36.22,15.649z"
		/>
	<path d="M32.109,16.059c0.271,0,0.521-0.109,0.71-0.3c0.19-0.18,0.29-0.44,0.29-0.7c0-0.27-0.1-0.53-0.29-0.71
		c-0.369-0.37-1.039-0.37-1.409,0c-0.19,0.18-0.29,0.44-0.29,0.71c0,0.26,0.1,0.521,0.29,0.7C31.6,15.95,31.85,16.059,32.109,16.059
		z"/>
	<path d="M18.29,18.709c0.189,0.18,0.45,0.29,0.71,0.29s0.52-0.11,0.71-0.29c0.18-0.19,0.29-0.44,0.29-0.71
		c0-0.26-0.11-0.521-0.29-0.71c-0.37-0.37-1.05-0.37-1.42,0.01c-0.19,0.18-0.29,0.44-0.29,0.7S18.1,18.519,18.29,18.709z"/>
	<path d="M33.319,13.499c0.271,0,0.521-0.11,0.711-0.29c0.189-0.19,0.289-0.45,0.289-0.71c0-0.271-0.1-0.521-0.289-0.71
		c-0.37-0.37-1.04-0.37-1.41,0c-0.19,0.189-0.301,0.439-0.301,0.71c0,0.26,0.11,0.52,0.301,0.71
		C32.8,13.389,33.06,13.499,33.319,13.499z"/>
	<path d="M17,17.599c0.27,0,0.52-0.109,0.71-0.29c0.18-0.189,0.29-0.45,0.29-0.71s-0.11-0.52-0.29-0.71c-0.37-0.37-1.04-0.37-1.42,0
		c-0.181,0.19-0.29,0.45-0.29,0.71c0,0.271,0.109,0.521,0.29,0.71C16.479,17.49,16.74,17.599,17,17.599z"/>
	<path d="M7.29,30.289C7.109,30.479,7,30.729,7,30.999c0,0.27,0.109,0.529,0.29,0.7c0.189,0.189,0.439,0.3,0.71,0.3
		c0.26,0,0.52-0.11,0.71-0.29c0.18-0.19,0.29-0.45,0.29-0.71s-0.101-0.521-0.29-0.71C8.33,29.919,7.67,29.919,7.29,30.289z"/>
	<path d="M9.78,28.339c-0.181,0.189-0.29,0.439-0.29,0.71c0,0.26,0.109,0.52,0.29,0.7c0.18,0.189,0.439,0.3,0.71,0.3
		c0.26,0,0.52-0.11,0.71-0.3c0.18-0.19,0.29-0.44,0.29-0.7s-0.11-0.521-0.29-0.71C10.819,27.969,10.149,27.969,9.78,28.339z"/>
	<path d="M11.26,23.559c-0.19,0.19-0.29,0.45-0.29,0.71s0.1,0.521,0.29,0.71c0.19,0.19,0.44,0.29,0.71,0.29
		c0.26,0,0.51-0.1,0.7-0.29c0.189-0.189,0.3-0.45,0.3-0.71s-0.11-0.52-0.3-0.71C12.3,23.189,11.63,23.189,11.26,23.559z"/>
	<path d="M15.729,21.999c0.271,0,0.521-0.11,0.71-0.29c0.19-0.19,0.29-0.45,0.29-0.71s-0.1-0.521-0.29-0.71
		c-0.37-0.37-1.04-0.37-1.409,0c-0.19,0.189-0.301,0.439-0.301,0.71c0,0.27,0.11,0.52,0.29,0.71
		C15.21,21.889,15.47,21.999,15.729,21.999z"/>
	<path d="M18.979,21.399c-0.18,0.19-0.29,0.45-0.29,0.71c0,0.261,0.11,0.521,0.29,0.7c0.19,0.19,0.45,0.3,0.71,0.3
		c0.261,0,0.521-0.109,0.7-0.29c0.19-0.189,0.3-0.449,0.3-0.71c0-0.26-0.109-0.52-0.29-0.71
		C20.02,21.029,19.359,21.029,18.979,21.399z"/>
	<path d="M47.29,22.289c-0.181,0.189-0.29,0.45-0.29,0.71s0.109,0.52,0.29,0.71c0.189,0.18,0.45,0.29,0.71,0.29s0.52-0.11,0.71-0.29
		c0.18-0.19,0.29-0.45,0.29-0.71s-0.11-0.521-0.29-0.71C48.33,21.919,47.66,21.919,47.29,22.289z"/>
	<path d="M35.58,17.109c-0.19,0.181-0.29,0.44-0.29,0.7c0,0.271,0.1,0.53,0.29,0.71c0.18,0.19,0.439,0.29,0.71,0.29
		c0.26,0,0.52-0.1,0.7-0.29c0.189-0.189,0.3-0.45,0.3-0.71s-0.11-0.52-0.3-0.7C36.62,16.729,35.95,16.74,35.58,17.109z"/>
	<path d="M40.399,20.229c0,0.271,0.11,0.521,0.29,0.71c0.19,0.19,0.45,0.29,0.71,0.29c0.261,0,0.521-0.1,0.7-0.29
		c0.19-0.189,0.3-0.439,0.3-0.71c0-0.26-0.109-0.52-0.3-0.7c-0.37-0.38-1.04-0.369-1.41,0C40.51,19.709,40.399,19.969,40.399,20.229
		z"/>
	<path d="M32,19.379c0.26,0,0.52-0.11,0.71-0.29c0.18-0.19,0.29-0.45,0.29-0.71s-0.11-0.521-0.29-0.71c-0.38-0.37-1.04-0.37-1.42,0
		c-0.181,0.189-0.29,0.45-0.29,0.71s0.109,0.52,0.29,0.71C31.479,19.269,31.729,19.379,32,19.379z"/>
	<path d="M39,21.999c-3.859,0-7,3.141-7,7s3.141,7,7,7s7-3.141,7-7S42.859,21.999,39,21.999z M39,23.999
		c1.38,0,2.63,0.562,3.536,1.469l-8.491,3.088C34.273,26.009,36.395,23.999,39,23.999z M39,33.999c-2.195,0-4.044-1.432-4.715-3.404
		l9.363-3.405C43.868,27.753,44,28.36,44,28.999C44,31.756,41.757,33.999,39,33.999z"/>
	<circle cx="38" cy="30.999" r="1"/>
	<path d="M23.514,40.535c1.745-0.672,3.124-1.982,3.884-3.69c0.759-1.709,0.807-3.611,0.136-5.356
		c-0.672-1.745-1.982-3.124-3.69-3.884c-1.709-0.759-3.61-0.808-5.356-0.137c-1.745,0.672-3.124,1.982-3.884,3.69
		c-0.759,1.709-0.807,3.611-0.136,5.356c0.672,1.745,1.982,3.124,3.69,3.884c0.91,0.404,1.874,0.606,2.841,0.606
		C21.847,41.004,22.697,40.848,23.514,40.535z M19.205,29.334c0.582-0.225,1.189-0.336,1.796-0.336c0.69,0,1.38,0.145,2.029,0.434
		c1.083,0.481,1.921,1.324,2.436,2.376l-9.037,0.166c0-0.001,0.001-0.002,0.001-0.003C16.973,30.749,17.958,29.814,19.205,29.334z
		 M18.97,38.57c-1.221-0.542-2.156-1.527-2.636-2.774c-0.227-0.588-0.329-1.201-0.327-1.813l9.97-0.183
		c0.031,0.758-0.09,1.519-0.407,2.233c-0.542,1.221-1.527,2.156-2.774,2.636C21.551,39.148,20.189,39.113,18.97,38.57z"/>
	<circle cx="22.651" cy="35.509" r="1"/>
</g>
<g>
</g>
<g>
</g>
<g>
</g>
<g>
</g>
<g>
</g>
<g>
</g>
<g>
</g>
<g>
</g>
<g>
</g>
<g>
</g>
<g>
</g>
<g>
</g>
<g>
</g>
<g>
</g>
<g>
</g>
</svg>
