<?xml version="1.0" encoding="iso-8859-1"?>
<!-- Generator: Adobe Illustrator 18.0.0, SVG Export Plug-In . SVG Version: 6.00 Build 0)  -->
<!DOCTYPE svg PUBLIC "-//W3C//DTD SVG 1.1//EN" "http://www.w3.org/Graphics/SVG/1.1/DTD/svg11.dtd">
<svg version="1.1" id="Capa_1" xmlns="http://www.w3.org/2000/svg" xmlns:xlink="http://www.w3.org/1999/xlink" x="0px" y="0px"
	 viewBox="0 0 94.36 107.726" style="enable-background:new 0 0 94.36 107.726;" preserveAspectRatio="fit">
<g>
	<path d="M59.363,50.342c2.316-0.278,4.015-1.987,3.795-3.818c-0.11-0.913-0.677-1.684-1.505-2.192
		c2.24-2.191,3.337-3.238,3.337-3.238h-7.238c-2.658,0-4.813,2.155-4.813,4.813v7.055c1.184-1.183,2.277-2.273,3.283-3.272
		C57.061,50.223,58.178,50.484,59.363,50.342z"/>
	<path d="M31.201,46.524c-0.22,1.83,1.479,3.539,3.795,3.818c1.186,0.142,2.303-0.118,3.141-0.652
		c1.006,0.999,2.099,2.089,3.283,3.272v-7.055c0-2.658-2.155-4.813-4.813-4.813h-7.238c0,0,1.098,1.046,3.337,3.238
		C31.878,44.84,31.311,45.611,31.201,46.524z"/>
	<path d="M3.679,28.353C0.843,34.7-0.363,42.156,0.094,50.514l0.164,3.007l4.047-0.971c-0.003,2.484,0.165,6.109,0.899,10.237
		c0.795,4.47,2.094,8.618,3.86,12.326c2.236,4.694,5.228,8.693,8.893,11.884l2.404,2.093l1.38-2.651
		c1.184,1.708,2.789,3.859,4.778,6.162c4.239,4.908,11.108,11.455,19.76,14.78l0.9,0.346l0.901-0.346
		c8.651-3.324,15.52-9.872,19.759-14.78c1.989-2.303,3.594-4.454,4.778-6.162l1.38,2.651l2.404-2.093
		c3.665-3.191,6.657-7.189,8.893-11.884c1.766-3.709,3.065-7.856,3.86-12.326c0.734-4.128,0.902-7.754,0.899-10.237l4.047,0.971
		l0.165-3.007c0.457-8.358-0.749-15.814-3.585-22.162c-2.297-5.141-5.652-9.551-9.971-13.108c-3.065-2.524-6.168-4.249-8.767-5.407
		l7.13-3.152l-4.011-2.511C70.636,1.405,65.156,0,58.772,0c-5.396,0-9.885,1.02-11.592,1.468C45.472,1.02,40.983,0,35.588,0
		c-6.383,0-11.864,1.405-16.289,4.174l-4.011,2.511l7.13,3.152c-2.598,1.158-5.702,2.883-8.766,5.407
		C9.331,18.802,5.976,23.212,3.679,28.353z M5.022,47.214c-0.007-3.635,0.353-7.046,1.07-10.211c3.052-0.105,5.63,0.635,7.682,2.213
		c1.56,1.199,2.361,2.556,2.608,3.029c-0.754,3.597-0.787,6.272-0.788,6.526l-0.005,0.978l2.886,3.171
		c-0.514,0.155-1.049,0.343-1.599,0.572c-2.16,0.898-4.815,2.551-7.149,5.578c-0.661-5.453-0.292-9.442-0.288-9.486l0.348-3.513
		L5.022,47.214z M28.58,29.933c4.375-3.562,10.469-4.599,18.111-3.082l0.489,0.097l0.489-0.097
		c7.642-1.517,13.735-0.48,18.111,3.082c6.525,5.312,7.707,14.91,7.919,17.928l-8.591,9.44c-1.813-2.89-3.658-4.769-3.813-4.925
		l-3.56,3.542c0.016,0.016,1.615,1.648,3.144,4.09c1.38,2.202,2.989,5.532,2.821,8.887c-0.122,2.439-1.145,4.585-3.118,6.527
		l-1.197-0.441l0,0l-11.369-4.189c0.208-1.647,0.676-3.664,1.73-4.408c1.897-1.339,5.133-3.459,0-3.794c0,0-1.227,0.67-2.567,0.67
		c-1.339,0-2.566-0.67-2.566-0.67c-5.133,0.335-1.897,2.455,0,3.794c1.054,0.744,1.522,2.761,1.73,4.408L34.975,74.98l0,0
		l-1.197,0.441c-1.968-1.937-2.991-4.078-3.117-6.509c-0.339-6.535,5.904-12.933,5.967-12.997l-1.783-1.768l1.78,1.771l-3.559-3.542
		c-0.155,0.156-2,2.035-3.813,4.925l-8.591-9.44C20.873,44.838,22.057,35.244,28.58,29.933z M55.055,81.934
		c-0.061,0.037-0.161,0.079-0.401,0.079h0c-0.575,0-1.442-0.246-2.36-0.506c-1.401-0.397-3.145-0.891-5.114-0.891
		c-1.969,0-3.713,0.494-5.114,0.891c-0.918,0.26-1.785,0.506-2.36,0.506c-0.239,0-0.34-0.042-0.4-0.079
		c-0.263-0.374-0.316-1.728-0.092-3.165l7.966-2.935l7.965,2.935C55.356,80.135,55.337,81.535,55.055,81.934z M80.727,73.027
		c-1.432,2.99-3.21,5.644-5.304,7.925l-2.49-4.778l-2.276,4.031c-0.024,0.042-2.442,4.296-6.69,9.197
		c-3.698,4.266-9.557,9.888-16.787,12.928c-7.23-3.04-13.09-8.662-16.787-12.928c-4.248-4.901-6.666-9.155-6.689-9.196l-2.274-4.042
		l-2.492,4.787c-2.095-2.28-3.872-4.935-5.304-7.925c-0.957-1.997-1.761-4.148-2.408-6.428c3.162-7.999,8.903-9.195,11.198-9.341
		l4.418,4.855c-0.808,2.163-1.321,4.554-1.197,7.032c0.214,4.271,2.23,8.003,5.991,11.093l1.112,0.913l1.301-0.479
		c0.042,1.995,0.579,4.146,2.39,5.385c0.948,0.649,2.047,0.977,3.268,0.977c1.273,0,2.522-0.354,3.729-0.696
		c1.216-0.345,2.474-0.701,3.745-0.701c1.271,0,2.528,0.356,3.745,0.701c1.208,0.342,2.457,0.696,3.729,0.696h0
		c1.22,0,2.32-0.329,3.268-0.977c1.811-1.239,2.347-3.39,2.39-5.385l1.301,0.479l1.112-0.913c3.761-3.09,5.777-6.822,5.991-11.093
		c0.124-2.478-0.389-4.869-1.197-7.032l4.412-4.848c0.841,0.058,2.161,0.253,3.626,0.863c3.368,1.401,5.915,4.25,7.579,8.47
		C82.488,68.878,81.684,71.029,80.727,73.027z M84.583,46.076l0.339,3.505c0.005,0.047,0.374,4.036-0.287,9.489
		c-2.334-3.028-4.99-4.68-7.149-5.578c-0.55-0.229-1.085-0.417-1.599-0.572l2.886-3.171l-0.005-0.978
		c-0.001-0.254-0.034-2.931-0.789-6.532c0.46-0.909,3.132-5.457,10.295-5.231c0.716,3.164,1.073,6.574,1.067,10.207L84.583,46.076z
		 M86.096,30.401c0.234,0.523,0.454,1.057,0.663,1.598c-4.463,0.215-7.552,1.877-9.499,3.444c-0.376,0.302-0.72,0.61-1.036,0.916
		c-1.442-3.633-3.703-7.402-7.248-10.298c-0.106-0.087-0.215-0.171-0.323-0.255c0.539-2.066,2.253-5.697,7.703-7.596
		c0.386,0.289,0.773,0.593,1.159,0.911C81.232,22.18,84.119,25.975,86.096,30.401z M26.741,6.259
		c2.626-0.822,5.584-1.237,8.847-1.237c5.98,0,10.815,1.439,10.86,1.453l0.732,0.221l0.729-0.22
		c0.048-0.015,4.883-1.454,10.863-1.454c3.263,0,6.221,0.415,8.847,1.237l-11.007,4.867l7.962,1.489
		c0.043,0.008,2.894,0.562,6.649,2.434c-3.19,1.843-5.034,4.19-6.086,6.126c-0.372,0.685-0.665,1.35-0.896,1.976
		c-4.747-2.109-10.46-2.555-17.062-1.318c-6.602-1.237-12.315-0.792-17.062,1.318c-0.231-0.625-0.524-1.291-0.896-1.976
		c-1.051-1.934-2.893-4.279-6.078-6.121c3.742-1.86,6.602-2.431,6.641-2.439l7.962-1.489L26.741,6.259z M16.675,19.26
		c0.443-0.37,0.887-0.719,1.33-1.051c3.092,1.069,5.34,2.801,6.694,5.165c0.514,0.896,0.817,1.752,0.996,2.439
		c-0.104,0.082-0.209,0.163-0.312,0.247c-3.545,2.896-5.805,6.665-7.248,10.298c-0.316-0.306-0.66-0.613-1.036-0.916
		c-1.946-1.566-5.034-3.228-9.496-3.443c0.191-0.496,0.39-0.986,0.602-1.467C10.154,26.118,13.004,22.326,16.675,19.26z"/>
</g>
<g>
</g>
<g>
</g>
<g>
</g>
<g>
</g>
<g>
</g>
<g>
</g>
<g>
</g>
<g>
</g>
<g>
</g>
<g>
</g>
<g>
</g>
<g>
</g>
<g>
</g>
<g>
</g>
<g>
</g>
</svg>
