<?xml version="1.0" encoding="utf-8"?>
<!-- Generator: Adobe Illustrator 16.0.4, SVG Export Plug-In . SVG Version: 6.00 Build 0)  -->
<!DOCTYPE svg PUBLIC "-//W3C//DTD SVG 1.1//EN" "http://www.w3.org/Graphics/SVG/1.1/DTD/svg11.dtd">
<svg version="1.1" id="Capa_1" xmlns="http://www.w3.org/2000/svg" xmlns:xlink="http://www.w3.org/1999/xlink" x="0px" y="0px"
	 width="19.816px" height="19.113px" viewBox="0 0 19.816 19.113" enable-background="new 0 0 19.816 19.113" preserveAspectRatio="fit">
<path d="M19.816,11.402v-0.358c-2.6,0-3.757-2.303-4.128-3.035V7.491c0-0.005-0.008-0.012-0.01-0.017v-1.46h-0.021l-0.21-0.913
	V5.088h-0.042v0.014l-0.104,0.386h-0.273l-0.23-1.009h0.029l-0.009-0.104h-0.145l-0.008,0.104h0.029L14.43,5.486h-0.272
	l-0.091-0.385V5.088h-0.044v0.014l-0.239,0.914h-0.017v0.943H6.07V6.014H6.056L5.814,5.1V5.088H5.772v0.015L5.684,5.486H5.409
	L5.143,4.477h0.027L5.164,4.375H5.02L5.013,4.477h0.029L4.811,5.486H4.535L4.435,5.1V5.088H4.392v0.015L4.18,6.014H4.16v1.46
	C4.156,7.479,4.152,7.486,4.15,7.491V8.01C3.777,8.743,2.625,11.05,0,11.05v0.298l0.013,0.06c0.603,0,1.133-0.119,1.595-0.312v0.888
	H0.033v0.379h3.569v2.377h3.005v-1.695l3.263-0.77H9.97l3.261,0.77v1.693h3.005v-2.377h3.571v-0.38h-1.591v-0.9
	C18.685,11.277,19.214,11.402,19.816,11.402z M1.912,10.948c0.498-0.257,0.908-0.595,1.252-0.951v1.982H1.912V10.948z M4.229,11.979
	h-0.76V9.656c0.328-0.399,0.577-0.788,0.76-1.081V11.979z M6.881,12.499v-0.399h1.951L6.881,12.499z M12.806,12.499L10.855,12.1
	h1.951V12.499z M13.836,11.715H6.001V8.546l0.069-0.23V7.832h7.696v0.483l0.067,0.229L13.836,11.715L13.836,11.715z M15.611,11.979
	V8.575c0.178,0.286,0.419,0.666,0.742,1.055v2.352L15.611,11.979L15.611,11.979z M17.909,11.979H16.66V9.972
	c0.342,0.355,0.755,0.701,1.249,0.963V11.979z"/>
</svg>
