<?xml version="1.0" encoding="iso-8859-1"?>
<!-- Generator: Adobe Illustrator 18.0.0, SVG Export Plug-In . SVG Version: 6.00 Build 0)  -->
<!DOCTYPE svg PUBLIC "-//W3C//DTD SVG 1.1//EN" "http://www.w3.org/Graphics/SVG/1.1/DTD/svg11.dtd">
<svg version="1.1" id="Capa_1" xmlns="http://www.w3.org/2000/svg" xmlns:xlink="http://www.w3.org/1999/xlink" x="0px" y="0px"
	 viewBox="0 0 44 44" style="enable-background:new 0 0 44 44;" xml:space="preserve">
<g>
	<path d="M19,13.05c-0.552,0-1,0.447-1,1c0,3.869-1.776,6-5,6c-2.596,0-5.369-1.132-5.369-4.307c0-2.223,1.809-4.031,4.032-4.031
		c1.641,0,2.975,1.334,2.975,2.975c0,1.181-0.96,2.141-2.141,2.141c-0.816,0-1.48-0.665-1.48-1.481c0-0.528,0.43-0.959,0.959-0.959
		c0.552,0,1-0.447,1-1s-0.448-1-1-1c-1.632,0-2.959,1.327-2.959,2.959c0,1.92,1.562,3.481,3.48,3.481
		c2.283,0,4.141-1.857,4.141-4.141c0-2.743-2.232-4.975-4.975-4.975c-3.326,0-6.032,2.706-6.032,6.031
		c0,3.772,2.961,6.307,7.369,6.307c4.318,0,7-3.065,7-8C20,13.497,19.552,13.05,19,13.05z"/>
	<path d="M30.631,8.05c-4.318,0-7,3.065-7,8c0,0.553,0.448,1,1,1s1-0.447,1-1c0-3.869,1.776-6,5-6c2.596,0,5.369,1.132,5.369,4.308
		c0,2.223-1.809,4.031-4.032,4.031c-1.641,0-2.975-1.334-2.975-2.975c0-1.181,0.96-2.141,2.141-2.141c0.816,0,1.48,0.664,1.48,1.48
		c0,0.529-0.43,0.96-0.959,0.96c-0.552,0-1,0.447-1,1s0.448,1,1,1c1.632,0,2.959-1.328,2.959-2.96c0-1.919-1.562-3.48-3.48-3.48
		c-2.283,0-4.141,1.857-4.141,4.141c0,2.743,2.232,4.975,4.975,4.975c3.326,0,6.032-2.706,6.032-6.031
		C38,10.585,35.039,8.05,30.631,8.05z"/>
	<path d="M29.283,30.68c-0.116-0.252-0.197-0.461-0.265-0.635c-0.322-0.825-0.626-1.383-1.868-1.617
		c-1.385-0.262-5.351-0.464-7.042,1.7c-0.656,0.84-1.203,2.354-0.08,4.8s2.627,3.019,3.692,3.068C23.775,37.999,23.829,38,23.884,38
		c2.678,0,5.026-3.039,5.717-4.235c0.632-1.094,0.407-1.688-0.008-2.47C29.504,31.13,29.399,30.932,29.283,30.68z M27.869,32.765
		c-0.807,1.397-2.667,3.277-4.055,3.233c-0.741-0.034-1.403-0.675-1.968-1.904s-0.619-2.149-0.162-2.734
		c0.616-0.789,2.162-1.098,3.572-1.098c0.55,0,1.079,0.047,1.524,0.131c0.142,0.027,0.214,0.043,0.238,0.046
		c0.036,0.071,0.092,0.215,0.139,0.334c0.079,0.203,0.175,0.447,0.31,0.741c0.135,0.295,0.258,0.526,0.36,0.72
		c0.07,0.133,0.153,0.307,0.173,0.264C27.998,32.504,27.979,32.572,27.869,32.765z"/>
	<path d="M22,0C9.869,0,0,9.869,0,22s9.869,22,22,22s22-9.869,22-22S34.131,0,22,0z M22,42C10.972,42,2,33.028,2,22S10.972,2,22,2
		s20,8.972,20,20S33.028,42,22,42z"/>
</g>
<g>
</g>
<g>
</g>
<g>
</g>
<g>
</g>
<g>
</g>
<g>
</g>
<g>
</g>
<g>
</g>
<g>
</g>
<g>
</g>
<g>
</g>
<g>
</g>
<g>
</g>
<g>
</g>
<g>
</g>
</svg>
