<?xml version="1.0" encoding="iso-8859-1"?>
<!-- Generator: Adobe Illustrator 18.0.0, SVG Export Plug-In . SVG Version: 6.00 Build 0)  -->
<!DOCTYPE svg PUBLIC "-//W3C//DTD SVG 1.1//EN" "http://www.w3.org/Graphics/SVG/1.1/DTD/svg11.dtd">
<svg version="1.1" id="Capa_1" xmlns="http://www.w3.org/2000/svg" xmlns:xlink="http://www.w3.org/1999/xlink" x="0px" y="0px"
	 viewBox="0 0 48 48" style="enable-background:new 0 0 48 48;" xml:space="preserve">
<g>
	<path d="M34.385,30.01c-0.509-0.212-1.095,0.028-1.308,0.538c-1.258,3.018-3.722,5.354-6.939,6.578
		c-3.144,1.196-6.701,1.156-9.753-0.116c-0.507-0.213-1.095,0.028-1.308,0.538s0.028,1.096,0.538,1.308
		c1.871,0.779,3.826,1.147,5.757,1.147c5.772,0,11.303-3.291,13.551-8.686C35.136,30.808,34.895,30.222,34.385,30.01z"/>
	<path d="M48,14.472l-0.521-0.285c-1.573-0.859-3.235-1.512-4.943-1.978C38.465,5.812,31.569,2,24,2S9.535,5.812,5.463,12.209
		c-1.708,0.466-3.37,1.119-4.943,1.978L0,14.472v0.593c0,5.175,0.859,8.485,2.097,10.586C2.951,37.079,12.52,46,24,46
		s21.049-8.921,21.903-20.35C47.141,23.549,48,20.24,48,15.064V14.472z M24,4c6.187,0,11.885,2.799,15.662,7.593
		c-3.431-0.496-6.892-0.208-10.165,0.8c-0.138,0.042-0.276,0.082-0.413,0.127c-0.309,0.102-0.615,0.21-0.92,0.325
		c-0.269,0.1-0.536,0.208-0.802,0.319c-0.222,0.093-0.445,0.183-0.665,0.284c-0.38,0.172-0.753,0.359-1.124,0.553h-3.145
		c-0.371-0.194-0.744-0.38-1.123-0.552c-0.222-0.102-0.447-0.192-0.672-0.287c-0.262-0.109-0.524-0.215-0.79-0.314
		c-0.31-0.117-0.622-0.227-0.936-0.33c-0.128-0.041-0.256-0.079-0.384-0.118c-3.279-1.014-6.747-1.304-10.185-0.806
		C12.115,6.799,17.813,4,24,4z M6.554,13.984c0.482-0.119,0.966-0.219,1.451-0.303c0.268-0.046,0.538-0.082,0.808-0.118
		c0.23-0.031,0.461-0.057,0.691-0.081c1.109-0.111,2.226-0.142,3.339-0.081c0.047,0.003,0.095,0.006,0.142,0.009
		c1.166,0.072,2.326,0.239,3.467,0.5c0.174,0.04,0.347,0.085,0.521,0.13c0.425,0.108,0.846,0.23,1.264,0.365
		c0.341,0.111,0.681,0.226,1.016,0.354c0.188,0.071,0.374,0.147,0.56,0.224c0.502,0.209,1.001,0.428,1.489,0.677
		c-0.078,1.776-0.56,5.556-3.106,8.263c-0.17,0.18-0.349,0.356-0.537,0.526c-2.401,2.166-5.922,3.03-10.467,2.556
		c-0.236-0.024-0.458-0.071-0.674-0.13c-0.041-0.011-0.081-0.022-0.121-0.034c-0.432-0.132-0.825-0.329-1.18-0.587
		c-0.025-0.018-0.049-0.037-0.073-0.055c-0.151-0.115-0.294-0.241-0.432-0.377c-0.03-0.03-0.061-0.056-0.09-0.087
		c-0.139-0.144-0.27-0.301-0.396-0.465c-0.079-0.105-0.156-0.22-0.231-0.335c-1.491-2.238-1.947-5.917-1.993-9.271
		C3.458,14.924,4.987,14.367,6.554,13.984z M24,44c-9.527,0-17.614-6.756-19.54-15.838c0.021,0.013,0.043,0.022,0.064,0.034
		c0.058,0.034,0.116,0.061,0.175,0.093c0.137,0.075,0.275,0.149,0.419,0.212c0.083,0.037,0.166,0.065,0.249,0.098
		c0.119,0.046,0.236,0.094,0.358,0.133c0.116,0.037,0.232,0.064,0.348,0.094c0.091,0.023,0.18,0.05,0.274,0.069
		c0.216,0.044,0.43,0.078,0.641,0.1c0.578,0.059,1.137,0.092,1.688,0.112c0.125,0.005,0.249,0.008,0.373,0.01
		c0.154,0.003,0.313,0.013,0.465,0.013c0.269,0,0.526-0.017,0.787-0.027c0.149-0.006,0.301-0.007,0.448-0.016
		c1.067-0.065,2.074-0.213,3.018-0.447c0.122-0.03,0.237-0.069,0.357-0.102c0.34-0.094,0.673-0.196,0.996-0.313
		c0.149-0.054,0.294-0.113,0.439-0.172c0.286-0.115,0.564-0.24,0.836-0.374c0.143-0.07,0.285-0.141,0.424-0.217
		c0.275-0.15,0.539-0.313,0.799-0.482c0.114-0.075,0.232-0.144,0.344-0.223c0.361-0.255,0.71-0.526,1.039-0.823
		c3.405-3.071,4.156-7.473,4.291-9.935h1.418c0.135,2.462,0.886,6.863,4.291,9.935c0.329,0.296,0.677,0.567,1.038,0.822
		c0.113,0.08,0.233,0.151,0.349,0.227c0.257,0.168,0.52,0.33,0.792,0.478c0.141,0.077,0.286,0.148,0.43,0.22
		c0.268,0.132,0.543,0.255,0.825,0.369c0.15,0.061,0.299,0.122,0.453,0.177c0.312,0.113,0.635,0.211,0.963,0.302
		c0.132,0.037,0.26,0.079,0.395,0.113c0.468,0.116,0.949,0.215,1.448,0.289c0.042,0.006,0.086,0.008,0.128,0.014
		c0.457,0.064,0.926,0.111,1.408,0.14c0.175,0.011,0.357,0.012,0.535,0.019c0.241,0.008,0.475,0.025,0.722,0.025
		c0.142,0,0.29-0.009,0.434-0.012c0.143-0.003,0.287-0.006,0.432-0.012c0.542-0.02,1.091-0.053,1.659-0.111
		c0.211-0.022,0.426-0.056,0.641-0.1c0.093-0.019,0.183-0.046,0.274-0.069c0.116-0.029,0.232-0.057,0.348-0.094
		c0.122-0.039,0.24-0.087,0.359-0.133c0.083-0.032,0.166-0.061,0.248-0.098c0.143-0.064,0.281-0.138,0.419-0.213
		c0.058-0.032,0.116-0.059,0.174-0.093c0.021-0.012,0.044-0.022,0.064-0.034C41.614,37.244,33.527,44,24,44z M44.003,24.936
		c-0.076,0.115-0.152,0.229-0.231,0.335c-0.126,0.164-0.257,0.321-0.396,0.465c-0.029,0.031-0.061,0.057-0.09,0.087
		c-0.138,0.135-0.281,0.262-0.432,0.377c-0.024,0.018-0.048,0.037-0.073,0.055c-0.355,0.257-0.747,0.455-1.18,0.587
		c-0.04,0.012-0.08,0.023-0.121,0.034c-0.215,0.058-0.438,0.105-0.674,0.13c-4.551,0.474-8.066-0.39-10.467-2.556
		c-0.189-0.17-0.368-0.346-0.537-0.526c-2.546-2.707-3.028-6.487-3.106-8.263c0.489-0.25,0.99-0.469,1.493-0.678
		c0.182-0.075,0.365-0.149,0.549-0.219c0.345-0.132,0.694-0.25,1.044-0.364c0.404-0.13,0.811-0.247,1.221-0.352
		c0.183-0.048,0.367-0.095,0.551-0.138c0.354-0.081,0.709-0.156,1.066-0.218c0.008-0.001,0.015-0.002,0.023-0.004
		c0.78-0.136,1.567-0.226,2.356-0.275c0.055-0.003,0.11-0.008,0.165-0.011c1.108-0.06,2.221-0.03,3.326,0.081
		c0.233,0.024,0.466,0.05,0.699,0.082c0.269,0.036,0.537,0.071,0.805,0.117c0.485,0.085,0.97,0.185,1.452,0.303
		c1.567,0.382,3.096,0.94,4.55,1.681C45.95,19.019,45.494,22.698,44.003,24.936z"/>
	<path d="M4.766,19.325c0.196,0.205,0.459,0.309,0.723,0.309c0.249,0,0.497-0.092,0.691-0.277l3.365-3.219
		c0.398-0.382,0.413-1.015,0.031-1.414c-0.381-0.398-1.014-0.413-1.414-0.031l-3.365,3.219C4.398,18.293,4.384,18.926,4.766,19.325z
		"/>
	<path d="M9.253,21.472c0.196,0.205,0.459,0.309,0.723,0.309c0.249,0,0.497-0.092,0.691-0.277l5.609-5.365
		c0.398-0.382,0.413-1.015,0.031-1.414c-0.381-0.398-1.014-0.413-1.414-0.031l-5.609,5.365C8.886,20.439,8.871,21.072,9.253,21.472z
		"/>
	<path d="M34.259,14.724c-0.381-0.398-1.014-0.413-1.414-0.031l-3.365,3.219c-0.398,0.382-0.413,1.015-0.031,1.414
		c0.196,0.205,0.459,0.309,0.723,0.309c0.249,0,0.497-0.092,0.691-0.277l3.365-3.219C34.626,15.756,34.641,15.123,34.259,14.724z"/>
	<path d="M40.991,14.724c-0.381-0.398-1.014-0.413-1.414-0.031l-5.61,5.365c-0.398,0.382-0.413,1.015-0.031,1.414
		c0.196,0.205,0.459,0.309,0.723,0.309c0.249,0,0.497-0.092,0.691-0.277l5.61-5.365C41.358,15.756,41.373,15.123,40.991,14.724z"/>
</g>
<g>
</g>
<g>
</g>
<g>
</g>
<g>
</g>
<g>
</g>
<g>
</g>
<g>
</g>
<g>
</g>
<g>
</g>
<g>
</g>
<g>
</g>
<g>
</g>
<g>
</g>
<g>
</g>
<g>
</g>
</svg>
