<?xml version="1.0" encoding="utf-8"?>
<!-- Generator: Adobe Illustrator 16.0.0, SVG Export Plug-In . SVG Version: 6.00 Build 0)  -->
<!DOCTYPE svg PUBLIC "-//W3C//DTD SVG 1.1//EN" "http://www.w3.org/Graphics/SVG/1.1/DTD/svg11.dtd">
<svg version="1.1" id="Capa_1" xmlns="http://www.w3.org/2000/svg" xmlns:xlink="http://www.w3.org/1999/xlink" x="0px" y="0px"
	 width="19.119px" height="19.503px" viewBox="0 0 19.119 19.503" enable-background="new 0 0 19.119 19.503" preserveAspectRatio="fit">
<g>
	<circle cx="9.559" cy="0.81" r="0.645"/>
	<circle cx="9.559" cy="16.918" r="0.644"/>
	<circle cx="1.505" cy="8.863" r="0.644"/>
	<circle cx="17.614" cy="8.864" r="0.645"/>
	<circle cx="2.185" cy="5.624" r="0.645"/>
	<circle cx="16.933" cy="12.105" r="0.643"/>
	<circle cx="3.854" cy="3.179" r="0.645"/>
	<circle cx="15.266" cy="14.548" r="0.644"/>
	<circle cx="6.368" cy="1.468" r="0.643"/>
	<circle cx="12.75" cy="16.259" r="0.645"/>
	<circle cx="12.831" cy="1.504" r="0.644"/>
	<circle cx="6.288" cy="16.223" r="0.645"/>
	<circle cx="15.18" cy="3.095" r="0.645"/>
	<circle cx="3.941" cy="14.633" r="0.645"/>
	<circle cx="16.918" cy="5.589" r="0.644"/>
	<circle cx="2.203" cy="12.138" r="0.645"/>
	<path d="M11.188,15.563c1.202-0.297,2.307-0.908,3.204-1.806c2.682-2.681,2.682-7.04,0-9.72C13.096,2.74,11.37,2.025,9.533,2.025
		c-1.835,0-3.562,0.715-4.859,2.013c-1.299,1.298-2.015,3.024-2.015,4.86s0.715,3.562,2.015,4.859c0.896,0.897,2,1.507,3.2,1.806
		l-0.584,2.785h-3.05v1h10.618v-1h-3.085L11.188,15.563z M11.016,14.745l-0.123-0.585c0.254-0.063,0.506-0.132,0.746-0.231
		l0.241,0.547C11.603,14.592,11.309,14.67,11.016,14.745z M10.046,9.011c0-0.003,0.001-0.006,0.001-0.01h4.522
		c-0.003,0.138-0.009,0.275-0.021,0.409c-0.002,0.022-0.007,0.044-0.011,0.066c-0.018,0.148-0.037,0.293-0.066,0.437
		c-0.001,0.004-0.002,0.007-0.003,0.01c-0.064,0.316-0.16,0.623-0.283,0.915L10.046,9.011z M14.096,11.022
		c-0.235,0.504-0.549,0.963-0.931,1.359L9.996,9.215L14.096,11.022z M10.047,8.794c0-0.004-0.001-0.007-0.001-0.011l4.138-1.824
		c0.118,0.282,0.21,0.577,0.275,0.883c0.003,0.016,0.008,0.029,0.011,0.044c0.028,0.134,0.046,0.27,0.063,0.407
		c0.004,0.031,0.012,0.063,0.015,0.096c0.013,0.133,0.019,0.27,0.021,0.406H10.047z M9.996,8.58l3.169-3.169
		c0.382,0.398,0.695,0.857,0.931,1.361L9.996,8.58z M9.847,8.437l1.81-4.103c0.505,0.236,0.963,0.551,1.361,0.932L9.847,8.437z
		 M13.019,12.53c-0.397,0.38-0.856,0.695-1.361,0.931L9.915,9.51L9.894,9.404L13.019,12.53z M11.471,13.549
		c-0.212,0.089-0.438,0.146-0.664,0.206l-0.684-3.263L11.471,13.549z M12.065,14.386l-0.24-0.546
		c0.541-0.251,1.044-0.593,1.485-1.018l0.422,0.422C13.237,13.725,12.674,14.104,12.065,14.386z M13.879,13.098l-0.423-0.422
		c0.427-0.441,0.767-0.943,1.019-1.487l0.543,0.24C14.741,12.031,14.364,12.597,13.879,13.098z M15.105,11.241l-0.54-0.238
		c0.135-0.324,0.236-0.661,0.308-1.007c0,0,0,0,0-0.001c0.032-0.157,0.055-0.316,0.074-0.475c0.002-0.023,0.007-0.047,0.009-0.069
		c0.016-0.149,0.021-0.3,0.023-0.451h0.593C15.561,9.765,15.404,10.526,15.105,11.241z M15.573,8.794H14.98
		c-0.003-0.15-0.009-0.3-0.023-0.449c-0.003-0.031-0.009-0.062-0.013-0.092c-0.02-0.151-0.039-0.302-0.069-0.451
		c-0.003-0.01-0.006-0.02-0.008-0.03c-0.07-0.337-0.172-0.666-0.305-0.981l0.543-0.239C15.404,7.27,15.561,8.029,15.573,8.794z
		 M15.018,6.366l-0.543,0.239c-0.252-0.542-0.594-1.044-1.02-1.486l0.423-0.422C14.363,5.199,14.741,5.765,15.018,6.366z
		 M13.732,4.551l-0.422,0.422c-0.442-0.426-0.944-0.767-1.487-1.02l0.239-0.546C12.674,3.689,13.237,4.072,13.732,4.551z
		 M9.636,2.854c0.782,0.014,1.541,0.171,2.242,0.466l-0.239,0.546c-0.313-0.132-0.64-0.231-0.976-0.301
		c-0.012-0.003-0.022-0.007-0.035-0.009c-0.146-0.03-0.294-0.05-0.444-0.068c-0.033-0.004-0.065-0.012-0.099-0.015
		c-0.15-0.016-0.301-0.022-0.45-0.024V2.854z M9.636,3.863c0.137,0.002,0.272,0.005,0.407,0.021
		c0.034,0.003,0.064,0.011,0.101,0.016c0.135,0.016,0.27,0.034,0.402,0.061c0.012,0.002,0.024,0.007,0.039,0.01
		c0.307,0.065,0.603,0.158,0.885,0.277L9.645,8.385C9.642,8.384,9.639,8.383,9.636,8.383V3.863z M9.636,10.622l0.679,3.233
		c-0.224,0.036-0.447,0.073-0.679,0.077V10.622z M9.636,14.345c0.26-0.004,0.513-0.046,0.764-0.085l0.122,0.584
		c-0.291,0.047-0.585,0.094-0.886,0.098V14.345z M9.428,2.854v0.596c-0.149,0.002-0.3,0.008-0.449,0.023
		C8.958,3.476,8.938,3.48,8.917,3.482C8.401,3.54,7.898,3.667,7.428,3.866L7.186,3.321C7.888,3.027,8.646,2.867,9.428,2.854z
		 M9.069,8.58l-4.1-1.807C5.205,6.268,5.521,5.81,5.9,5.412L9.069,8.58z M6.046,5.266C6.444,4.885,6.903,4.57,7.408,4.334l1.809,4.1
		L6.046,5.266z M9.02,8.785c-0.001,0.003-0.001,0.007-0.001,0.01h-4.52C4.5,8.658,4.504,8.521,4.518,8.386
		C4.52,8.363,4.526,8.342,4.529,8.319c0.055-0.476,0.173-0.934,0.352-1.36L9.02,8.785z M9.019,9c0,0.004,0.001,0.007,0.001,0.01
		l-4.139,1.826c-0.121-0.292-0.216-0.594-0.282-0.909C4.598,9.921,4.596,9.917,4.595,9.912C4.566,9.773,4.547,9.634,4.532,9.493
		c-0.003-0.029-0.01-0.057-0.013-0.086C4.504,9.274,4.5,9.137,4.498,9H9.019z M9.069,9.215L5.9,12.383
		c-0.38-0.396-0.696-0.855-0.932-1.359L9.069,9.215z M9.166,9.411L9.141,9.53l-1.732,3.931c-0.506-0.235-0.963-0.552-1.361-0.931
		L9.166,9.411z M8.936,10.503l-0.682,3.25c-0.226-0.059-0.451-0.116-0.661-0.204L8.936,10.503z M8.662,14.26
		c0.253,0.04,0.507,0.081,0.766,0.086v0.596c-0.302-0.004-0.596-0.052-0.889-0.099L8.662,14.26z M8.746,13.854l0.682-3.245v3.323
		C9.196,13.928,8.971,13.89,8.746,13.854z M9.419,8.385L7.594,4.247c0.429-0.18,0.887-0.3,1.367-0.354
		c0.021-0.002,0.041-0.006,0.062-0.009c0.132-0.014,0.27-0.018,0.405-0.021v4.52C9.425,8.384,9.422,8.384,9.419,8.385z M7,3.41
		l0.241,0.545c-0.543,0.252-1.044,0.592-1.487,1.02L5.333,4.551C5.828,4.072,6.391,3.689,7,3.41z M5.187,4.698L5.608,5.12
		c-0.426,0.443-0.767,0.943-1.02,1.486l-0.544-0.24C4.326,5.755,4.707,5.192,5.187,4.698z M3.957,6.551l0.545,0.24
		c-0.134,0.321-0.237,0.657-0.308,1c0,0.003-0.001,0.006-0.002,0.009C4.16,7.956,4.137,8.113,4.119,8.271
		c-0.002,0.024-0.008,0.048-0.01,0.073c-0.016,0.149-0.021,0.298-0.023,0.45H3.489C3.501,8.011,3.66,7.253,3.957,6.551z M3.489,9
		h0.596c0.003,0.151,0.007,0.301,0.023,0.45C4.112,9.48,4.118,9.511,4.123,9.542C4.139,9.694,4.161,9.843,4.19,9.993
		c0.003,0.01,0.006,0.02,0.007,0.028c0.072,0.337,0.173,0.667,0.304,0.981l-0.545,0.24C3.66,10.54,3.501,9.784,3.489,9z
		 M4.045,11.431l0.545-0.241c0.252,0.543,0.592,1.045,1.019,1.487l-0.422,0.422C4.707,12.603,4.326,12.04,4.045,11.431z
		 M5.333,13.244l0.421-0.422c0.442,0.425,0.943,0.766,1.486,1.017L7,14.385C6.391,14.104,5.828,13.724,5.333,13.244z M7.186,14.474
		l0.241-0.547c0.238,0.101,0.491,0.167,0.742,0.23l-0.123,0.585C7.754,14.669,7.462,14.59,7.186,14.474z M7.803,18.348l0.564-2.683
		c0.381,0.065,0.771,0.105,1.167,0.105c0.394,0,0.781-0.04,1.161-0.104l0.563,2.682H7.803z"/>
</g>
</svg>
