<?xml version="1.0" encoding="iso-8859-1"?>
<!-- Generator: Adobe Illustrator 19.0.0, SVG Export Plug-In . SVG Version: 6.00 Build 0)  -->
<svg version="1.1" id="Capa_1" xmlns="http://www.w3.org/2000/svg" xmlns:xlink="http://www.w3.org/1999/xlink" x="0px" y="0px"
	 viewBox="0 0 463 463" style="enable-background:new 0 0 463 463;" xml:space="preserve">
<g>
	<path d="M447.5,116h-432C6.953,116,0,122.953,0,131.5v168c0,8.547,6.953,15.5,15.5,15.5H16v24.5c0,4.142,3.358,7.5,7.5,7.5h416
		c4.142,0,7.5-3.358,7.5-7.5V315h0.5c8.547,0,15.5-6.953,15.5-15.5v-168C463,122.953,456.047,116,447.5,116z M111,300v-17h193v17
		H111z M136,204h-25v-17h25V204z M247.5,187c0.276,0,0.5,0.224,0.5,0.5v16c0,0.276-0.224,0.5-0.5,0.5H231v-17H247.5z M304,268h-73
		v-9h73V268z M216,268h-17v-81h17V268z M184,268h-73v-9h73V268z M304,244h-73v-25h16.5c8.547,0,15.5-6.953,15.5-15.5v-16
		c0-8.547-6.953-15.5-15.5-15.5h-56c-4.142,0-7.5,3.358-7.5,7.5V244h-73v-25h25v0.5c0,4.142,3.358,7.5,7.5,7.5s7.5-3.358,7.5-7.5
		v-48c0-4.142-3.358-7.5-7.5-7.5s-7.5,3.358-7.5,7.5v0.5h-25v-41h193V244z M15,299.5v-168c0-0.276,0.224-0.5,0.5-0.5H96v169H23.5h-8
		C15.224,300,15,299.776,15,299.5z M432,332H31v-17h401V332z M416,300h-65v-81h65V300z M448,299.5c0,0.276-0.224,0.5-0.5,0.5h-8H431
		v-88.5c0-4.142-3.358-7.5-7.5-7.5h-80c-4.142,0-7.5,3.358-7.5,7.5V300h-17V131h128.5c0.276,0,0.5,0.224,0.5,0.5V299.5z"/>
	<path d="M351.5,148h-8c-4.142,0-7.5,3.358-7.5,7.5s3.358,7.5,7.5,7.5h8c4.142,0,7.5-3.358,7.5-7.5S355.642,148,351.5,148z"/>
	<path d="M391.5,148h-16c-4.142,0-7.5,3.358-7.5,7.5s3.358,7.5,7.5,7.5h16c4.142,0,7.5-3.358,7.5-7.5S395.642,148,391.5,148z"/>
	<path d="M423.5,148h-8c-4.142,0-7.5,3.358-7.5,7.5s3.358,7.5,7.5,7.5h8c4.142,0,7.5-3.358,7.5-7.5S427.642,148,423.5,148z"/>
	<path d="M351.5,172h-8c-4.142,0-7.5,3.358-7.5,7.5s3.358,7.5,7.5,7.5h8c4.142,0,7.5-3.358,7.5-7.5S355.642,172,351.5,172z"/>
	<path d="M391.5,172h-16c-4.142,0-7.5,3.358-7.5,7.5s3.358,7.5,7.5,7.5h16c4.142,0,7.5-3.358,7.5-7.5S395.642,172,391.5,172z"/>
	<path d="M423.5,172h-8c-4.142,0-7.5,3.358-7.5,7.5s3.358,7.5,7.5,7.5h8c4.142,0,7.5-3.358,7.5-7.5S427.642,172,423.5,172z"/>
	<path d="M71.5,283c4.142,0,7.5-3.358,7.5-7.5v-120c0-4.142-3.358-7.5-7.5-7.5s-7.5,3.358-7.5,7.5v120
		C64,279.642,67.358,283,71.5,283z"/>
	<path d="M39.5,283c4.142,0,7.5-3.358,7.5-7.5v-120c0-4.142-3.358-7.5-7.5-7.5s-7.5,3.358-7.5,7.5v120
		C32,279.642,35.358,283,39.5,283z"/>
	<path d="M367.5,251h32c4.142,0,7.5-3.358,7.5-7.5s-3.358-7.5-7.5-7.5h-32c-4.142,0-7.5,3.358-7.5,7.5S363.358,251,367.5,251z"/>
	<path d="M367.5,283h32c4.142,0,7.5-3.358,7.5-7.5s-3.358-7.5-7.5-7.5h-32c-4.142,0-7.5,3.358-7.5,7.5S363.358,283,367.5,283z"/>
</g>
<g>
</g>
<g>
</g>
<g>
</g>
<g>
</g>
<g>
</g>
<g>
</g>
<g>
</g>
<g>
</g>
<g>
</g>
<g>
</g>
<g>
</g>
<g>
</g>
<g>
</g>
<g>
</g>
<g>
</g>
</svg>
