<?xml version="1.0" encoding="iso-8859-1"?>
<!-- Generator: Adobe Illustrator 16.0.0, SVG Export Plug-In . SVG Version: 6.00 Build 0)  -->
<!DOCTYPE svg PUBLIC "-//W3C//DTD SVG 1.1//EN" "http://www.w3.org/Graphics/SVG/1.1/DTD/svg11.dtd">
<svg version="1.1" id="Capa_1" xmlns="http://www.w3.org/2000/svg" xmlns:xlink="http://www.w3.org/1999/xlink" x="0px" y="0px"
	 width="927.969px" height="927.969px" viewBox="0 0 927.969 927.969" style="enable-background:new 0 0 927.969 927.969;"
	 xml:space="preserve">
<g>
	<g>
		<path d="M836.548,820.469c-14.5,12.4-24.7,29.799-24.601,49.4c0.5,22.398,14.2,44.6,35,53.5c7.2,3.1,15,4.6,22.801,4.6
			c32.1,0,58.199-26,58.199-58.201c0-32.199-26-58.199-58.199-58.199c-1.4,0-2.801,0.1-4.101,0.199l-96.8-96.799l56.3-56.301
			c6.2-6.199,6.2-16.4,0-22.6l-22.3-22.199c-6.2-6.201-16.4-6.201-22.6,0l-166.5,166.6c-6.2,6.199-6.2,16.4,0,22.6l22.3,22.301
			c6.2,6.199,16.399,6.199,22.6,0l56.3-56.301l79.4,79.4c0.1-0.1,0.1-0.201,0.2-0.301c0.7-1,1.399-2.1,2.1-3.1
			c3-4,6.101-7.6,9.4-10.699c5.8-5.4,12.5-10.301,19.8-13.701c4.8-2.5,10-4.5,15.2-6c3.7-1.1,5.899-1.5,5.899-1.5
			s-1.899,1.1-5,3.301C840.048,817.668,838.248,819.068,836.548,820.469z"/>
		<path d="M64.448,285.369c2.7,11.2,9.2,21.2,18.4,28.2l531.4,402.5l36-36l-430.2-458.8l458.8,430.2l37.2-37.201L316.447,80.668
			c-7.1-9.5-17.3-16.1-28.899-18.8l-269.1-61.5c-10.9-2.4-20.6,7.3-18,18.2L64.448,285.369z"/>
	</g>
</g>
<g>
</g>
<g>
</g>
<g>
</g>
<g>
</g>
<g>
</g>
<g>
</g>
<g>
</g>
<g>
</g>
<g>
</g>
<g>
</g>
<g>
</g>
<g>
</g>
<g>
</g>
<g>
</g>
<g>
</g>
</svg>
