<?xml version="1.0" encoding="iso-8859-1"?>
<!-- Generator: Adobe Illustrator 18.1.1, SVG Export Plug-In . SVG Version: 6.00 Build 0)  -->
<svg version="1.1" id="Capa_1" xmlns="http://www.w3.org/2000/svg" xmlns:xlink="http://www.w3.org/1999/xlink" x="0px" y="0px"
	 viewBox="0 0 279.982 279.982" style="enable-background:new 0 0 279.982 279.982;" xml:space="preserve">
<g>
	<path style="fill:#030104;" d="M131.077,84.224h-27.138V63.098H52.413v21.126H24.059l0,0c-7.74,0-14.068,6.328-14.068,14.068
		v167.622c0,7.739,6.329,14.068,14.068,14.068h107.019c7.74,0,14.068-6.329,14.068-14.068V98.293
		C145.145,90.553,138.817,84.224,131.077,84.224z M116.803,195.563H90.468v26.006H64.449v-26.006H38.078v-26.177h26.371v-26.188
		h26.019v26.188h26.335V195.563z"/>
	<polygon id="_237363832" style="fill:#030104;" points="42.106,23.183 114.551,23.183 114.551,53.777 42.106,53.777 	"/>
	<path id="_237364024" style="fill:#030104;" d="M148.906,61.042h28.354V39.915h51.525v21.126h27.139
		c7.74,0,14.066,6.329,14.066,14.068V242.73c0,7.74-6.326,14.068-14.066,14.068h-106.63v-55.883h89.787v-69.924h-89.787V95.638
		c0-7.74-6.327-14.068-14.068-14.068h-0.389v-6.462C134.838,67.37,141.167,61.042,148.906,61.042L148.906,61.042z"/>
	<polygon id="_237364144" style="fill:#030104;" points="165.591,0 238.034,0 238.034,30.594 165.591,30.594 	"/>
</g>
<g>
</g>
<g>
</g>
<g>
</g>
<g>
</g>
<g>
</g>
<g>
</g>
<g>
</g>
<g>
</g>
<g>
</g>
<g>
</g>
<g>
</g>
<g>
</g>
<g>
</g>
<g>
</g>
<g>
</g>
</svg>
