<?xml version="1.0" encoding="utf-8"?>
<!-- Generator: Adobe Illustrator 16.0.4, SVG Export Plug-In . SVG Version: 6.00 Build 0)  -->
<!DOCTYPE svg PUBLIC "-//W3C//DTD SVG 1.1//EN" "http://www.w3.org/Graphics/SVG/1.1/DTD/svg11.dtd">
<svg version="1.1" id="Capa_1" xmlns="http://www.w3.org/2000/svg" xmlns:xlink="http://www.w3.org/1999/xlink" x="0px" y="0px"
	 width="19.675px" height="18.883px" viewBox="0 0 19.675 18.883" enable-background="new 0 0 19.675 18.883" xml:space="preserve">
<path d="M8.188,11.786l1.354,1.358l1.355-1.358l-1.355-1.354L8.188,11.786z M10.897,8.248L9.542,6.891L8.188,8.248l1.354,1.353
	L10.897,8.248z M4.646,11.786l1.355,1.358l1.355-1.358l-1.355-1.354L4.646,11.786z M7.771,8.662l-1.354,1.356l1.354,1.354
	l1.356-1.354L7.771,8.662z M19.278,13.754L9.521,4.101l-9.127,9.653H0v1.027h19.675v-1.027H19.278z M17.239,13.754h-1.228
	l0.197-0.197l-1.354-1.354L13.5,13.558l0.199,0.198H12.47l0.199-0.198l-1.354-1.354l-1.357,1.354l0.198,0.198H8.929l0.198-0.198
	l-1.356-1.354l-1.354,1.354l0.198,0.198H5.388l0.197-0.198l-1.354-1.354l-1.355,1.354l0.198,0.198H1.847l0.198-0.198l-0.521-0.522
	c0.122-0.127,0.26-0.273,0.405-0.427l0.531,0.535l1.355-1.358l-0.569-0.566c0.132-0.141,0.267-0.281,0.404-0.43l0.581,0.582
	l1.353-1.354L4.969,9.401C5.104,9.257,5.24,9.116,5.374,8.972l0.627,0.629l1.355-1.353L6.692,7.583
	c0.137-0.146,0.272-0.289,0.405-0.427l0.674,0.675l1.356-1.356L8.416,5.764C8.562,5.61,8.698,5.466,8.82,5.338L9.542,6.06
	l0.734-0.732c0.125,0.127,0.267,0.264,0.418,0.413L9.958,6.475l1.356,1.356l0.744-0.746c0.137,0.135,0.275,0.271,0.419,0.413
	l-0.748,0.749l1.354,1.354l0.756-0.755c0.14,0.137,0.279,0.277,0.416,0.414L13.5,10.018l1.354,1.354l0.767-0.767
	c0.144,0.142,0.282,0.278,0.42,0.412l-0.77,0.771l1.354,1.357l0.778-0.779c0.147,0.146,0.287,0.282,0.419,0.414l-0.779,0.778
	L17.239,13.754z M11.314,8.662l-1.356,1.356l1.356,1.354l1.355-1.354L11.314,8.662z M11.729,11.786l1.354,1.358l1.354-1.358
	l-1.354-1.354L11.729,11.786z"/>
</svg>
