<?xml version="1.0" encoding="iso-8859-1"?>
<!-- Generator: Adobe Illustrator 19.0.0, SVG Export Plug-In . SVG Version: 6.00 Build 0)  -->
<svg version="1.1" id="Capa_1" xmlns="http://www.w3.org/2000/svg" xmlns:xlink="http://www.w3.org/1999/xlink" x="0px" y="0px"
	 viewBox="0 0 463 463" style="enable-background:new 0 0 463 463;" xml:space="preserve">
<g>
	<path d="M407.5,352h-0.525c0.005-0.167,0.025-0.331,0.025-0.5v-36.687c0-4.14-1.612-8.031-4.54-10.96L391,292.394V279h0.5
		c4.143,0,7.5-3.358,7.5-7.5s-3.357-7.5-7.5-7.5h-16c-4.143,0-7.5,3.358-7.5,7.5s3.357,7.5,7.5,7.5h0.5v13.393l-11.46,11.461
		c-2.928,2.928-4.54,6.82-4.54,10.959V351.5c0,0.169,0.02,0.333,0.025,0.5h-17.051c0.005-0.167,0.025-0.331,0.025-0.5v-36.687
		c0-4.14-1.612-8.031-4.54-10.96L327,292.394V279h0.5c4.143,0,7.5-3.358,7.5-7.5s-3.357-7.5-7.5-7.5h-16c-4.143,0-7.5,3.358-7.5,7.5
		s3.357,7.5,7.5,7.5h0.5v13.393l-11.46,11.461c-2.928,2.928-4.54,6.82-4.54,10.959V351.5c0,0.169,0.02,0.333,0.025,0.5h-17.051
		c0.005-0.167,0.025-0.331,0.025-0.5v-36.687c0-4.14-1.612-8.031-4.54-10.96L263,292.394V279h0.5c4.143,0,7.5-3.358,7.5-7.5
		s-3.357-7.5-7.5-7.5h-16c-4.143,0-7.5,3.358-7.5,7.5s3.357,7.5,7.5,7.5h0.5v13.393l-11.46,11.461
		c-2.928,2.928-4.54,6.82-4.54,10.959V351.5c0,0.169,0.02,0.333,0.025,0.5h-17.051c0.005-0.167,0.025-0.331,0.025-0.5v-36.687
		c0-4.14-1.612-8.031-4.54-10.96L199,292.394V279h0.5c4.143,0,7.5-3.358,7.5-7.5s-3.357-7.5-7.5-7.5h-16c-4.143,0-7.5,3.358-7.5,7.5
		s3.357,7.5,7.5,7.5h0.5v13.393l-11.46,11.461c-2.928,2.928-4.54,6.82-4.54,10.959V351.5c0,0.169,0.02,0.333,0.025,0.5H151.5H151
		v-15.441c0-8.208-4.372-15.929-11.409-20.151l-5.996-3.598c0.913-2.944,1.405-6.07,1.405-9.31c0-11.667-6.381-21.865-15.831-27.309
		L65.581,115.428c15.371-15.815,43.83-34.484,94.104-38.492c32.329-2.577,59.809,2.315,72.314,7.322V95.5
		c0,0.043,0.006,0.085,0.006,0.129c0.002,0.119,0.01,0.237,0.018,0.357c0.01,0.149,0.021,0.298,0.039,0.445
		c0.005,0.043,0.005,0.086,0.011,0.129L248,208.034V239.5c0,4.142,3.357,7.5,7.5,7.5s7.5-3.358,7.5-7.5v-31.466l15.925-111.474
		c0.006-0.043,0.006-0.086,0.011-0.129c0.018-0.147,0.03-0.296,0.039-0.445c0.008-0.12,0.016-0.238,0.018-0.357
		C278.994,95.585,279,95.543,279,95.5v-24c0-8.547-6.953-15.5-15.5-15.5H263V45.766c9.29-3.138,16-11.93,16-22.266
		C279,10.542,268.458,0,255.5,0c-11.732,0-21.482,8.642-23.223,19.894L44.169,52.326C40.188,44.991,32.416,40,23.5,40
		C10.542,40,0,50.542,0,63.5c0,2.562,0.418,5.026,1.179,7.337c0.01,0.031,0.016,0.063,0.026,0.093l26.541,79.623
		C12.719,197.341,22.216,260.063,56,337.058V352h-0.5c-4.143,0-7.5,3.358-7.5,7.5V416H23.5c-4.143,0-7.5,3.358-7.5,7.5V448H7.5
		c-4.143,0-7.5,3.358-7.5,7.5s3.357,7.5,7.5,7.5h144h256c30.603,0,55.5-24.897,55.5-55.5S438.103,352,407.5,352z M375,351.5v-36.687
		c0-0.131,0.054-0.26,0.147-0.354l8.353-8.354l8.354,8.353c0.095,0.095,0.146,0.221,0.146,0.354V351.5c0,0.275-0.225,0.5-0.5,0.5
		h-16C375.225,352,375,351.775,375,351.5z M311,351.5v-36.687c0-0.131,0.054-0.26,0.147-0.354l8.353-8.354l8.354,8.353
		c0.095,0.095,0.146,0.221,0.146,0.354V351.5c0,0.275-0.225,0.5-0.5,0.5h-16C311.225,352,311,351.775,311,351.5z M247,351.5v-36.687
		c0-0.131,0.054-0.26,0.147-0.354l8.353-8.354l8.354,8.353c0.095,0.095,0.146,0.221,0.146,0.354V351.5c0,0.275-0.225,0.5-0.5,0.5
		h-16C247.225,352,247,351.775,247,351.5z M183,351.5v-36.687c0-0.131,0.054-0.26,0.147-0.354l8.353-8.354l8.354,8.353
		c0.095,0.095,0.146,0.221,0.146,0.354V351.5c0,0.275-0.225,0.5-0.5,0.5h-16C183.225,352,183,351.775,183,351.5z M22.364,86.971
		C22.74,86.989,23.119,87,23.5,87c5.692,0,10.917-2.035,14.988-5.415l63.485,190.454c-5.955,0.286-11.481,2.232-16.125,5.385
		L22.364,86.971z M87,303.5c0-9.098,7.402-16.5,16.5-16.5s16.5,7.402,16.5,16.5s-7.402,16.5-16.5,16.5S87,312.598,87,303.5z
		 M255.5,154.467L248.147,103h14.705L255.5,154.467z M264,71.5V88h-17V71.5c0-0.276,0.225-0.5,0.5-0.5h16
		C263.775,71,264,71.224,264,71.5z M247.5,56c-7.505,0-13.777,5.362-15.196,12.456c-16.844-5.386-44.084-8.841-73.81-6.472
		c-49.472,3.943-79.999,21.311-98.164,37.692L49.324,66.658l185.507-31.984c2.81,5.177,7.512,9.181,13.169,11.091V56H247.5z
		 M255.5,15c4.687,0,8.5,3.813,8.5,8.5s-3.813,8.5-8.5,8.5s-8.5-3.813-8.5-8.5S250.813,15,255.5,15z M23.5,55
		c4.687,0,8.5,3.813,8.5,8.5S28.187,72,23.5,72S15,68.187,15,63.5S18.813,55,23.5,55z M36.988,178.279l37.587,112.76
		C72.921,294.863,72,299.076,72,303.5c0,3.24,0.493,6.367,1.406,9.311l-5.995,3.598c-1.063,0.638-2.057,1.364-2.993,2.151
		C41.448,262.862,32.277,215.864,36.988,178.279z M71,336.559c0-2.968,1.581-5.761,4.127-7.289l6.013-3.608
		C86.852,331.424,94.765,335,103.5,335c8.735,0,16.649-3.576,22.36-9.338l6.014,3.608c2.545,1.527,4.126,4.32,4.126,7.289V352H71
		V336.559z M63,367h0.481c0.006,0,0.013,0.001,0.019,0.001S63.513,367,63.519,367h50.091C102.784,377.135,96,391.536,96,407.5
		c0,2.89,0.223,5.728,0.651,8.5H63V367z M31,448v-17h70.237c3.021,6.436,7.242,12.196,12.373,17H31z M407.5,448h-256
		c-22.332,0-40.5-18.168-40.5-40.5s18.168-40.5,40.5-40.5h256c22.332,0,40.5,18.168,40.5,40.5S429.832,448,407.5,448z"/>
	<path d="M151.5,384c-12.958,0-23.5,10.542-23.5,23.5s10.542,23.5,23.5,23.5s23.5-10.542,23.5-23.5S164.458,384,151.5,384z
		 M151.5,416c-4.687,0-8.5-3.813-8.5-8.5s3.813-8.5,8.5-8.5s8.5,3.813,8.5,8.5S156.187,416,151.5,416z"/>
	<path d="M215.5,384c-12.958,0-23.5,10.542-23.5,23.5s10.542,23.5,23.5,23.5s23.5-10.542,23.5-23.5S228.458,384,215.5,384z
		 M215.5,416c-4.687,0-8.5-3.813-8.5-8.5s3.813-8.5,8.5-8.5s8.5,3.813,8.5,8.5S220.187,416,215.5,416z"/>
	<path d="M279.5,384c-12.958,0-23.5,10.542-23.5,23.5s10.542,23.5,23.5,23.5s23.5-10.542,23.5-23.5S292.458,384,279.5,384z
		 M279.5,416c-4.687,0-8.5-3.813-8.5-8.5s3.813-8.5,8.5-8.5s8.5,3.813,8.5,8.5S284.187,416,279.5,416z"/>
	<path d="M343.5,384c-12.958,0-23.5,10.542-23.5,23.5s10.542,23.5,23.5,23.5s23.5-10.542,23.5-23.5S356.458,384,343.5,384z
		 M343.5,416c-4.687,0-8.5-3.813-8.5-8.5s3.813-8.5,8.5-8.5s8.5,3.813,8.5,8.5S348.187,416,343.5,416z"/>
	<path d="M407.5,384c-12.958,0-23.5,10.542-23.5,23.5s10.542,23.5,23.5,23.5s23.5-10.542,23.5-23.5S420.458,384,407.5,384z
		 M407.5,416c-4.687,0-8.5-3.813-8.5-8.5s3.813-8.5,8.5-8.5s8.5,3.813,8.5,8.5S412.187,416,407.5,416z"/>
</g>
<g>
</g>
<g>
</g>
<g>
</g>
<g>
</g>
<g>
</g>
<g>
</g>
<g>
</g>
<g>
</g>
<g>
</g>
<g>
</g>
<g>
</g>
<g>
</g>
<g>
</g>
<g>
</g>
<g>
</g>
</svg>
