<?xml version="1.0" encoding="iso-8859-1"?>
<!-- Generator: Adobe Illustrator 18.0.0, SVG Export Plug-In . SVG Version: 6.00 Build 0)  -->
<!DOCTYPE svg PUBLIC "-//W3C//DTD SVG 1.1//EN" "http://www.w3.org/Graphics/SVG/1.1/DTD/svg11.dtd">
<svg version="1.1" id="Capa_1" xmlns="http://www.w3.org/2000/svg" xmlns:xlink="http://www.w3.org/1999/xlink" x="0px" y="0px"
	 viewBox="0 0 59.979 59.979" style="enable-background:new 0 0 59.979 59.979;" xml:space="preserve">
<g>
	<path d="M39.499,28.979c-3.301,0-6.07,2.301-6.803,5.381c-0.62-0.241-1.365-0.381-2.197-0.381s-1.577,0.14-2.197,0.381
		c-0.734-3.08-3.502-5.381-6.803-5.381c-3.859,0-7,3.141-7,7s3.141,7,7,7c3.634,0,6.628-2.785,6.966-6.332
		c0.003-0.03,0.017-0.055,0.017-0.085c0.096-0.171,0.813-0.583,2.017-0.583s1.921,0.412,2,0.5c0,0.06,0.024,0.111,0.034,0.167
		c0.338,3.547,3.332,6.333,6.966,6.333c3.859,0,7-3.141,7-7S43.358,28.979,39.499,28.979z M21.499,40.979c-2.757,0-5-2.243-5-5
		s2.243-5,5-5s5,2.243,5,5S24.256,40.979,21.499,40.979z M39.499,40.979c-2.757,0-5-2.243-5-5s2.243-5,5-5s5,2.243,5,5
		S42.256,40.979,39.499,40.979z"/>
	<path d="M56.27,18.843c-0.563-4.081-2.322-7.604-4.825-9.668c-0.644-0.531-1.116-1.365-1.402-2.479
		c-0.827-3.209-3.847-5.451-7.694-5.714c-2.143-0.146-3.997,0.518-6.028,1.331c-0.07,0.029-0.154,0.028-0.277-0.05
		c-0.416-1.106-1.36-1.867-2.658-2.143c-3.017-0.637-7.636,1.311-11.353,4.692c0.006-0.891,0.191-1.687,0.695-1.938l1.686-0.842
		L22.77,1.108c-1.737-0.978-5.926-2.038-9.334,0.944c-1.238,1.082-2.138,2.596-2.599,4.377c-0.095,0.364-0.191,0.755-0.277,1.139
		c-0.037,0.167-0.174,0.217-0.231,0.23c-0.109,0.026-0.197-0.002-0.298-0.121C9.498,7.024,8.686,6.706,7.861,6.82
		C7.065,6.931,6.399,7.44,6.08,8.181c-1.968,4.567-5.65,16.19,2.2,26.139v16.658c0,2.757,2.243,5,5,5h3v1.694
		c0,1.271,1.034,2.306,2.305,2.306h23.39c1.271,0,2.306-1.034,2.306-2.306v-1.694h3c2.757,0,5-2.243,5-5V34.374
		C53.452,33.055,57.504,27.763,56.27,18.843z M7.916,8.973C7.933,8.935,7.981,8.822,8.14,8.801C8.2,8.792,8.355,8.789,8.468,8.925
		l0.064,0.078c0.554,0.66,1.423,0.942,2.269,0.74c0.861-0.209,1.518-0.874,1.711-1.735c0.082-0.362,0.173-0.731,0.262-1.076
		c0.36-1.39,1.045-2.557,1.979-3.373c2.098-1.835,4.416-1.597,5.801-1.195c-0.5,0.948-0.648,2.279-0.419,3.91
		c0.074,0.539,0.441,0.98,0.958,1.151c0.52,0.174,1.09,0.037,1.479-0.357c3.806-3.865,8.202-5.457,10.398-4.99
		c0.941,0.199,1.138,0.72,1.202,0.891c0.197,0.524,0.596,0.941,1.122,1.173c0.555,0.245,1.201,0.256,1.77,0.029
		c1.864-0.747,3.429-1.313,5.148-1.192c2.366,0.161,5.156,1.353,5.894,4.216c0.395,1.533,1.09,2.719,2.067,3.524
		c1.003,0.827,3.412,3.301,4.117,8.398c0.768,5.555-0.699,9.517-2.01,11.811V18.979v-1.747l-1.507,0.885
		c-2.458,1.445-4.604,1.887-6.386,1.314c-0.278-0.089-0.535-0.2-0.774-0.327c-1.672-0.884-2.409-2.508-2.417-2.527l-0.001-0.001
		l-0.217-0.502l-0.546-0.084c-9.598-1.48-14.263,2.536-15.57,3.94c-6.965-0.755-9.986-2.757-10.013-2.774l-0.74-0.513l-0.587,0.683
		c-0.39,0.453-0.795,0.85-1.201,1.198c-1.221,1.045-2.462,1.649-3.387,1.99L8.28,20.757v0.697v9.368
		C3.378,22.634,5.843,13.785,7.916,8.973z M42.28,57.674c0,0.169-0.137,0.306-0.306,0.306h-23.39c-0.168,0-0.305-0.137-0.305-0.306
		v-1.694h24V57.674z M50.28,50.979c0,1.654-1.346,3-3,3h-3h-28h-3c-1.654,0-3-1.346-3-3V36.791V22.13
		c1.23-0.532,2.767-1.422,4.196-2.885c1.407,0.73,4.807,2.158,10.707,2.729l0.565,0.055l0.337-0.457
		c0.038-0.052,3.805-4.994,13.546-3.676c0.516,0.89,1.797,2.672,4.112,3.429c1.952,0.638,4.145,0.403,6.536-0.694v15.719V50.979z"/>
	<path d="M33.499,24.979h3l-1.8,2.4c-0.332,0.441-0.242,1.068,0.2,1.399c0.18,0.135,0.39,0.2,0.599,0.2
		c0.305,0,0.604-0.138,0.801-0.4l3-4c0.228-0.303,0.264-0.708,0.095-1.047c-0.17-0.339-0.516-0.553-0.895-0.553h-3l1.8-2.4
		c0.332-0.441,0.242-1.068-0.2-1.399c-0.441-0.331-1.068-0.242-1.399,0.2l-3,4c-0.228,0.303-0.264,0.708-0.095,1.047
		C32.774,24.765,33.12,24.979,33.499,24.979z"/>
	<path d="M37.499,46.979h-14c-0.553,0-1,0.447-1,1s0.447,1,1,1h14c0.553,0,1-0.447,1-1S38.052,46.979,37.499,46.979z"/>
</g>
<g>
</g>
<g>
</g>
<g>
</g>
<g>
</g>
<g>
</g>
<g>
</g>
<g>
</g>
<g>
</g>
<g>
</g>
<g>
</g>
<g>
</g>
<g>
</g>
<g>
</g>
<g>
</g>
<g>
</g>
</svg>
