<?xml version="1.0" encoding="iso-8859-1"?>
<!-- Generator: Adobe Illustrator 18.0.0, SVG Export Plug-In . SVG Version: 6.00 Build 0)  -->
<!DOCTYPE svg PUBLIC "-//W3C//DTD SVG 1.1//EN" "http://www.w3.org/Graphics/SVG/1.1/DTD/svg11.dtd">
<svg version="1.1" id="Capa_1" xmlns="http://www.w3.org/2000/svg" xmlns:xlink="http://www.w3.org/1999/xlink" x="0px" y="0px"
	 viewBox="0 0 295.996 295.996" style="enable-background:new 0 0 295.996 295.996;" xml:space="preserve">
<g>
	<path d="M147.998,0C66.392,0,0,66.392,0,147.998c0,81.606,66.392,147.998,147.998,147.998c81.606,0,147.998-66.392,147.998-147.998
		C295.996,66.392,229.604,0,147.998,0z M147.998,279.996c-36.257,0-69.143-14.696-93.023-38.44
		c-9.536-9.482-17.631-20.41-23.934-32.42C21.442,190.847,16,170.047,16,147.998C16,75.214,75.214,16,147.998,16
		c34.523,0,65.987,13.328,89.533,35.102c12.208,11.288,22.289,24.844,29.558,39.996c8.27,17.239,12.907,36.538,12.907,56.9
		C279.996,220.782,220.782,279.996,147.998,279.996z"/>
	<circle cx="197.497" cy="115.998" r="16"/>
	<path d="M99.583,120.581L99.583,120.581c5.468,0,10.404,2.655,13.207,7.101l13.535-8.325c-5.75-9.121-15.747-14.36-26.74-14.36
		c-0.001,0-0.001,0-0.001,0c-10.994,0-20.993,5.238-26.744,14.36l13.533,8.429C89.178,123.341,94.116,120.581,99.583,120.581z"/>
	<path d="M148.278,230.628c3.443,0,6.902-0.195,10.362-0.595c26.959-3.109,51.886-18.63,66.677-41.518l-13.438-8.684
		c-12.225,18.915-32.813,31.74-55.073,34.308c-26.906,3.11-53.789-8.673-69.854-30.23c4.725-7.112,6.412-15.778,4.506-24.19
		l-15.604,3.535c1.161,5.128-0.453,10.497-4.319,14.363c-3.866,3.865-9.233,5.478-14.359,4.317l-3.537,15.604
		c2.284,0.519,4.587,0.771,6.873,0.771c5.066,0,10.043-1.25,14.542-3.623C92.483,217.253,119.831,230.628,148.278,230.628z"/>
</g>
<g>
</g>
<g>
</g>
<g>
</g>
<g>
</g>
<g>
</g>
<g>
</g>
<g>
</g>
<g>
</g>
<g>
</g>
<g>
</g>
<g>
</g>
<g>
</g>
<g>
</g>
<g>
</g>
<g>
</g>
</svg>
