<?xml version="1.0" encoding="iso-8859-1"?>
<!-- Generator: Adobe Illustrator 19.0.0, SVG Export Plug-In . SVG Version: 6.00 Build 0)  -->
<svg version="1.1" id="Layer_1" xmlns="http://www.w3.org/2000/svg" xmlns:xlink="http://www.w3.org/1999/xlink" x="0px" y="0px"
	 viewBox="0 0 512 512" style="enable-background:new 0 0 512 512;" xml:space="preserve">
<g>
	<g>
		<g>
			<path d="M298.667,17.067h8.533V25.6c0,4.71,3.823,8.533,8.533,8.533s8.533-3.823,8.533-8.533v-8.533H409.6V25.6
				c0,4.71,3.823,8.533,8.533,8.533s8.533-3.823,8.533-8.533v-8.533h8.533c4.71,0,8.533-3.823,8.533-8.533S439.91,0,435.2,0H298.667
				c-4.71,0-8.533,3.823-8.533,8.533S293.956,17.067,298.667,17.067z"/>
			<path d="M136.533,93.867v68.267c0,4.71,3.823,8.533,8.533,8.533c4.71,0,8.533-3.823,8.533-8.533V93.867
				c0-4.71-3.823-8.533-8.533-8.533C140.356,85.333,136.533,89.156,136.533,93.867z"/>
			<path d="M76.8,68.267h8.533v93.867c0,4.71,3.823,8.533,8.533,8.533c4.71,0,8.533-3.823,8.533-8.533V68.267h85.333v93.867
				c0,4.71,3.823,8.533,8.533,8.533s8.533-3.823,8.533-8.533V68.267h8.533c4.71,0,8.533-3.823,8.533-8.533s-3.823-8.533-8.533-8.533
				H76.8c-4.71,0-8.533,3.823-8.533,8.533S72.09,68.267,76.8,68.267z"/>
			<path d="M298.667,68.267h8.533v93.867c0,4.71,3.823,8.533,8.533,8.533s8.533-3.823,8.533-8.533V68.267H409.6v93.867
				c0,4.71,3.823,8.533,8.533,8.533s8.533-3.823,8.533-8.533V68.267h8.533c4.71,0,8.533-3.823,8.533-8.533S439.91,51.2,435.2,51.2
				H298.667c-4.71,0-8.533,3.823-8.533,8.533S293.956,68.267,298.667,68.267z"/>
			<path d="M358.4,93.867v68.267c0,4.71,3.823,8.533,8.533,8.533s8.533-3.823,8.533-8.533V93.867c0-4.71-3.823-8.533-8.533-8.533
				S358.4,89.156,358.4,93.867z"/>
			<path d="M76.8,17.067h8.533V25.6c0,4.71,3.823,8.533,8.533,8.533c4.71,0,8.533-3.823,8.533-8.533v-8.533h85.333V25.6
				c0,4.71,3.823,8.533,8.533,8.533S204.8,30.31,204.8,25.6v-8.533h8.533c4.71,0,8.533-3.823,8.533-8.533S218.044,0,213.333,0H76.8
				c-4.71,0-8.533,3.823-8.533,8.533S72.09,17.067,76.8,17.067z"/>
			<path d="M145.067,315.733v51.2c0,4.71,3.823,8.533,8.533,8.533c4.71,0,8.533-3.823,8.533-8.533v-51.2
				c0-4.71-3.823-8.533-8.533-8.533C148.89,307.2,145.067,311.023,145.067,315.733z"/>
			<path d="M221.867,341.333c0,18.825,15.309,34.133,34.133,34.133c18.825,0,34.133-15.309,34.133-34.133
				c0-18.825-15.309-34.133-34.133-34.133C237.175,307.2,221.867,322.509,221.867,341.333z M273.067,341.333
				c0,9.412-7.654,17.067-17.067,17.067c-9.412,0-17.067-7.654-17.067-17.067c0-9.412,7.654-17.067,17.067-17.067
				C265.412,324.267,273.067,331.921,273.067,341.333z"/>
			<path d="M110.933,315.733v51.2c0,4.71,3.823,8.533,8.533,8.533s8.533-3.823,8.533-8.533v-51.2c0-4.71-3.823-8.533-8.533-8.533
				S110.933,311.023,110.933,315.733z"/>
			<path d="M503.467,494.933h-59.733v-179.2c0-4.71-3.823-8.533-8.533-8.533s-8.533,3.823-8.533,8.533v179.2h-25.6v-42.667
				c0-20.599-10.846-31.454-19.567-40.166c-3.337-3.337-8.73-3.337-12.066,0c-8.721,8.713-19.567,19.567-19.567,40.166v42.667h-25.6
				v-179.2c0-4.71-3.823-8.533-8.533-8.533s-8.533,3.823-8.533,8.533v179.2h-25.6v-42.667c0-20.599-10.846-31.454-19.567-40.166
				c-3.337-3.337-8.73-3.337-12.066,0c-8.721,8.713-19.567,19.567-19.567,40.166v42.667h-25.6v-179.2
				c0-4.71-3.823-8.533-8.533-8.533s-8.533,3.823-8.533,8.533v179.2h-25.6v-42.667c0-20.599-10.846-31.454-19.567-40.166
				c-3.337-3.337-8.73-3.337-12.066,0c-8.721,8.713-19.567,19.567-19.567,40.166v42.667h-25.6v-179.2
				c0-4.71-3.823-8.533-8.533-8.533s-8.533,3.823-8.533,8.533v179.2H8.533c-4.71,0-8.533,3.823-8.533,8.533S3.823,512,8.533,512
				h494.933c4.71,0,8.533-3.823,8.533-8.533S508.177,494.933,503.467,494.933z M145.067,494.933H128v-42.667
				c0-9.941,3.465-16.043,8.533-21.811c5.069,5.768,8.533,11.87,8.533,21.811V494.933z M264.533,494.933h-17.067v-42.667
				c0-9.941,3.465-16.043,8.533-21.811c5.069,5.768,8.533,11.87,8.533,21.811V494.933z M384,494.933h-17.067v-42.667
				c0-9.941,3.465-16.043,8.533-21.811c5.069,5.768,8.533,11.87,8.533,21.811V494.933z"/>
			<path d="M349.867,315.733v51.2c0,4.71,3.823,8.533,8.533,8.533s8.533-3.823,8.533-8.533v-51.2c0-4.71-3.823-8.533-8.533-8.533
				S349.867,311.023,349.867,315.733z"/>
			<path d="M59.733,290.133h392.533c4.71,0,8.533-3.823,8.533-8.533s-3.823-8.533-8.533-8.533h-8.533v-76.8
				c0-4.71-3.823-8.533-8.533-8.533H76.8c-4.71,0-8.533,3.823-8.533,8.533v76.8h-8.533c-4.71,0-8.533,3.823-8.533,8.533
				S55.023,290.133,59.733,290.133z M324.267,204.8h102.4v68.267h-25.6V230.4c0-4.71-3.823-8.533-8.533-8.533
				c-4.71,0-8.533,3.823-8.533,8.533v42.667h-17.067V230.4c0-4.71-3.823-8.533-8.533-8.533s-8.533,3.823-8.533,8.533v42.667h-25.6
				V204.8z M204.8,204.8h102.4v68.267h-25.6V230.4c0-4.71-3.823-8.533-8.533-8.533c-4.71,0-8.533,3.823-8.533,8.533v42.667h-17.067
				V230.4c0-4.71-3.823-8.533-8.533-8.533s-8.533,3.823-8.533,8.533v42.667h-25.6V204.8z M85.333,204.8h102.4v68.267h-25.6V230.4
				c0-4.71-3.823-8.533-8.533-8.533c-4.71,0-8.533,3.823-8.533,8.533v42.667H128V230.4c0-4.71-3.823-8.533-8.533-8.533
				s-8.533,3.823-8.533,8.533v42.667h-25.6V204.8z"/>
			<path d="M384,315.733v51.2c0,4.71,3.823,8.533,8.533,8.533c4.71,0,8.533-3.823,8.533-8.533v-51.2c0-4.71-3.823-8.533-8.533-8.533
				C387.823,307.2,384,311.023,384,315.733z"/>
		</g>
	</g>
</g>
<g>
</g>
<g>
</g>
<g>
</g>
<g>
</g>
<g>
</g>
<g>
</g>
<g>
</g>
<g>
</g>
<g>
</g>
<g>
</g>
<g>
</g>
<g>
</g>
<g>
</g>
<g>
</g>
<g>
</g>
</svg>
