<?xml version="1.0" encoding="utf-8"?>
<!-- Generator: Adobe Illustrator 16.0.0, SVG Export Plug-In . SVG Version: 6.00 Build 0)  -->
<!DOCTYPE svg PUBLIC "-//W3C//DTD SVG 1.1//EN" "http://www.w3.org/Graphics/SVG/1.1/DTD/svg11.dtd">
<svg version="1.1" id="Layer_1" xmlns="http://www.w3.org/2000/svg" xmlns:xlink="http://www.w3.org/1999/xlink" x="0px" y="0px"
	 width="96px" height="96px" viewBox="0 0 96 96" enable-background="new 0 0 96 96" xml:space="preserve">
<path d="M54.449,43.344l5.875-0.932c1.251-0.197,2.368-0.788,3.221-1.641s1.443-1.969,1.642-3.221
	c0.396-2.504-0.865-4.978-3.122-6.127l-13.948-7.106l2.449-15.462c0.397-2.503-0.862-4.977-3.121-6.127
	c-2.259-1.151-5.001-0.717-6.792,1.075l-11.069,11.07L15.634,7.767c-2.258-1.15-5-0.716-6.792,1.075
	c-1.791,1.792-2.226,4.534-1.075,6.792l7.107,13.949L3.804,40.652c-1.791,1.793-2.226,4.534-1.075,6.792
	c1.15,2.259,3.623,3.519,6.127,3.121l15.462-2.449l7.106,13.948c1.149,2.258,3.623,3.518,6.127,3.122
	c2.504-0.397,4.465-2.36,4.861-4.862l0.933-5.875l37.329,39.46l13.235-13.235L54.449,43.344z M38.728,38.728L36.043,55.67
	l-7.786-15.284l-16.943,2.684l12.13-12.13l-7.788-15.285l15.284,7.789l12.13-12.131l-2.685,16.944l15.285,7.787L38.728,38.728z"/>
</svg>
