<?xml version="1.0" encoding="iso-8859-1"?>
<!-- Generator: Adobe Illustrator 18.0.0, SVG Export Plug-In . SVG Version: 6.00 Build 0)  -->
<!DOCTYPE svg PUBLIC "-//W3C//DTD SVG 1.1//EN" "http://www.w3.org/Graphics/SVG/1.1/DTD/svg11.dtd">
<svg version="1.1" id="Capa_1" xmlns="http://www.w3.org/2000/svg" xmlns:xlink="http://www.w3.org/1999/xlink" x="0px" y="0px"
	 viewBox="0 0 277.856 277.856" style="enable-background:new 0 0 277.856 277.856;" xml:space="preserve">
<g>
	<path d="M78.68,277.856c-0.864,0-1.75-0.017-2.631-0.049c-16.113-0.638-31.754-7.416-42.911-18.567
		c-23.425-23.43-23.427-61.528-0.006-84.96L149.653,57.777c14.862-14.862,39.05-14.864,53.921-0.003
		c14.868,14.892,14.868,39.096,0,53.958l-80.256,80.247l-19.68-19.681l80.258-80.251c4.028-4.019,4.026-10.553-0.004-14.593
		c-4.007-4.002-10.551-4.003-14.564,0.006L52.815,193.962c-12.573,12.573-12.57,33.02,0.006,45.594
		c6.265,6.279,15.146,10.071,24.341,10.434c9.167,0.369,17.394-2.642,23.227-8.454l116.753-116.756
		c10.577-10.595,16.893-25.441,17.298-40.744c0.41-15.477-5.036-29.679-15.329-39.981c-21.646-21.62-61.059-21.62-82.686,0
		l-80.41,80.417L36.33,104.787l80.421-80.416c32.496-32.494,89.522-32.495,122.034-0.002c15.757,15.761,24.098,37.214,23.47,60.427
		c-0.601,22.337-9.872,44.084-25.43,59.659L120.073,261.212C109.275,271.988,94.662,277.856,78.68,277.856z"/>
</g>
<g>
</g>
<g>
</g>
<g>
</g>
<g>
</g>
<g>
</g>
<g>
</g>
<g>
</g>
<g>
</g>
<g>
</g>
<g>
</g>
<g>
</g>
<g>
</g>
<g>
</g>
<g>
</g>
<g>
</g>
</svg>
