<?xml version="1.0" encoding="iso-8859-1"?>
<!-- Generator: Adobe Illustrator 16.0.0, SVG Export Plug-In . SVG Version: 6.00 Build 0)  -->
<!DOCTYPE svg PUBLIC "-//W3C//DTD SVG 1.1//EN" "http://www.w3.org/Graphics/SVG/1.1/DTD/svg11.dtd">
<svg version="1.1" id="Capa_1" xmlns="http://www.w3.org/2000/svg" xmlns:xlink="http://www.w3.org/1999/xlink" x="0px" y="0px"
	 width="45.001px" height="45.001px" viewBox="0 0 45.001 45.001" style="enable-background:new 0 0 45.001 45.001;"
	 xml:space="preserve">
<g>
	<g>
		<g>
			<path d="M6.42,30.262C1.3,21.393,4.351,10.01,13.22,4.889c8.867-5.12,20.248-2.071,25.368,6.798
				c3.629,6.286,3.138,13.82-0.602,19.507l2.002,1.321c4.228-6.416,4.78-14.917,0.676-22.03C34.873,0.457,22.048-2.977,12.021,2.813
				C1.993,8.604-1.446,21.425,4.346,31.458C8.45,38.569,16.089,42.34,23.758,41.886l-0.143-2.395
				C16.824,39.89,10.048,36.547,6.42,30.262z"/>
			<path d="M33.588,40.17c-2.584,1.491-5.38,2.272-8.175,2.432l0.145,2.399c3.152-0.188,6.308-1.067,9.229-2.757
				c2.921-1.686,5.263-3.979,7.001-6.613l-2.002-1.322C38.245,36.647,36.17,38.678,33.588,40.17z"/>
			<path d="M38.785,33.649l-14.483-9.563l1.039,17.322c2.615-0.151,5.23-0.882,7.648-2.276
				C35.406,37.738,37.345,35.834,38.785,33.649z M30.258,38.647c-0.084,0.318-0.284,0.584-0.567,0.742
				c-0.187,0.108-0.397,0.165-0.61,0.165c-0.434,0-0.841-0.23-1.06-0.61c-0.162-0.28-0.206-0.612-0.121-0.927
				c0.084-0.314,0.287-0.577,0.568-0.742c0.186-0.104,0.396-0.164,0.607-0.164c0.438,0,0.843,0.236,1.062,0.61
				C30.299,38.007,30.343,38.333,30.258,38.647z M32.241,34.366c-0.086,0.044-0.175,0.091-0.255,0.149
				c-0.083,0.063-0.153,0.134-0.22,0.202c-0.134,0.134-0.259,0.26-0.432,0.26c-0.153,0-0.295-0.098-0.458-0.314
				c-0.188-0.256-0.511-0.821-0.779-1.382c-0.479,0.254-0.934,0.392-1.291,0.392c-0.365,0-0.549-0.143-0.638-0.264
				c-0.178-0.238-0.244-0.74-0.166-1.272c0.107-0.723,0.454-1.349,0.951-1.72c0.489-0.36,1.059-0.438,1.446-0.438
				c0.698,0,1.404,0.246,1.642,0.566c0.288,0.394,0.015,1.104-0.686,1.807c0.438,0.404,0.896,0.884,1.092,1.147
				c0.153,0.21,0.207,0.369,0.174,0.51C32.58,34.188,32.414,34.275,32.241,34.366z"/>
			<path d="M37.55,12.286C32.76,3.989,22.113,1.139,13.819,5.928C5.522,10.718,2.668,21.363,7.458,29.66
				c3.395,5.881,9.729,9.008,16.083,8.634l-1.037-17.322l14.481,9.563C40.488,25.217,40.946,18.167,37.55,12.286z M12.814,10.159
				c0.187-0.106,0.396-0.162,0.608-0.162c0.437,0,0.841,0.234,1.06,0.612c0.162,0.283,0.206,0.613,0.124,0.927
				c-0.084,0.314-0.286,0.578-0.569,0.742c-0.187,0.107-0.396,0.163-0.61,0.163c-0.435,0-0.84-0.235-1.059-0.613
				C12.029,11.246,12.232,10.497,12.814,10.159z M14.189,28.868c-0.456,0.261-0.972,0.397-1.492,0.397
				c-1.069,0-2.062-0.571-2.593-1.493c-0.827-1.433-0.336-3.263,1.09-4.088c0.454-0.263,0.967-0.398,1.489-0.398
				c1.068,0,2.062,0.573,2.596,1.496C16.1,26.208,15.609,28.043,14.189,28.868z M17.706,20.189c-0.144,0.051-0.273,0.122-0.396,0.19
				c-0.19,0.105-0.353,0.196-0.525,0.196c-0.324,0-0.482-0.32-0.585-0.601c-0.164-0.453-0.383-1.407-0.522-2.271
				c-0.406,0.084-0.792,0.127-1.146,0.127c-0.841,0-1.393-0.244-1.552-0.688c-0.153-0.42-0.009-1.193,0.361-1.921
				c0.259-0.511,0.851-1.42,1.9-1.802c0.322-0.119,0.672-0.178,1.04-0.178c1.457,0,2.855,0.94,3.084,1.576
				c0.232,0.633-0.451,1.492-1.707,2.165c0.496,0.826,0.913,1.674,1.061,2.073c0.118,0.328,0.132,0.555,0.04,0.72
				c-0.119,0.206-0.366,0.256-0.628,0.307C17.993,20.107,17.848,20.135,17.706,20.189z M20.21,32.52
				c-0.187,0.104-0.396,0.165-0.61,0.165c-0.437,0-0.842-0.236-1.06-0.611c-0.338-0.587-0.135-1.335,0.447-1.668
				c0.188-0.11,0.398-0.166,0.612-0.166c0.436,0,0.84,0.23,1.058,0.61C20.993,31.432,20.793,32.181,20.21,32.52z M27.032,10.501
				c-0.33,0.19-0.705,0.291-1.084,0.291c-0.775,0-1.499-0.417-1.887-1.086c-0.599-1.04-0.241-2.371,0.796-2.972
				c0.331-0.189,0.706-0.291,1.087-0.291c0.773,0,1.497,0.417,1.883,1.088C28.429,8.568,28.072,9.901,27.032,10.501z M32.191,24.354
				c-0.187,0.108-0.397,0.164-0.612,0.164c-0.436,0-0.84-0.23-1.059-0.608c-0.336-0.585-0.137-1.334,0.446-1.671
				c0.188-0.107,0.396-0.162,0.609-0.162c0.438,0,0.841,0.233,1.059,0.61C32.975,23.27,32.775,24.016,32.191,24.354z M36.272,18.186
				c-0.091,0.109-0.188,0.221-0.267,0.348c-0.08,0.13-0.134,0.268-0.188,0.399c-0.116,0.282-0.237,0.577-0.568,0.577
				c-0.149,0-0.327-0.064-0.553-0.201c-0.359-0.219-1.107-0.791-1.828-1.446c-0.895,1.091-1.882,1.599-2.456,1.252
				c-0.354-0.216-0.704-0.833-0.885-1.573c-0.246-1.004-0.13-2.007,0.318-2.749c0.696-1.146,2.167-1.669,3.234-1.669
				c0.367,0,0.667,0.062,0.86,0.179c0.576,0.351,0.579,1.448,0.02,2.757c0.913,0.337,1.768,0.741,2.125,0.957
				c0.298,0.182,0.451,0.35,0.48,0.537C36.607,17.79,36.445,17.98,36.272,18.186z"/>
		</g>
	</g>
</g>
<g>
</g>
<g>
</g>
<g>
</g>
<g>
</g>
<g>
</g>
<g>
</g>
<g>
</g>
<g>
</g>
<g>
</g>
<g>
</g>
<g>
</g>
<g>
</g>
<g>
</g>
<g>
</g>
<g>
</g>
</svg>
