<?xml version="1.0" encoding="iso-8859-1"?>
<!-- Generator: Adobe Illustrator 17.0.0, SVG Export Plug-In . SVG Version: 6.00 Build 0)  -->
<!DOCTYPE svg PUBLIC "-//W3C//DTD SVG 1.1//EN" "http://www.w3.org/Graphics/SVG/1.1/DTD/svg11.dtd">
<svg version="1.1" id="Capa_1" xmlns="http://www.w3.org/2000/svg" xmlns:xlink="http://www.w3.org/1999/xlink" x="0px" y="0px"
	 width="64px" height="64px" viewBox="0 0 64 64" style="enable-background:new 0 0 64 64;" preserveAspectRatio="fit">
<g>
	<path d="M19.79,42.964c4.953,1.226,9.132,0.124,11.695-2.224c2.563,2.348,6.742,3.45,11.695,2.224
		c11.262-2.789,17.904,1.287,17.904,1.287c0.84-14.666-9.926-18.775-15.862-19.927c-1.089-0.265-2.245-0.414-3.445-0.438
		c-0.207-0.01-0.33-0.012-0.33-0.012c-4.129,0-7.772,1.536-9.962,3.877c-2.19-2.342-5.833-3.877-9.962-3.877
		c0,0-0.124,0.002-0.33,0.012c-1.2,0.024-2.356,0.174-3.445,0.438c-5.936,1.152-16.702,5.26-15.862,19.927
		C1.886,44.251,8.528,40.176,19.79,42.964z"/>
</g>
</svg>
