<?xml version="1.0" encoding="iso-8859-1"?>
<!-- Generator: Adobe Illustrator 17.1.0, SVG Export Plug-In . SVG Version: 6.00 Build 0)  -->
<!DOCTYPE svg PUBLIC "-//W3C//DTD SVG 1.1//EN" "http://www.w3.org/Graphics/SVG/1.1/DTD/svg11.dtd">
<svg version="1.1" id="Capa_1" xmlns="http://www.w3.org/2000/svg" xmlns:xlink="http://www.w3.org/1999/xlink" x="0px" y="0px"
	 viewBox="0 0 490 490" style="enable-background:new 0 0 490 490;" xml:space="preserve">
<g>
	<g>
		<path d="M295.106,0h-7.786C283.5,0,280.4,3.101,280.4,6.921v69.678h-70.801V6.921c0-3.82-3.098-6.921-6.92-6.921h-7.785
			c-3.824,0-6.922,3.101-6.922,6.921v248.898c0,3.826,3.098,6.928,6.922,6.928h7.785c3.822,0,6.92-3.102,6.92-6.928v-96.457H280.4
			v96.457c0,3.826,3.1,6.928,6.921,6.928h7.786c3.822,0,6.921-3.102,6.921-6.928V6.921C302.027,3.101,298.929,0,295.106,0z
			 M209.599,137.73V98.226H280.4v39.504H209.599z"/>
	</g>
	<path d="M323.304,199.699h-7.436v56.12c0,11.454-9.313,20.769-20.762,20.769h-7.786c-11.45,0-20.765-9.315-20.765-20.769v-56.12
		h-43.112v56.12c0,11.454-9.314,20.769-20.765,20.769h-7.785c-11.45,0-20.763-9.315-20.763-20.769v-56.12h-7.436
		c-80.164,0-145.15,64.988-145.15,145.147C21.546,425.011,86.533,490,166.696,490h156.607c80.164,0,145.15-64.989,145.15-145.153
		C468.454,264.688,403.468,199.699,323.304,199.699z M363.605,445.086c-11.493,0-17.259-6.974-21.89-12.58
		c-4.308-5.209-6.797-7.929-12.013-7.929c-5.214,0-7.704,2.72-12.012,7.929c-4.633,5.606-10.397,12.58-21.893,12.58
		c-11.489,0-17.25-6.977-21.881-12.583c-4.303-5.206-6.79-7.926-11.998-7.926c-5.211,0-7.701,2.72-12.006,7.929
		c-4.63,5.606-10.394,12.58-21.885,12.58c-11.49,0-17.253-6.977-21.884-12.583c-4.301-5.206-6.79-7.926-11.997-7.926
		c-5.207,0-7.693,2.72-11.993,7.926c-4.63,5.606-10.39,12.583-21.879,12.583c-11.488,0-17.252-6.977-21.881-12.583
		c-4.303-5.206-6.79-7.926-12-7.926c-3.539,0-6.409-2.868-6.409-6.409c0-3.538,2.869-6.41,6.409-6.41
		c11.489,0,17.252,6.981,21.882,12.584c4.304,5.209,6.791,7.925,11.999,7.925c5.208,0,7.694-2.716,11.994-7.925
		c4.629-5.603,10.391-12.584,21.878-12.584c11.488,0,17.251,6.981,21.881,12.584c4.303,5.209,6.79,7.925,12,7.925
		c5.21,0,7.701-2.716,12.005-7.925c4.631-5.607,10.395-12.584,21.886-12.584c11.489,0,17.252,6.981,21.882,12.584
		c4.302,5.209,6.791,7.925,11.997,7.925c5.216,0,7.706-2.716,12.013-7.925c4.631-5.607,10.397-12.584,21.891-12.584
		c11.493,0,17.26,6.977,21.893,12.584c4.307,5.209,6.796,7.925,12.01,7.925c3.54,0,6.41,2.871,6.41,6.41
		C370.014,442.218,367.145,445.086,363.605,445.086z M363.605,392.402c-11.493,0-17.259-6.973-21.89-12.581
		c-4.308-5.209-6.797-7.929-12.013-7.929c-5.214,0-7.704,2.72-12.012,7.929c-4.633,5.607-10.397,12.581-21.893,12.581
		c-11.489,0-17.25-6.978-21.881-12.583c-4.303-5.206-6.79-7.926-11.998-7.926c-5.211,0-7.701,2.72-12.006,7.929
		c-4.63,5.607-10.394,12.581-21.885,12.581c-11.49,0-17.253-6.978-21.884-12.583c-4.301-5.206-6.79-7.926-11.997-7.926
		c-5.207,0-7.693,2.72-11.993,7.926c-4.63,5.606-10.39,12.583-21.879,12.583c-11.488,0-17.252-6.978-21.881-12.583
		c-4.303-5.206-6.79-7.926-12-7.926c-3.539,0-6.409-2.868-6.409-6.41c0-3.54,2.869-6.41,6.409-6.41
		c11.489,0,17.252,6.978,21.882,12.584c4.304,5.207,6.791,7.926,11.999,7.926c5.208,0,7.694-2.72,11.994-7.926
		c4.629-5.606,10.391-12.584,21.878-12.584c11.488,0,17.251,6.978,21.881,12.584c4.303,5.207,6.79,7.926,12,7.926
		c5.21,0,7.701-2.72,12.005-7.929c4.631-5.607,10.395-12.581,21.886-12.581c11.489,0,17.252,6.978,21.882,12.584
		c4.302,5.207,6.791,7.926,11.997,7.926c5.216,0,7.706-2.72,12.013-7.929c4.631-5.607,10.397-12.581,21.891-12.581
		c11.493,0,17.26,6.975,21.893,12.581c4.307,5.21,6.796,7.929,12.01,7.929c3.54,0,6.41,2.869,6.41,6.409
		C370.014,389.534,367.145,392.402,363.605,392.402z M363.605,339.718c-11.493,0-17.259-6.978-21.89-12.583
		c-4.308-5.21-6.797-7.927-12.013-7.927c-5.214,0-7.704,2.717-12.012,7.927c-4.633,5.606-10.397,12.583-21.893,12.583
		c-11.489,0-17.25-6.98-21.881-12.583c-4.303-5.21-6.79-7.927-11.998-7.927c-5.211,0-7.701,2.717-12.006,7.927
		c-4.63,5.606-10.394,12.583-21.885,12.583c-11.49,0-17.253-6.98-21.884-12.583c-4.301-5.21-6.79-7.927-11.997-7.927
		c-5.207,0-7.693,2.717-11.993,7.927c-4.63,5.604-10.39,12.583-21.879,12.583c-11.488,0-17.252-6.98-21.881-12.583
		c-4.303-5.21-6.79-7.927-12-7.927c-3.539,0-6.409-2.871-6.409-6.409c0-3.541,2.869-6.41,6.409-6.41
		c11.489,0,17.252,6.977,21.882,12.583c4.304,5.207,6.791,7.927,11.999,7.927c5.208,0,7.694-2.72,11.994-7.927
		c4.629-5.606,10.391-12.583,21.878-12.583c11.488,0,17.251,6.977,21.881,12.583c4.303,5.207,6.79,7.927,12,7.927
		c5.21,0,7.701-2.72,12.005-7.93c4.631-5.606,10.395-12.58,21.886-12.58c11.489,0,17.252,6.977,21.882,12.583
		c4.302,5.207,6.791,7.927,11.997,7.927c5.216,0,7.706-2.72,12.013-7.93c4.631-5.606,10.397-12.58,21.891-12.58
		c11.493,0,17.26,6.974,21.893,12.58c4.307,5.21,6.796,7.93,12.01,7.93c3.54,0,6.41,2.868,6.41,6.41
		C370.014,336.846,367.145,339.718,363.605,339.718z"/>
</g>
<g>
</g>
<g>
</g>
<g>
</g>
<g>
</g>
<g>
</g>
<g>
</g>
<g>
</g>
<g>
</g>
<g>
</g>
<g>
</g>
<g>
</g>
<g>
</g>
<g>
</g>
<g>
</g>
<g>
</g>
</svg>
