<?xml version="1.0" encoding="iso-8859-1"?>
<!-- Generator: Adobe Illustrator 16.0.0, SVG Export Plug-In . SVG Version: 6.00 Build 0)  -->
<!DOCTYPE svg PUBLIC "-//W3C//DTD SVG 1.1//EN" "http://www.w3.org/Graphics/SVG/1.1/DTD/svg11.dtd">
<svg version="1.1" id="Layer_1" xmlns="http://www.w3.org/2000/svg" xmlns:xlink="http://www.w3.org/1999/xlink" x="0px" y="0px"
	 width="26.195px" height="32.236px" viewBox="0 0 26.195 32.236" style="enable-background:new 0 0 26.195 32.236;"
	 xml:space="preserve">
<g>
	<path d="M4.393,10.79l2.146,0.369c-0.163-0.531-0.271-1.088-0.316-1.663l1.995,0.287v1.219h5.234V10.14h0.924v0.862h5.234V9.814
		l1.665-0.258c-0.017,0.404-0.069,0.832-0.148,1.264l1.658-0.312C22.432,6.045,20.723,0,13.624,0c-1.008,0-2.183,0.124-2.693,0.354
		c-0.512,0.229-0.604,0.752-0.934,0.863C9.653,1.333,9.165,1.286,8.862,1.433C4.135,3.71,4.3,9.261,4.3,9.261L4.393,10.79z
		 M12.871,10.42H8.799V8.347h4.072V10.42z M19.027,10.42h-4.07V8.347h4.07V10.42z M6.25,8.166c2.104-0.143,4.48-1.8,4.665-4.108
		c2.663,2.205,6.436,2.313,9.581,2.594c0.392,0.184,0.679,0.975,0.76,2.023L19.609,8.93V7.766h-5.234v1.211h-0.924V7.766H8.217
		v1.135L6.196,8.61C6.215,8.463,6.234,8.316,6.25,8.166z"/>
	<path d="M26.195,21.347c0-1.088-0.437-2.038-1.09-2.581v-7.775l-11.862,1.89L1.377,10.991v7.57C0.566,19.042,0,20.105,0,21.347
		s0.566,2.306,1.377,2.787v6.212l11.866,1.891l11.862-1.89v-6.418C25.759,23.385,26.195,22.435,26.195,21.347z M12.704,31.061
		l-10.25-1.633v-5.033c1.235-0.081,2.221-1.408,2.221-3.048c0-1.639-0.985-2.967-2.221-3.048v-6.046l10.25,1.634V31.061z
		 M24.03,29.428l-10.249,1.633V13.887l10.249-1.634v2.166v3.888c-0.059-0.006-0.113-0.022-0.172-0.022
		c-1.292,0-2.338,1.372-2.338,3.063c0,1.691,1.046,3.063,2.338,3.063c0.059,0,0.113-0.017,0.172-0.023V29.428z"/>
</g>
<g>
</g>
<g>
</g>
<g>
</g>
<g>
</g>
<g>
</g>
<g>
</g>
<g>
</g>
<g>
</g>
<g>
</g>
<g>
</g>
<g>
</g>
<g>
</g>
<g>
</g>
<g>
</g>
<g>
</g>
</svg>
