<?xml version="1.0" encoding="iso-8859-1"?>
<!-- Generator: Adobe Illustrator 19.0.0, SVG Export Plug-In . SVG Version: 6.00 Build 0)  -->
<svg version="1.1" id="Capa_1" xmlns="http://www.w3.org/2000/svg" xmlns:xlink="http://www.w3.org/1999/xlink" x="0px" y="0px"
	 viewBox="0 0 463 463" style="enable-background:new 0 0 463 463;" xml:space="preserve">
<g>
	<path d="M39.5,337c-7.995,0-14.5,6.505-14.5,14.5S31.505,366,39.5,366S54,359.495,54,351.5S47.495,337,39.5,337z"/>
	<path d="M279.5,337c-7.995,0-14.5,6.505-14.5,14.5s6.505,14.5,14.5,14.5s14.5-6.505,14.5-14.5S287.495,337,279.5,337z"/>
	<path d="M455.5,104h-96c-4.142,0-7.5,3.357-7.5,7.5V280h-17V135.5c0-4.143-3.358-7.5-7.5-7.5s-7.5,3.357-7.5,7.5V200h-17v-64.5
		c0-4.143-3.358-7.5-7.5-7.5s-7.5,3.357-7.5,7.5v144.525c-0.166-0.011-0.331-0.025-0.5-0.025h-26.271l-41.67-152.788
		C215.832,113.545,203.335,104,189.169,104H143V91.5c0-10.752-8.748-19.5-19.5-19.5S104,80.748,104,91.5V104h-0.5h-32
		C54.131,104,40,118.131,40,135.5V272H23.5c-4.142,0-7.5,3.357-7.5,7.5v40c0,0.089,0.01,0.175,0.013,0.264
		C6.305,326.967,0,338.51,0,351.5C0,373.28,17.72,391,39.5,391c16.281,0,30.29-9.903,36.328-24h167.344
		c6.038,14.097,20.047,24,36.328,24c21.78,0,39.5-17.72,39.5-39.5c0-12.99-6.305-24.533-16.013-31.736
		c0.003-0.088,0.013-0.175,0.013-0.264V263h17v24.5c0,4.143,3.358,7.5,7.5,7.5h128c4.142,0,7.5-3.357,7.5-7.5v-176
		C463,107.357,459.642,104,455.5,104z M400,119v16.5c0,4.143,3.358,7.5,7.5,7.5s7.5-3.357,7.5-7.5V119h33v73h-81v-73H400z M119,91.5
		c0-2.481,2.019-4.5,4.5-4.5s4.5,2.019,4.5,4.5V104h-9V91.5z M103.5,119h85.669c7.42,0,13.966,5,15.918,12.159l42.032,154.115
		L220.394,312H183v-36.5c0-10.752-8.748-19.5-19.5-19.5H119v-72.5c0-12.958-10.542-23.5-23.5-23.5c-2.997,0-5.862,0.57-8.5,1.597
		V127.5c0-4.687,3.813-8.5,8.5-8.5H103.5z M161.271,312L87,274.865V183.5c0-4.687,3.813-8.5,8.5-8.5s8.5,3.813,8.5,8.5v80
		c0,4.143,3.358,7.5,7.5,7.5h52c2.481,0,4.5,2.019,4.5,4.5V312H161.271z M55,135.5c0-9.099,7.402-16.5,16.5-16.5h2.097
		C72.57,121.638,72,124.503,72,127.5v56V272H55V135.5z M39.5,376C25.991,376,15,365.01,15,351.5S25.991,327,39.5,327
		S64,337.99,64,351.5S53.009,376,39.5,376z M279.5,376c-13.509,0-24.5-10.99-24.5-24.5s10.991-24.5,24.5-24.5s24.5,10.99,24.5,24.5
		S293.009,376,279.5,376z M279.5,312c-21.78,0-39.5,17.72-39.5,39.5c0,0.168,0.011,0.333,0.013,0.5H78.987
		c0.002-0.167,0.013-0.332,0.013-0.5c0-21.78-17.72-39.5-39.5-39.5c-2.918,0-5.76,0.328-8.5,0.931V287h46.729l78.417,39.208
		c1.042,0.521,2.189,0.792,3.354,0.792h64c1.989,0,3.897-0.79,5.303-2.196L258.607,295H287.5c0.169,0,0.334-0.014,0.5-0.025v17.956
		C285.26,312.328,282.418,312,279.5,312z M303,248v-33h17v33H303z M367,280v-73h33v16.5c0,4.143,3.358,7.5,7.5,7.5
		s7.5-3.357,7.5-7.5V207h33v73H367z"/>
</g>
<g>
</g>
<g>
</g>
<g>
</g>
<g>
</g>
<g>
</g>
<g>
</g>
<g>
</g>
<g>
</g>
<g>
</g>
<g>
</g>
<g>
</g>
<g>
</g>
<g>
</g>
<g>
</g>
<g>
</g>
</svg>
