<?xml version="1.0" encoding="iso-8859-1"?>
<!-- Generator: Adobe Illustrator 18.0.0, SVG Export Plug-In . SVG Version: 6.00 Build 0)  -->
<!DOCTYPE svg PUBLIC "-//W3C//DTD SVG 1.1//EN" "http://www.w3.org/Graphics/SVG/1.1/DTD/svg11.dtd">
<svg version="1.1" id="Capa_1" xmlns="http://www.w3.org/2000/svg" xmlns:xlink="http://www.w3.org/1999/xlink" x="0px" y="0px"
	 viewBox="0 0 49 49" style="enable-background:new 0 0 49 49;" xml:space="preserve">
<g>
	<path d="M33,32.5h-4h-4h-4h-5c-0.553,0-1,0.447-1,1s0.447,1,1,1h4v5c0,0.553,0.447,1,1,1h4c0.553,0,1-0.447,1-1v-1h3
		c0.553,0,1-0.447,1-1v-3h3c0.553,0,1-0.447,1-1S33.553,32.5,33,32.5z M24,38.5h-2v-4h2v3V38.5z M28,36.5h-2v-2h2V36.5z"/>
	<path d="M45.888,19.813c-1.73-8.632-8.228-15.014-16.6-16.795c-0.041-0.012-0.08-0.019-0.122-0.026
		c-1.052-0.218-2.131-0.365-3.236-0.432c-0.012,0.001-0.022-0.004-0.033-0.003c-0.002,0-0.003,0.001-0.005,0.001
		C25.43,2.531,24.969,2.5,24.5,2.5c-0.49,0-0.97,0.031-1.451,0.061C23.032,2.56,23.017,2.551,23,2.551
		c-0.026,0-0.048,0.013-0.074,0.015C13.031,3.23,5.058,10.104,3.112,19.813C1.306,20.792,0,22.922,0,25
		c0,2.153,1.269,4.089,3.208,4.979C5.704,39.733,14.386,46.5,24.5,46.5c10.115,0,18.797-6.767,21.292-16.521
		C47.732,29.089,49,27.153,49,25C49,22.922,47.694,20.792,45.888,19.813z M21.923,4.675C21.343,9.309,17.344,12.5,16,12.5
		c-0.553,0-1,0.447-1,1s0.447,1,1,1c2.845,0,7.442-4.56,7.949-9.977C24.134,4.519,24.314,4.5,24.5,4.5c0.2,0,0.395,0.02,0.594,0.025
		c0.519,5.27,0.206,6.043-2.825,9.293c-0.377,0.403-0.354,1.036,0.05,1.413C22.511,15.411,22.756,15.5,23,15.5
		c0.268,0,0.534-0.106,0.731-0.318c3.506-3.759,3.889-5.165,3.386-10.502c0.416,0.052,0.831,0.107,1.239,0.183
		c1.969,3.409,1.785,5.238,0.761,7.168c-0.26,0.487-0.074,1.093,0.414,1.352c0.149,0.08,0.31,0.117,0.468,0.117
		c0.358,0,0.705-0.192,0.884-0.531c1.287-2.423,1.322-4.643,0.065-7.436c5.557,1.825,9.967,5.976,12.061,11.501l-5.305,4.547
		c-0.777-2.366-3.004-4.081-5.627-4.081c-2.264,0-4.234,1.278-5.231,3.149c-0.636-0.539-1.448-0.876-2.345-0.876
		s-1.709,0.338-2.345,0.876c-0.997-1.871-2.967-3.149-5.231-3.149c-2.623,0-4.85,1.715-5.627,4.081l-5.305-4.547
		C8.552,10.278,14.575,5.575,21.923,4.675z M36,23.424c0,2.164-1.76,3.925-3.924,3.925s-3.925-1.761-3.925-3.925
		s1.761-3.924,3.925-3.924S36,21.26,36,23.424z M20.849,23.424c0,2.164-1.761,3.925-3.925,3.925S13,25.588,13,23.424
		s1.76-3.924,3.924-3.924S20.849,21.26,20.849,23.424z M44.62,28.296c-0.327,0.111-0.574,0.384-0.652,0.721
		C41.86,38.133,33.855,44.5,24.5,44.5c-9.354,0-17.359-6.367-19.468-15.483c-0.078-0.337-0.325-0.609-0.652-0.721
		C2.956,27.812,2,26.486,2,25c0-1.449,1.063-3.051,2.369-3.571c0.322-0.128,0.556-0.413,0.615-0.755
		c0.094-0.534,0.216-1.056,0.349-1.572l5.695,4.881c0.283,3.005,2.818,5.365,5.896,5.365c3.267,0,5.925-2.658,5.925-5.925
		c0-0.91,0.741-1.651,1.651-1.651s1.651,0.741,1.651,1.651c0,3.267,2.658,5.925,5.925,5.925c3.078,0,5.612-2.36,5.896-5.365
		l5.695-4.881c0.134,0.516,0.255,1.038,0.349,1.572c0.06,0.342,0.293,0.627,0.615,0.755C45.937,21.949,47,23.551,47,25
		C47,26.486,46.044,27.812,44.62,28.296z"/>
</g>
<g>
</g>
<g>
</g>
<g>
</g>
<g>
</g>
<g>
</g>
<g>
</g>
<g>
</g>
<g>
</g>
<g>
</g>
<g>
</g>
<g>
</g>
<g>
</g>
<g>
</g>
<g>
</g>
<g>
</g>
</svg>
