<?xml version="1.0" encoding="iso-8859-1"?>
<!-- Generator: Adobe Illustrator 18.1.1, SVG Export Plug-In . SVG Version: 6.00 Build 0)  -->
<svg version="1.1" id="Capa_1" xmlns="http://www.w3.org/2000/svg" xmlns:xlink="http://www.w3.org/1999/xlink" x="0px" y="0px"
	 viewBox="0 0 38.309 38.309" style="enable-background:new 0 0 38.309 38.309;" xml:space="preserve">
<g>
	<g>
		<path style="fill:#010002;" d="M22.539,24.107c-1.712,0.163-3.564-1.934-5.5-1.934c-2.071,0-4.048,2.083-5.859,1.897
			c-4.958-0.507-8.674-1.639-9.671-3.014c0.284,2.044,0.798,3.977,1.487,5.768c0.177,0.178,0.353,0.353,0.537,0.536
			c0.514,0.569,1.192,1.023,1.805,1.58c0.689,0.466,1.367,0.994,2.14,1.4c0.736,0.469,1.559,0.801,2.359,1.174
			c0.833,0.292,1.653,0.632,2.507,0.812c0.837,0.248,1.69,0.347,2.509,0.496c0.828,0.031,1.63,0.18,2.395,0.135
			c0.383-0.004,0.756-0.006,1.117-0.01c0.359-0.037,0.706-0.076,1.039-0.111c0.671-0.053,1.273-0.176,1.814-0.278
			c0.271-0.05,0.523-0.099,0.758-0.142c0.229-0.066,0.438-0.127,0.628-0.183c0.767-0.212,1.206-0.333,1.206-0.333
			s-0.415,0.188-1.143,0.518c-0.184,0.08-0.388,0.168-0.609,0.264c-0.23,0.072-0.479,0.152-0.745,0.236
			c-0.532,0.175-1.136,0.38-1.821,0.475c-0.341,0.062-0.695,0.128-1.062,0.195c-0.373,0.031-0.758,0.063-1.154,0.098
			c-0.794,0.105-1.636,0.028-2.508,0.014c-0.86-0.129-1.769-0.177-2.652-0.436c-0.902-0.18-1.772-0.521-2.654-0.824
			c-0.841-0.402-1.702-0.766-2.472-1.27c-0.811-0.434-1.495-1.033-2.199-1.545c-0.322-0.303-0.648-0.592-0.957-0.883
			c2.821,5.754,7.673,9.567,13.206,9.567c7.74,0,14.169-7.438,15.53-17.253C31.548,22.466,27.675,23.618,22.539,24.107z"/>
		<path style="fill:#010002;" d="M22.396,21.582c1.971-0.377,1.928-0.82,1.911-0.989c-0.048-0.451-0.689-0.451-0.997-0.451
			c-0.325,0-0.712,0.031-1.12,0.089c-0.353,0.051-1.528,0.245-1.835,0.665c-0.076,0.106-0.107,0.229-0.088,0.349
			c0.076,0.461,0.73,0.461,0.977,0.461C21.572,21.707,21.982,21.662,22.396,21.582z"/>
		<path style="fill:#010002;" d="M12.126,21.72c0.219,0,0.883,0,0.962-0.461c0.021-0.119-0.01-0.244-0.086-0.351
			c-0.296-0.414-1.387-0.615-1.714-0.666c-0.376-0.06-0.735-0.091-1.039-0.091c-0.274,0-0.918,0-0.979,0.453
			c-0.057,0.425,0.547,0.761,1.792,1.002C11.446,21.681,11.814,21.72,12.126,21.72z"/>
		<path style="fill:#010002;" d="M37.067,6.538c0,0-0.106-0.238-0.369-0.596c-0.13-0.182-0.301-0.39-0.513-0.62
			c-0.208-0.241-0.471-0.466-0.784-0.654c-0.31-0.202-0.661-0.403-1.045-0.592c-0.382-0.198-0.817-0.269-1.267-0.364
			c-0.141-0.021-0.285-0.032-0.43-0.046c0.322-0.124,0.635-0.245,0.922-0.386c0.309-0.132,0.598-0.264,0.857-0.395
			c0.259-0.143,0.492-0.238,0.686-0.35c0.389-0.209,0.621-0.379,0.621-0.379l0.008-0.005c0.015-0.011,0.028-0.025,0.039-0.042
			c0.051-0.076,0.03-0.179-0.047-0.229c0,0-0.231-0.154-0.658-0.335c-0.213-0.089-0.476-0.201-0.78-0.27
			c-0.304-0.069-0.654-0.147-1.036-0.192c-0.381-0.026-0.799-0.044-1.237-0.014c-0.435,0.048-0.899,0.1-1.354,0.257
			c-0.456,0.153-0.909,0.366-1.342,0.64c-0.443,0.243-0.861,0.561-1.291,0.828c-0.078,0.058-0.155,0.116-0.233,0.173
			c0.375,0.337,0.733,0.695,1.081,1.069c0.174,0.192,0.345,0.388,0.514,0.588c0.383,0.452,0.74,0.928,1.078,1.423
			c0.336,0.062,0.672,0.131,0.994,0.206c0.391,0.07,0.752,0.218,1.111,0.294c0.356,0.077,0.726,0.069,1.059,0.117
			c0.332,0.051,0.659,0.076,0.975,0.082c0.157,0.007,0.314,0.001,0.465-0.004c0.145,0.009,0.272,0.04,0.408,0.041
			c0.262,0.018,0.506,0.027,0.717,0.023c0.42-0.002,0.703-0.036,0.703-0.036l0.02-0.002c0.016-0.002,0.031-0.006,0.047-0.013
			C37.067,6.718,37.104,6.621,37.067,6.538z"/>
		<path style="fill:#010002;" d="M29.38,7.575c-0.736-0.469-1.56-0.801-2.359-1.174c-0.833-0.292-1.653-0.632-2.508-0.811
			c-0.836-0.248-1.689-0.347-2.508-0.497c-0.828-0.031-1.631-0.179-2.396-0.134c-0.383,0.003-0.756,0.006-1.117,0.009
			c-0.358,0.038-0.706,0.076-1.039,0.111c-0.671,0.053-1.274,0.177-1.814,0.279c-0.271,0.05-0.524,0.098-0.758,0.141
			c-0.228,0.067-0.438,0.128-0.628,0.183c-0.767,0.212-1.206,0.333-1.206,0.333s0.415-0.188,1.142-0.517
			c0.184-0.079,0.388-0.167,0.61-0.263c0.23-0.073,0.479-0.153,0.745-0.237c0.532-0.174,1.135-0.379,1.821-0.474
			c0.341-0.063,0.696-0.128,1.063-0.195c0.373-0.032,0.758-0.064,1.154-0.098c0.793-0.105,1.635-0.028,2.508-0.013
			c0.859,0.128,1.769,0.176,2.651,0.435c0.902,0.18,1.772,0.522,2.654,0.824c0.555,0.266,1.108,0.53,1.649,0.813
			c-0.187-0.248-0.362-0.507-0.562-0.743c-0.169-0.2-0.339-0.396-0.516-0.586c-0.346-0.374-0.705-0.731-1.082-1.069
			C24.182,1.462,20.763,0,17.035,0C8.305,0,1.228,7.969,1.228,17.8c0,0.751,0.055,1.486,0.135,2.213
			c0.973-1.683,7.612-2.985,15.675-2.985s14.703,1.302,15.672,2.983c0.08-0.727,0.135-1.462,0.135-2.213
			c0-3.564-0.941-6.875-2.545-9.656C30.004,7.943,29.705,7.745,29.38,7.575z"/>
	</g>
</g>
<g>
</g>
<g>
</g>
<g>
</g>
<g>
</g>
<g>
</g>
<g>
</g>
<g>
</g>
<g>
</g>
<g>
</g>
<g>
</g>
<g>
</g>
<g>
</g>
<g>
</g>
<g>
</g>
<g>
</g>
</svg>
