<?xml version="1.0" encoding="iso-8859-1"?>
<!-- Generator: Adobe Illustrator 17.0.0, SVG Export Plug-In . SVG Version: 6.00 Build 0)  -->
<!DOCTYPE svg PUBLIC "-//W3C//DTD SVG 1.1//EN" "http://www.w3.org/Graphics/SVG/1.1/DTD/svg11.dtd">
<svg version="1.1" id="Capa_1" xmlns="http://www.w3.org/2000/svg" xmlns:xlink="http://www.w3.org/1999/xlink" x="0px" y="0px"
	 width="64px" height="64px" viewBox="0 0 64 64" style="enable-background:new 0 0 64 64;" xml:space="preserve">
<path d="M48.666,9.19c-2.678-3.273-7.404-3.867-10.805-1.465c0,0,0.26,0.924,0.553,1.594c0.016,0.039,0.037,0.055,0.055,0.082
	c0.748,1.803,1.926,3.789,3.512,5.729c1.865,2.277,3.918,4.059,5.77,5.135C50.975,17.433,51.404,12.538,48.666,9.19z M48.545,14.88
	c0.152-0.207,0.459-0.242,0.68-0.078c0.225,0.164,0.102,0.695,0.09,0.709c-0.012,0.029-0.02,0.062-0.041,0.09
	c-0.145,0.197-0.434,0.231-0.645,0.074C48.441,15.538,48.494,14.95,48.545,14.88z M49.291,18.171
	c-0.168,0.223-0.418,0.316-0.557,0.209c-0.076-0.057-0.059-0.557,0.047-0.695c0.168-0.223,0.418-0.315,0.558-0.209
	C49.416,17.532,49.394,18.032,49.291,18.171z M50.135,14.481c-0.146,0.119-0.395,0.059-0.555-0.139
	c-0.088-0.106-0.133-0.6-0.041-0.674c0.146-0.119,0.395-0.058,0.555,0.139C50.18,13.911,50.227,14.405,50.135,14.481z
	 M49.187,11.349c0.115-0.094,0.348-0.004,0.518,0.203c0.092,0.111,0.197,0.59,0.123,0.65c-0.117,0.094-0.35,0.006-0.518-0.203
	C49.217,11.886,49.115,11.409,49.187,11.349z M49.117,12.958c-0.164,0.135-0.443,0.066-0.621-0.152
	c-0.096-0.117-0.147-0.672-0.043-0.758c0.166-0.135,0.445-0.067,0.623,0.152C49.174,12.319,49.221,12.874,49.117,12.958z
	 M47.975,9.347c0.106-0.086,0.348,0.033,0.541,0.27c0.104,0.127,0.262,0.639,0.195,0.693c-0.104,0.084-0.344-0.035-0.539-0.271
	C48.068,9.909,47.908,9.399,47.975,9.347z M47.781,10.343c0.105,0.127,0.166,0.719,0.057,0.809c-0.172,0.141-0.467,0.062-0.66-0.172
	c-0.104-0.129-0.164-0.721-0.059-0.809C47.293,10.028,47.588,10.106,47.781,10.343z M46.447,11.294c0.105,0.127,0.125,0.752,0,0.856
	c-0.195,0.16-0.516,0.102-0.709-0.135c-0.104-0.127-0.125-0.75,0-0.851C45.937,10.999,46.254,11.058,46.447,11.294z M44.117,6.784
	c0.156-0.127,0.4-0.086,0.545,0.094c0.147,0.178,0.141,0.426-0.016,0.553c-0.154,0.125-0.398,0.082-0.543-0.096
	C43.957,7.157,43.963,6.909,44.117,6.784z M40.105,7.554c-0.137,0.111-0.289,0.158-0.412,0.148c-0.117,0.02-0.223,0-0.281-0.072
	c-0.111-0.137-0.027-0.391,0.186-0.566c0.137-0.111,0.289-0.158,0.412-0.148c0.117-0.019,0.223,0.002,0.283,0.074
	C40.404,7.126,40.32,7.378,40.105,7.554z M41.519,9.087c-0.217,0.176-0.535,0.147-0.711-0.068c-0.109-0.135-0.018-0.74,0.1-0.836
	c0.217-0.178,0.535-0.148,0.713,0.066C41.728,8.384,41.639,8.989,41.519,9.087z M41.84,7.017c-0.24,0.029-0.463-0.078-0.494-0.238
	c-0.033-0.158,0.135-0.312,0.375-0.342c0.242-0.029,0.463,0.076,0.496,0.236C42.252,6.833,42.082,6.987,41.84,7.017z M42.934,11.38
	c-0.217,0.178-0.547,0.129-0.74-0.107c-0.104-0.127-0.102-0.771,0.031-0.881c0.217-0.178,0.549-0.129,0.74,0.109
	C43.07,10.628,43.066,11.271,42.934,11.38z M43.172,7.931c-0.191,0.207-0.482,0.246-0.648,0.092
	c-0.105-0.098-0.039-0.66,0.064-0.772c0.191-0.203,0.481-0.246,0.648-0.09C43.34,7.259,43.275,7.819,43.172,7.931z M44.652,13.7
	c-0.23,0.186-0.58,0.133-0.785-0.117c-0.111-0.135-0.109-0.82,0.033-0.936c0.227-0.186,0.58-0.135,0.783,0.117
	C44.795,12.899,44.795,13.583,44.652,13.7z M44.738,10.056c-0.197,0.162-0.52,0.103-0.709-0.135c-0.105-0.127-0.127-0.748,0-0.852
	c0.197-0.162,0.514-0.105,0.709,0.133C44.844,9.329,44.861,9.954,44.738,10.056z M45.375,8.071c0.162-0.137,0.441-0.068,0.621,0.152
	c0.098,0.117,0.144,0.672,0.043,0.756c-0.166,0.135-0.445,0.066-0.623-0.152C45.318,8.708,45.271,8.155,45.375,8.071z
	 M46.451,15.435c-0.215,0.176-0.547,0.127-0.738-0.108c-0.104-0.129-0.102-0.771,0.033-0.883c0.213-0.176,0.545-0.127,0.738,0.109
	C46.588,14.681,46.586,15.323,46.451,15.435z M46.605,8.376c-0.08-0.111-0.141-0.58-0.062-0.635c0.123-0.088,0.344,0.012,0.49,0.221
	c0.08,0.113,0.139,0.58,0.062,0.635C46.971,8.683,46.752,8.585,46.605,8.376z M47.152,13.102c0.199-0.164,0.518-0.104,0.711,0.131
	c0.104,0.127,0.123,0.752-0.002,0.855c-0.197,0.162-0.516,0.102-0.709-0.133C47.047,13.827,47.029,13.204,47.152,13.102z
	 M47.324,17.21c-0.096-0.115-0.068-0.729,0.068-0.84c0.215-0.174,0.531-0.141,0.709,0.076c0.096,0.115,0.068,0.729-0.066,0.84
	C47.82,17.462,47.502,17.427,47.324,17.21z"/>
<path d="M46.662,21.071c-1.812-1.086-3.803-2.828-5.613-5.045c-2.131-2.598-3.574-5.311-4.15-7.506
	c-1.535,1.488-2.351,3.471-2.418,5.486c0.607,1.637,1.553,3.318,2.848,4.893c1.035,1.262,2.184,2.314,3.363,3.156
	c0.199,0.045,0.4,0.077,0.602,0.106c0.02,0.013,0.039,0.029,0.058,0.042l0.035-0.025C43.177,22.422,45.046,22.068,46.662,21.071z"/>
<path d="M22.519,55.835c0,1.889,4.397,3.42,9.82,3.42c5.422,0,9.818-1.531,9.818-3.42c0-1.76-3.822-3.207-8.73-3.396V28.792
	l2.447-1.99c0.207-0.167,0.263-0.472,0.196-0.818l3.665-2.624c-1.268-0.869-2.506-1.992-3.615-3.344
	c-1.387-1.689-2.391-3.504-2.986-5.25l-3.72,3.397c-0.18-0.014-0.348,0.006-0.473,0.107l-4.711,3.828
	c-0.229,0.186-0.261,0.544-0.155,0.939l-2.323,2.121c-1.344,1.1-1.611,2.994-0.596,4.234l2.041,2.494
	c1.016,1.24,2.926,1.354,4.27,0.256l2.434-1.742c0.129,0.095,0.261,0.177,0.392,0.234v21.855
	C25.852,52.819,22.519,54.19,22.519,55.835z"/>
</svg>
