<?xml version="1.0" encoding="iso-8859-1"?>
<!-- Generator: Adobe Illustrator 16.0.0, SVG Export Plug-In . SVG Version: 6.00 Build 0)  -->
<!DOCTYPE svg PUBLIC "-//W3C//DTD SVG 1.1//EN" "http://www.w3.org/Graphics/SVG/1.1/DTD/svg11.dtd">
<svg version="1.1" id="Capa_1" xmlns="http://www.w3.org/2000/svg" xmlns:xlink="http://www.w3.org/1999/xlink" x="0px" y="0px"
	 width="29.711px" height="29.71px" viewBox="0 0 29.711 29.71" style="enable-background:new 0 0 29.711 29.71;"
	 xml:space="preserve">
<g>
	<g>
		<g>
			<path d="M10.161,10.518C6.794,6.764,2.466,5.399,2.394,5.383C1.328,5.152,0.276,5.828,0.045,6.894
				c-0.231,1.065,0.445,2.116,1.51,2.347c0,0,4.669,0.763,8.579,5.486c3.251,3.927,3.984,10.042,3.984,10.042l0.01,0.06
				c0.049,0.283,0.304,0.492,0.6,0.479c0.317-0.018,0.563-0.289,0.548-0.606C15.276,24.699,15.411,16.074,10.161,10.518z"/>
			<path d="M17.606,18.373c0,0-0.429-4.019,3.179-7.631c2.94-2.946,7.369-3.315,7.465-3.341c1.055-0.285,1.676-1.37,1.393-2.423
				c-0.284-1.054-1.37-1.676-2.425-1.391c0,0-2.638,0.885-4.353,1.899c-7.588,4.489-6.383,12.846-6.383,12.846
				c0.011,0.272,0.219,0.505,0.499,0.538C17.291,18.905,17.57,18.684,17.606,18.373z"/>
			<path d="M20.646,20.259c3.897-4.53,7.34-5.054,7.393-5.075c0.751-0.32,1.102-1.19,0.78-1.942c-0.32-0.751-1.189-1.101-1.941-0.78
				c0,0-2.5,0.878-5.063,3.371c-5.254,4.83-4.456,11.583-4.456,11.583c0.004,0.226,0.176,0.415,0.403,0.438
				c0.247,0.023,0.469-0.155,0.491-0.402C18.25,27.45,18.484,22.768,20.646,20.259z"/>
			<path d="M7.991,3.251l0.013,0.003c0,0,1.627,0.125,3.636,2.673c2.242,2.844,2.684,7.216,2.684,7.216
				c0.033,0.18,0.193,0.313,0.381,0.309c0.209-0.005,0.375-0.179,0.37-0.388c0,0,0.396-5.188-2.375-9.391
				c-1.75-2.654-4.055-3.314-4.137-3.331C7.759,0.185,6.98,0.707,6.821,1.511C6.665,2.314,7.188,3.094,7.991,3.251z"/>
			<path d="M7.555,21.289c-2.6-1.086-4.886-0.97-4.97-0.957c-0.809,0.124-1.365,0.88-1.242,1.689c0.124,0.811,0.88,1.366,1.69,1.243
				c0,0,2.534-0.48,4.92,0.407c3.463,1.291,4.593,5.537,4.593,5.537c0.037,0.127,0.162,0.215,0.298,0.199
				c0.153-0.018,0.263-0.155,0.247-0.309C13.089,29.1,13.31,23.816,7.555,21.289z"/>
			<path d="M27.709,22.17l-0.025-0.002c0,0-1.203-0.438-3.704,0.638c-3.671,1.574-3.838,5.927-3.838,5.927
				c-0.022,0.122,0.038,0.249,0.155,0.304c0.141,0.063,0.305,0.004,0.368-0.136c0,0,0.792-2.822,3.371-3.836
				c1.57-0.617,3.243,0.061,3.37,0.072c0.818,0.084,1.551-0.513,1.634-1.331C29.123,22.986,28.527,22.254,27.709,22.17z"/>
			<path d="M17.15,4.053c0.021,0.083,0.087,0.146,0.169,0.167c0.083,0.02,0.17-0.006,0.228-0.069l0.842-0.917l1.202-0.319
				c0.083-0.022,0.146-0.087,0.167-0.169c0.021-0.083-0.006-0.169-0.067-0.228l-0.917-0.84l-0.319-1.203
				c-0.021-0.082-0.087-0.146-0.169-0.167c-0.083-0.02-0.17,0.006-0.229,0.069l-0.843,0.917l-1.202,0.319
				C15.93,1.635,15.866,1.7,15.846,1.782c-0.021,0.083,0.007,0.17,0.067,0.228l0.917,0.841L17.15,4.053z"/>
			<path d="M5.027,18.668c0.022,0.083,0.087,0.146,0.169,0.167c0.083,0.021,0.169-0.006,0.227-0.068l0.841-0.917l1.203-0.317
				c0.082-0.021,0.146-0.088,0.166-0.169c0.021-0.084-0.006-0.17-0.068-0.229l-0.917-0.842L6.33,15.091
				c-0.022-0.082-0.087-0.146-0.169-0.166c-0.083-0.021-0.17,0.005-0.228,0.067l-0.841,0.918l-1.203,0.318
				c-0.083,0.021-0.146,0.087-0.167,0.169c-0.02,0.083,0.006,0.17,0.069,0.229l0.917,0.841L5.027,18.668z"/>
			<path d="M23.231,10.263c-0.022-0.083-0.088-0.146-0.17-0.167c-0.082-0.02-0.169,0.006-0.228,0.069l-0.841,0.917l-1.203,0.319
				c-0.082,0.022-0.146,0.087-0.166,0.169c-0.021,0.083,0.006,0.17,0.068,0.228l0.918,0.84l0.317,1.203
				c0.021,0.082,0.087,0.146,0.169,0.166c0.083,0.021,0.17-0.005,0.229-0.068l0.841-0.917l1.203-0.319
				c0.082-0.022,0.146-0.087,0.166-0.169c0.021-0.083-0.006-0.17-0.069-0.228l-0.917-0.841L23.231,10.263z"/>
			<path d="M28.539,18.494l-0.318-1.203c-0.021-0.082-0.088-0.146-0.17-0.166c-0.083-0.021-0.169,0.006-0.227,0.068l-0.841,0.917
				l-1.203,0.318c-0.082,0.021-0.146,0.087-0.166,0.169c-0.021,0.082,0.006,0.169,0.068,0.228l0.917,0.841l0.317,1.203
				c0.022,0.083,0.087,0.146,0.169,0.167c0.083,0.021,0.169-0.007,0.229-0.067l0.841-0.918l1.203-0.318
				c0.082-0.021,0.146-0.087,0.166-0.169c0.021-0.083-0.007-0.169-0.069-0.228L28.539,18.494z"/>
			<path d="M1.979,3.392l0.319,1.203c0.022,0.082,0.087,0.146,0.169,0.166c0.083,0.021,0.17-0.006,0.228-0.069l0.841-0.917
				l1.203-0.318c0.081-0.023,0.145-0.087,0.165-0.17S4.897,3.118,4.834,3.06L3.917,2.219L3.599,1.016
				C3.577,0.934,3.512,0.87,3.43,0.85c-0.083-0.02-0.17,0.006-0.227,0.069L2.36,1.836L1.159,2.155
				C1.077,2.177,1.012,2.242,0.992,2.324s0.007,0.17,0.069,0.227L1.979,3.392z"/>
		</g>
	</g>
</g>
<g>
</g>
<g>
</g>
<g>
</g>
<g>
</g>
<g>
</g>
<g>
</g>
<g>
</g>
<g>
</g>
<g>
</g>
<g>
</g>
<g>
</g>
<g>
</g>
<g>
</g>
<g>
</g>
<g>
</g>
</svg>
