<?xml version="1.0" encoding="iso-8859-1"?>
<!-- Generator: Adobe Illustrator 18.0.0, SVG Export Plug-In . SVG Version: 6.00 Build 0)  -->
<!DOCTYPE svg PUBLIC "-//W3C//DTD SVG 1.1//EN" "http://www.w3.org/Graphics/SVG/1.1/DTD/svg11.dtd">
<svg version="1.1" id="Capa_1" xmlns="http://www.w3.org/2000/svg" xmlns:xlink="http://www.w3.org/1999/xlink" x="0px" y="0px"
	 viewBox="0 0 295.996 295.996" style="enable-background:new 0 0 295.996 295.996;" xml:space="preserve">
<g>
	<path d="M147.998,0C66.392,0,0,66.392,0,147.998s66.392,147.998,147.998,147.998s147.998-66.392,147.998-147.998
		S229.605,0,147.998,0z M147.998,279.996c-36.256,0-69.143-14.696-93.022-38.44c-9.536-9.482-17.631-20.41-23.934-32.42
		C21.442,190.847,16,170.048,16,147.998C16,75.214,75.214,16,147.998,16c34.523,0,65.987,13.328,89.533,35.102
		c12.208,11.288,22.289,24.844,29.558,39.997c8.27,17.238,12.907,36.537,12.907,56.899
		C279.996,220.782,220.782,279.996,147.998,279.996z"/>
	<circle cx="98.497" cy="114.998" r="16"/>
	<circle cx="197.497" cy="114.998" r="16"/>
	<line x1="116.997" y1="162.997" x2="116.997" y2="162.997"/>
	<path d="M147.997,201.548c1.014,6.773,4.174,13.207,9.608,18.149c8.073,7.342,18.075,10.757,28.644,10.757
		c10.015,0,20.539-3.064,30.427-8.757c29.987-17.699,30.321-41.366,30.321-41.366s-6.305,3.564-15.345,3.564
		c-1.063,0-2.163-0.049-3.296-0.159c-7.424-0.722-16.209-5.793-23.68-11.108c-8.398-5.976-17.164-9.242-25.463-9.242
		c-7.854,0-15.289,2.923-21.608,9.242c-5.332,5.332-8.573,12.13-9.608,19.146c-1.035-7.017-4.276-13.814-9.608-19.146
		c-6.261-6.261-13.618-9.185-21.392-9.237c-0.072,0-0.145-0.005-0.217-0.005c-8.299,0-17.064,3.267-25.463,9.242
		c-7.471,5.315-16.256,10.387-23.68,11.108c-1.133,0.11-2.233,0.159-3.296,0.159c-9.04,0-15.345-3.564-15.345-3.564
		s0.334,23.667,30.321,41.366c9.888,5.692,20.412,8.757,30.427,8.757c10.568,0,20.57-3.415,28.644-10.757
		C143.823,214.755,146.983,208.321,147.997,201.548z"/>
</g>
<g>
</g>
<g>
</g>
<g>
</g>
<g>
</g>
<g>
</g>
<g>
</g>
<g>
</g>
<g>
</g>
<g>
</g>
<g>
</g>
<g>
</g>
<g>
</g>
<g>
</g>
<g>
</g>
<g>
</g>
</svg>
