<?xml version="1.0" encoding="iso-8859-1"?>
<!-- Generator: Adobe Illustrator 18.0.0, SVG Export Plug-In . SVG Version: 6.00 Build 0)  -->
<!DOCTYPE svg PUBLIC "-//W3C//DTD SVG 1.1//EN" "http://www.w3.org/Graphics/SVG/1.1/DTD/svg11.dtd">
<svg version="1.1" id="Capa_1" xmlns="http://www.w3.org/2000/svg" xmlns:xlink="http://www.w3.org/1999/xlink" x="0px" y="0px"
	 viewBox="0 0 106.756 106.823" style="enable-background:new 0 0 106.756 106.823;" xml:space="preserve">
<g>
	<path d="M17.451,74.247c2.196,0,4.298-0.409,6.235-1.152c0.449,2.003,0.855,4.169,1.213,6.49
		c1.125,7.293,1.366,13.517,1.368,13.579l0.026,0.697l0.379,0.586c1.834,2.837,4.344,5.251,7.46,7.175
		c2.462,1.52,5.31,2.739,8.465,3.624c5.351,1.501,9.908,1.577,10.767,1.577c0.066,0,0.088,0,0.153,0
		c0.859,0,5.416-0.076,10.767-1.576c3.155-0.885,6.003-2.104,8.465-3.624c3.117-1.924,5.627-4.338,7.461-7.176l0.379-0.586
		l0.025-0.697c0.002-0.062,0.239-6.24,1.36-13.527c0.357-2.323,0.763-4.492,1.211-6.497c1.905,0.716,3.967,1.108,6.119,1.108
		c9.623,0,17.451-7.829,17.451-17.451c0-7.136-4.305-13.284-10.454-15.986c0.934-5.731,0.45-11.039-1.447-15.542
		c-1.889-4.485-5.146-8.195-9.681-11.028c-4.414-2.757-10.101-4.702-16.93-5.792c0.129-0.583,0.234-0.967,0.236-0.974l1.059-3.84
		l-3.927,0.668c-2.281,0.388-4.022,1.287-5.29,2.227c0.292-0.832,0.632-1.606,0.91-2.146L63.507,0L58.62,0.707
		c-6.798,0.984-10.31,4.525-11.932,6.879c-9.218,0.563-16.814,2.346-22.594,5.305c-5.503,2.818-9.447,6.721-11.722,11.601
		c-2.172,4.66-2.777,10.221-1.8,16.266C4.36,43.434,0,49.615,0,56.796C0,66.418,7.829,74.247,17.451,74.247z M16.965,26.634
		c1.787-3.834,4.962-6.94,9.438-9.231c5.411-2.771,12.769-4.395,21.868-4.827l1.443-0.068l0.676-1.276
		c0.506-0.955,1.787-2.836,4.511-4.179c-0.231,1.04-0.365,2.131-0.291,3.157l0.162,2.251l2.254,0.099
		c0.286,0.013,0.741,0.025,1.224,0.039c0.641,0.018,1.44,0.041,1.777,0.062l1.312,0.083l0.824-1.024
		c0.136-0.169,0.313-0.368,0.533-0.58l-0.185,1.662l2.487,0.306c13.461,1.656,21.934,6.41,25.185,14.127
		c1.621,3.849,1.803,8.118,1.195,12.233c-0.251,1.7-0.637,3.374-1.112,4.981c-1.54,5.211-4.017,9.723-5.874,12.161
		c-1.611,2.115-3.028,4.963-4.242,8.516c-0.143,0.417-0.283,0.844-0.42,1.281c-0.053,0.17-0.107,0.34-0.16,0.513
		c-0.348,1.147-0.677,2.36-0.988,3.636c-0.614,2.522-1.154,5.292-1.618,8.31c-0.95,6.173-1.285,11.482-1.382,13.378
		c-6.629,9.401-21.427,9.511-22.066,9.511l-0.077,0l-0.076,0c-0.638,0-15.437-0.11-22.066-9.511
		c-0.097-1.896-0.432-7.205-1.382-13.378c-0.469-3.05-1.017-5.849-1.639-8.393c-0.482-1.97-1.009-3.787-1.581-5.449
		c-1.207-3.506-2.612-6.319-4.208-8.414c-1.881-2.469-4.351-6.975-5.885-12.168c-0.475-1.61-0.861-3.285-1.111-4.987
		C14.859,35.129,15.1,30.635,16.965,26.634z M101.688,56.796c0,6.828-5.555,12.383-12.383,12.383c-1.662,0-3.249-0.33-4.698-0.927
		c0.891-1.276,2.386-3.298,4.126-5.171c3.451-3.715,5.677-4.502,6.534-4.047l2.378-4.476c-1.277-0.679-3.304-1.174-6.007-0.04
		c1.29-2.468,2.549-5.417,3.502-8.643C99.033,47.964,101.688,52.075,101.688,56.796z M11.728,45.817
		c1.007,3.43,2.36,6.548,3.734,9.113c-3.143-1.649-5.469-1.123-6.881-0.373l2.378,4.476c0.852-0.452,3.064,0.325,6.494,4.005
		c1.826,1.959,3.395,4.103,4.279,5.378c-1.334,0.493-2.776,0.763-4.28,0.763c-6.828,0-12.383-5.555-12.383-12.383
		C5.068,52.031,7.773,47.887,11.728,45.817z"/>
	<path d="M22.29,40.361c1.66,3.676,4.798,7.361,9.325,10.953c1.035,0.821,2.037,1.607,3.007,2.359
		c1.754,1.359,3.399,2.604,4.922,3.724c-0.134,0.188-0.269,0.375-0.406,0.565c-1.345,1.862-2.736,3.788-3.728,7.417
		c-1.031,3.774-1.512,9.016-1.512,16.498v0.2l0.031,0.198c0.057,0.357,0.633,3.586,3.354,6.829
		c2.489,2.967,7.313,6.503,16.156,6.503c8.844,0,13.667-3.536,16.156-6.503c2.721-3.243,3.298-6.471,3.354-6.829l0.031-0.198v-0.2
		c0-7.447-0.483-12.678-1.521-16.463c-0.995-3.631-2.389-5.579-3.737-7.463c-0.132-0.185-0.263-0.368-0.392-0.55
		c1.482-1.089,3.08-2.297,4.78-3.613c1.015-0.785,2.066-1.61,3.153-2.472c4.527-3.592,7.665-7.277,9.325-10.953
		c0.063-0.14,0.123-0.28,0.182-0.419c1.407-3.345,1.59-6.716,0.523-9.777c-1.143-3.279-3.618-6.07-7.158-8.072
		c-3.185-1.801-6.993-2.793-10.725-2.793H39.469c-3.732,0-7.541,0.992-10.725,2.793c-3.54,2.002-6.015,4.793-7.158,8.072
		c-1.071,3.073-0.883,6.458,0.539,9.816C22.178,40.107,22.233,40.235,22.29,40.361z M39.469,24.368h27.944
		c5.984,0,11.614,3.209,13.097,7.465c1.559,4.472-1.423,9.981-8.394,15.511c-3.677,2.917-6.939,5.392-9.695,7.356l-1.888,1.345
		l1.173,2c0.652,1.113,1.286,1.998,1.898,2.854c1.237,1.729,2.215,3.096,2.97,5.853c0.787,2.872,1.221,7.007,1.319,12.59H38.989
		c0.097-5.615,0.528-9.762,1.311-12.628c0.75-2.742,1.719-4.085,2.947-5.785c0.593-0.821,1.265-1.752,1.929-2.884l1.173-2
		l-1.888-1.345c-2.757-1.964-6.019-4.439-9.695-7.356c-6.971-5.53-9.952-11.039-8.394-15.511
		C27.854,27.577,33.485,24.368,39.469,24.368z M65.715,85.844c-2.612,3.114-6.742,4.692-12.274,4.692
		c-5.419,0-9.496-1.518-12.118-4.51c-0.478-0.546-0.865-1.096-1.177-1.616h26.589C66.458,84.872,66.122,85.359,65.715,85.844z"/>
	<path d="M43.078,47.175c3.597,0,6.524-2.927,6.524-6.524c0-3.597-2.927-6.524-6.524-6.524c-3.597,0-6.524,2.927-6.524,6.524
		C36.555,44.248,39.481,47.175,43.078,47.175z M43.078,39.195c0.803,0,1.456,0.653,1.456,1.456c0,0.803-0.653,1.456-1.456,1.456
		c-0.803,0-1.456-0.653-1.456-1.456C41.623,39.848,42.276,39.195,43.078,39.195z"/>
	<path d="M63.804,47.175c3.597,0,6.524-2.927,6.524-6.524c0-3.597-2.926-6.524-6.524-6.524c-3.597,0-6.524,2.927-6.524,6.524
		C57.28,44.248,60.207,47.175,63.804,47.175z M63.804,39.195c0.803,0,1.456,0.653,1.456,1.456c0,0.803-0.653,1.456-1.456,1.456
		c-0.803,0-1.456-0.653-1.456-1.456C62.348,39.848,63.001,39.195,63.804,39.195z"/>
	<path d="M45.527,67.297c0,0,6.135-1.221,4.362-6.409C49.889,60.888,44.572,63.22,45.527,67.297z"/>
	<path d="M61.355,67.297c0.954-4.077-4.362-6.409-4.362-6.409C55.221,66.076,61.355,67.297,61.355,67.297z"/>
</g>
<g>
</g>
<g>
</g>
<g>
</g>
<g>
</g>
<g>
</g>
<g>
</g>
<g>
</g>
<g>
</g>
<g>
</g>
<g>
</g>
<g>
</g>
<g>
</g>
<g>
</g>
<g>
</g>
<g>
</g>
</svg>
