<?xml version="1.0" encoding="iso-8859-1"?>
<!-- Generator: Adobe Illustrator 16.0.0, SVG Export Plug-In . SVG Version: 6.00 Build 0)  -->
<!DOCTYPE svg PUBLIC "-//W3C//DTD SVG 1.1//EN" "http://www.w3.org/Graphics/SVG/1.1/DTD/svg11.dtd">
<svg version="1.1" id="Capa_1" xmlns="http://www.w3.org/2000/svg" xmlns:xlink="http://www.w3.org/1999/xlink" x="0px" y="0px"
	 width="101.707px" height="101.707px" viewBox="0 0 101.707 101.707" style="enable-background:new 0 0 101.707 101.707;"
	 xml:space="preserve">
<g>
	<g>
		<path d="M94.93,48.583c-0.219,0-0.444,0.019-0.663,0.05c-0.165-0.154-0.336-0.298-0.524-0.424
			c-0.688-1.884-2.464-3.227-4.544-3.227c-1.79,0-3.347,0.992-4.196,2.474c-3.015,0.491-5.328,3.172-5.328,6.413
			c0,2.987,1.961,5.493,4.62,6.259c0.527,0.397,1.144,0.671,1.824,0.784c0.644,0.79,1.563,1.317,2.604,1.44
			c-0.172,4.921-1.157,8.117-2.047,10.075c-1.003-0.391-1.995-0.716-2.978-1.006c-5.208-5.675-6.07-19.192-6.016-28.045
			c1.937-0.512,3.647-1.591,4.948-3.041c0.657,0.14,1.335,0.215,2.033,0.215c4.394,0,8.09-2.946,9.239-6.966
			c4.565-1.772,7.803-6.206,7.803-11.396c0-6.754-5.476-12.219-12.221-12.219c-0.568,0-1.129,0.041-1.681,0.114
			c-0.41-0.371-0.842-0.715-1.313-1.023c-1.738-4.615-6.204-7.898-11.427-7.898c-4.5,0-8.429,2.431-10.554,6.055
			c-7.591,1.198-13.395,7.765-13.395,15.696c0,7.289,4.912,13.435,11.611,15.302c1.321,0.976,2.882,1.645,4.575,1.915
			c1.629,1.913,3.942,3.22,6.57,3.524c-0.517,14.493-4.014,22.987-6.491,27.258c-15.386,3.6-25.117,17.559-25.124,17.597
			c-13.449,13.456-41.375,7.871-41.649,7.81L0,99.25c0.532,0.109,6.427,1.293,14.111,1.293c9.679,0,22.203-1.875,30.438-10.137
			c0.117-0.171,7.871-11.758,20.424-16.06c-0.041,0.044-0.082,0.078-0.082,0.078c0.685-0.253,1.354-0.479,2.025-0.677
			c5.366-1.451,11.52-1.499,18.274,1.156c-0.007,0.007-0.034,0.034-0.034,0.034c0.021-0.011,0.041-0.014,0.068-0.024
			c0.024,0.011,0.045,0.014,0.065,0.024l0.03-0.052c4.449-1.632,8.098-0.503,8.098-0.503c-2.772-1.687-3.197-8.106-3.17-12.142
			c0.768-0.209,1.451-0.65,1.972-1.238c0.26,0.055,0.527,0.089,0.808,0.089c1.745,0,3.217-1.215,3.676-2.854
			c1.807-0.722,3.1-2.532,3.1-4.657C99.797,50.819,97.614,48.583,94.93,48.583z"/>
		<circle cx="32.751" cy="34.343" r="5.985"/>
		<path d="M24.888,35.361c0.041,0.008,0.08,0,0.114-0.027c0.036-0.024,0.057-0.067,0.057-0.104v-1.774
			c0-0.041-0.021-0.081-0.057-0.111c-0.034-0.021-0.073-0.029-0.114-0.021l-3.287,0.886c-0.124,0.031-0.124,0.231,0,0.265
			L24.888,35.361z"/>
		<path d="M40.551,33.455v1.774c0,0.041,0.022,0.08,0.049,0.104c0.043,0.027,0.081,0.036,0.124,0.027l3.287-0.887
			c0.124-0.034,0.124-0.234,0-0.265l-3.287-0.886c-0.043-0.009-0.081,0-0.124,0.021C40.573,33.375,40.551,33.417,40.551,33.455z"/>
		<path d="M31.869,41.848c-0.043,0-0.082,0.021-0.103,0.057c-0.027,0.036-0.041,0.077-0.027,0.12l0.883,3.287
			c0.034,0.122,0.231,0.122,0.265,0l0.892-3.287c0.007-0.043,0-0.084-0.029-0.12c-0.027-0.036-0.07-0.057-0.107-0.057H31.869z"/>
		<path d="M31.869,26.84h1.773c0.041,0,0.08-0.022,0.107-0.056c0.029-0.035,0.036-0.081,0.029-0.12l-0.892-3.287
			c-0.034-0.118-0.231-0.118-0.265,0l-0.883,3.287c-0.014,0.039,0,0.085,0.027,0.12C31.783,26.818,31.826,26.84,31.869,26.84z"/>
		<path d="M26.707,38.985c-0.043,0.003-0.081,0.032-0.103,0.066l-1.695,2.95c-0.063,0.109,0.08,0.253,0.193,0.19l2.943-1.696
			c0.043-0.017,0.07-0.06,0.07-0.099c0.007-0.044-0.007-0.087-0.034-0.118l-1.253-1.248C26.79,38.992,26.748,38.982,26.707,38.985z"
			/>
		<path d="M38.684,29.66c0.034,0.032,0.073,0.049,0.123,0.039c0.041-0.003,0.074-0.036,0.101-0.07l1.689-2.943
			c0.07-0.113-0.074-0.257-0.193-0.197l-2.943,1.696c-0.034,0.025-0.063,0.063-0.07,0.101c-0.007,0.039,0.007,0.085,0.043,0.12
			L38.684,29.66z"/>
		<path d="M38.129,38.985c-0.048-0.003-0.087,0.007-0.114,0.039l-1.251,1.248c-0.036,0.031-0.043,0.074-0.043,0.118
			c0.007,0.042,0.034,0.081,0.07,0.099l2.95,1.696c0.11,0.067,0.253-0.077,0.193-0.19l-1.703-2.95
			C38.21,39.018,38.166,38.989,38.129,38.985z"/>
		<path d="M26.038,29.703c0.034,0.007,0.08-0.01,0.107-0.042l1.244-1.248c0.036-0.034,0.05-0.074,0.05-0.111
			c0-0.042-0.029-0.074-0.063-0.096l-2.723-1.479c-0.103-0.053-0.246,0.091-0.193,0.193l1.479,2.726
			C25.952,29.679,25.995,29.699,26.038,29.703z"/>
	</g>
</g>
<g>
</g>
<g>
</g>
<g>
</g>
<g>
</g>
<g>
</g>
<g>
</g>
<g>
</g>
<g>
</g>
<g>
</g>
<g>
</g>
<g>
</g>
<g>
</g>
<g>
</g>
<g>
</g>
<g>
</g>
</svg>
