<?xml version="1.0" encoding="iso-8859-1"?>
<!-- Generator: Adobe Illustrator 18.0.0, SVG Export Plug-In . SVG Version: 6.00 Build 0)  -->
<!DOCTYPE svg PUBLIC "-//W3C//DTD SVG 1.1//EN" "http://www.w3.org/Graphics/SVG/1.1/DTD/svg11.dtd">
<svg version="1.1" id="Capa_1" xmlns="http://www.w3.org/2000/svg" xmlns:xlink="http://www.w3.org/1999/xlink" x="0px" y="0px"
	 viewBox="0 0 98.303 103.232" style="enable-background:new 0 0 98.303 103.232;" preserveAspectRatio="fit">
<g>
	<path d="M61.484,33.854c-3.459,0-7.607,0.687-12.339,2.042c-4.732-1.355-8.881-2.042-12.339-2.042
		c-5.105,0-8.885,1.464-11.234,4.351c-3.329,4.092-2.274,9.399-2.227,9.623l0.139,0.668l0.461,0.503
		c0.3,0.327,7.394,8.052,10.886,11.551c0.033,0.033,0.073,0.074,0.07,0.287c-0.033,2.015-3.418,6.118-5.695,8.256l-1.15,1.077
		l0.819,2.511h-3.468v2.476c0,5.101,2.56,9.851,7.207,13.376c4.444,3.37,10.314,5.227,16.531,5.227
		c6.216,0,12.087-1.856,16.531-5.227c4.648-3.525,7.207-8.276,7.207-13.376v-2.476h-3.469l0.819-2.51l-1.147-1.077
		c-2.278-2.139-5.663-6.242-5.696-8.257c-0.003-0.213,0.037-0.254,0.07-0.287c3.492-3.499,10.585-11.224,10.886-11.551l0.462-0.503
		l0.139-0.668c0.046-0.224,1.1-5.531-2.229-9.623C70.367,35.318,66.588,33.854,61.484,33.854z M67.241,78.8
		c-0.825,2.144-2.373,4.129-4.559,5.787c-3.588,2.721-8.396,4.22-13.538,4.22c-5.142,0-9.95-1.499-13.538-4.22
		c-2.186-1.658-3.734-3.643-4.559-5.787c-0.148-0.384-0.275-0.773-0.376-1.167h36.945C67.517,78.027,67.389,78.416,67.241,78.8z
		 M70.165,46.226c-1.742,1.891-7.334,7.941-10.212,10.824c-1.018,1.02-1.542,2.358-1.516,3.87c0.038,2.261,1.285,4.886,3.811,8.027
		c0.842,1.047,1.679,1.963,2.318,2.628l-0.361,1.105h-5.591l0.048-2.65l-4.952-0.09l-0.05,2.74h-9.018l-0.05-2.74l-4.952,0.09
		l0.048,2.65h-5.604l-0.361-1.105c0.639-0.666,1.476-1.581,2.318-2.628c2.526-3.141,3.773-5.767,3.811-8.027
		c0.025-1.512-0.499-2.851-1.517-3.87c-2.879-2.885-8.477-8.942-10.215-10.828c-0.083-1.04-0.06-3.228,1.293-4.892
		c1.362-1.674,3.849-2.524,7.392-2.524c3.152,0,7.067,0.687,11.635,2.043l0.704,0.209l0.705-0.209
		c4.568-1.356,8.483-2.043,11.635-2.043c3.522,0,6.001,0.84,7.368,2.496C70.219,42.959,70.246,45.17,70.165,46.226z"/>
	<path d="M55.011,57.776c-3.538-0.533-3.935,3.611-3.935,3.611C53.747,61.801,58.549,58.308,55.011,57.776z"/>
	<path d="M43.279,57.776c-3.538,0.533,1.264,4.026,3.935,3.611C47.214,61.387,46.817,57.243,43.279,57.776z"/>
	<path d="M44.913,49.083c0.527-1.52,0.304-3.228-0.612-4.684c-0.82-1.304-2.126-2.319-3.677-2.856
		c-0.788-0.273-1.599-0.411-2.412-0.411c-2.641,0-4.848,1.445-5.623,3.681c-0.527,1.521-0.304,3.228,0.612,4.684
		c0.82,1.304,2.126,2.319,3.677,2.856c0.788,0.273,1.599,0.411,2.412,0.411C41.931,52.764,44.138,51.32,44.913,49.083z
		 M40.234,47.462c-0.051,0.147-0.407,0.35-0.943,0.35c-0.26,0-0.526-0.046-0.791-0.138c-0.922-0.32-1.308-1.018-1.231-1.239
		c0.051-0.147,0.407-0.35,0.943-0.35c0.26,0,0.526,0.047,0.791,0.138C39.925,46.542,40.31,47.24,40.234,47.462z"/>
	<path d="M60.084,41.132c-0.813,0-1.625,0.138-2.412,0.411c-1.551,0.538-2.857,1.552-3.677,2.856
		c-0.916,1.456-1.139,3.164-0.612,4.684c0.775,2.236,2.982,3.681,5.623,3.681h0.001c0.813,0,1.625-0.138,2.412-0.411
		c1.551-0.538,2.857-1.552,3.677-2.856c0.916-1.456,1.139-3.164,0.612-4.684C64.932,42.576,62.725,41.132,60.084,41.132z
		 M59.796,47.674c-0.265,0.092-0.531,0.138-0.79,0.138h0c-0.536,0-0.892-0.203-0.943-0.35c-0.031-0.089,0.018-0.257,0.125-0.427
		c0.219-0.349,0.623-0.645,1.106-0.813c0.265-0.092,0.531-0.138,0.791-0.138c0.536,0,0.892,0.203,0.943,0.35
		C61.104,46.656,60.719,47.354,59.796,47.674z"/>
	<path d="M85.543,43.464C77.053,25.944,69.09,14.292,61.876,8.83l-0.358-0.271l-0.431-0.128c-0.097-0.029-2.125-0.627-5.035-1.11
		c-1.47-2.708-3.673-4.79-5.372-6.123L49.151,0l-1.528,1.199c-1.699,1.333-3.902,3.415-5.372,6.123
		c-2.91,0.483-4.938,1.081-5.035,1.11l-0.431,0.128L36.427,8.83C29.213,14.292,21.25,25.944,12.76,43.464
		C6.511,56.357,2.251,67.865,2.209,67.98L0,73.971l5.671-2.935c0.265-0.137,0.743-0.31,1.322-0.493
		c-0.406,2.13-0.619,3.655-0.632,3.753l-0.768,5.421l4.556-2.997c0.488-0.304,2.044-1.079,3.491-1.079
		c1.014,0,1.746,0.358,2.374,1.161c0.743,0.951,1.669,2.991,1.863,7.307c0.338,7.543,4.613,13.185,12.362,16.315
		c6.045,2.442,12.868,2.807,16.397,2.807c1.253,0,2.147-0.045,2.517-0.067c0.37,0.023,1.265,0.067,2.517,0.067
		c3.529,0,10.351-0.365,16.396-2.806c7.749-3.13,12.024-8.772,12.363-16.316c0.194-4.316,1.12-6.356,1.863-7.307
		c0.628-0.803,1.36-1.162,2.374-1.162c1.447,0,3.003,0.774,3.491,1.079l4.535,2.983l-0.746-5.408
		c-0.014-0.098-0.226-1.624-0.632-3.753c0.579,0.183,1.056,0.356,1.322,0.493l5.671,2.935l-2.209-5.991
		C96.051,67.865,91.791,56.357,85.543,43.464z M88.588,64.687l-3.913-0.899l0.953,3.9c0.267,1.094,0.499,2.17,0.692,3.145
		c-0.529-0.09-1.085-0.144-1.657-0.144c-2.54,0-4.711,1.06-6.277,3.066c-1.751,2.242-2.702,5.557-2.907,10.133
		c-0.252,5.62-3.284,9.528-9.27,11.946c-5.268,2.128-11.372,2.446-14.541,2.446c-1.432,0-2.322-0.065-2.329-0.066L49.151,98.2
		l-0.186,0.014c-0.009,0.001-0.898,0.066-2.331,0.066c-3.169,0-9.273-0.318-14.541-2.446c-5.985-2.418-9.017-6.325-9.27-11.945
		c-0.205-4.577-1.156-7.892-2.907-10.134c-1.566-2.006-3.737-3.066-6.277-3.066c-0.572,0-1.128,0.054-1.657,0.144
		c0.193-0.974,0.425-2.05,0.692-3.145l0.953-3.9l-3.913,0.899c-0.182,0.042-0.541,0.126-1.004,0.241
		c1.801-4.494,4.805-11.668,8.525-19.342c7.874-16.241,15.407-27.469,21.816-32.524c0.827-0.22,2.783-0.701,5.2-1.035l1.399-0.193
		l0.546-1.302c0.676-1.613,1.82-3.009,2.955-4.106c1.135,1.098,2.279,2.494,2.955,4.106l0.546,1.302l1.399,0.193
		c2.418,0.334,4.375,0.816,5.201,1.035c6.408,5.054,13.942,16.282,21.816,32.524c3.721,7.675,6.724,14.848,8.525,19.342
		C89.129,64.812,88.77,64.728,88.588,64.687z"/>
	<rect x="46.896" y="49.697" width="4.51" height="4.51"/>
</g>
<g>
</g>
<g>
</g>
<g>
</g>
<g>
</g>
<g>
</g>
<g>
</g>
<g>
</g>
<g>
</g>
<g>
</g>
<g>
</g>
<g>
</g>
<g>
</g>
<g>
</g>
<g>
</g>
<g>
</g>
</svg>
