<?xml version="1.0" encoding="iso-8859-1"?>
<!-- Generator: Adobe Illustrator 18.1.1, SVG Export Plug-In . SVG Version: 6.00 Build 0)  -->
<svg version="1.1" id="Capa_1" xmlns="http://www.w3.org/2000/svg" xmlns:xlink="http://www.w3.org/1999/xlink" x="0px" y="0px"
	 viewBox="0 0 14.978 14.978" style="enable-background:new 0 0 14.978 14.978;" xml:space="preserve">
<g>
	<path style="fill:#030104;" d="M12.692,2.07c-0.363-0.943-1.27-1.586-2.316-1.586c-0.451,0-0.884,0.12-1.263,0.344
		c-0.455-0.43-1.059-0.674-1.701-0.674c-0.439,0-0.869,0.118-1.245,0.336C5.79,0.272,5.361,0.154,4.922,0.154
		c-1.172,0-2.157,0.816-2.417,1.909c-0.007,0-0.013,0-0.02,0C1.114,2.063,0,3.178,0,4.548c0,1.371,1.114,2.485,2.485,2.485
		c0.199,0,0.394-0.023,0.584-0.069C3.527,7.398,4.128,7.64,4.772,7.64c0.095,0,0.188-0.007,0.281-0.018
		c0.04,0.325,0.081,0.749,0.103,1.222c-1.304,0.181-2.778,0.603-2.778,1.597c0,0.918,1.257,1.349,2.476,1.551
		c-0.272,0.844-0.755,1.509-1.579,1.692c-0.311,0.069-0.506,0.378-0.437,0.688c0.06,0.269,0.298,0.451,0.562,0.451
		c0.042,0,0.084-0.005,0.126-0.015c1.397-0.312,2.127-1.4,2.488-2.682c0.521,0.039,0.927,0.043,1.058,0.043
		c0.134,0,0.561-0.004,1.105-0.047c0.361,1.282,1.091,2.374,2.489,2.686c0.042,0.01,0.084,0.015,0.126,0.015
		c0.264,0,0.502-0.183,0.562-0.451c0.069-0.311-0.126-0.619-0.437-0.688c-0.825-0.184-1.307-0.853-1.579-1.7
		c1.204-0.206,2.428-0.637,2.428-1.543c0-0.981-1.437-1.406-2.729-1.589c0.019-0.395,0.05-0.754,0.082-1.051
		c0.374,0.22,0.805,0.342,1.256,0.342c0.842,0,1.615-0.424,2.07-1.111c1.382,0.031,2.534-1.098,2.533-2.485
		C14.979,3.243,13.97,2.171,12.692,2.07z M3.636,10.44c0.241-0.143,0.76-0.319,1.528-0.438c-0.011,0.288-0.034,0.58-0.07,0.867
		C4.365,10.749,3.87,10.579,3.636,10.44z M7.072,11.016c-0.294,0-0.569-0.009-0.83-0.024c0.047-0.372,0.075-0.745,0.085-1.108
		c0.235-0.013,0.482-0.02,0.744-0.02c0.28,0,0.544,0.009,0.793,0.022c0.011,0.361,0.037,0.733,0.085,1.103
		C7.676,11.007,7.384,11.016,7.072,11.016z M9.1,10.86c-0.036-0.281-0.058-0.567-0.069-0.851c0.74,0.119,1.241,0.291,1.477,0.431
		C10.28,10.576,9.802,10.742,9.1,10.86z M7.072,8.712c-0.104,0-0.384,0.002-0.759,0.023c-0.032-0.632-0.096-1.17-0.147-1.527
		c0.103-0.07,0.202-0.146,0.294-0.231c0.456,0.288,1.008,0.417,1.548,0.372C7.96,7.701,7.907,8.184,7.88,8.737
		C7.481,8.715,7.181,8.712,7.072,8.712z M12.236,5.854c-0.264-0.052-0.53,0.087-0.639,0.335c-0.213,0.487-0.692,0.801-1.222,0.801
		c-0.492,0-0.942-0.27-1.176-0.705C9.127,6.15,9.004,6.049,8.857,6.006c-0.055-0.017-0.11-0.025-0.166-0.025
		c-0.095,0-0.189,0.023-0.273,0.069C8.222,6.156,8.009,6.21,7.785,6.21c-0.375,0-0.722-0.153-0.978-0.43
		c-0.122-0.132-0.294-0.2-0.476-0.183C6.153,5.614,5.992,5.712,5.896,5.863c-0.113,0.18-0.265,0.324-0.439,0.43
		C5.443,6.295,5.43,6.294,5.416,6.296c-0.104,0.02-0.195,0.069-0.27,0.134C5.025,6.466,4.899,6.486,4.77,6.486
		c-0.422,0-0.81-0.195-1.065-0.535C3.545,5.738,3.26,5.662,3.014,5.769C2.845,5.843,2.667,5.88,2.483,5.88
		c-0.735,0-1.333-0.598-1.333-1.333s0.598-1.333,1.333-1.333c0.124,0,0.249,0.018,0.372,0.054c0.179,0.051,0.371,0.015,0.517-0.101
		C3.519,3.053,3.6,2.875,3.592,2.689c0-0.005-0.003-0.047-0.003-0.051c0-0.735,0.598-1.333,1.333-1.333
		c0.318,0,0.626,0.115,0.87,0.324c0.216,0.186,0.536,0.186,0.752,0C6.786,1.42,7.095,1.305,7.413,1.305
		c0.458,0,0.879,0.232,1.126,0.623c0.094,0.148,0.249,0.245,0.423,0.265C9.137,2.212,9.31,2.151,9.434,2.027
		c0.252-0.252,0.587-0.392,0.943-0.392c0.653,0,1.205,0.468,1.313,1.113c0.05,0.305,0.331,0.515,0.639,0.478
		c0.055-0.007,0.11-0.012,0.167-0.012c0.735,0,1.333,0.598,1.333,1.333C13.827,5.366,13.078,6.019,12.236,5.854z"/>
</g>
<g>
</g>
<g>
</g>
<g>
</g>
<g>
</g>
<g>
</g>
<g>
</g>
<g>
</g>
<g>
</g>
<g>
</g>
<g>
</g>
<g>
</g>
<g>
</g>
<g>
</g>
<g>
</g>
<g>
</g>
</svg>
