<?xml version="1.0" encoding="iso-8859-1"?>
<!-- Generator: Adobe Illustrator 18.0.0, SVG Export Plug-In . SVG Version: 6.00 Build 0)  -->
<!DOCTYPE svg PUBLIC "-//W3C//DTD SVG 1.1//EN" "http://www.w3.org/Graphics/SVG/1.1/DTD/svg11.dtd">
<svg version="1.1" id="Capa_1" xmlns="http://www.w3.org/2000/svg" xmlns:xlink="http://www.w3.org/1999/xlink" x="0px" y="0px"
	 viewBox="0 0 53 53" style="enable-background:new 0 0 53 53;" xml:space="preserve">
<g>
	<path d="M32.899,35.7c-0.441-0.331-1.068-0.243-1.399,0.2c-0.332,0.441-0.242,1.068,0.2,1.399l0.399,0.299
		c-0.88,1.021-2.84,2.946-5.407,3.333c-1.646,0.25-3.31-0.194-4.954-1.31l0.162-0.121c0.442-0.331,0.532-0.958,0.2-1.399
		c-0.331-0.443-0.958-0.532-1.399-0.2l-2.2,1.649c-0.442,0.331-0.532,0.958-0.2,1.399c0.196,0.263,0.496,0.4,0.801,0.4
		c0.209,0,0.419-0.065,0.599-0.2l0.364-0.273c1.856,1.408,3.772,2.125,5.715,2.125c0.402,0,0.807-0.03,1.211-0.092
		c3.29-0.496,5.687-2.89,6.714-4.107L33.9,38.95c0.18,0.135,0.39,0.2,0.599,0.2c0.304,0,0.604-0.138,0.801-0.4
		c0.332-0.441,0.242-1.068-0.2-1.399L32.899,35.7z"/>
	<path d="M35.081,16.162c-3.287,0-6.077,2.15-7.049,5.117c-0.414-0.187-0.878-0.302-1.376-0.302s-0.962,0.116-1.376,0.302
		c-0.971-2.967-3.762-5.117-7.049-5.117c-4.091,0-7.419,3.328-7.419,7.419S14.141,31,18.231,31s7.419-3.328,7.419-7.419
		c0-0.285,0.43-0.604,1.006-0.604s1.006,0.319,1.006,0.604c0,4.091,3.328,7.419,7.419,7.419s7.419-3.328,7.419-7.419
		S39.172,16.162,35.081,16.162z M18.231,29c-2.988,0-5.419-2.431-5.419-5.419s2.431-5.419,5.419-5.419s5.419,2.431,5.419,5.419
		S21.22,29,18.231,29z M35.081,29c-2.988,0-5.419-2.431-5.419-5.419s2.431-5.419,5.419-5.419s5.419,2.431,5.419,5.419
		S38.069,29,35.081,29z"/>
	<path d="M19.416,20.084c-0.391-0.391-1.023-0.391-1.414,0l-3.209,3.209c-0.391,0.391-0.391,1.023,0,1.414
		C14.988,24.902,15.244,25,15.5,25s0.512-0.098,0.707-0.293l3.209-3.209C19.807,21.107,19.807,20.475,19.416,20.084z"/>
	<path d="M20.793,22.874l-3.209,3.21c-0.391,0.391-0.391,1.023,0,1.414c0.195,0.195,0.451,0.293,0.707,0.293
		s0.512-0.098,0.707-0.293l3.209-3.21c0.391-0.391,0.391-1.023,0-1.414S21.184,22.483,20.793,22.874z"/>
	<path d="M36.591,19.665c-0.391-0.391-1.023-0.391-1.414,0l-3.21,3.209c-0.391,0.391-0.391,1.023,0,1.414
		c0.195,0.195,0.451,0.293,0.707,0.293s0.512-0.098,0.707-0.293l3.21-3.209C36.981,20.688,36.981,20.056,36.591,19.665z"/>
	<path d="M37.002,22.874l-3.209,3.21c-0.391,0.391-0.391,1.023,0,1.414c0.195,0.195,0.451,0.293,0.707,0.293
		s0.512-0.098,0.707-0.293l3.209-3.21c0.391-0.391,0.391-1.023,0-1.414S37.393,22.483,37.002,22.874z"/>
	<path d="M15.3,33.89c0.26,0,0.52-0.11,0.71-0.3c0.18-0.18,0.29-0.44,0.29-0.7s-0.11-0.52-0.29-0.71c-0.38-0.37-1.04-0.38-1.42,0
		c-0.19,0.19-0.29,0.45-0.29,0.71s0.1,0.521,0.29,0.7C14.77,33.779,15.03,33.89,15.3,33.89z"/>
	<path d="M14.8,36.42c-0.19,0.18-0.3,0.439-0.3,0.71c0,0.26,0.109,0.52,0.29,0.7c0.18,0.189,0.439,0.29,0.71,0.29
		c0.27,0,0.52-0.101,0.71-0.29c0.18-0.181,0.29-0.44,0.29-0.7c0-0.271-0.11-0.53-0.29-0.71C15.83,36.04,15.149,36.05,14.8,36.42z"/>
	<path d="M11.29,37.29C11.109,37.479,11,37.74,11,38s0.109,0.52,0.29,0.71C11.479,38.89,11.74,39,12,39c0.27,0,0.52-0.11,0.71-0.29
		C12.899,38.52,13,38.26,13,38s-0.101-0.521-0.29-0.71C12.34,36.92,11.66,36.93,11.29,37.29z"/>
	<path d="M38.5,33.05c-0.19,0.19-0.3,0.45-0.3,0.71s0.109,0.52,0.3,0.71c0.18,0.19,0.439,0.29,0.71,0.29c0.26,0,0.51-0.1,0.7-0.29
		c0.189-0.19,0.29-0.45,0.29-0.71c0-0.27-0.101-0.52-0.29-0.71C39.54,32.68,38.87,32.68,38.5,33.05z"/>
	<path d="M38.29,37.29C38.109,37.479,38,37.74,38,38s0.109,0.52,0.29,0.71C38.479,38.89,38.74,39,39,39s0.52-0.11,0.71-0.29
		C39.899,38.52,40,38.26,40,38s-0.101-0.521-0.29-0.71C39.34,36.92,38.67,36.92,38.29,37.29z"/>
	<path d="M41.79,38.17c-0.19,0.189-0.29,0.439-0.29,0.71c0,0.25,0.1,0.51,0.29,0.7c0.189,0.189,0.45,0.29,0.71,0.29
		s0.52-0.101,0.71-0.29c0.18-0.19,0.29-0.44,0.29-0.7c0-0.271-0.11-0.521-0.29-0.71C42.84,37.8,42.16,37.8,41.79,38.17z"/>
	<path d="M43.5,6h-9V2.306C34.5,1.034,33.466,0,32.194,0H20.806C19.534,0,18.5,1.034,18.5,2.306V6h-9c-2.757,0-5,2.243-5,5v33
		c0,2.757,2.243,5,5,5h3v1.694c0,1.271,1.034,2.306,2.306,2.306h23.389c1.271,0,2.306-1.034,2.306-2.306V49h3c2.757,0,5-2.243,5-5
		V11C48.5,8.243,46.257,6,43.5,6z M20.5,2.306C20.5,2.137,20.637,2,20.806,2h11.389C32.363,2,32.5,2.137,32.5,2.306V6h-12V2.306z
		 M38.5,50.694c0,0.169-0.137,0.306-0.306,0.306H14.806c-0.169,0-0.306-0.137-0.306-0.306V49h24V50.694z M46.5,44
		c0,1.654-1.346,3-3,3h-3h-28h-3c-1.654,0-3-1.346-3-3V11c0-1.654,1.346-3,3-3h9h16h9c1.654,0,3,1.346,3,3V44z"/>
</g>
<g>
</g>
<g>
</g>
<g>
</g>
<g>
</g>
<g>
</g>
<g>
</g>
<g>
</g>
<g>
</g>
<g>
</g>
<g>
</g>
<g>
</g>
<g>
</g>
<g>
</g>
<g>
</g>
<g>
</g>
</svg>
