<?xml version="1.0" encoding="iso-8859-1"?>
<!-- Generator: Adobe Illustrator 19.0.0, SVG Export Plug-In . SVG Version: 6.00 Build 0)  -->
<svg version="1.1" id="Layer_1" xmlns="http://www.w3.org/2000/svg" xmlns:xlink="http://www.w3.org/1999/xlink" x="0px" y="0px"
	 viewBox="0 0 280 280" style="enable-background:new 0 0 280 280;" xml:space="preserve">
<g id="XMLID_455_">
	<g>
		<path d="M167.333,110V55c0-30.375-24.624-55-55-55C83.645,0,60.098,21.969,57.569,50H42.667c-16.568,0-30,13.432-30,30
			c13.511,0,28.976,0,44.666,0c0,0,0,73.929,0,85c0,30.376,24.624,55,55,55h25v30c-16.568,0-30,13.432-30,30h60v-60h70
			c0,0,0-23.321,0-52.568c18.129-12.65,30-33.649,30-57.432C223.93,110,167.333,110,167.333,110z M107.333,70
			c-5.523,0-10-4.477-10-10s4.477-10,10-10s10,4.477,10,10S112.856,70,107.333,70z"/>
	</g>
</g>
<g>
</g>
<g>
</g>
<g>
</g>
<g>
</g>
<g>
</g>
<g>
</g>
<g>
</g>
<g>
</g>
<g>
</g>
<g>
</g>
<g>
</g>
<g>
</g>
<g>
</g>
<g>
</g>
<g>
</g>
</svg>
