<?xml version="1.0" encoding="iso-8859-1"?>
<!-- Generator: Adobe Illustrator 17.1.0, SVG Export Plug-In . SVG Version: 6.00 Build 0)  -->
<!DOCTYPE svg PUBLIC "-//W3C//DTD SVG 1.1//EN" "http://www.w3.org/Graphics/SVG/1.1/DTD/svg11.dtd">
<svg version="1.1" id="Capa_1" xmlns="http://www.w3.org/2000/svg" xmlns:xlink="http://www.w3.org/1999/xlink" x="0px" y="0px"
	 viewBox="0 0 490 490" style="enable-background:new 0 0 490 490;" xml:space="preserve">
<g>
	<path d="M360.84,346.842c-1.787,11.313-5.152,25.433-9.972,40.066l-8.697-11.719c-0.774-1.053-2.045-1.607-3.341-1.458
		c-1.295,0.152-2.419,0.982-2.93,2.169l-12.646,29.15c-0.518,1.2-0.351,2.581,0.414,3.623c0.776,1.05,2.053,1.605,3.35,1.453
		l15.82-1.815c-10.438,24.51-24.846,47.331-42.652,57.546c-11.355,6.503-22.919,7.299-35.372,2.419
		c-5.198-2.034-10.021-4.697-14.491-7.937l15.174-4.033c0.529-0.141,1.021-0.397,1.436-0.753c0.009-0.008,0.031-0.023,0.04-0.037
		c1.522-1.309,1.708-3.608,0.399-5.138c-0.207-0.247-22.649-22.689-22.649-22.689c-0.929-0.915-2.263-1.28-3.524-0.941
		c-1.253,0.327-2.239,1.315-2.581,2.57l-4.069,15.059c-14.824-20.456-23.046-51.631-24.543-93.249l15.82,7.21
		c1.176,0.543,2.565,0.406,3.632-0.354c0.079-0.056,0.173-0.13,0.247-0.195c0.896-0.768,1.376-1.929,1.265-3.121l-3.058-31.626
		c-0.118-1.295-0.92-2.43-2.113-2.973c-1.181-0.538-2.565-0.405-3.625,0.354l-20.644,14.723l-23.076-10.515
		c-1.191-0.537-2.57-0.404-3.629,0.351c-1.058,0.753-1.64,2.023-1.516,3.317l3.047,31.63c0.127,1.295,0.934,2.429,2.125,2.967
		c1.173,0.545,2.564,0.412,3.629-0.348l13.159-9.397c1.838,45.641,11.646,79.957,29.299,102.625l-17.078,4.534
		c-1.252,0.332-2.238,1.317-2.582,2.571c-0.341,1.262,0.016,2.604,0.932,3.527c0,0,16.81,16.893,22.427,22.515
		c0.925,0.925,2.258,1.29,3.515,0.955c0.54-0.146,1.032-0.409,1.444-0.761c0.547-0.467,0.919-1.103,1.143-1.814
		c1.674-5.203,4.582-16.962,4.582-16.962c6.185,4.88,12.997,8.8,20.463,11.72c16.661,6.528,32.854,5.398,48.131-3.361
		c3.972-2.273,7.754-4.986,11.352-8.066c16.236-13.896,28.768-35.24,37.967-57.119l10.451,14.097
		c0.771,1.047,2.051,1.593,3.344,1.448c0.736-0.091,1.411-0.389,1.954-0.855c0.412-0.354,0.756-0.807,0.975-1.323l12.642-29.148
		c0.52-1.196,0.361-2.577-0.414-3.623c-0.776-1.045-2.055-1.602-3.35-1.449l-18.528,2.132c5.852-17.303,9.644-33.695,11.527-45.642
		c0.641-4.04-2.12-7.829-6.161-8.471C365.266,340.049,361.477,342.809,360.84,346.842z"/>
	<path d="M213.359,1.387c-0.102-0.105-0.219-0.213-0.309-0.289c-1.186-1.113-2.92-1.404-4.417-0.76
		c-1.494,0.651-2.453,2.127-2.446,3.753l0.006,83.515c0.01,2.258,1.84,4.089,4.092,4.084h83.305c1.591-0.001,3.022-0.911,3.69-2.335
		c0.684-1.424,0.534-3.165-0.522-4.337C276.99,63.084,213.359,1.387,213.359,1.387z"/>
	<path d="M187.807,1.387c0.103-0.105,0.219-0.213,0.309-0.289c1.185-1.113,2.92-1.404,4.417-0.76
		c1.494,0.651,2.453,2.127,2.446,3.753l-0.006,83.515c-0.01,2.258-1.84,4.089-4.092,4.084h-83.305
		c-1.592-0.001-3.022-0.911-3.69-2.335c-0.684-1.424-0.534-3.165,0.521-4.337C124.175,63.084,187.807,1.387,187.807,1.387z"/>
	<path d="M210.263,103.358c-2.258-0.002-4.083,1.823-4.076,4.081l0.003,197.852c-0.053,1.997,0.247,4.869,3.566,4.869
		c3.799-0.002,5.323-4.191,5.919-5.609l81.694-195.502c0.526-1.262,0.384-2.702-0.378-3.84c-0.758-1.143-2.037-1.822-3.402-1.818
		L210.263,103.358z"/>
	<path d="M190.894,103.358c2.251-0.002,4.08,1.823,4.076,4.081v197.852c0.047,1.997-0.25,4.869-3.575,4.869
		c-3.793-0.002-5.32-4.191-5.914-5.609l-81.693-195.502c-0.526-1.262-0.384-2.702,0.38-3.84c0.756-1.143,2.035-1.822,3.4-1.818
		L190.894,103.358z"/>
</g>
<g>
</g>
<g>
</g>
<g>
</g>
<g>
</g>
<g>
</g>
<g>
</g>
<g>
</g>
<g>
</g>
<g>
</g>
<g>
</g>
<g>
</g>
<g>
</g>
<g>
</g>
<g>
</g>
<g>
</g>
</svg>
