<?xml version="1.0" encoding="iso-8859-1"?>
<!-- Generator: Adobe Illustrator 19.0.0, SVG Export Plug-In . SVG Version: 6.00 Build 0)  -->
<svg version="1.1" id="Layer_1" xmlns="http://www.w3.org/2000/svg" xmlns:xlink="http://www.w3.org/1999/xlink" x="0px" y="0px"
	 viewBox="0 0 390 390" style="enable-background:new 0 0 390 390;" xml:space="preserve">
<g id="XMLID_461_">
	<g>
		<path d="M285,70c-60-30-90-70-90-70s-30,40-90,70s-80,50-60,80c10.714,16.07,52.989,49.355,89.941,76.803
			c-1.964,19.746,5.887,40.042,22.654,53.197l18.349-23.388L195,390l19.056-133.388L232.404,280
			c16.768-13.156,24.618-33.451,22.654-53.197C292.011,199.355,334.286,166.07,345,150C365,120,345,100,285,70z M165,90
			c-5.523,0-10-4.477-10-10s4.477-10,10-10s10,4.477,10,10S170.523,90,165,90z M225,90c-5.523,0-10-4.477-10-10s4.477-10,10-10
			s10,4.477,10,10S230.523,90,225,90z"/>
	</g>
</g>
<g>
</g>
<g>
</g>
<g>
</g>
<g>
</g>
<g>
</g>
<g>
</g>
<g>
</g>
<g>
</g>
<g>
</g>
<g>
</g>
<g>
</g>
<g>
</g>
<g>
</g>
<g>
</g>
<g>
</g>
</svg>
