<?xml version="1.0" encoding="iso-8859-1"?>
<!-- Generator: Adobe Illustrator 19.0.0, SVG Export Plug-In . SVG Version: 6.00 Build 0)  -->
<svg version="1.1" id="Capa_1" xmlns="http://www.w3.org/2000/svg" xmlns:xlink="http://www.w3.org/1999/xlink" x="0px" y="0px"
	 viewBox="0 0 463 463" style="enable-background:new 0 0 463 463;" xml:space="preserve">
<g>
	<path d="M383.502,136L383.502,136H274.094c7.994-8.504,12.906-19.936,12.906-32.5c0-26.191-21.309-47.5-47.5-47.5
		c-12.564,0-23.996,4.912-32.5,12.906V7.5c0-4.142-3.357-7.5-7.5-7.5S192,3.358,192,7.5v96c0,26.191,21.309,47.5,47.5,47.5
		c0,0,0,0,0.001,0h0h122.096c-1.027,2.638-1.597,5.503-1.597,8.5c0,2.997,0.57,5.862,1.597,8.5H159.5
		c-12.958,0-23.5,10.542-23.5,23.5s10.542,23.5,23.5,23.5h122.097c-1.027,2.638-1.597,5.503-1.597,8.5s0.57,5.862,1.597,8.5H111.5
		C80.897,232,56,256.897,56,287.5c0,30.558,24.825,55.424,55.366,55.497c0.046,0.001,0.09,0.007,0.135,0.007h109.402
		C212.911,351.507,208,362.937,208,375.5c0,26.191,21.309,47.5,47.5,47.5c12.564,0,23.996-4.912,32.5-12.906V455.5
		c0,4.142,3.357,7.5,7.5,7.5s7.5-3.358,7.5-7.5v-80c0-26.191-21.309-47.5-47.5-47.5c-0.045,0-0.09,0.003-0.135,0.003H149.386
		C160.214,317.869,167,303.466,167,287.5c0-15.964-6.784-30.366-17.61-40.5H303.5c12.958,0,23.5-10.542,23.5-23.5
		S316.458,200,303.5,200H181.403c1.027-2.638,1.597-5.503,1.597-8.5s-0.57-5.862-1.597-8.5H383.5c12.958,0,23.5-10.542,23.5-23.5
		C407,146.543,396.459,136.001,383.502,136z M288,375.5c0,17.92-14.579,32.5-32.5,32.5S223,393.42,223,375.5
		c0-17.875,14.506-32.423,32.365-32.497h0.136c0.015,0,0.03-0.002,0.045-0.002C273.446,343.026,288,357.595,288,375.5z M152,287.5
		c0,22.332-18.168,40.5-40.5,40.5S71,309.832,71,287.5S89.168,247,111.5,247S152,265.168,152,287.5z M207,103.5
		c0-17.92,14.579-32.5,32.5-32.5S272,85.58,272,103.5S257.421,136,239.5,136S207,121.42,207,103.5z M303.5,232
		c-4.687,0-8.5-3.813-8.5-8.5s3.813-8.5,8.5-8.5s8.5,3.813,8.5,8.5S308.187,232,303.5,232z M168,191.5c0,4.687-3.813,8.5-8.5,8.5
		s-8.5-3.813-8.5-8.5s3.813-8.5,8.5-8.5S168,186.813,168,191.5z M383.5,168c-4.687,0-8.5-3.813-8.5-8.5s3.813-8.5,8.5-8.5
		s8.5,3.813,8.5,8.5S388.187,168,383.5,168z"/>
	<path d="M254,103.5c0-7.995-6.505-14.5-14.5-14.5S225,95.505,225,103.5s6.505,14.5,14.5,14.5S254,111.495,254,103.5z"/>
	<path d="M255.5,360c-8.547,0-15.5,6.953-15.5,15.5s6.953,15.5,15.5,15.5s15.5-6.953,15.5-15.5S264.047,360,255.5,360z"/>
	<path d="M111.5,311c12.958,0,23.5-10.542,23.5-23.5S124.458,264,111.5,264S88,274.542,88,287.5S98.542,311,111.5,311z M111.5,279
		c4.687,0,8.5,3.813,8.5,8.5s-3.813,8.5-8.5,8.5s-8.5-3.813-8.5-8.5S106.813,279,111.5,279z"/>
</g>
<g>
</g>
<g>
</g>
<g>
</g>
<g>
</g>
<g>
</g>
<g>
</g>
<g>
</g>
<g>
</g>
<g>
</g>
<g>
</g>
<g>
</g>
<g>
</g>
<g>
</g>
<g>
</g>
<g>
</g>
</svg>
