<?xml version="1.0" encoding="utf-8"?>
<!-- Generator: Adobe Illustrator 16.0.4, SVG Export Plug-In . SVG Version: 6.00 Build 0)  -->
<!DOCTYPE svg PUBLIC "-//W3C//DTD SVG 1.1//EN" "http://www.w3.org/Graphics/SVG/1.1/DTD/svg11.dtd">
<svg version="1.1" id="Layer_1" xmlns="http://www.w3.org/2000/svg" xmlns:xlink="http://www.w3.org/1999/xlink" x="0px" y="0px"
	 width="112px" height="112px" viewBox="0 0 112 112" enable-background="new 0 0 112 112" xml:space="preserve">
<path d="M50.867,56c0-2.835,2.298-5.133,5.133-5.133s5.133,2.298,5.133,5.133S58.835,61.133,56,61.133S50.867,58.835,50.867,56z
	 M112,56c0,30.8-25.2,56-56,56c-0.855,0-1.704-0.025-2.547-0.064c-0.217-0.011-0.432-0.021-0.648-0.033
	c-0.804-0.047-1.604-0.104-2.396-0.185c-0.116-0.011-0.229-0.024-0.345-0.038c-0.705-0.074-1.403-0.166-2.098-0.269
	c-0.312-0.045-0.623-0.093-0.933-0.144c-0.515-0.084-1.024-0.179-1.533-0.275c-0.603-0.116-1.201-0.243-1.796-0.379
	c-0.292-0.066-0.586-0.133-0.877-0.203c-0.498-0.121-0.992-0.248-1.485-0.383c-0.073-0.021-0.145-0.043-0.218-0.062
	c-1.032-0.285-2.051-0.604-3.059-0.945c-0.117-0.039-0.236-0.08-0.354-0.121c-0.502-0.174-1.002-0.354-1.498-0.541
	c-0.592-0.225-1.18-0.457-1.764-0.698c-0.171-0.072-0.339-0.146-0.509-0.22c-2.028-0.864-4.01-1.834-5.94-2.905l0.045-0.078
	c-8.485-4.929-15.571-12.015-20.5-20.5L7.467,84c-4.185-7.113-6.861-15.729-7.371-24.834c-0.011-0.199-0.021-0.398-0.029-0.6
	C0.027,57.715,0,56.859,0,56C0,25.2,25.2,0,56,0c0.855,0,1.704,0.026,2.548,0.065c0.216,0.01,0.433,0.021,0.647,0.033
	c0.804,0.046,1.604,0.104,2.396,0.184c0.115,0.012,0.229,0.026,0.347,0.039c0.703,0.076,1.401,0.167,2.097,0.269
	c0.312,0.045,0.623,0.093,0.934,0.144c0.513,0.084,1.022,0.177,1.529,0.275c0.604,0.116,1.205,0.244,1.803,0.379
	c0.291,0.066,0.582,0.131,0.872,0.202c0.498,0.122,0.994,0.249,1.488,0.384c0.068,0.019,0.139,0.04,0.208,0.059
	c1.036,0.288,2.059,0.605,3.069,0.95c0.117,0.039,0.231,0.078,0.349,0.118c0.504,0.175,1.006,0.354,1.503,0.544
	c0.59,0.223,1.177,0.455,1.76,0.697c0.172,0.072,0.342,0.148,0.514,0.222C80.09,5.427,82.07,6.396,84,7.467l-0.045,0.079
	c8.484,4.928,15.57,12.014,20.5,20.5L104.533,28c4.185,7.113,6.859,15.729,7.371,24.833c0.011,0.2,0.021,0.399,0.029,0.599
	C111.975,54.285,112,55.14,112,56z M80.499,13.569l-11.647,20.3c3.818,2.252,7.027,5.46,9.278,9.28l20.302-11.648
	C94.13,24.065,87.936,17.87,80.499,13.569z M37.333,56c0,10.268,8.399,18.666,18.667,18.666S74.666,66.268,74.666,56
	c0-10.267-8.398-18.667-18.666-18.667S37.333,45.733,37.333,56z M31.501,98.432L43.148,78.13c-3.819-2.251-7.027-5.46-9.279-9.278
	L13.568,80.499C17.87,87.936,24.064,94.13,31.501,98.432z"/>
</svg>
