<?xml version="1.0" encoding="iso-8859-1"?>
<!-- Generator: Adobe Illustrator 16.0.0, SVG Export Plug-In . SVG Version: 6.00 Build 0)  -->
<!DOCTYPE svg PUBLIC "-//W3C//DTD SVG 1.1//EN" "http://www.w3.org/Graphics/SVG/1.1/DTD/svg11.dtd">
<svg version="1.1" id="Capa_1" xmlns="http://www.w3.org/2000/svg" xmlns:xlink="http://www.w3.org/1999/xlink" x="0px" y="0px"
	 width="474.999px" height="474.999px" viewBox="0 0 474.999 474.999" style="enable-background:new 0 0 474.999 474.999;"
	 xml:space="preserve">
<g>
	<path d="M471.179,355.234h-21.305l-18.502-24.17l-35.025-45.75l-35.024-45.75l-35.023-45.75l-35.024-45.75l-35.024-45.75
		l-15.717-20.529c-0.723-0.943-1.845-1.498-3.035-1.498c-1.189,0-2.31,0.554-3.032,1.498l-50.297,65.699l-35.024,45.749
		l-35.025,45.753l-35.025,45.75c-0.001,0-0.001,0.004-0.002,0.005l-35.019,45.741c-0.001,0-0.002,0.002-0.002,0.004l-18.945,24.749
		H3.82c-2.11,0-3.82,1.71-3.82,3.819v31.837c0,2.11,1.71,3.82,3.82,3.82h467.359c2.109,0,3.82-1.71,3.82-3.82v-31.837
		C474.999,356.944,473.288,355.234,471.179,355.234z M82.127,293.344l10.955,14.32l-30.201,39.478l-10.966-14.333L82.127,293.344z
		 M117.151,247.596l10.943,14.303l-30.201,39.479l-10.954-14.316L117.151,247.596z M152.177,201.843l1.765,2.308l9.167,11.98
		l-30.202,39.48l-10.942-14.301L152.177,201.843z M253.217,110.924l30.214,39.464l-9.726,12.712l-0.748,0.979l-29.408-38.438
		l-0.796-1.04l7.196-9.407L253.217,110.924z M288.242,156.674l30.212,39.464l-10.483,13.707l-29.269-38.256l-0.935-1.221l4.53-5.92
		L288.242,156.674z M323.268,202.424l30.213,39.463l-4.856,6.353l-5.639,7.368l-30.204-39.479l9.558-12.493L323.268,202.424z
		 M423.528,333.389l-10.521,13.751l-30.203-39.478l10.511-13.736L423.528,333.389z M207.742,170.366l30.201-39.477l30.204,39.477
		l-0.936,1.221l-29.267,38.255l-29.267-38.255L207.742,170.366z M207.743,261.896l30.201-39.479l30.204,39.479l-30.203,39.479
		L207.743,261.896z M307.971,301.375l-30.203-39.479l30.202-39.479l30.203,39.479L307.971,301.375z M198.121,261.896l-30.205,39.479
		l-30.201-39.479l30.202-39.479L198.121,261.896z M163.108,307.665l-30.201,39.479l-30.202-39.479l30.202-39.479L163.108,307.665z
		 M202.932,268.186l30.202,39.478l-30.204,39.48l-30.201-39.479L202.932,268.186z M272.958,268.186l30.202,39.478l-30.202,39.478
		l-30.202-39.478L272.958,268.186z M342.983,268.186l30.203,39.478l-30.203,39.478l-30.202-39.478L342.983,268.186z
		 M303.159,216.131l-30.201,39.479l-30.203-39.479l22.891-29.917l7.312-9.56l7.312,9.56L303.159,216.131z M202.932,176.654
		l7.313,9.56l22.889,29.917l-30.201,39.479l-30.202-39.479l22.889-29.917L202.932,176.654z M377.995,301.375l-30.203-39.479
		l10.498-13.724l30.212,39.466L377.995,301.375z M187.201,156.093l10.92,14.273l-0.935,1.221l-29.269,38.255l-10.93-14.284
		L187.201,156.093z M69.07,355.234l-1.379-1.805l30.203-39.479l30.202,39.479l-1.379,1.805H69.07z M139.095,355.234l-1.379-1.805
		l30.201-39.479l30.204,39.479l-1.379,1.805H139.095z M209.121,355.234l-1.379-1.805l30.204-39.479l30.202,39.478l-1.382,1.808
		L209.121,355.234L209.121,355.234z M279.151,355.234l-1.384-1.808l30.203-39.478l30.202,39.478l-1.382,1.808H279.151z
		 M349.177,355.234l-1.383-1.808l30.202-39.478l30.203,39.478l-1.381,1.808H349.177z M419.202,355.234l-1.383-1.808l8.136-10.635
		l2.386-3.119l11.913,15.562H419.202L419.202,355.234z M237.499,90.393l10.905,14.247l-9.362,12.238l-1.1,1.436l-10.905-14.255
		L237.499,90.393z M222.226,110.343l10.907,14.257l-30.201,39.478l-10.919-14.272L222.226,110.343z M47.101,339.095l10.969,14.336
		l-1.379,1.805H34.747L47.101,339.095z M467.359,387.07H7.64v-24.195h19.369h31.569h8.604h61.42h8.604h61.421h8.604h61.421h8.609
		h61.415h8.611h61.415h8.61h30.675h19.369v24.195H467.359z"/>
</g>
<g>
</g>
<g>
</g>
<g>
</g>
<g>
</g>
<g>
</g>
<g>
</g>
<g>
</g>
<g>
</g>
<g>
</g>
<g>
</g>
<g>
</g>
<g>
</g>
<g>
</g>
<g>
</g>
<g>
</g>
</svg>
