<?xml version="1.0" encoding="utf-8"?>
<!-- Generator: Adobe Illustrator 16.0.4, SVG Export Plug-In . SVG Version: 6.00 Build 0)  -->
<!DOCTYPE svg PUBLIC "-//W3C//DTD SVG 1.1//EN" "http://www.w3.org/Graphics/SVG/1.1/DTD/svg11.dtd">
<svg version="1.1" id="Layer_1" xmlns="http://www.w3.org/2000/svg" xmlns:xlink="http://www.w3.org/1999/xlink" x="0px" y="0px"
	 width="32px" height="32px" viewBox="0 0 32 32" enable-background="new 0 0 32 32" xml:space="preserve">
<path d="M22.307,16.441c-0.682-0.917-1.551-1.61-2.516-2.106c-0.486-0.246-0.996-0.449-1.575-0.576
	c-0.226-0.049-0.44-0.076-0.647-0.09l-0.061-2.733c0-0.071,0-0.143,0-0.213c0.083-0.052,0.167-0.104,0.249-0.156
	c0.83-0.529,1.619-1.078,2.396-1.736c0.768-0.659,1.539-1.406,2.119-2.464c0.57-1.073,0.812-2.344,0.444-3.669
	c-0.348-1.306-1.603-2.523-3.161-2.561c-0.764-0.031-1.531,0.251-2.086,0.699c-0.283,0.223-0.515,0.475-0.705,0.748
	c-0.138,0.205-0.257,0.338-0.41,0.601c-0.635,1.021-0.929,2.054-1.072,3.092c-0.137,1.024-0.14,2.002-0.098,2.94l0.021,0.532
	c-1.22,0.686-2.512,1.395-3.745,2.259c-0.807,0.562-1.608,1.19-2.342,1.971c-0.73,0.772-1.398,1.727-1.78,2.853
	c-0.382,1.129-0.464,2.333-0.235,3.484c0.186,1.045,0.605,2.129,1.216,3.068c1.228,1.926,3.274,3.161,5.348,3.637
	c0.691,0.148,1.392,0.236,2.097,0.252l0.037,1.233c0.002,0.042,0.004,0.089,0.01,0.132c0.014,0.104,0.027,0.299,0.027,0.448
	c0.001,0.161-0.005,0.321-0.021,0.476c-0.03,0.308-0.1,0.59-0.197,0.797c-0.101,0.209-0.208,0.314-0.332,0.389
	c-0.066,0.033-0.148,0.061-0.246,0.08c-0.053,0.005-0.103,0.018-0.166,0.018c-0.007,0-0.061,0.002-0.063,0.002l-0.128-0.007
	l-0.143-0.01l-0.069-0.017c-0.042-0.006-0.096-0.018-0.164-0.037c-0.124-0.03-0.246-0.078-0.354-0.135
	c-0.22-0.109-0.397-0.262-0.498-0.41c-0.102-0.152-0.14-0.291-0.132-0.463c0.005-0.086,0.015-0.182,0.059-0.287
	c0.025-0.104,0.098-0.219,0.149-0.334l0.071-0.158c0.233-0.523,0.013-1.143-0.506-1.397c-0.532-0.262-1.173-0.043-1.435,0.488
	c-0.119,0.241-0.244,0.47-0.322,0.75c-0.091,0.261-0.143,0.565-0.15,0.869c-0.025,0.614,0.181,1.269,0.538,1.755
	c0.354,0.493,0.82,0.84,1.306,1.074c0.244,0.119,0.496,0.209,0.753,0.271c0.208,0.065,0.645,0.118,0.789,0.118l0.148,0.008
	c0.158,0.004,0.162-0.003,0.251-0.004c0.135-0.002,0.281-0.023,0.423-0.044c0.288-0.053,0.587-0.144,0.87-0.293
	c0.574-0.303,1.002-0.824,1.237-1.327c0.239-0.508,0.342-1.005,0.393-1.48c0.025-0.237,0.035-0.473,0.035-0.703
	c-0.004-0.221-0.01-0.406-0.037-0.651l-0.033-1.333c0.721-0.146,1.432-0.378,2.121-0.711c0.504-0.251,0.996-0.562,1.439-0.967
	c0.432-0.375,0.899-0.979,1.131-1.439c0.492-0.947,0.87-2.05,0.857-3.242C23.417,18.543,22.99,17.35,22.307,16.441z M17.602,5.619
	c0.115-0.78,0.39-1.537,0.74-2.07c0.074-0.138,0.262-0.353,0.385-0.526c0.074-0.102,0.164-0.186,0.246-0.242
	c0.168-0.118,0.321-0.155,0.479-0.142c0.313,0.025,0.664,0.306,0.771,0.775c0.118,0.456,0.014,1.133-0.306,1.658
	c-0.485,0.821-1.419,1.607-2.453,2.311C17.475,6.766,17.512,6.172,17.602,5.619z M14.35,23.217
	c-1.486-0.377-2.792-1.221-3.536-2.432c-0.375-0.608-0.639-1.271-0.763-2.037c-0.112-0.654-0.086-1.346,0.123-1.956
	c0.397-1.249,1.586-2.395,2.978-3.373c0.689-0.488,1.419-0.936,2.175-1.386l0.062,1.893c-0.693,0.199-1.353,0.506-1.972,0.924
	c-0.461,0.325-0.899,0.731-1.247,1.253c-0.175,0.27-0.316,0.518-0.438,0.909c-0.027,0.088-0.061,0.195-0.076,0.264l-0.029,0.17
	l-0.041,0.254l-0.013,0.246c-0.041,0.662,0.192,1.392,0.591,1.94c0.423,0.548,0.875,0.921,1.515,1.22
	c0.036,0.019,0.08,0.035,0.119,0.049c0.565,0.188,1.176-0.119,1.363-0.686c0.188-0.566-0.119-1.176-0.685-1.363l-0.01-0.002
	c-1.172-0.39-1.101-1.699,0.156-2.479c0.257-0.161,0.542-0.301,0.842-0.412l0.009,0.274l0.208,6.953
	C15.228,23.404,14.78,23.331,14.35,23.217z M20.902,19.716c-0.012,0.655-0.256,1.345-0.631,2.009
	c-0.209,0.344-0.334,0.459-0.595,0.69c-0.239,0.208-0.54,0.385-0.862,0.53c-0.32,0.144-0.662,0.257-1.019,0.34l-0.169-6.836
	l-0.01-0.483c0.029,0.007,0.062,0.014,0.088,0.023c0.318,0.08,0.667,0.227,0.994,0.408C20.037,17.134,20.979,18.423,20.902,19.716z"
	/>
</svg>
