<?xml version="1.0" encoding="iso-8859-1"?>
<!-- Generator: Adobe Illustrator 19.0.0, SVG Export Plug-In . SVG Version: 6.00 Build 0)  -->
<svg version="1.1" id="Layer_1" xmlns="http://www.w3.org/2000/svg" xmlns:xlink="http://www.w3.org/1999/xlink" x="0px" y="0px"
	 viewBox="0 0 330 330" style="enable-background:new 0 0 330 330;" xml:space="preserve">
<g id="XMLID_818_">
	<g>
		<path d="M165,10c-20,0-30-10-80-10c0,150,40,260,40,260v30c0,22.092,17.909,40,40,40s40-17.908,40-40v-30c0,0,40-110,40-260
			C195,0,185,10,165,10z M185,290c0,11.046-8.954,20-20,20s-20-8.954-20-20v-30h20h20V290z M198.205,196.41L185,170h-40
			l-13.205,26.41L116.121,32.156L165,110l48.879-77.844L198.205,196.41z"/>
	</g>
</g>
<g>
</g>
<g>
</g>
<g>
</g>
<g>
</g>
<g>
</g>
<g>
</g>
<g>
</g>
<g>
</g>
<g>
</g>
<g>
</g>
<g>
</g>
<g>
</g>
<g>
</g>
<g>
</g>
<g>
</g>
</svg>
