<?xml version="1.0" encoding="iso-8859-1"?>
<!-- Generator: Adobe Illustrator 18.0.0, SVG Export Plug-In . SVG Version: 6.00 Build 0)  -->
<!DOCTYPE svg PUBLIC "-//W3C//DTD SVG 1.1//EN" "http://www.w3.org/Graphics/SVG/1.1/DTD/svg11.dtd">
<svg version="1.1" id="Capa_1" xmlns="http://www.w3.org/2000/svg" xmlns:xlink="http://www.w3.org/1999/xlink" x="0px" y="0px"
	 viewBox="0 0 97.838 76.911" style="enable-background:new 0 0 97.838 76.911;" xml:space="preserve">
<path d="M89.436,21.785c-0.916-0.916-1.885-1.761-2.896-2.535c1.806-2.219,3.077-4.427,3.782-6.575
	c0.681-2.074,0.845-4.098,0.487-6.016c-0.619-3.322-2.584-5.141-2.806-5.338l-1.44-1.275l-1.492,1.212
	c-3.618,2.94-14.065,6.284-18.545,7.634c-6.138-1.658-17.105-1.975-17.586-1.975h-0.022h-0.022c-0.481,0-11.448,0.318-17.586,1.975
	c-4.48-1.349-14.926-4.787-18.545-7.727L11.274,0l-1.44,1.298C9.612,1.494,7.647,3.326,7.028,6.647
	c-0.357,1.918-0.193,3.948,0.487,6.022c0.705,2.148,1.977,4.359,3.782,6.578c-1.012,0.774-1.98,1.62-2.896,2.537
	C2.984,27.202,0,34.406,0,42.068s2.984,14.866,8.402,20.284c5.418,5.418,12.621,8.402,20.283,8.402c2.297,0,5.664-0.091,8.763-0.52
	c2.806,3.444,6.634,5.718,11.173,6.618l0.297,0.059l0.297-0.059c4.539-0.9,8.367-3.174,11.173-6.618
	c3.099,0.429,6.466,0.52,8.763,0.52c7.662,0,14.866-2.984,20.284-8.402c5.418-5.418,8.402-12.621,8.402-20.283
	S94.854,27.203,89.436,21.785z M90.798,37.694c0,10.011-8.145,18.156-18.156,18.156c-7.045,0-13.166-4.034-16.175-9.913
	c0.863-0.686,1.792-1.428,2.77-2.214c1.877,5.604,7.177,9.653,13.404,9.653c7.792,0,14.132-6.34,14.132-14.132
	c0-5.421-3.068-10.137-7.559-12.507c1.435-1.331,2.773-2.615,3.965-3.82C87.789,26.214,90.798,31.609,90.798,37.694z M71.278,45.986
	c3.138,0,5.69-2.553,5.69-5.69c0-3.137-2.553-5.69-5.69-5.69c-0.38,0-0.751,0.038-1.111,0.11c1.812-1.538,3.616-3.096,5.348-4.63
	c3.893,1.224,6.725,4.867,6.725,9.159c0,5.293-4.306,9.599-9.598,9.599c-4.845,0-8.862-3.608-9.507-8.278
	c0.929-0.76,1.881-1.542,2.845-2.341c-0.252,0.642-0.392,1.34-0.392,2.071C65.588,43.433,68.14,45.986,71.278,45.986z
	 M70.121,40.296c0-0.638,0.519-1.156,1.156-1.156c0.638,0,1.156,0.519,1.156,1.156c0,0.638-0.519,1.156-1.156,1.156
	C70.64,41.452,70.121,40.933,70.121,40.296z M48.919,11.824c0.471,0.006,8.007,0.115,13.596,1.036l-1.614,2.173L48.919,31.164
	L36.937,15.034l-1.614-2.173C40.911,11.939,48.448,11.83,48.919,11.824z M11.447,7.722c0.09-0.614,0.261-1.139,0.453-1.57
	c5.564,3.359,15.489,6.477,18.127,7.275c0.03,0.009,0.06,0.018,0.089,0.027l1.931,2.6l2.052,2.762l13.784,18.557l1.036,1.395
	l1.036-1.395l13.784-18.557l2.052-2.762l1.931-2.6c0.028-0.009,0.058-0.018,0.089-0.027c2.638-0.798,12.563-3.916,18.127-7.275
	c0.193,0.431,0.363,0.956,0.453,1.57c0.385,2.621-0.888,5.743-3.686,9.05c-0.099,0.117-0.199,0.234-0.302,0.351
	c-0.015,0.017-0.031,0.036-0.047,0.053c-0.815,0.928-1.79,1.951-2.886,3.042c-0.156,0.155-0.314,0.311-0.474,0.469
	c-1.443,1.417-3.075,2.938-4.819,4.51c-4.915,4.43-10.714,9.258-15.646,13.259c-1.292,1.048-2.524,2.039-3.665,2.951
	c-1.469,1.174-2.785,2.217-3.884,3.083c-0.817,0.643-1.515,1.19-2.064,1.619c-0.549-0.428-1.247-0.975-2.064-1.619
	c-1.1-0.866-2.416-1.909-3.884-3.083c-1.141-0.912-2.373-1.904-3.665-2.951c-4.932-4.001-10.731-8.829-15.646-13.259
	c-1.744-1.572-3.376-3.093-4.819-4.51c-0.16-0.158-0.318-0.314-0.474-0.469c-1.096-1.091-2.071-2.114-2.886-3.042
	c-0.015-0.017-0.032-0.036-0.047-0.053c-0.103-0.117-0.203-0.234-0.302-0.351C12.335,13.465,11.062,10.343,11.447,7.722z
	 M54.833,51.836c-0.644,1.529-1.915,4.283-3.915,6.584v-8.217c1-0.339,1.078-0.814,1.832-1.404
	C53.347,49.858,54.064,50.873,54.833,51.836z M46.919,50.202v8.217c-2-2.301-3.27-5.055-3.915-6.584
	c0.77-0.962,1.486-1.977,2.083-3.038C45.841,49.388,45.919,49.863,46.919,50.202z M26.56,34.606c-3.137,0-5.69,2.553-5.69,5.69
	c0,3.138,2.553,5.69,5.69,5.69c3.138,0,5.69-2.553,5.69-5.69c0-0.731-0.14-1.429-0.392-2.071c0.964,0.799,1.916,1.581,2.845,2.341
	c-0.646,4.67-4.663,8.278-9.507,8.278c-5.293,0-9.599-4.306-9.599-9.599c0-4.292,2.832-7.935,6.725-9.159
	c1.732,1.534,3.536,3.092,5.348,4.63C27.311,34.644,26.94,34.606,26.56,34.606z M27.716,40.296c0,0.638-0.519,1.156-1.156,1.156
	c-0.638,0-1.156-0.519-1.156-1.156c0-0.638,0.519-1.156,1.156-1.156C27.198,39.139,27.716,39.658,27.716,40.296z M14.657,22.918
	c1.192,1.204,2.53,2.489,3.965,3.82c-4.49,2.37-7.559,7.086-7.559,12.507c0,7.793,6.34,14.132,14.132,14.132
	c6.228,0,11.527-4.049,13.404-9.653c0.979,0.787,1.908,1.529,2.77,2.214c-3.009,5.879-9.129,9.913-16.175,9.913
	c-10.012,0-18.157-8.145-18.157-18.156C7.039,31.609,10.049,26.214,14.657,22.918z M86.23,59.146
	c-4.562,4.562-10.627,7.074-17.078,7.074c-1.648,0-3.875-0.049-6.104-0.248c0.924-1.987,1.235-3.467,1.253-3.554l-4.442-0.905
	l0.002-0.01c-0.005,0.023-0.514,2.344-2.221,4.843c-2.101,3.074-5.033,5.067-8.721,5.932c-3.688-0.865-6.621-2.858-8.721-5.932
	c-1.707-2.499-2.216-4.82-2.221-4.843l0.002,0.01l-4.442,0.905c0.018,0.087,0.329,1.568,1.253,3.554
	c-2.229,0.199-4.456,0.248-6.104,0.248c-6.451,0-12.516-2.512-17.078-7.074c-2.855-2.855-4.908-6.3-6.043-10.059
	c0.978,1.678,2.178,3.242,3.587,4.652c4.286,4.286,9.984,6.646,16.044,6.646c5.285,0,10.294-1.795,14.332-5.097
	c1.51,3.115,4.305,7.729,8.425,10.041l0.966,0.542l0.966-0.542c4.12-2.312,6.915-6.926,8.425-10.041
	c4.037,3.301,9.047,5.097,14.332,5.097c6.061,0,11.759-2.36,16.044-6.646c1.41-1.41,2.61-2.973,3.588-4.652
	C91.138,52.847,89.085,56.291,86.23,59.146z"/>
<g>
</g>
<g>
</g>
<g>
</g>
<g>
</g>
<g>
</g>
<g>
</g>
<g>
</g>
<g>
</g>
<g>
</g>
<g>
</g>
<g>
</g>
<g>
</g>
<g>
</g>
<g>
</g>
<g>
</g>
</svg>
