<?xml version="1.0" encoding="iso-8859-1"?>
<!-- Generator: Adobe Illustrator 18.1.1, SVG Export Plug-In . SVG Version: 6.00 Build 0)  -->
<svg version="1.1" id="Capa_1" xmlns="http://www.w3.org/2000/svg" xmlns:xlink="http://www.w3.org/1999/xlink" x="0px" y="0px"
	 viewBox="0 0 469.539 469.539" style="enable-background:new 0 0 469.539 469.539;" xml:space="preserve">
<g>
	<g>
		<path style="fill:#010002;" d="M420.54,281.216c-10.421,1.967-21.492,2.56-32.498,2.56c-19.614,0-41.862-2.073-65.419-4.268
			c-28.149-2.626-57.266-5.34-87.846-5.34c-30.588,0-59.696,2.715-87.845,5.34c-23.557,2.195-45.805,4.268-65.419,4.268
			c-10.6,0-21.24-0.577-31.319-2.374l33.343,180.072h303.619L420.54,281.216z M152.264,430.075
			c-0.788,0.114-1.569,0.171-2.349,0.171c-7.95,0-14.9-5.836-16.07-13.932l-11.64-80.538c-1.284-8.885,4.877-17.127,13.762-18.419
			c8.941-1.292,17.135,4.885,18.419,13.762l11.64,80.538C167.31,420.54,161.149,428.782,152.264,430.075z M259.155,406.266
			c0,8.974-7.283,16.257-16.257,16.257c-8.974,0-16.257-7.283-16.257-16.257v-81.367c0-8.974,7.283-16.257,16.257-16.257
			c8.974,0,16.257,7.283,16.257,16.257V406.266z M363.599,335.767l-11.64,80.538c-1.171,8.096-8.12,13.932-16.07,13.932
			c-0.772,0-1.553-0.057-2.349-0.171c-8.885-1.284-15.046-9.527-13.762-18.419l11.64-80.538c1.284-8.885,9.502-15.095,18.419-13.762
			C358.722,318.64,364.884,326.883,363.599,335.767z"/>
		<path style="fill:#010002;" d="M39.895,270.438c1.406,0.455,2.886,0.837,4.357,1.227c1.431,0.374,2.845,0.764,4.333,1.081
			c9.803,2.073,20.842,2.894,32.921,2.894c41.781,0,95.885-9.608,153.264-9.608c57.371,0,111.483,9.608,153.264,9.608
			c12.575,0,24.02-0.886,34.116-3.154c1.488-0.333,2.91-0.74,4.341-1.138c1.496-0.415,2.959-0.87,4.389-1.357
			c24.256-8.275,38.66-27.182,38.66-66.289c0-10.445-1.049-20.695-3.016-30.702c-2.122,0.837-4.414,1.333-6.836,1.333
			c-10.275,0-18.606-8.332-18.606-18.606c0-8.763,6.08-16.062,14.233-18.037C421.792,62.135,333.101,8.064,234.77,8.064
			c-72.921,0-140.502,29.759-184.267,75.937c6.69,6.332,10.917,15.233,10.917,25.166c0,19.175-15.542,34.717-34.717,34.717
			c-4.934,0-9.6-1.057-13.851-2.91C4.593,160.678,0,181.755,0,203.71C0,243.483,14.883,262.39,39.895,270.438z M351.845,155.735
			c19.175,0,34.717,15.542,34.717,34.717c0,7.43-2.374,14.274-6.348,19.923c-1.016,1.439-2.138,2.796-3.357,4.064
			c-1.439,1.496-3.024,2.837-4.706,4.064c-5.723,4.154-12.697,6.665-20.305,6.665c-7.608,0-14.583-2.52-20.305-6.665
			c-1.683-1.219-3.268-2.561-4.706-4.064c-1.219-1.268-2.341-2.626-3.357-4.064c-3.975-5.649-6.348-12.494-6.348-19.923
			C317.12,171.277,332.67,155.735,351.845,155.735z M302.204,63.826c10.275,0,18.606,8.332,18.606,18.606
			s-8.332,18.606-18.606,18.606c-10.275,0-18.606-8.332-18.606-18.606S291.922,63.826,302.204,63.826z M168.928,74.45
			c16.916,0,30.628,13.713,30.628,30.628s-13.713,30.628-30.628,30.628S138.3,121.994,138.3,105.078
			C138.291,88.163,152.012,74.45,168.928,74.45z M139.633,185.462c10.275,0,18.606,8.332,18.606,18.606
			c0,2.227-0.455,4.324-1.171,6.308c-0.52,1.439-1.146,2.821-1.992,4.064c-1.049,1.561-2.382,2.886-3.837,4.064
			c-3.195,2.569-7.194,4.17-11.608,4.17c-4.414,0-8.421-1.601-11.608-4.17c-1.463-1.179-2.788-2.504-3.837-4.064
			c-0.837-1.244-1.471-2.626-1.992-4.064c-0.715-1.975-1.171-4.081-1.171-6.308C121.018,193.793,129.35,185.462,139.633,185.462z"/>
	</g>
</g>
<g>
</g>
<g>
</g>
<g>
</g>
<g>
</g>
<g>
</g>
<g>
</g>
<g>
</g>
<g>
</g>
<g>
</g>
<g>
</g>
<g>
</g>
<g>
</g>
<g>
</g>
<g>
</g>
<g>
</g>
</svg>
