<?xml version="1.0" encoding="iso-8859-1"?>
<!-- Generator: Adobe Illustrator 16.0.0, SVG Export Plug-In . SVG Version: 6.00 Build 0)  -->
<!DOCTYPE svg PUBLIC "-//W3C//DTD SVG 1.1//EN" "http://www.w3.org/Graphics/SVG/1.1/DTD/svg11.dtd">
<svg version="1.1" id="Capa_1" xmlns="http://www.w3.org/2000/svg" xmlns:xlink="http://www.w3.org/1999/xlink" x="0px" y="0px"
	 width="497.795px" height="497.795px" viewBox="0 0 497.795 497.795" style="enable-background:new 0 0 497.795 497.795;"
	 xml:space="preserve">
<g>
	<g>
		<path d="M183.375,334.312l4.479-22.838c8.666-44.302,31.342-104.618,90.135-140.424l22.65-13.776L161.442,72.126
			c-16.659-10.211-35.784-15.605-55.274-15.605c-37.297,0-71.172,18.975-90.61,50.736c-30.521,49.913-14.749,115.354,35.155,145.893
			L183.375,334.312z M43.177,124.15c13.495-22.083,37.063-35.273,62.991-35.273c13.519,0,26.794,3.753,38.403,10.836l95.509,58.438
			c-45.963,36.638-68.086,86.614-78.7,124.749l-93.798-57.354C32.9,204.319,21.948,158.833,43.177,124.15z"/>
		<path d="M449.318,253.258l-124.435-76.133l-2.305,0.982c-14.507,6.209-26.978,13.95-37.986,22.562l119.838,73.156
			c4.532,2.785,5.972,8.703,3.183,13.24c-1.8,2.974-4.974,4.616-8.212,4.616c-1.707,0-3.435-0.444-5.021-1.41
			c0,0-122.915-75.895-123.697-77.528c-43.949,42.908-56.228,101.4-59.578,129.392l-0.375,3.089l132.692,81.139
			c15.945,9.767,34.224,14.912,52.846,14.912c35.67,0,68.046-18.146,86.637-48.522C512.106,345.031,497.026,282.451,449.318,253.258
			z"/>
	</g>
</g>
<g>
</g>
<g>
</g>
<g>
</g>
<g>
</g>
<g>
</g>
<g>
</g>
<g>
</g>
<g>
</g>
<g>
</g>
<g>
</g>
<g>
</g>
<g>
</g>
<g>
</g>
<g>
</g>
<g>
</g>
</svg>
