<?xml version="1.0" encoding="iso-8859-1"?>
<!-- Generator: Adobe Illustrator 18.0.0, SVG Export Plug-In . SVG Version: 6.00 Build 0)  -->
<!DOCTYPE svg PUBLIC "-//W3C//DTD SVG 1.1//EN" "http://www.w3.org/Graphics/SVG/1.1/DTD/svg11.dtd">
<svg version="1.1" id="Capa_1" xmlns="http://www.w3.org/2000/svg" xmlns:xlink="http://www.w3.org/1999/xlink" x="0px" y="0px"
	 viewBox="0 0 52 52" style="enable-background:new 0 0 52 52;" xml:space="preserve">
<g>
	<path d="M51,21.817h-4.136L44.652,6.681c-0.155-1.135-0.604-2.214-1.299-3.121c-1.601-2.088-4.46-2.904-7.104-2.029l-8.739,2.887
		c-0.966,0.317-2.022,0.306-2.98-0.039l-7.531-2.712c-1.786-0.644-3.765-0.498-5.433,0.397C9.99,2.908,8.894,4.305,8.479,5.993
		C8.424,6.217,8.381,6.447,8.35,6.672L6.136,21.817H1c-0.553,0-1,0.447-1,1s0.447,1,1,1h4.224c-0.032,0.1-0.067,0.194-0.096,0.305
		C3.313,25.096,2,27.233,2,29.317c0,2.153,1.269,4.089,3.208,4.979C7.704,44.05,16.386,50.817,26.5,50.817
		s18.796-6.767,21.292-16.521C49.731,33.405,51,31.47,51,29.317c0-2.084-1.313-4.221-3.129-5.195
		c-0.029-0.111-0.064-0.204-0.096-0.305H51c0.553,0,1-0.447,1-1S51.553,21.817,51,21.817z M9.034,15.817h34.932l0.877,6H8.157
		L9.034,15.817z M10.329,6.953c0.022-0.163,0.054-0.324,0.092-0.482c0.278-1.132,1.021-2.071,2.091-2.646
		c1.171-0.627,2.558-0.729,3.81-0.278l7.531,2.712c1.373,0.495,2.896,0.517,4.285,0.057l8.739-2.887
		c1.844-0.607,3.807-0.065,4.889,1.347c0.483,0.633,0.797,1.385,0.906,2.186l1.002,6.855H9.326L10.329,6.953z M49,29.317
		c0,1.486-0.956,2.812-2.38,3.296c-0.327,0.111-0.574,0.384-0.652,0.721C43.859,42.449,35.854,48.817,26.5,48.817
		S9.141,42.449,7.032,33.333c-0.078-0.337-0.325-0.609-0.652-0.721C4.956,32.128,4,30.803,4,29.317c0-1.449,1.063-3.051,2.369-3.571
		c0.322-0.128,0.556-0.413,0.615-0.755c0.115-0.649,0.302-1.007,0.409-1.174h38.202c0.125,0.182,0.308,0.539,0.42,1.174
		c0.06,0.342,0.293,0.627,0.615,0.755C47.937,26.266,49,27.867,49,29.317z"/>
	<path d="M34.076,28.847c-2.264,0-4.234,1.278-5.231,3.149c-0.636-0.539-1.448-0.876-2.345-0.876s-1.709,0.338-2.345,0.876
		c-0.997-1.871-2.967-3.149-5.231-3.149c-3.267,0-5.924,2.657-5.924,5.924s2.657,5.925,5.924,5.925s5.925-2.658,5.925-5.925
		c0-0.91,0.741-1.651,1.651-1.651s1.651,0.741,1.651,1.651c0,3.267,2.658,5.925,5.925,5.925S40,38.037,40,34.771
		S37.343,28.847,34.076,28.847z M18.924,38.696c-2.164,0-3.924-1.761-3.924-3.925s1.76-3.924,3.924-3.924s3.925,1.76,3.925,3.924
		S21.088,38.696,18.924,38.696z M34.076,38.696c-2.164,0-3.925-1.761-3.925-3.925s1.761-3.924,3.925-3.924S38,32.607,38,34.771
		S36.24,38.696,34.076,38.696z"/>
	<path d="M21.333,41.726c-0.553,0-1,0.447-1,1s0.447,1,1,1c5.81,0,8.849,1.321,8.849,2.03c0,0.553,0.447,1,1,1s1-0.447,1-1
		C32.182,41.92,23.145,41.726,21.333,41.726z"/>
	<path d="M18.855,26.439l4.546,2.272c0.144,0.071,0.296,0.105,0.446,0.105c0.367,0,0.721-0.202,0.896-0.553
		c0.247-0.494,0.047-1.095-0.447-1.342L19.75,24.65c-0.494-0.246-1.096-0.047-1.342,0.447
		C18.161,25.591,18.361,26.192,18.855,26.439z"/>
	<path d="M29.152,28.817c0.15,0,0.303-0.034,0.446-0.105l4.546-2.272c0.494-0.247,0.694-0.848,0.447-1.342
		c-0.246-0.494-0.847-0.693-1.342-0.447l-4.546,2.272c-0.494,0.247-0.694,0.848-0.447,1.342
		C28.432,28.614,28.785,28.817,29.152,28.817z"/>
</g>
<g>
</g>
<g>
</g>
<g>
</g>
<g>
</g>
<g>
</g>
<g>
</g>
<g>
</g>
<g>
</g>
<g>
</g>
<g>
</g>
<g>
</g>
<g>
</g>
<g>
</g>
<g>
</g>
<g>
</g>
</svg>
