<?xml version="1.0" encoding="utf-8"?>
<!-- Generator: Adobe Illustrator 16.0.4, SVG Export Plug-In . SVG Version: 6.00 Build 0)  -->
<!DOCTYPE svg PUBLIC "-//W3C//DTD SVG 1.1//EN" "http://www.w3.org/Graphics/SVG/1.1/DTD/svg11.dtd">
<svg version="1.1" id="Capa_1" xmlns="http://www.w3.org/2000/svg" xmlns:xlink="http://www.w3.org/1999/xlink" x="0px" y="0px"
	 width="16.031px" height="18.27px" viewBox="0 0 16.031 18.27" enable-background="new 0 0 16.031 18.27" preserveAspectRatio="fit">
<path d="M15.338,17.535V16.76h-0.412l-1.181-4.225c0.465-0.227,0.784-0.699,0.784-1.25c0-0.6-0.381-1.109-0.912-1.305l0.499-2.762
	c0.74-0.15,1.293-0.803,1.293-1.584c0-0.896-0.726-1.621-1.62-1.621c-0.364,0-0.697,0.123-0.967,0.324l-3.265-2.23
	c0.071-0.18,0.11-0.371,0.11-0.573c0.001-0.848-0.684-1.533-1.528-1.533c-0.847,0-1.533,0.686-1.533,1.533
	c0,0.194,0.041,0.387,0.109,0.559L3.445,4.329C3.178,4.134,2.85,4.016,2.494,4.016c-0.007,0-0.015-0.006-0.021-0.006
	c-0.021,0-0.038,0.01-0.058,0.012c-0.859,0.037-1.546,0.74-1.546,1.613c0,0.764,0.53,1.402,1.24,1.57l0.5,2.761
	c-0.551,0.186-0.948,0.703-0.948,1.318c0,0.471,0.235,0.887,0.595,1.139L1.045,16.76H0.622v0.775H0v0.734h16.031v-0.734H15.338z
	 M13.625,7.245l-0.479,2.65H13.14c-0.367,0-0.699,0.141-0.945,0.373l-2.65-1.469l2.979-2.154C12.791,6.973,13.182,7.2,13.625,7.245z
	 M9.385,7.934l1.45-0.653l-1.396,1.01C9.438,8.165,9.417,8.046,9.385,7.934z M8.244,11.578c0.021-0.002,0.035-0.002,0.053-0.002
	c0.02,0.229,0.102,1.111,0.197,2.117c-0.078-0.023-0.162-0.043-0.25-0.053V11.578z M8.804,13.83l-0.197-2.312
	C9.34,11.313,9.88,10.641,9.88,9.84c0-0.111-0.01-0.22-0.03-0.33l2.053,1.14c-0.097,0.189-0.154,0.404-0.154,0.637
	c0,0.24,0.062,0.471,0.17,0.672l-2.773,2.145C9.044,13.996,8.93,13.906,8.804,13.83z M12.481,4.68
	c-0.194,0.271-0.311,0.598-0.311,0.955c0,0.17,0.027,0.334,0.076,0.488l-2.959,1.33C9.164,7.007,8.804,6.659,8.35,6.55V3.048
	C8.735,2.995,9.077,2.8,9.314,2.516L12.481,4.68z M6.957,2.505C7.185,2.782,7.506,2.975,7.875,3.04v3.487
	C7.403,6.594,7.016,6.911,6.849,7.344L4.043,6.081C4.085,5.939,4.107,5.79,4.107,5.635c0-0.363-0.122-0.697-0.319-0.965L6.957,2.505
	z M6.756,7.823C6.711,7.936,6.681,8.057,6.668,8.182L5.199,7.122L6.756,7.823z M2.605,7.247c0.457-0.031,0.862-0.254,1.138-0.593
	l2.989,2.162C6.684,8.884,6.64,8.95,6.6,9.021l-2.479,1.375c-0.25-0.301-0.621-0.492-1.039-0.5L2.605,7.247z M6.972,16.338
	l-1.174,0.404v0.793H2.454V16.76H2.148l0.168-0.811c0.004-0.012,0.007-0.021,0.007-0.031v-0.002l0.661-3.244
	c0.021,0.002,0.044,0.006,0.066,0.006c0.36,0,0.688-0.139,0.936-0.365l2.741,2.117c-0.108,0.209-0.171,0.443-0.171,0.695
	c0,0.408,0.167,0.777,0.429,1.049L6.972,16.338z M7.178,13.91c-0.06,0.041-0.113,0.088-0.167,0.139l-2.729-2.115
	c0.103-0.191,0.16-0.414,0.16-0.646c0-0.168-0.032-0.328-0.085-0.48l2.048-1.133C6.398,9.729,6.396,9.785,6.396,9.84
	c0,0.693,0.404,1.293,0.993,1.572L7.178,13.91z M7.724,13.664c-0.079,0.018-0.159,0.041-0.234,0.072
	c0.102-1.07,0.19-2.01,0.206-2.189h0.029L7.724,13.664L7.724,13.664z M13.51,16.76v0.775h-3.134v-0.793L9.011,16.27
	c0.327-0.271,0.537-0.686,0.537-1.145c0-0.227-0.052-0.438-0.138-0.625l2.809-2.172c0.21,0.184,0.475,0.309,0.767,0.34l0.667,3.266
	c-0.001,0.002-0.001,0.004-0.001,0.006c0,0.012,0.002,0.027,0.01,0.037l0.162,0.785H13.51V16.76z"/>
</svg>
