<?xml version="1.0" encoding="iso-8859-1"?>
<!-- Generator: Adobe Illustrator 18.0.0, SVG Export Plug-In . SVG Version: 6.00 Build 0)  -->
<!DOCTYPE svg PUBLIC "-//W3C//DTD SVG 1.1//EN" "http://www.w3.org/Graphics/SVG/1.1/DTD/svg11.dtd">
<svg version="1.1" id="Capa_1" xmlns="http://www.w3.org/2000/svg" xmlns:xlink="http://www.w3.org/1999/xlink" x="0px" y="0px"
	 viewBox="0 0 89.536 95.092" style="enable-background:new 0 0 89.536 95.092;" preserveAspectRatio="fit">
<g>
	<path d="M58.848,14.114c-5.308,0-10.293,2.035-14.044,5.663c-3.75-3.627-8.735-5.663-14.043-5.663
		c-11.157,0-20.234,9.077-20.234,20.234c0,1.585,0.186,3.167,0.552,4.704c0.921,5.682,3.02,13.919,7.79,21.081
		c2.793,4.193,6.184,7.496,10.078,9.818c4.602,2.744,9.938,4.136,15.857,4.136c5.92,0,11.255-1.391,15.857-4.136
		c3.894-2.322,7.285-5.625,10.078-9.818c4.771-7.161,6.869-15.399,7.79-21.081c0.366-1.536,0.552-3.119,0.552-4.704
		C79.082,23.191,70.005,14.114,58.848,14.114z M22.832,57.493c-4.549-6.83-6.38-15.016-7.067-19.287l-0.015-0.093l-0.022-0.092
		c-0.292-1.198-0.439-2.433-0.439-3.672c0-8.531,6.999-15.472,15.53-15.472c4.648,0,8.985,2.042,11.985,5.617v24.639
		c-1-1.94-1.661-3.402-2.036-4.162L40.709,37h-0.005c0.028-2-1.054-3.525-3.113-4.519c-3.83-1.849-8.754-1.667-12.872-1.097
		c-0.276,0.038-3.8,0.781-3.704,0.969l2.164,4.234c0.645-0.329,2.166-0.562,3.894-0.684c0.083,0.245,0.193,0.499,0.334,0.766
		c0.357,0.673,0.903,1.383,1.622,2.113c1.187,1.205,2.774,2.379,4.043,2.992c0.85,0.41,1.623,0.618,2.438,0.619
		c0.123,0,0.293-0.005,0.293-0.015v3.657l0.328,0.506c0.046,0.09,4.61,9.082,6.329,15.804l1.8,6.972
		C35.16,69.17,27.964,65.196,22.832,57.493z M35.915,36.935c-0.02,0.062-0.053,0.146-0.105,0.254
		c-0.116,0.239-0.22,0.374-0.279,0.434c-0.065-0.011-0.191-0.044-0.387-0.139c-0.668-0.322-1.462-0.9-2.133-1.489
		c0.979,0.159,1.953,0.441,2.509,0.709C35.715,36.799,35.839,36.879,35.915,36.935z M73.88,38.02l-0.022,0.092l-0.015,0.093
		c-0.686,4.272-2.517,12.458-7.067,19.287C61.645,65.196,54.43,69.17,45.329,69.317l1.782-6.972
		c1.718-6.722,6.319-15.714,6.365-15.804l0.328-0.507v-3.657c0,0.009,0.171,0.014,0.294,0.014c0.815,0,1.623-0.208,2.474-0.619
		c1.269-0.613,2.839-1.788,4.025-2.992c0.719-0.729,1.255-1.44,1.613-2.114c0.143-0.269,0.248-0.527,0.332-0.773
		c2.02,0.15,3.417,0.443,3.891,0.685l2.163-4.242c-2.156-0.742-4.097-1.078-6.067-1.207c-3.321-0.217-7.419-0.141-10.51,1.351
		C49.958,33.475,48.877,35,48.905,37H48.9l-0.06,7.97c-0.374,0.759-1.036,2.221-2.036,4.162V24.493
		c3-3.574,7.337-5.617,11.985-5.617c8.531,0,15.501,6.94,15.501,15.472C74.29,35.587,74.172,36.823,73.88,38.02z M53.694,36.935
		c0.076-0.057,0.2-0.136,0.395-0.23c0.556-0.269,1.53-0.55,2.509-0.709c-0.671,0.589-1.465,1.167-2.133,1.489
		c-0.197,0.095-0.323,0.128-0.387,0.139c-0.059-0.061-0.163-0.195-0.279-0.434C53.747,37.081,53.714,36.997,53.694,36.935z"/>
	<path d="M89.263,85.844c-0.031-0.209-3.148-21.216-3.148-48.273c0-5.113-1.002-10.073-2.978-14.745
		c-1.908-4.511-4.639-8.562-8.117-12.039c-3.478-3.478-7.529-6.055-12.04-7.963C58.309,0.848,53.348,0,48.236,0h-6.862
		C36.261,0,31.3,0.848,26.628,2.824c-4.511,1.908-8.562,4.562-12.039,8.04c-3.478,3.478-6.209,7.49-8.117,12.001
		c-1.976,4.671-2.978,9.613-2.978,14.726c0,27.057-3.117,48.054-3.148,48.263L0,88.145l2.287,0.401
		c0.113,0.02,2.812,0.488,6.228,0.488c3.504,0,6.478-0.491,8.859-1.446c-0.43,1.253-1.034,2.67-1.883,4.199l-1.921,3.305L17.535,95
		c0,0,0.052,0,0.151,0c0.848,0,5.316,0.091,9.959-1.316c3.825-1.159,6.819-2.856,8.887-5.168c0.064,0.133,0.13,0.306,0.198,0.439
		c1.715,3.321,4.349,5.385,7.618,5.986l0.43,0.06h0.026l0.026,0.037l0.43-0.063c3.269-0.601,5.903-2.666,7.618-5.987
		c0.069-0.133,0.135-0.262,0.199-0.395c2.068,2.312,5.061,3.93,8.886,5.089C66.607,95.089,71.074,95,71.923,95
		c0.099,0,0.151,0,0.151,0l3.982,0.091l-1.942-3.392c-0.855-1.529-1.606-2.905-2.036-4.158c2.383,0.959,5.727,1.471,8.727,1.471
		v0.01c4,0,6.259-0.464,6.373-0.484l2.359-0.401L89.263,85.844z M81.095,84.27L81.095,84.27c-3.075,0-8.488-0.464-10.198-3.567
		l-3.836-6.962l-0.623,7.924c-0.12,1.526,0.18,4.72,1.708,8.619c-4.569-0.591-11.818-2.442-13.343-8.233
		c-0.283-1.076-1.257-1.828-2.37-1.828c-1.226,0-2.271,0.917-2.43,2.133c-0.096,0.736-0.422,2.644-1.356,4.453
		c-0.964,1.866-2.224,2.984-3.843,3.407c-1.619-0.422-2.879-1.541-3.843-3.407c-0.934-1.809-1.259-3.717-1.356-4.454
		c-0.159-1.216-1.204-2.132-2.43-2.132c-1.112,0-2.086,0.751-2.37,1.827c-1.526,5.796-8.785,7.646-13.353,8.235
		c1.522-3.895,1.831-7.084,1.72-8.607l-0.586-8.006l-3.874,7.031c-1.71,3.104-7.123,3.567-10.197,3.567
		c-1.169,0-2.248-0.064-3.13-0.141c0.818-6.344,2.871-24.475,2.871-46.558c0-8.846,3.445-17.389,9.7-23.644
		C24.211,7.672,32.528,4,41.373,4h6.862c8.846,0,17.162,3.672,23.417,9.927c6.255,6.255,9.7,14.685,9.7,23.531
		c0,22.083,2.054,40.271,2.872,46.615C83.342,84.15,82.263,84.27,81.095,84.27z"/>
</g>
<g>
</g>
<g>
</g>
<g>
</g>
<g>
</g>
<g>
</g>
<g>
</g>
<g>
</g>
<g>
</g>
<g>
</g>
<g>
</g>
<g>
</g>
<g>
</g>
<g>
</g>
<g>
</g>
<g>
</g>
</svg>
