<?xml version="1.0" encoding="iso-8859-1"?>
<!-- Generator: Adobe Illustrator 19.0.0, SVG Export Plug-In . SVG Version: 6.00 Build 0)  -->
<svg version="1.1" id="Capa_1" xmlns="http://www.w3.org/2000/svg" xmlns:xlink="http://www.w3.org/1999/xlink" x="0px" y="0px"
	 viewBox="0 0 46 46" style="enable-background:new 0 0 46 46;" xml:space="preserve">
<g>
	<g>
		<path d="M31.25,44c-11.579,0-21-9.421-21-21s9.421-21,21-21c0.553,0,1-0.447,1-1s-0.447-1-1-1c-12.683,0-23,10.317-23,23
			s10.317,23,23,23c0.553,0,1-0.447,1-1S31.803,44,31.25,44z"/>
		<path d="M31.25,36c-7.168,0-13-5.832-13-13s5.832-13,13-13c0.553,0,1-0.447,1-1s-0.447-1-1-1c-8.271,0-15,6.729-15,15
			s6.729,15,15,15c0.553,0,1-0.447,1-1S31.803,36,31.25,36z"/>
		<path d="M36.435,29.051c-0.053,0.018-5.399,1.749-8.466-0.469C26.496,27.519,25.75,25.641,25.75,23s0.746-4.519,2.219-5.582
			c3.066-2.217,8.413-0.486,8.466-0.469c0.527,0.173,1.091-0.111,1.264-0.634c0.174-0.524-0.108-1.09-0.632-1.264
			c-0.26-0.087-6.36-2.075-10.263,0.74C24.778,17.253,23.75,19.678,23.75,23s1.027,5.747,3.054,7.208
			c1.604,1.156,3.579,1.502,5.367,1.502c2.563-0.001,4.743-0.711,4.896-0.762c0.523-0.174,0.806-0.739,0.632-1.264
			C37.526,29.162,36.963,28.878,36.435,29.051z"/>
	</g>
</g>
<g>
</g>
<g>
</g>
<g>
</g>
<g>
</g>
<g>
</g>
<g>
</g>
<g>
</g>
<g>
</g>
<g>
</g>
<g>
</g>
<g>
</g>
<g>
</g>
<g>
</g>
<g>
</g>
<g>
</g>
</svg>
