<?xml version="1.0" encoding="iso-8859-1"?>
<!-- Generator: Adobe Illustrator 19.0.0, SVG Export Plug-In . SVG Version: 6.00 Build 0)  -->
<svg version="1.1" id="Capa_1" xmlns="http://www.w3.org/2000/svg" xmlns:xlink="http://www.w3.org/1999/xlink" x="0px" y="0px"
	 viewBox="0 0 463 463" style="enable-background:new 0 0 463 463;" xml:space="preserve">
<g>
	<path d="M359,231.5c0-47.2-25.781-88.49-64-110.532V7.5c0-4.142-3.358-7.5-7.5-7.5h-112c-4.142,0-7.5,3.358-7.5,7.5v113.468
		C129.781,143.01,104,184.3,104,231.5s25.781,88.49,64,110.532V392h-0.5c-4.142,0-7.5,3.358-7.5,7.5s3.358,7.5,7.5,7.5h0.5v48.5
		c0,4.142,3.358,7.5,7.5,7.5h112c4.142,0,7.5-3.358,7.5-7.5V407h0.5c4.142,0,7.5-3.358,7.5-7.5s-3.358-7.5-7.5-7.5H295v-49.968
		C333.219,319.99,359,278.7,359,231.5z M183,15h97v98.593c-14.959-6.176-31.337-9.593-48.5-9.593s-33.541,3.417-48.5,9.593V15z
		 M119,231.5c0-62.033,50.467-112.5,112.5-112.5S344,169.467,344,231.5S293.533,344,231.5,344S119,293.533,119,231.5z M280,448h-97
		v-41h97V448z M280,392h-97v-42.593c14.959,6.176,31.337,9.593,48.5,9.593s33.541-3.417,48.5-9.593V392z"/>
	<path d="M327,231.5c0-52.659-42.841-95.5-95.5-95.5S136,178.841,136,231.5s42.841,95.5,95.5,95.5S327,284.159,327,231.5z
		 M180.507,293.738l37.613-25.076c4.181,1.51,8.685,2.337,13.38,2.337s9.199-0.827,13.38-2.337l37.613,25.076
		C268.599,305.143,250.836,312,231.5,312C212.164,312,194.401,305.143,180.507,293.738z M183,235.59V167.5
		c0-0.065-0.008-0.127-0.01-0.191c7.439-5.636,15.881-10.009,25.01-12.801v45.265c-9.214,6.843-15.357,17.596-15.951,29.784
		L183,235.59z M293.355,282.952l-34.499-22.999c4.096-3.94,7.344-8.75,9.446-14.134l34.493,22.995
		C300.142,273.864,296.979,278.604,293.355,282.952z M280,235.59l-9.049-6.033c-0.593-12.188-6.737-22.942-15.951-29.784v-45.265
		c9.125,2.791,17.563,7.161,25,12.793V235.59z M256,231.5c0,13.509-10.991,24.5-24.5,24.5S207,245.009,207,231.5
		s10.991-24.5,24.5-24.5S256,217.991,256,231.5z M312,231.5c0,8.046-1.201,15.814-3.409,23.151L295,245.59v-63.479
		C305.639,195.759,312,212.895,312,231.5z M240,151.452v41.479c-2.74-0.603-5.582-0.931-8.5-0.931s-5.76,0.328-8.5,0.931v-41.479
		c2.794-0.295,5.629-0.452,8.5-0.452S237.206,151.158,240,151.452z M168,182.111v63.479l-13.591,9.061
		C152.201,247.314,151,239.546,151,231.5C151,212.895,157.361,195.759,168,182.111z M160.205,268.815l34.493-22.995
		c2.102,5.383,5.35,10.194,9.446,14.134l-34.499,22.999C166.022,278.604,162.858,273.864,160.205,268.815z"/>
	<path d="M220,231.5c0,6.341,5.159,11.5,11.5,11.5s11.5-5.159,11.5-11.5s-5.159-11.5-11.5-11.5S220,225.159,220,231.5z"/>
	<path d="M207.5,431h8c4.142,0,7.5-3.358,7.5-7.5s-3.358-7.5-7.5-7.5h-8c-4.142,0-7.5,3.358-7.5,7.5S203.358,431,207.5,431z"/>
	<path d="M247.5,431h8c4.142,0,7.5-3.358,7.5-7.5s-3.358-7.5-7.5-7.5h-8c-4.142,0-7.5,3.358-7.5,7.5S243.358,431,247.5,431z"/>
</g>
<g>
</g>
<g>
</g>
<g>
</g>
<g>
</g>
<g>
</g>
<g>
</g>
<g>
</g>
<g>
</g>
<g>
</g>
<g>
</g>
<g>
</g>
<g>
</g>
<g>
</g>
<g>
</g>
<g>
</g>
</svg>
