<?xml version="1.0" encoding="iso-8859-1"?>
<!-- Generator: Adobe Illustrator 18.1.1, SVG Export Plug-In . SVG Version: 6.00 Build 0)  -->
<svg version="1.1" id="Capa_1" xmlns="http://www.w3.org/2000/svg" xmlns:xlink="http://www.w3.org/1999/xlink" x="0px" y="0px"
	 viewBox="0 0 18.268 18.268" style="enable-background:new 0 0 18.268 18.268;" xml:space="preserve">
<g>
	<path d="M16.457,17.534v-0.775h-0.412l-1.181-4.225c0.465-0.227,0.784-0.699,0.784-1.25c0-0.6-0.381-1.109-0.912-1.305l0.499-2.762
		c0.74-0.15,1.293-0.803,1.293-1.584c0-0.896-0.726-1.621-1.62-1.621c-0.364,0-0.697,0.123-0.967,0.324l-3.265-2.23
		c0.071-0.18,0.11-0.371,0.11-0.573C10.787,0.685,10.102,0,9.258,0C8.411,0,7.725,0.686,7.725,1.533
		c0,0.194,0.041,0.387,0.109,0.559l-3.27,2.236C4.296,4.133,3.968,4.015,3.612,4.015c-0.007,0-0.015-0.006-0.021-0.006
		c-0.021,0-0.038,0.01-0.058,0.012c-0.859,0.037-1.546,0.74-1.546,1.613c0,0.764,0.53,1.402,1.24,1.57l0.5,2.761
		c-0.551,0.186-0.948,0.703-0.948,1.318c0,0.471,0.235,0.887,0.595,1.139l-1.211,4.337H1.74v0.775H1.118v0.734h16.031v-0.734H16.457
		z M14.743,7.244l-0.479,2.65h-0.006c-0.367,0-0.699,0.141-0.945,0.373l-2.65-1.469l2.979-2.154
		C13.91,6.972,14.3,7.199,14.743,7.244z M10.503,7.933l1.45-0.653l-1.396,1.01C10.556,8.164,10.535,8.045,10.503,7.933z
		 M9.363,11.577c0.021-0.002,0.035-0.002,0.053-0.002c0.02,0.229,0.102,1.111,0.197,2.117c-0.078-0.023-0.162-0.043-0.25-0.053
		V11.577z M9.922,13.829l-0.197-2.312c0.733-0.205,1.273-0.877,1.273-1.678c0-0.111-0.01-0.22-0.03-0.33l2.053,1.14
		c-0.097,0.189-0.154,0.404-0.154,0.637c0,0.24,0.062,0.471,0.17,0.672l-2.773,2.145C10.162,13.995,10.049,13.905,9.922,13.829z
		 M13.599,4.679c-0.194,0.271-0.311,0.598-0.311,0.955c0,0.17,0.027,0.334,0.076,0.488l-2.959,1.33
		c-0.123-0.446-0.483-0.794-0.937-0.903V3.047c0.385-0.053,0.727-0.248,0.964-0.532L13.599,4.679z M8.075,2.504
		c0.228,0.277,0.549,0.47,0.918,0.535v3.487C8.521,6.593,8.134,6.91,7.967,7.343L5.161,6.08c0.042-0.142,0.064-0.291,0.064-0.446
		c0-0.363-0.122-0.697-0.319-0.965L8.075,2.504z M7.874,7.822C7.829,7.935,7.799,8.056,7.786,8.181l-1.469-1.06L7.874,7.822z
		 M3.723,7.246c0.457-0.031,0.862-0.254,1.138-0.593l2.989,2.162C7.802,8.883,7.758,8.949,7.718,9.02l-2.479,1.375
		c-0.25-0.301-0.621-0.492-1.039-0.5L3.723,7.246z M8.09,16.337l-1.174,0.404v0.793H3.572v-0.775H3.266l0.168-0.811
		c0.004-0.012,0.007-0.021,0.007-0.031v-0.002l0.661-3.244c0.021,0.002,0.044,0.006,0.066,0.006c0.36,0,0.688-0.139,0.936-0.365
		l2.741,2.117c-0.108,0.209-0.171,0.443-0.171,0.695c0,0.408,0.167,0.777,0.429,1.049L8.09,16.337z M8.296,13.909
		c-0.06,0.041-0.113,0.088-0.167,0.139L5.4,11.933c0.103-0.191,0.16-0.414,0.16-0.646c0-0.168-0.032-0.328-0.085-0.48l2.048-1.133
		c-0.007,0.054-0.009,0.11-0.009,0.165c0,0.693,0.404,1.293,0.993,1.572L8.296,13.909z M8.842,13.663
		c-0.079,0.018-0.159,0.041-0.234,0.072c0.102-1.07,0.19-2.01,0.206-2.189h0.029L8.842,13.663L8.842,13.663z M14.628,16.759v0.775
		h-3.134v-0.793l-1.365-0.472c0.327-0.271,0.537-0.686,0.537-1.145c0-0.227-0.052-0.438-0.138-0.625l2.809-2.172
		c0.21,0.184,0.475,0.309,0.767,0.34l0.667,3.266c-0.001,0.002-0.001,0.004-0.001,0.006c0,0.012,0.002,0.027,0.01,0.037l0.162,0.785
		h-0.314V16.759z"/>
</g>
<g>
</g>
<g>
</g>
<g>
</g>
<g>
</g>
<g>
</g>
<g>
</g>
<g>
</g>
<g>
</g>
<g>
</g>
<g>
</g>
<g>
</g>
<g>
</g>
<g>
</g>
<g>
</g>
<g>
</g>
</svg>
