<?xml version="1.0" encoding="iso-8859-1"?>
<!-- Generator: Adobe Illustrator 16.0.4, SVG Export Plug-In . SVG Version: 6.00 Build 0)  -->
<!DOCTYPE svg PUBLIC "-//W3C//DTD SVG 1.1//EN" "http://www.w3.org/Graphics/SVG/1.1/DTD/svg11.dtd">
<svg version="1.1" id="Capa_1" xmlns="http://www.w3.org/2000/svg" xmlns:xlink="http://www.w3.org/1999/xlink" x="0px" y="0px"
	 width="64.568px" height="60.536px" viewBox="0 0 64.568 60.536" style="enable-background:new 0 0 64.568 60.536;"
	 xml:space="preserve">
<g>
	<path id="path3112" style="fill:#040606;" d="M55.558,25.583c-0.711,0-1.288,0.575-1.288,1.287c0,0.71,0.576,1.287,1.288,1.287
		s1.288-0.577,1.288-1.287C56.845,26.158,56.269,25.583,55.558,25.583"/>
	<path id="path3114" style="fill:#040606;" d="M46.084,25.583c-0.711,0-1.288,0.575-1.288,1.287c0,0.71,0.576,1.287,1.288,1.287
		c0.711,0,1.288-0.577,1.288-1.287C47.372,26.158,46.795,25.583,46.084,25.583"/>
	<path id="path3116" style="fill:#040606;" d="M56.271,29.282c-1.432,0-2.591-1.159-2.591-2.591s1.159-2.591,2.591-2.591
		c1.431,0,2.592,1.159,2.592,2.591C58.864,28.124,57.704,29.282,56.271,29.282z M46.8,29.282c-1.433,0-2.594-1.159-2.594-2.591
		s1.161-2.591,2.594-2.591c1.431,0,2.593,1.159,2.593,2.591S48.229,29.282,46.8,29.282z M52.694,17.755
		c-6.417,0-11.876,5.203-11.876,11.618v10.761c0,1.38,0.487,1.614,1.631,0.896c0.688-0.432,1.325-0.678,2.211-0.678
		c0.792,0,1.505,0.197,2.177,0.547c1.137,0.59,2.262,0.596,3.385,0.002c0.661-0.351,1.403-0.549,2.194-0.549
		c0.793,0,1.539,0.197,2.196,0.547c1.116,0.597,2.266,0.588,3.406,0c0.676-0.35,1.441-0.547,2.234-0.547
		c0.816,0,1.705,0.209,2.346,0.582c1.066,0.618,1.969,0.256,1.969-1.125V29.374C64.568,22.958,59.11,17.755,52.694,17.755"/>
	<path id="path3118" style="fill:#040606;" d="M33.424,32.95c1.48,0,2.682-1.199,2.682-2.681c0-1.479-1.2-2.68-2.682-2.68
		c-1.48,0-2.681,1.2-2.681,2.68C30.743,31.751,31.943,32.95,33.424,32.95"/>
	<path id="path3120" style="fill:#040606;" d="M23.594,32.95c1.48,0,2.682-1.199,2.682-2.681c0-1.479-1.2-2.68-2.682-2.68
		c-1.48,0-2.681,1.2-2.681,2.68C20.913,31.751,22.113,32.95,23.594,32.95"/>
	<path id="path3122" style="fill:#040606;" d="M12.868,43.137c2.546,0,4.917-0.74,6.915-2.018c1.163-0.742,1.172-2.332,0.196-3.307
		l-5.343-5.345c-0.978-0.976-0.979-2.559,0-3.535l5.776-5.776c0.978-0.977,1.006-2.602-0.12-3.399
		c-2.098-1.486-4.66-2.36-7.426-2.36C5.761,17.399,0,23.163,0,30.269C0,37.376,5.761,43.137,12.868,43.137"/>
</g>
</svg>
