<?xml version='1.0' encoding='iso-8859-1'?>
<svg version="1.1" xmlns="http://www.w3.org/2000/svg" viewBox="0 0 314.555 314.555" xmlns:xlink="http://www.w3.org/1999/xlink" enable-background="new 0 0 314.555 314.555">
  <g>
    <g>
      <path d="m87.155,37.88c0-9.859 8.021-17.88 17.88-17.88h16.166c2.82-8.342 8.464-15.39 15.796-20h-31.962c-20.887,0-37.88,16.993-37.88,37.88v86.019h20v-86.019z"/>
      <path d="m247.072,37.88c0-20.887-16.993-37.88-37.88-37.88h-31.962c7.332,4.61 12.976,11.658 15.796,20h16.165c9.859,0 17.88,8.021 17.88,17.88v147.128l20,20.003v-167.131z"/>
      <circle cx="157.113" cy="32.105" r="25.907"/>
      <path d="m155.137,214.814v-78.915h-87.867v150.776c0,15.398 12.482,27.88 27.88,27.88h124.37c15.398,0 27.88-12.482 27.88-27.88v-55.8h-76.202c-8.856,0-16.061-7.205-16.061-16.061z"/>
      <path d="m156.832,123.899c5.893,0 11.433,2.295 15.6,6.462l17.922,17.925v-52.445c0-1.367 1.106-2.476 2.473-2.48 1.367-0.004 2.48,1.099 2.487,2.467l.29,57.708 25.127,25.13-.416-82.964c-0.083-16.229-13.353-29.433-29.581-29.433-22.393,0-44.788,0-67.239,0-16.23,0-29.5,13.204-29.581,29.434l-.142,28.196h25.001l.141-28.071c0.007-1.443 1.181-2.607 2.623-2.603 1.442,0.004 2.609,1.174 2.609,2.616v28.058h32.686z"/>
    </g>
  </g>
</svg>
