<?xml version="1.0" encoding="iso-8859-1"?>
<!-- Generator: Adobe Illustrator 16.0.0, SVG Export Plug-In . SVG Version: 6.00 Build 0)  -->
<!DOCTYPE svg PUBLIC "-//W3C//DTD SVG 1.1//EN" "http://www.w3.org/Graphics/SVG/1.1/DTD/svg11.dtd">
<svg version="1.1" id="Capa_1" xmlns="http://www.w3.org/2000/svg" xmlns:xlink="http://www.w3.org/1999/xlink" x="0px" y="0px"
	 width="46.33px" height="46.33px" viewBox="0 0 46.33 46.33" style="enable-background:new 0 0 46.33 46.33;" xml:space="preserve"
	>
<g>
	<g>
		<path d="M14.524,21.087v-0.047c0.981-0.495,1.457-1.346,1.457-2.211c0-1.221-0.973-2.582-3.322-2.582
			c-2.01,0-3.526,1.129-3.526,2.829c0,0.882,0.489,1.701,1.47,2.196v0.047c-1.103,0.479-1.809,1.313-1.809,2.521
			c0,1.359,1.167,2.799,3.72,2.799c2.334,0,3.858-1.223,3.858-3.046C16.371,22.292,15.505,21.458,14.524,21.087z M12.551,17.839
			c0.865,0,1.222,0.618,1.222,1.237c0,0.634-0.479,1.129-1.021,1.284C11.948,20.112,11.33,19.68,11.33,19
			C11.33,18.366,11.747,17.839,12.551,17.839z M12.598,25.015c-0.882,0-1.438-0.682-1.422-1.407c0-0.727,0.448-1.284,1.221-1.5
			c0.927,0.247,1.577,0.773,1.577,1.654C13.974,24.474,13.433,25.015,12.598,25.015z"/>
		<path d="M19.154,22.502c-0.819,0-1.392,0.604-1.392,1.423c0,0.804,0.573,1.407,1.377,1.407c0.834,0,1.392-0.604,1.392-1.407
			C20.516,23.09,19.974,22.502,19.154,22.502z"/>
		<path d="M19.154,17.508c-0.819,0-1.392,0.588-1.392,1.423c0,0.804,0.573,1.407,1.377,1.407c0.834,0,1.392-0.603,1.392-1.407
			C20.516,18.081,19.974,17.508,19.154,17.508z"/>
		<path d="M25.249,16.248c-2.597,0-3.835,2.304-3.835,5.21c0.016,2.846,1.161,5.181,3.758,5.181c2.566,0,3.819-2.134,3.819-5.242
			C28.992,18.645,27.939,16.248,25.249,16.248z M25.234,24.86c-0.912,0-1.469-1.098-1.454-3.402
			c-0.015-2.335,0.573-3.433,1.438-3.433c0.943,0,1.422,1.176,1.422,3.401C26.641,23.716,26.146,24.86,25.234,24.86z"/>
		<path d="M33.827,16.248c-2.599,0-3.835,2.304-3.835,5.21c0.016,2.846,1.16,5.181,3.758,5.181c2.566,0,3.82-2.134,3.82-5.242
			C37.57,18.645,36.518,16.248,33.827,16.248z M33.811,24.86c-0.912,0-1.47-1.098-1.453-3.402c-0.017-2.335,0.572-3.433,1.438-3.433
			c0.943,0,1.422,1.176,1.422,3.401C35.219,23.716,34.725,24.86,33.811,24.86z"/>
		<path d="M38.219,8.55H8.129C3.651,8.55,0,12.204,0,16.682v9.944c0,4.115,3.064,7.525,7.048,8.051v1.456
			c0,0.903,0.744,1.647,1.648,1.647h3.776c0.904,0,1.623-0.744,1.623-1.647v-1.354h18.139v1.354c0,0.903,0.736,1.647,1.641,1.647
			h3.777c0.904,0,1.63-0.744,1.63-1.647v-1.456c3.983-0.525,7.048-3.936,7.048-8.051v-9.943C46.33,12.205,42.695,8.55,38.219,8.55z
			 M41.305,26.607c0,1.704-1.381,3.085-3.084,3.085H8.11c-1.704,0-3.084-1.381-3.084-3.085V16.66c0-1.704,1.381-3.084,3.084-3.084
			h30.111c1.703,0,3.084,1.381,3.084,3.084V26.607L41.305,26.607z"/>
	</g>
</g>
<g>
</g>
<g>
</g>
<g>
</g>
<g>
</g>
<g>
</g>
<g>
</g>
<g>
</g>
<g>
</g>
<g>
</g>
<g>
</g>
<g>
</g>
<g>
</g>
<g>
</g>
<g>
</g>
<g>
</g>
</svg>
