<?xml version="1.0" encoding="iso-8859-1"?>
<!-- Generator: Adobe Illustrator 17.0.0, SVG Export Plug-In . SVG Version: 6.00 Build 0)  -->
<!DOCTYPE svg PUBLIC "-//W3C//DTD SVG 1.1//EN" "http://www.w3.org/Graphics/SVG/1.1/DTD/svg11.dtd">
<svg version="1.1" id="Capa_1" xmlns="http://www.w3.org/2000/svg" xmlns:xlink="http://www.w3.org/1999/xlink" x="0px" y="0px"
	 width="64px" height="64px" viewBox="0 0 64 64" style="enable-background:new 0 0 64 64;" xml:space="preserve">
<g>
	<path d="M58.525,22.388c0,0,0,0-3.206-1.818c-3.205-1.816-2.314-2.189-3.74-5.039c-1.424-2.85-5.877-2.85-5.877-2.85L7.768,20.813
		l40.161,6.85L58.525,22.388z"/>
	<path d="M47.572,28.565L7.768,21.552v7.425l-5.799,2.315v4.986l9.778,1.428l2.277,12.22c0.135,0.726,0.354,0.726,0.49,0
		l2.143-11.502l5.982,0.874v8.979l-2.605-0.191v2.489l10.887,0.802v-2.489l-2.472-0.183v-8.56l8.751,1.279l2.291,12.294
		c0.135,0.726,0.354,0.726,0.49,0l2.156-11.573l2.31,0.337l0.098-4.779l3.027-1.78V28.565z M26.847,48.587l-2.604-0.191v-8.863
		l2.604,0.38V48.587z M41.873,39.017L5.141,33.808l5.677-2.338l0.829,0.122l-2.455,1.659l1.336,0.355l1.689-1.93l2.491,0.366
		l-2.312,1.563l1.336,0.356l1.599-1.828l2.441,0.36l-2.172,1.468l1.336,0.356l1.509-1.726l5.452,0.804l-1.89,1.277l1.336,0.356
		l1.329-1.519l2.287,0.336l-1.748,1.183l1.336,0.356l1.238-1.417l5.299,0.781l-1.466,0.991l1.336,0.356l1.06-1.21l5.196,0.766
		l-1.184,0.801l1.336,0.355l0.879-1.004l4.104,0.604L41.873,39.017z"/>
	<polygon points="48.419,36.591 45.302,38.371 45.302,42.601 58.525,33.606 58.525,23.476 48.419,28.665 	"/>
</g>
</svg>
