<?xml version="1.0" encoding="iso-8859-1"?>
<!-- Generator: Adobe Illustrator 18.0.0, SVG Export Plug-In . SVG Version: 6.00 Build 0)  -->
<!DOCTYPE svg PUBLIC "-//W3C//DTD SVG 1.1//EN" "http://www.w3.org/Graphics/SVG/1.1/DTD/svg11.dtd">
<svg version="1.1" id="Capa_1" xmlns="http://www.w3.org/2000/svg" xmlns:xlink="http://www.w3.org/1999/xlink" x="0px" y="0px"
	 viewBox="0 0 60 60" style="enable-background:new 0 0 60 60;" xml:space="preserve">
<g>
	<path d="M55,24.918l-0.532-0.282c-0.818-0.433-1.661-0.811-2.517-1.152V18c0-2.757-2.243-5-5-5H36.438l2.523-8.723
		c0.145-0.501-0.121-1.03-0.609-1.214l-8-3c-0.215-0.079-0.45-0.086-0.668-0.012l-9,3c-0.255,0.084-0.464,0.268-0.582,0.509
		s-0.134,0.52-0.044,0.772L23.123,13H12.951c-2.757,0-5,2.243-5,5v5.524c-0.822,0.332-1.632,0.695-2.419,1.112L5,24.918v0.602
		c0,6.431,1.248,10.214,2.951,12.397V51c0,2.757,2.243,5,5,5h3v1.694c0,1.271,1.034,2.306,2.305,2.306h23.39
		c1.271,0,2.306-1.034,2.306-2.306V56h3c2.757,0,5-2.243,5-5V38.048C53.705,35.885,55,32.075,55,25.52V24.918z M29.981,2.061
		l6.802,2.551l-2.634,9.108c0,0-0.001,0.002-0.001,0.003L33.199,17h-0.001l1.786-9.821c0.1-0.543-0.261-1.063-0.805-1.162
		c-0.54-0.106-1.064,0.261-1.162,0.805L31.166,17H31V5c0-0.553-0.447-1-1-1s-1,0.447-1,1v12h-0.117l-0.891-7.124
		c-0.068-0.548-0.563-0.933-1.116-0.868c-0.548,0.068-0.937,0.568-0.868,1.116L26.867,17h-0.209L22.282,4.627L29.981,2.061z
		 M9.951,22.795V18c0-1.654,1.346-3,3-3h10.878l1.18,3.334c0.105,0.3,0.344,0.524,0.636,0.618c0.097,0.031,0.2,0.048,0.306,0.048h8
		c0.445,0,0.837-0.294,0.961-0.723L35.86,15h11.091c1.654,0,3,1.346,3,3v4.768c-0.509-0.158-1.021-0.295-1.536-0.422
		c-0.006-0.001-0.012-0.003-0.019-0.004c-0.34-0.083-0.682-0.165-1.024-0.235c-0.148-0.064-0.306-0.093-0.469-0.086
		c-2.327-0.434-4.689-0.563-7.027-0.379c-0.05-0.13-0.122-0.251-0.217-0.351c-0.37-0.37-1.04-0.37-1.42,0
		c-0.149,0.156-0.232,0.363-0.263,0.575c-2.38,0.359-4.714,1.036-6.933,2.034c-0.079,0.035-0.156,0.075-0.234,0.111
		c-0.271,0.125-0.543,0.249-0.811,0.384c-0.195-0.098-0.396-0.184-0.593-0.277c-0.189-0.089-0.377-0.181-0.568-0.265
		c-0.368-0.164-0.741-0.315-1.115-0.461c-0.095-0.037-0.19-0.078-0.286-0.114c-1.79-0.676-3.64-1.149-5.519-1.426
		c-0.034-0.207-0.115-0.408-0.26-0.56c-0.38-0.37-1.051-0.37-1.42,0c-0.095,0.1-0.167,0.219-0.217,0.348
		c-0.666-0.05-1.333-0.084-2.001-0.084c-1.586,0-3.173,0.158-4.746,0.441c-0.071,0.012-0.141,0.025-0.212,0.038
		c-0.214-0.022-0.422,0.018-0.609,0.12c-0.272,0.057-0.543,0.115-0.813,0.181c-0.504,0.121-1.004,0.259-1.501,0.41
		C10.078,22.763,10.014,22.775,9.951,22.795z M9.484,25.07c0.156-0.057,0.313-0.108,0.47-0.162c0.309-0.105,0.618-0.208,0.931-0.301
		c0.083-0.025,0.165-0.047,0.248-0.071c4.958-1.412,10.332-1.26,15.197,0.463c0.031,0.011,0.062,0.023,0.094,0.034
		c0.37,0.133,0.736,0.277,1.1,0.428c0.132,0.055,0.263,0.112,0.394,0.169c0.268,0.117,0.533,0.24,0.797,0.366
		c0.091,0.044,0.181,0.09,0.271,0.135c-0.001,0.014-0.001,0.026-0.001,0.041c-0.003,0.072-0.008,0.151-0.013,0.229
		c-0.004,0.069-0.009,0.14-0.014,0.214c-0.006,0.083-0.013,0.171-0.021,0.26c-0.007,0.078-0.015,0.158-0.023,0.24
		c-0.01,0.093-0.02,0.188-0.031,0.285c-0.01,0.089-0.023,0.181-0.035,0.273c-0.013,0.099-0.026,0.197-0.042,0.3
		c-0.015,0.099-0.033,0.203-0.051,0.305c-0.018,0.103-0.034,0.206-0.055,0.312c-0.021,0.11-0.046,0.223-0.07,0.336
		c-0.022,0.105-0.042,0.208-0.067,0.315c-0.049,0.212-0.104,0.428-0.164,0.646c-0.028,0.101-0.061,0.203-0.092,0.305
		c-0.039,0.129-0.076,0.258-0.119,0.388c-0.036,0.111-0.078,0.223-0.118,0.335c-0.044,0.124-0.087,0.247-0.135,0.371
		c-0.045,0.116-0.094,0.232-0.143,0.349c-0.051,0.121-0.102,0.241-0.157,0.362c-0.054,0.118-0.111,0.236-0.169,0.354
		c-0.059,0.12-0.12,0.24-0.184,0.359c-0.063,0.117-0.127,0.234-0.194,0.35c-0.068,0.119-0.141,0.237-0.214,0.355
		c-0.072,0.115-0.144,0.229-0.22,0.343c-0.079,0.118-0.165,0.234-0.25,0.35c-0.08,0.11-0.159,0.22-0.245,0.328
		c-0.094,0.119-0.196,0.234-0.296,0.35c-0.087,0.101-0.171,0.204-0.263,0.302c-0.129,0.138-0.269,0.271-0.408,0.404
		c-0.07,0.068-0.135,0.138-0.208,0.204c-2.737,2.477-6.787,3.464-12.028,2.939c-0.307-0.031-0.599-0.09-0.88-0.169
		c-0.127-0.036-0.242-0.09-0.363-0.136c-0.147-0.055-0.296-0.107-0.437-0.177c-0.123-0.061-0.237-0.137-0.353-0.208
		c-0.134-0.082-0.267-0.165-0.394-0.262c-0.096-0.073-0.187-0.153-0.278-0.233c-0.148-0.131-0.293-0.27-0.432-0.424
		c-2.146-2.35-2.763-6.847-2.817-10.899C7.811,25.727,8.64,25.377,9.484,25.07z M41.951,57.694c0,0.169-0.137,0.306-0.306,0.306
		h-23.39c-0.168,0-0.305-0.137-0.305-0.306V56h24V57.694z M46.951,54h-3h-28h-3c-1.654,0-3-1.346-3-3V39.718
		c0.003,0.002,0.007,0.003,0.011,0.006c0.164,0.097,0.329,0.179,0.495,0.259c0.061,0.029,0.12,0.062,0.181,0.09
		c0.154,0.068,0.309,0.125,0.464,0.179c0.077,0.028,0.152,0.059,0.23,0.083c0.162,0.051,0.324,0.09,0.486,0.128
		c0.074,0.017,0.146,0.039,0.221,0.054c0.241,0.049,0.481,0.086,0.718,0.11c0.653,0.065,1.284,0.101,1.906,0.122
		c0.144,0.005,0.287,0.009,0.43,0.011c0.163,0.003,0.331,0.013,0.492,0.013c0.314,0,0.613-0.02,0.918-0.031
		c0.17-0.007,0.343-0.007,0.51-0.017c1.212-0.074,2.353-0.242,3.42-0.506c0.137-0.034,0.267-0.077,0.402-0.114
		c0.386-0.106,0.765-0.222,1.131-0.354c0.165-0.059,0.325-0.125,0.486-0.189c0.326-0.131,0.643-0.272,0.952-0.424
		c0.159-0.078,0.318-0.156,0.472-0.24c0.308-0.167,0.605-0.35,0.895-0.54c0.131-0.085,0.266-0.165,0.393-0.255
		c0.39-0.276,0.764-0.57,1.119-0.888c0.014-0.012,0.029-0.022,0.043-0.034c0.251-0.228,0.487-0.462,0.713-0.702
		c0.066-0.07,0.125-0.142,0.188-0.212c0.153-0.17,0.304-0.341,0.445-0.516c0.074-0.092,0.143-0.185,0.214-0.278
		c0.12-0.158,0.239-0.316,0.35-0.477c0.07-0.101,0.137-0.202,0.203-0.304c0.103-0.157,0.202-0.314,0.297-0.473
		c0.062-0.104,0.123-0.207,0.181-0.312c0.09-0.16,0.176-0.321,0.259-0.483c0.052-0.102,0.105-0.204,0.155-0.306
		c0.082-0.169,0.157-0.338,0.231-0.507c0.041-0.094,0.084-0.188,0.123-0.281c0.08-0.194,0.153-0.386,0.224-0.579
		c0.025-0.068,0.053-0.137,0.078-0.206c0.003-0.01,0.008-0.02,0.011-0.03c0.003,0.01,0.008,0.02,0.011,0.03
		c0.024,0.068,0.052,0.137,0.078,0.206c0.071,0.193,0.144,0.385,0.224,0.579c0.039,0.094,0.082,0.187,0.123,0.281
		c0.074,0.169,0.15,0.338,0.231,0.507c0.049,0.103,0.102,0.204,0.155,0.306c0.083,0.161,0.168,0.322,0.259,0.483
		c0.059,0.104,0.119,0.208,0.181,0.312c0.095,0.158,0.194,0.316,0.297,0.473c0.067,0.102,0.133,0.203,0.203,0.304
		c0.112,0.16,0.23,0.319,0.35,0.477c0.071,0.093,0.14,0.186,0.214,0.278c0.141,0.175,0.292,0.346,0.445,0.516
		c0.063,0.071,0.123,0.143,0.188,0.212c0.225,0.239,0.461,0.474,0.713,0.702c0.014,0.013,0.03,0.022,0.044,0.035
		c0.354,0.317,0.727,0.61,1.114,0.885c0.133,0.094,0.274,0.177,0.41,0.266c0.284,0.185,0.573,0.363,0.873,0.527
		c0.161,0.088,0.327,0.169,0.493,0.251c0.3,0.148,0.609,0.285,0.925,0.412c0.168,0.068,0.336,0.136,0.509,0.198
		c0.357,0.128,0.726,0.241,1.102,0.345c0.143,0.039,0.281,0.085,0.427,0.121c1.067,0.263,2.207,0.432,3.419,0.505
		c0.161,0.01,0.328,0.01,0.491,0.017c0.311,0.012,0.615,0.032,0.935,0.032c0.163,0,0.334-0.01,0.5-0.013
		c0.137-0.002,0.274-0.006,0.412-0.011c0.625-0.022,1.259-0.057,1.916-0.123c0.232-0.023,0.467-0.059,0.703-0.106
		c0.072-0.014,0.141-0.036,0.212-0.052c0.16-0.037,0.32-0.074,0.481-0.124c0.071-0.022,0.138-0.051,0.208-0.075
		c0.158-0.054,0.315-0.108,0.472-0.177c0.021-0.009,0.04-0.021,0.06-0.03c0.192-0.085,0.384-0.176,0.573-0.284V51
		C49.951,52.654,48.606,54,46.951,54z M50.099,37.118c-0.121,0.127-0.247,0.241-0.375,0.353c-0.099,0.086-0.197,0.176-0.302,0.254
		c-0.111,0.083-0.228,0.15-0.344,0.221c-0.126,0.078-0.25,0.161-0.384,0.227c-0.119,0.058-0.247,0.099-0.371,0.146
		c-0.137,0.053-0.269,0.114-0.414,0.155c-0.277,0.077-0.564,0.134-0.866,0.164c-0.656,0.066-1.293,0.108-1.911,0.126
		c-4.326,0.129-7.723-0.898-10.117-3.065c-0.073-0.066-0.137-0.136-0.208-0.204c-0.139-0.133-0.279-0.266-0.408-0.404
		c-0.092-0.099-0.176-0.201-0.263-0.302c-0.1-0.116-0.202-0.231-0.296-0.35c-0.085-0.108-0.164-0.218-0.245-0.328
		c-0.085-0.116-0.17-0.232-0.25-0.35c-0.077-0.114-0.149-0.228-0.22-0.343c-0.073-0.118-0.146-0.236-0.214-0.354
		c-0.067-0.116-0.131-0.233-0.193-0.35c-0.064-0.12-0.125-0.24-0.184-0.36c-0.058-0.118-0.115-0.235-0.168-0.353
		c-0.055-0.121-0.106-0.241-0.157-0.362c-0.049-0.116-0.098-0.233-0.143-0.349c-0.048-0.124-0.092-0.248-0.135-0.371
		c-0.04-0.112-0.081-0.224-0.118-0.335c-0.043-0.131-0.08-0.259-0.119-0.388c-0.03-0.102-0.064-0.204-0.092-0.305
		c-0.06-0.219-0.115-0.435-0.164-0.646c-0.025-0.107-0.045-0.21-0.067-0.315c-0.024-0.113-0.049-0.226-0.07-0.336
		c-0.021-0.108-0.037-0.212-0.055-0.317c-0.017-0.1-0.035-0.201-0.05-0.298c-0.016-0.103-0.029-0.203-0.042-0.302
		c-0.012-0.093-0.025-0.186-0.036-0.275c-0.011-0.096-0.021-0.188-0.031-0.28c-0.008-0.083-0.016-0.165-0.023-0.244
		c-0.008-0.088-0.015-0.175-0.021-0.259c-0.005-0.074-0.01-0.145-0.014-0.214c-0.005-0.078-0.009-0.157-0.013-0.229
		c0-0.014-0.001-0.027-0.001-0.041c0.091-0.045,0.181-0.091,0.272-0.135c0.259-0.125,0.52-0.245,0.783-0.36
		c0.138-0.061,0.276-0.12,0.414-0.178c0.348-0.144,0.698-0.282,1.052-0.409c0.051-0.018,0.101-0.038,0.151-0.056
		c4.432-1.566,9.284-1.83,13.859-0.796c0.054,0.012,0.108,0.024,0.161,0.037c0.338,0.079,0.673,0.169,1.008,0.263
		c0.151,0.042,0.302,0.082,0.453,0.127c0.222,0.066,0.441,0.142,0.661,0.214c0.239,0.079,0.479,0.156,0.716,0.243
		c0.833,0.304,1.652,0.65,2.45,1.046C52.942,30.231,52.311,34.794,50.099,37.118z"/>
	<path d="M10.496,30.137l3.672-3.512c0.398-0.382,0.413-1.015,0.031-1.414c-0.381-0.397-1.014-0.412-1.414-0.031l-3.672,3.512
		c-0.398,0.382-0.413,1.015-0.031,1.414c0.196,0.205,0.459,0.309,0.723,0.309C10.054,30.414,10.302,30.322,10.496,30.137z"/>
	<path d="M13.978,32.447c0.196,0.205,0.459,0.309,0.723,0.309c0.249,0,0.497-0.092,0.691-0.277l6.12-5.854
		c0.398-0.382,0.413-1.015,0.031-1.414c-0.382-0.397-1.014-0.412-1.414-0.031l-6.12,5.854C13.61,31.415,13.596,32.048,13.978,32.447
		z"/>
	<path d="M41.126,25.211c-0.382-0.397-1.014-0.412-1.414-0.031l-3.672,3.512c-0.398,0.382-0.413,1.015-0.031,1.414
		c0.196,0.205,0.459,0.309,0.723,0.309c0.249,0,0.497-0.092,0.691-0.277l3.672-3.512C41.493,26.243,41.508,25.61,41.126,25.211z"/>
	<path d="M48.47,25.211c-0.382-0.397-1.013-0.412-1.414-0.031l-6.119,5.854c-0.399,0.382-0.413,1.015-0.031,1.414
		c0.196,0.205,0.459,0.309,0.723,0.309c0.249,0,0.497-0.092,0.691-0.277l6.119-5.854C48.838,26.243,48.852,25.61,48.47,25.211z"/>
	<path d="M39.506,41.835c-0.278-0.186-0.63-0.221-0.939-0.091l-20,8.333c-0.439,0.184-0.689,0.651-0.596,1.119
		C18.064,51.663,18.475,52,18.951,52h20c0.553,0,1-0.447,1-1v-8.333C39.951,42.333,39.784,42.021,39.506,41.835z M37.951,46.02
		l-8.898,1.854l8.898-3.707V46.02z M28.651,50l9.3-1.938V50H28.651z"/>
	<path d="M14.95,20c0,0.26,0.109,0.52,0.29,0.71C15.43,20.9,15.689,21,15.95,21c0.26,0,0.52-0.101,0.71-0.29
		c0.189-0.19,0.29-0.45,0.29-0.71s-0.101-0.521-0.29-0.71c-0.37-0.37-1.03-0.37-1.42,0C15.06,19.48,14.95,19.74,14.95,20z"/>
	<path d="M12.95,21c0.26,0,0.52-0.101,0.71-0.29c0.189-0.19,0.29-0.45,0.29-0.71s-0.101-0.521-0.29-0.71
		c-0.37-0.37-1.03-0.37-1.42,0c-0.181,0.189-0.29,0.45-0.29,0.71s0.109,0.52,0.29,0.71C12.43,20.9,12.689,21,12.95,21z"/>
	<path d="M14.95,18c0.26,0,0.52-0.11,0.71-0.29c0.189-0.19,0.29-0.45,0.29-0.71s-0.101-0.521-0.29-0.71c-0.37-0.37-1.04-0.37-1.42,0
		c-0.181,0.189-0.29,0.45-0.29,0.71s0.109,0.52,0.29,0.71C14.43,17.9,14.689,18,14.95,18z"/>
	<path d="M17.95,18c0.26,0,0.52-0.11,0.71-0.29c0.189-0.19,0.29-0.45,0.29-0.71s-0.11-0.521-0.29-0.71c-0.38-0.37-1.04-0.37-1.42,0
		c-0.181,0.189-0.29,0.45-0.29,0.71s0.109,0.52,0.29,0.71C17.43,17.89,17.689,18,17.95,18z"/>
	<path d="M17.95,20c0,0.26,0.109,0.52,0.29,0.71C18.43,20.9,18.689,21,18.95,21c0.26,0,0.52-0.101,0.71-0.29
		c0.189-0.19,0.29-0.45,0.29-0.71s-0.101-0.521-0.29-0.71c-0.37-0.37-1.03-0.37-1.42,0C18.06,19.48,17.95,19.74,17.95,20z"/>
	<path d="M35.95,22c0.26,0,0.52-0.101,0.71-0.29c0.189-0.19,0.29-0.45,0.29-0.71s-0.101-0.521-0.29-0.71
		c-0.38-0.37-1.051-0.36-1.42,0c-0.181,0.18-0.29,0.439-0.29,0.71c0,0.26,0.109,0.52,0.29,0.71C35.43,21.9,35.689,22,35.95,22z"/>
	<path d="M23.95,22c0.26,0,0.52-0.101,0.71-0.29c0.189-0.19,0.29-0.45,0.29-0.71s-0.11-0.521-0.29-0.71
		c-0.37-0.37-1.051-0.36-1.41,0c-0.19,0.18-0.3,0.439-0.3,0.71c0,0.26,0.109,0.52,0.29,0.71C23.43,21.9,23.689,22,23.95,22z"/>
	<path d="M26.95,22c0.26,0,0.52-0.101,0.71-0.29c0.189-0.19,0.29-0.45,0.29-0.71s-0.11-0.521-0.29-0.71
		c-0.37-0.37-1.051-0.36-1.41,0c-0.19,0.18-0.3,0.439-0.3,0.71c0,0.26,0.109,0.52,0.29,0.71C26.43,21.9,26.689,22,26.95,22z"/>
	<path d="M29.95,22c0.26,0,0.52-0.101,0.71-0.29c0.189-0.19,0.29-0.45,0.29-0.71s-0.11-0.521-0.29-0.71c-0.37-0.37-1.04-0.37-1.42,0
		C29.06,20.48,28.95,20.73,28.95,21c0,0.26,0.109,0.52,0.29,0.71C29.43,21.9,29.689,22,29.95,22z"/>
	<path d="M32.95,22c0.26,0,0.52-0.101,0.71-0.29c0.189-0.19,0.29-0.45,0.29-0.71s-0.101-0.521-0.29-0.71
		c-0.38-0.37-1.061-0.36-1.42,0C32.06,20.48,31.95,20.73,31.95,21c0,0.26,0.109,0.52,0.29,0.71C32.43,21.9,32.689,22,32.95,22z"/>
	<path d="M20.95,18c0.26,0,0.52-0.101,0.71-0.29c0.189-0.19,0.29-0.45,0.29-0.71s-0.101-0.521-0.29-0.71
		c-0.38-0.37-1.051-0.37-1.42,0c-0.181,0.189-0.29,0.45-0.29,0.71s0.109,0.52,0.29,0.71C20.43,17.89,20.689,18,20.95,18z"/>
	<path d="M43.24,20.71C43.43,20.9,43.689,21,43.95,21c0.26,0,0.52-0.101,0.71-0.29c0.189-0.19,0.29-0.45,0.29-0.71
		s-0.11-0.521-0.29-0.71c-0.37-0.37-1.051-0.37-1.42,0c-0.181,0.189-0.29,0.45-0.29,0.71S43.06,20.52,43.24,20.71z"/>
	<path d="M46.24,20.71C46.43,20.9,46.689,21,46.95,21c0.26,0,0.52-0.101,0.71-0.29c0.18-0.19,0.29-0.45,0.29-0.71
		s-0.11-0.521-0.29-0.71c-0.37-0.37-1.051-0.37-1.42,0c-0.181,0.189-0.29,0.45-0.29,0.71S46.06,20.52,46.24,20.71z"/>
	<path d="M44.95,18c0.26,0,0.52-0.11,0.71-0.29c0.189-0.19,0.29-0.45,0.29-0.71s-0.11-0.521-0.29-0.71c-0.38-0.37-1.051-0.37-1.42,0
		c-0.181,0.189-0.29,0.45-0.29,0.71s0.109,0.52,0.29,0.71C44.43,17.89,44.689,18,44.95,18z"/>
	<path d="M41.95,18c0.26,0,0.52-0.11,0.71-0.29c0.189-0.19,0.29-0.45,0.29-0.71s-0.11-0.521-0.29-0.71c-0.38-0.37-1.051-0.37-1.41,0
		c-0.19,0.18-0.3,0.439-0.3,0.71c0,0.26,0.109,0.52,0.29,0.71C41.43,17.89,41.689,18,41.95,18z"/>
	<path d="M40.24,20.71C40.43,20.9,40.689,21,40.95,21c0.26,0,0.52-0.101,0.71-0.29c0.189-0.19,0.29-0.45,0.29-0.71
		s-0.11-0.521-0.29-0.71c-0.37-0.37-1.051-0.37-1.42,0c-0.181,0.189-0.29,0.45-0.29,0.71S40.06,20.52,40.24,20.71z"/>
	<path d="M38.95,18c0.26,0,0.52-0.101,0.71-0.29c0.189-0.19,0.29-0.45,0.29-0.71s-0.101-0.521-0.29-0.71
		c-0.38-0.37-1.051-0.37-1.42,0c-0.181,0.189-0.29,0.45-0.29,0.71s0.109,0.52,0.29,0.71C38.43,17.89,38.689,18,38.95,18z"/>
</g>
<g>
</g>
<g>
</g>
<g>
</g>
<g>
</g>
<g>
</g>
<g>
</g>
<g>
</g>
<g>
</g>
<g>
</g>
<g>
</g>
<g>
</g>
<g>
</g>
<g>
</g>
<g>
</g>
<g>
</g>
</svg>
