<?xml version="1.0" encoding="iso-8859-1"?>
<!-- Generator: Adobe Illustrator 19.0.0, SVG Export Plug-In . SVG Version: 6.00 Build 0)  -->
<svg version="1.1" id="Layer_1" xmlns="http://www.w3.org/2000/svg" xmlns:xlink="http://www.w3.org/1999/xlink" x="0px" y="0px"
	 viewBox="0 0 512 512" style="enable-background:new 0 0 512 512;" xml:space="preserve">
<g>
	<g>
		<g>
			<path d="M93.867,332.8c4.71,0,8.533-3.823,8.533-8.533v-59.733c0-14.114-11.486-25.6-25.6-25.6s-25.6,11.486-25.6,25.6v59.733
				c0,4.71,3.823,8.533,8.533,8.533s8.533-3.823,8.533-8.533v-59.733c0-4.702,3.831-8.533,8.533-8.533
				c4.702,0,8.533,3.831,8.533,8.533v59.733C85.333,328.977,89.156,332.8,93.867,332.8z"/>
			<path d="M59.733,179.2c4.71,0,8.533-3.823,8.533-8.533v-25.6c0-4.71-3.823-8.533-8.533-8.533s-8.533,3.823-8.533,8.533v25.6
				C51.2,175.377,55.023,179.2,59.733,179.2z"/>
			<path d="M162.133,324.267c4.71,0,8.533-3.823,8.533-8.533V256c0-14.114-11.486-25.6-25.6-25.6s-25.6,11.486-25.6,25.6v59.733
				c0,4.71,3.823,8.533,8.533,8.533s8.533-3.823,8.533-8.533V256c0-4.702,3.831-8.533,8.533-8.533c4.702,0,8.533,3.831,8.533,8.533
				v59.733C153.6,320.444,157.423,324.267,162.133,324.267z"/>
			<path d="M58.061,196.437c-4.625,0.922-7.62,5.41-6.69,10.035c0.913,4.617,5.419,7.612,10.035,6.69
				c0.845-0.162,85.76-16.896,186.061-16.896h28.86l6.17,12.348c0.828,1.655,2.167,2.995,3.823,3.823l10.94,5.47l-1.98,7.927
				c-3.959-2.517-8.653-3.968-13.679-3.968c-14.114,0-25.6,11.486-25.6,25.6V307.2c0,4.71,3.823,8.533,8.533,8.533
				c4.71,0,8.533-3.823,8.533-8.533v-59.733c0-4.702,3.831-8.533,8.533-8.533c4.702,0,8.533,3.831,8.533,8.533
				c0,4.309,3.208,7.945,7.492,8.474c4.198,0.495,8.277-2.227,9.318-6.4l8.533-34.133c0.973-3.883-0.887-7.919-4.463-9.711
				l-14.524-7.253l-7.253-14.524c-1.451-2.893-4.403-4.719-7.637-4.719h-34.133C145.408,179.2,58.923,196.258,58.061,196.437z"/>
			<path d="M230.4,315.733c4.71,0,8.533-3.823,8.533-8.533v-59.733c0-14.114-11.486-25.6-25.6-25.6c-14.114,0-25.6,11.486-25.6,25.6
				V307.2c0,4.71,3.823,8.533,8.533,8.533s8.533-3.823,8.533-8.533v-59.733c0-4.702,3.831-8.533,8.533-8.533
				c4.702,0,8.533,3.831,8.533,8.533V307.2C221.867,311.91,225.69,315.733,230.4,315.733z"/>
			<path d="M102.4,162.133v-25.6c0-4.71-3.823-8.533-8.533-8.533c-4.71,0-8.533,3.823-8.533,8.533v25.6
				c0,4.71,3.823,8.533,8.533,8.533C98.577,170.667,102.4,166.844,102.4,162.133z"/>
			<path d="M435.2,332.8c4.71,0,8.533-3.823,8.533-8.533v-51.2c0-14.114-11.486-25.6-25.6-25.6c-4.71,0-8.533,3.823-8.533,8.533
				c0,4.71,3.823,8.533,8.533,8.533c4.702,0,8.533,3.831,8.533,8.533v51.2C426.667,328.977,430.49,332.8,435.2,332.8z"/>
			<path d="M136.533,158.131v-25.327c0-4.719-3.823-8.533-8.533-8.533s-8.533,3.814-8.533,8.533v25.327
				c0,4.71,3.823,8.533,8.533,8.533S136.533,162.842,136.533,158.131z"/>
			<path d="M503.467,418.133h-25.6v-42.667c0-4.702,3.831-8.533,8.533-8.533c4.71,0,8.533-3.823,8.533-8.533V221.867
				c0-15.309-10.291-25.6-25.6-25.6H409.6c-3.234,0-6.187,1.826-7.637,4.719l-8.533,17.067c-0.589,1.178-0.896,2.492-0.896,3.814
				v13.534l-14.566,14.566c-0.648,0.649-1.186,1.399-1.604,2.219l-8.533,17.067c-0.589,1.178-0.896,2.492-0.896,3.814v31.735
				l-23.526-5.879c-1.988-0.503-4.07-0.265-5.888,0.64l-11.571,5.786L304.7,284.1c-3.337-3.337-8.73-3.337-12.066,0
				c-3.337,3.336-3.337,8.73,0,12.066l25.6,25.6c2.586,2.586,6.562,3.243,9.847,1.604l14.242-7.125l31.07,7.765
				c2.56,0.649,5.265,0.068,7.322-1.553c2.074-1.613,3.285-4.096,3.285-6.724v-40.653l7.014-14.029l16.085-16.085
				c1.604-1.596,2.5-3.772,2.5-6.033v-15.053l5.274-10.547h54.46c5.897,0,8.533,2.637,8.533,8.533v129.459
				c-9.933,3.524-17.067,13.013-17.067,24.141v42.667h-17.067v-42.667c0-14.114-11.486-25.6-25.6-25.6s-25.6,11.486-25.6,25.6
				v42.667h-17.067v-51.2c0-14.114-11.486-25.6-25.6-25.6s-25.6,11.486-25.6,25.6v51.2H307.2V358.4c0-14.114-11.486-25.6-25.6-25.6
				S256,344.286,256,358.4v59.733h-17.067V358.4c0-14.114-11.486-25.6-25.6-25.6c-14.114,0-25.6,11.486-25.6,25.6v59.733h-17.067
				v-51.2c0-14.114-11.486-25.6-25.6-25.6s-25.6,11.486-25.6,25.6v51.2H102.4v-42.667c0-14.114-11.486-25.6-25.6-25.6
				s-25.6,11.486-25.6,25.6v42.667H34.133V125.184c18.33-7.219,84.463-30.797,167.91-31.309
				c17.946,14.157,32.853,55.381,37.222,70.605c1.289,4.523,6.025,7.151,10.547,5.854c4.531-1.289,7.151-6.016,5.854-10.547
				c-1.826-6.417-18.714-63.275-46.131-81.553c-1.399-0.93-3.055-1.434-4.736-1.434c-103.023,0-179.465,33.442-182.664,34.867
				c-3.081,1.374-5.069,4.429-5.069,7.799v298.667H8.533c-4.71,0-8.533,3.823-8.533,8.533s3.823,8.533,8.533,8.533h494.933
				c4.71,0,8.533-3.823,8.533-8.533S508.177,418.133,503.467,418.133z M85.333,418.133H68.267v-42.667
				c0-4.702,3.831-8.533,8.533-8.533c4.702,0,8.533,3.831,8.533,8.533V418.133z M153.6,418.133h-17.067v-51.2
				c0-4.702,3.831-8.533,8.533-8.533c4.702,0,8.533,3.831,8.533,8.533V418.133z M221.867,418.133H204.8V358.4
				c0-4.702,3.831-8.533,8.533-8.533c4.702,0,8.533,3.831,8.533,8.533V418.133z M290.133,418.133h-17.067V358.4
				c0-4.702,3.831-8.533,8.533-8.533c4.702,0,8.533,3.831,8.533,8.533V418.133z M358.4,418.133h-17.067v-51.2
				c0-4.702,3.831-8.533,8.533-8.533s8.533,3.831,8.533,8.533V418.133z M426.667,418.133H409.6v-42.667
				c0-4.702,3.831-8.533,8.533-8.533s8.533,3.831,8.533,8.533V418.133z"/>
			<path d="M409.6,324.267v-34.133c0-4.71-3.823-8.533-8.533-8.533s-8.533,3.823-8.533,8.533v34.133c0,4.71,3.823,8.533,8.533,8.533
				S409.6,328.977,409.6,324.267z"/>
			<path d="M170.667,153.6V128c0-4.71-3.823-8.533-8.533-8.533c-4.71,0-8.533,3.823-8.533,8.533v25.6
				c0,4.71,3.823,8.533,8.533,8.533C166.844,162.133,170.667,158.31,170.667,153.6z"/>
			<path d="M204.8,153.6V128c0-4.71-3.823-8.533-8.533-8.533s-8.533,3.823-8.533,8.533v25.6c0,4.71,3.823,8.533,8.533,8.533
				S204.8,158.31,204.8,153.6z"/>
		</g>
	</g>
</g>
<g>
</g>
<g>
</g>
<g>
</g>
<g>
</g>
<g>
</g>
<g>
</g>
<g>
</g>
<g>
</g>
<g>
</g>
<g>
</g>
<g>
</g>
<g>
</g>
<g>
</g>
<g>
</g>
<g>
</g>
</svg>
