<?xml version="1.0" encoding="iso-8859-1"?>
<!-- Generator: Adobe Illustrator 18.1.1, SVG Export Plug-In . SVG Version: 6.00 Build 0)  -->
<svg version="1.1" id="Capa_1" xmlns="http://www.w3.org/2000/svg" xmlns:xlink="http://www.w3.org/1999/xlink" x="0px" y="0px"
	 viewBox="0 0 19.935 19.935" style="enable-background:new 0 0 19.935 19.935;" xml:space="preserve">
<g>
	<path d="M14.13,18.944h-0.262v-0.742c0.046-0.035,0.075-0.096,0.08-0.197c0,0-0.027-0.404-0.221-0.639
		c-0.197-0.235-1.008-1.109-1.088-1.514c-0.076-0.405-0.062-1.723-0.455-2.505c-0.39-0.784-0.808-1.187-0.898-1.682
		c-0.093-0.497-0.223-1.437-0.406-2.126c-0.183-0.693-0.248-0.876-0.285-1.214c-0.041-0.34-0.027-0.746-0.146-1.162
		c-0.116-0.419-0.078-0.64-0.025-0.939c0.053-0.301,0.143-1.384,0.143-1.384s0.64,0.731,1.005,0.9
		c0.364,0.17,0.573,0.262,0.667,0.183c0.091-0.079,0.184-0.352,0.128-0.651c-0.052-0.302,0.08-0.354-0.364-0.9
		c-0.444-0.549-0.862-1.006-0.967-1.267c-0.104-0.262-0.561-0.613-0.561-0.613s-0.076-0.287-0.233-0.327
		c-0.157-0.039-0.327,0.04-0.327,0.04s-0.13-0.04-0.183,0.038C9.681,2.321,9.757,2.518,9.757,2.518S9.668,2.596,9.602,2.726
		S9.43,3.054,9.328,3.04C9.224,3.026,9.092,2.988,9.065,2.87C9.039,2.753,9.039,2.558,9.039,2.558s0.263-0.17,0.302-0.302
		c0.038-0.13,0.13-0.457,0.13-0.64c0-0.182,0.013-0.299,0.013-0.299l0.118-0.196c0,0,0.17-0.078,0.13-0.209
		c-0.04-0.13-0.168-0.13-0.117-0.248C9.669,0.547,9.669,0.352,9.59,0.298C9.511,0.247,9.316,0.169,9.328,0.09
		c0.013-0.077-0.289-0.13-0.352-0.052C8.911,0.117,8.806,0.169,8.663,0.09C8.521,0.013,8.284,0.038,8.206,0.143
		C8.128,0.247,8.088,0.26,8.009,0.26c-0.078,0-0.17-0.024-0.208,0.093C7.763,0.469,7.709,0.561,7.618,0.586
		C7.527,0.613,7.449,0.613,7.476,0.705C7.499,0.796,7.463,1.07,7.384,1.096C7.304,1.12,7.293,1.187,7.319,1.265
		c0.025,0.077,0.078,0.13,0.025,0.207C7.293,1.552,7.266,1.59,7.331,1.643C7.397,1.697,7.539,1.8,7.514,1.852
		c-0.027,0.052-0.13,0.105-0.078,0.182c0.051,0.079,0.21,0.146,0.157,0.249C7.539,2.387,7.567,2.439,7.646,2.479
		c0.076,0.04,0.17,0.065,0.17,0.065s0.062,0.6-0.117,0.77c-0.185,0.17-0.588,0.391-0.811,0.469c-0.222,0.079-0.64,0.34-0.729,0.653
		c-0.093,0.314,0.013,0.9-0.067,1.16C6.014,5.857,5.936,6.341,5.923,6.681C5.91,7.019,5.896,7.358,5.858,7.554
		C5.817,7.75,5.779,8.115,5.833,8.493c0.05,0.379,0.09,0.534,0.062,0.796C5.87,9.55,6.065,9.837,6.103,10.06
		c0.04,0.222,0.145,0.287,0.289,0.379c0.143,0.091,0.143,0.299,0.481,0.403c0.34,0.105,0.522,0.105,0.522,0.105
		s0.029-0.013,0.062-0.031c0.145,0.49,0.294,0.965,0.316,1.087c0.04,0.223,0.04,0.704,0.063,0.875
		c0.029,0.168-0.063,0.782,0.067,1.37c0.069,0.317,0.311,0.83,0.53,1.305c-0.05,0.026-0.13,0.06-0.192,0.026
		c-0.091-0.053-0.21-0.132-0.21-0.132s-0.104,0.104-0.128,0.288c-0.029,0.182-0.225,0.312-0.225,0.312s0.459,0.209,0.524,0.496
		c0.064,0.287,0,0.561-0.053,0.757c-0.033,0.116-0.079,0.285-0.115,0.405h-0.17v1.239H7.608v0.209h0.114l-0.074,0.782h6.441
		l-0.076-0.782h0.117C14.13,19.153,14.13,18.944,14.13,18.944z M11.292,4.684c0.146,0.312,0.385,0.92,0.385,0.92
		s-0.459-0.549-0.534-0.89c-0.075-0.341-0.474-0.876-0.474-0.876S11.143,4.373,11.292,4.684z M7.331,7.502
		C7.293,7.776,7.239,8.297,7.163,8.545C7.096,8.753,7.121,9.174,7.17,9.613c-0.02-0.03-0.04-0.056-0.06-0.075
		C6.926,9.368,6.494,9.29,6.484,9.016c-0.013-0.275,0.34-0.822,0.274-1.279S6.704,7.15,6.824,6.771
		c0.115-0.378,0.208-0.979,0.208-0.979S7.464,6.288,7.5,6.602C7.539,6.916,7.369,7.228,7.331,7.502z M6.634,4.339
		C6.425,4.487,6.352,5.022,6.352,5.022S6.307,4.591,6.381,4.369C6.454,4.146,6.662,4.101,6.96,3.983
		c0.296-0.12,0.786-0.476,0.786-0.476C7.746,3.731,6.844,4.191,6.634,4.339z M10.357,17.706c-0.025-0.107-0.079-0.271-0.168-0.443
		c-0.157-0.301-0.262-0.534-0.338-0.783c-0.079-0.249,0.038-0.365-0.132-0.496c-0.168-0.131-0.13-0.169-0.13-0.327
		c0-0.156,0.223-0.417,0.079-0.613c-0.145-0.194-0.197-0.207-0.197-0.429S9.445,13.869,9.43,13.7
		c-0.011-0.169-0.074-0.418,0.015-0.484c0.091-0.064,0.211-0.116,0.079-0.208c-0.132-0.091-0.104-0.077-0.183-0.182
		c-0.079-0.104-0.064-0.234-0.197-0.118c-0.055,0.052-0.119,0.1-0.178,0.149c0.022-0.358,0.01-0.803-0.005-1.088
		c-0.013-0.301-0.037-0.797-0.013-1.032c0.027-0.235,0.027-0.602,0.027-0.602s0.301,0.55,0.508,0.836
		c0.208,0.287,0.418,0.418,0.496,0.641c0.079,0.221,0.234,0.756,0.392,1.017c0.159,0.262,0.34,0.313,0.431,0.73
		c0.092,0.417,0.25,0.991,0.471,1.227c0.223,0.234,0.472,0.822,0.6,1.211c0.131,0.394,0.312,0.55,0.301,0.902
		c-0.013,0.352,0.053,0.6,0.209,0.678c0.151,0.076,0.317,0.165,0.396,0.327h-2.42v0.002H10.357z"/>
</g>
<g>
</g>
<g>
</g>
<g>
</g>
<g>
</g>
<g>
</g>
<g>
</g>
<g>
</g>
<g>
</g>
<g>
</g>
<g>
</g>
<g>
</g>
<g>
</g>
<g>
</g>
<g>
</g>
<g>
</g>
</svg>
