<?xml version="1.0" encoding="utf-8"?>
<!-- Generator: Adobe Illustrator 16.0.0, SVG Export Plug-In . SVG Version: 6.00 Build 0)  -->
<!DOCTYPE svg PUBLIC "-//W3C//DTD SVG 1.1//EN" "http://www.w3.org/Graphics/SVG/1.1/DTD/svg11.dtd">
<svg version="1.1" id="Layer_1" xmlns="http://www.w3.org/2000/svg" xmlns:xlink="http://www.w3.org/1999/xlink" x="0px" y="0px"
	 width="126px" height="126px" viewBox="0 0 126 126" enable-background="new 0 0 126 126" xml:space="preserve">
<path stroke="#6D6E70" stroke-width="0" stroke-linecap="round" stroke-linejoin="round" d="M100.515,100.512
	c20.686-20.684,20.684-54.34,0.002-75.023C79.829,4.799,46.169,4.799,25.486,25.482C4.798,46.17,4.8,79.828,25.488,100.516
	C46.169,121.201,79.829,121.201,100.515,100.512z M94.729,31.271c10.272,10.273,14.504,24.33,12.712,37.727l-16.533-14.01
	c0.873-1.758,1.376-3.73,1.376-5.824c0-7.262-5.907-13.166-13.167-13.166c-3.009,0-5.776,1.025-7.996,2.73L49.345,20.275
	C64.827,15.355,82.469,19.012,94.729,31.271z M31.273,31.27c4.285-4.283,9.229-7.512,14.508-9.697l22.99,19.477
	c-1.759,2.24-2.818,5.053-2.818,8.115c0,7.26,5.907,13.166,13.166,13.166c3.978,0,7.542-1.779,9.958-4.578l17.696,14.994
	c-1.781,8.061-5.788,15.725-12.046,21.98c-17.494,17.494-45.961,17.496-63.455,0.004C13.775,77.232,13.777,48.764,31.273,31.27z
	 M45.32,94.029h35.361c4.687,0,8.486-3.801,8.486-8.486v-9.752c0-4.688-3.8-8.486-8.486-8.486H45.32
	c-4.687,0-8.486,3.799-8.486,8.486v9.752C36.833,90.229,40.633,94.029,45.32,94.029z M77.075,70.607h5.322
	c1.297,0.939,2.271,2.295,2.725,3.873v4.174h-8.047V70.607z M77.075,82.678h8.047v4.176c-0.454,1.578-1.428,2.932-2.725,3.871
	h-5.322V82.678z M65.019,70.607h8.033v8.047h-8.033V70.607z M65.019,82.678h8.033v8.047h-8.033V82.678z M52.948,70.607h8.033v8.047
	h-8.033V70.607z M52.948,82.678h8.033v8.047h-8.033V82.678z M40.878,74.48c0.454-1.578,1.428-2.934,2.725-3.873h5.322v8.047h-8.047
	V74.48z M40.878,82.678h8.047v8.047h-5.322c-1.297-0.939-2.271-2.293-2.725-3.871V82.678z M41.783,50.084
	c0-3.422,2.777-6.199,6.201-6.199c3.423,0,6.2,2.777,6.2,6.199c0,3.428-2.777,6.203-6.2,6.203
	C44.56,56.287,41.783,53.512,41.783,50.084z"/>
</svg>
