<?xml version="1.0" encoding="iso-8859-1"?>
<!-- Generator: Adobe Illustrator 17.1.0, SVG Export Plug-In . SVG Version: 6.00 Build 0)  -->
<!DOCTYPE svg PUBLIC "-//W3C//DTD SVG 1.1//EN" "http://www.w3.org/Graphics/SVG/1.1/DTD/svg11.dtd">
<svg version="1.1" id="Capa_1" xmlns="http://www.w3.org/2000/svg" xmlns:xlink="http://www.w3.org/1999/xlink" x="0px" y="0px"
	 viewBox="0 0 218.14 218.14" style="enable-background:new 0 0 218.14 218.14;" xml:space="preserve">
<path d="M181.346,218.14h-59.725c-0.988,0-1.883-0.582-2.284-1.484l-4.098-9.218c-0.14-0.296-0.223-0.623-0.235-0.969
	c-0.002-0.035-0.002-0.071-0.002-0.106v-20.928c0-1.381,1.119-2.5,2.5-2.5h26.814v-11.461c0-1.381,1.119-2.5,2.5-2.5h2.167v-68.855
	c-12.701-1.259-22.654-12.004-22.654-25.031c0-13.869,11.284-25.153,25.154-25.153s25.154,11.284,25.154,25.153
	c0,13.027-9.953,23.772-22.654,25.031v68.855h2.167c1.381,0,2.5,1.119,2.5,2.5v11.461h26.814c1.381,0,2.5,1.119,2.5,2.5v20.933
	c0,0.021,0,0.041-0.001,0.061c-0.008,0.361-0.092,0.703-0.236,1.011l-4.098,9.217C183.229,217.558,182.334,218.14,181.346,218.14z
	 M123.247,213.14h56.475l1.897-4.267h-60.27L123.247,213.14z M120.002,203.873h62.963v-15.938h-62.963V203.873z M149.317,182.935
	h4.334v-8.961h-4.334V182.935z M151.484,54.934c-11.113,0-20.154,9.041-20.154,20.153c0,11.113,9.041,20.154,20.154,20.154
	s20.154-9.041,20.154-20.154C171.638,63.975,162.597,54.934,151.484,54.934z M100.636,218.14H32.674c-1.381,0-2.5-1.119-2.5-2.5
	v-19.948c0-1.381,1.119-2.5,2.5-2.5h5.223V72.738h-1.49c-1.381,0-2.5-1.119-2.5-2.5s1.119-2.5,2.5-2.5h3.195
	c0.25-0.084,0.518-0.129,0.795-0.129h52.517c0.277,0,0.545,0.045,0.795,0.129h3.109c1.381,0,2.5,1.119,2.5,2.5s-1.119,2.5-2.5,2.5
	h-1.404v120.453h5.223c1.381,0,2.5,1.119,2.5,2.5v19.948C103.136,217.021,102.017,218.14,100.636,218.14z M35.174,213.14h62.962
	v-14.948H35.174V213.14z M42.897,193.191h47.517v-10.744H52.411c-1.381,0-2.5-1.119-2.5-2.5V81.437c0-1.381,1.119-2.5,2.5-2.5
	h38.003v-6.198H42.897V193.191z M54.911,177.447h35.503V83.937H54.911V177.447z M120.522,54.564
	c-7.477,0-13.559-6.082-13.559-13.559s6.082-13.559,13.559-13.559c7.476,0,13.558,6.082,13.558,13.559
	S127.998,54.564,120.522,54.564z M120.522,32.447c-4.719,0-8.559,3.84-8.559,8.559s3.84,8.559,8.559,8.559s8.558-3.84,8.558-8.559
	S125.241,32.447,120.522,32.447z M166,43.366c-11.956,0-21.684-9.728-21.684-21.684S154.044,0,166,0s21.684,9.727,21.684,21.683
	S177.957,43.366,166,43.366z M166,5c-9.199,0-16.684,7.483-16.684,16.683S156.801,38.366,166,38.366s16.684-7.484,16.684-16.684
	S175.2,5,166,5z M117.003,43.046c-0.169,0-0.341-0.018-0.512-0.054c-1.353-0.281-2.22-1.604-1.938-2.956
	c0.623-2.999,3.069-4.456,4.416-4.846c1.328-0.379,2.712,0.383,3.096,1.709c0.378,1.31-0.363,2.677-1.659,3.08
	c-0.15,0.054-0.803,0.329-0.958,1.074C119.203,42.234,118.163,43.045,117.003,43.046z M155.776,20.771
	c-0.169,0-0.341-0.018-0.513-0.054c-1.352-0.281-2.22-1.605-1.938-2.957c1.539-7.39,8.34-9.434,8.628-9.517
	c1.331-0.388,2.714,0.381,3.096,1.707c0.382,1.321-0.374,2.7-1.689,3.091c-0.192,0.06-4.227,1.357-5.14,5.738
	C157.975,19.959,156.935,20.77,155.776,20.771z"/>
<g>
</g>
<g>
</g>
<g>
</g>
<g>
</g>
<g>
</g>
<g>
</g>
<g>
</g>
<g>
</g>
<g>
</g>
<g>
</g>
<g>
</g>
<g>
</g>
<g>
</g>
<g>
</g>
<g>
</g>
</svg>
