<?xml version="1.0" encoding="iso-8859-1"?>
<!-- Generator: Adobe Illustrator 17.1.0, SVG Export Plug-In . SVG Version: 6.00 Build 0)  -->
<!DOCTYPE svg PUBLIC "-//W3C//DTD SVG 1.1//EN" "http://www.w3.org/Graphics/SVG/1.1/DTD/svg11.dtd">
<svg version="1.1" id="Layer_1" xmlns="http://www.w3.org/2000/svg" xmlns:xlink="http://www.w3.org/1999/xlink" x="0px" y="0px"
	 viewBox="0 0 800 800" style="enable-background:new 0 0 800 800;" preserveAspectRatio="fit">
<path d="M409.791,400H89.376v-82.349c0-6.497,5.267-11.764,11.764-11.764h254.324c4.456,0,8.529,2.518,10.522,6.503L409.791,400z
	 M230.546,188.245v-47.057h-82.349v47.057H230.546z M148.197,211.773v82.349h82.349v-82.349H148.197z M797.357,430.931
	l-58.564,106.207c-41.389,75.06-120.322,121.673-206.037,121.673H120.196c-25.318,0-47.796-16.201-55.802-40.22L0.613,427.248
	c-2.539-7.618,3.131-15.484,11.16-15.484h776.44C798.11,411.764,803.584,423.239,797.357,430.931z M199.983,512.908
	c0-12.605-10.218-22.823-22.823-22.823s-22.823,10.218-22.823,22.823c0,12.605,10.218,22.823,22.823,22.823
	S199.983,525.513,199.983,512.908z M294.097,512.908c0-12.605-10.218-22.823-22.823-22.823s-22.823,10.218-22.823,22.823
	c0,12.605,10.218,22.823,22.823,22.823S294.097,525.513,294.097,512.908z M388.21,512.908c0-12.605-10.218-22.823-22.823-22.823
	s-22.823,10.218-22.823,22.823c0,12.605,10.218,22.823,22.823,22.823S388.21,525.513,388.21,512.908z"/>
</svg>
