<?xml version="1.0" encoding="iso-8859-1"?>
<!-- Generator: Adobe Illustrator 19.0.0, SVG Export Plug-In . SVG Version: 6.00 Build 0)  -->
<svg version="1.1" id="Layer_1" xmlns="http://www.w3.org/2000/svg" xmlns:xlink="http://www.w3.org/1999/xlink" x="0px" y="0px"
	 viewBox="0 0 330 330" style="enable-background:new 0 0 330 330;" xml:space="preserve">
<g id="XMLID_483_">
	<g>
		<path d="M297.431,191.361L330,165l-32.569-26.361l20.044-36.801L277.27,90.003l4.402-41.675l-41.675,4.402l-11.835-40.205
			l-36.8,20.044L165,0l-26.36,32.57l-36.802-20.043L90.002,52.73l-41.674-4.402l4.401,41.675l-40.204,11.836l20.044,36.8L0,165
			l32.569,26.361l-20.044,36.802l40.204,11.834l-4.402,41.676l41.676-4.401l11.835,40.204l36.801-20.045L165,330l26.36-32.57
			l36.801,20.045l11.836-40.204l41.675,4.402l-4.401-41.675l40.204-11.836L297.431,191.361z M135,175c-5.523,0-10-4.477-10-10
			s4.477-10,10-10s10,4.477,10,10S140.523,175,135,175z M195,175c-5.523,0-10-4.477-10-10s4.477-10,10-10s10,4.477,10,10
			S200.523,175,195,175z"/>
	</g>
</g>
<g>
</g>
<g>
</g>
<g>
</g>
<g>
</g>
<g>
</g>
<g>
</g>
<g>
</g>
<g>
</g>
<g>
</g>
<g>
</g>
<g>
</g>
<g>
</g>
<g>
</g>
<g>
</g>
<g>
</g>
</svg>
