<?xml version='1.0' encoding='iso-8859-1'?>
<svg version="1.1" xmlns="http://www.w3.org/2000/svg" viewBox="0 0 297.1 297.1" xmlns:xlink="http://www.w3.org/1999/xlink" enable-background="new 0 0 297.1 297.1">
  <g>
    <g>
      <circle cx="224.212" cy="27.229" r="25.907"/>
      <path d="m287.1,276.756h-1.794l-25.982-63.05c-2.355-56.293-1.87-26.782-1.87-134.312 0-9.665-7.835-17.501-17.501-17.501h-31.209c-3.921,0-7.529,1.305-10.447,3.484l-26.705-5.641-20.66-42.499c-3.02-6.21-10.5-8.795-16.707-5.777-6.209,3.019-8.796,10.498-5.777,16.707l23.334,48c1.688,3.471 4.883,5.968 8.659,6.766l30.802,6.507v30.241l10.179-2.616c4.908-7.329 18.773-28.031 23.05-34.417l-15.627,44.899-41.878,10.764c-6.687,1.719-10.713,8.531-8.995,15.218 1.719,6.685 8.533,10.716 15.218,8.995l48.369-12.432c4.055-1.042 7.317-4.044 8.694-7.998l17.256-49.58c-5.78,55.212-5.271,51.651-5.924,53.526-2.704,7.767-9.074,13.627-17.039,15.674-29.679,7.628-29.028,7.461-34.639,8.903l-12.747,34.754c-0.971,2.647-1.176,5.515-0.592,8.272l13.365,63.113h-30c-20.719-35.391-33.281-75.816-40.728-114.9h29.207c-0.881-1.669-1.58-3.457-2.064-5.34-1.266-4.923-0.976-9.998 0.773-14.66h-31.318c-8.562-56.92-7.075-108.473-5.455-133.885 0.188-2.956-1.394-5.741-4.031-7.09s-5.823-1.003-8.109,0.881c-31.869,26.253-108.245,99.515-97.108,190.994 10.317,84.75 98.749,101.068 144.559,103.789 1.307,0.272 18.507,0.822 27.275,0.211h114.166c5.522,0 10-4.478 10-10s-4.478-10-10-10zm-66.501,0l-13.788-65.106 14.832-40.439c0.446-1.217 1.604-2.025 2.9-2.025h0.002c1.617,0 2.942,1.274 3.008,2.89 0.172,4.221 0.644,15.385 1.906,45.528 0.073,1.748 0.452,3.47 1.118,5.087l22.276,54.066h-32.254v-0.001z"/>
    </g>
  </g>
</svg>
