<?xml version="1.0" encoding="iso-8859-1"?>
<!-- Generator: Adobe Illustrator 18.0.0, SVG Export Plug-In . SVG Version: 6.00 Build 0)  -->
<!DOCTYPE svg PUBLIC "-//W3C//DTD SVG 1.1//EN" "http://www.w3.org/Graphics/SVG/1.1/DTD/svg11.dtd">
<svg version="1.1" id="Capa_1" xmlns="http://www.w3.org/2000/svg" xmlns:xlink="http://www.w3.org/1999/xlink" x="0px" y="0px"
	 viewBox="0 0 475.078 475.078" style="enable-background:new 0 0 475.078 475.078;" xml:space="preserve">
<g>
	<path d="M324.94,288.665l-40.615-12.106c-12.245,14.686-28.135,25.72-46.777,25.72s-34.531-11.034-46.794-25.72l-40.599,12.106
		c-10.918,3.252-17.439,14.411-14.922,25.516l5.303,23.388c1.283,5.622,3.02,11.034,5.176,16.21
		c9.635-11.002,24.445-16.108,38.754-12.879c17.612,3.949,35.472,5.951,53.066,5.951c36.893,0,71.205-8.094,99.888-21.903
		l2.44-10.767C342.377,303.076,335.857,291.917,324.94,288.665z"/>
	<path d="M237.531,26.759C106.551,26.759,0,111.133,0,214.838c0,54.934,29.699,106.372,81.747,142.1l10.229,63.012
		c2.188,13.167,11.933,23.874,24.804,27.251c2.816,0.743,5.724,1.118,8.633,1.118c10.385,0,20.033-4.653,26.478-12.754
		l30.216-37.924c18.423,3.494,37.018,5.262,55.426,5.262c130.98,0,237.547-84.368,237.547-188.064
		C475.078,111.133,368.511,26.759,237.531,26.759z M237.531,370.873c-19.363,0-38.988-2.197-58.32-6.529
		c-6.035-1.345-12.198,0.86-16.031,5.646l-36.361,45.636c-0.328,0.423-0.859,0.665-1.406,0.665l-0.469-0.063
		c-0.704-0.187-1.252-0.79-1.361-1.47l-11.338-69.853c-0.735-4.489-3.332-8.453-7.164-10.908
		c-46.416-29.824-73.051-73.256-73.051-119.158c0-86.047,92.193-156.049,205.502-156.049c113.322,0,205.517,70.002,205.517,156.049
		C443.048,300.878,350.853,370.873,237.531,370.873z"/>
	<g>
		<path d="M311.042,204.987c-1.49-4.317-4-8.409-7.984-8.967c-0.865-0.12-1.908,0.177-2.568,0.177c-0.998,0-3.292-1.239-3.885-1.681
			c-13.213-9.984-35.506-16.682-59.267-16.682c-23.762,0-46.028,6.697-59.242,16.682c-0.593,0.442-2.885,1.681-3.883,1.681
			c-0.661,0-1.704-0.297-2.568-0.177c-3.987,0.558-6.495,4.649-7.983,8.967c-1.838,5.299-1.832,12.126,0.57,19.021
			c1.265,3.634,3.079,6.8,5.166,9.484c4.131,5.305,9.446,8.512,14.517,8.416c11.161,25.598,31.015,47.944,53.437,47.944
			c22.424,0,42.275-22.346,53.436-47.944c5.071,0.096,10.387-3.111,14.518-8.416c2.087-2.685,3.901-5.851,5.167-9.484
			C312.87,217.113,312.876,210.286,311.042,204.987z"/>
	</g>
	<path d="M192.694,177.87l2.715-24.151l4.629,21.77c11.197-3.234,24.043-5.097,37.738-5.097c7.279,0,14.291,0.56,20.975,1.537
		l6.501-31.911l2.491,33.528c14.016,3.053,26.013,8.123,34.548,14.57c1.013-4.585,1.579-9.329,1.579-14.223
		c0-23.274-12.051-43.706-30.239-55.479c0.064-0.737,0.257-1.43,0.257-2.179c0-2.684-0.535-5.251-1.297-7.738
		c-4.009-13.07-17.742-22.763-34.228-22.763c-16.187,0-29.695,9.356-33.971,22.075c-0.91,2.694-1.548,5.485-1.548,8.426
		c0,0.519,0.146,0.998,0.177,1.506c-18.79,11.661-31.345,32.412-31.345,56.151c0,4.894,0.572,9.638,1.586,14.223
		C178.536,184.13,185.126,180.661,192.694,177.87z"/>
</g>
<g>
</g>
<g>
</g>
<g>
</g>
<g>
</g>
<g>
</g>
<g>
</g>
<g>
</g>
<g>
</g>
<g>
</g>
<g>
</g>
<g>
</g>
<g>
</g>
<g>
</g>
<g>
</g>
<g>
</g>
</svg>
