<?xml version="1.0" encoding="iso-8859-1"?>
<!-- Generator: Adobe Illustrator 19.0.0, SVG Export Plug-In . SVG Version: 6.00 Build 0)  -->
<svg version="1.1" id="Layer_1" xmlns="http://www.w3.org/2000/svg" xmlns:xlink="http://www.w3.org/1999/xlink" x="0px" y="0px"
	 viewBox="0 0 340 340" style="enable-background:new 0 0 340 340;" xml:space="preserve">
<g id="XMLID_88_">
	<g>
		<path d="M314,160.822l-27.215,13.607c3.239-5.835,5.24-14.672,2.882-27.941c-3.39-19.07-27.663-52.006-69.297-69.456
			C271.773,66.824,340,66.821,340,66.821c-100-40-229.999-20-269.999,29.999c0,0.001-0.001,0.001-0.001,0.001
			c-7,7.817-29.921,75.795-40.077,107.911C18.073,214.341,0,236.822,0,236.822s17.571,17.112,61.393,33.593
			C66.874,260.436,70,248.988,70,236.822h20c0,14.426-3.418,28.068-9.477,40.166c3.785,1.186,7.72,2.355,11.81,3.5
			C159,299.155,240,296.822,270,286.822c21.818-7.272,27.157-22.025,17.347-43.327L314,256.822c0,0,16-13.175,16-48
			C330,173.997,314,160.822,314,160.822z M60,216.822c-5.523,0-10-4.477-10-10c0-5.523,4.477-10,10-10c5.522,0,10,4.477,10,10
			C70,212.345,65.522,216.822,60,216.822z M130,246.822l-20-20l40-30C150,196.822,160,236.822,130,246.822z"/>
	</g>
</g>
<g>
</g>
<g>
</g>
<g>
</g>
<g>
</g>
<g>
</g>
<g>
</g>
<g>
</g>
<g>
</g>
<g>
</g>
<g>
</g>
<g>
</g>
<g>
</g>
<g>
</g>
<g>
</g>
<g>
</g>
</svg>
