<?xml version="1.0" encoding="utf-8"?>
<!-- Generator: Adobe Illustrator 16.0.4, SVG Export Plug-In . SVG Version: 6.00 Build 0)  -->
<!DOCTYPE svg PUBLIC "-//W3C//DTD SVG 1.1//EN" "http://www.w3.org/Graphics/SVG/1.1/DTD/svg11.dtd">
<svg version="1.1" id="Layer_1" xmlns="http://www.w3.org/2000/svg" xmlns:xlink="http://www.w3.org/1999/xlink" x="0px" y="0px"
	 width="24px" height="23px" viewBox="0 0 24 23" enable-background="new 0 0 24 23" xml:space="preserve">
<path d="M13.625,13.219c0.292,0.234,0.43,0.61,0.355,0.979l-1,5C12.887,19.672,12.468,20,12.001,20c-0.065,0-0.131-0.006-0.197-0.02
	c-0.542-0.108-0.893-0.635-0.784-1.178l0.866-4.332L6.9,11.7C5.8,11,5.7,9.3,6.8,8.5C8,7.6,9,6.9,9.8,6.3C10.9,5.5,11.7,5,12.5,5
	c0.326,0,0.453,0,0.5,0c0.256,0,0.512,0.098,0.707,0.293L17.414,9H21c0.553,0,1,0.448,1,1s-0.447,1-1,1h-4
	c-0.266,0-0.52-0.105-0.707-0.293l-0.635-0.635L13.8,8.5l-3.2,2.1l2.806,2.443L13.625,13.219z M15.5,5C16.881,5,18,3.881,18,2.5
	S16.881,0,15.5,0S13,1.119,13,2.5S14.119,5,15.5,5z M24,18.5c0,2.5-2,4.5-4.5,4.5S15,21,15,18.5s2-4.5,4.5-4.5S24,16,24,18.5z
	 M22.5,18.5c0-1.7-1.3-3-3-3s-3,1.3-3,3s1.3,3,3,3S22.5,20.2,22.5,18.5z M9,18.5C9,21,7,23,4.5,23S0,21,0,18.5S2,14,4.5,14
	S9,16,9,18.5z M7.5,18.5c0-1.7-1.3-3-3-3s-3,1.3-3,3s1.3,3,3,3S7.5,20.2,7.5,18.5z"/>
</svg>
