<?xml version="1.0" encoding="iso-8859-1"?>
<!-- Generator: Adobe Illustrator 16.0.0, SVG Export Plug-In . SVG Version: 6.00 Build 0)  -->
<!DOCTYPE svg PUBLIC "-//W3C//DTD SVG 1.1//EN" "http://www.w3.org/Graphics/SVG/1.1/DTD/svg11.dtd">
<svg version="1.1" id="Capa_1" xmlns="http://www.w3.org/2000/svg" xmlns:xlink="http://www.w3.org/1999/xlink" x="0px" y="0px"
	 width="45.91px" height="45.91px" viewBox="0 0 45.91 45.91" style="enable-background:new 0 0 45.91 45.91;" xml:space="preserve"
	>
<g>
	<g>
		<path d="M26.842,15.907l5.273-4.761V6.383c0-1.956-1.644-3.562-3.596-3.562H17.374c-1.952,0-3.573,1.606-3.573,3.562v4.762
			l5.266,4.754c-5.769,1.681-9.997,7.016-9.997,13.318c0,7.648,6.223,13.871,13.872,13.871c7.648,0,13.871-6.223,13.871-13.871
			C36.812,22.923,32.598,17.597,26.842,15.907z M24.316,5.6h4.203c0.445,0,0.818,0.339,0.818,0.784v2.819h-5.021V5.6z M24.316,11.98
			h2.734l-2.734,2.505V11.98z M16.578,6.383c0-0.445,0.352-0.784,0.796-0.784H21.6v3.604h-5.022V6.383z M18.836,11.98h2.762v2.505
			L18.836,11.98z M22.941,38.521c-5.13,0-9.303-4.173-9.303-9.304c0-5.129,4.173-9.302,9.303-9.302c5.129,0,9.304,4.173,9.304,9.302
			C32.245,34.349,28.07,38.521,22.941,38.521z"/>
		<path d="M14.145,16.375c0.166-0.002,0.309-0.121,0.342-0.284c0.033-0.163-0.053-0.328-0.206-0.394l-4.494-1.963L9.719,8.831
			C9.716,8.664,9.598,8.521,9.435,8.488C9.271,8.456,9.107,8.541,9.041,8.693l-1.963,4.494l-4.904,0.068
			c-0.167,0.002-0.309,0.121-0.342,0.284s0.052,0.327,0.205,0.394l4.495,1.963L6.6,20.8c0.002,0.167,0.121,0.309,0.284,0.342
			c0.164,0.033,0.328-0.052,0.395-0.205l1.964-4.494L14.145,16.375z"/>
		<path d="M3.945,9.975c0.067,0.152,0.232,0.236,0.396,0.202C4.505,10.143,4.622,10,4.623,9.833l0.018-2.554l2.333-1.04
			C7.125,6.171,7.21,6.006,7.176,5.842c-0.035-0.162-0.178-0.279-0.344-0.28L4.277,5.544l-1.04-2.333
			C3.169,3.061,3.004,2.976,2.841,3.009c-0.163,0.034-0.28,0.177-0.281,0.344L2.543,5.909L0.209,6.948
			C0.058,7.015-0.026,7.18,0.007,7.342c0.034,0.164,0.177,0.28,0.344,0.281l2.555,0.019L3.945,9.975z"/>
		<path d="M43.736,13.255l-4.903-0.068L36.87,8.692c-0.066-0.153-0.231-0.238-0.396-0.205c-0.164,0.033-0.281,0.175-0.284,0.342
			l-0.068,4.904l-4.494,1.963c-0.153,0.066-0.238,0.231-0.205,0.394s0.175,0.282,0.342,0.284l4.904,0.068l1.963,4.494
			c0.067,0.153,0.23,0.238,0.395,0.205c0.163-0.033,0.282-0.175,0.284-0.342l0.068-4.904l4.494-1.963
			c0.152-0.067,0.237-0.231,0.206-0.394C44.046,13.375,43.903,13.257,43.736,13.255z"/>
		<path d="M45.701,6.948l-2.333-1.039L43.35,3.354c0-0.167-0.118-0.31-0.281-0.344c-0.162-0.035-0.327,0.05-0.396,0.202
			l-1.039,2.333L39.08,5.562c-0.166,0.001-0.311,0.118-0.345,0.281c-0.033,0.164,0.051,0.328,0.203,0.396l2.333,1.04l0.018,2.554
			c0.001,0.167,0.118,0.31,0.28,0.344c0.164,0.034,0.328-0.05,0.396-0.202l1.039-2.333l2.555-0.018
			c0.167-0.001,0.311-0.118,0.344-0.281C45.937,7.18,45.853,7.015,45.701,6.948z"/>
	</g>
</g>
<g>
</g>
<g>
</g>
<g>
</g>
<g>
</g>
<g>
</g>
<g>
</g>
<g>
</g>
<g>
</g>
<g>
</g>
<g>
</g>
<g>
</g>
<g>
</g>
<g>
</g>
<g>
</g>
<g>
</g>
</svg>
