<?xml version="1.0" encoding="iso-8859-1"?>
<!-- Generator: Adobe Illustrator 19.0.0, SVG Export Plug-In . SVG Version: 6.00 Build 0)  -->
<svg version="1.1" id="Layer_1" xmlns="http://www.w3.org/2000/svg" xmlns:xlink="http://www.w3.org/1999/xlink" x="0px" y="0px"
	 viewBox="0 0 490 490" style="enable-background:new 0 0 490 490;" xml:space="preserve">
<g id="XMLID_808_">
	<g>
		<g>
			<polygon points="159,280 329,280 329,250 319,250 319,160 289,160 289,250 259,250 259,190 229,190 229,250 199,250 199,220 
				169,220 169,250 159,250 			"/>
			<path d="M40,0v490h410V0H40z M330,90h30v220h-90v90H130V90h30v30h170V90z M338.787,340L300,378.787V340H338.787z M190,30h110v60
				H190V30z M420,460H70V30h90v30h-60v370h191.213L390,331.213V60h-60V30h90V460z"/>
		</g>
	</g>
</g>
<g>
</g>
<g>
</g>
<g>
</g>
<g>
</g>
<g>
</g>
<g>
</g>
<g>
</g>
<g>
</g>
<g>
</g>
<g>
</g>
<g>
</g>
<g>
</g>
<g>
</g>
<g>
</g>
<g>
</g>
</svg>
