<?xml version="1.0" encoding="iso-8859-1"?>
<!-- Generator: Adobe Illustrator 16.0.0, SVG Export Plug-In . SVG Version: 6.00 Build 0)  -->
<!DOCTYPE svg PUBLIC "-//W3C//DTD SVG 1.1//EN" "http://www.w3.org/Graphics/SVG/1.1/DTD/svg11.dtd">
<svg version="1.1" id="Layer_1" xmlns="http://www.w3.org/2000/svg" xmlns:xlink="http://www.w3.org/1999/xlink" x="0px" y="0px"
	 width="19.615px" height="35.804px" viewBox="0 0 19.615 35.804" style="enable-background:new 0 0 19.615 35.804;"
	 preserveAspectRatio="fit">
<g>
	<path style="fill:#231F20;" d="M8.046,27.205h-3.51c-0.581,0-1.052,0.471-1.052,1.052v0.539c0,0.581,0.471,1.051,1.052,1.051h3.51
		c0.581,0,1.052-0.471,1.052-1.051v-0.539C9.098,27.676,8.627,27.205,8.046,27.205z"/>
	<path style="fill:#231F20;" d="M6.513,12.714h3.316h0.004h3.317c1.079,0,1.953-0.875,1.953-1.954V8.221
		c0-1.079-0.874-1.953-1.953-1.953h-0.858c-0.179-0.33-0.529-0.555-0.93-0.555h-0.625c-0.067-0.234-0.283-0.406-0.54-0.406H9.954
		V1.335c0.276-0.088,0.476-0.347,0.476-0.652C10.43,0.307,10.125,0,9.747,0C9.369,0,9.063,0.307,9.063,0.684
		c0,0.305,0.2,0.563,0.476,0.652v3.972H9.45c-0.257,0-0.473,0.172-0.54,0.406H8.546c-0.401,0-0.751,0.225-0.931,0.555H6.513
		c-1.079,0-1.953,0.874-1.953,1.953v2.539C4.56,11.839,5.434,12.714,6.513,12.714z M11.786,8.693c0.495,0,0.896,0.401,0.896,0.896
		c0,0.495-0.401,0.896-0.896,0.896c-0.495,0-0.896-0.401-0.896-0.896C10.89,9.094,11.291,8.693,11.786,8.693z M7.878,8.693
		c0.495,0,0.896,0.401,0.896,0.896c0,0.495-0.401,0.896-0.896,0.896c-0.495,0-0.896-0.401-0.896-0.896
		C6.982,9.094,7.383,8.693,7.878,8.693z"/>
	<path style="fill:#231F20;" d="M14.193,12.984H9.826H9.822H5.456c-1.079,0-1.953,0.874-1.953,1.953v6.813
		c0,1.078,0.874,1.953,1.953,1.953h4.367h0.004h4.367c1.078,0,1.953-0.875,1.953-1.953v-6.813
		C16.146,13.858,15.271,12.984,14.193,12.984z M6.165,14.602h7.318c0.46,0,0.833,0.373,0.833,0.833v2.074h-1.424l-0.377-0.749
		c-0.018-0.036-0.058-0.06-0.097-0.058c-0.041,0-0.077,0.024-0.095,0.062l-0.346,0.745H9.653l-0.158-0.311
		c-0.019-0.037-0.057-0.058-0.098-0.058c-0.042,0.002-0.078,0.027-0.094,0.065l-0.344,0.833l-0.317-1.385
		c-0.011-0.048-0.054-0.082-0.103-0.082H8.537c-0.05,0-0.093,0.035-0.103,0.083l-0.486,2.273l-0.592-3.527
		c-0.007-0.047-0.047-0.084-0.095-0.088c-0.049-0.004-0.093,0.025-0.109,0.07l-0.756,2.127H5.332v-2.074
		C5.332,14.975,5.705,14.602,6.165,14.602z M5.971,22.355c-0.353,0-0.639-0.286-0.639-0.639c0-0.353,0.286-0.639,0.639-0.639
		c0.353,0,0.639,0.287,0.639,0.639C6.61,22.069,6.323,22.355,5.971,22.355z M7.517,22.355c-0.353,0-0.639-0.286-0.639-0.639
		c0-0.353,0.286-0.639,0.639-0.639s0.639,0.287,0.639,0.639C8.156,22.069,7.87,22.355,7.517,22.355z M13.483,20.308H6.165
		c-0.46,0-0.833-0.373-0.833-0.833V17.72h1.139c0.045,0,0.085-0.028,0.1-0.07l0.644-1.813l0.616,3.673
		c0.009,0.05,0.051,0.087,0.102,0.088c0.001,0,0.002,0,0.002,0c0.05,0,0.093-0.035,0.104-0.084l0.502-2.348l0.285,1.243
		c0.01,0.045,0.048,0.078,0.095,0.082c0.045,0.004,0.089-0.022,0.106-0.065L9.411,17.5l0.083,0.163
		c0.018,0.036,0.055,0.058,0.094,0.058h2.458c0.041,0,0.079-0.023,0.096-0.061l0.282-0.608l0.308,0.611
		c0.018,0.036,0.055,0.058,0.095,0.058h1.489v1.754C14.316,19.935,13.944,20.308,13.483,20.308z"/>
	<path style="fill:#231F20;" d="M1.546,13.06C0.692,13.06,0,13.752,0,14.607v7.474c0,0.854,0.692,1.546,1.546,1.546
		s1.547-0.692,1.547-1.546v-7.474C3.093,13.752,2.4,13.06,1.546,13.06z"/>
	<path style="fill:#231F20;" d="M18.069,13.06c-0.854,0-1.546,0.692-1.546,1.547v7.474c0,0.854,0.692,1.546,1.546,1.546
		s1.546-0.692,1.546-1.546v-7.474C19.615,13.752,18.923,13.06,18.069,13.06z"/>
	<path style="fill:#231F20;" d="M6.254,30.197c-1.548,0-2.804,1.255-2.804,2.803c0,1.549,1.255,2.804,2.804,2.804
		S9.058,34.549,9.058,33C9.058,31.452,7.803,30.197,6.254,30.197z M6.254,33.922c-0.509,0-0.922-0.412-0.922-0.922
		c0-0.509,0.413-0.922,0.922-0.922S7.177,32.491,7.177,33C7.177,33.51,6.764,33.922,6.254,33.922z"/>
	<path style="fill:#231F20;" d="M8.046,24.127h-3.51c-0.581,0-1.052,0.471-1.052,1.052v0.54c0,0.581,0.471,1.051,1.052,1.051h3.51
		c0.581,0,1.052-0.471,1.052-1.051v-0.54C9.098,24.598,8.627,24.127,8.046,24.127z"/>
	<path style="fill:#231F20;" d="M15.073,27.205h-3.51c-0.581,0-1.051,0.471-1.051,1.052v0.539c0,0.581,0.471,1.051,1.051,1.051h3.51
		c0.581,0,1.052-0.471,1.052-1.051v-0.539C16.125,27.676,15.654,27.205,15.073,27.205z"/>
	<path style="fill:#231F20;" d="M13.281,30.197c-1.548,0-2.803,1.255-2.803,2.803c0,1.549,1.255,2.804,2.803,2.804
		c1.549,0,2.804-1.255,2.804-2.804C16.085,31.452,14.83,30.197,13.281,30.197z M13.281,33.922c-0.509,0-0.921-0.412-0.921-0.922
		c0-0.509,0.412-0.922,0.921-0.922c0.51,0,0.922,0.413,0.922,0.922C14.204,33.51,13.791,33.922,13.281,33.922z"/>
	<path style="fill:#231F20;" d="M15.073,24.127h-3.51c-0.581,0-1.051,0.471-1.051,1.052v0.54c0,0.581,0.471,1.051,1.051,1.051h3.51
		c0.581,0,1.052-0.471,1.052-1.051v-0.54C16.125,24.598,15.654,24.127,15.073,24.127z"/>
</g>
<g>
</g>
<g>
</g>
<g>
</g>
<g>
</g>
<g>
</g>
<g>
</g>
<g>
</g>
<g>
</g>
<g>
</g>
<g>
</g>
<g>
</g>
<g>
</g>
<g>
</g>
<g>
</g>
<g>
</g>
</svg>
