<?xml version="1.0" encoding="iso-8859-1"?>
<!-- Generator: Adobe Illustrator 19.0.0, SVG Export Plug-In . SVG Version: 6.00 Build 0)  -->
<svg version="1.1" id="Capa_1" xmlns="http://www.w3.org/2000/svg" xmlns:xlink="http://www.w3.org/1999/xlink" x="0px" y="0px"
	 viewBox="0 0 463 463" style="enable-background:new 0 0 463 463;" xml:space="preserve">
<path d="M462.684,249.345l-20.579-68.598C439.1,170.73,430.054,164,419.596,164H375.5c-4.142,0-7.5,3.357-7.5,7.5V204h-25.111
	c-1.819-31.185-27.756-56-59.389-56H255v-16.5c0-4.143-3.358-7.5-7.5-7.5h-40c-4.142,0-7.5,3.357-7.5,7.5V148H59.5
	C26.691,148,0,174.691,0,207.5c0,28.874,20.677,53.001,48,58.374V276H23.5c-4.142,0-7.5,3.357-7.5,7.5s3.358,7.5,7.5,7.5H32v16.5
	c0,4.143,3.358,7.5,7.5,7.5h41.409c3.374,13.759,15.806,24,30.591,24c9.607,0,18.217-4.328,24-11.131
	c5.783,6.803,14.393,11.131,24,11.131c14.785,0,27.216-10.241,30.591-24h75.855c2.647,4.765,7.728,8,13.555,8h40
	c5.827,0,10.908-3.235,13.555-8h19.855c3.374,13.759,15.806,24,30.591,24s27.216-10.241,30.591-24H455.5c4.142,0,7.5-3.357,7.5-7.5
	v-56C463,250.771,462.894,250.044,462.684,249.345z M445.42,244H423.5c-9.098,0-16.5-7.402-16.5-16.5V203h26.12L445.42,244z
	 M352.909,300H335v-8.5c0-0.169-0.02-0.333-0.025-0.5h21.707C354.984,293.749,353.7,296.778,352.909,300z M368,276h-73v-10.126
	c23.6-4.641,42.233-23.274,46.874-46.874H368V276z M328,207.5c0,24.537-19.962,44.5-44.5,44.5H279v-89h4.5
	C308.038,163,328,182.963,328,207.5z M79,252v-89h185v89H79z M215,139h25v9h-25V139z M15,207.5c0-24.537,19.962-44.5,44.5-44.5H64
	v89h-4.5C34.962,252,15,232.037,15,207.5z M63,267h217v9H63V267z M264,291.5v8.5h-73.909c-0.79-3.222-2.074-6.251-3.772-9h77.707
	C264.02,291.167,264,291.331,264,291.5z M47,291h37.681c-1.698,2.749-2.982,5.778-3.772,9H47V291z M111.5,324
	c-9.098,0-16.5-7.402-16.5-16.5s7.402-16.5,16.5-16.5s16.5,7.402,16.5,16.5S120.598,324,111.5,324z M159.5,324
	c-9.098,0-16.5-7.402-16.5-16.5s7.402-16.5,16.5-16.5s16.5,7.402,16.5,16.5S168.598,324,159.5,324z M319.5,308h-40
	c-0.276,0-0.5-0.225-0.5-0.5v-16c0-0.275,0.224-0.5,0.5-0.5h40c0.276,0,0.5,0.225,0.5,0.5v16C320,307.775,319.776,308,319.5,308z
	 M383.5,324c-9.098,0-16.5-7.402-16.5-16.5s7.402-16.5,16.5-16.5s16.5,7.402,16.5,16.5S392.598,324,383.5,324z M414.091,300
	c-3.374-13.759-15.806-24-30.591-24c-0.168,0-0.333,0.01-0.5,0.013V179h36.596c3.783,0,7.055,2.435,8.142,6.058L428.62,188H399.5
	c-4.142,0-7.5,3.357-7.5,7.5v32c0,17.369,14.131,31.5,31.5,31.5H448v9h-8.5c-4.142,0-7.5,3.357-7.5,7.5s3.358,7.5,7.5,7.5h8.5v17
	H414.091z"/>
<g>
</g>
<g>
</g>
<g>
</g>
<g>
</g>
<g>
</g>
<g>
</g>
<g>
</g>
<g>
</g>
<g>
</g>
<g>
</g>
<g>
</g>
<g>
</g>
<g>
</g>
<g>
</g>
<g>
</g>
</svg>
